<?xml version="1.0" encoding="utf-8"?>
<!-- Generator: Adobe Illustrator 27.1.1, SVG Export Plug-In . SVG Version: 6.00 Build 0)  -->
<svg version="1.1" id="Layer_1" xmlns="http://www.w3.org/2000/svg" xmlns:xlink="http://www.w3.org/1999/xlink" x="0px" y="0px"
	 viewBox="0 0 750 750" style="enable-background:new 0 0 750 750;" xml:space="preserve">
<style type="text/css">
	.st0{fill:#0B7B5F;stroke:#FFFFFF;stroke-miterlimit:10;}
	.st1{fill:#F9E5AF;}
	.st2{fill:#6F9C77;stroke:#FFFFFF;stroke-linecap:round;stroke-linejoin:round;}
	.st3{fill:#0A7B5F;stroke:#FFFFFF;stroke-miterlimit:10;}
	.st4{fill:#0A7B5F;}
</style>
<g>
	<g>
		<path class="st0" d="M562.41,336.04c-1.38,0.42-2.02,0.54-3.4,1.42c-1.08,0.69-1.83,1.28-3.11,1.49c-1.77,0.29-3.52-0.32-5.2-0.61
			c-2.05-0.36-4.19-0.14-6.27-0.16c-2.07-0.02-3.83,0.64-5.88,0.76c-1.76,0.1-3.59-0.27-5.34-0.07c-1.24,0.14-2.41,0.68-3.63,0.95
			c-3,0.66-6.39,1.13-9.44,1.27c-1.62,0.08-3.49,0.18-5.09-0.18c-1.05-0.23-1.99-0.88-3.02-1.15c-2.9-0.77-5.19-1.01-6.96-3.86
			c-1.57-2.54-3.03-5.24-4.51-7.79c-2.27-3.91-2.51-9.75-7.02-12.44c-2.02-1.21-4.66-0.87-6.67-1.93c-0.97-0.51-1.62-1.17-2.14-2.14
			c-0.47-0.88-1.28-2.66-1.48-3.59c-0.63-2.87-0.58-5.8-1.42-8.67c-0.77-2.64-1-5.42-2.14-7.95c-0.93-2.06-1.77-4.28-3.42-5.9
			c-1.5-1.48-3.22-2.48-4.67-3.96c-1.55-1.58-2.84-3.16-4.84-3.95c-2.4-0.95-4.72-1.24-7.21-2.14c-1.7-0.61-3.65-1.41-5.02-2.63
			c0.03,0.63,0.18,1.52,0.04,2.07c-0.28,1.08-0.93,1.38-1.51,2.32c-1.1,1.78-1.24,3.45-2.97,4.82c-2.3,1.83-4.26,3.97-6.34,6.05
			c-3.09,3.09-2.67,9.16-6.59,11.99c-1.18,0.85-2.65,1.36-3.93,2.06c-3.13,1.73-6.21,3.83-9.09,5.91c-1.57,1.13-8.53,5.57-9.3,8.54
			c-0.25,0.96,0.11,2.96,0.11,3.84c-0.01,2.65,0.03,5.22,0.28,7.87c0.31,3.2-0.74,4.76-2.61,7.28c-2.59,3.49-5.91,7.08-6.93,11.44
			c-0.52,2.26,0.16,2.64-1.55,3.54c-2.6,1.37-4.11-0.43-6.47-0.85c-1.68-0.3-3.37,0.33-5.02,0.54c-1.82,0.23-3.6,0.24-5.4,0.57
			c-6.39,1.2-12.63,2.4-19.19,2.48c-3.58,0.05-5.86,0.41-9.42,1.41c-3.09,0.86-6.62,2.03-9.93,2.05c-3.05,0.02-5.2-2.03-8.09-2.17
			c-0.78-0.04-1.5,0.12-2.21,0.34c0.17,0.28,0.48-0.56-0.79,4.58c-0.41,1.64-0.73,3.32-1.58,4.74c-1.49,2.48-3.18,4.96-4.82,7.36
			c-1.6,2.34-3.68,3.97-5.48,6.11c-1.55,1.85-2.4,4.38-3.82,6.4c-2.31,3.28-4.2,4.8-8.05,5.93c-2.59,0.76-5.8,1.49-7.63,3.57
			c-1.16,1.33-1.65,3.03-2.89,4.31c-3.49,3.61-8.36,6.1-13.24,6.83c-5.27,0.79-10.37,1.9-15.56,3.05
			c-5.52,1.22-11.46,1.08-16.73,3.11c-4.86,1.87-8.61,6.05-10.05,11.04c-0.95,3.29-0.36,7.18-2.01,10.18
			c-2.08,3.78-5.66,8.6-9.33,10.95c-4.17,2.67-10.06,3.01-14.82,2.36c-3.94-0.54-7.52-1.49-11.19,0.58
			c-3.27,1.85-5.48,5.53-7.63,8.52c-4.83,6.73-6.81,16.04-14.68,19.97c-7.15,3.58-13.89,6.31-18.09,13.58
			c-1.62,2.81-3.21,5.67-4.88,8.46c-1.09,1.81-2.49,2.83-4.14,4.07c-2.62,1.97-6.92,2.26-8.66-1.19c-0.88-1.74-1.23-3.7-2.16-5.45
			c-0.91-1.71-1.85-3.4-2.77-5.09c-1.74-3.19-3.41-6.41-5.91-9.09c-2.25-2.42-4.87-4.05-7.67-5.74c-2.4-1.45-4.65-3.08-7.45-3.69
			c-2.74-0.6-5.14,0.04-7.69,0.52c0.3,1.19,0.63,2.16,0.62,3.6c-0.01,0.83,0.06,1.69,0.02,2.52c-0.06,1.19-0.6,2.08-0.76,3.24
			c-0.6,4.22,0.03,9.07,0.03,13.34c0,1.79,0.02,3.57,0,5.36c-0.02,2.06,0.65,3.31,1.35,5.1c0.94,2.39,1.2,2.57,3.68,3.16
			c1.92,0.45,4.08,0.93,5.79,2c1.34,0.84,2.5,1.79,3.89,2.33c2.08,0.81,4.48,0.93,6.51,2.13c4.64,2.75,7.23,7.89,10.95,11.5
			c2.33,2.27,3.88,5.2,6.26,7.53c2,1.96,3.25,4.53,5.16,6.6c1.99,2.15,3.5,4.77,4.61,7.49c0.52,1.29,1.08,2.12,1.8,3.27
			c1.15,1.83,1.53,4.07,2.52,6.04c1.98,3.93,2.21,8.71,2.96,12.98c0.55,3.17,1.72,6.39,2.97,9.35c1.02,2.41,2.56,4.27,3.96,6.46
			c1.41,2.2,3.49,4.51,3.9,7.15c0.92,0.2,1.47-1,2.14-1.4c1.21-0.73,2.89-1.01,4.26-1.27c2.1-0.39,2.79-0.16,4.23,1.24
			c1.77,1.73,3.88,5,6.35,5.71c1.87,0.53,4.74,0.26,6.58-0.07c3.32-0.6,6.64-1.07,10-1.28c2.74-0.17,5.28-1.12,8.05-0.55
			c4.67,0.95,8.86,2.49,12.93,5.03c2.99,1.86,6.37,3.3,9.97,3.43c2.98,0.11,5.97-0.01,8.95,0.02c3.77,0.04,7.44-1.07,11.19-1.47
			c2.73-0.29,5.28-0.15,8.02-0.02c2.07,0.1,3.65,0.7,5.05,2.16c1.56,1.63,2.05,3.56,3.73,5.21c2.28,2.24,3.93,4.38,5.73,7
			c1.78,2.59,3.27,4.9,4.64,7.7c0.37,0.75,0.7,1.78,1.15,2.46c0.52,0.78,1.46,1.26,1.87,2.1c2.52,5.11-2.76,10.54-5.47,14.41
			c-1.97,2.81-2.8,5.93-3.77,9.19c-0.54,1.82-2.52,5.92-1.28,7.93c0.57,0.92,2,2.07,2.72,2.86c1.99,2.18,4.93,2.29,7.78,2.84
			c3.16,0.62,5.37,2.59,8.65,3.07c2.01,0.3,4.02,1.2,5.03,3.02c2.74,4.95-0.73,10.47-0.66,15.5c0.02,1.73,0.77,3.31,0.83,5.05
			c0.05,1.25-0.22,2.51,0.02,3.74c0.32,1.63,0.67,2.74,0.66,4.45c-0.02,2.18,0.02,4.36,0,6.54c-0.01,2.36-0.1,3.18,1.62,4.69
			c2.1,1.83,5.09,3.53,7.69,4.67c3.96,1.73,5.84,3.46,7.09,7.73c0.84,2.86,1.35,5.02,3.94,7.01c0.78,0.6,1.63,1.37,2.48,1.82
			c0.67,0.35,1.56,0.42,2.22,0.78c0.05-0.04,0.09-0.07,0.14-0.1c0.96-0.75,2.09-1.33,2.91-2.26c0.95-1.07,1.08-2.2,1.58-3.48
			c1.33-3.34,2-6.05,1.98-9.69c-0.01-2.7-0.48-5.87,0.48-8.42c0.95-2.55,2.6-4.9,3.9-7.28c0.89-1.64,1.34-3.38,2.1-5.05
			c1.41-3.1,4.13-4.76,6.03-7.55c2.48-3.66,4.99-7.36,7.13-11.25c2.51-4.56,2.67-11.01,1.56-16.02c-0.81-3.65-3.66-7.26-3.34-11.09
			c0.25-3.02,2.9-5.79,4.02-8.59c0.54-1.36,0.84-2.86,1.53-4.15c1.11-2.08,3.12-3.61,4.46-5.54c2.07-2.97,3.67-6.45,4.96-9.81
			c0.55-1.42,0.83-2.96,1.47-4.33c0.86-1.85,2.18-3.53,3.15-5.34c2.23-4.16,3.99-7.79,3.52-12.61c-0.28-2.87-1.99-6.24-1.72-9.04
			c0.19-1.98,0.95-4.24,1.47-6.17c0.42-1.58,0.84-2.92,2.13-3.97c1.25-1.02,2.87-1.47,4.31-2.14c2.67-1.24,4.84-3.12,7.39-4.54
			c1.97-1.1,4.16-1.5,5.92-2.97c1.78-1.49,3.16-3.58,4.7-5.32c1.58-1.78,2.88-3.04,3.21-5.45c0.36-2.61-0.15-5.35,0.13-8
			c0.44-4.14,1.21-8.58,2.37-12.56c0.84-2.89,1.14-5.84,1.83-8.77c0.69-2.89,0.69-5.1-0.01-8c-1.23-5.04-0.92-8.7,2.88-12.53
			c2.65-2.67,3.62-5.62,3.61-9.29c-0.02-5.87-0.64-12.07-1.61-17.86c-0.42-2.49-1.4-4.82-1.84-7.3c-0.52-2.97-0.97-5.76-2.09-8.6
			c-1.28-3.25-3.64-5.19-5.93-7.73c-0.72-0.8-1.74-1.89-2.12-2.92c-0.97-2.66,0.61-5.83,0.62-8.54c0.02-3.41,1.73-6.17,2.14-9.57
			c0.35-2.86,2.46-6.34,4.31-8.53c2.39-2.82,5.35-5.45,8.13-7.85c2.65-2.3,6.25-1.92,9.44-2.65c4.54-1.03,8.86-3.07,13.21-4.67
			c2.96-1.09,6.1-1.45,9.16-2.03c1.54-0.29,2.42-0.65,3.75-1.52c0.88-0.57,2.87-1.33,3.41-2.17c0.7-1.08,0.36-2.95,0.36-4.32
			c0-1.72-0.46-4.15-0.01-5.79c0.4-1.48,2-2.29,3.21-3.19c1.52-1.13,3.2-2.06,4.67-3.25c1.09-0.88,2.01-1.84,3.29-2.46
			c1.59-0.77,3.35-1.08,5.04-1.54c2.07-0.57,4.02-1.49,6.08-2.07c1.4-0.4,2.9-0.53,4.34-0.79c1.9-0.33,3.3,0.17,5.17,0.59
			c5.06,1.13,10.27,0.33,15.3-0.62c6.3-1.18,12.76-2.86,18.92-4.65c3.24-0.94,5.85-1.7,9.2-1.05c3.51,0.68,8.33,1.76,11.91,0.94
			c2.36-0.54,4.13-1.8,6.68-1.18c3.78,0.91,7.3,3.11,11.1,4.06c7.52,1.89,14.75,3.79,22.53,4.47c3.03,0.27,5.11,0.15,7.95-0.72
			c2.47-0.75,4.91-1.38,7.42-2.08c2.84-0.78,5.56-2.38,8.23-3.69c3.64-1.78,7.66-2.33,11.57-3.26c3.36-0.8,6.48,0.42,9.87,0.4
			c3.66-0.02,7.21-0.94,10.84-0.77c3.25,0.16,5.86,2.04,9.14,0.8c2.66-1,4.41-3.44,6.4-5.39c3.15-3.07,1.84-5.6-1.48-7.53
			c-1.22-0.71-2.42-0.69-3.52-1.51c-0.84-0.63-1.6-1.6-2.33-2.34c-2.34-2.38-5.82-2.46-8.8-3.96c-1.34-0.68-2.12-1.53-3.3-2.34
			c-1.41-0.97-3.57-1.34-5.18-1.97c-3.42-1.35-7.25-2.95-10.23-5.03c-2.68-1.88-6.75-3.85-10.03-4.53
			c-1.15-0.24-2.44,0.22-3.61,0.07c-1.01-0.13-1.92-0.69-2.93-0.8c-1.53-0.16-2.49-0.3-3.93-1.01c-1.53-0.76-3.3-2.17-4.66-3.24
			c-2.1-1.65-2.2-1.34-4.68-0.8c-1.64,0.36-2.51-0.14-3.92,0.92c-1.43,1.08-2.9,2.17-4.08,3.45c-2.15,2.34-3.82,4.14-6.75,5.39
			c-2.36,1.01-4.83,3.18-7.54,2.18c-2.37-0.87-5.9-3.58-6.13-6.12c-0.26-2.77-1.26-6.2-3.04-8.5c-1.21-1.57-1.31-1.71-1.88-2.52
			c-0.03,0.02-0.06,0.05-0.1,0.07C565.48,335.24,563.81,335.61,562.41,336.04z"/>
		<path class="st0" d="M394.98,96.5c-0.63,0.41-1.76,1.2-2.64,1.3c-3.17,0.34-6.8-2.86-9.79-3.67c-1.67-0.45-3.36-0.91-5.02-1.4
			c-1.57-0.47-2.85-1.82-4.47-2.06c-1.75-0.26-4.07,1.06-5.29,2.23c-1.09,1.04-1.24,2.33-1.84,3.54c-1.12,2.28-3.43,4.98-5.89,5.75
			c-2.31,0.72-2.67-0.54-4.02-1.94c-2.66-2.76-6.44-1.51-9.89-0.88c-4.98,0.92-8.51,0.72-13.27-0.42c-1.4-0.33-2.19-0.11-3.5,0.35
			c-2.44,0.87-4.94,1.34-7.45,1.91c-1.82,0.41-3.73,1.23-5.63,0.93c-0.88-0.14-1.53-0.64-2.44-0.67c-2.73-0.07-4.7,0.91-7.5,0.43
			c-2.34-0.4-4.87-0.39-7.12-1.28c-1.16-0.46-1.68-0.99-2.25-2.12c-0.77-1.54-0.36-2.35-0.73-3.8c-0.34-1.33-2.54-3.9-3.68-4.68
			c-0.9-0.62-1.91-0.94-2.81-1.62c-0.74-0.55-1.33-1.39-2.12-1.86c-3.76-2.23-8.51-1.87-12.4-3.88c-1.83-0.95-4.25-2.06-5.63-3.58
			c-1.38-1.52-1.87-3.41-3.54-4.76c-2.93-2.38-5.3-5.45-8.63-7.36c-3.56-2.04-7.49-2.77-10.54-5.79c-0.69-0.68-1.17-1.51-1.94-2.1
			c-1.07-0.83-2.26-1.26-3.33-2.12c-2.02-1.63-3.75-3.28-5.6-5.05c-0.95-0.91-1.46-1.24-1.66-2.57c-0.23-1.54,0.45-2.53,0.78-3.9
			c0.67-2.78,2.24-5.28,3.58-7.91c1.73-3.42,2.68-6.74,3.43-10.47c0.89-4.42-2.79-6.8-6.7-7.91c-1.49-0.42-2.84-0.22-4.41-0.47
			c-2.3-0.38-4.39-1.42-6.61-1.9c-1.96-0.43-2.93,0.79-4.33,2c-2.08,1.79-3.76,3.43-5.57,5.5c-1.5,1.71-3.73,2.47-5.01,4.44
			c-0.91,1.39-1.39,3.01-2.44,4.35c-1.94,2.47-3.48,4.66-4.41,7.72c-0.69,2.28-0.94,4.56-1.5,6.82c-0.68,2.74-1.7,5.51-2.36,8.27
			c-0.33,1.39-0.61,2.69-1.26,3.99c-0.64,1.27-0.72,1.12-1.96,1.58c-2.26,0.85-4.33,1.27-6.48,1.96c-0.92,0.3-1.91,0.98-2.93,0.79
			c-0.98-0.18-1.25-0.77-2.47-0.79c-2.6-0.05-5.23,1.55-7.74,2.17c-1.37,0.34-2.73,0.79-4.15,0.76c-1.39-0.04-2.59-0.65-3.97-0.78
			c-1.95-0.18-4.46-0.18-6.07,0.87c-1.84,1.19-3.55,2.61-5.38,3.83c-2.25,1.5-4.71,2.97-6.86,4.66c-1.99,1.57-3.53,2.93-6.11,2.9
			c-1.24-0.02-2.61,0.19-3.79-0.16c-0.54-0.16-1.25-0.83-1.78-1.1c-0.42-0.22-1.54-0.96-1.94-0.98c-0.73-0.03-1.13,0.67-1.84,0.67
			c-0.6,0-1.23-0.43-1.81-0.62c-1.19-0.39-1.05-0.99-1.54-1.49c-0.05,0.31-0.14,0.6-0.32,0.84c-0.65,0.88-2.88,0.73-3.76,0.83
			c-1.66,0.18-3.62,1.02-5.23,1.59c-5.36,1.88-9.58,6.41-14.47,9.06c-3.37,1.83-6.65,3.44-9.65,5.91c-1.52,1.26-3.36,1.9-4.35,3.58
			c-0.56,0.95-0.76,2.65-1.93,2.96c-0.59,0.16-1.73-0.17-2.69-0.54c0.47,2.42,0.06,5.82,0.09,8.21c0.02,1.45-0.53,2.26-0.75,3.6
			c-0.23,1.36-0.08,2.27-0.51,3.6c-0.39,1.2-0.68,2.4-1.07,3.6c-0.26,0.82-0.38,1.36-0.54,2.17c-0.12,0.61-0.42,1.1-0.56,1.58
			c-0.32,1.13-0.07,2.26-0.14,3.44c-0.08,1.3-0.69,2.29-0.75,3.6c-0.13,2.74-0.7,5.11-0.7,7.91c0,2.37-0.19,4.38,0.72,6.44
			c1.37,3.11,3.56,4.72,5.75,7.22c1.16,1.33,1.91,2.25,3.23,3.31c0.92,0.74,2.12,1.52,2.89,2.42c1.31,1.53,2.32,4.21,3.03,6.07
			c0.84,2.22,1.02,5.58,2.52,7.47c0.39,0.49,0.93,0.95,1.48,1.39c0.28-0.41,0.52-0.82,0.69-1.2c-0.16,0.38-0.4,0.79-0.69,1.2
			c0.43,0.34,0.86,0.66,1.24,0.95c0.61,0.47,1.5,1.22,2.3,1.33c1.39,0.19,2.12-0.73,3.38-1.17c2.69-0.94,5.67-1.83,8.55-1.68
			c2.55,0.14,3.91,1.76,6.08,2.78c4.34,2.06,9.09,4.65,12.82,7.75c2.53,2.1,4.41,4.86,6.93,6.78c1.98,1.5,4.06,3.09,5.83,4.86
			c2.16,2.17,3.58,4.75,6.07,6.68c1.71,1.33,3.85,2.29,5.44,3.73c1.82,1.64,3.17,3.87,4.96,5.57c4.77,4.52,9.4,9.22,14.05,13.88
			c4.19,4.19,7.86,8.67,11.89,12.97c1.62,1.73,3.29,3.6,4.46,5.67c1.86,3.31,3.18,7.08,5.77,9.89c7.48,8.14,17.89,11.01,27.68,15.23
			c4.54,1.95,7.69,6.01,12.54,7.3c3.78,1.01,7.26,2.87,10.93,4.18c3.26,1.16,6.43,2.81,8.45,5.75c1.67,2.43,3.76,4.52,5.14,7.14
			c2.07,3.92,4.79,7.48,7.01,11.32c1.91,3.31,3.4,6.87,5.06,10.31c0.75,1.56,1.43,3.14,2,4.79c0.41,1.18,0.49,2.89,1.15,3.91
			c1.37,2.14,4.16,2.28,6.13,3.58c1.64,1.08,2.89,2.63,4.49,3.76c1.86,1.31,3.73,2.7,5.64,3.93c2.83,1.82,5.37,3.84,8.11,5.8
			c2.53,1.81,5,1.09,7.77,2.2c2.48,0.99,3.66,3.4,5.88,4.77c2.76,1.69,5.76,3.79,7.9,6.22c2.31,2.63,4.09,6.19,8.05,4.96
			c0.59-0.18,1.16-0.4,1.75-0.58c-0.07-0.11-0.11-0.39-0.03-1.24c-0.08,0.86-0.03,1.13,0.03,1.24c0.71-0.22,1.43-0.38,2.21-0.34
			c2.9,0.14,5.04,2.19,8.09,2.17c3.31-0.02,6.85-1.18,9.93-2.05c3.56-0.99,5.85-1.36,9.42-1.41c6.56-0.09,12.8-1.28,19.19-2.48
			c1.8-0.34,3.58-0.34,5.4-0.57c1.65-0.21,3.34-0.85,5.02-0.54c2.35,0.43,3.86,2.23,6.47,0.85c1.71-0.9,1.02-1.28,1.55-3.54
			c1.01-4.36,4.34-7.95,6.93-11.44c1.87-2.52,2.92-4.09,2.61-7.28c-0.25-2.65-0.29-5.22-0.28-7.87c0-0.88-0.36-2.88-0.11-3.84
			c0.77-2.97,7.74-7.41,9.3-8.54c2.87-2.08,5.96-4.18,9.09-5.91c1.28-0.71,2.75-1.21,3.93-2.06c3.92-2.84,3.5-8.9,6.59-11.99
			c2.08-2.08,4.04-4.22,6.34-6.05c1.73-1.37,1.86-3.04,2.97-4.82c0.58-0.94,1.23-1.24,1.51-2.32c0.15-0.56,0-1.45-0.04-2.07
			c-0.5-0.45-0.94-0.95-1.24-1.54c0.31,0.58,0.74,1.09,1.24,1.54c0-0.07-0.01-0.15-0.01-0.21c-0.01-1.81,0.23-3.83-0.16-5.59
			c-0.46-2.09-1.17-4.28-1.33-6.46c-0.16-2.05-0.03-5.98,1.46-7.58c0.76-0.82,3.2-1.98,4.37-1.73c0.6,0.13,1.51,1.25,2.14,1.56
			c0.9,0.45,1.33,0.22,2.2,0.48c1.42,0.43,1.87,0.76,3.56,0.74c0.53-0.01,1.32-0.16,1.83-0.03c0.57,0.15,1.21,0.75,1.73,0.66
			c0.49-0.08,0.99-0.99,1.48-1.22c0.42-0.2,0.91-0.33,1.41-0.45c0.48-1.63,1.07-3.18,1.64-4.56c0.26-0.62,1.04-1.38,1.2-2.02
			c0.25-1.05-0.07-2.11,0.22-3.18c0.95-3.48,0.38-6.56-0.2-10.1c-0.19-1.19,0.2-2.5,0.08-3.71c-0.19-1.84-0.56-2.52-0.22-4.34
			c0.6-3.21,0.18-6.54,0.74-9.78c0.91-5.29,0.18-11.36,0.16-16.72c-0.01-2.53,0.42-4.84,0.88-7.3c0.27-1.46,0.58-2.47,0.56-3.99
			c-0.01-0.86-0.13-1.85,0.06-2.68c0.53-2.31,1.4-4.55,1.37-6.99c-0.02-1.8-0.45-4.46,0.15-6.15c0.62-1.77,2.6-3.34,3.73-4.85
			c0.77-1.03,2.43-2.1,2.99-3.19c0.94-1.84-1.03-3.35-2.55-4.18c-1.27-0.7-0.98-0.03-1.62-1.42c-0.36-0.78-0.44-1.29-0.71-2.17
			c-0.79-2.64-2.55-6.65-4.51-8.43c-1.24-1.13-2.09-2.55-3.41-3.76c-0.66-0.6-1.35-1.16-2-1.65c-0.65-0.5-0.52-0.42-0.72-1.42
			c-2.76,0.63-3.18,0.33-5.05-1.46c-0.84-0.81-1.21-0.96-2.18-1.43c-1.18-0.57-2.22-0.98-3.54-1.23c-0.58,0.45-1.12,0.36-1.62-0.26
			c-0.67-0.72-1.33-1.44-1.98-2.18c-0.99-0.6-1.67-0.64-2.81-0.66c-2.5-0.04-5.67,0.1-8.01-0.94c-1.66-0.74-2.82-2.59-4.42-3.55
			c-2.13-1.28-4.38-2.25-6.5-3.57c-2.96-1.84-5.9-2.84-9.09-4.14c-1.25-0.51-2.32-0.96-3.31-1.86c-1.15-1.06-1.93-2.38-3.31-3.23
			c-0.85-0.52-1.95-0.77-2.69-1.45c-1.24-1.13-1.31-2.8-2.12-4.12c-0.68-1.1-1.54-1.97-2.52-2.84c-1.44-1.28-2.87-2.17-4.19-3.6
			c-0.6-0.65-1.15-1.36-1.74-2.03c-1.9-2.18-4.16-3.86-4.7-6.88c-0.18-0.99-0.43-1.82-0.73-2.59c-0.8,0.7-1.6,1.39-2.45,2.02
			C397.1,95.11,396.01,95.83,394.98,96.5z"/>
		<path class="st0" d="M470.31,254.65c-0.53,0.09-1.16-0.51-1.73-0.66c-0.51-0.13-1.3,0.02-1.83,0.03
			c-1.69,0.02-2.14-0.31-3.56-0.74c-0.87-0.26-1.29-0.04-2.2-0.48c-0.63-0.31-1.54-1.43-2.14-1.56c-1.16-0.25-3.6,0.91-4.37,1.73
			c-1.49,1.6-1.62,5.53-1.46,7.58c0.17,2.18,0.87,4.36,1.33,6.46c0.39,1.76,0.15,3.79,0.16,5.59c0,0.06,0.01,0.14,0.01,0.21
			c1.37,1.23,3.32,2.02,5.02,2.63c2.49,0.9,4.81,1.19,7.21,2.14c2,0.79,3.29,2.38,4.84,3.95c1.45,1.48,3.17,2.48,4.67,3.96
			c1.65,1.62,2.49,3.84,3.42,5.9c1.14,2.53,1.36,5.31,2.14,7.95c0.84,2.87,0.79,5.8,1.42,8.67c0.2,0.93,1.01,2.72,1.48,3.59
			c0.52,0.97,1.16,1.63,2.14,2.14c2.01,1.06,4.65,0.72,6.67,1.93c4.51,2.7,4.75,8.53,7.02,12.44c1.48,2.55,2.94,5.25,4.51,7.79
			c1.77,2.86,4.06,3.09,6.96,3.86c1.03,0.27,1.97,0.92,3.02,1.15c1.6,0.36,3.47,0.25,5.09,0.18c3.04-0.14,6.44-0.61,9.44-1.27
			c1.22-0.27,2.39-0.81,3.63-0.95c1.75-0.2,3.58,0.17,5.34,0.07c2.05-0.12,3.81-0.78,5.88-0.76c2.08,0.02,4.22-0.2,6.27,0.16
			c1.68,0.29,3.43,0.9,5.2,0.61c1.28-0.21,2.03-0.8,3.11-1.49c1.38-0.88,2.02-0.99,3.4-1.42c1.4-0.43,3.07-0.8,4.32-1.61
			c0.03-0.02,0.06-0.05,0.1-0.07c-0.22-0.3-0.5-0.7-0.93-1.31c0.44,0.61,0.72,1,0.93,1.31c3.78-2.52,5.19-7.25,7.18-10.91
			c0.69-1.27,1.07-3.52,1.44-5.4c-1.6,0.48-2.54,0.6-4.52-0.66c-2.09-1.33-4.83-3.67-6.23-5.77c-1.15-1.73-1.14-3.85-2.26-5.64
			c-0.74-1.18-1.39-2.5-2.17-3.63c-1.03-1.49-2.34-3.12-3.58-4.44c-0.95-1-2.32-1.77-3.09-2.84c-0.88-1.23-1.25-2.84-2.55-3.65
			c-1.45-0.89-4.16-0.58-5.79-0.71c-1.02-0.08-1.28-0.33-2.2-0.58c-2.98-0.78-6.97,1.19-10.07,1.33c-5.27,0.23-9.92-2.35-14.69-4.2
			c-2.06-0.8-3.68-1.84-5.61-2.84c-1.96-1.02-4.33-1.52-6.36-2.52c-1.79-0.88-3.12-1.96-4.34-3.58c-1.24-1.64-1.83-3.65-3.57-4.91
			c-1.13-0.82-2.46-1.37-3.65-2.14c-0.74-0.48-1.45-1.06-2.26-1.43c-1.81-0.83-4.16-1.42-6.17-1.44c-2.4-0.03-3.82-0.83-5.87-2.26
			c-1.65-1.16-3.11-2.94-5.17-3.42c-0.9-0.21-1.86,0.2-2.7-0.16c-0.86-2.96-0.34-6.4,0.6-9.56c-0.5,0.12-0.98,0.26-1.41,0.45
			C471.3,253.65,470.79,254.56,470.31,254.65z"/>
	</g>
	<g>
		<path class="st1" d="M458.91,301.12c0,0.06-0.01,0.16-0.02,0.28c-0.01,0.12-0.03,0.26-0.06,0.41c-0.02,0.15-0.05,0.3-0.09,0.45
			c-0.04,0.15-0.08,0.29-0.14,0.42c-0.05,0.13-0.11,0.23-0.18,0.31s-0.14,0.12-0.21,0.12c-0.12,0-0.26-0.05-0.43-0.16
			c-0.17-0.1-0.38-0.21-0.63-0.33c-0.25-0.12-0.54-0.23-0.88-0.33c-0.34-0.1-0.72-0.15-1.14-0.15c-0.44,0-0.82,0.06-1.13,0.19
			c-0.31,0.12-0.56,0.28-0.76,0.48c-0.2,0.2-0.34,0.43-0.44,0.68c-0.09,0.25-0.14,0.5-0.14,0.76c0,0.3,0.07,0.55,0.22,0.78
			c0.15,0.22,0.34,0.44,0.59,0.63c0.25,0.19,0.53,0.38,0.84,0.56c0.32,0.18,0.64,0.37,0.96,0.56c0.32,0.2,0.64,0.41,0.96,0.65
			c0.32,0.23,0.6,0.5,0.84,0.81c0.25,0.31,0.44,0.66,0.59,1.06c0.15,0.4,0.22,0.86,0.22,1.37c0,0.77-0.16,1.49-0.47,2.15
			c-0.31,0.66-0.75,1.23-1.32,1.72c-0.57,0.49-1.26,0.87-2.07,1.15s-1.71,0.42-2.69,0.42c-0.53,0-1.02-0.05-1.48-0.13
			c-0.45-0.08-0.85-0.19-1.2-0.31c-0.35-0.12-0.64-0.25-0.88-0.39c-0.24-0.14-0.41-0.27-0.53-0.39c-0.11-0.12-0.17-0.31-0.17-0.55
			c0-0.07,0.01-0.17,0.02-0.3c0.02-0.13,0.04-0.28,0.07-0.43c0.03-0.15,0.06-0.31,0.11-0.47c0.04-0.16,0.09-0.31,0.15-0.44
			c0.06-0.13,0.12-0.24,0.19-0.32c0.07-0.08,0.15-0.12,0.23-0.12c0.14,0,0.31,0.06,0.5,0.19c0.19,0.12,0.43,0.27,0.72,0.42
			c0.29,0.15,0.63,0.3,1.02,0.43c0.39,0.13,0.87,0.2,1.41,0.2c0.48,0,0.91-0.06,1.27-0.19c0.37-0.12,0.67-0.29,0.92-0.5
			c0.25-0.22,0.43-0.46,0.56-0.75s0.19-0.59,0.19-0.93c0-0.31-0.07-0.57-0.22-0.8c-0.15-0.23-0.34-0.44-0.58-0.63
			c-0.24-0.19-0.52-0.37-0.83-0.55c-0.31-0.17-0.62-0.36-0.94-0.55c-0.32-0.2-0.63-0.41-0.94-0.64c-0.31-0.23-0.58-0.5-0.83-0.81
			c-0.24-0.31-0.44-0.66-0.58-1.06c-0.15-0.4-0.22-0.87-0.22-1.4c0-0.74,0.15-1.42,0.44-2.04s0.7-1.16,1.23-1.61
			c0.52-0.45,1.15-0.8,1.88-1.04c0.73-0.25,1.53-0.37,2.41-0.37c0.41,0,0.8,0.03,1.17,0.09c0.37,0.06,0.7,0.14,1.01,0.23
			c0.3,0.09,0.56,0.2,0.78,0.31c0.21,0.11,0.36,0.21,0.44,0.29c0.08,0.08,0.14,0.16,0.18,0.25
			C458.9,300.88,458.91,300.98,458.91,301.12z"/>
		<path class="st1" d="M469.51,315.42c-0.02,0.08-0.05,0.15-0.11,0.21c-0.05,0.06-0.13,0.11-0.25,0.15
			c-0.11,0.04-0.25,0.07-0.42,0.09c-0.17,0.02-0.39,0.03-0.64,0.03c-0.25,0-0.46-0.01-0.62-0.03c-0.16-0.02-0.29-0.05-0.37-0.09
			c-0.09-0.03-0.15-0.08-0.18-0.15c-0.03-0.06-0.03-0.13-0.01-0.21l0.33-1.79c-0.16,0.29-0.39,0.58-0.68,0.87s-0.62,0.56-0.99,0.8
			c-0.37,0.24-0.78,0.44-1.21,0.58c-0.43,0.15-0.88,0.22-1.34,0.22c-0.57,0-1.06-0.08-1.46-0.24s-0.72-0.38-0.96-0.65
			c-0.24-0.28-0.42-0.61-0.53-0.99c-0.11-0.39-0.16-0.8-0.16-1.25c0-0.28,0.02-0.56,0.05-0.86c0.04-0.29,0.08-0.59,0.14-0.89
			l1.35-6.8c0.02-0.08,0.06-0.16,0.12-0.22c0.06-0.06,0.16-0.11,0.28-0.15c0.13-0.04,0.29-0.06,0.5-0.09
			c0.2-0.02,0.46-0.03,0.75-0.03c0.3,0,0.55,0.01,0.74,0.03c0.19,0.02,0.34,0.05,0.45,0.09c0.11,0.04,0.18,0.09,0.22,0.15
			c0.04,0.06,0.05,0.13,0.03,0.22l-1.3,6.6c-0.04,0.18-0.07,0.37-0.09,0.57c-0.02,0.2-0.03,0.38-0.03,0.56
			c0,0.2,0.02,0.37,0.05,0.53c0.04,0.16,0.1,0.3,0.18,0.41c0.08,0.12,0.19,0.2,0.31,0.26c0.13,0.06,0.28,0.08,0.46,0.08
			c0.34,0,0.69-0.11,1.05-0.33c0.37-0.22,0.71-0.51,1.04-0.9c0.33-0.38,0.62-0.83,0.88-1.36c0.26-0.52,0.45-1.08,0.58-1.69
			l0.94-4.75c0.01-0.08,0.04-0.16,0.11-0.22s0.16-0.11,0.29-0.15c0.13-0.04,0.29-0.06,0.5-0.09c0.2-0.02,0.45-0.03,0.75-0.03
			c0.3,0,0.55,0.01,0.75,0.03c0.19,0.02,0.34,0.05,0.45,0.09c0.11,0.04,0.18,0.09,0.22,0.15c0.03,0.06,0.04,0.13,0.02,0.22
			L469.51,315.42z"/>
		<path class="st1" d="M489.84,315.4c-0.02,0.08-0.06,0.16-0.12,0.22c-0.06,0.06-0.16,0.11-0.29,0.16c-0.13,0.04-0.3,0.07-0.5,0.09
			c-0.2,0.02-0.45,0.03-0.76,0.03c-0.3,0-0.54-0.01-0.74-0.03c-0.2-0.02-0.35-0.05-0.45-0.09c-0.11-0.04-0.18-0.09-0.22-0.16
			c-0.04-0.06-0.04-0.13-0.02-0.22l1.32-6.58c0.03-0.19,0.06-0.38,0.09-0.56c0.02-0.19,0.04-0.37,0.04-0.56
			c0-0.39-0.07-0.7-0.21-0.94c-0.14-0.24-0.4-0.36-0.77-0.36c-0.33,0-0.67,0.11-1.02,0.32c-0.35,0.21-0.69,0.5-1.01,0.87
			c-0.32,0.37-0.61,0.79-0.86,1.28c-0.25,0.49-0.43,1.01-0.54,1.56l-1,4.97c-0.02,0.08-0.05,0.16-0.12,0.22
			c-0.06,0.06-0.16,0.11-0.29,0.16c-0.13,0.04-0.3,0.07-0.5,0.09c-0.2,0.02-0.45,0.03-0.76,0.03c-0.3,0-0.54-0.01-0.73-0.03
			c-0.19-0.02-0.34-0.05-0.45-0.09c-0.11-0.04-0.18-0.09-0.22-0.16c-0.04-0.06-0.05-0.13-0.03-0.22l1.3-6.58
			c0.05-0.19,0.08-0.39,0.1-0.59c0.02-0.2,0.03-0.39,0.03-0.58c0-0.36-0.08-0.66-0.22-0.89c-0.15-0.23-0.4-0.35-0.76-0.35
			c-0.33,0-0.67,0.11-1.02,0.32c-0.35,0.21-0.69,0.5-1.01,0.87c-0.32,0.37-0.61,0.79-0.86,1.28c-0.25,0.49-0.43,1.01-0.54,1.56
			l-1,4.97c-0.02,0.08-0.06,0.16-0.12,0.22c-0.06,0.06-0.16,0.11-0.28,0.16c-0.13,0.04-0.29,0.07-0.5,0.09
			c-0.2,0.02-0.46,0.03-0.75,0.03c-0.3,0-0.55-0.01-0.74-0.03c-0.19-0.02-0.34-0.05-0.45-0.09c-0.11-0.04-0.18-0.09-0.22-0.16
			c-0.03-0.06-0.04-0.13-0.02-0.22l2.2-10.99c0.02-0.08,0.05-0.16,0.1-0.22s0.13-0.11,0.25-0.15c0.11-0.04,0.25-0.06,0.43-0.09
			c0.18-0.02,0.39-0.03,0.63-0.03c0.25,0,0.46,0.01,0.62,0.03c0.16,0.02,0.29,0.05,0.38,0.09c0.09,0.04,0.15,0.09,0.18,0.15
			c0.03,0.06,0.03,0.13,0.02,0.22l-0.36,1.81c0.17-0.29,0.4-0.58,0.69-0.88c0.29-0.3,0.61-0.57,0.98-0.8
			c0.37-0.24,0.76-0.44,1.19-0.59c0.43-0.15,0.88-0.23,1.34-0.23c0.48,0,0.89,0.06,1.24,0.19c0.35,0.13,0.64,0.31,0.86,0.53
			c0.23,0.23,0.4,0.49,0.52,0.8s0.2,0.63,0.23,0.98c0.19-0.3,0.43-0.59,0.72-0.89c0.29-0.3,0.62-0.56,0.98-0.8
			c0.37-0.24,0.76-0.44,1.19-0.59c0.43-0.15,0.87-0.23,1.32-0.23c0.57,0,1.06,0.08,1.45,0.24c0.39,0.16,0.7,0.38,0.94,0.67
			s0.41,0.61,0.52,1c0.11,0.38,0.16,0.8,0.16,1.24c0,0.29-0.02,0.58-0.05,0.87c-0.03,0.29-0.08,0.59-0.15,0.89L489.84,315.4z"/>
		<path class="st1" d="M502.2,319.76c-0.02,0.08-0.05,0.16-0.12,0.22c-0.06,0.07-0.16,0.12-0.28,0.17c-0.13,0.05-0.29,0.08-0.5,0.11
			c-0.2,0.02-0.46,0.04-0.76,0.04c-0.3,0-0.54-0.02-0.73-0.04c-0.19-0.03-0.34-0.06-0.45-0.11c-0.11-0.05-0.18-0.1-0.22-0.17
			c-0.04-0.06-0.05-0.14-0.03-0.22l0.71-3.56c0.04-0.18,0.09-0.37,0.14-0.58c0.05-0.2,0.1-0.41,0.17-0.62
			c0.06-0.21,0.12-0.41,0.18-0.6c0.06-0.19,0.12-0.36,0.18-0.5c-0.15,0.26-0.36,0.52-0.63,0.79c-0.27,0.26-0.59,0.5-0.94,0.71
			c-0.35,0.21-0.73,0.38-1.14,0.51c-0.41,0.13-0.81,0.2-1.22,0.2c-0.61,0-1.13-0.11-1.56-0.31c-0.43-0.2-0.78-0.49-1.06-0.86
			c-0.27-0.36-0.48-0.8-0.6-1.31c-0.13-0.51-0.19-1.07-0.19-1.68c0-0.51,0.05-1.08,0.15-1.69c0.1-0.61,0.25-1.22,0.45-1.82
			c0.2-0.61,0.46-1.2,0.78-1.76c0.32-0.57,0.7-1.07,1.15-1.51c0.45-0.44,0.96-0.79,1.54-1.05c0.58-0.26,1.24-0.39,1.97-0.39
			c0.68,0,1.29,0.14,1.81,0.42c0.52,0.28,0.98,0.7,1.38,1.24l0.2-0.97c0.03-0.17,0.16-0.3,0.39-0.37c0.23-0.08,0.59-0.12,1.09-0.12
			c0.25,0,0.45,0.01,0.62,0.03c0.16,0.02,0.29,0.05,0.39,0.09c0.09,0.04,0.16,0.09,0.19,0.15c0.03,0.06,0.04,0.13,0.03,0.22
			L502.2,319.76z M501.54,307.7c-0.29-0.45-0.61-0.79-0.95-1.01c-0.35-0.23-0.75-0.34-1.21-0.34c-0.35,0-0.67,0.09-0.97,0.26
			c-0.29,0.17-0.55,0.4-0.78,0.69c-0.23,0.28-0.42,0.61-0.58,0.98c-0.16,0.36-0.3,0.75-0.41,1.14c-0.11,0.39-0.18,0.78-0.23,1.17
			s-0.08,0.74-0.08,1.06c0,0.64,0.11,1.11,0.33,1.4c0.22,0.3,0.54,0.44,0.95,0.44c0.36,0,0.73-0.11,1.11-0.33
			c0.38-0.22,0.73-0.51,1.06-0.89c0.33-0.37,0.62-0.81,0.87-1.31c0.25-0.5,0.43-1.03,0.55-1.6L501.54,307.7z"/>
		<path class="st1" d="M516.37,315.42c-0.03,0.17-0.16,0.3-0.39,0.37c-0.23,0.08-0.59,0.11-1.09,0.11c-0.25,0-0.46-0.01-0.62-0.02
			c-0.16-0.02-0.29-0.05-0.39-0.08c-0.1-0.04-0.16-0.09-0.19-0.15c-0.03-0.06-0.03-0.14-0.02-0.23l0.34-1.76
			c-0.12,0.26-0.32,0.54-0.59,0.83c-0.27,0.29-0.59,0.56-0.96,0.8c-0.37,0.24-0.78,0.44-1.22,0.59c-0.45,0.16-0.91,0.23-1.38,0.23
			c-0.66,0-1.2-0.12-1.64-0.34c-0.44-0.23-0.78-0.54-1.05-0.93c-0.26-0.39-0.45-0.83-0.56-1.33c-0.11-0.5-0.17-1.03-0.17-1.58
			c0-0.52,0.05-1.08,0.15-1.69c0.1-0.61,0.25-1.22,0.46-1.83c0.2-0.61,0.47-1.19,0.79-1.75c0.32-0.56,0.7-1.06,1.15-1.5
			c0.45-0.44,0.96-0.78,1.54-1.04c0.58-0.26,1.23-0.39,1.96-0.39c0.68,0,1.29,0.14,1.81,0.42c0.52,0.28,0.98,0.7,1.38,1.24l0.2-0.97
			c0.03-0.17,0.16-0.3,0.39-0.37c0.23-0.08,0.59-0.11,1.09-0.11c0.25,0,0.45,0.01,0.62,0.03c0.16,0.02,0.29,0.05,0.39,0.09
			c0.09,0.04,0.16,0.09,0.19,0.15c0.03,0.06,0.04,0.13,0.03,0.22L516.37,315.42z M514.84,307.71c-0.29-0.45-0.61-0.79-0.95-1.01
			c-0.35-0.23-0.75-0.34-1.21-0.34c-0.34,0-0.66,0.08-0.95,0.25c-0.29,0.16-0.54,0.38-0.76,0.66c-0.22,0.28-0.41,0.59-0.58,0.95
			c-0.17,0.36-0.31,0.74-0.42,1.13c-0.11,0.39-0.19,0.78-0.25,1.18s-0.08,0.76-0.08,1.1c0,0.25,0.02,0.48,0.06,0.7
			c0.04,0.22,0.1,0.42,0.2,0.59c0.1,0.17,0.23,0.31,0.39,0.41c0.16,0.1,0.37,0.15,0.63,0.15c0.36,0,0.73-0.11,1.11-0.33
			c0.38-0.22,0.73-0.51,1.06-0.89c0.33-0.37,0.62-0.81,0.87-1.3c0.25-0.5,0.43-1.03,0.55-1.59L514.84,307.71z"/>
		<path class="st1" d="M531.27,304.39c0,0.11-0.01,0.22-0.04,0.36c-0.03,0.13-0.06,0.27-0.11,0.41c-0.28,0.75-0.58,1.53-0.9,2.34
			c-0.32,0.8-0.69,1.63-1.11,2.48c-0.42,0.85-0.89,1.73-1.43,2.65c-0.53,0.91-1.15,1.85-1.83,2.83l-3,4.26
			c-0.07,0.11-0.16,0.19-0.28,0.27c-0.11,0.07-0.25,0.12-0.42,0.17c-0.17,0.05-0.37,0.08-0.61,0.11c-0.24,0.02-0.51,0.04-0.83,0.04
			c-0.35,0-0.64-0.02-0.86-0.05c-0.22-0.03-0.37-0.08-0.47-0.14c-0.1-0.07-0.14-0.15-0.14-0.25c0.01-0.1,0.07-0.22,0.17-0.36
			l2.79-3.68l-1.81-10.56c-0.02-0.11-0.03-0.22-0.05-0.33c-0.02-0.12-0.03-0.22-0.03-0.3c0-0.15,0.03-0.27,0.08-0.36
			c0.05-0.09,0.14-0.16,0.27-0.21c0.13-0.05,0.3-0.08,0.51-0.11c0.21-0.02,0.47-0.03,0.77-0.03c0.34,0,0.6,0.01,0.79,0.02
			c0.19,0.01,0.34,0.04,0.44,0.08s0.17,0.1,0.2,0.19c0.04,0.08,0.06,0.19,0.08,0.31l1.13,7.69h0.03c0.41-0.62,0.78-1.24,1.12-1.87
			c0.34-0.63,0.64-1.28,0.92-1.93c0.28-0.65,0.54-1.31,0.77-1.98c0.23-0.67,0.45-1.34,0.65-2.03c0.02-0.08,0.05-0.16,0.11-0.22
			c0.06-0.06,0.16-0.11,0.29-0.15c0.14-0.04,0.31-0.06,0.54-0.09c0.22-0.02,0.51-0.03,0.86-0.03c0.52,0,0.89,0.03,1.08,0.1
			C531.17,304.1,531.27,304.22,531.27,304.39z"/>
		<path class="st1" d="M534.42,315.4c-0.02,0.08-0.06,0.16-0.12,0.22c-0.06,0.06-0.16,0.11-0.28,0.16c-0.13,0.04-0.29,0.07-0.5,0.09
			c-0.2,0.02-0.46,0.03-0.75,0.03c-0.3,0-0.55-0.01-0.74-0.03c-0.19-0.02-0.34-0.05-0.45-0.09c-0.11-0.04-0.18-0.09-0.22-0.16
			c-0.03-0.06-0.04-0.13-0.02-0.22l2.19-10.98c0.02-0.08,0.05-0.15,0.12-0.22c0.06-0.06,0.16-0.11,0.28-0.15
			c0.13-0.04,0.29-0.07,0.49-0.09c0.2-0.02,0.45-0.03,0.76-0.03c0.3,0,0.55,0.01,0.74,0.03c0.19,0.02,0.34,0.05,0.46,0.09
			c0.11,0.04,0.18,0.09,0.22,0.15c0.03,0.06,0.04,0.14,0.02,0.22L534.42,315.4z"/>
		<path class="st1" d="M546.14,304.54c0,0.08-0.01,0.19-0.02,0.31c-0.02,0.13-0.04,0.27-0.07,0.41c-0.03,0.15-0.07,0.3-0.12,0.44
			c-0.05,0.15-0.1,0.28-0.17,0.4c-0.06,0.12-0.13,0.22-0.21,0.3c-0.08,0.08-0.16,0.12-0.25,0.12h-2.4l-1.03,5.16
			c-0.02,0.12-0.05,0.27-0.07,0.44c-0.02,0.17-0.03,0.31-0.03,0.41c0,0.33,0.08,0.57,0.23,0.72c0.16,0.15,0.4,0.23,0.74,0.23
			c0.2,0,0.37-0.02,0.51-0.04c0.14-0.03,0.26-0.06,0.36-0.1c0.1-0.04,0.19-0.07,0.26-0.1c0.08-0.03,0.14-0.05,0.21-0.05
			c0.07,0,0.12,0.03,0.17,0.09c0.05,0.06,0.07,0.16,0.07,0.3c0,0.16-0.02,0.33-0.05,0.53c-0.03,0.2-0.08,0.39-0.13,0.57
			s-0.11,0.35-0.18,0.5c-0.07,0.15-0.14,0.27-0.21,0.34c-0.08,0.07-0.19,0.14-0.33,0.21s-0.32,0.12-0.52,0.17
			c-0.2,0.05-0.42,0.09-0.65,0.11c-0.23,0.03-0.46,0.05-0.69,0.05c-0.49,0-0.92-0.05-1.3-0.16c-0.37-0.1-0.69-0.27-0.94-0.48
			c-0.26-0.22-0.45-0.5-0.57-0.85c-0.13-0.34-0.19-0.76-0.19-1.26c0-0.09,0.01-0.19,0.01-0.31c0.01-0.12,0.02-0.24,0.04-0.37
			c0.02-0.13,0.04-0.27,0.06-0.4c0.02-0.13,0.04-0.25,0.07-0.36l1.07-5.35h-1.33c-0.11,0-0.19-0.03-0.23-0.11
			c-0.05-0.07-0.07-0.2-0.07-0.4c0-0.14,0.02-0.33,0.04-0.55c0.03-0.23,0.08-0.45,0.14-0.67c0.07-0.22,0.15-0.4,0.26-0.56
			c0.11-0.16,0.23-0.23,0.38-0.23h1.32l0.49-2.45c0.02-0.08,0.05-0.16,0.12-0.22c0.06-0.07,0.16-0.12,0.28-0.17
			c0.13-0.05,0.29-0.08,0.49-0.1c0.2-0.02,0.45-0.03,0.76-0.03c0.3,0,0.54,0.01,0.74,0.03c0.2,0.02,0.35,0.05,0.46,0.1
			c0.11,0.05,0.18,0.1,0.21,0.17c0.04,0.06,0.05,0.14,0.03,0.22l-0.49,2.45h2.37c0.14,0,0.23,0.05,0.28,0.14
			C546.12,304.23,546.14,304.36,546.14,304.54z"/>
	</g>
	<g>
		<path class="st1" d="M309.84,203.92l2.45,6.95c0.09,0.3,0.14,0.53,0.16,0.71c0.01,0.18-0.04,0.31-0.15,0.41
			c-0.11,0.09-0.3,0.16-0.56,0.18c-0.26,0.02-0.63,0.03-1.09,0.03c-0.34,0-0.6-0.01-0.8-0.02c-0.2-0.02-0.35-0.05-0.46-0.08
			c-0.11-0.04-0.19-0.09-0.23-0.16c-0.05-0.06-0.09-0.15-0.12-0.25l-1.93-5.78l-4.09,5.78c-0.08,0.1-0.15,0.18-0.23,0.25
			s-0.19,0.12-0.33,0.16c-0.14,0.03-0.33,0.06-0.57,0.08c-0.23,0.02-0.54,0.02-0.9,0.02c-0.44,0-0.77-0.01-1.02-0.03
			c-0.25-0.03-0.41-0.08-0.48-0.17c-0.07-0.09-0.07-0.22,0.01-0.39c0.08-0.17,0.22-0.4,0.43-0.69l5.25-7.01l-2.23-6.47
			c-0.09-0.29-0.14-0.51-0.15-0.69c-0.01-0.17,0.04-0.3,0.15-0.39c0.11-0.09,0.3-0.15,0.56-0.17c0.26-0.03,0.62-0.04,1.08-0.04
			c0.35,0,0.63,0.01,0.83,0.02c0.2,0.02,0.36,0.05,0.47,0.09s0.2,0.1,0.25,0.17c0.05,0.07,0.09,0.17,0.12,0.28l1.69,5.19l3.71-5.26
			c0.07-0.1,0.14-0.18,0.22-0.25c0.08-0.06,0.18-0.12,0.31-0.16c0.13-0.03,0.3-0.06,0.52-0.08c0.22-0.02,0.51-0.02,0.87-0.02
			c0.44,0,0.79,0.01,1.05,0.04c0.25,0.02,0.42,0.08,0.5,0.17c0.08,0.09,0.08,0.22,0.01,0.39c-0.08,0.17-0.21,0.4-0.42,0.69
			L309.84,203.92z"/>
		<path class="st1" d="M317.53,211.7c-0.02,0.08-0.06,0.16-0.12,0.22c-0.06,0.06-0.16,0.11-0.28,0.16c-0.13,0.04-0.29,0.07-0.5,0.09
			c-0.2,0.02-0.46,0.03-0.75,0.03c-0.3,0-0.55-0.01-0.74-0.03c-0.19-0.02-0.34-0.05-0.45-0.09c-0.11-0.04-0.18-0.09-0.22-0.16
			c-0.03-0.06-0.04-0.13-0.02-0.22l2.19-10.98c0.02-0.08,0.05-0.15,0.12-0.22c0.06-0.06,0.16-0.11,0.28-0.15
			c0.13-0.04,0.29-0.07,0.49-0.09c0.2-0.02,0.45-0.03,0.76-0.03c0.3,0,0.55,0.01,0.74,0.03c0.19,0.02,0.34,0.05,0.46,0.09
			c0.11,0.04,0.18,0.09,0.22,0.15c0.03,0.06,0.04,0.14,0.02,0.22L317.53,211.7z"/>
		<path class="st1" d="M330.13,200.76c0,0.06-0.01,0.15-0.02,0.27c-0.02,0.12-0.04,0.25-0.06,0.39c-0.02,0.14-0.05,0.28-0.08,0.41
			c-0.03,0.13-0.05,0.23-0.07,0.31c-0.06,0.21-0.14,0.41-0.25,0.58c-0.11,0.17-0.25,0.37-0.44,0.59l-5.19,6.33h4.18
			c0.12,0,0.21,0.04,0.26,0.12c0.05,0.08,0.08,0.21,0.08,0.39c0,0.06-0.01,0.16-0.02,0.29c-0.01,0.13-0.03,0.27-0.06,0.41
			c-0.03,0.15-0.06,0.3-0.11,0.44s-0.1,0.28-0.16,0.41c-0.06,0.12-0.13,0.22-0.22,0.3c-0.08,0.08-0.17,0.12-0.27,0.12h-7.25
			c-0.16,0-0.27-0.05-0.36-0.14c-0.08-0.09-0.12-0.24-0.12-0.44c0-0.06,0.01-0.16,0.02-0.27c0.02-0.11,0.04-0.22,0.06-0.34
			c0.02-0.12,0.05-0.23,0.07-0.34c0.02-0.11,0.05-0.2,0.07-0.27c0.02-0.09,0.05-0.17,0.08-0.26c0.03-0.08,0.07-0.17,0.12-0.26
			c0.05-0.09,0.12-0.19,0.2-0.3c0.08-0.11,0.18-0.23,0.3-0.37l5.24-6.35h-3.74c-0.11,0-0.2-0.04-0.26-0.12
			c-0.06-0.08-0.09-0.23-0.09-0.43c0-0.08,0.01-0.19,0.02-0.31c0.01-0.12,0.03-0.26,0.06-0.4c0.03-0.14,0.07-0.28,0.11-0.43
			s0.1-0.28,0.16-0.39c0.07-0.12,0.14-0.21,0.22-0.28c0.08-0.07,0.17-0.11,0.27-0.11h6.78c0.17,0,0.29,0.04,0.35,0.12
			C330.1,200.51,330.13,200.62,330.13,200.76z"/>
		<path class="st1" d="M333.74,211.7c-0.02,0.08-0.06,0.16-0.12,0.22c-0.06,0.06-0.16,0.11-0.28,0.16c-0.13,0.04-0.29,0.07-0.5,0.09
			c-0.2,0.02-0.46,0.03-0.75,0.03c-0.3,0-0.55-0.01-0.74-0.03c-0.19-0.02-0.34-0.05-0.45-0.09c-0.11-0.04-0.18-0.09-0.22-0.16
			c-0.03-0.06-0.04-0.13-0.02-0.22l2.19-10.98c0.02-0.08,0.05-0.15,0.12-0.22c0.06-0.06,0.16-0.11,0.28-0.15
			c0.13-0.04,0.29-0.07,0.49-0.09c0.2-0.02,0.45-0.03,0.76-0.03s0.55,0.01,0.74,0.03c0.19,0.02,0.34,0.05,0.46,0.09
			c0.11,0.04,0.18,0.09,0.22,0.15c0.03,0.06,0.04,0.14,0.02,0.22L333.74,211.7z"/>
	</g>
	<g>
		<path class="st1" d="M273.42,523.59c0.04,0.3,0.06,0.53,0.05,0.7c0,0.17-0.06,0.3-0.17,0.39c-0.11,0.09-0.29,0.14-0.55,0.16
			c-0.25,0.02-0.6,0.03-1.04,0.03c-0.31,0-0.57-0.01-0.76-0.02c-0.2-0.01-0.35-0.03-0.45-0.07c-0.11-0.03-0.18-0.08-0.22-0.15
			c-0.04-0.07-0.07-0.16-0.07-0.27l-0.43-3.2h-5.98l-1.65,3.13c-0.06,0.11-0.12,0.21-0.2,0.29c-0.07,0.08-0.18,0.14-0.32,0.18
			c-0.14,0.04-0.33,0.07-0.56,0.09c-0.23,0.02-0.53,0.02-0.88,0.02c-0.38,0-0.67-0.01-0.88-0.04c-0.21-0.03-0.35-0.09-0.42-0.18
			c-0.07-0.09-0.08-0.23-0.02-0.4c0.05-0.17,0.16-0.4,0.31-0.69l7.73-14.13c0.08-0.14,0.16-0.25,0.25-0.34
			c0.08-0.09,0.2-0.15,0.35-0.2c0.15-0.05,0.36-0.07,0.62-0.09c0.26-0.01,0.6-0.02,1.01-0.02c0.48,0,0.87,0.01,1.15,0.02
			c0.28,0.01,0.5,0.04,0.66,0.09c0.16,0.05,0.26,0.11,0.31,0.2c0.05,0.09,0.08,0.21,0.1,0.37L273.42,523.59z M268.58,511.91h-0.01
			l-3.56,6.77h4.48L268.58,511.91z"/>
		<path class="st1" d="M287.43,516.88c0,0.54-0.05,1.12-0.15,1.74c-0.1,0.62-0.25,1.23-0.45,1.83c-0.21,0.61-0.47,1.19-0.79,1.75
			c-0.32,0.56-0.71,1.05-1.16,1.48c-0.45,0.43-0.97,0.77-1.54,1.02c-0.58,0.25-1.22,0.38-1.94,0.38c-0.69,0-1.3-0.14-1.83-0.41
			c-0.53-0.27-0.99-0.68-1.37-1.23l-0.18,0.94c-0.03,0.17-0.16,0.3-0.39,0.37c-0.23,0.08-0.59,0.12-1.09,0.12
			c-0.49,0-0.83-0.04-1-0.12c-0.18-0.08-0.25-0.2-0.22-0.37l3.24-16.18c0.02-0.08,0.05-0.16,0.11-0.22
			c0.06-0.06,0.15-0.12,0.28-0.16c0.13-0.05,0.3-0.08,0.5-0.1c0.2-0.03,0.45-0.04,0.76-0.04c0.3,0,0.55,0.01,0.74,0.04
			c0.19,0.02,0.34,0.06,0.45,0.1c0.11,0.05,0.18,0.1,0.22,0.16c0.03,0.07,0.04,0.14,0.02,0.22l-0.87,4.4
			c-0.04,0.19-0.09,0.39-0.13,0.6c-0.05,0.21-0.11,0.42-0.17,0.62c-0.06,0.2-0.12,0.4-0.19,0.6c-0.06,0.19-0.12,0.36-0.18,0.51
			c0.15-0.26,0.36-0.53,0.63-0.79c0.27-0.27,0.59-0.51,0.94-0.72c0.35-0.21,0.73-0.39,1.14-0.52c0.41-0.13,0.81-0.2,1.22-0.2
			c0.47,0,0.87,0.06,1.22,0.18s0.64,0.28,0.9,0.49c0.25,0.2,0.46,0.45,0.63,0.73c0.16,0.28,0.3,0.57,0.39,0.88
			c0.1,0.31,0.16,0.62,0.2,0.95C287.41,516.25,287.43,516.57,287.43,516.88z M284.24,517.19c0-0.2-0.01-0.42-0.04-0.64
			c-0.03-0.22-0.09-0.42-0.19-0.6c-0.09-0.18-0.22-0.33-0.39-0.44c-0.16-0.11-0.38-0.17-0.65-0.17c-0.37,0-0.74,0.11-1.11,0.33
			c-0.37,0.22-0.73,0.51-1.05,0.89c-0.33,0.38-0.62,0.82-0.87,1.32c-0.26,0.5-0.44,1.03-0.54,1.6l-0.34,1.66
			c0.29,0.45,0.6,0.79,0.95,1s0.75,0.33,1.21,0.33c0.33,0,0.63-0.08,0.91-0.24c0.28-0.16,0.53-0.37,0.76-0.63
			c0.23-0.26,0.42-0.57,0.59-0.92s0.31-0.72,0.42-1.11c0.12-0.39,0.2-0.79,0.26-1.19C284.22,517.96,284.24,517.57,284.24,517.19z"/>
		<path class="st1" d="M290.64,525.04c-0.46-0.06-0.85-0.14-1.18-0.23s-0.59-0.2-0.79-0.31c-0.2-0.11-0.35-0.2-0.45-0.3
			c-0.06-0.07-0.11-0.14-0.14-0.21c-0.03-0.08-0.04-0.17-0.04-0.28c0-0.07,0.01-0.17,0.02-0.28c0.01-0.11,0.03-0.24,0.06-0.38
			c0.03-0.14,0.06-0.28,0.1-0.42c0.04-0.14,0.08-0.27,0.13-0.38c0.05-0.11,0.1-0.21,0.16-0.28c0.06-0.07,0.12-0.1,0.19-0.1
			c0.11,0,0.24,0.05,0.38,0.15c0.14,0.1,0.32,0.21,0.54,0.33c0.22,0.12,0.49,0.23,0.82,0.33c0.32,0.1,0.73,0.15,1.21,0.15
			c0.34,0,0.63-0.04,0.88-0.12c0.25-0.08,0.46-0.19,0.62-0.33c0.16-0.14,0.29-0.3,0.36-0.48c0.08-0.18,0.12-0.37,0.12-0.58
			c0-0.29-0.1-0.52-0.3-0.7c-0.2-0.18-0.45-0.35-0.76-0.5c-0.3-0.16-0.63-0.32-0.99-0.48c-0.36-0.16-0.69-0.36-0.99-0.6
			c-0.3-0.24-0.55-0.53-0.76-0.89c-0.2-0.35-0.3-0.8-0.3-1.33c0-0.58,0.11-1.12,0.33-1.62s0.55-0.94,0.97-1.31
			c0.43-0.37,0.94-0.66,1.55-0.87c0.61-0.21,1.29-0.31,2.07-0.31c0.34,0,0.68,0.02,1,0.07c0.32,0.05,0.62,0.11,0.87,0.18
			c0.26,0.08,0.48,0.16,0.68,0.25c0.19,0.09,0.33,0.18,0.41,0.27c0.09,0.08,0.14,0.22,0.14,0.42c0,0.1-0.02,0.24-0.04,0.44
			c-0.03,0.19-0.07,0.39-0.13,0.58c-0.06,0.2-0.12,0.37-0.2,0.51s-0.16,0.22-0.26,0.22c-0.11,0-0.23-0.04-0.38-0.12
			c-0.14-0.08-0.32-0.16-0.52-0.26c-0.2-0.09-0.44-0.18-0.72-0.25c-0.27-0.07-0.6-0.11-0.97-0.11c-0.29,0-0.54,0.04-0.77,0.11
			c-0.23,0.07-0.41,0.17-0.56,0.3c-0.15,0.13-0.26,0.28-0.34,0.45c-0.08,0.17-0.12,0.36-0.12,0.55c0,0.25,0.1,0.47,0.31,0.64
			c0.21,0.17,0.47,0.34,0.78,0.49c0.31,0.15,0.65,0.31,1.01,0.47c0.36,0.16,0.7,0.37,1.01,0.62c0.31,0.25,0.57,0.55,0.78,0.9
			c0.2,0.35,0.31,0.8,0.31,1.33c0,0.62-0.12,1.21-0.37,1.75s-0.64,1.03-1.18,1.46c-0.54,0.43-1.26,0.74-2.14,0.94l0.19,0.7
			c0.05,0.2,0.09,0.4,0.12,0.58c0.03,0.18,0.05,0.36,0.05,0.54c0,0.44-0.07,0.83-0.22,1.15c-0.14,0.32-0.34,0.59-0.6,0.8
			c-0.26,0.21-0.57,0.36-0.94,0.46c-0.37,0.1-0.78,0.15-1.22,0.15c-0.23,0-0.46-0.01-0.68-0.02c-0.23-0.02-0.43-0.04-0.63-0.08
			c-0.19-0.04-0.36-0.08-0.51-0.12c-0.15-0.05-0.27-0.09-0.36-0.13c-0.09-0.05-0.16-0.1-0.19-0.15c-0.04-0.05-0.05-0.13-0.05-0.24
			c0-0.08,0.01-0.2,0.03-0.34c0.02-0.15,0.05-0.3,0.1-0.44s0.12-0.28,0.2-0.39c0.09-0.11,0.2-0.16,0.34-0.16h1.4
			c0.12,0,0.22-0.02,0.33-0.04s0.19-0.07,0.27-0.12s0.14-0.12,0.19-0.22s0.07-0.19,0.07-0.31c0-0.08-0.01-0.18-0.02-0.28
			c-0.01-0.11-0.03-0.21-0.05-0.32L290.64,525.04z"/>
		<path class="st1" d="M309.86,515.81c0,0.59-0.13,1.12-0.4,1.59s-0.68,0.88-1.24,1.22c-0.56,0.34-1.28,0.6-2.14,0.78
			c-0.87,0.18-1.9,0.27-3.1,0.27h-1.13c-0.03,0.19-0.06,0.37-0.07,0.56c-0.02,0.18-0.02,0.35-0.02,0.51c0,0.66,0.17,1.16,0.52,1.5
			c0.34,0.34,0.9,0.51,1.66,0.51c0.54,0,1.03-0.04,1.46-0.12c0.43-0.08,0.81-0.16,1.13-0.26c0.32-0.09,0.59-0.18,0.81-0.26
			c0.21-0.08,0.37-0.12,0.47-0.12c0.1,0,0.17,0.03,0.21,0.09c0.04,0.06,0.06,0.15,0.06,0.27c0,0.14-0.01,0.3-0.04,0.48
			c-0.02,0.18-0.06,0.36-0.1,0.54c-0.05,0.18-0.1,0.34-0.17,0.5c-0.07,0.16-0.15,0.28-0.24,0.36c-0.1,0.1-0.28,0.2-0.54,0.3
			c-0.26,0.1-0.58,0.19-0.95,0.27c-0.37,0.08-0.78,0.15-1.24,0.2c-0.46,0.05-0.93,0.08-1.4,0.08c-0.79,0-1.47-0.08-2.06-0.25
			c-0.59-0.16-1.08-0.41-1.47-0.75c-0.39-0.34-0.69-0.76-0.89-1.29c-0.2-0.52-0.3-1.14-0.3-1.85c0-0.55,0.05-1.14,0.15-1.77
			c0.1-0.63,0.27-1.25,0.5-1.86c0.23-0.61,0.52-1.19,0.89-1.75c0.36-0.56,0.8-1.05,1.31-1.47c0.51-0.42,1.11-0.76,1.78-1.01
			c0.67-0.25,1.44-0.38,2.3-0.38c0.75,0,1.39,0.09,1.93,0.27c0.54,0.18,0.98,0.41,1.32,0.7c0.34,0.29,0.6,0.62,0.77,1
			C309.78,515.03,309.86,515.42,309.86,515.81z M306.82,516.04c0-0.33-0.13-0.6-0.39-0.82c-0.26-0.22-0.63-0.33-1.12-0.33
			c-0.41,0-0.78,0.07-1.1,0.22c-0.32,0.15-0.61,0.35-0.86,0.6c-0.25,0.25-0.46,0.55-0.63,0.89s-0.32,0.7-0.42,1.09h1.03
			c0.66,0,1.21-0.04,1.65-0.13c0.44-0.09,0.8-0.2,1.07-0.35c0.27-0.15,0.47-0.32,0.59-0.52
			C306.76,516.49,306.82,516.27,306.82,516.04z"/>
		<path class="st1" d="M319.92,513.23c0,0.06-0.01,0.16-0.02,0.31c-0.02,0.15-0.04,0.32-0.07,0.52c-0.03,0.2-0.07,0.4-0.12,0.61
			c-0.05,0.21-0.1,0.41-0.17,0.58c-0.06,0.18-0.13,0.33-0.21,0.44c-0.08,0.12-0.16,0.17-0.25,0.17c-0.08,0-0.15-0.02-0.22-0.04
			c-0.07-0.03-0.16-0.06-0.25-0.09c-0.09-0.03-0.19-0.06-0.3-0.09c-0.11-0.03-0.23-0.04-0.37-0.04c-0.28,0-0.58,0.11-0.89,0.32
			c-0.32,0.21-0.62,0.49-0.9,0.84c-0.29,0.35-0.54,0.75-0.77,1.22s-0.39,0.95-0.48,1.46l-0.98,4.94c-0.02,0.08-0.06,0.15-0.12,0.22
			c-0.06,0.06-0.16,0.11-0.28,0.15c-0.13,0.04-0.29,0.07-0.5,0.09c-0.2,0.02-0.46,0.03-0.75,0.03c-0.3,0-0.55-0.01-0.74-0.03
			c-0.19-0.02-0.34-0.05-0.45-0.09c-0.11-0.04-0.18-0.09-0.22-0.15c-0.03-0.06-0.04-0.13-0.02-0.22l2.19-10.99
			c0.02-0.08,0.05-0.15,0.11-0.21c0.06-0.06,0.14-0.11,0.25-0.15c0.11-0.04,0.25-0.07,0.43-0.09c0.18-0.02,0.39-0.03,0.63-0.03
			c0.25,0,0.46,0.01,0.62,0.03c0.16,0.02,0.29,0.05,0.38,0.09c0.09,0.04,0.15,0.09,0.18,0.15c0.03,0.06,0.03,0.13,0.02,0.21
			l-0.34,1.75c0.2-0.35,0.42-0.68,0.68-0.97c0.26-0.3,0.53-0.55,0.83-0.77c0.29-0.22,0.59-0.39,0.9-0.51
			c0.31-0.12,0.62-0.19,0.92-0.19c0.12,0,0.25,0.01,0.37,0.03c0.13,0.02,0.25,0.04,0.36,0.06c0.11,0.02,0.21,0.05,0.3,0.09
			c0.09,0.04,0.15,0.08,0.2,0.12C319.89,513.04,319.92,513.12,319.92,513.23z"/>
		<path class="st1" d="M331.79,517.09c0,0.59-0.05,1.2-0.17,1.82c-0.11,0.62-0.28,1.23-0.52,1.83c-0.24,0.59-0.54,1.15-0.92,1.67
			c-0.37,0.52-0.82,0.98-1.34,1.38c-0.52,0.4-1.12,0.71-1.79,0.94c-0.67,0.23-1.43,0.34-2.28,0.34c-0.83,0-1.54-0.1-2.15-0.29
			c-0.6-0.19-1.11-0.48-1.51-0.85c-0.4-0.37-0.7-0.83-0.9-1.38c-0.2-0.55-0.3-1.17-0.3-1.88c0-0.59,0.05-1.2,0.17-1.82
			c0.11-0.62,0.28-1.23,0.52-1.82c0.24-0.59,0.54-1.15,0.92-1.68c0.37-0.53,0.82-0.99,1.34-1.39c0.52-0.39,1.12-0.7,1.79-0.94
			c0.67-0.23,1.43-0.34,2.28-0.34c0.83,0,1.54,0.1,2.15,0.29c0.6,0.19,1.11,0.48,1.51,0.85c0.4,0.37,0.7,0.83,0.9,1.38
			C331.69,515.76,331.79,516.38,331.79,517.09z M328.59,517.3c0-0.34-0.03-0.65-0.1-0.92c-0.07-0.27-0.19-0.49-0.34-0.68
			c-0.16-0.19-0.37-0.33-0.62-0.42s-0.56-0.15-0.92-0.15c-0.41,0-0.78,0.08-1.11,0.24c-0.33,0.16-0.62,0.37-0.88,0.65
			c-0.26,0.27-0.48,0.58-0.67,0.94c-0.19,0.36-0.34,0.73-0.47,1.13c-0.12,0.39-0.21,0.79-0.27,1.2c-0.06,0.41-0.09,0.79-0.09,1.16
			c0,0.34,0.03,0.65,0.1,0.92c0.07,0.27,0.19,0.5,0.34,0.68c0.16,0.18,0.37,0.33,0.62,0.42c0.25,0.1,0.56,0.15,0.92,0.15
			c0.41,0,0.78-0.08,1.11-0.24c0.33-0.16,0.62-0.38,0.88-0.65c0.26-0.27,0.48-0.59,0.67-0.95c0.19-0.36,0.34-0.73,0.47-1.13
			c0.12-0.4,0.21-0.8,0.27-1.2C328.56,518.05,328.59,517.67,328.59,517.3z"/>
		<path class="st1" d="M344.77,515.85c0,0.29-0.02,0.58-0.06,0.86c-0.04,0.29-0.08,0.58-0.14,0.89l-1.37,6.78
			c-0.02,0.08-0.05,0.15-0.12,0.22c-0.06,0.06-0.16,0.11-0.28,0.15c-0.13,0.04-0.29,0.07-0.49,0.09c-0.2,0.02-0.45,0.03-0.76,0.03
			s-0.55-0.01-0.74-0.03s-0.34-0.05-0.45-0.09c-0.11-0.04-0.18-0.09-0.21-0.15c-0.04-0.06-0.05-0.13-0.03-0.22l1.33-6.58
			c0.04-0.2,0.07-0.4,0.09-0.6c0.02-0.2,0.03-0.39,0.03-0.54c0-0.37-0.08-0.67-0.23-0.91s-0.42-0.36-0.79-0.36
			c-0.34,0-0.69,0.11-1.05,0.32c-0.37,0.21-0.71,0.5-1.03,0.87c-0.32,0.37-0.61,0.79-0.87,1.28c-0.25,0.49-0.44,1.01-0.54,1.56
			l-1,4.97c-0.02,0.08-0.06,0.15-0.12,0.22c-0.06,0.06-0.16,0.11-0.28,0.15c-0.13,0.04-0.29,0.07-0.5,0.09
			c-0.2,0.02-0.46,0.03-0.75,0.03c-0.3,0-0.55-0.01-0.74-0.03c-0.19-0.02-0.34-0.05-0.45-0.09c-0.11-0.04-0.18-0.09-0.22-0.15
			c-0.03-0.06-0.04-0.13-0.02-0.22l2.2-10.99c0.02-0.08,0.05-0.15,0.1-0.21c0.05-0.06,0.13-0.11,0.25-0.15
			c0.11-0.04,0.25-0.07,0.43-0.09c0.18-0.02,0.39-0.03,0.63-0.03c0.25,0,0.46,0.01,0.62,0.03c0.16,0.02,0.29,0.05,0.38,0.09
			c0.09,0.04,0.15,0.09,0.18,0.15c0.03,0.06,0.03,0.13,0.02,0.21l-0.36,1.81c0.17-0.29,0.4-0.58,0.69-0.88
			c0.29-0.3,0.62-0.57,0.99-0.8c0.37-0.24,0.78-0.43,1.22-0.58c0.44-0.15,0.9-0.23,1.37-0.23c0.58,0,1.06,0.09,1.45,0.25
			c0.39,0.17,0.71,0.4,0.95,0.68c0.24,0.29,0.42,0.62,0.52,1C344.72,515.02,344.77,515.42,344.77,515.85z"/>
	</g>
</g>
</svg>
