<?xml version="1.0" encoding="UTF-8"?>
<svg xmlns="http://www.w3.org/2000/svg" version="1.1" viewBox="0 0 841.89 595.28">
  <defs>
    <style>
      .cls-1 {
        fill: #22423e;
      }
    </style>
  </defs>
  <!-- Generator: Adobe Illustrator 28.6.0, SVG Export Plug-In . SVG Version: 1.2.0 Build 709)  -->
  <g>
    <g id="Layer_1">
      <path id="Path_2088" class="cls-1" d="M303.03,44.46c-6.64,2.46-11.81,12.29-14.02,26.57-3.2,21.65-10.33,26.32-33.95,22.39-12.8-1.97-15.99-1.72-24.35,2.46-5.16,2.71-10.33,4.92-11.31,4.68-3.69-.26-7.39-.26-11.07,0l-8.86.24,2.95,9.1,7.62,22.88c6.15,19.43,11.56,26.07,23.86,29.03,7.33,2.16,13.95,6.24,19.19,11.81,7.09,6.86,14.74,13.11,22.88,18.69,10.09,6.89,15.49,12.8,19.2,20.66,5.16,11.07,6.15,11.56,24.6,14.51,6.13,1.21,11.72,4.31,16,8.86,4.08,4.29,8.71,8.01,13.78,11.07,3.69,1.97,9.1,7.87,11.56,13.04,6.15,11.81,17.46,21.65,33.95,28.78,15.25,6.89,19.43,12.8,14.02,20.17-2.02,3.01-5.25,4.99-8.86,5.41-2.7,0-8.36,3.69-12.8,8.37-8.36,9.09-16.23,13.78-22.63,13.78-2.21,0-9.35,4.67-15.74,10.33-7.36,6.63-15.45,12.41-24.11,17.22-9.1,4.92-13.78,9.35-16.23,15.25-2.21,5.41-5.66,8.86-9.84,9.84-4.18.99-7.63,4.43-9.84,10.09-2.46,5.66-5.9,9.09-10.09,10.08-7.13,1.72-29.03,0-36.9-2.95-10.82-3.94,7.63,11.81,20.42,17.71,11.81,5.17,13.53,7.13,19.19,19.93,3.45,7.87,7.87,17.71,9.6,22.14,5.41,12.05,13.03,15.5,39.11,17.96,28.29,2.7,33.7,5.41,50.18,23.37,12.3,13.53,17.71,25.09,17.71,38.87,0,11.07,6.4,23.12,14.52,27.31l7.38,3.94,1.72-8.86c.98-5.17,5.41-13.29,10.58-18.94,9.35-10.33,10.58-18.69,6.4-38.13-1.47-6.89-.74-9.35,4.92-15.25,5.9-6.15,6.64-8.37,4.92-16.48-3.94-20.42-.98-27.06,13.78-30.01l8.36-1.72.25-15.01c0-8.61,1.48-16.97,3.45-19.19,4.67-5.66,1.97-39.12-4.68-52.89-10.82-23.37-4.43-39.11,11.81-29.27,12.05,7.38,17.71,5.41,24.11-8.12,5.9-12.55,11.07-15.25,23.37-13.04,6.75.64,13.55.22,20.17-1.23,11.07-2.46,12.8-2.21,20.91,3.69,16.73,11.32,34.69,6.15,34.69-10.08,0-8.86,6.15-12.3,16.23-8.61,10.33,3.69,35.18,1.23,37.15-3.69,2.21-6.15-4.18-11.07-12.54-9.6-6.15,1.23-8.86.25-13.53-4.67-6.89-7.38-12.54-7.87-27.55-2.71-18.94,6.89-27.06.49-22.14-17.22,2.21-8.12,1.72-8.86-4.18-12.05-5.07-3.15-9.7-6.96-13.78-11.31-6.89-7.87-7.38-7.87-21.4-6.4-16.97,1.72-25.09-.98-36.41-11.56-9.1-8.86-19.93-29.27-19.93-38.38,0-3.44,2.46-13.53,5.41-22.63,5.16-15.99,5.16-16.73.98-23.12-5.17-7.87-17.71-13.53-29.77-13.53-9.1,0-11.81-1.97-28.54-21.89-7.38-8.61-12.05-9.84-12.05-3.2-.41,3.57-1.77,6.97-3.94,9.84-4.92,7.13-18.2,7.38-24.35.49-2.46-2.71-5.66-4.92-7.13-4.92s-4.18,2.21-5.9,4.92c-4.18,6.64-8.12,6.15-18.69-2.46-6.75-4.77-14.23-8.42-22.14-10.82-16-4.67-21.65-10.58-20.91-21.4,1.23-15.99,0-21.15-5.66-23.62-3.51-1.51-7.45-1.68-11.08-.48Z"/>
      <path id="Path_2092" class="cls-1" d="M571.9,333.51c-2.14,1.92-3.53,4.53-3.94,7.38,0,1.97-2.21,8.11-5.16,13.78-8.61,16.97-.25,26.81,15,17.95,3.78-2.12,7.98-3.38,12.3-3.69,8.86-.25,12.05-2.95,13.78-11.81,1.48-6.89.24-9.1-8.37-17.71-10.34-10.57-17.46-12.3-23.62-5.9Z"/>
    </g>
  </g>
</svg>