<?xml version="1.0" encoding="UTF-8"?>
<svg id="Layer_1" data-name="Layer 1" xmlns="http://www.w3.org/2000/svg" viewBox="0 0 500 500">
  <defs>
    <style>
      .cls-1 {
        fill: #0a7b5f;
      }

      .cls-2 {
        fill: #0b7b5f;
        stroke: #fff;
        stroke-miterlimit: 10;
      }

      .cls-3 {
        fill: #f9e5af;
      }
    </style>
  </defs>
  <g>
    <path class="cls-2" d="m346.68,229.9c-.71.22-1.04.28-1.75.73-.56.35-.94.66-1.6.77-.91.15-1.82-.16-2.68-.31-1.06-.18-2.16-.07-3.24-.08-1.07,0-1.98.33-3.04.39-.91.05-1.85-.14-2.76-.04-.64.07-1.24.35-1.87.49-1.55.34-3.3.58-4.87.66-.84.04-1.8.09-2.63-.09-.54-.12-1.03-.45-1.56-.6-1.5-.4-2.68-.52-3.59-1.99-.81-1.31-1.57-2.7-2.33-4.02-1.17-2.02-1.29-5.03-3.62-6.42-1.04-.62-2.41-.45-3.44-.99-.5-.26-.83-.6-1.1-1.1-.24-.45-.66-1.37-.76-1.85-.32-1.48-.3-2.99-.73-4.47-.4-1.36-.51-2.8-1.1-4.1-.48-1.06-.91-2.21-1.76-3.04-.78-.76-1.66-1.28-2.41-2.04-.8-.81-1.47-1.63-2.5-2.04-1.24-.49-2.43-.64-3.72-1.1-.88-.32-1.88-.73-2.59-1.36.02.32.09.78.02,1.07-.15.56-.48.71-.78,1.2-.57.92-.64,1.78-1.53,2.49-1.18.94-2.2,2.05-3.27,3.12-1.59,1.6-1.38,4.72-3.4,6.19-.61.44-1.37.7-2.03,1.06-1.61.89-3.2,1.98-4.69,3.05-.81.59-4.4,2.87-4.8,4.41-.13.49.06,1.53.06,1.98,0,1.37.01,2.69.14,4.06.16,1.65-.38,2.45-1.35,3.76-1.33,1.8-3.05,3.65-3.57,5.9-.27,1.17.08,1.36-.8,1.83-1.34.71-2.12-.22-3.34-.44-.87-.16-1.74.17-2.59.28-.94.12-1.85.12-2.78.3-3.29.62-6.52,1.24-9.9,1.28-1.84.02-3.03.21-4.86.73-1.59.44-3.42,1.05-5.12,1.06-1.57,0-2.68-1.05-4.18-1.12-.4-.02-.77.06-1.14.18.09.15.25-.29-.41,2.36-.21.85-.38,1.71-.82,2.44-.77,1.28-1.64,2.56-2.49,3.79-.82,1.21-1.9,2.05-2.83,3.15-.8.95-1.24,2.26-1.97,3.3-1.19,1.69-2.17,2.48-4.15,3.06-1.34.39-2.99.77-3.93,1.84-.6.68-.85,1.56-1.49,2.22-1.8,1.86-4.31,3.15-6.83,3.52-2.72.41-5.35.98-8.03,1.57-2.85.63-5.91.56-8.63,1.6-2.51.97-4.44,3.12-5.19,5.7-.49,1.7-.19,3.7-1.04,5.25-1.07,1.95-2.92,4.43-4.82,5.65-2.15,1.38-5.19,1.55-7.64,1.22-2.03-.28-3.88-.77-5.77.3-1.69.95-2.83,2.85-3.94,4.4-2.49,3.47-3.51,8.27-7.57,10.3-3.69,1.85-7.17,3.26-9.33,7.01-.84,1.45-1.66,2.93-2.52,4.36-.56.93-1.28,1.46-2.14,2.1-1.35,1.02-3.57,1.17-4.47-.61-.45-.9-.63-1.91-1.11-2.81-.47-.88-.95-1.75-1.43-2.63-.9-1.64-1.76-3.3-3.05-4.69-1.16-1.25-2.51-2.09-3.96-2.96-1.24-.75-2.4-1.59-3.84-1.9-1.41-.31-2.65.02-3.97.27.16.61.33,1.11.32,1.86,0,.43.03.87,0,1.3-.03.61-.31,1.07-.39,1.67-.31,2.18.01,4.68.01,6.88,0,.92,0,1.84,0,2.77-.01,1.06.33,1.71.7,2.63.48,1.23.62,1.33,1.9,1.63.99.23,2.1.48,2.99,1.03.69.43,1.29.92,2.01,1.2,1.07.42,2.31.48,3.36,1.1,2.39,1.42,3.73,4.07,5.65,5.93,1.2,1.17,2,2.68,3.23,3.88,1.03,1.01,1.67,2.33,2.66,3.4,1.02,1.11,1.81,2.46,2.38,3.86.27.67.56,1.1.93,1.69.59.94.79,2.1,1.3,3.12,1.02,2.03,1.14,4.49,1.53,6.7.29,1.64.89,3.29,1.53,4.82.53,1.24,1.32,2.2,2.04,3.33.73,1.13,1.8,2.33,2.01,3.69.48.1.76-.51,1.1-.72.63-.38,1.49-.52,2.2-.65,1.08-.2,1.44-.08,2.18.64.91.89,2,2.58,3.27,2.95.96.28,2.45.13,3.39-.04,1.71-.31,3.42-.55,5.16-.66,1.41-.09,2.72-.58,4.15-.29,2.41.49,4.57,1.29,6.67,2.59,1.54.96,3.29,1.7,5.14,1.77,1.54.06,3.08,0,4.62,0,1.95.02,3.84-.55,5.77-.76,1.41-.15,2.72-.08,4.14-.01,1.07.05,1.88.36,2.61,1.12.81.84,1.06,1.84,1.92,2.69,1.18,1.16,2.03,2.26,2.96,3.61.92,1.34,1.69,2.53,2.39,3.97.19.39.36.92.59,1.27.27.4.75.65.97,1.09,1.3,2.64-1.43,5.44-2.82,7.43-1.02,1.45-1.45,3.06-1.95,4.74-.28.94-1.3,3.05-.66,4.09.29.48,1.03,1.07,1.4,1.48,1.03,1.12,2.54,1.18,4.01,1.47,1.63.32,2.77,1.34,4.46,1.58,1.04.15,2.07.62,2.59,1.56,1.41,2.55-.38,5.4-.34,8,.01.89.4,1.71.43,2.6.02.64-.12,1.29.01,1.93.17.84.35,1.41.34,2.29,0,1.12,0,2.25,0,3.37,0,1.22-.05,1.64.84,2.42,1.08.95,2.62,1.82,3.97,2.41,2.04.89,3.01,1.78,3.66,3.99.43,1.48.69,2.59,2.03,3.62.4.31.84.71,1.28.94.35.18.8.21,1.14.4.02-.02.05-.04.07-.05.5-.39,1.08-.69,1.5-1.17.49-.55.55-1.14.82-1.79.69-1.72,1.03-3.12,1.02-5,0-1.39-.25-3.03.25-4.34.49-1.31,1.34-2.53,2.01-3.75.46-.85.69-1.74,1.08-2.61.73-1.6,2.13-2.46,3.11-3.9,1.28-1.89,2.57-3.8,3.68-5.8,1.3-2.35,1.38-5.68.8-8.26-.42-1.88-1.89-3.75-1.72-5.72.13-1.56,1.5-2.98,2.07-4.43.28-.7.43-1.47.79-2.14.57-1.07,1.61-1.86,2.3-2.86,1.07-1.53,1.89-3.33,2.56-5.06.28-.73.43-1.53.76-2.23.44-.95,1.13-1.82,1.62-2.76,1.15-2.15,2.06-4.02,1.82-6.5-.15-1.48-1.02-3.22-.89-4.66.1-1.02.49-2.19.76-3.18.22-.81.43-1.51,1.1-2.05.65-.53,1.48-.76,2.23-1.1,1.37-.64,2.49-1.61,3.81-2.34,1.02-.57,2.15-.78,3.05-1.53.92-.77,1.63-1.85,2.42-2.74.81-.92,1.49-1.57,1.66-2.81.19-1.35-.08-2.76.07-4.13.23-2.14.62-4.43,1.22-6.48.43-1.49.59-3.01.95-4.52.36-1.49.36-2.63,0-4.13-.63-2.6-.48-4.49,1.49-6.47,1.37-1.38,1.87-2.9,1.86-4.79-.01-3.03-.33-6.23-.83-9.22-.22-1.29-.72-2.48-.95-3.76-.27-1.53-.5-2.97-1.08-4.44-.66-1.68-1.88-2.68-3.06-3.99-.37-.41-.9-.98-1.09-1.51-.5-1.37.32-3.01.32-4.4,0-1.76.89-3.18,1.1-4.94.18-1.47,1.27-3.27,2.22-4.4,1.23-1.45,2.76-2.81,4.2-4.05,1.37-1.18,3.22-.99,4.87-1.36,2.34-.53,4.57-1.58,6.82-2.41,1.52-.56,3.14-.75,4.73-1.05.79-.15,1.25-.34,1.93-.78.45-.29,1.48-.69,1.76-1.12.36-.56.19-1.52.19-2.23,0-.89-.24-2.14,0-2.99.21-.77,1.03-1.18,1.65-1.65.79-.58,1.65-1.07,2.41-1.68.56-.45,1.04-.95,1.69-1.27.82-.4,1.73-.55,2.6-.79,1.07-.29,2.07-.77,3.14-1.07.72-.21,1.5-.28,2.24-.41.98-.17,1.7.09,2.66.3,2.61.58,5.3.17,7.89-.32,3.25-.61,6.58-1.48,9.76-2.4,1.67-.49,3.02-.88,4.74-.54,1.81.35,4.3.91,6.14.48,1.21-.28,2.13-.93,3.45-.61,1.95.47,3.77,1.6,5.73,2.1,3.88.98,7.61,1.96,11.62,2.31,1.56.14,2.63.08,4.1-.37,1.27-.39,2.53-.71,3.83-1.07,1.46-.4,2.87-1.23,4.25-1.9,1.88-.92,3.95-1.2,5.97-1.68,1.73-.41,3.34.22,5.09.21,1.89-.01,3.72-.49,5.59-.4,1.68.08,3.02,1.05,4.72.41,1.37-.52,2.27-1.78,3.3-2.78,1.62-1.58.95-2.89-.76-3.88-.63-.36-1.25-.36-1.81-.78-.43-.32-.82-.82-1.2-1.21-1.21-1.23-3-1.27-4.54-2.04-.69-.35-1.09-.79-1.7-1.21-.73-.5-1.84-.69-2.67-1.02-1.77-.7-3.74-1.52-5.28-2.6-1.38-.97-3.48-1.99-5.18-2.34-.59-.12-1.26.11-1.86.04-.52-.06-.99-.36-1.51-.41-.79-.08-1.28-.16-2.03-.52-.79-.39-1.7-1.12-2.4-1.67-1.08-.85-1.14-.69-2.41-.41-.85.18-1.29-.07-2.02.48-.74.56-1.49,1.12-2.1,1.78-1.11,1.2-1.97,2.14-3.48,2.78-1.22.52-2.49,1.64-3.89,1.13-1.22-.45-3.04-1.85-3.16-3.16-.13-1.43-.65-3.2-1.57-4.39-.63-.81-.67-.88-.97-1.3-.02.01-.03.02-.05.04-.64.42-1.51.61-2.23.83Z"/>
    <path class="cls-2" d="m260.3,106.33c-.32.21-.91.62-1.36.67-1.64.18-3.51-1.47-5.05-1.89-.86-.23-1.74-.47-2.59-.72-.81-.24-1.47-.94-2.31-1.06-.9-.13-2.1.55-2.73,1.15-.56.54-.64,1.2-.95,1.83-.58,1.18-1.77,2.57-3.04,2.96-1.19.37-1.38-.28-2.07-1-1.37-1.42-3.32-.78-5.1-.45-2.57.47-4.39.37-6.85-.22-.72-.17-1.13-.06-1.81.18-1.26.45-2.55.69-3.84.98-.94.21-1.92.64-2.9.48-.46-.07-.79-.33-1.26-.34-1.41-.04-2.43.47-3.87.22-1.21-.21-2.51-.2-3.67-.66-.6-.23-.87-.51-1.16-1.09-.4-.8-.18-1.21-.38-1.96-.18-.69-1.31-2.01-1.9-2.42-.46-.32-.98-.49-1.45-.83-.38-.28-.69-.72-1.09-.96-1.94-1.15-4.39-.96-6.4-2-.95-.49-2.19-1.06-2.91-1.85-.71-.78-.96-1.76-1.83-2.46-1.51-1.23-2.74-2.81-4.45-3.79-1.84-1.05-3.86-1.43-5.44-2.99-.35-.35-.61-.78-1-1.09-.55-.43-1.17-.65-1.72-1.09-1.04-.84-1.93-1.69-2.89-2.61-.49-.47-.75-.64-.86-1.33-.12-.79.23-1.31.4-2.01.35-1.43,1.15-2.72,1.84-4.08.89-1.76,1.38-3.48,1.77-5.4.46-2.28-1.44-3.51-3.46-4.08-.77-.22-1.46-.11-2.28-.24-1.19-.19-2.26-.73-3.41-.98-1.01-.22-1.51.41-2.23,1.03-1.07.93-1.94,1.77-2.87,2.84-.77.88-1.92,1.28-2.59,2.29-.47.72-.72,1.55-1.26,2.24-1,1.28-1.8,2.41-2.28,3.98-.36,1.18-.49,2.35-.78,3.52-.35,1.41-.87,2.84-1.21,4.27-.17.72-.32,1.39-.65,2.06-.33.66-.37.58-1.01.82-1.16.44-2.23.66-3.34,1.01-.47.15-.99.51-1.51.41-.51-.09-.65-.39-1.28-.41-1.34-.02-2.7.8-3.99,1.12-.7.17-1.41.41-2.14.39-.72-.02-1.34-.34-2.05-.4-1-.09-2.3-.09-3.13.45-.95.62-1.83,1.34-2.78,1.97-1.16.77-2.43,1.53-3.54,2.4-1.03.81-1.82,1.51-3.15,1.49-.64,0-1.35.1-1.96-.08-.28-.08-.64-.43-.92-.57-.22-.11-.8-.5-1-.5-.38-.01-.58.34-.95.35-.31,0-.63-.22-.94-.32-.61-.2-.54-.51-.79-.77-.02.16-.07.31-.16.44-.34.45-1.48.38-1.94.43-.86.09-1.87.53-2.7.82-2.76.97-4.94,3.3-7.47,4.67-1.74.94-3.43,1.78-4.98,3.05-.79.65-1.74.98-2.25,1.85-.29.49-.39,1.36-.99,1.53-.3.08-.89-.09-1.39-.28.24,1.25.03,3,.05,4.24,0,.75-.27,1.17-.39,1.86-.12.7-.04,1.17-.26,1.86-.2.62-.35,1.24-.55,1.86-.14.42-.19.7-.28,1.12-.06.31-.22.57-.29.82-.16.58-.04,1.17-.07,1.77-.04.67-.36,1.18-.39,1.86-.07,1.41-.36,2.64-.36,4.08,0,1.22-.1,2.26.37,3.32.71,1.6,1.83,2.43,2.97,3.73.6.68.98,1.16,1.67,1.71.47.38,1.1.79,1.49,1.25.67.79,1.2,2.17,1.56,3.13.44,1.14.53,2.88,1.3,3.85.2.25.48.49.76.72.14-.21.27-.42.35-.62-.08.2-.21.41-.35.62.22.17.44.34.64.49.31.24.77.63,1.19.69.72.1,1.1-.38,1.74-.6,1.39-.49,2.93-.95,4.41-.87,1.32.07,2.02.91,3.14,1.44,2.24,1.06,4.69,2.4,6.61,4,1.31,1.08,2.27,2.51,3.58,3.5,1.02.77,2.1,1.59,3.01,2.51,1.12,1.12,1.85,2.45,3.13,3.45.88.69,1.99,1.18,2.81,1.92.94.85,1.64,2,2.56,2.88,2.46,2.33,4.85,4.76,7.25,7.16,2.16,2.16,4.05,4.47,6.13,6.69.84.89,1.7,1.86,2.3,2.92.96,1.71,1.64,3.65,2.98,5.1,3.86,4.2,9.23,5.68,14.28,7.85,2.34,1.01,3.97,3.1,6.47,3.77,1.95.52,3.74,1.48,5.64,2.15,1.68.6,3.32,1.45,4.36,2.97.86,1.25,1.94,2.33,2.65,3.68,1.07,2.02,2.47,3.86,3.61,5.84.99,1.71,1.75,3.54,2.61,5.32.39.81.74,1.62,1.03,2.47.21.61.25,1.49.59,2.02.71,1.1,2.14,1.18,3.16,1.85.84.56,1.49,1.36,2.32,1.94.96.68,1.92,1.39,2.91,2.03,1.46.94,2.77,1.98,4.18,2.99,1.3.93,2.58.56,4.01,1.13,1.28.51,1.89,1.76,3.03,2.46,1.42.87,2.97,1.95,4.07,3.21,1.19,1.35,2.11,3.19,4.15,2.56.3-.09.6-.21.9-.3-.03-.06-.06-.2-.02-.64-.04.44-.02.58.02.64.37-.11.74-.2,1.14-.18,1.49.07,2.6,1.13,4.18,1.12,1.71,0,3.53-.61,5.12-1.06,1.84-.51,3.02-.7,4.86-.73,3.38-.04,6.61-.66,9.9-1.28.93-.17,1.84-.18,2.78-.3.85-.11,1.72-.44,2.59-.28,1.21.22,1.99,1.15,3.34.44.88-.47.53-.66.8-1.83.52-2.25,2.24-4.1,3.57-5.9.96-1.3,1.5-2.11,1.35-3.76-.13-1.37-.15-2.69-.14-4.06,0-.46-.19-1.49-.06-1.98.4-1.53,3.99-3.82,4.8-4.41,1.48-1.07,3.07-2.16,4.69-3.05.66-.36,1.42-.63,2.03-1.06,2.02-1.46,1.81-4.59,3.4-6.19,1.07-1.07,2.08-2.18,3.27-3.12.89-.71.96-1.57,1.53-2.49.3-.49.63-.64.78-1.2.08-.29,0-.75-.02-1.07-.26-.23-.48-.49-.64-.79.16.3.38.56.64.79,0-.03,0-.08,0-.11,0-.93.12-1.98-.08-2.89-.24-1.08-.6-2.21-.69-3.33-.08-1.06-.02-3.08.75-3.91.39-.42,1.65-1.02,2.25-.89.31.07.78.65,1.1.81.47.23.68.11,1.13.25.73.22.97.39,1.84.38.27,0,.68-.08.94-.01.29.08.62.39.89.34.25-.04.51-.51.76-.63.22-.1.47-.17.73-.23.25-.84.55-1.64.85-2.35.13-.32.54-.71.62-1.04.13-.54-.04-1.09.11-1.64.49-1.79.2-3.38-.1-5.21-.1-.62.1-1.29.04-1.91-.1-.95-.29-1.3-.11-2.24.31-1.66.09-3.38.38-5.05.47-2.73.09-5.86.08-8.62,0-1.31.22-2.5.45-3.77.14-.75.3-1.27.29-2.06,0-.44-.07-.95.03-1.38.27-1.19.72-2.35.71-3.61-.01-.93-.23-2.3.08-3.17.32-.91,1.34-1.72,1.93-2.5.4-.53,1.25-1.08,1.54-1.65.49-.95-.53-1.73-1.31-2.16-.66-.36-.51-.02-.83-.73-.18-.4-.23-.66-.36-1.12-.41-1.36-1.32-3.43-2.32-4.35-.64-.58-1.08-1.31-1.76-1.94-.34-.31-.7-.6-1.03-.85-.33-.26-.27-.22-.37-.73-1.43.32-1.64.17-2.6-.75-.43-.42-.63-.5-1.13-.74-.61-.3-1.14-.51-1.83-.64-.3.23-.58.19-.83-.13-.35-.37-.69-.74-1.02-1.13-.51-.31-.86-.33-1.45-.34-1.29-.02-2.93.05-4.13-.48-.86-.38-1.46-1.34-2.28-1.83-1.1-.66-2.26-1.16-3.36-1.84-1.53-.95-3.05-1.46-4.69-2.13-.65-.26-1.2-.49-1.71-.96-.59-.55-.99-1.23-1.71-1.67-.44-.27-1.01-.4-1.39-.75-.64-.58-.67-1.45-1.1-2.13-.35-.57-.8-1.02-1.3-1.47-.74-.66-1.48-1.12-2.16-1.86-.31-.34-.59-.7-.9-1.05-.98-1.12-2.15-1.99-2.43-3.55-.09-.51-.22-.94-.38-1.34-.41.36-.83.72-1.26,1.04-.52.39-1.08.76-1.62,1.11Z"/>
    <path class="cls-2" d="m299.16,187.92c-.27.05-.6-.26-.89-.34-.26-.07-.67.01-.94.01-.87,0-1.1-.16-1.84-.38-.45-.14-.67-.02-1.13-.25-.32-.16-.79-.74-1.1-.81-.6-.13-1.86.47-2.25.89-.77.83-.83,2.85-.75,3.91.09,1.12.45,2.25.69,3.33.2.91.08,1.95.08,2.89,0,.03,0,.07,0,.11.71.63,1.71,1.04,2.59,1.36,1.29.46,2.48.62,3.72,1.1,1.03.41,1.7,1.23,2.5,2.04.75.76,1.63,1.28,2.41,2.04.85.84,1.28,1.98,1.76,3.04.59,1.3.7,2.74,1.1,4.1.43,1.48.41,2.99.73,4.47.11.48.52,1.4.76,1.85.27.5.6.84,1.1,1.1,1.03.54,2.4.37,3.44.99,2.33,1.39,2.45,4.4,3.62,6.42.76,1.32,1.51,2.71,2.33,4.02.91,1.47,2.09,1.59,3.59,1.99.53.14,1.02.47,1.56.6.82.18,1.79.13,2.63.09,1.57-.07,3.32-.32,4.87-.66.63-.14,1.23-.42,1.87-.49.9-.1,1.85.09,2.76.04,1.06-.06,1.97-.4,3.04-.39,1.07.01,2.18-.1,3.24.08.87.15,1.77.46,2.68.31.66-.11,1.05-.41,1.6-.77.71-.45,1.04-.51,1.75-.73.72-.22,1.58-.41,2.23-.83.02-.01.03-.02.05-.04-.11-.16-.26-.36-.48-.67.22.31.37.52.48.67,1.95-1.3,2.68-3.74,3.7-5.63.35-.65.55-1.81.74-2.78-.83.25-1.31.31-2.33-.34-1.08-.69-2.49-1.9-3.21-2.98-.59-.89-.59-1.99-1.17-2.91-.38-.61-.71-1.29-1.12-1.87-.53-.77-1.21-1.61-1.85-2.29-.49-.52-1.2-.91-1.59-1.47-.45-.64-.64-1.47-1.32-1.88-.75-.46-2.14-.3-2.99-.36-.52-.04-.66-.17-1.13-.3-1.54-.4-3.6.61-5.19.68-2.72.12-5.12-1.21-7.58-2.17-1.06-.41-1.9-.95-2.9-1.47-1.01-.53-2.24-.78-3.28-1.3-.93-.45-1.61-1.01-2.24-1.84-.64-.85-.94-1.88-1.84-2.53-.59-.42-1.27-.71-1.88-1.1-.38-.25-.75-.55-1.17-.74-.93-.43-2.15-.73-3.18-.74-1.24-.02-1.97-.43-3.03-1.17-.85-.6-1.6-1.52-2.67-1.76-.46-.11-.96.1-1.39-.08-.44-1.53-.17-3.3.31-4.93-.26.06-.51.13-.73.23-.25.12-.51.58-.76.63Z"/>
  </g>
  <g>
    <path class="cls-1" d="m326.38,186.84s0,.08,0,.15c0,.06-.02.13-.03.21-.01.08-.03.15-.05.23-.02.08-.04.15-.07.21-.03.07-.06.12-.09.16s-.07.06-.11.06c-.06,0-.13-.03-.22-.08s-.2-.11-.33-.17c-.13-.06-.28-.12-.45-.17-.17-.05-.37-.08-.59-.08s-.42.03-.58.1c-.16.06-.29.15-.39.25s-.18.22-.23.35-.07.26-.07.39c0,.15.04.29.11.4.08.12.18.22.3.32s.27.2.43.29c.16.09.33.19.5.29s.33.21.5.33c.16.12.31.26.44.42s.23.34.3.55.11.44.11.71c0,.4-.08.77-.24,1.11-.16.34-.39.64-.68.89s-.65.45-1.07.59-.88.22-1.39.22c-.27,0-.53-.02-.76-.07-.23-.04-.44-.1-.62-.16-.18-.06-.33-.13-.45-.2s-.21-.14-.27-.2c-.06-.06-.09-.16-.09-.29,0-.04,0-.09.01-.15,0-.07.02-.14.04-.22s.03-.16.05-.24c.02-.08.05-.16.08-.22.03-.07.06-.12.1-.17s.08-.06.12-.06c.07,0,.16.03.26.1.1.06.22.14.37.21s.32.15.53.22c.2.07.45.1.73.1.25,0,.47-.03.66-.1.19-.06.35-.15.47-.26.13-.11.22-.24.29-.38s.1-.31.1-.48c0-.16-.04-.29-.11-.41-.08-.12-.18-.23-.3-.33s-.27-.19-.43-.28c-.16-.09-.32-.18-.49-.29s-.33-.21-.49-.33c-.16-.12-.3-.26-.43-.42s-.23-.34-.3-.55-.11-.45-.11-.72c0-.38.08-.73.23-1.05s.36-.6.63-.83c.27-.23.59-.41.97-.54s.79-.19,1.24-.19c.21,0,.41.02.6.05.19.03.36.07.52.12.16.05.29.1.4.16.11.06.19.11.23.15.04.04.07.08.09.13.02.04.03.1.03.17Z"/>
    <path class="cls-1" d="m331.84,194.21s-.03.08-.05.11c-.03.03-.07.06-.13.08-.06.02-.13.04-.22.04-.09.01-.2.02-.33.02s-.24,0-.32-.02c-.08,0-.15-.03-.19-.04-.05-.02-.08-.04-.09-.08-.01-.03-.02-.07,0-.11l.17-.92c-.08.15-.2.3-.35.45s-.32.29-.51.41-.4.22-.63.3c-.22.08-.45.12-.69.12-.3,0-.55-.04-.75-.12s-.37-.2-.5-.34c-.12-.14-.22-.31-.27-.51-.06-.2-.08-.41-.08-.65,0-.14,0-.29.03-.44.02-.15.04-.3.07-.46l.7-3.51s.03-.08.06-.11c.03-.03.08-.06.15-.08s.15-.03.26-.04c.11,0,.24-.02.39-.02s.28,0,.38.02c.1.01.18.03.23.04s.09.04.11.08c.02.03.02.07.02.11l-.67,3.4c-.02.09-.04.19-.05.29s-.02.2-.02.29c0,.1,0,.19.03.28.02.08.05.15.09.21.04.06.1.1.16.13.07.03.15.04.24.04.17,0,.35-.05.54-.17.19-.11.37-.27.54-.46s.32-.43.45-.7c.13-.27.23-.56.3-.87l.48-2.45s.02-.08.06-.11.08-.06.15-.08.15-.03.26-.04c.11,0,.23-.02.39-.02s.29,0,.38.02c.1.01.18.03.23.04.06.02.09.04.11.08s.02.07.01.11l-1.14,5.68Z"/>
    <path class="cls-1" d="m342.33,194.21s-.03.08-.06.11c-.03.03-.08.06-.15.08s-.15.04-.26.05c-.1.01-.23.02-.39.02s-.28,0-.38-.02c-.1,0-.18-.03-.23-.05-.06-.02-.09-.05-.11-.08-.02-.03-.02-.07,0-.11l.68-3.39c.02-.1.03-.2.04-.29.01-.1.02-.19.02-.29,0-.2-.04-.36-.11-.48s-.21-.18-.4-.18c-.17,0-.34.05-.53.16s-.36.26-.52.45c-.17.19-.32.41-.44.66s-.22.52-.28.8l-.51,2.56s-.03.08-.06.11c-.03.03-.08.06-.15.08s-.15.04-.26.05c-.1.01-.23.02-.39.02s-.28,0-.38-.02c-.1,0-.18-.03-.23-.05s-.09-.05-.11-.08c-.02-.03-.02-.07-.02-.11l.67-3.39c.03-.1.04-.2.05-.3s.02-.2.02-.3c0-.19-.04-.34-.12-.46s-.21-.18-.39-.18c-.17,0-.35.05-.53.16s-.36.26-.52.45c-.17.19-.32.41-.44.66s-.22.52-.28.8l-.51,2.56s-.03.08-.06.11c-.03.03-.08.06-.15.08s-.15.04-.26.05c-.11.01-.24.02-.39.02s-.28,0-.38-.02c-.1,0-.18-.03-.23-.05-.06-.02-.09-.05-.11-.08s-.02-.07-.01-.11l1.14-5.67s.03-.08.05-.11.07-.06.13-.08c.06-.02.13-.03.22-.04.09,0,.2-.02.33-.02s.24,0,.32.02c.08.01.15.03.19.04.05.02.08.04.09.08s.02.07,0,.11l-.18.93c.09-.15.21-.3.36-.46s.32-.29.5-.41c.19-.12.39-.22.62-.3.22-.08.45-.12.69-.12s.46.03.64.1c.18.07.33.16.44.27.12.12.21.25.27.41s.1.33.12.51c.1-.15.22-.3.37-.46s.32-.29.51-.41c.19-.12.39-.22.61-.3.22-.08.45-.12.68-.12.3,0,.54.04.75.12.2.08.36.2.49.34s.21.32.27.51.08.41.08.64c0,.15,0,.3-.03.45-.02.15-.04.3-.08.46l-.7,3.5Z"/>
    <path class="cls-1" d="m348.71,196.45s-.03.08-.06.11c-.03.04-.08.06-.15.09s-.15.04-.26.05c-.11.01-.24.02-.39.02s-.28,0-.38-.02c-.1-.01-.18-.03-.23-.05-.06-.02-.09-.05-.11-.09-.02-.03-.02-.07-.02-.11l.37-1.83c.02-.09.04-.19.07-.3s.05-.21.09-.32c.03-.11.06-.21.09-.31.03-.1.06-.18.09-.26-.08.13-.19.27-.33.41-.14.13-.3.26-.49.37-.18.11-.38.2-.59.26-.21.07-.42.1-.63.1-.31,0-.58-.05-.8-.16-.22-.11-.4-.25-.55-.44-.14-.19-.25-.41-.31-.68-.07-.26-.1-.55-.1-.87,0-.27.03-.56.08-.87.05-.31.13-.63.23-.94.1-.31.24-.62.4-.91.17-.29.36-.55.59-.78s.5-.41.8-.54c.3-.13.64-.2,1.02-.2.35,0,.66.07.93.22s.51.36.71.64l.1-.5c.02-.09.08-.15.2-.19.12-.04.3-.06.56-.06.13,0,.23,0,.32.02.08.01.15.03.2.05.05.02.08.05.1.08.02.03.02.07.01.11l-1.58,7.92Zm-.34-6.22c-.15-.23-.31-.41-.49-.52-.18-.12-.39-.18-.62-.18-.18,0-.35.04-.5.13-.15.09-.28.21-.4.36-.12.15-.22.31-.3.5-.08.19-.16.38-.21.59s-.09.4-.12.6-.04.38-.04.55c0,.33.06.57.17.72s.28.23.49.23c.19,0,.38-.05.57-.17.19-.11.38-.26.54-.46.17-.19.32-.42.45-.68s.22-.53.28-.82l.18-.86Z"/>
    <path class="cls-1" d="m356.01,194.21c-.02.09-.08.15-.2.19-.12.04-.3.06-.56.06-.13,0-.24,0-.32-.01-.08,0-.15-.02-.2-.04-.05-.02-.08-.04-.1-.08-.01-.03-.02-.07,0-.12l.18-.91c-.06.13-.16.28-.3.43-.14.15-.3.29-.49.41-.19.12-.4.22-.63.3s-.47.12-.71.12c-.34,0-.62-.06-.84-.18-.22-.12-.4-.28-.54-.48-.13-.2-.23-.43-.29-.69-.06-.26-.09-.53-.09-.81,0-.27.03-.56.08-.87.05-.32.13-.63.24-.94.11-.31.24-.62.41-.9.16-.29.36-.55.59-.77s.5-.4.79-.54c.3-.13.64-.2,1.01-.2.35,0,.66.07.93.22s.51.36.71.64l.1-.5c.02-.09.08-.15.2-.19.12-.04.3-.06.56-.06.13,0,.23,0,.32.02.08.01.15.03.2.04s.08.04.1.08c.02.03.02.07.01.11l-1.14,5.68Zm-.79-3.97c-.15-.23-.31-.41-.49-.52-.18-.12-.39-.17-.62-.17-.18,0-.34.04-.49.13-.15.08-.28.2-.39.34-.11.14-.21.31-.3.49-.09.19-.16.38-.22.58-.06.2-.1.4-.13.61s-.04.39-.04.57c0,.13,0,.25.03.36.02.11.05.21.1.3.05.09.12.16.2.21s.19.08.32.08c.19,0,.38-.05.57-.17.19-.11.38-.26.54-.46.17-.19.32-.42.45-.67s.22-.53.28-.82l.18-.86Z"/>
    <path class="cls-1" d="m363.7,188.53c0,.05,0,.12-.02.18-.01.07-.03.14-.06.21-.14.39-.3.79-.47,1.21-.17.41-.36.84-.57,1.28s-.46.89-.74,1.37c-.28.47-.59.96-.95,1.46l-1.55,2.2c-.04.05-.08.1-.14.14-.06.04-.13.06-.22.09s-.19.04-.31.05c-.12.01-.26.02-.43.02-.18,0-.33,0-.44-.02-.11-.01-.19-.04-.24-.07-.05-.04-.07-.08-.07-.13,0-.05.03-.11.09-.18l1.44-1.9-.93-5.45c0-.05-.02-.11-.03-.17,0-.06-.01-.11-.01-.15,0-.08.01-.14.04-.19s.07-.08.14-.11.15-.04.26-.05c.11,0,.24-.02.4-.02.17,0,.31,0,.41,0s.17.02.23.04.09.05.1.1c.02.04.03.1.04.16l.58,3.97h.01c.21-.32.4-.64.58-.96.17-.33.33-.66.48-.99.14-.34.28-.68.4-1.02.12-.35.23-.69.33-1.04,0-.04.03-.08.06-.11.03-.03.08-.06.15-.08.07-.02.16-.03.28-.04.11,0,.26-.02.44-.02.27,0,.46.02.56.05.1.04.15.1.15.19Z"/>
    <path class="cls-1" d="m365.33,194.21s-.03.08-.06.11c-.03.03-.08.06-.15.08s-.15.04-.26.05c-.11.01-.24.02-.39.02s-.28,0-.38-.02c-.1,0-.18-.03-.23-.05-.06-.02-.09-.05-.11-.08s-.02-.07-.01-.11l1.13-5.66s.03-.08.06-.11c.03-.03.08-.06.15-.08s.15-.04.25-.05c.1,0,.23-.02.39-.02s.28,0,.38.02c.1.01.18.03.24.05.06.02.09.05.11.08.02.03.02.07.01.11l-1.13,5.66Z"/>
    <path class="cls-1" d="m371.37,188.6s0,.1-.01.16c0,.07-.02.14-.04.21s-.04.15-.06.23-.05.14-.09.21c-.03.06-.07.11-.11.15-.04.04-.08.06-.13.06h-1.24l-.53,2.66c-.01.06-.02.14-.04.22-.01.09-.02.16-.02.21,0,.17.04.29.12.37.08.08.21.12.38.12.1,0,.19,0,.26-.02.07-.02.13-.03.19-.05.05-.02.1-.04.14-.05.04-.02.07-.02.11-.02s.06.02.09.05c.02.03.03.08.03.15,0,.08,0,.17-.03.27-.02.1-.04.2-.07.29s-.06.18-.09.26-.07.14-.11.18c-.04.04-.1.07-.17.11s-.17.06-.27.09-.21.04-.33.06c-.12.02-.24.02-.36.02-.25,0-.48-.03-.67-.08s-.35-.14-.49-.25c-.13-.12-.23-.26-.3-.44s-.1-.39-.1-.65c0-.05,0-.1,0-.16,0-.06.01-.12.02-.19s.02-.14.03-.21c.01-.07.02-.13.04-.19l.55-2.76h-.69c-.06,0-.1-.02-.12-.05-.03-.04-.04-.1-.04-.21,0-.07,0-.17.02-.28.01-.12.04-.23.07-.34.03-.11.08-.21.13-.29.05-.08.12-.12.2-.12h.68l.25-1.26s.03-.08.06-.11c.03-.04.08-.06.15-.09s.15-.04.25-.05c.1-.01.23-.02.39-.02s.28,0,.38.02c.1,0,.18.03.24.05.05.02.09.05.11.09.02.03.02.07.02.11l-.25,1.26h1.22c.07,0,.12.02.15.07.03.04.04.11.04.2Z"/>
  </g>
  <g>
    <path class="cls-3" d="m216.39,161.75l1.26,3.59c.05.15.07.28.08.37,0,.09-.02.16-.08.21-.06.05-.15.08-.29.09-.14.01-.32.02-.56.02-.17,0-.31,0-.41-.01-.1,0-.18-.02-.24-.04-.06-.02-.1-.05-.12-.08s-.04-.08-.06-.13l-1-2.98-2.11,2.98c-.04.05-.08.09-.12.13s-.1.06-.17.08c-.07.02-.17.03-.29.04-.12,0-.28.01-.47.01-.22,0-.4,0-.53-.02-.13-.01-.21-.04-.25-.09s-.04-.11,0-.2c.04-.09.11-.21.22-.36l2.71-3.62-1.15-3.34c-.05-.15-.07-.27-.08-.36,0-.09.02-.16.08-.2.06-.05.15-.08.29-.09.14-.01.32-.02.56-.02.18,0,.33,0,.43.01.1,0,.18.02.24.04s.1.05.13.09c.03.04.05.09.06.14l.87,2.68,1.92-2.71c.03-.05.07-.09.11-.13s.09-.06.16-.08c.07-.02.16-.03.27-.04.11,0,.26-.01.45-.01.23,0,.41,0,.54.02.13.01.22.04.26.09s.04.12,0,.2c-.04.09-.11.21-.22.36l-2.51,3.35Z"/>
    <path class="cls-3" d="m220.36,165.76s-.03.08-.06.11c-.03.03-.08.06-.15.08s-.15.04-.26.05c-.11.01-.24.02-.39.02s-.28,0-.38-.02c-.1,0-.18-.03-.23-.05-.06-.02-.09-.05-.11-.08s-.02-.07-.01-.11l1.13-5.66s.03-.08.06-.11c.03-.03.08-.06.15-.08s.15-.04.25-.05c.1,0,.23-.02.39-.02s.28,0,.38.02c.1.01.18.03.24.05.06.02.09.05.11.08.02.03.02.07.01.11l-1.13,5.66Z"/>
    <path class="cls-3" d="m226.86,160.11s0,.08-.01.14c0,.06-.02.13-.03.2-.01.07-.03.14-.04.21-.01.07-.03.12-.04.16-.03.11-.07.21-.13.3-.05.09-.13.19-.23.3l-2.68,3.27h2.16c.06,0,.11.02.14.06.03.04.04.11.04.2,0,.03,0,.08,0,.15,0,.07-.02.14-.03.21s-.03.15-.06.23-.05.15-.08.21c-.03.06-.07.12-.11.16-.04.04-.09.06-.14.06h-3.74c-.08,0-.14-.03-.18-.07-.04-.05-.06-.12-.06-.22,0-.03,0-.08.01-.14,0-.06.02-.12.03-.18.01-.06.03-.12.04-.18s.03-.1.04-.14c.01-.05.03-.09.04-.13s.04-.09.06-.13.06-.1.1-.15.09-.12.16-.19l2.7-3.28h-1.93c-.06,0-.1-.02-.14-.06-.03-.04-.05-.12-.05-.22,0-.04,0-.1,0-.16,0-.06.02-.13.03-.21.01-.07.03-.15.06-.22s.05-.14.08-.2c.03-.06.07-.11.12-.15.04-.04.09-.06.14-.06h3.5c.09,0,.15.02.18.06.03.04.05.1.05.17Z"/>
    <path class="cls-3" d="m228.71,165.76s-.03.08-.06.11c-.03.03-.08.06-.15.08s-.15.04-.26.05c-.11.01-.24.02-.39.02s-.28,0-.38-.02c-.1,0-.18-.03-.23-.05-.06-.02-.09-.05-.11-.08s-.02-.07-.01-.11l1.13-5.66s.03-.08.06-.11c.03-.03.08-.06.15-.08s.15-.04.25-.05c.1,0,.23-.02.39-.02s.28,0,.38.02c.1.01.18.03.24.05.06.02.09.05.11.08.02.03.02.07.01.11l-1.13,5.66Z"/>
  </g>
  <g>
    <path class="cls-3" d="m197.6,326.65c.02.15.03.27.03.36,0,.09-.03.16-.09.2-.06.04-.15.07-.28.08s-.31.02-.54.02c-.16,0-.29,0-.39,0-.1,0-.18-.02-.23-.03-.05-.02-.09-.04-.11-.08-.02-.03-.03-.08-.04-.14l-.22-1.65h-3.08l-.85,1.61c-.03.06-.06.11-.1.15-.04.04-.09.07-.16.09-.07.02-.17.04-.29.04-.12,0-.27.01-.45.01-.19,0-.35,0-.45-.02-.11-.01-.18-.04-.22-.09s-.04-.12-.01-.21.08-.21.16-.36l3.99-7.29c.04-.07.08-.13.13-.17.04-.04.1-.08.18-.1s.18-.04.32-.04c.13,0,.31,0,.52,0,.25,0,.45,0,.59,0,.15,0,.26.02.34.04s.13.06.16.1c.03.05.04.11.05.19l1.07,7.28Zm-2.5-6.02h0l-1.83,3.49h2.31l-.47-3.49Z"/>
    <path class="cls-3" d="m204.83,323.19c0,.28-.03.58-.08.9s-.13.63-.23.95c-.11.31-.24.61-.41.9-.17.29-.36.54-.6.76-.23.22-.5.4-.8.53-.3.13-.63.2-1,.2s-.67-.07-.94-.21c-.27-.14-.51-.35-.71-.63l-.09.48c-.02.09-.08.15-.2.19s-.3.06-.56.06-.43-.02-.52-.06-.13-.11-.11-.19l1.67-8.35s.03-.08.06-.12c.03-.03.08-.06.15-.08.07-.02.15-.04.26-.05.1-.01.23-.02.39-.02s.28,0,.38.02c.1.01.17.03.23.05.06.02.09.05.11.08.02.03.02.07.01.12l-.45,2.27c-.02.1-.04.2-.07.31-.03.11-.05.21-.09.32-.03.11-.06.21-.1.31-.03.1-.06.19-.09.26.08-.14.19-.27.33-.41s.3-.26.49-.37c.18-.11.38-.2.59-.27.21-.07.42-.1.63-.1.24,0,.45.03.63.09s.33.14.46.25c.13.11.24.23.32.37.08.14.15.29.2.45.05.16.08.32.1.49.02.17.03.33.03.49Zm-1.64.16c0-.11,0-.22-.02-.33s-.05-.22-.1-.31c-.05-.09-.12-.17-.2-.23-.08-.06-.2-.09-.34-.09-.19,0-.38.06-.57.17s-.37.27-.54.46-.32.42-.45.68c-.13.26-.22.53-.28.83l-.18.86c.15.23.31.41.49.52s.39.17.63.17c.17,0,.33-.04.47-.12.14-.08.27-.19.39-.33.12-.14.22-.29.3-.48s.16-.37.22-.57c.06-.2.1-.41.13-.61.03-.21.04-.41.04-.6Z"/>
    <path class="cls-3" d="m206.48,327.4c-.24-.03-.44-.07-.61-.12s-.31-.1-.41-.16-.18-.11-.23-.15c-.03-.03-.06-.07-.07-.11-.01-.04-.02-.09-.02-.15,0-.04,0-.09,0-.15,0-.06.02-.12.03-.2s.03-.14.05-.22c.02-.07.04-.14.07-.2.03-.06.05-.11.08-.14s.06-.05.1-.05c.06,0,.12.03.2.08s.17.11.28.17.25.12.42.17.38.08.63.08c.17,0,.32-.02.45-.06s.24-.1.32-.17c.08-.07.15-.15.19-.25.04-.09.06-.19.06-.3,0-.15-.05-.27-.16-.36-.1-.09-.23-.18-.39-.26s-.33-.16-.51-.25c-.18-.08-.35-.19-.51-.31-.16-.12-.29-.28-.39-.46s-.16-.41-.16-.69c0-.3.06-.58.17-.84s.28-.48.5-.68c.22-.19.49-.34.8-.45.31-.11.67-.16,1.07-.16.18,0,.35.01.52.04s.32.05.45.09c.13.04.25.08.35.13.1.05.17.09.21.14.05.04.07.11.07.21,0,.05,0,.13-.02.23s-.04.2-.07.3c-.03.1-.06.19-.1.26s-.08.11-.14.11c-.06,0-.12-.02-.19-.06s-.16-.08-.27-.13-.23-.09-.37-.13-.31-.06-.5-.06c-.15,0-.28.02-.4.06s-.21.09-.29.16-.13.14-.17.23c-.04.09-.06.18-.06.29,0,.13.05.24.16.33.11.09.24.17.4.25.16.08.33.16.52.24.19.08.36.19.52.32.16.13.29.28.4.46.11.18.16.41.16.69,0,.32-.06.62-.19.9s-.33.53-.61.75c-.28.22-.65.38-1.11.49l.1.36c.03.11.05.21.06.3.02.09.03.19.03.28,0,.23-.04.43-.11.59s-.18.3-.31.41c-.13.11-.3.19-.49.24-.19.05-.4.08-.63.08-.12,0-.24,0-.35-.01-.12,0-.22-.02-.32-.04-.1-.02-.19-.04-.26-.06s-.14-.04-.18-.07c-.05-.03-.08-.05-.1-.08-.02-.03-.03-.07-.03-.12,0-.04,0-.1.02-.18s.03-.15.05-.23.06-.14.1-.2c.04-.06.1-.08.17-.08h.72c.06,0,.12,0,.17-.02s.1-.04.14-.06.07-.06.1-.11.03-.1.03-.16c0-.04,0-.09,0-.15,0-.05-.02-.11-.03-.17l-.11-.44Z"/>
    <path class="cls-3" d="m216.4,322.64c0,.3-.07.58-.21.82s-.35.45-.64.63-.66.31-1.1.4-.98.14-1.6.14h-.58c-.02.1-.03.19-.04.29,0,.09-.01.18-.01.26,0,.34.09.6.27.77.18.17.46.26.86.26.28,0,.53-.02.75-.06.22-.04.42-.08.58-.13s.31-.09.42-.13c.11-.04.19-.06.24-.06s.09.02.11.04.03.08.03.14c0,.07,0,.15-.02.25-.01.09-.03.19-.05.28s-.05.18-.09.26c-.04.08-.08.14-.12.18-.05.05-.14.1-.28.15s-.3.1-.49.14c-.19.04-.4.08-.64.1s-.48.04-.72.04c-.41,0-.76-.04-1.06-.13-.3-.08-.55-.21-.76-.39s-.36-.39-.46-.66-.15-.59-.15-.96c0-.28.03-.59.08-.91.05-.32.14-.64.26-.96s.27-.62.46-.9.41-.54.68-.76.57-.39.92-.52c.35-.13.74-.2,1.19-.2.38,0,.72.05.99.14s.5.21.68.36.31.32.4.51.13.39.13.59Zm-1.57.12c0-.17-.07-.31-.2-.42-.13-.11-.33-.17-.58-.17-.21,0-.4.04-.57.11s-.31.18-.44.31-.24.28-.33.46-.16.36-.22.56h.53c.34,0,.62-.02.85-.07.23-.04.41-.1.55-.18.14-.08.24-.17.3-.27.06-.1.09-.21.09-.33Z"/>
    <path class="cls-3" d="m221.58,321.31s0,.08-.01.16-.02.17-.04.27-.04.21-.06.31c-.03.11-.05.21-.09.3-.03.09-.07.17-.11.23s-.08.09-.13.09c-.04,0-.08,0-.12-.02-.04-.01-.08-.03-.13-.04-.05-.01-.1-.03-.15-.04-.05-.01-.12-.02-.19-.02-.14,0-.3.06-.46.17-.16.11-.32.25-.47.43-.15.18-.28.39-.4.63s-.2.49-.25.75l-.51,2.55s-.03.08-.06.11c-.03.03-.08.06-.15.08s-.15.04-.26.05-.24.02-.39.02-.28,0-.38-.02-.18-.03-.23-.05c-.06-.02-.09-.05-.11-.08-.02-.03-.02-.07-.01-.11l1.13-5.67s.03-.08.06-.11c.03-.03.07-.06.13-.08.06-.02.13-.03.22-.04s.2-.02.33-.02.24,0,.32.02c.08.01.15.03.19.04.05.02.08.04.09.08.01.03.02.07,0,.11l-.18.9c.1-.18.22-.35.35-.5.13-.15.28-.28.43-.4s.31-.2.47-.26c.16-.06.32-.1.48-.1.06,0,.13,0,.19.01.07,0,.13.02.18.03.06.01.11.03.15.05.04.02.08.04.1.06.03.03.04.07.04.12Z"/>
    <path class="cls-3" d="m227.71,323.3c0,.3-.03.62-.09.94-.06.32-.15.64-.27.94s-.28.59-.47.86-.42.51-.69.71-.58.37-.92.49c-.35.12-.74.18-1.17.18s-.8-.05-1.11-.15c-.31-.1-.57-.25-.78-.44-.21-.19-.36-.43-.46-.71s-.15-.6-.15-.97c0-.3.03-.62.09-.94.06-.32.15-.63.27-.94s.28-.59.47-.87c.19-.27.42-.51.69-.71s.58-.36.92-.48c.35-.12.74-.18,1.17-.18s.8.05,1.11.15c.31.1.57.25.78.44.21.19.36.43.46.71s.15.6.15.97Zm-1.65.11c0-.18-.02-.34-.05-.47s-.1-.25-.18-.35c-.08-.1-.19-.17-.32-.22s-.29-.08-.47-.08c-.21,0-.4.04-.57.12-.17.08-.32.19-.45.33-.13.14-.25.3-.35.49-.1.18-.18.38-.24.58-.06.2-.11.41-.14.62-.03.21-.04.41-.04.6,0,.18.02.34.05.48s.1.26.18.35c.08.09.19.17.32.22s.29.08.47.08c.21,0,.4-.04.57-.12.17-.08.32-.19.45-.34.13-.14.25-.3.35-.49.1-.18.18-.38.24-.58.06-.21.11-.41.14-.62.03-.21.04-.41.04-.6Z"/>
    <path class="cls-3" d="m234.41,322.66c0,.15,0,.3-.03.45-.02.15-.04.3-.07.46l-.71,3.5s-.03.08-.06.11-.08.06-.15.08-.15.04-.25.05-.23.02-.39.02-.28,0-.38-.02-.18-.03-.23-.05c-.05-.02-.09-.05-.11-.08-.02-.03-.02-.07-.02-.11l.69-3.4c.02-.1.04-.21.05-.31s.02-.2.02-.28c0-.19-.04-.35-.12-.47s-.22-.18-.41-.18c-.17,0-.35.05-.54.16-.19.11-.37.26-.53.45s-.32.41-.45.66-.22.52-.28.8l-.51,2.56s-.03.08-.06.11c-.03.03-.08.06-.15.08s-.15.04-.26.05-.24.02-.39.02-.28,0-.38-.02-.18-.03-.23-.05c-.06-.02-.09-.05-.11-.08-.02-.03-.02-.07-.01-.11l1.14-5.67s.03-.08.05-.11c.03-.03.07-.06.13-.08.06-.02.13-.03.22-.04s.2-.02.33-.02.24,0,.32.02c.08.01.15.03.19.04.05.02.08.04.09.08.01.03.02.07,0,.11l-.18.93c.09-.15.21-.3.36-.45s.32-.29.51-.42c.19-.12.4-.22.63-.3s.46-.12.71-.12c.3,0,.54.04.75.13s.36.2.49.35c.12.15.21.32.27.52.05.2.08.41.08.62Z"/>
  </g>
</svg>