<?xml version="1.0" encoding="UTF-8"?>
<svg id="Layer_1" data-name="Layer 1" xmlns="http://www.w3.org/2000/svg" viewBox="0 0 500 500">
  <defs>
    <style>
      .cls-1 {
        fill: #0b7b5f;
        stroke: #fff;
        stroke-miterlimit: 10;
      }

      .cls-2 {
        fill: #f9e5af;
      }
    </style>
  </defs>
  <path class="cls-1" d="m400.1,222.5c-.24-1.5-.04-3.03-.08-4.54-.04-1.29-.34-2.15-.77-3.33-.67-1.86-.21-3.83-.39-5.75-.13-1.39-.51-2.84-.82-4.21-.36-1.6-.02-3.28-.47-4.85-.21-.72-.69-1.07-.96-1.69-.29-.67-.19-1.42-.08-2.11.16-1.04.34-2.27.94-3.16.58-.86,1.03-1.09,1.06-2.08.05-1.76-.57-3.46-.69-5.21-.11-1.68.31-3.7-.31-5.27-.28-.72-.54-.99-1.03-1.59-.62-.77-1.09-1.69-1.27-2.68-.18-1-.4-2.14-.45-3.16-.1-1.94.27-3.52-.99-5.15-.67-.86-1.65-1.79-2.15-2.76-.38-.74,0-1.42.18-2.25.18-.83.46-1.61.12-2.39-.35-.81-1.21-1.18-1.62-1.95-.74-1.37-.32-2.97-1.8-3.99-.8-.55-1.94-.86-2.85-1.12-1.76-.5-3.43-1.12-4.99-2.08-1.46-.9-1.68-1.98-2.67-3.29-.96-1.26-2.41-1.78-3.55-2.85-.64-.6-.89-1.11-1.73-1.39-.74-.25-1.58-.09-2.33-.36-1.66-.6-1.89-2.51-2.59-3.91-.65-1.3-1.5-2.21-1.83-3.67-.36-1.56-.04-3.08-.23-4.63-.11-.89-.21-2.46-.67-3.25-.45-.79-1.45-1.33-2.01-2.08-.37-.5-.76-.92-.96-1.53-.12-.37-.04-1.09-.36-1.36-.64-.55-2.24.01-3.02-.35-.77-.35-1.21-1.01-2.07-1.23-.97-.25-2.41-.07-3.43.05-1.7.2-2.48.38-4.2-.04-.77-.19-1.55-.36-2.19-.84-.41-.31-.79-.9-1.18-1.23-1.44-1.22-3.38-1.57-4.75-2.86-.66-.62-1.15-1.43-1.85-2.02-.49-.42-1.07-.72-1.48-1.24-.41-.53-.65-1.27-1.18-1.73-.78-.67-1.98-.88-2.94-1.17-2.36-.71-4.42-1.87-6.71-2.75-1.13-.44-2.95-.49-3.79-1.44-.01-.6.55-1.47.66-2.1.21-1.13.48-1.8,1.13-2.74,1.03-1.49,2.52-4.38.8-5.87-.76-.65-1.83-.71-2.58-1.35-.37-.31-.77-.92-1.03-1.33-.59-.94,0-3.38-1.35-3.33-.45.02-1.58.61-2.05.84-1.35.66-2.87,1.49-4.03,2.45-.96.79-1.15,1.26-2.38,1.46-1.28.21-3.15.34-4.43.09-1.54-.29-1.35-1.58-1.39-2.92-.07-2.03-2.77-.97-4.05-.98-1.42,0-.99-.24-1.9-.62-1.48-.61-3.46.61-5.12.36-.49.04-.88-.11-1.19-.44-.05-.07-.1-.15-.16-.22-2.3-.4-5.09,1.52-6.96,2.65-2.09,1.26-3.99,2.76-6.23,3.73-1.49.64-4.6,2.32-6.35,1.86-.69-.18-.65-.41-1.21-.76-1.77-1.11-4.8.09-6.59.34-1.5.21-2.38-.02-3.8-.07-1.34-.04-2.83.35-4.14.51-1.33.16-2.24.13-3.52.05-1.59-.09-3.25.31-4.81.51-2.6.33-4.12-1.34-6.25-2.57-1.28-.73-2.96-1.91-4.44-2.21-.96-.19-1.7-.49-2.52,0-1.27.77-3.44,1.77-4.83.79-.8-.56-1.16-1.29-2.16-1.65-.52-.19-1.03-.28-1.58-.26-1.15.03-2.3.54-3.41.84-.4.11-.72.22-1,.3-.19.97-.39,2.14-.75,2.79-1.03,1.9-1.76,4.34-3.71,5.64.3.42.35.49.97,1.3.92,1.19,1.44,2.97,1.57,4.4.12,1.32,1.95,2.72,3.17,3.17,1.41.52,2.68-.61,3.9-1.13,1.51-.65,2.38-1.58,3.49-2.79.61-.67,1.37-1.23,2.11-1.79.73-.55,1.18-.29,2.03-.48,1.28-.28,1.33-.44,2.42.42.7.55,1.62,1.28,2.41,1.68.75.37,1.24.44,2.03.52.53.05.99.35,1.52.41.6.07,1.27-.16,1.87-.04,1.7.35,3.8,1.37,5.19,2.34,1.54,1.08,3.52,1.9,5.29,2.6.83.33,1.95.52,2.68,1.02.61.42,1.01.86,1.7,1.21,1.54.78,3.34.82,4.55,2.05.38.39.77.89,1.21,1.21.57.42,1.19.42,1.82.78,1.71,1,2.39,2.3.76,3.89-1.03,1.01-1.93,2.27-3.31,2.79-1.7.64-3.05-.33-4.73-.41-1.88-.09-3.72.38-5.61.4-1.75.01-3.36-.62-5.1-.21-2.02.48-4.1.76-5.98,1.69-1.38.68-2.79,1.5-4.26,1.91-1.3.36-2.56.69-3.84,1.08-1.47.45-2.55.51-4.11.37-4.03-.35-7.76-1.34-11.65-2.31-1.97-.49-3.79-1.63-5.74-2.1-1.32-.32-2.24.33-3.45.61-1.85.42-4.34-.13-6.16-.49-1.73-.34-3.08.06-4.76.54-3.19.93-6.53,1.8-9.79,2.41-2.6.49-5.29.9-7.91.32-.97-.22-1.69-.48-2.67-.31-.75.13-1.52.2-2.25.41-1.06.3-2.07.78-3.14,1.07-.87.24-1.79.4-2.61.8-.66.32-1.13.82-1.7,1.27-.76.61-1.63,1.1-2.41,1.68-.63.46-1.45.88-1.66,1.65-.23.85,0,2.1,0,2.99,0,.71.17,1.68-.19,2.24-.28.44-1.31.83-1.77,1.12-.69.45-1.14.63-1.94.78-1.59.3-3.21.49-4.74,1.05-2.25.83-4.48,1.88-6.83,2.42-1.65.38-3.51.18-4.88,1.37-1.44,1.24-2.97,2.6-4.21,4.06-.96,1.13-2.05,2.93-2.23,4.41-.21,1.76-1.1,3.19-1.11,4.95,0,1.4-.83,3.04-.32,4.42.19.53.72,1.1,1.09,1.51,1.18,1.31,2.4,2.31,3.07,4,.58,1.47.81,2.91,1.08,4.45.23,1.28.74,2.48.95,3.77.5,3,.82,6.2.83,9.24,0,1.9-.5,3.43-1.87,4.81-1.97,1.98-2.13,3.88-1.49,6.48.37,1.5.36,2.64,0,4.14-.36,1.51-.51,3.04-.95,4.53-.6,2.06-1,4.35-1.22,6.5-.15,1.37.12,2.79-.07,4.14-.17,1.25-.85,1.9-1.66,2.82-.79.9-1.51,1.98-2.43,2.75-.91.76-2.04.97-3.06,1.54-1.32.74-2.44,1.71-3.82,2.35-.75.35-1.58.58-2.23,1.11-.67.54-.88,1.24-1.1,2.05-.27,1-.66,2.17-.76,3.19-.14,1.45.74,3.19.89,4.67.25,2.49-.67,4.37-1.82,6.52-.5.94-1.19,1.81-1.63,2.76-.33.71-.48,1.5-.76,2.24-.67,1.74-1.5,3.54-2.56,5.07-.69,1-1.73,1.79-2.31,2.87-.36.67-.51,1.44-.79,2.15-.58,1.45-1.95,2.88-2.08,4.44-.17,1.98,1.31,3.85,1.73,5.74.57,2.59.49,5.92-.81,8.28-1.11,2.01-2.4,3.92-3.69,5.82-.98,1.44-2.38,2.3-3.12,3.91-.4.87-.63,1.76-1.09,2.61-.67,1.23-1.52,2.45-2.02,3.76-.49,1.32-.25,2.96-.25,4.35.01,1.88-.33,3.28-1.02,5.01-.26.66-.33,1.24-.82,1.8-.42.48-1.01.78-1.5,1.17-.02.02-.05.04-.07.05.21.12.38.3.44.61-.07-.31-.23-.49-.44-.61-1.01.78-1.8,1.22-1.79,2.47.1.02-.54.79-.43.81.2,1.42.75,2.2,2.01,2.82.51.25,1.04.41,1.5.73.63.45.77,1.23,1.12,1.88.62,1.17,1.02,2.48,1.01,3.8-.01,1.53-.18,3.11.38,4.45.12.29.09.54.25.84.19.36.52.73.77,1.05.34.42.78.75,1.11,1.17.43.55.97,1.68,1.14,2.33.24.95.45,1.84.72,2.79.5,1.72.84,3.42,1.3,5.14.22.82.2,1.98.65,2.71.33.55,1.06,1.25,1.59,1.74.87.81,2.49,1.36,2.9,2.68.19.6-.02,1.61-.02,2.25,0,.37,0,.74,0,1.11,0,.55.2.78.29,1.18.42,1.89-.23,3.75-.3,5.61-.05,1.43-.14,2.99-.15,4.51.17.09.33.18.49.24-.15-.07-.32-.15-.49-.24,0,.97.03,1.93.13,2.84.13,1.18.44,2.14.39,3.37-.03.78-.2,1.46-.36,2.21-.27,1.27-1,2.45-1.15,3.73-.2,1.61.04,3.4.03,5.02-.02,2.74.63,5.33,1.03,8,.15.98.41,1.99.46,2.96.08,1.42,0,2.87,0,4.29,0,2.67.01,5.33,0,8,0,1.38.36,2.65.38,4.02.02.89-.01,1.78,0,2.67,0,.36.05.77,0,1.12-.07.52-.29.63-.4,1.09-.09.35-.09.78-.06,1.21.68-.58,1.47-1,2.47-1.34,2.92-1,5.97-1.28,8.85-2.36,1.02-.38,2.9-.59,3.6-1.55.3-.42.4-1.44.45-1.94.24-2.47-1.54-4.58-2.24-6.87-.46-1.51-.98-2.79-1.86-4.11-.74-1.12-.23-1.92,0-3.22.31-1.3.31-2.6.02-3.9-.32-.67-.53-1.37-.63-2.1-.15-1.39-.06-2.89-.15-4.3-.14-2.34-.32-4.74-.74-7.05-.1-.53-.95-2.71-.75-3.41.15-.54,1.5-1.64,1.87-2.03.63-.66,1.25-1.33,1.85-2.02,1.71-1.94,2.44-4.19,2.94-6.73.38-1.13.39-2.24.04-3.36-.09-.33-.18-.66-.26-.99.1-.67.94-1.14,1.29-1.69.96-1.48.64-.78,2.26-.77.75,0,1.57-.35,2.24-.6,1.54-.59,2.89-1.68,3.34-3.38.17-.65.1-1.58,0-2.22-.02-.64-.28-1.15-.77-1.52-.19-.09-.39-.18-.58-.27-.85-.93-1-2.17-1.58-3.28-.32-.6-1.14-1.35-1.09-2.07.2-.4.45-.76.75-1.09.36-.46.47-.98.33-1.56-.16-1.28-1.06-2.38-1.52-3.55-.75-1.86-.3-4.12-.03-6.03.39-2.75-.76-5.51-.42-8.3.27-2.21.65-3.05,2.27-4.62,1.87-1.81,3.3-4.12,5.37-5.7,1.56-1.19,3.54-1.29,5.22-2.16,2.41-1.24,4.28-3.42,2.44-5.96-.46-.26-.82-.63-1.07-1.1-.24-.49-.46-.98-.69-1.48-.58-1.25-1.22-2.11-2.21-3.06-.63-.61-1.01-1.3-1.61-1.91-.65-.66-1.5-1.12-2.19-1.75-2.61-2.41-3.18-5.71-4.82-8.64-.69-1.23-.61-2.19-.82-3.56-.18-1.15-.38-1.97-.2-3.16.16-1.13.57-1.85-.13-2.83-.46-.64-1.15-.65-1.49-1.49-.58-1.41.02-2.85,1.06-3.75,1.08-.93,1.79-2.18,2.99-2.91,1.75-1.07,3.2-2.88,4.48-4.53.44-.57.74-1.25,1.12-1.85.61-.97.41-.73,1.16-.51,1.35.4,2.78.5,4.13.95.74.25,1.15.58,1.94.44.71-.13,1.42-.77,1.81-1.34.57-.83.75-1.91,1.09-2.84.23-.64.58-.93.34-1.66-.4-1.23-2.3-1.58-3.26-2.14-1.08-.63-1.22-1.22-1.1-2.48.13-1.28.43-2.57.67-3.83,0,.09,0,.17,0,.26.11-1.49-.58-2.82-.61-4.28-.03-1.17.4-3.25,1.08-4.23.86-1.25,2.39-1.6,3.65-2.23,2.16-1.09,3.44-3.16,4.41-5.28.63-1.37,1.29-3.73,3.11-3.95,1.75-.21,3.27,1.41,5.11,1.14,1.4-.21,2.75-.85,4.09-1.29,1.61-.53,3.03-1.12,4.44-2.06,2.2-1.47,4.69-2.52,6.82-4.09,1.91-1.41,3.94-2.54,6.02-3.69,2.46-1.37,5.02-1.74,7.64-2.61,5.01-1.66,7.54-5.93,11.25-9.35,1.05-.97,2.5-2.65,3.97-3.11,1.23-.38,1.69.84,2.36,1.65,1.49,1.77,2.67,1.7,4.73.93,3.03-1.12,5.51-3.17,8.2-4.88.84-.53,2.64-1.73,3.74-1.98.73-.17,1.46,0,2.19-.26,1.2-.4,2.11-1.44,3.23-2.01,1.06-.54,2.45-.94,3.67-.81,1.9.21,2.53,2.16,3.2,3.75-.38-1.58,1.66-3.01,3.03-3.27,1.28-.24,1.83.28,2.91-.83,1.23-1.28,1.67-2.95,2.06-4.63.24-1.05.18-2.38.54-3.35.42-1.12.96-1.29,2.08-1.65,1.52-.48,2.44-.96,3.43-2.28.86-1.14.93-2.51,1.7-3.61.74-1.06,2.4-1.49,3.47-2.08,1.23-.67,2.5-1.26,3.63-2.09,1.37-1.01,2.65-3.43,4.62-2.92,2.48.65,4.42,3.28,6.52,4.62,1.08.69,2.07,1.58,3.25,2.03.78.29,1.85.16,2.5.78.77.74.45,1.69.75,2.56.17.5.28.43.82.75.86.51,1.17.75,2.16.75.41,0,.78.05,1.18-.05.71-.17,1.22-.86,1.91-1.02,1.17-.27,2.67,1.58,3.66,2.21,1.34.85,2.12,1.13,3.69,1.09,1.37-.04,1.7-.78,2.96-1.47,1.04-.57,2.11-.65,3.2-1.02.85-.29,1.6-.79,2.38-1.23,1.13-.63,1.87-1.26,2.54-2.45.75-1.33.7-2.64,1.3-3.96,2.17-.03,3.12,2.75,5.07,3.36.92.29,2.09.05,3.01-.04.68-.06,1.55.23,2.17.03,1.45-.47,2.25-2.65,3.39-3.59.53-.34,1.04-.72,1.5-1.15.43-.48.8-1,1.11-1.57,1.04-1.1,3.01-.58,4.26-.43,1.99.22,3.4.43,5.15,1.32,3.5,1.79,7.59,1.43,10.99,3.53,2.22,1.37,3.89,6.07,7.04,5,.99-.34,1.69-.81,2.75-.83,1-.01,1.93.3,2.91.41,2.83.32,5.6.85,8.3,1.88,1.67.64,3.09,1.35,4.35,2.64,1.26,1.29,2.26,2.49,3.87,3.36,1.59.85,2.58,1.93,3.95,3.03.71.56,1.34,1.02,1.93,1.72.87,1.04,1.98,1.86,2.83,2.9.7.86.79,1.84,2.02,2,1.02.13,2.55-.54,3.27.35.3.98.45,1.99.43,3.03.09,1.63.34,3.23.75,4.8.48,1.96,1.03,3.76,1.07,5.79.03,1.67-.02,3.35-.04,5.02-.02,2.1.32,3.95.66,6.01.5,3.01,1.41,5.71,2.7,8.48,1.01,2.17,2.46,3.85,2.97,6.27-.1-1.46.48-2.84.39-4.28-.06-1-.46-1.45-.23-2.45.46-1.98.61-3.85.3-5.85Zm-182.37-60.22c-1.1.48-2.31.85-3.36,1.47-1.81,1.06-3,2.79-5.21,2.9-.58.03-1.17-.03-1.75-.02-1.05.02-1.4.31-2.33.77-1.14.57-2.74.79-4,.73-1.42-.06-2.6-.72-4.02-.75-.94-.02-2.59-.17-3.16-.9-.93-1.21-.29-3.49-.07-4.79.2-1.18.08-2.44.08-3.63,0-.94.14-1.44-.47-2.12-.22-.25-.49-.62-.72-.84-.41-.38-.92-.46-1.33-.82-1.12-.98-2.25-2.96-2.6-4.39-.23-.93-.07-2.01-.08-2.97-.01-1.05.5-1.74-.12-1.58-.09.04-.17.07-.25.09.1-.04.18-.07.25-.09.57-.27,1.23-1.01,1.69-1.31,1.1-.71,1.6-.47,2.6.19,1.58,1.04,3.84.34,5.4-.37.94-.43,1.61-.66,2.7-.65.87,0,1.74,0,2.6,0,.45,0,1.08.12,1.51.02.45-.11.58-.33,1.09-.4,1.04-.15,1.35.13,2.05.75.67.6,1.28.86,2.05,1.12,1.01.34,1.52.44,2.15,1.49.57.94.62,2.02,1.09,2.97.54,1.1,1.17,2.14,1.69,3.25.5,1.05,1.09,1.75,1.66,2.72.21.36.59.53.78.82.28.43.41.95.73,1.42.55.79.75,1.69,1.11,2.59.22.54.91,1.51.87,2.08-.62-.73-1.99-.03-2.64.25Z"/>
  <g>
    <path class="cls-2" d="m251.59,146.93c0,.25-.04.49-.11.71-.07.22-.17.42-.3.61-.13.18-.29.35-.48.49-.19.14-.4.25-.63.34.19.03.36.09.51.18.16.08.29.19.4.32.11.13.2.29.26.47.06.18.09.38.09.61,0,.2-.03.41-.08.63-.05.22-.14.43-.26.64-.12.21-.27.41-.46.59-.19.19-.42.35-.69.5-.27.14-.58.25-.93.34-.35.08-.76.12-1.22.12h-2.28c-.17,0-.3-.04-.38-.13-.08-.08-.1-.22-.06-.4l1.43-7.16c.04-.19.11-.32.23-.4.12-.08.25-.12.4-.12h1.97c.44,0,.81.03,1.13.1.32.07.58.17.8.31.21.14.38.31.49.52.11.21.17.46.17.75Zm-2,3.8c0-.27-.1-.48-.3-.64-.2-.16-.52-.24-.96-.24h-1.11l-.46,2.34h1.18c.3,0,.55-.04.76-.13.21-.08.38-.19.51-.33.13-.13.23-.29.29-.47.06-.18.1-.35.1-.54Zm.28-3.49c0-.12-.02-.22-.06-.31-.04-.09-.11-.17-.19-.23-.09-.06-.19-.11-.32-.15-.13-.03-.29-.05-.49-.05h-.91l-.43,2.13h.94c.28,0,.5-.04.69-.13s.33-.2.45-.34c.12-.14.2-.29.25-.45s.08-.32.08-.48Z"/>
    <path class="cls-2" d="m257.36,153.25c-.02.09-.08.15-.2.19-.12.04-.3.06-.56.06-.13,0-.24,0-.32-.01-.08,0-.15-.02-.2-.04-.05-.02-.08-.04-.1-.08-.02-.03-.02-.07,0-.12l.18-.91c-.06.13-.16.28-.3.43-.14.15-.3.29-.49.41-.19.12-.4.22-.63.3-.23.08-.47.12-.71.12-.34,0-.62-.06-.85-.18-.22-.12-.4-.28-.54-.48-.13-.2-.23-.43-.29-.69-.06-.26-.09-.53-.09-.81,0-.27.03-.56.08-.87.05-.32.13-.63.24-.94.11-.31.24-.61.41-.9.16-.29.36-.55.59-.77.23-.22.5-.4.79-.54.3-.13.63-.2,1.01-.2.35,0,.66.07.93.22.27.15.51.36.71.64l.1-.5c.02-.09.08-.15.2-.19.12-.04.3-.06.56-.06.13,0,.23,0,.32.02.09.01.15.03.2.04.05.02.08.04.1.08.02.03.02.07.01.11l-1.14,5.67Zm-.79-3.97c-.15-.23-.31-.41-.49-.52s-.39-.17-.62-.17c-.18,0-.34.04-.49.13-.15.08-.28.2-.39.34-.11.14-.21.31-.3.49-.09.19-.16.38-.22.58-.06.2-.1.4-.13.61-.03.21-.04.39-.04.57,0,.13,0,.25.03.36.02.11.05.22.1.3s.12.16.2.21c.09.05.19.08.32.08.19,0,.38-.06.57-.17.19-.11.38-.26.54-.46.17-.19.32-.42.45-.67.13-.26.22-.53.28-.82l.18-.86Z"/>
    <path class="cls-2" d="m265.15,147.56c0,.07-.03.15-.09.24-.06.09-.15.21-.28.35l-2,1.88,1.3,2.73c.04.1.07.19.09.27.02.08.03.14.03.18,0,.05-.01.1-.04.13s-.07.07-.14.09c-.07.03-.15.04-.27.05-.11,0-.25.02-.42.02s-.3,0-.41-.01c-.1,0-.19-.02-.24-.04-.06-.02-.1-.05-.13-.08-.03-.03-.05-.08-.06-.13l-1.34-2.98-.6,3s-.04.08-.07.11c-.03.03-.08.06-.15.08-.06.02-.15.04-.26.05-.11,0-.23.02-.39.02s-.28,0-.38-.02c-.1-.01-.18-.03-.23-.04-.05-.02-.09-.04-.11-.08-.02-.03-.02-.07-.02-.11l1.68-8.35s.03-.08.06-.11c.03-.03.08-.06.15-.08.07-.02.15-.04.26-.05s.23-.02.39-.02.29,0,.38.02.18.03.23.05c.05.02.09.05.11.08.02.03.02.07.01.11l-.99,4.97,2.12-2.27c.04-.05.09-.09.14-.13s.11-.06.19-.09c.08-.02.17-.04.28-.04.11,0,.24-.01.4-.01s.29,0,.39.01c.11,0,.19.02.25.04.06.02.1.04.12.07.02.03.04.06.04.1Z"/>
    <path class="cls-2" d="m266.8,153.25s-.03.08-.06.11c-.03.03-.08.06-.15.08-.07.02-.15.04-.26.05-.11,0-.23.02-.39.02s-.29,0-.38-.02c-.1-.01-.18-.03-.23-.05-.06-.02-.09-.05-.11-.08-.02-.03-.02-.07-.01-.11l1.13-5.66s.03-.08.06-.11c.03-.03.08-.06.15-.08.06-.02.15-.04.25-.05s.23-.02.39-.02.28,0,.38.02.18.03.24.05c.06.02.09.05.11.08.02.03.02.07.01.11l-1.13,5.66Z"/>
  </g>
</svg>