<?xml version="1.0" encoding="UTF-8"?>
<svg xmlns="http://www.w3.org/2000/svg" version="1.1" viewBox="0 0 841.89 595.28">
  <defs>
    <style>
      .cls-1 {
        fill: #749792;
      }
    </style>
  </defs>
  <!-- Generator: Adobe Illustrator 28.6.0, SVG Export Plug-In . SVG Version: 1.2.0 Build 709)  -->
  <g>
    <g id="Layer_1">
      <path id="Path_2091" class="cls-1" d="M422.13,81.05c-12.81,4.14-26.06,6.75-39.49,7.77-16.64,1.11-18.42,1.55-19.53,6.21-.69,3.06-.84,6.21-.45,9.32.89,4.21,4,4.44,25.74,1.55,9.99-1.33,12.43-.89,16.64,3.1,2.66,2.66,8.66,4.88,13.54,5.32,10.65.89,16.42,7.55,11.76,13.76-4,5.32-32.84,7.99-38.39,3.33-3.1-2.44-3.99-2.22-6.66,1.33-1.87,2.6-2.95,5.68-3.11,8.88,0,7.55-4.88,11.98-14.42,13.31-7.32,1.33-10.43.45-17.31-4.21-9.1-6.21-14.2-6.88-25.52-3.77-4.49,1.33-9.27,1.33-13.76,0-8.87-3.1-14.87.45-17.97,11.1-1.55,5.55-4.66,9.54-7.99,11.09-7.32,3.33-9.1,3.11-15.53-1.99-12.87-9.99-17.08-.89-8.88,19.08,7.32,17.75,9.76,43.49,4.88,51.26-2.89,4.21-3.33,8.21-2.22,16.2,1.33,9.09.67,11.54-3.1,15.31-2.76,2.69-6.37,4.34-10.21,4.66-8.2,0-11.54,8.43-7.99,20.19,2.89,9.54,3.11,8.43-7.54,23.3-2.66,3.55-2.89,5.99-1.11,10.65,4.66,12.65,2.89,22.63-6.66,33.5-12.65,14.65-13.09,29.29-1.33,52.14,10.65,20.86,12.65,33.28,11.98,79.21-.45,28.84,0,41.05,2,43.04,2,2,5.1.22,14.2-8.43l11.32-10.87-4.66-9.32c-3.38-7.29-6.13-14.86-8.21-22.63-4.21-16.42-1.55-28.85,8.66-39.49,5.99-6.21,6.66-7.77,4.22-11.54-1.33-2.26-2.24-4.74-2.66-7.32,0-1.55-2.89-5.77-6.66-9.32-11.54-10.87-7.1-22.63,13.31-36.6,7.32-4.88,13.31-9.99,13.31-10.87,0-1.11-2.44-3.55-5.55-5.55-7.54-4.88-15.53-21.3-13.76-28.18,1.57-4.41,3.58-8.64,5.99-12.65,3.55-5.99,5.77-7.1,12.65-7.1h8.21l-7.1-6.43c-5.32-4.88-7.1-8.43-7.1-13.97,0-8.66,1.11-10.43,9.98-15.98,3.53-2.3,6.74-5.06,9.54-8.21,1.55-2.22,7.1-5.1,12.2-6.66,5.1-1.33,11.54-4.44,13.97-6.66,2.87-2.69,6.73-4.06,10.65-3.77,4.66.45,7.32-1.33,14.2-10.43,6.66-8.88,10.2-11.54,18.19-13.54,6.22-1.62,12.19-4.09,17.75-7.32,4.21-2.44,10.21-4.66,13.31-4.66,2.76.04,5.5-.57,7.99-1.78,2.44-1.55,4.88-11.32,5.99-22.41.45-5.99,5.77-8.66,16.86-8.88,5.55-.22,9.54,1.78,15.98,7.55,9.99,8.88,17.97,9.98,26.4,3.33,3.78-2.68,8.24-4.22,12.87-4.44,5.25-.45,10.37-1.88,15.09-4.21,8.43-4.66,13.76-3.77,23.74,3.1,2.89,2,9.76,3.33,16.42,3.33,8.88,0,14.87,1.78,24.41,6.66,6.88,3.55,14.64,6.66,17.31,6.66,7.55,0,11.54,6.21,17.09,27.29,2.89,10.87,6.21,19.52,7.32,19.52,4.44,0,3.55-7.54-2-20.41-5.99-12.87-5.99-13.09-2.44-26.63l3.55-13.54-9.32-13.76c-5.32-7.32-11.54-15.09-14.2-16.86-2.44-1.78-9.76-8.21-16.2-14.2-11.1-10.43-11.76-11.54-10.43-19.31,1.33-7.1.67-8.66-3.55-10.87-2.89-1.78-8.66-2.22-14.64-1.33-5.68.94-11.5.33-16.86-1.78-6.88-2.89-23.08-19.74-30.62-32.17-3.11-5.11-4.88-5.55-17.75-5.77-7.77-.22-16.64-.89-19.74-1.78-3.56-.9-13.1,1.1-26.63,5.54ZM373.54,166.92c6.88,6.88,8.66,10.2,8.66,16.64,0,9.54-6.44,17.09-12.87,15.31-3.85-.24-7.7.6-11.1,2.44-9.32,4.88-17.53,4.44-20.41-.67-2.66-5.32-2.89-15.09-.22-16.86,1.11-.67,3.77-5.99,5.77-11.98,3.77-11.76,5.32-13.09,15.31-13.31,4.43-.23,8.64,2.21,14.86,8.43Z"/>
    </g>
  </g>
</svg>