<?xml version="1.0" encoding="utf-8"?>
<!-- Generator: Adobe Illustrator 27.1.1, SVG Export Plug-In . SVG Version: 6.00 Build 0)  -->
<svg version="1.1" id="Layer_1" xmlns="http://www.w3.org/2000/svg" xmlns:xlink="http://www.w3.org/1999/xlink" x="0px" y="0px"
	 viewBox="0 0 750 750" style="enable-background:new 0 0 750 750;" xml:space="preserve">
<g>
	<path class="st0" d="M686.65,317.89c-0.49-3.11-0.07-6.3-0.16-9.43c-0.08-2.68-0.71-4.47-1.59-6.92
		c-1.39-3.86-0.44-7.95-0.81-11.93c-0.27-2.9-1.05-5.9-1.7-8.74c-0.76-3.33-0.04-6.8-0.98-10.06c-0.43-1.49-1.43-2.22-2-3.51
		c-0.6-1.38-0.39-2.95-0.17-4.38c0.33-2.17,0.71-4.71,1.96-6.55c1.21-1.78,2.13-2.26,2.2-4.33c0.11-3.65-1.19-7.19-1.43-10.82
		c-0.23-3.49,0.65-7.67-0.63-10.94c-0.59-1.5-1.13-2.05-2.14-3.31c-1.29-1.6-2.27-3.5-2.64-5.57c-0.38-2.08-0.83-4.45-0.93-6.55
		c-0.21-4.03,0.57-7.32-2.06-10.69c-1.4-1.79-3.42-3.72-4.46-5.74c-0.79-1.54,0.01-2.96,0.38-4.67c0.37-1.72,0.95-3.34,0.25-4.97
		c-0.72-1.68-2.51-2.45-3.37-4.04c-1.53-2.84-0.66-6.16-3.73-8.29c-1.66-1.15-4.02-1.79-5.93-2.32c-3.65-1.03-7.12-2.32-10.36-4.31
		c-3.04-1.87-3.49-4.12-5.55-6.83c-1.99-2.63-5.01-3.69-7.36-5.91c-1.33-1.25-1.84-2.29-3.6-2.89c-1.53-0.52-3.29-0.18-4.84-0.74
		c-3.46-1.24-3.92-5.2-5.38-8.12c-1.35-2.7-3.11-4.59-3.81-7.61c-0.74-3.23-0.08-6.39-0.48-9.61c-0.23-1.85-0.44-5.11-1.38-6.76
		c-0.94-1.64-3-2.76-4.17-4.32c-0.77-1.03-1.58-1.91-1.98-3.18c-0.24-0.76-0.09-2.26-0.74-2.83c-1.32-1.15-4.64,0.03-6.27-0.72
		c-1.6-0.73-2.51-2.09-4.3-2.55c-2.02-0.52-5.01-0.15-7.13,0.1c-3.52,0.42-5.14,0.79-8.73-0.09c-1.59-0.39-3.21-0.74-4.55-1.75
		c-0.86-0.65-1.64-1.86-2.44-2.55c-2.98-2.53-7.02-3.26-9.87-5.94c-1.38-1.29-2.38-2.97-3.84-4.2c-1.02-0.86-2.23-1.5-3.07-2.57
		c-0.86-1.11-1.34-2.63-2.44-3.59c-1.61-1.4-4.12-1.83-6.11-2.43c-4.91-1.47-9.18-3.87-13.92-5.72c-2.35-0.91-6.12-1.02-7.86-3
		c-0.02-1.25,1.13-3.06,1.37-4.36c0.43-2.35,0.99-3.73,2.35-5.7c2.14-3.1,5.23-9.1,1.65-12.19c-1.57-1.36-3.79-1.48-5.36-2.8
		c-0.76-0.65-1.59-1.91-2.13-2.77c-1.23-1.95,0-7.01-2.8-6.91c-0.93,0.04-3.28,1.27-4.26,1.75c-2.81,1.37-5.96,3.1-8.38,5.08
		c-1.98,1.63-2.38,2.61-4.95,3.02c-2.67,0.43-6.53,0.7-9.2,0.19c-3.21-0.61-2.8-3.28-2.89-6.07c-0.14-4.2-5.75-2.01-8.41-2.03
		c-2.95-0.02-2.05-0.5-3.95-1.28c-3.08-1.27-7.18,1.26-10.63,0.76c-1.01,0.08-1.83-0.23-2.46-0.91c-0.11-0.15-0.22-0.31-0.32-0.46
		c-4.77-0.83-10.57,3.15-14.45,5.49c-4.34,2.62-8.27,5.73-12.93,7.74c-3.09,1.34-9.55,4.82-13.19,3.86
		c-1.44-0.38-1.35-0.85-2.51-1.58c-3.67-2.3-9.97,0.19-13.69,0.71c-3.11,0.43-4.95-0.05-7.9-0.14c-2.77-0.09-5.88,0.74-8.6,1.07
		c-2.75,0.33-4.64,0.27-7.32,0.11c-3.29-0.2-6.74,0.65-9.99,1.06c-5.4,0.69-8.55-2.78-12.98-5.33c-2.65-1.52-6.15-3.98-9.22-4.6
		c-1.99-0.4-3.53-1.03-5.23,0c-2.65,1.6-7.14,3.67-10.03,1.64c-1.65-1.17-2.41-2.68-4.48-3.43c-1.09-0.4-2.13-0.58-3.28-0.54
		c-2.38,0.07-4.79,1.12-7.08,1.75c-0.82,0.23-1.49,0.45-2.08,0.62c-0.4,2.02-0.81,4.44-1.55,5.8c-2.13,3.94-3.65,9.01-7.7,11.72
		c0.62,0.87,0.72,1.02,2.02,2.71c1.91,2.47,2.98,6.16,3.26,9.13c0.25,2.73,4.05,5.64,6.59,6.57c2.92,1.07,5.57-1.26,8.1-2.34
		c3.14-1.34,4.94-3.28,7.25-5.79c1.27-1.38,2.84-2.55,4.38-3.71c1.51-1.14,2.44-0.61,4.21-0.99c2.66-0.58,2.77-0.91,5.02,0.86
		c1.46,1.15,3.36,2.67,5,3.48c1.55,0.76,2.58,0.92,4.22,1.09c1.09,0.11,2.06,0.72,3.15,0.85c1.26,0.16,2.64-0.34,3.88-0.08
		c3.52,0.73,7.89,2.85,10.77,4.87c3.2,2.24,7.31,3.95,10.99,5.41c1.72,0.68,4.05,1.08,5.56,2.12c1.27,0.87,2.1,1.79,3.54,2.52
		c3.2,1.61,6.94,1.7,9.45,4.25c0.79,0.8,1.6,1.84,2.5,2.52c1.17,0.88,2.47,0.86,3.77,1.62c3.56,2.07,4.97,4.78,1.59,8.08
		c-2.14,2.09-4.02,4.71-6.87,5.78c-3.53,1.33-6.33-0.69-9.82-0.86c-3.91-0.19-7.72,0.8-11.64,0.82c-3.64,0.02-6.98-1.29-10.59-0.43
		c-4.2,1-8.52,1.59-12.42,3.5c-2.87,1.41-5.79,3.12-8.84,3.96c-2.7,0.75-5.31,1.43-7.97,2.23c-3.06,0.93-5.29,1.06-8.54,0.77
		c-8.36-0.73-16.12-2.77-24.2-4.8c-4.08-1.03-7.87-3.39-11.92-4.36c-2.74-0.66-4.64,0.69-7.17,1.27c-3.84,0.88-9.02-0.28-12.79-1.01
		c-3.59-0.7-6.4,0.12-9.88,1.13c-6.61,1.92-13.55,3.73-20.32,5c-5.4,1.01-10.99,1.88-16.43,0.66c-2-0.45-3.51-0.99-5.55-0.63
		c-1.55,0.27-3.16,0.42-4.66,0.84c-2.21,0.63-4.3,1.61-6.53,2.22c-1.82,0.5-3.71,0.83-5.41,1.65c-1.37,0.66-2.36,1.69-3.53,2.64
		c-1.58,1.27-3.38,2.28-5.01,3.49c-1.3,0.97-3.01,1.83-3.44,3.43c-0.48,1.76,0.01,4.37,0.01,6.22c0,1.47,0.36,3.48-0.39,4.64
		c-0.58,0.91-2.72,1.72-3.67,2.33c-1.43,0.93-2.37,1.32-4.03,1.63c-3.29,0.62-6.67,1.01-9.84,2.18c-4.68,1.72-9.31,3.91-14.19,5.02
		c-3.43,0.78-7.29,0.38-10.14,2.84c-2.99,2.58-6.17,5.41-8.73,8.43c-1.98,2.34-4.26,6.09-4.63,9.15c-0.44,3.65-2.28,6.62-2.3,10.28
		c-0.01,2.91-1.71,6.31-0.67,9.17c0.4,1.1,1.5,2.28,2.27,3.13c2.45,2.73,4.99,4.8,6.36,8.3c1.2,3.05,1.68,6.05,2.24,9.24
		c0.47,2.67,1.53,5.16,1.98,7.84c1.04,6.22,1.71,12.88,1.73,19.18c0.02,3.94-1.03,7.11-3.87,9.98c-4.09,4.12-4.41,8.05-3.1,13.46
		c0.76,3.11,0.76,5.49,0.02,8.59c-0.75,3.14-1.07,6.31-1.97,9.41c-1.24,4.27-2.07,9.04-2.54,13.49c-0.3,2.84,0.24,5.79-0.14,8.59
		c-0.35,2.59-1.76,3.94-3.45,5.85c-1.65,1.87-3.13,4.1-5.04,5.71c-1.88,1.58-4.24,2.01-6.36,3.19c-2.74,1.53-5.07,3.55-7.93,4.88
		c-1.55,0.72-3.29,1.2-4.63,2.29c-1.38,1.13-1.83,2.57-2.28,4.26c-0.55,2.08-1.37,4.51-1.57,6.63c-0.28,3,1.54,6.62,1.85,9.7
		c0.51,5.17-1.39,9.07-3.78,13.54c-1.04,1.94-2.46,3.75-3.38,5.74c-0.68,1.47-0.99,3.12-1.58,4.65c-1.39,3.61-3.11,7.34-5.33,10.53
		c-1.44,2.07-3.59,3.72-4.79,5.95c-0.74,1.39-1.07,2.99-1.65,4.45c-1.2,3.01-4.04,5.98-4.31,9.22c-0.35,4.11,2.72,7.99,3.59,11.91
		c1.19,5.37,1.02,12.3-1.67,17.2c-2.3,4.17-4.99,8.15-7.66,12.08c-2.03,2.99-4.95,4.78-6.47,8.11c-0.82,1.8-1.3,3.66-2.26,5.42
		c-1.39,2.56-3.16,5.08-4.19,7.81c-1.03,2.74-0.53,6.14-0.51,9.04c0.02,3.9-0.69,6.81-2.12,10.4c-0.55,1.37-0.68,2.58-1.7,3.74
		c-0.88,0.99-2.09,1.62-3.12,2.43c-0.05,0.04-0.1,0.07-0.15,0.11c0.44,0.25,0.78,0.61,0.92,1.26c-0.14-0.65-0.48-1.02-0.92-1.26
		c-2.1,1.62-3.73,2.54-3.71,5.12c0.21,0.04-1.12,1.63-0.9,1.68c0.41,2.95,1.55,4.56,4.18,5.85c1.07,0.52,2.16,0.84,3.11,1.53
		c1.3,0.93,1.61,2.56,2.32,3.9c1.28,2.42,2.12,5.15,2.1,7.9c-0.02,3.18-0.38,6.47,0.79,9.25c0.26,0.61,0.19,1.12,0.52,1.74
		c0.4,0.75,1.07,1.53,1.6,2.19c0.7,0.86,1.62,1.57,2.3,2.43c0.89,1.14,2.02,3.49,2.36,4.84c0.5,1.97,0.93,3.82,1.5,5.8
		c1.03,3.58,1.75,7.1,2.7,10.66c0.46,1.71,0.42,4.1,1.34,5.63c0.69,1.15,2.2,2.59,3.3,3.61c1.81,1.68,5.17,2.82,6.02,5.57
		c0.38,1.24-0.04,3.35-0.04,4.67c0,0.77,0.01,1.54,0,2.31c-0.02,1.15,0.41,1.63,0.6,2.45c0.88,3.93-0.48,7.79-0.62,11.64
		c-0.11,2.98-0.3,6.2-0.3,9.36c0.35,0.19,0.69,0.36,1.01,0.51c-0.32-0.14-0.66-0.32-1.01-0.51c0,2.02,0.07,4.01,0.28,5.89
		c0.28,2.45,0.91,4.45,0.81,6.99c-0.06,1.62-0.42,3.03-0.75,4.58c-0.56,2.63-2.07,5.1-2.39,7.75c-0.41,3.34,0.08,7.05,0.06,10.43
		c-0.04,5.69,1.32,11.08,2.15,16.61c0.3,2.03,0.84,4.12,0.96,6.14c0.17,2.95-0.02,5.97-0.02,8.92c0,5.54,0.02,11.07,0,16.61
		c-0.01,2.88,0.74,5.5,0.79,8.34c0.03,1.84-0.02,3.7-0.02,5.54c0,0.74,0.11,1.61,0.02,2.33c-0.14,1.07-0.6,1.32-0.83,2.26
		c-0.18,0.74-0.18,1.62-0.13,2.52c1.42-1.21,3.05-2.07,5.13-2.78c6.06-2.08,12.4-2.66,18.38-4.9c2.12-0.8,6.03-1.23,7.47-3.22
		c0.63-0.86,0.83-2.99,0.93-4.04c0.5-5.12-3.2-9.51-4.65-14.26c-0.95-3.13-2.03-5.78-3.86-8.54c-1.54-2.32-0.48-4-0.02-6.68
		c0.64-2.7,0.65-5.39,0.03-8.09c-0.66-1.39-1.09-2.84-1.3-4.36c-0.31-2.89-0.13-6-0.31-8.92c-0.3-4.87-0.66-9.83-1.54-14.64
		c-0.2-1.11-1.97-5.62-1.56-7.08c0.32-1.13,3.11-3.4,3.88-4.21c1.32-1.38,2.59-2.77,3.85-4.2c3.56-4.03,5.06-8.69,6.11-13.97
		c0.79-2.34,0.82-4.66,0.08-6.97c-0.18-0.68-0.37-1.37-0.55-2.05c0.21-1.38,1.95-2.37,2.69-3.51c2-3.08,1.32-1.62,4.7-1.6
		c1.56,0.01,3.27-0.73,4.66-1.26c3.2-1.22,6-3.49,6.94-7.01c0.36-1.35,0.22-3.27-0.02-4.6c-0.04-1.33-0.58-2.38-1.6-3.17
		c-0.4-0.19-0.8-0.38-1.2-0.57c-1.76-1.93-2.08-4.5-3.28-6.81c-0.65-1.25-2.36-2.81-2.26-4.3c0.42-0.82,0.94-1.57,1.56-2.26
		c0.75-0.95,0.98-2.03,0.7-3.23c-0.33-2.66-2.19-4.94-3.17-7.36c-1.56-3.87-0.62-8.55-0.06-12.52c0.81-5.71-1.58-11.43-0.86-17.24
		c0.57-4.59,1.34-6.33,4.71-9.59c3.87-3.75,6.84-8.55,11.16-11.83c3.25-2.47,7.34-2.68,10.85-4.48c5.01-2.57,8.89-7.11,5.06-12.38
		c-0.96-0.55-1.7-1.31-2.23-2.28c-0.49-1.01-0.96-2.04-1.42-3.06c-1.19-2.59-2.52-4.37-4.58-6.35c-1.31-1.26-2.1-2.71-3.35-3.98
		c-1.36-1.38-3.12-2.32-4.55-3.64c-5.42-5-6.61-11.86-10.02-17.93c-1.44-2.56-1.27-4.54-1.71-7.38c-0.38-2.4-0.78-4.09-0.42-6.57
		c0.34-2.35,1.18-3.84-0.27-5.87c-0.95-1.34-2.39-1.36-3.1-3.09c-1.21-2.93,0.05-5.93,2.2-7.78c2.23-1.93,3.73-4.53,6.22-6.05
		c3.64-2.22,6.65-5.98,9.3-9.41c0.91-1.18,1.53-2.59,2.32-3.85c1.26-2.01,0.84-1.52,2.42-1.06c2.8,0.83,5.77,1.03,8.57,1.97
		c1.54,0.52,2.4,1.19,4.03,0.9c1.47-0.26,2.94-1.61,3.75-2.78c1.19-1.71,1.56-3.96,2.25-5.89c0.48-1.33,1.2-1.93,0.7-3.45
		c-0.84-2.55-4.77-3.28-6.78-4.45c-2.24-1.3-2.54-2.54-2.28-5.16c0.27-2.66,0.88-5.33,1.39-7.95c0,0.18,0,0.36,0,0.54
		c0.22-3.1-1.2-5.86-1.27-8.89c-0.05-2.44,0.83-6.74,2.24-8.79c1.78-2.59,4.96-3.31,7.59-4.63c4.48-2.25,7.14-6.57,9.15-10.97
		c1.3-2.85,2.68-7.75,6.47-8.21c3.62-0.44,6.8,2.92,10.6,2.36c2.91-0.43,5.71-1.77,8.49-2.69c3.34-1.1,6.29-2.33,9.21-4.27
		c4.57-3.05,9.74-5.24,14.16-8.49c3.97-2.93,8.19-5.26,12.5-7.66c5.11-2.84,10.41-3.61,15.87-5.42
		c10.4-3.45,15.66-12.32,23.35-19.42c2.18-2.01,5.2-5.51,8.24-6.45c2.56-0.79,3.5,1.75,4.9,3.42c3.09,3.67,5.54,3.53,9.82,1.94
		c6.29-2.34,11.44-6.59,17.03-10.13c1.74-1.1,5.48-3.58,7.77-4.12c1.52-0.35,3.03-0.02,4.55-0.53c2.49-0.84,4.37-2.98,6.71-4.18
		c2.19-1.13,5.09-1.96,7.62-1.68c3.95,0.43,5.26,4.49,6.64,7.78c-0.79-3.28,3.46-6.26,6.3-6.78c2.65-0.49,3.81,0.59,6.03-1.73
		c2.55-2.65,3.47-6.13,4.28-9.61c0.51-2.18,0.37-4.94,1.12-6.96c0.87-2.33,2-2.68,4.32-3.42c3.15-1,5.07-2,7.13-4.73
		c1.79-2.37,1.93-5.21,3.53-7.51c1.53-2.2,4.98-3.1,7.21-4.31c2.55-1.38,5.19-2.62,7.53-4.35c2.85-2.11,5.5-7.13,9.6-6.06
		c5.16,1.34,9.18,6.8,13.53,9.59c2.24,1.43,4.29,3.29,6.75,4.21c1.62,0.61,3.85,0.33,5.2,1.63c1.6,1.54,0.94,3.51,1.57,5.32
		c0.36,1.04,0.58,0.89,1.7,1.55c1.78,1.05,2.44,1.56,4.48,1.57c0.85,0,1.62,0.1,2.45-0.11c1.47-0.36,2.54-1.79,3.96-2.12
		c2.42-0.57,5.54,3.29,7.61,4.59c2.78,1.76,4.4,2.35,7.66,2.27c2.85-0.07,3.53-1.62,6.15-3.04c2.16-1.18,4.38-1.35,6.65-2.11
		c1.76-0.6,3.33-1.64,4.95-2.54c2.36-1.31,3.87-2.62,5.27-5.09c1.57-2.77,1.46-5.48,2.69-8.22c4.51-0.05,6.47,5.71,10.52,6.97
		c1.91,0.6,4.34,0.1,6.26-0.08c1.41-0.13,3.22,0.48,4.51,0.06c3.01-0.97,4.67-5.51,7.03-7.46c1.11-0.71,2.15-1.5,3.12-2.38
		c0.9-1,1.67-2.08,2.3-3.27c2.16-2.29,6.24-1.19,8.86-0.9c4.13,0.47,7.06,0.89,10.7,2.75c7.26,3.71,15.76,2.96,22.81,7.33
		c4.61,2.85,8.08,12.59,14.61,10.38c2.05-0.7,3.5-1.69,5.72-1.72c2.07-0.03,4,0.63,6.04,0.86c5.87,0.66,11.63,1.76,17.23,3.9
		c3.46,1.32,6.42,2.8,9.02,5.48c2.62,2.69,4.7,5.18,8.03,6.97c3.3,1.77,5.35,4.01,8.21,6.28c1.47,1.17,2.78,2.11,4,3.57
		c1.8,2.15,4.11,3.86,5.87,6.02c1.46,1.79,1.64,3.83,4.19,4.15c2.12,0.27,5.29-1.12,6.8,0.72c0.63,2.04,0.93,4.14,0.89,6.29
		c0.2,3.37,0.72,6.7,1.56,9.97c1,4.08,2.14,7.81,2.22,12.02c0.07,3.46-0.05,6.95-0.09,10.41c-0.05,4.37,0.67,8.21,1.37,12.49
		c1.03,6.26,2.92,11.85,5.62,17.61c2.1,4.5,5.11,8,6.17,13.01c-0.21-3.02,0.99-5.89,0.81-8.88c-0.13-2.08-0.96-3.02-0.48-5.08
		C686.99,325.93,687.31,322.04,686.65,317.89z M308,192.86c-2.28,0.99-4.79,1.77-6.97,3.05c-3.76,2.2-6.24,5.8-10.82,6.02
		c-1.2,0.06-2.42-0.06-3.63-0.03c-2.18,0.05-2.91,0.64-4.84,1.6c-2.37,1.18-5.69,1.63-8.3,1.52c-2.95-0.13-5.39-1.49-8.35-1.56
		c-1.96-0.04-5.38-0.34-6.55-1.86c-1.93-2.5-0.59-7.24-0.14-9.95c0.41-2.44,0.16-5.06,0.17-7.54c0.01-1.94,0.29-2.98-0.97-4.4
		c-0.46-0.52-1.02-1.28-1.5-1.74c-0.84-0.78-1.92-0.96-2.76-1.7c-2.33-2.04-4.66-6.15-5.41-9.11c-0.48-1.94-0.14-4.17-0.17-6.18
		c-0.03-2.18,1.05-3.62-0.25-3.27c-0.18,0.08-0.36,0.15-0.52,0.18c0.21-0.09,0.38-0.14,0.52-0.18c1.17-0.55,2.55-2.1,3.51-2.71
		c2.28-1.47,3.33-0.98,5.41,0.38c3.27,2.15,7.97,0.7,11.22-0.77c1.96-0.89,3.35-1.37,5.6-1.35c1.8,0.01,3.6-0.01,5.41,0
		c0.92,0,2.24,0.25,3.13,0.04c0.93-0.23,1.2-0.68,2.26-0.83c2.16-0.3,2.8,0.26,4.26,1.56c1.4,1.24,2.66,1.79,4.26,2.32
		c2.09,0.7,3.15,0.92,4.46,3.09c1.18,1.96,1.28,4.2,2.26,6.17c1.12,2.28,2.43,4.44,3.51,6.74c1.03,2.18,2.27,3.63,3.46,5.64
		c0.44,0.74,1.22,1.09,1.61,1.7c0.59,0.9,0.84,1.98,1.52,2.96c1.14,1.65,1.55,3.5,2.3,5.38c0.45,1.13,1.89,3.14,1.81,4.31
		C312.18,190.82,309.35,192.27,308,192.86z"/>
	<g>
		<path class="st1" d="M378.3,160.99c0,0.52-0.07,1.01-0.22,1.47c-0.15,0.46-0.36,0.88-0.63,1.27c-0.28,0.38-0.61,0.72-1,1.01
			c-0.39,0.29-0.83,0.53-1.31,0.71c0.39,0.07,0.74,0.19,1.07,0.37c0.32,0.17,0.6,0.4,0.84,0.67c0.24,0.27,0.41,0.6,0.54,0.97
			c0.13,0.37,0.19,0.79,0.19,1.26c0,0.42-0.06,0.86-0.17,1.31c-0.11,0.45-0.29,0.89-0.54,1.32c-0.25,0.43-0.57,0.84-0.96,1.23
			c-0.4,0.39-0.87,0.73-1.43,1.03c-0.56,0.29-1.2,0.53-1.93,0.7c-0.73,0.17-1.58,0.26-2.54,0.26h-4.73c-0.36,0-0.62-0.09-0.78-0.26
			c-0.16-0.18-0.21-0.45-0.13-0.83l2.98-14.87c0.07-0.39,0.23-0.67,0.47-0.84c0.24-0.17,0.52-0.26,0.84-0.26h4.1
			c0.9,0,1.69,0.07,2.34,0.21c0.66,0.14,1.21,0.35,1.66,0.64c0.45,0.29,0.79,0.65,1.01,1.08
			C378.18,159.87,378.3,160.39,378.3,160.99z M374.15,168.88c0-0.56-0.21-1.01-0.63-1.33c-0.42-0.33-1.08-0.49-2-0.49h-2.31
			l-0.96,4.85h2.45c0.62,0,1.15-0.09,1.57-0.26c0.43-0.17,0.78-0.4,1.05-0.69c0.28-0.28,0.48-0.6,0.61-0.97
			C374.08,169.63,374.15,169.26,374.15,168.88z M374.73,161.63c0-0.25-0.04-0.46-0.13-0.64c-0.09-0.18-0.22-0.34-0.39-0.47
			c-0.18-0.13-0.4-0.23-0.67-0.3c-0.27-0.07-0.61-0.11-1.02-0.11h-1.89l-0.9,4.43h1.95c0.57,0,1.05-0.09,1.42-0.27
			c0.38-0.18,0.69-0.41,0.93-0.7c0.24-0.29,0.42-0.6,0.53-0.94S374.73,161.95,374.73,161.63z"/>
		<path class="st1" d="M390.28,174.13c-0.04,0.18-0.17,0.32-0.42,0.4c-0.24,0.08-0.63,0.12-1.16,0.12c-0.27,0-0.49-0.01-0.67-0.03
			c-0.17-0.02-0.31-0.05-0.42-0.09c-0.11-0.04-0.17-0.09-0.2-0.16c-0.03-0.07-0.04-0.15-0.02-0.25l0.37-1.88
			c-0.13,0.28-0.34,0.58-0.63,0.89c-0.29,0.31-0.63,0.59-1.03,0.85c-0.4,0.25-0.84,0.46-1.31,0.63c-0.48,0.17-0.97,0.25-1.48,0.25
			c-0.71,0-1.29-0.12-1.76-0.37c-0.47-0.25-0.84-0.58-1.12-0.99c-0.28-0.42-0.48-0.89-0.6-1.43c-0.12-0.54-0.18-1.1-0.18-1.69
			c0-0.55,0.05-1.16,0.16-1.81c0.11-0.65,0.27-1.31,0.49-1.96c0.22-0.65,0.5-1.28,0.84-1.88c0.34-0.6,0.75-1.14,1.23-1.6
			c0.48-0.46,1.03-0.84,1.65-1.11c0.62-0.28,1.32-0.42,2.1-0.42c0.73,0,1.37,0.15,1.94,0.46c0.56,0.3,1.05,0.74,1.48,1.32l0.21-1.04
			c0.03-0.18,0.17-0.32,0.41-0.4c0.24-0.08,0.63-0.12,1.17-0.12c0.26,0,0.48,0.01,0.66,0.03c0.18,0.02,0.32,0.05,0.42,0.09
			c0.1,0.04,0.17,0.09,0.2,0.16c0.04,0.06,0.04,0.14,0.03,0.23L390.28,174.13z M388.65,165.88c-0.31-0.48-0.65-0.85-1.02-1.09
			c-0.37-0.24-0.81-0.36-1.3-0.36c-0.37,0-0.71,0.09-1.01,0.26c-0.31,0.18-0.58,0.41-0.82,0.71c-0.24,0.29-0.45,0.63-0.62,1.02
			c-0.18,0.39-0.33,0.79-0.45,1.21c-0.12,0.42-0.21,0.84-0.26,1.27c-0.06,0.43-0.09,0.82-0.09,1.18c0,0.26,0.02,0.52,0.06,0.75
			c0.04,0.24,0.11,0.45,0.21,0.63c0.11,0.18,0.25,0.33,0.42,0.44c0.18,0.11,0.4,0.16,0.67,0.16c0.39,0,0.78-0.12,1.19-0.35
			c0.4-0.23,0.78-0.55,1.13-0.95c0.35-0.4,0.66-0.87,0.93-1.4c0.27-0.53,0.46-1.1,0.59-1.71L388.65,165.88z"/>
		<path class="st1" d="M406.47,162.3c0,0.14-0.06,0.3-0.18,0.49c-0.12,0.19-0.31,0.43-0.59,0.72l-4.15,3.91l2.7,5.67
			c0.09,0.21,0.15,0.4,0.18,0.55c0.04,0.16,0.05,0.28,0.05,0.37c0,0.11-0.03,0.2-0.09,0.28c-0.06,0.08-0.15,0.14-0.29,0.2
			c-0.14,0.05-0.32,0.09-0.56,0.11c-0.23,0.02-0.52,0.03-0.88,0.03c-0.35,0-0.63-0.01-0.85-0.03c-0.21-0.02-0.39-0.05-0.5-0.09
			c-0.12-0.04-0.21-0.1-0.26-0.17c-0.06-0.07-0.1-0.16-0.13-0.26l-2.78-6.19l-1.24,6.22c-0.03,0.09-0.07,0.16-0.14,0.23
			c-0.06,0.06-0.17,0.12-0.3,0.16c-0.13,0.04-0.31,0.08-0.54,0.1c-0.22,0.02-0.49,0.03-0.8,0.03c-0.32,0-0.59-0.01-0.79-0.03
			c-0.21-0.02-0.37-0.05-0.48-0.09c-0.11-0.04-0.19-0.09-0.23-0.16c-0.04-0.06-0.05-0.14-0.03-0.23l3.48-17.34
			c0.02-0.09,0.06-0.17,0.12-0.24c0.06-0.07,0.16-0.13,0.3-0.18c0.14-0.05,0.32-0.09,0.54-0.11c0.21-0.03,0.48-0.04,0.81-0.04
			c0.33,0,0.59,0.01,0.8,0.04c0.21,0.03,0.37,0.06,0.48,0.11c0.11,0.05,0.19,0.11,0.22,0.18c0.04,0.07,0.04,0.15,0.02,0.24
			l-2.06,10.32l4.4-4.71c0.09-0.11,0.18-0.19,0.28-0.27c0.1-0.08,0.23-0.13,0.39-0.18c0.16-0.04,0.35-0.08,0.57-0.09
			c0.22-0.02,0.5-0.03,0.84-0.03c0.33,0,0.6,0.01,0.82,0.03c0.22,0.02,0.39,0.05,0.52,0.09c0.12,0.04,0.21,0.09,0.26,0.15
			C406.44,162.15,406.47,162.23,406.47,162.3z"/>
		<path class="st1" d="M409.88,174.11c-0.02,0.09-0.06,0.16-0.13,0.23c-0.07,0.06-0.17,0.12-0.3,0.16c-0.14,0.04-0.32,0.08-0.54,0.1
			c-0.22,0.02-0.49,0.03-0.8,0.03c-0.32,0-0.59-0.01-0.8-0.03c-0.21-0.02-0.37-0.06-0.49-0.1c-0.12-0.04-0.19-0.1-0.23-0.16
			c-0.03-0.07-0.04-0.14-0.02-0.23l2.34-11.76c0.02-0.09,0.06-0.16,0.13-0.23c0.06-0.06,0.17-0.12,0.3-0.16
			c0.13-0.04,0.31-0.08,0.53-0.1c0.21-0.02,0.49-0.03,0.81-0.03c0.32,0,0.59,0.01,0.79,0.03s0.37,0.05,0.49,0.1
			c0.12,0.04,0.19,0.1,0.23,0.16c0.03,0.07,0.04,0.14,0.02,0.23L409.88,174.11z"/>
	</g>
</g>
</svg>
