<?xml version="1.0" encoding="UTF-8"?>
<svg id="Layer_1" data-name="Layer 1" xmlns="http://www.w3.org/2000/svg" viewBox="0 0 500 500">
  <defs>
    <style>
      .cls-1 {
        fill: #0b7b5f;
        stroke: #fff;
        stroke-miterlimit: 10;
      }

      .cls-2 {
        fill: #f9e5af;
      }
    </style>
  </defs>
  <g>
    <path class="cls-1" d="m333.43,224.54c-.22.16-.54.18-.77.34-.15.11-.29.53-.42.58-1.28.54-2.83-.39-4.06.47-.57.4-.78.99-1.22,1.51-.41.48-.83.72-1.32,1.03-.71.45-1.24.52-2.04.76-.93.27-1.74.82-2.74.99-1.53.25-3.2-.06-4.71-.12-3.27-.14-4.19,3.79-5,6.33-.66,2.08-1.39,4.15-2.19,6.18-.7,1.76-1.27,3.25-.72,5.07.58,1.89.94,3.6,1.26,5.52.17,1.04.56,2.1.67,3.13.1,1.01.35,1.96.34,3-.02,1.48.29,3.29-.08,4.71-.17.64-.4,1.33-.57,1.9-.09.31,0,.64-.14.93-.05.1-.35.16-.44.28-.19.28-.28.57-.44.88-.53,1.02-1.36,1.86-1.88,2.91-.36.72-.69,1.47-1,2.18-.53,1.23-1.18,2.37-1.99,3.48-.44.59-.79,1.2-1.1,1.82-.4.78-.09,2.1.17,3.03.31,1.07.91,2.01,1.46,2.96.92,1.58,1.55,3.32,2.56,4.85,1.3,1.97,2.76,3.64,2.71,6.17-.04,1.95.62,3.89.38,5.84-.14,1.12-.63,2.23-.76,3.37-.12,1.14-.02,2.47.19,3.58.46,2.42.44,4.96,1.28,7.28.43,1.19,1.13,2.27,1.46,3.48.33,1.22.7,2.58.75,3.85.08,2.05-.22,4.17-.03,6.21.23,2.48-.09,5.14-1.09,7.46-.41.94-1.56,1.91-2.16,2.71-.9,1.21-1.72,2.49-2.8,3.57-1.16,1.16-.77,1.62-.52,3.16.21,1.25-.2,2.59-.41,3.82-.44,2.49-1.16,4.63-2.85,6.57-.72.83-1.35,1.62-2.13,2.37-1.77,1.72-4.42,1.41-6.58,2.16-1.05.36-2.31.88-3.28,1.49-1.68,1.04-1.85,2.47-.89,4.21.6,1.09,1.37,2.13,2.56,2.64.88.37,1.92.44,2.86.53,1.67.16,3.42.45,5.09.35,2.61-.16,5.35-.99,7.69-2.13.52-.25,1.38-.74,2.25-1.01-.1-.23-.18-.42-.23-.54.05.12.13.31.23.54.88-.28,1.78-.33,2.32.31.53.62.12,1.41.27,2.07.27,1.18,1.56,1.76,2.59,2.23,3.42,1.57,7.52,3.26,11.29,3.36,1.93.05,3.83-.1,5.76.05,1.57.12,2.77-.13,4.3-.48,1.69-.39,3.28-.18,4.97-.38.34-.04.67-.1.99-.16-.04-.15-.08-.31-.11-.49-.1-.02-.2-.04-.3-.06.1.02.2.04.3.06.03.17.07.33.11.49,1.29-.24,2.5-.56,3.89-.26,1.41.31,2.55,1.13,3.76,1.86,1.42.86,2.74,1.68,3.88,2.9,1.26,1.35,2.11,2.98,2.98,4.59.47.86.94,1.71,1.4,2.57.47.88.65,1.87,1.09,2.75.88,1.74,3.05,1.6,4.37.6.83-.63,1.54-1.14,2.09-2.06.85-1.4,1.65-2.85,2.47-4.27,2.12-3.67,5.52-5.05,9.14-6.86,3.97-1.99,4.98-6.69,7.41-10.09,1.08-1.51,2.2-3.37,3.85-4.3,1.85-1.05,3.66-.56,5.65-.29,2.4.33,5.38.16,7.49-1.19,1.86-1.19,3.66-3.62,4.72-5.53.83-1.52.54-3.48,1.02-5.14.73-2.52,2.62-4.63,5.08-5.58,2.66-1.03,5.66-.95,8.45-1.57,2.62-.58,5.2-1.15,7.86-1.54,2.46-.37,4.93-1.63,6.69-3.45.62-.65.87-1.51,1.46-2.18.92-1.05,2.54-1.42,3.85-1.8,1.94-.57,2.9-1.34,4.06-3,.72-1.02,1.15-2.3,1.93-3.23.91-1.08,1.96-1.91,2.77-3.09.83-1.21,1.68-2.46,2.44-3.72.43-.72.59-1.56.8-2.39.65-2.6.49-2.17.4-2.31-.29.09-.58.2-.88.29-2,.62-2.9-1.18-4.07-2.51-1.08-1.23-2.59-2.29-3.99-3.14-1.12-.69-1.72-1.91-2.97-2.41-1.4-.56-2.65-.2-3.92-1.11-1.38-.99-2.67-2.01-4.1-2.93-.97-.62-1.91-1.32-2.85-1.98-.81-.57-1.44-1.36-2.27-1.9-1-.66-2.4-.73-3.1-1.81-.33-.52-.38-1.38-.58-1.98-.28-.83-.63-1.63-1.01-2.42-.84-1.74-1.59-3.53-2.55-5.21-1.12-1.94-2.49-3.74-3.54-5.72-.7-1.32-1.75-2.38-2.6-3.61-1.02-1.49-2.62-2.32-4.27-2.91-1.85-.66-3.61-1.6-5.52-2.11-2.45-.65-4.04-2.7-6.33-3.69-4.94-2.13-10.2-3.58-13.98-7.69-1.31-1.42-1.98-3.33-2.91-5-.59-1.05-1.43-1.99-2.25-2.86-2.04-2.17-3.89-4.43-6.01-6.55-2.35-2.35-4.69-4.73-7.1-7.01-.91-.86-1.59-1.99-2.51-2.82-.8-.72-1.88-1.21-2.75-1.88-1.26-.98-1.97-2.28-3.07-3.38-.89-.89-1.94-1.69-2.94-2.45-1.28-.97-2.22-2.37-3.5-3.43-1.88-1.56-4.28-2.87-6.48-3.91-1.09-.52-1.78-1.34-3.07-1.41-1.46-.08-2.96.37-4.32.85-.63.22-1,.69-1.71.59-.4-.05-.85-.44-1.16-.67-.19-.15-.41-.31-.63-.48-.37.55-.88,1.12-1.19,1.56-.23.32-.39.6-.71.83Z"/>
    <path class="cls-1" d="m51.64,242.61c.45,0,.84-.02,1.28-.09.19-.03.3-.2.51-.21.22-.01.14.19.29.21.92.11,1.4.38,2.28.64.78.23,1.54.19,2.36.18.37,0,.66-.02,1.01.08.13.04.24.26.42.3.24.06.53-.09.77-.04.63.14,1.34.68,1.98.94.91.36,1.62.67,2.45,1.18.45.28,1.1.57,1.58.76.75.3,1.37.71,2.15.95.81.25,1.34.63,2.06,1,1.07.56,2.28.65,3.4,1.04.71.25,1.3.83,1.97,1.06.92.31,2.01.36,3,.35,3.49-.02,6.89.4,10.4.36.49,0,1.06-.1,1.54.07.36.13.58.46.9.61,1.25.58,2.82.44,4.14.8,1.01.28,1.94,1.1,2.93,1.51,1.34.55,2.56,1.07,3.99,1.33,1.07.2,2.11.21,3.19.48.99.25,1.96.47,2.88.97.82.45,1.49,1.13,2.28,1.63.93.59,1.79.81,2.86,1.04,1.19.26,2.33.54,3.46.97,1.65.63,3.47.61,5.12,1.13,1.34.42,2,1.31,2.92,2.3.9.97,2.2,1.13,3.11,2,.97.93,1.49,2.35,2.16,3.47,1.58,2.63,1.22,5.11.09,7.83-.3.71-.34,1.04-.99,1.46-.6.39-.84.42-1.36,1.05-1.15,1.39-2.34,2.78-3.64,4.02-1.93,1.85-4.56,3.83-4.98,6.67-.11.75-.06,1.66-.03,2.42.06,1.12.84,2.14,1.33,3.13.54,1.1,1.13,2.39,2.22,3.08.25.16.53.28.82.39.02-.26,0-.51,0-.8,0,.29,0,.54,0,.8,1.15.42,2.52.46,3.67.67.68.12,1.12.34,1.79.21,1.04-.21,2.18-.38,3.2-.64.91-.24,1.72-.76,2.61-1.04,1.13-.35,2.29-.66,3.42-.99,1.55-.45,3.21-.48,4.74-.98.7-.23,1.41-.47,2.13-.66.5-.13.7-.22.92-.12.09-.13.2-.27.35-.43-.15.17-.26.31-.35.43.12.06.25.16.43.36.24.24.53.62.64.95.14.41-.06.88.1,1.25.46,1.06,2.31.57,3.23.57,1.06,0,3.03.47,3.75-.33.38-.42.43-1.17.8-1.63.43-.55.9-.9,1.2-1.56,1.4-3.01,1.14-5.95,1.16-9.19,0-1.35.57-2.16,1.51-3.09.8-.8,1.54-1.9,2.55-2.41,1.22-.61,2.67-.84,3.93-1.41,1.6-.73,3.31-1.44,4.55-2.71,1.29-1.32,2.62-2.54,3.69-4.05.85-1.21,2.03-2.14,2.77-3.39.39-.66.58-1.06.64-1.84.05-.59.11-1.3.36-1.85.63-1.36,2.54-2.08,3.66-2.98.84-.68,1.55-1.04,2.54-1.49,1.42-.65,2.82-1.85,4.38-2.06.91-.13,1.89.13,2.81,0,2.25-.32,4.82-.99,6.83-2.04,1.08-.56,1.64-1.38,2.4-2.3.93-1.11,1.96-2.07,3.08-2.99,1.58-1.29,3.26-2.42,4.95-3.56.9-.61,1.31-.69,2.33-.92,2.07-.46,3.84-.91,5.95-.88,1.33.02,2.57.01,3.77-.59,1.25-.62,2.42-1.66,3.54-2.5,4.77-3.56,9.68-8.66,9.74-15.02.03-3.08.75-5.7,2.86-8.02,1.01-1.11,1.71-2.06,2.3-3.47.68-1.63,1.47-3.12,2.35-4.64.34-.59.66-1.18.97-1.77-.09-.04-.22-.11-.48-.26.26.16.39.22.48.26,1.08-2.09,1.92-4.2,2.59-6.53.81-2.8,1.37-5.95,2.72-8.52.81-1.55,1.48-3.35,2.88-4.45,1.17-.92,2.85-1.71,3.58-3.07,2.03-3.78-.46-7.42-2.83-10.41-1.22-1.55-2.94-1.91-4.35-3.15-.84-.73-1.49-1.66-2.27-2.45-.78-.79-1.68-1.4-2.46-2.16-1.4-1.37-2.88-2.62-4.37-3.9-.97-.83-2.02-1.52-3.09-2.21-1.07-.69-2.3-1.23-2.92-2.38-.51-.95-.81-2.07-1.23-3.05-.19-.45-.55-.82-.72-1.28-.16-.44-.13-.7-.34-1.13-.46-.93-1.21-1.85-1.6-2.84-.43.18-.87.27-1.29.13-.96-4.44-3.88-8.26-7.11-11.39-.91-.88-2.03-1.44-3.14-2.02-.96-.51-1.71-1.28-2.62-1.83-1.39-.85-3.11-.67-4.63-1.06-1.93-.5-3.91-.7-5.86-1.1-1.86-.39-3.48-1.06-5.35-.29-.93.38-1.68.97-2.68,1.22-1.29.32-2.35.12-3.49-.54-1.28-.75-1.86-2.02-2.87-3.04-2.54-2.56-6.12-4.22-9.49-5.35-2.65-.89-4.95-2.33-7.49-3.44-1.97-.86-3.23-.81-5.32-.89-.99-.04-1.85-.24-2.7-.74-1.46-.86-2.83-1.92-4.23-2.82-1.7-1.09-3.42-2.1-5.03-3.29-1.25-.92-2.51-1.92-3.81-2.76-1.7-1.09-3.22-3.25-5.26-3.51-.97-.12-2.73-.24-3.66-.01-.25.06-.35.36-.57.36-.31.01-.37-.23-.58-.27-.55-.09-1.11-.05-1.65-.16-1.77-.34-2.77-2.14-4.35-2.92-.56-.27-.9-.53-1.52-.64-.59-.11-1.25.05-1.85.02-.26-.02-.44-.07-.61-.14-.05.17-.12.35-.21.57-.39.98-.48,1.48-1.32,2.18-.96.79-1.8,1.7-2.68,2.57-1.2,1.19-2.82,2.7-3.56,4.23-.65,1.34-.93,3-1.43,4.42-.54,1.52-.94,2.93-1.18,4.52-.28,1.87-.31,4.38-1.44,5.97-1.39-.34-1.91-1.64-2.41-2.82-.76-1.81-1.62-3.33-2.95-4.65-.62.46-1,1.11-1.53,1.67-.79.85-1.89,1.45-2.63,2.34-1.6,1.92-2.21,5.23-1.85,7.63.43,2.86.89,5.76,1.64,8.56.3,1.12.87,1.83,1.47,2.79.65,1.06,1.16,2.2,1.67,3.34.78,1.75,1.49,3.4,1.97,5.27.5,1.94.85,3.91,1.46,5.82.55,1.74,1.02,2.73.28,4.47-.66,1.54-1.56,3.06-2.36,4.53-1.33,2.43-2.71,4.41-5.2,5.76-1.22.66-2.14,1.54-3.59,1.62-.71.04-1.68-.04-2.38-.21-.95-.23-2.09-1.09-3.11-.28-1.69,1.35-.32,4.32-.36,6.11-.05,2.37.53,4.79.84,7.13.31,2.32-.81,3.33-2.46,4.73-1.87,1.58-3.63,2.68-6.07,3.09-2.25.38-3.81,1.8-5.58,3.13-1.25.94-2.24,2.16-3.53,3.03-.8.54-2.05,1.6-3,1.79-2.73.56-6.27-1.08-8.54,1.06-1.15,1.09-2.58,2.01-3.54,3.27-1.34,1.76-3.22,3.76-5.17,4.86.95.99-.39,3.01-.67,4.14-.27,1.07-.45,2.06-.89,3.1-.58,1.35-1.23,2.76-1.9,4.07-1.03,1.98-2.83,3.6-3.75,5.67-.24.53-.19.87-.79,1.09-.52.19-1.17.2-1.73.44-.89.38-1.42.88-2.1,1.55-.51.51-.78,1.15-1.26,1.65-1,1.03-2.31,1.8-3.29,2.87-.12.13-.23.26-.33.38,1.15.67,3.48,1.89,3.84,2.13.66.45,1.34.4,2.14.4Z"/>
    <path class="cls-1" d="m239.8,368.67c.55-.77.97-.49,1.75-.75.75-.25,1.49-.99,2.1-1.48,2-1.6,3.49-3.79,5.25-5.61.57-.59.77-1.15,1.01-1.93.25-.79.73-1.52.95-2.31.21-.73.17-1.42.49-2.14.36-.8.86-1.44,1.31-2.19,1.02-1.71,2.12-4.37,1.19-6.3-.73-1.52-1.79-2.49-1.45-4.3.52-2.78,2.59-2.8,4.42-4.18,2.04-1.55,3.91-3.37,6.08-4.75,2.15-1.37,4.35-2.54,6.56-3.83,1.07-.62,2.21-1.42,3.45-1.62,1.08-.18,2.29.05,3.37.02,2.16-.07,4.15-.77,5.88-1.99,2.23-1.57,4.73-2.72,7.1-4.04.93-.52,3.57-1.05,3.68-2.34.16-1.72-2.88-2.19-3.88-2.78-1.06-.63-2.5-1.1-3.34-1.93-.68-.67-1.05-1.12-2.04-1.46-1.07-.37-2.13-.65-3.02-1.38-1.24-1.01-1.3-2.43-2.87-3.28-1.72-.93-3.78-.8-5.41-1.88-1.08-.72-2.04-1.6-3.11-2.34-.89-.62-1.95-2.06-2.98-2.35-.66-.18-1.04.12-1.65.25-.74.15-.93-.03-1.57-.29-1.29-.53-2.98-.55-4.33-.19-.71.19-1.52.62-2.28.59-.65-.02-1.42-.32-2.06-.45-1.12-.23-1.99-.3-3.14-.06-.94.19-1.86.58-2.84.47-1.35-.15-2.54-1.24-3.69-1.91-1.18-.69-1.33-1.17-1.95-2.43-.77-1.55-1.77-2.08-3.12-3-.93-.64-1.64-1.56-2.26-2.46-.77-1.12-1.1-2.41-1.82-3.57-.31-.5-.75-.84-1.01-1.36-.3-.6-.43-1.34-.62-1.98-.37-1.21-.83-2.38-1.56-3.43-.62-.91-.77-1.35-.3-2.46.4-.94,1.52-1.82,2.13-2.64.81-1.1,1.86-2.16,2.91-3.06,1.34-1.14,2.58-2.28,3.86-3.51,1.35-1.3,2.64-2.49,4.14-3.6,1.2-.89,1.81-1.71,2.46-3.03.55-1.12,1.51-1.59,2.39-2.45.95-.93,1.69-2,2.44-3.08,1.25-1.8,2.22-4.15,1.44-6.17-.68-1.76-1.65-4.04-.93-5.98.84-2.26,2.6-3.04,4.38-4.39,1.47-1.12,2.99-2.89,3.42-4.69.42-1.8-.81-2.65-1.71-3.9-.44-.61-.64-1.23-1.31-1.75-.46-.36-1.19-.43-1.59-.78-.83-.72-1.22-1.51-2.27-2.03-.41-.2-.91-.37-1.29-.63-.44-.3-.5-.53-.88-.92-.62-.63-1.09-.89-1.55-1.72-.4-.7-.75-1.31-1.04-2.06-.59-1.48-1.03-2.83-1.37-4.39-.35-1.61-1.22-3.33-2.21-4.7-.7-.96-1.47-1.72-2.27-2.65-.36-.42-.32-.4-.5-.48-.3.59-.62,1.18-.97,1.77-.88,1.52-1.68,3.01-2.35,4.64-.59,1.41-1.29,2.36-2.3,3.47-2.11,2.32-2.83,4.94-2.86,8.02-.06,6.36-4.97,11.46-9.74,15.02-1.12.84-2.29,1.88-3.54,2.5-1.21.6-2.44.6-3.77.59-2.11-.03-3.88.42-5.95.88-1.02.23-1.42.31-2.33.92-1.69,1.14-3.37,2.26-4.95,3.56-1.12.92-2.15,1.87-3.08,2.99-.76.91-1.33,1.73-2.4,2.3-2.01,1.05-4.58,1.72-6.83,2.04-.92.13-1.9-.13-2.81,0-1.55.22-2.96,1.41-4.38,2.06-1,.46-1.7.82-2.54,1.49-1.11.9-3.03,1.63-3.66,2.98-.25.55-.31,1.26-.36,1.85-.07.77-.25,1.18-.64,1.84-.74,1.25-1.92,2.18-2.77,3.39-1.07,1.52-2.4,2.73-3.69,4.05-1.24,1.27-2.94,1.98-4.55,2.71-1.26.57-2.7.8-3.93,1.41-1.02.51-1.76,1.61-2.55,2.41-.94.94-1.5,1.74-1.51,3.09-.02,3.24.23,6.18-1.16,9.19-.31.66-.77,1.01-1.2,1.56-.36.47-.42,1.21-.8,1.63-.71.79-2.69.33-3.75.33-.92,0-2.76.49-3.23-.57-.16-.37.03-.85-.1-1.25-.11-.33-.4-.71-.64-.95-.19-.19-.31-.3-.43-.36-.4.55-.37.84-.66,1.67-.48,1.35-.9,2.71-1.46,4.02-.8,1.86-2.13,3.5-3,5.34-1.21,2.56-2.69,5.11-4,7.72-.61,1.23-1.07,2.36-1.45,3.64-.39,1.29-.27,2.62-.27,3.99,0,3.03-.45,6.07,1.59,8.55.47.57.99,1.05,1.68,1.37.31.15,1.16.64,1.44.65.43.02,1.49-.52,1.92-.66,1.01-.34,1.87-.86,2.84-1.29,1.27-.56,2.62-1.48,3.99-1.73,1.74-.32,3.24,1.45,4.01,2.71.66,1.07.88,2.17,1.35,3.39.35.91.71,1.72,1.19,2.56.5.88,1.15,1.44,1.73,2.25.81,1.13,1.91,2.46,3.36,2.83,1.27.33,3.06-.04,4.01-1,.29-.3.41-.7.68-1.01.31-.36.78-.64,1.12-.99.78-.82,1.73-1.73,2.38-2.65,1.17-1.66,2.52-3.18,3.71-4.81.99-1.35,1.93-2.69,3.43-3.55,1.1-.63,2.61-1.03,3.89-.83.77.12,1.21.41,2.07.42.79,0,1.52-.17,2.29-.3,1.68-.28,3.27-.73,4.88-.1,2.74,1.08,5.74.41,8.23,2.18.78.56,1.47,1.14,2.08,1.88.99,1.2,1.46,2.68,2.36,3.96,1,1.42,2.18,2.16,3.49,3.23.72.59,1.83,2.16,1.46,3.2-.34.96-1.8,2-2.41,2.77-1,1.27-1.96,2.97-2.56,4.48-.49,1.23-.79,2.53-1.33,3.75-.58,1.31-1.53,2.63-1.31,4.13.13.86.9,1.63,1.47,2.31.94,1.13,2.28,1.75,3.64,2.29,1.71.68,3.2.71,5.03.7.56,0,1.13.04,1.69.01.81-.03,1.55-.41,2.36-.41,1,0,2.61.42,3.22,1.26.7.95.41,2.28.41,3.39,0,2.19-.44,4.45,1.27,6.11.79.76,1.3,1.38,1.82,2.33.36.65.67,1.43,1.08,2.04.81,1.19,2.43,2.66,3.63,3.42.75.48,1.42.99,2.18,1.45.89.54,1.23,1.14,1.68,1.98.29.55.65,1.36,1.03,1.86.56.74,1.14.75,1.98.93.7.15.7.53,1.26-.24.17-.23.2-.6.38-.87.3-.23.56-.49.78-.8.15-.31.26-.64.33-.98.04-.1.09-.19.14-.28-.1-.1-.23-.19-.4-.26.17.07.3.15.4.26.25-.46.55-.8.87-1.29.55-.86.97-1.95,1.37-2.89.55-1.3.89-2.68,1.49-3.97.37-.79.94-1.15,1.46-1.79.48-.59.63-1.14,1.22-1.68.48-.43.95-.96,1.45-1.37.15-.12.28-.32.42-.51-1.35-.33-4.85-.46-3.55-2.27Z"/>
    <path class="cls-1" d="m305.05,172.68c.08.39.44.73.41,1.14-.33-.79-1.17-1.6-1.65-2.33-.65-.99-1.4-1.88-2.59-2.2-1.95-.51-3.9-.77-5.61-1.98-1.2-.85-2.18-1.51-3.64-1.82-2.85-.6-5.48-1.81-8.35-2.28-1.43-.23-2.72-.59-4.03-1.19-1.2-.55-2.42-.99-3.75-1.12-1.2-.11-2.41.09-3.59-.06-1.11-.13-1.91-.51-2.87-1.06-1.78-1.03-3.59-2-5.17-3.31-1.54-1.27-3.99-1.75-5.95-2.09-1.15-.2-1.54-.36-2.54-.83-.47-.22-.64-.32-1.19-.35-1.55-.1-2.85-.43-4.3-.98-.7-.26-1.29-.71-1.99-.96-.77-.27-1.47-.27-2.27-.25-1.7.04-3.28-.31-4.95-.37-2.32-.08-4.52.13-6.76.76-1.52.43-2.95.26-4.43.88-.44.19-.96.54-1.5.76.39.99,1.14,1.91,1.6,2.84.21.43.19.69.34,1.13.16.46.52.82.72,1.28.42.99.72,2.1,1.23,3.05.62,1.15,1.86,1.69,2.92,2.38,1.07.69,2.13,1.38,3.09,2.21,1.49,1.28,2.98,2.53,4.37,3.9.78.77,1.69,1.38,2.46,2.16.78.79,1.43,1.72,2.27,2.45,1.41,1.24,3.13,1.6,4.35,3.15,2.36,2.99,4.86,6.63,2.83,10.41-.73,1.36-2.41,2.16-3.58,3.07-1.4,1.1-2.07,2.9-2.88,4.45-1.35,2.58-1.92,5.72-2.72,8.52-.67,2.33-1.51,4.44-2.59,6.53.17.08.14.07.5.48.8.93,1.57,1.69,2.27,2.65.99,1.37,1.86,3.09,2.21,4.7.34,1.56.79,2.91,1.37,4.39.29.74.64,1.35,1.04,2.06.47.82.93,1.08,1.55,1.72.38.39.44.62.88.92.38.26.87.43,1.29.63,1.05.51,1.44,1.3,2.27,2.03.4.35,1.13.42,1.59.78.67.52.87,1.13,1.31,1.75.9,1.25,2.13,2.1,1.71,3.9-.43,1.8-1.95,3.57-3.42,4.69-1.78,1.36-3.54,2.13-4.38,4.39-.72,1.94.25,4.23.93,5.98.78,2.02-.2,4.36-1.44,6.17-.75,1.08-1.49,2.15-2.44,3.08-.88.86-1.84,1.33-2.39,2.45-.65,1.32-1.26,2.14-2.46,3.03-1.5,1.11-2.79,2.31-4.14,3.6-1.28,1.23-2.52,2.37-3.86,3.51-1.05.9-2.09,1.96-2.91,3.06-.61.83-1.73,1.71-2.13,2.64-.48,1.11-.32,1.55.3,2.46.72,1.05,1.19,2.21,1.56,3.43.19.64.32,1.38.62,1.98.26.52.71.87,1.01,1.36.72,1.16,1.05,2.45,1.82,3.57.62.9,1.33,1.83,2.26,2.46,1.35.92,2.36,1.45,3.12,3,.62,1.26.77,1.74,1.95,2.43,1.15.67,2.34,1.76,3.69,1.91.97.11,1.89-.28,2.84-.47,1.15-.24,2.02-.17,3.14.06.63.13,1.41.42,2.06.45.76.03,1.57-.41,2.28-.59,1.34-.36,3.04-.33,4.33.19.64.26.83.44,1.57.29.61-.12.99-.43,1.65-.25,1.03.28,2.08,1.73,2.98,2.35,1.07.74,2.03,1.62,3.11,2.34,1.63,1.08,3.69.95,5.41,1.88,1.57.85,1.63,2.27,2.87,3.28.89.73,1.95,1.01,3.02,1.38.99.34,1.36.79,2.04,1.46.85.83,2.28,1.31,3.34,1.93,1,.59,4.04,1.06,3.88,2.78-.12,1.29-2.76,1.82-3.68,2.34-2.37,1.32-4.87,2.47-7.1,4.04-1.73,1.22-3.72,1.92-5.88,1.99-1.08.03-2.29-.19-3.37-.02-1.24.2-2.38,1-3.45,1.62-2.21,1.29-4.41,2.46-6.56,3.83-2.17,1.38-4.03,3.19-6.08,4.75-1.82,1.39-3.9,1.41-4.42,4.18-.34,1.81.72,2.78,1.45,4.3.92,1.94-.17,4.59-1.19,6.3-.45.75-.95,1.39-1.31,2.19-.32.71-.29,1.41-.49,2.14-.22.79-.7,1.52-.95,2.31-.25.77-.44,1.34-1.01,1.93-1.77,1.82-3.25,4.01-5.25,5.61-.61.49-1.35,1.23-2.1,1.48-.78.26-1.2-.01-1.75.75-1.3,1.82,2.19,1.95,3.55,2.27.11-.14.22-.28.36-.37-.14.09-.26.22-.36.37.1.02.19.05.27.08,1.52.56,2.44,1.97,3.98,2.48,1.09.36,2.25.61,3.38.84,1.57.31,2.72.1,4.16-.56,1.72-.79,3.28-1.27,4.15.8,1,2.4,3.21,3.23,5.55,3.94,1.24.38,2.54.37,3.75.86,1.01.41,1.82,1.07,2.67,1.74,1.93,1.51,3.91,2.97,6.17,3.9,2.11.87,3.84,2.34,5.83,3.45.79.44,1.75.73,2.49,1.26.84.61,1.39,1.55,2.17,2.23,1.11.97,2.56,1.54,4.05,1.43,2.9-.21,5.2-2.97,7.63-4.33,1.09-.61,2.47-.51,3.66-.97,1.52-.58,3.06-1.35,4.37-2.32,2.79-2.04,3.52-5.17,3.95-8.38.15-1.14.01-2.15.31-3.24.31-1.12.17-2.79.09-3.96-.04-.55-.77-2.27-1.19-3.24-.87.27-1.73.76-2.25,1.01-2.34,1.14-5.08,1.97-7.69,2.13-1.67.1-3.42-.19-5.09-.35-.94-.09-1.98-.16-2.86-.53-1.19-.5-1.95-1.54-2.56-2.64-.96-1.74-.79-3.17.89-4.21.97-.6,2.23-1.12,3.28-1.49,2.17-.75,4.81-.44,6.58-2.16.77-.75,1.4-1.55,2.13-2.37,1.69-1.94,2.41-4.08,2.85-6.57.22-1.23.62-2.57.41-3.82-.26-1.54-.65-2,.52-3.16,1.08-1.07,1.9-2.35,2.8-3.57.59-.8,1.75-1.77,2.16-2.71,1-2.32,1.32-4.98,1.09-7.46-.19-2.04.11-4.16.03-6.21-.05-1.27-.41-2.63-.75-3.85-.33-1.21-1.03-2.29-1.46-3.48-.84-2.32-.82-4.86-1.28-7.28-.21-1.11-.31-2.44-.19-3.58.12-1.14.62-2.25.76-3.37.24-1.94-.41-3.89-.38-5.84.05-2.52-1.41-4.2-2.71-6.17-1.01-1.53-1.64-3.27-2.56-4.85-.55-.95-1.16-1.89-1.46-2.96-.26-.92-.57-2.25-.17-3.03.32-.62.67-1.23,1.1-1.82.81-1.11,1.46-2.25,1.99-3.48.31-.72.64-1.46,1-2.18.52-1.05,1.34-1.9,1.88-2.91.16-.31.25-.61.44-.88.08-.12.39-.17.44-.28.14-.29.05-.62.14-.93.17-.57.4-1.25.57-1.9.37-1.42.06-3.24.08-4.71.01-1.03-.24-1.98-.34-3-.1-1.03-.49-2.09-.67-3.13-.32-1.92-.68-3.63-1.26-5.52-.56-1.82.02-3.31.72-5.07.8-2.03,1.53-4.11,2.19-6.18.8-2.53,1.72-6.47,5-6.33,1.51.06,3.18.37,4.71.12,1-.17,1.81-.71,2.74-.99.8-.24,1.33-.3,2.04-.76.49-.31.91-.55,1.32-1.03.45-.52.66-1.11,1.22-1.51,1.22-.86,2.77.07,4.06-.47.13-.06.28-.48.42-.58.23-.16.54-.18.77-.34.32-.23.48-.5.71-.83.31-.44.82-1.01,1.19-1.56-.28-.22-.55-.45-.75-.7-.76-.95-.85-2.65-1.27-3.77-.36-.94-.87-2.29-1.53-3.06-.39-.45-1-.85-1.46-1.22-.67-.54-1.04-1-1.63-1.67-1.11-1.26-2.21-2.08-2.91-3.65-.46-1.04-.37-2.06-.36-3.25,0-1.42.29-2.61.35-4,.03-.66.34-1.16.38-1.82.04-.59-.09-1.17.07-1.74.07-.24.22-.49.28-.8.08-.41.14-.69.27-1.1.2-.6.35-1.21.54-1.82.22-.67.14-1.13.26-1.82.11-.68.39-1.08.38-1.82-.02-1.21.19-2.92-.04-4.15-.27-.11-.52-.22-.67-.3-.52-.28-1.04-.68-1.54-1.01-1.1-.73-2.14-1.61-3.34-2.18-1.51-.72-3.14-1.15-4.66-1.81-1.21-.52-2.49-1.49-3.62-2.19-1.01-.62-2.07-1.25-3.01-2.01-.8-.64-1.41-1.29-2.26-1.8-.79-.46-1.67-.92-2.45-1.46-.4-.28-.87-.68-1.3-1.09-.03.26-.05.51,0,.75Z"/>
  </g>
  <g>
    <path class="cls-2" d="m133.15,205.88s-.03.09-.07.12c-.04.04-.09.07-.17.09-.08.02-.17.04-.29.05-.12.01-.27.02-.44.02s-.33,0-.44-.02c-.11-.01-.2-.03-.27-.05-.06-.02-.11-.05-.13-.09-.02-.04-.03-.08-.01-.12l1.7-8.49s.03-.09.07-.12.1-.07.17-.09c.08-.02.17-.04.29-.05.12-.01.26-.02.44-.02s.32,0,.43.02c.11.01.2.03.27.05.07.02.11.05.13.09.02.04.03.08.02.12l-1.69,8.49Zm.17-10.38c.03-.16.08-.3.13-.41.05-.11.12-.2.21-.27s.2-.12.33-.15c.13-.03.29-.04.47-.04s.34.02.45.04c.12.03.2.08.26.15.06.07.09.16.1.27s0,.25-.04.41c-.03.16-.07.29-.12.4-.05.11-.12.2-.21.27s-.2.12-.33.15c-.13.03-.29.05-.47.05s-.33-.02-.45-.05c-.12-.03-.2-.08-.26-.15-.06-.07-.09-.16-.1-.27,0-.11,0-.25.03-.4Z"/>
    <path class="cls-2" d="m140.1,199.97c0,.06,0,.14-.02.25-.02.11-.04.22-.07.33s-.07.21-.11.29-.09.12-.15.12c-.06,0-.13-.02-.21-.07-.08-.04-.18-.09-.29-.15-.12-.05-.25-.1-.41-.14-.16-.04-.34-.06-.54-.06-.16,0-.31.02-.43.06-.13.04-.23.1-.32.17-.08.07-.15.16-.19.25s-.07.2-.07.31c0,.14.06.26.18.36s.26.19.44.27c.18.09.37.17.57.27.2.09.39.21.57.35s.32.31.44.51c.12.2.17.45.17.75,0,.35-.07.68-.2.97-.13.3-.33.56-.59.77s-.57.39-.94.51c-.37.12-.78.18-1.25.18-.22,0-.43-.02-.64-.05-.2-.03-.38-.07-.54-.12-.16-.05-.29-.1-.41-.16-.11-.06-.19-.12-.25-.17-.04-.04-.06-.08-.08-.12-.02-.04-.02-.09-.02-.16,0-.04,0-.1.01-.16,0-.06.02-.14.03-.22.02-.08.04-.16.06-.24.02-.08.04-.15.07-.21.03-.06.06-.12.09-.16.03-.04.07-.06.1-.06.06,0,.14.03.21.08.08.06.18.12.31.18.12.07.28.13.46.19.18.06.41.09.68.09.19,0,.35-.02.5-.07.14-.04.26-.1.35-.18.09-.08.16-.17.2-.27.04-.1.07-.21.07-.33,0-.16-.06-.29-.17-.4s-.26-.2-.43-.28-.36-.18-.56-.27c-.2-.09-.39-.21-.56-.34s-.31-.3-.43-.5c-.11-.2-.17-.45-.17-.75,0-.33.06-.63.19-.92s.31-.53.55-.74.53-.38.87-.49c.34-.12.73-.18,1.17-.18.19,0,.38.01.57.04s.35.06.49.1c.15.04.27.09.38.14s.19.1.23.15c.05.05.08.12.08.24Z"/>
    <path class="cls-2" d="m150.31,205.89s-.03.09-.07.12c-.04.03-.09.06-.16.09-.07.02-.17.04-.28.05-.11.01-.26.02-.43.02s-.31,0-.42-.02c-.11-.01-.2-.03-.26-.05-.06-.02-.1-.05-.12-.09-.02-.04-.02-.08,0-.12l.74-3.71c.02-.11.04-.21.05-.32s.02-.21.02-.32c0-.22-.04-.39-.12-.53-.08-.13-.23-.2-.43-.2-.19,0-.38.06-.58.18s-.39.28-.57.49c-.18.21-.34.45-.49.72-.14.28-.24.57-.3.88l-.56,2.8s-.03.09-.07.12c-.03.03-.09.06-.16.09-.07.02-.17.04-.28.05-.11.01-.26.02-.43.02s-.3,0-.41-.02c-.11-.01-.19-.03-.25-.05-.06-.02-.1-.05-.12-.09-.02-.04-.03-.08-.02-.12l.74-3.71c.03-.11.05-.22.06-.33.01-.11.02-.22.02-.33,0-.2-.04-.37-.12-.5s-.23-.2-.43-.2c-.18,0-.38.06-.58.18-.2.12-.39.28-.57.49-.18.21-.34.45-.49.72-.14.28-.24.57-.3.88l-.56,2.8s-.03.09-.07.12c-.03.03-.09.06-.16.09-.07.02-.17.04-.28.05-.12.01-.26.02-.42.02s-.31,0-.42-.02c-.11-.01-.19-.03-.26-.05-.06-.02-.1-.05-.12-.09-.02-.04-.02-.08-.01-.12l1.24-6.2s.03-.09.06-.12c.03-.03.08-.06.14-.08.06-.02.14-.04.24-.05.1-.01.22-.02.36-.02s.26,0,.35.02c.09.01.16.03.21.05.05.02.08.05.1.08.02.03.02.08,0,.12l-.2,1.02c.1-.16.23-.33.39-.5s.35-.32.55-.45c.21-.13.43-.24.67-.33.24-.09.49-.13.75-.13s.5.04.7.11.36.17.49.3c.13.13.22.28.29.45.07.17.11.36.13.56.11-.17.24-.33.41-.5s.35-.32.55-.45c.21-.13.43-.24.67-.33.24-.09.49-.13.74-.13.32,0,.6.05.82.14.22.09.4.21.53.37.13.16.23.35.29.56.06.21.09.45.09.7,0,.16,0,.33-.03.49s-.05.33-.08.5l-.76,3.82Z"/>
    <path class="cls-2" d="m157.77,205.9c-.02.1-.09.17-.22.21-.13.04-.33.06-.61.06-.14,0-.26,0-.35-.01-.09,0-.16-.02-.22-.05-.06-.02-.09-.05-.11-.08-.02-.03-.02-.08-.01-.13l.19-.99c-.07.15-.18.3-.33.47-.15.16-.33.31-.54.45s-.44.25-.69.33-.51.13-.78.13c-.37,0-.68-.06-.92-.19s-.44-.3-.59-.52c-.15-.22-.25-.47-.32-.75-.06-.28-.09-.58-.09-.89,0-.29.03-.61.08-.95.06-.34.14-.69.26-1.03.12-.34.26-.67.44-.99.18-.32.4-.6.65-.84.25-.25.54-.44.87-.59.33-.15.69-.22,1.11-.22.38,0,.72.08,1.02.24.3.16.55.39.78.7l.11-.55c.02-.1.09-.17.22-.21.13-.04.33-.06.61-.06.14,0,.25,0,.35.02.09.01.17.03.22.05.05.02.09.05.11.08s.02.08.01.12l-1.24,6.2Zm-.86-4.34c-.16-.25-.34-.45-.54-.57-.2-.13-.42-.19-.68-.19-.19,0-.37.05-.53.14-.16.09-.31.22-.43.37s-.23.33-.33.54c-.1.2-.17.42-.24.63-.06.22-.11.44-.14.67-.03.22-.04.43-.04.62,0,.14,0,.27.03.4.02.12.06.24.11.33s.13.17.22.23c.09.06.21.09.35.09.2,0,.41-.06.62-.18s.41-.29.6-.5c.19-.21.35-.46.49-.74.14-.28.24-.58.31-.9l.19-.94Z"/>
    <path class="cls-2" d="m166.17,199.68c0,.06,0,.13-.02.2-.01.07-.04.15-.06.23-.16.43-.33.86-.51,1.32-.18.45-.39.92-.63,1.4-.24.48-.5.98-.8,1.49-.3.51-.65,1.05-1.03,1.6l-1.69,2.4c-.04.06-.09.11-.16.15-.06.04-.14.07-.24.1s-.21.04-.34.06c-.13.01-.29.02-.46.02-.2,0-.36,0-.48-.02-.12-.02-.21-.04-.27-.08-.05-.04-.08-.08-.08-.14s.04-.12.1-.2l1.58-2.07-1.02-5.95c0-.06-.02-.12-.03-.19,0-.06-.01-.12-.01-.17,0-.08.02-.15.05-.2.03-.05.08-.09.15-.12.07-.03.17-.05.29-.06.12-.01.27-.02.44-.02.19,0,.34,0,.45.01.11,0,.19.02.25.05.06.02.09.06.11.1s.04.1.04.17l.64,4.34h.01c.23-.35.44-.7.63-1.05.19-.36.36-.72.52-1.09s.3-.74.43-1.12.25-.76.36-1.14c0-.05.03-.09.06-.12.03-.03.09-.06.16-.08.08-.02.18-.04.3-.05.12-.01.29-.02.49-.02.3,0,.5.02.61.06.11.04.17.1.17.2Z"/>
    <path class="cls-2" d="m167.95,205.89s-.03.09-.07.12c-.03.03-.09.06-.16.09-.07.02-.17.04-.28.05-.12.01-.26.02-.42.02s-.31,0-.42-.02c-.11-.01-.19-.03-.26-.05-.06-.02-.1-.05-.12-.09-.02-.04-.02-.08-.01-.12l1.24-6.19s.03-.09.07-.12c.04-.03.09-.06.16-.09.07-.02.16-.04.28-.05.11-.01.26-.02.43-.02s.31,0,.42.02c.11.01.19.03.26.05.06.02.1.05.12.09s.02.08.01.12l-1.23,6.19Z"/>
    <path class="cls-2" d="m171.44,205.89s-.03.09-.07.12c-.03.03-.09.06-.16.09-.07.02-.16.04-.28.05-.12.01-.26.02-.42.02-.18,0-.32,0-.43-.02-.11-.01-.19-.03-.25-.05-.06-.02-.1-.05-.12-.09-.02-.04-.03-.08-.02-.12l1.83-9.12s.03-.09.06-.12.08-.07.16-.09.17-.04.28-.06c.11-.01.26-.02.43-.02s.31,0,.42.02c.11.01.19.03.25.06s.1.06.12.09.02.08.01.12l-1.82,9.12Z"/>
    <path class="cls-2" d="m174.93,205.89s-.03.09-.07.12c-.03.03-.09.06-.16.09-.07.02-.16.04-.28.05-.12.01-.26.02-.42.02-.18,0-.32,0-.43-.02-.11-.01-.19-.03-.25-.05-.06-.02-.1-.05-.12-.09-.02-.04-.03-.08-.02-.12l1.83-9.12s.03-.09.06-.12.08-.07.16-.09.17-.04.28-.06c.11-.01.26-.02.43-.02s.31,0,.42.02c.11.01.19.03.25.06s.1.06.12.09.02.08.01.12l-1.82,9.12Z"/>
    <path class="cls-2" d="m178.42,205.89s-.03.09-.07.12c-.03.03-.09.06-.16.09-.07.02-.17.04-.28.05-.12.01-.26.02-.42.02s-.31,0-.42-.02c-.11-.01-.19-.03-.26-.05-.06-.02-.1-.05-.12-.09-.02-.04-.02-.08-.01-.12l1.24-6.19s.03-.09.07-.12c.04-.03.09-.06.16-.09.07-.02.16-.04.28-.05.11-.01.26-.02.43-.02s.31,0,.42.02c.11.01.19.03.26.05.06.02.1.05.12.09s.02.08.01.12l-1.23,6.19Z"/>
  </g>
  <g>
    <path class="cls-2" d="m194.42,303.3c.02.17.03.3.03.4,0,.1-.03.17-.1.22-.06.05-.17.08-.31.09-.14.01-.34.02-.59.02-.18,0-.32,0-.43-.01s-.2-.02-.26-.04c-.06-.02-.1-.05-.12-.08-.02-.04-.04-.09-.04-.15l-.24-1.8h-3.37l-.93,1.76c-.03.06-.07.12-.11.16-.04.04-.1.08-.18.1-.08.02-.18.04-.32.05-.13,0-.3.01-.5.01-.21,0-.38,0-.5-.02-.12-.01-.2-.05-.24-.1-.04-.05-.04-.13-.01-.23.03-.1.09-.23.18-.39l4.36-7.96c.05-.08.09-.14.14-.19.05-.05.11-.09.2-.11s.2-.04.35-.05c.15,0,.34-.01.57-.01.27,0,.49,0,.65.01s.28.02.37.05.15.06.17.11c.03.05.05.12.06.21l1.17,7.96Zm-2.73-6.58h0l-2,3.82h2.53l-.51-3.82Z"/>
    <path class="cls-2" d="m201.18,304c-.08.42-.21.79-.39,1.1-.18.31-.41.57-.69.78-.29.21-.63.37-1.04.48-.41.11-.89.16-1.43.16-.39,0-.75-.03-1.06-.09s-.57-.14-.78-.24c-.07-.04-.12-.08-.15-.12-.03-.05-.04-.11-.04-.19,0-.03,0-.07,0-.14,0-.06.01-.14.03-.21.02-.08.04-.16.06-.25.02-.09.05-.16.09-.23.03-.07.07-.12.11-.17.04-.04.09-.07.15-.07s.12.02.21.06c.08.04.19.08.32.13.13.05.3.09.5.13.2.04.44.06.74.06.24,0,.45-.02.63-.06s.35-.1.49-.18c.14-.08.25-.19.34-.32.08-.13.15-.29.18-.48.06-.3.12-.55.18-.76.06-.2.12-.37.17-.5-.08.15-.2.3-.36.46-.15.15-.33.29-.53.41-.2.12-.41.22-.64.29-.23.07-.46.11-.69.11-.36,0-.66-.06-.9-.18-.24-.12-.44-.29-.59-.5s-.26-.46-.33-.75c-.07-.29-.1-.6-.1-.93,0-.3.03-.62.08-.97s.14-.69.26-1.03c.12-.34.27-.67.45-.99.18-.31.4-.59.65-.84.25-.24.54-.44.87-.58s.69-.21,1.1-.21c.38,0,.72.08,1.02.24.3.16.55.39.78.7l.11-.55c.02-.1.09-.17.22-.21.13-.04.33-.06.61-.06.14,0,.25,0,.35.02.09.01.17.03.22.05.05.02.09.05.11.08.02.04.02.08.01.12l-1.3,6.45Zm-.8-4.59c-.16-.25-.34-.45-.54-.57-.2-.13-.42-.19-.68-.19-.19,0-.37.05-.53.14-.16.09-.3.22-.43.37-.13.16-.24.33-.33.54-.1.2-.17.42-.24.64-.06.22-.11.44-.14.67-.03.22-.04.43-.04.63,0,.16.01.3.04.43.03.13.07.24.13.33.06.09.13.16.22.21.09.05.2.07.33.07.2,0,.41-.06.62-.18.21-.12.41-.29.6-.5.19-.21.35-.46.49-.74.14-.28.24-.58.31-.9l.19-.94Zm1.84-4.95s-.01.13-.03.25-.06.25-.12.4c-.06.15-.14.3-.25.46-.11.16-.25.31-.42.44-.17.13-.38.24-.63.32s-.55.12-.89.12-.64-.04-.87-.11c-.23-.07-.41-.18-.54-.3-.13-.13-.23-.28-.28-.45-.05-.17-.08-.34-.08-.52,0-.05,0-.11,0-.18,0-.07.01-.14.02-.2,0-.07.02-.13.04-.18.02-.05.04-.09.06-.11.04-.04.1-.07.19-.08s.21-.03.36-.03c.11,0,.2,0,.27.01.07,0,.13.02.17.04.04.02.07.04.08.07s.02.05.02.09c0,.04,0,.09,0,.14,0,.05-.01.11-.01.16,0,.09.01.17.03.24.02.07.06.13.11.18s.12.09.21.12c.08.03.19.04.32.04s.25-.02.36-.05c.11-.03.21-.08.3-.15.09-.07.17-.15.23-.25.06-.1.12-.22.15-.36.02-.05.04-.09.07-.12.03-.04.06-.06.11-.08.05-.02.11-.04.18-.05s.17-.02.29-.02.22,0,.29.01c.07,0,.13.02.17.04.04.01.07.03.08.06.01.03.02.05.02.08Z"/>
    <path class="cls-2" d="m208.09,297.83c0,.06,0,.14-.02.25-.02.11-.04.22-.07.33-.03.11-.07.21-.11.29-.04.08-.09.12-.15.12-.06,0-.13-.02-.21-.07s-.18-.09-.29-.15c-.12-.05-.25-.1-.41-.14-.16-.04-.34-.06-.54-.06-.16,0-.31.02-.43.06-.13.04-.23.1-.32.17-.08.07-.15.16-.19.25-.04.1-.07.2-.07.31,0,.14.06.26.18.36s.26.19.44.27c.18.08.37.17.57.27.2.09.39.21.57.35.18.14.32.31.44.51.12.2.17.45.17.75,0,.35-.07.68-.2.98-.13.3-.33.56-.59.77s-.57.39-.94.51c-.37.12-.78.18-1.25.18-.22,0-.43-.02-.64-.05-.2-.03-.38-.07-.54-.12-.16-.05-.29-.1-.41-.16-.11-.06-.19-.12-.25-.17-.04-.04-.06-.08-.08-.12-.02-.04-.02-.09-.02-.16,0-.04,0-.09.01-.16,0-.06.02-.14.03-.21.02-.08.04-.16.06-.24.02-.08.04-.15.07-.22.03-.06.06-.12.09-.16.03-.04.07-.06.1-.06.06,0,.14.03.21.08s.18.12.31.18c.12.07.28.13.46.19.18.06.41.09.68.09.19,0,.35-.02.5-.07.14-.04.26-.11.35-.18.09-.08.16-.17.2-.27.04-.1.07-.21.07-.33,0-.16-.06-.29-.17-.4-.11-.1-.26-.2-.43-.28s-.36-.18-.56-.27-.39-.21-.56-.34-.31-.3-.43-.5c-.11-.2-.17-.45-.17-.75,0-.33.06-.63.19-.92s.31-.53.55-.74c.24-.21.53-.37.87-.49.34-.12.73-.18,1.17-.18.19,0,.38.01.57.04s.35.06.49.1c.15.04.27.09.38.14s.19.1.23.15c.05.05.08.12.08.24Z"/>
    <path class="cls-2" d="m214.33,303.75s-.03.09-.06.12c-.03.03-.08.06-.14.08s-.14.04-.24.05c-.1.01-.22.02-.36.02s-.26,0-.35-.02c-.09-.01-.16-.03-.21-.05-.05-.02-.08-.05-.1-.08-.02-.04-.02-.08,0-.12l.19-1.01c-.09.16-.22.33-.38.49s-.35.31-.56.45c-.21.14-.44.25-.68.33-.25.08-.5.12-.76.12-.32,0-.6-.04-.82-.13-.22-.09-.41-.21-.54-.37-.14-.15-.24-.34-.3-.56-.06-.22-.09-.45-.09-.71,0-.16.01-.32.03-.48s.05-.33.08-.5l.76-3.84s.03-.09.07-.12.09-.06.16-.08c.07-.02.17-.04.28-.05.12-.01.26-.02.42-.02s.31,0,.42.02c.11.01.19.03.25.05.06.02.1.05.12.08.02.04.03.08.02.12l-.74,3.72c-.02.1-.04.21-.05.32-.01.11-.02.22-.02.32,0,.11,0,.21.03.3.02.09.05.17.1.23.05.06.1.11.18.15.07.03.16.05.26.05.19,0,.39-.06.59-.18.21-.12.4-.29.59-.51.18-.22.35-.47.5-.76s.26-.61.33-.95l.53-2.68s.02-.09.06-.12c.04-.03.09-.06.16-.08.07-.02.17-.04.28-.05.12-.01.26-.02.42-.02s.31,0,.42.02c.11.01.19.03.26.05s.1.05.12.08c.02.04.02.08.01.12l-1.24,6.2Z"/>
  </g>
  <g>
    <path class="cls-2" d="m265.12,214.72c-.38-.05-.69-.11-.93-.2s-.43-.17-.56-.24c-.14-.08-.24-.15-.3-.22-.06-.07-.1-.17-.1-.31,0-.04,0-.09.01-.17,0-.07.02-.15.04-.24.02-.09.04-.17.06-.26.02-.09.05-.17.08-.25.03-.07.07-.13.11-.18.04-.05.08-.07.13-.07.08,0,.17.04.28.11s.24.15.41.24.35.17.58.24c.22.07.49.11.8.11.27,0,.51-.03.72-.1s.38-.16.52-.28c.14-.12.24-.26.32-.42.07-.16.11-.33.11-.52,0-.17-.04-.32-.12-.45-.08-.13-.19-.25-.33-.36-.14-.11-.29-.21-.46-.31-.17-.1-.35-.2-.53-.31-.18-.11-.36-.23-.53-.36-.17-.13-.33-.28-.46-.45s-.25-.37-.33-.6c-.08-.23-.12-.49-.12-.79,0-.42.08-.8.25-1.15.17-.35.4-.65.69-.91.3-.25.65-.45,1.06-.59.41-.14.87-.21,1.36-.21.23,0,.45.02.66.05s.4.08.57.13c.17.05.32.11.44.18.12.06.2.12.25.16.05.04.08.09.1.14.02.05.03.11.03.18,0,.04,0,.09-.01.16s-.02.15-.03.23c-.01.08-.03.17-.05.25-.02.09-.05.16-.08.24-.03.07-.06.13-.1.18-.04.05-.08.07-.12.07-.07,0-.15-.03-.24-.09-.1-.06-.22-.12-.36-.19-.14-.07-.31-.13-.5-.19-.19-.06-.4-.09-.65-.09s-.46.03-.63.1c-.17.07-.32.16-.43.27-.11.11-.19.24-.25.38-.05.14-.08.28-.08.43,0,.17.04.31.12.44.08.13.19.25.33.35.14.11.3.21.48.32s.36.21.54.32c.18.11.36.23.54.36.18.13.34.28.48.46.14.17.25.37.33.6.08.22.12.48.12.77,0,.44-.09.84-.26,1.2-.17.37-.41.68-.7.94-.3.26-.62.46-.98.6-.35.14-.65.22-.9.25l.09.37c.03.12.06.22.08.33.02.1.03.2.03.31,0,.25-.04.47-.12.65-.08.18-.2.33-.34.45-.15.12-.32.2-.53.26-.21.06-.43.08-.68.08-.13,0-.27,0-.39-.01s-.24-.02-.35-.04-.2-.04-.29-.07c-.09-.03-.15-.05-.21-.07-.05-.03-.09-.06-.1-.09-.02-.03-.03-.08-.03-.14,0-.05,0-.11.02-.19s.03-.17.06-.25c.03-.08.07-.16.11-.22.05-.06.11-.09.18-.09h.79c.06,0,.13,0,.19-.02.06-.02.11-.04.16-.07s.08-.07.1-.12c.03-.05.04-.11.04-.17,0-.05,0-.1-.01-.16s-.02-.12-.03-.18l-.12-.49Z"/>
    <path class="cls-2" d="m275.88,214.36c-.02.1-.09.17-.22.21-.13.04-.33.06-.61.06-.14,0-.26,0-.35-.01-.09,0-.16-.02-.22-.05-.06-.02-.09-.05-.11-.08-.02-.03-.02-.08-.01-.13l.19-.99c-.07.15-.18.3-.33.47-.15.16-.33.31-.54.45s-.44.25-.69.33-.51.13-.78.13c-.37,0-.68-.06-.92-.19s-.44-.3-.59-.52c-.15-.22-.25-.47-.32-.75-.06-.28-.09-.58-.09-.89,0-.29.03-.61.08-.95.06-.34.14-.69.26-1.03.12-.34.26-.67.44-.99.18-.32.4-.6.65-.84.25-.25.54-.44.87-.59.33-.15.69-.22,1.11-.22.38,0,.72.08,1.02.24.3.16.55.39.78.7l.11-.55c.02-.1.09-.17.22-.21.13-.04.33-.06.61-.06.14,0,.25,0,.35.02.09.01.17.03.22.05.05.02.09.05.11.08s.02.08.01.12l-1.24,6.2Zm-.86-4.34c-.16-.25-.34-.45-.54-.57-.2-.13-.42-.19-.68-.19-.19,0-.37.05-.53.14-.16.09-.31.22-.43.37s-.23.33-.33.54c-.1.2-.17.42-.24.63-.06.22-.11.44-.14.67-.03.22-.04.43-.04.62,0,.14,0,.27.03.4.02.12.06.24.11.33s.13.17.22.23c.09.06.21.09.35.09.2,0,.41-.06.62-.18s.41-.29.6-.5c.19-.21.35-.46.49-.74.14-.28.24-.58.31-.9l.19-.94Z"/>
    <path class="cls-2" d="m287.34,214.35s-.03.09-.07.12c-.04.03-.09.06-.16.09-.07.02-.17.04-.28.05-.11.01-.26.02-.43.02s-.31,0-.42-.02c-.11-.01-.2-.03-.26-.05-.06-.02-.1-.05-.12-.09-.02-.04-.02-.08,0-.12l.74-3.71c.02-.11.04-.21.05-.32s.02-.21.02-.32c0-.22-.04-.39-.12-.53-.08-.13-.23-.2-.43-.2-.19,0-.38.06-.58.18s-.39.28-.57.49c-.18.21-.34.45-.49.72-.14.28-.24.57-.3.88l-.56,2.8s-.03.09-.07.12c-.03.03-.09.06-.16.09-.07.02-.17.04-.28.05-.11.01-.26.02-.43.02s-.3,0-.41-.02c-.11-.01-.19-.03-.25-.05-.06-.02-.1-.05-.12-.09-.02-.04-.03-.08-.02-.12l.74-3.71c.03-.11.05-.22.06-.33.01-.11.02-.22.02-.33,0-.2-.04-.37-.12-.5s-.23-.2-.43-.2c-.18,0-.38.06-.58.18-.2.12-.39.28-.57.49-.18.21-.34.45-.49.72-.14.28-.24.57-.3.88l-.56,2.8s-.03.09-.07.12c-.03.03-.09.06-.16.09-.07.02-.17.04-.28.05-.12.01-.26.02-.42.02s-.31,0-.42-.02c-.11-.01-.19-.03-.26-.05-.06-.02-.1-.05-.12-.09-.02-.04-.02-.08-.01-.12l1.24-6.2s.03-.09.06-.12c.03-.03.08-.06.14-.08.06-.02.14-.04.24-.05.1-.01.22-.02.36-.02s.26,0,.35.02c.09.01.16.03.21.05.05.02.08.05.1.08.02.03.02.08,0,.12l-.2,1.02c.1-.16.23-.33.39-.5s.35-.32.55-.45c.21-.13.43-.24.67-.33.24-.09.49-.13.75-.13s.5.04.7.11.36.17.49.3c.13.13.22.28.29.45.07.17.11.36.13.56.11-.17.24-.33.41-.5s.35-.32.55-.45c.21-.13.43-.24.67-.33.24-.09.49-.13.74-.13.32,0,.6.05.82.14.22.09.4.21.53.37.13.16.23.35.29.56.06.21.09.45.09.7,0,.16,0,.33-.03.49s-.05.33-.08.5l-.76,3.82Z"/>
    <path class="cls-2" d="m294.8,214.36c-.02.1-.09.17-.22.21-.13.04-.33.06-.61.06-.14,0-.26,0-.35-.01-.09,0-.16-.02-.22-.05-.06-.02-.09-.05-.11-.08-.02-.03-.02-.08-.01-.13l.19-.99c-.07.15-.18.3-.33.47-.15.16-.33.31-.54.45s-.44.25-.69.33-.51.13-.78.13c-.37,0-.68-.06-.92-.19s-.44-.3-.59-.52c-.15-.22-.25-.47-.32-.75-.06-.28-.09-.58-.09-.89,0-.29.03-.61.08-.95.06-.34.14-.69.26-1.03.12-.34.26-.67.44-.99.18-.32.4-.6.65-.84.25-.25.54-.44.87-.59.33-.15.69-.22,1.11-.22.38,0,.72.08,1.02.24.3.16.55.39.78.7l.11-.55c.02-.1.09-.17.22-.21.13-.04.33-.06.61-.06.14,0,.25,0,.35.02.09.01.17.03.22.05.05.02.09.05.11.08s.02.08.01.12l-1.24,6.2Zm-.86-4.34c-.16-.25-.34-.45-.54-.57-.2-.13-.42-.19-.68-.19-.19,0-.37.05-.53.14-.16.09-.31.22-.43.37s-.23.33-.33.54c-.1.2-.17.42-.24.63-.06.22-.11.44-.14.67-.03.22-.04.43-.04.62,0,.14,0,.27.03.4.02.12.06.24.11.33s.13.17.22.23c.09.06.21.09.35.09.2,0,.41-.06.62-.18s.41-.29.6-.5c.19-.21.35-.46.49-.74.14-.28.24-.58.31-.9l.19-.94Z"/>
    <path class="cls-2" d="m300.86,211.14l1.11,3.08c.02.08.03.14.01.19-.01.05-.06.09-.13.12-.07.03-.17.05-.31.07-.13.01-.31.02-.52.02-.19,0-.35,0-.46-.01s-.2-.02-.26-.04c-.06-.02-.1-.04-.12-.08-.02-.03-.04-.07-.04-.11l-.75-2.19-1.57,2.19s-.06.08-.09.11c-.04.03-.09.05-.17.07-.08.02-.19.03-.32.04s-.31.01-.53.01c-.2,0-.36,0-.48-.02-.12-.01-.21-.03-.26-.06s-.08-.07-.07-.12c0-.05.04-.11.09-.19l2.35-3.08-1.03-2.86c-.03-.08-.04-.15-.03-.21,0-.05.04-.1.11-.13.06-.03.16-.05.29-.07.13-.01.31-.02.52-.02.19,0,.34,0,.45.01.11,0,.19.02.25.03.06.01.1.04.12.07.02.03.04.07.05.11l.72,2.07,1.49-2.07s.06-.07.09-.1.08-.05.15-.07.16-.03.27-.04c.11,0,.26-.01.45-.01.21,0,.38,0,.51.01.13,0,.22.03.28.06.06.03.09.07.08.11,0,.05-.04.11-.1.2l-2.15,2.88Z"/>
    <path class="cls-2" d="m304.83,214.35s-.03.09-.07.12c-.03.03-.09.06-.16.09-.07.02-.17.04-.28.05-.12.01-.26.02-.42.02s-.31,0-.42-.02c-.11-.01-.19-.03-.26-.05-.06-.02-.1-.05-.12-.09-.02-.04-.02-.08-.01-.12l1.24-6.19s.03-.09.07-.12c.04-.03.09-.06.16-.09.07-.02.16-.04.28-.05.11-.01.26-.02.43-.02s.31,0,.42.02c.11.01.19.03.26.05.06.02.1.05.12.09s.02.08.01.12l-1.23,6.19Z"/>
  </g>
  <g>
    <path class="cls-2" d="m349.56,313.45s0,.1-.01.18c0,.08-.02.16-.04.26s-.04.19-.07.28-.06.18-.1.26c-.04.08-.08.14-.12.19-.04.05-.09.07-.15.07-.05,0-.12-.01-.23-.04-.1-.03-.23-.07-.37-.12-.14-.06-.3-.13-.47-.23-.17-.09-.35-.21-.53-.34-.18-.13-.36-.29-.54-.46-.18-.17-.35-.37-.51-.59-.25.11-.51.2-.81.25-.29.06-.62.09-.98.09-.56,0-1.05-.06-1.48-.19-.43-.12-.79-.32-1.08-.58-.29-.26-.51-.58-.66-.98-.15-.39-.23-.86-.23-1.39,0-.43.04-.89.11-1.36.08-.47.2-.94.37-1.39.17-.46.39-.89.66-1.3.27-.41.6-.78.99-1.09.39-.31.83-.56,1.35-.75s1.09-.27,1.75-.27c.55,0,1.05.06,1.48.19.43.13.79.32,1.08.58.29.26.51.59.66.99.15.4.23.87.23,1.4,0,.26-.01.54-.04.83-.03.29-.08.58-.14.88-.06.3-.15.59-.25.89-.1.3-.23.59-.38.87-.15.28-.32.55-.51.81-.2.26-.42.5-.67.73.22.23.42.4.6.53.19.12.35.22.49.29.14.07.26.12.35.16s.16.07.19.1.05.06.06.1c0,.03.01.08.01.15Zm-1.64-6.17c0-.28-.03-.54-.09-.77-.06-.23-.16-.42-.3-.58s-.32-.28-.55-.36c-.23-.09-.5-.13-.82-.13-.4,0-.76.08-1.06.23-.31.16-.57.36-.8.61-.22.25-.41.54-.57.86-.15.32-.28.65-.37.98-.09.33-.16.65-.2.97-.04.32-.06.59-.06.83,0,.29.03.54.09.77s.16.42.31.57c.14.16.32.27.55.36.22.08.5.12.82.12.4,0,.75-.08,1.05-.23s.57-.35.79-.6c.22-.25.41-.53.57-.85s.28-.64.37-.97c.09-.33.16-.65.2-.96.04-.31.06-.59.06-.84Z"/>
    <path class="cls-2" d="m357.24,308.73c0,.33-.03.68-.09,1.03s-.16.7-.29,1.03c-.13.33-.31.65-.52.94-.21.29-.46.55-.76.78s-.63.4-1.01.53c-.38.13-.81.19-1.28.19s-.87-.05-1.21-.16c-.34-.11-.62-.27-.85-.48-.23-.21-.39-.47-.51-.78s-.17-.66-.17-1.06c0-.33.03-.68.09-1.03s.16-.69.29-1.03c.13-.33.31-.65.52-.95.21-.3.46-.56.76-.78.29-.22.63-.4,1.01-.53.38-.13.81-.19,1.28-.19s.87.05,1.21.16c.34.11.62.27.85.48s.4.47.51.78.17.66.17,1.06Zm-1.8.12c0-.19-.02-.37-.06-.52s-.1-.28-.19-.38-.21-.18-.35-.24c-.14-.06-.31-.08-.52-.08-.23,0-.44.04-.62.13-.19.09-.35.21-.5.36s-.27.33-.38.53-.19.41-.26.63c-.07.22-.12.45-.15.68-.03.23-.05.45-.05.66,0,.19.02.37.06.52.04.15.1.28.19.38.09.1.21.18.35.24.14.06.31.08.52.08.23,0,.44-.05.62-.14.18-.09.35-.21.5-.37.15-.15.27-.33.38-.53s.19-.41.26-.64c.07-.22.12-.45.15-.68.03-.23.05-.44.05-.65Z"/>
    <path class="cls-2" d="m364.74,308.62c0,.31-.03.63-.08.98-.06.35-.14.69-.26,1.03-.12.34-.26.67-.44.99-.18.31-.4.59-.65.83-.25.24-.54.43-.87.58s-.69.21-1.09.21-.73-.08-1.03-.23-.56-.38-.77-.69l-.1.53c-.02.1-.09.17-.22.21-.13.04-.33.07-.61.07s-.47-.02-.57-.07c-.1-.05-.14-.12-.12-.21l1.83-9.12s.03-.09.06-.12c.03-.04.08-.07.16-.09.07-.02.17-.04.28-.06s.26-.02.43-.02.31,0,.42.02.19.03.25.06c.06.03.1.06.12.09.02.04.02.08.01.12l-.49,2.48c-.02.11-.05.22-.08.34-.03.12-.06.23-.09.35-.04.12-.07.23-.1.34s-.07.2-.1.29c.08-.15.2-.3.36-.45.16-.15.33-.29.53-.41.2-.12.41-.22.64-.29.23-.07.46-.11.69-.11.26,0,.49.03.69.1.19.07.36.16.51.27.14.12.26.25.35.41s.17.32.22.5c.06.17.09.35.12.54.02.19.03.37.03.54Zm-1.8.17c0-.12,0-.24-.02-.36-.02-.12-.05-.24-.1-.34-.05-.1-.13-.18-.22-.25-.09-.07-.21-.1-.37-.1-.21,0-.42.06-.63.18-.21.12-.41.29-.59.5s-.35.46-.49.74c-.14.28-.25.58-.31.9l-.19.94c.16.25.34.44.54.57.2.12.42.18.68.18.18,0,.36-.04.51-.14.16-.09.3-.21.43-.36.13-.15.24-.32.33-.52.09-.2.17-.41.24-.63.07-.22.11-.44.15-.67.03-.23.05-.45.05-.66Z"/>
    <path class="cls-2" d="m371.15,312.85s-.03.09-.06.12c-.03.03-.08.06-.14.08s-.14.04-.24.05c-.1.01-.22.02-.36.02s-.26,0-.35-.02c-.09-.01-.16-.03-.21-.05-.05-.02-.08-.05-.1-.08-.02-.04-.02-.08,0-.12l.19-1.01c-.09.16-.22.33-.38.49s-.35.31-.56.45c-.21.14-.44.25-.68.33-.25.08-.5.12-.76.12-.32,0-.6-.04-.82-.13-.22-.09-.41-.21-.54-.37-.14-.15-.24-.34-.3-.56-.06-.22-.09-.45-.09-.71,0-.16.01-.32.03-.48s.05-.33.08-.5l.76-3.84s.03-.09.07-.12.09-.06.16-.08c.07-.02.17-.04.28-.05.12-.01.26-.02.42-.02s.31,0,.42.02c.11.01.19.03.25.05.06.02.1.05.12.08.02.04.03.08.02.12l-.74,3.72c-.02.1-.04.21-.05.32-.01.11-.02.22-.02.32,0,.11,0,.21.03.3.02.09.05.17.1.23.05.06.1.11.18.15.07.03.16.05.26.05.19,0,.39-.06.59-.18.21-.12.4-.29.59-.51.18-.22.35-.47.5-.76s.26-.61.33-.95l.53-2.68s.02-.09.06-.12c.04-.03.09-.06.16-.08.07-.02.17-.04.28-.05.12-.01.26-.02.42-.02s.31,0,.42.02c.11.01.19.03.26.05s.1.05.12.08c.02.04.02.08.01.12l-1.24,6.2Z"/>
    <path class="cls-2" d="m378,306.92c0,.06,0,.14-.02.25-.02.11-.04.22-.07.33-.03.11-.07.21-.11.29-.04.08-.09.12-.15.12-.06,0-.13-.02-.21-.07s-.18-.09-.29-.15c-.12-.05-.25-.1-.41-.14-.16-.04-.34-.06-.54-.06-.16,0-.31.02-.43.06-.13.04-.23.1-.32.17-.08.07-.15.16-.19.25-.04.1-.07.2-.07.31,0,.14.06.26.18.36s.26.19.44.27c.18.08.37.17.57.27.2.09.39.21.57.35.18.14.32.31.44.51.12.2.17.45.17.75,0,.35-.07.68-.2.98-.13.3-.33.56-.59.77s-.57.39-.94.51c-.37.12-.78.18-1.25.18-.22,0-.43-.02-.64-.05-.2-.03-.38-.07-.54-.12-.16-.05-.29-.1-.41-.16-.11-.06-.19-.12-.25-.17-.04-.04-.06-.08-.08-.12-.02-.04-.02-.09-.02-.16,0-.04,0-.09.01-.16,0-.06.02-.14.03-.21.02-.08.04-.16.06-.24.02-.08.04-.15.07-.22.03-.06.06-.12.09-.16.03-.04.07-.06.1-.06.06,0,.14.03.21.08s.18.12.31.18c.12.07.28.13.46.19.18.06.41.09.68.09.19,0,.35-.02.5-.07.14-.04.26-.11.35-.18.09-.08.16-.17.2-.27.04-.1.07-.21.07-.33,0-.16-.06-.29-.17-.4-.11-.1-.26-.2-.43-.28s-.36-.18-.56-.27-.39-.21-.56-.34-.31-.3-.43-.5c-.11-.2-.17-.45-.17-.75,0-.33.06-.63.19-.92s.31-.53.55-.74c.24-.21.53-.37.87-.49.34-.12.73-.18,1.17-.18.19,0,.38.01.57.04s.35.06.49.1c.15.04.27.09.38.14s.19.1.23.15c.05.05.08.12.08.24Z"/>
    <path class="cls-2" d="m383.2,306.71s0,.1-.01.18c0,.07-.02.15-.04.23-.02.08-.04.17-.07.25-.03.08-.06.16-.09.23-.03.07-.07.12-.12.17s-.09.07-.14.07h-1.35l-.58,2.91c-.01.07-.03.15-.04.25s-.02.17-.02.23c0,.18.04.32.13.41.09.09.23.13.42.13.11,0,.21,0,.28-.02.08-.02.15-.03.21-.06.06-.02.11-.04.15-.06.04-.02.08-.02.12-.02s.07.02.09.05c.03.03.04.09.04.17,0,.09,0,.19-.03.3-.02.11-.04.22-.07.32-.03.1-.06.2-.1.28s-.08.15-.12.19c-.04.04-.1.08-.19.12-.08.04-.18.07-.29.1-.11.03-.24.05-.36.07-.13.02-.26.02-.39.02-.28,0-.52-.03-.73-.09-.21-.06-.39-.15-.53-.27-.14-.12-.25-.29-.32-.48-.07-.19-.11-.43-.11-.71,0-.05,0-.11,0-.18,0-.07.01-.14.02-.21s.02-.15.04-.23c.01-.08.02-.14.04-.21l.6-3.02h-.75c-.06,0-.1-.02-.13-.06-.03-.04-.04-.11-.04-.23,0-.08,0-.18.02-.31.02-.13.04-.25.08-.38.04-.12.09-.23.15-.32.06-.09.13-.13.21-.13h.74l.28-1.38s.03-.09.07-.12c.03-.04.09-.07.16-.09.07-.03.16-.04.28-.05.11-.01.26-.02.43-.02s.31,0,.42.02c.11.01.2.03.26.05.06.03.1.06.12.09.02.04.03.08.02.12l-.28,1.38h1.34c.08,0,.13.03.16.08.03.05.04.12.04.22Z"/>
    <path class="cls-2" d="m388.84,312.85c-.02.1-.09.17-.22.21-.13.04-.33.06-.61.06-.14,0-.26,0-.35-.01-.09,0-.16-.02-.22-.04-.06-.02-.09-.05-.11-.08-.02-.04-.02-.08-.01-.13l.19-.99c-.07.15-.18.3-.33.47s-.33.31-.54.45c-.21.13-.44.25-.69.33s-.51.13-.78.13c-.37,0-.68-.06-.92-.19-.25-.13-.44-.3-.59-.52-.15-.22-.25-.47-.32-.75s-.09-.58-.09-.89c0-.29.03-.61.08-.95s.14-.69.26-1.03c.12-.34.26-.67.44-.99.18-.32.4-.6.65-.84.25-.25.54-.44.87-.59.33-.15.69-.22,1.11-.22.38,0,.72.08,1.02.24.3.16.55.39.78.7l.11-.55c.02-.1.09-.17.22-.21.13-.04.33-.06.61-.06.14,0,.25,0,.35.02.09.01.17.03.22.05.05.02.09.05.11.08.02.04.02.08.01.12l-1.24,6.2Zm-.86-4.34c-.16-.25-.34-.45-.54-.57-.2-.13-.42-.19-.68-.19-.19,0-.37.05-.53.14-.16.09-.31.22-.43.37-.12.16-.23.33-.33.54-.1.2-.17.42-.24.63s-.11.44-.14.67c-.03.22-.04.43-.04.62,0,.14,0,.27.03.4.02.12.06.24.11.33.06.1.13.17.22.23.09.06.21.09.35.09.2,0,.41-.06.62-.18.21-.12.41-.29.6-.5.19-.21.35-.46.49-.74.14-.28.24-.58.31-.9l.19-.94Z"/>
    <path class="cls-2" d="m397.25,308.03c0,.16-.01.32-.03.49s-.05.33-.08.5l-.77,3.82s-.03.09-.07.12-.09.06-.16.09c-.07.02-.17.04-.28.05s-.25.02-.43.02-.31,0-.42-.02c-.11-.01-.19-.03-.25-.05-.06-.02-.1-.05-.12-.09-.02-.04-.03-.08-.02-.12l.75-3.71c.02-.11.04-.22.05-.34.01-.12.02-.22.02-.31,0-.21-.04-.38-.13-.51-.09-.13-.24-.2-.44-.2-.19,0-.39.06-.59.18-.21.12-.4.28-.58.49-.18.21-.35.45-.49.72-.14.28-.25.57-.31.88l-.56,2.8s-.03.09-.07.12-.09.06-.16.09c-.07.02-.17.04-.28.05-.12.01-.26.02-.42.02s-.31,0-.42-.02c-.11-.01-.19-.03-.26-.05-.06-.02-.1-.05-.12-.09-.02-.04-.02-.08-.01-.12l1.24-6.2s.03-.09.06-.12c.03-.03.08-.06.14-.08.06-.02.14-.04.24-.05.1-.01.22-.02.36-.02s.26,0,.35.02c.09.01.16.03.21.05.05.02.08.05.1.08.02.04.02.08,0,.12l-.2,1.02c.1-.16.23-.33.39-.5s.35-.32.56-.45c.21-.13.44-.24.69-.33.25-.08.51-.13.77-.13.32,0,.59.05.82.14.22.1.4.22.53.39.14.16.23.35.29.57.06.21.09.44.09.68Z"/>
  </g>
</svg>