<?xml version="1.0" encoding="utf-8"?>
<!-- Generator: Adobe Illustrator 27.1.1, SVG Export Plug-In . SVG Version: 6.00 Build 0)  -->
<svg version="1.1" id="Layer_1" xmlns="http://www.w3.org/2000/svg" xmlns:xlink="http://www.w3.org/1999/xlink" x="0px" y="0px"
	 viewBox="0 0 750 750" style="enable-background:new 0 0 750 750;" xml:space="preserve">

<g>
	<g>
		<path class="st0" d="M521.98,330.15c-0.39,0.28-0.95,0.32-1.35,0.6c-0.26,0.19-0.51,0.93-0.75,1.03
			c-2.26,0.95-4.99-0.68-7.15,0.83c-1,0.7-1.37,1.74-2.15,2.66c-0.72,0.85-1.46,1.27-2.32,1.82c-1.25,0.8-2.18,0.92-3.6,1.33
			c-1.64,0.48-3.07,1.45-4.82,1.74c-2.69,0.45-5.64-0.1-8.3-0.21c-5.77-0.24-7.39,6.69-8.8,11.15c-1.16,3.66-2.44,7.32-3.86,10.89
			c-1.23,3.1-2.24,5.73-1.26,8.93c1.02,3.32,1.65,6.34,2.22,9.72c0.31,1.83,0.99,3.69,1.17,5.51c0.18,1.78,0.62,3.46,0.6,5.28
			c-0.03,2.6,0.52,5.8-0.14,8.31c-0.3,1.14-0.71,2.34-1,3.34c-0.16,0.55,0,1.13-0.25,1.64c-0.09,0.18-0.62,0.28-0.77,0.49
			c-0.34,0.49-0.49,1.01-0.78,1.56c-0.94,1.79-2.39,3.27-3.3,5.13c-0.63,1.28-1.22,2.59-1.76,3.85c-0.93,2.17-2.08,4.18-3.5,6.13
			c-0.77,1.05-1.39,2.11-1.94,3.21c-0.7,1.38-0.16,3.71,0.3,5.33c0.54,1.89,1.6,3.54,2.58,5.22c1.62,2.79,2.74,5.86,4.51,8.55
			c2.29,3.47,4.86,6.42,4.78,10.86c-0.06,3.44,1.09,6.86,0.66,10.28c-0.24,1.97-1.12,3.94-1.34,5.95c-0.22,2-0.04,4.35,0.33,6.31
			c0.81,4.26,0.77,8.74,2.25,12.83c0.76,2.1,1.99,3.99,2.57,6.13c0.59,2.14,1.23,4.54,1.32,6.78c0.14,3.61-0.39,7.34-0.05,10.94
			c0.41,4.37-0.15,9.06-1.92,13.14c-0.72,1.66-2.75,3.37-3.8,4.78c-1.59,2.14-3.04,4.39-4.93,6.28c-2.05,2.04-1.36,2.85-0.91,5.57
			c0.37,2.2-0.35,4.56-0.73,6.73c-0.78,4.39-2.05,8.16-5.02,11.58c-1.27,1.46-2.38,2.85-3.75,4.18c-3.12,3.04-7.79,2.49-11.6,3.81
			c-1.86,0.64-4.07,1.56-5.78,2.62c-2.97,1.83-3.26,4.36-1.58,7.41c1.06,1.93,2.41,3.75,4.51,4.64c1.55,0.66,3.38,0.78,5.04,0.94
			c2.94,0.28,6.02,0.8,8.97,0.62c4.6-0.28,9.43-1.75,13.55-3.75c0.91-0.44,2.43-1.3,3.96-1.77c-0.17-0.4-0.32-0.73-0.41-0.95
			c0.09,0.21,0.23,0.54,0.41,0.95c1.56-0.49,3.13-0.58,4.09,0.55c0.93,1.1,0.21,2.48,0.47,3.65c0.47,2.08,2.74,3.09,4.56,3.93
			c6.02,2.76,13.25,5.74,19.89,5.91c3.4,0.09,6.74-0.17,10.14,0.09c2.77,0.21,4.87-0.23,7.57-0.85c2.97-0.68,5.78-0.32,8.76-0.66
			c0.6-0.07,1.18-0.17,1.75-0.28c-0.07-0.27-0.14-0.55-0.2-0.85c-0.18-0.04-0.36-0.07-0.53-0.11c0.18,0.04,0.36,0.07,0.53,0.11
			c0.06,0.31,0.13,0.58,0.2,0.85c2.27-0.43,4.41-0.99,6.85-0.46c2.49,0.54,4.49,1.99,6.63,3.28c2.5,1.51,4.83,2.96,6.83,5.11
			c2.22,2.39,3.71,5.25,5.26,8.09c0.82,1.51,1.66,3.01,2.47,4.53c0.83,1.55,1.14,3.3,1.92,4.85c1.54,3.07,5.38,2.81,7.71,1.06
			c1.47-1.11,2.72-2.02,3.69-3.62c1.49-2.48,2.9-5.02,4.35-7.52c3.73-6.47,9.73-8.9,16.1-12.09c7-3.5,8.77-11.79,13.06-17.77
			c1.91-2.66,3.88-5.94,6.79-7.58c3.26-1.84,6.45-0.99,9.95-0.51c4.23,0.58,9.48,0.28,13.19-2.1c3.27-2.1,6.46-6.38,8.31-9.75
			c1.47-2.67,0.95-6.13,1.79-9.06c1.28-4.44,4.62-8.16,8.95-9.82c4.69-1.81,9.98-1.68,14.89-2.77c4.62-1.02,9.16-2.02,13.85-2.72
			c4.34-0.65,8.68-2.87,11.78-6.08c1.1-1.14,1.54-2.65,2.57-3.83c1.63-1.86,4.48-2.5,6.79-3.18c3.42-1.01,5.11-2.35,7.16-5.28
			c1.26-1.8,2.02-4.05,3.4-5.69c1.6-1.9,3.45-3.36,4.87-5.44c1.46-2.13,2.96-4.34,4.29-6.55c0.76-1.26,1.05-2.75,1.41-4.22
			c1.14-4.57,0.86-3.83,0.71-4.08c-0.52,0.16-1.03,0.35-1.55,0.51c-3.53,1.09-5.11-2.08-7.17-4.42c-1.9-2.16-4.57-4.03-7.03-5.53
			c-1.98-1.21-3.03-3.36-5.23-4.24c-2.47-0.99-4.66-0.34-6.91-1.96c-2.44-1.74-4.7-3.54-7.22-5.16c-1.7-1.09-3.37-2.33-5.02-3.5
			c-1.42-1-2.54-2.39-4-3.35c-1.76-1.16-4.24-1.28-5.46-3.18c-0.59-0.91-0.66-2.43-1.02-3.48c-0.5-1.46-1.1-2.87-1.78-4.26
			c-1.48-3.06-2.8-6.23-4.5-9.17c-1.98-3.42-4.4-6.59-6.24-10.08c-1.23-2.33-3.09-4.19-4.58-6.35c-1.8-2.62-4.62-4.08-7.52-5.12
			c-3.26-1.16-6.36-2.82-9.72-3.72c-4.32-1.15-7.12-4.76-11.16-6.5c-8.71-3.75-17.98-6.31-24.64-13.55c-2.3-2.51-3.48-5.86-5.14-8.8
			c-1.04-1.84-2.53-3.51-3.97-5.04c-3.59-3.82-6.86-7.81-10.58-11.54c-4.14-4.14-8.26-8.33-12.51-12.35c-1.6-1.51-2.8-3.5-4.42-4.96
			c-1.41-1.28-3.32-2.13-4.84-3.32c-2.21-1.72-3.48-4.02-5.4-5.95c-1.57-1.58-3.43-2.99-5.18-4.32c-2.25-1.71-3.91-4.17-6.17-6.04
			c-3.32-2.75-7.55-5.06-11.41-6.89c-1.93-0.91-3.14-2.35-5.41-2.48c-2.57-0.14-5.22,0.66-7.61,1.49c-1.12,0.39-1.77,1.21-3.01,1.04
			c-0.71-0.09-1.5-0.77-2.05-1.18c-0.34-0.26-0.73-0.54-1.1-0.84c-0.66,0.96-1.56,1.97-2.1,2.75
			C522.83,329.26,522.54,329.75,521.98,330.15z"/>
		<path class="st0" d="M25.53,361.98c0.79,0.01,1.49-0.04,2.26-0.16c0.34-0.05,0.52-0.35,0.89-0.37c0.4-0.02,0.25,0.34,0.52,0.37
			c1.61,0.2,2.47,0.66,4.01,1.12c1.37,0.41,2.71,0.34,4.16,0.32c0.65-0.01,1.16-0.03,1.78,0.14c0.22,0.06,0.42,0.46,0.75,0.53
			c0.42,0.1,0.93-0.17,1.35-0.07c1.11,0.25,2.36,1.2,3.49,1.65c1.6,0.64,2.85,1.19,4.32,2.08c0.8,0.48,1.93,1,2.78,1.34
			c1.32,0.53,2.42,1.26,3.78,1.68c1.43,0.44,2.37,1.1,3.64,1.76c1.89,0.98,4.01,1.14,6,1.83c1.26,0.44,2.29,1.46,3.47,1.86
			c1.62,0.55,3.54,0.63,5.29,0.62c6.16-0.04,12.14,0.7,18.32,0.64c0.87-0.01,1.87-0.17,2.71,0.13c0.64,0.23,1.02,0.82,1.59,1.08
			c2.21,1.03,4.96,0.77,7.29,1.41c1.77,0.48,3.42,1.94,5.17,2.66c2.35,0.97,4.51,1.88,7.04,2.35c1.88,0.34,3.71,0.36,5.62,0.85
			c1.75,0.45,3.45,0.82,5.08,1.72c1.44,0.79,2.63,1.99,4.02,2.88c1.63,1.04,3.15,1.43,5.04,1.84c2.1,0.45,4.11,0.95,6.09,1.71
			c2.9,1.11,6.12,1.07,9.02,1.99c2.36,0.75,3.52,2.31,5.14,4.05c1.59,1.71,3.88,1.99,5.48,3.53c1.71,1.64,2.62,4.14,3.81,6.11
			c2.78,4.64,2.15,9,0.16,13.79c-0.52,1.25-0.6,1.83-1.75,2.57c-1.06,0.68-1.48,0.75-2.39,1.85c-2.03,2.46-4.13,4.9-6.41,7.08
			c-3.41,3.26-8.03,6.75-8.77,11.74c-0.2,1.32-0.11,2.92-0.05,4.26c0.1,1.97,1.48,3.78,2.34,5.52c0.96,1.94,1.99,4.21,3.91,5.43
			c0.45,0.28,0.93,0.5,1.44,0.68c0.03-0.45,0.01-0.9,0.01-1.4c0,0.51,0.02,0.95-0.01,1.4c2.03,0.74,4.44,0.82,6.46,1.17
			c1.19,0.21,1.97,0.61,3.15,0.37c1.84-0.37,3.84-0.67,5.64-1.13c1.6-0.42,3.02-1.33,4.6-1.83c1.98-0.62,4.03-1.17,6.03-1.74
			c2.72-0.78,5.66-0.85,8.35-1.73c1.24-0.41,2.48-0.82,3.75-1.16c0.88-0.23,1.22-0.39,1.62-0.21c0.16-0.23,0.36-0.47,0.62-0.76
			c-0.26,0.3-0.46,0.54-0.62,0.76c0.21,0.1,0.44,0.29,0.77,0.63c0.41,0.43,0.93,1.09,1.12,1.68c0.24,0.71-0.11,1.56,0.18,2.21
			c0.82,1.87,4.07,1.01,5.69,1.01c1.87,0,5.34,0.82,6.6-0.58c0.67-0.74,0.76-2.06,1.4-2.88c0.76-0.97,1.58-1.59,2.12-2.75
			c2.46-5.3,2.02-10.48,2.05-16.19c0.02-2.38,1-3.8,2.65-5.45c1.4-1.4,2.7-3.35,4.5-4.24c2.15-1.07,4.7-1.47,6.92-2.48
			c2.83-1.28,5.83-2.54,8.01-4.78c2.27-2.33,4.62-4.47,6.5-7.14c1.49-2.12,3.57-3.77,4.88-5.97c0.69-1.16,1.02-1.87,1.13-3.23
			c0.09-1.04,0.19-2.3,0.64-3.26c1.11-2.39,4.48-3.67,6.44-5.25c1.48-1.19,2.72-1.82,4.48-2.63c2.5-1.14,4.97-3.25,7.71-3.63
			c1.6-0.22,3.32,0.24,4.94,0.01c3.96-0.56,8.49-1.75,12.04-3.59c1.9-0.99,2.89-2.43,4.23-4.04c1.63-1.96,3.46-3.65,5.43-5.26
			c2.79-2.28,5.74-4.26,8.72-6.27c1.59-1.07,2.3-1.22,4.1-1.62c3.64-0.82,6.76-1.6,10.48-1.55c2.35,0.03,4.52,0.02,6.65-1.03
			c2.2-1.09,4.26-2.93,6.23-4.41c8.4-6.27,17.06-15.25,17.16-26.46c0.05-5.43,1.32-10.04,5.03-14.13c1.78-1.96,3.02-3.63,4.05-6.11
			c1.19-2.87,2.59-5.5,4.15-8.18c0.6-1.04,1.17-2.08,1.7-3.11c-0.15-0.07-0.38-0.19-0.84-0.46c0.46,0.27,0.69,0.39,0.84,0.46
			c1.9-3.69,3.38-7.4,4.56-11.51c1.42-4.93,2.41-10.48,4.8-15.02c1.43-2.73,2.61-5.91,5.07-7.84c2.06-1.61,5.01-3.01,6.3-5.41
			c3.58-6.67-0.82-13.07-4.98-18.34c-2.15-2.73-5.18-3.37-7.66-5.55c-1.48-1.29-2.62-2.93-4-4.33c-1.37-1.38-2.96-2.46-4.34-3.81
			c-2.46-2.41-5.08-4.62-7.71-6.87c-1.7-1.46-3.56-2.67-5.44-3.89c-1.88-1.22-4.05-2.16-5.15-4.2c-0.9-1.68-1.43-3.64-2.17-5.38
			c-0.34-0.8-0.98-1.44-1.26-2.25c-0.27-0.78-0.22-1.23-0.6-1.99c-0.81-1.64-2.13-3.26-2.82-5.01c-0.76,0.31-1.53,0.48-2.27,0.22
			c-1.68-7.82-6.83-14.55-12.52-20.07c-1.6-1.55-3.58-2.53-5.53-3.55c-1.69-0.89-3.01-2.25-4.61-3.23
			c-2.44-1.49-5.49-1.17-8.16-1.87c-3.4-0.89-6.88-1.23-10.32-1.94c-3.28-0.68-6.13-1.87-9.42-0.51c-1.63,0.67-2.96,1.71-4.72,2.14
			c-2.27,0.56-4.14,0.21-6.14-0.95c-2.26-1.32-3.27-3.55-5.06-5.35c-4.48-4.51-10.78-7.43-16.72-9.43
			c-4.67-1.57-8.72-4.11-13.19-6.07c-3.47-1.52-5.69-1.42-9.37-1.56c-1.74-0.07-3.27-0.42-4.76-1.3c-2.58-1.52-4.98-3.38-7.45-4.96
			c-2.99-1.92-6.03-3.7-8.87-5.79c-2.2-1.62-4.42-3.39-6.72-4.86c-3-1.92-5.67-5.73-9.27-6.18c-1.71-0.21-4.8-0.42-6.45-0.02
			c-0.45,0.11-0.61,0.63-1.01,0.64c-0.54,0.02-0.66-0.41-1.03-0.47c-0.97-0.17-1.95-0.1-2.91-0.28c-3.11-0.61-4.88-3.78-7.66-5.14
			c-0.98-0.48-1.58-0.94-2.67-1.14c-1.04-0.19-2.2,0.09-3.26,0.03c-0.46-0.03-0.78-0.13-1.07-0.24c-0.1,0.3-0.22,0.63-0.36,1
			c-0.68,1.74-0.85,2.61-2.33,3.84c-1.69,1.4-3.16,2.99-4.72,4.53c-2.11,2.09-4.97,4.76-6.28,7.45c-1.15,2.37-1.64,5.29-2.53,7.79
			c-0.95,2.67-1.65,5.15-2.08,7.96c-0.5,3.3-0.54,7.71-2.53,10.52c-2.46-0.59-3.37-2.89-4.25-4.97c-1.35-3.19-2.85-5.86-5.2-8.19
			c-1.09,0.82-1.76,1.95-2.69,2.94c-1.4,1.5-3.33,2.56-4.64,4.13c-2.82,3.38-3.9,9.21-3.26,13.44c0.76,5.04,1.57,10.15,2.89,15.08
			c0.53,1.97,1.54,3.23,2.58,4.92c1.15,1.87,2.05,3.88,2.94,5.89c1.37,3.09,2.62,5.99,3.46,9.29c0.88,3.41,1.5,6.89,2.58,10.25
			c0.98,3.06,1.8,4.82,0.5,7.87c-1.16,2.72-2.75,5.4-4.16,7.98c-2.35,4.29-4.78,7.77-9.17,10.14c-2.15,1.16-3.77,2.72-6.32,2.85
			c-1.25,0.06-2.97-0.07-4.2-0.36c-1.68-0.4-3.68-1.92-5.48-0.49c-2.98,2.37-0.56,7.61-0.63,10.77c-0.09,4.17,0.94,8.44,1.49,12.57
			c0.54,4.09-1.43,5.87-4.34,8.33c-3.29,2.78-6.4,4.72-10.69,5.45c-3.97,0.67-6.71,3.18-9.82,5.51c-2.2,1.65-3.94,3.8-6.22,5.34
			c-1.41,0.96-3.62,2.82-5.28,3.16c-4.81,0.98-11.05-1.91-15.05,1.87c-2.03,1.92-4.54,3.54-6.23,5.76
			c-2.36,3.11-5.66,6.62-9.11,8.57c1.68,1.74-0.68,5.3-1.18,7.29c-0.47,1.88-0.79,3.63-1.57,5.45c-1.02,2.38-2.16,4.87-3.35,7.16
			c-1.81,3.49-4.98,6.35-6.6,9.99c-0.42,0.94-0.33,1.53-1.39,1.92c-0.92,0.34-2.07,0.35-3.06,0.77c-1.56,0.66-2.51,1.54-3.7,2.74
			c-0.91,0.91-1.37,2.03-2.22,2.91c-1.75,1.82-4.08,3.17-5.8,5.06c-0.2,0.22-0.4,0.45-0.59,0.68c2.02,1.18,6.13,3.34,6.76,3.76
			C22.93,362.06,24.12,361.97,25.53,361.98z"/>
		<path class="st0" d="M357.04,584.07c0.97-1.35,1.71-0.86,3.09-1.33c1.31-0.44,2.63-1.75,3.7-2.6c3.52-2.82,6.14-6.68,9.25-9.88
			c1.01-1.04,1.35-2.03,1.78-3.39c0.45-1.39,1.28-2.69,1.67-4.08c0.36-1.28,0.31-2.51,0.86-3.76c0.63-1.41,1.52-2.54,2.31-3.86
			c1.8-3.02,3.73-7.69,2.1-11.1c-1.28-2.68-3.15-4.39-2.55-7.58c0.91-4.89,4.57-4.93,7.78-7.37c3.6-2.74,6.88-5.93,10.7-8.36
			c3.8-2.42,7.67-4.48,11.56-6.74c1.88-1.09,3.89-2.5,6.07-2.86c1.9-0.31,4.03,0.09,5.93,0.03c3.81-0.12,7.32-1.36,10.37-3.51
			c3.93-2.77,8.34-4.79,12.51-7.12c1.63-0.91,6.28-1.85,6.49-4.12c0.28-3.02-5.07-3.85-6.84-4.9c-1.88-1.11-4.4-1.94-5.89-3.41
			c-1.2-1.18-1.85-1.97-3.6-2.58c-1.88-0.65-3.75-1.15-5.32-2.43c-2.18-1.78-2.29-4.27-5.05-5.77c-3.03-1.64-6.66-1.42-9.53-3.32
			c-1.91-1.26-3.59-2.82-5.48-4.12c-1.57-1.08-3.44-3.63-5.25-4.13c-1.16-0.32-1.82,0.22-2.91,0.43c-1.3,0.26-1.64-0.06-2.76-0.52
			c-2.27-0.93-5.26-0.97-7.62-0.34c-1.25,0.33-2.68,1.1-4.02,1.05c-1.15-0.04-2.51-0.56-3.63-0.79c-1.97-0.4-3.51-0.52-5.53-0.11
			c-1.66,0.34-3.28,1.02-5,0.83c-2.37-0.27-4.47-2.19-6.5-3.37c-2.08-1.21-2.34-2.06-3.44-4.28c-1.35-2.73-3.12-3.66-5.5-5.29
			c-1.64-1.12-2.89-2.75-3.98-4.34c-1.35-1.97-1.93-4.24-3.2-6.29c-0.54-0.88-1.32-1.49-1.79-2.4c-0.53-1.05-0.76-2.36-1.1-3.49
			c-0.65-2.14-1.47-4.18-2.74-6.04c-1.1-1.6-1.36-2.37-0.52-4.33c0.71-1.65,2.67-3.2,3.75-4.66c1.43-1.94,3.27-3.8,5.12-5.39
			c2.35-2.02,4.54-4.02,6.79-6.19c2.37-2.28,4.64-4.39,7.29-6.35c2.11-1.56,3.19-3.01,4.33-5.33c0.97-1.97,2.66-2.8,4.21-4.32
			c1.67-1.64,2.97-3.52,4.29-5.43c2.2-3.18,3.91-7.31,2.54-10.87c-1.19-3.1-2.91-7.12-1.64-10.54c1.48-3.98,4.58-5.35,7.71-7.74
			c2.6-1.98,5.28-5.09,6.03-8.27c0.75-3.16-1.43-4.66-3.01-6.86c-0.78-1.08-1.13-2.17-2.3-3.08c-0.81-0.63-2.09-0.75-2.8-1.37
			c-1.47-1.27-2.14-2.66-4-3.57c-0.73-0.36-1.6-0.66-2.26-1.11c-0.78-0.53-0.88-0.93-1.56-1.62c-1.09-1.12-1.91-1.57-2.74-3.03
			c-0.7-1.24-1.32-2.31-1.84-3.63c-1.04-2.61-1.82-4.99-2.42-7.74c-0.62-2.83-2.15-5.87-3.9-8.27c-1.23-1.7-2.59-3.04-4-4.68
			c-0.63-0.73-0.57-0.7-0.88-0.85c-0.53,1.04-1.1,2.07-1.7,3.11c-1.56,2.68-2.96,5.31-4.15,8.18c-1.03,2.48-2.28,4.15-4.05,6.11
			c-3.71,4.09-4.99,8.7-5.03,14.13c-0.1,11.2-8.76,20.18-17.16,26.46c-1.98,1.47-4.03,3.32-6.23,4.41c-2.13,1.06-4.3,1.06-6.65,1.03
			c-3.72-0.04-6.84,0.74-10.48,1.55c-1.79,0.4-2.51,0.55-4.1,1.62c-2.98,2.01-5.93,3.99-8.72,6.27c-1.97,1.61-3.79,3.3-5.43,5.26
			c-1.34,1.61-2.34,3.06-4.23,4.04c-3.54,1.85-8.07,3.04-12.04,3.59c-1.62,0.23-3.34-0.23-4.94-0.01c-2.74,0.38-5.21,2.49-7.71,3.63
			c-1.76,0.81-3,1.44-4.48,2.63c-1.96,1.58-5.33,2.86-6.44,5.25c-0.45,0.97-0.55,2.23-0.64,3.26c-0.12,1.36-0.45,2.08-1.13,3.23
			c-1.31,2.2-3.38,3.85-4.88,5.97c-1.88,2.67-4.23,4.81-6.5,7.14c-2.18,2.24-5.18,3.5-8.01,4.78c-2.22,1.01-4.76,1.41-6.92,2.48
			c-1.79,0.89-3.09,2.83-4.5,4.24c-1.65,1.65-2.64,3.07-2.65,5.45c-0.04,5.71,0.41,10.89-2.05,16.19c-0.54,1.16-1.36,1.78-2.12,2.75
			c-0.64,0.82-0.74,2.14-1.4,2.88c-1.26,1.4-4.73,0.58-6.6,0.58c-1.62,0-4.87,0.86-5.69-1.01c-0.28-0.65,0.06-1.49-0.18-2.21
			c-0.19-0.58-0.71-1.25-1.12-1.68c-0.33-0.34-0.55-0.53-0.77-0.63c-0.7,0.97-0.65,1.48-1.17,2.95c-0.84,2.38-1.58,4.77-2.58,7.09
			c-1.41,3.28-3.75,6.17-5.28,9.41c-2.13,4.52-4.74,9.01-7.04,13.6c-1.08,2.16-1.88,4.15-2.56,6.42c-0.68,2.27-0.48,4.61-0.48,7.02
			c0,5.33-0.8,10.7,2.8,15.06c0.82,1,1.74,1.84,2.96,2.42c0.54,0.26,2.05,1.13,2.53,1.15c0.76,0.04,2.63-0.92,3.38-1.17
			c1.77-0.59,3.3-1.52,5-2.27c2.24-0.99,4.61-2.62,7.02-3.05c3.07-0.56,5.7,2.55,7.07,4.78c1.16,1.89,1.55,3.82,2.37,5.97
			c0.61,1.6,1.25,3.02,2.1,4.51c0.88,1.56,2.02,2.53,3.04,3.97c1.42,2,3.37,4.33,5.92,4.99c2.24,0.59,5.4-0.06,7.06-1.76
			c0.51-0.52,0.72-1.23,1.2-1.78c0.54-0.63,1.38-1.13,1.97-1.75c1.37-1.45,3.05-3.05,4.2-4.67c2.06-2.92,4.44-5.6,6.54-8.48
			c1.74-2.38,3.4-4.74,6.05-6.25c1.95-1.11,4.6-1.81,6.86-1.46c1.36,0.21,2.13,0.72,3.65,0.74c1.4,0.01,2.68-0.3,4.03-0.53
			c2.96-0.5,5.76-1.29,8.6-0.18c4.83,1.9,10.12,0.73,14.49,3.85c1.38,0.98,2.58,2.01,3.66,3.32c1.74,2.12,2.58,4.73,4.16,6.97
			c1.76,2.5,3.84,3.8,6.16,5.69c1.26,1.03,3.23,3.81,2.58,5.64c-0.6,1.69-3.17,3.52-4.24,4.88c-1.77,2.24-3.45,5.23-4.51,7.9
			c-0.86,2.17-1.39,4.46-2.35,6.61c-1.02,2.3-2.7,4.63-2.3,7.27c0.23,1.52,1.59,2.86,2.58,4.06c1.66,1.99,4.02,3.08,6.42,4.03
			c3.01,1.19,5.64,1.25,8.86,1.23c0.99,0,2,0.07,2.98,0.03c1.42-0.06,2.74-0.72,4.15-0.73c1.75-0.01,4.59,0.75,5.68,2.22
			c1.23,1.68,0.73,4.02,0.72,5.97c-0.01,3.87-0.77,7.84,2.23,10.76c1.39,1.35,2.29,2.43,3.21,4.1c0.63,1.15,1.18,2.52,1.91,3.6
			c1.42,2.09,4.29,4.69,6.4,6.03c1.32,0.84,2.5,1.75,3.85,2.56c1.56,0.94,2.17,2.01,2.96,3.49c0.51,0.96,1.15,2.39,1.82,3.28
			c0.99,1.31,2.01,1.32,3.49,1.64c1.23,0.26,1.23,0.94,2.22-0.43c0.3-0.41,0.34-1.05,0.67-1.54c0.53-0.4,0.98-0.86,1.37-1.4
			c0.27-0.55,0.46-1.12,0.58-1.72c0.08-0.18,0.17-0.33,0.25-0.49c-0.18-0.18-0.41-0.33-0.71-0.45c0.3,0.12,0.53,0.27,0.71,0.45
			c0.44-0.81,0.98-1.41,1.54-2.27c0.98-1.51,1.71-3.44,2.42-5.1c0.98-2.29,1.56-4.73,2.62-6.99c0.65-1.4,1.65-2.03,2.57-3.16
			c0.84-1.04,1.11-2.02,2.16-2.96c0.84-0.76,1.67-1.7,2.55-2.41c0.27-0.22,0.49-0.57,0.74-0.9
			C360.9,587.51,354.74,587.28,357.04,584.07z"/>
		<path class="st0" d="M471.99,238.78c0.14,0.69,0.78,1.29,0.72,2.01c-0.58-1.38-2.06-2.81-2.91-4.1c-1.15-1.74-2.47-3.32-4.57-3.87
			c-3.44-0.9-6.87-1.35-9.88-3.49c-2.11-1.5-3.85-2.66-6.42-3.2c-5.02-1.05-9.65-3.19-14.71-4.02c-2.52-0.41-4.79-1.03-7.1-2.1
			c-2.11-0.97-4.27-1.75-6.61-1.97c-2.11-0.2-4.24,0.15-6.33-0.1c-1.96-0.24-3.36-0.9-5.06-1.88c-3.14-1.82-6.33-3.53-9.12-5.83
			c-2.72-2.24-7.02-3.08-10.49-3.68c-2.02-0.35-2.72-0.63-4.47-1.45c-0.83-0.39-1.13-0.56-2.1-0.62c-2.74-0.17-5.02-0.76-7.58-1.72
			c-1.23-0.46-2.28-1.25-3.51-1.69c-1.35-0.48-2.59-0.47-4.01-0.44c-2.99,0.07-5.78-0.55-8.73-0.65c-4.09-0.15-7.97,0.23-11.92,1.34
			c-2.68,0.75-5.21,0.45-7.8,1.54c-0.78,0.33-1.7,0.95-2.64,1.34c0.69,1.75,2.01,3.37,2.82,5.01c0.38,0.76,0.33,1.22,0.6,1.99
			c0.28,0.8,0.92,1.45,1.26,2.25c0.74,1.74,1.26,3.71,2.17,5.38c1.1,2.03,3.27,2.98,5.15,4.2c1.88,1.22,3.74,2.43,5.44,3.89
			c2.63,2.26,5.25,4.47,7.71,6.87c1.38,1.35,2.97,2.43,4.34,3.81c1.38,1.39,2.52,3.03,4,4.33c2.48,2.18,5.51,2.82,7.66,5.55
			c4.16,5.27,8.56,11.67,4.98,18.34c-1.29,2.4-4.25,3.8-6.3,5.41c-2.47,1.93-3.64,5.12-5.07,7.84c-2.38,4.54-3.38,10.08-4.8,15.02
			c-1.18,4.11-2.66,7.82-4.56,11.51c0.31,0.15,0.25,0.12,0.88,0.85c1.41,1.64,2.77,2.98,4,4.68c1.75,2.41,3.28,5.44,3.9,8.27
			c0.6,2.74,1.39,5.12,2.42,7.74c0.52,1.31,1.14,2.38,1.84,3.63c0.82,1.45,1.64,1.91,2.74,3.03c0.68,0.69,0.78,1.09,1.56,1.62
			c0.67,0.46,1.54,0.76,2.26,1.11c1.85,0.9,2.53,2.3,4,3.57c0.71,0.61,2,0.74,2.8,1.37c1.18,0.92,1.53,2,2.3,3.08
			c1.58,2.2,3.76,3.7,3.01,6.86c-0.75,3.18-3.43,6.29-6.03,8.27c-3.13,2.39-6.23,3.76-7.71,7.74c-1.27,3.42,0.45,7.44,1.64,10.54
			c1.37,3.56-0.35,7.69-2.54,10.87c-1.32,1.91-2.62,3.79-4.29,5.43c-1.55,1.51-3.23,2.35-4.21,4.32c-1.15,2.32-2.22,3.77-4.33,5.33
			c-2.65,1.96-4.92,4.06-7.29,6.35c-2.25,2.17-4.44,4.17-6.79,6.19c-1.85,1.58-3.69,3.45-5.12,5.39c-1.07,1.46-3.04,3.01-3.75,4.66
			c-0.84,1.96-0.57,2.73,0.52,4.33c1.27,1.85,2.1,3.9,2.74,6.04c0.34,1.13,0.57,2.44,1.1,3.49c0.46,0.91,1.24,1.52,1.79,2.4
			c1.27,2.05,1.85,4.32,3.2,6.29c1.09,1.59,2.35,3.22,3.98,4.34c2.38,1.63,4.15,2.55,5.5,5.29c1.1,2.22,1.36,3.07,3.44,4.28
			c2.03,1.19,4.13,3.1,6.5,3.37c1.72,0.2,3.34-0.49,5-0.83c2.02-0.42,3.56-0.3,5.53,0.11c1.12,0.23,2.48,0.75,3.63,0.79
			c1.34,0.05,2.77-0.71,4.02-1.05c2.37-0.63,5.35-0.59,7.62,0.34c1.12,0.46,1.46,0.78,2.76,0.52c1.08-0.22,1.74-0.76,2.91-0.43
			c1.81,0.5,3.67,3.05,5.25,4.13c1.89,1.3,3.57,2.85,5.48,4.12c2.87,1.9,6.51,1.67,9.53,3.32c2.76,1.5,2.87,3.99,5.05,5.77
			c1.58,1.29,3.44,1.78,5.32,2.43c1.75,0.6,2.4,1.4,3.6,2.58c1.5,1.47,4.02,2.3,5.89,3.41c1.77,1.05,7.12,1.88,6.84,4.9
			c-0.21,2.28-4.86,3.21-6.49,4.12c-4.17,2.33-8.58,4.35-12.51,7.12c-3.05,2.15-6.55,3.39-10.37,3.51
			c-1.91,0.06-4.03-0.34-5.93-0.03c-2.18,0.36-4.19,1.76-6.07,2.86c-3.89,2.27-7.76,4.33-11.56,6.74c-3.82,2.43-7.1,5.63-10.7,8.36
			c-3.21,2.44-6.86,2.48-7.78,7.37c-0.6,3.19,1.28,4.9,2.55,7.58c1.63,3.41-0.3,8.08-2.1,11.1c-0.79,1.32-1.68,2.45-2.31,3.86
			c-0.56,1.26-0.5,2.48-0.86,3.76c-0.39,1.39-1.22,2.68-1.67,4.08c-0.44,1.36-0.77,2.35-1.78,3.39c-3.11,3.2-5.73,7.06-9.25,9.88
			c-1.07,0.85-2.38,2.16-3.7,2.6c-1.38,0.46-2.12-0.03-3.09,1.33c-2.29,3.2,3.86,3.43,6.25,4.01c0.19-0.25,0.39-0.5,0.64-0.65
			c-0.25,0.15-0.45,0.39-0.64,0.65c0.18,0.04,0.34,0.09,0.47,0.14c2.67,0.98,4.3,3.47,7.01,4.37c1.93,0.64,3.96,1.08,5.95,1.48
			c2.77,0.55,4.79,0.17,7.32-0.99c3.03-1.39,5.78-2.24,7.31,1.41c1.77,4.23,5.66,5.69,9.78,6.94c2.19,0.67,4.48,0.66,6.61,1.52
			c1.77,0.72,3.2,1.89,4.7,3.06c3.39,2.65,6.89,5.23,10.88,6.88c3.72,1.54,6.77,4.13,10.26,6.08c1.39,0.78,3.08,1.28,4.39,2.22
			c1.49,1.07,2.44,2.73,3.83,3.93c1.96,1.7,4.5,2.71,7.13,2.52c5.1-0.38,9.15-5.24,13.44-7.63c1.92-1.07,4.35-0.9,6.45-1.71
			c2.68-1.02,5.39-2.39,7.71-4.08c4.91-3.6,6.2-9.11,6.96-14.76c0.27-2,0.02-3.8,0.55-5.71c0.55-1.98,0.3-4.91,0.16-6.98
			c-0.07-0.98-1.36-4-2.1-5.72c-1.53,0.48-3.05,1.33-3.96,1.77c-4.12,2-8.96,3.47-13.55,3.75c-2.95,0.18-6.03-0.33-8.97-0.62
			c-1.66-0.16-3.5-0.28-5.04-0.94c-2.1-0.89-3.44-2.72-4.51-4.64c-1.69-3.06-1.39-5.58,1.58-7.41c1.72-1.06,3.92-1.97,5.78-2.62
			c3.82-1.32,8.48-0.77,11.6-3.81c1.36-1.33,2.47-2.72,3.75-4.18c2.98-3.41,4.25-7.18,5.02-11.58c0.38-2.17,1.1-4.53,0.73-6.73
			c-0.45-2.72-1.14-3.53,0.91-5.57c1.9-1.89,3.35-4.14,4.93-6.28c1.05-1.41,3.08-3.11,3.8-4.78c1.77-4.09,2.33-8.77,1.92-13.14
			c-0.34-3.6,0.2-7.33,0.05-10.94c-0.09-2.24-0.73-4.63-1.32-6.78c-0.59-2.14-1.81-4.03-2.57-6.13c-1.48-4.09-1.44-8.57-2.25-12.83
			c-0.37-1.96-0.55-4.3-0.33-6.31c0.22-2.01,1.09-3.97,1.34-5.95c0.42-3.42-0.73-6.85-0.66-10.28c0.08-4.44-2.49-7.4-4.78-10.86
			c-1.78-2.69-2.89-5.76-4.51-8.55c-0.98-1.68-2.04-3.33-2.58-5.22c-0.46-1.63-1-3.96-0.3-5.33c0.56-1.1,1.18-2.16,1.94-3.21
			c1.43-1.95,2.57-3.96,3.5-6.13c0.54-1.26,1.13-2.57,1.76-3.85c0.92-1.86,2.36-3.34,3.3-5.13c0.29-0.55,0.44-1.07,0.78-1.56
			c0.15-0.21,0.68-0.3,0.77-0.49c0.25-0.51,0.09-1.1,0.25-1.64c0.29-1,0.7-2.21,1-3.34c0.66-2.51,0.11-5.7,0.14-8.31
			c0.02-1.82-0.43-3.5-0.6-5.28c-0.18-1.82-0.87-3.69-1.17-5.51c-0.57-3.38-1.2-6.4-2.22-9.72c-0.98-3.21,0.04-5.83,1.26-8.93
			c1.42-3.58,2.7-7.24,3.86-10.89c1.41-4.46,3.04-11.39,8.8-11.15c2.66,0.11,5.61,0.66,8.3,0.21c1.76-0.29,3.18-1.26,4.82-1.74
			c1.41-0.41,2.34-0.54,3.6-1.33c0.86-0.55,1.6-0.97,2.32-1.82c0.79-0.92,1.16-1.96,2.15-2.66c2.15-1.51,4.88,0.12,7.15-0.83
			c0.23-0.1,0.49-0.84,0.75-1.03c0.4-0.29,0.96-0.32,1.35-0.6c0.56-0.4,0.84-0.89,1.24-1.46c0.54-0.78,1.45-1.79,2.1-2.75
			c-0.49-0.39-0.97-0.8-1.32-1.23c-1.34-1.68-1.49-4.67-2.24-6.64c-0.63-1.65-1.53-4.04-2.7-5.4c-0.68-0.8-1.76-1.5-2.57-2.16
			c-1.17-0.95-1.84-1.77-2.87-2.95c-1.95-2.23-3.9-3.66-5.12-6.43c-0.81-1.83-0.64-3.62-0.64-5.73c0-2.49,0.51-4.6,0.63-7.04
			c0.06-1.16,0.6-2.04,0.67-3.2c0.07-1.04-0.15-2.05,0.13-3.06c0.12-0.43,0.39-0.87,0.5-1.41c0.15-0.73,0.25-1.21,0.48-1.94
			c0.35-1.07,0.61-2.14,0.95-3.2c0.38-1.18,0.24-1.99,0.45-3.2c0.2-1.19,0.69-1.91,0.67-3.2c-0.03-2.13,0.34-5.15-0.08-7.31
			c-0.48-0.19-0.91-0.38-1.18-0.52c-0.92-0.48-1.84-1.19-2.72-1.78c-1.95-1.29-3.77-2.83-5.89-3.84c-2.67-1.26-5.54-2.03-8.21-3.18
			c-2.13-0.92-4.38-2.63-6.39-3.86c-1.79-1.1-3.64-2.2-5.3-3.54c-1.41-1.13-2.48-2.28-3.99-3.17c-1.39-0.82-2.94-1.61-4.32-2.58
			c-0.7-0.49-1.54-1.19-2.29-1.93C471.95,237.91,471.91,238.36,471.99,238.78z"/>
	</g>
	<g>
		<path class="st1" d="M169.13,297.27c-0.02,0.08-0.06,0.15-0.12,0.22c-0.07,0.07-0.16,0.12-0.3,0.16
			c-0.13,0.04-0.31,0.07-0.52,0.09c-0.21,0.02-0.47,0.03-0.78,0.03c-0.32,0-0.58-0.01-0.78-0.03c-0.2-0.02-0.36-0.05-0.47-0.09
			c-0.11-0.04-0.19-0.09-0.23-0.16c-0.04-0.06-0.05-0.14-0.02-0.22l3-14.96c0.01-0.08,0.05-0.15,0.12-0.22
			c0.07-0.07,0.17-0.12,0.31-0.16c0.13-0.04,0.3-0.07,0.51-0.09c0.21-0.02,0.47-0.03,0.78-0.03s0.56,0.01,0.76,0.03
			c0.2,0.02,0.36,0.05,0.48,0.09c0.12,0.04,0.2,0.09,0.23,0.16c0.04,0.07,0.05,0.14,0.03,0.22L169.13,297.27z M169.43,278.98
			c0.06-0.28,0.13-0.53,0.23-0.72c0.09-0.2,0.22-0.35,0.37-0.48s0.35-0.21,0.57-0.26c0.23-0.05,0.51-0.08,0.83-0.08
			c0.33,0,0.59,0.03,0.79,0.08c0.2,0.05,0.36,0.14,0.46,0.26c0.11,0.12,0.17,0.28,0.18,0.48c0.01,0.2-0.01,0.44-0.07,0.72
			c-0.05,0.28-0.12,0.51-0.21,0.71c-0.09,0.2-0.22,0.35-0.37,0.48c-0.15,0.12-0.35,0.21-0.57,0.26c-0.23,0.05-0.51,0.08-0.83,0.08
			c-0.33,0-0.59-0.03-0.79-0.08c-0.2-0.05-0.36-0.14-0.46-0.26c-0.1-0.12-0.17-0.28-0.18-0.48
			C169.36,279.5,169.38,279.26,169.43,278.98z"/>
		<path class="st1" d="M181.38,286.86c0,0.1-0.01,0.24-0.04,0.43c-0.03,0.19-0.07,0.39-0.13,0.58c-0.06,0.2-0.12,0.36-0.2,0.51
			c-0.08,0.14-0.17,0.21-0.26,0.21c-0.11,0-0.23-0.04-0.37-0.12c-0.14-0.08-0.31-0.16-0.52-0.26c-0.2-0.09-0.44-0.18-0.71-0.25
			c-0.27-0.07-0.59-0.11-0.96-0.11c-0.29,0-0.54,0.04-0.76,0.11c-0.23,0.07-0.41,0.17-0.56,0.3c-0.15,0.13-0.26,0.28-0.34,0.45
			s-0.12,0.35-0.12,0.55c0,0.25,0.1,0.46,0.31,0.64c0.21,0.17,0.47,0.33,0.78,0.48c0.31,0.15,0.64,0.31,1,0.47
			c0.36,0.16,0.69,0.37,1,0.61c0.31,0.24,0.57,0.54,0.77,0.89c0.2,0.35,0.3,0.79,0.3,1.32c0,0.62-0.12,1.19-0.35,1.72
			c-0.24,0.53-0.58,0.98-1.03,1.36c-0.45,0.38-1,0.68-1.65,0.9c-0.65,0.22-1.38,0.32-2.19,0.32c-0.39,0-0.77-0.03-1.12-0.09
			c-0.35-0.06-0.67-0.13-0.95-0.21c-0.28-0.08-0.52-0.18-0.71-0.28c-0.2-0.11-0.34-0.2-0.44-0.29c-0.07-0.07-0.11-0.13-0.14-0.21
			c-0.03-0.07-0.04-0.17-0.04-0.28c0-0.07,0.01-0.17,0.02-0.28c0.01-0.11,0.03-0.24,0.06-0.38c0.03-0.14,0.06-0.28,0.1-0.42
			c0.04-0.14,0.08-0.26,0.13-0.38c0.05-0.11,0.1-0.21,0.16-0.28c0.06-0.07,0.12-0.1,0.18-0.1c0.11,0,0.24,0.05,0.38,0.15
			c0.14,0.1,0.32,0.21,0.54,0.32c0.22,0.12,0.49,0.23,0.81,0.33c0.32,0.1,0.72,0.15,1.2,0.15c0.33,0,0.62-0.04,0.87-0.12
			c0.25-0.08,0.45-0.18,0.62-0.32c0.16-0.14,0.28-0.3,0.36-0.48c0.08-0.18,0.12-0.37,0.12-0.57c0-0.29-0.1-0.52-0.3-0.7
			c-0.2-0.18-0.45-0.35-0.75-0.5c-0.3-0.15-0.63-0.31-0.98-0.48c-0.35-0.16-0.68-0.36-0.98-0.6c-0.3-0.24-0.55-0.53-0.75-0.88
			c-0.2-0.35-0.3-0.79-0.3-1.32c0-0.58,0.11-1.12,0.33-1.61s0.54-0.93,0.97-1.3c0.42-0.37,0.94-0.66,1.54-0.87
			c0.6-0.21,1.29-0.31,2.05-0.31c0.34,0,0.67,0.02,1,0.07c0.32,0.04,0.61,0.1,0.87,0.18c0.26,0.07,0.48,0.15,0.67,0.24
			c0.19,0.09,0.33,0.18,0.41,0.27C181.33,286.52,181.38,286.66,181.38,286.86z"/>
		<path class="st1" d="M199.36,297.29c-0.02,0.08-0.06,0.15-0.12,0.21c-0.06,0.06-0.16,0.11-0.29,0.15c-0.13,0.04-0.3,0.07-0.5,0.09
			c-0.2,0.02-0.45,0.03-0.75,0.03c-0.29,0-0.54-0.01-0.73-0.03c-0.2-0.02-0.35-0.05-0.45-0.09c-0.11-0.04-0.18-0.09-0.22-0.15
			c-0.04-0.06-0.04-0.13-0.02-0.21l1.31-6.54c0.03-0.19,0.06-0.37,0.09-0.56c0.02-0.18,0.04-0.37,0.04-0.56
			c0-0.38-0.07-0.69-0.21-0.93c-0.14-0.24-0.4-0.35-0.76-0.35c-0.33,0-0.66,0.11-1.02,0.32c-0.35,0.21-0.69,0.5-1.01,0.86
			c-0.32,0.36-0.61,0.79-0.86,1.27c-0.25,0.49-0.42,1-0.53,1.55l-0.99,4.94c-0.02,0.08-0.06,0.15-0.12,0.21
			c-0.06,0.06-0.16,0.11-0.29,0.15c-0.13,0.04-0.29,0.07-0.49,0.09c-0.2,0.02-0.45,0.03-0.75,0.03c-0.29,0-0.54-0.01-0.73-0.03
			c-0.19-0.02-0.34-0.05-0.45-0.09c-0.11-0.04-0.18-0.09-0.22-0.15c-0.04-0.06-0.05-0.13-0.03-0.21l1.3-6.54
			c0.05-0.19,0.08-0.38,0.1-0.58c0.02-0.2,0.03-0.39,0.03-0.58c0-0.36-0.07-0.65-0.22-0.89c-0.15-0.23-0.4-0.35-0.76-0.35
			c-0.33,0-0.66,0.11-1.01,0.32c-0.35,0.21-0.69,0.5-1.01,0.86c-0.32,0.36-0.61,0.79-0.86,1.27c-0.25,0.49-0.42,1-0.53,1.55
			l-0.99,4.94c-0.02,0.08-0.06,0.15-0.12,0.21c-0.06,0.06-0.15,0.11-0.28,0.15c-0.13,0.04-0.29,0.07-0.5,0.09
			c-0.2,0.02-0.45,0.03-0.75,0.03c-0.3,0-0.55-0.01-0.74-0.03c-0.19-0.02-0.34-0.05-0.45-0.09c-0.11-0.04-0.18-0.09-0.22-0.15
			c-0.03-0.06-0.04-0.13-0.02-0.21l2.19-10.92c0.02-0.08,0.05-0.15,0.1-0.21c0.05-0.06,0.14-0.11,0.24-0.15
			c0.11-0.04,0.25-0.07,0.43-0.09c0.18-0.02,0.39-0.03,0.63-0.03c0.25,0,0.46,0.01,0.62,0.03c0.16,0.02,0.28,0.05,0.37,0.09
			c0.09,0.04,0.15,0.09,0.18,0.15c0.03,0.06,0.03,0.13,0.02,0.21l-0.35,1.8c0.17-0.28,0.4-0.58,0.68-0.87
			c0.29-0.3,0.61-0.56,0.97-0.8c0.36-0.24,0.76-0.43,1.19-0.58c0.43-0.15,0.87-0.23,1.33-0.23c0.47,0,0.88,0.06,1.23,0.19
			s0.63,0.3,0.86,0.53c0.23,0.22,0.4,0.49,0.51,0.79c0.12,0.3,0.19,0.63,0.23,0.98c0.19-0.29,0.43-0.59,0.72-0.88
			c0.29-0.29,0.62-0.56,0.98-0.79c0.36-0.24,0.76-0.43,1.18-0.58c0.42-0.15,0.86-0.23,1.31-0.23c0.57,0,1.05,0.08,1.44,0.24
			c0.39,0.16,0.7,0.38,0.94,0.66c0.24,0.28,0.41,0.61,0.51,0.99c0.11,0.38,0.16,0.79,0.16,1.23c0,0.29-0.02,0.57-0.05,0.86
			c-0.03,0.29-0.08,0.58-0.15,0.89L199.36,297.29z"/>
		<path class="st1" d="M212.5,297.3c-0.03,0.17-0.16,0.29-0.39,0.37c-0.22,0.07-0.58,0.11-1.08,0.11c-0.25,0-0.46-0.01-0.62-0.02
			c-0.16-0.02-0.29-0.04-0.39-0.08c-0.1-0.04-0.16-0.09-0.19-0.15c-0.03-0.06-0.03-0.14-0.02-0.23l0.34-1.75
			c-0.12,0.26-0.32,0.54-0.59,0.83c-0.27,0.29-0.59,0.55-0.95,0.79s-0.77,0.43-1.22,0.59c-0.44,0.15-0.9,0.23-1.37,0.23
			c-0.65,0-1.19-0.11-1.63-0.34c-0.43-0.23-0.78-0.54-1.04-0.92c-0.26-0.39-0.45-0.83-0.56-1.33c-0.11-0.5-0.16-1.02-0.16-1.56
			c0-0.51,0.05-1.07,0.15-1.68c0.1-0.61,0.25-1.21,0.45-1.82c0.2-0.6,0.46-1.18,0.78-1.74c0.32-0.56,0.7-1.05,1.14-1.48
			c0.44-0.43,0.95-0.78,1.53-1.03c0.57-0.26,1.22-0.39,1.95-0.39c0.68,0,1.27,0.14,1.8,0.42c0.52,0.28,0.98,0.69,1.37,1.23l0.2-0.97
			c0.03-0.17,0.16-0.29,0.39-0.37c0.22-0.07,0.58-0.11,1.08-0.11c0.24,0,0.45,0.01,0.61,0.03c0.16,0.02,0.29,0.05,0.39,0.09
			c0.09,0.04,0.16,0.09,0.19,0.15c0.03,0.06,0.04,0.13,0.02,0.21L212.5,297.3z M210.98,289.65c-0.29-0.45-0.6-0.78-0.95-1.01
			c-0.35-0.22-0.75-0.34-1.2-0.34c-0.34,0-0.66,0.08-0.94,0.25c-0.29,0.16-0.54,0.38-0.76,0.65c-0.22,0.27-0.41,0.59-0.58,0.95
			c-0.17,0.36-0.31,0.73-0.42,1.12c-0.11,0.39-0.19,0.78-0.24,1.17c-0.05,0.39-0.08,0.76-0.08,1.09c0,0.25,0.02,0.48,0.06,0.7
			c0.04,0.22,0.1,0.42,0.2,0.59c0.1,0.17,0.23,0.31,0.39,0.41c0.16,0.1,0.37,0.15,0.62,0.15c0.36,0,0.72-0.11,1.1-0.32
			c0.38-0.22,0.73-0.51,1.05-0.88c0.33-0.37,0.61-0.8,0.86-1.3c0.25-0.49,0.43-1.02,0.54-1.58L210.98,289.65z"/>
		<path class="st1" d="M227.31,286.34c0,0.11-0.01,0.22-0.04,0.35c-0.03,0.13-0.06,0.26-0.11,0.4c-0.28,0.75-0.58,1.52-0.9,2.32
			c-0.32,0.8-0.69,1.62-1.11,2.47c-0.41,0.85-0.89,1.72-1.42,2.63c-0.53,0.9-1.14,1.84-1.82,2.81l-2.98,4.23
			c-0.07,0.11-0.17,0.19-0.28,0.26c-0.11,0.07-0.25,0.13-0.42,0.17c-0.17,0.04-0.37,0.08-0.6,0.1c-0.24,0.02-0.51,0.04-0.82,0.04
			c-0.35,0-0.63-0.01-0.85-0.04c-0.22-0.03-0.37-0.08-0.47-0.14c-0.1-0.07-0.14-0.15-0.13-0.24c0.01-0.1,0.07-0.22,0.17-0.35
			l2.78-3.66l-1.8-10.49c-0.02-0.11-0.03-0.22-0.05-0.33c-0.02-0.11-0.03-0.21-0.03-0.29c0-0.15,0.03-0.26,0.08-0.35
			c0.05-0.09,0.14-0.16,0.27-0.21c0.13-0.05,0.3-0.08,0.51-0.1c0.21-0.02,0.47-0.03,0.77-0.03c0.34,0,0.6,0.01,0.79,0.02
			c0.19,0.01,0.34,0.04,0.43,0.08c0.1,0.04,0.17,0.1,0.2,0.18s0.06,0.18,0.08,0.31l1.13,7.64h0.02c0.41-0.61,0.78-1.23,1.11-1.86
			c0.33-0.63,0.64-1.27,0.92-1.91c0.28-0.65,0.53-1.3,0.76-1.97s0.45-1.33,0.64-2.01c0.02-0.08,0.05-0.15,0.11-0.21
			c0.06-0.06,0.15-0.11,0.29-0.15c0.13-0.04,0.31-0.07,0.53-0.09c0.22-0.02,0.5-0.03,0.86-0.03c0.52,0,0.88,0.03,1.08,0.1
			C227.21,286.06,227.31,286.17,227.31,286.34z"/>
		<path class="st1" d="M230.43,297.29c-0.02,0.08-0.06,0.15-0.12,0.21c-0.06,0.06-0.15,0.11-0.28,0.15
			c-0.13,0.04-0.29,0.07-0.5,0.09c-0.2,0.02-0.45,0.03-0.75,0.03c-0.3,0-0.55-0.01-0.74-0.03c-0.19-0.02-0.34-0.05-0.45-0.09
			c-0.11-0.04-0.18-0.09-0.22-0.15c-0.03-0.06-0.04-0.13-0.02-0.21l2.18-10.9c0.02-0.08,0.06-0.15,0.12-0.21
			c0.06-0.06,0.15-0.11,0.28-0.15c0.13-0.04,0.29-0.07,0.49-0.09c0.2-0.02,0.45-0.03,0.75-0.03c0.3,0,0.55,0.01,0.74,0.03
			c0.19,0.02,0.34,0.05,0.45,0.09c0.11,0.04,0.18,0.09,0.21,0.15c0.03,0.06,0.04,0.13,0.02,0.21L230.43,297.29z"/>
		<path class="st1" d="M236.58,297.29c-0.02,0.08-0.06,0.15-0.12,0.21c-0.06,0.06-0.15,0.11-0.28,0.15
			c-0.12,0.04-0.29,0.07-0.49,0.09c-0.2,0.02-0.45,0.03-0.74,0.03c-0.31,0-0.56-0.01-0.75-0.03c-0.19-0.02-0.34-0.05-0.45-0.09
			c-0.1-0.04-0.18-0.09-0.21-0.15c-0.04-0.06-0.05-0.13-0.03-0.21l3.22-16.07c0.02-0.08,0.05-0.15,0.11-0.22
			c0.06-0.07,0.15-0.12,0.28-0.17c0.13-0.04,0.3-0.08,0.5-0.1c0.2-0.02,0.45-0.04,0.75-0.04c0.3,0,0.55,0.01,0.74,0.04
			c0.19,0.02,0.34,0.06,0.45,0.1s0.18,0.1,0.21,0.17c0.03,0.07,0.04,0.14,0.02,0.22L236.58,297.29z"/>
		<path class="st1" d="M242.73,297.29c-0.02,0.08-0.06,0.15-0.12,0.21c-0.06,0.06-0.15,0.11-0.28,0.15
			c-0.12,0.04-0.29,0.07-0.49,0.09c-0.2,0.02-0.45,0.03-0.74,0.03c-0.31,0-0.56-0.01-0.75-0.03c-0.19-0.02-0.34-0.05-0.45-0.09
			c-0.1-0.04-0.18-0.09-0.21-0.15c-0.04-0.06-0.05-0.13-0.03-0.21l3.22-16.07c0.02-0.08,0.05-0.15,0.11-0.22
			c0.06-0.07,0.15-0.12,0.28-0.17c0.13-0.04,0.3-0.08,0.5-0.1c0.2-0.02,0.45-0.04,0.75-0.04c0.3,0,0.55,0.01,0.74,0.04
			c0.19,0.02,0.34,0.06,0.45,0.1s0.18,0.1,0.21,0.17c0.03,0.07,0.04,0.14,0.02,0.22L242.73,297.29z"/>
		<path class="st1" d="M248.88,297.29c-0.02,0.08-0.06,0.15-0.12,0.21c-0.06,0.06-0.15,0.11-0.28,0.15
			c-0.13,0.04-0.29,0.07-0.5,0.09c-0.2,0.02-0.45,0.03-0.75,0.03c-0.3,0-0.55-0.01-0.74-0.03c-0.19-0.02-0.34-0.05-0.45-0.09
			c-0.11-0.04-0.18-0.09-0.22-0.15c-0.03-0.06-0.04-0.13-0.02-0.21l2.18-10.9c0.02-0.08,0.06-0.15,0.12-0.21
			c0.06-0.06,0.15-0.11,0.28-0.15c0.13-0.04,0.29-0.07,0.49-0.09c0.2-0.02,0.45-0.03,0.75-0.03c0.3,0,0.55,0.01,0.74,0.03
			c0.19,0.02,0.34,0.05,0.45,0.09c0.11,0.04,0.18,0.09,0.21,0.15c0.03,0.06,0.04,0.13,0.02,0.21L248.88,297.29z"/>
	</g>
	<g>
		<path class="st1" d="M277.07,468.91c0.04,0.29,0.06,0.52,0.06,0.7c0,0.17-0.06,0.3-0.17,0.39c-0.11,0.08-0.29,0.14-0.54,0.16
			c-0.25,0.02-0.6,0.03-1.04,0.03c-0.31,0-0.56-0.01-0.76-0.02c-0.2-0.01-0.35-0.03-0.45-0.07c-0.1-0.03-0.18-0.08-0.22-0.15
			c-0.04-0.07-0.07-0.15-0.07-0.27l-0.43-3.18h-5.94l-1.64,3.11c-0.06,0.11-0.12,0.21-0.2,0.29c-0.07,0.08-0.18,0.14-0.32,0.18
			c-0.14,0.04-0.33,0.07-0.56,0.08c-0.23,0.02-0.52,0.03-0.87,0.03c-0.38,0-0.67-0.01-0.87-0.04c-0.21-0.02-0.35-0.08-0.41-0.18
			c-0.07-0.09-0.08-0.23-0.03-0.4c0.05-0.17,0.16-0.4,0.31-0.68l7.68-14.03c0.08-0.14,0.16-0.25,0.24-0.34
			c0.08-0.09,0.2-0.15,0.35-0.2c0.15-0.04,0.35-0.07,0.61-0.09c0.26-0.01,0.59-0.02,1.01-0.02c0.48,0,0.86,0.01,1.14,0.02
			s0.5,0.04,0.65,0.09s0.26,0.11,0.31,0.2c0.05,0.09,0.08,0.21,0.1,0.37L277.07,468.91z M272.27,457.31h-0.01l-3.53,6.72h4.45
			L272.27,457.31z"/>
		<path class="st1" d="M288.99,470.13c-0.15,0.74-0.38,1.39-0.68,1.94c-0.31,0.55-0.72,1.01-1.22,1.38
			c-0.51,0.37-1.12,0.65-1.84,0.84c-0.72,0.19-1.56,0.28-2.53,0.28c-0.69,0-1.31-0.06-1.86-0.17s-1.01-0.25-1.37-0.42
			c-0.13-0.07-0.22-0.14-0.27-0.22c-0.05-0.08-0.07-0.19-0.07-0.34c0-0.05,0-0.13,0.01-0.24c0.01-0.11,0.03-0.24,0.06-0.38
			c0.03-0.14,0.06-0.28,0.1-0.43c0.04-0.15,0.09-0.29,0.15-0.4c0.06-0.12,0.13-0.22,0.2-0.29c0.07-0.08,0.16-0.12,0.26-0.12
			c0.1,0,0.22,0.03,0.36,0.1c0.14,0.07,0.33,0.14,0.57,0.23c0.24,0.08,0.53,0.16,0.88,0.23c0.35,0.07,0.78,0.1,1.3,0.1
			c0.42,0,0.79-0.03,1.12-0.1c0.33-0.07,0.62-0.17,0.86-0.32c0.24-0.15,0.44-0.33,0.59-0.56c0.15-0.23,0.26-0.51,0.32-0.84
			c0.1-0.53,0.21-0.97,0.32-1.33c0.1-0.36,0.2-0.65,0.29-0.88c-0.15,0.27-0.36,0.54-0.63,0.8c-0.27,0.26-0.58,0.5-0.93,0.71
			c-0.35,0.21-0.73,0.38-1.13,0.51c-0.4,0.13-0.81,0.19-1.22,0.19c-0.63,0-1.16-0.1-1.58-0.32c-0.43-0.21-0.78-0.51-1.05-0.88
			c-0.27-0.38-0.46-0.81-0.58-1.32c-0.12-0.51-0.18-1.05-0.18-1.64c0-0.53,0.05-1.1,0.15-1.71c0.1-0.61,0.25-1.22,0.46-1.82
			c0.21-0.6,0.47-1.18,0.79-1.74c0.32-0.55,0.7-1.04,1.14-1.47c0.44-0.43,0.95-0.77,1.53-1.02s1.22-0.38,1.94-0.38
			c0.68,0,1.27,0.14,1.8,0.42c0.52,0.28,0.98,0.69,1.37,1.23l0.2-0.97c0.03-0.17,0.16-0.29,0.39-0.37c0.22-0.07,0.58-0.11,1.08-0.11
			c0.24,0,0.45,0.01,0.61,0.03c0.16,0.02,0.29,0.05,0.39,0.09c0.09,0.04,0.16,0.09,0.19,0.15c0.03,0.06,0.04,0.13,0.02,0.22
			L288.99,470.13z M287.57,462.04c-0.29-0.45-0.6-0.78-0.95-1.01c-0.35-0.23-0.75-0.34-1.2-0.34c-0.34,0-0.65,0.08-0.94,0.24
			c-0.28,0.16-0.53,0.38-0.76,0.65c-0.23,0.27-0.42,0.59-0.59,0.95c-0.17,0.36-0.31,0.73-0.42,1.13c-0.11,0.39-0.19,0.78-0.24,1.17
			c-0.05,0.39-0.08,0.76-0.08,1.11c0,0.28,0.02,0.53,0.07,0.76c0.05,0.23,0.13,0.42,0.23,0.58c0.1,0.16,0.23,0.28,0.39,0.37
			c0.16,0.09,0.35,0.13,0.58,0.13c0.36,0,0.72-0.11,1.1-0.32c0.38-0.22,0.73-0.51,1.05-0.88c0.33-0.37,0.61-0.81,0.86-1.3
			c0.25-0.5,0.43-1.03,0.54-1.59L287.57,462.04z M290.81,453.32c0,0.08-0.02,0.23-0.06,0.43c-0.04,0.21-0.11,0.44-0.21,0.7
			c-0.1,0.26-0.25,0.53-0.44,0.81c-0.19,0.28-0.44,0.54-0.74,0.77c-0.3,0.23-0.67,0.42-1.11,0.57c-0.44,0.15-0.96,0.22-1.56,0.22
			c-0.62,0-1.13-0.07-1.53-0.2c-0.4-0.13-0.72-0.31-0.96-0.54c-0.24-0.23-0.4-0.49-0.5-0.79c-0.09-0.3-0.14-0.6-0.14-0.92
			c0-0.09,0-0.2,0.01-0.32c0.01-0.12,0.02-0.24,0.04-0.36c0.02-0.12,0.04-0.23,0.07-0.32c0.03-0.09,0.06-0.16,0.1-0.2
			c0.07-0.07,0.18-0.12,0.34-0.15c0.15-0.03,0.36-0.05,0.63-0.05c0.2,0,0.36,0.01,0.48,0.02c0.13,0.02,0.23,0.04,0.3,0.07
			c0.07,0.03,0.12,0.07,0.15,0.12s0.04,0.1,0.04,0.15c0,0.07-0.01,0.16-0.02,0.25c-0.01,0.09-0.02,0.19-0.02,0.28
			c0,0.15,0.02,0.29,0.06,0.41c0.04,0.12,0.11,0.23,0.2,0.32c0.09,0.09,0.21,0.16,0.36,0.21c0.15,0.05,0.34,0.07,0.57,0.07
			s0.44-0.03,0.64-0.08c0.19-0.06,0.37-0.14,0.53-0.26c0.16-0.12,0.29-0.26,0.41-0.44c0.11-0.18,0.2-0.39,0.27-0.64
			c0.03-0.08,0.07-0.15,0.12-0.21c0.04-0.06,0.11-0.11,0.19-0.15c0.08-0.04,0.19-0.06,0.32-0.08c0.13-0.02,0.3-0.03,0.5-0.03
			c0.21,0,0.38,0.01,0.51,0.02c0.13,0.02,0.23,0.04,0.29,0.06c0.07,0.02,0.12,0.06,0.14,0.1
			C290.8,453.23,290.81,453.27,290.81,453.32z"/>
		<path class="st1" d="M301.17,459.26c0,0.1-0.01,0.24-0.04,0.43c-0.03,0.19-0.07,0.39-0.13,0.58c-0.06,0.19-0.12,0.36-0.2,0.51
			c-0.08,0.14-0.17,0.22-0.26,0.22c-0.11,0-0.23-0.04-0.37-0.12c-0.14-0.08-0.31-0.16-0.52-0.26c-0.2-0.09-0.44-0.18-0.71-0.25
			c-0.27-0.07-0.59-0.11-0.96-0.11c-0.29,0-0.54,0.04-0.76,0.11c-0.23,0.07-0.41,0.17-0.56,0.3c-0.15,0.13-0.26,0.28-0.34,0.45
			c-0.08,0.17-0.12,0.35-0.12,0.55c0,0.25,0.1,0.46,0.31,0.63c0.21,0.17,0.47,0.33,0.78,0.48c0.31,0.15,0.64,0.31,1,0.47
			c0.36,0.16,0.69,0.37,1,0.61c0.31,0.25,0.57,0.54,0.77,0.89c0.2,0.35,0.3,0.79,0.3,1.32c0,0.62-0.12,1.19-0.35,1.72
			c-0.24,0.52-0.58,0.98-1.03,1.36c-0.45,0.38-1,0.68-1.65,0.9c-0.65,0.22-1.38,0.32-2.19,0.32c-0.39,0-0.77-0.03-1.12-0.08
			c-0.35-0.06-0.67-0.13-0.95-0.21c-0.28-0.08-0.52-0.18-0.71-0.28c-0.2-0.1-0.34-0.2-0.44-0.29c-0.07-0.07-0.11-0.13-0.14-0.21
			c-0.03-0.07-0.04-0.17-0.04-0.28c0-0.07,0.01-0.17,0.02-0.28c0.01-0.11,0.03-0.24,0.06-0.38c0.03-0.14,0.06-0.28,0.1-0.41
			c0.04-0.14,0.08-0.26,0.13-0.38c0.05-0.11,0.1-0.2,0.16-0.28c0.06-0.07,0.12-0.1,0.18-0.1c0.11,0,0.24,0.05,0.38,0.15
			c0.14,0.1,0.32,0.21,0.54,0.33c0.22,0.12,0.49,0.23,0.81,0.33c0.32,0.1,0.72,0.15,1.2,0.15c0.33,0,0.62-0.04,0.87-0.12
			c0.25-0.08,0.45-0.19,0.62-0.33c0.16-0.14,0.28-0.3,0.36-0.48c0.08-0.18,0.12-0.37,0.12-0.57c0-0.28-0.1-0.52-0.3-0.7
			c-0.2-0.18-0.45-0.35-0.75-0.5s-0.63-0.31-0.98-0.48s-0.68-0.36-0.98-0.6c-0.3-0.24-0.55-0.53-0.75-0.88
			c-0.2-0.35-0.3-0.79-0.3-1.32c0-0.58,0.11-1.12,0.33-1.61c0.22-0.5,0.54-0.93,0.97-1.3c0.42-0.37,0.94-0.66,1.54-0.87
			c0.6-0.21,1.29-0.31,2.05-0.31c0.34,0,0.67,0.02,1,0.07c0.32,0.04,0.61,0.1,0.87,0.18c0.26,0.07,0.48,0.15,0.67,0.24
			s0.33,0.18,0.41,0.27C301.12,458.93,301.17,459.07,301.17,459.26z"/>
		<path class="st1" d="M312.16,469.71c-0.02,0.08-0.05,0.15-0.1,0.21c-0.05,0.06-0.13,0.11-0.24,0.15s-0.25,0.07-0.42,0.09
			c-0.17,0.02-0.38,0.03-0.63,0.03c-0.25,0-0.46-0.01-0.62-0.03c-0.16-0.02-0.28-0.05-0.37-0.09c-0.09-0.04-0.15-0.09-0.18-0.15
			c-0.03-0.06-0.03-0.13-0.01-0.21l0.33-1.77c-0.16,0.29-0.39,0.57-0.67,0.86c-0.29,0.29-0.61,0.55-0.98,0.79
			c-0.37,0.24-0.77,0.43-1.2,0.58c-0.43,0.15-0.88,0.22-1.33,0.22c-0.57,0-1.05-0.08-1.45-0.24c-0.4-0.16-0.71-0.38-0.95-0.65
			c-0.24-0.27-0.42-0.6-0.53-0.98c-0.11-0.38-0.17-0.8-0.17-1.25c0-0.28,0.02-0.56,0.06-0.85c0.04-0.29,0.08-0.58,0.14-0.89
			l1.34-6.76c0.02-0.08,0.06-0.15,0.12-0.22c0.06-0.06,0.15-0.11,0.28-0.15c0.13-0.04,0.29-0.07,0.5-0.09
			c0.2-0.02,0.45-0.03,0.74-0.03c0.3,0,0.55,0.01,0.74,0.03c0.19,0.02,0.34,0.05,0.45,0.09c0.1,0.04,0.18,0.09,0.21,0.15
			c0.04,0.06,0.05,0.13,0.03,0.22l-1.3,6.55c-0.04,0.18-0.07,0.37-0.09,0.56c-0.02,0.19-0.03,0.38-0.03,0.56
			c0,0.19,0.02,0.37,0.06,0.53c0.04,0.16,0.09,0.29,0.18,0.41c0.08,0.11,0.18,0.2,0.31,0.26c0.13,0.06,0.28,0.09,0.46,0.09
			c0.33,0,0.68-0.11,1.05-0.33c0.36-0.22,0.71-0.51,1.03-0.89c0.33-0.38,0.62-0.83,0.87-1.35s0.45-1.08,0.58-1.68l0.93-4.72
			c0.01-0.08,0.04-0.15,0.11-0.22c0.07-0.06,0.16-0.11,0.29-0.15c0.13-0.04,0.29-0.07,0.5-0.09c0.2-0.02,0.45-0.03,0.75-0.03
			c0.3,0,0.55,0.01,0.74,0.03c0.19,0.02,0.34,0.05,0.45,0.09c0.11,0.04,0.18,0.09,0.22,0.15c0.03,0.06,0.04,0.13,0.02,0.22
			L312.16,469.71z"/>
	</g>
	<g>
		<path class="st1" d="M401.65,312.84c-0.67-0.08-1.21-0.2-1.63-0.35c-0.42-0.15-0.75-0.29-0.99-0.43
			c-0.24-0.14-0.42-0.26-0.53-0.39c-0.11-0.12-0.17-0.31-0.17-0.55c0-0.07,0.01-0.16,0.02-0.29c0.02-0.13,0.04-0.27,0.07-0.42
			c0.03-0.15,0.06-0.31,0.1-0.46c0.04-0.16,0.09-0.3,0.15-0.43c0.06-0.13,0.12-0.24,0.19-0.32c0.07-0.08,0.14-0.12,0.23-0.12
			c0.14,0,0.3,0.06,0.5,0.19c0.19,0.13,0.43,0.26,0.72,0.42s0.62,0.29,1.02,0.42c0.39,0.13,0.86,0.2,1.41,0.2
			c0.48,0,0.9-0.06,1.26-0.18s0.67-0.29,0.91-0.5c0.24-0.21,0.43-0.46,0.56-0.74c0.13-0.28,0.19-0.59,0.19-0.92
			c0-0.3-0.07-0.57-0.22-0.79c-0.15-0.23-0.34-0.44-0.58-0.63c-0.24-0.19-0.51-0.37-0.82-0.54c-0.3-0.17-0.62-0.35-0.93-0.55
			c-0.32-0.2-0.63-0.41-0.94-0.64c-0.3-0.23-0.58-0.5-0.82-0.8s-0.43-0.66-0.58-1.06c-0.15-0.4-0.22-0.86-0.22-1.39
			c0-0.73,0.15-1.41,0.44-2.03c0.29-0.62,0.7-1.15,1.22-1.59c0.52-0.44,1.15-0.79,1.87-1.04c0.73-0.25,1.52-0.37,2.4-0.37
			c0.41,0,0.79,0.03,1.16,0.09c0.37,0.06,0.7,0.14,1,0.23c0.3,0.09,0.56,0.2,0.77,0.31c0.21,0.11,0.36,0.21,0.44,0.29
			c0.08,0.08,0.14,0.16,0.18,0.24c0.04,0.09,0.06,0.19,0.06,0.32c0,0.07-0.01,0.16-0.02,0.28c-0.01,0.12-0.03,0.26-0.06,0.4
			c-0.02,0.15-0.06,0.3-0.09,0.45c-0.04,0.15-0.08,0.29-0.13,0.42c-0.05,0.13-0.11,0.23-0.18,0.31c-0.07,0.08-0.14,0.12-0.21,0.12
			c-0.12,0-0.26-0.05-0.43-0.15c-0.17-0.1-0.38-0.21-0.63-0.33c-0.25-0.12-0.54-0.23-0.87-0.33c-0.33-0.1-0.71-0.15-1.14-0.15
			c-0.44,0-0.81,0.06-1.12,0.18c-0.3,0.12-0.56,0.28-0.75,0.48c-0.19,0.2-0.34,0.42-0.43,0.67c-0.09,0.25-0.14,0.5-0.14,0.75
			c0,0.29,0.07,0.55,0.22,0.78c0.15,0.22,0.34,0.43,0.59,0.62c0.25,0.19,0.52,0.38,0.84,0.56c0.31,0.18,0.63,0.37,0.95,0.56
			c0.32,0.2,0.64,0.41,0.95,0.64c0.31,0.23,0.59,0.5,0.84,0.81c0.24,0.31,0.44,0.66,0.59,1.05c0.15,0.39,0.22,0.85,0.22,1.36
			c0,0.77-0.15,1.47-0.46,2.12c-0.31,0.65-0.72,1.2-1.24,1.66c-0.52,0.46-1.09,0.81-1.72,1.05c-0.62,0.24-1.15,0.39-1.58,0.44
			l0.16,0.66c0.06,0.2,0.1,0.39,0.13,0.57c0.03,0.18,0.05,0.36,0.05,0.54c0,0.44-0.07,0.82-0.22,1.14c-0.15,0.32-0.35,0.59-0.6,0.79
			c-0.26,0.21-0.57,0.36-0.93,0.46c-0.36,0.1-0.77,0.15-1.2,0.15c-0.24,0-0.47-0.01-0.69-0.02c-0.22-0.02-0.43-0.04-0.62-0.08
			c-0.19-0.04-0.36-0.08-0.51-0.12c-0.15-0.04-0.27-0.09-0.36-0.13c-0.09-0.05-0.15-0.1-0.18-0.15c-0.03-0.05-0.05-0.13-0.05-0.24
			c0-0.08,0.01-0.2,0.03-0.34c0.02-0.15,0.06-0.29,0.1-0.44c0.05-0.15,0.12-0.27,0.2-0.38c0.09-0.11,0.19-0.17,0.33-0.17h1.39
			c0.11,0,0.22-0.01,0.33-0.04c0.11-0.03,0.2-0.07,0.28-0.12c0.08-0.05,0.14-0.12,0.18-0.21c0.04-0.09,0.07-0.19,0.07-0.31
			c0-0.08-0.01-0.18-0.02-0.28c-0.01-0.11-0.03-0.21-0.06-0.32L401.65,312.84z"/>
		<path class="st1" d="M420.59,312.2c-0.03,0.17-0.16,0.29-0.39,0.37c-0.22,0.07-0.58,0.11-1.08,0.11c-0.25,0-0.46-0.01-0.62-0.02
			c-0.16-0.02-0.29-0.04-0.39-0.08c-0.1-0.04-0.16-0.09-0.19-0.15c-0.03-0.06-0.03-0.14-0.02-0.23l0.34-1.75
			c-0.12,0.26-0.32,0.54-0.59,0.83c-0.27,0.29-0.59,0.55-0.95,0.79c-0.37,0.24-0.77,0.43-1.22,0.59c-0.44,0.15-0.9,0.23-1.37,0.23
			c-0.65,0-1.19-0.11-1.63-0.34s-0.78-0.54-1.04-0.92c-0.26-0.39-0.45-0.83-0.56-1.33c-0.11-0.5-0.16-1.02-0.16-1.56
			c0-0.51,0.05-1.07,0.15-1.68c0.1-0.61,0.25-1.21,0.45-1.82c0.2-0.6,0.46-1.18,0.78-1.74c0.32-0.56,0.7-1.05,1.14-1.48
			c0.44-0.43,0.95-0.78,1.53-1.03c0.57-0.26,1.22-0.39,1.95-0.39c0.68,0,1.27,0.14,1.8,0.42c0.52,0.28,0.98,0.69,1.37,1.23l0.2-0.97
			c0.03-0.17,0.16-0.29,0.39-0.37c0.22-0.07,0.58-0.11,1.08-0.11c0.24,0,0.45,0.01,0.61,0.03c0.16,0.02,0.29,0.05,0.39,0.09
			c0.09,0.04,0.16,0.09,0.19,0.15c0.03,0.06,0.04,0.13,0.02,0.21L420.59,312.2z M419.08,304.55c-0.29-0.45-0.6-0.78-0.95-1.01
			c-0.35-0.22-0.75-0.34-1.2-0.34c-0.34,0-0.66,0.08-0.94,0.25c-0.29,0.16-0.54,0.38-0.76,0.65c-0.22,0.27-0.41,0.59-0.58,0.95
			c-0.17,0.36-0.31,0.73-0.42,1.12c-0.11,0.39-0.19,0.78-0.24,1.17c-0.05,0.39-0.08,0.76-0.08,1.09c0,0.25,0.02,0.48,0.06,0.7
			c0.04,0.22,0.1,0.42,0.2,0.59c0.1,0.17,0.23,0.31,0.39,0.41c0.16,0.1,0.37,0.15,0.62,0.15c0.36,0,0.72-0.11,1.1-0.32
			c0.38-0.22,0.73-0.51,1.05-0.88c0.33-0.37,0.61-0.8,0.86-1.3c0.25-0.49,0.43-1.02,0.54-1.58L419.08,304.55z"/>
		<path class="st1" d="M440.79,312.19c-0.02,0.08-0.06,0.15-0.12,0.21c-0.06,0.06-0.16,0.11-0.29,0.15c-0.13,0.04-0.3,0.07-0.5,0.09
			c-0.2,0.02-0.45,0.03-0.75,0.03c-0.29,0-0.54-0.01-0.73-0.03c-0.2-0.02-0.35-0.05-0.45-0.09c-0.11-0.04-0.18-0.09-0.22-0.15
			c-0.04-0.06-0.04-0.13-0.02-0.21l1.31-6.54c0.03-0.19,0.06-0.37,0.09-0.56c0.02-0.18,0.04-0.37,0.04-0.56
			c0-0.38-0.07-0.69-0.21-0.93c-0.14-0.24-0.4-0.35-0.76-0.35c-0.33,0-0.66,0.11-1.02,0.32c-0.35,0.21-0.69,0.5-1.01,0.86
			c-0.32,0.36-0.61,0.79-0.86,1.27c-0.25,0.49-0.42,1-0.53,1.55l-0.99,4.94c-0.02,0.08-0.06,0.15-0.12,0.21
			c-0.06,0.06-0.16,0.11-0.29,0.15c-0.13,0.04-0.29,0.07-0.49,0.09c-0.2,0.02-0.45,0.03-0.75,0.03c-0.29,0-0.54-0.01-0.73-0.03
			c-0.19-0.02-0.34-0.05-0.45-0.09c-0.11-0.04-0.18-0.09-0.22-0.15c-0.04-0.06-0.05-0.13-0.03-0.21l1.3-6.54
			c0.05-0.19,0.08-0.38,0.1-0.58c0.02-0.2,0.03-0.39,0.03-0.58c0-0.36-0.07-0.65-0.22-0.89s-0.4-0.35-0.76-0.35
			c-0.33,0-0.66,0.11-1.01,0.32c-0.35,0.21-0.69,0.5-1.01,0.86c-0.32,0.36-0.61,0.79-0.86,1.27c-0.25,0.49-0.42,1-0.53,1.55
			l-0.99,4.94c-0.02,0.08-0.06,0.15-0.12,0.21c-0.06,0.06-0.15,0.11-0.28,0.15c-0.13,0.04-0.29,0.07-0.5,0.09
			c-0.2,0.02-0.45,0.03-0.75,0.03c-0.3,0-0.55-0.01-0.74-0.03c-0.19-0.02-0.34-0.05-0.45-0.09c-0.11-0.04-0.18-0.09-0.22-0.15
			c-0.03-0.06-0.04-0.13-0.02-0.21l2.19-10.92c0.02-0.08,0.05-0.15,0.1-0.21c0.05-0.06,0.14-0.11,0.24-0.15
			c0.11-0.04,0.25-0.07,0.43-0.09c0.18-0.02,0.39-0.03,0.63-0.03c0.25,0,0.46,0.01,0.62,0.03c0.16,0.02,0.28,0.05,0.37,0.09
			c0.09,0.04,0.15,0.09,0.18,0.15c0.03,0.06,0.03,0.13,0.02,0.21l-0.35,1.8c0.17-0.28,0.4-0.58,0.68-0.87s0.61-0.56,0.97-0.8
			c0.36-0.24,0.76-0.43,1.19-0.58c0.43-0.15,0.87-0.23,1.33-0.23c0.47,0,0.88,0.06,1.23,0.19s0.63,0.3,0.86,0.53
			c0.23,0.22,0.4,0.49,0.51,0.79c0.12,0.3,0.19,0.63,0.23,0.98c0.19-0.29,0.43-0.59,0.72-0.88c0.29-0.29,0.62-0.56,0.98-0.79
			c0.36-0.24,0.76-0.43,1.18-0.58c0.42-0.15,0.86-0.23,1.31-0.23c0.57,0,1.05,0.08,1.44,0.24c0.39,0.16,0.7,0.38,0.94,0.66
			c0.24,0.28,0.41,0.61,0.51,0.99c0.11,0.38,0.16,0.79,0.16,1.23c0,0.29-0.02,0.57-0.05,0.86c-0.03,0.29-0.08,0.58-0.15,0.89
			L440.79,312.19z"/>
		<path class="st1" d="M453.93,312.2c-0.03,0.17-0.16,0.29-0.39,0.37c-0.22,0.07-0.58,0.11-1.08,0.11c-0.25,0-0.46-0.01-0.62-0.02
			c-0.16-0.02-0.29-0.04-0.39-0.08c-0.1-0.04-0.16-0.09-0.19-0.15c-0.03-0.06-0.03-0.14-0.02-0.23l0.34-1.75
			c-0.12,0.26-0.32,0.54-0.59,0.83c-0.27,0.29-0.59,0.55-0.95,0.79c-0.37,0.24-0.77,0.43-1.22,0.59c-0.44,0.15-0.9,0.23-1.37,0.23
			c-0.65,0-1.19-0.11-1.63-0.34s-0.78-0.54-1.04-0.92c-0.26-0.39-0.45-0.83-0.56-1.33c-0.11-0.5-0.16-1.02-0.16-1.56
			c0-0.51,0.05-1.07,0.15-1.68c0.1-0.61,0.25-1.21,0.45-1.82c0.2-0.6,0.46-1.18,0.78-1.74c0.32-0.56,0.7-1.05,1.14-1.48
			c0.44-0.43,0.95-0.78,1.53-1.03c0.57-0.26,1.22-0.39,1.95-0.39c0.68,0,1.27,0.14,1.8,0.42c0.52,0.28,0.98,0.69,1.37,1.23l0.2-0.97
			c0.03-0.17,0.16-0.29,0.39-0.37c0.22-0.07,0.58-0.11,1.08-0.11c0.24,0,0.45,0.01,0.61,0.03c0.16,0.02,0.29,0.05,0.39,0.09
			c0.09,0.04,0.16,0.09,0.19,0.15s0.04,0.13,0.02,0.21L453.93,312.2z M452.41,304.55c-0.29-0.45-0.6-0.78-0.95-1.01
			c-0.35-0.22-0.75-0.34-1.2-0.34c-0.34,0-0.66,0.08-0.94,0.25c-0.29,0.16-0.54,0.38-0.76,0.65c-0.22,0.27-0.41,0.59-0.58,0.95
			c-0.17,0.36-0.31,0.73-0.42,1.12c-0.11,0.39-0.19,0.78-0.24,1.17c-0.05,0.39-0.08,0.76-0.08,1.09c0,0.25,0.02,0.48,0.06,0.7
			c0.04,0.22,0.1,0.42,0.2,0.59c0.1,0.17,0.23,0.31,0.39,0.41c0.16,0.1,0.37,0.15,0.62,0.15c0.36,0,0.72-0.11,1.1-0.32
			c0.38-0.22,0.73-0.51,1.05-0.88c0.33-0.37,0.61-0.8,0.86-1.3c0.25-0.49,0.43-1.02,0.54-1.58L452.41,304.55z"/>
		<path class="st1" d="M464.6,306.54l1.96,5.43c0.04,0.14,0.05,0.25,0.02,0.34c-0.02,0.09-0.1,0.16-0.23,0.22
			c-0.13,0.06-0.31,0.1-0.54,0.12c-0.24,0.02-0.54,0.03-0.92,0.03c-0.34,0-0.61-0.01-0.81-0.02c-0.2-0.02-0.35-0.04-0.45-0.07
			c-0.11-0.03-0.18-0.08-0.21-0.14c-0.04-0.06-0.06-0.12-0.08-0.2l-1.32-3.85l-2.76,3.86c-0.05,0.07-0.1,0.14-0.16,0.19
			c-0.06,0.05-0.16,0.1-0.31,0.13c-0.14,0.03-0.33,0.06-0.56,0.07c-0.23,0.02-0.54,0.02-0.93,0.02c-0.35,0-0.63-0.01-0.84-0.03
			c-0.21-0.02-0.37-0.06-0.46-0.11c-0.1-0.05-0.14-0.12-0.13-0.21c0.01-0.09,0.06-0.2,0.15-0.34l4.14-5.43l-1.82-5.04
			c-0.05-0.15-0.07-0.27-0.05-0.36c0.02-0.09,0.08-0.17,0.19-0.23c0.11-0.06,0.28-0.1,0.51-0.12c0.23-0.02,0.54-0.03,0.92-0.03
			c0.33,0,0.6,0.01,0.79,0.02c0.19,0.01,0.34,0.03,0.44,0.06c0.1,0.02,0.17,0.06,0.21,0.12c0.04,0.05,0.07,0.12,0.09,0.2l1.27,3.64
			l2.63-3.64c0.05-0.07,0.1-0.12,0.16-0.17c0.06-0.05,0.15-0.09,0.27-0.12c0.12-0.03,0.28-0.06,0.48-0.07
			c0.2-0.02,0.46-0.02,0.79-0.02c0.38,0,0.67,0.01,0.9,0.02c0.23,0.02,0.39,0.05,0.5,0.1c0.11,0.05,0.15,0.12,0.14,0.2
			c-0.01,0.09-0.07,0.2-0.18,0.35L464.6,306.54z"/>
		<path class="st1" d="M471.6,312.19c-0.02,0.08-0.06,0.15-0.12,0.21c-0.06,0.06-0.15,0.11-0.28,0.15c-0.13,0.04-0.29,0.07-0.5,0.09
			c-0.2,0.02-0.45,0.03-0.75,0.03c-0.3,0-0.55-0.01-0.74-0.03c-0.19-0.02-0.34-0.05-0.45-0.09c-0.11-0.04-0.18-0.09-0.22-0.15
			c-0.03-0.06-0.04-0.13-0.02-0.21l2.18-10.9c0.02-0.08,0.06-0.15,0.12-0.21c0.06-0.06,0.15-0.11,0.28-0.15
			c0.13-0.04,0.29-0.07,0.49-0.09c0.2-0.02,0.45-0.03,0.75-0.03c0.3,0,0.55,0.01,0.74,0.03c0.19,0.02,0.34,0.05,0.45,0.09
			c0.11,0.04,0.18,0.09,0.21,0.15c0.03,0.06,0.04,0.13,0.02,0.21L471.6,312.19z"/>
	</g>
	<g>
		<path class="st1" d="M550.41,486.78c0,0.07-0.01,0.18-0.02,0.32c-0.02,0.14-0.04,0.29-0.07,0.45c-0.03,0.16-0.07,0.33-0.12,0.5
			c-0.05,0.17-0.11,0.32-0.17,0.45c-0.07,0.13-0.14,0.24-0.22,0.33c-0.08,0.08-0.17,0.13-0.26,0.13c-0.08,0-0.22-0.02-0.4-0.07
			c-0.18-0.04-0.4-0.12-0.66-0.22c-0.25-0.1-0.53-0.23-0.84-0.4c-0.31-0.16-0.62-0.36-0.94-0.6c-0.32-0.24-0.63-0.51-0.95-0.81
			c-0.32-0.31-0.62-0.65-0.89-1.05c-0.43,0.2-0.91,0.34-1.42,0.45c-0.52,0.1-1.09,0.15-1.73,0.15c-0.99,0-1.86-0.11-2.62-0.33
			c-0.76-0.22-1.39-0.56-1.91-1.02c-0.51-0.46-0.9-1.03-1.17-1.72c-0.26-0.69-0.4-1.51-0.4-2.44c0-0.77,0.07-1.57,0.2-2.4
			c0.13-0.84,0.35-1.66,0.65-2.46c0.3-0.8,0.68-1.57,1.16-2.29c0.48-0.73,1.05-1.37,1.74-1.92c0.68-0.55,1.47-0.99,2.37-1.31
			s1.93-0.48,3.09-0.48c0.98,0,1.85,0.11,2.6,0.34c0.76,0.22,1.39,0.57,1.91,1.03c0.51,0.46,0.9,1.04,1.17,1.74
			c0.26,0.7,0.4,1.52,0.4,2.47c0,0.46-0.03,0.95-0.08,1.47c-0.05,0.51-0.14,1.03-0.25,1.55c-0.11,0.52-0.26,1.04-0.45,1.57
			c-0.18,0.52-0.4,1.04-0.66,1.54c-0.26,0.5-0.56,0.98-0.9,1.43c-0.35,0.45-0.74,0.88-1.18,1.28c0.38,0.4,0.74,0.71,1.06,0.93
			c0.33,0.22,0.61,0.39,0.86,0.52c0.25,0.13,0.46,0.22,0.62,0.28c0.17,0.06,0.28,0.12,0.34,0.17c0.06,0.06,0.09,0.11,0.11,0.17
			C550.4,486.57,550.41,486.66,550.41,486.78z M547.51,475.91c0-0.5-0.06-0.95-0.17-1.35c-0.11-0.4-0.29-0.74-0.53-1.02
			c-0.24-0.28-0.57-0.49-0.97-0.64c-0.4-0.15-0.88-0.23-1.44-0.23c-0.71,0-1.33,0.14-1.88,0.41c-0.54,0.27-1.01,0.63-1.41,1.07
			c-0.4,0.44-0.73,0.94-1,1.51c-0.27,0.57-0.49,1.14-0.65,1.72c-0.16,0.58-0.28,1.15-0.35,1.71c-0.07,0.56-0.1,1.04-0.1,1.46
			c0,0.51,0.06,0.96,0.17,1.36s0.29,0.73,0.54,1.01c0.25,0.27,0.57,0.48,0.97,0.63c0.4,0.15,0.88,0.22,1.45,0.22
			c0.7,0,1.32-0.14,1.86-0.4c0.54-0.27,1-0.62,1.4-1.06c0.4-0.44,0.73-0.94,1-1.5s0.49-1.13,0.65-1.71c0.16-0.58,0.28-1.14,0.35-1.7
			C547.48,476.84,547.51,476.34,547.51,475.91z"/>
		<path class="st1" d="M563.94,478.48c0,0.59-0.06,1.19-0.17,1.81c-0.11,0.62-0.28,1.23-0.52,1.82c-0.24,0.59-0.54,1.14-0.91,1.66
			c-0.37,0.52-0.81,0.97-1.33,1.37s-1.11,0.71-1.78,0.93c-0.67,0.23-1.42,0.34-2.26,0.34c-0.82,0-1.53-0.09-2.13-0.29
			c-0.6-0.19-1.1-0.47-1.5-0.84c-0.4-0.37-0.7-0.83-0.89-1.37c-0.2-0.54-0.29-1.16-0.29-1.86c0-0.59,0.06-1.19,0.17-1.81
			c0.11-0.62,0.28-1.22,0.52-1.81c0.24-0.59,0.54-1.14,0.91-1.67c0.37-0.53,0.81-0.98,1.33-1.37c0.52-0.39,1.11-0.7,1.78-0.93
			c0.67-0.23,1.42-0.34,2.26-0.34c0.82,0,1.53,0.09,2.13,0.29c0.6,0.19,1.1,0.47,1.5,0.84s0.7,0.83,0.89,1.37
			C563.84,477.16,563.94,477.78,563.94,478.48z M560.76,478.69c0-0.34-0.03-0.65-0.1-0.91c-0.07-0.26-0.18-0.49-0.34-0.67
			c-0.16-0.18-0.36-0.32-0.61-0.42c-0.25-0.1-0.55-0.15-0.91-0.15c-0.41,0-0.77,0.08-1.1,0.24c-0.33,0.16-0.62,0.37-0.87,0.64
			s-0.48,0.58-0.67,0.94s-0.34,0.73-0.46,1.12c-0.12,0.39-0.21,0.79-0.27,1.19c-0.06,0.4-0.08,0.79-0.08,1.16
			c0,0.34,0.03,0.65,0.1,0.92c0.07,0.27,0.18,0.5,0.34,0.68c0.16,0.18,0.36,0.32,0.61,0.42c0.25,0.1,0.55,0.15,0.91,0.15
			c0.41,0,0.77-0.08,1.1-0.24c0.33-0.16,0.62-0.38,0.87-0.65c0.26-0.27,0.48-0.59,0.67-0.94c0.19-0.35,0.34-0.73,0.46-1.12
			c0.12-0.4,0.21-0.79,0.27-1.19C560.73,479.44,560.76,479.05,560.76,478.69z"/>
		<path class="st1" d="M577.14,478.27c0,0.54-0.05,1.11-0.15,1.72c-0.1,0.61-0.25,1.22-0.45,1.82c-0.2,0.6-0.46,1.18-0.78,1.74
			c-0.32,0.55-0.7,1.04-1.15,1.47c-0.45,0.42-0.96,0.76-1.53,1.02s-1.22,0.38-1.93,0.38c-0.68,0-1.29-0.13-1.82-0.4
			s-0.98-0.68-1.36-1.22l-0.18,0.93c-0.03,0.17-0.16,0.3-0.39,0.37c-0.22,0.08-0.58,0.12-1.08,0.12c-0.49,0-0.82-0.04-1-0.12
			c-0.18-0.08-0.25-0.2-0.22-0.37l3.22-16.07c0.02-0.08,0.05-0.15,0.11-0.22c0.06-0.06,0.15-0.12,0.28-0.17
			c0.13-0.04,0.3-0.08,0.5-0.1c0.2-0.02,0.45-0.04,0.75-0.04s0.55,0.01,0.73,0.04c0.19,0.02,0.34,0.06,0.45,0.1
			c0.11,0.05,0.18,0.1,0.21,0.17c0.03,0.07,0.04,0.14,0.02,0.22l-0.87,4.38c-0.04,0.19-0.09,0.39-0.14,0.59
			c-0.05,0.21-0.1,0.41-0.16,0.62c-0.06,0.2-0.12,0.4-0.18,0.59c-0.06,0.19-0.12,0.36-0.18,0.51c0.15-0.26,0.36-0.52,0.63-0.79
			c0.27-0.26,0.59-0.5,0.93-0.71c0.35-0.21,0.73-0.38,1.13-0.51c0.4-0.13,0.81-0.19,1.22-0.19c0.46,0,0.87,0.06,1.21,0.18
			c0.34,0.12,0.64,0.28,0.89,0.48c0.25,0.2,0.46,0.45,0.62,0.72s0.29,0.57,0.39,0.87c0.1,0.3,0.17,0.62,0.2,0.95
			C577.12,477.64,577.14,477.96,577.14,478.27z M573.98,478.58c0-0.2-0.01-0.41-0.04-0.63c-0.03-0.22-0.09-0.42-0.18-0.6
			c-0.09-0.18-0.22-0.33-0.39-0.44c-0.16-0.12-0.38-0.17-0.65-0.17c-0.37,0-0.74,0.11-1.11,0.33c-0.37,0.22-0.72,0.51-1.05,0.89
			c-0.33,0.38-0.62,0.81-0.87,1.31c-0.25,0.5-0.43,1.03-0.54,1.59l-0.34,1.65c0.29,0.45,0.6,0.78,0.95,1
			c0.35,0.22,0.75,0.32,1.2,0.32c0.33,0,0.63-0.08,0.9-0.24c0.28-0.16,0.53-0.37,0.75-0.63c0.22-0.26,0.42-0.57,0.59-0.92
			c0.17-0.35,0.31-0.72,0.42-1.11c0.12-0.39,0.2-0.78,0.26-1.18C573.95,479.34,573.98,478.95,573.98,478.58z"/>
		<path class="st1" d="M588.44,485.73c-0.02,0.08-0.05,0.15-0.1,0.21c-0.05,0.06-0.13,0.11-0.24,0.15
			c-0.11,0.04-0.25,0.07-0.42,0.09c-0.17,0.02-0.38,0.03-0.63,0.03s-0.46-0.01-0.62-0.03c-0.16-0.02-0.28-0.05-0.37-0.09
			c-0.09-0.04-0.15-0.09-0.18-0.15c-0.03-0.06-0.03-0.13-0.01-0.21l0.33-1.77c-0.16,0.29-0.39,0.57-0.67,0.86
			c-0.29,0.29-0.61,0.55-0.98,0.79c-0.37,0.24-0.77,0.43-1.2,0.58c-0.43,0.15-0.88,0.22-1.33,0.22c-0.57,0-1.05-0.08-1.45-0.24
			c-0.4-0.16-0.71-0.38-0.95-0.65c-0.24-0.27-0.42-0.6-0.53-0.98c-0.11-0.38-0.17-0.8-0.17-1.25c0-0.28,0.02-0.56,0.06-0.85
			c0.04-0.29,0.08-0.58,0.14-0.89l1.34-6.76c0.02-0.08,0.06-0.15,0.12-0.22c0.06-0.06,0.15-0.11,0.28-0.15
			c0.13-0.04,0.29-0.07,0.5-0.09c0.2-0.02,0.45-0.03,0.74-0.03c0.3,0,0.55,0.01,0.74,0.03c0.19,0.02,0.34,0.05,0.45,0.09
			c0.1,0.04,0.18,0.09,0.21,0.15c0.04,0.06,0.05,0.13,0.03,0.22l-1.3,6.55c-0.04,0.18-0.07,0.37-0.09,0.56
			c-0.02,0.19-0.03,0.38-0.03,0.56c0,0.19,0.02,0.37,0.06,0.53c0.04,0.16,0.09,0.29,0.18,0.41c0.08,0.11,0.18,0.2,0.31,0.26
			c0.13,0.06,0.28,0.09,0.46,0.09c0.33,0,0.68-0.11,1.05-0.33c0.36-0.22,0.71-0.51,1.03-0.89c0.33-0.38,0.62-0.83,0.87-1.35
			c0.26-0.52,0.45-1.08,0.58-1.68l0.93-4.72c0.01-0.08,0.04-0.15,0.11-0.22c0.07-0.06,0.16-0.11,0.29-0.15
			c0.13-0.04,0.29-0.07,0.5-0.09c0.2-0.02,0.45-0.03,0.75-0.03c0.3,0,0.55,0.01,0.74,0.03c0.19,0.02,0.34,0.05,0.45,0.09
			c0.11,0.04,0.18,0.09,0.22,0.15c0.03,0.06,0.04,0.13,0.02,0.22L588.44,485.73z"/>
		<path class="st1" d="M600.52,475.29c0,0.1-0.01,0.24-0.04,0.43c-0.03,0.19-0.07,0.39-0.13,0.58c-0.06,0.19-0.12,0.36-0.2,0.51
			c-0.08,0.14-0.17,0.22-0.26,0.22c-0.11,0-0.23-0.04-0.37-0.12s-0.31-0.16-0.52-0.26c-0.2-0.09-0.44-0.18-0.71-0.25
			c-0.27-0.07-0.59-0.11-0.96-0.11c-0.29,0-0.54,0.04-0.76,0.11c-0.23,0.07-0.41,0.17-0.56,0.3c-0.15,0.13-0.26,0.28-0.34,0.45
			c-0.08,0.17-0.12,0.35-0.12,0.55c0,0.25,0.1,0.46,0.31,0.63c0.21,0.17,0.47,0.33,0.78,0.48c0.31,0.15,0.64,0.31,1,0.47
			c0.36,0.16,0.69,0.37,1,0.61c0.31,0.25,0.57,0.54,0.77,0.89c0.2,0.35,0.3,0.79,0.3,1.32c0,0.62-0.12,1.19-0.35,1.72
			c-0.24,0.52-0.58,0.98-1.03,1.36c-0.45,0.38-1,0.68-1.65,0.9c-0.65,0.22-1.38,0.32-2.19,0.32c-0.39,0-0.77-0.03-1.12-0.08
			c-0.35-0.06-0.67-0.13-0.95-0.21c-0.28-0.08-0.52-0.18-0.71-0.28c-0.2-0.1-0.34-0.2-0.44-0.29c-0.07-0.07-0.11-0.13-0.14-0.21
			c-0.03-0.07-0.04-0.17-0.04-0.28c0-0.07,0.01-0.17,0.02-0.28c0.01-0.11,0.03-0.24,0.06-0.38c0.03-0.14,0.06-0.28,0.1-0.41
			c0.04-0.14,0.08-0.26,0.13-0.38c0.05-0.11,0.1-0.2,0.16-0.28c0.06-0.07,0.12-0.1,0.18-0.1c0.11,0,0.24,0.05,0.38,0.15
			c0.14,0.1,0.32,0.21,0.54,0.33c0.22,0.12,0.49,0.23,0.81,0.33c0.32,0.1,0.72,0.15,1.2,0.15c0.33,0,0.62-0.04,0.87-0.12
			c0.25-0.08,0.45-0.19,0.62-0.33c0.16-0.14,0.28-0.3,0.36-0.48c0.08-0.18,0.12-0.37,0.12-0.57c0-0.28-0.1-0.52-0.3-0.7
			c-0.2-0.18-0.45-0.35-0.75-0.5c-0.3-0.15-0.63-0.31-0.98-0.48s-0.68-0.36-0.98-0.6s-0.55-0.53-0.75-0.88
			c-0.2-0.35-0.3-0.79-0.3-1.32c0-0.58,0.11-1.12,0.33-1.61s0.54-0.93,0.97-1.3c0.42-0.37,0.94-0.66,1.54-0.87
			c0.6-0.21,1.29-0.31,2.05-0.31c0.34,0,0.67,0.02,1,0.07c0.32,0.04,0.61,0.1,0.87,0.18c0.26,0.07,0.48,0.15,0.67,0.24
			c0.19,0.09,0.33,0.18,0.41,0.27C600.47,474.95,600.52,475.09,600.52,475.29z"/>
		<path class="st1" d="M609.67,474.92c0,0.08-0.01,0.18-0.02,0.31c-0.02,0.13-0.04,0.26-0.07,0.41c-0.03,0.15-0.07,0.29-0.12,0.44
			c-0.05,0.15-0.1,0.28-0.17,0.4c-0.06,0.12-0.13,0.22-0.21,0.29c-0.08,0.08-0.16,0.12-0.25,0.12h-2.38l-1.03,5.12
			c-0.02,0.12-0.05,0.27-0.07,0.43s-0.03,0.3-0.03,0.41c0,0.33,0.08,0.56,0.23,0.71c0.15,0.15,0.4,0.23,0.73,0.23
			c0.2,0,0.36-0.01,0.5-0.04c0.14-0.03,0.26-0.06,0.36-0.1c0.1-0.04,0.19-0.07,0.26-0.1c0.07-0.03,0.14-0.04,0.21-0.04
			c0.07,0,0.12,0.03,0.17,0.09c0.04,0.06,0.07,0.16,0.07,0.3c0,0.15-0.02,0.33-0.05,0.52c-0.03,0.2-0.08,0.39-0.13,0.57
			c-0.05,0.18-0.11,0.35-0.18,0.5s-0.13,0.26-0.21,0.34c-0.07,0.07-0.18,0.14-0.33,0.21c-0.15,0.07-0.32,0.12-0.52,0.17
			c-0.2,0.05-0.41,0.09-0.64,0.12c-0.23,0.03-0.46,0.04-0.68,0.04c-0.49,0-0.92-0.05-1.29-0.15c-0.37-0.1-0.68-0.26-0.93-0.48
			c-0.25-0.22-0.44-0.5-0.57-0.84c-0.13-0.34-0.19-0.76-0.19-1.25c0-0.09,0-0.19,0.01-0.31c0.01-0.12,0.02-0.24,0.04-0.37
			s0.04-0.26,0.06-0.4c0.02-0.13,0.04-0.25,0.07-0.36l1.06-5.32h-1.32c-0.1,0-0.18-0.04-0.23-0.1c-0.05-0.07-0.07-0.2-0.07-0.4
			c0-0.14,0.01-0.32,0.04-0.54c0.03-0.22,0.07-0.44,0.14-0.66c0.07-0.22,0.15-0.4,0.26-0.56c0.1-0.15,0.23-0.23,0.38-0.23h1.31
			l0.49-2.43c0.02-0.08,0.06-0.15,0.12-0.22c0.06-0.06,0.15-0.12,0.28-0.17c0.13-0.04,0.29-0.08,0.49-0.1
			c0.2-0.02,0.45-0.03,0.75-0.03c0.29,0,0.54,0.01,0.73,0.03c0.19,0.02,0.35,0.05,0.45,0.1c0.1,0.05,0.18,0.1,0.21,0.17
			c0.04,0.07,0.05,0.14,0.03,0.22l-0.49,2.43h2.36c0.14,0,0.23,0.04,0.28,0.13C609.65,474.62,609.67,474.75,609.67,474.92z"/>
		<path class="st1" d="M619.61,485.73c-0.03,0.17-0.16,0.29-0.39,0.37c-0.22,0.07-0.59,0.11-1.08,0.11c-0.25,0-0.46-0.01-0.62-0.03
			c-0.16-0.02-0.29-0.04-0.39-0.08c-0.1-0.04-0.16-0.08-0.19-0.15c-0.03-0.06-0.03-0.14-0.02-0.23l0.34-1.75
			c-0.12,0.26-0.32,0.54-0.59,0.82c-0.27,0.29-0.59,0.55-0.95,0.79c-0.37,0.24-0.77,0.43-1.22,0.59s-0.9,0.23-1.37,0.23
			c-0.65,0-1.19-0.11-1.63-0.34c-0.43-0.23-0.78-0.54-1.04-0.92c-0.26-0.39-0.45-0.83-0.56-1.33c-0.11-0.5-0.16-1.02-0.16-1.56
			c0-0.51,0.05-1.07,0.15-1.68c0.1-0.61,0.25-1.21,0.45-1.82c0.2-0.6,0.46-1.18,0.78-1.74c0.32-0.56,0.7-1.05,1.14-1.48
			c0.44-0.43,0.95-0.78,1.53-1.03c0.57-0.26,1.22-0.39,1.95-0.39c0.68,0,1.27,0.14,1.8,0.42c0.52,0.28,0.98,0.69,1.37,1.23l0.2-0.97
			c0.03-0.17,0.16-0.29,0.39-0.37c0.22-0.07,0.58-0.11,1.08-0.11c0.24,0,0.45,0.01,0.61,0.03c0.16,0.02,0.29,0.05,0.39,0.09
			c0.09,0.04,0.16,0.09,0.19,0.15c0.03,0.06,0.04,0.13,0.02,0.22L619.61,485.73z M618.09,478.08c-0.29-0.45-0.6-0.78-0.95-1.01
			c-0.35-0.23-0.75-0.34-1.2-0.34c-0.34,0-0.66,0.08-0.94,0.24c-0.29,0.16-0.54,0.38-0.76,0.65c-0.22,0.27-0.41,0.59-0.58,0.95
			c-0.17,0.36-0.31,0.73-0.42,1.12s-0.19,0.78-0.24,1.17c-0.05,0.4-0.08,0.76-0.08,1.09c0,0.24,0.02,0.48,0.06,0.7
			c0.04,0.22,0.1,0.42,0.2,0.59c0.1,0.17,0.23,0.31,0.39,0.41c0.16,0.1,0.37,0.15,0.62,0.15c0.36,0,0.72-0.11,1.1-0.32
			c0.38-0.22,0.73-0.51,1.05-0.88c0.33-0.37,0.61-0.8,0.86-1.3c0.25-0.49,0.43-1.02,0.54-1.58L618.09,478.08z"/>
		<path class="st1" d="M634.43,477.24c0,0.28-0.02,0.57-0.06,0.86s-0.08,0.58-0.14,0.88l-1.36,6.73c-0.02,0.08-0.06,0.15-0.12,0.22
			c-0.06,0.06-0.15,0.11-0.28,0.15c-0.13,0.04-0.29,0.07-0.49,0.09s-0.45,0.03-0.75,0.03c-0.3,0-0.55-0.01-0.74-0.03
			c-0.19-0.02-0.34-0.05-0.45-0.09c-0.1-0.04-0.18-0.09-0.21-0.15c-0.04-0.06-0.05-0.13-0.03-0.22l1.32-6.54
			c0.04-0.19,0.07-0.39,0.09-0.6c0.02-0.2,0.03-0.38,0.03-0.54c0-0.37-0.08-0.67-0.23-0.9c-0.15-0.24-0.42-0.35-0.78-0.35
			c-0.33,0-0.68,0.1-1.05,0.32c-0.36,0.21-0.7,0.5-1.03,0.86c-0.32,0.36-0.61,0.79-0.86,1.27c-0.25,0.49-0.43,1-0.54,1.55
			l-0.99,4.94c-0.02,0.08-0.06,0.15-0.12,0.22c-0.06,0.06-0.15,0.11-0.28,0.15c-0.13,0.04-0.29,0.07-0.5,0.09
			c-0.2,0.02-0.45,0.03-0.75,0.03c-0.3,0-0.55-0.01-0.74-0.03c-0.19-0.02-0.34-0.05-0.45-0.09c-0.11-0.04-0.18-0.09-0.22-0.15
			c-0.03-0.06-0.04-0.13-0.02-0.22l2.19-10.92c0.02-0.08,0.05-0.15,0.1-0.22c0.05-0.06,0.14-0.11,0.24-0.15
			c0.11-0.04,0.25-0.07,0.43-0.09c0.18-0.02,0.39-0.03,0.63-0.03c0.25,0,0.46,0.01,0.62,0.03c0.16,0.02,0.28,0.05,0.37,0.09
			c0.09,0.04,0.15,0.09,0.18,0.15c0.03,0.06,0.03,0.13,0.02,0.22l-0.35,1.8c0.17-0.29,0.4-0.58,0.68-0.87
			c0.29-0.3,0.61-0.56,0.98-0.8c0.37-0.24,0.77-0.43,1.21-0.58c0.44-0.15,0.89-0.23,1.36-0.23c0.57,0,1.05,0.08,1.44,0.25
			c0.39,0.17,0.7,0.39,0.94,0.68c0.24,0.29,0.41,0.62,0.52,1C634.37,476.42,634.43,476.82,634.43,477.24z"/>
	</g>
</g>
</svg>
