<?xml version="1.0" encoding="UTF-8"?>
<svg xmlns="http://www.w3.org/2000/svg" version="1.1" viewBox="0 0 841.89 595.28">

  <g>
    <g id="Layer_1">
      <path id="Path_2087" class="cls-1" d="M221.98,94.81c-8,7.27-8.96,9.21-7.51,15.02,3.63,12.84,2.91,18.89-2.66,19.62-3.39.48-5.81-1.21-8-6.06-2.42-5.09-3.39-5.81-5.33-2.91-3.39,5.57-2.66,10.9,2.67,15.5,2.66,2.42,4.84,6.54,4.84,9.2.13,3.2,1.33,6.27,3.39,8.72,1.69,2.18,3.88,8.96,4.6,15.02,1.94,14.53-2.91,22.04-13.81,21.55-13.56-.73-14.05-.48-12.35,7.03.97,4.12.48,7.75-1.21,8.72-1.94,1.21-1.21,2.66,1.69,4.84,6.06,4.6,1.21,12.1-8,12.35-12.1.24-17.92,3.39-25.92,14.05-4.36,5.81-12.35,16.23-17.92,23.01-5.81,7.03-10.42,13.81-10.42,15.25,0,1.21-2.18,5.57-4.84,9.2-2.66,3.88-4.12,7.51-2.91,8.24.97.48,18.17,1.94,38.03,2.91,20.1.73,38.27,2.66,40.7,3.87,2.66,1.45,4.12,4.84,4.12,10.17,0,10.42,3.63,11.87,19.38,7.75,15.02-3.88,16.71-2.42,17.44,16.96.73,12.84.24,14.53-4.84,16.71-6.54,2.91-9.45,11.87-5.33,16.96,1.69,1.94,6.78,3.63,11.38,3.63,7.03,0,8.72,1.21,11.87,8.48,1.8,4.58,2.94,9.39,3.39,14.29,0,14.05,7.75,17.92,16.71,8.23,4.12-4.12,5.57-4.6,8.72-1.94,1.94,1.69,3.63,6.54,3.63,10.9,0,15.25,9.45,15.99,13.33.73,1.17-4.02,3.34-7.69,6.3-10.66,4.36-3.88,4.84-3.88,10.66,1.46,4.36,4.12,7.27,5.08,12.6,3.88,17.69-4.36,20.1-4.36,21.55-.24.97,2.18-.24,9.93-2.67,16.95-5.08,14.53-2.91,20.59,7.03,20.59,8,0,10.9,3.15,15.75,15.99,2.66,6.54,7.51,14.05,10.9,16.47,6.05,4.6,6.3,4.6,11.14.24,2.66-2.42,4.36-6.06,3.63-8-1.69-4.84,3.15-12.6,8-12.6,2.18,0,7.03,3.39,10.41,7.51,5.57,7.02,6.54,7.27,11.38,4.36,4.6-2.91,6.54-2.66,13.08.73,4,2.04,8.12,3.82,12.35,5.33,2.18.73,5.33,4.12,6.54,7.51,1.7,4.84,4.12,6.06,10.18,6.06,4.36,0,10.17,1.69,12.6,3.63,7.51,5.57,13.32,4.36,22.29-4.6,6.78-6.78,8.23-10.18,8.23-18.17s1.21-10.66,5.81-13.56c5.09-3.39,6.54-3.15,21.07,3.39,15.25,7.27,40.21,14.78,48.69,14.78,7.75,0,16.47-5.57,17.92-11.38,1.62-3.91,4.53-7.16,8.24-9.21,4.74-3.01,8.72-7.07,11.63-11.87,3.15-5.57,9.69-10.9,17.92-15.02,8.73-4.65,16.87-10.34,24.22-16.96,7.27-6.78,13.56-10.66,17.44-10.66s8.96-3.15,13.81-8.24c4.9-5.17,10.74-9.36,17.2-12.35,13.56-5.33,11.38-10.42-8.48-20.35-12.35-6.06-18.9-11.14-25.92-20.59-11.14-14.53-12.11-15.5-27.37-28.1-6.54-5.33-14.29-9.69-17.2-9.69-12.84,0-20.83-5.08-26.89-16.95-3.4-6.96-8.59-12.88-15.03-17.18-5.09-2.91-15.5-11.14-23.01-18.4-8.48-8-15.75-12.84-19.38-12.84-4-.26-7.85-1.6-11.14-3.88-6.54-4.6-16.47-24.95-19.87-41.66-1.69-6.78-3.87-13.08-5.09-14.05-1.21-.73-5.57.97-9.45,3.88-8.48,6.06-16.23,4.6-17.44-3.15-.48-4.36-2.66-5.57-11.63-6.78-7.15-.99-14.1-3.12-20.59-6.3-5.81-2.88-11.9-5.16-18.17-6.78-6.56-1.6-12.97-3.79-19.14-6.54-8.05-3.34-16.71-4.99-25.43-4.84-11.87,0-15.99-.97-21.55-5.81-3.87-3.15-8.72-5.8-11.14-5.8-3.24-.44-6.32-1.69-8.95-3.64-2.42-1.94-9.21-3.63-15.02-3.63-8.48,0-11.87-1.45-18.89-8.48-4.6-4.6-9.21-8.48-10.18-8.48s-6.3,2.42-11.87,5.33l-10.18,5.57-10.66-10.41c-6.78-6.54-12.6-10.17-16.47-10.17-3.63,0-10.42-2.67-15.25-6.06-3.03-2.2-6.19-4.22-9.45-6.06-.49,0-4.85,3.86-9.94,8.47Z"/>
    </g>
  </g>
</svg>