<?xml version="1.0" encoding="UTF-8"?>
<svg id="Layer_1" data-name="Layer 1" xmlns="http://www.w3.org/2000/svg" viewBox="0 0 500 500">
  <defs>
    <style>
      .cls-1 {
        fill: #0a7b5f;
        stroke: #fff;
        stroke-miterlimit: 10;
      }

      .cls-2 {
        fill: #f9e5af;
      }
    </style>
  </defs>
  <g>
    <g>
      <path class="cls-1" d="m231.2,401.31c-.1-.75-.39-1.61-.54-2.4-.19-.98-.29-2.06-.42-3.06-.13-1.08-.34-2.05-.34-3.15,0-1.36.29-2.6.36-3.94.09-1.77,0-3.28.41-5.05.32-1.39.61-2.59.6-4.03,0-1.44-.09-2.84.25-4.25.09-.4.24-1.37.5-1.71.27-.36.61-.44.89-.8.55-.72.76-2.05.76-2.91,0-1.08-.48-2.09-.38-3.18.1-1.06.62-1.84,1.14-2.72.33-.55.61-.94,1.11-1.36,2.14-1.76,5.01-2.65,7.31-4.19-.77-.84,1.22-2.09,1.8-2.68,1.56-1.61,2.3-3.77,3.32-5.73.59-1.14,1.28-2.18,2.06-3.2.75-.97,1.52-1.41,2.38-2.24,1.02-.99,1.85-2.25,2.73-3.37.96-1.22,2.07-2.28,3.1-3.43,1.83-2.05,3.88-3.91,5.78-5.88,1.85-1.92,4.06-3.15,6.19-4.73,1.16-.87,2.14-1.62,3.13-2.68.74-.79.91-1.33,1.25-2.35.67-2.06.79-4.33,2.6-5.74,1.31-1.02,3.01-1.87,3.22-3.67.07-.65.26-1.22.34-1.87.09-.68-.21-1.13-.33-1.77-.13-.7-.02-1.13-.35-1.78-.37-.72-.78-1.89-1.46-2.36-.62-.43-1.08-.42-1.64-.97-.64-.64-.77-1.11-.82-2.04-.05-.89.17-1.35.49-2.12.5-1.19.55-2.46.77-3.73.41-2.33.08-4.68.78-6.97.59-1.93,2.34-3.27,2.82-5.26.42-1.71-.13-4.12-.63-5.78-.4-1.32-.52-3.6-1.87-4.3-.92-.48-2.11-.96-2.92-1.69-.35-.32-.41-.86-.74-1.14-.18-.15-.75-.39-1.22-.57-.01.14-.04.27-.08.37-.61,1.41-2.62,1.52-3.87,1.51-1.09,0-2.26.13-3.33-.02-1.06-.14-2.01-.66-3.01-1.01-1.92-.67-3.72-1.46-5.78-1.38-1.12.04-2.11.49-3.22.17-.72-.2-1.36-.57-2.09-.76-1.4-.37-2.78-.85-3.79-1.96-.83-.91-.48-2.42-.48-3.6,0-.92.05-1.56.26-2.42.26-1.04.01-1.99-.26-3-.24-.9-.33-1.83-.69-2.69-.61-1.49-1.17-3.07-2.74-3.85-1.63-.8-3.3-.28-4.91-.84-.73-.25-1.13-.49-1.93-.49-.25,0-.8.13-1.02.03-.5-.23-.77-2.34-1-2.96-.54-1.47-.86-3.06-1.12-4.61-.41-2.53-.04-5.04-1.06-7.45-.21-.49-.39-.91-.53-1.41-.3-1.06-.72-1.97-1.18-2.99-.82-1.82-1.29-3.73-2.25-5.48-.3-.55-.44-1.23-.76-1.75-.29-.47-.77-.88-1.1-1.33-.58-.79-1.23-1.32-2.05-1.87-.52-.35-.74-.39-.86-.97-.39.31-.81.58-1.12,1.02-1.27,1.8-1.48,4.31-3.06,5.98-1.02,1.08-1.85,2.44-2.68,3.69-.55.84-1.3,2.02-1.01,3.09.13.5.33.57.37,1.19.05.81,0,1.65,0,2.46,0,.52.17,1.32.02,1.8-.11.36-.47.57-.71.87-1.51,1.93-.31,5.05-.75,7.29-.18.91-.65,1.74-.87,2.63-.19.78-.32,1.38-.76,2.06-.66,1.03-1.09,2.09-1.71,3.14-.84,1.44-1.56,2.92-2.4,4.36-1.04,1.8-1.93,3.7-2.98,5.48-.76,1.29-1.82,3.06-3.1,3.86-1.03.64-1.43-.21-2.43-.41-.9-.18-2.16,0-3.08,0-1.84.03-3.16,1.06-4.88,1.49-1.58.39-2.97.22-4.52-.2-.87-.24-1.75-.93-2.63-.89-.85.04-1.67.79-2.3,1.24-.54.39-1.22.48-1.74.83-.61.42-.85,1.18-1.38,1.71-1.01.99-1.7.94-2.98.94-.73,0-1.42-.05-2.1-.13,0,.79.04,1.58.35,2.34.35.87.66,1.31,1.38,1.89.59.48,1.23.81,1.78,1.27,2.05,1.72,3.5,3.94,5.97,5.21,3.54,1.82,6.78,4.55,9.36,7.61,1.12,1.33,2.01,2.67,3.29,3.86.62.58,1.28,1.11,1.87,1.72,1.03,1.06,1.69,2.25,2.46,3.5.22.36.45.63.53,1.05.15.73-.22,1.69-.39,2.38-.35,1.49-1.54,1.62-2.64,2.36-.65.43-1,1.1-1.47,1.69-.67.84-1.46,1.56-2.13,2.4-1.78,2.24-3.22,4.78-4.79,7.17-1.43,2.18-2.14,4.77-3.63,6.87-1.13,1.59-.59,3.17-.16,4.92.61,2.49,1.5,5.04,3.31,6.94,1.85,1.94,4.37,2.37,6.43,3.92,1.99,1.49,4.33,2.45,6.05,4.33.41.45.71.96,1.17,1.38.31.29.66.4.95.72.89,1,1.31,2.23,2.05,3.3.96,1.4,2.16,2.94,2.4,4.66.26,1.86-.29,3.74-1.73,4.98-.52.45-1.07.72-1.58,1.16-1.16.99-1.74,2.27-2.41,3.59-1.44,2.82-2.95,5.77-5.91,7.18-1.08.51-1.85,1.31-2.78,2.02-1.04.79-2.14,1.67-2.93,2.72-.87,1.16-1.15,3.07-1.53,4.44-.29,1.04-.16,2.08.19,3.1.47,1.4,1.55,2.57,1.64,4.06.03.53.08,1.19,0,1.71-.11.71-.27.79-1.04.68-.07,0-.14-.02-.2-.04.04.04.09.07.13.11.67.67,1.37,1.13,2.05,1.71.69.6,1.4,1.24,2.12,1.8.18.14.44.09.61.23.2.16.33.45.55.63.48.38,1.04.42,1.59.67.97.44,1.94.34,3.05.34.55,0,1.17.08,1.71,0,.65-.08.98-.35,1.7-.35,1.09,0,1.98.35,3.07.34.54,0,1.18-.1,1.71-.02.71.12,1.68.71,2.31,1.04,1.24.64,2.42.96,3.75,1.37,1.59.48,3.12,1.14,4.68,1.66.58.2,1.02.39,1.54.72.66.43,1.36.58,2.06.93.4.2,1.02.98,1.42,1.07.58.12,1.28-.48,1.99-.31.63.15,1.26.59,1.9.59-.53-.53-1.09-1.03-1.69-1.52.59.5,1.15,1,1.69,1.52.27,0,.55-.08.82-.3.47-.37.68-.74.61-1.29Z"/>
      <path class="cls-1" d="m282.49,390.68c1.64-1.94,2.3-4.41,4.06-6.26,1.75-1.84,3.8-3.25,5.72-4.89.81-.69,1.32-1.09,2.39-1.09,1.07,0,2.11.11,3.15-.18.94-.26,1.73-.81,2.69-1.02.92-.2,1.85-.05,2.73-.33,1.26-.41,2.31-1.35,3.51-1.88,1.06-.47,2.21-.81,3.22-1.4,1.02-.61,1.85-1.55,3-1.93.73-.24,1.5-.36,2.23-.6,2.45-.8,4.25-2.41,6.35-3.8,1.34-.89,2.6-1.81,3.89-2.78,1.11-.83,1.94-1.06,3.29-1.07,1.8,0,3.48-.87,5.23-1.2,1.84-.35,3.63.2,5.48.11,1.82-.09,3.69-.22,5.51-.35,1.96-.14,4-.81,5.97-.6,1.92.21,3.82,1.83,5.77,1.2.88-.29,1.67-1.09,2.3-1.75,1.16-1.23,2.07-3.07,3.49-3.98,1.25-.81,2.6-.96,3.88-1.58.81-.39,1.68-1.08,2.4-1.6.97-.69,1.48-1.72,2.36-2.51.83-.74,1.59-1.18,2.24-2.09.89-1.24,2.54-1.75,3.92-2.38,2.5-1.15,3.11-3.3,4.61-5.46.81-1.16,1.98-1.95,3.29-2.38-.1-.23-.23-.43-.43-.56.19.13.33.33.43.56.62-.2,1.26-.32,1.92-.35,1.4-.06,3.07.47,4.17-.58.77-.74.93-2.06,1.02-3.12.09-1.08.06-2.05.41-3.11.3-.92.7-1.77.88-2.73.23-1.24.39-3.79-1.14-4.12-1.22-.26-3.37-.07-4.58.12-2.12.32-4.59,0-6.46-1.13-1.13-.68-1.87-1.28-3.12-1.68-.81-.26-1.68-.66-2.35-1.21-1.32-1.08-2.39-3.35-2.43-5.03-.06-2.66.69-5.32,1.16-7.93.29-1.61.6-3.32.57-4.96-.01-.86-.25-1.52-.37-2.35-.16-1.04.15-2.13.27-3.15.16-1.33.18-2.61.5-3.92.43-1.77,1.4-3.68.36-5.3-1.17-1.82-3.59-1.83-5.39-2.73-1.4-.7-2.3-1.04-3.88-.96-.79.04-1.49.3-2.26.37-.38.03-.78-.09-1.15-.04-.87.11-1.65.67-2.42,1.05-1.7.84-3.11,1.66-4.94,2.22-1.55.47-3.05.53-4.61.83-1.66.32-2.67-1.14-3.5-2.36-.36-.53-.68-.86-.59-1.52.09-.69.6-1.76.88-2.41.89-1.99,1.89-3.98,2.89-5.93.3-.59.55-.98,1.07-1.4.96-.77,1.78-1.5,2.66-2.39,1.99-1.99,3.92-3.95,5.75-6.1.77-.91,2.34-2.13,2.04-3.46-.29-1.29-1.93-1.49-2.51-2.55-.21-.39-.27-.81-.49-1.21-.31-.57-.62-.98-1.15-1.35-1.42-.99-3.25-1.91-5-2.07-1.43-.12-3.32-.57-4.54-1.36-1.12-.73-2.15-1.34-3.32-1.96-.94-.5-1.58-1.56-2.54-2.11-1.23-.71-2.74-1.47-3.33-2.83-.44-1-.76-2.29-.95-3.34-.15-.87-.03-1.98.44-2.73.54-.87,1.23-1.34,1.89-2.03.83-.87,1.37-2.21,1.44-3.36.07-1.16.63-2.32.93-3.46.38-1.45.99-2.91,1.62-4.27.58-1.25,1.37-2.64,1.56-4.01.2-1.39-.28-2.81-1.47-3.6-.52-.34-1.3-.33-1.59-.96-.38-.81.29-2.47.55-3.22.25-.7.7-1.32,1.05-1.98.31-.58.62-.72,1.03-1.17,1.16-1.27,1.16-2.82.67-4.28-.1-.3-.5-.65-.58-.96-.09-.39,0-.77-.11-1.16-.24-.93-.27-1.73-.27-2.73,0-2.11-.25-4.39-.02-6.48.11-.95.37-1.76.36-2.74,0-.57,0-1.14,0-1.71v-2.55c0-1.78.07-3.49-.37-5.11-.22-.82-.4-1.64-.56-2.46-.35.32-.72.64-1.1.96-1.52,1.28-2.98,2.58-4.81,3.38-1.5.65-3.21,2.38-3.79,3.89-.17.43-.21.95-.44,1.35-.65,1.16-2.66,1.96-3.79,2.55-1.79.93-2.95,1.58-4.28,3.09-1.34,1.53-2.78,2.95-3.67,4.8-.76,1.58-1.36,3.26-2.09,4.87-.52,1.14-.89,2.64-1.67,3.63-1.4,1.79-3.57,3.06-5.25,4.59-1.26,1.14-2.64,2.08-4,3.09-1.34.99-2.38,2.32-3.72,3.28-2.03,1.46-4.48,2.46-6.9,3.06-2.29.56-5.51.63-7.14,2.58-.97,1.17-.37,2.9-.11,4.24.34,1.79.45,3.62.83,5.4.22,1.04.76,2.8.29,3.85-.21.46-.92.92-1.29,1.22-1.05.84-2.29,1.96-3.48,2.56-3.56,1.77-10.93,3.19-10.55,8.43.14,1.96.82,3.35-.83,4.92-.78.74-1.86,1.03-2.51,1.96-.58.83-.96,1.95-1.18,2.92-.32,1.39-.23,2.82-.22,4.23,0,.42.14,1.26.08,1.84.46.18,1.04.41,1.22.57.33.28.39.82.74,1.14.81.73,2,1.21,2.92,1.69,1.35.71,1.47,2.98,1.87,4.3.5,1.66,1.05,4.07.63,5.78-.49,1.99-2.23,3.33-2.82,5.26-.71,2.29-.38,4.65-.78,6.97-.22,1.27-.28,2.54-.77,3.73-.32.77-.54,1.23-.49,2.12.06.93.18,1.41.82,2.04.56.55,1.01.55,1.64.97.68.47,1.1,1.64,1.46,2.36.33.65.22,1.08.35,1.78.12.64.41,1.09.33,1.77-.08.65-.27,1.21-.34,1.87-.2,1.81-1.91,2.65-3.22,3.67-1.81,1.41-1.93,3.68-2.6,5.74-.33,1.03-.51,1.57-1.25,2.35-.99,1.06-1.96,1.81-3.13,2.68-2.12,1.59-4.34,2.82-6.19,4.73-1.91,1.98-3.96,3.83-5.78,5.88-1.03,1.16-2.14,2.22-3.1,3.43-.88,1.12-1.71,2.38-2.73,3.37-.86.83-1.63,1.27-2.38,2.24-.78,1.01-1.47,2.06-2.06,3.2-1.02,1.96-1.76,4.12-3.32,5.73-.57.59-2.56,1.84-1.8,2.68-2.29,1.54-5.16,2.43-7.31,4.19-.51.41-.79.81-1.11,1.36-.52.88-1.04,1.66-1.14,2.72-.1,1.09.39,2.1.38,3.18,0,.85-.21,2.19-.76,2.91-.28.37-.61.44-.89.8-.26.34-.41,1.31-.5,1.71-.33,1.41-.25,2.81-.25,4.25,0,1.44-.28,2.64-.6,4.03-.41,1.76-.32,3.28-.41,5.05-.07,1.34-.35,2.58-.36,3.94,0,1.09.21,2.06.34,3.15.12,1,.23,2.08.42,3.06.15.79.44,1.65.54,2.4.07.55-.14.92-.61,1.29-.27.22-.55.3-.82.3.4.39.78.8,1.15,1.23,1.11,1.33,2.56,2.37,4.1,3.15,1.42.72,2.94,1.01,4.5,1.21,1.26.16,2.6-.2,3.85-.03,2.03.27,4.12.81,6.2,1.01,2.52.24,4.56-1.03,6.89-1.78.65-.21,1.12-.17,1.8-.29,1.22-.22,2.35-.88,3.39-1.51,1.52-.92,3.28-1.65,4.6-2.87.82-.76,1.52-1.42,2.45-2.05,1.48-1,3.15-1.9,4.51-3.05,1.6-1.35,3.23-2.47,5.05-3.5.95-.54,1.89-1.3,2.75-1.98-.14-.22-.27-.44-.38-.65.11.21.24.43.38.65,0,0,0,0,0,0,.62-.49.97-1.14,1.48-1.74Z"/>
      <path class="cls-1" d="m128.93,387.82c.22-.17.73-.46,1.01-.52.33-.07.72.07,1.05.03.33-.04.49-.2.75-.27.52-.15,1.08-.07,1.63-.07.47,0,.76.19,1.1.26.99.21,2.66.28,3.68.09,1.11-.2,2.27-.65,3.4-.71.74-.04,1.12-.23,1.78-.35.65-.12,1.48.02,2.15.02,2,0,3.9.96,5.68,1.79,2.94,1.36,6.37,1.23,9.41,2.21,1.97.63,4.17,1.09,6.25,1.13,1.05.02,1.96.06,2.97.33,1.19.32,1.97.17,3.16-.08,1.32-.28,2.75-.61,4.1-.6,1.82.01,3.54-.05,5.27-.33.6-.1,1.08-.45,1.63-.62.53-.16,1.07,0,1.61-.14,1.01-.26,2.72-.59,3.79-.28.54.16.72.29,1.34.35.47.05.73.23,1.15.32-.59-.54-1.38-.88-1.83-1.53-.07.13-.19.19-.35.2.16,0,.28-.07.35-.2.44.65,1.23.99,1.83,1.53.06.01.13.03.2.04.77.1.93.03,1.04-.68.08-.52.03-1.18,0-1.71-.08-1.49-1.16-2.66-1.64-4.06-.35-1.02-.48-2.06-.19-3.1.38-1.37.65-3.28,1.53-4.44.8-1.06,1.89-1.93,2.93-2.72.93-.71,1.71-1.51,2.78-2.02,2.97-1.41,4.47-4.36,5.91-7.18.68-1.32,1.26-2.6,2.41-3.59.51-.44,1.06-.71,1.58-1.16,1.44-1.24,1.99-3.12,1.73-4.98-.24-1.72-1.45-3.27-2.4-4.66-.74-1.07-1.16-2.3-2.05-3.3-.29-.32-.63-.44-.95-.72-.45-.41-.75-.93-1.17-1.38-1.72-1.87-4.07-2.84-6.05-4.33-2.06-1.55-4.58-1.97-6.43-3.92-1.81-1.9-2.7-4.45-3.31-6.94-.43-1.75-.97-3.33.16-4.92,1.49-2.1,2.21-4.69,3.63-6.87,1.56-2.39,3.01-4.93,4.79-7.17.67-.84,1.46-1.56,2.13-2.4.47-.59.83-1.26,1.47-1.69,1.1-.74,2.29-.87,2.64-2.36.16-.69.53-1.65.39-2.38-.08-.41-.31-.69-.53-1.05-.77-1.24-1.42-2.44-2.46-3.5-.59-.61-1.25-1.14-1.87-1.72-1.28-1.19-2.18-2.53-3.29-3.86-2.58-3.07-5.81-5.8-9.36-7.61-2.47-1.27-3.92-3.49-5.97-5.21-.55-.46-1.19-.8-1.78-1.27-.72-.58-1.02-1.02-1.38-1.89-.31-.76-.35-1.55-.35-2.34-1.39-.17-2.71-.49-4.16-.9-2.38-.67-4.54-1.05-6.68-2.32-.55-.33-1.19-.51-1.73-.84-.17-.1-.25-.45-.42-.52-.93-.41-3.77-.16-4.54.52-.34.3-.59.9-.87,1.27-.43.58-.89,1.31-1.38,1.83-.32.34-.75.55-1.04.9-.51.62-.7,1.47-1.08,2.15-.65,1.14-1.4,2.11-1.97,3.32-.65,1.38-.97,2.72-1.46,4.14-.55,1.59-1.78,3.38-2.93,4.62-1.61,1.72-3.96,2.65-5.83,4.02-1.79,1.3-3.33,3.35-4.68,5.1-1.21,1.57-2.22,3.12-3.61,4.54-.65.67-1,1.52-1.61,2.18-.17.19-.38.35-.6.51h0c-.29.21-.6.42-.85.64-1.11.97-2.21,1.92-3.5,2.67-.93.54-1.89.68-2.89.99-1.02.31-1.78,1.06-2.7,1.63-1.03.64-1.83,1.64-2.69,2.49-1.1,1.09-1.98,2.59-3.2,3.5-1,.74-2.25.86-3.29,1.42-.92.49-1.97,1.5-2.46,2.4-.4.72-.77,1.25-1.08,1.95-.31.69-.27,1.27-.26,2.03.01,1.08-.32,1.98-.35,3.02-.05,1.63,0,3.28,0,4.91,0,1.45-.34,3.35-.02,4.75.14.6.41,1.2.61,1.77.49,1.37,1.22,2.66,2.13,3.74.92,1.1,1.74,1.82,2.06,3.34.32,1.54.49,3.09.66,4.68.17,1.65,1.31,2.7,2.4,3.76.92.89,2.05,1.04,2.05,2.46,0,1.32-.44,2.26-1.02,3.41-.63,1.25-1.2,2.52-1.97,3.75-.74,1.19-1.11,2.76-1.53,4.09-.46,1.49-1.11,2.94-1.54,4.45-.65,2.24-2.27,4.37-3.83,6.12-.47.52-1.19,1.35-1.38,2.03-.15.54.08,1.16-.06,1.72-.1.4-.25.69-.4,1,1.25.93,2.35,2.35,2.82,3.78.21.64.3,1.23.77,1.75.41.46.98,1.19,1.54,1.48.58.31,1.22.34,1.85.41.91.1,1.88.45,2.67.9.33.19.58.33.94.45.56.19,1.1.53,1.67.65,1.35.28,2.9.03,4.27.04.8,0,1.53-.13,2.31-.29.26-.05.51-.08.76-.1.22-.73.93-1.62,1.43-2.15.5-.53,1.04-1.18,1.61-1.63Z"/>
      <path class="cls-1" d="m186.93,103.69c2.53,1.15,4.92,2.95,7.5,4.09,1.32.58,2.51,1.37,3.76,1.95,1.48.68,3.06,1.46,4.43,2.4,1.58,1.08,2.94,2.1,4.78,2.57.76.19,1.67-.16,2.4.06.58.17.79.87,1.01,1.36.52,1.18.58,2.58,1.28,3.62.11-.15.26-.34.44-.57-.18.23-.32.42-.44.57.26.38.61.72,1.1.97,1.73.89,3.97,2.75,4.41,4.8.22,1,.22,1.76.71,2.73.44.88,1,1.37,1.87,1.87,1.58.9,2.87,1.96,3.74,3.57.24.44.39.8.52,1.28.23.81.73,1.45.97,2.26.35,1.17.94,1.8,1.89,2.62,1.34,1.15,1.96,2.09,2.68,3.67,1.4,3.09,2.64,6.29,4.09,9.36,1.08,2.28,2.86,4.26,3.78,6.6.29.73.59,1.25.58,2.03-.01.81.12,1.74-.03,2.53-.52,2.85-1.75,5.9-3.85,7.91-.91.87-2.05,1.63-2.91,2.53-.95.99-1.46,2.29-1.9,3.54-.61,1.77-.26,3.36-.55,5.16-.29,1.8-.56,3.89-1.33,5.56-.54,1.18-1.04,2.33-1.87,3.29-1.46,1.68-2.16,3.96-3.07,5.94-.82,1.8-1.55,3.71-2.58,5.41-1.01,1.67-1.88,3.23-1.06,5.22.44,1.06,1.17,1.55,2.05,2.19.83.61,1.47,1.36,2.03,2.24.61.97.98,1.81,1.24,2.87.3,1.19-.01,2.41.15,3.63.01.08.02.14.03.2.22-.17.42-.35.6-.58-.17.23-.38.41-.6.58.11.58.33.62.86.97.82.55,1.46,1.08,2.05,1.87.33.45.81.86,1.1,1.33.32.52.46,1.2.76,1.75.96,1.76,1.43,3.66,2.25,5.48.46,1.02.87,1.93,1.18,2.99.14.5.33.92.53,1.41,1.02,2.41.65,4.93,1.06,7.45.25,1.55.57,3.14,1.12,4.61.23.63.5,2.73,1,2.96.22.1.77-.03,1.02-.03.8,0,1.2.24,1.93.49,1.61.56,3.28.04,4.91.84,1.57.77,2.13,2.36,2.74,3.85.36.86.45,1.79.69,2.69.27,1,.52,1.96.26,3-.22.86-.26,1.51-.26,2.42,0,1.18-.35,2.69.48,3.6,1.01,1.11,2.39,1.6,3.79,1.96.73.19,1.37.55,2.09.76,1.11.31,2.1-.13,3.22-.17,2.06-.08,3.86.71,5.78,1.38,1,.35,1.95.87,3.01,1.01,1.08.14,2.24,0,3.33.02,1.25.01,3.26-.1,3.87-1.51.04-.1.07-.23.08-.37h0c.06-.58-.08-1.42-.08-1.84,0-1.41-.09-2.84.22-4.23.22-.98.6-2.1,1.18-2.92.65-.93,1.74-1.22,2.51-1.96,1.65-1.57.97-2.96.83-4.92-.38-5.24,7-6.67,10.55-8.43,1.19-.59,2.43-1.71,3.48-2.56.38-.3,1.08-.76,1.29-1.22.47-1.05-.07-2.81-.29-3.85-.38-1.78-.48-3.61-.83-5.4-.26-1.34-.86-3.08.11-4.24,1.63-1.95,4.85-2.01,7.14-2.58,2.42-.6,4.86-1.6,6.9-3.06,1.34-.96,2.38-2.29,3.72-3.28,1.36-1.01,2.74-1.95,4-3.09,1.68-1.53,3.85-2.8,5.25-4.59.78-1,1.15-2.49,1.67-3.63.73-1.6,1.32-3.29,2.09-4.87.9-1.86,2.34-3.27,3.67-4.8,1.32-1.52,2.49-2.16,4.28-3.09,1.13-.59,3.14-1.39,3.79-2.55.23-.4.27-.93.44-1.35.59-1.51,2.3-3.24,3.79-3.89,1.83-.79,3.29-2.1,4.81-3.38.38-.32.75-.64,1.1-.96-.03-.15-.06-.3-.09-.45.03.15.06.3.09.45.92-.85,1.71-1.75,2.31-2.91.35-.69.72-1.49,1-2.28-.28.11-1.04.4-1.31.26.23-.53.22-.83.33-1.46.06-.39.29-.71.33-1.11.04-.33-.1-.72-.04-1.05.14-.76.37-1.31.36-2.13,0-.59.02-1.18,0-1.76-.02-.91-.26-1.76-.34-2.67-.07-.75-.25-1.65-.43-2.39-.3-1.21-1.04-2.73-1.79-3.75-.73-.99-1.7-1.85-2.36-2.92-.73-1.18-1.33-2.58-1.82-3.89-.73-1.97-1.11-3.83-.35-5.77.27-.7.55-1.34.61-2.07.06-.66,0-1.22.16-1.88.25-1.06.17-2.14.17-3.23s.14-2.23-.26-3.16c-.34-.8-.74-1.06-1.46-1.54-.98-.64-1.52-.77-2.72-.77-1.12,0-2.22.15-3.25-.3-.91-.4-1.67-.73-2.72-.72-.97.01-1.93,0-2.9,0s-2.12-.16-3.07.08c-.76.19-3.46.66-4.86.87-.06.63-.1,1.27-.09,1.92.02,1.43.36,5.93-1.52,6.22-.81.12-1.65-.49-2.45-.58-.76-.09-1.68-.07-2.38.23-.58.24-1.29,1.12-1.95,1.3-.68.19-1.38-.22-2.02-.35-2.19-.45-5.09-.25-7.16.49-1.46.52-2.6,1.73-4.04,2.35-2.23.96-4.78,1.43-7.15.89-1.27-.29-2.62-.6-3.81-1.11-1.68-.73-2.33-.69-3.9.06-2.85,1.37-6.34,4.8-9.62,2.85-3.15-1.87-6.32-4.21-7.76-7.73-1.03-2.51-1.27-6.01-1.44-8.67-.07-1.03.19-1.72-1.02-1.47-.45.09-1.07.76-1.52.97-.94.45-2.04.57-3.05.78-1.1.23-2.23.36-3.37.25-1.45-.14-2.41-.83-3.26-2.03-1.15-1.64-1.68-2.82-3.47-3.87-3.11-1.83-6.04-3.96-9.38-5.34-1.55-.64-3.16-1.25-4.63-2.05-.85-.46-1.67-1.02-2.55-1.44-1.31-.62-3.03-.94-4.09-2.01-2.25-2.27-.22-5.89-1.54-8.57-.49-.99-1.29-1.85-1.82-2.84-.69-1.29-1.2-2.58-2.51-3.37-1.47-.89-2.59-.24-4.18.06-1.83.35-3.64.36-5.34-.49-1.19-.6-2.46-1.55-3.44-2.45-1.15-1.06-1.91-2.25-3.61-1.91-2.11.42-3.73,2.75-5.78,3.05-1.49.22-3.42-1.4-4.59-2.19-1.58-1.06-2.94-2.28-4.09-3.8-1.28-1.7-1.48-4.36-2.95-5.85-.86.07-1.6.44-2.2,1.13-1.11.76-2.22,1.53-3.31,2.31-.98,1.58.19,3.96-.35,5.72-.3,1-.68,1.6-1.23,1.84.27.25.58.47.87.65,1.17.71,2.48.96,3.75,1.54Z"/>
    </g>
    <path id="AZGOY" class="cls-1" d="m227.58,270.28l2.75-1.54c.73-.37,1.47-.74,2.2-1.11,1.92-4.45,2.81-5.26,3.26-5.15.55.13.39,1.62,1.44,3.58.66,1.23,1.49,2.07,2.07,2.57,1.4-.08,2.79-.16,4.19-.23l1.88.63,1.88-.14,3.76.43,3.81,1.25,3.96-.66c1.92.64,3.84,1.27,5.76,1.91-1.47,2.34-2.95,4.67-4.42,7.01-.16.27-.39.72-.42,1.29-.09,1.38.99,2.08.71,2.66-.28.6-1.65.27-3.31.43-1.78.17-3.2.83-4.18,1.42-.64,1.41-1.28,2.82-1.92,4.22l-2.75-1.3c-.98.26-1.96.52-2.94.78l-2.12-3.39-1.54-.14-1.25,1.06-1.5.77-1.79-.77-1.83-1.5-1.98-1.11-1.59.53-1.5.53-1.59-1.25-1.25-1.5.29-3.28.92-2.99.92-.96.29-1.11-1.01-1.45-1.21-1.5Z"/>
    <path id="AZUCA" class="cls-1" d="m353.06,352.63l-.27,2.8-.43,2.7-1,1.84-1.3,1.4-2.94.2-2.91.47c-.91.07-1.83.13-2.74.2-1.68.07-3.36.13-5.03.2-.31-.26-.63-.51-.94-.77l-.83-1.3-2.94-2.24-3.01-2.04-.8-1.57-1.44-.83-.77-1.7.37-2,.43-2.47,1.5-1.04,1.97-.2,2,.63.87,1.04,1.1.87,1.04-.37,1.1-.37,1.37.77,1.27,1.04,1.24.53,1.04-.53.87-.73,1.07.1,1.74.9,1.77.9,1.9.9,2.04.27,1.34-.17c.45.19.89.38,1.34.57Z"/>
    <path id="AZNA" class="cls-1" d="m235.22,325.32l-3.59-1.48-2.15-1.93,2.51-1.19,2.87-1.63,3.59-1.19,4.3,1.48,2.87,1.34.36,1.34-.72,1.48-5.02,1.63-5.02.15h0Z"/>
  </g>
  <g>
    <path class="cls-2" d="m261.34,189.09s0,.08,0,.15c0,.06-.02.13-.03.21-.01.08-.03.15-.05.23-.02.08-.04.15-.07.22s-.06.12-.09.16c-.03.04-.07.06-.11.06-.06,0-.13-.03-.22-.08s-.2-.11-.33-.17-.28-.12-.45-.17c-.17-.05-.37-.08-.59-.08s-.42.03-.58.1c-.16.06-.29.15-.39.25s-.18.22-.23.35-.07.26-.07.39c0,.15.04.29.11.4s.18.22.3.32.27.2.43.29c.16.09.33.19.5.29s.33.21.5.33c.16.12.31.26.44.42.13.16.23.34.3.55s.11.44.11.71c0,.4-.08.77-.24,1.11-.16.34-.39.64-.68.89s-.65.45-1.07.59c-.42.14-.88.22-1.39.22-.27,0-.53-.02-.76-.07-.23-.04-.44-.1-.62-.16-.18-.06-.33-.13-.45-.2-.12-.07-.21-.14-.27-.2-.06-.06-.09-.16-.09-.29,0-.03,0-.08.01-.15,0-.07.02-.14.04-.22s.03-.16.05-.24c.02-.08.05-.16.08-.22.03-.07.06-.12.1-.17.04-.04.08-.06.12-.06.07,0,.16.03.26.1s.22.14.37.22.32.15.53.22c.2.07.45.1.73.1.25,0,.47-.03.66-.1s.35-.15.47-.26c.13-.11.22-.24.29-.38.07-.15.1-.31.1-.48,0-.16-.04-.29-.11-.41s-.18-.23-.3-.33-.27-.19-.43-.28c-.16-.09-.32-.18-.49-.29s-.33-.21-.49-.33c-.16-.12-.3-.26-.43-.42-.12-.16-.23-.34-.3-.55-.08-.21-.11-.45-.11-.72,0-.38.08-.73.23-1.05.15-.32.36-.6.63-.83.27-.23.59-.41.97-.54s.79-.19,1.24-.19c.21,0,.41.02.6.05.19.03.36.07.52.12.16.05.29.1.4.16.11.06.19.11.23.15s.07.08.09.13c.02.04.03.1.03.17Z"/>
    <path class="cls-2" d="m266.82,196.47c-.02.09-.08.15-.2.19-.12.04-.3.06-.56.06-.13,0-.24,0-.32-.01-.08,0-.15-.02-.2-.04-.05-.02-.08-.04-.1-.08-.01-.03-.02-.07,0-.12l.18-.91c-.06.14-.16.28-.3.43-.14.15-.3.29-.49.41-.19.12-.4.22-.63.3s-.47.12-.71.12c-.34,0-.62-.06-.84-.18-.22-.12-.4-.28-.54-.48-.13-.2-.23-.43-.29-.69-.06-.26-.09-.53-.09-.81,0-.27.03-.56.08-.87s.13-.63.24-.94c.11-.31.24-.61.41-.9.16-.29.36-.55.59-.77.23-.22.5-.4.79-.54.3-.13.64-.2,1.01-.2.35,0,.66.07.93.22.27.15.51.36.71.64l.1-.5c.02-.09.08-.15.2-.19.12-.04.3-.06.56-.06.13,0,.23,0,.32.02s.15.03.2.04c.05.02.08.04.1.08.02.03.02.07.01.11l-1.14,5.68Zm-.79-3.97c-.15-.23-.31-.41-.49-.52s-.39-.17-.62-.17c-.18,0-.34.04-.49.13-.15.08-.28.2-.39.34-.11.14-.21.31-.3.49s-.16.38-.22.58c-.06.2-.1.4-.13.61s-.04.39-.04.57c0,.13,0,.25.03.36.02.11.05.22.1.3s.12.16.2.21.19.08.32.08c.19,0,.38-.06.57-.17.19-.11.38-.26.54-.46.17-.19.32-.42.45-.67s.22-.53.28-.82l.18-.86Z"/>
    <path class="cls-2" d="m277.3,196.46s-.03.08-.06.11c-.03.03-.08.06-.15.08s-.15.04-.26.05-.23.02-.39.02-.28,0-.38-.02-.18-.03-.23-.05c-.06-.02-.09-.05-.11-.08-.02-.03-.02-.07,0-.11l.68-3.4c.02-.1.03-.19.04-.29.01-.1.02-.19.02-.29,0-.2-.04-.36-.11-.48s-.21-.18-.4-.18c-.17,0-.34.05-.53.16-.18.11-.36.26-.52.45s-.32.41-.44.66-.22.52-.28.8l-.51,2.56s-.03.08-.06.11c-.03.03-.08.06-.15.08s-.15.04-.26.05-.23.02-.39.02-.28,0-.38-.02-.18-.03-.23-.05-.09-.05-.11-.08c-.02-.03-.02-.07-.02-.11l.67-3.4c.03-.1.04-.2.05-.3s.02-.2.02-.3c0-.19-.04-.34-.12-.46-.08-.12-.21-.18-.39-.18-.17,0-.35.05-.53.16-.18.11-.36.26-.52.45s-.32.41-.44.66-.22.52-.28.8l-.51,2.56s-.03.08-.06.11c-.03.03-.08.06-.15.08s-.15.04-.26.05-.24.02-.39.02-.28,0-.38-.02-.18-.03-.23-.05c-.06-.02-.09-.05-.11-.08-.02-.03-.02-.07-.01-.11l1.14-5.67s.03-.08.05-.11c.03-.03.07-.06.13-.08.06-.02.13-.03.22-.04s.2-.02.33-.02.24,0,.32.02c.08.01.15.03.19.04.05.02.08.04.09.08.01.03.02.07,0,.11l-.18.93c.09-.15.21-.3.36-.45s.32-.29.5-.42c.19-.12.39-.22.62-.3.22-.08.45-.12.69-.12s.46.03.64.1.33.16.44.27.21.25.27.41.1.33.12.51c.1-.15.22-.3.37-.46s.32-.29.51-.41c.19-.12.39-.22.61-.3.22-.08.45-.12.68-.12.3,0,.54.04.75.12.2.08.36.2.49.34.12.15.21.32.27.51.05.2.08.41.08.64,0,.15,0,.3-.03.45-.02.15-.04.3-.08.46l-.7,3.5Z"/>
    <path class="cls-2" d="m284.12,196.47s-.03.08-.05.11c-.03.03-.07.06-.13.08-.06.02-.13.03-.22.04s-.2.02-.33.02-.24,0-.32-.02c-.08-.01-.15-.03-.19-.04-.05-.02-.08-.04-.09-.08-.01-.03-.02-.07,0-.11l.17-.92c-.08.15-.2.3-.35.45s-.32.29-.51.41-.4.22-.63.3c-.22.08-.45.12-.69.12-.3,0-.55-.04-.75-.12-.21-.08-.37-.2-.5-.34s-.22-.31-.27-.51c-.06-.2-.08-.42-.08-.65,0-.14,0-.29.03-.44.02-.15.04-.3.07-.46l.7-3.51s.03-.08.06-.11.08-.06.15-.08c.07-.02.15-.03.26-.04s.24-.02.39-.02.28,0,.38.02.18.03.23.04c.05.02.09.04.11.08.02.03.02.07.02.11l-.67,3.4c-.02.09-.04.19-.05.29s-.02.2-.02.29c0,.1,0,.19.03.28.02.08.05.15.09.21.04.06.1.1.16.13.07.03.15.04.24.04.17,0,.35-.06.54-.17s.37-.27.54-.46c.17-.2.32-.43.45-.7.13-.27.23-.56.3-.87l.48-2.45s.02-.08.06-.11c.03-.03.08-.06.15-.08.07-.02.15-.03.26-.04s.23-.02.39-.02.29,0,.38.02.18.03.23.04c.06.02.09.04.11.08.02.03.02.07.01.11l-1.14,5.68Z"/>
    <path class="cls-2" d="m289.66,193.53l1.02,2.82c.02.07.03.13.01.18s-.05.08-.12.11-.16.05-.28.06c-.12.01-.28.02-.48.02-.18,0-.32,0-.42-.01s-.18-.02-.24-.04c-.05-.02-.09-.04-.11-.07-.02-.03-.03-.06-.04-.1l-.69-2-1.43,2.01s-.05.07-.09.1c-.03.03-.08.05-.16.07s-.17.03-.29.04c-.12,0-.28.01-.49.01-.18,0-.33,0-.44-.02-.11-.01-.19-.03-.24-.06s-.07-.06-.07-.11c0-.04.03-.1.08-.17l2.15-2.82-.95-2.62c-.03-.08-.03-.14-.03-.19,0-.05.04-.09.1-.12.06-.03.15-.05.27-.06.12-.01.28-.02.48-.02.17,0,.31,0,.41,0,.1,0,.18.02.23.03s.09.03.11.06c.02.03.04.06.05.1l.66,1.89,1.37-1.89s.05-.06.08-.09c.03-.03.08-.05.14-.06.06-.02.15-.03.25-.04s.24-.01.41-.01c.19,0,.35,0,.47.01s.2.03.26.05c.06.03.08.06.07.1,0,.04-.04.1-.09.18l-1.97,2.63Z"/>
  </g>
  <g>
    <path class="cls-2" d="m216.84,273.21s0,.1,0,.17c0,.07-.02.14-.03.22s-.03.16-.05.24c-.02.08-.05.15-.08.21-.03.06-.06.12-.1.16s-.07.06-.11.06c-.06,0-.15-.04-.27-.11s-.26-.15-.44-.24-.4-.17-.67-.24c-.26-.07-.57-.11-.93-.11s-.69.05-.99.16-.57.25-.82.42c-.25.18-.46.39-.65.63s-.35.5-.48.78-.23.57-.29.87c-.06.3-.1.6-.1.89,0,.33.05.61.14.86s.23.45.4.62c.18.16.39.29.64.37s.53.13.84.13c.21,0,.41-.02.62-.06s.39-.11.56-.19l.38-1.9h-1.55c-.05,0-.09-.02-.12-.06-.03-.04-.04-.11-.04-.19,0-.04,0-.1.01-.17,0-.07.02-.14.04-.21s.03-.15.05-.23.05-.14.08-.2c.03-.06.07-.11.11-.15s.08-.06.13-.06h2.77c.14,0,.24.05.3.14.06.09.07.22.04.39l-.66,3.29c-.02.08-.04.15-.06.21-.03.06-.06.11-.1.16-.05.05-.16.11-.32.18-.17.07-.38.14-.62.21s-.51.12-.82.17c-.3.05-.61.07-.92.07-.59,0-1.11-.07-1.55-.2s-.82-.34-1.13-.61-.53-.6-.69-.99c-.16-.39-.24-.84-.24-1.35,0-.46.05-.91.15-1.35.1-.44.25-.86.44-1.25.2-.4.44-.76.73-1.1.29-.34.63-.63,1.01-.87.38-.25.81-.44,1.28-.58s.98-.21,1.54-.21c.31,0,.6.02.88.07.27.05.52.11.74.18.22.07.4.14.55.23.15.08.25.14.29.19.05.04.08.09.1.15s.03.12.03.2Z"/>
    <path class="cls-2" d="m217.03,279.09c0-.3.07-.58.21-.82s.35-.45.64-.63.66-.31,1.1-.4.98-.14,1.6-.14h.58c.02-.1.03-.19.04-.29,0-.09.01-.18.01-.26,0-.34-.09-.6-.27-.77-.18-.17-.46-.26-.86-.26-.28,0-.53.02-.75.06-.22.04-.42.08-.58.13s-.31.09-.42.13c-.11.04-.19.06-.24.06s-.09-.02-.11-.04-.03-.08-.03-.14c0-.07,0-.15.02-.25.01-.09.03-.19.05-.28s.05-.18.09-.26c.04-.08.08-.14.12-.18.05-.05.14-.1.28-.15s.3-.1.49-.14c.19-.04.4-.08.64-.1s.48-.04.72-.04c.41,0,.76.04,1.06.13.3.08.56.21.76.39s.36.39.46.66.15.59.15.96c0,.28-.03.59-.08.91-.05.32-.14.64-.26.96s-.27.62-.46.9-.41.54-.68.76-.57.39-.92.52c-.35.13-.74.2-1.19.2-.38,0-.72-.05-.99-.14s-.5-.21-.68-.36-.31-.32-.4-.51-.13-.39-.13-.59Zm1.57-.12c0,.17.07.31.2.42.13.11.33.17.58.17.21,0,.4-.04.57-.11s.31-.18.44-.31.24-.28.33-.46.16-.36.22-.56h-.53c-.34,0-.62.02-.85.07-.23.04-.41.1-.55.18-.14.08-.24.17-.3.27-.06.1-.1.21-.1.33Z"/>
    <path class="cls-2" d="m229.53,275.93c0,.15,0,.3-.03.45-.02.15-.04.3-.07.46l-.71,3.5s-.03.08-.06.11-.08.06-.15.08-.15.04-.25.05-.23.02-.39.02-.28,0-.38-.02-.18-.03-.23-.05c-.05-.02-.09-.05-.11-.08-.02-.03-.02-.07-.02-.11l.69-3.4c.02-.1.04-.21.05-.31s.02-.2.02-.28c0-.19-.04-.35-.12-.47s-.22-.18-.41-.18c-.17,0-.35.05-.54.16-.19.11-.37.26-.53.45s-.32.41-.45.66-.22.52-.28.8l-.51,2.56s-.03.08-.06.11c-.03.03-.08.06-.15.08s-.15.04-.26.05-.24.02-.39.02-.28,0-.38-.02-.18-.03-.23-.05c-.06-.02-.09-.05-.11-.08-.02-.03-.02-.07-.01-.11l1.14-5.67s.03-.08.05-.11c.03-.03.07-.06.13-.08.06-.02.13-.03.22-.04s.2-.02.33-.02.24,0,.32.02c.08.01.15.03.19.04.05.02.08.04.09.08.01.03.02.07,0,.11l-.18.93c.09-.15.21-.3.36-.45s.32-.29.51-.42c.19-.12.4-.22.63-.3s.46-.12.71-.12c.3,0,.54.04.75.13s.36.2.49.35c.12.15.21.32.27.52.05.2.08.41.08.62Z"/>
    <path class="cls-2" d="m235.49,275.04c0,.1-.01.21-.04.33-.02.12-.05.24-.09.35s-.09.2-.14.28c-.06.07-.12.11-.19.11-.06,0-.12-.03-.18-.08-.06-.05-.13-.11-.22-.17s-.2-.12-.33-.17c-.13-.05-.3-.08-.51-.08-.22,0-.42.05-.59.15-.17.1-.33.22-.45.38s-.24.33-.32.53c-.08.2-.15.4-.21.6-.06.2-.09.39-.12.58-.02.18-.03.34-.03.48,0,.34.07.6.22.78s.39.27.71.27c.24,0,.44-.03.61-.09s.31-.13.43-.2c.12-.07.22-.14.31-.2.09-.06.17-.09.24-.09.04,0,.07.02.09.06.02.04.03.09.03.17s0,.16-.03.27c-.02.11-.04.22-.07.33s-.06.21-.1.31c-.04.1-.08.17-.14.23-.06.05-.15.12-.27.19-.12.07-.26.13-.42.19-.16.06-.34.1-.52.13s-.38.05-.59.05c-.72,0-1.27-.18-1.62-.55s-.54-.91-.54-1.62c0-.26.02-.54.07-.85s.13-.62.24-.93c.11-.31.25-.61.43-.91.18-.29.39-.55.64-.77.25-.22.55-.4.88-.54s.72-.2,1.16-.2c.17,0,.33.01.5.04s.31.06.44.1c.14.04.25.1.36.16.1.06.18.11.23.16s.08.09.1.13c.01.04.02.08.02.14Z"/>
    <path class="cls-2" d="m235.63,279.09c0-.3.07-.58.21-.82s.35-.45.64-.63.66-.31,1.1-.4.98-.14,1.6-.14h.58c.02-.1.03-.19.04-.29,0-.09.01-.18.01-.26,0-.34-.09-.6-.27-.77-.18-.17-.46-.26-.86-.26-.28,0-.53.02-.75.06-.22.04-.42.08-.58.13s-.31.09-.42.13c-.11.04-.19.06-.24.06s-.09-.02-.11-.04-.03-.08-.03-.14c0-.07,0-.15.02-.25.01-.09.03-.19.05-.28s.05-.18.09-.26c.04-.08.08-.14.12-.18.05-.05.14-.1.28-.15s.3-.1.49-.14c.19-.04.4-.08.64-.1s.48-.04.72-.04c.41,0,.76.04,1.06.13.3.08.56.21.76.39s.36.39.46.66.15.59.15.96c0,.28-.03.59-.08.91-.05.32-.14.64-.26.96s-.27.62-.46.9-.41.54-.68.76-.57.39-.92.52c-.35.13-.74.2-1.19.2-.38,0-.72-.05-.99-.14s-.5-.21-.68-.36-.31-.32-.4-.51-.13-.39-.13-.59Zm1.57-.12c0,.17.07.31.2.42.13.11.33.17.58.17.21,0,.4-.04.57-.11s.31-.18.44-.31.24-.28.33-.46.16-.36.22-.56h-.53c-.34,0-.62.02-.85.07-.23.04-.41.1-.55.18-.14.08-.24.17-.3.27-.06.1-.1.21-.1.33Z"/>
  </g>
  <g>
    <path class="cls-2" d="m215.35,331.85s0,.1,0,.17c0,.07-.02.14-.03.22s-.03.16-.05.24c-.02.08-.05.15-.08.21-.03.06-.06.12-.1.16s-.07.06-.11.06c-.06,0-.15-.04-.27-.11s-.26-.15-.44-.24-.4-.17-.67-.24c-.26-.07-.57-.11-.93-.11s-.69.05-.99.16-.57.25-.82.42c-.25.18-.46.39-.65.63s-.35.5-.48.78-.23.57-.29.87c-.06.3-.1.6-.1.89,0,.33.05.61.14.86s.23.45.4.62c.18.16.39.29.64.37s.53.13.84.13c.21,0,.41-.02.62-.06s.39-.11.56-.19l.38-1.9h-1.55c-.05,0-.09-.02-.12-.06-.03-.04-.04-.11-.04-.19,0-.04,0-.1.01-.17,0-.07.02-.14.04-.21s.03-.15.05-.23.05-.14.08-.2c.03-.06.07-.11.11-.15s.08-.06.13-.06h2.77c.14,0,.24.05.3.14.06.09.07.22.04.39l-.66,3.29c-.02.08-.04.15-.06.21-.03.06-.06.11-.1.16-.05.05-.16.11-.32.18-.17.07-.38.14-.62.21s-.51.12-.82.17c-.3.05-.61.07-.92.07-.59,0-1.11-.07-1.55-.2s-.82-.34-1.13-.61-.53-.6-.69-.99c-.16-.39-.24-.84-.24-1.35,0-.46.05-.91.15-1.35.1-.44.25-.86.44-1.25.2-.4.44-.76.73-1.1.29-.34.63-.63,1.01-.87.38-.25.81-.44,1.28-.58s.98-.21,1.54-.21c.31,0,.6.02.88.07.27.05.52.11.74.18.22.07.4.14.55.23.15.08.25.14.29.19.05.04.08.09.1.15s.03.12.03.2Z"/>
    <path class="cls-2" d="m221.81,335.22c0,.3-.03.62-.09.94-.06.32-.15.64-.27.94s-.28.59-.47.86-.42.51-.69.71-.58.37-.92.49c-.35.12-.74.18-1.17.18s-.8-.05-1.11-.15c-.31-.1-.57-.25-.78-.44-.21-.19-.36-.43-.46-.71s-.15-.6-.15-.97c0-.3.03-.62.09-.94.06-.32.15-.63.27-.94s.28-.59.47-.87c.19-.27.42-.51.69-.71s.58-.36.92-.48c.35-.12.74-.18,1.17-.18s.8.05,1.11.15c.31.1.57.25.78.44.21.19.36.43.46.71s.15.6.15.97Zm-1.65.11c0-.18-.02-.34-.05-.47s-.1-.25-.18-.35c-.08-.1-.19-.17-.32-.22s-.29-.08-.47-.08c-.21,0-.4.04-.57.12-.17.08-.32.19-.45.33-.13.14-.25.3-.35.49-.1.18-.18.38-.24.58-.06.2-.11.41-.14.62-.03.21-.04.41-.04.6,0,.18.02.34.05.48s.1.26.18.35c.08.09.19.17.32.22s.29.08.47.08c.21,0,.4-.04.57-.12.17-.08.32-.19.45-.34.13-.14.25-.3.35-.49.1-.18.18-.38.24-.58.06-.21.11-.41.14-.62.03-.21.04-.41.04-.6Zm-.93-3.91c-.03.16-.07.29-.11.39s-.11.18-.18.24-.17.1-.28.12c-.11.02-.23.03-.38.03s-.27-.01-.37-.03c-.1-.02-.17-.06-.23-.12s-.08-.14-.09-.24,0-.23.03-.39c.03-.16.06-.29.11-.39s.11-.18.19-.24.17-.1.27-.12c.11-.02.23-.03.38-.03s.26.01.36.03c.1.02.17.06.23.12.05.06.09.14.1.24s0,.23-.03.39Zm2.48,0c-.03.16-.07.29-.12.39s-.11.18-.18.24-.17.1-.27.12c-.11.02-.24.03-.38.03s-.26-.01-.36-.03c-.1-.02-.17-.06-.22-.12s-.08-.14-.1-.24,0-.23.03-.39c.03-.16.06-.29.11-.39s.11-.18.19-.24.17-.1.27-.12c.11-.02.23-.03.38-.03s.27.01.37.03c.1.02.17.06.23.12s.09.14.1.24,0,.23-.03.39Z"/>
    <path class="cls-2" d="m228.39,333.29c0,.05,0,.12-.02.18-.01.07-.03.14-.06.21-.14.39-.3.79-.47,1.21-.17.41-.36.84-.57,1.28-.22.44-.46.9-.74,1.37s-.59.96-.95,1.46l-1.55,2.2c-.04.05-.08.1-.14.14-.06.04-.13.07-.22.09s-.19.04-.31.05c-.12.01-.26.02-.43.02-.18,0-.33,0-.44-.02s-.19-.04-.24-.07-.07-.08-.07-.13c0-.05.03-.11.09-.18l1.44-1.9-.93-5.45c0-.05-.02-.11-.03-.17,0-.06-.01-.11-.01-.15,0-.08.01-.14.04-.18s.07-.08.14-.11.15-.04.26-.05c.11-.01.24-.02.4-.02.17,0,.31,0,.41,0,.1,0,.17.02.23.04s.09.05.1.09c.02.04.03.1.04.16l.58,3.97h.01c.21-.32.4-.64.58-.96.17-.33.33-.66.48-.99.14-.34.28-.68.4-1.02.12-.34.23-.69.33-1.04,0-.04.03-.08.06-.11.03-.03.08-.06.15-.08.07-.02.16-.03.28-.04s.26-.02.44-.02c.27,0,.46.02.56.05s.15.09.15.18Z"/>
    <path class="cls-2" d="m233.63,339.2c-.08.38-.19.72-.36,1.01-.16.29-.37.53-.63.72s-.58.34-.96.43c-.38.1-.81.15-1.31.15-.36,0-.68-.03-.97-.08-.29-.06-.52-.13-.71-.22-.07-.03-.11-.07-.14-.11-.03-.04-.04-.1-.04-.18,0-.03,0-.07,0-.13,0-.06.01-.12.03-.2s.03-.15.05-.23.05-.15.08-.21c.03-.06.07-.11.1-.15.04-.04.08-.06.13-.06s.11.02.19.05.17.08.29.12c.12.04.28.08.46.12s.41.05.67.05c.22,0,.41-.02.58-.05.17-.03.32-.09.45-.17s.23-.17.31-.29.13-.26.17-.44c.06-.28.11-.51.17-.69.05-.19.11-.34.15-.46-.08.14-.19.28-.33.42s-.3.26-.49.37c-.18.11-.38.2-.59.26-.21.07-.42.1-.63.1-.33,0-.6-.06-.82-.17-.22-.11-.4-.26-.54-.46-.14-.19-.24-.42-.3-.69-.06-.26-.09-.54-.09-.85,0-.28.03-.57.08-.89.05-.32.13-.63.24-.95.11-.31.24-.61.41-.9s.36-.54.59-.76c.23-.22.5-.4.79-.53.3-.13.63-.2,1.01-.2.35,0,.66.07.93.22.27.15.51.36.71.64l.1-.5c.02-.09.08-.15.2-.19.12-.04.3-.06.56-.06.13,0,.23,0,.32.02s.15.03.2.04c.05.02.08.04.1.08.02.03.02.07.01.11l-1.19,5.9Zm-.74-4.2c-.15-.23-.31-.41-.49-.52s-.39-.17-.62-.17c-.18,0-.34.04-.49.13-.15.08-.28.2-.39.34s-.22.31-.3.49c-.09.19-.16.38-.22.58-.06.2-.1.41-.13.61s-.04.4-.04.58c0,.14.01.28.04.39s.06.22.12.3c.05.08.12.15.2.19.08.04.18.07.3.07.19,0,.38-.06.57-.17.19-.11.38-.26.54-.46.17-.19.32-.42.45-.68.13-.26.22-.53.28-.82l.18-.86Z"/>
    <path class="cls-2" d="m241.53,335.22c0,.3-.03.62-.09.94-.06.32-.15.64-.27.94s-.28.59-.47.86-.42.51-.69.71-.58.37-.92.49c-.35.12-.74.18-1.17.18s-.8-.05-1.11-.15c-.31-.1-.57-.25-.78-.44-.21-.19-.36-.43-.46-.71s-.15-.6-.15-.97c0-.3.03-.62.09-.94.06-.32.15-.63.27-.94s.28-.59.47-.87c.19-.27.42-.51.69-.71s.58-.36.92-.48c.35-.12.74-.18,1.17-.18s.8.05,1.11.15c.31.1.57.25.78.44.21.19.36.43.46.71s.15.6.15.97Zm-1.65.11c0-.18-.02-.34-.05-.47s-.1-.25-.18-.35c-.08-.1-.19-.17-.32-.22s-.29-.08-.47-.08c-.21,0-.4.04-.57.12-.17.08-.32.19-.45.33-.13.14-.25.3-.35.49-.1.18-.18.38-.24.58-.06.2-.11.41-.14.62-.03.21-.04.41-.04.6,0,.18.02.34.05.48s.1.26.18.35c.08.09.19.17.32.22s.29.08.47.08c.21,0,.4-.04.57-.12.17-.08.32-.19.45-.34.13-.14.25-.3.35-.49.1-.18.18-.38.24-.58.06-.21.11-.41.14-.62.03-.21.04-.41.04-.6Zm-.93-3.91c-.03.16-.07.29-.11.39s-.11.18-.18.24-.17.1-.28.12c-.11.02-.23.03-.38.03s-.27-.01-.37-.03c-.1-.02-.17-.06-.23-.12s-.08-.14-.09-.24,0-.23.03-.39c.03-.16.06-.29.11-.39s.11-.18.19-.24.17-.1.27-.12c.11-.02.23-.03.38-.03s.26.01.36.03c.1.02.17.06.23.12.05.06.09.14.1.24s0,.23-.03.39Zm2.48,0c-.03.16-.07.29-.12.39s-.11.18-.18.24-.17.1-.27.12c-.11.02-.24.03-.38.03s-.26-.01-.36-.03c-.1-.02-.17-.06-.22-.12s-.08-.14-.1-.24,0-.23.03-.39c.03-.16.06-.29.11-.39s.11-.18.19-.24.17-.1.27-.12c.11-.02.23-.03.38-.03s.27.01.37.03c.1.02.17.06.23.12s.09.14.1.24,0,.23-.03.39Z"/>
    <path class="cls-2" d="m243.74,338.97s-.03.08-.06.11c-.03.03-.08.06-.14.08-.06.02-.15.04-.25.05-.11.01-.24.02-.39.02-.16,0-.29,0-.39-.02s-.18-.03-.23-.05-.09-.05-.11-.08c-.02-.03-.02-.07-.02-.11l1.67-8.35s.03-.08.06-.12c.03-.03.08-.06.15-.08.07-.02.15-.04.26-.05.1-.01.23-.02.39-.02s.29,0,.38.02c.1.01.18.03.23.05s.09.05.11.08c.02.03.02.07.01.12l-1.66,8.35Z"/>
  </g>
  <g>
    <path class="cls-2" d="m137.96,345.76c0,.25-.02.52-.05.81-.03.28-.08.57-.16.87s-.17.59-.3.88-.28.57-.47.83c-.19.26-.41.51-.66.74s-.55.43-.89.59c-.33.17-.71.3-1.13.39-.42.09-.92.14-1.5.14h-2.09c-.07,0-.13,0-.19-.03s-.11-.05-.15-.09-.07-.09-.08-.16c-.01-.07-.01-.15,0-.25l1.43-7.16c.03-.19.11-.32.22-.4.12-.08.25-.12.41-.12h1.98c.65,0,1.2.06,1.63.19.44.13.8.32,1.1.56.29.25.51.56.66.93.15.37.22.8.22,1.29Zm-1.75.2c0-.27-.04-.51-.11-.74-.07-.23-.19-.43-.35-.59-.16-.17-.37-.29-.62-.39s-.59-.14-1.01-.14h-.87l-1.12,5.59h.88c.45,0,.82-.05,1.12-.16.3-.11.57-.26.8-.44s.43-.41.59-.65c.16-.25.3-.51.4-.78s.18-.56.23-.84c.05-.29.07-.57.07-.84Z"/>
    <path class="cls-2" d="m143.6,350.79c-.02.09-.08.15-.2.19-.12.04-.3.06-.56.06-.13,0-.24,0-.32-.01-.08,0-.15-.02-.2-.04-.05-.02-.08-.04-.1-.08-.01-.03-.02-.07,0-.12l.18-.91c-.06.14-.16.28-.3.43-.14.15-.3.29-.49.41-.19.12-.4.22-.63.3s-.47.12-.71.12c-.34,0-.62-.06-.84-.18-.22-.12-.4-.28-.54-.48-.13-.2-.23-.43-.29-.69-.06-.26-.09-.53-.09-.81,0-.27.03-.56.08-.87s.13-.63.24-.94c.11-.31.24-.61.41-.9.16-.29.36-.55.59-.77.23-.22.5-.4.79-.54.3-.13.64-.2,1.01-.2.35,0,.66.07.93.22.27.15.51.36.71.64l.1-.5c.02-.09.08-.15.2-.19.12-.04.3-.06.56-.06.13,0,.23,0,.32.02s.15.03.2.04c.05.02.08.04.1.08.02.03.02.07.01.11l-1.14,5.68Zm-.79-3.97c-.15-.23-.31-.41-.49-.52s-.39-.17-.62-.17c-.18,0-.34.04-.49.13-.15.08-.28.2-.39.34-.11.14-.21.31-.3.49s-.16.38-.22.58c-.06.2-.1.4-.13.61s-.04.39-.04.57c0,.13,0,.25.03.36.02.11.05.22.1.3s.12.16.2.21.19.08.32.08c.19,0,.38-.06.57-.17.19-.11.38-.26.54-.46.17-.19.32-.42.45-.67s.22-.53.28-.82l.18-.86Z"/>
    <path class="cls-2" d="m146.31,351.13c-.24-.03-.44-.07-.61-.12s-.31-.1-.41-.16-.18-.11-.23-.15c-.03-.03-.06-.07-.07-.11-.01-.04-.02-.09-.02-.15,0-.04,0-.09,0-.15,0-.06.02-.12.03-.2s.03-.14.05-.22c.02-.07.04-.14.07-.2.03-.06.05-.11.08-.14s.06-.05.1-.05c.06,0,.12.03.2.08s.17.11.28.17.25.12.42.17.38.08.63.08c.17,0,.32-.02.45-.06s.24-.1.32-.17c.08-.07.15-.15.19-.25.04-.09.06-.19.06-.3,0-.15-.05-.27-.16-.36-.1-.09-.23-.18-.39-.26s-.33-.16-.51-.25c-.18-.08-.35-.19-.51-.31-.16-.12-.29-.28-.39-.46s-.16-.41-.16-.69c0-.3.06-.58.17-.84s.28-.48.5-.68c.22-.19.49-.34.8-.45.31-.11.67-.16,1.07-.16.18,0,.35.01.52.04s.32.05.45.09c.13.04.25.08.35.13.1.05.17.09.21.14.05.04.07.11.07.21,0,.05,0,.13-.02.23s-.04.2-.07.3c-.03.1-.06.19-.1.26s-.08.11-.14.11c-.06,0-.12-.02-.19-.06s-.16-.08-.27-.13-.23-.09-.37-.13-.31-.06-.5-.06c-.15,0-.28.02-.4.06s-.21.09-.29.16-.13.14-.17.23c-.04.09-.06.18-.06.29,0,.13.05.24.16.33.11.09.24.17.4.25.16.08.33.16.52.24.19.08.36.19.52.32.16.13.29.28.4.46.11.18.16.41.16.69,0,.32-.06.62-.19.9s-.33.53-.61.75c-.28.22-.65.38-1.11.49l.1.36c.03.11.05.21.06.3.02.09.03.19.03.28,0,.23-.04.43-.11.59s-.18.3-.31.41c-.13.11-.3.19-.49.24-.19.05-.4.08-.63.08-.12,0-.24,0-.35-.01-.12,0-.22-.02-.32-.04-.1-.02-.19-.04-.26-.06s-.14-.04-.18-.07c-.05-.03-.08-.05-.1-.08-.02-.03-.03-.07-.03-.12,0-.04,0-.1.02-.18s.03-.15.05-.23.06-.14.1-.2c.04-.06.1-.08.17-.08h.72c.06,0,.12,0,.17-.02s.1-.04.14-.06.07-.06.1-.11.03-.1.03-.16c0-.04,0-.09,0-.15,0-.05-.02-.11-.03-.17l-.11-.44Z"/>
    <path class="cls-2" d="m156.52,345.1c0,.07-.03.15-.09.24-.06.09-.15.21-.28.35l-2,1.89,1.3,2.73c.04.1.07.19.09.27.02.08.03.13.03.18,0,.05-.01.09-.04.13s-.07.07-.14.1-.15.04-.27.05-.25.02-.42.02-.31,0-.41-.01-.18-.02-.24-.04c-.06-.02-.1-.05-.13-.08s-.05-.08-.06-.13l-1.34-2.98-.6,3s-.04.08-.07.11-.08.06-.15.08-.15.04-.26.05c-.11.01-.23.02-.39.02s-.28,0-.38-.02-.18-.03-.23-.04c-.06-.02-.09-.04-.11-.08-.02-.03-.02-.07-.02-.11l1.68-8.35s.03-.08.06-.12c.03-.03.08-.06.15-.08.07-.02.15-.04.26-.05.1-.01.23-.02.39-.02s.29,0,.38.02c.1.01.18.03.23.05s.09.05.11.08c.02.03.02.07.01.12l-.99,4.97,2.12-2.27c.04-.05.09-.09.14-.13s.11-.06.19-.08c.08-.02.17-.04.28-.04.11,0,.24-.01.4-.01s.29,0,.39.01c.11,0,.19.02.25.04.06.02.1.04.12.07s.04.06.04.1Z"/>
    <path class="cls-2" d="m156.55,349.54c0-.3.07-.58.21-.82s.35-.45.64-.63.66-.31,1.1-.4.98-.14,1.6-.14h.58c.02-.1.03-.19.04-.29,0-.09.01-.18.01-.26,0-.34-.09-.6-.27-.77-.18-.17-.46-.26-.86-.26-.28,0-.53.02-.75.06-.22.04-.42.08-.58.13s-.31.09-.42.13c-.11.04-.19.06-.24.06s-.09-.02-.11-.04-.03-.08-.03-.14c0-.07,0-.15.02-.25.01-.09.03-.19.05-.28s.05-.18.09-.26c.04-.08.08-.14.12-.18.05-.05.14-.1.28-.15s.3-.1.49-.14c.19-.04.4-.08.64-.1s.48-.04.72-.04c.41,0,.76.04,1.06.13.3.08.56.21.76.39s.36.39.46.66.15.59.15.96c0,.28-.03.59-.08.91-.05.32-.14.64-.26.96s-.27.62-.46.9-.41.54-.68.76-.57.39-.92.52c-.35.13-.74.2-1.19.2-.38,0-.72-.05-.99-.14s-.5-.21-.68-.36-.31-.32-.4-.51-.13-.39-.13-.59Zm1.57-.12c0,.17.07.31.2.42.13.11.33.17.58.17.21,0,.4-.04.57-.11s.31-.18.44-.31.24-.28.33-.46.16-.36.22-.56h-.53c-.34,0-.62.02-.85.07-.23.04-.41.1-.55.18-.14.08-.24.17-.3.27-.06.1-.1.21-.1.33Z"/>
    <path class="cls-2" d="m167.56,345.37c0,.05,0,.13-.02.23s-.04.2-.07.3c-.03.1-.06.19-.1.26s-.08.11-.14.11c-.06,0-.12-.02-.19-.06s-.16-.08-.27-.13-.23-.09-.37-.13-.31-.06-.5-.06c-.15,0-.28.02-.4.06s-.21.09-.29.16-.13.14-.17.23c-.04.09-.06.18-.06.29,0,.13.05.24.16.33.11.09.24.17.4.25.16.08.33.16.52.24.19.08.36.19.52.32.16.13.29.28.4.46.11.18.16.41.16.69,0,.32-.06.62-.18.89-.12.27-.3.51-.54.71-.24.2-.52.35-.86.47-.34.11-.72.17-1.14.17-.2,0-.4-.02-.58-.04-.18-.03-.35-.07-.5-.11-.15-.04-.27-.09-.37-.15s-.18-.11-.23-.15c-.03-.03-.06-.07-.07-.11-.01-.04-.02-.09-.02-.15,0-.04,0-.09,0-.15,0-.06.02-.12.03-.2s.03-.14.05-.22c.02-.07.04-.14.07-.2.03-.06.05-.11.08-.14s.06-.05.1-.05c.06,0,.12.03.2.08s.17.11.28.17.25.12.42.17.38.08.63.08c.17,0,.32-.02.45-.06s.24-.1.32-.17c.08-.07.15-.15.19-.25.04-.09.06-.19.06-.3,0-.15-.05-.27-.16-.36-.1-.09-.23-.18-.39-.26s-.33-.16-.51-.25c-.18-.08-.35-.19-.51-.31-.16-.12-.29-.28-.39-.46s-.16-.41-.16-.69c0-.3.06-.58.17-.84s.28-.48.5-.68c.22-.19.49-.34.8-.45.31-.11.67-.16,1.07-.16.18,0,.35.01.52.04s.32.05.45.09c.13.04.25.08.35.13.1.05.17.09.21.14.05.04.07.11.07.21Z"/>
    <path class="cls-2" d="m168,349.54c0-.3.07-.58.21-.82s.35-.45.64-.63.66-.31,1.1-.4.98-.14,1.6-.14h.58c.02-.1.03-.19.04-.29,0-.09.01-.18.01-.26,0-.34-.09-.6-.27-.77-.18-.17-.46-.26-.86-.26-.28,0-.53.02-.75.06-.22.04-.42.08-.58.13s-.31.09-.42.13c-.11.04-.19.06-.24.06s-.09-.02-.11-.04-.03-.08-.03-.14c0-.07,0-.15.02-.25.01-.09.03-.19.05-.28s.05-.18.09-.26c.04-.08.08-.14.12-.18.05-.05.14-.1.28-.15s.3-.1.49-.14c.19-.04.4-.08.64-.1s.48-.04.72-.04c.41,0,.76.04,1.06.13.3.08.56.21.76.39s.36.39.46.66.15.59.15.96c0,.28-.03.59-.08.91-.05.32-.14.64-.26.96s-.27.62-.46.9-.41.54-.68.76-.57.39-.92.52c-.35.13-.74.2-1.19.2-.38,0-.72-.05-.99-.14s-.5-.21-.68-.36-.31-.32-.4-.51-.13-.39-.13-.59Zm1.57-.12c0,.17.07.31.2.42.13.11.33.17.58.17.21,0,.4-.04.57-.11s.31-.18.44-.31.24-.28.33-.46.16-.36.22-.56h-.53c-.34,0-.62.02-.85.07-.23.04-.41.1-.55.18-.14.08-.24.17-.3.27-.06.1-.1.21-.1.33Z"/>
    <path class="cls-2" d="m180.49,346.38c0,.15,0,.3-.03.45-.02.15-.04.3-.07.46l-.71,3.5s-.03.08-.06.11-.08.06-.15.08-.15.04-.25.05-.23.02-.39.02-.28,0-.38-.02-.18-.03-.23-.05c-.05-.02-.09-.05-.11-.08-.02-.03-.02-.07-.02-.11l.69-3.4c.02-.1.04-.21.05-.31s.02-.2.02-.28c0-.19-.04-.35-.12-.47s-.22-.18-.41-.18c-.17,0-.35.05-.54.16-.19.11-.37.26-.53.45s-.32.41-.45.66-.22.52-.28.8l-.51,2.56s-.03.08-.06.11c-.03.03-.08.06-.15.08s-.15.04-.26.05-.24.02-.39.02-.28,0-.38-.02-.18-.03-.23-.05c-.06-.02-.09-.05-.11-.08-.02-.03-.02-.07-.01-.11l1.14-5.67s.03-.08.05-.11c.03-.03.07-.06.13-.08.06-.02.13-.03.22-.04s.2-.02.33-.02.24,0,.32.02c.08.01.15.03.19.04.05.02.08.04.09.08.01.03.02.07,0,.11l-.18.93c.09-.15.21-.3.36-.45s.32-.29.51-.42c.19-.12.4-.22.63-.3s.46-.12.71-.12c.3,0,.54.04.75.13s.36.2.49.35c.12.15.21.32.27.52.05.2.08.41.08.62Z"/>
  </g>
  <g>
    <path class="cls-2" d="m305.19,305.98s0,.1,0,.17c0,.07-.02.14-.03.22s-.03.16-.05.24c-.02.08-.05.15-.08.21-.03.06-.06.12-.1.16s-.07.06-.11.06c-.06,0-.15-.04-.27-.11s-.26-.15-.44-.24-.4-.17-.67-.24c-.26-.07-.57-.11-.93-.11s-.69.05-.99.16-.57.25-.82.42c-.25.18-.46.39-.65.63s-.35.5-.48.78-.23.57-.29.87c-.06.3-.1.6-.1.89,0,.33.05.61.14.86s.23.45.4.62c.18.16.39.29.64.37s.53.13.84.13c.21,0,.41-.02.62-.06s.39-.11.56-.19l.38-1.9h-1.55c-.05,0-.09-.02-.12-.06-.03-.04-.04-.11-.04-.19,0-.04,0-.1.01-.17,0-.07.02-.14.04-.21s.03-.15.05-.23.05-.14.08-.2c.03-.06.07-.11.11-.15s.08-.06.13-.06h2.77c.14,0,.24.05.3.14.06.09.07.22.04.39l-.66,3.29c-.02.08-.04.15-.06.21-.03.06-.06.11-.1.16-.05.05-.16.11-.32.18-.17.07-.38.14-.62.21s-.51.12-.82.17c-.3.05-.61.07-.92.07-.59,0-1.11-.07-1.55-.2s-.82-.34-1.13-.61-.53-.6-.69-.99c-.16-.39-.24-.84-.24-1.35,0-.46.05-.91.15-1.35.1-.44.25-.86.44-1.25.2-.4.44-.76.73-1.1.29-.34.63-.63,1.01-.87.38-.25.81-.44,1.28-.58s.98-.21,1.54-.21c.31,0,.6.02.88.07.27.05.52.11.74.18.22.07.4.14.55.23.15.08.25.14.29.19.05.04.08.09.1.15s.03.12.03.2Z"/>
    <path class="cls-2" d="m311.65,309.34c0,.3-.03.62-.09.94-.06.32-.15.64-.27.94s-.28.59-.47.86-.42.51-.69.71-.58.37-.92.49c-.35.12-.74.18-1.17.18s-.8-.05-1.11-.15c-.31-.1-.57-.25-.78-.44-.21-.19-.36-.43-.46-.71s-.15-.6-.15-.97c0-.3.03-.62.09-.94.06-.32.15-.63.27-.94s.28-.59.47-.87c.19-.27.42-.51.69-.71s.58-.36.92-.48c.35-.12.74-.18,1.17-.18s.8.05,1.11.15c.31.1.57.25.78.44.21.19.36.43.46.71s.15.6.15.97Zm-1.65.11c0-.18-.02-.34-.05-.47s-.1-.25-.18-.35c-.08-.1-.19-.17-.32-.22s-.29-.08-.47-.08c-.21,0-.4.04-.57.12-.17.08-.32.19-.45.33-.13.14-.25.3-.35.49-.1.18-.18.38-.24.58-.06.2-.11.41-.14.62-.03.21-.04.41-.04.6,0,.18.02.34.05.48s.1.26.18.35c.08.09.19.17.32.22s.29.08.47.08c.21,0,.4-.04.57-.12.17-.08.32-.19.45-.34.13-.14.25-.3.35-.49.1-.18.18-.38.24-.58.06-.21.11-.41.14-.62.03-.21.04-.41.04-.6Z"/>
    <path class="cls-2" d="m316.96,307.35s0,.08-.01.16-.02.17-.04.27-.04.21-.06.31c-.03.11-.05.21-.09.3-.03.09-.07.17-.11.23s-.08.09-.13.09c-.04,0-.08,0-.12-.02-.04-.01-.08-.03-.13-.04-.05-.01-.1-.03-.15-.04-.05-.01-.12-.02-.19-.02-.14,0-.3.06-.46.17-.16.11-.32.25-.47.43-.15.18-.28.39-.4.63s-.2.49-.25.75l-.51,2.55s-.03.08-.06.11c-.03.03-.08.06-.15.08s-.15.04-.26.05-.24.02-.39.02-.28,0-.38-.02-.18-.03-.23-.05c-.06-.02-.09-.05-.11-.08-.02-.03-.02-.07-.01-.11l1.13-5.67s.03-.08.06-.11c.03-.03.07-.06.13-.08.06-.02.13-.03.22-.04s.2-.02.33-.02.24,0,.32.02c.08.01.15.03.19.04.05.02.08.04.09.08.01.03.02.07,0,.11l-.18.9c.1-.18.22-.35.35-.5.13-.15.28-.28.43-.4s.31-.2.47-.26c.16-.06.32-.1.48-.1.06,0,.13,0,.19.01.07,0,.13.02.18.03.06.01.11.03.15.05.04.02.08.04.1.06.03.03.04.07.04.12Z"/>
    <path class="cls-2" d="m322.09,313.11c-.02.09-.08.15-.2.19-.12.04-.3.06-.56.06-.13,0-.24,0-.32-.01-.08,0-.15-.02-.2-.04-.05-.02-.08-.04-.1-.08-.01-.03-.02-.07,0-.12l.18-.91c-.06.14-.16.28-.3.43-.14.15-.3.29-.49.41-.19.12-.4.22-.63.3s-.47.12-.71.12c-.34,0-.62-.06-.84-.18-.22-.12-.4-.28-.54-.48-.13-.2-.23-.43-.29-.69-.06-.26-.09-.53-.09-.81,0-.27.03-.56.08-.87s.13-.63.24-.94c.11-.31.24-.61.41-.9.16-.29.36-.55.59-.77.23-.22.5-.4.79-.54.3-.13.64-.2,1.01-.2.35,0,.66.07.93.22.27.15.51.36.71.64l.1-.5c.02-.09.08-.15.2-.19.12-.04.3-.06.56-.06.13,0,.23,0,.32.02s.15.03.2.04c.05.02.08.04.1.08.02.03.02.07.01.11l-1.14,5.68Zm-.79-3.97c-.15-.23-.31-.41-.49-.52s-.39-.17-.62-.17c-.18,0-.34.04-.49.13-.15.08-.28.2-.39.34-.11.14-.21.31-.3.49s-.16.38-.22.58c-.06.2-.1.4-.13.61s-.04.39-.04.57c0,.13,0,.25.03.36.02.11.05.22.1.3s.12.16.2.21.19.08.32.08c.19,0,.38-.06.57-.17.19-.11.38-.26.54-.46.17-.19.32-.42.45-.67s.22-.53.28-.82l.18-.86Z"/>
    <path class="cls-2" d="m329.79,308.7c0,.15,0,.3-.03.45-.02.15-.04.3-.07.46l-.71,3.5s-.03.08-.06.11-.08.06-.15.08-.15.04-.25.05-.23.02-.39.02-.28,0-.38-.02-.18-.03-.23-.05c-.05-.02-.09-.05-.11-.08-.02-.03-.02-.07-.02-.11l.69-3.4c.02-.1.04-.21.05-.31s.02-.2.02-.28c0-.19-.04-.35-.12-.47s-.22-.18-.41-.18c-.17,0-.35.05-.54.16-.19.11-.37.26-.53.45s-.32.41-.45.66-.22.52-.28.8l-.51,2.56s-.03.08-.06.11c-.03.03-.08.06-.15.08s-.15.04-.26.05-.24.02-.39.02-.28,0-.38-.02-.18-.03-.23-.05c-.06-.02-.09-.05-.11-.08-.02-.03-.02-.07-.01-.11l1.14-5.67s.03-.08.05-.11c.03-.03.07-.06.13-.08.06-.02.13-.03.22-.04s.2-.02.33-.02.24,0,.32.02c.08.01.15.03.19.04.05.02.08.04.09.08.01.03.02.07,0,.11l-.18.93c.09-.15.21-.3.36-.45s.32-.29.51-.42c.19-.12.4-.22.63-.3s.46-.12.71-.12c.3,0,.54.04.75.13s.36.2.49.35c.12.15.21.32.27.52.05.2.08.41.08.62Z"/>
    <path class="cls-2" d="m336.8,309.24c0,.28-.03.58-.08.9s-.13.63-.23.95c-.11.31-.24.61-.41.9-.17.29-.36.54-.6.76-.23.22-.5.4-.8.53-.3.13-.63.2-1,.2s-.67-.07-.94-.21c-.27-.14-.51-.35-.71-.63l-.09.48c-.02.09-.08.15-.2.19s-.3.06-.56.06-.43-.02-.52-.06-.13-.11-.11-.19l1.67-8.35s.03-.08.06-.12c.03-.03.08-.06.15-.08.07-.02.15-.04.26-.05.1-.01.23-.02.39-.02s.28,0,.38.02c.1.01.17.03.23.05.06.02.09.05.11.08.02.03.02.07.01.12l-.45,2.27c-.02.1-.04.2-.07.31-.03.11-.05.21-.09.32-.03.11-.06.21-.1.31-.03.1-.06.19-.09.26.08-.14.19-.27.33-.41s.3-.26.49-.37c.18-.11.38-.2.59-.27.21-.07.42-.1.63-.1.24,0,.45.03.63.09s.33.14.46.25c.13.11.24.23.32.37.08.14.15.29.2.45.05.16.08.32.1.49.02.17.03.33.03.49Zm-1.64.16c0-.11,0-.22-.02-.33s-.05-.22-.1-.31c-.05-.09-.12-.17-.2-.23-.08-.06-.2-.09-.34-.09-.19,0-.38.06-.57.17s-.37.27-.54.46-.32.42-.45.68c-.13.26-.22.53-.28.83l-.18.86c.15.23.31.41.49.52s.39.17.63.17c.17,0,.33-.04.47-.12.14-.08.27-.19.39-.33.12-.14.22-.29.3-.48s.16-.37.22-.57c.06-.2.1-.41.13-.61.03-.21.04-.41.04-.6Z"/>
    <path class="cls-2" d="m343.66,309.34c0,.3-.03.62-.09.94-.06.32-.15.64-.27.94s-.28.59-.47.86-.42.51-.69.71-.58.37-.92.49c-.35.12-.74.18-1.17.18s-.8-.05-1.11-.15c-.31-.1-.57-.25-.78-.44-.21-.19-.36-.43-.46-.71s-.15-.6-.15-.97c0-.3.03-.62.09-.94.06-.32.15-.63.27-.94s.28-.59.47-.87c.19-.27.42-.51.69-.71s.58-.36.92-.48c.35-.12.74-.18,1.17-.18s.8.05,1.11.15c.31.1.57.25.78.44.21.19.36.43.46.71s.15.6.15.97Zm-1.65.11c0-.18-.02-.34-.05-.47s-.1-.25-.18-.35c-.08-.1-.19-.17-.32-.22s-.29-.08-.47-.08c-.21,0-.4.04-.57.12-.17.08-.32.19-.45.33-.13.14-.25.3-.35.49-.1.18-.18.38-.24.58-.06.2-.11.41-.14.62-.03.21-.04.41-.04.6,0,.18.02.34.05.48s.1.26.18.35c.08.09.19.17.32.22s.29.08.47.08c.21,0,.4-.04.57-.12.17-.08.32-.19.45-.34.13-.14.25-.3.35-.49.1-.18.18-.38.24-.58.06-.21.11-.41.14-.62.03-.21.04-.41.04-.6Z"/>
    <path class="cls-2" d="m350.24,307.42c0,.05,0,.12-.02.18-.01.07-.03.14-.06.21-.14.39-.3.79-.47,1.21-.17.41-.36.84-.57,1.28-.22.44-.46.9-.74,1.37s-.59.96-.95,1.46l-1.55,2.2c-.04.05-.08.1-.14.14-.06.04-.13.07-.22.09s-.19.04-.31.05c-.12.01-.26.02-.43.02-.18,0-.33,0-.44-.02s-.19-.04-.24-.07-.07-.08-.07-.13c0-.05.03-.11.09-.18l1.44-1.9-.93-5.45c0-.05-.02-.11-.03-.17,0-.06-.01-.11-.01-.15,0-.08.01-.14.04-.18s.07-.08.14-.11.15-.04.26-.05c.11-.01.24-.02.4-.02.17,0,.31,0,.41,0,.1,0,.17.02.23.04s.09.05.1.09c.02.04.03.1.04.16l.58,3.97h.01c.21-.32.4-.64.58-.96.17-.33.33-.66.48-.99.14-.34.28-.68.4-1.02.12-.34.23-.69.33-1.04,0-.04.03-.08.06-.11.03-.03.08-.06.15-.08.07-.02.16-.03.28-.04s.26-.02.44-.02c.27,0,.46.02.56.05s.15.09.15.18Z"/>
  </g>
  <g>
    <path class="cls-2" d="m264.87,359.31c-.02.1-.05.18-.1.26s-.11.14-.17.19-.14.09-.22.11-.16.04-.24.04h-.71c-.15,0-.28-.01-.38-.04-.1-.03-.18-.08-.25-.16-.07-.08-.13-.18-.19-.31-.05-.13-.11-.3-.17-.5l-1.21-3.67c-.09-.28-.18-.57-.26-.86-.08-.29-.15-.57-.23-.86h-.01c-.04.33-.09.66-.15.99-.05.32-.12.65-.18.97l-.84,4.2s-.03.08-.06.11c-.03.03-.08.06-.14.08-.06.02-.14.04-.24.05-.1.01-.22.02-.37.02s-.27,0-.37-.02c-.1-.01-.17-.03-.22-.05-.05-.02-.08-.05-.1-.08s-.02-.07,0-.11l1.48-7.39c.04-.2.12-.35.26-.45.14-.1.29-.15.46-.15h.87c.14,0,.26.02.36.05.1.03.18.08.25.15.07.07.13.16.18.27s.1.25.15.41l1.22,3.7c.08.24.15.47.22.7s.13.47.21.7h.01c.05-.3.1-.62.16-.94.06-.32.12-.64.17-.94l.78-3.87s.03-.08.06-.11c.03-.03.08-.06.14-.08.06-.02.14-.03.24-.04s.22-.02.37-.02.27,0,.37.02.17.03.22.04c.05.02.08.04.1.08.02.03.02.07.01.11l-1.48,7.41Z"/>
    <path class="cls-2" d="m271.75,359.68c-.02.09-.08.15-.2.19-.12.04-.3.06-.56.06-.13,0-.24,0-.32-.01-.08,0-.15-.02-.2-.04-.05-.02-.08-.04-.1-.08-.01-.03-.02-.07,0-.12l.18-.91c-.06.14-.16.28-.3.43-.14.15-.3.29-.49.41-.19.12-.4.22-.63.3s-.47.12-.71.12c-.34,0-.62-.06-.84-.18-.22-.12-.4-.28-.54-.48-.13-.2-.23-.43-.29-.69-.06-.26-.09-.53-.09-.81,0-.27.03-.56.08-.87s.13-.63.24-.94c.11-.31.24-.61.41-.9.16-.29.36-.55.59-.77.23-.22.5-.4.79-.54.3-.13.64-.2,1.01-.2.35,0,.66.07.93.22.27.15.51.36.71.64l.1-.5c.02-.09.08-.15.2-.19.12-.04.3-.06.56-.06.13,0,.23,0,.32.02s.15.03.2.04c.05.02.08.04.1.08.02.03.02.07.01.11l-1.14,5.68Zm-.79-3.97c-.15-.23-.31-.41-.49-.52s-.39-.17-.62-.17c-.18,0-.34.04-.49.13-.15.08-.28.2-.39.34-.11.14-.21.31-.3.49s-.16.38-.22.58c-.06.2-.1.4-.13.61s-.04.39-.04.57c0,.13,0,.25.03.36.02.11.05.22.1.3s.12.16.2.21.19.08.32.08c.19,0,.38-.06.57-.17.19-.11.38-.26.54-.46.17-.19.32-.42.45-.67s.22-.53.28-.82l.18-.86Z"/>
    <path class="cls-2" d="m281.51,354.07s0,.1,0,.16c0,.07-.02.14-.04.21-.02.08-.04.15-.06.23s-.05.14-.08.21-.06.11-.1.15-.09.06-.14.06h-1.24l-.53,2.66c0,.06-.02.14-.03.22s-.02.16-.02.21c0,.17.04.29.12.37.08.08.21.12.38.12.1,0,.19,0,.26-.02.07-.01.13-.03.19-.05.05-.02.1-.04.14-.05.04-.01.07-.02.11-.02s.06.02.09.05c.02.03.03.08.03.16,0,.08,0,.17-.03.27-.02.1-.04.2-.07.3-.03.09-.06.18-.09.26s-.07.14-.11.17c-.04.04-.1.07-.17.11-.08.03-.17.06-.27.09s-.21.04-.33.06-.24.02-.36.02c-.25,0-.48-.03-.67-.08s-.35-.14-.49-.25-.23-.26-.29-.44-.1-.39-.1-.65c0-.05,0-.1,0-.16s.01-.13.02-.19c0-.07.02-.14.03-.21.01-.07.02-.13.04-.19l.55-2.76h-2.08l-1,4.98c-.07.35-.17.66-.29.93s-.28.49-.47.67c-.19.18-.42.32-.68.41-.26.09-.55.14-.88.14-.22,0-.4-.02-.55-.05-.15-.03-.24-.07-.29-.1-.02-.03-.04-.05-.04-.08s-.01-.07-.01-.13c0-.03,0-.07,0-.13,0-.06.02-.12.03-.19.01-.07.03-.14.05-.22.02-.08.04-.15.06-.21s.05-.12.08-.16.06-.06.1-.06c.03,0,.05,0,.08,0,.03,0,.05,0,.08.02.03,0,.06.01.1.02s.09,0,.16,0c.14,0,.25-.02.35-.06s.18-.1.26-.19.13-.19.18-.33c.05-.13.1-.29.13-.49l.96-4.77h-.71c-.05,0-.09-.02-.12-.05s-.04-.1-.04-.21c0-.04,0-.1,0-.17,0-.07.02-.14.03-.21s.03-.15.05-.23c.02-.08.05-.15.08-.21s.07-.11.11-.15.09-.06.14-.06h.7l.12-.63c.07-.36.17-.67.3-.94.13-.27.29-.5.49-.68s.42-.32.68-.41c.26-.09.56-.14.89-.14.11,0,.22,0,.32.02s.2.02.28.04c.08.02.16.04.22.06s.1.05.13.08c.02.02.04.05.05.08.01.04.02.08.02.14,0,.03,0,.07,0,.12,0,.06-.02.12-.03.19-.01.07-.03.15-.04.22-.02.08-.04.15-.06.21s-.05.12-.08.16c-.03.04-.06.06-.09.06s-.06,0-.1-.02-.08-.02-.12-.04-.1-.03-.17-.04c-.06-.01-.13-.02-.21-.02-.13,0-.25.02-.35.06-.1.04-.18.1-.25.18-.07.08-.13.19-.18.32s-.09.29-.13.47l-.09.48h2.08l.25-1.26s.03-.08.06-.11c.03-.03.08-.06.14-.09s.15-.04.25-.05.23-.02.39-.02.29,0,.38.02.18.03.23.05c.06.02.1.05.11.09.02.03.02.07.02.11l-.25,1.26h1.22c.07,0,.11.02.14.07.03.05.04.11.04.2Z"/>
    <path class="cls-2" d="m286.67,359.68c-.02.09-.08.15-.2.19-.12.04-.3.06-.56.06-.13,0-.24,0-.32-.01-.08,0-.15-.02-.2-.04-.05-.02-.08-.04-.1-.08-.01-.03-.02-.07,0-.12l.18-.91c-.06.14-.16.28-.3.43-.14.15-.3.29-.49.41-.19.12-.4.22-.63.3s-.47.12-.71.12c-.34,0-.62-.06-.84-.18-.22-.12-.4-.28-.54-.48-.13-.2-.23-.43-.29-.69-.06-.26-.09-.53-.09-.81,0-.27.03-.56.08-.87s.13-.63.24-.94c.11-.31.24-.61.41-.9.16-.29.36-.55.59-.77.23-.22.5-.4.79-.54.3-.13.64-.2,1.01-.2.35,0,.66.07.93.22.27.15.51.36.71.64l.1-.5c.02-.09.08-.15.2-.19.12-.04.3-.06.56-.06.13,0,.23,0,.32.02s.15.03.2.04c.05.02.08.04.1.08.02.03.02.07.01.11l-1.14,5.68Zm-.79-3.97c-.15-.23-.31-.41-.49-.52s-.39-.17-.62-.17c-.18,0-.34.04-.49.13-.15.08-.28.2-.39.34-.11.14-.21.31-.3.49s-.16.38-.22.58c-.06.2-.1.4-.13.61s-.04.39-.04.57c0,.13,0,.25.03.36.02.11.05.22.1.3s.12.16.2.21.19.08.32.08c.19,0,.38-.06.57-.17.19-.11.38-.26.54-.46.17-.19.32-.42.45-.67s.22-.53.28-.82l.18-.86Z"/>
    <path class="cls-2" d="m289.87,359.67s-.03.08-.06.11c-.03.03-.08.06-.14.08-.06.02-.15.04-.25.05-.11.01-.24.02-.39.02-.16,0-.29,0-.39-.02s-.18-.03-.23-.05-.09-.05-.11-.08c-.02-.03-.02-.07-.02-.11l1.67-8.35s.03-.08.06-.12c.03-.03.08-.06.15-.08.07-.02.15-.04.26-.05.1-.01.23-.02.39-.02s.29,0,.38.02c.1.01.18.03.23.05s.09.05.11.08c.02.03.02.07.01.12l-1.66,8.35Z"/>
    <path class="cls-2" d="m296.73,359.68c-.02.09-.08.15-.2.19-.12.04-.3.06-.56.06-.13,0-.24,0-.32-.01-.08,0-.15-.02-.2-.04-.05-.02-.08-.04-.1-.08-.01-.03-.02-.07,0-.12l.18-.91c-.06.14-.16.28-.3.43-.14.15-.3.29-.49.41-.19.12-.4.22-.63.3s-.47.12-.71.12c-.34,0-.62-.06-.84-.18-.22-.12-.4-.28-.54-.48-.13-.2-.23-.43-.29-.69-.06-.26-.09-.53-.09-.81,0-.27.03-.56.08-.87s.13-.63.24-.94c.11-.31.24-.61.41-.9.16-.29.36-.55.59-.77.23-.22.5-.4.79-.54.3-.13.64-.2,1.01-.2.35,0,.66.07.93.22.27.15.51.36.71.64l.1-.5c.02-.09.08-.15.2-.19.12-.04.3-.06.56-.06.13,0,.23,0,.32.02s.15.03.2.04c.05.02.08.04.1.08.02.03.02.07.01.11l-1.14,5.68Zm-.79-3.97c-.15-.23-.31-.41-.49-.52s-.39-.17-.62-.17c-.18,0-.34.04-.49.13-.15.08-.28.2-.39.34-.11.14-.21.31-.3.49s-.16.38-.22.58c-.06.2-.1.4-.13.61s-.04.39-.04.57c0,.13,0,.25.03.36.02.11.05.22.1.3s.12.16.2.21.19.08.32.08c.19,0,.38-.06.57-.17.19-.11.38-.26.54-.46.17-.19.32-.42.45-.67s.22-.53.28-.82l.18-.86Z"/>
    <path class="cls-2" d="m304.42,355.28c0,.15,0,.3-.03.45-.02.15-.04.3-.07.46l-.71,3.5s-.03.08-.06.11-.08.06-.15.08-.15.04-.25.05-.23.02-.39.02-.28,0-.38-.02-.18-.03-.23-.05c-.05-.02-.09-.05-.11-.08-.02-.03-.02-.07-.02-.11l.69-3.4c.02-.1.04-.21.05-.31s.02-.2.02-.28c0-.19-.04-.35-.12-.47s-.22-.18-.41-.18c-.17,0-.35.05-.54.16-.19.11-.37.26-.53.45s-.32.41-.45.66-.22.52-.28.8l-.51,2.56s-.03.08-.06.11c-.03.03-.08.06-.15.08s-.15.04-.26.05-.24.02-.39.02-.28,0-.38-.02-.18-.03-.23-.05c-.06-.02-.09-.05-.11-.08-.02-.03-.02-.07-.01-.11l1.14-5.67s.03-.08.05-.11c.03-.03.07-.06.13-.08.06-.02.13-.03.22-.04s.2-.02.33-.02.24,0,.32.02c.08.01.15.03.19.04.05.02.08.04.09.08.01.03.02.07,0,.11l-.18.93c.09-.15.21-.3.36-.45s.32-.29.51-.42c.19-.12.4-.22.63-.3s.46-.12.71-.12c.3,0,.54.04.75.13s.36.2.49.35c.12.15.21.32.27.52.05.2.08.41.08.62Z"/>
  </g>
</svg>