<?xml version="1.0" encoding="utf-8"?>
<!-- Generator: Adobe Illustrator 27.1.1, SVG Export Plug-In . SVG Version: 6.00 Build 0)  -->
<svg version="1.1" id="Layer_1" xmlns="http://www.w3.org/2000/svg" xmlns:xlink="http://www.w3.org/1999/xlink" x="0px" y="0px"
	 viewBox="0 0 750 750" style="enable-background:new 0 0 750 750;" xml:space="preserve">

<g>
	<g>
		<g>
			<path class="st3" d="M332.09,720.34c-0.23-1.71-0.88-3.67-1.23-5.47c-0.43-2.24-0.67-4.71-0.95-6.99
				c-0.3-2.47-0.78-4.69-0.77-7.18c0.01-3.1,0.66-5.93,0.81-8.99c0.2-4.04,0.01-7.5,0.93-11.52c0.73-3.18,1.39-5.92,1.37-9.21
				c-0.02-3.29-0.2-6.47,0.56-9.69c0.22-0.91,0.54-3.12,1.14-3.91c0.63-0.82,1.39-0.99,2.03-1.83c1.26-1.64,1.74-4.69,1.75-6.64
				c0.01-2.47-1.1-4.77-0.87-7.26c0.22-2.43,1.43-4.21,2.6-6.21c0.74-1.26,1.38-2.16,2.54-3.1c4.89-4.02,11.44-6.05,16.68-9.56
				c-1.75-1.93,2.79-4.77,4.1-6.12c3.56-3.67,5.25-8.6,7.57-13.08c1.35-2.59,2.93-4.99,4.71-7.3c1.7-2.21,3.48-3.21,5.43-5.1
				c2.33-2.26,4.22-5.14,6.23-7.69c2.2-2.78,4.73-5.19,7.08-7.84c4.17-4.69,8.85-8.91,13.2-13.43c4.22-4.38,9.28-7.19,14.13-10.81
				c2.66-1.98,4.88-3.7,7.14-6.11c1.69-1.8,2.09-3.03,2.85-5.37c1.53-4.7,1.8-9.87,5.93-13.1c2.98-2.33,6.88-4.26,7.34-8.38
				c0.17-1.49,0.6-2.78,0.78-4.26c0.2-1.56-0.48-2.58-0.74-4.04c-0.29-1.6-0.04-2.59-0.8-4.07c-0.84-1.65-1.78-4.32-3.34-5.39
				c-1.42-0.97-2.45-0.96-3.73-2.22c-1.46-1.45-1.75-2.54-1.88-4.66c-0.12-2.03,0.39-3.09,1.12-4.84c1.13-2.72,1.26-5.61,1.77-8.5
				c0.93-5.31,0.18-10.68,1.79-15.92c1.35-4.4,5.33-7.47,6.45-12.01c0.96-3.9-0.29-9.41-1.43-13.19c-0.91-3.02-1.19-8.21-4.27-9.83
				c-2.1-1.1-4.82-2.19-6.67-3.86c-0.8-0.72-0.93-1.95-1.68-2.6c-0.41-0.35-1.72-0.89-2.78-1.29c-0.03,0.32-0.08,0.61-0.18,0.84
				c-1.38,3.22-5.97,3.47-8.83,3.45c-2.49-0.02-5.15,0.29-7.61-0.04c-2.42-0.32-4.59-1.51-6.88-2.31c-4.39-1.53-8.5-3.33-13.2-3.15
				c-2.55,0.1-4.81,1.11-7.35,0.4c-1.64-0.46-3.11-1.29-4.77-1.72c-3.19-0.83-6.35-1.94-8.66-4.48c-1.9-2.08-1.1-5.51-1.1-8.21
				c0-2.09,0.11-3.56,0.6-5.53c0.59-2.36,0.03-4.55-0.59-6.84c-0.55-2.06-0.76-4.18-1.57-6.15c-1.4-3.4-2.67-7.02-6.25-8.78
				c-3.72-1.83-7.54-0.65-11.2-1.92c-1.66-0.58-2.58-1.11-4.4-1.12c-0.58,0-1.83,0.3-2.33,0.07c-1.14-0.52-1.75-5.33-2.28-6.76
				c-1.24-3.36-1.97-6.98-2.55-10.52c-0.94-5.76-0.1-11.51-2.43-17.01c-0.47-1.12-0.9-2.08-1.22-3.22c-0.69-2.42-1.64-4.5-2.69-6.83
				c-1.88-4.16-2.93-8.5-5.13-12.52c-0.69-1.25-1-2.8-1.73-3.99c-0.66-1.07-1.76-2-2.52-3.03c-1.33-1.81-2.81-3.02-4.68-4.27
				c-1.19-0.8-1.69-0.88-1.95-2.22c-0.89,0.71-1.85,1.33-2.55,2.33c-2.89,4.11-3.38,9.85-6.99,13.64c-2.34,2.46-4.23,5.57-6.11,8.42
				c-1.26,1.92-2.96,4.61-2.31,7.06c0.3,1.15,0.75,1.29,0.83,2.73c0.11,1.85-0.02,3.77-0.02,5.62c0,1.18,0.4,3.02,0.06,4.1
				c-0.26,0.83-1.08,1.31-1.61,1.99c-3.44,4.4-0.72,11.52-1.72,16.64c-0.4,2.07-1.49,3.96-1.99,6.01c-0.43,1.78-0.73,3.14-1.73,4.71
				c-1.51,2.35-2.5,4.77-3.9,7.17c-1.91,3.28-3.57,6.67-5.47,9.95c-2.38,4.1-4.41,8.44-6.81,12.51c-1.73,2.94-4.15,6.98-7.06,8.81
				c-2.34,1.47-3.26-0.48-5.55-0.94c-2.04-0.41-4.93-0.02-7.03,0.02c-4.19,0.08-7.21,2.43-11.14,3.4c-3.61,0.89-6.79,0.5-10.32-0.47
				c-1.99-0.54-4-2.12-6-2.04c-1.94,0.08-3.8,1.81-5.25,2.84c-1.24,0.88-2.79,1.09-3.97,1.9c-1.4,0.96-1.93,2.7-3.16,3.91
				c-2.3,2.26-3.87,2.14-6.8,2.14c-1.67,0.01-3.25-0.1-4.79-0.29c-0.01,1.8,0.09,3.6,0.8,5.33c0.81,1.99,1.5,2.99,3.14,4.32
				c1.34,1.09,2.8,1.85,4.06,2.91c4.68,3.92,7.99,8.99,13.62,11.88c8.09,4.15,15.47,10.38,21.35,17.38
				c2.55,3.03,4.59,6.09,7.52,8.81c1.42,1.32,2.92,2.53,4.27,3.92c2.36,2.41,3.86,5.15,5.61,7.99c0.5,0.81,1.02,1.45,1.21,2.39
				c0.34,1.68-0.51,3.85-0.88,5.43c-0.8,3.41-3.51,3.7-6.02,5.39c-1.48,0.99-2.28,2.51-3.36,3.86c-1.52,1.91-3.34,3.55-4.86,5.47
				c-4.06,5.11-7.36,10.9-10.93,16.36c-3.26,4.97-4.89,10.88-8.29,15.67c-2.58,3.62-1.34,7.24-0.36,11.23
				c1.4,5.69,3.43,11.51,7.56,15.84c4.23,4.43,9.98,5.41,14.68,8.94c4.53,3.41,9.88,5.6,13.82,9.88c0.94,1.03,1.63,2.2,2.66,3.14
				c0.71,0.65,1.51,0.91,2.16,1.65c2.03,2.28,2.99,5.08,4.67,7.54c2.18,3.19,4.93,6.72,5.49,10.64c0.6,4.25-0.67,8.54-3.95,11.37
				c-1.19,1.02-2.45,1.65-3.62,2.64c-2.64,2.27-3.96,5.19-5.51,8.2c-3.3,6.43-6.72,13.18-13.5,16.39c-2.46,1.17-4.22,2.99-6.35,4.61
				c-2.38,1.8-4.88,3.8-6.7,6.21c-1.99,2.64-2.62,7-3.48,10.14c-0.66,2.38-0.36,4.75,0.43,7.08c1.08,3.19,3.55,5.87,3.73,9.26
				c0.07,1.22,0.17,2.71,0,3.91c-0.24,1.63-0.62,1.8-2.37,1.56c-0.16-0.02-0.31-0.05-0.46-0.08c0.1,0.09,0.2,0.17,0.29,0.26
				c1.53,1.54,3.14,2.57,4.67,3.9c1.59,1.37,3.19,2.84,4.85,4.11c0.41,0.31,1,0.22,1.38,0.52c0.46,0.37,0.76,1.04,1.27,1.43
				c1.1,0.86,2.39,0.96,3.64,1.53c2.21,1,4.42,0.78,6.97,0.78c1.24,0,2.68,0.18,3.91,0.02c1.49-0.19,2.25-0.81,3.88-0.79
				c2.49,0.02,4.52,0.79,7,0.78c1.23-0.01,2.69-0.24,3.89-0.04c1.61,0.27,3.83,1.62,5.28,2.37c2.83,1.47,5.53,2.2,8.57,3.12
				c3.62,1.1,7.11,2.59,10.68,3.79c1.33,0.45,2.33,0.88,3.51,1.65c1.52,0.99,3.11,1.32,4.71,2.12c0.92,0.46,2.34,2.25,3.25,2.43
				c1.32,0.27,2.92-1.1,4.54-0.7c1.43,0.35,2.88,1.34,4.33,1.34c-1.22-1.2-2.5-2.35-3.85-3.48c1.35,1.13,2.63,2.28,3.85,3.48
				c0.62,0,1.25-0.18,1.88-0.68C331.78,722.44,332.26,721.59,332.09,720.34z"/>
			<path class="st3" d="M449.16,696.09c3.74-4.43,5.25-10.07,9.26-14.29c4-4.21,8.67-7.43,13.06-11.15
				c1.85-1.57,3.02-2.48,5.45-2.49c2.43-0.01,4.82,0.25,7.18-0.41c2.15-0.6,3.94-1.85,6.15-2.33c2.09-0.46,4.21-0.11,6.24-0.76
				c2.87-0.93,5.26-3.09,8.01-4.3c2.43-1.07,5.05-1.84,7.35-3.21c2.33-1.38,4.23-3.53,6.85-4.4c1.66-0.54,3.42-0.81,5.08-1.36
				c5.59-1.83,9.69-5.5,14.48-8.67c3.06-2.03,5.94-4.13,8.87-6.33c2.53-1.9,4.43-2.43,7.5-2.44c4.11-0.01,7.95-2,11.94-2.75
				c4.19-0.79,8.29,0.46,12.5,0.26c4.16-0.2,8.41-0.5,12.57-0.8c4.46-0.32,9.13-1.85,13.62-1.37c4.39,0.47,8.72,4.18,13.17,2.73
				c2.01-0.65,3.82-2.48,5.25-4c2.64-2.8,4.73-7,7.97-9.09c2.86-1.85,5.93-2.18,8.86-3.6c1.84-0.89,3.83-2.47,5.48-3.64
				c2.21-1.58,3.38-3.92,5.4-5.72c1.88-1.69,3.63-2.7,5.12-4.76c2.04-2.83,5.79-4,8.94-5.44c5.71-2.62,7.09-7.53,10.52-12.46
				c1.84-2.65,4.52-4.46,7.52-5.42c-0.23-0.52-0.53-0.98-0.97-1.27c0.44,0.29,0.74,0.76,0.97,1.27c1.41-0.45,2.89-0.74,4.39-0.81
				c3.2-0.14,7,1.07,9.51-1.33c1.75-1.68,2.11-4.7,2.32-7.12c0.21-2.47,0.14-4.69,0.93-7.1c0.68-2.09,1.6-4.04,2-6.23
				c0.52-2.82,0.89-8.64-2.61-9.4c-2.79-0.6-7.68-0.16-10.45,0.26c-4.83,0.74-10.47-0.02-14.75-2.59c-2.57-1.54-4.26-2.93-7.11-3.84
				c-1.84-0.59-3.82-1.51-5.35-2.76c-3.01-2.46-5.45-7.64-5.54-11.48c-0.14-6.06,1.58-12.15,2.66-18.09
				c0.66-3.67,1.36-7.57,1.3-11.31c-0.03-1.96-0.57-3.47-0.85-5.36c-0.36-2.38,0.34-4.87,0.63-7.2c0.37-3.03,0.41-5.96,1.15-8.94
				c0.99-4.04,3.2-8.39,0.81-12.11c-2.67-4.15-8.19-4.17-12.31-6.23c-3.19-1.6-5.25-2.36-8.85-2.18c-1.8,0.09-3.4,0.69-5.16,0.84
				c-0.86,0.08-1.78-0.2-2.63-0.08c-1.98,0.26-3.77,1.52-5.53,2.39c-3.87,1.92-7.1,3.79-11.27,5.06c-3.53,1.07-6.95,1.2-10.52,1.89
				c-3.79,0.73-6.09-2.6-7.99-5.39c-0.82-1.2-1.55-1.96-1.35-3.47c0.21-1.57,1.36-4.02,2.01-5.49c2.02-4.54,4.31-9.09,6.59-13.53
				c0.69-1.34,1.26-2.25,2.44-3.2c2.18-1.75,4.05-3.43,6.07-5.45c4.53-4.54,8.96-9.03,13.12-13.91c1.76-2.07,5.35-4.86,4.66-7.9
				c-0.66-2.93-4.41-3.39-5.73-5.81c-0.48-0.89-0.62-1.85-1.12-2.75c-0.71-1.29-1.42-2.23-2.63-3.07
				c-3.25-2.26-7.42-4.37-11.41-4.71c-3.27-0.28-7.58-1.29-10.37-3.09c-2.57-1.66-4.91-3.05-7.58-4.48
				c-2.14-1.14-3.61-3.56-5.8-4.82c-2.81-1.62-6.24-3.35-7.61-6.45c-1-2.27-1.74-5.23-2.17-7.63c-0.35-1.99-0.06-4.52,0.99-6.23
				c1.24-1.99,2.8-3.05,4.32-4.63c1.9-1.98,3.12-5.05,3.28-7.67c0.16-2.64,1.43-5.29,2.12-7.9c0.88-3.31,2.26-6.65,3.71-9.75
				c1.33-2.85,3.12-6.02,3.57-9.14c0.45-3.17-0.65-6.42-3.36-8.22c-1.18-0.78-2.97-0.75-3.64-2.18c-0.86-1.84,0.65-5.64,1.27-7.34
				c0.58-1.61,1.59-3.02,2.4-4.51c0.72-1.33,1.41-1.64,2.35-2.66c2.65-2.89,2.66-6.45,1.54-9.78c-0.23-0.67-1.15-1.48-1.32-2.19
				c-0.21-0.88-0.01-1.75-0.24-2.66c-0.54-2.12-0.61-3.95-0.61-6.23c0-4.82-0.57-10.01-0.04-14.79c0.24-2.17,0.84-4.01,0.82-6.24
				c-0.01-1.3,0-2.6,0-3.89c0-1.94,0-3.88,0-5.82c0-4.07,0.15-7.97-0.85-11.67c-0.51-1.87-0.92-3.73-1.28-5.63
				c-0.8,0.74-1.63,1.46-2.5,2.19c-3.47,2.92-6.8,5.9-10.97,7.71c-3.41,1.48-7.32,5.44-8.66,8.87c-0.38,0.97-0.48,2.18-0.99,3.09
				c-1.49,2.65-6.07,4.48-8.66,5.83c-4.08,2.12-6.74,3.6-9.76,7.05c-3.05,3.49-6.34,6.72-8.39,10.96c-1.74,3.61-3.1,7.45-4.77,11.11
				c-1.18,2.6-2.04,6.01-3.81,8.29c-3.19,4.09-8.14,6.99-11.99,10.49c-2.87,2.61-6.02,4.75-9.13,7.06
				c-3.05,2.26-5.42,5.28-8.49,7.49c-4.64,3.34-10.22,5.62-15.74,6.98c-5.22,1.29-12.58,1.44-16.29,5.88
				c-2.22,2.66-0.85,6.62-0.26,9.68c0.78,4.09,1.02,8.26,1.88,12.33c0.5,2.37,1.74,6.39,0.66,8.78c-0.48,1.06-2.09,2.1-2.95,2.79
				c-2.41,1.93-5.22,4.48-7.95,5.84c-8.12,4.04-24.96,7.29-24.08,19.25c0.33,4.47,1.87,7.65-1.89,11.23
				c-1.78,1.69-4.25,2.36-5.74,4.48c-1.33,1.89-2.19,4.44-2.7,6.68c-0.72,3.18-0.52,6.44-0.51,9.67c0,0.96,0.31,2.88,0.18,4.2
				c1.06,0.4,2.37,0.94,2.78,1.29c0.75,0.65,0.89,1.88,1.68,2.6c1.84,1.67,4.57,2.76,6.66,3.86c3.08,1.61,3.36,6.8,4.27,9.83
				c1.14,3.78,2.39,9.28,1.43,13.19c-1.11,4.54-5.09,7.61-6.45,12.01c-1.61,5.24-0.86,10.6-1.79,15.92c-0.51,2.9-0.63,5.79-1.76,8.5
				c-0.73,1.75-1.24,2.81-1.12,4.84c0.13,2.12,0.42,3.21,1.88,4.66c1.28,1.27,2.31,1.25,3.73,2.22c1.56,1.07,2.51,3.74,3.34,5.39
				c0.75,1.49,0.5,2.47,0.8,4.07c0.27,1.46,0.94,2.48,0.74,4.04c-0.19,1.48-0.62,2.77-0.78,4.26c-0.46,4.12-4.36,6.06-7.34,8.38
				c-4.14,3.23-4.4,8.41-5.93,13.1c-0.76,2.35-1.16,3.57-2.85,5.37c-2.26,2.41-4.48,4.13-7.14,6.11
				c-4.85,3.62-9.91,6.43-14.13,10.81c-4.35,4.52-9.03,8.74-13.2,13.43c-2.35,2.64-4.88,5.06-7.08,7.84
				c-2.01,2.55-3.9,5.43-6.23,7.69c-1.95,1.89-3.73,2.89-5.43,5.1c-1.78,2.31-3.36,4.7-4.71,7.3c-2.33,4.48-4.01,9.41-7.57,13.08
				c-1.31,1.35-5.85,4.2-4.1,6.12c-5.23,3.51-11.79,5.55-16.68,9.56c-1.15,0.95-1.79,1.84-2.54,3.1c-1.18,2-2.38,3.78-2.6,6.21
				c-0.23,2.49,0.88,4.79,0.87,7.26c-0.01,1.95-0.48,4.99-1.75,6.64c-0.64,0.83-1.4,1.01-2.03,1.83c-0.6,0.79-0.93,3-1.14,3.91
				c-0.76,3.22-0.58,6.41-0.56,9.69c0.02,3.29-0.64,6.03-1.37,9.21c-0.93,4.03-0.73,7.48-0.93,11.52c-0.15,3.07-0.8,5.89-0.81,8.99
				c-0.01,2.49,0.47,4.71,0.77,7.18c0.28,2.28,0.52,4.75,0.95,6.99c0.35,1.8,1,3.76,1.23,5.47c0.17,1.25-0.31,2.1-1.38,2.94
				c-0.63,0.5-1.25,0.68-1.88,0.68c0.91,0.89,1.78,1.82,2.61,2.81c2.54,3.03,5.84,5.41,9.36,7.18c3.24,1.63,6.7,2.31,10.28,2.76
				c2.87,0.36,5.92-0.45,8.8-0.07c4.64,0.61,9.41,1.86,14.16,2.31c5.76,0.55,10.41-2.35,15.72-4.07c1.48-0.48,2.55-0.39,4.1-0.67
				c2.78-0.51,5.37-2,7.75-3.44c3.48-2.11,7.49-3.76,10.5-6.55c1.87-1.73,3.47-3.24,5.59-4.67c3.38-2.29,7.18-4.34,10.3-6.97
				c3.65-3.08,7.36-5.65,11.53-8c2.17-1.23,4.32-2.96,6.27-4.51c-0.31-0.51-0.61-1.01-0.86-1.49c0.25,0.49,0.55,0.98,0.86,1.49
				c0,0,0.01,0,0.01-0.01C447.21,698.95,448.01,697.46,449.16,696.09z"/>
			<path class="st3" d="M98.67,689.56c0.5-0.39,1.67-1.04,2.32-1.19c0.74-0.17,1.63,0.16,2.39,0.06c0.75-0.1,1.13-0.46,1.71-0.62
				c1.19-0.34,2.46-0.16,3.72-0.17c1.06-0.01,1.74,0.44,2.51,0.6c2.25,0.48,6.08,0.64,8.39,0.21c2.54-0.47,5.18-1.48,7.76-1.62
				c1.68-0.09,2.55-0.53,4.06-0.8c1.49-0.27,3.39,0.05,4.91,0.04c4.56-0.02,8.89,2.2,12.96,4.09c6.71,3.11,14.55,2.82,21.47,5.04
				c4.51,1.45,9.52,2.49,14.26,2.57c2.4,0.04,4.46,0.13,6.77,0.75c2.71,0.73,4.5,0.39,7.22-0.19c3.02-0.64,6.27-1.39,9.35-1.36
				c4.15,0.03,8.09-0.1,12.03-0.76c1.38-0.23,2.46-1.04,3.73-1.42c1.21-0.37,2.44-0.01,3.68-0.33c2.31-0.6,6.2-1.34,8.64-0.65
				c1.24,0.35,1.65,0.65,3.05,0.8c1.08,0.11,1.67,0.52,2.61,0.73c-1.35-1.22-3.16-2.01-4.17-3.49c-0.17,0.29-0.43,0.44-0.8,0.45
				c0.37-0.01,0.63-0.16,0.8-0.45c1.01,1.48,2.82,2.27,4.17,3.49c0.14,0.03,0.3,0.06,0.46,0.08c1.76,0.24,2.13,0.07,2.37-1.56
				c0.18-1.19,0.07-2.69,0-3.91c-0.19-3.4-2.66-6.07-3.73-9.26c-0.79-2.34-1.09-4.71-0.43-7.08c0.87-3.13,1.49-7.5,3.48-10.14
				c1.82-2.41,4.32-4.41,6.7-6.21c2.13-1.62,3.9-3.44,6.35-4.61c6.77-3.21,10.2-9.96,13.5-16.39c1.55-3.02,2.87-5.93,5.51-8.2
				c1.16-1,2.43-1.62,3.62-2.64c3.28-2.83,4.55-7.12,3.95-11.37c-0.56-3.92-3.31-7.45-5.49-10.64c-1.68-2.45-2.64-5.26-4.67-7.54
				c-0.66-0.74-1.45-1-2.16-1.65c-1.04-0.94-1.72-2.11-2.66-3.14c-3.94-4.28-9.28-6.47-13.82-9.88c-4.7-3.53-10.44-4.51-14.68-8.94
				c-4.13-4.33-6.16-10.15-7.56-15.84c-0.98-3.99-2.22-7.61,0.36-11.23c3.41-4.79,5.04-10.7,8.29-15.67
				c3.57-5.45,6.86-11.25,10.93-16.36c1.52-1.91,3.34-3.56,4.86-5.47c1.08-1.36,1.89-2.87,3.36-3.86c2.52-1.69,5.22-1.98,6.02-5.39
				c0.37-1.58,1.22-3.76,0.88-5.43c-0.19-0.94-0.71-1.58-1.21-2.39c-1.75-2.84-3.25-5.57-5.61-7.99c-1.35-1.39-2.85-2.6-4.27-3.92
				c-2.93-2.72-4.97-5.78-7.52-8.81c-5.88-7-13.26-13.23-21.35-17.38c-5.64-2.89-8.94-7.96-13.62-11.88
				c-1.26-1.06-2.72-1.82-4.06-2.91c-1.65-1.33-2.34-2.33-3.14-4.32c-0.7-1.74-0.8-3.53-0.8-5.33c-3.17-0.38-6.18-1.12-9.49-2.05
				c-5.44-1.52-10.35-2.39-15.25-5.29c-1.27-0.75-2.71-1.16-3.94-1.92c-0.38-0.23-0.57-1.03-0.95-1.19
				c-2.11-0.93-8.59-0.36-10.37,1.19c-0.79,0.68-1.35,2.05-1.98,2.9c-0.98,1.32-2.04,2.98-3.15,4.17c-0.73,0.77-1.7,1.25-2.38,2.06
				c-1.16,1.41-1.59,3.36-2.47,4.91c-1.48,2.6-3.19,4.82-4.49,7.57c-1.49,3.14-2.21,6.21-3.33,9.46c-1.26,3.64-4.06,7.72-6.69,10.54
				c-3.68,3.94-9.03,6.06-13.31,9.17c-4.09,2.98-7.61,7.64-10.69,11.64c-2.76,3.58-5.07,7.11-8.23,10.37
				c-1.49,1.54-2.28,3.46-3.68,4.97c-0.4,0.43-0.88,0.8-1.37,1.16l0,0c-0.66,0.49-1.36,0.95-1.95,1.47
				c-2.54,2.22-5.04,4.37-7.99,6.09c-2.13,1.24-4.31,1.55-6.6,2.26c-2.33,0.72-4.07,2.43-6.16,3.73c-2.36,1.47-4.18,3.73-6.15,5.69
				c-2.5,2.49-4.52,5.92-7.31,7.99c-2.28,1.69-5.14,1.97-7.52,3.23c-2.09,1.11-4.49,3.42-5.62,5.49c-0.91,1.65-1.76,2.86-2.47,4.44
				c-0.7,1.58-0.61,2.9-0.59,4.63c0.03,2.45-0.72,4.51-0.79,6.89c-0.11,3.73,0.02,7.48,0.02,11.21c0,3.32-0.79,7.64-0.04,10.84
				c0.32,1.37,0.94,2.74,1.4,4.03c1.11,3.14,2.78,6.07,4.86,8.54c2.11,2.5,3.97,4.16,4.69,7.61c0.73,3.51,1.12,7.05,1.5,10.69
				c0.39,3.76,2.99,6.17,5.49,8.59c2.1,2.04,4.69,2.37,4.67,5.63c-0.02,3.02-1,5.16-2.33,7.79c-1.45,2.86-2.75,5.76-4.5,8.56
				c-1.69,2.71-2.54,6.3-3.48,9.34c-1.06,3.41-2.53,6.71-3.53,10.16c-1.48,5.11-5.18,9.98-8.74,13.98c-1.06,1.2-2.72,3.08-3.15,4.63
				c-0.34,1.22,0.18,2.66-0.14,3.93c-0.23,0.91-0.57,1.58-0.91,2.29c2.86,2.11,5.36,5.36,6.44,8.63c0.48,1.46,0.7,2.81,1.75,3.99
				c0.94,1.05,2.24,2.71,3.5,3.38c1.33,0.71,2.78,0.79,4.23,0.94c2.07,0.22,4.29,1.02,6.1,2.04c0.76,0.43,1.32,0.75,2.15,1.02
				c1.27,0.43,2.51,1.21,3.82,1.48c3.07,0.63,6.61,0.06,9.74,0.08c1.82,0.01,3.49-0.31,5.26-0.65c0.59-0.11,1.17-0.17,1.74-0.22
				c0.49-1.67,2.12-3.7,3.26-4.91C96.14,692.06,97.36,690.58,98.67,689.56z"/>
			<path class="st3" d="M231.05,41.07c5.78,2.62,11.23,6.73,17.11,9.34c3.01,1.33,5.72,3.13,8.57,4.46
				c3.37,1.56,6.98,3.32,10.12,5.47c3.61,2.47,6.72,4.79,10.9,5.86c1.73,0.44,3.82-0.36,5.49,0.14c1.32,0.39,1.8,1.98,2.3,3.11
				c1.2,2.69,1.32,5.89,2.93,8.26c0.26-0.35,0.58-0.77,1-1.31c-0.41,0.54-0.74,0.96-1,1.31c0.59,0.88,1.38,1.64,2.51,2.22
				c3.94,2.03,9.05,6.28,10.07,10.97c0.49,2.28,0.5,4.02,1.61,6.24c1.02,2.02,2.28,3.14,4.27,4.26c3.6,2.04,6.54,4.47,8.53,8.15
				c0.54,0.99,0.89,1.84,1.2,2.91c0.52,1.84,1.67,3.32,2.22,5.16c0.8,2.66,2.14,4.1,4.32,5.97c3.06,2.63,4.47,4.77,6.11,8.37
				c3.2,7.06,6.03,14.36,9.34,21.36c2.46,5.21,6.54,9.72,8.62,15.06c0.65,1.67,1.35,2.84,1.32,4.64c-0.02,1.85,0.27,3.96-0.06,5.77
				c-1.2,6.51-4,13.46-8.8,18.06c-2.07,1.99-4.67,3.73-6.65,5.78c-2.17,2.26-3.34,5.22-4.33,8.08c-1.39,4.04-0.59,7.67-1.26,11.77
				c-0.67,4.11-1.28,8.87-3.03,12.69c-1.23,2.69-2.37,5.32-4.27,7.51c-3.32,3.83-4.94,9.05-7,13.56c-1.87,4.11-3.54,8.46-5.88,12.35
				c-2.3,3.81-4.29,7.38-2.42,11.91c1,2.43,2.66,3.54,4.68,5.01c1.9,1.38,3.36,3.11,4.63,5.12c1.4,2.22,2.23,4.13,2.84,6.55
				c0.69,2.71-0.03,5.5,0.33,8.28c0.02,0.17,0.05,0.32,0.08,0.46c0.49-0.39,0.96-0.8,1.36-1.31c-0.4,0.51-0.87,0.93-1.36,1.31
				c0.26,1.33,0.76,1.42,1.95,2.22c1.86,1.25,3.34,2.46,4.68,4.27c0.76,1.03,1.86,1.95,2.52,3.03c0.73,1.2,1.04,2.74,1.73,3.99
				c2.2,4.01,3.26,8.35,5.13,12.52c1.05,2.32,2,4.4,2.69,6.83c0.32,1.13,0.75,2.1,1.22,3.22c2.33,5.49,1.49,11.24,2.43,17.01
				c0.57,3.53,1.3,7.16,2.55,10.52c0.53,1.43,1.14,6.24,2.28,6.76c0.5,0.23,1.76-0.07,2.33-0.07c1.82,0.01,2.74,0.54,4.4,1.12
				c3.67,1.27,7.48,0.08,11.2,1.92c3.58,1.76,4.85,5.38,6.25,8.78c0.81,1.97,1.02,4.09,1.57,6.15c0.61,2.29,1.18,4.48,0.59,6.84
				c-0.49,1.97-0.6,3.44-0.6,5.53c0,2.7-0.8,6.13,1.1,8.21c2.31,2.53,5.47,3.64,8.66,4.48c1.66,0.43,3.14,1.26,4.77,1.72
				c2.54,0.72,4.8-0.3,7.35-0.4c4.7-0.18,8.81,1.61,13.2,3.15c2.29,0.8,4.46,1.99,6.88,2.31c2.46,0.33,5.12,0.02,7.61,0.04
				c2.86,0.02,7.44-0.22,8.83-3.45c0.1-0.23,0.15-0.52,0.18-0.84l0,0c0.14-1.32-0.17-3.24-0.18-4.2c-0.01-3.23-0.21-6.49,0.51-9.67
				c0.51-2.23,1.37-4.79,2.7-6.68c1.49-2.12,3.96-2.78,5.74-4.48c3.76-3.58,2.22-6.76,1.89-11.23
				c-0.87-11.97,15.97-15.22,24.08-19.25c2.72-1.35,5.54-3.91,7.95-5.84c0.86-0.69,2.48-1.73,2.95-2.79
				c1.08-2.39-0.15-6.41-0.66-8.78c-0.87-4.07-1.1-8.24-1.88-12.33c-0.58-3.06-1.96-7.02,0.26-9.68c3.71-4.44,11.07-4.59,16.29-5.88
				c5.52-1.36,11.1-3.64,15.74-6.98c3.06-2.2,5.43-5.22,8.49-7.49c3.11-2.31,6.26-4.45,9.13-7.06c3.84-3.49,8.8-6.39,11.99-10.49
				c1.78-2.28,2.63-5.69,3.81-8.29c1.67-3.66,3.02-7.5,4.77-11.11c2.05-4.24,5.33-7.47,8.39-10.96c3.02-3.46,5.68-4.93,9.76-7.05
				c2.58-1.34,7.17-3.18,8.66-5.83c0.51-0.91,0.61-2.12,0.99-3.09c1.34-3.44,5.24-7.39,8.66-8.87c4.17-1.81,7.51-4.79,10.97-7.71
				c0.87-0.73,1.7-1.45,2.5-2.19c-0.06-0.34-0.14-0.67-0.2-1.02c0.06,0.34,0.14,0.68,0.2,1.02c2.09-1.93,3.91-3.98,5.27-6.65
				c0.8-1.57,1.65-3.39,2.28-5.21c-0.65,0.26-2.37,0.91-2.98,0.6c0.52-1.2,0.51-1.9,0.75-3.34c0.15-0.88,0.66-1.62,0.76-2.54
				c0.08-0.74-0.23-1.65-0.09-2.4c0.32-1.74,0.84-2.99,0.82-4.86c-0.01-1.34,0.05-2.69,0.02-4.03c-0.04-2.07-0.59-4.01-0.77-6.1
				c-0.15-1.72-0.56-3.76-0.97-5.45c-0.68-2.76-2.38-6.24-4.09-8.55c-1.67-2.26-3.88-4.22-5.39-6.65c-1.67-2.68-3.04-5.89-4.16-8.88
				c-1.67-4.5-2.52-8.74-0.8-13.18c0.62-1.6,1.25-3.05,1.4-4.73c0.14-1.5,0.01-2.78,0.37-4.28c0.58-2.41,0.39-4.89,0.39-7.38
				c0-2.47,0.32-5.08-0.59-7.22c-0.78-1.82-1.68-2.43-3.33-3.51c-2.24-1.47-3.46-1.75-6.21-1.75c-2.56,0-5.06,0.34-7.42-0.68
				c-2.08-0.9-3.82-1.68-6.2-1.65c-2.21,0.02-4.41,0-6.62,0c-2.25,0-4.83-0.35-7,0.18c-1.74,0.42-7.89,1.5-11.1,1.99
				c-0.14,1.44-0.22,2.9-0.2,4.38c0.04,3.27,0.83,13.54-3.48,14.19c-1.85,0.28-3.77-1.12-5.6-1.33c-1.74-0.21-3.83-0.16-5.43,0.52
				c-1.33,0.56-2.94,2.56-4.44,2.97c-1.54,0.42-3.15-0.51-4.61-0.81c-4.99-1.03-11.61-0.56-16.35,1.13
				c-3.34,1.19-5.93,3.94-9.22,5.36c-5.09,2.19-10.92,3.26-16.32,2.04c-2.9-0.66-5.99-1.37-8.7-2.54c-3.84-1.67-5.32-1.58-8.9,0.15
				c-6.5,3.13-14.47,10.96-21.96,6.51c-7.19-4.27-14.42-9.61-17.71-17.65c-2.34-5.73-2.91-13.72-3.3-19.79
				c-0.15-2.35,0.44-3.93-2.33-3.36c-1.04,0.21-2.44,1.73-3.46,2.22c-2.15,1.02-4.65,1.29-6.95,1.77c-2.52,0.52-5.1,0.82-7.69,0.58
				c-3.3-0.31-5.51-1.89-7.43-4.64c-2.62-3.75-3.84-6.44-7.93-8.84c-7.11-4.18-13.78-9.05-21.4-12.2
				c-3.54-1.46-7.21-2.85-10.57-4.68c-1.95-1.06-3.82-2.33-5.83-3.28c-2.98-1.41-6.92-2.14-9.34-4.59
				c-5.13-5.19-0.5-13.44-3.52-19.57c-1.11-2.25-2.94-4.21-4.16-6.49c-1.57-2.94-2.75-5.89-5.73-7.68c-3.36-2.02-5.9-0.55-9.54,0.14
				c-4.18,0.79-8.3,0.82-12.18-1.13c-2.71-1.36-5.61-3.54-7.85-5.59c-2.64-2.41-4.36-5.13-8.24-4.35c-4.82,0.96-8.5,6.27-13.2,6.96
				c-3.4,0.5-7.8-3.2-10.48-5c-3.6-2.41-6.72-5.19-9.33-8.66c-2.93-3.89-3.38-9.96-6.73-13.34c-1.97,0.15-3.64,1.01-5.03,2.57
				c-2.54,1.73-5.06,3.49-7.56,5.28c-2.23,3.61,0.43,9.04-0.79,13.06c-0.69,2.27-1.56,3.66-2.81,4.2c0.63,0.58,1.32,1.08,1.98,1.48
				C225.16,39.18,228.14,39.75,231.05,41.07z"/>
		</g>
		<path id="AZGOY" class="st3" d="M323.83,421.3l6.28-3.52c1.68-0.84,3.35-1.69,5.03-2.53c4.39-10.15,6.41-11.99,7.45-11.74
			c1.26,0.31,0.88,3.69,3.29,8.16c1.51,2.8,3.4,4.71,4.73,5.87c3.19-0.18,6.38-0.35,9.57-0.53l4.29,1.43l4.29-0.33l8.59,0.99
			l8.7,2.86c3.02-0.5,6.03-1.01,9.05-1.51c4.39,1.45,8.77,2.9,13.16,4.35c-3.36,5.33-6.73,10.66-10.09,15.99
			c-0.37,0.61-0.88,1.64-0.96,2.96c-0.2,3.14,2.25,4.76,1.63,6.07c-0.65,1.37-3.76,0.63-7.54,0.99c-4.06,0.39-7.31,1.9-9.55,3.25
			c-1.46,3.21-2.92,6.42-4.38,9.64l-6.28-2.97c-2.24,0.6-4.48,1.19-6.72,1.79c-1.61-2.58-3.23-5.15-4.84-7.73l-3.52-0.33l-2.86,2.42
			l-3.41,1.76l-4.07-1.76l-4.18-3.41l-4.51-2.53l-3.63,1.21l-3.41,1.21l-3.63-2.86l-2.86-3.41l0.66-7.49l2.09-6.83l2.09-2.2
			l0.66-2.53l-2.31-3.3L323.83,421.3z"/>
		<path id="AZUCA" class="st3" d="M610.24,609.24l-0.61,6.4l-0.99,6.17l-2.29,4.19l-2.97,3.2l-6.71,0.46l-6.63,1.07
			c-2.08,0.15-4.17,0.3-6.25,0.45c-3.83,0.15-7.66,0.31-11.49,0.46c-0.72-0.58-1.43-1.17-2.15-1.75l-1.91-2.97l-6.71-5.11
			l-6.86-4.65l-1.83-3.58l-3.28-1.91l-1.75-3.89l0.84-4.57l0.99-5.64l3.43-2.36l4.5-0.46l4.57,1.45l1.98,2.36l2.51,1.98l2.36-0.84
			l2.51-0.84l3.12,1.75l2.9,2.36l2.82,1.22l2.36-1.22l1.98-1.68l2.44,0.23l3.96,2.06l4.04,2.06l4.34,2.06l4.65,0.61l3.05-0.38
			C608.2,608.37,609.22,608.81,610.24,609.24z"/>
		<path id="AZNA" class="st3" d="M341.26,546.9l-8.19-3.39l-4.91-4.41l5.73-2.71l6.55-3.73l8.19-2.71l9.82,3.39l6.55,3.05l0.82,3.05
			l-1.64,3.39l-11.46,3.73L341.26,546.9L341.26,546.9z"/>
	</g>
	<g>
		<path class="st1" d="M400.89,235.99c0,0.08-0.01,0.19-0.02,0.33c-0.02,0.14-0.04,0.3-0.07,0.48c-0.03,0.17-0.06,0.35-0.11,0.53
			c-0.04,0.18-0.1,0.34-0.16,0.49s-0.13,0.27-0.21,0.37c-0.08,0.1-0.16,0.15-0.25,0.15c-0.14,0-0.31-0.06-0.51-0.18
			c-0.2-0.12-0.45-0.25-0.75-0.39c-0.29-0.14-0.64-0.27-1.04-0.39c-0.39-0.12-0.84-0.18-1.35-0.18c-0.52,0-0.96,0.07-1.33,0.22
			c-0.36,0.14-0.66,0.33-0.89,0.57s-0.4,0.5-0.51,0.8c-0.11,0.29-0.17,0.59-0.17,0.89c0,0.35,0.09,0.65,0.26,0.92
			s0.41,0.51,0.7,0.74c0.29,0.23,0.62,0.45,0.99,0.66c0.37,0.21,0.75,0.43,1.13,0.66c0.38,0.23,0.76,0.49,1.13,0.76
			c0.37,0.27,0.7,0.59,0.99,0.96c0.29,0.36,0.52,0.78,0.7,1.25c0.17,0.47,0.26,1.01,0.26,1.61c0,0.91-0.18,1.75-0.55,2.53
			c-0.37,0.78-0.89,1.45-1.56,2.03c-0.67,0.58-1.48,1.03-2.43,1.35c-0.95,0.33-2.01,0.49-3.17,0.49c-0.63,0-1.21-0.05-1.74-0.15
			c-0.53-0.1-1-0.23-1.41-0.37c-0.41-0.15-0.76-0.3-1.04-0.46c-0.28-0.16-0.49-0.31-0.62-0.46c-0.13-0.14-0.2-0.36-0.2-0.65
			c0-0.08,0.01-0.19,0.03-0.35c0.02-0.16,0.05-0.32,0.08-0.5c0.03-0.18,0.08-0.36,0.12-0.55c0.05-0.19,0.1-0.36,0.17-0.51
			c0.07-0.16,0.14-0.28,0.22-0.38c0.08-0.1,0.17-0.14,0.27-0.14c0.16,0,0.36,0.07,0.59,0.22s0.51,0.31,0.85,0.49
			c0.34,0.18,0.74,0.35,1.2,0.5c0.46,0.15,1.02,0.23,1.67,0.23c0.57,0,1.07-0.07,1.5-0.22c0.43-0.14,0.79-0.34,1.08-0.59
			c0.29-0.25,0.51-0.54,0.66-0.88c0.15-0.33,0.22-0.7,0.22-1.09c0-0.36-0.08-0.67-0.26-0.94s-0.4-0.52-0.69-0.75
			c-0.29-0.23-0.61-0.44-0.97-0.64c-0.36-0.2-0.73-0.42-1.11-0.65s-0.75-0.48-1.11-0.75c-0.36-0.27-0.69-0.59-0.97-0.95
			c-0.29-0.36-0.51-0.78-0.69-1.25c-0.17-0.47-0.26-1.02-0.26-1.65c0-0.87,0.17-1.67,0.52-2.41c0.35-0.73,0.83-1.36,1.45-1.89
			c0.62-0.53,1.36-0.94,2.22-1.23c0.86-0.29,1.81-0.44,2.84-0.44c0.48,0,0.94,0.04,1.38,0.11c0.43,0.07,0.83,0.16,1.19,0.28
			c0.36,0.11,0.66,0.23,0.91,0.37c0.25,0.13,0.43,0.25,0.52,0.34c0.1,0.09,0.17,0.19,0.21,0.29
			C400.87,235.71,400.89,235.83,400.89,235.99z"/>
		<path class="st1" d="M413.38,252.83c-0.04,0.2-0.19,0.35-0.46,0.43c-0.27,0.09-0.69,0.13-1.28,0.13c-0.3,0-0.54-0.01-0.73-0.03
			c-0.19-0.02-0.34-0.05-0.46-0.09c-0.12-0.04-0.19-0.1-0.23-0.17c-0.03-0.07-0.04-0.16-0.02-0.27l0.41-2.07
			c-0.14,0.31-0.37,0.64-0.7,0.98c-0.32,0.34-0.7,0.65-1.13,0.93c-0.44,0.28-0.92,0.51-1.44,0.7s-1.07,0.28-1.63,0.28
			c-0.77,0-1.42-0.14-1.93-0.41c-0.51-0.27-0.92-0.64-1.23-1.09c-0.31-0.46-0.53-0.98-0.66-1.57c-0.13-0.59-0.2-1.21-0.2-1.85
			c0-0.61,0.06-1.27,0.17-1.99s0.29-1.44,0.54-2.15c0.24-0.71,0.55-1.4,0.93-2.06c0.37-0.66,0.83-1.25,1.35-1.76
			c0.53-0.51,1.13-0.92,1.81-1.22c0.68-0.3,1.45-0.46,2.31-0.46c0.8,0,1.51,0.17,2.13,0.5c0.62,0.33,1.16,0.82,1.62,1.46l0.23-1.15
			c0.04-0.2,0.19-0.35,0.46-0.43c0.27-0.09,0.69-0.13,1.28-0.13c0.29,0,0.53,0.01,0.72,0.04c0.19,0.02,0.35,0.06,0.46,0.1
			c0.11,0.04,0.19,0.1,0.22,0.17c0.04,0.07,0.05,0.16,0.03,0.25L413.38,252.83z M411.58,243.75c-0.34-0.53-0.71-0.93-1.12-1.19
			c-0.41-0.27-0.88-0.4-1.43-0.4c-0.41,0-0.78,0.1-1.11,0.29c-0.34,0.19-0.64,0.45-0.9,0.77c-0.26,0.32-0.49,0.7-0.69,1.12
			c-0.2,0.43-0.36,0.87-0.49,1.33c-0.13,0.46-0.23,0.92-0.29,1.39c-0.06,0.47-0.1,0.9-0.1,1.3c0,0.29,0.02,0.56,0.07,0.82
			c0.04,0.26,0.12,0.49,0.24,0.7s0.27,0.37,0.46,0.49c0.19,0.12,0.44,0.18,0.74,0.18c0.43,0,0.86-0.13,1.31-0.38
			c0.44-0.26,0.86-0.6,1.24-1.04c0.39-0.44,0.73-0.95,1.02-1.54c0.29-0.58,0.51-1.21,0.64-1.88L411.58,243.75z"/>
		<path class="st1" d="M437.32,252.81c-0.02,0.1-0.07,0.18-0.14,0.25c-0.07,0.07-0.19,0.13-0.34,0.18
			c-0.15,0.05-0.35,0.08-0.59,0.11c-0.24,0.02-0.53,0.04-0.89,0.04c-0.35,0-0.64-0.01-0.87-0.04c-0.23-0.02-0.41-0.06-0.53-0.11
			c-0.13-0.05-0.21-0.11-0.25-0.18c-0.04-0.07-0.05-0.16-0.02-0.25l1.55-7.75c0.04-0.22,0.07-0.44,0.1-0.66
			c0.03-0.22,0.04-0.44,0.04-0.66c0-0.45-0.08-0.82-0.25-1.1s-0.47-0.42-0.91-0.42c-0.39,0-0.79,0.12-1.2,0.37
			c-0.41,0.25-0.81,0.59-1.19,1.02c-0.38,0.43-0.72,0.93-1.01,1.51s-0.51,1.19-0.63,1.83l-1.17,5.85c-0.02,0.1-0.06,0.18-0.14,0.25
			c-0.07,0.07-0.19,0.13-0.34,0.18c-0.15,0.05-0.35,0.08-0.59,0.11c-0.24,0.02-0.53,0.04-0.89,0.04c-0.35,0-0.64-0.01-0.86-0.04
			c-0.23-0.02-0.4-0.06-0.53-0.11s-0.21-0.11-0.25-0.18c-0.04-0.07-0.06-0.16-0.04-0.25l1.54-7.75c0.06-0.22,0.1-0.45,0.12-0.69
			c0.02-0.24,0.04-0.47,0.04-0.69c0-0.43-0.09-0.78-0.26-1.05c-0.17-0.28-0.47-0.41-0.9-0.41c-0.39,0-0.79,0.12-1.2,0.37
			c-0.41,0.25-0.81,0.59-1.19,1.02c-0.38,0.43-0.72,0.93-1.01,1.51s-0.51,1.19-0.63,1.83l-1.17,5.85c-0.02,0.1-0.07,0.18-0.14,0.25
			c-0.07,0.07-0.18,0.13-0.33,0.18c-0.15,0.05-0.35,0.08-0.59,0.11c-0.24,0.02-0.54,0.04-0.88,0.04c-0.36,0-0.65-0.01-0.88-0.04
			c-0.23-0.02-0.41-0.06-0.53-0.11c-0.13-0.05-0.22-0.11-0.25-0.18c-0.04-0.07-0.05-0.16-0.03-0.25l2.59-12.94
			c0.02-0.1,0.06-0.18,0.12-0.25c0.06-0.07,0.16-0.13,0.29-0.17c0.13-0.04,0.3-0.08,0.51-0.1c0.21-0.02,0.46-0.04,0.75-0.04
			c0.3,0,0.54,0.01,0.73,0.04c0.19,0.02,0.34,0.06,0.44,0.1c0.1,0.04,0.18,0.1,0.21,0.17c0.03,0.07,0.04,0.16,0.02,0.25l-0.42,2.13
			c0.2-0.34,0.47-0.68,0.81-1.04c0.34-0.35,0.72-0.67,1.15-0.95c0.43-0.28,0.9-0.51,1.4-0.69c0.51-0.18,1.03-0.27,1.57-0.27
			c0.56,0,1.05,0.08,1.46,0.23s0.75,0.36,1.01,0.62s0.47,0.58,0.61,0.93s0.23,0.74,0.27,1.16c0.22-0.35,0.5-0.7,0.85-1.04
			c0.34-0.35,0.73-0.66,1.16-0.94c0.43-0.28,0.9-0.51,1.4-0.69c0.5-0.18,1.02-0.27,1.55-0.27c0.68,0,1.24,0.1,1.7,0.28
			c0.46,0.19,0.83,0.45,1.11,0.78c0.28,0.33,0.48,0.72,0.61,1.17c0.12,0.45,0.19,0.93,0.19,1.46c0,0.34-0.02,0.68-0.06,1.02
			c-0.04,0.34-0.1,0.69-0.17,1.05L437.32,252.81z"/>
		<path class="st1" d="M452.88,252.83c-0.02,0.1-0.06,0.18-0.12,0.25c-0.06,0.07-0.16,0.13-0.29,0.17c-0.13,0.04-0.3,0.08-0.5,0.1
			c-0.2,0.02-0.45,0.04-0.75,0.04s-0.54-0.01-0.73-0.04c-0.19-0.02-0.34-0.06-0.44-0.1c-0.11-0.04-0.18-0.1-0.21-0.17
			c-0.03-0.07-0.04-0.16-0.01-0.25l0.39-2.1c-0.19,0.34-0.46,0.68-0.8,1.02s-0.73,0.66-1.17,0.94c-0.44,0.29-0.92,0.51-1.43,0.69
			c-0.51,0.17-1.04,0.26-1.58,0.26c-0.68,0-1.25-0.1-1.72-0.28c-0.47-0.19-0.84-0.45-1.13-0.77s-0.49-0.71-0.62-1.17
			c-0.13-0.45-0.19-0.95-0.19-1.48c0-0.33,0.02-0.66,0.06-1.01c0.04-0.34,0.1-0.69,0.17-1.05l1.59-8.01
			c0.02-0.1,0.07-0.18,0.14-0.25c0.07-0.07,0.18-0.13,0.33-0.17c0.15-0.04,0.35-0.08,0.59-0.1c0.24-0.02,0.54-0.04,0.88-0.04
			c0.36,0,0.65,0.01,0.88,0.04c0.23,0.02,0.4,0.06,0.53,0.1c0.12,0.04,0.21,0.1,0.25,0.17c0.04,0.07,0.06,0.16,0.04,0.25l-1.54,7.77
			c-0.05,0.21-0.08,0.44-0.11,0.67c-0.02,0.23-0.04,0.45-0.04,0.66c0,0.23,0.02,0.44,0.06,0.63c0.04,0.19,0.11,0.35,0.21,0.49
			c0.1,0.14,0.22,0.24,0.37,0.31c0.15,0.07,0.33,0.1,0.54,0.1c0.4,0,0.81-0.13,1.24-0.38c0.43-0.26,0.84-0.61,1.22-1.06
			c0.39-0.45,0.73-0.98,1.04-1.59c0.3-0.61,0.53-1.28,0.69-1.99l1.1-5.59c0.01-0.1,0.05-0.18,0.13-0.25
			c0.08-0.07,0.19-0.13,0.34-0.17c0.15-0.04,0.35-0.08,0.59-0.1c0.24-0.02,0.53-0.04,0.88-0.04c0.36,0,0.65,0.01,0.88,0.04
			c0.23,0.02,0.41,0.06,0.53,0.1c0.13,0.04,0.22,0.1,0.25,0.17c0.04,0.07,0.05,0.16,0.03,0.25L452.88,252.83z"/>
		<path class="st1" d="M465.52,246.12l2.32,6.43c0.05,0.16,0.06,0.3,0.03,0.41c-0.03,0.11-0.12,0.19-0.27,0.26
			c-0.15,0.07-0.37,0.11-0.64,0.14c-0.28,0.02-0.64,0.04-1.09,0.04c-0.41,0-0.72-0.01-0.96-0.03c-0.23-0.02-0.41-0.05-0.54-0.09
			c-0.12-0.04-0.21-0.09-0.25-0.16c-0.04-0.07-0.08-0.15-0.1-0.23l-1.56-4.56l-3.27,4.58c-0.06,0.09-0.12,0.16-0.2,0.23
			c-0.07,0.06-0.19,0.11-0.36,0.15c-0.17,0.04-0.39,0.07-0.67,0.09c-0.27,0.02-0.64,0.03-1.11,0.03c-0.41,0-0.75-0.01-1-0.04
			c-0.25-0.02-0.43-0.07-0.55-0.13s-0.17-0.14-0.15-0.25c0.02-0.1,0.08-0.23,0.18-0.4l4.91-6.43l-2.16-5.97
			c-0.06-0.17-0.08-0.32-0.06-0.43c0.02-0.11,0.09-0.2,0.22-0.27c0.13-0.07,0.33-0.11,0.61-0.14c0.28-0.02,0.64-0.04,1.09-0.04
			c0.4,0,0.71,0.01,0.93,0.02c0.23,0.01,0.4,0.04,0.52,0.06s0.2,0.08,0.25,0.14c0.04,0.06,0.08,0.14,0.11,0.24l1.51,4.32l3.12-4.32
			c0.06-0.08,0.12-0.14,0.19-0.2c0.07-0.06,0.17-0.11,0.32-0.14c0.14-0.04,0.33-0.07,0.56-0.09s0.55-0.03,0.94-0.03
			c0.44,0,0.8,0.01,1.06,0.03c0.27,0.02,0.46,0.06,0.59,0.12c0.13,0.06,0.18,0.14,0.17,0.24c-0.01,0.1-0.08,0.24-0.21,0.41
			L465.52,246.12z"/>
	</g>
	<g>
		<path class="st1" d="M299.33,427.97c0,0.1-0.01,0.22-0.02,0.38c-0.01,0.15-0.04,0.32-0.07,0.5c-0.03,0.18-0.08,0.36-0.12,0.54
			c-0.05,0.18-0.1,0.34-0.17,0.49c-0.07,0.14-0.14,0.26-0.22,0.35c-0.08,0.09-0.17,0.14-0.25,0.14c-0.14,0-0.35-0.08-0.61-0.25
			c-0.26-0.16-0.6-0.35-1.01-0.55c-0.41-0.2-0.92-0.39-1.52-0.55c-0.6-0.16-1.31-0.25-2.13-0.25s-1.57,0.12-2.26,0.35
			c-0.69,0.24-1.31,0.56-1.88,0.97c-0.56,0.41-1.06,0.89-1.49,1.45c-0.43,0.55-0.79,1.15-1.09,1.79c-0.29,0.64-0.51,1.3-0.66,1.99
			c-0.15,0.68-0.22,1.36-0.22,2.03c0,0.74,0.11,1.4,0.32,1.95c0.21,0.56,0.52,1.03,0.92,1.41c0.4,0.37,0.88,0.66,1.46,0.85
			c0.57,0.19,1.21,0.29,1.91,0.29c0.47,0,0.94-0.05,1.41-0.14c0.46-0.1,0.89-0.24,1.29-0.43l0.87-4.33h-3.54
			c-0.12,0-0.21-0.05-0.28-0.14c-0.07-0.09-0.1-0.24-0.1-0.44c0-0.1,0.01-0.22,0.03-0.38c0.02-0.15,0.05-0.31,0.08-0.48
			c0.03-0.17,0.07-0.34,0.12-0.51s0.11-0.33,0.18-0.46c0.07-0.14,0.15-0.25,0.24-0.33c0.08-0.08,0.18-0.13,0.29-0.13h6.33
			c0.32,0,0.55,0.11,0.68,0.32c0.13,0.21,0.16,0.51,0.08,0.9l-1.51,7.5c-0.04,0.18-0.08,0.34-0.14,0.47
			c-0.06,0.13-0.14,0.25-0.23,0.36c-0.11,0.12-0.35,0.25-0.74,0.41c-0.39,0.16-0.86,0.32-1.41,0.47s-1.17,0.29-1.86,0.39
			c-0.69,0.1-1.39,0.16-2.1,0.16c-1.34,0-2.53-0.15-3.55-0.46c-1.02-0.31-1.88-0.77-2.57-1.38c-0.69-0.61-1.21-1.36-1.57-2.25
			c-0.36-0.89-0.54-1.91-0.54-3.07c0-1.04,0.11-2.07,0.34-3.07c0.23-1.01,0.57-1.96,1.01-2.86c0.45-0.9,1.01-1.74,1.67-2.51
			c0.66-0.77,1.43-1.43,2.3-1.99c0.87-0.56,1.85-1,2.92-1.31c1.07-0.31,2.24-0.47,3.52-0.47c0.71,0,1.37,0.06,2,0.17
			c0.63,0.11,1.19,0.25,1.69,0.41c0.5,0.16,0.91,0.33,1.25,0.51c0.34,0.18,0.56,0.33,0.67,0.43c0.11,0.1,0.19,0.22,0.23,0.34
			C299.31,427.63,299.33,427.79,299.33,427.97z"/>
		<path class="st1" d="M299.76,441.39c0-0.7,0.16-1.32,0.47-1.88s0.8-1.03,1.46-1.43c0.66-0.4,1.5-0.71,2.52-0.92
			c1.02-0.21,2.23-0.32,3.64-0.32h1.33c0.04-0.22,0.07-0.44,0.09-0.66c0.02-0.22,0.03-0.42,0.03-0.6c0-0.78-0.2-1.37-0.61-1.77
			c-0.41-0.4-1.06-0.6-1.95-0.6c-0.64,0-1.21,0.05-1.72,0.14c-0.51,0.09-0.95,0.19-1.33,0.3c-0.38,0.11-0.7,0.21-0.95,0.31
			c-0.25,0.09-0.44,0.14-0.55,0.14s-0.2-0.04-0.25-0.1c-0.05-0.07-0.07-0.17-0.07-0.32c0-0.16,0.01-0.35,0.04-0.56
			c0.03-0.21,0.07-0.42,0.12-0.63c0.05-0.21,0.12-0.4,0.2-0.59c0.08-0.19,0.18-0.33,0.28-0.42c0.12-0.12,0.33-0.23,0.64-0.35
			s0.68-0.22,1.11-0.32c0.44-0.1,0.92-0.18,1.46-0.24c0.54-0.06,1.09-0.1,1.65-0.1c0.93,0,1.74,0.1,2.43,0.29
			c0.69,0.19,1.27,0.49,1.73,0.88c0.46,0.4,0.81,0.9,1.04,1.51c0.23,0.61,0.35,1.34,0.35,2.18c0,0.65-0.06,1.34-0.18,2.08
			c-0.12,0.74-0.32,1.47-0.59,2.19c-0.27,0.72-0.62,1.41-1.04,2.06c-0.43,0.66-0.94,1.23-1.54,1.73s-1.3,0.9-2.09,1.19
			c-0.79,0.3-1.7,0.45-2.71,0.45c-0.88,0-1.63-0.1-2.27-0.31c-0.63-0.21-1.15-0.48-1.56-0.83c-0.41-0.34-0.71-0.73-0.9-1.17
			C299.86,442.3,299.76,441.85,299.76,441.39z M303.34,441.11c0,0.39,0.15,0.71,0.46,0.96c0.3,0.26,0.75,0.38,1.33,0.38
			c0.48,0,0.91-0.09,1.3-0.26s0.72-0.41,1.01-0.7s0.54-0.64,0.75-1.04c0.21-0.4,0.37-0.83,0.5-1.28h-1.22
			c-0.77,0-1.42,0.05-1.94,0.15c-0.52,0.1-0.94,0.24-1.26,0.41c-0.32,0.17-0.55,0.38-0.7,0.62
			C303.41,440.59,303.34,440.84,303.34,441.11z"/>
		<path class="st1" d="M328.28,434.18c0,0.34-0.02,0.68-0.07,1.02c-0.04,0.34-0.1,0.68-0.16,1.04l-1.61,7.98
			c-0.02,0.1-0.06,0.18-0.14,0.25c-0.07,0.07-0.18,0.13-0.33,0.18c-0.15,0.05-0.34,0.08-0.58,0.11c-0.24,0.02-0.53,0.04-0.89,0.04
			s-0.65-0.01-0.88-0.04c-0.23-0.02-0.4-0.06-0.53-0.11c-0.12-0.05-0.21-0.11-0.25-0.18c-0.04-0.07-0.06-0.16-0.04-0.25l1.56-7.75
			c0.05-0.23,0.08-0.47,0.11-0.71c0.02-0.24,0.04-0.45,0.04-0.64c0-0.43-0.09-0.79-0.28-1.07c-0.18-0.28-0.49-0.42-0.93-0.42
			c-0.4,0-0.81,0.12-1.24,0.37c-0.43,0.25-0.84,0.59-1.22,1.02s-0.72,0.93-1.02,1.51c-0.3,0.58-0.51,1.19-0.64,1.83l-1.17,5.85
			c-0.02,0.1-0.07,0.18-0.14,0.25c-0.07,0.07-0.18,0.13-0.33,0.18c-0.15,0.05-0.35,0.08-0.59,0.11c-0.24,0.02-0.54,0.04-0.88,0.04
			c-0.36,0-0.65-0.01-0.88-0.04c-0.23-0.02-0.41-0.06-0.53-0.11c-0.13-0.05-0.22-0.11-0.25-0.18c-0.04-0.07-0.05-0.16-0.03-0.25
			l2.59-12.94c0.02-0.1,0.06-0.18,0.12-0.25c0.06-0.07,0.16-0.13,0.29-0.17c0.13-0.04,0.3-0.08,0.51-0.1
			c0.21-0.02,0.46-0.04,0.75-0.04c0.3,0,0.54,0.01,0.73,0.04c0.19,0.02,0.34,0.06,0.44,0.1c0.1,0.04,0.18,0.1,0.21,0.17
			c0.03,0.07,0.04,0.16,0.02,0.25l-0.42,2.13c0.2-0.34,0.47-0.68,0.81-1.04c0.34-0.35,0.73-0.67,1.17-0.95
			c0.44-0.28,0.92-0.51,1.44-0.69c0.52-0.18,1.05-0.27,1.61-0.27c0.68,0,1.24,0.1,1.7,0.3c0.46,0.2,0.83,0.47,1.12,0.8
			c0.29,0.34,0.49,0.73,0.62,1.18C328.21,433.21,328.28,433.68,328.28,434.18z"/>
		<path class="st1" d="M341.88,432.16c0,0.22-0.03,0.47-0.08,0.75c-0.05,0.28-0.12,0.55-0.21,0.8c-0.09,0.25-0.2,0.46-0.33,0.63
			c-0.13,0.17-0.27,0.25-0.43,0.25c-0.14,0-0.29-0.06-0.42-0.17c-0.13-0.12-0.3-0.25-0.5-0.39c-0.2-0.14-0.45-0.28-0.74-0.4
			c-0.3-0.12-0.69-0.18-1.16-0.18c-0.5,0-0.95,0.11-1.35,0.33c-0.4,0.22-0.74,0.51-1.04,0.86s-0.54,0.75-0.73,1.2
			c-0.19,0.45-0.35,0.9-0.48,1.36c-0.13,0.46-0.22,0.9-0.27,1.32c-0.05,0.42-0.08,0.78-0.08,1.09c0,0.78,0.17,1.38,0.51,1.78
			c0.34,0.41,0.88,0.61,1.62,0.61c0.54,0,1.01-0.07,1.39-0.21c0.39-0.14,0.72-0.29,0.99-0.46c0.28-0.17,0.51-0.32,0.71-0.45
			c0.2-0.14,0.38-0.21,0.54-0.21c0.1,0,0.17,0.04,0.21,0.13c0.04,0.09,0.06,0.21,0.06,0.38s-0.02,0.37-0.06,0.62
			c-0.04,0.25-0.09,0.49-0.15,0.75s-0.14,0.49-0.22,0.7c-0.08,0.22-0.19,0.39-0.32,0.51c-0.13,0.12-0.33,0.27-0.62,0.43
			c-0.28,0.16-0.6,0.3-0.97,0.43c-0.37,0.13-0.77,0.23-1.2,0.31c-0.43,0.08-0.88,0.12-1.34,0.12c-1.65,0-2.89-0.42-3.71-1.25
			s-1.23-2.07-1.23-3.7c0-0.59,0.05-1.24,0.16-1.94c0.11-0.7,0.29-1.41,0.54-2.12c0.25-0.71,0.58-1.4,0.98-2.07
			c0.4-0.66,0.89-1.25,1.47-1.77c0.58-0.51,1.25-0.92,2.01-1.23c0.76-0.31,1.64-0.46,2.64-0.46c0.39,0,0.76,0.03,1.13,0.09
			s0.7,0.14,1.01,0.24c0.31,0.1,0.58,0.22,0.82,0.35c0.24,0.14,0.41,0.26,0.53,0.37c0.12,0.11,0.19,0.21,0.22,0.3
			C341.86,431.92,341.88,432.03,341.88,432.16z"/>
		<path class="st1" d="M342.19,441.39c0-0.7,0.16-1.32,0.47-1.88s0.8-1.03,1.46-1.43c0.66-0.4,1.5-0.71,2.52-0.92
			c1.02-0.21,2.23-0.32,3.64-0.32h1.33c0.04-0.22,0.07-0.44,0.09-0.66c0.02-0.22,0.03-0.42,0.03-0.6c0-0.78-0.2-1.37-0.61-1.77
			c-0.41-0.4-1.06-0.6-1.95-0.6c-0.64,0-1.21,0.05-1.72,0.14c-0.51,0.09-0.95,0.19-1.33,0.3c-0.38,0.11-0.7,0.21-0.95,0.31
			c-0.25,0.09-0.44,0.14-0.55,0.14s-0.2-0.04-0.25-0.1c-0.05-0.07-0.07-0.17-0.07-0.32c0-0.16,0.01-0.35,0.04-0.56
			c0.03-0.21,0.07-0.42,0.12-0.63c0.05-0.21,0.12-0.4,0.2-0.59c0.08-0.19,0.18-0.33,0.28-0.42c0.12-0.12,0.33-0.23,0.64-0.35
			s0.68-0.22,1.11-0.32c0.44-0.1,0.92-0.18,1.46-0.24c0.54-0.06,1.09-0.1,1.65-0.1c0.93,0,1.74,0.1,2.43,0.29
			c0.69,0.19,1.27,0.49,1.73,0.88c0.46,0.4,0.81,0.9,1.04,1.51c0.23,0.61,0.35,1.34,0.35,2.18c0,0.65-0.06,1.34-0.18,2.08
			c-0.12,0.74-0.32,1.47-0.59,2.19c-0.27,0.72-0.62,1.41-1.04,2.06c-0.43,0.66-0.94,1.23-1.54,1.73s-1.3,0.9-2.09,1.19
			c-0.79,0.3-1.7,0.45-2.71,0.45c-0.88,0-1.63-0.1-2.27-0.31c-0.63-0.21-1.15-0.48-1.56-0.83c-0.41-0.34-0.71-0.73-0.9-1.17
			C342.3,442.3,342.19,441.85,342.19,441.39z M345.77,441.11c0,0.39,0.15,0.71,0.46,0.96c0.3,0.26,0.75,0.38,1.33,0.38
			c0.48,0,0.91-0.09,1.3-0.26s0.72-0.41,1.01-0.7s0.54-0.64,0.75-1.04c0.21-0.4,0.37-0.83,0.5-1.28h-1.22
			c-0.77,0-1.42,0.05-1.94,0.15c-0.52,0.1-0.94,0.24-1.26,0.41c-0.32,0.17-0.55,0.38-0.7,0.62
			C345.85,440.59,345.77,440.84,345.77,441.11z"/>
	</g>
	<g>
		<path class="st1" d="M295.92,561.82c0,0.1-0.01,0.22-0.02,0.38c-0.01,0.15-0.04,0.32-0.07,0.5c-0.03,0.18-0.08,0.36-0.12,0.54
			c-0.05,0.18-0.1,0.34-0.17,0.49c-0.07,0.14-0.14,0.26-0.22,0.35c-0.08,0.09-0.17,0.14-0.25,0.14c-0.14,0-0.35-0.08-0.61-0.25
			c-0.26-0.16-0.6-0.35-1.01-0.55s-0.92-0.39-1.52-0.55c-0.6-0.16-1.31-0.25-2.13-0.25c-0.82,0-1.57,0.12-2.26,0.35
			c-0.69,0.24-1.31,0.56-1.88,0.97c-0.56,0.41-1.06,0.89-1.49,1.45c-0.43,0.55-0.79,1.15-1.09,1.79c-0.29,0.64-0.51,1.3-0.66,1.99
			c-0.15,0.68-0.22,1.36-0.22,2.03c0,0.74,0.11,1.4,0.32,1.95c0.21,0.56,0.52,1.03,0.92,1.41c0.4,0.37,0.88,0.66,1.46,0.85
			c0.57,0.19,1.21,0.29,1.91,0.29c0.47,0,0.94-0.05,1.41-0.14c0.46-0.1,0.89-0.24,1.29-0.43l0.87-4.33h-3.54
			c-0.12,0-0.21-0.05-0.28-0.14c-0.07-0.09-0.1-0.24-0.1-0.44c0-0.1,0.01-0.22,0.03-0.38c0.02-0.15,0.05-0.31,0.08-0.48
			c0.03-0.17,0.07-0.34,0.12-0.51c0.05-0.17,0.11-0.33,0.18-0.46c0.07-0.14,0.15-0.25,0.24-0.33c0.08-0.08,0.18-0.13,0.29-0.13h6.33
			c0.32,0,0.55,0.11,0.68,0.32c0.13,0.21,0.16,0.51,0.08,0.9l-1.51,7.5c-0.04,0.18-0.08,0.34-0.14,0.47
			c-0.06,0.13-0.14,0.25-0.23,0.36c-0.11,0.12-0.35,0.25-0.74,0.41c-0.39,0.16-0.86,0.32-1.41,0.47c-0.55,0.15-1.17,0.29-1.86,0.39
			c-0.69,0.1-1.39,0.16-2.1,0.16c-1.34,0-2.53-0.15-3.55-0.46c-1.02-0.31-1.88-0.77-2.57-1.38c-0.69-0.61-1.21-1.36-1.57-2.25
			c-0.36-0.89-0.54-1.91-0.54-3.07c0-1.04,0.11-2.07,0.34-3.07c0.23-1.01,0.57-1.96,1.01-2.86c0.45-0.9,1.01-1.74,1.67-2.51
			c0.66-0.77,1.43-1.43,2.3-1.99c0.87-0.56,1.85-1,2.92-1.31s2.24-0.47,3.52-0.47c0.71,0,1.37,0.06,2,0.17
			c0.63,0.11,1.19,0.25,1.69,0.41c0.5,0.16,0.91,0.33,1.25,0.51c0.34,0.18,0.56,0.33,0.67,0.43c0.11,0.1,0.19,0.22,0.23,0.34
			C295.9,561.48,295.92,561.64,295.92,561.82z"/>
		<path class="st1" d="M310.66,569.5c0,0.7-0.06,1.41-0.2,2.14c-0.13,0.73-0.33,1.45-0.62,2.15c-0.28,0.7-0.64,1.36-1.08,1.97
			s-0.97,1.15-1.58,1.62c-0.61,0.47-1.32,0.84-2.11,1.11c-0.79,0.27-1.69,0.41-2.68,0.41c-0.98,0-1.82-0.11-2.53-0.34
			c-0.71-0.23-1.3-0.56-1.78-1c-0.47-0.44-0.82-0.98-1.06-1.62c-0.23-0.64-0.35-1.38-0.35-2.21c0-0.7,0.06-1.41,0.2-2.14
			c0.13-0.73,0.33-1.45,0.62-2.14c0.28-0.7,0.64-1.36,1.08-1.98c0.44-0.62,0.97-1.17,1.58-1.63c0.61-0.46,1.32-0.83,2.11-1.1
			c0.79-0.27,1.69-0.41,2.68-0.41c0.98,0,1.82,0.11,2.53,0.34c0.71,0.23,1.3,0.56,1.78,1c0.47,0.44,0.82,0.98,1.06,1.62
			C310.54,567.93,310.66,568.67,310.66,569.5z M306.89,569.74c0-0.41-0.04-0.77-0.12-1.08c-0.08-0.31-0.22-0.58-0.41-0.8
			c-0.19-0.22-0.43-0.38-0.72-0.5s-0.66-0.17-1.08-0.17c-0.48,0-0.92,0.09-1.31,0.28c-0.39,0.19-0.73,0.44-1.03,0.76
			c-0.31,0.32-0.57,0.69-0.79,1.11c-0.22,0.42-0.41,0.86-0.55,1.33c-0.14,0.46-0.25,0.93-0.32,1.41c-0.07,0.48-0.1,0.93-0.1,1.37
			c0,0.41,0.04,0.77,0.12,1.09s0.22,0.59,0.41,0.8c0.19,0.22,0.43,0.38,0.72,0.5s0.66,0.17,1.08,0.17c0.48,0,0.92-0.09,1.31-0.28
			c0.39-0.19,0.73-0.44,1.03-0.77c0.31-0.32,0.57-0.7,0.79-1.12c0.22-0.42,0.41-0.86,0.55-1.33c0.14-0.47,0.25-0.94,0.32-1.41
			C306.86,570.63,306.89,570.18,306.89,569.74z M304.78,560.82c-0.07,0.36-0.15,0.65-0.26,0.88c-0.11,0.23-0.25,0.41-0.42,0.55
			c-0.17,0.14-0.39,0.23-0.63,0.27c-0.25,0.05-0.53,0.07-0.86,0.07c-0.34,0-0.62-0.02-0.84-0.07c-0.22-0.05-0.39-0.14-0.51-0.27
			s-0.19-0.32-0.22-0.55c-0.02-0.23,0-0.53,0.06-0.88c0.06-0.36,0.14-0.65,0.25-0.88s0.25-0.41,0.43-0.55
			c0.17-0.14,0.38-0.23,0.62-0.28c0.24-0.05,0.53-0.07,0.87-0.07c0.33,0,0.6,0.02,0.83,0.07c0.22,0.05,0.39,0.14,0.52,0.28
			c0.12,0.14,0.2,0.32,0.22,0.55C304.86,560.17,304.84,560.46,304.78,560.82z M310.44,560.82c-0.07,0.36-0.16,0.65-0.27,0.88
			c-0.11,0.23-0.25,0.41-0.42,0.55c-0.17,0.14-0.38,0.23-0.62,0.27c-0.25,0.05-0.54,0.07-0.88,0.07c-0.33,0-0.6-0.02-0.83-0.07
			c-0.22-0.05-0.39-0.14-0.51-0.27s-0.19-0.32-0.22-0.55c-0.02-0.23,0-0.53,0.07-0.88c0.06-0.36,0.14-0.65,0.25-0.88
			s0.25-0.41,0.43-0.55c0.17-0.14,0.38-0.23,0.62-0.28c0.24-0.05,0.53-0.07,0.86-0.07c0.34,0,0.62,0.02,0.84,0.07
			c0.22,0.05,0.4,0.14,0.52,0.28c0.12,0.14,0.2,0.32,0.23,0.55S310.51,560.46,310.44,560.82z"/>
		<path class="st1" d="M325.68,565.11c0,0.12-0.02,0.27-0.04,0.42c-0.03,0.15-0.07,0.31-0.13,0.48c-0.33,0.89-0.68,1.81-1.07,2.75
			c-0.38,0.95-0.82,1.92-1.31,2.92c-0.49,1.01-1.05,2.04-1.68,3.12c-0.63,1.07-1.35,2.18-2.16,3.33l-3.54,5.01
			c-0.08,0.12-0.19,0.23-0.33,0.31c-0.13,0.08-0.29,0.15-0.49,0.2c-0.2,0.05-0.44,0.09-0.72,0.12c-0.28,0.03-0.6,0.04-0.97,0.04
			c-0.41,0-0.75-0.02-1.01-0.05s-0.44-0.09-0.56-0.17s-0.17-0.17-0.16-0.29c0.01-0.12,0.08-0.26,0.21-0.42l3.29-4.33l-2.13-12.43
			c-0.02-0.12-0.04-0.26-0.06-0.39c-0.02-0.14-0.03-0.25-0.03-0.35c0-0.17,0.03-0.31,0.1-0.42s0.17-0.19,0.32-0.25
			c0.15-0.06,0.35-0.1,0.6-0.12c0.25-0.02,0.55-0.04,0.91-0.04c0.4,0,0.71,0.01,0.93,0.02c0.23,0.01,0.4,0.04,0.51,0.09
			c0.12,0.05,0.2,0.12,0.24,0.22c0.04,0.1,0.08,0.22,0.09,0.36l1.33,9.06h0.03c0.48-0.73,0.92-1.46,1.32-2.2
			c0.4-0.74,0.76-1.5,1.09-2.27c0.33-0.77,0.63-1.54,0.91-2.33c0.27-0.79,0.53-1.58,0.76-2.38c0.02-0.1,0.06-0.18,0.13-0.25
			c0.07-0.07,0.18-0.13,0.34-0.17c0.16-0.04,0.37-0.08,0.63-0.1c0.26-0.02,0.6-0.04,1.01-0.04c0.62,0,1.04,0.04,1.27,0.12
			S325.68,564.9,325.68,565.11z"/>
		<path class="st1" d="M337.64,578.6c-0.17,0.88-0.44,1.64-0.81,2.3c-0.37,0.65-0.85,1.2-1.45,1.64s-1.33,0.77-2.18,0.99
			c-0.86,0.22-1.85,0.33-2.99,0.33c-0.82,0-1.56-0.06-2.21-0.19c-0.65-0.13-1.19-0.3-1.63-0.5c-0.15-0.08-0.26-0.16-0.32-0.26
			c-0.06-0.1-0.09-0.23-0.09-0.41c0-0.06,0-0.16,0.02-0.29c0.01-0.14,0.03-0.29,0.06-0.45c0.03-0.16,0.07-0.34,0.12-0.51
			c0.05-0.18,0.11-0.34,0.18-0.48c0.07-0.14,0.15-0.26,0.24-0.35c0.09-0.09,0.19-0.14,0.31-0.14c0.12,0,0.26,0.04,0.43,0.12
			c0.17,0.08,0.39,0.17,0.67,0.27c0.28,0.1,0.63,0.19,1.04,0.27c0.41,0.08,0.93,0.12,1.54,0.12c0.49,0,0.93-0.04,1.33-0.12
			c0.39-0.08,0.73-0.2,1.02-0.38c0.29-0.17,0.52-0.4,0.7-0.67c0.18-0.27,0.31-0.6,0.38-1c0.13-0.63,0.25-1.15,0.38-1.58
			c0.12-0.43,0.24-0.77,0.35-1.04c-0.17,0.32-0.42,0.64-0.75,0.95c-0.32,0.31-0.69,0.6-1.11,0.85c-0.42,0.25-0.86,0.45-1.34,0.6
			c-0.48,0.15-0.96,0.23-1.44,0.23c-0.74,0-1.37-0.13-1.88-0.38c-0.51-0.25-0.92-0.6-1.24-1.04c-0.32-0.44-0.55-0.97-0.69-1.56
			c-0.14-0.6-0.21-1.24-0.21-1.94c0-0.63,0.06-1.31,0.17-2.03c0.12-0.73,0.3-1.44,0.54-2.16c0.25-0.72,0.56-1.4,0.93-2.06
			c0.38-0.66,0.83-1.24,1.36-1.75c0.53-0.51,1.13-0.91,1.81-1.21c0.68-0.3,1.45-0.45,2.3-0.45c0.8,0,1.51,0.17,2.13,0.5
			c0.62,0.33,1.16,0.82,1.62,1.46l0.23-1.15c0.04-0.2,0.19-0.35,0.46-0.43c0.27-0.09,0.69-0.13,1.28-0.13
			c0.29,0,0.53,0.01,0.72,0.04c0.19,0.02,0.35,0.06,0.46,0.1c0.11,0.04,0.18,0.1,0.22,0.17c0.04,0.07,0.05,0.16,0.03,0.25
			L337.64,578.6z M335.96,569c-0.34-0.53-0.71-0.93-1.12-1.19s-0.88-0.4-1.43-0.4c-0.41,0-0.78,0.1-1.11,0.29
			c-0.33,0.19-0.63,0.45-0.9,0.78c-0.27,0.32-0.5,0.7-0.7,1.12c-0.2,0.43-0.36,0.87-0.49,1.33c-0.13,0.46-0.23,0.93-0.29,1.39
			s-0.1,0.9-0.1,1.32c0,0.33,0.03,0.63,0.09,0.9c0.06,0.27,0.15,0.5,0.27,0.69c0.12,0.19,0.27,0.33,0.46,0.43
			c0.19,0.1,0.42,0.15,0.69,0.15c0.43,0,0.86-0.13,1.31-0.38c0.44-0.26,0.86-0.6,1.24-1.04c0.39-0.44,0.73-0.95,1.02-1.54
			c0.29-0.59,0.51-1.22,0.64-1.88L335.96,569z"/>
		<path class="st1" d="M355.67,569.5c0,0.7-0.06,1.41-0.2,2.14c-0.13,0.73-0.33,1.45-0.62,2.15c-0.28,0.7-0.64,1.36-1.08,1.97
			s-0.97,1.15-1.58,1.62c-0.61,0.47-1.32,0.84-2.11,1.11c-0.79,0.27-1.69,0.41-2.68,0.41c-0.98,0-1.82-0.11-2.53-0.34
			c-0.71-0.23-1.3-0.56-1.78-1c-0.47-0.44-0.82-0.98-1.06-1.62c-0.23-0.64-0.35-1.38-0.35-2.21c0-0.7,0.06-1.41,0.2-2.14
			c0.13-0.73,0.33-1.45,0.62-2.14c0.28-0.7,0.64-1.36,1.08-1.98c0.44-0.62,0.97-1.17,1.58-1.63c0.61-0.46,1.32-0.83,2.11-1.1
			c0.79-0.27,1.69-0.41,2.68-0.41c0.98,0,1.82,0.11,2.53,0.34c0.71,0.23,1.3,0.56,1.78,1c0.47,0.44,0.82,0.98,1.06,1.62
			C355.56,567.93,355.67,568.67,355.67,569.5z M351.91,569.74c0-0.41-0.04-0.77-0.12-1.08c-0.08-0.31-0.22-0.58-0.41-0.8
			c-0.19-0.22-0.43-0.38-0.72-0.5s-0.66-0.17-1.08-0.17c-0.48,0-0.92,0.09-1.31,0.28c-0.39,0.19-0.73,0.44-1.03,0.76
			c-0.31,0.32-0.57,0.69-0.79,1.11c-0.22,0.42-0.41,0.86-0.55,1.33c-0.14,0.46-0.25,0.93-0.32,1.41c-0.07,0.48-0.1,0.93-0.1,1.37
			c0,0.41,0.04,0.77,0.12,1.09c0.08,0.32,0.22,0.59,0.41,0.8c0.19,0.22,0.43,0.38,0.72,0.5s0.66,0.17,1.08,0.17
			c0.48,0,0.92-0.09,1.31-0.28c0.39-0.19,0.73-0.44,1.03-0.77c0.31-0.32,0.57-0.7,0.79-1.12c0.22-0.42,0.41-0.86,0.55-1.33
			c0.14-0.47,0.25-0.94,0.32-1.41C351.87,570.63,351.91,570.18,351.91,569.74z M349.79,560.82c-0.07,0.36-0.15,0.65-0.26,0.88
			s-0.25,0.41-0.42,0.55s-0.39,0.23-0.63,0.27c-0.25,0.05-0.53,0.07-0.86,0.07c-0.34,0-0.62-0.02-0.84-0.07
			c-0.22-0.05-0.39-0.14-0.51-0.27s-0.19-0.32-0.22-0.55c-0.02-0.23,0-0.53,0.06-0.88c0.06-0.36,0.14-0.65,0.25-0.88
			c0.11-0.23,0.25-0.41,0.43-0.55c0.17-0.14,0.38-0.23,0.62-0.28c0.24-0.05,0.53-0.07,0.87-0.07c0.33,0,0.6,0.02,0.83,0.07
			c0.22,0.05,0.39,0.14,0.52,0.28c0.12,0.14,0.2,0.32,0.22,0.55C349.88,560.17,349.86,560.46,349.79,560.82z M355.45,560.82
			c-0.07,0.36-0.16,0.65-0.27,0.88c-0.11,0.23-0.25,0.41-0.42,0.55c-0.17,0.14-0.38,0.23-0.62,0.27c-0.25,0.05-0.54,0.07-0.88,0.07
			c-0.33,0-0.6-0.02-0.83-0.07c-0.22-0.05-0.39-0.14-0.51-0.27s-0.19-0.32-0.22-0.55c-0.02-0.23,0-0.53,0.07-0.88
			c0.06-0.36,0.14-0.65,0.25-0.88s0.25-0.41,0.43-0.55c0.17-0.14,0.38-0.23,0.62-0.28c0.24-0.05,0.53-0.07,0.86-0.07
			c0.34,0,0.62,0.02,0.84,0.07c0.22,0.05,0.4,0.14,0.52,0.28c0.12,0.14,0.2,0.32,0.23,0.55S355.52,560.46,355.45,560.82z"/>
		<path class="st1" d="M360.7,578.07c-0.02,0.1-0.07,0.18-0.14,0.25c-0.07,0.07-0.18,0.13-0.33,0.18c-0.15,0.05-0.34,0.08-0.58,0.11
			c-0.24,0.02-0.54,0.04-0.88,0.04c-0.37,0-0.66-0.01-0.89-0.04c-0.23-0.02-0.4-0.06-0.53-0.11c-0.12-0.05-0.21-0.11-0.25-0.18
			c-0.04-0.07-0.06-0.16-0.04-0.25l3.81-19.05c0.02-0.1,0.06-0.18,0.13-0.26c0.07-0.08,0.18-0.14,0.33-0.19
			c0.15-0.05,0.35-0.1,0.59-0.12c0.24-0.03,0.53-0.04,0.89-0.04c0.36,0,0.65,0.01,0.88,0.04c0.23,0.03,0.4,0.07,0.53,0.12
			c0.12,0.05,0.21,0.12,0.25,0.19c0.04,0.08,0.05,0.16,0.03,0.26L360.7,578.07z"/>
	</g>
	<g>
		<path class="st1" d="M119.28,593.55c0,0.58-0.04,1.19-0.11,1.84c-0.07,0.65-0.19,1.31-0.36,1.98c-0.17,0.67-0.4,1.34-0.68,2
			s-0.64,1.29-1.07,1.9c-0.42,0.6-0.93,1.17-1.51,1.69c-0.58,0.52-1.26,0.97-2.02,1.35c-0.76,0.38-1.62,0.68-2.58,0.89
			c-0.96,0.21-2.1,0.32-3.42,0.32h-4.77c-0.15,0-0.3-0.02-0.44-0.06c-0.14-0.04-0.26-0.1-0.35-0.2s-0.16-0.21-0.19-0.37
			c-0.03-0.15-0.03-0.35,0.02-0.58l3.27-16.34c0.08-0.42,0.25-0.73,0.51-0.92c0.26-0.19,0.57-0.28,0.93-0.28h4.52
			c1.49,0,2.73,0.14,3.73,0.43c1,0.29,1.84,0.72,2.51,1.29c0.67,0.57,1.17,1.28,1.51,2.12
			C119.11,591.47,119.28,592.44,119.28,593.55z M115.28,594c0-0.61-0.08-1.17-0.25-1.69c-0.16-0.52-0.43-0.97-0.8-1.35
			c-0.37-0.38-0.84-0.67-1.41-0.88c-0.58-0.21-1.34-0.32-2.31-0.32h-1.98l-2.56,12.75h2c1.02,0,1.87-0.12,2.56-0.37
			c0.69-0.25,1.3-0.58,1.83-1.01s0.97-0.93,1.35-1.49c0.37-0.57,0.68-1.16,0.91-1.79c0.24-0.63,0.41-1.27,0.51-1.93
			C115.23,595.26,115.28,594.62,115.28,594z"/>
		<path class="st1" d="M132.16,605.04c-0.04,0.2-0.19,0.35-0.46,0.43c-0.27,0.09-0.69,0.13-1.28,0.13c-0.3,0-0.54-0.01-0.73-0.03
			c-0.19-0.02-0.34-0.05-0.46-0.09c-0.12-0.04-0.19-0.1-0.23-0.17c-0.03-0.07-0.04-0.16-0.02-0.27l0.41-2.07
			c-0.14,0.31-0.37,0.64-0.7,0.98c-0.32,0.34-0.7,0.65-1.13,0.93c-0.44,0.28-0.92,0.51-1.44,0.7c-0.53,0.18-1.07,0.28-1.63,0.28
			c-0.77,0-1.42-0.14-1.93-0.41c-0.51-0.27-0.92-0.64-1.23-1.09c-0.31-0.46-0.53-0.98-0.66-1.57c-0.13-0.59-0.2-1.21-0.2-1.85
			c0-0.61,0.06-1.27,0.17-1.99c0.12-0.72,0.29-1.44,0.54-2.15c0.24-0.71,0.55-1.4,0.93-2.06c0.37-0.66,0.83-1.25,1.35-1.76
			c0.53-0.51,1.13-0.92,1.81-1.22c0.68-0.3,1.45-0.46,2.31-0.46c0.8,0,1.51,0.17,2.13,0.5c0.62,0.33,1.16,0.82,1.62,1.46l0.23-1.15
			c0.04-0.2,0.19-0.35,0.46-0.43c0.27-0.09,0.69-0.13,1.28-0.13c0.29,0,0.53,0.01,0.72,0.04c0.19,0.02,0.35,0.06,0.46,0.1
			c0.11,0.04,0.18,0.1,0.22,0.17c0.04,0.07,0.05,0.16,0.03,0.25L132.16,605.04z M130.36,595.97c-0.34-0.53-0.71-0.93-1.12-1.19
			c-0.41-0.27-0.88-0.4-1.43-0.4c-0.41,0-0.78,0.1-1.11,0.29c-0.34,0.19-0.64,0.45-0.9,0.77c-0.26,0.32-0.49,0.7-0.69,1.12
			s-0.36,0.87-0.49,1.33c-0.13,0.46-0.23,0.92-0.29,1.39s-0.1,0.9-0.1,1.3c0,0.29,0.02,0.56,0.07,0.82c0.04,0.26,0.12,0.49,0.24,0.7
			c0.12,0.2,0.27,0.37,0.46,0.49s0.44,0.18,0.74,0.18c0.43,0,0.86-0.13,1.31-0.38c0.44-0.26,0.86-0.6,1.24-1.04
			c0.39-0.44,0.73-0.95,1.02-1.54c0.29-0.58,0.51-1.21,0.64-1.88L130.36,595.97z"/>
		<path class="st1" d="M138.34,605.81c-0.54-0.07-1.01-0.16-1.39-0.28c-0.39-0.12-0.7-0.24-0.93-0.36
			c-0.24-0.12-0.41-0.24-0.53-0.35c-0.08-0.08-0.13-0.16-0.16-0.25c-0.03-0.09-0.05-0.2-0.05-0.33c0-0.09,0.01-0.2,0.02-0.33
			c0.01-0.13,0.04-0.28,0.07-0.45c0.03-0.16,0.07-0.33,0.12-0.49c0.04-0.16,0.1-0.31,0.15-0.45c0.06-0.13,0.12-0.24,0.19-0.33
			c0.07-0.08,0.14-0.12,0.22-0.12c0.13,0,0.28,0.06,0.45,0.17c0.16,0.12,0.38,0.24,0.64,0.38c0.26,0.14,0.58,0.27,0.96,0.39
			c0.38,0.12,0.86,0.18,1.43,0.18c0.39,0,0.74-0.05,1.03-0.14c0.29-0.09,0.54-0.22,0.73-0.38c0.19-0.16,0.34-0.35,0.43-0.57
			c0.09-0.21,0.14-0.44,0.14-0.68c0-0.34-0.12-0.61-0.35-0.83c-0.24-0.21-0.53-0.41-0.89-0.59c-0.36-0.18-0.75-0.37-1.17-0.57
			c-0.42-0.19-0.81-0.43-1.17-0.71c-0.36-0.28-0.65-0.63-0.89-1.04c-0.24-0.41-0.35-0.94-0.35-1.56c0-0.69,0.13-1.32,0.39-1.91
			s0.64-1.1,1.14-1.54c0.5-0.44,1.11-0.78,1.83-1.03c0.71-0.25,1.52-0.37,2.43-0.37c0.41,0,0.8,0.03,1.18,0.08
			c0.38,0.05,0.72,0.12,1.03,0.21c0.3,0.09,0.57,0.18,0.8,0.29c0.23,0.11,0.39,0.21,0.49,0.32c0.11,0.1,0.16,0.26,0.16,0.49
			c0,0.12-0.02,0.29-0.05,0.51s-0.08,0.46-0.15,0.69c-0.07,0.23-0.15,0.43-0.24,0.6c-0.09,0.17-0.19,0.25-0.31,0.25
			c-0.13,0-0.27-0.05-0.44-0.14c-0.17-0.09-0.37-0.19-0.62-0.31s-0.52-0.21-0.85-0.3s-0.7-0.13-1.14-0.13
			c-0.34,0-0.64,0.04-0.9,0.13s-0.49,0.21-0.66,0.35c-0.17,0.15-0.31,0.33-0.4,0.53c-0.09,0.21-0.14,0.42-0.14,0.65
			c0,0.3,0.12,0.55,0.37,0.75c0.25,0.2,0.55,0.39,0.92,0.57c0.37,0.18,0.76,0.36,1.19,0.56c0.42,0.19,0.82,0.43,1.19,0.72
			c0.37,0.29,0.67,0.64,0.91,1.06c0.24,0.41,0.36,0.94,0.36,1.56c0,0.73-0.14,1.42-0.43,2.06c-0.29,0.64-0.75,1.22-1.39,1.72
			c-0.64,0.51-1.48,0.88-2.52,1.11l0.22,0.83c0.06,0.24,0.11,0.47,0.14,0.68c0.04,0.21,0.06,0.43,0.06,0.64
			c0,0.52-0.08,0.97-0.25,1.36c-0.17,0.38-0.41,0.7-0.71,0.94c-0.31,0.25-0.68,0.43-1.11,0.54c-0.44,0.12-0.91,0.17-1.44,0.17
			c-0.27,0-0.54-0.01-0.8-0.03c-0.27-0.02-0.51-0.05-0.74-0.1c-0.23-0.04-0.43-0.09-0.6-0.14c-0.17-0.05-0.31-0.1-0.42-0.15
			c-0.11-0.06-0.18-0.12-0.23-0.18c-0.04-0.06-0.06-0.16-0.06-0.28c0-0.1,0.01-0.23,0.04-0.41c0.02-0.17,0.06-0.35,0.12-0.52
			c0.06-0.17,0.14-0.33,0.24-0.46c0.1-0.13,0.23-0.19,0.4-0.19h1.65c0.14,0,0.26-0.02,0.38-0.05c0.12-0.03,0.23-0.08,0.32-0.14
			c0.09-0.06,0.16-0.15,0.22-0.25c0.05-0.11,0.08-0.23,0.08-0.36c0-0.1-0.01-0.21-0.02-0.33c-0.02-0.12-0.04-0.25-0.06-0.38
			L138.34,605.81z"/>
		<path class="st1" d="M161.64,592.05c0,0.15-0.07,0.34-0.2,0.54c-0.13,0.21-0.35,0.47-0.65,0.79l-4.56,4.3l2.97,6.23
			c0.1,0.23,0.16,0.44,0.2,0.61c0.04,0.17,0.06,0.31,0.06,0.41c0,0.12-0.03,0.22-0.09,0.3c-0.06,0.09-0.17,0.16-0.32,0.22
			c-0.15,0.06-0.35,0.1-0.61,0.12c-0.26,0.02-0.58,0.04-0.96,0.04s-0.7-0.01-0.93-0.03c-0.24-0.02-0.42-0.05-0.55-0.1
			c-0.13-0.05-0.23-0.11-0.29-0.19s-0.11-0.17-0.14-0.29l-3.06-6.81l-1.36,6.84c-0.03,0.1-0.08,0.18-0.15,0.25
			c-0.07,0.07-0.18,0.13-0.33,0.18c-0.15,0.05-0.35,0.08-0.59,0.11c-0.24,0.02-0.53,0.04-0.88,0.04c-0.36,0-0.65-0.01-0.88-0.04
			c-0.23-0.02-0.4-0.06-0.53-0.1c-0.13-0.04-0.21-0.1-0.25-0.17c-0.04-0.07-0.06-0.16-0.04-0.25l3.82-19.07
			c0.02-0.1,0.06-0.18,0.13-0.26c0.07-0.08,0.18-0.14,0.33-0.19c0.15-0.05,0.35-0.1,0.59-0.12c0.24-0.03,0.53-0.04,0.89-0.04
			c0.36,0,0.65,0.01,0.88,0.04c0.23,0.03,0.4,0.07,0.53,0.12c0.12,0.05,0.21,0.12,0.25,0.19c0.04,0.08,0.05,0.16,0.03,0.26
			l-2.26,11.34l4.84-5.17c0.1-0.12,0.2-0.21,0.31-0.3c0.11-0.08,0.25-0.15,0.43-0.19c0.17-0.05,0.38-0.08,0.63-0.1
			c0.25-0.02,0.55-0.03,0.92-0.03c0.36,0,0.66,0.01,0.9,0.03c0.24,0.02,0.43,0.05,0.56,0.09c0.14,0.04,0.23,0.1,0.28,0.17
			C161.62,591.88,161.64,591.96,161.64,592.05z"/>
		<path class="st1" d="M161.71,602.19c0-0.7,0.16-1.32,0.47-1.88c0.31-0.55,0.8-1.03,1.46-1.43c0.66-0.4,1.5-0.71,2.52-0.92
			c1.02-0.21,2.23-0.32,3.64-0.32h1.33c0.04-0.22,0.07-0.44,0.09-0.66c0.02-0.22,0.03-0.42,0.03-0.6c0-0.78-0.2-1.37-0.61-1.77
			c-0.41-0.4-1.06-0.6-1.95-0.6c-0.64,0-1.21,0.05-1.72,0.14c-0.51,0.09-0.95,0.19-1.33,0.3c-0.38,0.11-0.7,0.21-0.95,0.31
			c-0.25,0.09-0.44,0.14-0.55,0.14c-0.12,0-0.2-0.04-0.25-0.1c-0.05-0.07-0.07-0.17-0.07-0.32c0-0.16,0.01-0.35,0.04-0.56
			c0.03-0.21,0.07-0.42,0.12-0.63c0.05-0.21,0.12-0.4,0.2-0.59c0.08-0.18,0.18-0.33,0.28-0.42c0.12-0.12,0.33-0.23,0.64-0.35
			c0.31-0.12,0.68-0.22,1.11-0.32c0.44-0.1,0.92-0.18,1.46-0.24c0.54-0.06,1.09-0.1,1.65-0.1c0.93,0,1.74,0.1,2.43,0.29
			c0.69,0.19,1.27,0.49,1.73,0.88c0.46,0.4,0.81,0.9,1.04,1.51c0.23,0.61,0.35,1.34,0.35,2.18c0,0.65-0.06,1.34-0.18,2.08
			c-0.12,0.74-0.32,1.47-0.59,2.19c-0.27,0.72-0.62,1.41-1.04,2.06s-0.94,1.23-1.54,1.73c-0.6,0.5-1.3,0.9-2.09,1.19
			c-0.79,0.3-1.7,0.45-2.71,0.45c-0.88,0-1.63-0.1-2.27-0.31s-1.15-0.48-1.56-0.83c-0.41-0.34-0.71-0.73-0.9-1.17
			C161.81,603.1,161.71,602.65,161.71,602.19z M165.29,601.91c0,0.39,0.15,0.71,0.46,0.96c0.3,0.26,0.75,0.38,1.33,0.38
			c0.48,0,0.91-0.09,1.29-0.26c0.38-0.17,0.72-0.41,1.01-0.7c0.29-0.29,0.54-0.64,0.75-1.04c0.21-0.4,0.37-0.83,0.5-1.28h-1.22
			c-0.77,0-1.42,0.05-1.94,0.15c-0.52,0.1-0.94,0.24-1.26,0.41c-0.32,0.17-0.55,0.38-0.7,0.62
			C165.36,601.39,165.29,601.64,165.29,601.91z"/>
		<path class="st1" d="M186.84,592.67c0,0.12-0.02,0.29-0.05,0.51s-0.08,0.46-0.15,0.69c-0.07,0.23-0.15,0.43-0.24,0.6
			c-0.09,0.17-0.19,0.25-0.31,0.25c-0.13,0-0.27-0.05-0.44-0.14c-0.17-0.09-0.37-0.19-0.62-0.31s-0.52-0.21-0.85-0.3
			s-0.7-0.13-1.14-0.13c-0.34,0-0.64,0.04-0.9,0.13s-0.49,0.21-0.66,0.35c-0.17,0.15-0.31,0.33-0.4,0.53
			c-0.09,0.21-0.14,0.42-0.14,0.65c0,0.3,0.12,0.55,0.37,0.75c0.25,0.2,0.55,0.39,0.92,0.57c0.37,0.18,0.76,0.36,1.19,0.56
			c0.42,0.19,0.82,0.43,1.19,0.72c0.37,0.29,0.67,0.64,0.91,1.06c0.24,0.41,0.36,0.94,0.36,1.56c0,0.73-0.14,1.41-0.42,2.04
			c-0.28,0.62-0.69,1.16-1.22,1.62c-0.54,0.45-1.19,0.81-1.96,1.06c-0.77,0.26-1.63,0.39-2.6,0.39c-0.46,0-0.9-0.04-1.32-0.1
			c-0.42-0.07-0.8-0.15-1.13-0.25c-0.33-0.1-0.62-0.21-0.85-0.33s-0.41-0.24-0.52-0.35c-0.08-0.08-0.13-0.16-0.16-0.25
			c-0.03-0.09-0.05-0.2-0.05-0.33c0-0.09,0.01-0.2,0.02-0.33c0.01-0.13,0.04-0.28,0.07-0.45c0.03-0.16,0.07-0.33,0.12-0.49
			c0.04-0.16,0.1-0.31,0.15-0.45c0.06-0.13,0.12-0.24,0.19-0.33c0.07-0.08,0.14-0.12,0.22-0.12c0.13,0,0.28,0.06,0.45,0.17
			c0.16,0.12,0.38,0.24,0.64,0.38c0.26,0.14,0.58,0.27,0.96,0.39c0.38,0.12,0.86,0.18,1.43,0.18c0.39,0,0.74-0.05,1.03-0.14
			c0.29-0.09,0.54-0.22,0.73-0.38c0.19-0.16,0.34-0.35,0.43-0.57c0.09-0.21,0.14-0.44,0.14-0.68c0-0.34-0.12-0.61-0.35-0.83
			c-0.24-0.21-0.53-0.41-0.89-0.59c-0.36-0.18-0.75-0.37-1.17-0.57c-0.42-0.19-0.81-0.43-1.17-0.71c-0.36-0.28-0.65-0.63-0.89-1.04
			c-0.24-0.41-0.35-0.94-0.35-1.56c0-0.69,0.13-1.32,0.39-1.91s0.64-1.1,1.14-1.54c0.5-0.44,1.11-0.78,1.83-1.03
			c0.71-0.25,1.52-0.37,2.43-0.37c0.41,0,0.8,0.03,1.18,0.08c0.38,0.05,0.72,0.12,1.03,0.21c0.3,0.09,0.57,0.18,0.8,0.29
			c0.23,0.11,0.39,0.21,0.49,0.32C186.78,592.27,186.84,592.44,186.84,592.67z"/>
		<path class="st1" d="M187.83,602.19c0-0.7,0.16-1.32,0.47-1.88c0.31-0.55,0.8-1.03,1.46-1.43c0.66-0.4,1.5-0.71,2.52-0.92
			c1.02-0.21,2.23-0.32,3.64-0.32h1.33c0.04-0.22,0.07-0.44,0.09-0.66c0.02-0.22,0.03-0.42,0.03-0.6c0-0.78-0.2-1.37-0.61-1.77
			c-0.41-0.4-1.06-0.6-1.95-0.6c-0.64,0-1.21,0.05-1.72,0.14c-0.51,0.09-0.95,0.19-1.33,0.3c-0.38,0.11-0.7,0.21-0.95,0.31
			c-0.25,0.09-0.44,0.14-0.55,0.14c-0.12,0-0.2-0.04-0.25-0.1c-0.05-0.07-0.07-0.17-0.07-0.32c0-0.16,0.01-0.35,0.04-0.56
			c0.03-0.21,0.07-0.42,0.12-0.63c0.05-0.21,0.12-0.4,0.2-0.59c0.08-0.18,0.18-0.33,0.28-0.42c0.12-0.12,0.33-0.23,0.64-0.35
			c0.31-0.12,0.68-0.22,1.11-0.32c0.44-0.1,0.92-0.18,1.46-0.24c0.54-0.06,1.09-0.1,1.65-0.1c0.93,0,1.74,0.1,2.43,0.29
			c0.69,0.19,1.27,0.49,1.73,0.88s0.81,0.9,1.04,1.51c0.23,0.61,0.35,1.34,0.35,2.18c0,0.65-0.06,1.34-0.18,2.08
			c-0.12,0.74-0.32,1.47-0.59,2.19c-0.27,0.72-0.62,1.41-1.04,2.06s-0.94,1.23-1.54,1.73s-1.3,0.9-2.09,1.19
			c-0.79,0.3-1.7,0.45-2.71,0.45c-0.88,0-1.63-0.1-2.27-0.31s-1.15-0.48-1.56-0.83c-0.41-0.34-0.71-0.73-0.9-1.17
			C187.93,603.1,187.83,602.65,187.83,602.19z M191.41,601.91c0,0.39,0.15,0.71,0.46,0.96c0.3,0.26,0.75,0.38,1.33,0.38
			c0.48,0,0.91-0.09,1.29-0.26c0.38-0.17,0.72-0.41,1.01-0.7c0.29-0.29,0.54-0.64,0.75-1.04c0.21-0.4,0.37-0.83,0.5-1.28h-1.22
			c-0.77,0-1.42,0.05-1.94,0.15c-0.52,0.1-0.94,0.24-1.26,0.41c-0.32,0.17-0.55,0.38-0.7,0.62
			C191.48,601.39,191.41,601.64,191.41,601.91z"/>
		<path class="st1" d="M216.35,594.99c0,0.34-0.02,0.68-0.07,1.02c-0.04,0.34-0.1,0.68-0.16,1.04l-1.61,7.98
			c-0.02,0.1-0.06,0.18-0.14,0.25c-0.07,0.07-0.18,0.13-0.33,0.18c-0.15,0.05-0.34,0.08-0.58,0.11s-0.53,0.04-0.89,0.04
			c-0.36,0-0.65-0.01-0.88-0.04c-0.23-0.02-0.4-0.06-0.53-0.11c-0.12-0.05-0.21-0.11-0.25-0.18c-0.04-0.07-0.06-0.16-0.04-0.25
			l1.56-7.75c0.05-0.23,0.08-0.47,0.11-0.71s0.04-0.45,0.04-0.64c0-0.43-0.09-0.79-0.28-1.07c-0.18-0.28-0.49-0.42-0.93-0.42
			c-0.4,0-0.81,0.12-1.24,0.37c-0.43,0.25-0.84,0.59-1.22,1.02c-0.38,0.43-0.72,0.93-1.02,1.51c-0.3,0.58-0.51,1.19-0.64,1.83
			l-1.17,5.85c-0.02,0.1-0.07,0.18-0.14,0.25c-0.07,0.07-0.18,0.13-0.33,0.18c-0.15,0.05-0.35,0.08-0.59,0.11s-0.54,0.04-0.88,0.04
			c-0.36,0-0.65-0.01-0.88-0.04c-0.23-0.02-0.41-0.06-0.53-0.11c-0.13-0.05-0.22-0.11-0.25-0.18c-0.04-0.07-0.05-0.16-0.03-0.25
			l2.59-12.94c0.02-0.1,0.06-0.18,0.12-0.25c0.06-0.07,0.16-0.13,0.29-0.17c0.13-0.04,0.3-0.08,0.51-0.1
			c0.21-0.02,0.46-0.04,0.75-0.04c0.3,0,0.54,0.01,0.73,0.04c0.19,0.02,0.34,0.06,0.44,0.1c0.1,0.04,0.18,0.1,0.21,0.17
			c0.03,0.07,0.04,0.16,0.02,0.25l-0.42,2.13c0.2-0.34,0.47-0.68,0.81-1.04c0.34-0.35,0.73-0.67,1.17-0.95
			c0.44-0.28,0.92-0.51,1.44-0.69c0.52-0.18,1.05-0.27,1.61-0.27c0.68,0,1.24,0.1,1.7,0.3c0.46,0.2,0.83,0.47,1.12,0.8
			c0.29,0.34,0.49,0.73,0.62,1.18C216.29,594.01,216.35,594.49,216.35,594.99z"/>
	</g>
	<g>
		<path class="st1" d="M500.98,502.77c0,0.1-0.01,0.22-0.02,0.38c-0.01,0.15-0.04,0.32-0.07,0.5c-0.03,0.18-0.08,0.36-0.12,0.54
			c-0.05,0.18-0.1,0.34-0.17,0.49c-0.07,0.14-0.14,0.26-0.22,0.35c-0.08,0.09-0.17,0.14-0.25,0.14c-0.14,0-0.35-0.08-0.61-0.25
			c-0.26-0.16-0.6-0.35-1.01-0.55s-0.92-0.39-1.52-0.55c-0.6-0.16-1.31-0.25-2.13-0.25c-0.82,0-1.57,0.12-2.26,0.35
			s-1.31,0.56-1.88,0.97c-0.56,0.41-1.06,0.89-1.49,1.45s-0.79,1.15-1.09,1.79c-0.29,0.64-0.51,1.3-0.66,1.99
			c-0.15,0.68-0.22,1.36-0.22,2.03c0,0.74,0.11,1.4,0.32,1.95c0.21,0.56,0.52,1.03,0.92,1.41c0.4,0.37,0.88,0.66,1.46,0.85
			c0.57,0.19,1.21,0.29,1.91,0.29c0.47,0,0.94-0.05,1.41-0.14c0.46-0.1,0.89-0.24,1.29-0.43l0.87-4.33h-3.54
			c-0.12,0-0.21-0.05-0.28-0.14c-0.07-0.09-0.1-0.24-0.1-0.44c0-0.1,0.01-0.22,0.03-0.38c0.02-0.15,0.05-0.31,0.08-0.48
			s0.07-0.34,0.12-0.51s0.11-0.33,0.18-0.46c0.07-0.14,0.15-0.25,0.24-0.33c0.08-0.08,0.18-0.13,0.29-0.13h6.33
			c0.32,0,0.55,0.11,0.68,0.32c0.13,0.21,0.16,0.51,0.08,0.9l-1.51,7.5c-0.04,0.18-0.08,0.34-0.14,0.47
			c-0.06,0.13-0.14,0.25-0.23,0.36c-0.11,0.12-0.35,0.25-0.74,0.41c-0.39,0.16-0.86,0.32-1.41,0.47c-0.55,0.15-1.17,0.29-1.86,0.39
			c-0.69,0.1-1.39,0.16-2.1,0.16c-1.34,0-2.53-0.15-3.55-0.46s-1.88-0.77-2.57-1.38c-0.69-0.61-1.21-1.36-1.57-2.25
			c-0.36-0.89-0.54-1.91-0.54-3.07c0-1.04,0.11-2.07,0.34-3.07c0.23-1.01,0.57-1.96,1.01-2.86c0.45-0.9,1.01-1.74,1.67-2.51
			c0.66-0.77,1.43-1.43,2.3-1.99c0.87-0.56,1.85-1,2.92-1.31s2.24-0.47,3.52-0.47c0.71,0,1.37,0.06,2,0.17
			c0.63,0.11,1.19,0.25,1.69,0.41c0.5,0.16,0.91,0.33,1.25,0.51c0.34,0.18,0.56,0.33,0.67,0.43c0.11,0.1,0.19,0.22,0.23,0.34
			C500.96,502.43,500.98,502.59,500.98,502.77z"/>
		<path class="st1" d="M515.71,510.45c0,0.7-0.06,1.41-0.2,2.14c-0.13,0.73-0.33,1.45-0.62,2.15c-0.28,0.7-0.64,1.36-1.08,1.97
			c-0.44,0.61-0.97,1.15-1.58,1.62c-0.61,0.47-1.32,0.84-2.11,1.11c-0.79,0.27-1.69,0.41-2.68,0.41c-0.98,0-1.82-0.11-2.53-0.34
			c-0.71-0.23-1.3-0.56-1.78-1c-0.47-0.44-0.82-0.98-1.06-1.62c-0.23-0.64-0.35-1.38-0.35-2.21c0-0.7,0.06-1.41,0.2-2.14
			c0.13-0.73,0.33-1.45,0.62-2.14c0.28-0.7,0.64-1.36,1.08-1.98c0.44-0.62,0.97-1.17,1.58-1.63c0.61-0.46,1.32-0.83,2.11-1.1
			c0.79-0.27,1.69-0.41,2.68-0.41c0.98,0,1.82,0.11,2.53,0.34c0.71,0.23,1.3,0.56,1.78,1c0.47,0.44,0.82,0.98,1.06,1.62
			C515.59,508.88,515.71,509.62,515.71,510.45z M511.94,510.69c0-0.41-0.04-0.77-0.12-1.08c-0.08-0.31-0.22-0.58-0.41-0.8
			c-0.19-0.22-0.43-0.38-0.72-0.5s-0.66-0.17-1.08-0.17c-0.48,0-0.92,0.09-1.31,0.28c-0.39,0.19-0.73,0.44-1.03,0.76
			c-0.31,0.32-0.57,0.69-0.79,1.11c-0.22,0.42-0.41,0.86-0.55,1.33c-0.14,0.46-0.25,0.93-0.32,1.41c-0.07,0.48-0.1,0.93-0.1,1.37
			c0,0.41,0.04,0.77,0.12,1.09c0.08,0.32,0.22,0.59,0.41,0.8c0.19,0.22,0.43,0.38,0.72,0.5s0.66,0.17,1.08,0.17
			c0.48,0,0.92-0.09,1.31-0.28c0.39-0.19,0.73-0.44,1.03-0.77c0.31-0.32,0.57-0.7,0.79-1.12c0.22-0.42,0.41-0.86,0.55-1.33
			c0.14-0.47,0.25-0.94,0.32-1.41C511.91,511.58,511.94,511.13,511.94,510.69z"/>
		<path class="st1" d="M527.82,505.9c0,0.07-0.01,0.19-0.03,0.36s-0.05,0.38-0.09,0.61s-0.09,0.47-0.14,0.72
			c-0.06,0.25-0.12,0.48-0.2,0.69c-0.07,0.21-0.15,0.39-0.25,0.52c-0.09,0.14-0.19,0.2-0.3,0.2c-0.09,0-0.17-0.02-0.26-0.05
			c-0.08-0.03-0.18-0.07-0.29-0.1c-0.1-0.03-0.22-0.07-0.35-0.1c-0.12-0.03-0.27-0.05-0.43-0.05c-0.33,0-0.68,0.13-1.05,0.38
			c-0.37,0.25-0.73,0.58-1.07,0.99c-0.34,0.41-0.64,0.89-0.9,1.43s-0.45,1.12-0.57,1.72l-1.16,5.81c-0.02,0.1-0.07,0.18-0.14,0.25
			c-0.07,0.07-0.18,0.13-0.33,0.18c-0.15,0.05-0.35,0.08-0.59,0.11c-0.24,0.02-0.54,0.04-0.88,0.04c-0.36,0-0.65-0.01-0.88-0.04
			c-0.23-0.02-0.41-0.06-0.53-0.11c-0.13-0.05-0.22-0.11-0.25-0.18c-0.04-0.07-0.05-0.16-0.03-0.25l2.58-12.94
			c0.02-0.1,0.06-0.18,0.13-0.25c0.07-0.07,0.16-0.13,0.3-0.17c0.13-0.04,0.3-0.08,0.51-0.1s0.46-0.04,0.75-0.04
			c0.3,0,0.54,0.01,0.73,0.04c0.19,0.02,0.34,0.06,0.44,0.1c0.1,0.04,0.18,0.1,0.21,0.17c0.03,0.07,0.04,0.16,0.02,0.25l-0.41,2.06
			c0.23-0.42,0.5-0.8,0.8-1.15c0.31-0.35,0.63-0.65,0.97-0.9s0.7-0.46,1.07-0.6c0.37-0.14,0.73-0.22,1.09-0.22
			c0.14,0,0.29,0.01,0.44,0.03c0.15,0.02,0.29,0.04,0.42,0.07c0.13,0.03,0.25,0.06,0.35,0.11c0.1,0.04,0.18,0.09,0.24,0.14
			C527.79,505.68,527.82,505.77,527.82,505.9z"/>
		<path class="st1" d="M539.54,519.04c-0.04,0.2-0.19,0.35-0.46,0.43c-0.27,0.09-0.69,0.13-1.28,0.13c-0.3,0-0.54-0.01-0.73-0.03
			c-0.19-0.02-0.34-0.05-0.46-0.09c-0.12-0.04-0.19-0.1-0.23-0.17c-0.03-0.07-0.04-0.16-0.02-0.27l0.41-2.07
			c-0.14,0.31-0.37,0.64-0.7,0.98c-0.32,0.34-0.7,0.65-1.13,0.93c-0.44,0.28-0.92,0.51-1.44,0.7c-0.53,0.18-1.07,0.28-1.63,0.28
			c-0.77,0-1.42-0.14-1.93-0.41c-0.51-0.27-0.92-0.64-1.23-1.09c-0.31-0.46-0.53-0.98-0.66-1.57c-0.13-0.59-0.2-1.21-0.2-1.85
			c0-0.61,0.06-1.27,0.17-1.99c0.12-0.72,0.29-1.44,0.54-2.15c0.24-0.71,0.55-1.4,0.93-2.06c0.37-0.66,0.83-1.25,1.35-1.76
			c0.53-0.51,1.13-0.92,1.81-1.22c0.68-0.3,1.45-0.46,2.31-0.46c0.8,0,1.51,0.17,2.13,0.5c0.62,0.33,1.16,0.82,1.62,1.46l0.23-1.15
			c0.04-0.2,0.19-0.35,0.46-0.43c0.27-0.09,0.69-0.13,1.28-0.13c0.29,0,0.53,0.01,0.72,0.04s0.35,0.06,0.46,0.1
			c0.11,0.04,0.18,0.1,0.22,0.17c0.04,0.07,0.05,0.16,0.03,0.25L539.54,519.04z M537.75,509.97c-0.34-0.53-0.71-0.93-1.12-1.19
			c-0.41-0.27-0.88-0.4-1.43-0.4c-0.41,0-0.78,0.1-1.11,0.29c-0.34,0.19-0.64,0.45-0.9,0.77c-0.26,0.32-0.49,0.7-0.69,1.12
			s-0.36,0.87-0.49,1.33c-0.13,0.46-0.23,0.92-0.29,1.39c-0.06,0.47-0.1,0.9-0.1,1.3c0,0.29,0.02,0.56,0.07,0.82
			c0.04,0.26,0.12,0.49,0.24,0.7s0.27,0.37,0.46,0.49s0.44,0.18,0.74,0.18c0.43,0,0.86-0.13,1.31-0.38c0.44-0.26,0.86-0.6,1.24-1.04
			c0.39-0.44,0.73-0.95,1.02-1.54c0.29-0.58,0.51-1.21,0.64-1.88L537.75,509.97z"/>
		<path class="st1" d="M557.1,508.98c0,0.34-0.02,0.68-0.07,1.02c-0.04,0.34-0.1,0.68-0.16,1.04l-1.61,7.98
			c-0.02,0.1-0.06,0.18-0.14,0.25c-0.07,0.07-0.18,0.13-0.33,0.18c-0.15,0.05-0.34,0.08-0.58,0.11c-0.24,0.02-0.53,0.04-0.89,0.04
			s-0.65-0.01-0.88-0.04c-0.23-0.02-0.4-0.06-0.53-0.11c-0.12-0.05-0.21-0.11-0.25-0.18c-0.04-0.07-0.06-0.16-0.04-0.25l1.56-7.75
			c0.05-0.23,0.08-0.47,0.11-0.71s0.04-0.45,0.04-0.64c0-0.43-0.09-0.79-0.28-1.07c-0.18-0.28-0.49-0.42-0.93-0.42
			c-0.4,0-0.81,0.12-1.24,0.37c-0.43,0.25-0.84,0.59-1.22,1.02c-0.38,0.43-0.72,0.93-1.02,1.51c-0.3,0.58-0.51,1.19-0.64,1.83
			l-1.17,5.85c-0.02,0.1-0.07,0.18-0.14,0.25c-0.07,0.07-0.18,0.13-0.33,0.18c-0.15,0.05-0.35,0.08-0.59,0.11
			c-0.24,0.02-0.54,0.04-0.88,0.04c-0.36,0-0.65-0.01-0.88-0.04c-0.23-0.02-0.41-0.06-0.53-0.11c-0.13-0.05-0.22-0.11-0.25-0.18
			c-0.04-0.07-0.05-0.16-0.03-0.25l2.59-12.94c0.02-0.1,0.06-0.18,0.12-0.25c0.06-0.07,0.16-0.13,0.29-0.17
			c0.13-0.04,0.3-0.08,0.51-0.1s0.46-0.04,0.75-0.04c0.3,0,0.54,0.01,0.73,0.04c0.19,0.02,0.34,0.06,0.44,0.1
			c0.1,0.04,0.18,0.1,0.21,0.17c0.03,0.07,0.04,0.16,0.02,0.25l-0.42,2.13c0.2-0.34,0.47-0.68,0.81-1.04
			c0.34-0.35,0.73-0.67,1.17-0.95c0.44-0.28,0.92-0.51,1.44-0.69c0.52-0.18,1.05-0.27,1.61-0.27c0.68,0,1.24,0.1,1.7,0.3
			c0.46,0.2,0.83,0.47,1.12,0.8c0.29,0.34,0.49,0.73,0.62,1.18C557.04,508.01,557.1,508.48,557.1,508.98z"/>
		<path class="st1" d="M573.11,510.2c0,0.64-0.06,1.32-0.17,2.04c-0.12,0.72-0.29,1.44-0.53,2.16c-0.24,0.71-0.55,1.4-0.93,2.06
			c-0.38,0.66-0.83,1.24-1.36,1.74c-0.53,0.5-1.14,0.9-1.82,1.2c-0.68,0.3-1.44,0.45-2.28,0.45c-0.81,0-1.53-0.16-2.15-0.48
			c-0.62-0.32-1.16-0.8-1.62-1.45l-0.22,1.1c-0.04,0.2-0.19,0.35-0.46,0.44c-0.27,0.09-0.69,0.14-1.28,0.14
			c-0.58,0-0.97-0.05-1.18-0.14s-0.29-0.24-0.25-0.43l3.81-19.05c0.02-0.1,0.06-0.18,0.13-0.26c0.07-0.08,0.18-0.14,0.33-0.19
			c0.15-0.05,0.35-0.1,0.59-0.12c0.24-0.03,0.53-0.04,0.89-0.04c0.36,0,0.65,0.01,0.87,0.04c0.22,0.03,0.4,0.07,0.53,0.12
			c0.13,0.05,0.21,0.12,0.25,0.19c0.04,0.08,0.05,0.16,0.03,0.26l-1.03,5.18c-0.05,0.22-0.1,0.46-0.16,0.7
			c-0.06,0.25-0.12,0.49-0.2,0.73c-0.07,0.24-0.14,0.47-0.22,0.7c-0.07,0.23-0.14,0.43-0.21,0.6c0.17-0.31,0.42-0.62,0.75-0.93
			c0.32-0.31,0.69-0.6,1.11-0.85c0.41-0.25,0.86-0.45,1.34-0.61c0.48-0.15,0.96-0.23,1.44-0.23c0.55,0,1.03,0.07,1.44,0.21
			c0.41,0.14,0.76,0.33,1.06,0.57c0.3,0.24,0.55,0.53,0.74,0.85c0.19,0.33,0.35,0.67,0.46,1.04c0.12,0.36,0.19,0.74,0.24,1.12
			C573.09,509.46,573.11,509.83,573.11,510.2z M569.36,510.56c0-0.24-0.02-0.49-0.05-0.75c-0.03-0.26-0.11-0.5-0.22-0.71
			c-0.11-0.21-0.26-0.39-0.45-0.52c-0.19-0.13-0.45-0.2-0.77-0.2c-0.43,0-0.87,0.13-1.31,0.38c-0.44,0.26-0.85,0.61-1.24,1.05
			c-0.39,0.44-0.73,0.96-1.03,1.55c-0.3,0.59-0.51,1.22-0.64,1.89l-0.41,1.95c0.34,0.53,0.71,0.92,1.12,1.18
			c0.41,0.26,0.89,0.38,1.43,0.38c0.39,0,0.74-0.09,1.07-0.28c0.33-0.19,0.63-0.44,0.89-0.74c0.27-0.31,0.5-0.67,0.7-1.09
			c0.2-0.41,0.37-0.85,0.5-1.31c0.14-0.46,0.24-0.92,0.31-1.4C569.33,511.47,569.36,511.01,569.36,510.56z"/>
		<path class="st1" d="M588.77,510.45c0,0.7-0.06,1.41-0.2,2.14c-0.13,0.73-0.33,1.45-0.62,2.15s-0.64,1.36-1.08,1.97
			c-0.44,0.61-0.97,1.15-1.58,1.62c-0.61,0.47-1.32,0.84-2.11,1.11c-0.79,0.27-1.69,0.41-2.68,0.41c-0.98,0-1.82-0.11-2.53-0.34
			c-0.71-0.23-1.3-0.56-1.78-1c-0.47-0.44-0.82-0.98-1.06-1.62c-0.23-0.64-0.35-1.38-0.35-2.21c0-0.7,0.06-1.41,0.2-2.14
			c0.13-0.73,0.33-1.45,0.62-2.14c0.28-0.7,0.64-1.36,1.08-1.98c0.44-0.62,0.97-1.17,1.58-1.63c0.61-0.46,1.32-0.83,2.11-1.1
			c0.79-0.27,1.69-0.41,2.68-0.41c0.98,0,1.82,0.11,2.53,0.34c0.71,0.23,1.3,0.56,1.78,1c0.47,0.44,0.82,0.98,1.06,1.62
			C588.66,508.88,588.77,509.62,588.77,510.45z M585.01,510.69c0-0.41-0.04-0.77-0.12-1.08c-0.08-0.31-0.22-0.58-0.41-0.8
			c-0.19-0.22-0.43-0.38-0.72-0.5c-0.29-0.12-0.66-0.17-1.08-0.17c-0.48,0-0.92,0.09-1.31,0.28c-0.39,0.19-0.73,0.44-1.03,0.76
			c-0.31,0.32-0.57,0.69-0.79,1.11c-0.22,0.42-0.41,0.86-0.55,1.33c-0.14,0.46-0.25,0.93-0.32,1.41c-0.07,0.48-0.1,0.93-0.1,1.37
			c0,0.41,0.04,0.77,0.12,1.09c0.08,0.32,0.22,0.59,0.41,0.8c0.19,0.22,0.43,0.38,0.72,0.5c0.29,0.12,0.66,0.17,1.08,0.17
			c0.48,0,0.92-0.09,1.31-0.28c0.39-0.19,0.73-0.44,1.03-0.77c0.31-0.32,0.57-0.7,0.79-1.12c0.22-0.42,0.41-0.86,0.55-1.33
			c0.14-0.47,0.25-0.94,0.32-1.41C584.97,511.58,585.01,511.13,585.01,510.69z"/>
		<path class="st1" d="M603.8,506.06c0,0.12-0.02,0.27-0.04,0.42c-0.03,0.15-0.07,0.31-0.13,0.48c-0.33,0.89-0.68,1.81-1.07,2.75
			c-0.38,0.95-0.82,1.92-1.31,2.92c-0.49,1.01-1.05,2.04-1.68,3.12c-0.63,1.07-1.35,2.18-2.16,3.33l-3.54,5.01
			c-0.08,0.12-0.19,0.23-0.33,0.31c-0.13,0.08-0.29,0.15-0.49,0.2c-0.2,0.05-0.44,0.09-0.72,0.12c-0.28,0.03-0.6,0.04-0.97,0.04
			c-0.41,0-0.75-0.02-1.01-0.05c-0.26-0.03-0.44-0.09-0.56-0.17c-0.12-0.08-0.17-0.17-0.16-0.29c0.01-0.12,0.08-0.26,0.21-0.42
			l3.29-4.33l-2.13-12.43c-0.02-0.12-0.04-0.26-0.06-0.39c-0.02-0.14-0.03-0.25-0.03-0.35c0-0.17,0.03-0.31,0.1-0.42
			c0.06-0.11,0.17-0.19,0.32-0.25s0.35-0.1,0.6-0.12c0.25-0.02,0.55-0.04,0.91-0.04c0.4,0,0.71,0.01,0.93,0.02
			c0.23,0.01,0.4,0.04,0.51,0.09s0.2,0.12,0.24,0.22c0.04,0.1,0.08,0.22,0.09,0.36l1.33,9.06h0.03c0.48-0.73,0.92-1.46,1.32-2.2
			c0.4-0.74,0.76-1.5,1.09-2.27c0.33-0.77,0.63-1.54,0.91-2.33c0.27-0.79,0.53-1.58,0.76-2.38c0.02-0.1,0.06-0.18,0.13-0.25
			c0.07-0.07,0.18-0.13,0.34-0.17c0.16-0.04,0.37-0.08,0.63-0.1c0.26-0.02,0.6-0.04,1.01-0.04c0.62,0,1.04,0.04,1.27,0.12
			C603.68,505.71,603.8,505.85,603.8,506.06z"/>
	</g>
	<g>
		<path class="st1" d="M408.94,624.48c-0.04,0.22-0.11,0.42-0.23,0.59c-0.11,0.17-0.24,0.32-0.39,0.44
			c-0.15,0.12-0.31,0.2-0.49,0.25c-0.18,0.05-0.36,0.08-0.56,0.08h-1.62c-0.35,0-0.63-0.03-0.86-0.1c-0.22-0.07-0.41-0.19-0.57-0.36
			c-0.16-0.17-0.3-0.41-0.43-0.71c-0.12-0.3-0.26-0.68-0.39-1.14l-2.77-8.37c-0.21-0.65-0.41-1.3-0.59-1.96
			c-0.18-0.66-0.35-1.31-0.51-1.95h-0.03c-0.1,0.76-0.21,1.51-0.33,2.25c-0.12,0.74-0.27,1.48-0.42,2.22l-1.91,9.58
			c-0.02,0.1-0.06,0.18-0.14,0.26c-0.07,0.08-0.18,0.14-0.33,0.19c-0.14,0.05-0.33,0.08-0.56,0.12c-0.23,0.03-0.51,0.04-0.85,0.04
			c-0.34,0-0.62-0.02-0.83-0.04c-0.22-0.03-0.38-0.07-0.5-0.12c-0.12-0.05-0.19-0.11-0.23-0.19c-0.03-0.08-0.04-0.16-0.01-0.26
			l3.37-16.86c0.09-0.45,0.29-0.79,0.59-1.02c0.31-0.23,0.66-0.34,1.04-0.34h1.99c0.32,0,0.59,0.04,0.82,0.11
			c0.23,0.07,0.42,0.19,0.58,0.35c0.16,0.16,0.3,0.36,0.42,0.62c0.12,0.25,0.23,0.56,0.34,0.93l2.8,8.45
			c0.18,0.54,0.35,1.08,0.5,1.61c0.15,0.53,0.31,1.06,0.47,1.59h0.03c0.11-0.7,0.23-1.41,0.36-2.15c0.13-0.74,0.26-1.46,0.4-2.15
			l1.78-8.84c0.02-0.1,0.06-0.18,0.13-0.25c0.07-0.07,0.17-0.13,0.31-0.17c0.14-0.04,0.32-0.08,0.54-0.1
			c0.22-0.02,0.5-0.04,0.84-0.04c0.34,0,0.62,0.01,0.84,0.04c0.22,0.02,0.39,0.06,0.51,0.1c0.12,0.04,0.19,0.1,0.23,0.17
			c0.04,0.07,0.05,0.16,0.03,0.25L408.94,624.48z"/>
		<path class="st1" d="M424.65,625.34c-0.04,0.2-0.19,0.35-0.46,0.43c-0.27,0.09-0.69,0.13-1.28,0.13c-0.3,0-0.54-0.01-0.73-0.03
			c-0.19-0.02-0.34-0.05-0.46-0.09c-0.12-0.04-0.19-0.1-0.23-0.17c-0.03-0.07-0.04-0.16-0.02-0.27l0.41-2.07
			c-0.14,0.31-0.37,0.64-0.7,0.98c-0.32,0.34-0.7,0.65-1.13,0.93c-0.44,0.28-0.92,0.51-1.44,0.7c-0.53,0.18-1.07,0.28-1.63,0.28
			c-0.77,0-1.42-0.14-1.93-0.41c-0.51-0.27-0.92-0.64-1.23-1.09c-0.31-0.46-0.53-0.98-0.66-1.57c-0.13-0.59-0.2-1.21-0.2-1.85
			c0-0.61,0.06-1.27,0.17-1.99c0.12-0.72,0.29-1.44,0.54-2.15c0.24-0.71,0.55-1.4,0.93-2.06c0.37-0.66,0.83-1.25,1.35-1.76
			c0.53-0.51,1.13-0.92,1.81-1.22c0.68-0.3,1.45-0.46,2.31-0.46c0.8,0,1.51,0.17,2.13,0.5c0.62,0.33,1.16,0.82,1.62,1.46l0.23-1.15
			c0.04-0.2,0.19-0.35,0.46-0.43c0.27-0.09,0.69-0.13,1.28-0.13c0.29,0,0.53,0.01,0.72,0.04c0.19,0.02,0.35,0.06,0.46,0.1
			c0.11,0.04,0.18,0.1,0.22,0.17c0.04,0.07,0.05,0.16,0.03,0.25L424.65,625.34z M422.86,616.27c-0.34-0.53-0.71-0.93-1.12-1.19
			c-0.41-0.27-0.88-0.4-1.43-0.4c-0.41,0-0.78,0.1-1.11,0.29c-0.34,0.19-0.64,0.45-0.9,0.77c-0.26,0.32-0.49,0.7-0.69,1.12
			s-0.36,0.87-0.49,1.33c-0.13,0.46-0.23,0.92-0.29,1.39c-0.06,0.47-0.1,0.9-0.1,1.3c0,0.29,0.02,0.56,0.07,0.82
			c0.04,0.26,0.12,0.49,0.24,0.7s0.27,0.37,0.46,0.49s0.44,0.18,0.74,0.18c0.43,0,0.86-0.13,1.31-0.38c0.44-0.26,0.86-0.6,1.24-1.04
			c0.39-0.44,0.73-0.95,1.02-1.54s0.51-1.21,0.64-1.88L422.86,616.27z"/>
		<path class="st1" d="M446.92,612.53c0,0.1-0.01,0.22-0.02,0.37c-0.01,0.15-0.04,0.31-0.08,0.49c-0.04,0.17-0.08,0.35-0.14,0.52
			c-0.06,0.17-0.12,0.33-0.19,0.47c-0.07,0.14-0.15,0.26-0.24,0.35c-0.09,0.09-0.2,0.14-0.31,0.14h-2.83l-1.22,6.07
			c-0.02,0.14-0.04,0.31-0.06,0.51c-0.02,0.2-0.04,0.36-0.04,0.49c0,0.39,0.09,0.67,0.27,0.85c0.18,0.18,0.47,0.27,0.87,0.27
			c0.23,0,0.43-0.02,0.59-0.05c0.16-0.03,0.3-0.07,0.43-0.12c0.12-0.04,0.23-0.08,0.32-0.12c0.09-0.03,0.17-0.05,0.25-0.05
			c0.08,0,0.14,0.04,0.2,0.11c0.05,0.07,0.08,0.19,0.08,0.35c0,0.18-0.02,0.39-0.06,0.62c-0.04,0.23-0.09,0.46-0.15,0.68
			c-0.06,0.22-0.13,0.41-0.21,0.59c-0.08,0.18-0.16,0.31-0.25,0.4c-0.09,0.09-0.22,0.17-0.4,0.25c-0.18,0.08-0.39,0.15-0.62,0.21
			c-0.24,0.06-0.49,0.1-0.75,0.14c-0.27,0.03-0.54,0.05-0.82,0.05c-0.58,0-1.09-0.06-1.53-0.18c-0.44-0.12-0.81-0.31-1.11-0.57
			c-0.3-0.26-0.52-0.59-0.67-1c-0.14-0.41-0.22-0.9-0.22-1.48c0-0.1,0.01-0.23,0.02-0.37c0.01-0.14,0.02-0.29,0.04-0.44
			c0.02-0.15,0.04-0.31,0.07-0.47c0.02-0.16,0.05-0.3,0.08-0.43l1.26-6.3h-4.74l-2.28,11.36c-0.16,0.8-0.39,1.51-0.67,2.12
			c-0.29,0.61-0.64,1.12-1.08,1.53c-0.43,0.41-0.95,0.72-1.54,0.93c-0.59,0.21-1.27,0.31-2.02,0.31c-0.5,0-0.92-0.04-1.26-0.12
			c-0.34-0.08-0.56-0.15-0.65-0.23c-0.05-0.06-0.08-0.12-0.1-0.19c-0.02-0.07-0.03-0.16-0.03-0.29c0-0.06,0.01-0.15,0.02-0.29
			c0.01-0.14,0.04-0.28,0.06-0.44c0.03-0.16,0.06-0.33,0.11-0.5c0.04-0.17,0.09-0.33,0.14-0.48c0.05-0.14,0.11-0.26,0.18-0.35
			c0.07-0.09,0.14-0.14,0.23-0.14c0.06,0,0.12,0,0.17,0.01c0.06,0.01,0.12,0.02,0.19,0.04c0.07,0.01,0.15,0.03,0.24,0.04
			c0.09,0.01,0.21,0.02,0.35,0.02c0.31,0,0.58-0.05,0.8-0.14c0.23-0.09,0.42-0.23,0.59-0.43s0.3-0.44,0.42-0.75
			c0.12-0.3,0.22-0.67,0.31-1.11l2.19-10.89h-1.62c-0.12,0-0.21-0.04-0.27-0.12s-0.09-0.24-0.09-0.47c0-0.1,0.01-0.22,0.02-0.38
			c0.01-0.15,0.04-0.32,0.07-0.49c0.03-0.17,0.08-0.35,0.12-0.53c0.05-0.18,0.11-0.34,0.19-0.48c0.08-0.14,0.16-0.26,0.25-0.35
			c0.09-0.09,0.2-0.14,0.33-0.14h1.59l0.27-1.44c0.16-0.81,0.38-1.52,0.68-2.14c0.3-0.62,0.67-1.13,1.11-1.55
			c0.44-0.41,0.96-0.73,1.55-0.93c0.59-0.21,1.27-0.31,2.02-0.31c0.25,0,0.49,0.01,0.73,0.04s0.45,0.06,0.64,0.09
			c0.19,0.04,0.36,0.09,0.5,0.15c0.14,0.06,0.24,0.12,0.3,0.17c0.05,0.05,0.09,0.11,0.12,0.19c0.03,0.08,0.04,0.19,0.04,0.33
			c0,0.06-0.01,0.15-0.02,0.28c-0.01,0.13-0.04,0.28-0.06,0.44c-0.03,0.16-0.06,0.33-0.1,0.51c-0.04,0.17-0.08,0.34-0.14,0.49
			c-0.05,0.15-0.11,0.27-0.18,0.36c-0.07,0.09-0.13,0.14-0.2,0.14c-0.07,0-0.14-0.01-0.22-0.04c-0.08-0.02-0.17-0.05-0.28-0.09
			c-0.11-0.03-0.24-0.06-0.38-0.1c-0.14-0.03-0.3-0.04-0.49-0.04c-0.3,0-0.56,0.04-0.79,0.13c-0.23,0.08-0.42,0.22-0.58,0.41
			c-0.16,0.19-0.3,0.43-0.41,0.73c-0.12,0.3-0.21,0.66-0.29,1.07l-0.2,1.1h4.75l0.58-2.88c0.02-0.1,0.06-0.18,0.14-0.26
			c0.07-0.08,0.18-0.14,0.33-0.2c0.14-0.05,0.34-0.09,0.58-0.12s0.53-0.04,0.88-0.04c0.36,0,0.65,0.01,0.88,0.04
			s0.41,0.06,0.53,0.12c0.13,0.05,0.22,0.12,0.26,0.2c0.04,0.08,0.06,0.16,0.04,0.26l-0.58,2.88h2.8c0.15,0,0.26,0.05,0.32,0.16
			C446.89,612.17,446.92,612.33,446.92,612.53z"/>
		<path class="st1" d="M458.7,625.34c-0.04,0.2-0.19,0.35-0.46,0.43c-0.27,0.09-0.69,0.13-1.28,0.13c-0.3,0-0.54-0.01-0.73-0.03
			c-0.19-0.02-0.34-0.05-0.46-0.09c-0.12-0.04-0.19-0.1-0.23-0.17c-0.03-0.07-0.04-0.16-0.02-0.27l0.41-2.07
			c-0.14,0.31-0.37,0.64-0.7,0.98c-0.32,0.34-0.7,0.65-1.13,0.93c-0.44,0.28-0.92,0.51-1.44,0.7c-0.53,0.18-1.07,0.28-1.63,0.28
			c-0.77,0-1.42-0.14-1.93-0.41c-0.51-0.27-0.92-0.64-1.23-1.09c-0.31-0.46-0.53-0.98-0.66-1.57c-0.13-0.59-0.2-1.21-0.2-1.85
			c0-0.61,0.06-1.27,0.17-1.99c0.12-0.72,0.29-1.44,0.54-2.15c0.24-0.71,0.55-1.4,0.93-2.06c0.37-0.66,0.83-1.25,1.35-1.76
			c0.53-0.51,1.13-0.92,1.81-1.22c0.68-0.3,1.45-0.46,2.31-0.46c0.8,0,1.51,0.17,2.13,0.5c0.62,0.33,1.16,0.82,1.62,1.46l0.23-1.15
			c0.04-0.2,0.19-0.35,0.46-0.43c0.27-0.09,0.69-0.13,1.28-0.13c0.29,0,0.53,0.01,0.72,0.04c0.19,0.02,0.35,0.06,0.46,0.1
			c0.11,0.04,0.18,0.1,0.22,0.17c0.04,0.07,0.05,0.16,0.03,0.25L458.7,625.34z M456.9,616.27c-0.34-0.53-0.71-0.93-1.12-1.19
			s-0.88-0.4-1.43-0.4c-0.41,0-0.78,0.1-1.11,0.29c-0.34,0.19-0.64,0.45-0.9,0.77c-0.26,0.32-0.49,0.7-0.69,1.12
			c-0.2,0.43-0.36,0.87-0.49,1.33c-0.13,0.46-0.23,0.92-0.29,1.39c-0.06,0.47-0.1,0.9-0.1,1.3c0,0.29,0.02,0.56,0.07,0.82
			c0.04,0.26,0.12,0.49,0.24,0.7s0.27,0.37,0.46,0.49c0.19,0.12,0.44,0.18,0.74,0.18c0.43,0,0.86-0.13,1.31-0.38
			c0.44-0.26,0.86-0.6,1.24-1.04c0.39-0.44,0.73-0.95,1.02-1.54s0.51-1.21,0.64-1.88L456.9,616.27z"/>
		<path class="st1" d="M466,625.32c-0.02,0.1-0.07,0.18-0.14,0.25c-0.07,0.07-0.18,0.13-0.33,0.18c-0.15,0.05-0.34,0.08-0.58,0.11
			c-0.24,0.02-0.54,0.04-0.88,0.04c-0.37,0-0.66-0.01-0.89-0.04c-0.23-0.02-0.4-0.06-0.53-0.11c-0.12-0.05-0.21-0.11-0.25-0.18
			c-0.04-0.07-0.06-0.16-0.04-0.25l3.81-19.05c0.02-0.1,0.06-0.18,0.13-0.26c0.07-0.08,0.18-0.14,0.33-0.19
			c0.15-0.05,0.35-0.1,0.59-0.12c0.24-0.03,0.53-0.04,0.89-0.04c0.36,0,0.65,0.01,0.88,0.04c0.23,0.03,0.4,0.07,0.53,0.12
			c0.12,0.05,0.21,0.12,0.25,0.19c0.04,0.08,0.05,0.16,0.03,0.26L466,625.32z"/>
		<path class="st1" d="M481.65,625.34c-0.04,0.2-0.19,0.35-0.46,0.43c-0.27,0.09-0.69,0.13-1.28,0.13c-0.3,0-0.54-0.01-0.73-0.03
			c-0.19-0.02-0.34-0.05-0.46-0.09c-0.12-0.04-0.19-0.1-0.23-0.17c-0.03-0.07-0.04-0.16-0.02-0.27l0.41-2.07
			c-0.14,0.31-0.37,0.64-0.7,0.98c-0.32,0.34-0.7,0.65-1.13,0.93c-0.44,0.28-0.92,0.51-1.44,0.7c-0.53,0.18-1.07,0.28-1.63,0.28
			c-0.77,0-1.42-0.14-1.93-0.41c-0.51-0.27-0.92-0.64-1.23-1.09c-0.31-0.46-0.53-0.98-0.66-1.57c-0.13-0.59-0.2-1.21-0.2-1.85
			c0-0.61,0.06-1.27,0.17-1.99c0.12-0.72,0.29-1.44,0.54-2.15c0.24-0.71,0.55-1.4,0.93-2.06c0.37-0.66,0.83-1.25,1.35-1.76
			c0.53-0.51,1.13-0.92,1.81-1.22c0.68-0.3,1.45-0.46,2.31-0.46c0.8,0,1.51,0.17,2.13,0.5c0.62,0.33,1.16,0.82,1.62,1.46l0.23-1.15
			c0.04-0.2,0.19-0.35,0.46-0.43c0.27-0.09,0.69-0.13,1.28-0.13c0.29,0,0.53,0.01,0.72,0.04c0.19,0.02,0.35,0.06,0.46,0.1
			c0.11,0.04,0.18,0.1,0.22,0.17c0.04,0.07,0.05,0.16,0.03,0.25L481.65,625.34z M479.85,616.27c-0.34-0.53-0.71-0.93-1.12-1.19
			c-0.41-0.27-0.88-0.4-1.43-0.4c-0.41,0-0.78,0.1-1.11,0.29c-0.34,0.19-0.64,0.45-0.9,0.77c-0.26,0.32-0.49,0.7-0.69,1.12
			s-0.36,0.87-0.49,1.33c-0.13,0.46-0.23,0.92-0.29,1.39c-0.06,0.47-0.1,0.9-0.1,1.3c0,0.29,0.02,0.56,0.07,0.82
			c0.04,0.26,0.12,0.49,0.24,0.7c0.12,0.2,0.27,0.37,0.46,0.49s0.44,0.18,0.74,0.18c0.43,0,0.86-0.13,1.31-0.38
			c0.44-0.26,0.86-0.6,1.24-1.04c0.39-0.44,0.73-0.95,1.02-1.54s0.51-1.21,0.64-1.88L479.85,616.27z"/>
		<path class="st1" d="M499.21,615.28c0,0.34-0.02,0.68-0.07,1.02c-0.04,0.34-0.1,0.68-0.16,1.04l-1.61,7.98
			c-0.02,0.1-0.06,0.18-0.14,0.25c-0.07,0.07-0.18,0.13-0.33,0.18c-0.15,0.05-0.34,0.08-0.58,0.11c-0.24,0.02-0.53,0.04-0.89,0.04
			c-0.36,0-0.65-0.01-0.88-0.04c-0.23-0.02-0.4-0.06-0.53-0.11c-0.12-0.05-0.21-0.11-0.25-0.18c-0.04-0.07-0.06-0.16-0.04-0.25
			l1.56-7.75c0.05-0.23,0.08-0.47,0.11-0.71s0.04-0.45,0.04-0.64c0-0.43-0.09-0.79-0.28-1.07c-0.18-0.28-0.49-0.42-0.93-0.42
			c-0.4,0-0.81,0.12-1.24,0.37c-0.43,0.25-0.84,0.59-1.22,1.02c-0.38,0.43-0.72,0.93-1.02,1.51s-0.51,1.19-0.64,1.83l-1.17,5.85
			c-0.02,0.1-0.07,0.18-0.14,0.25c-0.07,0.07-0.18,0.13-0.33,0.18c-0.15,0.05-0.35,0.08-0.59,0.11c-0.24,0.02-0.54,0.04-0.88,0.04
			c-0.36,0-0.65-0.01-0.88-0.04c-0.23-0.02-0.41-0.06-0.53-0.11c-0.13-0.05-0.22-0.11-0.25-0.18c-0.04-0.07-0.05-0.16-0.03-0.25
			l2.59-12.94c0.02-0.1,0.06-0.18,0.12-0.25c0.06-0.07,0.16-0.13,0.29-0.17c0.13-0.04,0.3-0.08,0.51-0.1
			c0.21-0.02,0.46-0.04,0.75-0.04c0.3,0,0.54,0.01,0.73,0.04c0.19,0.02,0.34,0.06,0.44,0.1c0.1,0.04,0.18,0.1,0.21,0.17
			c0.03,0.07,0.04,0.16,0.02,0.25l-0.42,2.13c0.2-0.34,0.47-0.68,0.81-1.04s0.73-0.67,1.17-0.95c0.44-0.28,0.92-0.51,1.44-0.69
			c0.52-0.18,1.05-0.27,1.61-0.27c0.68,0,1.24,0.1,1.7,0.3c0.46,0.2,0.83,0.47,1.12,0.8c0.29,0.34,0.49,0.73,0.62,1.18
			C499.14,614.31,499.21,614.78,499.21,615.28z"/>
	</g>
</g>
</svg>
