<?xml version="1.0" encoding="UTF-8"?>
<svg xmlns="http://www.w3.org/2000/svg" version="1.1" viewBox="0 0 841.89 595.28">
  <defs>
    <style>
      .cls-1 {
        fill: #42655f;
      }
    </style>
  </defs>
  <!-- Generator: Adobe Illustrator 28.6.0, SVG Export Plug-In . SVG Version: 1.2.0 Build 709)  -->
  <g>
    <g id="Layer_1">
      <path id="Path_2085" class="cls-1" d="M273.96,62.83c-4.44,3.11-9.77,5.55-11.55,5.55-2,0-3.55,1.11-3.55,2.66,0,6.22,10.66,13.1,30.87,19.76,20.87,6.89,21.76,7.33,41.53,27.54,25.31,25.32,27.31,30.87,15.32,43.3-7.11,7.11-7.99,9.33-6.66,15.1.86,4.44.23,9.05-1.78,13.1-1.99,3.74-2.77,8.01-2.22,12.21.67,4-.44,8.22-3.55,12.66-5.55,7.77-5.78,11.99-1.11,15.76,7.55,6.44,7.77,10.21.89,17.54-6.22,6.44-6.66,7.99-6.66,23.76,0,9.1-.89,18.43-2.22,20.65-1.11,2.22-7.55,8.21-14.21,13.32-11.1,8.21-13.55,9.1-23.54,8.88-11.99-.45-14.65.89-15.99,7.99-.44,3.33-2.66,4.66-8.88,5.11-6.44.44-9.55-.67-15.76-5.99-9.32-8.22-10.44-8.44-10.44-1.56,0,3.33-2.66,7.77-7.11,11.33-6.66,5.55-8.22,5.99-19.98,4.66-7.11-.67-12.88-.89-12.88-.44s1.55,4.22,3.33,8.66c4.66,11.32,1.78,26.2-5.99,29.75-3.11,1.56-9.99,8.44-15.1,15.32l-9.32,12.43,3.55,12.88c2.66,9.77,3.11,14.21,1.33,18.87-2,5.33-1.55,7.11,3.33,12.21,7.99,8.22,9.1,18.88,3.55,29.76-2.66,4.88-4.22,9.1-3.77,9.55s17.32,1.33,37.75,2c31.09.89,37.97.44,43.96-2.66,9.55-4.89,18.21-4.44,35.97,2.22,9.32,3.55,19.76,5.78,26.87,5.78,6.66,0,14.66,1.33,18.21,3.11,10.88,5.33,35.53,12.43,43.08,12.43,5.33,0,8.88-2,15.1-8.88,4.89-5.33,10.88-9.32,15.32-10.21,4.88-.89,7.11-2.66,7.11-5.55,0-2.22,3.33-6.22,7.33-8.88,4.96-3.57,9.71-7.42,14.21-11.55,4.96-4.37,11.03-7.29,17.54-8.44,6.22-1.11,13.1-4.22,16.43-7.55,7.77-7.55,20.21-12.21,32.64-12.21,6.39-.1,12.75-1.07,18.88-2.89,7.55-2.66,7.99-3.33,4.66-6.44-4.22-4.44-2.22-10.65,3.55-10.65,2.66,0,4.66-2,5.78-6,.89-3.55,2.44-7.55,3.78-8.88,3.11-3.77,9.99-3.55,12.21.45,2.89,4.88,39.52-13.77,39.52-19.99,0-5.55-8.21-7.11-12.21-2.22-6.22,7.55-21.76,1.33-19.32-7.77.89-3.33-.22-7.11-3.11-10.66-8.66-11.1-4-22.65,9.1-22.65,9.1,0,13.1-2.89,8.44-5.99-1.56-.89-7.77-1.78-13.99-1.78-10.88,0-11.1,0-12.21-7.77-1.55-9.99-5.99-10.66-16.65-2.22-8.66,6.89-18.21,8.66-22.87,4-4.89-4.89-2.89-10.66,4.88-13.98,4.52-1.8,8.07-5.43,9.77-9.99,1.33-3.78,4-7.33,6-7.99,1.94-.87,3.22-2.76,3.33-4.88,0-2.66-.67-2.89-2.66-.89-3.78,3.77-11.77,3.33-15.1-.89-3.07-2.64-6.51-4.81-10.22-6.44-8.88-3.55-11.99-11.77-6.22-15.99,2.03-1.5,4.39-2.49,6.89-2.89,2.22,0,2.66-5.78,2.44-26.2-.37-15.7.07-31.42,1.33-47.08l2-21.33-10.44-12.88c-10.22-12.43-10.44-13.1-7.77-19.76,4.44-10.44,4.22-12.21-.89-18.43-4.66-5.11-6.22-5.55-25.76-5.55-13.1,0-23.98-1.33-28.65-3.33-15.32-6.22-19.1-4.44-29.31,14.43-8.44,15.55-17.54,14.44-19.76-2.44l-1.33-9.55-12.43-1.33c-15.1-1.55-19.54-4.44-37.09-24.2-12.21-13.55-15.1-15.55-21.76-15.55-4.22,0-13.32-2-20.22-4.44-15.97-5.55-15.75-5.55-25.52,1.11Z"/>
    </g>
  </g>
</svg>