<?xml version="1.0" encoding="UTF-8"?>
<svg id="Layer_1" data-name="Layer 1" xmlns="http://www.w3.org/2000/svg" viewBox="0 0 750 750">
  <g>
    <path class="cls-1" d="m424.55,204.68c0,2.68,1.24,5.51,2.12,7.98.6,1.7,3.72,11.36-.4,11.25-1.38-.04-3.77-3.65-5.1-4.39-1.79-1-3.84-1.13-5.5-2.37-1.6-1.19-1.73-2.92-2.99-4.27-1.28-1.37-3.48-.82-5.17-.82-3.77.01-9.08-1.22-11.72,2.02-3.71,4.54-6.51,10.87-.75,15.18,5.08,3.81,6.45,9.55,6.41,15.73-.02,3.13.71,6.33-1.49,8.77-1.41,1.56-3.33,3.43-5.06,4.69-1.47,1.08-3.19,1.37-4.82,2.11-4.51,2.03-9.37,5.12-14.46,5.32-1.38.06-2.74-.18-4.12,0-1.49.2-2.86.88-4.32,1.22-4.24,1-7.5,3.41-9.93,6.92-2.26,3.25-5.45,5.11-6.95,8.98-3.44,8.89-2.57,22.48-12.13,27.66-3.03,1.64-6.6,2.09-9.77.71-2.53-1.1-5.14-1.51-7.95-1.49-1.83.01-3.84-.23-5.66.03-2.08.3-4.02,1.35-5.92,2.21-3.18,1.45-7.34,3.5-10.86,3.77-.77.06-1.66-.34-2.54-.98-.84,1.3-2.34,2.54-2.68,3.94-.38,1.57-.83,2.59-1.1,4.09-.33,1.85-.69,3.32-.76,5.25-.12,3.16-1.7,6.82-.61,10.09.82,2.47,3.93,3.69,5.64,5.4,2.11,2.11,3.54,4.88,5.23,7.3.7,1,1.61,1.87,2.43,2.79.84.94,1.77,2.65,2.78,3.39,1.27.94,2.16.49,3.36-.37,1.69-1.21,3.61-2.81,5.09-4.33.66-.67,1.14-1.68,1.83-2.28.51-.44.95-.44,1.47-.77,1.21-.75,2.59-2.45,3.97-2.86.68,3.53,1.59,9.11,4.71,11.28.21-.29.4-.59.53-.9-.14.31-.33.61-.53.9.22.15.45.29.69.4,4.46,2.16,10.95,2.41,14.56,5.85,1.52,1.45,2.41,3.5,4.11,4.83,1.89,1.47,4.49,2.79,6.76,3.53,2.71.88,4.09,1.73,5.41,4.5.76,1.6.52,3.48.53,5.36.05,7.55-2.3,14.91-2.24,22.41.02,1.94-.07,3.59-.38,5.49-.17,1.06-.86,1.78.32,2.61.07.05.18.09.27.14.31-.3.6-.59.87-.86-.27.27-.57.56-.87.86,1.2.58,3.81.62,4.82.88,2.45.61,4.41,2.19,6.43,3.64,1.16.83,2.25,1.86,3.55,2.42,2.53,1.09,5.46.22,8.1.68,2.51.44,3.76,2.08,4.72,4.33.92,2.14,1.07,4.71,2.83,6.35,2.98,2.77,6.47,2.89,10.33,3.72,2.34.5,4.24,1.19,6.36,2.27,1.6.81,3.09,1.42,4.96,1.2,2.38-.28,3.43-2.52,5.18-4.04,1.68-1.46,3.06-3.04,4.55-4.65,1.08-1.17,2.41-2.27,3.76-3.14,2.44-1.57,4.94-3.31,7.44-4.78,4.17-2.46,8.08-5.13,12.52-7.27,5.05-2.42,9.92-4.78,15.12-6.85,2.5-1,5.56-1.49,7.85-2.97,1.78-1.15,1.9-2.85,2.33-4.87.71-3.33,2.79-6.56,4.82-9.32,4.04-5.49,9.95-9.65,16.75-10.82,3.35-.58,6.68-1.01,10.07-.65,3,.32,4.27.95,6.63,2.5,3.2,2.1,6.6,4.13,10.35,5.06,2,.5,3.41,1.32,4.9,2.5,1.41,1.12,2.43,2.17,3.65-.02.58-1.04.58-2.37.89-3.5.42-1.5.87-2.95,1.23-4.46.88-3.71-.18-7.62.63-11.22.45-2.01,1.42-4.11,1.54-6.42.07-1.26-.12-2.36.14-3.64.21-1.03.68-1.89.66-2.99-.05-2.19-1.03-5.03-1.5-7.19-1.27-5.88-5.38-10.75-7-16.56-.93-3.35-.49-7-.94-10.43-.51-3.88.28-8.47,1.27-12.25,1.07-4.09,2.64-8.08,3.12-12.32.36-3.14-1.89-3.98-4.34-5.79-2.91-2.15-5.37-4.51-8.62-6.14-3.36-1.7-4.79-4.39-7.41-6.95-1.81-1.77-4.1-2.72-6.1-4.27-2.38-1.85-3.13-4.1-3.57-7.07-.3-2.02,0-3.8-.09-5.77-.08-1.66-.55-3.25-.71-4.89-.33-3.39-.29-7.3.09-10.69.37-3.33,1.08-6.16,2.48-9.17.79-1.69,1.14-3.52,2-5.17,1.82-3.46.41.01,3.87-7.26-1.23-.46-2.53-.63-4.02-1.12-5.18-1.72-7.1-7.09-11.24-10.16-3.42-2.54-7.41,1.5-10.59,3-2.78,1.32-4.5,3.31-6.92,5.06-2.48,1.79-5.1,3.38-7.88,4.68-2.07.97-3.59,2.01-5.57.55-1.46-1.08-2.1-2.43-2.7-4.05-.53-1.45-1.05-3.03-1.95-4.38-1.11-1.67-2.75-3-4.26-4.3-2.55-2.22-5.48-4.03-7.75-6.72-1.42-1.67-2.78-3.45-4.04-5.21-.28-.38-.38-.54-.43-.64-2.8.41-5.42,1.46-8.32,1.39-1.78-.05-2.34-.3-2.34,1.58Z"/>
    <path class="cls-1" d="m707.96,207.91c-1.04-1.18-1.59-2.34-3.29-2.61-.88-.14-1.76.06-2.67-.13-.68-.14-1.01-.51-1.81-.6-1.4-.16-2.49.41-3.59-.68-.72-.7-1.23-1.89-2.02-2.67-.63-.62-1.21-1.18-1.92-1.71-2.34-1.73-5.32-.88-8.09-.15-2.67.7-4.91,1.09-7.63.22-1.68-.54-2.01-1.58-3.59-1.77-.93-.11-2.11.61-3.06.74-.97.13-2.06.21-3.04.09-2.11-.25-2.56-2.11-3.66-3.93-2.35-3.9-4.16-7.83-6.74-11.57-1.51-2.19-1.93-3.76-4.7-4.19-3.08-.49-6.44.18-9.56.26-4.13.1-11.55,4.18-13.94-.73-1.58-3.25-2.86-6.25-5.42-8.81-1.66-1.66-2.16-2.69-2.23-5.21-.06-2.14.42-3.98.7-6.07.26-1.96.06-4.02.06-6,0-2.55.37-5.41-.17-7.94-1.05-4.9-2.4-9.41-5.06-13.85-1.62-2.71-3.04-3.69-5.98-3.67-1.79.01-2.86-.18-4.39.68-2.79,1.56-5.39,3.27-8.27,4.68-6.83,3.36-10.32,9.75-15.29,15.09-2.22,2.39-4.97,4.13-7.23,6.45-1.04,1.07-1.85,2.35-2.92,3.38-1.19,1.15-2.38,1.95-3.32,3.33-.73,1.09-1.08,2.22-2.03,3.18-2.66,2.69-5.62,4.44-7.62,7.64-2.41,3.84-6.55,6.86-10.34,9.32-3.45,2.24-7.03,4.55-7.4,8.85-2.97.37-5.83,1.93-8.64,2.91-2.46.86-4.91,1.72-7.3,2.76-.94.41-2.36.67-2.98,1.56-.72,1.05-.19,2.15-.54,3.35-.3,1.02-1.18,2.49-1.77,3.35-1.29,1.87-2.31,3.23-3.14,5.49-.59,1.62-1.28,2.98-1.74,4.61-.54,1.94-1.83,4.11-2.71,5.98-1.24,2.61-2.8,4.97-4.18,7.48-1.42,2.6-2.34.73-4.05-.77-.7-.61-1.41-.99-2.14-1.27-3.46,7.28-2.05,3.8-3.87,7.26-.86,1.65-1.21,3.48-2,5.17-1.4,3.01-2.11,5.84-2.48,9.17-.38,3.39-.41,7.3-.09,10.69.16,1.65.63,3.24.71,4.89.09,1.97-.21,3.75.09,5.77.43,2.97,1.18,5.22,3.57,7.07,1.99,1.55,4.29,2.5,6.1,4.27,2.61,2.55,4.04,5.25,7.41,6.95,3.25,1.64,5.71,3.99,8.62,6.14,2.45,1.81,4.7,2.65,4.34,5.79-.48,4.23-2.05,8.22-3.12,12.32-.99,3.78-1.79,8.37-1.27,12.25.45,3.43.01,7.08.94,10.43,1.62,5.82,5.73,10.68,7,16.56.46,2.16,1.45,5,1.5,7.19.02,1.1-.45,1.96-.66,2.99-.26,1.28-.07,2.38-.14,3.64-.13,2.3-1.09,4.41-1.54,6.42-.81,3.59.25,7.51-.63,11.22-.36,1.52-.81,2.97-1.23,4.46-.32,1.13-.32,2.46-.89,3.5-1.22,2.19-2.24,1.14-3.65.02-1.49-1.19-2.9-2-4.9-2.5-3.75-.93-7.15-2.95-10.35-5.06-2.36-1.55-3.63-2.18-6.63-2.5-3.39-.36-6.72.08-10.07.65-6.8,1.17-12.71,5.33-16.75,10.82-2.02,2.76-4.11,5.98-4.82,9.32-.43,2.02-.55,3.72-2.33,4.87-2.29,1.49-5.35,1.98-7.85,2.97-5.2,2.07-10.07,4.43-15.12,6.85-4.44,2.13-8.35,4.81-12.52,7.27-2.5,1.47-5,3.21-7.44,4.78-1.35.87-2.68,1.97-3.76,3.14-1.49,1.61-2.87,3.18-4.55,4.65-1.75,1.52-2.8,3.76-5.18,4.04-1.87.22-3.36-.38-4.96-1.2-2.13-1.08-4.03-1.77-6.36-2.27-3.86-.83-7.35-.96-10.33-3.72-1.76-1.64-1.91-4.21-2.83-6.35-.97-2.25-2.21-3.9-4.72-4.33-2.64-.46-5.57.41-8.1-.68-1.31-.56-2.4-1.6-3.55-2.42-2.02-1.44-3.98-3.02-6.43-3.64-1.01-.25-3.63-.3-4.82-.88-1.9,1.86-4.37,4.16-6.21,5.6-1.11.87-2.27,1.7-3.34,2.61-1.38,1.19-1.69,2.13-2.4,3.74-1.7,3.86-2.76,8.09-4.48,11.95-.42.95-.87,1.55-.98,2.61-.09.88.1,1.59-.14,2.45-.16.59-.52.85-.6,1.64-.12,1.23,0,1.85-.52,3-.73,1.59-1.54,3.5-1.75,5.23-.26,2.04,1.51,3.58,2.59,4.92,2.11,2.63,3.53,6.16,6.05,8.52,1.46,1.36,2.69,1.29,4.48,1.84,1.08.34,2.31.88,3.37,1.31,1.12.45,2.74.9,3.73,1.46,5.32,2.99,5.58,9.61,8.78,14.08,1.53,2.14,2.86,2.07,5.43,2.21,1.89.1,4,.98,5.65,1.94,4.15,2.43,6.93,6.08,10.77,8.9,1.92,1.42,3.38,2.71,5.57,3.73,2.1.98,6.07,2.45,7.01,4.86,1.53,3.95-3.09,7.24-2.91,11.24.23,4.88,6.41,4.8,9.3,7.43,1.21,1.1,2.44,2.21,2.71,3.9.46,2.84-.7,4.37-2.34,6.52-1.67,2.18-3.08,4.53-4.07,7.13-.9,2.36.12,3.7,1.17,5.77,1.25,2.47,2.1,4.71,3.72,7.12,2.56,3.82,5.42,6.79,8.87,9.88,2.9,2.59,3.42,6.19,6.12,8.92,2.37,2.4,5.48,2.63,3.99,6.43-3.05,7.76-5.45,15.78-8.84,23.46-.77,1.74-1.69,4.56-3.4,5.67-.98.63-1.64.73-2.49,1.59.34.15.71.24,1.12.26,2.06.09,4.66.34,6.63-.18,1.96-.52,3.81-1.24,5.92-1.33,4.56-.2,9.94-.92,14.35-2.16,4.88-1.37,9.41-4.6,14.45-5.25,4.12-.53,8.23-1.08,12.32-1.53,1.31-.14,3.32-.69,4.41-1.46,2.68-1.9,4.52-4.11,7.88-4.93,2.35-.58,5-1.76,7.38-1.87,2.09-.1,3.7.68,5.67.79,1.73.09,3.54-.28,5.23.15,1.53.39,4.08,1.05,6.13,1.28.84-4.94,1.81-9.83,2.68-14.81.4-2.31,1.03-4.68.77-7-.51-4.5-1.04-8.39-.67-12.91.46-5.75-1.12-11.36-1.4-17.07-.22-4.49-.03-9.01-.04-13.5,0-4.67,0-9.21-.56-13.85-.31-2.57-.97-5.69-.8-8.25l.75-1.29c-.65-3-.92-6.05-1.83-9.01-.75-2.43-.84-4.95-1.64-7.44-1.33-4.14-5.41-6.44-6.61-10.57-1.44-4.97-2.54-9.73-5.1-14.35-1.95-3.51-4.86-5.2-6.99-8.21-1-1.41-1.33-3.46-1.87-5.08-1.62-4.82-2.26-9.61-2.05-14.71.09-2.21-.32-4.94-.08-7.15.18-1.7,1.1-3.46,1.74-5.02,1.6-3.88,2.71-7.2,6.51-9.17,2.74-1.42,5.39-3,8.38-3.85,2.07-.59,3.78-.86,5.57-1.9,2.93-1.71,5.42-1.07,8.72-1.57,4.1-.61,6.6-4.71,8.51-7.99,1.19-2.04,3.18-3.24,5.01-4.78,2.39-2.01,4.94-3.87,7.19-6.02,2.13-2.03,3-4.6,5.23-6.6,1.43-1.28,2.5-1.91,2.87-3.87.14-.76-.13-1.92-.1-2.66.07-1.75.53-3.54.73-5.28.85-7.29,4.98-14.48,8.08-21,2.17-4.56,3.31-9.47,3.75-14.49.37-4.18,1.35-8.78.96-12.96-.08-.85-.64-1.77-.69-2.55-.13-1.8.58-3.43.93-5.18.8-4.02.92-8.49,1.22-12.6.3-4.26,1.57-9.59-2.6-12.27-1.68-1.08-3.87-1.26-5.73-1.94-1.06-.39-2.06-.98-3.12-1.34-1.83-.62-3.34-.47-4.09-2.56-.62-1.73.24-3.41,1.11-4.93,1.28-2.23,2.99-4.22,4.32-6.45,1.75-2.93,3.46-5.82,5.33-8.69,2.84-4.35,1.81-9.39.94-14.18-.48-2.68-1.13-5.52-2.17-8.03-.43-1.03-.96-1.76-.84-2.98.2-1.9,2.17-4.35,2.95-5.99.54-1.13,1.03-2.23,1.64-3.33,1.72-3.13,4.09-5.77,6.27-8.6.84-1.16,1.77-2.25,2.77-3.27.86-.73,1.74-1.44,2.63-2.12.33-.41.79-.94.89-1.46.24-1.21-.36-1.47-.65-2.58-.37-1.42.43-2.28-1.66-2.43-1.89-.13-7.72,3.13-8.96,4.81,3.87-5.71,5.84-11.8,12.56-14.82,2.94-1.32,6.01-.2,9.07-1.48,4.67-1.96,7.26-6.08,10.7-9.53,1.85-1.85,3.42-2.4,5.78-3.08,1.11-.32,1.76-.42,2.74-1.11,1.76-1.26,2.9-1.76,2.53-4.06-.36-2.26-1.27-4.88-2.26-6.94-1.45-3.05-2.74-3.86-1.55-7.37.58-1.72,1.43-2.95,3.19-1.58,1.39,1.09,1.64,3.92,2.2,5.41.68,1.8,1.72,3.67,3.03,5.11,1.31,1.44,3.09,2.43,4.48,3.83,1.43,1.44,2.63,2.84,3.86,4.44,1.22,1.58,2.98,2.7,3.84,4.52.55,1.16.32,1.73.49,2.99.35,2.48,1.1,2.8,2.81,4.42,2.28,2.16,2.65,4.26,6.16,4.57,2.21.2,6.16.37,7.93,1.86,1.95,1.64,1.38,5.93-1.16,6.76-.64.21-1.35-.16-2.07.18-1.46.69-2.47,2.58-3.25,3.89-1.23,2.07-2.21,4.41-2.27,6.87-.07,2.86,1.9,7.55,5.28,7.22,2.85-.28,4.92-2.14,7.45-3.08,1.4-.52,4.5-2.28,6.1-1.2,2.01,1.36.09,3.33-.95,4.31-2.33,2.21-4.73,4.42-5.91,7.5-.4,1.04-3.26,6.82.09,6.07,1.27-.29,1.34-2.47,2.97-2.43,2.3.05,2.88,3.7,3.18,5.33.41,2.26-.03,3.82-.2,6.14-.19,2.65-.95,5.68.53,8.13,1.34,2.22,3.69.33,5.42-.76,4.91-3.09,8.2-8.61,12.9-12.06,2.53-1.86,5.01-2.99,8.13-2.94,2.12.03,3.66.2,5.69.59,1.54.29,3.11.16,4.68.17.95,0,2.92-.42,3.77-.05,1.57.67,1.41,4.35,1.98,5.88.62,1.67.97,2.55.95,4.41-.02,2.35-.93,7.85.9,9.69.82-.62,2.12-2,3.24-1.97.88.03,1.3.55,2.18.75.89.19,2.1-.37,2.95,0,.36.16,1.62,1.41,1.96,1.83,2.7,3.39-.6,8.55-2.44,11.54-1.74,2.83-3.96,5.28-5.81,8.07-2.27,3.41-4.94,6.27-7.32,9.56-2.42,3.36-5.64,6.17-7.61,9.83-1.72,3.2-4.28,6.9-6.78,9.52-3.27,3.43-6.86,6.13-11.01,8.46-3.72,2.09-6.46,4.97-9.86,7.49-5.27,3.9-12.64,5.52-17.1,10.49-4.79,5.33-8.19,11.11-14.82,14.3-1.78.85-2.58.95-3.34,2.79-.49,1.18-1.11,3.12-.41,4.52.12.24,1.23,1.36,1.49,1.49,1.23.59,1.36-.18,2.26-.43.73-.2,1.35,0,2.08-.12.94-.16,1.65-.7,2.61-.82,1.97-.23,4.19,0,6.18.03,2.3.02,3.97-1.38,6.16-1.54,1.07-.08,2.11.52,3.12.8,1.25.35,2.59.47,3.84.84.77.23,1.13.49,1.97.66,1.06.21,1.63.24,2.64.74,1.62.8,2.92,2.41,4.86,2.28,1.22-.08,2.9-.71,3.9-1.31,2.08-1.24,4.32-3.47,6.16-5.07,1.78-1.55,3.75-2.74,5.23-4.48,1.47-1.73,2.85-3.73,4.4-5.52,1.98-2.29,4.05-4.15,5.48-6.8,2.44-4.54,6.68-8.04,9.57-12.34,1.86-2.77,3.63-5.6,5.53-8.34,2.09-3.02,4.35-5.86,5.51-9.41.98-3-.07-6.05.56-9.05.47-2.24,2.36-3.74,3.42-5.65,1.27-2.29,2.53-4.5,3.81-6.77.96-1.71,1.26-3.24,1.87-5.21,1.57-5.07,2.77-10.11,2.8-15.6.02-3.1-.76-5.93-.74-9.02.02-2.16,0-4.31,0-6.47,0,.16,1.49-1.17,1.49-1,1.6-2.92,3.36-5.67,5.1-8.5.58-.95,1.37-2.12,1.59-3.26.25-1.28.04-2.74.03-4.04-.03-3.76.47-7.11,1.64-10.69.65-2,2.07-3.69,2.71-5.66.36-1.12.45-2.32.77-3.47-.67-.61-1.37-1.18-2.12-1.71-1.89-1.34-3.39-3.17-4.92-4.91Z"/>
    <path class="cls-1" d="m162.47,493.61c.62-1.62,1.24-3.53,1.53-5.23.14-.83-.13-1.71.03-2.55.16-.83.6-1.23.68-2.3.19-2.38.95-2.01,2.98-1.49,1.43.36,2.87.81,4.32,1.28,1.49.48,2.93,1.11,4.48-.31,1.73-1.6,3.15-4.02,4.69-5.84,2.08-2.46,3.84-4.79,4.42-7.82.36-1.87.78-3.24.77-5.23,0-1.8-.29-3.87.17-5.6.41-1.58.54-3.27,1.14-4.66.87-2.01,2.35-3.33,3.73-5.04,2.43-3.02,4.8-6.29,7.34-9.31,3.48-4.14,5.97-8.81,9.12-13.09,1.23-1.68,2.42-3.72,4.64-4.33,2.27-.63,4.6-.96,6.76-2.18,5.99-3.38,8.81-10.56,14.9-13.65,1.34-.68,2.98-.95,4.31-1.66,1.44-.76,2.55-2.08,3.88-3.01,1.43-1,2.92-1.82,4.5-2.62.87-.44,1.76-.61,2.61-.99,1.25-.56,1.88-1.68,2.99-2.5,1.35-1.01,3.12-1.78,4.54-2.67,2-1.25,3.44-1.06,5.53-1.64,2.63-.73,4.6-1.36,7.44-1.34,2.91.01,5.4-.63,8.24-.71,4-.12,8.68-3.29,10.51-6.76,1.05-2,1.64-3.22,3.49-4.5,1.58-1.09,3.11-2.12,4.56-3.38,1.93-1.68,4.22-2.49,6.48-3.69,2.07-1.1,3.94-2.61,5.97-3.83,4.01-2.41,9-2.91,13.05-5.31,1.48-.87,3.45-2.2,4.56-3.78-3.12-2.17-4.04-7.75-4.71-11.28-1.37.41-2.76,2.1-3.97,2.86-.52.32-.95.32-1.47.77-.69.6-1.17,1.61-1.83,2.28-1.48,1.51-3.41,3.12-5.09,4.33-1.2.87-2.09,1.31-3.36.37-1.01-.74-1.94-2.45-2.78-3.39-.81-.91-1.73-1.78-2.43-2.79-1.69-2.41-3.12-5.19-5.23-7.3-1.7-1.71-4.81-2.93-5.64-5.4-1.09-3.27.49-6.94.61-10.09.07-1.93.43-3.4.76-5.25.27-1.5.72-2.52,1.1-4.09.34-1.4,1.84-2.64,2.68-3.94-1.89-1.37-3.75-3.82-4.4-5.19-.35-.75-.34-1.52-.69-2.24-.41-.82-.99-1.51-1.49-2.24-1.25-1.83-2.6-2.76-4.51-3.77-3.41-1.8-5.17-5.48-8.81-7.21-1.8-.86-3.41-.76-5.17-1.83-1.41-.86-3.59-2.38-5.23-2.66-1.84-.31-3.09,1.1-5.22.63-1.72-.38-3.33-1.46-4.9-2.17-1.02-.47-1.03-.74-2.18-.6-.72.08-2.1.54-2.84.76-.37.11-.31.5-.87.62-.37.08-.82-.16-1.18-.06-.61.16-1.31.36-1.84.75-1.42,1.05-1.76,3.03-3.18,4.31-1.19,1.07-2.31,1.62-3.91,1.69-1.57.07-3.6.01-5.37,0,.34,1.84.23,4.52.03,6.35-.22,1.92-1.58,4.35-2.76,5.83-.57.71-1.33,1.44-2.03,2.02-.45.36-.97.6-1.4.98-.55.48-.87,1.14-1.39,1.65-1.69,1.66-4.44,2.92-6.58,3.84-1.91.82-3.81,1.62-5.7,2.48-1.34.6-2.66,1.22-4.06,1.67-1.54.5-3.16.65-4.69,1.2-2.83,1.03-5.62,2.5-8.27,3.88-1.28.66-2.29,1.46-3.48,2.23-1.74,1.12-3.16,1.26-5.19,1.24-1.99-.02-3.78-.08-5.75-.4-2.53-.41-5.04.57-7.42,1.37-2.72.92-5.48,2.19-8.36,2.5-2.29.25-4.36-.51-6.61-.52-3.26-.02-7.58.83-10.6,2.13-.86.37-1.68,1.09-2.58,1.34-1.69.46-4.08.33-5.77.44-2.62.17-5.24.11-7.87.11-3.83,0-7.5-.13-11.3-.62-1.95-.25-3.92-.19-5.85-.49-1.4-.21-2.86-.73-4.31-.34-.25,1.4-.05,2.92-1.01,4.14-1.51,1.9-5.37,1.64-7.52,2.14-1.03.24-1.94.79-2.95,1.05-1.17.29-2.53.08-3.71.09-2.59.02-5.08-.49-7.66-.51-2.06,0-3.69.59-5.63,1.1-1.31.34-2.65.89-3.89,1.4-.49.2-1.64.59-1.93,1.1-.25.43-.05,1.17-.12,1.66-.14.98-.46,1.8-.48,2.82-.02,1.23.21,2.3.51,3.49.34,1.39,1.13,3.32,1.06,4.75-.04.86-.45,1.71-.55,2.58-.09.79-.09,2.53-.56,3.27-.79,1.27-1.97.57-3.16.25-3.32-.9-5.63-.14-8.79.62-3.14.75-6.24.89-9.37,1.42-2.31.39-4.15.46-6.54.06-2.57-.43-5.25-.6-7.86-.6-.83,0-1.59-.16-2.31.26-.57.34-1,1.01-1.51,1.44-.98.82-1.43,1.03-1.71,2.23-.69,2.9-.27,5.3.05,8.28.19,1.77.45,3.4.44,5.2-.01,1.54-.12,3.12-.03,4.66.09,1.48.55,2.82.54,4.33-.02,1.42,0,2.84-.01,4.26,0,.8-.1,1.66.04,2.44.09.48.39.75.44,1.27.12,1.42-1.27,2.96-1.98,3.97-.14.03-.28.55-.41.58-.37,1.33.45,2.1.41,3.4-.03,1.09.46,2.47,1.11,3.37.57.79,1.51,1.2,2.24,1.73.97.69,1.9,1.43,2.87,2.12,1.63,1.15,3.33,2.8,4.74,4.22,1.81,1.81,2.36,4.49,2.46,6.98.03.77.41,1.26.54,1.99.11.68-.08,1.31.09,1.99.37,1.47.99,2.98,1.42,4.44.3,1.03.87,1.99.99,3.07.07.64-.1,1.19.08,1.83.53,1.96,2.07.72,3.4.22,1.22-.46,2.05-1.19,3.46-1.12,1.35.07,2.93.52,4.21.94.78.26,1.79.26,2.53.6.77.35,1.54,1.14,2.22,1.69,1.05.84,1.81,1.76,2.95,2.53,1.03.7,1.53.95,2.64,1.32,1.91.63,3.58,2.19,4.87,3.6,1.25,1.36,3.31,2.31,4.4,3.78,1.01,1.35,1.26,3.38,1.71,4.95.47,1.66.48,3.19,1.32,4.75.66,1.23,2.07,2.21,2.14,3.68.77-.13.62-.65.93-1.18.32-.55.91-1.38,1.57-1.66,2.06-.88,5.29-.88,7.48-.5,1.5.27,2.61.91,3.9,1.66,1.68.97,3.04.45,4.86.83,1.22.25,2.48.82,3.57,1.39,1.8.95,3.51.76,5.36,1.46,1.37.52,2.52,1.38,3.82,2.03,1.5.75,3,1.39,4.47,2.2,1.03.56,2.11,1.18,3.28,1.33,1.53.18,2.96.06,4.51.35,2.41.45,5.13.29,7.4,1.31,2.6,1.17,3.59,3.2,4.62,5.63.89,2.09,2.55,3.84,4.15,5.4,2.43,2.36,5.11,4.74,8.18,6.18,1.7.8,3.42,1.58,4.99,2.59,0,0,0,0,.01,0,.45-.5,1-.59,1.48-1.85Z"/>
    <path class="cls-1" d="m239.02,295.71c1.6-.07,2.73-.62,3.91-1.69,1.42-1.28,1.76-3.25,3.18-4.31.53-.4,1.23-.59,1.84-.75.36-.1.82.15,1.18.06.56-.13.5-.51.87-.62.74-.22,2.12-.68,2.84-.76,1.15-.13,1.16.13,2.18.6,1.57.71,3.18,1.79,4.9,2.17,2.13.47,3.38-.94,5.22-.63,1.65.28,3.82,1.79,5.23,2.66,1.76,1.07,3.37.98,5.17,1.83,3.64,1.73,5.41,5.4,8.81,7.21,1.92,1.02,3.26,1.94,4.51,3.77.5.74,1.09,1.42,1.49,2.24.35.72.34,1.49.69,2.24.64,1.37,2.51,3.83,4.4,5.19.27-.42.48-.85.55-1.3-.07.44-.28.87-.55,1.3.88.64,1.77,1.04,2.54.98,3.52-.26,7.68-2.32,10.86-3.77,1.9-.86,3.84-1.91,5.92-2.21,1.81-.26,3.82-.01,5.66-.03,2.81-.02,5.42.39,7.95,1.49,3.17,1.38,6.74.93,9.77-.71,9.56-5.18,8.69-18.77,12.13-27.66,1.5-3.87,4.7-5.73,6.95-8.98,2.43-3.51,5.69-5.92,9.93-6.92,1.46-.34,2.83-1.02,4.32-1.22,1.37-.19,2.74.05,4.12,0,5.1-.2,9.95-3.29,14.46-5.32,1.63-.74,3.35-1.03,4.82-2.11,1.73-1.26,3.66-3.13,5.06-4.69,2.2-2.44,1.47-5.64,1.49-8.77.04-6.18-1.33-11.92-6.41-15.73-5.75-4.31-2.95-10.64.75-15.18,2.64-3.24,7.95-2.01,11.72-2.02,1.69,0,3.9-.55,5.17.82,1.26,1.35,1.39,3.08,2.99,4.27,1.65,1.24,3.71,1.37,5.5,2.37,1.33.74,3.72,4.35,5.1,4.39,4.11.11,1-9.55.4-11.25-.88-2.48-2.12-5.31-2.12-7.98,0-1.88.56-1.62,2.34-1.58,2.9.07,5.52-.98,8.32-1.39-.09-.18,0-.19-.42-.93.41.74.33.74.42.93.44-.07.89-.12,1.34-.14,1.7-.1,7.81-.85,8.96.45.43-.5,1.64-.64,2.24-.79,1-.25,1.81-.38,2.99-.37,1.59.01,4.6.63,5.67-.72-1.86-1.81-2.17-6.03-2.31-8.4-.2-3.3.86-6.3,1.66-9.44,1.14-4.49,1.03-8.53.58-13.11-.22-2.24-.41-4.41-.39-6.67.01-1.5.38-4.07.07-5.63-.51-2.57-2.98-4.44-4.72-6.24-2.78-2.88-4.85-6.33-7.66-9.18-2.76-2.8-4.72-6.01-7.1-9.13-2.38-3.12-4.71-6.88-5.56-10.73-1.05-4.77-.38-10.09-.41-14.96-.04-5.26.83-10.42.76-15.68-.08-6.77-.17-14.79,2.31-21.14,2.04-5.21,4.89-11.4,8.88-15.41,2.04-2.04,4.51-3.83,5.81-6.43,1.23-2.46,1.78-5.16,3.18-7.56,2.96-5.09,3.24-5.44,1.3-10.09-.56.19-1.17.31-1.91.28-1.65-.07-3.05-.83-4.7-1.16-3.41-.69-7.2.15-10.44-1.43-2.1-1.02-3.68-2.87-5.54-4.16-3.3-2.29-8.06-2.14-11.66-3.95.4-1.45-1.7-2.24-2.74-2.81-2.42-1.34-4,.7-5.09,3.02-.95,2.03-1.78,4.5-2.22,6.7-.66,3.34-.29,6.22-2.63,9.07-1.81,2.21-4,3.43-6.58,4.46-1.1.44-2.08.74-2.98,1.59-1.15,1.08-2.68,3.33-3.43,4.73-.75,1.4-.41,3.16-.42,4.76-.03,3.01.35,5.8,1.47,8.58,1.54,3.79,2.41,7.74,3.77,11.59,1.21,3.43,2.59,6.87,3.19,10.47.89,5.37,3.28,12.55-4.35,12.76-3.28.09-6.04.68-9.28,1.29-4,.76-8.16,2.36-12.22,2.47-3.74.1-7.67.9-9.67-2.87-.98-1.85-.52-4.59-1.07-6.78-.89-3.49-.84-7.68-2.59-10.93-2.53-4.68-4.83-9.36-7.04-14.24-1.24-2.75-2.46-4.79-2.92-7.81-.33-2.15-.58-4.25-.99-6.38-.71-3.74-3.45-5.42-6.88-6.93-2.52-1.11-4.66-1.59-7.44-1.6-3.48-.02-7.22-.85-10.61-1.69-2.65-.66-2.64-.29-4.47,1.47-2.15,2.07-2.59,5.04-3.94,7.73-.87,1.74-1.03,3.92-2.18,5.48-1.15,1.55-2.63,2.93-3.82,4.48-3.77,4.92-8.68,11.1-15.3,11.64-3.6.29-6.37,2.19-8.94,4.65-2.64,2.53-4.32,5.01-8.2,3.78-3.45-1.09-6.91-3.04-10.13-4.72-1.74-.91-4.21-1.6-5.97-.82-1.96.87-2.94,2.74-4.08,4.58-1.3,2.11-2.95,4.02-4.46,5.97-1.77,2.29-3.8,4.68-5.1,7.3-.97,1.94-1.91,3.65-3.28,5.36-2.48,3.08-4.69,7-9.22,6.04-.89-.19-1.7-.53-2.59-.77-1.13-.31-1.17-.03-2.05-.94-1.23-1.27-1.67-2.54-1.68-4.29,0-1.46-.46-2.29-.79-3.65-.35-1.47.26-3.09-.13-4.59-.25-.95-.45-1.99-.73-2.95-.31-1.06-1.21-1.85-1.39-2.98-.09-.59.08-1.21-.02-1.81-.08-.43-.54-.44-.62-.87-.14-.74-.26-2.2-.09-2.95.18-.85.62-1.33.8-2.18.19-.9-.07-2.1-.04-3.02.06-1.32.53-1.47.79-2.57.21-.86-.04-2.13-.04-3.03,0-1.88.36-4.14.04-5.97-.34-1.91-1.09-4.76-1.73-6.96-.14.02-.27.04-.41.07-1.39.33-2.62,1.29-3.87,1.81-1.74.72-3.76.92-5.55,1.56-1.59.56-3.11,1.22-4.8,1.45-1.39.18-2.77-.08-4.14.18-1.11.21-2.38.33-3.41.73-1.02.4-1.66.94-2.55,1.59-1.37,1-2.88,1.7-4.13,2.86-1.75,1.63-3.19,3.45-4.78,5.16-1.97,2.12-3.54,3.01-6.5,2.99-2.82-.02-5.64,0-8.45,0-4.67,0-9.66-.31-14.06,1.47-2.25.91-4.5,2.07-6.31,3.74-3.01,2.77-5.34,6.12-8.59,8.69-3.16,2.51-5.94,5.62-9.71,7.26-4.94,2.15-10.15,4.45-14.14,8.23-1.27,1.2-2.69,2.42-3.41,4.02-1.15,2.56-2.82,4.86-4.16,7.34-.84,1.54-1.81,2.92-2.35,4.57-.54,1.64-.68,3.3-1.08,4.96-.17.7-.61,1.32-.8,2.02-.25.89-.29,1.99-.46,2.89-.41,2.23-.97,4.76-.62,7.05.35,2.21,1.8,4.44,2.49,6.61.85,2.68.61,5.19,1.07,7.87.18,1.04.63,2.01.79,3.06.22,1.46.22,2.5.83,3.86,1.06,2.36,2.37,4.43,3.88,6.52.43.6.88.93,1.36,1.44,1.21,1.3,2.27,2.73,3.49,4.02,1.42,1.49,2.93,3.45,4.83,4.34,2.22,1.04,3.89,1.9,5.74,3.59,1.77,1.62,3.52,3.2,5.18,4.94.87.92,1.71.91,2.79,1.51.74.41,1.24,1.16,1.95,1.57,1.2.68,2.53.48,3.85.46.02,0,.04,0,.06,0-.02,0-.04,0-.06,0-.16.08-.66.49-.81.56,1.15-.05,1.8,1.33,2.6,1.93,1.15.86,2.51-.02,3.39,1.37.61.95,1.04,2.06,1.3,3.15.21.84-.04,1.78.02,2.64.09,1.09.51,2.05.53,3.17.03,1.85.49,3.5.48,5.35,0,.74,0,1.48,0,2.22-.01,1.28.4,2.29.53,3.53.12,1.2-.68,3.9.7,4.44.58.22,1.43-.04,2.05.06,1.15.19,2.51.69,3.61,1.08.92.33,1.28.9,2.05,1.39.65.42,1.82.77,2.56.93,1.54.32,2.82-.05,4.31.54,1.58.63,2.94,1.24,4.6,1.54,2.31.41,4.44.94,6.39,2.44,1.64,1.26,3.05,2.69,4.81,3.8,1.74,1.1,3.29.3,5.23.66,1.32.24,1.76,1.29,2.74,2.02.92.68,2.2.93,3.13,1.6,2.39,1.7,1.6,6.27,1.6,8.88,0,1.25-.33,2.99.04,4.16.63,2.03,3.43,2.87,4.98,3.91,5.47,3.69,11.93,7.77,14.96,13.85,1.21,2.43,1.99,5.07,3.2,7.45.85,1.67,1.71,3.19,2.47,4.91.54,1.24,1.39,2.35,1.75,3.63,1.43,5.1,3.5,10.27,3.47,15.7,0,1.12-.07,2.27,0,3.39.05.82.3,1.23.46,2.01.01.07.02.14.04.21,1.77.02,3.79.07,5.37,0Z"/>
    <path class="cls-1" d="m491.81,592.95c-1.97-.11-3.57-.89-5.67-.79-2.38.11-5.03,1.29-7.38,1.87-3.36.83-5.2,3.03-7.88,4.93-1.09.77-3.1,1.32-4.41,1.46-4.09.45-8.2,1.01-12.32,1.53-5.04.64-9.57,3.87-14.45,5.25-4.41,1.24-9.79,1.96-14.35,2.16-2.11.09-3.96.81-5.92,1.33-1.97.52-4.57.27-6.63.18-.42-.02-.79-.11-1.12-.26-.06.06-.11.1-.17.17.06-.06.11-.11.17-.17-2.06-.89-2.83-3.85-4.07-5.75-1.74-2.66-5.13-6.13-8.4-3.75-3.63,2.65-7.4,5.31-10.24,8.94-2.76,3.53-7.61,10.03-12.75,6.63-.77-.51-1-1.34-2.03-1.75-.81-.33-1.39-.33-2.25-.35-1.8-.04-3.89-.26-5.62.18-3.43.87-6.73,2.54-10.06,3.66-3.79,1.27-6.07,4.04-9.41,5.9-1.69.94-3.42,1.44-5.16,1.85-1.17.27-2.4.31-3.44,1.09-2.8,2.1-3.71,6.26-4.85,9.36-.6,1.63-1.58,3.16-1.99,4.85-.4,1.63-.39,3.27-.92,4.88-.83,2.53-1.71,5.05-2.4,7.81-.81,3.24-1.29,6.45-2.06,9.71-.33,1.41-.87,2.82-1.36,4.22.64,1.13,1.33,2.22,2.14,3.23,2.28,2.84,4.53,5.68,6.82,8.52.7.87,1.64,1.74,1.99,2.84.27.84.36,1.74.65,2.6.67,2.03.9,4.18,1.54,6.23.3.95.89,1.84,1.2,2.77.21.08.44.13.63.28.23.17.45.44.61.67.48.72.77,1.53,1.18,2.25.37.65.53,1.3.74,2,.1.33.22.57.31.93.06.24.16.25.19.61.03.3.14.53.19.75.41,1.8-.36,3.88.11,5.66.26.98.11,2,.44,3,.34,1.02.92,2.06,1.62,2.85.83.93,1.17,2.25,1.98,3.21.83.99,1.44,2.34,2.44,3.15,2.07,1.69,3.39,4.24,5.34,6.15,2.36,2.31,4.59,4.59,7.72,5.79,3.91,1.5,8.32,1.74,12.46,1.74,1.84,0,3.63.02,5.45-.19,3.27-.37,6.65-.05,9.83-1.04,1.53-.48,3.05-1.18,4.63-1.46,1.32-.23,2.6-.61,3.86-1.11,1.34-.54,2.55-.94,3.99-1.14,1.05-.14,2.26-.15,3.31-.03,4.22.48,8.57.23,12.83.23,1.01,0,2.05.06,3.06.01,1.16-.06,2.21-.42,3.32-.7,2.78-.71,4.41-2.92,6.47-4.78,2.39-2.15,3.06-5.27,5.22-7.56.89-.94,1.86-1.87,2.56-2.97.92-1.46,1.93-2.3,3.39-3.32,1.14-.79,2.19-1.71,3.31-2.53,1.24-.91,2.68-1.39,3.99-2.2.56-.34.8-.31,1.46-.33.52-.02.99-.16,1.5-.27,1.41-.3,2.83-.35,4.26-.2,2.6.28,5.05.48,7.68.27,1.52-.12,3.03-.47,4.54-.58.33-.03.7.01,1.03.02.76.01,1.43-.13,2.18-.21,1.67-.17,3.66.26,5.25.7.97.27,1.9.55,2.89.75,1.23.25,2.37.25,3.62.25.94,0,2.04-.16,2.96.02.53.1.91.23,1.47.23.72,0,1.31-.22,2.02-.25.51-.02.98-.12,1.47-.24.6-.14,1.16-.38,1.74-.57.59-.19,1.16-.22,1.75-.43.61-.22,1.22-.41,1.81-.68.55-.25.96-.64,1.43-1.04.49-.4.71-1.08,1.18-1.52.38-.35.89-.63,1.25-.99.78-.78.92-1.81,1.3-2.86.08-.23.2-.46.3-.68.15-.35.54-.71.66-1.02.19-.5.17-1.4.11-1.92-.29-2.24-.19-4.53-.3-6.79-.02-.44-.13-.77-.21-1.18-.16-.86.02-1.64.14-2.5.05-.39.1-.79.08-1.18-.05-.64-.15-1.28-.29-1.91-.19-1.29-.19-2.57.02-3.86l1.2-9.82c1.56-8.63.49-18.22-1.86-26.6-1.24-4.42-2.41-8.45-2.92-13.02-.5-4.46-.37-8.12.4-12.57.73-4.24,1.29-8.53,1.86-12.77.29-2.16.63-4.29.99-6.42-2.05-.23-4.6-.89-6.13-1.28-1.68-.43-3.5-.06-5.23-.15Z"/>
    <path class="cls-1" d="m328.1,654.17c.69-2.76,1.57-5.28,2.4-7.81.53-1.61.52-3.25.92-4.88.41-1.69,1.39-3.23,1.99-4.85,1.13-3.1,2.04-7.26,4.85-9.36,1.04-.78,2.28-.82,3.44-1.09,1.74-.4,3.48-.91,5.16-1.85,3.34-1.86,5.61-4.63,9.41-5.9,3.33-1.11,6.64-2.79,10.06-3.66,1.73-.44,3.81-.22,5.62-.18.86.02,1.44.02,2.25.35,1.03.42,1.25,1.24,2.03,1.75,5.14,3.41,9.98-3.09,12.75-6.63,2.84-3.63,6.6-6.29,10.24-8.94,3.27-2.38,6.66,1.09,8.4,3.75,1.24,1.9,2.01,4.86,4.07,5.75.86-.86,1.51-.96,2.49-1.59,1.71-1.1,2.63-3.93,3.4-5.67,3.39-7.69,5.79-15.7,8.84-23.46,1.49-3.8-1.62-4.03-3.99-6.43-2.71-2.74-3.22-6.33-6.12-8.92-3.45-3.08-6.31-6.06-8.87-9.88-1.61-2.41-2.46-4.65-3.72-7.12-1.05-2.06-2.07-3.4-1.17-5.77.99-2.6,2.4-4.95,4.07-7.13,1.64-2.15,2.8-3.68,2.34-6.52-.28-1.69-1.51-2.81-2.71-3.9-2.9-2.63-9.07-2.55-9.3-7.43-.19-4,4.44-7.29,2.91-11.24-.94-2.41-4.9-3.89-7.01-4.86-2.19-1.02-3.65-2.31-5.57-3.73-3.84-2.83-6.61-6.47-10.77-8.9-1.65-.96-3.76-1.85-5.65-1.94-2.57-.13-3.9-.07-5.43-2.21-3.2-4.46-3.46-11.09-8.78-14.08-1-.56-2.61-1.01-3.73-1.46-1.06-.43-2.28-.98-3.37-1.31-1.79-.55-3.03-.48-4.48-1.84-2.52-2.36-3.94-5.89-6.05-8.52-1.08-1.34-2.84-2.87-2.59-4.92.22-1.73,1.02-3.64,1.75-5.23.53-1.16.4-1.78.52-3,.08-.79.44-1.05.6-1.64.24-.86.05-1.57.14-2.45.11-1.07.56-1.67.98-2.61,1.72-3.86,2.78-8.09,4.48-11.95.71-1.61,1.02-2.55,2.4-3.74,1.07-.92,2.23-1.75,3.34-2.61,1.84-1.44,4.3-3.74,6.21-5.6-.09-.04-.19-.08-.27-.14-1.18-.82-.49-1.55-.32-2.61.31-1.9.4-3.54.38-5.49-.06-7.5,2.29-14.86,2.24-22.41-.01-1.89.23-3.77-.53-5.36-1.32-2.77-2.7-3.62-5.41-4.5-2.26-.74-4.87-2.06-6.76-3.53-1.7-1.32-2.59-3.38-4.11-4.83-3.61-3.45-10.1-3.69-14.56-5.85-.24-.12-.47-.25-.69-.4-1.11,1.58-3.09,2.91-4.56,3.78-4.05,2.4-9.04,2.89-13.05,5.31-2.03,1.22-3.9,2.73-5.97,3.83-2.25,1.2-4.55,2.01-6.48,3.69-1.45,1.26-2.98,2.29-4.56,3.38-1.85,1.28-2.44,2.5-3.49,4.5-1.83,3.47-6.51,6.64-10.51,6.76-2.85.08-5.34.72-8.24.71-2.83-.01-4.81.61-7.44,1.34-2.08.58-3.53.39-5.53,1.64-1.42.89-3.2,1.66-4.54,2.67-1.1.83-1.73,1.94-2.99,2.5-.85.38-1.75.55-2.61.99-1.58.8-3.07,1.62-4.5,2.62-1.33.93-2.45,2.24-3.88,3.01-1.34.71-2.98.98-4.31,1.66-6.09,3.09-8.91,10.26-14.9,13.65-2.16,1.22-4.49,1.56-6.76,2.18-2.22.62-3.41,2.66-4.64,4.33-3.15,4.28-5.63,8.95-9.12,13.09-2.54,3.02-4.91,6.29-7.34,9.31-1.38,1.71-2.87,3.04-3.73,5.04-.6,1.39-.73,3.09-1.14,4.66-.45,1.73-.17,3.8-.17,5.6,0,1.99-.41,3.36-.77,5.23-.58,3.03-2.34,5.36-4.42,7.82-1.54,1.82-2.95,4.24-4.69,5.84-1.54,1.42-2.99.8-4.48.31-1.45-.47-2.89-.92-4.32-1.28-2.04-.51-2.79-.88-2.98,1.49-.09,1.08-.53,1.47-.68,2.3-.16.84.12,1.72-.03,2.55-.29,1.7-.91,3.6-1.53,5.23-.48,1.26-1.03,1.35-1.48,1.85,1.63,1.05,2.49,2.4,3.22,4.17.54,1.3,1.07,2.87,1.26,4.14.52,3.51-.25,7.33-.47,10.81-.12,1.88.18,3.82-.15,5.66-.2,1.12-.22,2.23-.36,3.38-.18,1.43-.54,2.65-.54,4.13,0,2.48.34,4.83.78,7.28.25,1.4.36,2.69.73,4.07.49,1.84.02,4.16.72,5.84,1.08,2.57,3.65,2.22,5.75,3.44,1.65.96,3.55,1.15,5.22,1.76,1.07.39,1.45,1.46,2.25,2.17.21.19.49.33.71.52,1.79,1.53,1.83,3.44,2.28,5.74l1.29,2.03c1.52-.37,2.04.01,2.75,1.14,1.26,2.01,2.12,4.01,2.68,6.28.26,1.06.69,2.33.76,3.49.04.56-.15,1.22-.03,1.76.14.67.44.99.53,1.71.27,2.19.67,4.34,1.48,6.49,1.01,2.68,2.12,5.17,4.97,6.08,1.75.56,3.48,1.2,5.2,1.9,1.83.75,3.11.98,5.08.98,1.63,0,3.26-.04,4.88,0,.66.01.94.31,1.39.39.94.17,1.48-.1,2.39-.38,5.32-1.64,10.61-.19,15.91-1.1,1.84-.31,3.67-1.28,5.47-1.41,2.31-.16,4.37-.4,6.47-1.47,2.08-1.06,4.1-2.16,6-3.51,1.74-1.23,2.69-1.52,4.83-1.49,1.47.02,2.32.6,3.73.92,1.22.28,2.62.09,3.85.09,2.94-.01,6.2-.03,8.7,1.74.88.62,1.71,1.14,2.57,1.72,1.81,1.22,1.9,3.21,2.25,5.2.65,3.71.44,7.47.44,11.26,0,1.86.01,3.72,0,5.58-.01,1.38.45,2.51.52,3.86.09,1.86.37,3.63.47,5.5.11,1.96.69,2.62,2.34,3.45,2.75,1.37,5.22,2.45,8.4,2.53,1.51.04,2.77.04,4.2.59,1.54.59,2.91,1.39,4.53,1.78,5.74,1.39,5.44,7.77,5.44,12.61,0,2.93-.7,6.73.46,9.45,1.01,2.39,4.14,3.75,6.42,4.64,1.87.73,3.86,1.11,5.64,2.05,1.88,1,3.61,2.65,4.92,4.31,2.22,2.82,3.58,6.22,5.36,9.35.49-1.4,1.03-2.81,1.36-4.22.77-3.26,1.25-6.47,2.06-9.71Z"/>
  </g>
  <g>
    <path class="cls-2" d="m95.6,399.64l-1.29,6.52c-.03.1-.08.18-.16.26-.08.07-.19.14-.35.18-.16.05-.36.08-.61.11-.25.02-.55.04-.92.04s-.66-.01-.9-.04c-.24-.02-.42-.06-.55-.11-.13-.05-.21-.11-.26-.18-.04-.08-.05-.16-.04-.26l1.29-6.52-3.03-10.08c-.1-.33-.17-.6-.19-.8-.02-.2.02-.35.14-.45.11-.1.31-.17.6-.19.29-.03.69-.04,1.22-.04.4,0,.72,0,.95.02.23.01.42.04.55.09.13.05.23.12.28.21s.1.21.14.35l1.24,4.45c.14.53.27,1.04.38,1.52.11.48.21.99.29,1.51h.03c.27-.51.54-1.02.83-1.52s.59-.99.92-1.49l2.96-4.52c.08-.12.16-.23.24-.31s.2-.15.36-.19c.15-.05.36-.08.61-.1.25-.02.59-.03,1.02-.03.55,0,.97.02,1.27.05.29.03.48.1.57.21.09.11.09.26-.01.46-.1.2-.26.45-.48.77l-7.09,10.08Z"/>
    <path class="cls-2" d="m111.55,406.19c-.04.2-.19.34-.45.43-.26.09-.68.13-1.27.13-.3,0-.54,0-.72-.03-.19-.02-.34-.05-.45-.09-.11-.04-.19-.1-.22-.17-.03-.07-.04-.16-.02-.26l.4-2.05c-.14.31-.37.63-.69.97s-.69.64-1.12.92-.9.51-1.42.69c-.52.18-1.06.27-1.61.27-.76,0-1.4-.13-1.9-.4-.51-.27-.91-.63-1.22-1.08-.3-.45-.52-.97-.65-1.55-.13-.58-.19-1.19-.19-1.83,0-.6.06-1.26.17-1.97s.29-1.42.53-2.13c.24-.7.54-1.38.92-2.04s.82-1.23,1.34-1.74c.52-.5,1.12-.91,1.79-1.21.67-.3,1.43-.45,2.28-.45.79,0,1.49.17,2.1.5.61.33,1.14.81,1.6,1.44l.23-1.13c.04-.2.19-.34.45-.43.26-.09.68-.13,1.27-.13.29,0,.52.01.72.04.19.02.34.06.45.1.11.04.18.1.22.17.04.07.05.15.03.25l-2.56,12.79Zm-1.77-8.95c-.33-.52-.7-.92-1.11-1.18s-.88-.39-1.41-.39c-.4,0-.77.09-1.1.29-.33.19-.63.44-.89.76s-.48.69-.68,1.11c-.2.42-.36.86-.49,1.31-.13.45-.22.91-.29,1.37-.06.46-.09.89-.09,1.28,0,.29.02.56.07.81.04.26.12.49.24.69s.27.36.46.48c.19.12.43.18.73.18.42,0,.85-.13,1.29-.38.44-.25.85-.6,1.23-1.03.38-.43.72-.94,1.01-1.52.29-.58.5-1.19.64-1.85l.4-1.93Z"/>
    <path class="cls-2" d="m125.75,393.22c0,.07,0,.18-.03.36-.02.17-.05.37-.09.6-.04.23-.09.46-.14.71-.06.24-.12.47-.19.68-.07.21-.15.38-.24.51s-.19.2-.29.2c-.09,0-.17-.02-.26-.05s-.18-.07-.29-.1c-.11-.03-.22-.07-.34-.1-.13-.03-.27-.05-.43-.05-.33,0-.67.13-1.04.37-.37.25-.72.57-1.05.98-.33.4-.63.88-.9,1.41-.26.54-.45,1.1-.56,1.69l-1.14,5.74c-.02.09-.07.18-.14.25-.07.07-.18.13-.33.18-.15.05-.34.08-.58.11-.24.02-.53.04-.87.04s-.64-.01-.87-.04c-.22-.02-.4-.06-.53-.11-.13-.05-.21-.11-.25-.18-.04-.07-.05-.16-.03-.25l2.55-12.77c.02-.09.06-.18.13-.25.07-.07.16-.13.29-.17.13-.04.29-.08.5-.1.21-.02.45-.04.74-.04s.54.01.72.04c.19.02.33.06.44.1.1.04.17.1.21.17.03.07.04.15.02.25l-.4,2.03c.23-.41.49-.79.79-1.13.3-.34.62-.64.96-.89s.69-.45,1.05-.59c.36-.14.72-.22,1.07-.22.14,0,.29.01.44.03.15.02.29.04.42.07.13.03.24.06.34.11.1.04.18.09.24.13.06.06.09.15.09.27Z"/>
    <path class="cls-2" d="m137.33,406.19c-.04.2-.19.34-.45.43-.26.09-.68.13-1.27.13-.29,0-.53,0-.72-.03-.18-.02-.34-.05-.45-.09-.11-.04-.19-.1-.22-.17-.04-.07-.04-.16-.02-.26l.39-2.05c-.14.31-.37.63-.69.97s-.69.65-1.12.93-.9.51-1.42.69c-.52.18-1.06.27-1.61.27s-1.02-.07-1.42-.21c-.41-.14-.75-.33-1.05-.57-.29-.24-.53-.52-.72-.84-.19-.32-.34-.67-.46-1.03s-.2-.74-.24-1.12c-.05-.39-.07-.77-.07-1.14,0-.62.06-1.28.17-2s.29-1.41.54-2.12c.24-.7.55-1.38.92-2.02.37-.65.82-1.22,1.34-1.72.52-.5,1.12-.89,1.79-1.19.67-.29,1.43-.44,2.27-.44.37,0,.73.04,1.07.12.34.08.65.19.93.33s.54.3.77.5c.23.19.42.39.59.6l1.36-6.73c.02-.09.06-.18.13-.26.07-.08.17-.14.32-.19.15-.05.34-.09.57-.12.23-.03.53-.04.88-.04s.64.01.87.04c.22.03.4.07.52.12.12.05.2.12.24.19.04.08.05.16.03.26l-3.75,18.78Zm-1.79-8.94c-.33-.52-.7-.92-1.11-1.19-.4-.27-.88-.4-1.41-.4-.39,0-.75.09-1.08.28-.33.19-.62.43-.89.74s-.49.67-.69,1.09c-.2.42-.36.85-.49,1.31-.13.46-.23.92-.29,1.37-.07.46-.1.89-.1,1.3,0,.73.12,1.27.36,1.64.24.37.61.55,1.13.55.42,0,.85-.13,1.29-.38.44-.25.85-.59,1.23-1.02.38-.42.72-.92,1.01-1.5.29-.58.5-1.19.64-1.85l.4-1.94Z"/>
    <path class="cls-2" d="m144.53,406.17c-.02.09-.07.18-.14.25-.07.07-.18.13-.33.18-.15.05-.34.08-.58.11-.24.02-.53.04-.87.04s-.64-.01-.87-.04c-.22-.02-.4-.06-.53-.11-.13-.05-.21-.11-.25-.18-.04-.07-.05-.16-.03-.25l2.55-12.76c.02-.09.06-.18.14-.25s.18-.13.33-.18c.15-.05.34-.08.57-.11.24-.02.53-.04.88-.04s.64.01.86.04c.22.02.4.06.53.11.13.05.21.11.25.18.04.07.05.16.03.25l-2.55,12.76Z"/>
    <path class="cls-2" d="m168.14,406.17c-.02.09-.06.18-.13.25-.07.07-.18.13-.34.18-.15.05-.35.08-.58.11-.24.02-.53.04-.88.04s-.63-.01-.86-.04-.4-.06-.53-.11c-.12-.05-.21-.11-.25-.18-.04-.07-.05-.16-.02-.25l1.53-7.65c.04-.22.07-.44.1-.65.03-.22.04-.43.04-.65,0-.45-.08-.81-.25-1.09-.17-.28-.47-.41-.9-.41-.38,0-.78.12-1.19.37-.41.25-.8.59-1.18,1.01-.38.42-.71.92-1,1.49-.29.57-.5,1.17-.62,1.81l-1.16,5.78c-.02.09-.06.18-.13.25-.07.07-.18.13-.34.18-.15.05-.35.08-.58.11-.24.02-.53.04-.88.04s-.63-.01-.85-.04-.4-.06-.52-.11c-.13-.05-.21-.11-.25-.18-.04-.07-.06-.16-.04-.25l1.52-7.65c.06-.22.1-.45.12-.68s.04-.46.04-.68c0-.42-.09-.77-.26-1.04-.17-.27-.47-.41-.89-.41-.38,0-.78.12-1.19.37-.41.25-.8.59-1.18,1.01-.38.42-.71.92-1,1.49-.29.57-.5,1.17-.62,1.81l-1.16,5.78c-.02.09-.06.18-.13.25-.07.07-.18.13-.33.18s-.34.08-.58.11c-.24.02-.53.04-.87.04s-.64-.01-.86-.04-.4-.06-.53-.11c-.13-.05-.21-.11-.25-.18-.04-.07-.05-.16-.03-.25l2.56-12.77c.02-.09.06-.18.12-.25.06-.07.16-.13.29-.17.13-.04.29-.08.5-.1s.45-.04.74-.04.54.01.72.04c.19.02.33.06.44.1.11.04.17.1.21.17.03.07.04.15.02.25l-.41,2.1c.2-.33.47-.68.8-1.02.33-.35.71-.66,1.14-.94.42-.28.89-.5,1.39-.68.5-.18,1.02-.27,1.55-.27s1.03.07,1.44.22c.4.15.74.35,1,.62.26.26.46.57.6.92.14.35.22.73.26,1.14.22-.34.5-.69.84-1.03s.72-.65,1.14-.93c.42-.28.88-.5,1.38-.68.5-.18,1.01-.27,1.53-.27.67,0,1.23.09,1.68.28.45.19.82.44,1.09.77.28.33.48.72.6,1.16.12.44.18.92.18,1.44,0,.33-.02.67-.06,1.01-.04.34-.09.68-.17,1.04l-1.57,7.88Z"/>
    <path class="cls-2" d="m175.26,406.17c-.02.09-.06.18-.13.25-.07.07-.18.13-.32.18s-.33.08-.57.11c-.24.02-.53.04-.87.04-.36,0-.66-.01-.88-.04s-.4-.06-.52-.11c-.13-.05-.21-.11-.25-.18-.04-.07-.06-.16-.04-.25l3.76-18.8c.02-.1.06-.18.13-.26.07-.07.18-.14.33-.19.15-.05.35-.09.58-.12.23-.03.53-.04.88-.04s.64.01.87.04c.22.03.4.07.52.12.12.05.2.12.24.19.04.08.05.16.03.26l-3.75,18.8Z"/>
    <path class="cls-2" d="m182.45,406.17c-.02.09-.07.18-.14.25-.07.07-.18.13-.33.18-.15.05-.34.08-.58.11-.24.02-.53.04-.87.04s-.64-.01-.87-.04c-.22-.02-.4-.06-.53-.11-.13-.05-.21-.11-.25-.18-.04-.07-.05-.16-.03-.25l2.55-12.76c.02-.09.06-.18.14-.25s.18-.13.33-.18c.15-.05.34-.08.57-.11.24-.02.53-.04.88-.04s.64.01.86.04c.22.02.4.06.53.11.13.05.21.11.25.18.04.07.05.16.03.25l-2.55,12.76Z"/>
  </g>
  <g>
    <path class="cls-2" d="m251.86,165.48c0,.27-.04.62-.13,1.07s-.2.81-.34,1.08c-.14.27-.29.41-.46.41-.13,0-.27-.08-.44-.24-.17-.16-.4-.33-.67-.51-.28-.18-.63-.35-1.06-.51-.43-.16-.96-.24-1.6-.24-.71,0-1.35.14-1.93.42s-1.1.65-1.56,1.12-.86.99-1.2,1.59c-.34.6-.63,1.23-.85,1.87-.22.65-.39,1.29-.5,1.94-.11.64-.17,1.24-.17,1.79,0,.67.08,1.25.25,1.76s.41.92.72,1.26c.32.33.7.58,1.16.75s.97.25,1.54.25c.68,0,1.26-.07,1.74-.21.48-.15.89-.3,1.23-.47s.62-.33.84-.47c.22-.14.43-.21.61-.21.12,0,.21.05.25.14.04.09.06.22.06.38,0,.07,0,.17-.03.3-.02.13-.04.28-.07.45s-.06.35-.1.54c-.04.2-.08.38-.13.54s-.1.32-.17.46-.15.26-.25.37c-.1.11-.31.24-.61.41s-.68.32-1.12.46c-.44.15-.93.27-1.49.37-.55.1-1.14.15-1.77.15-1.04,0-1.98-.14-2.81-.41s-1.54-.7-2.12-1.26c-.58-.56-1.03-1.27-1.35-2.12-.31-.85-.47-1.84-.47-2.97,0-.89.09-1.81.27-2.77.18-.96.45-1.89.82-2.81s.83-1.78,1.39-2.6,1.23-1.54,2-2.15c.77-.62,1.64-1.1,2.62-1.47.98-.36,2.06-.55,3.25-.55.67,0,1.3.07,1.89.21s1.12.32,1.56.55c.44.23.75.44.93.62.18.18.26.42.26.71Z"/>
    <path class="cls-2" d="m251.2,178.9c0-.69.15-1.3.46-1.85s.79-1.02,1.44-1.41,1.48-.7,2.49-.91c1.01-.21,2.2-.31,3.6-.31h1.32c.04-.22.07-.44.09-.65.02-.21.03-.41.03-.59,0-.77-.2-1.35-.6-1.74-.4-.39-1.04-.59-1.93-.59-.63,0-1.19.05-1.69.14-.5.09-.94.19-1.32.3-.38.11-.69.21-.94.3-.25.09-.43.14-.54.14s-.2-.04-.24-.1-.07-.17-.07-.31c0-.16.02-.35.04-.56.03-.21.07-.42.12-.62.05-.2.12-.4.2-.58.08-.18.18-.32.28-.42.11-.11.32-.23.63-.34s.67-.22,1.1-.31c.43-.09.91-.17,1.44-.24s1.08-.09,1.63-.09c.92,0,1.71.1,2.4.29.68.19,1.25.48,1.71.87s.8.89,1.03,1.49.34,1.32.34,2.15c0,.64-.06,1.32-.18,2.05-.12.73-.31,1.45-.58,2.16s-.61,1.39-1.03,2.04-.93,1.22-1.52,1.71c-.6.49-1.28.88-2.07,1.18-.78.29-1.67.44-2.67.44-.87,0-1.61-.1-2.24-.31s-1.14-.48-1.54-.82-.7-.72-.89-1.16-.29-.88-.29-1.34Zm3.53-.27c0,.38.15.7.45.95.3.25.73.38,1.31.38.48,0,.9-.09,1.28-.26.38-.17.71-.4.99-.69s.53-.63.74-1.03.37-.82.49-1.27h-1.2c-.76,0-1.4.05-1.92.15-.51.1-.93.24-1.25.41-.31.17-.54.37-.69.61-.14.23-.21.48-.21.75Z"/>
    <path class="cls-2" d="m269.22,181.71c-.02.09-.07.18-.14.25-.07.07-.18.13-.32.18-.15.05-.33.08-.57.11-.24.02-.53.04-.87.04-.36,0-.66-.01-.88-.04-.22-.02-.4-.06-.52-.11s-.21-.11-.25-.18c-.04-.07-.05-.16-.04-.25l3.76-18.8c.02-.1.06-.18.13-.26.07-.07.18-.14.33-.19.15-.05.34-.09.58-.12.23-.03.53-.04.88-.04s.64.01.87.04c.22.03.4.07.52.12s.2.12.24.19c.04.08.05.16.03.26l-3.74,18.8Z"/>
    <path class="cls-2" d="m276.41,181.71c-.02.09-.06.18-.13.25-.07.07-.18.13-.33.18-.15.05-.34.08-.58.11-.24.02-.53.04-.87.04s-.64-.01-.87-.04c-.22-.02-.4-.06-.53-.11s-.21-.11-.25-.18c-.04-.07-.05-.16-.03-.25l2.53-12.73c.02-.09.07-.18.14-.25.07-.07.18-.13.33-.18.15-.05.34-.09.57-.12.23-.03.52-.04.88-.04s.64.02.86.04c.22.03.4.07.53.12.13.05.21.11.25.18.04.07.05.16.03.25l-2.53,12.73Zm3.69-17.05c-.07.35-.16.65-.27.89-.11.24-.27.44-.46.59-.19.15-.42.25-.7.31s-.62.09-1.03.09-.73-.03-.98-.09c-.25-.06-.44-.17-.57-.31-.13-.15-.2-.34-.22-.59-.02-.24,0-.54.09-.89.07-.34.16-.63.27-.87.11-.24.27-.43.46-.59.19-.15.43-.26.7-.33.28-.07.62-.1,1.03-.1s.73.03.98.1c.25.07.44.18.57.33s.2.35.22.59c.01.24-.01.53-.08.87Z"/>
    <path class="cls-2" d="m283.6,181.71c-.02.09-.06.18-.13.25-.07.07-.18.13-.32.18-.14.05-.33.08-.57.11-.24.02-.53.04-.87.04-.36,0-.66-.01-.88-.04s-.4-.06-.52-.11-.21-.11-.25-.18c-.04-.07-.06-.16-.04-.25l3.76-18.8c.02-.1.06-.18.13-.26.07-.07.18-.14.33-.19.15-.05.35-.09.58-.12.23-.03.53-.04.88-.04s.64.01.86.04c.22.03.4.07.52.12s.2.12.24.19c.04.08.05.16.03.26l-3.75,18.8Z"/>
    <path class="cls-2" d="m299.05,181.72c-.04.2-.19.34-.45.43-.26.09-.68.13-1.27.13-.29,0-.54,0-.72-.03s-.33-.05-.45-.09c-.11-.04-.19-.1-.22-.17-.03-.07-.04-.16-.02-.26l.4-2.05c-.14.31-.37.63-.69.97s-.69.64-1.12.92-.9.51-1.42.69c-.52.18-1.06.27-1.61.27-.76,0-1.4-.13-1.9-.4-.51-.27-.91-.63-1.22-1.08s-.52-.97-.65-1.55c-.13-.58-.19-1.19-.19-1.83,0-.6.06-1.26.17-1.97s.29-1.42.53-2.13c.24-.7.54-1.38.92-2.04s.82-1.23,1.34-1.74c.52-.5,1.11-.91,1.79-1.21.67-.3,1.43-.45,2.28-.45.79,0,1.49.17,2.1.5.61.33,1.14.81,1.6,1.44l.23-1.13c.04-.2.19-.34.45-.43.26-.09.68-.13,1.26-.13.29,0,.53.01.72.04.19.02.34.06.45.1.11.04.18.1.22.17.04.07.05.15.03.25l-2.56,12.79Zm-1.77-8.95c-.33-.52-.7-.92-1.11-1.18-.4-.26-.87-.39-1.41-.39-.4,0-.77.09-1.1.29-.33.19-.63.44-.89.76s-.48.69-.68,1.11c-.19.42-.36.86-.48,1.31-.13.45-.22.91-.29,1.37-.06.46-.09.89-.09,1.28,0,.29.02.56.06.81s.12.49.24.69.27.36.46.48c.19.12.43.18.73.18.42,0,.85-.13,1.29-.38s.85-.6,1.23-1.03.72-.94,1.01-1.52c.29-.58.5-1.19.63-1.85l.4-1.93Z"/>
    <path class="cls-2" d="m316.74,173c0,.63-.06,1.3-.17,2.02s-.29,1.43-.53,2.13c-.24.7-.54,1.38-.92,2.03-.37.65-.82,1.22-1.34,1.72-.53.5-1.12.89-1.8,1.19-.67.29-1.42.44-2.25.44s-1.51-.16-2.12-.47c-.62-.31-1.15-.79-1.6-1.43l-.22,1.09c-.04.2-.19.35-.45.44-.26.09-.68.14-1.27.14s-.96-.05-1.16-.14-.29-.24-.25-.43l3.76-18.8c.02-.1.06-.18.13-.26.07-.07.18-.14.33-.19.15-.05.35-.09.58-.12.23-.03.53-.04.88-.04s.64.01.86.04c.22.03.39.07.52.12.13.05.21.12.25.19.04.08.05.16.03.26l-1.02,5.12c-.05.22-.1.45-.16.7-.06.24-.12.48-.19.72-.07.24-.14.47-.22.69-.07.22-.14.42-.21.59.17-.31.42-.61.74-.92.32-.31.68-.59,1.09-.84.41-.25.85-.45,1.32-.6.47-.15.95-.23,1.42-.23.54,0,1.01.07,1.41.21s.75.33,1.05.57c.3.24.54.52.73.84.19.32.34.66.46,1.02.11.36.19.73.24,1.11.04.38.06.75.06,1.11Zm-3.7.36c0-.24-.02-.49-.05-.74s-.11-.49-.22-.7c-.11-.21-.26-.38-.45-.51-.19-.13-.44-.2-.76-.2-.43,0-.86.13-1.29.38-.44.25-.84.6-1.22,1.04s-.72.95-1.02,1.53c-.29.58-.5,1.2-.63,1.86l-.4,1.93c.33.52.7.91,1.11,1.17s.88.38,1.41.38c.38,0,.73-.09,1.06-.28.32-.18.62-.43.88-.73.26-.31.49-.66.69-1.07s.36-.84.5-1.29c.13-.45.23-.91.3-1.38.07-.47.1-.92.1-1.36Z"/>
    <path class="cls-2" d="m329.97,181.72c-.04.2-.19.34-.45.43-.26.09-.68.13-1.26.13-.3,0-.54,0-.72-.03-.19-.02-.34-.05-.45-.09-.11-.04-.19-.1-.22-.17-.04-.07-.04-.16-.02-.26l.4-2.05c-.14.31-.37.63-.69.97s-.69.64-1.12.92-.9.51-1.42.69-1.06.27-1.61.27c-.76,0-1.4-.13-1.9-.4-.5-.27-.91-.63-1.21-1.08s-.52-.97-.65-1.55c-.13-.58-.19-1.19-.19-1.83,0-.6.06-1.26.17-1.97s.29-1.42.53-2.13c.24-.7.54-1.38.92-2.04s.82-1.23,1.34-1.74c.52-.5,1.12-.91,1.79-1.21.67-.3,1.43-.45,2.28-.45.79,0,1.49.17,2.1.5.61.33,1.14.81,1.6,1.44l.23-1.13c.04-.2.19-.34.45-.43.26-.09.68-.13,1.27-.13.29,0,.52.01.71.04.19.02.34.06.45.1.11.04.18.1.22.17.04.07.05.15.03.25l-2.56,12.79Zm-1.77-8.95c-.33-.52-.7-.92-1.11-1.18s-.88-.39-1.41-.39c-.4,0-.77.09-1.1.29-.33.19-.63.44-.89.76s-.48.69-.68,1.11c-.2.42-.36.86-.49,1.31s-.22.91-.29,1.37-.09.89-.09,1.28c0,.29.02.56.07.81.04.26.12.49.23.69s.27.36.46.48c.19.12.44.18.73.18.42,0,.85-.13,1.29-.38s.85-.6,1.23-1.03.72-.94,1.01-1.52.5-1.19.64-1.85l.4-1.93Z"/>
    <path class="cls-2" d="m345.44,181.72c-.04.2-.19.34-.45.43-.26.09-.68.13-1.27.13-.29,0-.53,0-.72-.03-.18-.02-.33-.05-.45-.09-.11-.04-.19-.1-.22-.17-.03-.07-.04-.16-.02-.26l.39-2.05c-.14.31-.37.63-.69.97-.31.34-.69.65-1.11.93-.43.28-.9.51-1.42.69-.52.18-1.06.27-1.61.27s-1.02-.07-1.42-.21c-.41-.14-.75-.33-1.05-.57-.29-.24-.53-.52-.72-.84s-.34-.67-.46-1.03-.2-.74-.24-1.12c-.05-.39-.07-.77-.07-1.14,0-.62.06-1.28.17-2s.29-1.41.54-2.12c.24-.7.55-1.38.92-2.02.37-.65.82-1.22,1.34-1.72.52-.5,1.12-.89,1.79-1.19.67-.29,1.43-.44,2.27-.44.37,0,.73.04,1.07.12.34.08.65.19.93.33.28.14.54.3.77.5.23.19.42.39.59.6l1.36-6.73c.02-.09.06-.18.13-.26.07-.08.17-.14.32-.19.15-.05.34-.09.57-.12s.53-.04.88-.04.64.01.86.04c.22.03.4.07.52.12s.2.12.24.19c.04.08.05.16.03.26l-3.75,18.78Zm-1.79-8.94c-.33-.52-.7-.92-1.11-1.19-.4-.27-.88-.4-1.41-.4-.39,0-.75.09-1.08.28-.33.19-.62.43-.89.74-.26.31-.49.67-.69,1.09-.19.42-.36.85-.49,1.31-.13.46-.23.92-.29,1.37s-.1.89-.1,1.3c0,.73.12,1.27.36,1.64s.61.55,1.13.55c.42,0,.85-.13,1.29-.38.44-.25.85-.59,1.23-1.02.38-.42.72-.92,1.01-1.5.29-.58.5-1.19.64-1.85l.4-1.94Z"/>
  </g>
  <g>
    <path class="cls-2" d="m407.32,331.76c-.03.1-.07.18-.13.26-.06.07-.16.14-.29.18-.14.05-.33.08-.57.11s-.53.04-.89.04c-.37,0-.67-.01-.9-.04s-.4-.06-.53-.11-.2-.11-.24-.18c-.03-.08-.04-.16-.02-.26l3-15.06h-.03l-8.39,15.04c-.11.24-.34.4-.67.48-.33.08-.79.12-1.39.12s-1.07-.06-1.34-.17c-.27-.11-.41-.24-.42-.41l-2.17-15.09h-.03l-3.02,15.07c-.02.1-.06.18-.12.26-.06.07-.16.14-.3.18-.14.05-.33.08-.56.11s-.53.04-.89.04-.66-.01-.89-.04-.4-.06-.53-.11c-.12-.05-.2-.11-.24-.18-.04-.08-.04-.16-.01-.26l3.29-16.49c.05-.24.12-.45.22-.64.1-.19.22-.35.37-.48.15-.13.32-.23.51-.29.19-.07.4-.1.61-.1h2.35c.42,0,.78.04,1.07.11.29.07.54.19.73.37.19.17.33.39.44.67.1.28.17.61.21,1l1.79,11.01h.07l6.35-11.01c.19-.37.38-.69.57-.97.19-.27.4-.5.64-.67s.49-.31.78-.39.62-.12,1.02-.12h2.66c.24,0,.44.03.61.1.17.07.31.17.41.29.1.13.16.29.18.47.02.19.02.4-.02.64l-3.29,16.5Z"/>
    <path class="cls-2" d="m422.98,331.79c-.04.2-.19.34-.45.43-.26.09-.68.13-1.27.13-.3,0-.54,0-.72-.03-.19-.02-.34-.05-.45-.09-.11-.04-.19-.1-.22-.17-.03-.07-.04-.16-.02-.26l.4-2.05c-.15.31-.37.63-.69.97-.32.34-.69.64-1.12.92-.43.28-.9.51-1.42.69s-1.06.27-1.61.27c-.76,0-1.39-.13-1.9-.4-.51-.27-.91-.63-1.21-1.08-.31-.45-.52-.97-.65-1.55-.13-.58-.19-1.19-.19-1.83,0-.6.06-1.26.17-1.97s.29-1.42.53-2.13c.24-.7.55-1.38.92-2.04.37-.65.82-1.23,1.34-1.74.52-.5,1.12-.91,1.79-1.21.67-.3,1.43-.45,2.28-.45.79,0,1.49.17,2.1.5.61.33,1.14.81,1.6,1.44l.23-1.13c.04-.2.19-.34.45-.43.26-.09.68-.13,1.27-.13.29,0,.53.01.72.04s.34.06.45.1c.11.04.18.1.22.17.04.07.05.15.03.25l-2.56,12.79Zm-1.77-8.95c-.33-.52-.7-.92-1.11-1.18-.4-.26-.87-.39-1.41-.39-.4,0-.77.09-1.1.29-.33.19-.63.44-.88.76-.26.32-.48.69-.68,1.11s-.36.86-.49,1.31c-.13.45-.22.91-.29,1.37s-.09.89-.09,1.28c0,.29.02.56.06.81.04.26.12.49.24.69s.27.36.46.48.43.18.73.18c.42,0,.85-.13,1.28-.38.44-.25.85-.6,1.23-1.03.38-.43.72-.94,1.01-1.52s.5-1.19.64-1.85l.4-1.93Z"/>
    <path class="cls-2" d="m437.1,319.58c0,.11-.02.28-.05.51-.03.22-.08.45-.15.68s-.15.43-.24.59c-.09.17-.19.25-.31.25-.13,0-.27-.05-.44-.14-.17-.09-.37-.19-.61-.3-.24-.11-.51-.21-.84-.29-.32-.09-.69-.13-1.12-.13-.33,0-.63.04-.89.13-.26.09-.48.2-.65.35s-.3.32-.39.52c-.09.2-.14.42-.14.64,0,.29.12.54.37.74.24.2.55.39.91.57s.75.36,1.17.55.81.43,1.17.72.66.63.9,1.05c.24.41.36.92.36,1.54,0,.72-.14,1.39-.41,2.01-.28.61-.68,1.15-1.21,1.6-.53.45-1.17.8-1.93,1.05-.76.25-1.61.38-2.57.38-.46,0-.89-.04-1.31-.1-.42-.07-.79-.15-1.12-.24-.33-.1-.61-.21-.84-.33s-.4-.24-.51-.34c-.07-.08-.13-.16-.16-.24-.04-.09-.05-.2-.05-.33,0-.09,0-.2.02-.33.01-.13.04-.28.07-.44.04-.16.07-.32.11-.49.04-.16.09-.31.15-.44.06-.13.12-.24.19-.32.07-.08.14-.12.21-.12.13,0,.28.06.44.17.16.11.37.24.63.38.26.14.58.27.95.39.38.12.85.18,1.41.18.39,0,.73-.05,1.02-.14s.53-.22.72-.38.33-.35.42-.56c.09-.21.14-.43.14-.67,0-.33-.12-.61-.35-.82-.23-.21-.53-.4-.88-.59-.35-.18-.73-.37-1.15-.56-.42-.19-.8-.42-1.15-.7s-.65-.62-.88-1.03-.35-.92-.35-1.54c0-.68.13-1.31.39-1.89.26-.58.63-1.09,1.13-1.52s1.1-.77,1.8-1.02c.71-.24,1.51-.37,2.4-.37.4,0,.79.03,1.16.08.38.05.72.12,1.02.21.3.09.56.18.79.29.22.11.38.21.48.32.1.09.16.26.16.48Z"/>
    <path class="cls-2" d="m449.97,331.79c-.04.2-.19.34-.45.43-.26.09-.68.13-1.27.13-.3,0-.54,0-.72-.03-.19-.02-.34-.05-.45-.09-.11-.04-.19-.1-.22-.17-.03-.07-.04-.16-.02-.26l.4-2.05c-.15.31-.37.63-.69.97-.32.34-.69.64-1.12.92-.43.28-.9.51-1.42.69s-1.06.27-1.61.27c-.76,0-1.39-.13-1.9-.4-.51-.27-.91-.63-1.21-1.08-.31-.45-.52-.97-.65-1.55-.13-.58-.19-1.19-.19-1.83,0-.6.06-1.26.17-1.97s.29-1.42.53-2.13c.24-.7.55-1.38.92-2.04.37-.65.82-1.23,1.34-1.74.52-.5,1.12-.91,1.79-1.21.67-.3,1.43-.45,2.28-.45.79,0,1.49.17,2.1.5.61.33,1.14.81,1.6,1.44l.23-1.13c.04-.2.19-.34.45-.43.26-.09.68-.13,1.27-.13.29,0,.53.01.72.04s.34.06.45.1c.11.04.18.1.22.17.04.07.05.15.03.25l-2.56,12.79Zm-1.77-8.95c-.33-.52-.7-.92-1.11-1.18-.4-.26-.87-.39-1.41-.39-.4,0-.77.09-1.1.29-.33.19-.63.44-.88.76-.26.32-.48.69-.68,1.11s-.36.86-.49,1.31c-.13.45-.22.91-.29,1.37s-.09.89-.09,1.28c0,.29.02.56.06.81.04.26.12.49.24.69s.27.36.46.48.43.18.73.18c.42,0,.85-.13,1.28-.38.44-.25.85-.6,1.23-1.03.38-.43.72-.94,1.01-1.52s.5-1.19.64-1.85l.4-1.93Z"/>
    <path class="cls-2" d="m457.18,331.77c-.02.09-.06.18-.13.25-.07.07-.18.13-.32.18s-.33.08-.57.11-.53.04-.87.04c-.36,0-.66-.01-.88-.04-.22-.02-.4-.06-.52-.11-.13-.05-.21-.11-.25-.18-.04-.07-.06-.16-.04-.25l3.76-18.8c.02-.1.06-.18.13-.26.07-.07.18-.14.33-.19s.35-.09.58-.12c.23-.03.53-.04.88-.04s.64.01.87.04c.22.03.4.07.52.12.13.05.21.12.24.19.04.08.05.16.03.26l-3.75,18.8Z"/>
    <path class="cls-2" d="m464.37,331.77c-.02.09-.06.18-.13.25-.07.07-.18.13-.32.18-.14.05-.33.08-.57.11-.24.02-.53.04-.87.04-.36,0-.66-.01-.88-.04s-.4-.06-.52-.11-.21-.11-.25-.18c-.04-.07-.06-.16-.04-.25l3.76-18.8c.02-.1.06-.18.13-.26.07-.07.18-.14.33-.19.15-.05.35-.09.58-.12.23-.03.53-.04.88-.04s.64.01.86.04c.22.03.4.07.52.12s.2.12.24.19c.04.08.05.16.03.26l-3.75,18.8Z"/>
    <path class="cls-2" d="m471.57,331.77c-.02.09-.07.18-.14.25-.07.07-.18.13-.33.18-.15.05-.34.08-.58.11-.24.02-.53.04-.87.04s-.64-.01-.86-.04-.4-.06-.53-.11c-.13-.05-.21-.11-.25-.18-.04-.07-.05-.16-.03-.25l2.55-12.76c.02-.09.06-.18.14-.25.07-.07.18-.13.33-.18.15-.05.34-.08.57-.11.24-.02.53-.04.88-.04s.64.01.87.04.4.06.53.11.21.11.25.18c.04.07.05.16.03.25l-2.55,12.76Z"/>
  </g>
  <g>
    <path class="cls-2" d="m387.89,670.67c.05.34.07.61.06.82,0,.2-.07.35-.2.45-.13.1-.34.16-.64.19s-.7.04-1.21.04c-.36,0-.66,0-.89-.02-.23-.01-.4-.04-.53-.08-.12-.04-.21-.1-.26-.17-.05-.08-.08-.18-.09-.32l-.5-3.72h-6.95l-1.92,3.63c-.07.13-.14.24-.23.33-.08.09-.21.16-.37.21-.16.05-.38.08-.65.1-.27.02-.61.03-1.02.03-.44,0-.78-.02-1.02-.04-.24-.03-.4-.1-.49-.21s-.09-.26-.03-.46.18-.47.37-.8l8.98-16.42c.1-.16.19-.29.29-.39.1-.1.23-.18.41-.23.18-.05.42-.09.72-.1.3-.02.7-.02,1.18-.02.56,0,1.01,0,1.34.02.33.01.59.05.77.1s.3.13.36.24c.06.11.1.25.11.43l2.42,16.4Zm-5.62-13.57h-.01l-4.13,7.87h5.21l-1.06-7.87Z"/>
    <path class="cls-2" d="m400.62,659.39c0,.11-.02.28-.05.51-.04.22-.08.45-.15.68s-.15.43-.24.59c-.09.17-.19.25-.31.25-.12,0-.27-.05-.44-.14s-.37-.19-.61-.3c-.24-.11-.52-.21-.84-.29-.32-.09-.7-.13-1.12-.13-.33,0-.63.04-.9.13-.26.09-.48.2-.65.35s-.3.32-.39.52c-.09.2-.14.42-.14.64,0,.29.12.54.37.74s.55.39.91.57.75.36,1.17.55.81.43,1.17.72.66.63.9,1.05c.24.41.36.92.36,1.54,0,.72-.14,1.39-.42,2.01-.28.61-.68,1.15-1.21,1.6-.53.45-1.17.8-1.93,1.05s-1.61.38-2.57.38c-.46,0-.9-.04-1.31-.1s-.79-.15-1.11-.24c-.33-.1-.61-.21-.84-.33s-.4-.24-.51-.34c-.08-.08-.13-.16-.17-.24-.03-.09-.05-.2-.05-.33,0-.09,0-.2.02-.33.01-.13.04-.28.07-.44.03-.16.07-.32.11-.49s.09-.31.15-.44c.06-.13.12-.24.18-.32.07-.08.14-.12.22-.12.13,0,.28.06.44.17.16.11.37.24.63.38.26.14.57.27.95.39.38.12.84.18,1.41.18.39,0,.73-.05,1.02-.14.29-.09.53-.22.72-.38s.33-.35.42-.56c.09-.21.14-.43.14-.67,0-.33-.11-.61-.35-.82-.24-.21-.53-.4-.88-.59-.35-.18-.74-.37-1.15-.56-.41-.19-.8-.42-1.15-.7s-.64-.62-.88-1.03c-.24-.41-.35-.92-.35-1.54,0-.68.13-1.31.39-1.89.26-.58.63-1.09,1.13-1.52s1.1-.77,1.8-1.02c.7-.24,1.5-.37,2.4-.37.4,0,.79.03,1.17.08.38.05.71.12,1.02.21.3.09.56.18.78.29.22.11.39.21.48.32.11.09.16.26.16.48Z"/>
    <path class="cls-2" d="m411.33,658.96c0,.09,0,.22-.03.36-.02.15-.05.31-.08.48-.04.17-.08.34-.14.51s-.12.33-.19.46c-.07.14-.15.25-.24.34-.09.09-.19.14-.29.14h-2.79l-1.2,5.99c-.03.14-.06.31-.08.51s-.04.36-.04.48c0,.38.09.66.27.84.18.18.47.26.86.26.23,0,.43-.02.59-.05s.3-.07.42-.11c.12-.04.22-.08.31-.11.09-.03.17-.05.24-.05s.14.04.19.11c.05.07.08.19.08.35,0,.18-.02.39-.06.61-.04.23-.09.45-.15.67-.06.21-.13.41-.21.59s-.16.31-.24.39c-.09.09-.22.17-.39.24-.17.08-.37.15-.61.2s-.48.1-.75.13c-.27.03-.53.05-.8.05-.57,0-1.07-.06-1.51-.18s-.8-.31-1.09-.57c-.3-.26-.52-.59-.67-.99s-.22-.89-.22-1.46c0-.1,0-.22.02-.36s.03-.28.05-.44c.02-.15.05-.31.07-.46.02-.16.05-.3.08-.42l1.25-6.22h-1.54c-.13,0-.22-.04-.27-.12s-.09-.24-.09-.46c0-.16.02-.38.05-.64.03-.26.09-.52.16-.77.08-.25.18-.47.3-.65.13-.18.27-.27.44-.27h1.53l.57-2.85c.02-.09.06-.18.14-.26.07-.08.18-.14.33-.19s.34-.09.57-.11c.24-.02.53-.04.88-.04s.63.01.86.04.4.06.53.11c.12.05.21.12.25.19.04.07.06.16.04.26l-.57,2.85h2.76c.16,0,.27.05.33.16.06.1.08.26.08.46Z"/>
    <path class="cls-2" d="m422.95,671.6c-.04.2-.19.34-.45.43-.26.09-.68.13-1.27.13-.3,0-.54,0-.72-.03-.19-.02-.34-.05-.45-.09-.11-.04-.19-.1-.22-.17-.03-.07-.04-.16-.02-.26l.4-2.05c-.15.31-.37.63-.69.97-.32.34-.69.64-1.12.92-.43.28-.9.51-1.42.69s-1.06.27-1.61.27c-.76,0-1.39-.13-1.9-.4-.51-.27-.91-.63-1.21-1.08-.31-.45-.52-.97-.65-1.55-.13-.58-.19-1.19-.19-1.83,0-.6.06-1.26.17-1.97s.29-1.42.53-2.13c.24-.7.55-1.38.92-2.04.37-.65.82-1.23,1.34-1.74.52-.5,1.12-.91,1.79-1.21.67-.3,1.43-.45,2.28-.45.79,0,1.49.17,2.1.5.61.33,1.14.81,1.6,1.44l.23-1.13c.04-.2.19-.34.45-.43.26-.09.68-.13,1.27-.13.29,0,.53.01.72.04s.34.06.45.1c.11.04.18.1.22.17.04.07.05.15.03.25l-2.56,12.79Zm-1.77-8.95c-.33-.52-.7-.92-1.11-1.18-.4-.26-.87-.39-1.41-.39-.4,0-.77.09-1.1.29-.33.19-.63.44-.88.76-.26.32-.48.69-.68,1.11s-.36.86-.49,1.31c-.13.45-.22.91-.29,1.37s-.09.89-.09,1.28c0,.29.02.56.06.81.04.26.12.49.24.69s.27.36.46.48.43.18.73.18c.42,0,.85-.13,1.28-.38.44-.25.85-.6,1.23-1.03.38-.43.72-.94,1.01-1.52s.5-1.19.64-1.85l.4-1.93Z"/>
    <path class="cls-2" d="m437.16,658.63c0,.07-.01.18-.03.36-.02.17-.05.37-.08.6-.04.23-.09.46-.15.71-.06.24-.12.47-.19.68-.07.21-.15.38-.24.51-.09.13-.19.2-.29.2-.09,0-.17-.02-.26-.05s-.18-.07-.29-.1-.22-.07-.34-.1-.27-.05-.43-.05c-.32,0-.67.13-1.04.37-.37.25-.72.57-1.05.98s-.63.88-.89,1.41c-.26.54-.45,1.1-.57,1.69l-1.14,5.74c-.02.09-.06.18-.13.25-.07.07-.18.13-.33.18-.15.05-.34.08-.58.11-.24.02-.53.04-.87.04s-.64-.01-.87-.04c-.22-.02-.4-.06-.53-.11s-.21-.11-.25-.18c-.04-.07-.05-.16-.03-.25l2.54-12.77c.02-.09.06-.18.13-.25.07-.07.17-.13.29-.17.13-.04.29-.08.5-.1.2-.02.45-.04.73-.04s.54.01.72.04c.19.02.33.06.44.1.1.04.17.1.21.17.03.07.04.15.02.25l-.4,2.03c.23-.41.5-.79.79-1.13s.62-.64.96-.89c.34-.25.69-.45,1.05-.59s.72-.22,1.07-.22c.15,0,.29.01.44.03.15.02.29.04.42.07.13.03.24.06.34.11.1.04.18.09.23.13.06.06.09.15.09.27Z"/>
    <path class="cls-2" d="m448.72,671.6c-.04.2-.19.34-.45.43-.26.09-.68.13-1.27.13-.29,0-.54,0-.72-.03-.19-.02-.34-.05-.45-.09-.11-.04-.19-.1-.22-.17-.03-.07-.04-.16-.02-.26l.4-2.05c-.14.31-.37.63-.69.97-.31.34-.69.64-1.11.92-.43.28-.9.51-1.42.69-.52.18-1.06.27-1.61.27-.76,0-1.4-.13-1.9-.4-.5-.27-.91-.63-1.22-1.08-.3-.45-.52-.97-.65-1.55-.13-.58-.19-1.19-.19-1.83,0-.6.06-1.26.17-1.97s.29-1.42.53-2.13c.24-.7.54-1.38.92-2.04.37-.65.82-1.23,1.34-1.74.52-.5,1.12-.91,1.79-1.21.67-.3,1.43-.45,2.28-.45.79,0,1.49.17,2.1.5.61.33,1.14.81,1.6,1.44l.23-1.13c.04-.2.19-.34.45-.43.26-.09.68-.13,1.27-.13.29,0,.52.01.72.04s.34.06.45.1c.11.04.18.1.22.17.04.07.05.15.03.25l-2.56,12.79Zm-1.77-8.95c-.33-.52-.7-.92-1.11-1.18s-.88-.39-1.41-.39c-.4,0-.77.09-1.1.29-.33.19-.63.44-.89.76-.26.32-.48.69-.68,1.11-.2.42-.36.86-.49,1.31-.13.45-.22.91-.29,1.37-.06.46-.09.89-.09,1.28,0,.29.02.56.07.81.04.26.12.49.24.69s.27.36.46.48.43.18.73.18c.42,0,.85-.13,1.29-.38.44-.25.85-.6,1.23-1.03.38-.43.72-.94,1.01-1.52.29-.58.5-1.19.64-1.85l.4-1.93Z"/>
  </g>
  <g>
    <path class="cls-2" d="m257.17,510.44c0,.07,0,.17-.02.32-.01.15-.04.32-.07.51-.04.19-.08.39-.13.59s-.11.38-.18.55c-.07.17-.16.3-.25.41-.1.11-.2.16-.33.16h-8.48c-.15,0-.29-.02-.42-.06-.13-.04-.23-.11-.31-.22-.08-.1-.14-.22-.17-.37s-.02-.33.02-.54l3.37-16.82c0-.09.05-.18.13-.26s.19-.14.35-.19c.16-.05.36-.08.6-.11.24-.02.55-.04.92-.04s.66.01.9.04c.24.02.42.06.56.11.13.05.22.11.26.19.04.07.06.16.04.26l-2.97,14.9h5.83c.13,0,.23.05.28.16s.08.24.08.42Z"/>
    <path class="cls-2" d="m272.14,502.53c0,.69-.15,1.3-.46,1.85s-.79,1.02-1.44,1.41c-.65.4-1.48.7-2.49.91-1.01.21-2.21.31-3.6.31h-1.32c-.04.22-.07.44-.09.65-.02.21-.03.41-.03.59,0,.77.2,1.35.6,1.74.4.39,1.04.59,1.93.59.63,0,1.19-.05,1.7-.14.5-.09.94-.19,1.32-.3.38-.11.69-.21.94-.3.25-.09.43-.14.54-.14s.2.04.24.1c.05.07.07.17.07.31,0,.16-.01.35-.04.56-.03.21-.07.42-.12.62-.05.2-.12.4-.2.58-.08.18-.18.32-.28.42-.11.11-.33.23-.63.34-.31.11-.67.22-1.1.31s-.91.17-1.44.24c-.53.06-1.08.09-1.63.09-.92,0-1.71-.1-2.4-.29-.68-.19-1.25-.48-1.71-.87s-.8-.89-1.03-1.49-.34-1.32-.34-2.15c0-.64.06-1.32.18-2.05.12-.73.31-1.45.58-2.16.27-.71.61-1.39,1.03-2.04.42-.65.93-1.22,1.52-1.71s1.28-.88,2.07-1.18c.78-.29,1.67-.44,2.68-.44.87,0,1.61.1,2.24.31s1.14.48,1.54.82.7.72.89,1.16.29.88.29,1.34Zm-3.53.27c0-.38-.15-.7-.45-.95-.3-.25-.74-.38-1.31-.38-.48,0-.9.09-1.28.26-.38.17-.71.4-.99.69s-.53.63-.74,1.03-.37.82-.49,1.27h1.2c.76,0,1.4-.05,1.92-.15.51-.1.93-.24,1.24-.41s.54-.37.69-.61.22-.48.22-.75Z"/>
    <path class="cls-2" d="m283.82,499.53c0,.07-.01.18-.03.36-.02.17-.05.37-.09.6-.04.23-.09.46-.14.71-.06.24-.12.47-.19.68-.07.21-.15.38-.24.51-.09.13-.19.2-.29.2-.09,0-.17-.02-.26-.05s-.18-.07-.29-.1c-.1-.03-.22-.07-.34-.1-.12-.03-.27-.05-.43-.05-.32,0-.67.13-1.04.37-.37.25-.72.57-1.05.98-.33.4-.63.88-.89,1.41s-.45,1.1-.57,1.69l-1.14,5.74c-.02.09-.06.18-.13.25-.07.07-.18.13-.33.18s-.34.08-.58.11c-.24.02-.53.04-.87.04s-.64-.01-.86-.04-.4-.06-.53-.11c-.13-.05-.21-.11-.25-.18-.04-.07-.05-.16-.03-.25l2.55-12.77c.02-.09.06-.18.13-.25.07-.07.17-.13.29-.17.13-.04.29-.08.5-.1s.45-.04.74-.04.54.01.72.04c.19.02.33.06.44.1.11.04.17.1.21.17.03.07.04.15.02.25l-.4,2.03c.23-.41.5-.79.79-1.13.3-.34.62-.64.96-.89.34-.25.69-.45,1.05-.59.36-.14.72-.22,1.07-.22.14,0,.29.01.44.03.15.02.29.04.42.07.13.03.24.06.34.11.1.04.18.09.24.13.06.06.09.15.09.27Z"/>
    <path class="cls-2" d="m287.14,512.49c-.02.09-.07.18-.14.25-.07.07-.18.13-.33.18-.15.05-.34.08-.58.11-.24.02-.53.04-.87.04s-.64-.01-.87-.04c-.22-.02-.4-.06-.53-.11-.13-.05-.21-.11-.25-.18-.04-.07-.05-.16-.03-.25l2.53-12.73c.02-.09.06-.18.13-.25.07-.07.18-.13.33-.18s.34-.09.57-.12c.23-.03.53-.04.88-.04s.64.02.86.04c.22.03.4.07.53.12.13.05.21.11.25.18.04.07.05.16.03.25l-2.53,12.73Zm3.69-17.05c-.07.35-.16.65-.27.89-.11.24-.27.44-.46.59-.19.15-.42.25-.7.31-.28.06-.62.09-1.03.09s-.73-.03-.98-.09c-.25-.06-.44-.17-.57-.31-.13-.15-.2-.34-.22-.59-.02-.24,0-.54.09-.89.07-.34.16-.63.27-.87.11-.24.27-.43.46-.59.19-.15.42-.26.7-.33.28-.07.62-.1,1.03-.1s.73.03.98.1c.25.07.44.18.57.33.13.15.2.35.21.59.02.24-.01.53-.08.87Z"/>
    <path class="cls-2" d="m304.68,499.67c0,.15-.06.33-.19.54-.13.2-.34.46-.64.78l-4.5,4.25,2.93,6.15c.1.23.16.43.2.6.04.17.06.3.06.4,0,.11-.03.21-.09.3s-.17.16-.31.22-.35.1-.6.12-.57.04-.95.04-.69,0-.92-.03c-.24-.02-.42-.05-.54-.1-.13-.05-.22-.11-.29-.18-.06-.08-.11-.17-.14-.29l-3.02-6.72-1.34,6.75c-.03.09-.08.18-.15.25s-.18.13-.33.18c-.15.05-.34.08-.58.11-.24.02-.53.04-.87.04s-.64-.01-.86-.04c-.22-.02-.4-.06-.52-.1-.12-.04-.21-.1-.25-.17-.04-.07-.06-.15-.04-.25l3.78-18.82c.02-.1.06-.18.13-.26.07-.07.18-.14.33-.19.15-.05.35-.09.58-.12.23-.03.53-.04.88-.04s.64.01.87.04c.22.03.4.07.52.12.12.05.2.12.24.19.04.08.05.16.03.26l-2.23,11.2,4.78-5.11c.1-.11.2-.21.31-.29s.25-.15.42-.19c.17-.05.38-.08.62-.1.24-.02.55-.03.91-.03s.65,0,.89.03c.24.02.42.05.56.09.13.04.23.1.28.17.05.07.08.14.08.23Z"/>
  </g>
  <g>
    <path class="cls-2" d="m383.71,470.69c0,.06,0,.16-.02.3-.01.14-.04.3-.07.48-.03.18-.07.37-.12.55-.05.19-.11.36-.17.52-.07.16-.15.29-.24.38-.09.1-.19.15-.31.15h-8.01c-.14,0-.28-.02-.4-.06-.12-.04-.22-.11-.3-.2-.07-.09-.13-.21-.15-.35-.03-.14-.02-.31.01-.51l3.19-15.88c0-.09.05-.17.12-.24s.18-.13.33-.18c.15-.05.34-.08.57-.1.23-.02.52-.03.87-.03s.63.01.85.03c.22.02.4.06.53.1s.21.1.25.18c.04.07.05.15.04.24l-2.81,14.07h5.51c.12,0,.21.05.26.15s.07.23.07.39Z"/>
    <path class="cls-2" d="m385.26,469.97c0-.65.15-1.23.44-1.75s.75-.96,1.36-1.34,1.4-.66,2.35-.86c.95-.2,2.08-.3,3.4-.3h1.24c.04-.21.06-.41.08-.61.02-.2.03-.39.03-.56,0-.73-.19-1.28-.57-1.65-.38-.37-.98-.55-1.82-.55-.59,0-1.13.04-1.6.13-.47.09-.88.18-1.24.28-.36.1-.65.2-.88.28-.23.09-.4.13-.51.13s-.19-.03-.23-.1-.07-.16-.07-.3c0-.15.01-.33.04-.53.03-.2.07-.39.11-.59.05-.19.11-.38.19-.55.08-.17.17-.3.26-.39.11-.11.31-.22.59-.32s.63-.21,1.04-.3c.4-.09.86-.16,1.36-.22s1.02-.09,1.54-.09c.86,0,1.62.09,2.26.27.64.18,1.18.45,1.61.82s.76.84.97,1.41.32,1.25.32,2.03c0,.6-.05,1.25-.17,1.94-.11.69-.29,1.37-.55,2.04s-.58,1.31-.97,1.92-.88,1.15-1.44,1.61c-.56.46-1.21.84-1.95,1.11-.74.28-1.58.42-2.52.42-.82,0-1.52-.1-2.11-.29s-1.07-.45-1.45-.77-.66-.68-.84-1.09-.28-.83-.28-1.26Zm3.33-.26c0,.36.14.66.43.9.28.24.69.36,1.23.36.45,0,.85-.08,1.21-.24.36-.16.67-.38.94-.65s.5-.6.7-.97.35-.77.47-1.2h-1.13c-.72,0-1.32.05-1.81.14-.49.09-.88.22-1.18.38-.29.16-.51.35-.65.57-.13.22-.2.46-.2.71Z"/>
    <path class="cls-2" d="m411.83,463.26c0,.32-.02.63-.06.95-.04.31-.09.64-.15.97l-1.5,7.44c-.02.09-.06.17-.13.24s-.17.12-.31.17-.32.08-.54.1c-.22.02-.5.03-.83.03s-.6-.01-.82-.03-.38-.06-.49-.1c-.12-.05-.2-.1-.23-.17-.04-.07-.05-.15-.04-.24l1.46-7.22c.05-.22.08-.44.1-.66s.04-.42.04-.59c0-.41-.09-.74-.26-1s-.46-.39-.86-.39c-.37,0-.75.12-1.15.35-.4.23-.78.55-1.13.95-.36.4-.67.87-.95,1.4s-.48,1.11-.59,1.71l-1.09,5.45c-.02.09-.06.17-.13.24-.07.07-.17.12-.31.17-.14.05-.32.08-.55.1s-.5.03-.82.03-.6-.01-.82-.03c-.21-.02-.38-.06-.5-.1-.12-.05-.2-.1-.24-.17-.04-.07-.04-.15-.03-.24l2.42-12.06c.02-.09.05-.17.11-.23.06-.07.15-.12.27-.16.12-.04.28-.07.47-.1.2-.02.43-.03.7-.03s.51.01.68.03c.18.02.31.05.41.1.1.04.16.09.2.16.03.07.04.15.02.23l-.39,1.99c.19-.32.44-.64.76-.97s.68-.62,1.09-.88c.41-.26.86-.48,1.34-.64s.98-.25,1.5-.25c.63,0,1.16.09,1.59.28s.77.43,1.04.75c.26.32.45.68.57,1.1.12.42.18.86.18,1.33Z"/>
    <path class="cls-2" d="m426.63,460.52c0,.14-.06.31-.18.51-.12.19-.32.44-.6.74l-4.25,4.01,2.77,5.8c.09.22.15.41.19.57.04.16.05.29.05.38,0,.11-.03.2-.09.28s-.16.15-.3.2-.33.09-.57.11c-.24.02-.54.03-.9.03s-.65,0-.87-.03c-.22-.02-.39-.05-.51-.1-.12-.04-.21-.1-.27-.17s-.1-.16-.13-.27l-2.85-6.35-1.27,6.37c-.03.09-.07.17-.14.24s-.17.12-.31.17c-.14.05-.32.08-.55.1-.22.02-.5.03-.82.03s-.61-.01-.82-.03c-.21-.02-.38-.05-.49-.1-.12-.04-.2-.09-.24-.16-.04-.07-.05-.15-.03-.23l3.56-17.77c.02-.09.06-.17.12-.25.06-.07.17-.13.31-.18.14-.05.32-.09.55-.11.22-.03.5-.04.83-.04s.61.01.82.04c.21.02.37.06.49.11s.19.11.23.18c.04.07.04.15.02.25l-2.11,10.57,4.51-4.82c.09-.11.19-.2.29-.28.1-.08.24-.14.4-.18.16-.05.36-.08.59-.1.23-.02.52-.03.86-.03s.61,0,.84.03c.22.02.4.05.53.09.13.04.21.09.26.16s.07.14.07.22Z"/>
    <path class="cls-2" d="m426.7,469.97c0-.65.15-1.23.44-1.75.29-.52.75-.96,1.36-1.34.61-.37,1.4-.66,2.35-.86.95-.2,2.08-.3,3.4-.3h1.24c.04-.21.06-.41.08-.61.02-.2.03-.39.03-.56,0-.73-.19-1.28-.57-1.65-.38-.37-.98-.55-1.82-.55-.59,0-1.13.04-1.6.13-.47.09-.88.18-1.24.28-.35.1-.65.2-.88.28s-.41.13-.51.13-.18-.03-.23-.1c-.05-.06-.07-.16-.07-.3,0-.15.01-.33.04-.53.03-.2.07-.39.12-.59s.11-.38.19-.55c.08-.17.17-.3.27-.39.11-.11.31-.22.59-.32.29-.11.63-.21,1.04-.3s.86-.16,1.36-.22c.5-.06,1.02-.09,1.54-.09.86,0,1.62.09,2.26.27.64.18,1.18.45,1.61.82s.76.84.97,1.41.32,1.25.32,2.03c0,.6-.06,1.25-.17,1.94-.11.69-.29,1.37-.55,2.04-.25.67-.58,1.31-.97,1.92-.39.61-.87,1.15-1.44,1.61-.56.46-1.21.84-1.95,1.11s-1.58.42-2.52.42c-.82,0-1.52-.1-2.11-.29s-1.07-.45-1.45-.77-.66-.68-.84-1.09c-.19-.41-.28-.83-.28-1.26Zm3.34-.26c0,.36.14.66.42.9s.7.36,1.24.36c.45,0,.85-.08,1.21-.24.36-.16.67-.38.94-.65s.5-.6.7-.97c.19-.37.35-.77.47-1.2h-1.13c-.72,0-1.33.05-1.81.14-.49.09-.88.22-1.17.38s-.51.35-.65.57-.2.46-.2.71Z"/>
    <path class="cls-2" d="m450.31,460.38c0,.06,0,.17-.02.34-.02.16-.05.35-.08.57-.04.22-.08.44-.13.67-.05.23-.12.44-.18.64s-.15.36-.23.49c-.09.13-.18.19-.28.19-.08,0-.16-.02-.24-.05s-.17-.06-.27-.09-.21-.06-.32-.1-.25-.05-.41-.05c-.31,0-.63.12-.98.35-.34.23-.68.54-.99.92s-.6.83-.85,1.34c-.25.51-.42,1.04-.53,1.6l-1.08,5.42c-.02.09-.06.17-.13.24-.07.07-.17.12-.31.17-.14.05-.32.08-.54.1-.23.02-.5.03-.82.03s-.6-.01-.82-.03-.38-.06-.5-.1c-.12-.05-.2-.1-.24-.17-.04-.07-.05-.15-.03-.24l2.41-12.06c.02-.09.06-.17.12-.23.06-.07.15-.12.28-.16.12-.04.28-.07.47-.1.2-.02.43-.03.7-.03s.51.01.68.03.31.05.41.1c.1.04.16.09.2.16.03.07.04.15.02.23l-.38,1.92c.22-.39.47-.74.75-1.07.29-.32.59-.6.91-.84s.65-.43.99-.56.68-.2,1.01-.2c.13,0,.27.01.41.03.14.02.27.04.39.07s.23.06.32.1c.1.04.17.08.22.13.05.05.08.14.08.26Z"/>
    <path class="cls-2" d="m461.24,472.63c-.04.19-.18.32-.43.4-.25.08-.64.12-1.19.12-.28,0-.51,0-.68-.03-.18-.02-.32-.05-.43-.09-.11-.04-.18-.1-.21-.16-.03-.07-.04-.15-.02-.25l.38-1.93c-.14.29-.35.59-.65.91-.3.32-.65.61-1.06.87-.4.26-.85.48-1.34.65s-1,.26-1.52.26c-.72,0-1.32-.13-1.79-.38-.48-.25-.86-.59-1.15-1.02-.29-.43-.49-.92-.61-1.46-.12-.55-.18-1.13-.18-1.73,0-.57.05-1.19.16-1.86s.27-1.34.5-2.01c.23-.66.52-1.31.86-1.92.35-.62.77-1.16,1.26-1.64.49-.48,1.05-.86,1.69-1.14.63-.28,1.35-.43,2.15-.43.75,0,1.41.16,1.98.47.58.31,1.08.76,1.51,1.36l.22-1.07c.04-.19.18-.32.43-.4.25-.08.64-.12,1.19-.12.27,0,.5.01.68.03s.32.05.43.1c.1.04.17.09.21.16.04.07.04.15.02.23l-2.42,12.07Zm-1.67-8.45c-.31-.49-.66-.87-1.05-1.11-.38-.25-.82-.37-1.33-.37-.38,0-.72.09-1.04.27-.31.18-.59.42-.84.72-.25.3-.46.65-.64,1.05s-.34.81-.46,1.24c-.12.43-.21.86-.27,1.3s-.09.84-.09,1.21c0,.27.02.53.06.77.04.24.11.46.22.65s.25.34.43.45.41.17.69.17c.39,0,.8-.12,1.21-.36.42-.24.8-.56,1.16-.97.36-.41.68-.89.95-1.43s.47-1.13.6-1.75l.38-1.82Z"/>
    <path class="cls-2" d="m477.6,463.26c0,.32-.02.63-.06.95-.04.31-.09.64-.16.97l-1.5,7.44c-.02.09-.06.17-.13.24-.07.07-.17.12-.31.17-.14.05-.32.08-.54.1s-.5.03-.83.03-.6-.01-.81-.03c-.21-.02-.38-.06-.49-.1s-.2-.1-.24-.17c-.04-.07-.05-.15-.03-.24l1.46-7.22c.05-.22.08-.44.1-.66.02-.22.04-.42.04-.59,0-.41-.09-.74-.26-1-.17-.26-.46-.39-.86-.39-.37,0-.76.12-1.15.35-.4.23-.78.55-1.13.95-.36.4-.67.87-.95,1.4-.28.54-.48,1.11-.59,1.71l-1.09,5.45c-.02.09-.06.17-.13.24-.07.07-.17.12-.31.17-.14.05-.32.08-.55.1-.22.02-.5.03-.82.03s-.61-.01-.82-.03c-.21-.02-.38-.06-.5-.1s-.2-.1-.24-.17c-.04-.07-.04-.15-.02-.24l2.42-12.06c.02-.09.06-.17.11-.23.06-.07.15-.12.27-.16.12-.04.28-.07.47-.1.19-.02.42-.03.69-.03s.51.01.68.03c.18.02.32.05.41.1.1.04.16.09.2.16.03.07.04.15.02.23l-.39,1.99c.19-.32.44-.64.76-.97.32-.33.68-.62,1.09-.88.41-.26.86-.48,1.34-.64.48-.17.98-.25,1.5-.25.63,0,1.16.09,1.59.28s.77.43,1.04.75c.27.32.46.68.57,1.1.12.42.18.86.18,1.33Z"/>
  </g>
</svg>