<?xml version="1.0" encoding="UTF-8"?>
<svg xmlns="http://www.w3.org/2000/svg" version="1.1" viewBox="0 0 841.89 595.28">
  <defs>
    <style>
      .cls-1 {
        fill: #17312c;
      }
    </style>
  </defs>
  <!-- Generator: Adobe Illustrator 28.6.0, SVG Export Plug-In . SVG Version: 1.2.0 Build 709)  -->
  <g>
    <g id="Layer_1">
      <path id="Path_2099" class="cls-1" d="M399.25,43.18c0,1.11-2.22,4.43-4.88,7.09-4.21,4.21-4.88,7.32-5.1,23.28,0,21.95-3.33,27.49-13.75,23.06-13.96-5.77-18.85-11.97-20.84-25.72-2-15.52-4.21-18.18-12.42-15.3-4.43,1.55-6.43,3.99-7.54,9.31-1.77,8.65-7.76,15.96-13.08,15.96-2,0-5.54,1.99-7.76,4.43-2.22,2.44-5.77,4.43-7.76,4.43-2.22,0-5.54,2.44-7.54,5.54-3.99,5.99-11.75,7.32-19.51,3.11-3.55-1.77-4.21-3.77-3.1-8.87,1.33-6.87-.89-8.43-5.1-3.55-3.1,3.99-15.52,9.09-31.7,13.75-11.31,3.11-13.3,4.43-17.29,12.19-7.54,14.63-11.53,33.26-8.87,41.24,2.66,7.76,17.07,22.17,40.13,40.35,8.2,6.43,16.41,13.96,18.18,16.63,5.1,7.76,10.42,27.71,10.42,38.58,0,16.41-4.88,22.39-23.28,28.6-7.55,2.61-14.89,5.8-21.95,9.54-7.75,3.52-15.96,5.91-24.39,7.09-9.31,1.11-13.75,2.88-15.3,5.54-5.1,8.87-12.42,14.19-19.95,14.19-9.09,0-13.3,4.43-13.3,13.53,0,4.88,2.66,9.53,10.86,17.74,12.64,12.86,22.39,18.62,36.36,20.84,5.34.84,10.55,2.33,15.52,4.43,8.87,4.66,25.94,23.5,29.71,33.04,3.28,6.71,7.3,13.03,11.98,18.84,4.65,5.54,9.76,13.52,11.31,17.51,3.99,9.31,9.98,10.64,24.17,5.1,21.06-8.43,31.48-4.43,31.48,11.31,0,6.87,1.11,8.65,7.76,12.64,4.21,2.44,7.76,5.54,7.76,6.65,0,1.33,6.21,9.09,13.75,17.3,8.26,9.32,15.27,19.68,20.84,30.82,4.21,8.87,9.09,16.41,11.09,17.29,12.64,4.88,40.8-2.22,62.74-15.74,10.86-6.65,19.51-10.42,26.16-11.31l9.98-1.11-1.77-12.42c-1.11-6.87-2-30.82-2-53.43s-1.33-47-2.66-54.32c-1.34-6.35-2.15-12.8-2.44-19.29,0-3.33-2-9.53-4.66-13.96-4.66-7.98-5.77-20.62-2.66-28.6.89-2.22,5.1-5.77,9.09-7.76,10.42-4.88,16.85-17.3,18.4-34.81.44-7.76,2.66-16.85,4.88-19.95,4.88-7.54,2.66-19.51-4.88-26.61-5.54-5.1-5.32-9.76.66-9.76,3.99,0,3.99-7.32,0-15.08-2.66-5.32-2.66-7.98-.22-19.29,4.43-18.62,9.31-24.17,21.28-25.05,5.99-.44,11.53-2.44,14.42-5.1,3.33-3.1,7.09-4.21,12.19-3.77,7.09.67,7.54,1.11,7.09,8.87-.44,5.77.22,7.98,2.22,7.32,2.03-.57,4.21-.25,5.99.89,2.66,1.77,2.22,3.55-2.66,10.42-3.33,4.66-5.54,9.09-4.88,10.2,2.44,3.99,11.75,1.33,21.06-5.54,14.41-11.09,18.62-12.86,21.5-9.98,3.77,3.77,3.55-20.62,0-25.27-4.88-5.77-27.71-17.07-37.69-18.62-11.53-1.77-15.74-5.1-21.95-17.96-5.1-10.64-14.42-16.63-22.61-14.42-2.44.67-6.43,5.54-9.09,11.53-5.99,12.86-11.97,19.96-29.49,35.03-7.54,6.43-13.96,13.96-14.42,16.63-.66,4.43-1.99,4.88-19.07,5.54-16.85.66-18.62.22-23.72-4.88-6.43-6.43-6.87-12.19-2-26.16,3.11-9.53,3.11-11.53-1.11-28.82-2.44-9.98-6.43-22.39-8.87-27.27-5.99-11.53-5.99-13.75,2.22-28.82,3.77-6.87,6.21-13.3,5.32-13.96-1.55-1.77-17.07-7.09-20.4-7.09-1.55-.01-2.89.87-2.89,2.2Z"/>
    </g>
  </g>
</svg>