<?xml version="1.0" encoding="UTF-8"?>
<svg id="Layer_1" data-name="Layer 1" xmlns="http://www.w3.org/2000/svg" viewBox="0 0 500 500">
  <defs>
    <style>
      .cls-1 {
        fill: #0b7b5f;
        stroke: #fff;
        stroke-miterlimit: 10;
      }

      .cls-2 {
        fill: #f9e5af;
      }
    </style>
  </defs>
  <g>
    <path class="cls-1" d="m271.99,174.4c0,1.19.55,2.45.94,3.54.27.76,1.65,5.04-.18,4.99-.61-.02-1.67-1.62-2.26-1.95-.79-.44-1.71-.5-2.44-1.05-.71-.53-.77-1.3-1.33-1.9-.57-.61-1.55-.37-2.3-.36-1.67,0-4.03-.54-5.2.9-1.64,2.02-2.89,4.83-.33,6.74,2.26,1.69,2.86,4.24,2.84,6.98,0,1.39.32,2.81-.66,3.89-.62.69-1.48,1.52-2.25,2.08-.65.48-1.42.61-2.14.94-2,.9-4.16,2.27-6.42,2.36-.61.02-1.22-.08-1.83,0-.66.09-1.27.39-1.92.54-1.88.44-3.33,1.52-4.41,3.07-1,1.44-2.42,2.27-3.09,3.99-1.53,3.95-1.14,9.98-5.39,12.28-1.34.73-2.93.93-4.34.32-1.12-.49-2.28-.67-3.53-.66-.81,0-1.71-.1-2.51.01-.92.13-1.79.6-2.63.98-1.41.64-3.26,1.55-4.82,1.67-.34.03-.73-.15-1.13-.43-.37.58-1.04,1.13-1.19,1.75-.17.7-.37,1.15-.49,1.81-.15.82-.3,1.47-.34,2.33-.05,1.4-.75,3.03-.27,4.48.37,1.1,1.75,1.64,2.5,2.4.93.94,1.57,2.17,2.32,3.24.31.45.72.83,1.08,1.24.37.42.79,1.17,1.23,1.5.56.42.96.22,1.49-.16.75-.54,1.6-1.25,2.26-1.92.29-.3.51-.75.81-1.01.23-.2.42-.2.65-.34.54-.33,1.15-1.09,1.76-1.27.3,1.57.71,4.04,2.09,5.01.09-.13.18-.26.24-.4-.06.14-.15.27-.24.4.1.07.2.13.3.18,1.98.96,4.86,1.07,6.46,2.6.67.64,1.07,1.56,1.83,2.14.84.65,2,1.24,3,1.57,1.2.39,1.81.77,2.4,2,.34.71.23,1.54.23,2.38.02,3.35-1.02,6.62-.99,9.95,0,.86-.03,1.59-.17,2.43-.08.47-.38.79.14,1.16.03.02.08.04.12.06.14-.13.27-.26.39-.38-.12.12-.25.25-.39.38.53.26,1.69.28,2.14.39,1.09.27,1.96.97,2.86,1.61.51.37,1,.83,1.58,1.08,1.12.48,2.42.1,3.59.3,1.11.19,1.67.92,2.1,1.92.41.95.47,2.09,1.26,2.82,1.32,1.23,2.87,1.28,4.58,1.65,1.04.22,1.88.53,2.82,1.01.71.36,1.37.63,2.2.53,1.06-.13,1.52-1.12,2.3-1.8.75-.65,1.36-1.35,2.02-2.06.48-.52,1.07-1.01,1.67-1.39,1.08-.7,2.19-1.47,3.3-2.12,1.85-1.09,3.59-2.28,5.56-3.23,2.24-1.08,4.4-2.12,6.71-3.04,1.11-.44,2.47-.66,3.49-1.32.79-.51.84-1.26,1.03-2.16.31-1.48,1.24-2.91,2.14-4.14,1.79-2.44,4.42-4.28,7.43-4.8,1.49-.26,2.96-.45,4.47-.29,1.33.14,1.9.42,2.94,1.11,1.42.93,2.93,1.83,4.59,2.24.89.22,1.51.58,2.18,1.11.63.5,1.08.96,1.62,0,.26-.46.26-1.05.4-1.55.19-.66.39-1.31.55-1.98.39-1.65-.08-3.38.28-4.98.2-.89.63-1.83.68-2.85.03-.56-.05-1.05.06-1.62.09-.46.3-.84.29-1.33-.02-.97-.46-2.23-.66-3.19-.56-2.61-2.39-4.77-3.11-7.35-.41-1.49-.22-3.11-.42-4.63-.23-1.72.13-3.76.57-5.44.48-1.82,1.17-3.59,1.39-5.47.16-1.4-.84-1.77-1.93-2.57-1.29-.95-2.38-2-3.82-2.73-1.49-.75-2.13-1.95-3.29-3.08-.8-.79-1.82-1.21-2.71-1.89-1.06-.82-1.39-1.82-1.58-3.14-.13-.9,0-1.69-.04-2.56-.03-.74-.24-1.44-.31-2.17-.15-1.5-.13-3.24.04-4.74.17-1.48.48-2.74,1.1-4.07.35-.75.5-1.56.89-2.29.81-1.54.18,0,1.72-3.22-.54-.2-1.12-.28-1.79-.5-2.3-.77-3.15-3.15-4.99-4.51-1.52-1.13-3.29.66-4.7,1.33-1.23.59-2,1.47-3.07,2.25-1.1.8-2.26,1.5-3.5,2.08-.92.43-1.59.89-2.47.25-.65-.48-.93-1.08-1.2-1.8-.24-.64-.46-1.34-.86-1.94-.49-.74-1.22-1.33-1.89-1.91-1.13-.98-2.43-1.79-3.44-2.98-.63-.74-1.23-1.53-1.8-2.31-.12-.17-.17-.24-.19-.28-1.24.18-2.41.65-3.69.62-.79-.02-1.04-.13-1.04.7Z"/>
    <path class="cls-1" d="m397.8,175.83c-.46-.52-.71-1.04-1.46-1.16-.39-.06-.78.03-1.19-.06-.3-.06-.45-.22-.8-.27-.62-.07-1.1.18-1.59-.3-.32-.31-.55-.84-.9-1.19-.28-.27-.54-.53-.85-.76-1.04-.77-2.36-.39-3.59-.07-1.18.31-2.18.48-3.39.1-.74-.24-.89-.7-1.59-.79-.41-.05-.94.27-1.36.33-.43.06-.92.09-1.35.04-.94-.11-1.14-.94-1.63-1.75-1.04-1.73-1.85-3.48-2.99-5.14-.67-.97-.85-1.67-2.09-1.86-1.37-.22-2.86.08-4.24.11-1.83.04-5.13,1.85-6.19-.33-.7-1.44-1.27-2.78-2.41-3.91-.74-.74-.96-1.19-.99-2.31-.03-.95.19-1.77.31-2.7.12-.87.03-1.78.03-2.66,0-1.13.17-2.4-.07-3.52-.47-2.17-1.06-4.18-2.25-6.15-.72-1.2-1.35-1.64-2.65-1.63-.8,0-1.27-.08-1.95.3-1.24.69-2.39,1.45-3.67,2.08-3.03,1.49-4.58,4.33-6.79,6.7-.99,1.06-2.21,1.83-3.21,2.86-.46.47-.82,1.04-1.3,1.5-.53.51-1.06.86-1.47,1.48-.33.48-.48.99-.9,1.41-1.18,1.2-2.49,1.97-3.38,3.39-1.07,1.71-2.91,3.04-4.59,4.14-1.53.99-3.12,2.02-3.28,3.93-1.32.16-2.59.86-3.84,1.29-1.09.38-2.18.77-3.24,1.22-.42.18-1.05.3-1.32.69-.32.46-.08.96-.24,1.49-.13.45-.53,1.11-.79,1.49-.57.83-1.03,1.44-1.39,2.44-.26.72-.57,1.32-.77,2.05-.24.86-.81,1.83-1.2,2.65-.55,1.16-1.24,2.2-1.86,3.32-.63,1.15-1.04.32-1.8-.34-.31-.27-.62-.44-.95-.56-1.54,3.23-.91,1.69-1.72,3.22-.38.73-.54,1.54-.89,2.29-.62,1.34-.94,2.59-1.1,4.07-.17,1.5-.18,3.24-.04,4.74.07.73.28,1.44.31,2.17.04.87-.09,1.67.04,2.56.19,1.32.53,2.32,1.58,3.14.89.69,1.9,1.11,2.71,1.89,1.16,1.13,1.79,2.33,3.29,3.08,1.44.73,2.53,1.77,3.82,2.73,1.09.8,2.09,1.18,1.93,2.57-.21,1.88-.91,3.65-1.39,5.47-.44,1.68-.79,3.71-.57,5.44.2,1.52,0,3.14.42,4.63.72,2.58,2.54,4.74,3.11,7.35.21.96.64,2.22.66,3.19.01.49-.2.87-.29,1.33-.11.57-.03,1.06-.06,1.62-.06,1.02-.48,1.96-.68,2.85-.36,1.59.11,3.33-.28,4.98-.16.67-.36,1.32-.55,1.98-.14.5-.14,1.09-.4,1.55-.54.97-.99.5-1.62,0-.66-.53-1.29-.89-2.18-1.11-1.66-.41-3.17-1.31-4.59-2.24-1.05-.69-1.61-.97-2.94-1.11-1.5-.16-2.98.03-4.47.29-3.02.52-5.64,2.37-7.43,4.8-.9,1.22-1.82,2.66-2.14,4.14-.19.9-.24,1.65-1.03,2.16-1.02.66-2.38.88-3.49,1.32-2.31.92-4.47,1.96-6.71,3.04-1.97.95-3.71,2.13-5.56,3.23-1.11.65-2.22,1.42-3.3,2.12-.6.39-1.19.87-1.67,1.39-.66.71-1.27,1.41-2.02,2.06-.78.68-1.24,1.67-2.3,1.8-.83.1-1.49-.17-2.2-.53-.94-.48-1.79-.79-2.82-1.01-1.71-.37-3.26-.42-4.58-1.65-.78-.73-.85-1.87-1.26-2.82-.43-1-.98-1.73-2.1-1.92-1.17-.2-2.47.18-3.59-.3-.58-.25-1.06-.71-1.58-1.08-.9-.64-1.77-1.34-2.86-1.61-.45-.11-1.61-.13-2.14-.39-.85.82-1.94,1.84-2.76,2.48-.49.38-1.01.75-1.48,1.16-.61.53-.75.95-1.06,1.66-.75,1.71-1.23,3.59-1.99,5.3-.19.42-.39.69-.44,1.16-.04.39.05.7-.06,1.09-.07.26-.23.38-.27.73-.05.54,0,.82-.23,1.33-.32.71-.68,1.55-.78,2.32-.11.91.67,1.59,1.15,2.18.94,1.17,1.57,2.73,2.69,3.78.65.61,1.19.57,1.99.82.48.15,1.02.39,1.49.58.5.2,1.21.4,1.66.65,2.36,1.33,2.48,4.27,3.9,6.25.68.95,1.27.92,2.41.98.84.04,1.78.43,2.51.86,1.84,1.08,3.08,2.7,4.78,3.95.85.63,1.5,1.2,2.47,1.65.93.43,2.69,1.09,3.11,2.16.68,1.75-1.37,3.21-1.29,4.99.1,2.17,2.85,2.13,4.13,3.3.54.49,1.08.98,1.21,1.73.21,1.26-.31,1.94-1.04,2.89-.74.97-1.37,2.01-1.81,3.16-.4,1.05.05,1.64.52,2.56.56,1.1.93,2.09,1.65,3.16,1.14,1.7,2.41,3.02,3.94,4.38,1.29,1.15,1.52,2.75,2.72,3.96,1.05,1.06,2.43,1.17,1.77,2.85-1.35,3.45-2.42,7-3.92,10.41-.34.77-.75,2.03-1.51,2.52-.44.28-.73.32-1.11.71.15.06.31.11.5.12.91.04,2.07.15,2.94-.08.87-.23,1.69-.55,2.63-.59,2.03-.09,4.41-.41,6.37-.96,2.17-.61,4.18-2.04,6.41-2.33,1.83-.23,3.65-.48,5.47-.68.58-.06,1.47-.3,1.96-.65,1.19-.84,2.01-1.82,3.5-2.19,1.04-.26,2.22-.78,3.28-.83.93-.04,1.64.3,2.52.35.77.04,1.57-.12,2.32.07.68.17,1.81.47,2.72.57.37-2.19.8-4.36,1.19-6.57.18-1.03.46-2.08.34-3.11-.23-2-.46-3.73-.3-5.73.21-2.55-.5-5.04-.62-7.58-.1-1.99-.01-4-.02-5.99,0-2.07,0-4.09-.25-6.15-.14-1.14-.43-2.52-.36-3.66l.33-.57c-.29-1.33-.41-2.69-.81-4-.33-1.08-.37-2.2-.73-3.3-.59-1.84-2.4-2.86-2.94-4.69-.64-2.2-1.13-4.32-2.26-6.37-.86-1.56-2.16-2.31-3.1-3.64-.44-.63-.59-1.54-.83-2.25-.72-2.14-1-4.27-.91-6.53.04-.98-.14-2.19-.04-3.17.08-.75.49-1.54.77-2.23.71-1.72,1.2-3.2,2.89-4.07,1.22-.63,2.39-1.33,3.72-1.71.92-.26,1.68-.38,2.47-.84,1.3-.76,2.4-.48,3.87-.7,1.82-.27,2.93-2.09,3.78-3.55.53-.9,1.41-1.44,2.22-2.12,1.06-.89,2.19-1.72,3.19-2.67.94-.9,1.33-2.04,2.32-2.93.64-.57,1.11-.85,1.27-1.72.06-.34-.06-.85-.05-1.18.03-.78.23-1.57.32-2.35.38-3.24,2.21-6.43,3.59-9.32.96-2.02,1.47-4.2,1.67-6.43.16-1.85.6-3.9.42-5.75-.04-.38-.28-.79-.31-1.13-.06-.8.26-1.52.41-2.3.35-1.78.41-3.77.54-5.59.14-1.89.7-4.26-1.15-5.45-.75-.48-1.72-.56-2.54-.86-.47-.17-.92-.43-1.39-.59-.81-.27-1.48-.21-1.82-1.14-.28-.77.11-1.51.49-2.19.57-.99,1.33-1.88,1.92-2.86.78-1.3,1.53-2.58,2.36-3.86,1.26-1.93.8-4.17.42-6.3-.21-1.19-.5-2.45-.96-3.56-.19-.46-.43-.78-.37-1.32.09-.84.96-1.93,1.31-2.66.24-.5.46-.99.73-1.48.77-1.39,1.82-2.56,2.78-3.82.37-.52.78-1,1.23-1.45.38-.32.77-.64,1.17-.94.15-.18.35-.42.4-.65.1-.54-.16-.65-.29-1.14-.16-.63.19-1.01-.74-1.08-.84-.06-3.43,1.39-3.98,2.13,1.72-2.53,2.59-5.24,5.58-6.58,1.3-.59,2.67-.09,4.02-.66,2.07-.87,3.22-2.7,4.75-4.23.82-.82,1.52-1.07,2.57-1.37.49-.14.78-.18,1.22-.49.78-.56,1.29-.78,1.12-1.8-.16-1-.57-2.17-1-3.08-.65-1.35-1.22-1.71-.69-3.27.26-.76.63-1.31,1.42-.7.62.48.73,1.74.98,2.4.3.8.77,1.63,1.34,2.27.58.64,1.37,1.08,1.99,1.7.63.64,1.17,1.26,1.71,1.97.54.7,1.32,1.2,1.71,2.01.24.51.14.77.22,1.33.16,1.1.49,1.25,1.25,1.96,1.01.96,1.18,1.89,2.73,2.03.98.09,2.73.16,3.52.82.86.73.61,2.63-.52,3-.29.09-.6-.07-.92.08-.65.31-1.1,1.15-1.44,1.73-.54.92-.98,1.96-1.01,3.05-.03,1.27.84,3.35,2.34,3.2,1.27-.12,2.18-.95,3.31-1.37.62-.23,2-1.01,2.71-.53.89.6.04,1.48-.42,1.91-1.04.98-2.1,1.96-2.62,3.33-.18.46-1.45,3.03.04,2.69.56-.13.6-1.09,1.32-1.08,1.02.02,1.28,1.64,1.41,2.37.18,1-.01,1.7-.09,2.73-.08,1.18-.42,2.52.23,3.61.59.99,1.64.15,2.41-.34,2.18-1.37,3.64-3.82,5.73-5.35,1.12-.83,2.22-1.33,3.61-1.3.94.02,1.63.09,2.53.26.68.13,1.38.07,2.08.07.42,0,1.29-.19,1.67-.02.69.3.62,1.93.88,2.61.28.74.43,1.13.42,1.96,0,1.04-.41,3.49.4,4.3.36-.28.94-.89,1.44-.87.39.01.58.25.97.33.4.09.93-.17,1.31,0,.16.07.72.63.87.81,1.2,1.5-.26,3.79-1.08,5.12-.77,1.26-1.76,2.35-2.58,3.58-1.01,1.51-2.19,2.78-3.25,4.25-1.08,1.49-2.5,2.74-3.38,4.36-.77,1.42-1.9,3.06-3.01,4.23-1.45,1.52-3.04,2.72-4.89,3.75-1.65.93-2.87,2.21-4.38,3.32-2.34,1.73-5.61,2.45-7.59,4.66-2.13,2.37-3.64,4.93-6.58,6.35-.79.38-1.14.42-1.48,1.24-.22.53-.49,1.38-.18,2,.05.11.54.61.66.66.55.26.6-.08,1-.19.32-.09.6,0,.92-.06.42-.07.73-.31,1.16-.36.88-.1,1.86,0,2.74.01,1.02.01,1.76-.61,2.73-.69.48-.04.94.23,1.38.36.56.16,1.15.21,1.7.37.34.1.5.22.87.29.47.09.72.11,1.17.33.72.36,1.3,1.07,2.16,1.01.54-.04,1.29-.32,1.73-.58.92-.55,1.92-1.54,2.73-2.25.79-.69,1.66-1.22,2.32-1.99.65-.77,1.27-1.66,1.95-2.45.88-1.02,1.8-1.84,2.43-3.02,1.08-2.01,2.97-3.57,4.25-5.48.82-1.23,1.61-2.49,2.46-3.7.93-1.34,1.93-2.6,2.45-4.18.44-1.33-.03-2.69.25-4.02.21-.99,1.05-1.66,1.52-2.51.56-1.02,1.12-2,1.69-3,.43-.76.56-1.44.83-2.31.7-2.25,1.23-4.49,1.24-6.92,0-1.38-.34-2.63-.33-4.01,0-.96,0-1.91,0-2.87,0,.07.66-.52.66-.44.71-1.29,1.49-2.52,2.26-3.77.26-.42.61-.94.71-1.45.11-.57.02-1.21.01-1.79-.01-1.67.21-3.16.73-4.75.29-.89.92-1.64,1.2-2.51.16-.5.2-1.03.34-1.54-.3-.27-.61-.53-.94-.76-.84-.6-1.51-1.41-2.19-2.18Z"/>
    <path class="cls-1" d="m155.66,302.65c.28-.72.55-1.57.68-2.32.06-.37-.06-.76.01-1.13.07-.37.27-.54.3-1.02.09-1.06.42-.89,1.32-.66.63.16,1.27.36,1.92.57.66.21,1.3.49,1.99-.14.77-.71,1.4-1.79,2.08-2.59.92-1.09,1.7-2.13,1.96-3.47.16-.83.34-1.44.34-2.32,0-.8-.13-1.72.07-2.49.18-.7.24-1.45.51-2.07.38-.89,1.04-1.48,1.66-2.24,1.08-1.34,2.13-2.79,3.26-4.13,1.55-1.84,2.65-3.91,4.05-5.81.55-.74,1.07-1.65,2.06-1.92,1.01-.28,2.04-.43,3-.97,2.66-1.5,3.91-4.69,6.61-6.06.59-.3,1.32-.42,1.92-.74.64-.34,1.13-.92,1.72-1.33.64-.44,1.3-.81,2-1.16.39-.19.78-.27,1.16-.44.56-.25.84-.74,1.33-1.11.6-.45,1.39-.79,2.02-1.18.89-.55,1.53-.47,2.45-.73,1.17-.33,2.04-.6,3.3-.6,1.29,0,2.4-.28,3.66-.32,1.77-.05,3.85-1.46,4.66-3,.47-.89.73-1.43,1.55-2,.7-.48,1.38-.94,2.02-1.5.86-.75,1.88-1.11,2.87-1.64.92-.49,1.75-1.16,2.65-1.7,1.78-1.07,4-1.29,5.79-2.36.66-.39,1.53-.98,2.03-1.68-1.39-.96-1.79-3.44-2.09-5.01-.61.18-1.22.93-1.76,1.27-.23.14-.42.14-.65.34-.31.26-.52.71-.81,1.01-.66.67-1.51,1.38-2.26,1.92-.53.38-.93.58-1.49.16-.45-.33-.86-1.09-1.23-1.5-.36-.41-.77-.79-1.08-1.24-.75-1.07-1.39-2.3-2.32-3.24-.76-.76-2.14-1.3-2.5-2.4-.48-1.45.22-3.08.27-4.48.03-.86.19-1.51.34-2.33.12-.66.32-1.12.49-1.81.15-.62.82-1.17,1.19-1.75-.84-.61-1.67-1.7-1.95-2.31-.16-.33-.15-.68-.31-.99-.18-.37-.44-.67-.66-1-.56-.81-1.15-1.22-2-1.67-1.51-.8-2.3-2.43-3.91-3.2-.8-.38-1.51-.34-2.3-.81-.63-.38-1.59-1.05-2.32-1.18-.82-.14-1.37.49-2.32.28-.76-.17-1.48-.65-2.17-.96-.45-.21-.46-.33-.97-.27-.32.04-.93.24-1.26.34-.17.05-.14.22-.39.28-.16.04-.36-.07-.52-.03-.27.07-.58.16-.82.33-.63.47-.78,1.34-1.41,1.91-.53.47-1.03.72-1.74.75-.7.03-1.6,0-2.38,0,.15.82.1,2.01.01,2.82-.1.85-.7,1.93-1.23,2.59-.25.31-.59.64-.9.9-.2.16-.43.26-.62.43-.24.22-.39.51-.62.73-.75.74-1.97,1.3-2.92,1.7-.85.36-1.69.72-2.53,1.1-.59.27-1.18.54-1.8.74-.68.22-1.4.29-2.08.53-1.25.46-2.49,1.11-3.67,1.72-.57.29-1.02.65-1.55.99-.77.5-1.4.56-2.3.55-.89,0-1.68-.04-2.55-.18-1.12-.18-2.24.25-3.29.61-1.21.41-2.43.97-3.71,1.11-1.02.11-1.94-.23-2.94-.23-1.45-.01-3.36.37-4.7.94-.38.16-.75.49-1.15.59-.75.2-1.81.15-2.56.2-1.16.08-2.33.05-3.49.05-1.7,0-3.33-.06-5.01-.28-.87-.11-1.74-.08-2.6-.22-.62-.1-1.27-.33-1.91-.15-.11.62-.02,1.3-.45,1.84-.67.85-2.38.73-3.34.95-.46.11-.86.35-1.31.46-.52.13-1.12.04-1.65.04-1.15,0-2.25-.22-3.4-.22-.91,0-1.64.26-2.5.49-.58.15-1.17.39-1.73.62-.22.09-.73.26-.86.49-.11.19-.02.52-.05.73-.06.44-.2.8-.21,1.25,0,.55.09,1.02.23,1.55.15.62.5,1.48.47,2.11-.02.38-.2.76-.24,1.14-.04.35-.04,1.12-.25,1.45-.35.56-.87.25-1.4.11-1.47-.4-2.5-.06-3.9.27-1.39.33-2.77.39-4.16.63-1.03.17-1.84.21-2.9.03-1.14-.19-2.33-.27-3.49-.27-.37,0-.71-.07-1.02.12-.25.15-.44.45-.67.64-.43.36-.63.46-.76.99-.31,1.29-.12,2.35.02,3.67.08.79.2,1.51.2,2.31,0,.68-.05,1.39-.01,2.07.04.66.24,1.25.24,1.92,0,.63,0,1.26,0,1.89,0,.36-.04.74.02,1.08.04.21.17.33.19.56.05.63-.56,1.31-.88,1.76-.06.01-.12.25-.18.26-.16.59.2.93.18,1.51-.01.48.21,1.1.49,1.5.25.35.67.53,1,.77.43.31.84.63,1.28.94.72.51,1.48,1.25,2.11,1.87.8.8,1.05,1.99,1.09,3.1.01.34.18.56.24.88.05.3-.04.58.04.88.16.65.44,1.32.63,1.97.13.46.39.88.44,1.36.03.29-.04.53.03.81.24.87.92.32,1.51.1.54-.2.91-.53,1.54-.5.6.03,1.3.23,1.87.42.35.11.79.12,1.12.27.34.16.68.51.98.75.47.37.8.78,1.31,1.12.46.31.68.42,1.17.59.85.28,1.59.97,2.16,1.6.55.61,1.47,1.03,1.95,1.68.45.6.56,1.5.76,2.2.21.73.21,1.41.59,2.11.29.55.92.98.95,1.63.34-.06.27-.29.41-.52.14-.24.41-.61.7-.74.91-.39,2.35-.39,3.32-.22.67.12,1.16.4,1.73.74.74.43,1.35.2,2.16.37.54.11,1.1.36,1.59.62.8.42,1.56.34,2.38.65.61.23,1.12.61,1.7.9.67.33,1.33.62,1.98.98.46.25.94.53,1.45.59.68.08,1.31.03,2,.16,1.07.2,2.28.13,3.28.58,1.15.52,1.59,1.42,2.05,2.5.39.93,1.13,1.7,1.84,2.4,1.08,1.05,2.27,2.1,3.63,2.74.75.36,1.52.7,2.22,1.15,0,0,0,0,0,0,.2-.22.44-.26.66-.82Z"/>
    <path class="cls-1" d="m189.64,214.8c.71-.03,1.21-.28,1.74-.75.63-.57.78-1.44,1.41-1.91.24-.18.55-.26.82-.33.16-.04.36.06.52.03.25-.06.22-.23.39-.28.33-.1.94-.3,1.26-.34.51-.06.51.06.97.27.7.32,1.41.8,2.17.96.94.21,1.5-.42,2.32-.28.73.12,1.7.8,2.32,1.18.78.48,1.5.43,2.3.81,1.61.77,2.4,2.4,3.91,3.2.85.45,1.45.86,2,1.67.22.33.48.63.66,1,.16.32.15.66.31.99.29.61,1.11,1.7,1.95,2.31.12-.19.21-.38.24-.57-.03.2-.12.39-.24.57.39.28.78.46,1.13.43,1.56-.12,3.41-1.03,4.82-1.67.84-.38,1.7-.85,2.63-.98.8-.12,1.7,0,2.51-.01,1.25,0,2.41.17,3.53.66,1.41.61,2.99.41,4.34-.32,4.24-2.3,3.86-8.33,5.39-12.28.67-1.72,2.08-2.54,3.09-3.99,1.08-1.56,2.53-2.63,4.41-3.07.65-.15,1.26-.45,1.92-.54.61-.08,1.22.02,1.83,0,2.26-.09,4.42-1.46,6.42-2.36.72-.33,1.49-.46,2.14-.94.77-.56,1.62-1.39,2.25-2.08.98-1.08.65-2.5.66-3.89.02-2.74-.59-5.29-2.84-6.98-2.55-1.91-1.31-4.72.33-6.74,1.17-1.44,3.53-.89,5.2-.9.75,0,1.73-.24,2.3.36.56.6.62,1.37,1.33,1.9.73.55,1.65.61,2.44,1.05.59.33,1.65,1.93,2.26,1.95,1.83.05.44-4.24.18-4.99-.39-1.1-.94-2.36-.94-3.54,0-.83.25-.72,1.04-.7,1.29.03,2.45-.43,3.69-.62-.04-.08,0-.08-.19-.41.18.33.15.33.19.41.2-.03.39-.05.6-.06.76-.04,3.47-.38,3.98.2.19-.22.73-.28,1-.35.44-.11.8-.17,1.33-.17.71,0,2.04.28,2.52-.32-.83-.8-.96-2.67-1.03-3.73-.09-1.47.38-2.79.74-4.19.51-1.99.46-3.79.26-5.82-.1-1-.18-1.96-.17-2.96,0-.67.17-1.81.03-2.5-.23-1.14-1.32-1.97-2.1-2.77-1.23-1.28-2.15-2.81-3.4-4.08-1.22-1.24-2.1-2.67-3.15-4.05-1.06-1.39-2.09-3.05-2.47-4.76-.47-2.12-.17-4.48-.18-6.64-.02-2.34.37-4.63.34-6.96-.03-3-.08-6.56,1.03-9.38.9-2.31,2.17-5.06,3.94-6.84.9-.91,2-1.7,2.58-2.85.54-1.09.79-2.29,1.41-3.36,1.31-2.26,1.44-2.41.58-4.48-.25.08-.52.14-.85.12-.73-.03-1.36-.37-2.08-.52-1.51-.31-3.19.07-4.63-.63-.93-.45-1.63-1.28-2.46-1.85-1.46-1.02-3.58-.95-5.17-1.76.18-.64-.76-.99-1.21-1.25-1.07-.59-1.78.31-2.26,1.34-.42.9-.79,2-.98,2.97-.29,1.48-.13,2.76-1.17,4.02-.8.98-1.78,1.52-2.92,1.98-.49.2-.92.33-1.32.71-.51.48-1.19,1.48-1.52,2.1-.33.62-.18,1.4-.19,2.11-.01,1.34.15,2.58.65,3.81.68,1.68,1.07,3.44,1.67,5.15.54,1.52,1.15,3.05,1.42,4.65.4,2.38,1.46,5.57-1.93,5.66-1.46.04-2.68.3-4.12.57-1.77.34-3.62,1.05-5.42,1.1-1.66.05-3.4.4-4.29-1.28-.44-.82-.23-2.04-.48-3.01-.39-1.55-.37-3.41-1.15-4.85-1.12-2.08-2.15-4.15-3.13-6.32-.55-1.22-1.09-2.13-1.3-3.47-.15-.96-.26-1.88-.44-2.83-.32-1.66-1.53-2.41-3.05-3.08-1.12-.49-2.07-.71-3.3-.71-1.54,0-3.21-.38-4.71-.75-1.18-.29-1.17-.13-1.98.65-.95.92-1.15,2.24-1.75,3.43-.39.77-.46,1.74-.97,2.43-.51.69-1.17,1.3-1.7,1.99-1.68,2.18-3.85,4.93-6.79,5.17-1.6.13-2.83.97-3.97,2.06-1.17,1.12-1.92,2.22-3.64,1.68-1.53-.48-3.07-1.35-4.49-2.1-.77-.4-1.87-.71-2.65-.36-.87.39-1.31,1.22-1.81,2.03-.58.93-1.31,1.79-1.98,2.65-.78,1.02-1.69,2.08-2.27,3.24-.43.86-.85,1.62-1.46,2.38-1.1,1.37-2.08,3.11-4.09,2.68-.4-.08-.75-.23-1.15-.34-.5-.14-.52-.01-.91-.42-.54-.56-.74-1.13-.75-1.91,0-.65-.2-1.02-.35-1.62-.16-.65.12-1.37-.06-2.04-.11-.42-.2-.88-.32-1.31-.14-.47-.54-.82-.62-1.32-.04-.26.04-.54-.01-.8-.03-.19-.24-.2-.28-.39-.06-.33-.11-.98-.04-1.31.08-.38.28-.59.36-.97.09-.4-.03-.93-.02-1.34.02-.59.23-.65.35-1.14.09-.38-.02-.95-.02-1.34,0-.83.16-1.84.02-2.65-.15-.85-.48-2.11-.77-3.09-.06.01-.12.02-.18.03-.62.14-1.16.57-1.72.8-.77.32-1.67.41-2.46.69-.7.25-1.38.54-2.13.64-.62.08-1.23-.04-1.84.08-.49.1-1.05.15-1.51.32-.45.18-.74.42-1.13.71-.61.44-1.28.75-1.83,1.27-.78.72-1.41,1.53-2.12,2.29-.88.94-1.57,1.33-2.88,1.33-1.25,0-2.5,0-3.75,0-2.07,0-4.29-.14-6.24.65-1,.41-2,.92-2.8,1.66-1.33,1.23-2.37,2.71-3.81,3.86-1.4,1.11-2.64,2.5-4.31,3.22-2.19.95-4.5,1.97-6.28,3.65-.56.53-1.19,1.07-1.52,1.79-.51,1.14-1.25,2.16-1.85,3.26-.37.68-.8,1.3-1.04,2.03-.24.73-.3,1.46-.48,2.2-.07.31-.27.59-.36.9-.11.39-.13.88-.2,1.28-.18.99-.43,2.11-.27,3.13.15.98.8,1.97,1.11,2.93.38,1.19.27,2.3.47,3.49.08.46.28.89.35,1.36.1.65.1,1.11.37,1.71.47,1.05,1.05,1.97,1.72,2.89.19.27.39.41.6.64.54.58,1.01,1.21,1.55,1.78.63.66,1.3,1.53,2.14,1.93.99.46,1.73.84,2.55,1.59.79.72,1.56,1.42,2.3,2.19.39.41.76.4,1.24.67.33.18.55.52.87.7.53.3,1.12.21,1.71.21,0,0,.02,0,.02,0,0,0-.02,0-.02,0-.07.04-.29.22-.36.25.51-.02.8.59,1.16.86.51.38,1.11,0,1.5.61.27.42.46.91.58,1.4.09.37-.02.79.01,1.17.04.49.23.91.24,1.41.01.82.22,1.55.22,2.38,0,.33,0,.66,0,.98,0,.57.18,1.02.23,1.57.05.53-.3,1.73.31,1.97.26.1.64-.02.91.03.51.08,1.12.3,1.6.48.41.15.57.4.91.62.29.19.81.34,1.14.41.68.14,1.25-.02,1.91.24.7.28,1.3.55,2.04.68,1.02.18,1.97.42,2.84,1.08.73.56,1.35,1.19,2.14,1.69.77.49,1.46.13,2.32.29.59.11.78.57,1.21.9.41.3.97.41,1.39.71,1.06.76.71,2.78.71,3.94,0,.55-.14,1.33.02,1.85.28.9,1.52,1.27,2.21,1.74,2.43,1.64,5.3,3.45,6.64,6.15.54,1.08.88,2.25,1.42,3.31.38.74.76,1.42,1.1,2.18.24.55.62,1.04.78,1.61.64,2.26,1.56,4.56,1.54,6.97,0,.5-.03,1.01,0,1.5.02.36.13.55.2.89,0,.03.01.06.02.09.78,0,1.68.03,2.38,0Z"/>
    <path class="cls-1" d="m301.85,346.74c-.87-.05-1.59-.39-2.52-.35-1.06.05-2.23.57-3.28.83-1.49.37-2.31,1.35-3.5,2.19-.48.34-1.38.58-1.96.65-1.81.2-3.64.45-5.47.68-2.24.29-4.25,1.72-6.41,2.33-1.96.55-4.34.87-6.37.96-.94.04-1.76.36-2.63.59-.87.23-2.03.12-2.94.08-.18,0-.35-.05-.5-.12-.02.02-.05.05-.07.07.03-.03.05-.05.07-.07-.92-.39-1.25-1.71-1.81-2.55-.77-1.18-2.28-2.72-3.73-1.66-1.61,1.18-3.29,2.36-4.54,3.97-1.23,1.57-3.38,4.45-5.66,2.94-.34-.23-.44-.59-.9-.78-.36-.15-.62-.14-1-.15-.8-.02-1.73-.12-2.49.08-1.52.38-2.99,1.13-4.47,1.62-1.68.56-2.69,1.79-4.18,2.62-.75.42-1.52.64-2.29.82-.52.12-1.07.14-1.53.49-1.24.93-1.65,2.78-2.15,4.16-.26.72-.7,1.4-.88,2.15-.18.72-.17,1.45-.41,2.17-.37,1.12-.76,2.24-1.07,3.47-.36,1.44-.57,2.86-.91,4.31-.15.63-.39,1.25-.6,1.87.28.5.59.98.95,1.43,1.01,1.26,2.01,2.52,3.03,3.78.31.39.73.77.88,1.26.12.38.16.77.29,1.15.3.9.4,1.85.69,2.76.13.42.4.82.53,1.23.09.03.2.06.28.12.1.08.2.19.27.3.21.32.34.68.52,1,.17.29.23.58.33.89.04.15.1.25.14.41.03.11.07.11.09.27.01.13.06.23.09.33.18.8-.16,1.72.05,2.51.11.44.05.89.2,1.33.15.45.41.91.72,1.26.37.41.52,1,.88,1.43.37.44.64,1.04,1.08,1.4.92.75,1.5,1.88,2.37,2.73,1.05,1.03,2.04,2.04,3.43,2.57,1.73.66,3.69.77,5.53.77.81,0,1.61,0,2.42-.08,1.45-.17,2.95-.02,4.36-.46.68-.21,1.35-.52,2.06-.65.59-.1,1.16-.27,1.71-.49.6-.24,1.13-.42,1.77-.51.47-.06,1-.07,1.47-.01,1.87.21,3.8.1,5.69.1.45,0,.91.03,1.36,0,.51-.03.98-.18,1.47-.31,1.24-.32,1.96-1.3,2.87-2.12,1.06-.95,1.36-2.34,2.32-3.36.4-.42.83-.83,1.13-1.32.41-.65.86-1.02,1.5-1.47.5-.35.97-.76,1.47-1.12.55-.41,1.19-.62,1.77-.98.25-.15.35-.14.65-.15.23,0,.44-.07.67-.12.62-.13,1.26-.16,1.89-.09,1.16.12,2.24.21,3.41.12.68-.05,1.34-.21,2.01-.26.15-.01.31,0,.46,0,.34,0,.64-.06.97-.09.74-.08,1.62.12,2.33.31.43.12.84.24,1.28.33.54.11,1.05.11,1.61.11.42,0,.9-.07,1.31,0,.24.05.41.1.65.1.32,0,.58-.1.9-.11.23-.01.43-.05.65-.1.27-.06.51-.17.77-.25.26-.08.51-.1.77-.19.27-.1.54-.18.8-.3.24-.11.42-.29.64-.46.22-.18.32-.48.53-.67.17-.16.39-.28.55-.44.34-.34.41-.8.58-1.27.04-.1.09-.2.13-.3.07-.16.24-.32.29-.45.08-.22.08-.62.05-.85-.13-1-.09-2.01-.14-3.01,0-.2-.06-.34-.09-.53-.07-.38,0-.73.06-1.11.02-.17.04-.35.04-.52-.02-.29-.07-.57-.13-.85-.09-.57-.08-1.14,0-1.71l.53-4.36c.69-3.83.22-8.09-.83-11.81-.55-1.96-1.07-3.75-1.3-5.78-.22-1.98-.16-3.6.18-5.58.33-1.88.57-3.79.82-5.67.13-.96.28-1.91.44-2.85-.91-.1-2.04-.4-2.72-.57-.75-.19-1.55-.02-2.32-.07Z"/>
    <path class="cls-1" d="m229.18,373.92c.31-1.23.7-2.35,1.07-3.47.24-.71.23-1.44.41-2.17.18-.75.62-1.43.88-2.15.5-1.38.91-3.22,2.15-4.16.46-.35,1.01-.37,1.53-.49.77-.18,1.54-.4,2.29-.82,1.48-.83,2.49-2.06,4.18-2.62,1.48-.49,2.95-1.24,4.47-1.62.77-.19,1.69-.1,2.49-.08.38,0,.64,0,1,.15.46.19.56.55.9.78,2.28,1.51,4.43-1.37,5.66-2.94,1.26-1.61,2.93-2.79,4.54-3.97,1.45-1.06,2.95.48,3.73,1.66.55.84.89,2.16,1.81,2.55.38-.38.67-.43,1.11-.71.76-.49,1.17-1.74,1.51-2.52,1.5-3.41,2.57-6.97,3.92-10.41.66-1.69-.72-1.79-1.77-2.85-1.2-1.21-1.43-2.81-2.72-3.96-1.53-1.37-2.8-2.69-3.94-4.38-.72-1.07-1.09-2.06-1.65-3.16-.46-.92-.92-1.51-.52-2.56.44-1.15,1.07-2.2,1.81-3.16.73-.95,1.24-1.63,1.04-2.89-.12-.75-.67-1.25-1.21-1.73-1.29-1.17-4.03-1.13-4.13-3.3-.08-1.78,1.97-3.24,1.29-4.99-.42-1.07-2.18-1.72-3.11-2.16-.97-.45-1.62-1.03-2.47-1.65-1.7-1.25-2.94-2.87-4.78-3.95-.73-.43-1.67-.82-2.51-.86-1.14-.06-1.73-.03-2.41-.98-1.42-1.98-1.54-4.92-3.9-6.25-.44-.25-1.16-.45-1.66-.65-.47-.19-1.01-.43-1.49-.58-.8-.25-1.34-.21-1.99-.82-1.12-1.05-1.75-2.61-2.69-3.78-.48-.59-1.26-1.28-1.15-2.18.1-.77.45-1.61.78-2.32.24-.51.18-.79.23-1.33.04-.35.19-.47.27-.73.11-.38.02-.7.06-1.09.05-.47.25-.74.44-1.16.76-1.71,1.24-3.59,1.99-5.3.31-.71.45-1.13,1.06-1.66.47-.41.99-.78,1.48-1.16.82-.64,1.91-1.66,2.76-2.48-.04-.02-.09-.04-.12-.06-.52-.36-.22-.69-.14-1.16.14-.84.18-1.57.17-2.43-.03-3.33,1.01-6.59.99-9.95,0-.84.1-1.67-.23-2.38-.59-1.23-1.2-1.61-2.4-2-1-.33-2.16-.92-3-1.57-.76-.59-1.15-1.5-1.83-2.14-1.6-1.53-4.48-1.64-6.46-2.6-.11-.05-.21-.11-.3-.18-.49.7-1.37,1.29-2.03,1.68-1.8,1.06-4.01,1.28-5.79,2.36-.9.54-1.73,1.21-2.65,1.7-1,.53-2.02.89-2.87,1.64-.64.56-1.32,1.02-2.02,1.5-.82.57-1.08,1.11-1.55,2-.81,1.54-2.89,2.95-4.66,3-1.26.04-2.37.32-3.66.32-1.26,0-2.13.27-3.3.6-.92.26-1.57.17-2.45.73-.63.4-1.42.74-2.02,1.18-.49.37-.77.86-1.33,1.11-.38.17-.78.25-1.16.44-.7.35-1.36.72-2,1.16-.59.41-1.09.99-1.72,1.33-.59.32-1.32.44-1.92.74-2.7,1.37-3.95,4.56-6.61,6.06-.96.54-1.99.69-3,.97-.99.27-1.51,1.18-2.06,1.92-1.4,1.9-2.5,3.97-4.05,5.81-1.13,1.34-2.18,2.79-3.26,4.13-.61.76-1.27,1.35-1.66,2.24-.27.62-.33,1.37-.51,2.07-.2.77-.08,1.69-.07,2.49,0,.88-.18,1.49-.34,2.32-.26,1.34-1.04,2.38-1.96,3.47-.68.81-1.31,1.88-2.08,2.59-.69.63-1.33.35-1.99.14-.64-.21-1.28-.41-1.92-.57-.9-.23-1.24-.39-1.32.66-.04.48-.23.65-.3,1.02-.07.37.05.76-.01,1.13-.13.75-.4,1.6-.68,2.32-.21.56-.46.6-.66.82.73.47,1.11,1.06,1.43,1.85.24.57.47,1.27.56,1.84.23,1.56-.11,3.25-.21,4.8-.05.83.08,1.7-.07,2.51-.09.5-.1.99-.16,1.5-.08.63-.24,1.17-.24,1.83,0,1.1.15,2.14.34,3.23.11.62.16,1.19.32,1.81.22.81.01,1.85.32,2.59.48,1.14,1.62.98,2.55,1.53.73.43,1.57.51,2.32.78.47.17.64.65,1,.97.09.08.22.15.31.23.8.68.81,1.53,1.01,2.55l.57.9c.68-.16.91,0,1.22.51.56.89.94,1.78,1.19,2.79.12.47.3,1.03.34,1.55.02.25-.06.54-.01.78.06.3.2.44.24.76.12.97.3,1.93.66,2.88.45,1.19.94,2.29,2.2,2.7.78.25,1.55.53,2.31.84.81.33,1.38.44,2.25.44.72,0,1.45-.02,2.17,0,.29,0,.42.14.62.17.42.08.65-.04,1.06-.17,2.36-.73,4.71-.09,7.06-.49.82-.14,1.63-.57,2.43-.62,1.03-.07,1.94-.18,2.87-.65.92-.47,1.82-.96,2.66-1.56.77-.54,1.19-.67,2.15-.66.65,0,1.03.27,1.66.41.54.12,1.16.04,1.71.04,1.3,0,2.75-.01,3.86.77.39.28.76.51,1.14.76.8.54.84,1.43,1,2.31.29,1.65.19,3.32.19,5,0,.83,0,1.65,0,2.48,0,.61.2,1.11.23,1.71.04.83.16,1.61.21,2.44.05.87.31,1.16,1.04,1.53,1.22.61,2.32,1.09,3.73,1.12.67.02,1.23.02,1.86.26.68.26,1.29.62,2.01.79,2.55.62,2.41,3.45,2.41,5.6,0,1.3-.31,2.99.21,4.2.45,1.06,1.84,1.66,2.85,2.06.83.32,1.71.49,2.5.91.83.44,1.6,1.18,2.19,1.92.99,1.25,1.59,2.76,2.38,4.15.22-.62.46-1.25.6-1.87.34-1.45.55-2.87.91-4.31Z"/>
  </g>
  <g>
    <path class="cls-2" d="m125.98,260.94l-.57,2.89s-.04.08-.07.12c-.03.03-.09.06-.16.08-.07.02-.16.04-.27.05-.11.01-.25.02-.41.02s-.29,0-.4-.02c-.11-.01-.19-.03-.25-.05-.06-.02-.09-.05-.11-.08-.02-.03-.02-.07-.02-.12l.57-2.89-1.35-4.47c-.05-.15-.08-.27-.09-.36,0-.09,0-.16.06-.2.05-.04.14-.07.27-.08.13-.01.31-.02.54-.02.18,0,.32,0,.42,0,.1,0,.19.02.24.04.06.02.1.05.12.09s.04.09.06.16l.55,1.97c.06.24.12.46.17.68.05.21.09.44.13.67h.01c.12-.23.24-.45.37-.67s.26-.44.41-.66l1.31-2.01c.03-.05.07-.1.11-.14s.09-.06.16-.09c.07-.02.16-.04.27-.04.11,0,.26-.01.45-.01.25,0,.43,0,.56.02.13.01.21.05.25.09.04.05.04.12,0,.2-.04.09-.12.2-.21.34l-3.15,4.47Z"/>
    <path class="cls-2" d="m133.06,263.84c-.02.09-.08.15-.2.19-.12.04-.3.06-.56.06-.13,0-.24,0-.32-.01-.08,0-.15-.02-.2-.04-.05-.02-.08-.04-.1-.08-.01-.03-.02-.07,0-.12l.18-.91c-.06.14-.17.28-.3.43s-.3.29-.5.41-.4.22-.63.3c-.23.08-.47.12-.71.12-.34,0-.62-.06-.84-.18-.22-.12-.4-.28-.54-.48-.13-.2-.23-.43-.29-.69-.06-.26-.09-.53-.09-.81,0-.27.03-.56.08-.87s.13-.63.23-.94c.11-.31.24-.61.41-.9s.36-.55.59-.77c.23-.22.5-.4.79-.54.3-.13.64-.2,1.01-.2.35,0,.66.07.93.22.27.15.51.36.71.64l.1-.5c.02-.09.08-.15.2-.19.12-.04.3-.06.56-.06.13,0,.23,0,.32.02.08.01.15.03.2.04.05.02.08.04.1.08.02.03.02.07.01.11l-1.14,5.68Zm-.79-3.97c-.15-.23-.31-.41-.49-.52s-.39-.17-.62-.17c-.18,0-.34.04-.49.13-.15.08-.28.2-.39.34s-.21.31-.3.49c-.09.19-.16.38-.22.58-.06.2-.1.4-.13.61-.03.21-.04.39-.04.57,0,.13,0,.25.03.36.02.11.05.22.1.3s.12.16.2.21c.08.05.19.08.32.08.19,0,.38-.06.57-.17.2-.11.38-.26.55-.46.17-.19.32-.42.45-.67.13-.26.22-.53.28-.82l.18-.86Z"/>
    <path class="cls-2" d="m139.36,258.09s0,.08-.01.16c0,.08-.02.17-.04.27-.02.1-.04.21-.06.31-.03.11-.05.21-.09.3-.03.09-.07.17-.11.23s-.08.09-.13.09c-.04,0-.08,0-.11-.02s-.08-.03-.13-.04c-.05-.01-.1-.03-.15-.04-.06-.01-.12-.02-.19-.02-.14,0-.3.06-.46.17-.16.11-.32.25-.47.43-.15.18-.28.39-.4.63-.12.24-.2.49-.25.75l-.51,2.55s-.03.08-.06.11c-.03.03-.08.06-.15.08-.07.02-.15.04-.26.05-.11.01-.23.02-.39.02s-.29,0-.38-.02c-.1-.01-.18-.03-.23-.05-.06-.02-.09-.05-.11-.08-.02-.03-.02-.07-.01-.11l1.13-5.67s.03-.08.06-.11c.03-.03.07-.06.13-.08.06-.02.13-.03.22-.04.09-.01.2-.02.33-.02s.24,0,.32.02c.08.01.15.03.19.04.05.02.08.04.09.08.01.03.02.07,0,.11l-.18.9c.1-.18.22-.35.35-.5.13-.15.28-.28.43-.4s.31-.2.47-.26c.16-.06.32-.1.48-.1.06,0,.13,0,.19.01.07,0,.13.02.18.03.06.01.11.03.15.05.04.02.08.04.1.06.03.03.04.07.04.12Z"/>
    <path class="cls-2" d="m144.5,263.84c-.02.09-.08.15-.2.19-.12.04-.3.06-.56.06-.13,0-.24,0-.32-.01-.08,0-.15-.02-.2-.04-.05-.02-.08-.04-.1-.08-.02-.03-.02-.07,0-.12l.17-.91c-.06.14-.17.28-.3.43s-.3.29-.5.41-.4.23-.63.3c-.23.08-.47.12-.71.12s-.45-.03-.63-.09c-.18-.06-.33-.14-.46-.25-.13-.11-.24-.23-.32-.37-.08-.14-.15-.3-.2-.46s-.09-.33-.11-.5c-.02-.17-.03-.34-.03-.5,0-.28.03-.57.08-.89s.13-.63.24-.94c.11-.31.24-.61.41-.9.17-.29.36-.54.59-.76.23-.22.5-.4.79-.53.3-.13.63-.2,1.01-.2.17,0,.32.02.47.05.15.04.29.08.41.15s.24.13.34.22c.1.08.19.17.26.27l.6-2.99s.03-.08.06-.11c.03-.03.08-.06.14-.09.07-.02.15-.04.25-.05.1-.01.23-.02.39-.02s.29,0,.38.02c.1.01.18.03.23.05.05.02.09.05.11.09.02.03.02.07.01.11l-1.66,8.33Zm-.79-3.97c-.15-.23-.31-.41-.49-.53-.18-.12-.39-.18-.62-.18-.17,0-.33.04-.48.12-.15.08-.28.19-.39.33s-.22.3-.3.48c-.09.18-.16.38-.22.58-.06.2-.1.41-.13.61-.03.2-.04.4-.04.58,0,.32.05.56.16.73.11.16.27.24.5.24.19,0,.38-.06.57-.17.2-.11.38-.26.55-.45.17-.19.32-.41.45-.67.13-.26.22-.53.28-.82l.18-.86Z"/>
    <path class="cls-2" d="m147.7,263.84s-.03.08-.06.11c-.03.03-.08.06-.15.08-.07.02-.15.04-.26.05-.11.01-.23.02-.39.02s-.29,0-.38-.02c-.1-.01-.18-.03-.23-.05-.06-.02-.09-.05-.11-.08-.02-.03-.02-.07-.01-.11l1.13-5.66s.03-.08.06-.11.08-.06.15-.08c.07-.02.15-.04.25-.05.1-.01.23-.02.39-.02s.29,0,.38.02c.1.01.18.03.24.05.06.02.09.05.11.08.02.03.02.07.01.11l-1.13,5.66Z"/>
    <path class="cls-2" d="m158.18,263.84s-.03.08-.06.11c-.03.03-.08.06-.15.08-.07.02-.15.04-.26.05-.1.01-.23.02-.39.02s-.28,0-.38-.02-.18-.03-.24-.05c-.05-.02-.09-.05-.11-.08-.02-.03-.02-.07,0-.11l.68-3.4c.02-.1.03-.19.04-.29.01-.1.02-.19.02-.29,0-.2-.04-.36-.11-.48-.07-.12-.21-.18-.4-.18-.17,0-.34.05-.53.16-.18.11-.36.26-.52.45-.17.19-.32.41-.44.66-.13.25-.22.52-.28.8l-.51,2.56s-.03.08-.06.11c-.03.03-.08.06-.15.08-.07.02-.15.04-.26.05-.1.01-.23.02-.39.02s-.28,0-.38-.02-.18-.03-.23-.05c-.06-.02-.09-.05-.11-.08-.02-.03-.02-.07-.02-.11l.67-3.4c.03-.1.04-.2.05-.3s.02-.2.02-.3c0-.19-.04-.34-.11-.46-.08-.12-.21-.18-.39-.18-.17,0-.34.05-.53.16-.18.11-.36.26-.52.45-.17.19-.32.41-.44.66-.13.25-.22.52-.28.8l-.51,2.56s-.03.08-.06.11c-.03.03-.08.06-.15.08s-.15.04-.26.05c-.11.01-.24.02-.39.02s-.28,0-.38-.02-.18-.03-.23-.05c-.06-.02-.09-.05-.11-.08-.02-.03-.02-.07-.01-.11l1.14-5.67s.03-.08.05-.11c.03-.03.07-.06.13-.08.06-.02.13-.03.22-.04s.2-.02.33-.02.24,0,.32.02c.08.01.15.03.19.04.05.02.08.04.09.08.01.03.02.07,0,.11l-.18.93c.09-.15.21-.3.36-.45.15-.15.32-.29.5-.42.19-.12.39-.22.62-.3.22-.08.45-.12.69-.12s.46.03.64.1c.18.07.33.16.44.27.12.12.21.25.27.41.06.16.1.33.12.51.1-.15.22-.3.37-.46s.32-.29.51-.41c.19-.12.39-.22.61-.3.22-.08.45-.12.68-.12.3,0,.54.04.75.12.2.08.36.2.49.34.12.15.21.32.27.51.05.2.08.41.08.64,0,.15,0,.3-.03.45-.02.15-.04.3-.08.46l-.7,3.5Z"/>
    <path class="cls-2" d="m161.34,263.84s-.03.08-.06.11c-.03.03-.08.06-.14.08s-.15.04-.25.05c-.11.01-.23.02-.39.02-.16,0-.29,0-.39-.02s-.18-.03-.23-.05c-.06-.02-.09-.05-.11-.08-.02-.03-.02-.07-.02-.11l1.67-8.35s.03-.08.06-.12c.03-.03.08-.06.15-.08.07-.02.15-.04.26-.05.1-.01.23-.02.39-.02s.29,0,.38.02c.1.01.18.03.23.05.05.02.09.05.11.08.02.03.02.07.01.12l-1.66,8.35Z"/>
    <path class="cls-2" d="m164.53,263.84s-.03.08-.06.11c-.03.03-.08.06-.15.08-.07.02-.15.04-.26.05-.11.01-.23.02-.39.02s-.29,0-.38-.02c-.1-.01-.18-.03-.23-.05-.06-.02-.09-.05-.11-.08-.02-.03-.02-.07-.01-.11l1.13-5.66s.03-.08.06-.11.08-.06.15-.08c.07-.02.15-.04.25-.05.1-.01.23-.02.39-.02s.29,0,.38.02c.1.01.18.03.24.05.06.02.09.05.11.08.02.03.02.07.01.11l-1.13,5.66Z"/>
  </g>
  <g>
    <path class="cls-2" d="m195.34,157c0,.12-.02.28-.06.48s-.09.36-.15.48c-.06.12-.13.18-.21.18-.06,0-.12-.04-.2-.1-.08-.07-.18-.15-.3-.23-.12-.08-.28-.16-.47-.23-.19-.07-.43-.1-.71-.1-.31,0-.6.06-.86.19s-.49.29-.69.5-.38.44-.53.71c-.15.27-.28.54-.38.83-.1.29-.17.57-.22.86-.05.29-.07.55-.07.8,0,.3.04.56.11.78s.18.41.32.56c.14.15.31.26.51.33s.43.11.69.11c.3,0,.56-.03.77-.09.21-.06.4-.13.55-.21s.28-.15.37-.21c.1-.06.19-.09.27-.09.05,0,.09.02.11.06.02.04.03.1.03.17,0,.03,0,.07-.01.13,0,.06-.02.12-.03.2s-.03.15-.04.24c-.02.09-.04.17-.06.24s-.05.14-.07.2-.06.12-.11.16c-.05.05-.14.11-.27.18s-.3.14-.5.21c-.2.06-.41.12-.66.16-.25.04-.51.07-.79.07-.46,0-.88-.06-1.25-.18s-.68-.31-.94-.56c-.26-.25-.46-.56-.6-.94-.14-.38-.21-.82-.21-1.32,0-.39.04-.8.12-1.23.08-.42.2-.84.36-1.25s.37-.79.62-1.16.54-.68.89-.96c.34-.27.73-.49,1.16-.65.43-.16.92-.24,1.44-.24.3,0,.58.03.84.09s.5.14.69.24c.2.1.33.19.41.28.08.08.12.19.12.31Z"/>
    <path class="cls-2" d="m195.05,162.96c0-.3.07-.58.21-.82s.35-.45.64-.63.66-.31,1.1-.4c.45-.09.98-.14,1.6-.14h.58c.02-.1.03-.19.04-.29,0-.09.01-.18.01-.26,0-.34-.09-.6-.27-.77-.18-.17-.46-.26-.86-.26-.28,0-.53.02-.75.06-.22.04-.42.08-.58.13-.17.05-.31.09-.42.13-.11.04-.19.06-.24.06s-.09-.02-.11-.04-.03-.08-.03-.14c0-.07,0-.15.02-.25.01-.09.03-.19.05-.28.02-.09.05-.18.09-.26.04-.08.08-.14.12-.18.05-.05.14-.1.28-.15s.3-.1.49-.14c.19-.04.4-.08.64-.1s.48-.04.72-.04c.41,0,.76.04,1.06.13.3.08.55.21.76.39s.36.39.46.66.15.59.15.96c0,.28-.03.59-.08.91-.05.32-.14.64-.26.96s-.27.62-.46.9-.41.54-.68.76c-.26.22-.57.39-.92.52-.35.13-.74.2-1.19.2-.39,0-.72-.05-.99-.14s-.5-.21-.68-.36-.31-.32-.4-.51-.13-.39-.13-.59Zm1.57-.12c0,.17.07.31.2.42.13.11.33.17.58.17.21,0,.4-.04.57-.11.17-.08.31-.18.44-.31s.24-.28.33-.46.16-.36.22-.56h-.53c-.34,0-.62.02-.85.07-.23.04-.41.1-.55.18-.14.08-.24.17-.3.27-.06.1-.09.21-.09.33Z"/>
    <path class="cls-2" d="m203.04,164.2s-.03.08-.06.11c-.03.03-.08.06-.14.08-.06.02-.15.04-.25.05-.11.01-.24.02-.39.02-.16,0-.29,0-.39-.02-.1-.01-.18-.03-.23-.05s-.09-.05-.11-.08c-.02-.03-.02-.07-.02-.11l1.67-8.35s.03-.08.06-.12c.03-.03.08-.06.15-.08.07-.02.15-.04.26-.05.1-.01.23-.02.39-.02s.29,0,.38.02c.1.01.18.03.23.05s.09.05.11.08c.02.03.02.07.01.12l-1.66,8.35Z"/>
    <path class="cls-2" d="m206.24,164.2s-.03.08-.06.11c-.03.03-.08.06-.15.08-.07.02-.15.04-.26.05-.11.01-.23.02-.39.02s-.29,0-.38-.02c-.1-.01-.18-.03-.23-.05s-.09-.05-.11-.08c-.02-.03-.02-.07-.01-.11l1.12-5.65s.03-.08.06-.11c.03-.03.08-.06.15-.08.06-.02.15-.04.25-.05.1-.01.23-.02.39-.02s.28,0,.38.02c.1.01.18.03.23.05.06.02.09.05.11.08.02.03.02.07.01.11l-1.12,5.65Zm1.64-7.57c-.03.16-.07.29-.12.4-.05.11-.12.2-.2.26-.08.07-.19.11-.31.14s-.28.04-.46.04-.32-.01-.44-.04c-.11-.03-.2-.07-.25-.14-.06-.07-.09-.15-.1-.26,0-.11,0-.24.04-.4.03-.15.07-.28.12-.39.05-.11.12-.19.2-.26.08-.07.19-.12.31-.15.12-.03.27-.04.46-.04s.32.01.43.04c.11.03.2.08.25.15s.09.15.1.26c0,.11,0,.24-.04.39Z"/>
    <path class="cls-2" d="m209.43,164.2s-.03.08-.06.11c-.03.03-.08.06-.14.08-.06.02-.15.04-.25.05-.11.01-.23.02-.39.02-.16,0-.29,0-.39-.02s-.18-.03-.23-.05-.09-.05-.11-.08c-.02-.03-.02-.07-.02-.11l1.67-8.35s.03-.08.06-.12c.03-.03.08-.06.15-.08.07-.02.15-.04.26-.05.1-.01.23-.02.39-.02s.28,0,.38.02c.1.01.18.03.23.05s.09.05.11.08c.02.03.02.07.01.12l-1.66,8.35Z"/>
    <path class="cls-2" d="m216.29,164.21c-.02.09-.08.15-.2.19-.12.04-.3.06-.56.06-.13,0-.24,0-.32-.01s-.15-.02-.2-.04c-.05-.02-.08-.04-.1-.08-.01-.03-.02-.07,0-.12l.18-.91c-.06.14-.17.28-.3.43s-.3.29-.5.41-.4.22-.63.3c-.23.08-.47.12-.71.12-.34,0-.62-.06-.84-.18-.22-.12-.4-.28-.54-.48s-.23-.43-.29-.69c-.06-.26-.09-.53-.09-.81,0-.27.03-.56.08-.87s.13-.63.23-.94c.11-.31.24-.61.41-.9s.36-.55.59-.77c.23-.22.49-.4.79-.54.3-.13.64-.2,1.01-.2.35,0,.66.07.93.22.27.15.51.36.71.64l.1-.5c.02-.09.08-.15.2-.19.12-.04.3-.06.56-.06.13,0,.23,0,.32.02.08.01.15.03.2.04.05.02.08.04.1.08.02.03.02.07.01.11l-1.14,5.68Zm-.79-3.97c-.15-.23-.31-.41-.49-.52-.18-.12-.39-.17-.62-.17-.18,0-.34.04-.49.13-.15.08-.28.2-.39.34s-.21.31-.3.49c-.09.19-.16.38-.21.58-.06.2-.1.4-.13.61-.03.21-.04.39-.04.57,0,.13,0,.25.03.36s.05.22.11.3.12.16.2.21c.08.05.19.08.32.08.19,0,.38-.06.57-.17s.38-.26.55-.46.32-.42.45-.67c.13-.26.22-.53.28-.82l.18-.86Z"/>
    <path class="cls-2" d="m224.14,160.33c0,.28-.03.58-.08.9s-.13.63-.24.95c-.11.31-.24.61-.41.9-.16.29-.36.54-.6.76-.23.22-.5.4-.8.53-.3.13-.63.2-1,.2s-.67-.07-.94-.21c-.27-.14-.51-.35-.71-.63l-.1.48c-.02.09-.08.15-.2.19-.12.04-.3.06-.56.06s-.43-.02-.52-.06-.13-.11-.11-.19l1.67-8.35s.03-.08.06-.12c.03-.03.08-.06.15-.08.07-.02.15-.04.26-.05.1-.01.23-.02.39-.02s.28,0,.38.02c.1.01.17.03.23.05.06.02.09.05.11.08.02.03.02.07.01.12l-.45,2.27c-.02.1-.04.2-.07.31-.03.11-.05.21-.08.32-.03.11-.06.21-.1.31-.03.1-.06.19-.09.26.08-.14.18-.27.33-.41.14-.14.3-.26.49-.37.18-.11.38-.2.59-.27.21-.07.42-.1.63-.1.24,0,.45.03.63.09s.33.14.46.25c.13.11.24.23.32.37.08.14.15.29.2.45.05.16.09.32.11.49.02.17.03.33.03.49Zm-1.64.16c0-.11,0-.22-.02-.33s-.05-.22-.1-.31c-.05-.09-.12-.17-.2-.23-.08-.06-.2-.09-.34-.09-.19,0-.38.06-.57.17-.19.11-.37.27-.54.46s-.32.42-.45.68c-.13.26-.22.53-.28.83l-.18.86c.15.23.31.41.49.52s.39.17.62.17c.17,0,.33-.04.47-.12.14-.08.27-.19.39-.33.12-.14.22-.29.3-.48s.16-.37.22-.57c.06-.2.1-.41.13-.61.03-.21.04-.41.04-.6Z"/>
    <path class="cls-2" d="m230.01,164.21c-.02.09-.08.15-.2.19-.12.04-.3.06-.56.06-.13,0-.24,0-.32-.01-.08,0-.15-.02-.2-.04-.05-.02-.08-.04-.1-.08-.02-.03-.02-.07,0-.12l.18-.91c-.06.14-.17.28-.3.43s-.3.29-.5.41-.4.22-.63.3-.47.12-.71.12c-.34,0-.62-.06-.84-.18-.22-.12-.4-.28-.54-.48s-.23-.43-.29-.69c-.06-.26-.09-.53-.09-.81,0-.27.03-.56.08-.87s.13-.63.24-.94c.11-.31.24-.61.41-.9s.36-.55.59-.77c.23-.22.5-.4.79-.54.3-.13.63-.2,1.01-.2.35,0,.66.07.93.22.27.15.51.36.71.64l.1-.5c.02-.09.08-.15.2-.19.12-.04.3-.06.56-.06.13,0,.23,0,.32.02.08.01.15.03.2.04.05.02.08.04.1.08.02.03.02.07.01.11l-1.14,5.68Zm-.79-3.97c-.15-.23-.31-.41-.49-.52s-.39-.17-.62-.17c-.18,0-.34.04-.49.13-.15.08-.28.2-.39.34s-.21.31-.3.49c-.09.19-.16.38-.22.58s-.1.4-.13.61-.04.39-.04.57c0,.13,0,.25.03.36.02.11.05.22.1.3s.12.16.2.21c.08.05.19.08.32.08.19,0,.38-.06.57-.17s.38-.26.55-.46.32-.42.45-.67.22-.53.28-.82l.18-.86Z"/>
    <path class="cls-2" d="m236.88,164.21c-.02.09-.08.15-.2.19-.12.04-.3.06-.56.06-.13,0-.24,0-.32-.01-.08,0-.15-.02-.2-.04-.05-.02-.08-.04-.1-.08-.01-.03-.02-.07,0-.12l.17-.91c-.06.14-.16.28-.3.43-.14.15-.3.29-.49.41-.19.12-.4.23-.63.3-.23.08-.47.12-.71.12s-.45-.03-.63-.09c-.18-.06-.33-.14-.46-.25-.13-.11-.24-.23-.32-.37s-.15-.3-.2-.46-.09-.33-.11-.5c-.02-.17-.03-.34-.03-.5,0-.28.03-.57.08-.89s.13-.63.24-.94c.11-.31.24-.61.41-.9.17-.29.36-.54.59-.76.23-.22.5-.4.79-.53.3-.13.63-.2,1.01-.2.17,0,.32.02.47.05.15.04.29.08.41.15.12.06.24.13.34.22.1.08.19.17.26.27l.6-2.99s.03-.08.06-.11c.03-.03.08-.06.14-.09.07-.02.15-.04.25-.05s.23-.02.39-.02.28,0,.38.02c.1.01.18.03.23.05s.09.05.11.09c.02.03.02.07.01.11l-1.66,8.33Zm-.79-3.97c-.15-.23-.31-.41-.49-.53-.18-.12-.39-.18-.62-.18-.17,0-.33.04-.48.12-.15.08-.28.19-.39.33-.12.14-.22.3-.3.48-.09.18-.16.38-.22.58-.06.2-.1.41-.13.61s-.04.4-.04.58c0,.32.05.56.16.73s.27.24.5.24c.19,0,.38-.06.57-.17.19-.11.38-.26.54-.45.17-.19.32-.41.45-.67.13-.26.22-.53.28-.82l.18-.86Z"/>
  </g>
  <g>
    <path class="cls-2" d="m264.35,230.81s-.03.08-.06.12c-.03.03-.07.06-.13.08-.06.02-.14.04-.25.05s-.24.02-.39.02c-.17,0-.3,0-.4-.02s-.18-.03-.23-.05-.09-.05-.1-.08c-.01-.03-.02-.07,0-.12l1.33-6.68h-.01l-3.73,6.68c-.05.11-.15.18-.3.21-.15.04-.35.05-.62.05s-.47-.02-.59-.07c-.12-.05-.18-.11-.19-.18l-.96-6.7h-.01l-1.34,6.69s-.03.08-.05.12c-.03.03-.07.06-.13.08-.06.02-.14.04-.25.05s-.24.02-.4.02-.29,0-.39-.02-.18-.03-.24-.05c-.05-.02-.09-.05-.11-.08-.02-.03-.02-.07,0-.12l1.46-7.32c.02-.11.05-.2.1-.29.04-.08.1-.16.17-.21.07-.06.14-.1.23-.13.08-.03.18-.04.27-.04h1.04c.19,0,.35.02.48.05.13.03.24.09.32.16.08.08.15.17.19.3.04.12.07.27.09.44l.79,4.89h.03l2.82-4.89c.08-.17.17-.31.25-.43.08-.12.18-.22.28-.3s.22-.14.35-.17.28-.05.45-.05h1.18c.11,0,.2.01.27.04.08.03.14.07.18.13.04.06.07.13.08.21.01.08,0,.18,0,.28l-1.46,7.32Z"/>
    <path class="cls-2" d="m271.3,230.82c-.02.09-.08.15-.2.19-.12.04-.3.06-.56.06-.13,0-.24,0-.32-.01-.08,0-.15-.02-.2-.04-.05-.02-.08-.04-.1-.08-.01-.03-.02-.07,0-.12l.18-.91c-.06.14-.17.28-.3.43-.14.15-.3.29-.5.41-.19.12-.4.22-.63.3s-.47.12-.71.12c-.34,0-.62-.06-.84-.18-.22-.12-.4-.28-.54-.48-.14-.2-.23-.43-.29-.69-.06-.26-.09-.53-.09-.81,0-.27.03-.56.08-.87s.13-.63.23-.94c.11-.31.24-.61.41-.9.17-.29.36-.55.59-.77.23-.22.5-.4.79-.54.3-.13.64-.2,1.01-.2.35,0,.66.07.93.22.27.15.51.36.71.64l.1-.5c.02-.09.08-.15.2-.19.12-.04.3-.06.56-.06.13,0,.23,0,.32.02s.15.03.2.04c.05.02.08.04.1.08.02.03.02.07.01.11l-1.14,5.68Zm-.79-3.97c-.15-.23-.31-.41-.49-.52-.18-.12-.39-.17-.62-.17-.18,0-.34.04-.49.13-.15.08-.28.2-.39.34-.12.14-.21.31-.3.49s-.16.38-.22.58c-.06.2-.1.4-.13.61s-.04.39-.04.57c0,.13,0,.25.03.36.02.11.05.22.1.3s.12.16.2.21.19.08.32.08c.19,0,.38-.06.57-.17.2-.11.38-.26.55-.46.17-.19.32-.42.45-.67s.22-.53.28-.82l.18-.86Z"/>
    <path class="cls-2" d="m277.57,225.4c0,.05,0,.13-.02.23-.01.1-.04.2-.07.3s-.06.19-.11.26c-.04.07-.08.11-.14.11-.06,0-.12-.02-.19-.06-.07-.04-.16-.08-.27-.13-.11-.05-.23-.09-.37-.13-.14-.04-.31-.06-.5-.06-.15,0-.28.02-.4.06-.12.04-.21.09-.29.16s-.13.14-.17.23c-.04.09-.06.18-.06.29,0,.13.05.24.16.33.11.09.24.17.4.25s.33.16.52.24.36.19.52.32.29.28.4.46c.11.18.16.41.16.69,0,.32-.06.62-.18.89-.12.27-.3.51-.54.71-.23.2-.52.35-.86.47-.34.11-.71.17-1.14.17-.2,0-.4-.02-.58-.04-.19-.03-.35-.07-.5-.11-.15-.04-.27-.09-.37-.15s-.18-.11-.23-.15c-.03-.03-.06-.07-.07-.11-.02-.04-.02-.09-.02-.15,0-.04,0-.09,0-.15,0-.06.02-.12.03-.2.02-.07.03-.14.05-.22.02-.07.04-.14.07-.2.03-.06.05-.11.08-.14.03-.04.06-.05.09-.05.06,0,.12.03.2.08.07.05.17.11.28.17.12.06.26.12.42.17.17.05.38.08.63.08.17,0,.33-.02.45-.06s.24-.1.32-.17.15-.15.19-.25c.04-.09.06-.19.06-.3,0-.15-.05-.27-.16-.36-.1-.09-.23-.18-.39-.26-.16-.08-.33-.16-.51-.25-.19-.08-.36-.19-.51-.31s-.29-.28-.39-.46-.16-.41-.16-.69c0-.3.06-.58.17-.84.12-.26.28-.48.5-.68s.49-.34.8-.45c.31-.11.67-.16,1.07-.16.18,0,.35.01.52.04.17.02.32.05.45.09.13.04.25.08.35.13.1.05.17.09.21.14.05.04.07.11.07.21Z"/>
    <path class="cls-2" d="m283.28,230.82c-.02.09-.08.15-.2.19-.12.04-.3.06-.56.06-.13,0-.24,0-.32-.01-.08,0-.15-.02-.2-.04-.05-.02-.08-.04-.1-.08-.01-.03-.02-.07,0-.12l.18-.91c-.06.14-.17.28-.3.43-.14.15-.3.29-.5.41-.19.12-.4.22-.63.3s-.47.12-.71.12c-.34,0-.62-.06-.84-.18-.22-.12-.4-.28-.54-.48-.14-.2-.23-.43-.29-.69-.06-.26-.09-.53-.09-.81,0-.27.03-.56.08-.87s.13-.63.23-.94c.11-.31.24-.61.41-.9.17-.29.36-.55.59-.77.23-.22.5-.4.79-.54.3-.13.64-.2,1.01-.2.35,0,.66.07.93.22.27.15.51.36.71.64l.1-.5c.02-.09.08-.15.2-.19.12-.04.3-.06.56-.06.13,0,.23,0,.32.02s.15.03.2.04c.05.02.08.04.1.08.02.03.02.07.01.11l-1.14,5.68Zm-.79-3.97c-.15-.23-.31-.41-.49-.52-.18-.12-.39-.17-.62-.17-.18,0-.34.04-.49.13-.15.08-.28.2-.39.34-.12.14-.21.31-.3.49s-.16.38-.22.58c-.06.2-.1.4-.13.61s-.04.39-.04.57c0,.13,0,.25.03.36.02.11.05.22.1.3s.12.16.2.21.19.08.32.08c.19,0,.38-.06.57-.17.2-.11.38-.26.55-.46.17-.19.32-.42.45-.67s.22-.53.28-.82l.18-.86Z"/>
    <path class="cls-2" d="m286.48,230.81s-.03.08-.06.11c-.03.03-.08.06-.14.08s-.15.04-.25.05-.24.02-.39.02c-.16,0-.29,0-.39-.02-.1-.01-.18-.03-.23-.05-.06-.02-.09-.05-.11-.08-.02-.03-.02-.07-.02-.11l1.67-8.35s.03-.08.06-.12c.03-.03.08-.06.15-.08s.15-.04.26-.05c.1-.01.23-.02.39-.02s.29,0,.38.02c.1.01.18.03.23.05.06.02.09.05.11.08.02.03.02.07.01.12l-1.66,8.35Z"/>
    <path class="cls-2" d="m289.67,230.81s-.03.08-.06.11c-.03.03-.08.06-.14.08-.06.02-.15.04-.25.05-.11.01-.23.02-.39.02-.16,0-.29,0-.39-.02s-.18-.03-.23-.05-.09-.05-.11-.08c-.02-.03-.02-.07-.02-.11l1.67-8.35s.03-.08.06-.12c.03-.03.08-.06.15-.08.07-.02.15-.04.26-.05.1-.01.23-.02.39-.02s.28,0,.38.02c.1.01.18.03.23.05s.09.05.11.08c.02.03.02.07.01.12l-1.66,8.35Z"/>
    <path class="cls-2" d="m292.87,230.81s-.03.08-.06.11c-.03.03-.08.06-.15.08-.06.02-.15.04-.26.05-.11.01-.24.02-.39.02s-.28,0-.38-.02-.18-.03-.23-.05c-.06-.02-.09-.05-.11-.08-.02-.03-.02-.07-.01-.11l1.13-5.66s.03-.08.06-.11c.03-.03.08-.06.14-.08.07-.02.15-.04.25-.05.1-.01.23-.02.39-.02s.29,0,.38.02.18.03.23.05.09.05.11.08c.02.03.02.07.01.11l-1.13,5.66Z"/>
  </g>
  <g>
    <path class="cls-2" d="m255.72,381.25c.02.15.03.27.03.36,0,.09-.03.16-.09.2-.06.04-.15.07-.28.08s-.31.02-.54.02c-.16,0-.29,0-.39,0-.1,0-.18-.02-.23-.03-.05-.02-.09-.04-.11-.08-.02-.03-.03-.08-.04-.14l-.22-1.65h-3.08l-.85,1.61c-.03.06-.06.11-.1.15-.04.04-.09.07-.16.09-.07.02-.17.04-.29.04-.12,0-.27.01-.45.01-.19,0-.35,0-.45-.02-.11-.01-.18-.04-.22-.09s-.04-.12-.01-.21.08-.21.16-.36l3.99-7.29c.04-.07.08-.13.13-.17.04-.04.1-.08.18-.1.08-.02.18-.04.32-.04.13,0,.31,0,.52,0,.25,0,.45,0,.59,0,.15,0,.26.02.34.04s.13.06.16.1c.03.05.04.11.05.19l1.07,7.28Zm-2.5-6.02h0l-1.83,3.49h2.31l-.47-3.49Z"/>
    <path class="cls-2" d="m261.37,376.24c0,.05,0,.13-.02.23-.02.1-.04.2-.07.3s-.06.19-.1.26c-.04.07-.09.11-.14.11-.05,0-.12-.02-.19-.06s-.16-.08-.27-.13c-.11-.05-.23-.09-.37-.13-.14-.04-.31-.06-.5-.06-.15,0-.28.02-.4.06-.12.04-.21.09-.29.16s-.13.14-.17.23c-.04.09-.06.18-.06.29,0,.13.05.24.16.33s.24.17.4.25.33.16.52.24.36.19.52.32.29.28.4.46c.11.18.16.41.16.69,0,.32-.06.62-.18.89-.12.27-.3.51-.54.71-.24.2-.52.35-.86.47s-.72.17-1.14.17c-.2,0-.4-.02-.58-.04s-.35-.07-.49-.11c-.15-.04-.27-.09-.37-.15s-.18-.11-.23-.15c-.03-.03-.06-.07-.07-.11-.01-.04-.02-.09-.02-.15,0-.04,0-.09,0-.15,0-.06.02-.12.03-.2.01-.07.03-.14.05-.22s.04-.14.07-.2c.03-.06.05-.11.08-.14.03-.04.06-.05.1-.05.06,0,.12.03.2.08.07.05.16.11.28.17.11.06.25.12.42.17.17.05.38.08.62.08.17,0,.32-.02.45-.06.13-.04.24-.1.32-.17s.15-.15.19-.25c.04-.09.06-.19.06-.3,0-.15-.05-.27-.15-.36-.1-.09-.23-.18-.39-.26-.16-.08-.33-.16-.51-.25-.18-.08-.35-.19-.51-.31s-.29-.28-.39-.46c-.1-.18-.16-.41-.16-.69,0-.3.06-.58.17-.84.11-.26.28-.48.5-.68s.49-.34.8-.45c.31-.11.67-.16,1.07-.16.18,0,.35.01.52.04.17.02.32.05.45.09.13.04.25.08.35.13.1.05.17.09.21.14.05.04.07.11.07.21Z"/>
    <path class="cls-2" d="m266.12,376.05s0,.1-.01.16c0,.07-.02.14-.04.21-.02.08-.04.15-.06.23s-.05.14-.09.21c-.03.06-.07.11-.11.15-.04.04-.08.06-.13.06h-1.24l-.53,2.66c-.01.06-.02.14-.04.22s-.02.16-.02.21c0,.17.04.29.12.37.08.08.21.12.38.12.1,0,.19,0,.26-.02s.13-.03.19-.05c.05-.02.1-.04.14-.05.04-.01.07-.02.11-.02s.06.02.09.05c.02.03.03.08.03.16,0,.08,0,.17-.03.27-.02.1-.04.2-.07.3-.03.09-.06.18-.09.26s-.07.14-.11.17c-.04.04-.1.07-.17.11-.08.03-.17.06-.27.09s-.21.04-.33.06c-.12.01-.24.02-.36.02-.25,0-.48-.03-.67-.08s-.35-.14-.49-.25c-.13-.11-.23-.26-.3-.44s-.1-.39-.1-.65c0-.05,0-.1,0-.16s.01-.13.02-.19c0-.07.02-.14.03-.21.01-.07.02-.13.04-.19l.55-2.76h-.69c-.06,0-.1-.02-.12-.05s-.04-.1-.04-.21c0-.07,0-.17.02-.28.01-.12.04-.23.07-.34.03-.11.08-.21.13-.29.06-.08.12-.12.2-.12h.68l.25-1.26s.03-.08.06-.11c.03-.03.08-.06.15-.09s.15-.04.25-.05c.1-.01.23-.02.39-.02s.28,0,.38.02.18.03.24.05c.05.02.09.05.11.09.02.03.02.07.02.11l-.25,1.26h1.22c.07,0,.12.02.15.07.03.05.04.11.04.2Z"/>
    <path class="cls-2" d="m271.29,381.66c-.02.09-.08.15-.2.19-.12.04-.3.06-.56.06-.13,0-.24,0-.32-.01-.08,0-.15-.02-.2-.04-.05-.02-.08-.04-.1-.08-.01-.03-.02-.07,0-.12l.18-.91c-.06.14-.17.28-.3.43-.14.15-.3.29-.5.41-.19.12-.4.22-.63.3s-.47.12-.71.12c-.34,0-.62-.06-.84-.18-.22-.12-.4-.28-.54-.48-.14-.2-.23-.43-.29-.69-.06-.26-.09-.53-.09-.81,0-.27.03-.56.08-.87s.13-.63.23-.94c.11-.31.24-.61.41-.9.17-.29.36-.55.59-.77.23-.22.5-.4.79-.54.3-.13.64-.2,1.01-.2.35,0,.66.07.93.22.27.15.51.36.71.64l.1-.5c.02-.09.08-.15.2-.19.12-.04.3-.06.56-.06.13,0,.23,0,.32.02s.15.03.2.04c.05.02.08.04.1.08.02.03.02.07.01.11l-1.14,5.68Zm-.79-3.97c-.15-.23-.31-.41-.49-.52-.18-.12-.39-.17-.62-.17-.18,0-.34.04-.49.13-.15.08-.28.2-.39.34-.12.14-.21.31-.3.49s-.16.38-.22.58c-.06.2-.1.4-.13.61s-.04.39-.04.57c0,.13,0,.25.03.36.02.11.05.22.1.3s.12.16.2.21.19.08.32.08c.19,0,.38-.06.57-.17.2-.11.38-.26.55-.46.17-.19.32-.42.45-.67s.22-.53.28-.82l.18-.86Z"/>
    <path class="cls-2" d="m277.59,375.9s0,.08-.01.16c0,.08-.02.17-.04.27-.02.1-.04.21-.06.31-.03.11-.05.21-.09.3-.03.09-.07.17-.11.23-.04.06-.08.09-.13.09-.04,0-.08,0-.11-.02s-.08-.03-.13-.04-.1-.03-.15-.04-.12-.02-.19-.02c-.14,0-.3.06-.46.17-.16.11-.32.25-.47.43s-.28.39-.4.63c-.12.24-.2.49-.25.75l-.51,2.55s-.03.08-.06.11c-.03.03-.08.06-.15.08-.07.02-.15.04-.26.05-.11.01-.23.02-.39.02s-.29,0-.38-.02c-.1-.01-.18-.03-.23-.05s-.09-.05-.11-.08c-.02-.03-.02-.07-.01-.11l1.13-5.67s.03-.08.06-.11c.03-.03.07-.06.13-.08.06-.02.13-.03.22-.04.09-.01.2-.02.33-.02s.24,0,.32.02c.08.01.15.03.19.04.05.02.08.04.09.08.01.03.02.07,0,.11l-.18.9c.1-.18.22-.35.35-.5s.28-.28.43-.4c.15-.11.3-.2.47-.26s.32-.1.48-.1c.06,0,.13,0,.19.01.07,0,.13.02.19.03.06.01.11.03.15.05.04.02.08.04.1.06.03.03.04.07.04.12Z"/>
    <path class="cls-2" d="m282.72,381.66c-.02.09-.08.15-.2.19-.12.04-.3.06-.56.06-.13,0-.24,0-.32-.01-.08,0-.15-.02-.2-.04-.05-.02-.08-.04-.1-.08-.01-.03-.02-.07,0-.12l.18-.91c-.06.14-.16.28-.3.43-.14.15-.3.29-.49.41-.19.12-.4.22-.63.3-.23.08-.47.12-.71.12-.34,0-.62-.06-.84-.18-.22-.12-.4-.28-.54-.48-.13-.2-.23-.43-.29-.69-.06-.26-.09-.53-.09-.81,0-.27.03-.56.08-.87s.13-.63.24-.94c.11-.31.24-.61.41-.9.16-.29.36-.55.59-.77.23-.22.5-.4.79-.54.3-.13.64-.2,1.01-.2.35,0,.66.07.93.22.27.15.51.36.71.64l.1-.5c.02-.09.08-.15.2-.19.12-.04.3-.06.56-.06.13,0,.23,0,.32.02s.15.03.2.04c.05.02.08.04.1.08.02.03.02.07.01.11l-1.14,5.68Zm-.79-3.97c-.15-.23-.31-.41-.49-.52s-.39-.17-.62-.17c-.18,0-.34.04-.49.13-.15.08-.28.2-.39.34-.11.14-.21.31-.3.49-.09.19-.16.38-.22.58-.06.2-.1.4-.13.61-.03.21-.04.39-.04.57,0,.13,0,.25.03.36.02.11.05.22.1.3s.12.16.2.21.19.08.32.08c.19,0,.38-.06.57-.17.19-.11.38-.26.54-.46.17-.19.32-.42.45-.67.13-.26.22-.53.28-.82l.18-.86Z"/>
  </g>
  <g>
    <path class="cls-2" d="m197.7,310.12s0,.08,0,.14c0,.07-.02.14-.03.22-.02.08-.03.17-.06.26s-.05.17-.08.24c-.03.07-.07.13-.11.18-.04.05-.09.07-.15.07h-3.76c-.07,0-.13,0-.19-.03-.06-.02-.1-.05-.14-.1-.04-.04-.06-.1-.07-.17s-.01-.14,0-.24l1.5-7.46s.02-.08.06-.11.09-.06.16-.08c.07-.02.16-.04.27-.05.11-.01.24-.02.41-.02s.29,0,.4.02c.11.01.19.03.25.05.06.02.1.05.12.08.02.03.02.07.02.11l-1.32,6.62h2.59c.06,0,.1.02.12.07s.04.11.04.18Z"/>
    <path class="cls-2" d="m204.34,306.61c0,.3-.07.58-.21.82s-.35.45-.64.63c-.29.18-.66.31-1.1.4-.45.09-.98.14-1.6.14h-.58c-.02.1-.03.19-.04.29,0,.09-.01.18-.01.26,0,.34.09.6.27.77.18.17.46.26.86.26.28,0,.53-.02.75-.06.22-.04.42-.08.58-.13.17-.05.31-.09.42-.13.11-.04.19-.06.24-.06s.09.02.11.04c.02.03.03.08.03.14,0,.07,0,.15-.02.25-.01.09-.03.19-.05.28-.02.09-.05.18-.09.26-.04.08-.08.14-.12.18-.05.05-.14.1-.28.15-.14.05-.3.1-.49.14s-.4.08-.64.1c-.24.03-.48.04-.72.04-.41,0-.76-.04-1.06-.13-.3-.08-.56-.21-.76-.39s-.36-.39-.46-.66-.15-.59-.15-.96c0-.28.03-.59.08-.91.05-.32.14-.64.26-.96.12-.32.27-.62.46-.9.19-.29.41-.54.68-.76s.57-.39.92-.52c.35-.13.74-.2,1.19-.2.38,0,.72.05.99.14s.5.21.68.36.31.32.4.51.13.39.13.59Zm-1.57.12c0-.17-.07-.31-.2-.42-.13-.11-.33-.17-.58-.17-.21,0-.4.04-.57.11-.17.08-.31.18-.44.31s-.24.28-.33.46-.16.36-.22.56h.53c.34,0,.62-.02.85-.07.23-.04.41-.1.55-.18s.24-.17.3-.27.1-.21.1-.33Z"/>
    <path class="cls-2" d="m209.53,305.28s0,.08-.01.16c0,.08-.02.17-.04.27-.02.1-.04.21-.06.31-.03.11-.05.21-.09.3-.03.09-.07.17-.11.23-.04.06-.08.09-.13.09-.04,0-.08,0-.11-.02s-.08-.03-.13-.04c-.05-.01-.1-.03-.15-.04-.05-.01-.12-.02-.19-.02-.14,0-.3.06-.46.17-.16.11-.32.25-.47.43-.15.18-.28.39-.4.63s-.2.49-.25.75l-.51,2.55s-.03.08-.06.11c-.03.03-.08.06-.15.08s-.15.04-.26.05c-.11.01-.24.02-.39.02s-.28,0-.38-.02-.18-.03-.23-.05c-.06-.02-.09-.05-.11-.08-.02-.03-.02-.07-.01-.11l1.13-5.67s.03-.08.06-.11c.03-.03.07-.06.13-.08.06-.02.13-.03.22-.04s.2-.02.33-.02.24,0,.32.02c.08.01.15.03.19.04.05.02.08.04.09.08.01.03.02.07,0,.11l-.18.9c.1-.18.22-.35.35-.5.13-.15.28-.28.43-.4.15-.11.31-.2.47-.26.16-.06.32-.1.48-.1.06,0,.13,0,.19.01.07,0,.13.02.18.03.06.01.11.03.15.05.04.02.08.04.1.06.03.03.04.07.04.12Z"/>
    <path class="cls-2" d="m211,311.03s-.03.08-.06.11c-.03.03-.08.06-.15.08-.07.02-.15.04-.26.05-.11.01-.23.02-.39.02s-.29,0-.38-.02c-.1-.01-.18-.03-.23-.05-.06-.02-.09-.05-.11-.08-.02-.03-.02-.07-.01-.11l1.12-5.65s.03-.08.06-.11c.03-.03.08-.06.15-.08s.15-.04.25-.05c.1-.01.23-.02.39-.02s.28,0,.38.02c.1.01.18.03.23.05.06.02.09.05.11.08.02.03.02.07.01.11l-1.12,5.65Zm1.64-7.57c-.03.16-.07.29-.12.4-.05.11-.12.2-.2.26-.08.07-.19.11-.31.14-.12.03-.28.04-.46.04s-.32-.01-.44-.04c-.11-.03-.2-.07-.25-.14-.06-.07-.09-.15-.1-.26,0-.11,0-.24.04-.4.03-.15.07-.28.12-.39.05-.11.12-.19.2-.26.08-.07.19-.12.31-.15.12-.03.27-.04.46-.04s.32.01.43.04c.11.03.2.08.25.15.06.07.09.15.09.26,0,.11,0,.24-.03.39Z"/>
    <path class="cls-2" d="m218.79,305.34c0,.07-.03.15-.08.24-.06.09-.15.21-.28.35l-2,1.89,1.3,2.73c.04.1.07.19.09.27.02.08.03.13.03.18,0,.05-.01.09-.04.13s-.07.07-.14.1-.15.04-.27.05-.25.02-.42.02-.31,0-.41-.01c-.1,0-.18-.02-.24-.04-.06-.02-.1-.05-.13-.08-.03-.03-.05-.08-.06-.13l-1.34-2.98-.6,3s-.03.08-.07.11-.08.06-.15.08c-.07.02-.15.04-.26.05-.11.01-.23.02-.39.02s-.29,0-.38-.02c-.1-.01-.18-.03-.23-.04-.05-.02-.09-.04-.11-.08-.02-.03-.02-.07-.02-.11l1.68-8.35s.03-.08.06-.12c.03-.03.08-.06.15-.08.07-.02.15-.04.26-.05.1-.01.23-.02.39-.02s.29,0,.38.02c.1.01.18.03.23.05.05.02.09.05.11.08.02.03.02.07.01.12l-.99,4.97,2.12-2.27c.04-.05.09-.09.14-.13s.11-.06.19-.08c.08-.02.17-.04.28-.04.11,0,.24-.01.4-.01s.29,0,.39.01c.11,0,.19.02.25.04.06.02.1.04.12.07.02.03.03.06.03.1Z"/>
  </g>
  <g>
    <path class="cls-2" d="m272.79,306.87s0,.08,0,.14c0,.07-.02.14-.03.22-.02.08-.03.17-.06.26-.02.09-.05.17-.08.24-.03.07-.07.13-.11.18-.04.05-.09.07-.15.07h-3.76c-.07,0-.13,0-.19-.03-.06-.02-.1-.05-.14-.1-.04-.04-.06-.1-.07-.17-.01-.07-.01-.14,0-.24l1.5-7.46s.02-.08.06-.11.09-.06.16-.08c.07-.02.16-.04.27-.05.11-.01.24-.02.41-.02s.29,0,.4.02c.11.01.19.03.25.05s.1.05.12.08c.02.03.02.07.02.11l-1.32,6.62h2.59c.06,0,.1.02.12.07s.04.11.04.18Z"/>
    <path class="cls-2" d="m273.52,306.53c0-.3.07-.58.21-.82s.35-.45.64-.63.66-.31,1.1-.4c.45-.09.98-.14,1.6-.14h.58c.02-.1.03-.19.04-.29,0-.09.01-.18.01-.26,0-.34-.09-.6-.27-.77-.18-.17-.46-.26-.86-.26-.28,0-.53.02-.75.06-.22.04-.42.08-.58.13-.17.05-.31.09-.42.13-.11.04-.19.06-.24.06s-.09-.02-.11-.04-.03-.08-.03-.14c0-.07,0-.15.02-.25.01-.09.03-.19.05-.28.02-.09.05-.18.09-.26.04-.08.08-.14.12-.18.05-.05.14-.1.28-.15s.3-.1.49-.14c.19-.04.4-.08.64-.1s.48-.04.72-.04c.41,0,.76.04,1.06.13.3.08.55.21.76.39s.36.39.46.66.15.59.15.96c0,.28-.03.59-.08.91-.05.32-.14.64-.26.96s-.27.62-.46.9-.41.54-.68.76c-.26.22-.57.39-.92.52-.35.13-.74.2-1.19.2-.39,0-.72-.05-.99-.14s-.5-.21-.68-.36-.31-.32-.4-.51-.13-.39-.13-.59Zm1.57-.12c0,.17.07.31.2.42.13.11.33.17.58.17.21,0,.4-.04.57-.11.17-.08.31-.18.44-.31s.24-.28.33-.46.16-.36.22-.56h-.53c-.34,0-.62.02-.85.07-.23.04-.41.1-.55.18-.14.08-.24.17-.3.27-.06.1-.09.21-.09.33Z"/>
    <path class="cls-2" d="m286.01,303.38c0,.15,0,.3-.03.45-.02.15-.04.3-.07.46l-.71,3.5s-.03.08-.06.11-.08.06-.15.08-.15.04-.25.05c-.1.01-.23.02-.39.02s-.28,0-.38-.02-.18-.03-.23-.05c-.05-.02-.09-.05-.11-.08-.02-.03-.02-.07-.02-.11l.69-3.4c.02-.1.04-.21.05-.31s.02-.2.02-.28c0-.19-.04-.35-.12-.47s-.22-.18-.41-.18c-.17,0-.35.05-.54.16-.19.11-.37.26-.53.45-.17.19-.32.41-.45.66s-.22.52-.28.8l-.51,2.56s-.03.08-.06.11c-.03.03-.08.06-.15.08-.07.02-.15.04-.26.05s-.24.02-.39.02-.28,0-.38-.02c-.1-.01-.18-.03-.23-.05-.06-.02-.09-.05-.11-.08-.02-.03-.02-.07-.01-.11l1.14-5.67s.03-.08.05-.11c.03-.03.07-.06.13-.08.06-.02.13-.03.22-.04.09-.01.2-.02.33-.02s.24,0,.32.02c.08.01.15.03.19.04.05.02.08.04.09.08.01.03.02.07,0,.11l-.18.93c.09-.15.21-.3.36-.45s.32-.29.51-.42c.19-.12.4-.22.63-.3s.46-.12.71-.12c.3,0,.54.04.75.13s.36.2.49.35c.12.15.21.32.27.52.06.2.08.41.08.62Z"/>
    <path class="cls-2" d="m292.96,302.09c0,.07-.03.15-.09.24-.06.09-.15.21-.28.35l-2,1.89,1.3,2.73c.04.1.07.19.09.27.02.08.03.13.03.18,0,.05-.01.09-.04.13s-.07.07-.14.1-.15.04-.27.05c-.11.01-.25.02-.42.02s-.31,0-.41-.01c-.1,0-.18-.02-.24-.04-.06-.02-.1-.05-.13-.08s-.05-.08-.06-.13l-1.34-2.98-.6,3s-.04.08-.07.11-.08.06-.15.08c-.07.02-.15.04-.26.05-.11.01-.23.02-.39.02s-.29,0-.38-.02c-.1-.01-.18-.03-.23-.04-.06-.02-.09-.04-.11-.08-.02-.03-.02-.07-.02-.11l1.68-8.35s.03-.08.06-.12c.03-.03.08-.06.15-.08.07-.02.15-.04.26-.05.1-.01.23-.02.39-.02s.29,0,.38.02c.1.01.18.03.23.05s.09.05.11.08c.02.03.02.07.01.12l-.99,4.97,2.12-2.27c.04-.05.09-.09.14-.13.05-.04.11-.06.19-.08.08-.02.17-.04.28-.04.11,0,.24-.01.4-.01s.29,0,.39.01c.11,0,.19.02.25.04.06.02.1.04.12.07s.04.06.04.1Z"/>
    <path class="cls-2" d="m293,306.53c0-.3.07-.58.21-.82.14-.24.35-.45.64-.63.29-.18.66-.31,1.1-.4.45-.09.98-.14,1.6-.14h.58c.02-.1.03-.19.04-.29,0-.09.01-.18.01-.26,0-.34-.09-.6-.27-.77-.18-.17-.46-.26-.86-.26-.28,0-.53.02-.75.06-.22.04-.42.08-.58.13-.17.05-.3.09-.42.13s-.19.06-.24.06-.09-.02-.11-.04c-.02-.03-.03-.08-.03-.14,0-.07,0-.15.02-.25.01-.09.03-.19.05-.28s.05-.18.09-.26c.04-.08.08-.14.12-.18.05-.05.14-.1.28-.15.13-.05.3-.1.49-.14s.4-.08.64-.1c.24-.03.48-.04.72-.04.41,0,.76.04,1.06.13.3.08.56.21.76.39s.36.39.46.66.15.59.15.96c0,.28-.03.59-.08.91-.05.32-.14.64-.26.96-.12.32-.27.62-.46.9-.19.29-.41.54-.68.76-.26.22-.57.39-.92.52s-.74.2-1.19.2c-.39,0-.72-.05-.99-.14s-.5-.21-.68-.36-.31-.32-.4-.51c-.09-.19-.13-.39-.13-.59Zm1.57-.12c0,.17.07.31.2.42s.33.17.58.17c.21,0,.4-.04.57-.11.17-.08.31-.18.44-.31s.24-.28.33-.46c.09-.18.16-.36.22-.56h-.53c-.34,0-.62.02-.85.07-.23.04-.41.1-.55.18s-.24.17-.3.27-.09.21-.09.33Z"/>
    <path class="cls-2" d="m304.1,302.02s0,.08-.01.16c0,.08-.02.17-.04.27-.02.1-.04.21-.06.31-.03.11-.05.21-.09.3s-.07.17-.11.23c-.04.06-.08.09-.13.09-.04,0-.08,0-.11-.02s-.08-.03-.13-.04-.1-.03-.15-.04-.12-.02-.19-.02c-.14,0-.3.06-.46.17-.16.11-.32.25-.47.43s-.28.39-.4.63c-.12.24-.2.49-.25.75l-.51,2.55s-.03.08-.06.11c-.03.03-.08.06-.15.08-.06.02-.15.04-.26.05-.11.01-.24.02-.39.02s-.28,0-.38-.02-.18-.03-.23-.05c-.06-.02-.09-.05-.11-.08-.02-.03-.02-.07-.01-.11l1.13-5.67s.03-.08.06-.11c.03-.03.07-.06.13-.08.06-.02.13-.03.22-.04.09-.01.2-.02.33-.02s.24,0,.32.02.15.03.19.04c.05.02.08.04.09.08.02.03.02.07,0,.11l-.18.9c.1-.18.22-.35.35-.5.13-.15.28-.28.43-.4s.31-.2.47-.26.32-.1.48-.1c.06,0,.13,0,.19.01.07,0,.13.02.18.03s.11.03.15.05c.04.02.08.04.11.06.03.03.04.07.04.12Z"/>
    <path class="cls-2" d="m309.23,307.78c-.02.09-.08.15-.2.19-.12.04-.3.06-.56.06-.13,0-.24,0-.32-.01-.08,0-.15-.02-.2-.04-.05-.02-.08-.04-.1-.08-.01-.03-.02-.07,0-.12l.18-.91c-.06.14-.17.28-.3.43-.14.15-.3.29-.5.41-.19.12-.4.22-.63.3s-.47.12-.71.12c-.34,0-.62-.06-.84-.18-.22-.12-.4-.28-.54-.48-.14-.2-.23-.43-.29-.69-.06-.26-.09-.53-.09-.81,0-.27.03-.56.08-.87s.13-.63.23-.94c.11-.31.24-.61.41-.9.17-.29.36-.55.59-.77.23-.22.5-.4.79-.54.3-.13.64-.2,1.01-.2.35,0,.66.07.93.22.27.15.51.36.71.64l.1-.5c.02-.09.08-.15.2-.19.12-.04.3-.06.56-.06.13,0,.23,0,.32.02s.15.03.2.04c.05.02.08.04.1.08.02.03.02.07.01.11l-1.14,5.68Zm-.79-3.97c-.15-.23-.31-.41-.49-.52-.18-.12-.39-.17-.62-.17-.18,0-.34.04-.49.13-.15.08-.28.2-.39.34-.12.14-.21.31-.3.49s-.16.38-.22.58c-.06.2-.1.4-.13.61s-.04.39-.04.57c0,.13,0,.25.03.36.02.11.05.22.1.3s.12.16.2.21.19.08.32.08c.19,0,.38-.06.57-.17.2-.11.38-.26.55-.46.17-.19.32-.42.45-.67s.22-.53.28-.82l.18-.86Z"/>
    <path class="cls-2" d="m316.93,303.38c0,.15,0,.3-.03.45-.02.15-.04.3-.07.46l-.7,3.5s-.03.08-.06.11c-.03.03-.08.06-.15.08-.07.02-.15.04-.25.05s-.23.02-.39.02-.28,0-.38-.02c-.1-.01-.18-.03-.23-.05s-.09-.05-.11-.08c-.02-.03-.02-.07-.02-.11l.69-3.4c.02-.1.04-.21.05-.31.01-.11.02-.2.02-.28,0-.19-.04-.35-.12-.47-.08-.12-.22-.18-.41-.18-.17,0-.36.05-.54.16-.19.11-.37.26-.53.45-.17.19-.32.41-.45.66-.13.25-.22.52-.28.8l-.51,2.56s-.03.08-.06.11c-.03.03-.08.06-.15.08-.07.02-.15.04-.26.05-.11.01-.23.02-.39.02s-.29,0-.38-.02c-.1-.01-.18-.03-.23-.05s-.09-.05-.11-.08c-.02-.03-.02-.07-.01-.11l1.14-5.67s.03-.08.05-.11c.03-.03.07-.06.13-.08.06-.02.13-.03.22-.04.09-.01.2-.02.33-.02s.24,0,.32.02c.08.01.15.03.19.04.05.02.08.04.09.08.01.03.02.07,0,.11l-.18.93c.09-.15.21-.3.36-.45.15-.15.32-.29.51-.42.19-.12.4-.22.63-.3.23-.08.46-.12.71-.12.3,0,.54.04.75.13s.36.2.49.35c.12.15.21.32.27.52.06.2.08.41.08.62Z"/>
  </g>
</svg>