<?xml version="1.0" encoding="UTF-8"?>
<svg id="Layer_1" data-name="Layer 1" xmlns="http://www.w3.org/2000/svg" viewBox="0 0 500 500">
  <defs>
    <style>
      .cls-1 {
        fill: #0b7b5f;
        stroke: #fff;
        stroke-miterlimit: 10;
      }

      .cls-2 {
        fill: #f9e5af;
      }
    </style>
  </defs>
  <g>
    <path class="cls-1" d="m64.6,109.92v2.28c0,.51,0,1.02,0,1.52,0,.87-.23,1.59-.32,2.44-.21,1.87.02,3.9.02,5.79,0,.89.03,1.61.24,2.44.09.35.01.7.09,1.04.06.28.43.59.52.86.44,1.3.43,2.69-.6,3.82-.37.4-.64.52-.92,1.04-.32.58-.71,1.14-.94,1.76-.24.67-.83,2.15-.49,2.87.26.56.96.55,1.42.85,1.06.7,1.49,1.98,1.32,3.21-.18,1.22-.88,2.46-1.4,3.58-.57,1.21-1.11,2.52-1.45,3.81-.27,1.02-.77,2.06-.83,3.09-.06,1.03-.54,2.23-1.28,3-.6.62-1.21,1.03-1.69,1.81-.41.67-.53,1.66-.39,2.43.17.94.46,2.09.85,2.98.53,1.21,1.88,1.89,2.97,2.52.86.49,1.43,1.44,2.27,1.89,1.04.56,1.96,1.1,2.96,1.75,1.09.7,2.78,1.1,4.05,1.21,1.56.14,3.19.96,4.46,1.84.47.33.75.7,1.03,1.2.19.35.25.73.44,1.08.51.95,1.98,1.12,2.24,2.27.27,1.19-1.14,2.28-1.82,3.09-1.63,1.91-3.36,3.66-5.13,5.44-.79.79-1.52,1.44-2.37,2.13-.46.37-.68.73-.95,1.25-.89,1.73-1.79,3.51-2.58,5.29-.26.57-.71,1.53-.79,2.15-.08.59.21.89.53,1.36.74,1.09,1.64,2.39,3.12,2.11,1.39-.27,2.73-.32,4.11-.74,1.63-.5,2.89-1.23,4.41-1.98.69-.34,1.39-.84,2.16-.94.33-.04.69.06,1.03.03.69-.06,1.31-.29,2.02-.33,1.41-.07,2.21.23,3.46.85,1.61.81,3.77.81,4.82,2.44.93,1.45.07,3.16-.32,4.74-.29,1.17-.3,2.31-.45,3.5-.11.91-.39,1.89-.24,2.82.11.74.32,1.33.33,2.1.02,1.46-.25,2.99-.51,4.42-.42,2.32-1.1,4.7-1.04,7.08.04,1.5.99,3.53,2.17,4.49.6.49,1.37.85,2.09,1.08,1.11.36,1.78.9,2.78,1.5,1.67,1.01,3.88,1.3,5.77,1.01,1.08-.17,2.99-.34,4.09-.1,1.37.3,1.22,2.57,1.02,3.68-.16.86-.52,1.62-.78,2.44-.31.95-.28,1.81-.36,2.78-.08.94-.23,2.13-.91,2.78-.98.94-2.47.46-3.72.52-.59.03-1.17.14-1.72.32.11.25.17.52.22.76.06.3-.02.6.05.89.07.33.24.54.28.94.1.99.49,2.1.95,3.01.57,1.11.88,1.94.88,3.24,0,1.36.31,2.73.76,3.96.3.84.9,1.77,1.51,2.42.48.51,1.1.82,1.61,1.3.57.53,1.16,1.08,1.84,1.54.54.37,1.19.68,1.73,1.08.42-.37.54-.89,1.09-1.47.97-.99,1.85-2,2.73-3.03.72-.84,1.19-1.83,1.99-2.61.67-.66,1.28-1.35,1.8-2.14.54-.8.54-1.81.85-2.72.48-1.43,1.28-2.91,1.99-4.23.63-1.15,1.49-2.1,2.63-2.79,1.32-.79,2.81-1.12,4.14-1.97,1.19-.76,1.92.22,2.75,1.13,1,1.08,2.08,2.04,3.04,3.19,1.14,1.37,2.31,2.48,3.82,3.44.5.32,1.03.56,1.5.92.33.25.49.5.93.44.32-.04,1-.55,1.28-.74.56-.37,1.02-.9,1.54-1.33,1.18-.98,2.17-1.86,3.14-3.08.46-.58.7-1.21,1.08-1.83.51-.82,1.14-1.48,1.8-2.18,1.02-1.09,2.13-2.01,2.88-3.32.85-1.47,1.68-2.75,2.13-4.4.32-1.16,1.14-2.2,1.8-3.2.51-.78.95-1.38,1.83-1.76.23-.1.46-.17.68-.23-.04-.16-.08-.3-.13-.41.04.11.08.26.13.41.27-.07.55-.11.86-.15.68-.07,1.2-.35,1.84-.55,1.22-.39,2.18-.44,2.89-1.61.65-1.09,1.26-2.2,1.8-3.35.53-1.13,1.54-1.73,2.23-2.77.58-.87,1.13-1.63,1.84-2.41.5-.55,1.15-1,1.62-1.57,1.28-1.55,1.38-3.56.95-5.4-.22-.96,0-2.04-.09-3.02-.14-1.52-.57-2.83-1.22-4.19-.6-1.26-1.22-2.33-1.5-3.69-.19-.94-.38-1.88-.61-2.82-.33-1.32-.17-2.15-.03-3.49.15-1.41-.1-2.7-.25-4.09-.14-1.32-.1-2.78.26-4.05.46-1.66,1.32-2.77,2.18-4.22.58-.97.97-1.9,1.31-2.98.19-.61.41-1.25.48-1.88.08-.79-.17-1.49-.27-2.27-.14-1.11.06-1.62.58-2.57.7-1.29,1.31-2.62,1.99-3.92.56-1.08,1.47-1.98,1.99-3.08.49-1.01.62-2.28.59-3.39-.04-1.34-.42-2.66-1.37-3.64-.34-.35-.74-.87-1.11-1.14-.86-.64-2.09-.68-3.07-1.05-1.12-.42-1.63-1.22-2.52-1.92-.72-.57-1.55-.9-2.4-1.18h0c-.66-.22-1.33-.41-1.98-.65-.96-.36-1.9-.75-2.84-1.13-1.21-.49-1.84-1.42-2.93-2.09-.8-.49-1.85-.87-2.49-1.55-.61-.65-.92-1.67-1.45-2.4-.94-1.3-2.89-.94-4.19-1.93-1.51-1.14-3.54-1.12-5.31-1.78-1.74-.64-3.35-1.05-5.18-1.14-1.38-.07-2.91-1.34-3.96-2.15-1.12-.87-2.48-1.47-3.35-2.54-.39-.48-.86-.91-1.19-1.44-.34-.54-.52-1.05-.96-1.53-.71-.76-1.49-1.56-2.27-2.25-.5-.44-1.34-1.04-1.95-1.28-.59-.24-1.03-.38-1.58-.7-.33-.19-.53-.23-.89-.36-1.23-.42-2.29-1.27-3.35-1.92-.97-.6-1.8-1.29-2.74-1.97-.95-.69-1.82-.97-2.88-1.23-.64-.15-1.16-.23-1.76-.52-.42-.2-.82-.41-1.22-.61-.51-.25-.94-.39-1.37-.76-.32-.28-.61-.61-.91-.91-1.28-1.28-1.92-2.01-3.39-2.86-1.31-.11-2.2-.44-2.78-.73-.21-.11-.46-.25-.88-.42-.58-.24-1.16-.41-1.83-.56-1.05-.24-2.37-.24-3.31-.82-.9-.56-1.32-1.03-2.42-1.3-1.55-.39-2.16-1.36-3.28-2.35-1.5-1.32-3.54-2.37-5.35-3.2-.64-.3-1.27-.6-1.87-.97-.91-.56-1.55-1.27-2.39-1.9-.92-.68-2.11-.89-2.76-1.95-.38-.62-.48-1.33-1.15-1.77-.77-.5-1.8-.25-2.65-.66-.84-.41-1.24-.54-2.26-.54-.86,0-1.73-.02-2.59-.01-1.27.02-2.09.5-3.2.94,0,0,0,0,0,0-.25.71-.58,1.42-.89,2.04-.53,1.04-1.24,1.84-2.06,2.6.14.74.3,1.47.5,2.2.39,1.45.33,2.97.33,4.56Z"/>
    <path class="cls-1" d="m389.1,402.43c.84-2.45,2.29-3.54,4.26-5.08,1.22-.96,2.55-1.77,3.79-2.71-.01-.16-.02-.32-.02-.46,0,.15,0,.3.02.46.09-.07.19-.13.28-.2.54-.42,1.04-.87,1.67-1.18,1.37-.68,2.67-1.51,4.13-1.91.74-.2,1.38-.51,2.16-.33.6.14,1.13.74,1.74.72,1.15-1.78.99-4.12.97-6.12-.02-1.87.07-3.63.22-5.49.13-1.56.07-2.93.99-4.31,1.31-1.96,3.24-3.48,4.79-5.24.26-.29.47-.57.81-.78.48-.29.88-.28,1.47-.31,1.16-.06,2.62-.11,3.71-.57,1.37-.58,1.88-1.77,2.3-3.11.72-2.32,2.33-3.85,4.66-4.55,1.16-.35,2.39-.49,3.52-.96,1.67-.71,3.37-1.66,4.86-2.68.52-.36,1.59-1.45,2.63-2.13-.1-.05-.24-.13-.44-.26.2.13.34.21.44.26.76-.49,1.5-.77,2.02-.37-.05-.62-.43-1.31-.61-1.91-.42-1.32-.62-2.6-.71-3.99-.1-1.53,0-2.99-.22-4.51-.18-1.29-.51-2.82.38-3.96.75-.95,2.29-1.03,2.95-2.05.62-.96.15-2.38-.08-3.37-.66-2.89-2.14-5.64-2.59-8.56-.26-1.71-.43-3.33-.14-5.05.18-1.04.42-1.98.72-2.99.3-1.05.24-1.4.05-2.43-.17-.96.02-1.92-.14-2.87-.04-.24-.13-.73-.23-.94-.02-.16-.09-.29-.2-.4-.04.08-.08.15-.12.23-.06.28-.15.56-.28.82-.18.26-.4.48-.65.67-.15.23-.18.54-.32.73-.47.65-.47.33-1.05.2-.7-.15-1.19-.16-1.66-.78-.32-.42-.62-1.1-.87-1.56-.37-.71-.66-1.21-1.41-1.66-.64-.39-1.2-.82-1.83-1.22-1-.64-2.37-1.87-3.05-2.87-.35-.51-.61-1.17-.91-1.71-.44-.79-.87-1.31-1.53-1.95-1.43-1.39-1.07-3.28-1.06-5.12,0-.93.24-2.04-.34-2.84-.52-.7-1.87-1.06-2.7-1.06-.67,0-1.3.32-1.98.35-.47.02-.95-.01-1.42-.01-1.53,0-2.78-.02-4.21-.59-1.14-.45-2.26-.97-3.05-1.92-.47-.57-1.12-1.21-1.23-1.93-.19-1.26.61-2.36,1.09-3.46.45-1.02.71-2.11,1.12-3.14.5-1.27,1.3-2.69,2.14-3.76.51-.65,1.73-1.52,2.02-2.32.31-.87-.62-2.19-1.23-2.68-1.1-.9-2.09-1.52-2.93-2.71-.75-1.07-1.15-2.31-1.98-3.32-.51-.62-1.09-1.11-1.74-1.58-2.08-1.48-4.6-.93-6.89-1.83-1.35-.53-2.68-.15-4.09.08-.65.11-1.25.26-1.92.25-.73,0-1.09-.25-1.74-.35-1.07-.17-2.34.17-3.26.69-1.26.72-2.05,1.84-2.88,2.98-1,1.37-2.13,2.64-3.11,4.03-.54.77-1.35,1.53-2,2.22-.28.3-.68.53-.94.83-.23.26-.33.6-.57.85-.79.81-2.29,1.12-3.36.84-1.21-.32-2.14-1.43-2.82-2.38-.49-.68-1.03-1.15-1.45-1.89-.4-.71-.71-1.38-1-2.15-.39-1.03-.58-1.94-1.13-2.84-.65-1.06-1.9-2.54-3.36-2.27-1.15.21-2.28.98-3.34,1.45-.81.36-1.53.8-2.38,1.08-.36.12-1.25.58-1.61.56-.23-.01-.95-.43-1.2-.55-.58-.27-1.01-.68-1.41-1.15-1.71-2.07-1.33-4.63-1.33-7.16,0-1.15-.09-2.26.23-3.34.32-1.08.7-2.02,1.22-3.05,1.09-2.18,2.34-4.32,3.35-6.47.73-1.54,1.84-2.92,2.51-4.48.47-1.1.83-2.24,1.23-3.37.25-.7.22-.94.55-1.4-.19-.09-.35-.01-.77.1-.61.16-1.2.36-1.78.55-1.28.42-2.68.45-3.97.82-.95.27-1.92.53-2.87.83-.75.24-1.43.67-2.19.87-.86.22-1.81.37-2.68.54-.56.11-.93-.08-1.5-.18-.96-.17-2.11-.21-3.07-.56,0,.14-.02.27-.06.42-.04.17-.22.23-.25.43-.15.9-.1,2.22,0,3.12.17,1.52.63,2.86.62,4.43,0,.72-.07,1.49.03,2.2.06.44.25.85.3,1.29.03.35-.08.73-.03,1.08.17,1.38.5,2.74.33,4.18-.06.52-.28.96-.61,1.37-.52.64-.74,1.09-1,1.9-.23.72-.33,1.58-1.14,1.78-.37.09-.98-.03-1.37-.03-.41,0-.97-.1-1.37-.02-.76.15-1.09,1.01-1.84,1.28-.69.24-.82-.06-1.35-.49-.48-.39-1-.56-1.51-.91-.18-.13-.37-.26-.56-.39-.07.29-.14.57-.22.83-.13.42-.45.92-.55,1.29-.14.54-.07,1.12-.07,1.69,0,1.88.13,3.68-.39,5.49-.54,1.88-1.09,3.84-1.44,5.78-.16.9-.43,1.71-.69,2.58-.28.95-.23,1.84-.22,2.83.02,2.21-.57,4.7-1.23,6.81-.44,1.41-1.21,2.77-2.13,3.94-.71.9-1.58,1.66-2.29,2.57-.76.97-1.35,1.96-2.04,2.97-.39.57-.92,1.74-1.78,1.55-.34-.08-.49-.28-.87-.33-.46-.06-.92-.05-1.37-.03.13.39.12.78.12,1.41,0,.4.02.81,0,1.22-.02.47-.2.78-.28,1.22-.08.4.03.81-.01,1.22-.05.44-.28.78-.33,1.22-.09.78.01,1.65.01,2.44,0,1.84,0,3.67,0,5.51,0,1.7-.78,3.35.08,5,.47.9.76,1.73,1.31,2.59.54.84.74,2.33.76,3.33.04,1.74-.25,3.45.47,5.07.49,1.1,1.25,2.19,1.58,3.34.26.89.5,1.84.69,2.74.2.93.29,1.92.29,2.9,0,.85.12,1.55-.3,2.27-.51.89-1.14,1.07-2.02,1.52-.78.39-1.5.95-2.23,1.41-1.08.67-1.91,1.61-2.75,2.54-.63.69-.93,1.6-1.52,2.31-.32.38-.72.53-1.08.89-.28.28-.45.59-.73.84-.33.3-.74.45-1.08.71-.41.32-.73.75-1.12,1.11-1.56,1.45-3.68,2.5-5.81,2.67-1.85.15-3.52,1.08-4.95,2.28-1.31,1.1-1.67,1.93-1.67,3.65,0,.06,0,.12,0,.19.13-.03.29.01.61.58.69,1.24,2.25,1.85,2.44,3.34.1.78,0,1.65,0,2.44,0,.4.03.82,0,1.22-.03.5-.27.88-.32,1.37-.09.75,0,1.62.16,2.28.13.54.39,1.37,1.05,1.62.71.26,1.78-.42,2.45-.63.93-.29,1.61-.57,2.42-1.07.82-.51,1.53-1.21,2.37-1.68.43-.25.83-.41,1.23-.68.35-.24.78-.56,1.29-.62.98-.12,1.98,1.01,2.67,1.55,1.02.79,1.9,1.83,2.81,2.74.99,1,2.06,1.92,3.05,2.91.39.38.61.36,1.05.61.58.32,1.03.8,1.7.99,1.15.32,1.74-.81,2.51-1.46.96-.81,1.99-2.33,1.69-3.67-.46-2.07-2.57-3.6-3.38-5.53-.19-.46-.14-.94-.28-1.39-.07-.23-.52-.61-.19-.94.19-.19,1.15-.05,1.39-.04.64,0,1.29.03,1.94.01.73-.02,1.37-.3,2.1-.33.76-.03,1.4.05,2.13.17,2.21.36,2.16-1.45,2.47-3.16.23-1.31,1.11-2.22,1.61-3.44.21-.51.44-1.09.5-1.64.06-.51-.12-.87.2-1.33.91-1.31,3.12-1.93,4.47-2.61.61-.3.8-.32,1.39-.46,1.3-.29,2.54-1.32,3.61,0,.73.89,1.29,1.8,2.44,2.23.33.12.92.09,1.01.48.05.19-.29.58-.33.66-.32.63-.55,1.28-.8,1.94-.26.69-.44,1.18-.44,1.89,0,.56-.24,1.88.05,2.42.29.53,1.33.55,1.84.64,1.14.21,2.18.66,3.29,1,1.1.33,2.15.77,3.23,1.15.66.23,1.35.56,1.58,1.29.37,1.12-.5,2.22-.2,3.4.12.46.39.92.55,1.37.32.85.46,1.92,1.23,2.51.52.4,1.59.64,2.11.85.97.39,1.87.84,2.73,1.44.88.61,1.72,1.23,2.54,1.93.69.59,1.75,1.79,2.71,1.6.55-.11,1.13-.64,1.59-.87.93-.46,1.84-.42,2.83-.18,2.09.5,3.82,1.48,5.74,2.4,1.02.49,1.42,1.04,2.25,1.75,1.14.97,2.21,1.97,3.39,2.89,1.4,1.1,1.84,2.53,2.45,4.16.46,1.24.92,2.5.92,3.84,0,.16,0,.33-.02.5.15-.11.33-.25.55-.43-.23.19-.41.32-.55.43-.09,1.52-.54,3.13-.92,4.56-.13.49-1.14,2.8-.72,3.21Z"/>
    <path class="cls-1" d="m170.5,153.55c.98.37,2.21.41,3.07,1.05.37.28.77.79,1.11,1.14.95.98,1.33,2.3,1.37,3.64.03,1.11-.11,2.37-.59,3.39-.53,1.1-1.43,2-1.99,3.08-.67,1.3-1.28,2.63-1.99,3.92-.52.95-.71,1.46-.58,2.57.1.77.35,1.48.27,2.27-.07.64-.29,1.27-.48,1.88-.34,1.08-.73,2.01-1.31,2.98-.86,1.45-1.71,2.55-2.18,4.22-.36,1.27-.4,2.73-.26,4.05.15,1.38.41,2.68.25,4.09-.15,1.35-.3,2.17.03,3.49.23.93.42,1.88.61,2.82.27,1.36.9,2.43,1.5,3.69.65,1.36,1.09,2.67,1.22,4.19.09.98-.13,2.06.09,3.02.43,1.84.33,3.85-.95,5.4-.47.57-1.12,1.02-1.62,1.57-.71.78-1.26,1.54-1.84,2.41-.69,1.04-1.7,1.64-2.23,2.77-.54,1.15-1.14,2.26-1.8,3.35-.71,1.18-1.67,1.23-2.89,1.61-.64.2-1.16.48-1.84.55-.3.03-.58.08-.86.15.15.56.31,1.32.56,1.67.56.78,1.5,1.59,1.76,2.5.08.3-.02.57.05.86.06.28.27.3.34.58.11.44-.02,1.09-.02,1.54,0,.59.05,1.19-.07,1.76-.01.07-.22.23-.25.36-.08.35.01.87.02,1.23,0,.81-.32,2.58.06,3.29.44.84,1.93,1.36,2.69,1.81.88.53,1.59,1.18,2.43,1.84.99.76,1.47,1.98,2.44,2.75.73.58,1.72.45,2.51.89,1.23.69.9,1.99,1.2,3.14.2.76.19,1.39.23,2.21.01.35.11,1.17.36,1.46.8.88,2.81-.02,3.91.5,1.23.6,2.13,2.35,2.38,3.67.09.48.04.89.05,1.37.01.52.16.88.24,1.38.15.89.19,1.67.46,2.56.28.95.14,1.89.37,2.84.18.75.2,1.46.38,2.21.16.67.29.89.86,1.28.69.47,1.21.87,1.71,1.52.58.74,1.22.76,1.97,1.19.65.38,1.16.89,1.87,1.2.5.22.89.34,1.35.65.68.45,1.24.98,2.06,1.16.71.16,1.21-.1,1.44.74.44,1.61-.57,3.46-.55,5.12,0,.67-.14,1.48.07,2.12.11.35.39.64.55.96.34.7.51,1.51.73,2.25.19.66.25,1.43.83,1.88.58.45,1.45.66,2.08,1.06.51.32.82.74,1.29,1.1.49.38,1.16.52,1.71.81.96.52,1.95,1.21,2.21,2.31.34,1.47-1.78,3.34-.04,4.51.63.42,1.76.54,2.5.72,1.02.25,2.08.45,3.07.76,1.59.5,3.19.89,3.98,2.51.11.23.16.45.17.65.09-.02.2-.06.35-.1,1.71-.5,2.75-2.25,3.66-3.61.66-.98,1.33-1.89,2.14-2.75.24-.26.53-.69.86-.85.51-.25,1.37.02,1.93-.08,1.71-.29,2.85-1.78,4.08-2.85.61-.53,1.13-.69,1.74-1.12.93-.66,2.11-2.27,2.63-3.3.29-.57.34-.87.32-1.54-.02-.75-.35-1.65-.31-2.35.04-.61.59-1.56.86-2.12.57-1.19,1.48-2.02,2.13-3.14.72-1.24,1.33-2.57,1.87-3.89.22-.53.63-1.09.91-1.67-.15-.08-.29-.14-.44-.18.15.04.29.11.44.18.14-.3.25-.6.27-.91.06-.93-.25-2.26-.56-3.16-.36-1.05-.54-1.19-1.46-1.64-.81-.4-1.23-.86-1.87-1.45-.91-.83-2.1-1.38-3.06-2.2-.78-.67-1.5-1.35-2.15-2.15-.64-.78-.91-1.7-1.49-2.51-.47-.65-1.13-1.11-1.25-1.91-.24-1.68-.28-3.3-.29-5.02,0-.78-.04-1.45.37-2.13.38-.63.83-1.08,1.07-1.81.66-1.99,1.18-3.98,1.31-6.1.05-.86-.04-1.74-.03-2.6.02-1.15.44-2.1.71-3.19.59-2.41,1.54-4.74,2.96-6.79.52-.74.65-.87,1.52-.82.78.05.97.44,1.58.92.81.63,1.67,1.12,2.66,1.39.89.24,1.24-.05,1.96-.62,1.27-.99,2.53-1.57,4.15-1.31,1.07.17,1.98.17,2.81.91.71.64,1.53.88,2.29,1.44.86.63,1.71,1.33,2.46,2.08.24.25.65.82.98,1.1,0-.4.06-.79-.1-1.29.16.5.11.89.1,1.29.09.07.17.13.24.16.09-.7.37-1.09.36-1.8,0-.71.01-1.42,0-2.12-.02-1.36.48-2.68.91-3.97.49-1.47.96-3.01,1.53-4.45.37-.93.83-1.75,1.29-2.61.52-.98.93-2.06,1.53-3,1.19-1.84,3.29-2.74,4.42-4.56.94-1.51-.43-2.64-1.07-3.96-.38-.77-.95-1.4-1.3-2.18-.45-1.01-.7-1.9-1.51-2.7-.65-.64-1.33-1.19-2.14-1.59-.65-.32-1.28-.61-1.84-1.07-.13-.11-.25-.22-.38-.33-.09.2-.16.38-.2.51.04-.14.11-.32.2-.51-.63-.56-1.18-1.15-1.66-1.87-.96-1.41-2.06-2.41-3.51-3.36-1.32-.86-2.82-.92-4.18-1.57-.47-.23-.79-.78-1.22-1.1-.27-.2-.62-.44-.91-.61-.46-.28-1.06-.39-1.23-.97-.15-.5.02-1.31.01-1.84,0-.27-.08-.67-.02-.93.03-.13.24-.29.25-.36.25-1.2.07-2.64.07-3.89v-3.35c0-.64.16-1.53.02-2.15-.07-.28-.27-.3-.34-.58-.06-.26.01-.66.02-.93,0-1.17,0-2.33,0-3.5,0-1.29.32-2.5.83-3.57.26-.54.61-1.15.71-1.76.05-.3-.03-.54.05-.85.04-.15.21-.3.25-.52.09-.49-.27-1.2-.39-1.68-.13-.54-.28-1.29-.42-1.88-.13.08-.32.08-.7,0-.81-.18-1.56-.79-2.48-.58-1.07.25-2.02,1.54-2.95,2.11-1.4.86-3.35.92-4.93,1.36-.92.25-1.41-.12-2.18-.71-1.64-1.24-3.17-2.57-4.92-3.66-1.9-1.18-3.93-1.83-6.1-1.82-.46,0-2.3-.31-2.62.04-.19.22-.1,1.14-.26,1.48-.4.82-1.02,1.13-1.78,1.53-.67.34-.55.25-1.22.03-.74-.24-1.4-.35-2.18-.34-.6,0-1.71.23-2.24.02-.31-.12-.3-.37-.55-.55-.46-.33-1.15-.62-1.64-.92-.53-.32-1.23-.56-1.7-.97-.3-.27-.41-.57-.67-.87-.48-.56-.91-1.01-1.35-1.61-.51-.68-.95-1.64-1.68-2.13-1.12-.75-2.71-.49-3.99-.9-1.04-.34-2.15-.78-3.17-1.36-.38-.22-.91-.66-1.38-.64-.36.02-.59.32-.91.43-.7.23-.8-.04-1.2-.54-.62-.77-1.49-1.31-2.18-2-.39-.39-.49-.55-.96-.83-.29-.17-.59-.27-.88-.46-.51-.34-.93-.81-1.49-1.07-.6-.28-1.25-.33-1.84-.51-.86-.26-1.75-.63-2.72-.62-.55,0-1.28.11-1.83.01-.56-.1-.93-.32-1.52-.32-.27,0-.67-.08-.93-.02-.28.07-.3.27-.58.34-.49.12-.85.01-1.31.21-.79.35-1.43.73-2.06,1.36-.13.14-.28.28-.42.43.85.28,1.67.61,2.4,1.18.89.7,1.39,1.49,2.52,1.92Z"/>
    <path class="cls-1" d="m302.58,358.39c1.43-1.2,3.1-2.13,4.95-2.28,2.13-.17,4.24-1.22,5.81-2.67.38-.36.7-.78,1.12-1.11.34-.26.76-.42,1.08-.71.28-.26.46-.57.73-.84.36-.36.76-.51,1.08-.89.59-.71.9-1.62,1.52-2.31.84-.94,1.68-1.87,2.75-2.54.74-.46,1.46-1.02,2.23-1.41.89-.44,1.52-.63,2.02-1.52.41-.72.29-1.42.3-2.27,0-.97-.09-1.97-.29-2.9-.19-.9-.44-1.85-.69-2.74-.33-1.15-1.09-2.24-1.58-3.34-.72-1.62-.43-3.33-.47-5.07-.02-1-.22-2.49-.76-3.33-.55-.86-.84-1.69-1.31-2.59-.85-1.64-.07-3.3-.08-5,0-1.84,0-3.67,0-5.51,0-.79-.1-1.65-.01-2.44.05-.44.28-.78.33-1.22.05-.41-.06-.81.01-1.22.09-.44.26-.75.28-1.22.02-.4,0-.81,0-1.22,0-.63,0-1.02-.12-1.41-1.07.04-2.09.15-3.1-.4-.79-.44-1.65-.91-2.52-1.2-.61-.21-1.77-.57-2.42-.51-.52.05-1.14.29-1.67.39-1.16.22-2.25.7-3.33,1.16-4.12,1.79-8.28,2.43-12.75,2.44-1.02,0-2.01-.07-3.01.14-1.01.21-1.84.82-2.83,1.03-1.58.35-2.77-.6-4.16-1.09-1.9-.67-2.77-2.26-4.11-3.6-.75-.75-1.62-1.49-2.67-1.68-1.18-.2-2.7.05-3.83.31-1.75.42-2.51,2.22-3.6,3.53-1,1.21-2.46,2.16-3.74,2.99-.83.54-1.75.53-2.7.87-.48.17-.57.32-1.06.02-.33-.21-.54-.53-.82-.78-.92-.78-1.21-.92-1.23-2.21-.01-.74-.29-1.4-.32-2.13-.02-.75-.09-1.27-.26-1.99-.21-.9-.46-1.96-.94-2.73-.44-.72-1.14-1.48-1.84-1.9-.88-.54-1.64-1.3-2.56-1.87-1.75-1.08-3.79-1.42-5.36-2.91-.85-.8-1.43-1.63-2.44-2.22-.65-.38-1.24-.79-1.81-1.28-1.49-1.31-2.71-2.9-4.21-4.2-.51-.44-1.04-.69-1.51-1.21-.58-.63-1.1-1.36-1.82-1.83-.7-.46-1.7-.65-2.52-.84-.77-.18-1.5-.46-2.2-.82-.74-.38-1.56-1.27-2.38-1.69-.27.58-.69,1.14-.91,1.67-.55,1.32-1.15,2.65-1.87,3.89-.65,1.12-1.56,1.96-2.13,3.14-.27.56-.82,1.5-.86,2.12-.05.7.28,1.59.31,2.35.02.66-.03.96-.32,1.54-.52,1.02-1.7,2.63-2.63,3.3-.61.43-1.13.59-1.74,1.12-1.22,1.07-2.37,2.57-4.08,2.85-.56.09-1.41-.18-1.93.08-.33.16-.62.59-.86.85-.81.85-1.48,1.77-2.14,2.75-.91,1.36-1.95,3.1-3.66,3.61-.15.04-.26.08-.35.1.03.6-.28,1.14-.42,1.82-.24,1.12.07,2.29-.19,3.38-.34,1.49-2.23,2.14-.9,3.59.66.73,1.84,1.08,2.77,1.32,1.25.31,2.61.52,3.88.75,1.65.31,4.71-.8,4.3,2.06-.16,1.11-.81,2.2-1.57,2.99-.24.25-.52.49-.78.73.57.65,1.04,1.48,1.47,2.21.48.83.37,2.06.31,3.05-.03.58-.24,1.2-.38,1.76-.06.24-.21.34-.25.67.01.21.02.42.02.63-.02.17-.1.29-.26.36-.05.5.14,1.21.23,1.76.1.64.46,1.46.7,2.06.54,1.34,1.02,2.38,2.07,3.35,1.12,1.03,1.59,1.98,2.11,3.43.26.71.3,1.4.53,2.1.33,1.03.57,2.05.93,3.09.39,1.12.72,2.22,1.04,3.33.11.39.48,1.34.76,1.61.58.55,1.28.06,1.9-.1,1.69-.42,3.25-.6,4.84-1.52.78-.45,1.69-.72,2.43-1.19.71-.45,1.29-1.27,1.89-1.85.63-.6.96-.69,1.8-.54,1.65.3,3.2.25,4.88-.15,1.02-.24,1.14-.22,2.03.17.58.25,1.35.31,1.97.24.7-.07,1.32-.48,2.05-.35.64.11,1.25.51,1.88.71.65.21,1.11.24,1.82.23.49,0,1.05-.09,1.53.04.6.17,1,.65,1.57.88.7.29,1.57.42,2.31.52.86.12,1.92.4,2.78.4.97,0,1.31-.53,1.93-1.17.5-.52,1.38-.67,1.7-1.36.27-.57.46-1.83.39-2.45-.03-.32-.2-.58-.27-.89-.18-.88.16-1.75.24-2.63.1-1.03.21-1.27,1.2-1.27.97,0,1.81.34,2.69.69.75.3,1.21.84,1.9,1.22.78.43,1.36.46,1.89,1.18.74,1,1.17,2.44,1.47,3.65.33,1.35.67,2.72.99,4.08.3,1.28.53,2.42.52,3.74,0,.51,0,1.03.02,1.55.04,0,.11.02.29.03.5.06,1.04.18,1.52.3.53.13,1.13.46,1.59.55.59.12.92.09,1.45.37.7.36,1.57.6,2.06,1.29.56.78.94,2.36.99,3.28.03.5,0,1.02,0,1.52-.01.81-.15,1-.61,1.59-.67.86-1.49,1.52-2.23,2.26.82.32,1.97.96,2.53,1.02.79.08,1.44.45,2.28.28.64-.13,1.22-.47,1.82-.59.36-.07.7.04,1.08-.06.47-.12.7-.24,1.22-.24.3,0,.63-.04.92,0,.56.07.4.07.79.43.71.65,1.36.52,2.32.5,1.12-.02,2.13-.5,3.21-.63.75-.09,1.27.38,1.89.27.72-.13,1.7-.89,2.08-1.47.44-.67.38-1.35.37-2.1-.17.03-.31.18-.69-.57.38.74.51.6.69.57,0-.06,0-.12,0-.19,0-1.72.36-2.55,1.67-3.65Z"/>
    <path class="cls-1" d="m250.96,203.17c.81.4,1.49.95,2.14,1.59.82.8,1.06,1.69,1.51,2.7.35.78.92,1.4,1.3,2.18.64,1.32,2.01,2.45,1.07,3.96-1.13,1.82-3.23,2.72-4.42,4.56-.61.94-1.01,2.02-1.53,3-.46.86-.92,1.68-1.29,2.61-.57,1.43-1.04,2.98-1.53,4.45-.43,1.28-.92,2.61-.91,3.97,0,.71-.01,1.42,0,2.12.01.71-.28,1.11-.36,1.8-.07-.02-.15-.08-.24-.16,0,.34.02.68.22,1.09.37.74.72,1.37,1.6,1.54.87.17,1.68-.33,2.36.37,1.02,1.05,1.48,2.8,2.17,4.07.34.63.71,1.21,1.56,1.04.45-.09.74-.31,1.22-.33.57-.02.64-.05,1.1-.29.7-.37,1.08-.89,1.64-1.41.83-.76,1.82-1.26,2.69-1.95.59-.47.95-1.14,1.66-1.43.48-.2.11-.48.67-.1.37.25.74.9,1.07,1.23.38.38.76.93,1.2,1.23.55.38,1.26.55,1.84.9.62.37,1.28.56,1.9.9.82.45,1.6,1.05,2.38,1.56,1.2.78,2.41,1.87,3.27,3.04.79,1.06,1.31,2.35,2.18,3.35.72.83,1.62,1.88,2.74,2.13.99.22,2.82.67,3.82.28.4-.16.8-.77,1.16-1.05.5-.4,1.06-.7,1.43-1.21.38-.51.49-1.15.77-1.7.3-.57.82-.94,1.12-1.51.25-.47.47-.99.83-1.39.53-.58.35-.31,1.07-.16.48.1.98-.06,1.46.05.89.2,1.75.69,2.71.83.77.12,2.58-.17,3.26.44.28.26.24.5.39.82.85,1.81,2.63,1.72,4.13,2.73.96.65,1.68,1.59,2.75,2.12.97.48,2.07.44,3.1.69,1.28.31,2.47,1.15,3.6,1.79,1.1.62,2.36,1.14,3.4,1.86.94.66,1.72,1.58,2.76,2.11.93.48,1.72.81,2.57,1.43.86.62,1.96.89,2.93,1.31.87.38,1.73.21,2.58-.21.74-.36,1.37-.95,2.1-1.36.97-.54,1.86-.6,2.9-.9.68-.2,1.24-.39,1.97-.32,1.04.1,1.3.57,1.85,1.39.47.7,1.19,1.25,1.91,1.75.04-.17.08-.34.11-.5-.04.17-.08.33-.11.5.19.13.38.26.56.39.51.35,1.03.52,1.51.91.53.43.66.74,1.35.49.75-.26,1.08-1.12,1.84-1.28.4-.08.96.02,1.37.02.39,0,1,.12,1.37.03.81-.2.91-1.06,1.14-1.78.26-.81.48-1.26,1-1.9.33-.41.55-.85.61-1.37.17-1.44-.16-2.79-.33-4.18-.04-.35.07-.73.03-1.08-.04-.44-.23-.85-.3-1.29-.1-.71-.03-1.48-.03-2.2,0-1.57-.45-2.92-.62-4.43-.1-.9-.15-2.22,0-3.12.03-.2.21-.26.25-.43.04-.15.05-.29.06-.42-.24-.09-.47-.19-.69-.32-.91-.58-1.4-1.66-1.86-2.58-.41-.83-1.06-1.69-1.11-2.63-.03-.64-.07-1.4.02-2.03.35-2.38,2.55-4.04,4.17-5.59,1.09-1.04,2.08-2.2,3.05-3.37.44-.53.63-.55,1.14-.88.55-.36.59-.63.83-1.22.95-2.28,1.25-4.35-.07-6.56-.56-.94-1-2.13-1.81-2.91-.76-.73-1.85-.87-2.61-1.68-.77-.83-1.32-1.57-2.45-1.93-1.38-.44-2.91-.42-4.29-.95-.94-.36-1.9-.6-2.9-.81-.9-.19-1.62-.38-2.4-.87-.66-.42-1.23-.99-1.91-1.37-.77-.43-1.58-.6-2.42-.82-.91-.23-1.78-.24-2.67-.41-1.2-.22-2.23-.65-3.35-1.12-.83-.34-1.61-1.04-2.46-1.27-1.11-.3-2.42-.18-3.47-.67-.27-.13-.45-.41-.76-.51-.4-.14-.87-.06-1.29-.06-2.94.03-5.79-.32-8.72-.31-.83,0-1.75-.03-2.52-.3-.56-.19-1.05-.68-1.65-.89-.94-.33-1.95-.41-2.85-.87-.6-.31-1.05-.63-1.73-.84-.65-.2-1.17-.54-1.8-.8-.4-.16-.94-.41-1.32-.64-.7-.42-1.29-.69-2.05-.99-.54-.21-1.13-.67-1.66-.79-.2-.04-.44.08-.64.03-.16-.04-.25-.22-.36-.25-.29-.08-.54-.07-.85-.07-.69,0-1.33.04-1.98-.15-.73-.22-1.14-.44-1.91-.53-.13-.02-.06-.19-.25-.18-.18.01-.26.15-.42.18-.37.05-.7.08-1.07.07-.67,0-1.24.04-1.79-.34-.3-.2-2.25-1.23-3.22-1.79-.89,1.07-1.55,2.2-3.06,2.45-.41.07-.62.03-.98.21-.49.24-.95.55-1.45.77-1.09.49-2.11.1-3.21-.06-.82-.12-1.74-.03-2.58-.03-1.07,0-1.75-.22-2.74-.53-.83-.26-1.6-.69-2.44-.68-1.01.01-1.84.03-2.73.3-.93.28-1.71.94-2.51,1.45-1.6,1.03-2.99,2.25-4.96,2.21-1.49-.03-3.01.82-3.81,2.13-.32.52-.96,1.68-1.31,2.48.12.11.25.22.38.33.56.46,1.19.76,1.84,1.07Z"/>
    <path class="cls-1" d="m334.85,260.95c-.55-.81-.8-1.28-1.85-1.39-.73-.07-1.29.12-1.97.32-1.04.31-1.93.36-2.9.9-.72.4-1.36.99-2.1,1.36-.84.41-1.71.59-2.58.21-.97-.43-2.07-.69-2.93-1.31-.85-.62-1.64-.95-2.57-1.43-1.03-.53-1.81-1.45-2.76-2.11-1.04-.72-2.29-1.24-3.4-1.86-1.13-.64-2.32-1.48-3.6-1.79-1.03-.25-2.13-.2-3.1-.69-1.07-.53-1.78-1.47-2.75-2.12-1.5-1.02-3.28-.93-4.13-2.73-.15-.32-.11-.57-.39-.82-.68-.62-2.49-.33-3.26-.44-.97-.14-1.83-.62-2.71-.83-.48-.11-.98.05-1.46-.05-.72-.15-.54-.42-1.07.16-.36.39-.58.92-.83,1.39-.31.57-.83.94-1.12,1.51-.29.55-.39,1.18-.77,1.7-.38.51-.93.81-1.43,1.21-.36.28-.75.9-1.16,1.05-1.01.39-2.84-.06-3.82-.28-1.12-.25-2.02-1.3-2.74-2.13-.87-1-1.39-2.29-2.18-3.35-.87-1.16-2.07-2.25-3.27-3.04-.78-.51-1.56-1.11-2.38-1.56-.63-.34-1.28-.53-1.9-.9-.59-.35-1.29-.51-1.84-.9-.44-.31-.82-.85-1.2-1.23-.33-.33-.7-.99-1.07-1.23-.57-.37-.19-.09-.67.1-.71.29-1.07.96-1.66,1.43-.87.69-1.86,1.19-2.69,1.95-.56.52-.94,1.04-1.64,1.41-.46.24-.53.27-1.1.29-.47.02-.76.24-1.22.33-.85.16-1.22-.42-1.56-1.04-.69-1.28-1.15-3.02-2.17-4.07-.68-.7-1.49-.2-2.36-.37-.88-.17-1.23-.8-1.6-1.54-.21-.41-.23-.75-.22-1.09-.33-.28-.73-.85-.98-1.1-.75-.76-1.6-1.45-2.46-2.08-.76-.56-1.57-.8-2.29-1.44-.83-.75-1.74-.74-2.81-.91-1.62-.26-2.89.31-4.15,1.31-.72.57-1.07.86-1.96.62-.98-.27-1.85-.76-2.66-1.39-.62-.48-.81-.87-1.58-.92-.87-.05-1.01.08-1.52.82-1.42,2.05-2.37,4.38-2.96,6.79-.27,1.1-.69,2.04-.71,3.19-.01.86.08,1.74.03,2.6-.13,2.12-.65,4.11-1.31,6.1-.24.73-.69,1.18-1.07,1.81-.41.68-.38,1.35-.37,2.13,0,1.72.06,3.34.29,5.02.11.8.77,1.26,1.25,1.91.59.81.85,1.73,1.49,2.51.65.8,1.37,1.48,2.15,2.15.95.81,2.15,1.37,3.06,2.2.64.58,1.06,1.05,1.87,1.45.92.45,1.11.58,1.46,1.64.3.9.62,2.22.56,3.16-.02.31-.13.61-.27.91.82.42,1.64,1.31,2.38,1.69.7.36,1.43.64,2.2.82.82.19,1.82.38,2.52.84.72.48,1.24,1.2,1.82,1.83.47.52.99.77,1.51,1.21,1.5,1.29,2.72,2.89,4.21,4.2.57.5,1.16.9,1.81,1.28,1.02.59,1.6,1.42,2.44,2.22,1.57,1.49,3.61,1.83,5.36,2.91.93.57,1.68,1.32,2.56,1.87.69.43,1.39,1.18,1.84,1.9.48.78.74,1.84.94,2.73.17.72.23,1.25.26,1.99.02.74.31,1.4.32,2.13.02,1.28.31,1.42,1.23,2.21.29.25.49.57.82.78.49.31.57.16,1.06-.02.95-.34,1.86-.33,2.7-.87,1.28-.83,2.74-1.79,3.74-2.99,1.09-1.31,1.85-3.11,3.6-3.53,1.13-.27,2.65-.52,3.83-.31,1.05.18,1.92.93,2.67,1.68,1.35,1.34,2.21,2.93,4.11,3.6,1.4.49,2.58,1.44,4.16,1.09.99-.22,1.82-.82,2.83-1.03,1-.21,1.99-.14,3.01-.14,4.47,0,8.63-.65,12.75-2.44,1.08-.47,2.16-.95,3.33-1.16.53-.1,1.15-.34,1.67-.39.66-.06,1.82.31,2.42.51.87.29,1.72.76,2.52,1.2,1.01.56,2.04.45,3.1.4-.09-.26-.23-.53-.48-.87.25.34.4.61.48.87.45-.02.91-.03,1.37.03.38.05.53.26.87.33.86.19,1.39-.98,1.78-1.55.69-1.01,1.28-2,2.04-2.97.71-.91,1.58-1.67,2.29-2.57.92-1.17,1.69-2.52,2.13-3.94.66-2.1,1.25-4.6,1.23-6.81,0-1-.07-1.88.22-2.83.26-.87.53-1.68.69-2.58.35-1.94.89-3.9,1.44-5.78.52-1.81.39-3.61.39-5.49,0-.56-.07-1.15.07-1.69.1-.38.42-.87.55-1.29.08-.26.15-.55.22-.83-.72-.5-1.44-1.04-1.91-1.75Z"/>
  </g>
  <g>
    <path class="cls-2" d="m81.79,151.08s-.03.08-.06.12c-.03.03-.07.06-.13.08s-.15.04-.25.05-.24.02-.39.02c-.17,0-.3,0-.4-.02s-.18-.03-.23-.05-.09-.05-.1-.08c-.01-.03-.02-.07,0-.12l1.33-6.68h-.01l-3.73,6.68c-.05.11-.15.18-.3.21-.15.04-.35.05-.62.05s-.47-.02-.59-.07c-.12-.05-.18-.11-.19-.18l-.96-6.7h-.01l-1.34,6.69s-.03.08-.05.12c-.03.03-.07.06-.13.08s-.14.04-.25.05-.24.02-.4.02-.29,0-.39-.02-.18-.03-.24-.05c-.05-.02-.09-.05-.11-.08-.02-.03-.02-.07,0-.12l1.46-7.32c.02-.11.05-.2.1-.29.04-.08.1-.16.17-.21.07-.06.14-.1.23-.13.08-.03.18-.04.27-.04h1.04c.19,0,.35.02.48.05.13.03.24.09.32.16.08.08.15.17.19.3.04.12.08.27.09.44l.79,4.89h.03l2.82-4.89c.08-.17.17-.31.25-.43.08-.12.18-.22.28-.3s.22-.14.35-.17.28-.05.45-.05h1.18c.11,0,.2.01.27.04.08.03.14.07.18.13.04.06.07.13.08.21.01.08,0,.18,0,.28l-1.46,7.32Z"/>
    <path class="cls-2" d="m85.08,151.09s-.03.08-.06.11c-.03.03-.08.06-.15.08s-.15.04-.26.05-.24.02-.39.02-.28,0-.38-.02-.18-.03-.23-.05c-.06-.02-.09-.05-.11-.08-.02-.03-.02-.07-.01-.11l1.12-5.65s.03-.08.06-.11c.03-.03.08-.06.15-.08s.15-.04.25-.05c.1-.01.23-.02.39-.02s.28,0,.38.02c.1.01.18.03.23.05.06.02.09.05.11.08.02.03.02.07.01.11l-1.12,5.65Zm1.64-7.57c-.03.16-.07.29-.12.4-.05.11-.12.2-.2.26s-.19.11-.31.14c-.12.03-.27.04-.46.04s-.32-.01-.43-.04-.2-.07-.25-.14c-.06-.07-.09-.15-.1-.26,0-.11,0-.24.04-.4.03-.15.07-.28.12-.39.05-.11.12-.19.2-.26s.19-.12.31-.15c.12-.03.27-.04.46-.04s.32.01.43.04c.11.03.2.08.25.15.06.07.09.15.09.26,0,.11,0,.24-.04.39Z"/>
    <path class="cls-2" d="m92.77,146.69c0,.15,0,.3-.03.45-.02.15-.04.3-.07.46l-.71,3.5s-.03.08-.06.11-.08.06-.15.08-.15.04-.25.05-.23.02-.39.02-.28,0-.38-.02-.18-.03-.23-.05c-.05-.02-.09-.05-.11-.08-.02-.03-.02-.07-.02-.11l.69-3.4c.02-.1.04-.21.05-.31s.02-.2.02-.28c0-.19-.04-.35-.12-.47s-.22-.18-.41-.18c-.17,0-.35.05-.54.16-.19.11-.37.26-.53.45s-.32.41-.45.66-.22.52-.28.8l-.51,2.56s-.03.08-.06.11c-.03.03-.08.06-.15.08s-.15.04-.26.05-.24.02-.39.02-.28,0-.38-.02-.18-.03-.23-.05c-.06-.02-.09-.05-.11-.08-.02-.03-.02-.07-.01-.11l1.14-5.67s.03-.08.05-.11c.03-.03.07-.06.13-.08.06-.02.13-.03.22-.04s.2-.02.33-.02.24,0,.32.02c.08.01.15.03.19.04.05.02.08.04.09.08.01.03.02.07,0,.11l-.18.93c.09-.15.21-.3.36-.45s.32-.29.51-.42c.19-.12.4-.22.63-.3s.46-.12.71-.12c.3,0,.54.04.75.13s.36.2.49.35c.12.15.21.32.27.52.05.2.08.41.08.62Z"/>
    <path class="cls-2" d="m98.74,151.32c-.08.38-.19.72-.36,1.01-.16.29-.37.53-.63.72s-.58.34-.96.43c-.38.1-.81.15-1.31.15-.36,0-.68-.03-.97-.08-.29-.06-.52-.13-.71-.22-.07-.03-.11-.07-.14-.11-.03-.04-.04-.1-.04-.18,0-.03,0-.07,0-.13,0-.06.01-.12.03-.2s.03-.15.05-.23.05-.15.08-.21c.03-.06.07-.11.1-.15.04-.04.08-.06.13-.06s.11.02.19.05.17.08.29.12c.12.04.28.08.46.12s.41.05.67.05c.22,0,.41-.02.58-.05.17-.03.32-.09.45-.17s.23-.17.31-.29.13-.26.17-.44c.06-.28.11-.51.17-.69.05-.19.11-.34.15-.46-.08.14-.19.28-.33.42s-.3.26-.49.37c-.18.11-.38.2-.59.26-.21.07-.42.1-.63.1-.33,0-.6-.06-.82-.17-.22-.11-.4-.26-.54-.46-.14-.19-.24-.42-.3-.69-.06-.26-.09-.54-.09-.85,0-.28.03-.57.08-.89.05-.32.13-.63.24-.95.11-.31.24-.61.41-.9s.36-.54.59-.76c.23-.22.5-.4.79-.53.3-.13.63-.2,1.01-.2.35,0,.66.07.93.22.27.15.51.36.71.64l.1-.5c.02-.09.08-.15.2-.19.12-.04.3-.06.56-.06.13,0,.23,0,.32.02s.15.03.2.04c.05.02.08.04.1.08.02.03.02.07.01.11l-1.19,5.9Zm-.74-4.2c-.15-.23-.31-.41-.49-.52s-.39-.17-.62-.17c-.18,0-.34.04-.49.13-.15.08-.28.2-.39.34s-.22.31-.3.49c-.09.19-.16.38-.22.58-.06.2-.1.41-.13.61s-.04.4-.04.58c0,.14.01.28.04.39s.06.22.12.3c.05.08.12.15.2.19.08.04.18.07.3.07.19,0,.38-.06.57-.17.19-.11.38-.26.54-.46.17-.19.32-.42.45-.68.13-.26.22-.53.28-.82l.18-.86Z"/>
    <path class="cls-2" d="m100.38,149.84c0-.3.07-.58.21-.82s.35-.45.64-.63.66-.31,1.1-.4.98-.14,1.6-.14h.58c.02-.1.03-.19.04-.29,0-.09.01-.18.01-.26,0-.34-.09-.6-.27-.77-.18-.17-.46-.26-.86-.26-.28,0-.53.02-.75.06-.22.04-.42.08-.58.13s-.31.09-.42.13c-.11.04-.19.06-.24.06s-.09-.02-.11-.04-.03-.08-.03-.14c0-.07,0-.15.02-.25.01-.09.03-.19.05-.28s.05-.18.09-.26c.04-.08.08-.14.12-.18.05-.05.14-.1.28-.15s.3-.1.49-.14c.19-.04.4-.08.64-.1s.48-.04.72-.04c.41,0,.76.04,1.06.13.3.08.56.21.76.39s.36.39.46.66.15.59.15.96c0,.28-.03.59-.08.91-.05.32-.14.64-.26.96s-.27.62-.46.9-.41.54-.68.76-.57.39-.92.52c-.35.13-.74.2-1.19.2-.38,0-.72-.05-.99-.14s-.5-.21-.68-.36-.31-.32-.4-.51-.13-.39-.13-.59Zm1.57-.12c0,.17.07.31.2.42.13.11.33.17.58.17.21,0,.4-.04.57-.11s.31-.18.44-.31.24-.28.33-.46.16-.36.22-.56h-.53c-.34,0-.62.02-.85.07-.23.04-.41.1-.55.18-.14.08-.24.17-.3.27-.06.1-.1.21-.1.33Z"/>
    <path class="cls-2" d="m108.28,151.35c-.44-.11-.77-.34-1.01-.68s-.36-.81-.36-1.39c0-.26.02-.54.07-.85s.13-.62.24-.93c.11-.31.25-.61.43-.91.18-.29.39-.55.64-.77.25-.22.55-.4.88-.54s.72-.2,1.16-.2c.17,0,.33.01.5.04s.31.06.44.1c.14.04.25.1.36.16.1.06.18.11.23.16s.08.09.1.13c.01.04.02.08.02.14,0,.1-.01.21-.04.33-.02.12-.05.24-.09.35s-.09.2-.14.28c-.06.07-.12.11-.19.11-.06,0-.12-.03-.18-.08-.06-.05-.13-.11-.22-.17s-.2-.12-.33-.17c-.13-.05-.3-.08-.51-.08-.22,0-.42.05-.59.15-.17.1-.33.22-.45.38s-.24.33-.32.53c-.08.2-.15.4-.21.6-.06.2-.09.39-.12.58-.02.18-.03.34-.03.48,0,.34.07.6.22.78s.39.27.71.27c.24,0,.44-.03.61-.09s.31-.13.43-.2c.12-.07.22-.14.31-.2.09-.06.17-.09.24-.09.04,0,.07.02.09.06.02.04.03.09.03.17s0,.16-.03.27c-.02.11-.04.22-.07.33s-.06.21-.1.31c-.04.1-.08.17-.14.23-.06.05-.15.12-.28.2s-.29.14-.47.2c-.18.06-.37.1-.57.12l.08.32c.03.11.05.21.07.3.02.09.03.19.03.28,0,.23-.04.43-.11.59s-.18.3-.31.41c-.14.11-.3.19-.49.24s-.4.08-.63.08c-.12,0-.24,0-.36-.01-.12,0-.22-.02-.32-.04-.1-.02-.18-.04-.26-.06s-.14-.04-.19-.07c-.05-.03-.08-.05-.1-.08s-.03-.07-.03-.12c0-.04,0-.1.02-.18s.03-.15.05-.23.06-.14.1-.2c.04-.06.1-.08.17-.08h.72c.06,0,.12,0,.17-.02.05-.01.1-.04.14-.06s.07-.06.09-.11.04-.1.04-.16c0-.04,0-.09,0-.15,0-.05-.02-.11-.03-.17l-.13-.53Z"/>
    <path class="cls-2" d="m117.94,146.67c0,.3-.07.58-.21.82s-.35.45-.64.63-.66.31-1.1.4-.98.14-1.6.14h-.58c-.02.1-.03.19-.04.29,0,.09-.01.18-.01.26,0,.34.09.6.27.77.18.17.46.26.86.26.28,0,.53-.02.75-.06.22-.04.42-.08.58-.13s.31-.09.42-.13c.11-.04.19-.06.24-.06s.09.02.11.04.03.08.03.14c0,.07,0,.15-.02.25-.01.09-.03.19-.05.28s-.05.18-.09.26c-.04.08-.08.14-.12.18-.05.05-.14.1-.28.15s-.3.1-.49.14c-.19.04-.4.08-.64.1s-.48.04-.72.04c-.41,0-.76-.04-1.06-.13-.3-.08-.55-.21-.76-.39s-.36-.39-.46-.66-.15-.59-.15-.96c0-.28.03-.59.08-.91.05-.32.14-.64.26-.96s.27-.62.46-.9.41-.54.68-.76.57-.39.92-.52c.35-.13.74-.2,1.19-.2.38,0,.72.05.99.14s.5.21.68.36.31.32.4.51.13.39.13.59Zm-1.57.12c0-.17-.07-.31-.2-.42-.13-.11-.33-.17-.58-.17-.21,0-.4.04-.57.11s-.31.18-.44.31-.24.28-.33.46-.16.36-.22.56h.53c.34,0,.62-.02.85-.07.23-.04.41-.1.55-.18.14-.08.24-.17.3-.27.06-.1.09-.21.09-.33Z"/>
    <path class="cls-2" d="m124.39,145.38s0,.1-.02.17-.03.14-.06.22c-.16.46-.33.92-.52,1.37-.19.46-.4.91-.63,1.36-.23.45-.47.89-.74,1.32s-.55.85-.86,1.25c-.04.06-.09.11-.15.14s-.13.06-.22.08c-.08.02-.18.03-.3.03-.12,0-.25,0-.4,0-.23,0-.42,0-.55-.02-.13-.01-.24-.03-.31-.05s-.12-.06-.15-.11c-.03-.04-.04-.1-.04-.17l-.67-5.09c0-.07,0-.13-.01-.19,0-.06,0-.11,0-.17,0-.08,0-.15.03-.19.02-.04.06-.08.11-.11.06-.03.14-.05.25-.06.11-.01.25-.02.43-.02.17,0,.3,0,.4.01.1,0,.17.02.22.04.05.02.09.05.11.08.02.04.03.08.03.13l.48,4.16v.16l.03-.06c.22-.33.41-.65.59-.98s.34-.67.49-1.02c.15-.35.29-.71.42-1.08.13-.37.26-.77.39-1.18.01-.05.04-.1.07-.13.03-.03.09-.06.16-.08.07-.02.16-.04.27-.04.11,0,.24-.01.4-.01s.28,0,.38.01.18.02.23.04.09.04.11.06c.02.03.03.06.03.1Z"/>
    <path class="cls-2" d="m126.01,151.09s-.03.08-.06.11c-.03.03-.08.06-.15.08s-.15.04-.26.05-.24.02-.39.02-.28,0-.38-.02-.18-.03-.23-.05c-.06-.02-.09-.05-.11-.08-.02-.03-.02-.07-.01-.11l1.12-5.65s.03-.08.06-.11c.03-.03.08-.06.15-.08s.15-.04.25-.05c.1-.01.23-.02.39-.02s.28,0,.38.02c.1.01.18.03.23.05.06.02.09.05.11.08.02.03.02.07.01.11l-1.12,5.65Zm1.64-7.57c-.03.16-.07.29-.12.4-.05.11-.12.2-.2.26s-.19.11-.31.14c-.12.03-.27.04-.46.04s-.32-.01-.43-.04-.2-.07-.25-.14c-.06-.07-.09-.15-.1-.26,0-.11,0-.24.04-.4.03-.15.07-.28.12-.39.05-.11.12-.19.2-.26s.19-.12.31-.15c.12-.03.27-.04.46-.04s.32.01.43.04c.11.03.2.08.25.15.06.07.09.15.09.26,0,.11,0,.24-.04.39Z"/>
    <path class="cls-2" d="m132.31,145.34s0,.08-.01.16-.02.17-.04.27-.04.21-.06.31c-.03.11-.05.21-.09.3-.03.09-.07.17-.11.23s-.08.09-.13.09c-.04,0-.08,0-.12-.02-.04-.01-.08-.03-.13-.04-.05-.01-.1-.03-.15-.04-.05-.01-.12-.02-.19-.02-.14,0-.3.06-.46.17-.16.11-.32.25-.47.43-.15.18-.28.39-.4.63s-.2.49-.25.75l-.51,2.55s-.03.08-.06.11c-.03.03-.08.06-.15.08s-.15.04-.26.05-.24.02-.39.02-.28,0-.38-.02-.18-.03-.23-.05c-.06-.02-.09-.05-.11-.08-.02-.03-.02-.07-.01-.11l1.13-5.67s.03-.08.06-.11c.03-.03.07-.06.13-.08.06-.02.13-.03.22-.04s.2-.02.33-.02.24,0,.32.02c.08.01.15.03.19.04.05.02.08.04.09.08.01.03.02.07,0,.11l-.18.9c.1-.18.22-.35.35-.5.13-.15.28-.28.43-.4s.31-.2.47-.26c.16-.06.32-.1.48-.1.06,0,.13,0,.19.01.07,0,.13.02.18.03.06.01.11.03.15.05.04.02.08.04.1.06.03.03.04.07.04.12Z"/>
  </g>
  <g>
    <path class="cls-2" d="m115.78,204.82l-.57,2.89s-.04.08-.07.12c-.03.03-.09.06-.16.08-.07.02-.16.04-.27.05s-.25.02-.41.02-.29,0-.4-.02c-.11-.01-.19-.03-.24-.05-.06-.02-.09-.05-.11-.08-.02-.03-.02-.07-.02-.12l.57-2.89-1.35-4.47c-.05-.15-.08-.27-.09-.36s0-.16.06-.2c.05-.04.14-.07.27-.08.13-.01.31-.02.54-.02.18,0,.32,0,.42,0,.1,0,.18.02.24.04s.1.05.12.09.04.09.06.16l.55,1.97c.06.24.12.46.17.68s.09.44.13.67h.01c.12-.23.24-.45.37-.67s.26-.44.41-.66l1.31-2.01c.03-.05.07-.1.11-.14.04-.04.09-.06.16-.09.07-.02.16-.04.27-.04s.26-.01.45-.01c.25,0,.43,0,.56.02s.21.05.25.09.04.12,0,.2c-.04.09-.12.2-.21.34l-3.15,4.47Z"/>
    <path class="cls-2" d="m123.44,203.3c0,.3-.07.58-.21.82s-.35.45-.64.63-.66.31-1.1.4-.98.14-1.6.14h-.58c-.02.1-.03.19-.04.29,0,.09-.01.18-.01.26,0,.34.09.6.27.77.18.17.46.26.86.26.28,0,.53-.02.75-.06.22-.04.42-.08.58-.13s.31-.09.42-.13c.11-.04.19-.06.24-.06s.09.02.11.04.03.08.03.14c0,.07,0,.15-.02.25-.01.09-.03.19-.05.28s-.05.18-.09.26c-.04.08-.08.14-.12.18-.05.05-.14.1-.28.15s-.3.1-.49.14c-.19.04-.4.08-.64.1s-.48.04-.72.04c-.41,0-.76-.04-1.06-.13-.3-.08-.55-.21-.76-.39s-.36-.39-.46-.66-.15-.59-.15-.96c0-.28.03-.59.08-.91.05-.32.14-.64.26-.96s.27-.62.46-.9.41-.54.68-.76.57-.39.92-.52c.35-.13.74-.2,1.19-.2.38,0,.72.05.99.14s.5.21.68.36.31.32.4.51.13.39.13.59Zm-1.57.12c0-.17-.07-.31-.2-.42-.13-.11-.33-.17-.58-.17-.21,0-.4.04-.57.11s-.31.18-.44.31-.24.28-.33.46-.16.36-.22.56h.53c.34,0,.62-.02.85-.07.23-.04.41-.1.55-.18.14-.08.24-.17.3-.27.06-.1.09-.21.09-.33Z"/>
    <path class="cls-2" d="m129.89,202.02s0,.1-.02.17-.03.14-.06.22c-.16.46-.33.92-.52,1.37-.19.46-.4.91-.63,1.36-.23.45-.47.89-.74,1.32s-.55.85-.86,1.25c-.04.06-.09.11-.15.14s-.13.06-.22.08c-.08.02-.18.03-.3.03-.12,0-.25,0-.4,0-.23,0-.42,0-.55-.02-.13-.01-.24-.03-.31-.05s-.12-.06-.15-.11c-.03-.04-.04-.1-.04-.17l-.67-5.09c0-.07,0-.13-.01-.19,0-.06,0-.11,0-.17,0-.08,0-.15.03-.19.02-.04.06-.08.11-.11.06-.03.14-.05.25-.06.11-.01.25-.02.43-.02.17,0,.3,0,.4.01.1,0,.17.02.22.04.05.02.09.05.11.08.02.04.03.08.03.13l.48,4.16v.16l.03-.06c.22-.33.41-.65.59-.98s.34-.67.49-1.02c.15-.35.29-.71.42-1.08.13-.37.26-.77.39-1.18.01-.05.04-.1.07-.13.03-.03.09-.06.16-.08.07-.02.16-.04.27-.04.11,0,.24-.01.4-.01s.28,0,.38.01.18.02.23.04.09.04.11.06c.02.03.03.06.03.1Z"/>
    <path class="cls-2" d="m131.51,207.72s-.03.08-.06.11c-.03.03-.08.06-.14.08-.06.02-.15.04-.25.05-.11.01-.24.02-.39.02-.16,0-.29,0-.39-.02s-.18-.03-.23-.05-.09-.05-.11-.08c-.02-.03-.02-.07-.02-.11l1.67-8.35s.03-.08.06-.12c.03-.03.08-.06.15-.08.07-.02.15-.04.26-.05.1-.01.23-.02.39-.02s.29,0,.38.02c.1.01.18.03.23.05s.09.05.11.08c.02.03.02.07.01.12l-1.66,8.35Z"/>
    <path class="cls-2" d="m138.37,207.73c-.02.09-.08.15-.2.19-.12.04-.3.06-.56.06-.13,0-.24,0-.32-.01-.08,0-.15-.02-.2-.04-.05-.02-.08-.04-.1-.08-.01-.03-.02-.07,0-.12l.18-.91c-.06.14-.16.28-.3.43-.14.15-.3.29-.49.41-.19.12-.4.22-.63.3s-.47.12-.71.12c-.34,0-.62-.06-.84-.18-.22-.12-.4-.28-.54-.48-.13-.2-.23-.43-.29-.69-.06-.26-.09-.53-.09-.81,0-.27.03-.56.08-.87s.13-.63.24-.94c.11-.31.24-.61.41-.9.16-.29.36-.55.59-.77.23-.22.5-.4.79-.54.3-.13.64-.2,1.01-.2.35,0,.66.07.93.22.27.15.51.36.71.64l.1-.5c.02-.09.08-.15.2-.19.12-.04.3-.06.56-.06.13,0,.23,0,.32.02s.15.03.2.04c.05.02.08.04.1.08.02.03.02.07.01.11l-1.14,5.68Zm-.79-3.97c-.15-.23-.31-.41-.49-.52s-.39-.17-.62-.17c-.18,0-.34.04-.49.13-.15.08-.28.2-.39.34-.11.14-.21.31-.3.49s-.16.38-.22.58c-.06.2-.1.4-.13.61s-.04.39-.04.57c0,.13,0,.25.03.36.02.11.05.22.1.3s.12.16.2.21.19.08.32.08c.19,0,.38-.06.57-.17.19-.11.38-.26.54-.46.17-.19.32-.42.45-.67s.22-.53.28-.82l.18-.86Z"/>
    <path class="cls-2" d="m143.91,204.79l1.02,2.82c.02.07.03.13.01.18s-.05.08-.12.11-.16.05-.28.06c-.12.01-.28.02-.48.02-.18,0-.32,0-.42-.01s-.18-.02-.24-.04c-.05-.02-.09-.04-.11-.07-.02-.03-.03-.06-.04-.1l-.69-2-1.43,2.01s-.05.07-.09.1c-.03.03-.08.05-.16.07s-.17.03-.29.04c-.12,0-.28.01-.49.01-.18,0-.33,0-.44-.02-.11-.01-.19-.03-.24-.06s-.07-.06-.07-.11c0-.04.03-.1.08-.17l2.15-2.82-.95-2.62c-.03-.08-.03-.14-.03-.19,0-.05.04-.09.1-.12.06-.03.15-.05.27-.06.12-.01.28-.02.48-.02.17,0,.31,0,.41,0,.1,0,.18.02.23.03s.09.03.11.06c.02.03.04.06.05.1l.66,1.89,1.37-1.89s.05-.06.08-.09c.03-.03.08-.05.14-.06.06-.02.15-.03.25-.04s.24-.01.41-.01c.19,0,.35,0,.47.01s.2.03.26.05c.06.03.08.06.07.1,0,.04-.04.1-.09.18l-1.97,2.63Z"/>
  </g>
  <g>
    <path class="cls-2" d="m191.43,218.65c.02.15.03.27.03.36,0,.09-.03.16-.09.2-.06.04-.15.07-.28.08s-.31.02-.54.02c-.16,0-.29,0-.39,0-.1,0-.18-.02-.23-.03-.05-.02-.09-.04-.11-.08-.02-.03-.03-.08-.04-.14l-.22-1.65h-3.08l-.85,1.61c-.03.06-.06.11-.1.15-.04.04-.09.07-.16.09-.07.02-.17.04-.29.04-.12,0-.27.01-.45.01-.19,0-.35,0-.45-.02-.11-.01-.18-.04-.22-.09s-.04-.12-.01-.21.08-.21.16-.36l3.99-7.29c.04-.07.08-.13.13-.17.04-.04.1-.08.18-.1s.18-.04.32-.04c.13,0,.31,0,.52,0,.25,0,.45,0,.59,0,.15,0,.26.02.34.04s.13.06.16.1c.03.05.04.11.05.19l1.07,7.28Zm-2.5-6.02h0l-1.83,3.49h2.31l-.47-3.49Z"/>
    <path class="cls-2" d="m197.62,219.28c-.08.38-.19.72-.36,1.01-.16.29-.37.53-.63.72s-.58.34-.96.43c-.38.1-.81.15-1.31.15-.36,0-.68-.03-.97-.08-.29-.06-.52-.13-.71-.22-.07-.03-.11-.07-.14-.11-.03-.04-.04-.1-.04-.18,0-.03,0-.07,0-.13,0-.06.01-.12.03-.2s.03-.15.05-.23.05-.15.08-.21c.03-.06.07-.11.1-.15.04-.04.08-.06.13-.06s.11.02.19.05.17.08.29.12c.12.04.28.08.46.12s.41.05.67.05c.22,0,.41-.02.58-.05.17-.03.32-.09.45-.17s.23-.17.31-.29.13-.26.17-.44c.06-.28.11-.51.17-.69.05-.19.11-.34.15-.46-.08.14-.19.28-.33.42s-.3.26-.49.37c-.18.11-.38.2-.59.26-.21.07-.42.1-.63.1-.33,0-.6-.06-.82-.17-.22-.11-.4-.26-.54-.46-.14-.19-.24-.42-.3-.69-.06-.26-.09-.54-.09-.85,0-.28.03-.57.08-.89.05-.32.13-.63.24-.95.11-.31.24-.61.41-.9s.36-.54.59-.76c.23-.22.5-.4.79-.53.3-.13.63-.2,1.01-.2.35,0,.66.07.93.22.27.15.51.36.71.64l.1-.5c.02-.09.08-.15.2-.19.12-.04.3-.06.56-.06.13,0,.23,0,.32.02s.15.03.2.04c.05.02.08.04.1.08.02.03.02.07.01.11l-1.19,5.9Zm-.74-4.2c-.15-.23-.31-.41-.49-.52s-.39-.17-.62-.17c-.18,0-.34.04-.49.13-.15.08-.28.2-.39.34s-.22.31-.3.49c-.09.19-.16.38-.22.58-.06.2-.1.41-.13.61s-.04.4-.04.58c0,.14.01.28.04.39s.06.22.12.3c.05.08.12.15.2.19.08.04.18.07.3.07.19,0,.38-.06.57-.17.19-.11.38-.26.54-.46.17-.19.32-.42.45-.68.13-.26.22-.53.28-.82l.18-.86Zm1.68-4.53s0,.12-.03.22c-.02.11-.05.23-.11.37s-.13.28-.23.42c-.1.15-.23.28-.38.4-.16.12-.35.22-.58.29s-.5.11-.81.11-.59-.03-.8-.1c-.21-.07-.38-.16-.5-.28s-.21-.25-.26-.41-.07-.31-.07-.48c0-.05,0-.1,0-.17,0-.06.01-.13.02-.19s.02-.12.04-.17.03-.08.05-.1c.04-.03.1-.06.17-.08s.19-.03.33-.03c.1,0,.19,0,.25.01s.12.02.16.04c.04.02.06.04.08.06.01.02.02.05.02.08,0,.04,0,.08,0,.13,0,.05,0,.1,0,.14,0,.08.01.15.03.22.02.06.05.12.1.16.05.05.11.08.19.11s.18.04.29.04.23-.01.33-.04c.1-.03.19-.07.28-.14.08-.06.15-.14.21-.23.06-.09.11-.2.14-.33.02-.04.04-.08.06-.11.02-.03.06-.06.1-.08.04-.02.1-.03.17-.04s.15-.02.26-.02.2,0,.26.01.12.02.15.03c.04.01.06.03.07.05s.02.05.02.07Z"/>
    <path class="cls-2" d="m204.54,219.06c-.02.09-.08.15-.2.19-.12.04-.3.06-.56.06-.13,0-.24,0-.32-.01-.08,0-.15-.02-.2-.04-.05-.02-.08-.04-.1-.08-.01-.03-.02-.07,0-.12l.17-.91c-.06.14-.16.28-.3.43-.14.15-.3.29-.49.41-.19.12-.4.23-.63.3s-.47.12-.71.12-.45-.03-.63-.09-.33-.14-.46-.25c-.13-.11-.24-.23-.32-.37s-.15-.3-.2-.46-.09-.33-.11-.5c-.02-.17-.03-.34-.03-.5,0-.28.03-.57.08-.89s.13-.63.24-.94c.11-.31.24-.61.41-.9.17-.29.36-.54.59-.76.23-.22.5-.4.79-.53.3-.13.63-.2,1.01-.2.17,0,.32.02.47.05s.29.08.41.15.24.13.34.22c.1.08.19.17.26.27l.6-2.99s.03-.08.06-.11c.03-.03.08-.06.14-.09s.15-.04.25-.05.23-.02.39-.02.28,0,.38.02.18.03.23.05.09.05.11.09c.02.03.02.07.01.11l-1.66,8.33Zm-.79-3.97c-.15-.23-.31-.41-.49-.53-.18-.12-.39-.18-.62-.18-.17,0-.33.04-.48.12-.15.08-.28.19-.39.33s-.22.3-.3.48c-.09.18-.16.38-.22.58-.06.2-.1.41-.13.61s-.04.4-.04.58c0,.32.05.56.16.73s.27.24.5.24c.19,0,.38-.06.57-.17.19-.11.38-.26.54-.45.17-.19.32-.41.45-.67s.22-.53.28-.82l.18-.86Z"/>
    <path class="cls-2" d="m211.39,219.06c-.02.09-.08.15-.2.19-.12.04-.3.06-.56.06-.13,0-.24,0-.32-.01-.08,0-.15-.02-.2-.04-.05-.02-.08-.04-.1-.08-.01-.03-.02-.07,0-.12l.18-.91c-.06.14-.16.28-.3.43-.14.15-.3.29-.49.41-.19.12-.4.22-.63.3s-.47.12-.71.12c-.34,0-.62-.06-.84-.18-.22-.12-.4-.28-.54-.48-.13-.2-.23-.43-.29-.69-.06-.26-.09-.53-.09-.81,0-.27.03-.56.08-.87s.13-.63.24-.94c.11-.31.24-.61.41-.9.16-.29.36-.55.59-.77.23-.22.5-.4.79-.54.3-.13.64-.2,1.01-.2.35,0,.66.07.93.22.27.15.51.36.71.64l.1-.5c.02-.09.08-.15.2-.19.12-.04.3-.06.56-.06.13,0,.23,0,.32.02s.15.03.2.04c.05.02.08.04.1.08.02.03.02.07.01.11l-1.14,5.68Zm-.79-3.97c-.15-.23-.31-.41-.49-.52s-.39-.17-.62-.17c-.18,0-.34.04-.49.13-.15.08-.28.2-.39.34-.11.14-.21.31-.3.49s-.16.38-.22.58c-.06.2-.1.4-.13.61s-.04.39-.04.57c0,.13,0,.25.03.36.02.11.05.22.1.3s.12.16.2.21.19.08.32.08c.19,0,.38-.06.57-.17.19-.11.38-.26.54-.46.17-.19.32-.42.45-.67s.22-.53.28-.82l.18-.86Z"/>
    <path class="cls-2" d="m214.1,219.39c-.24-.03-.44-.07-.61-.12s-.31-.1-.41-.16-.18-.11-.23-.15c-.03-.03-.06-.07-.07-.11-.01-.04-.02-.09-.02-.15,0-.04,0-.09,0-.15,0-.06.02-.12.03-.2s.03-.14.05-.22c.02-.07.04-.14.07-.2.03-.06.05-.11.08-.14s.06-.05.1-.05c.06,0,.12.03.2.08s.17.11.28.17.25.12.42.17.38.08.63.08c.17,0,.32-.02.45-.06s.24-.1.32-.17c.08-.07.15-.15.19-.25.04-.09.06-.19.06-.3,0-.15-.05-.27-.16-.36-.1-.09-.23-.18-.39-.26s-.33-.16-.51-.25c-.18-.08-.35-.19-.51-.31-.16-.12-.29-.28-.39-.46s-.16-.41-.16-.69c0-.3.06-.58.17-.84s.28-.48.5-.68c.22-.19.49-.34.8-.45.31-.11.67-.16,1.07-.16.18,0,.35.01.52.04s.32.05.45.09c.13.04.25.08.35.13.1.05.17.09.21.14.05.04.07.11.07.21,0,.05,0,.13-.02.23s-.04.2-.07.3c-.03.1-.06.19-.1.26s-.08.11-.14.11c-.06,0-.12-.02-.19-.06s-.16-.08-.27-.13-.23-.09-.37-.13-.31-.06-.5-.06c-.15,0-.28.02-.4.06s-.21.09-.29.16-.13.14-.17.23c-.04.09-.06.18-.06.29,0,.13.05.24.16.33.11.09.24.17.4.25.16.08.33.16.52.24.19.08.36.19.52.32.16.13.29.28.4.46.11.18.16.41.16.69,0,.32-.06.62-.19.9s-.33.53-.61.75c-.28.22-.65.38-1.11.49l.1.36c.03.11.05.21.06.3.02.09.03.19.03.28,0,.23-.04.43-.11.59s-.18.3-.31.41c-.13.11-.3.19-.49.24-.19.05-.4.08-.63.08-.12,0-.24,0-.35-.01-.12,0-.22-.02-.32-.04-.1-.02-.19-.04-.26-.06s-.14-.04-.18-.07c-.05-.03-.08-.05-.1-.08-.02-.03-.03-.07-.03-.12,0-.04,0-.1.02-.18s.03-.15.05-.23.06-.14.1-.2c.04-.06.1-.08.17-.08h.72c.06,0,.12,0,.17-.02s.1-.04.14-.06.07-.06.1-.11.03-.1.03-.16c0-.04,0-.09,0-.15,0-.05-.02-.11-.03-.17l-.11-.44Z"/>
  </g>
  <g>
    <path class="cls-2" d="m286.66,220.48s0,.1,0,.17c0,.07-.02.14-.03.22s-.03.16-.05.23c-.02.08-.05.15-.08.21-.03.06-.06.12-.1.16-.04.04-.07.06-.11.06-.06,0-.15-.04-.27-.11s-.26-.15-.44-.24c-.18-.09-.4-.17-.67-.24-.26-.07-.57-.11-.93-.11s-.69.05-.99.16-.57.24-.82.42c-.25.18-.46.39-.65.63-.19.24-.35.51-.48.79s-.23.57-.29.87c-.06.3-.1.6-.1.89,0,.33.05.61.14.86.09.24.23.45.4.62.18.16.39.29.64.38.25.08.53.13.84.13.21,0,.41-.02.62-.06.2-.04.39-.11.56-.19l.38-1.9h-1.55c-.05,0-.09-.02-.12-.06-.03-.04-.04-.11-.04-.19,0-.04,0-.1.01-.17,0-.07.02-.14.04-.21s.03-.15.05-.23.05-.14.08-.2c.03-.06.07-.11.11-.15s.08-.06.13-.06h2.77c.14,0,.24.05.3.14.06.09.07.22.04.39l-.66,3.29c-.02.08-.04.15-.06.21-.03.06-.06.11-.1.16-.05.05-.16.11-.32.18-.17.07-.38.14-.62.21-.24.07-.51.12-.82.17s-.61.07-.92.07c-.59,0-1.11-.07-1.55-.2-.45-.14-.82-.34-1.13-.61-.3-.27-.53-.6-.69-.99s-.24-.84-.24-1.35c0-.46.05-.91.15-1.35s.25-.86.44-1.25c.2-.39.44-.76.73-1.1s.63-.63,1.01-.87.81-.44,1.28-.57c.47-.14.98-.21,1.54-.21.31,0,.6.03.88.07.27.05.52.11.74.18.22.07.4.14.55.22s.25.14.29.19.08.09.1.15.03.12.03.2Z"/>
    <path class="cls-2" d="m293.11,223.85c0,.3-.03.62-.09.94-.06.32-.15.63-.27.94s-.28.6-.47.86c-.19.27-.42.51-.69.71s-.58.37-.92.49c-.35.12-.74.18-1.17.18s-.8-.05-1.11-.15c-.31-.1-.57-.25-.78-.44-.21-.19-.36-.43-.46-.71s-.15-.6-.15-.97c0-.3.03-.62.09-.94.06-.32.15-.63.27-.94s.28-.59.47-.87.42-.51.69-.71.58-.36.92-.48c.35-.12.74-.18,1.17-.18s.8.05,1.11.15c.31.1.57.25.78.44.21.19.36.43.46.71s.15.6.15.97Zm-1.65.11c0-.18-.02-.34-.05-.47-.04-.14-.1-.25-.18-.35-.08-.1-.19-.17-.32-.22s-.29-.08-.47-.08c-.21,0-.4.04-.57.12-.17.08-.32.19-.45.33-.13.14-.25.3-.35.49-.1.18-.18.38-.24.58-.06.2-.11.41-.14.62-.03.21-.04.41-.04.6,0,.18.02.34.05.48.04.14.1.26.18.35.08.1.19.17.32.22s.29.08.47.08c.21,0,.4-.04.57-.12.17-.08.32-.2.45-.34.13-.14.25-.3.35-.49.1-.18.18-.38.24-.58.06-.21.11-.41.14-.62.03-.21.04-.41.04-.6Zm-.93-3.91c-.03.16-.07.29-.11.39s-.11.18-.18.24c-.08.06-.17.1-.28.12-.11.02-.23.03-.38.03s-.27-.01-.37-.03c-.1-.02-.17-.06-.23-.12-.05-.06-.08-.14-.09-.24s0-.23.03-.39c.03-.16.06-.29.11-.39s.11-.18.19-.24c.08-.06.17-.1.27-.12.11-.02.23-.03.38-.03s.26.01.36.03c.1.02.17.06.23.12.05.06.09.14.1.24s0,.23-.03.39Zm2.48,0c-.03.16-.07.29-.12.39s-.11.18-.18.24c-.07.06-.17.1-.27.12-.11.02-.24.03-.38.03s-.26-.01-.36-.03c-.1-.02-.17-.06-.22-.12-.05-.06-.08-.14-.1-.24s0-.23.03-.39c.03-.16.06-.29.11-.39s.11-.18.19-.24c.08-.06.17-.1.27-.12.11-.02.23-.03.38-.03s.27.01.37.03c.1.02.17.06.23.12.05.06.09.14.1.24s0,.23-.03.39Z"/>
    <path class="cls-2" d="m299.69,221.93c0,.05,0,.12-.02.18-.01.07-.03.14-.06.21-.14.39-.3.79-.47,1.21s-.36.84-.57,1.28c-.22.44-.46.9-.74,1.37-.28.47-.59.96-.95,1.46l-1.55,2.2c-.04.05-.08.1-.14.14-.06.04-.13.07-.22.09s-.19.04-.31.05c-.12.01-.26.02-.43.02-.18,0-.33,0-.44-.02-.11-.02-.19-.04-.24-.07-.05-.03-.07-.08-.07-.13,0-.05.03-.11.09-.18l1.44-1.9-.93-5.45c0-.05-.02-.11-.03-.17,0-.06-.01-.11-.01-.15,0-.08.01-.14.04-.18s.07-.08.14-.11.15-.04.26-.05c.11-.01.24-.02.4-.02.17,0,.31,0,.41,0,.1,0,.17.02.23.04s.09.05.1.09c.02.04.03.1.04.16l.58,3.97h.01c.21-.32.4-.64.58-.96s.33-.66.48-.99c.14-.34.28-.68.4-1.02.12-.34.23-.69.33-1.04,0-.04.03-.08.06-.11.03-.03.08-.06.15-.08.07-.02.16-.04.28-.04.11-.01.26-.02.44-.02.27,0,.46.02.56.05.1.03.15.09.15.18Z"/>
    <path class="cls-2" d="m301.22,227.87c-.44-.11-.77-.34-1.01-.68-.24-.35-.36-.81-.36-1.39,0-.26.02-.54.07-.85s.13-.62.24-.93c.11-.31.25-.61.43-.91.18-.29.39-.55.64-.77s.55-.4.88-.54c.33-.14.72-.2,1.16-.2.17,0,.33.01.5.04s.31.06.44.11.25.1.36.15c.1.06.18.11.23.16s.08.09.1.13c.01.04.02.08.02.14,0,.1-.01.21-.04.33-.02.12-.05.24-.09.35-.04.11-.09.2-.14.28-.06.07-.12.11-.19.11-.06,0-.12-.03-.18-.08-.06-.05-.13-.11-.22-.17-.09-.06-.2-.12-.33-.18-.13-.05-.3-.08-.51-.08-.22,0-.42.05-.59.14-.17.1-.33.22-.45.38s-.24.33-.32.53c-.08.2-.15.39-.21.6-.06.2-.09.39-.12.58s-.03.34-.03.48c0,.34.07.6.22.78s.39.27.71.27c.24,0,.44-.03.61-.09.17-.06.31-.13.43-.2.12-.07.22-.14.31-.2s.17-.09.24-.09c.04,0,.07.02.09.06s.03.09.03.16,0,.16-.03.27c-.02.11-.04.22-.07.33-.03.11-.06.21-.1.31-.04.1-.08.17-.14.23-.06.05-.15.12-.28.2s-.29.14-.47.2c-.18.06-.37.1-.57.12l.08.32c.03.11.05.21.07.3.02.09.03.19.03.28,0,.23-.04.43-.11.59-.07.17-.18.3-.31.41-.14.11-.3.19-.49.24s-.4.08-.63.08c-.12,0-.24,0-.36-.01s-.22-.02-.32-.04-.18-.04-.26-.06-.14-.04-.19-.07c-.05-.03-.08-.05-.1-.08s-.03-.07-.03-.12c0-.04,0-.1.02-.18s.03-.15.05-.23.06-.14.1-.2c.04-.06.1-.09.17-.09h.72c.06,0,.12,0,.17-.02.05-.02.1-.04.14-.06s.07-.06.09-.11.04-.1.04-.16c0-.04,0-.09,0-.15,0-.05-.02-.11-.03-.16l-.13-.53Z"/>
    <path class="cls-2" d="m310.23,227.61c-.02.09-.08.15-.2.19-.12.04-.3.06-.56.06-.13,0-.24,0-.32-.01-.08,0-.15-.02-.2-.04s-.08-.04-.1-.08-.02-.07,0-.12l.18-.91c-.06.14-.16.28-.3.43-.14.15-.3.29-.49.41-.19.12-.4.22-.63.3s-.47.12-.71.12c-.34,0-.62-.06-.84-.18s-.4-.28-.54-.48c-.13-.2-.23-.43-.29-.69-.06-.26-.09-.53-.09-.81,0-.27.03-.56.08-.87.05-.31.13-.63.24-.94.11-.31.24-.61.41-.9.16-.29.36-.55.59-.77.23-.22.5-.4.79-.54.3-.13.64-.2,1.01-.2.35,0,.66.07.93.22.27.14.51.36.71.64l.1-.5c.02-.09.08-.15.2-.19.12-.04.3-.06.56-.06.13,0,.23,0,.32.02.08,0,.15.03.2.04.05.02.08.04.1.08.02.03.02.07.01.11l-1.14,5.68Zm-.79-3.97c-.15-.23-.31-.41-.49-.52-.18-.12-.39-.17-.62-.17-.18,0-.34.04-.49.13-.15.08-.28.2-.39.34-.11.14-.21.3-.3.49-.09.19-.16.38-.22.58-.06.2-.1.4-.13.61s-.04.39-.04.57c0,.13,0,.25.03.36.02.12.05.22.1.3.05.09.12.16.2.21s.19.08.32.08c.19,0,.38-.06.57-.17.19-.11.38-.27.54-.46.17-.19.32-.42.45-.67s.22-.53.28-.82l.18-.86Z"/>
    <path class="cls-2" d="m317.92,221.93c0,.05,0,.12-.02.18-.01.07-.03.14-.06.21-.14.39-.3.79-.47,1.21s-.36.84-.57,1.28c-.22.44-.46.9-.74,1.37-.28.47-.59.96-.95,1.46l-1.55,2.2c-.04.05-.08.1-.14.14-.06.04-.13.07-.22.09s-.19.04-.31.05c-.12.01-.26.02-.43.02-.18,0-.33,0-.44-.02-.11-.02-.19-.04-.24-.07-.05-.03-.07-.08-.07-.13,0-.05.03-.11.09-.18l1.44-1.9-.93-5.45c0-.05-.02-.11-.03-.17,0-.06-.01-.11-.01-.15,0-.08.01-.14.04-.18s.07-.08.14-.11.15-.04.26-.05c.11-.01.24-.02.4-.02.17,0,.31,0,.41,0,.1,0,.17.02.23.04s.09.05.1.09c.02.04.03.1.04.16l.58,3.97h.01c.21-.32.4-.64.58-.96s.33-.66.48-.99c.14-.34.28-.68.4-1.02.12-.34.23-.69.33-1.04,0-.04.03-.08.06-.11.03-.03.08-.06.15-.08.07-.02.16-.04.28-.04.11-.01.26-.02.44-.02.27,0,.46.02.56.05.1.03.15.09.15.18Z"/>
  </g>
  <g>
    <path class="cls-2" d="m277.15,275.16c-.11.53-.27.98-.5,1.38-.22.39-.5.73-.84.99-.33.27-.72.47-1.15.6-.43.13-.91.2-1.44.2-.56,0-1.04-.07-1.44-.21-.4-.14-.72-.34-.95-.61-.23-.27-.38-.61-.45-1.02s-.05-.88.06-1.42l.98-4.88s.03-.08.06-.12c.03-.03.08-.06.15-.08.07-.02.16-.04.27-.05.11-.01.24-.02.41-.02s.29,0,.4.02c.11.01.19.03.25.05s.1.05.12.08c.02.04.02.07.02.12l-.98,4.88c-.07.33-.09.61-.06.84s.1.43.21.59.26.27.45.34c.19.07.42.11.69.11s.52-.04.75-.12c.23-.08.43-.2.61-.36.18-.16.33-.35.45-.58s.22-.49.28-.78l.98-4.91s.03-.08.06-.12c.03-.03.08-.06.15-.08s.15-.04.26-.05c.11-.01.25-.02.41-.02s.29,0,.39.02c.1.01.18.03.24.05s.1.05.12.08c.02.04.02.07.02.12l-.99,4.96Z"/>
    <path class="cls-2" d="m283.47,272.69c0,.1-.01.21-.04.33-.02.12-.05.24-.09.35-.04.11-.09.2-.14.28-.06.07-.12.11-.19.11-.06,0-.12-.03-.18-.08-.06-.05-.13-.11-.22-.17-.09-.06-.2-.12-.33-.18-.13-.05-.3-.08-.51-.08-.22,0-.42.05-.59.14-.17.1-.33.22-.45.38s-.24.33-.32.53c-.08.2-.15.39-.21.6-.06.2-.09.39-.12.58s-.03.34-.03.48c0,.34.07.6.22.78s.39.27.71.27c.24,0,.44-.03.61-.09.17-.06.31-.13.43-.2.12-.07.22-.14.31-.2s.17-.09.24-.09c.04,0,.07.02.09.06s.03.09.03.16,0,.16-.03.27c-.02.11-.04.22-.07.33-.03.11-.06.21-.1.31-.04.1-.08.17-.14.23-.06.05-.15.12-.27.19-.12.07-.26.13-.42.19-.16.06-.34.1-.52.13-.19.03-.38.05-.59.05-.72,0-1.27-.18-1.62-.55-.36-.37-.54-.91-.54-1.62,0-.26.02-.54.07-.85s.13-.62.24-.93c.11-.31.25-.61.43-.91.18-.29.39-.55.64-.77s.55-.4.88-.54c.33-.14.72-.2,1.16-.2.17,0,.33.01.5.04s.31.06.44.11.25.1.36.15c.1.06.18.11.23.16s.08.09.1.13c.01.04.02.08.02.14Z"/>
    <path class="cls-2" d="m288.79,277.98c-.02.09-.08.15-.2.19-.12.04-.3.06-.56.06-.13,0-.24,0-.32-.01-.08,0-.15-.02-.2-.04s-.08-.04-.1-.08-.02-.07,0-.12l.18-.91c-.06.14-.16.28-.3.43-.14.15-.3.29-.49.41-.19.12-.4.22-.63.3s-.47.12-.71.12c-.34,0-.62-.06-.84-.18s-.4-.28-.54-.48c-.13-.2-.23-.43-.29-.69-.06-.26-.09-.53-.09-.81,0-.27.03-.56.08-.87.05-.31.13-.63.24-.94.11-.31.24-.61.41-.9.16-.29.36-.55.59-.77.23-.22.5-.4.79-.54.3-.13.64-.2,1.01-.2.35,0,.66.07.93.22.27.14.51.36.71.64l.1-.5c.02-.09.08-.15.2-.19.12-.04.3-.06.56-.06.13,0,.23,0,.32.02.08,0,.15.03.2.04.05.02.08.04.1.08.02.03.02.07.01.11l-1.14,5.68Zm-.79-3.97c-.15-.23-.31-.41-.49-.52-.18-.12-.39-.17-.62-.17-.18,0-.34.04-.49.13-.15.08-.28.2-.39.34-.11.14-.21.3-.3.49-.09.19-.16.38-.22.58-.06.2-.1.4-.13.61s-.04.39-.04.57c0,.13,0,.25.03.36.02.12.05.22.1.3.05.09.12.16.2.21s.19.08.32.08c.19,0,.38-.06.57-.17.19-.11.38-.27.54-.46.17-.19.32-.42.45-.67s.22-.53.28-.82l.18-.86Z"/>
    <path class="cls-2" d="m295.09,272.22s0,.08-.01.16-.02.17-.04.27-.04.21-.06.31-.05.21-.09.3c-.03.09-.07.17-.11.23-.04.06-.08.09-.13.09-.04,0-.08,0-.12-.02-.04-.01-.08-.03-.13-.04-.05-.02-.1-.03-.15-.04-.05-.02-.12-.02-.19-.02-.14,0-.3.06-.46.17s-.32.26-.47.44c-.15.18-.28.39-.4.63-.12.24-.2.49-.25.75l-.51,2.55s-.03.08-.06.11c-.03.03-.08.06-.15.08s-.15.04-.26.05c-.11,0-.24.02-.39.02s-.28,0-.38-.02c-.1-.01-.18-.03-.23-.05-.06-.02-.09-.05-.11-.08-.02-.03-.02-.07-.01-.11l1.13-5.67s.03-.08.06-.11c.03-.03.07-.06.13-.08.06-.02.13-.04.22-.04.09-.01.2-.02.33-.02s.24,0,.32.02c.08,0,.15.03.19.04.05.02.08.04.09.08.01.03.02.07,0,.11l-.18.9c.1-.18.22-.35.35-.5.13-.15.28-.28.43-.4.15-.11.31-.2.47-.26.16-.06.32-.1.48-.1.06,0,.13,0,.19.01s.13.02.18.03c.06.01.11.03.15.05.04.02.08.04.1.06.03.03.04.07.04.12Z"/>
  </g>
  <g>
    <path class="cls-2" d="m363.23,322.67c0,.08-.03.16-.08.24-.05.09-.14.2-.27.33l-2.91,3.08,1.73,3.66c.03.08.06.16.08.22.02.06.03.12.03.17,0,.06-.01.11-.04.15-.03.04-.08.07-.14.1-.07.03-.16.04-.28.06-.12.01-.26.02-.44.02s-.32,0-.43-.02c-.11-.01-.2-.03-.26-.05-.06-.02-.11-.05-.14-.09-.03-.04-.05-.08-.07-.13l-1.74-3.89-.77,3.91s-.03.09-.06.12c-.03.03-.08.06-.16.08-.07.02-.16.04-.27.05-.11,0-.24.02-.4.02s-.3,0-.4-.02c-.1-.01-.19-.03-.25-.05-.06-.02-.1-.05-.12-.08-.02-.03-.03-.07-.01-.12l1.55-7.76s.02-.08.06-.12c.03-.03.09-.06.16-.08.07-.02.16-.04.27-.05.11,0,.24-.02.41-.02s.29,0,.4.02c.1.01.19.03.24.05.06.02.1.05.12.08.02.03.03.07.02.12l-.7,3.51,3.05-3.49c.04-.05.09-.09.14-.13.05-.04.11-.07.19-.09s.17-.04.28-.05c.11,0,.25-.02.41-.02s.31,0,.42.02c.11.01.19.03.25.05s.1.05.12.08c.02.03.04.07.04.12Z"/>
    <path class="cls-2" d="m368.01,330.44s-.03.08-.05.11-.07.06-.13.08c-.06.02-.13.03-.22.04-.09,0-.2.02-.33.02s-.24,0-.32-.02c-.08-.01-.15-.03-.19-.04-.05-.02-.08-.04-.09-.08s-.02-.07,0-.11l.17-.92c-.08.15-.2.3-.35.45s-.32.29-.51.41-.4.22-.63.3c-.22.08-.45.12-.69.12-.3,0-.55-.04-.75-.12-.21-.08-.37-.2-.5-.34-.12-.14-.22-.31-.27-.51-.06-.2-.08-.42-.08-.65,0-.14,0-.29.03-.44.02-.15.04-.3.07-.46l.7-3.51s.03-.08.06-.11c.03-.03.08-.06.15-.08.07-.02.15-.04.26-.04.11-.01.24-.02.39-.02s.28,0,.38.02c.1,0,.18.03.23.04.05.02.09.04.11.08.02.03.02.07.02.11l-.67,3.4c-.02.09-.04.19-.05.29s-.02.2-.02.29c0,.1,0,.2.03.28.02.08.05.15.09.21.04.06.1.1.16.13s.15.04.24.04c.17,0,.35-.06.54-.17.19-.11.37-.27.54-.46.17-.2.32-.43.45-.7.13-.27.23-.56.3-.87l.48-2.45s.02-.08.06-.11c.03-.03.08-.06.15-.08.07-.02.15-.04.26-.04.11-.01.23-.02.39-.02s.29,0,.38.02c.1,0,.18.03.23.04.06.02.09.04.11.08.02.03.02.07.01.11l-1.14,5.68Zm-1.67-7.57c-.03.16-.07.29-.11.39s-.11.18-.18.24c-.08.06-.17.1-.28.12-.11.02-.23.03-.38.03s-.27-.01-.37-.03c-.1-.02-.17-.06-.23-.12-.05-.06-.08-.14-.09-.24s0-.23.03-.39c.03-.16.06-.29.11-.39s.11-.18.19-.24c.08-.06.17-.1.27-.12.11-.02.23-.03.38-.03s.26.01.36.03c.1.02.17.06.23.12.06.06.09.14.1.24s0,.23-.03.39Zm2.48,0c-.03.16-.07.29-.12.39s-.11.18-.18.24c-.07.06-.17.1-.27.12-.11.02-.24.03-.38.03s-.26-.01-.36-.03c-.1-.02-.17-.06-.23-.12-.05-.06-.08-.14-.1-.24s0-.23.03-.39c.03-.16.06-.29.11-.39s.11-.18.19-.24c.08-.06.17-.1.27-.12.11-.02.23-.03.37-.03s.27.01.37.03c.1.02.17.06.23.12.05.06.09.14.1.24s0,.23-.03.39Z"/>
    <path class="cls-2" d="m374.32,324.68s0,.08-.01.16-.02.17-.04.27-.04.21-.06.31-.05.21-.09.3c-.03.09-.07.17-.11.23-.04.06-.08.09-.13.09-.04,0-.08,0-.12-.02-.04-.01-.08-.03-.13-.04-.05-.02-.1-.03-.15-.04-.05-.02-.12-.02-.19-.02-.14,0-.3.06-.46.17s-.32.26-.47.44c-.15.18-.28.39-.4.63-.12.24-.2.49-.25.75l-.51,2.55s-.03.08-.06.11c-.03.03-.08.06-.15.08s-.15.04-.26.05c-.11,0-.24.02-.39.02s-.28,0-.38-.02c-.1-.01-.18-.03-.23-.05-.06-.02-.09-.05-.11-.08-.02-.03-.02-.07-.01-.11l1.13-5.67s.03-.08.06-.11c.03-.03.07-.06.13-.08.06-.02.13-.04.22-.04.09-.01.2-.02.33-.02s.24,0,.32.02c.08,0,.15.03.19.04.05.02.08.04.09.08.01.03.02.07,0,.11l-.18.9c.1-.18.22-.35.35-.5.13-.15.28-.28.43-.4.15-.11.31-.2.47-.26.16-.06.32-.1.48-.1.06,0,.13,0,.19.01s.13.02.18.03c.06.01.11.03.15.05.04.02.08.04.1.06.03.03.04.07.04.12Z"/>
    <path class="cls-2" d="m379.46,330.44c-.02.09-.08.15-.2.19-.12.04-.3.06-.56.06-.13,0-.24,0-.32-.01-.08,0-.15-.02-.2-.04s-.08-.04-.1-.08-.02-.07,0-.12l.17-.91c-.06.14-.16.28-.3.43-.14.15-.3.29-.49.41-.19.12-.4.23-.63.3s-.47.12-.71.12-.45-.03-.63-.09c-.18-.06-.33-.14-.46-.25-.13-.11-.24-.23-.32-.37-.08-.14-.15-.3-.2-.46-.05-.16-.09-.33-.11-.5-.02-.17-.03-.34-.03-.51,0-.28.03-.57.08-.88.05-.32.13-.63.24-.94.11-.31.24-.61.41-.9s.36-.54.59-.76.5-.4.79-.53c.3-.13.63-.2,1.01-.2.17,0,.32.02.47.05.15.04.29.08.41.15.12.06.24.13.34.22s.19.17.26.27l.6-2.99s.03-.08.06-.12c.03-.03.08-.06.14-.09s.15-.04.25-.05c.1-.01.23-.02.39-.02s.28,0,.38.02c.1.01.18.03.23.05s.09.05.11.09c.02.04.02.07.01.12l-1.66,8.33Zm-.79-3.97c-.15-.23-.31-.41-.49-.53s-.39-.18-.62-.18c-.17,0-.33.04-.48.12-.15.08-.28.19-.39.33-.12.14-.22.3-.3.48-.09.19-.16.38-.22.58-.06.2-.1.41-.13.61s-.04.39-.04.58c0,.32.05.56.16.73.11.16.27.24.5.24.19,0,.38-.06.57-.17.19-.11.38-.26.54-.45.17-.19.32-.41.45-.67s.22-.53.28-.82l.18-.86Z"/>
    <path class="cls-2" d="m381.04,329.19c0-.3.07-.58.21-.82.14-.24.35-.45.64-.63s.66-.31,1.1-.4c.45-.09.98-.14,1.6-.14h.58c.02-.1.03-.19.04-.29,0-.09.01-.18.01-.26,0-.34-.09-.6-.27-.77s-.46-.26-.86-.26c-.28,0-.53.02-.75.06-.22.04-.42.08-.58.13s-.31.09-.42.13c-.11.04-.19.06-.24.06s-.09-.02-.11-.04-.03-.08-.03-.14c0-.07,0-.15.02-.25s.03-.19.05-.28c.02-.09.05-.18.09-.26s.08-.14.12-.18c.05-.05.14-.1.28-.15s.3-.1.49-.14c.19-.04.4-.08.64-.1s.48-.04.72-.04c.41,0,.76.04,1.06.13.3.09.56.21.76.39s.36.39.46.66c.1.27.15.59.15.96,0,.29-.03.59-.08.91s-.14.64-.26.96c-.12.31-.27.62-.46.9-.19.29-.41.54-.68.76-.26.22-.57.39-.92.52-.35.13-.74.2-1.19.2-.38,0-.72-.04-.99-.14-.28-.09-.5-.21-.68-.36s-.31-.32-.4-.51c-.09-.19-.13-.39-.13-.59Zm1.57-.12c0,.17.07.31.2.42.13.11.33.17.58.17.21,0,.4-.04.57-.11s.31-.18.44-.31.24-.28.33-.46.16-.36.22-.56h-.53c-.34,0-.62.02-.85.07-.23.04-.41.1-.55.18-.14.08-.24.17-.3.27-.06.1-.1.21-.1.33Z"/>
    <path class="cls-2" d="m396.33,330.44s-.03.08-.06.11c-.03.03-.08.06-.15.08s-.15.04-.26.05c-.1,0-.23.02-.39.02s-.28,0-.38-.02c-.1-.01-.18-.03-.23-.05-.06-.02-.09-.05-.11-.08-.02-.03-.02-.07,0-.11l.68-3.4c.02-.1.03-.19.04-.29s.02-.19.02-.29c0-.2-.04-.36-.11-.48s-.21-.18-.4-.18c-.17,0-.34.05-.53.16-.18.11-.36.26-.52.45-.17.19-.32.41-.44.66s-.22.52-.28.8l-.51,2.56s-.03.08-.06.11c-.03.03-.08.06-.15.08s-.15.04-.26.05c-.1,0-.23.02-.39.02s-.28,0-.38-.02c-.1-.01-.18-.03-.23-.05s-.09-.05-.11-.08c-.02-.03-.02-.07-.02-.11l.67-3.4c.03-.1.04-.2.05-.3s.02-.21.02-.3c0-.19-.04-.34-.12-.46-.08-.12-.21-.18-.39-.18-.17,0-.35.05-.53.16-.18.11-.36.26-.52.45-.17.19-.32.41-.44.66s-.22.52-.28.8l-.51,2.56s-.03.08-.06.11c-.03.03-.08.06-.15.08s-.15.04-.26.05c-.11,0-.24.02-.39.02s-.28,0-.38-.02c-.1-.01-.18-.03-.23-.05-.06-.02-.09-.05-.11-.08-.02-.03-.02-.07-.01-.11l1.14-5.67s.03-.08.05-.11c.03-.03.07-.06.13-.08.06-.02.13-.04.22-.04.09-.01.2-.02.33-.02s.24,0,.32.02c.08,0,.15.03.19.04.05.02.08.04.09.08.01.03.02.07,0,.11l-.18.93c.09-.15.21-.3.36-.45s.32-.29.5-.42.39-.22.62-.3c.22-.08.45-.12.69-.12s.46.03.64.1c.18.06.33.16.44.27.12.12.21.25.27.41s.1.33.12.51c.1-.15.22-.3.37-.46s.32-.29.51-.41.39-.22.61-.3c.22-.08.45-.12.68-.12.3,0,.54.04.75.12s.36.2.49.34c.12.15.21.32.27.52.05.2.08.41.08.64,0,.15,0,.3-.03.45-.02.15-.04.3-.08.46l-.7,3.5Z"/>
    <path class="cls-2" d="m399.49,330.44s-.03.08-.06.11c-.03.03-.08.06-.15.08s-.15.04-.26.05c-.11,0-.24.02-.39.02s-.28,0-.38-.02c-.1-.01-.18-.03-.23-.05-.06-.02-.09-.05-.11-.08-.02-.03-.02-.07-.01-.11l1.12-5.65s.03-.08.06-.11c.03-.03.08-.06.15-.08s.15-.04.25-.05c.1-.01.23-.02.39-.02s.28,0,.38.02c.1.01.18.03.23.05.06.02.09.05.11.08.02.03.02.07.01.11l-1.12,5.65Zm1.64-7.57c-.03.16-.07.29-.12.4s-.12.2-.2.26c-.08.07-.19.11-.31.14-.12.03-.27.04-.46.04s-.32-.01-.43-.04-.2-.07-.25-.14c-.06-.06-.09-.15-.1-.26,0-.11,0-.24.04-.4.03-.15.07-.28.12-.39.05-.11.12-.19.2-.26.08-.07.19-.12.31-.15.12-.03.27-.04.46-.04s.32.01.43.04c.11.03.2.08.25.15.06.07.09.15.09.26,0,.11,0,.24-.04.39Z"/>
    <path class="cls-2" d="m405.78,324.68s0,.08-.01.16-.02.17-.04.27-.04.21-.06.31-.05.21-.09.3c-.03.09-.07.17-.11.23-.04.06-.08.09-.13.09-.04,0-.08,0-.12-.02-.04-.01-.08-.03-.13-.04-.05-.02-.1-.03-.15-.04-.05-.02-.12-.02-.19-.02-.14,0-.3.06-.46.17s-.32.26-.47.44c-.15.18-.28.39-.4.63-.12.24-.2.49-.25.75l-.51,2.55s-.03.08-.06.11c-.03.03-.08.06-.15.08s-.15.04-.26.05c-.11,0-.24.02-.39.02s-.28,0-.38-.02c-.1-.01-.18-.03-.23-.05-.06-.02-.09-.05-.11-.08-.02-.03-.02-.07-.01-.11l1.13-5.67s.03-.08.06-.11c.03-.03.07-.06.13-.08.06-.02.13-.04.22-.04.09-.01.2-.02.33-.02s.24,0,.32.02c.08,0,.15.03.19.04.05.02.08.04.09.08.01.03.02.07,0,.11l-.18.9c.1-.18.22-.35.35-.5.13-.15.28-.28.43-.4.15-.11.31-.2.47-.26.16-.06.32-.1.48-.1.06,0,.13,0,.19.01s.13.02.18.03c.06.01.11.03.15.05.04.02.08.04.1.06.03.03.04.07.04.12Z"/>
  </g>
  <g>
    <path class="cls-2" d="m248.72,316.53c.12,0,.21.03.29.09s.11.15.11.27c0,.07-.01.17-.04.31s-.06.27-.09.4c-.01.05-.03.1-.05.15s-.05.11-.09.17-.09.13-.15.21c-.06.08-.13.18-.23.29l-4.08,4.98h3.38c.06,0,.1.02.12.06.02.04.04.11.04.19,0,.03,0,.08,0,.15s-.01.14-.03.22c-.01.08-.03.17-.05.25-.02.08-.05.16-.08.23-.03.07-.07.13-.11.17-.04.04-.09.07-.14.07h-4.84c-.15,0-.26-.04-.33-.11-.07-.08-.11-.17-.11-.29,0-.03,0-.08,0-.14,0-.06.02-.12.03-.19l.04-.2c.01-.07.03-.12.04-.16.02-.05.04-.09.06-.14s.05-.1.09-.16c.04-.06.09-.13.15-.21s.14-.18.23-.29l4.1-5h-3.08c-.14,0-.2-.09-.2-.27,0-.03,0-.07,0-.14,0-.07.02-.14.03-.22s.03-.16.05-.24c.02-.08.05-.16.09-.22.03-.07.08-.12.12-.17.05-.04.1-.07.17-.07h4.56Z"/>
    <path class="cls-2" d="m248.85,323.28c0-.3.07-.58.21-.82s.35-.45.64-.63.66-.31,1.1-.4.98-.14,1.6-.14h.58c.02-.1.03-.19.04-.29,0-.09.01-.18.01-.26,0-.34-.09-.6-.27-.77-.18-.17-.46-.26-.86-.26-.28,0-.53.02-.75.06-.22.04-.42.08-.58.13s-.31.09-.42.13c-.11.04-.19.06-.24.06s-.09-.02-.11-.04-.03-.08-.03-.14c0-.07,0-.15.02-.25.01-.09.03-.19.05-.28s.05-.18.09-.26c.04-.08.08-.14.12-.18.05-.05.14-.1.28-.15s.3-.1.49-.14c.19-.04.4-.08.64-.1s.48-.04.72-.04c.41,0,.76.04,1.06.13.3.08.56.21.76.39s.36.39.46.66.15.59.15.96c0,.28-.03.59-.08.91-.05.32-.14.64-.26.96s-.27.62-.46.9-.41.54-.68.76-.57.39-.92.52c-.35.13-.74.2-1.19.2-.38,0-.72-.05-.99-.14s-.5-.21-.68-.36-.31-.32-.4-.51-.13-.39-.13-.59Zm1.57-.12c0,.17.07.31.2.42.13.11.33.17.58.17.21,0,.4-.04.57-.11s.31-.18.44-.31.24-.28.33-.46.16-.36.22-.56h-.53c-.34,0-.62.02-.85.07-.23.04-.41.1-.55.18-.14.08-.24.17-.3.27-.06.1-.1.21-.1.33Z"/>
    <path class="cls-2" d="m259.95,318.78s0,.08-.01.16-.02.17-.04.27-.04.21-.06.31c-.03.11-.05.21-.09.3-.03.09-.07.17-.11.23s-.08.09-.13.09c-.04,0-.08,0-.12-.02-.04-.01-.08-.03-.13-.04-.05-.01-.1-.03-.15-.04-.05-.01-.12-.02-.19-.02-.14,0-.3.06-.46.17-.16.11-.32.25-.47.43-.15.18-.28.39-.4.63s-.2.49-.25.75l-.51,2.55s-.03.08-.06.11c-.03.03-.08.06-.15.08s-.15.04-.26.05-.24.02-.39.02-.28,0-.38-.02-.18-.03-.23-.05c-.06-.02-.09-.05-.11-.08-.02-.03-.02-.07-.01-.11l1.13-5.67s.03-.08.06-.11c.03-.03.07-.06.13-.08.06-.02.13-.03.22-.04s.2-.02.33-.02.24,0,.32.02c.08.01.15.03.19.04.05.02.08.04.09.08.01.03.02.07,0,.11l-.18.9c.1-.18.22-.35.35-.5.13-.15.28-.28.43-.4s.31-.2.47-.26c.16-.06.32-.1.48-.1.06,0,.13,0,.19.01.07,0,.13.02.18.03.06.01.11.03.15.05.04.02.08.04.1.06.03.03.04.07.04.12Z"/>
    <path class="cls-2" d="m265.09,324.53c-.02.09-.08.15-.2.19-.12.04-.3.06-.56.06-.13,0-.24,0-.32-.01-.08,0-.15-.02-.2-.04-.05-.02-.08-.04-.1-.08-.01-.03-.02-.07,0-.12l.17-.91c-.06.14-.16.28-.3.43-.14.15-.3.29-.49.41-.19.12-.4.23-.63.3s-.47.12-.71.12-.45-.03-.63-.09-.33-.14-.46-.25c-.13-.11-.24-.23-.32-.37s-.15-.3-.2-.46-.09-.33-.11-.5c-.02-.17-.03-.34-.03-.5,0-.28.03-.57.08-.89s.13-.63.24-.94c.11-.31.24-.61.41-.9.17-.29.36-.54.59-.76.23-.22.5-.4.79-.53.3-.13.63-.2,1.01-.2.17,0,.32.02.47.05s.29.08.41.15.24.13.34.22c.1.08.19.17.26.27l.6-2.99s.03-.08.06-.11c.03-.03.08-.06.14-.09s.15-.04.25-.05.23-.02.39-.02.28,0,.38.02.18.03.23.05.09.05.11.09c.02.03.02.07.01.11l-1.66,8.33Zm-.79-3.97c-.15-.23-.31-.41-.49-.53-.18-.12-.39-.18-.62-.18-.17,0-.33.04-.48.12-.15.08-.28.19-.39.33s-.22.3-.3.48c-.09.18-.16.38-.22.58-.06.2-.1.41-.13.61s-.04.4-.04.58c0,.32.05.56.16.73s.27.24.5.24c.19,0,.38-.06.57-.17.19-.11.38-.26.54-.45.17-.19.32-.41.45-.67s.22-.53.28-.82l.18-.86Z"/>
    <path class="cls-2" d="m271.95,324.53c-.02.09-.08.15-.2.19-.12.04-.3.06-.56.06-.13,0-.24,0-.32-.01-.08,0-.15-.02-.2-.04-.05-.02-.08-.04-.1-.08-.01-.03-.02-.07,0-.12l.18-.91c-.06.14-.16.28-.3.43-.14.15-.3.29-.49.41-.19.12-.4.22-.63.3s-.47.12-.71.12c-.34,0-.62-.06-.84-.18-.22-.12-.4-.28-.54-.48-.13-.2-.23-.43-.29-.69-.06-.26-.09-.53-.09-.81,0-.27.03-.56.08-.87s.13-.63.24-.94c.11-.31.24-.61.41-.9.16-.29.36-.55.59-.77.23-.22.5-.4.79-.54.3-.13.64-.2,1.01-.2.35,0,.66.07.93.22.27.15.51.36.71.64l.1-.5c.02-.09.08-.15.2-.19.12-.04.3-.06.56-.06.13,0,.23,0,.32.02s.15.03.2.04c.05.02.08.04.1.08.02.03.02.07.01.11l-1.14,5.68Zm-.79-3.97c-.15-.23-.31-.41-.49-.52s-.39-.17-.62-.17c-.18,0-.34.04-.49.13-.15.08-.28.2-.39.34-.11.14-.21.31-.3.49s-.16.38-.22.58c-.06.2-.1.4-.13.61s-.04.39-.04.57c0,.13,0,.25.03.36.02.11.05.22.1.3s.12.16.2.21.19.08.32.08c.19,0,.38-.06.57-.17.19-.11.38-.26.54-.46.17-.19.32-.42.45-.67s.22-.53.28-.82l.18-.86Z"/>
    <path class="cls-2" d="m279.8,320.66c0,.28-.03.58-.08.9s-.13.63-.23.95c-.11.31-.24.61-.41.9-.17.29-.36.54-.6.76-.23.22-.5.4-.8.53-.3.13-.63.2-1,.2s-.67-.07-.94-.21c-.27-.14-.51-.35-.71-.63l-.09.48c-.02.09-.08.15-.2.19s-.3.06-.56.06-.43-.02-.52-.06-.13-.11-.11-.19l1.67-8.35s.03-.08.06-.12c.03-.03.08-.06.15-.08.07-.02.15-.04.26-.05.1-.01.23-.02.39-.02s.28,0,.38.02c.1.01.17.03.23.05.06.02.09.05.11.08.02.03.02.07.01.12l-.45,2.27c-.02.1-.04.2-.07.31-.03.11-.05.21-.09.32-.03.11-.06.21-.1.31-.03.1-.06.19-.09.26.08-.14.19-.27.33-.41s.3-.26.49-.37c.18-.11.38-.2.59-.27.21-.07.42-.1.63-.1.24,0,.45.03.63.09s.33.14.46.25c.13.11.24.23.32.37.08.14.15.29.2.45.05.16.08.32.1.49.02.17.03.33.03.49Zm-1.64.16c0-.11,0-.22-.02-.33s-.05-.22-.1-.31c-.05-.09-.12-.17-.2-.23-.08-.06-.2-.09-.34-.09-.19,0-.38.06-.57.17s-.37.27-.54.46-.32.42-.45.68c-.13.26-.22.53-.28.83l-.18.86c.15.23.31.41.49.52s.39.17.63.17c.17,0,.33-.04.47-.12.14-.08.27-.19.39-.33.12-.14.22-.29.3-.48s.16-.37.22-.57c.06-.2.1-.41.13-.61.03-.21.04-.41.04-.6Z"/>
  </g>
  <path id="AZMI" class="cls-1" d="m120.86,166.65l5.36-1.9,5.18.17,2.77,3.8c2.57,2.43,2.87,3.91,2.59,4.84-.5,1.68-2.89,1.46-7.39,3.75-4.16,2.12-4.73,3.64-6.93,3.58-2.35-.06-3.66-1.85-5.89-3.92-7.49-6.99-14.33-7.02-14.19-9.62.06-1.1,1.36-2.74,8.3-4.49l10.2,3.8Z"/>
</svg>