<?xml version="1.0" encoding="UTF-8"?>
<svg xmlns="http://www.w3.org/2000/svg" version="1.1" viewBox="0 0 841.89 595.28">
  <defs>
    <style>
      .cls-1 {
        fill: #395a53;
      }
    </style>
  </defs>
  <!-- Generator: Adobe Illustrator 28.6.0, SVG Export Plug-In . SVG Version: 1.2.0 Build 709)  -->
  <g>
    <g id="Layer_1">
      <path id="Path_2090" class="cls-1" d="M124.52,110.49c-1.52,15.07-2.02,30.23-1.5,45.36l1.29,19.57-7.53,3.01c-6.45,2.8-7.09,3.66-5.16,7.31,1.29,2.36,3.66,4.3,5.38,4.3,1.5,0,5.8,2.58,9.46,5.59,5.38,4.52,7.31,4.94,10.96,3.01,9.89-5.38,14.84,3.22,5.59,9.46-2.98,1.85-5.13,4.78-6.02,8.17-.43,3.22-3.44,6.24-8.6,8.82-9.68,4.73-10.1,7.09-2.8,10.53,4.73,2.15,6.45,1.72,11.4-2.15,16.12-12.9,24.08-13.33,24.08-1.29,0,7.74.43,7.96,13.54,7.31,9.24-.43,14.4,2.8,14.4,8.82,0,3.87-3.87,5.16-13.33,4.3-4.52-.43-10.32,7.74-8.82,12.47,1.41,2.69,3.22,5.16,5.38,7.31,3.01,3.01,3.44,4.73,1.72,7.96-3.01,5.38-2.8,6.02,2.15,8.6,3.66,1.94,6.02,1.5,11.61-2.15,7.95-4.73,13.11-4.09,16.55,2.58,1.72,3.22,1.08,5.16-4.51,10.32-3.87,3.65-7.74,6.45-8.6,6.45-1.08,0-1.72,6.02-1.51,13.33.43,11.39,1.08,13.54,4.52,14.19,4.73,1.08,6.88-1.94,10.1-13.54,1.02-3.97,2.54-7.8,4.52-11.4,3.44-3.87,13.33-3.22,18.92,1.72,3.44,3.01,5.8,3.66,8.6,2.15,2.36-1.29,4.94-.86,7.96,1.07,5.59,3.87,7.31,2.15,5.59-5.59-1.5-7.31,5.59-18.92,14.62-24.3,8.39-4.94,12.47-4.3,15.26,2.36,1.29,3.44,6.02,9.46,10.1,13.76,23.44,23.44,24.3,24.72,22.79,32.25-1.69,7.51,3.03,14.96,10.53,16.65,1.13.25,2.29.37,3.45.33,5.37,0,6.45.86,7.74,7.74.9,4.82,3.59,9.12,7.52,12.04,3.68,3.02,6.62,6.85,8.6,11.18,1.5,3.66,4.51,7.96,6.66,9.46,2.15,1.72,3.66,4.08,3.44,5.59-.43,1.29,1.5,5.16,4.08,8.6l4.73,6.02,5.37-6.04c4.3-5.16,5.59-5.59,8.6-3.22,4.95,4.08,4.3,6.02-3.01,12.9-7.1,6.45-7.1,7.31,2.58,21.72,2.66,5.01,4.34,10.48,4.94,16.12,2.15,13.97,3.01,15.26,6.88,9.89,2.15-3.44,4.08-4.08,6.66-2.58,2.37,1.29,5.16.64,9.25-2.58,5.59-4.08,6.23-4.08,11.39-.64,6.66,4.3,7.74,4.3,7.74.43,0-5.59,5.38-8.17,11.82-5.16,5.16,2.36,6.02,1.93,10.32-3.23,2.86-3.22,6.48-5.66,10.54-7.09,5.59-1.29,6.24-.43,10.32,8.6,2.36,5.59,5.59,10.53,7.1,11.18,1.72.65,5.37,5.81,7.95,11.83,3.87,8.17,4.52,11.18,2.58,13.11-4.08,4.09-3.01,5.16,4.95,5.16,6.66,0,7.31-.43,6.23-4.94-1.72-6.66,4.52-6.66,7.96-.22,2.36,4.3,2.8,4.3,5.16,1.08,1.5-1.94,3.66-3.66,4.94-3.66,3.01,0,5.16,7.1,3.66,11.18-.62,2.04.06,4.25,1.72,5.59,2.36,1.94,3.44,1.5,5.38-2.8,3.22-6.88,9.68-6.88,14.19,0,1.83,3.17,5.15,5.2,8.82,5.38,6.45,0,6.88-3.44.86-8.17-4.3-3.65-4.08-11.18.43-11.18,3.87,0,18.92-15.48,19.57-19.99,1.07-7.1,7.09-6.02,7.09,1.29.22,3.66,1.72,7.1,3.87,8.17,1.94,1.29,3.66,3.65,3.66,5.37,0,2.15,1.93,3.01,6.02,2.58,5.37-.64,5.8,0,6.45,7.31s1.29,8.17,6.66,8.17c3.44,0,7.31,1.51,8.82,3.23,3.22,3.87,6.45,2.36,6.45-3.44,0-5.38,6.45-5.38,7.96.21.64,2.37,3.66,4.95,6.88,5.59,3.01.86,6.66,2.58,7.74,4.08,2.36,2.8,12.26,5.59,20,5.8,8.81,0,11.18-2.15,11.18-10.53.06-11.27,7.34-21.24,18.06-24.72,5.02-1.48,9.35-4.68,12.25-9.03,6.45-10.96,8.39-12.47,15.05-10.96,9.67,2.15,10.96-.22,5.8-10.32-3.66-6.88-4.73-13.33-5.16-27.52-.64-26.66-1.94-31.18-9.89-33.97-9.89-3.44-13.98-7.96-17.85-19.57-3.22-9.67-4.08-10.53-12.04-11.82-9.24-1.5-12.25-7.1-9.46-17.84.65-3.22,1.94-9.03,2.58-13.12,1.29-7.95,1.08-8.17-13.97-1.93-6.88,2.58-7.52,2.36-11.61-2.37-5.16-6.66-9.67-4.51-13.33,6.02-3.44,10.75-9.03,13.33-14.4,6.88-2.39-3.27-3.81-7.15-4.09-11.18,0-6.88-1.5-7.74-5.16-3.22-3.66,4.52-10.74,6.02-15.05,2.8-2.36-1.72-4.3-7.31-5.38-15.05-.86-6.66-2.15-12.9-3.01-13.54-.64-.86-4.52-1.72-8.39-2.15-15.48-1.94-19.13-16.56-5.81-23.44,5.81-3.22,6.24-4.08,4.95-11.4-2.37-14.83-3.01-15.91-7.96-14.4-2.58.64-8.82,1.94-13.54,2.58-10.11,1.29-12.69-.86-12.69-11.18v-6.44l-20.42-1.72c-11.18-.86-28.59-2.37-38.7-3.23-20.42-1.72-49.45,2.58-58.91,9.03-7.1,4.52-10.54,4.3-15.26-.86-2.15-2.36-5.59-4.3-7.74-4.3-3.29-.26-6.5-1.13-9.46-2.58-7.31-3.22-6.88-10.54,1.08-16.34,7.52-5.59,7.96-7.52,2.8-12.9-2.71-2.7-5.16-5.65-7.31-8.82l-3.22-5.16-10.32,3.87-10.32,3.87-7.52-8.39q-7.74-8.17-9.89-3.44c-2.58,5.8-8.17,6.02-13.33.43-4.3-4.73-11.18-5.38-21.72-2.37-4.66,1.27-9.63.82-13.98-1.29-4.44-1.86-9.05-3.3-13.76-4.3-3.44-.64-6.88-1.94-7.31-3.22-2.8-7.74-10.54-12.9-22.14-14.41-7.24-.75-14.14-3.42-20-7.74-5.9-3.96-12.16-7.35-18.7-10.1-17.84-6.66-40.42-18.06-60.84-30.32-10.54-6.45-22.36-12.47-26.02-13.12l-6.45-1.5-3.01,26.02Z"/>
    </g>
  </g>
</svg>