<?xml version="1.0" encoding="utf-8"?>
<!-- Generator: Adobe Illustrator 27.1.1, SVG Export Plug-In . SVG Version: 6.00 Build 0)  -->
<svg version="1.1" id="Layer_1" xmlns="http://www.w3.org/2000/svg" xmlns:xlink="http://www.w3.org/1999/xlink" x="0px" y="0px"
	 viewBox="0 0 750 750" style="enable-background:new 0 0 750 750;" xml:space="preserve">
<g>
	<g>
		<path class="st0" d="M22.86,108.92c0,1.44,0,2.88,0,4.32c0,0.96-0.01,1.93,0,2.89c0.02,1.66-0.43,3.03-0.61,4.64
			c-0.39,3.55,0.03,7.41,0.03,10.99c0,1.69,0.05,3.05,0.45,4.63c0.17,0.67,0.03,1.32,0.18,1.97c0.12,0.52,0.81,1.12,0.98,1.63
			c0.83,2.47,0.83,5.12-1.14,7.26c-0.7,0.76-1.22,0.99-1.75,1.98c-0.6,1.11-1.35,2.16-1.78,3.35c-0.46,1.27-1.58,4.09-0.94,5.45
			c0.5,1.07,1.83,1.04,2.7,1.62c2.02,1.33,2.84,3.75,2.5,6.1c-0.33,2.32-1.66,4.68-2.65,6.79c-1.08,2.31-2.1,4.79-2.75,7.24
			c-0.51,1.94-1.46,3.9-1.58,5.87c-0.12,1.95-1.03,4.23-2.44,5.7c-1.13,1.18-2.29,1.96-3.21,3.44c-0.79,1.26-1,3.15-0.74,4.63
			c0.32,1.78,0.87,3.98,1.61,5.67c1.01,2.3,3.56,3.59,5.65,4.79c1.62,0.94,2.72,2.73,4.31,3.58c1.98,1.06,3.72,2.1,5.63,3.33
			c2.07,1.34,5.27,2.09,7.7,2.3c2.97,0.26,6.06,1.82,8.48,3.5c0.9,0.62,1.42,1.32,1.95,2.28c0.37,0.67,0.47,1.39,0.83,2.05
			c0.98,1.8,3.76,2.14,4.25,4.32c0.51,2.26-2.16,4.33-3.47,5.87c-3.09,3.63-6.38,6.96-9.75,10.34c-1.5,1.5-2.89,2.74-4.51,4.05
			c-0.88,0.71-1.3,1.38-1.81,2.37c-1.7,3.29-3.39,6.67-4.9,10.05c-0.48,1.09-1.34,2.91-1.5,4.08c-0.15,1.12,0.39,1.68,1,2.58
			c1.41,2.07,3.12,4.55,5.93,4c2.65-0.51,5.19-0.6,7.81-1.4c3.1-0.94,5.49-2.33,8.37-3.76c1.31-0.65,2.64-1.59,4.11-1.78
			c0.63-0.08,1.32,0.12,1.96,0.06c1.3-0.11,2.5-0.56,3.83-0.63c2.68-0.14,4.21,0.43,6.58,1.62c3.06,1.53,7.17,1.55,9.15,4.63
			c1.77,2.76,0.13,6-0.6,8.99c-0.54,2.22-0.57,4.39-0.85,6.65c-0.21,1.73-0.73,3.58-0.46,5.35c0.21,1.4,0.61,2.53,0.63,3.98
			c0.04,2.78-0.47,5.68-0.97,8.4c-0.8,4.41-2.08,8.94-1.97,13.44c0.07,2.85,1.88,6.7,4.12,8.53c1.14,0.93,2.61,1.61,3.98,2.05
			c2.12,0.68,3.37,1.71,5.28,2.85c3.18,1.91,7.36,2.47,10.95,1.92c2.05-0.31,5.69-0.64,7.76-0.2c2.6,0.56,2.32,4.88,1.94,6.98
			c-0.3,1.63-0.98,3.07-1.49,4.63c-0.59,1.8-0.53,3.44-0.69,5.28c-0.16,1.79-0.43,4.04-1.73,5.29c-1.86,1.79-4.68,0.88-7.06,0.99
			c-1.12,0.05-2.21,0.26-3.26,0.6c0.21,0.47,0.33,1,0.42,1.45c0.12,0.56-0.03,1.13,0.1,1.69c0.14,0.63,0.46,1.02,0.53,1.78
			c0.18,1.89,0.93,4,1.81,5.71c1.08,2.11,1.66,3.68,1.66,6.15c0,2.58,0.6,5.19,1.44,7.52c0.58,1.6,1.71,3.37,2.87,4.6
			c0.92,0.97,2.09,1.56,3.05,2.46c1.09,1.02,2.2,2.05,3.49,2.92c1.03,0.7,2.26,1.3,3.29,2.05c0.8-0.7,1.02-1.7,2.08-2.79
			c1.83-1.89,3.5-3.8,5.18-5.76c1.37-1.6,2.25-3.47,3.77-4.95c1.28-1.25,2.43-2.57,3.43-4.06c1.02-1.53,1.03-3.43,1.61-5.16
			c0.91-2.73,2.42-5.52,3.79-8.04c1.19-2.19,2.83-4,4.99-5.29c2.51-1.51,5.34-2.13,7.85-3.74c2.27-1.45,3.65,0.43,5.23,2.15
			c1.89,2.06,3.96,3.88,5.77,6.05c2.17,2.6,4.38,4.71,7.25,6.54c0.94,0.6,1.97,1.07,2.86,1.74c0.63,0.48,0.94,0.95,1.76,0.84
			c0.6-0.08,1.91-1.05,2.44-1.4c1.06-0.69,1.94-1.71,2.92-2.52c2.25-1.86,4.13-3.54,5.96-5.86c0.87-1.1,1.32-2.3,2.06-3.48
			c0.97-1.56,2.17-2.81,3.41-4.14c1.94-2.07,4.04-3.82,5.48-6.31c1.61-2.79,3.19-5.22,4.05-8.36c0.6-2.2,2.17-4.17,3.42-6.08
			c0.98-1.49,1.8-2.63,3.48-3.35c0.44-0.19,0.87-0.33,1.29-0.43c-0.08-0.3-0.16-0.57-0.24-0.78c0.08,0.21,0.16,0.49,0.24,0.78
			c0.52-0.13,1.05-0.22,1.63-0.28c1.29-0.13,2.28-0.66,3.5-1.05c2.31-0.74,4.14-0.83,5.49-3.07c1.24-2.06,2.39-4.18,3.42-6.36
			c1.01-2.15,2.92-3.28,4.23-5.26c1.09-1.65,2.14-3.11,3.49-4.58c0.96-1.04,2.18-1.91,3.07-2.99c2.44-2.94,2.62-6.76,1.81-10.26
			c-0.43-1.83-0.01-3.87-0.17-5.74c-0.26-2.88-1.09-5.38-2.32-7.96c-1.14-2.39-2.33-4.43-2.84-7c-0.36-1.78-0.72-3.58-1.16-5.35
			c-0.63-2.51-0.33-4.08-0.05-6.64c0.29-2.67-0.19-5.13-0.48-7.76c-0.27-2.5-0.19-5.27,0.49-7.69c0.88-3.16,2.5-5.26,4.13-8.01
			c1.1-1.85,1.84-3.61,2.49-5.67c0.37-1.16,0.78-2.37,0.91-3.58c0.16-1.5-0.33-2.84-0.51-4.3c-0.26-2.1,0.11-3.07,1.1-4.88
			c1.33-2.44,2.49-4.98,3.77-7.45c1.06-2.06,2.78-3.77,3.79-5.86c0.92-1.93,1.18-4.32,1.12-6.43c-0.07-2.55-0.8-5.06-2.6-6.91
			c-0.65-0.67-1.41-1.65-2.11-2.17c-1.63-1.22-3.98-1.3-5.83-1.99c-2.13-0.8-3.09-2.31-4.78-3.64c-1.37-1.08-2.94-1.71-4.55-2.24
			l0,0c-1.25-0.42-2.53-0.78-3.75-1.24c-1.82-0.68-3.6-1.43-5.4-2.15c-2.29-0.92-3.49-2.7-5.57-3.97c-1.53-0.94-3.51-1.64-4.74-2.93
			c-1.17-1.23-1.75-3.16-2.75-4.55c-1.79-2.48-5.49-1.79-7.96-3.67c-2.86-2.17-6.72-2.13-10.08-3.37c-3.31-1.22-6.36-2-9.85-2.16
			c-2.62-0.12-5.53-2.55-7.52-4.09c-2.13-1.64-4.71-2.8-6.36-4.83c-0.74-0.91-1.63-1.73-2.26-2.73c-0.65-1.03-0.98-2-1.82-2.91
			c-1.34-1.45-2.83-2.96-4.3-4.28c-0.94-0.84-2.54-1.98-3.7-2.44c-1.13-0.45-1.95-0.72-2.99-1.33c-0.63-0.37-1.01-0.44-1.69-0.68
			c-2.33-0.8-4.34-2.41-6.37-3.65c-1.84-1.14-3.42-2.46-5.2-3.74c-1.81-1.3-3.45-1.85-5.47-2.33c-1.22-0.29-2.2-0.45-3.35-1
			c-0.79-0.38-1.55-0.77-2.32-1.16c-0.97-0.48-1.78-0.74-2.6-1.45c-0.62-0.53-1.16-1.16-1.74-1.73c-2.44-2.43-3.65-3.82-6.45-5.42
			c-2.5-0.22-4.18-0.84-5.28-1.39c-0.41-0.2-0.87-0.47-1.67-0.8c-1.1-0.46-2.2-0.78-3.48-1.06c-1.99-0.45-4.5-0.46-6.29-1.56
			c-1.71-1.06-2.5-1.95-4.59-2.47c-2.94-0.73-4.1-2.58-6.24-4.47c-2.85-2.51-6.72-4.5-10.15-6.08c-1.22-0.56-2.41-1.14-3.56-1.84
			c-1.73-1.06-2.94-2.42-4.54-3.6c-1.75-1.3-4.01-1.69-5.23-3.7c-0.72-1.18-0.92-2.53-2.19-3.35c-1.47-0.95-3.41-0.48-5.03-1.26
			c-1.6-0.78-2.35-1.03-4.3-1.02c-1.64,0.01-3.28-0.04-4.92-0.02c-2.41,0.03-3.98,0.94-6.07,1.79c0,0,0,0-0.01,0
			c-0.47,1.35-1.1,2.7-1.69,3.87c-1.01,1.98-2.36,3.5-3.91,4.94c0.27,1.41,0.57,2.79,0.95,4.18C22.97,103,22.86,105.9,22.86,108.92z
			"/>
		<path class="st0" d="M639.2,664.53c1.59-4.64,4.34-6.72,8.09-9.65c2.32-1.82,4.84-3.37,7.19-5.15c-0.02-0.3-0.04-0.6-0.04-0.88
			c0,0.28,0.02,0.58,0.04,0.88c0.17-0.13,0.35-0.25,0.52-0.39c1.03-0.8,1.98-1.66,3.16-2.24c2.59-1.29,5.07-2.86,7.84-3.62
			c1.4-0.39,2.63-0.98,4.11-0.63c1.13,0.27,2.15,1.4,3.31,1.36c2.18-3.38,1.87-7.83,1.83-11.63c-0.04-3.55,0.14-6.9,0.42-10.43
			c0.24-2.97,0.13-5.57,1.88-8.19c2.5-3.73,6.15-6.61,9.1-9.95c0.49-0.56,0.89-1.09,1.53-1.48c0.91-0.55,1.67-0.52,2.78-0.58
			c2.21-0.12,4.98-0.2,7.05-1.08c2.6-1.1,3.57-3.36,4.36-5.92c1.37-4.4,4.42-7.31,8.86-8.63c2.21-0.66,4.55-0.92,6.68-1.83
			c3.17-1.35,6.41-3.15,9.23-5.09c0.98-0.68,3.01-2.76,5-4.05c-0.19-0.09-0.45-0.25-0.84-0.49c0.39,0.25,0.65,0.4,0.84,0.49
			c1.44-0.94,2.86-1.46,3.83-0.71c-0.1-1.18-0.81-2.49-1.17-3.63c-0.79-2.51-1.18-4.93-1.34-7.58c-0.18-2.91-0.02-5.68-0.41-8.58
			c-0.33-2.46-0.97-5.36,0.72-7.52c1.42-1.81,4.35-1.96,5.61-3.9c1.18-1.82,0.29-4.52-0.14-6.4c-1.25-5.49-4.06-10.71-4.91-16.25
			c-0.5-3.25-0.82-6.33-0.26-9.6c0.34-1.97,0.81-3.75,1.37-5.68c0.58-1.99,0.46-2.66,0.1-4.62c-0.33-1.82,0.04-3.65-0.27-5.46
			c-0.08-0.46-0.25-1.4-0.44-1.78c-0.04-0.3-0.18-0.54-0.38-0.75c-0.08,0.14-0.16,0.28-0.23,0.44c-0.1,0.54-0.28,1.06-0.52,1.55
			c-0.35,0.49-0.76,0.91-1.24,1.27c-0.29,0.44-0.34,1.02-0.6,1.39c-0.89,1.24-0.89,0.62-2,0.39c-1.34-0.28-2.26-0.3-3.15-1.48
			c-0.61-0.8-1.18-2.09-1.64-2.96c-0.71-1.34-1.26-2.3-2.67-3.15c-1.22-0.74-2.28-1.56-3.48-2.31c-1.91-1.21-4.5-3.56-5.78-5.45
			c-0.66-0.97-1.15-2.22-1.72-3.25c-0.83-1.51-1.65-2.49-2.9-3.7c-2.72-2.64-2.03-6.23-2.02-9.72c0.01-1.76,0.46-3.88-0.65-5.39
			c-0.98-1.34-3.54-2.02-5.13-2.01c-1.28,0.01-2.47,0.6-3.75,0.66c-0.89,0.04-1.81-0.03-2.7-0.02c-2.91,0.01-5.28-0.04-8-1.11
			c-2.17-0.86-4.3-1.84-5.8-3.64c-0.9-1.08-2.13-2.3-2.34-3.67c-0.36-2.39,1.16-4.49,2.08-6.57c0.86-1.95,1.34-4.01,2.12-5.97
			c0.96-2.41,2.48-5.11,4.07-7.14c0.97-1.23,3.29-2.89,3.83-4.41c0.59-1.66-1.19-4.17-2.33-5.1c-2.09-1.71-3.97-2.88-5.56-5.14
			c-1.43-2.03-2.19-4.39-3.76-6.3c-0.97-1.18-2.06-2.11-3.3-3c-3.95-2.82-8.73-1.76-13.09-3.48c-2.56-1.01-5.09-0.29-7.77,0.16
			c-1.23,0.21-2.38,0.49-3.64,0.48c-1.38-0.01-2.07-0.48-3.3-0.67c-2.04-0.32-4.44,0.32-6.2,1.32c-2.39,1.36-3.89,3.5-5.46,5.65
			c-1.9,2.61-4.05,5.02-5.91,7.66c-1.03,1.46-2.56,2.91-3.79,4.22c-0.53,0.56-1.29,1.02-1.78,1.58c-0.43,0.5-0.62,1.13-1.08,1.61
			c-1.5,1.53-4.35,2.12-6.38,1.59c-2.31-0.6-4.07-2.71-5.35-4.51c-0.92-1.3-1.95-2.18-2.75-3.59c-0.76-1.35-1.35-2.63-1.89-4.08
			c-0.74-1.95-1.1-3.69-2.14-5.4c-1.24-2.02-3.62-4.82-6.39-4.32c-2.18,0.4-4.33,1.87-6.35,2.76c-1.54,0.68-2.91,1.52-4.51,2.05
			c-0.68,0.23-2.37,1.1-3.05,1.06c-0.43-0.03-1.8-0.81-2.29-1.04c-1.09-0.52-1.93-1.28-2.67-2.18c-3.25-3.94-2.53-8.79-2.53-13.61
			c0-2.18-0.18-4.3,0.44-6.35c0.62-2.05,1.33-3.84,2.31-5.8c2.07-4.15,4.44-8.21,6.36-12.29c1.38-2.93,3.5-5.54,4.77-8.5
			c0.9-2.09,1.57-4.26,2.33-6.41c0.47-1.32,0.42-1.78,1.05-2.66c-0.36-0.16-0.67-0.02-1.46,0.19c-1.15,0.31-2.27,0.68-3.39,1.05
			c-2.43,0.8-5.08,0.85-7.54,1.56c-1.81,0.52-3.66,1.01-5.45,1.57c-1.43,0.45-2.71,1.27-4.16,1.65c-1.63,0.42-3.44,0.69-5.09,1.03
			c-1.07,0.21-1.77-0.14-2.85-0.33c-1.83-0.32-4.01-0.39-5.84-1.06c-0.02,0.26-0.04,0.52-0.12,0.81c-0.08,0.32-0.41,0.44-0.48,0.82
			c-0.29,1.71-0.19,4.21,0,5.93c0.32,2.88,1.19,5.44,1.19,8.42c0,1.37-0.14,2.82,0.05,4.18c0.12,0.84,0.48,1.61,0.56,2.45
			c0.06,0.67-0.15,1.38-0.06,2.04c0.33,2.63,0.96,5.21,0.63,7.93c-0.12,0.99-0.53,1.82-1.16,2.61c-0.99,1.22-1.4,2.07-1.89,3.61
			c-0.44,1.37-0.63,3-2.17,3.38c-0.71,0.17-1.86-0.06-2.6-0.05c-0.79,0-1.84-0.19-2.6-0.04c-1.45,0.29-2.07,1.92-3.5,2.42
			c-1.32,0.46-1.55-0.12-2.56-0.94c-0.91-0.74-1.89-1.06-2.86-1.73c-0.35-0.24-0.7-0.48-1.06-0.73c-0.13,0.54-0.26,1.08-0.41,1.58
			c-0.24,0.8-0.85,1.74-1.04,2.46c-0.27,1.02-0.13,2.14-0.13,3.2c0,3.57,0.26,6.98-0.74,10.42c-1.03,3.57-2.07,7.29-2.73,10.97
			c-0.31,1.71-0.82,3.24-1.31,4.9c-0.54,1.81-0.43,3.49-0.42,5.38c0.04,4.2-1.09,8.94-2.34,12.93c-0.84,2.68-2.3,5.26-4.04,7.47
			c-1.34,1.71-2.99,3.15-4.34,4.88c-1.44,1.84-2.57,3.72-3.88,5.64c-0.73,1.08-1.75,3.3-3.37,2.94c-0.64-0.14-0.92-0.54-1.65-0.63
			c-0.88-0.11-1.75-0.1-2.61-0.07c0.24,0.74,0.24,1.48,0.24,2.68c0,0.77,0.04,1.55,0.01,2.31c-0.04,0.89-0.37,1.48-0.53,2.31
			c-0.15,0.77,0.06,1.54-0.03,2.31c-0.09,0.83-0.52,1.49-0.62,2.31c-0.17,1.48,0.02,3.13,0.02,4.63c0,3.49-0.02,6.97,0,10.46
			c0.02,3.22-1.47,6.37,0.15,9.49c0.88,1.7,1.44,3.28,2.48,4.91c1.02,1.59,1.4,4.43,1.45,6.32c0.08,3.3-0.48,6.54,0.9,9.63
			c0.93,2.09,2.37,4.16,3,6.35c0.49,1.69,0.96,3.49,1.32,5.2c0.37,1.76,0.56,3.66,0.55,5.5c-0.01,1.61,0.22,2.94-0.57,4.31
			c-0.97,1.69-2.16,2.04-3.84,2.88c-1.47,0.74-2.84,1.8-4.24,2.67c-2.04,1.27-3.62,3.06-5.23,4.83c-1.19,1.32-1.77,3.05-2.89,4.39
			c-0.61,0.73-1.38,1.01-2.05,1.7c-0.52,0.53-0.86,1.12-1.39,1.6c-0.62,0.56-1.41,0.85-2.06,1.36c-0.79,0.61-1.39,1.42-2.12,2.1
			c-2.97,2.76-6.99,4.75-11.03,5.08c-3.51,0.28-6.69,2.06-9.4,4.34c-2.49,2.09-3.18,3.66-3.18,6.94c0,0.12,0,0.24,0,0.35
			c0.26-0.05,0.56,0.02,1.15,1.09c1.32,2.36,4.27,3.52,4.64,6.35c0.19,1.48-0.01,3.14-0.01,4.64c0,0.76,0.05,1.55,0.01,2.31
			c-0.05,0.95-0.5,1.67-0.61,2.6c-0.17,1.42,0,3.08,0.31,4.34c0.26,1.02,0.74,2.61,2,3.08c1.35,0.5,3.38-0.8,4.65-1.2
			c1.76-0.55,3.06-1.08,4.6-2.02c1.56-0.96,2.91-2.29,4.5-3.2c0.82-0.47,1.57-0.78,2.34-1.3c0.67-0.45,1.48-1.07,2.44-1.18
			c1.87-0.22,3.76,1.91,5.08,2.94c1.93,1.5,3.6,3.47,5.33,5.21c1.88,1.89,3.91,3.65,5.8,5.52c0.74,0.73,1.15,0.69,1.99,1.16
			c1.09,0.61,1.95,1.52,3.22,1.87c2.18,0.6,3.3-1.55,4.76-2.78c1.82-1.54,3.77-4.43,3.21-6.97c-0.88-3.93-4.88-6.84-6.42-10.51
			c-0.36-0.87-0.26-1.78-0.53-2.63c-0.14-0.44-1-1.15-0.36-1.78c0.37-0.36,2.19-0.09,2.64-0.09c1.22,0,2.46,0.06,3.68,0.02
			c1.39-0.04,2.61-0.56,4-0.62c1.44-0.06,2.65,0.1,4.05,0.33c4.2,0.68,4.11-2.76,4.69-6c0.44-2.48,2.11-4.21,3.05-6.53
			c0.39-0.97,0.84-2.07,0.96-3.11c0.1-0.98-0.23-1.65,0.38-2.53c1.73-2.48,5.92-3.67,8.5-4.96c1.15-0.58,1.53-0.61,2.64-0.87
			c2.46-0.56,4.82-2.5,6.85-0.01c1.38,1.7,2.46,3.42,4.64,4.23c0.64,0.24,1.74,0.17,1.92,0.9c0.09,0.36-0.54,1.1-0.62,1.26
			c-0.61,1.2-1.05,2.42-1.51,3.69c-0.48,1.32-0.83,2.24-0.84,3.6c-0.01,1.06-0.46,3.58,0.1,4.6c0.55,1.01,2.53,1.04,3.5,1.22
			c2.17,0.4,4.14,1.26,6.24,1.89c2.09,0.63,4.09,1.46,6.14,2.18c1.25,0.44,2.56,1.07,3.01,2.44c0.7,2.13-0.95,4.21-0.39,6.45
			c0.22,0.88,0.73,1.74,1.05,2.6c0.6,1.62,0.87,3.64,2.34,4.78c0.98,0.75,3.03,1.21,4.02,1.61c1.85,0.74,3.55,1.59,5.19,2.74
			c1.67,1.17,3.28,2.34,4.82,3.66c1.31,1.12,3.32,3.4,5.15,3.04c1.04-0.21,2.15-1.22,3.02-1.65c1.77-0.86,3.49-0.79,5.38-0.34
			c3.98,0.95,7.26,2.81,10.9,4.56c1.93,0.92,2.69,1.98,4.27,3.33c2.16,1.85,4.19,3.74,6.43,5.5c2.67,2.09,3.5,4.81,4.65,7.9
			c0.87,2.35,1.74,4.74,1.74,7.29c0,0.31-0.02,0.63-0.03,0.94c0.28-0.21,0.62-0.47,1.05-0.82c-0.43,0.35-0.77,0.61-1.05,0.82
			c-0.16,2.88-1.02,5.95-1.76,8.66C640.31,659.35,638.4,663.74,639.2,664.53z"/>
		<path class="st0" d="M224,191.81c1.86,0.7,4.2,0.77,5.83,1.99c0.7,0.52,1.46,1.5,2.11,2.17c1.8,1.86,2.53,4.37,2.6,6.91
			c0.06,2.11-0.2,4.51-1.12,6.43c-1,2.09-2.72,3.8-3.79,5.86c-1.28,2.47-2.44,5-3.77,7.45c-0.99,1.81-1.36,2.77-1.1,4.88
			c0.18,1.47,0.67,2.8,0.51,4.3c-0.13,1.21-0.54,2.42-0.91,3.58c-0.65,2.06-1.4,3.82-2.49,5.67c-1.63,2.75-3.25,4.85-4.13,8.01
			c-0.68,2.42-0.76,5.19-0.49,7.69c0.29,2.63,0.77,5.09,0.48,7.76c-0.28,2.55-0.58,4.13,0.05,6.64c0.44,1.77,0.8,3.57,1.16,5.35
			c0.51,2.57,1.7,4.61,2.84,7c1.23,2.58,2.06,5.08,2.32,7.96c0.17,1.87-0.25,3.91,0.17,5.74c0.81,3.5,0.63,7.32-1.81,10.26
			c-0.9,1.08-2.12,1.94-3.08,2.99c-1.35,1.47-2.4,2.93-3.49,4.58c-1.31,1.98-3.22,3.11-4.23,5.26c-1.02,2.18-2.17,4.3-3.42,6.36
			c-1.34,2.23-3.18,2.33-5.49,3.07c-1.22,0.39-2.2,0.91-3.49,1.05c-0.58,0.06-1.11,0.15-1.63,0.28c0.28,1.06,0.58,2.51,1.06,3.18
			c1.06,1.48,2.85,3.03,3.34,4.76c0.16,0.57-0.03,1.08,0.1,1.64c0.12,0.52,0.51,0.57,0.64,1.09c0.2,0.83-0.03,2.07-0.03,2.92
			c0,1.12,0.1,2.27-0.13,3.34c-0.03,0.13-0.42,0.43-0.48,0.68c-0.16,0.67,0.03,1.65,0.03,2.34c0.01,1.54-0.6,4.89,0.12,6.25
			c0.84,1.59,3.67,2.58,5.11,3.44c1.68,1,3.03,2.25,4.62,3.49c1.87,1.45,2.8,3.75,4.63,5.22c1.39,1.11,3.27,0.85,4.77,1.7
			c2.33,1.31,1.71,3.79,2.28,5.96c0.38,1.45,0.37,2.64,0.44,4.19c0.03,0.66,0.2,2.23,0.69,2.76c1.52,1.67,5.33-0.05,7.42,0.96
			c2.34,1.13,4.04,4.46,4.51,6.97c0.17,0.9,0.07,1.69,0.1,2.6c0.03,1,0.3,1.67,0.47,2.62c0.29,1.69,0.37,3.17,0.87,4.87
			c0.53,1.81,0.27,3.59,0.71,5.39c0.35,1.42,0.38,2.78,0.73,4.2c0.31,1.27,0.54,1.7,1.64,2.44c1.31,0.89,2.29,1.66,3.25,2.88
			c1.09,1.4,2.32,1.45,3.74,2.27c1.24,0.72,2.21,1.7,3.56,2.28c0.95,0.41,1.68,0.65,2.57,1.24c1.29,0.86,2.36,1.85,3.92,2.21
			c1.36,0.31,2.29-0.19,2.73,1.4c0.84,3.06-1.08,6.58-1.04,9.73c0.02,1.27-0.26,2.8,0.13,4.02c0.21,0.66,0.74,1.21,1.04,1.82
			c0.64,1.33,0.97,2.86,1.38,4.27c0.36,1.26,0.48,2.71,1.58,3.57c1.1,0.86,2.75,1.25,3.96,2.01c0.96,0.6,1.57,1.41,2.45,2.09
			c0.94,0.72,2.2,0.98,3.24,1.54c1.81,0.98,3.71,2.3,4.2,4.38c0.65,2.79-3.39,6.35-0.08,8.56c1.2,0.8,3.33,1.03,4.75,1.37
			c1.94,0.47,3.94,0.85,5.83,1.45c3.02,0.95,6.05,1.69,7.56,4.77c0.21,0.44,0.31,0.85,0.33,1.24c0.18-0.04,0.38-0.1,0.66-0.19
			c3.26-0.96,5.22-4.28,6.96-6.85c1.24-1.85,2.52-3.6,4.06-5.21c0.46-0.49,1.01-1.3,1.64-1.61c0.97-0.48,2.6,0.03,3.66-0.15
			c3.25-0.54,5.42-3.38,7.75-5.42c1.15-1.01,2.15-1.31,3.31-2.14c1.77-1.26,4.01-4.32,5-6.26c0.56-1.09,0.65-1.66,0.62-2.92
			c-0.04-1.43-0.67-3.13-0.58-4.46c0.08-1.17,1.12-2.96,1.63-4.02c1.08-2.25,2.81-3.84,4.04-5.97c1.36-2.35,2.52-4.88,3.55-7.38
			c0.42-1.01,1.2-2.08,1.72-3.17c-0.28-0.14-0.55-0.27-0.83-0.34c0.28,0.08,0.55,0.2,0.83,0.34c0.27-0.57,0.47-1.14,0.51-1.72
			c0.11-1.78-0.48-4.29-1.06-6c-0.68-2-1.03-2.25-2.78-3.11c-1.54-0.75-2.34-1.64-3.55-2.75c-1.73-1.58-4-2.63-5.81-4.18
			c-1.48-1.26-2.85-2.56-4.09-4.08c-1.21-1.48-1.72-3.23-2.83-4.77c-0.9-1.24-2.15-2.11-2.37-3.63c-0.45-3.19-0.54-6.27-0.56-9.53
			c-0.01-1.48-0.08-2.75,0.71-4.05c0.72-1.19,1.58-2.05,2.04-3.43c1.26-3.79,2.24-7.56,2.49-11.59c0.1-1.64-0.08-3.31-0.06-4.95
			c0.03-2.18,0.84-3.98,1.34-6.06c1.11-4.58,2.92-9.01,5.62-12.89c0.98-1.41,1.24-1.66,2.89-1.56c1.48,0.09,1.83,0.83,3.01,1.75
			c1.53,1.19,3.18,2.12,5.05,2.63c1.69,0.46,2.35-0.1,3.73-1.18c2.4-1.89,4.81-2.98,7.88-2.48c2.03,0.33,3.75,0.32,5.33,1.74
			c1.36,1.22,2.9,1.68,4.34,2.73c1.64,1.2,3.26,2.52,4.68,3.96c0.46,0.47,1.23,1.55,1.85,2.09c0.02-0.76,0.11-1.5-0.19-2.45
			c0.3,0.94,0.2,1.69,0.19,2.45c0.16,0.14,0.32,0.25,0.45,0.3c0.17-1.32,0.71-2.08,0.69-3.43c-0.02-1.34,0.02-2.69,0-4.03
			c-0.03-2.58,0.91-5.1,1.72-7.53c0.93-2.79,1.82-5.73,2.9-8.44c0.7-1.76,1.57-3.32,2.44-4.96c0.99-1.86,1.76-3.92,2.91-5.7
			c2.26-3.49,6.25-5.21,8.4-8.66c1.78-2.87-0.81-5.01-2.04-7.52c-0.72-1.47-1.8-2.66-2.46-4.13c-0.86-1.93-1.32-3.61-2.87-5.13
			c-1.24-1.21-2.52-2.26-4.07-3.02c-1.24-0.61-2.43-1.16-3.5-2.04c-0.25-0.21-0.48-0.42-0.72-0.63c-0.17,0.38-0.3,0.72-0.38,0.98
			c0.08-0.26,0.21-0.6,0.38-0.98c-1.19-1.06-2.23-2.18-3.16-3.55c-1.82-2.69-3.92-4.58-6.66-6.37c-2.51-1.64-5.35-1.75-7.94-2.98
			c-0.9-0.43-1.51-1.49-2.31-2.08c-0.51-0.38-1.18-0.83-1.73-1.16c-0.87-0.53-2.02-0.75-2.34-1.84c-0.28-0.95,0.03-2.5,0.03-3.5
			c0-0.51-0.15-1.27-0.03-1.77c0.06-0.25,0.45-0.55,0.48-0.68c0.48-2.29,0.13-5.02,0.13-7.39c0-2.12,0-4.24,0-6.36
			c0-1.22,0.31-2.9,0.03-4.08c-0.13-0.52-0.51-0.57-0.64-1.1c-0.12-0.49,0.03-1.25,0.03-1.77c0.02-2.22,0.01-4.43,0-6.65
			c-0.01-2.46,0.6-4.75,1.58-6.78c0.49-1.03,1.16-2.18,1.35-3.34c0.09-0.58-0.06-1.03,0.1-1.61c0.08-0.29,0.4-0.57,0.48-0.98
			c0.18-0.93-0.5-2.27-0.73-3.2c-0.25-1.02-0.53-2.45-0.79-3.57c-0.25,0.15-0.61,0.15-1.32,0c-1.54-0.34-2.97-1.5-4.71-1.1
			c-2.04,0.48-3.84,2.92-5.6,4c-2.67,1.63-6.37,1.75-9.36,2.58c-1.74,0.48-2.67-0.23-4.14-1.34c-3.11-2.35-6.02-4.88-9.35-6.95
			c-3.6-2.24-7.46-3.47-11.58-3.45c-0.87,0-4.37-0.59-4.97,0.09c-0.36,0.41-0.19,2.17-0.5,2.8c-0.76,1.56-1.93,2.15-3.38,2.9
			c-1.27,0.65-1.04,0.47-2.31,0.06c-1.41-0.46-2.66-0.66-4.14-0.65c-1.15,0.01-3.25,0.43-4.26,0.04c-0.59-0.22-0.56-0.7-1.05-1.05
			c-0.87-0.62-2.18-1.18-3.11-1.75c-1-0.62-2.33-1.06-3.22-1.85c-0.57-0.5-0.78-1.08-1.27-1.65c-0.91-1.06-1.73-1.92-2.57-3.05
			c-0.96-1.3-1.8-3.12-3.19-4.05c-2.13-1.43-5.15-0.93-7.58-1.71c-1.97-0.64-4.09-1.48-6.03-2.59c-0.72-0.41-1.73-1.26-2.62-1.21
			c-0.68,0.03-1.12,0.61-1.72,0.81c-1.33,0.44-1.52-0.07-2.27-1.02c-1.17-1.46-2.83-2.49-4.14-3.81c-0.74-0.74-0.93-1.05-1.82-1.58
			c-0.55-0.33-1.12-0.51-1.67-0.87c-0.97-0.64-1.77-1.53-2.83-2.04c-1.13-0.54-2.37-0.62-3.5-0.97c-1.63-0.5-3.32-1.2-5.18-1.17
			c-1.05,0.01-2.43,0.21-3.47,0.03c-1.07-0.19-1.76-0.61-2.89-0.61c-0.52,0-1.27-0.15-1.77-0.03c-0.52,0.13-0.57,0.51-1.1,0.64
			c-0.94,0.22-1.61,0.02-2.49,0.41c-1.5,0.66-2.72,1.38-3.91,2.58c-0.25,0.26-0.53,0.53-0.79,0.81c1.61,0.53,3.18,1.16,4.55,2.24
			C220.91,189.5,221.86,191.01,224,191.81z"/>
		<path class="st0" d="M474.86,580.88c2.71-2.28,5.9-4.05,9.4-4.34c4.05-0.33,8.06-2.31,11.03-5.08c0.73-0.68,1.34-1.49,2.12-2.1
			c0.64-0.5,1.44-0.79,2.06-1.36c0.54-0.49,0.87-1.07,1.39-1.6c0.68-0.68,1.45-0.97,2.05-1.7c1.12-1.34,1.7-3.08,2.89-4.39
			c1.6-1.78,3.18-3.56,5.23-4.83c1.4-0.87,2.77-1.93,4.24-2.67c1.69-0.84,2.88-1.19,3.84-2.88c0.79-1.38,0.56-2.7,0.57-4.31
			c0.01-1.85-0.17-3.75-0.55-5.5c-0.36-1.71-0.83-3.51-1.32-5.2c-0.63-2.18-2.07-4.25-3-6.35c-1.37-3.08-0.82-6.32-0.9-9.63
			c-0.04-1.89-0.43-4.73-1.45-6.32c-1.04-1.63-1.6-3.21-2.48-4.91c-1.62-3.12-0.13-6.27-0.15-9.49c-0.02-3.49,0-6.97,0-10.46
			c0-1.5-0.2-3.14-0.02-4.63c0.1-0.83,0.53-1.49,0.62-2.31c0.09-0.77-0.12-1.55,0.03-2.31c0.16-0.83,0.5-1.43,0.53-2.31
			c0.03-0.77-0.01-1.55-0.01-2.31c0-1.2,0-1.94-0.24-2.68c-2.02,0.08-3.98,0.29-5.89-0.77c-1.51-0.84-3.14-1.72-4.78-2.28
			c-1.15-0.39-3.36-1.09-4.61-0.98c-0.99,0.09-2.17,0.55-3.18,0.74c-2.21,0.42-4.27,1.33-6.32,2.21
			c-7.83,3.39-15.73,4.62-24.22,4.63c-1.93,0-3.82-0.13-5.72,0.26c-1.92,0.4-3.5,1.55-5.37,1.96c-3.01,0.66-5.25-1.14-7.91-2.07
			c-3.61-1.27-5.25-4.29-7.81-6.84c-1.42-1.42-3.07-2.84-5.06-3.18c-2.24-0.39-5.12,0.09-7.27,0.6c-3.33,0.79-4.78,4.21-6.84,6.7
			c-1.9,2.29-4.68,4.11-7.11,5.68c-1.59,1.03-3.32,1-5.13,1.66c-0.92,0.33-1.08,0.61-2.01,0.03c-0.63-0.39-1.02-1.01-1.56-1.47
			c-1.74-1.49-2.3-1.75-2.34-4.19c-0.02-1.4-0.56-2.65-0.6-4.05c-0.05-1.42-0.17-2.41-0.49-3.79c-0.39-1.7-0.88-3.72-1.79-5.19
			c-0.84-1.37-2.17-2.81-3.49-3.62c-1.68-1.03-3.11-2.46-4.87-3.55c-3.32-2.05-7.19-2.7-10.17-5.53c-1.61-1.53-2.71-3.09-4.64-4.22
			c-1.24-0.72-2.36-1.49-3.44-2.44c-2.84-2.48-5.14-5.51-8-7.97c-0.98-0.84-1.97-1.32-2.86-2.3c-1.1-1.2-2.08-2.58-3.45-3.48
			c-1.33-0.88-3.23-1.23-4.79-1.59c-1.47-0.35-2.84-0.87-4.18-1.56c-1.41-0.73-2.96-2.41-4.52-3.21c-0.52,1.09-1.3,2.16-1.72,3.17
			c-1.04,2.5-2.19,5.03-3.55,7.38c-1.23,2.13-2.97,3.72-4.04,5.97c-0.51,1.07-1.55,2.86-1.63,4.02c-0.09,1.33,0.54,3.03,0.58,4.46
			c0.04,1.26-0.06,1.83-0.62,2.92c-0.99,1.94-3.22,5-5,6.26c-1.16,0.82-2.16,1.12-3.31,2.14c-2.32,2.04-4.5,4.88-7.75,5.42
			c-1.06,0.18-2.69-0.34-3.66,0.15c-0.63,0.31-1.17,1.12-1.64,1.61c-1.54,1.62-2.82,3.36-4.06,5.21c-1.73,2.58-3.7,5.9-6.96,6.85
			c-0.28,0.08-0.48,0.15-0.66,0.19c0.06,1.14-0.53,2.17-0.81,3.45c-0.46,2.13,0.12,4.34-0.35,6.42c-0.65,2.82-4.23,4.06-1.72,6.82
			c1.26,1.39,3.49,2.06,5.26,2.5c2.38,0.59,4.96,0.98,7.38,1.43c3.13,0.59,8.94-1.52,8.18,3.91c-0.3,2.11-1.54,4.18-2.98,5.67
			c-0.46,0.48-0.98,0.92-1.48,1.39c1.08,1.24,1.98,2.81,2.79,4.2c0.92,1.58,0.7,3.91,0.59,5.78c-0.06,1.1-0.45,2.28-0.72,3.34
			c-0.11,0.45-0.39,0.65-0.47,1.27c0.03,0.4,0.04,0.8,0.05,1.2c-0.04,0.32-0.2,0.55-0.49,0.68c-0.09,0.94,0.27,2.3,0.43,3.34
			c0.19,1.22,0.87,2.77,1.33,3.92c1.03,2.54,1.94,4.52,3.94,6.36c2.12,1.96,3.01,3.76,4.01,6.51c0.49,1.34,0.57,2.66,1,3.99
			c0.63,1.96,1.09,3.9,1.76,5.86c0.74,2.13,1.36,4.21,1.98,6.33c0.21,0.73,0.91,2.55,1.45,3.06c1.1,1.04,2.43,0.11,3.61-0.19
			c3.2-0.8,6.17-1.15,9.19-2.89c1.47-0.85,3.21-1.38,4.61-2.27c1.34-0.85,2.44-2.42,3.59-3.51c1.19-1.14,1.82-1.31,3.42-1.02
			c3.14,0.57,6.07,0.47,9.27-0.29c1.94-0.46,2.16-0.41,3.85,0.32c1.1,0.47,2.57,0.59,3.75,0.46c1.33-0.14,2.51-0.91,3.9-0.66
			c1.21,0.21,2.38,0.96,3.57,1.34c1.24,0.39,2.1,0.46,3.46,0.44c0.93-0.01,2-0.17,2.91,0.09c1.13,0.32,1.9,1.23,2.98,1.68
			c1.32,0.55,2.98,0.8,4.4,1c1.64,0.23,3.64,0.76,5.28,0.75c1.84-0.01,2.49-1,3.67-2.23c0.95-0.98,2.61-1.28,3.23-2.57
			c0.51-1.08,0.86-3.47,0.74-4.65c-0.07-0.62-0.38-1.1-0.51-1.69c-0.34-1.67,0.3-3.32,0.47-5c0.2-1.95,0.41-2.42,2.27-2.41
			c1.84,0,3.43,0.65,5.12,1.31c1.43,0.56,2.29,1.59,3.6,2.32c1.47,0.82,2.59,0.87,3.6,2.24c1.41,1.9,2.22,4.64,2.79,6.93
			c0.64,2.57,1.27,5.17,1.87,7.75c0.57,2.43,1.01,4.6,1,7.1c-0.01,0.98,0.02,1.96,0.04,2.94c0.07,0.01,0.22,0.03,0.54,0.07
			c0.95,0.11,1.97,0.34,2.89,0.56c1,0.24,2.15,0.87,3.02,1.04c1.12,0.23,1.74,0.18,2.76,0.71c1.32,0.69,2.99,1.14,3.92,2.44
			c1.06,1.48,1.78,4.48,1.88,6.23c0.05,0.95,0,1.94-0.02,2.89c-0.03,1.53-0.29,1.9-1.16,3.02c-1.27,1.64-2.83,2.88-4.23,4.29
			c1.56,0.61,3.75,1.83,4.81,1.94c1.51,0.16,2.73,0.85,4.34,0.53c1.22-0.24,2.32-0.9,3.45-1.13c0.68-0.14,1.34,0.08,2.05-0.11
			c0.9-0.24,1.32-0.46,2.31-0.45c0.57,0.01,1.19-0.08,1.75-0.01c1.07,0.13,0.77,0.14,1.5,0.81c1.34,1.23,2.58,0.99,4.4,0.95
			c2.13-0.04,4.04-0.96,6.1-1.2c1.42-0.17,2.41,0.72,3.59,0.51c1.37-0.24,3.22-1.69,3.94-2.79c0.83-1.27,0.72-2.56,0.7-3.98
			c-0.33,0.06-0.58,0.33-1.31-1.08c0.72,1.41,0.97,1.14,1.31,1.08c0-0.12,0-0.23,0-0.35C471.69,584.55,472.37,582.98,474.86,580.88z
			"/>
		<path class="st0" d="M376.83,286.05c1.55,0.76,2.83,1.81,4.07,3.02c1.55,1.52,2.02,3.2,2.87,5.13c0.66,1.48,1.74,2.66,2.46,4.13
			c1.22,2.51,3.82,4.65,2.04,7.52c-2.14,3.46-6.14,5.17-8.4,8.66c-1.15,1.78-1.92,3.84-2.91,5.7c-0.87,1.64-1.74,3.19-2.44,4.96
			c-1.08,2.72-1.98,5.66-2.9,8.44c-0.81,2.44-1.75,4.96-1.72,7.53c0.02,1.34-0.02,2.69,0,4.03c0.02,1.35-0.52,2.11-0.69,3.43
			c-0.13-0.04-0.29-0.16-0.45-0.3c-0.01,0.64,0.03,1.29,0.42,2.07c0.7,1.4,1.36,2.6,3.04,2.92c1.65,0.32,3.19-0.63,4.48,0.7
			c1.94,2,2.81,5.31,4.12,7.73c0.64,1.19,1.35,2.29,2.96,1.98c0.86-0.16,1.41-0.58,2.31-0.62c1.08-0.05,1.21-0.1,2.08-0.56
			c1.33-0.7,2.05-1.7,3.12-2.68c1.58-1.45,3.45-2.4,5.11-3.7c1.13-0.89,1.81-2.17,3.15-2.71c0.92-0.37,0.2-0.91,1.28-0.19
			c0.71,0.47,1.4,1.71,2.03,2.35c0.73,0.72,1.45,1.76,2.28,2.34c1.04,0.73,2.39,1.04,3.5,1.71c1.18,0.7,2.43,1.06,3.62,1.71
			c1.56,0.85,3.04,1.99,4.53,2.95c2.28,1.48,4.57,3.56,6.22,5.77c1.5,2.02,2.48,4.46,4.14,6.37c1.37,1.58,3.08,3.57,5.21,4.05
			c1.88,0.42,5.35,1.28,7.26,0.54c0.76-0.3,1.52-1.47,2.2-2c0.95-0.75,2.01-1.33,2.72-2.29c0.72-0.97,0.93-2.18,1.47-3.22
			c0.56-1.08,1.55-1.79,2.13-2.87c0.48-0.88,0.89-1.89,1.57-2.63c1.01-1.11,0.66-0.59,2.03-0.31c0.91,0.19,1.86-0.11,2.77,0.1
			c1.68,0.39,3.32,1.3,5.16,1.58c1.46,0.22,4.9-0.33,6.19,0.84c0.54,0.49,0.46,0.95,0.75,1.56c1.61,3.43,4.99,3.26,7.84,5.19
			c1.83,1.24,3.18,3.02,5.22,4.03c1.84,0.92,3.93,0.83,5.9,1.3c2.42,0.58,4.68,2.19,6.84,3.4c2.09,1.18,4.48,2.17,6.45,3.54
			c1.79,1.25,3.27,3,5.23,4.01c1.77,0.91,3.27,1.55,4.89,2.72c1.64,1.18,3.73,1.68,5.57,2.5c1.65,0.73,3.29,0.4,4.89-0.39
			c1.41-0.69,2.61-1.81,3.98-2.58c1.84-1.03,3.54-1.13,5.51-1.72c1.29-0.38,2.36-0.74,3.74-0.61c1.98,0.19,2.46,1.09,3.5,2.63
			c0.9,1.33,2.27,2.37,3.63,3.32c0.07-0.32,0.15-0.64,0.22-0.95c-0.07,0.32-0.14,0.64-0.22,0.95c0.36,0.25,0.71,0.49,1.06,0.73
			c0.97,0.67,1.95,0.99,2.86,1.73c1.01,0.82,1.24,1.4,2.56,0.94c1.43-0.5,2.05-2.13,3.5-2.42c0.76-0.15,1.82,0.04,2.6,0.04
			c0.74,0,1.9,0.23,2.6,0.05c1.54-0.38,1.73-2.01,2.17-3.38c0.49-1.54,0.91-2.39,1.89-3.61c0.63-0.79,1.04-1.62,1.16-2.61
			c0.33-2.73-0.3-5.31-0.63-7.93c-0.08-0.66,0.13-1.38,0.06-2.04c-0.08-0.84-0.44-1.62-0.56-2.45c-0.19-1.35-0.05-2.81-0.05-4.18
			c0-2.98-0.86-5.54-1.19-8.42c-0.19-1.72-0.29-4.22,0-5.93c0.06-0.38,0.4-0.5,0.48-0.82c0.07-0.28,0.1-0.55,0.12-0.81
			c-0.46-0.17-0.9-0.36-1.3-0.61c-1.73-1.1-2.66-3.15-3.53-4.9c-0.78-1.57-2.02-3.21-2.11-4.99c-0.06-1.21-0.14-2.66,0.04-3.85
			c0.67-4.51,4.85-7.67,7.93-10.61c2.07-1.98,3.96-4.18,5.8-6.4c0.83-1,1.2-1.05,2.16-1.67c1.04-0.67,1.11-1.19,1.58-2.33
			c1.8-4.33,2.37-8.27-0.14-12.46c-1.07-1.78-1.9-4.04-3.44-5.52c-1.44-1.39-3.52-1.64-4.95-3.19c-1.46-1.57-2.51-2.99-4.65-3.66
			c-2.62-0.83-5.53-0.79-8.15-1.8c-1.79-0.69-3.61-1.14-5.5-1.55c-1.71-0.37-3.08-0.72-4.55-1.66c-1.25-0.8-2.33-1.88-3.63-2.6
			c-1.47-0.81-3.01-1.15-4.59-1.55c-1.72-0.44-3.38-0.46-5.08-0.77c-2.29-0.42-4.23-1.24-6.36-2.12c-1.58-0.65-3.06-1.97-4.67-2.41
			c-2.1-0.57-4.59-0.34-6.58-1.27c-0.51-0.24-0.86-0.77-1.43-0.98c-0.76-0.27-1.66-0.12-2.45-0.11c-5.58,0.05-10.99-0.61-16.55-0.58
			c-1.58,0.01-3.31-0.06-4.78-0.56c-1.06-0.36-1.99-1.29-3.13-1.68c-1.79-0.62-3.71-0.77-5.42-1.66c-1.14-0.59-1.99-1.19-3.29-1.59
			c-1.23-0.38-2.22-1.03-3.42-1.52c-0.76-0.31-1.79-0.78-2.51-1.21c-1.33-0.81-2.46-1.3-3.9-1.88c-1.02-0.41-2.14-1.27-3.15-1.49
			c-0.38-0.09-0.84,0.15-1.22,0.06c-0.3-0.07-0.48-0.43-0.68-0.48c-0.56-0.16-1.02-0.13-1.61-0.13c-1.32,0.02-2.52,0.08-3.76-0.29
			c-1.39-0.42-2.17-0.84-3.63-1.02c-0.24-0.03-0.11-0.36-0.47-0.34c-0.33,0.02-0.5,0.29-0.8,0.34c-0.69,0.1-1.32,0.15-2.04,0.14
			c-1.27-0.01-2.35,0.08-3.4-0.64c-0.57-0.38-4.28-2.33-6.11-3.4c-1.7,2.03-2.94,4.18-5.81,4.65c-0.78,0.13-1.18,0.06-1.87,0.39
			c-0.93,0.45-1.81,1.04-2.76,1.47c-2.07,0.93-4.01,0.2-6.09-0.11c-1.57-0.23-3.3-0.05-4.89-0.05c-2.04,0-3.33-0.42-5.21-1.01
			c-1.57-0.5-3.04-1.32-4.63-1.3c-1.92,0.03-3.5,0.05-5.19,0.56c-1.77,0.53-3.24,1.79-4.77,2.76c-3.05,1.95-5.68,4.27-9.41,4.19
			c-2.82-0.06-5.72,1.55-7.23,4.05c-0.6,0.99-1.82,3.19-2.48,4.7c0.24,0.21,0.47,0.42,0.72,0.63
			C374.4,284.89,375.59,285.45,376.83,286.05z"/>
		<path class="st0" d="M536.15,395.8c-1.04-1.54-1.53-2.44-3.5-2.63c-1.38-0.14-2.45,0.23-3.74,0.61c-1.97,0.58-3.67,0.69-5.51,1.72
			c-1.37,0.76-2.58,1.88-3.98,2.58c-1.6,0.79-3.24,1.12-4.89,0.39c-1.84-0.81-3.93-1.31-5.57-2.5c-1.62-1.17-3.12-1.81-4.89-2.72
			c-1.96-1-3.44-2.76-5.23-4.01c-1.97-1.37-4.36-2.36-6.45-3.54c-2.15-1.21-4.41-2.81-6.84-3.4c-1.96-0.47-4.05-0.38-5.9-1.3
			c-2.03-1.01-3.39-2.79-5.22-4.03c-2.85-1.93-6.23-1.76-7.84-5.19c-0.29-0.61-0.21-1.07-0.75-1.56c-1.3-1.17-4.73-0.62-6.19-0.84
			c-1.83-0.27-3.47-1.19-5.16-1.58c-0.91-0.21-1.86,0.09-2.77-0.1c-1.37-0.28-1.02-0.8-2.03,0.31c-0.68,0.75-1.09,1.75-1.57,2.63
			c-0.58,1.08-1.57,1.79-2.13,2.87c-0.54,1.05-0.74,2.25-1.47,3.22c-0.72,0.97-1.77,1.54-2.72,2.29c-0.68,0.54-1.43,1.71-2.2,2
			c-1.91,0.74-5.39-0.12-7.26-0.54c-2.12-0.48-3.83-2.47-5.21-4.05c-1.66-1.9-2.64-4.35-4.14-6.37c-1.64-2.21-3.93-4.28-6.22-5.77
			c-1.49-0.97-2.96-2.1-4.53-2.95c-1.19-0.65-2.43-1-3.62-1.71c-1.11-0.66-2.46-0.98-3.5-1.71c-0.83-0.59-1.55-1.62-2.28-2.34
			c-0.64-0.63-1.32-1.88-2.03-2.35c-1.08-0.71-0.37-0.18-1.28,0.19c-1.34,0.54-2.02,1.83-3.15,2.71c-1.66,1.31-3.53,2.25-5.11,3.7
			c-1.07,0.98-1.79,1.98-3.12,2.68c-0.87,0.45-1,0.51-2.08,0.56c-0.9,0.04-1.45,0.46-2.31,0.62c-1.62,0.31-2.32-0.79-2.96-1.98
			c-1.31-2.42-2.18-5.73-4.12-7.73c-1.29-1.33-2.83-0.38-4.48-0.7c-1.67-0.32-2.33-1.52-3.04-2.92c-0.39-0.78-0.43-1.43-0.42-2.07
			c-0.62-0.54-1.39-1.62-1.85-2.09c-1.42-1.44-3.04-2.76-4.68-3.96c-1.44-1.06-2.99-1.52-4.34-2.73c-1.58-1.42-3.3-1.41-5.33-1.74
			c-3.07-0.5-5.48,0.59-7.88,2.48c-1.38,1.08-2.04,1.64-3.73,1.18c-1.87-0.51-3.52-1.44-5.05-2.63c-1.17-0.91-1.53-1.66-3.01-1.75
			c-1.65-0.1-1.91,0.15-2.89,1.56c-2.7,3.89-4.51,8.31-5.62,12.89c-0.51,2.08-1.31,3.88-1.34,6.06c-0.02,1.64,0.16,3.31,0.06,4.95
			c-0.25,4.03-1.23,7.81-2.49,11.59c-0.46,1.38-1.32,2.24-2.04,3.43c-0.79,1.3-0.72,2.57-0.71,4.05c0.02,3.26,0.11,6.34,0.56,9.53
			c0.21,1.52,1.47,2.39,2.37,3.63c1.11,1.54,1.62,3.29,2.83,4.77c1.24,1.52,2.61,2.81,4.09,4.08c1.81,1.55,4.08,2.6,5.81,4.18
			c1.22,1.11,2.01,2,3.55,2.75c1.75,0.85,2.1,1.1,2.78,3.11c0.58,1.7,1.17,4.22,1.06,6c-0.04,0.58-0.24,1.15-0.51,1.72
			c1.56,0.81,3.11,2.48,4.52,3.21c1.33,0.69,2.71,1.21,4.18,1.56c1.56,0.37,3.45,0.72,4.79,1.59c1.37,0.9,2.36,2.28,3.45,3.48
			c0.9,0.98,1.89,1.46,2.86,2.3c2.86,2.46,5.16,5.49,8,7.97c1.08,0.94,2.2,1.71,3.44,2.44c1.93,1.13,3.03,2.69,4.64,4.22
			c2.98,2.83,6.85,3.48,10.17,5.53c1.76,1.09,3.19,2.52,4.87,3.55c1.32,0.81,2.64,2.25,3.49,3.62c0.91,1.48,1.4,3.49,1.79,5.19
			c0.32,1.37,0.45,2.37,0.49,3.79c0.05,1.4,0.58,2.65,0.6,4.05c0.04,2.44,0.6,2.7,2.34,4.19c0.54,0.47,0.94,1.08,1.56,1.47
			c0.93,0.58,1.09,0.3,2.01-0.03c1.8-0.65,3.54-0.63,5.13-1.66c2.43-1.58,5.21-3.39,7.11-5.68c2.06-2.48,3.51-5.91,6.84-6.7
			c2.15-0.51,5.03-0.99,7.27-0.6c1.99,0.35,3.64,1.77,5.06,3.18c2.56,2.55,4.2,5.57,7.81,6.84c2.65,0.93,4.9,2.73,7.91,2.07
			c1.87-0.41,3.45-1.56,5.37-1.96c1.9-0.4,3.79-0.26,5.72-0.26c8.49-0.01,16.39-1.24,24.22-4.63c2.05-0.89,4.11-1.8,6.32-2.21
			c1.01-0.19,2.19-0.65,3.18-0.74c1.25-0.11,3.45,0.59,4.61,0.98c1.65,0.56,3.28,1.45,4.78,2.28c1.91,1.06,3.87,0.85,5.89,0.77
			c-0.16-0.5-0.44-1.01-0.92-1.66c0.48,0.65,0.76,1.15,0.92,1.66c0.86-0.04,1.72-0.05,2.61,0.07c0.73,0.09,1,0.49,1.65,0.63
			c1.62,0.36,2.64-1.86,3.37-2.94c1.3-1.92,2.44-3.8,3.88-5.64c1.35-1.73,3-3.17,4.34-4.88c1.74-2.22,3.2-4.79,4.04-7.47
			c1.25-4,2.38-8.73,2.34-12.93c-0.02-1.89-0.12-3.57,0.42-5.38c0.5-1.66,1.01-3.19,1.31-4.9c0.66-3.68,1.7-7.4,2.73-10.97
			c0.99-3.44,0.74-6.85,0.74-10.42c0-1.07-0.14-2.18,0.13-3.2c0.19-0.71,0.8-1.66,1.04-2.46c0.15-0.5,0.29-1.04,0.41-1.58
			C538.42,398.17,537.05,397.13,536.15,395.8z"/>
	</g>
	<g>
		<path class="st1" d="M55.51,187.11c-0.03,0.08-0.06,0.15-0.11,0.22c-0.05,0.06-0.13,0.12-0.25,0.16
			c-0.12,0.04-0.28,0.07-0.48,0.09c-0.2,0.02-0.45,0.03-0.75,0.03c-0.31,0-0.57-0.01-0.76-0.03c-0.19-0.02-0.34-0.05-0.45-0.09
			c-0.1-0.04-0.17-0.09-0.2-0.16c-0.03-0.06-0.04-0.14-0.02-0.22l2.53-12.69h-0.02l-7.08,12.68c-0.1,0.2-0.28,0.34-0.56,0.4
			c-0.28,0.07-0.67,0.1-1.17,0.1c-0.52,0-0.9-0.05-1.13-0.14c-0.23-0.09-0.35-0.21-0.36-0.34l-1.83-12.72h-0.02l-2.54,12.71
			c-0.02,0.08-0.05,0.15-0.1,0.22c-0.05,0.06-0.14,0.12-0.25,0.16c-0.12,0.04-0.27,0.07-0.47,0.09s-0.45,0.03-0.75,0.03
			c-0.31,0-0.55-0.01-0.75-0.03s-0.34-0.05-0.45-0.09c-0.1-0.04-0.17-0.09-0.2-0.16c-0.03-0.06-0.04-0.14-0.01-0.22l2.77-13.9
			c0.04-0.2,0.1-0.38,0.19-0.54c0.09-0.16,0.19-0.3,0.31-0.4c0.12-0.11,0.27-0.19,0.43-0.25c0.16-0.06,0.33-0.08,0.52-0.08h1.98
			c0.35,0,0.66,0.03,0.91,0.09c0.25,0.06,0.45,0.16,0.62,0.31c0.16,0.14,0.28,0.33,0.37,0.57c0.08,0.23,0.14,0.51,0.17,0.84
			l1.51,9.28h0.06l5.35-9.28c0.16-0.31,0.32-0.58,0.48-0.81c0.16-0.23,0.34-0.42,0.54-0.57s0.42-0.26,0.66-0.33s0.53-0.1,0.86-0.1
			h2.24c0.2,0,0.37,0.03,0.52,0.08c0.14,0.06,0.26,0.14,0.35,0.25c0.08,0.11,0.14,0.24,0.16,0.4c0.02,0.16,0.01,0.34-0.02,0.54
			L55.51,187.11z"/>
		<path class="st1" d="M61.75,187.13c-0.02,0.08-0.06,0.15-0.12,0.21c-0.06,0.06-0.15,0.11-0.28,0.15
			c-0.12,0.04-0.29,0.07-0.49,0.09c-0.2,0.02-0.45,0.03-0.74,0.03c-0.3,0-0.54-0.01-0.73-0.03s-0.34-0.05-0.45-0.09
			c-0.11-0.04-0.18-0.09-0.21-0.15c-0.03-0.06-0.04-0.13-0.02-0.21l2.13-10.73c0.02-0.08,0.06-0.15,0.12-0.21
			c0.06-0.06,0.15-0.11,0.28-0.16c0.12-0.04,0.29-0.08,0.48-0.1c0.2-0.02,0.44-0.04,0.74-0.04c0.3,0,0.54,0.01,0.73,0.04
			c0.19,0.03,0.34,0.06,0.45,0.1c0.11,0.04,0.18,0.1,0.21,0.16c0.03,0.06,0.04,0.13,0.02,0.21L61.75,187.13z M64.86,172.75
			c-0.06,0.3-0.13,0.55-0.23,0.75c-0.1,0.21-0.22,0.37-0.39,0.5c-0.16,0.12-0.36,0.21-0.59,0.27c-0.23,0.05-0.52,0.08-0.87,0.08
			c-0.34,0-0.61-0.03-0.83-0.08c-0.21-0.05-0.37-0.14-0.48-0.27c-0.11-0.12-0.17-0.29-0.19-0.5c-0.01-0.2,0.01-0.46,0.07-0.75
			c0.06-0.29,0.13-0.53,0.23-0.74c0.1-0.2,0.22-0.37,0.39-0.49c0.16-0.13,0.36-0.22,0.59-0.28c0.23-0.06,0.52-0.08,0.87-0.08
			c0.34,0,0.61,0.03,0.83,0.08c0.21,0.06,0.37,0.15,0.48,0.28c0.11,0.13,0.17,0.29,0.18,0.49
			C64.94,172.22,64.92,172.46,64.86,172.75z"/>
		<path class="st1" d="M76.35,178.77c0,0.28-0.02,0.56-0.06,0.85c-0.04,0.28-0.08,0.57-0.14,0.87l-1.34,6.64
			c-0.02,0.08-0.05,0.15-0.11,0.21c-0.06,0.06-0.15,0.11-0.28,0.15c-0.12,0.04-0.29,0.07-0.48,0.09c-0.2,0.02-0.45,0.03-0.74,0.03
			c-0.3,0-0.54-0.01-0.73-0.03c-0.19-0.02-0.34-0.05-0.44-0.09c-0.1-0.04-0.17-0.09-0.21-0.15c-0.04-0.06-0.05-0.13-0.03-0.21
			l1.3-6.45c0.04-0.19,0.07-0.39,0.09-0.59c0.02-0.2,0.03-0.38,0.03-0.53c0-0.36-0.08-0.66-0.23-0.89
			c-0.15-0.23-0.41-0.35-0.77-0.35c-0.33,0-0.67,0.1-1.03,0.31c-0.36,0.21-0.7,0.49-1.01,0.85c-0.32,0.36-0.6,0.78-0.85,1.25
			c-0.25,0.48-0.43,0.99-0.53,1.52l-0.98,4.87c-0.02,0.08-0.06,0.15-0.12,0.21c-0.06,0.06-0.15,0.11-0.28,0.15
			c-0.12,0.04-0.29,0.07-0.49,0.09c-0.2,0.02-0.45,0.03-0.74,0.03c-0.3,0-0.54-0.01-0.73-0.03c-0.19-0.02-0.34-0.05-0.45-0.09
			c-0.11-0.04-0.18-0.09-0.21-0.15c-0.03-0.06-0.04-0.13-0.02-0.21l2.16-10.77c0.01-0.08,0.05-0.15,0.1-0.21
			c0.05-0.06,0.13-0.11,0.24-0.14c0.11-0.04,0.25-0.06,0.42-0.09c0.17-0.02,0.38-0.03,0.62-0.03c0.25,0,0.45,0.01,0.61,0.03
			c0.16,0.02,0.28,0.05,0.37,0.09c0.09,0.04,0.15,0.08,0.17,0.14c0.03,0.06,0.03,0.13,0.02,0.21l-0.35,1.77
			c0.17-0.28,0.39-0.57,0.68-0.86c0.28-0.29,0.6-0.56,0.97-0.79c0.37-0.23,0.76-0.42,1.19-0.57c0.43-0.15,0.88-0.22,1.34-0.22
			c0.56,0,1.04,0.08,1.42,0.25c0.38,0.17,0.69,0.39,0.93,0.67c0.24,0.28,0.41,0.61,0.51,0.98C76.3,177.96,76.35,178.35,76.35,178.77
			z"/>
		<path class="st1" d="M87.7,187.56c-0.14,0.73-0.37,1.37-0.68,1.91c-0.31,0.54-0.71,1-1.21,1.36c-0.5,0.37-1.1,0.64-1.81,0.83
			c-0.71,0.19-1.54,0.28-2.49,0.28c-0.68,0-1.3-0.05-1.84-0.16c-0.54-0.11-0.99-0.25-1.36-0.42c-0.13-0.06-0.22-0.14-0.27-0.22
			c-0.05-0.08-0.07-0.19-0.07-0.34c0-0.05,0-0.13,0.01-0.24c0.01-0.11,0.03-0.24,0.05-0.37c0.03-0.14,0.06-0.28,0.1-0.43
			c0.04-0.15,0.09-0.28,0.15-0.4c0.06-0.12,0.13-0.21,0.2-0.29c0.07-0.08,0.16-0.12,0.25-0.12s0.22,0.03,0.36,0.1
			c0.14,0.07,0.33,0.14,0.56,0.22c0.23,0.08,0.52,0.16,0.87,0.22c0.35,0.07,0.77,0.1,1.28,0.1c0.41,0,0.78-0.03,1.1-0.1
			c0.32-0.06,0.61-0.17,0.85-0.31s0.44-0.33,0.58-0.55s0.26-0.5,0.32-0.83c0.11-0.52,0.21-0.96,0.32-1.32
			c0.1-0.35,0.2-0.64,0.29-0.87c-0.14,0.27-0.35,0.53-0.62,0.79c-0.27,0.26-0.58,0.5-0.92,0.7c-0.35,0.21-0.72,0.38-1.12,0.5
			c-0.4,0.12-0.8,0.19-1.2,0.19c-0.62,0-1.14-0.11-1.56-0.32c-0.42-0.21-0.77-0.5-1.03-0.87c-0.27-0.37-0.46-0.8-0.57-1.3
			c-0.12-0.5-0.17-1.04-0.17-1.61c0-0.52,0.05-1.09,0.14-1.69c0.1-0.6,0.25-1.2,0.45-1.8c0.2-0.6,0.46-1.16,0.78-1.71
			c0.31-0.55,0.69-1.03,1.13-1.45c0.44-0.42,0.94-0.76,1.51-1.01c0.57-0.25,1.2-0.37,1.91-0.37c0.67,0,1.26,0.14,1.77,0.42
			c0.51,0.28,0.96,0.68,1.35,1.21l0.19-0.95c0.03-0.17,0.16-0.29,0.38-0.36c0.22-0.07,0.58-0.11,1.07-0.11
			c0.24,0,0.44,0.01,0.6,0.03c0.16,0.02,0.29,0.05,0.38,0.09c0.09,0.04,0.15,0.08,0.19,0.14c0.03,0.06,0.04,0.13,0.03,0.21
			L87.7,187.56z M86.3,179.58c-0.28-0.44-0.59-0.77-0.93-0.99c-0.34-0.22-0.74-0.33-1.19-0.33c-0.34,0-0.65,0.08-0.92,0.24
			c-0.28,0.16-0.53,0.38-0.75,0.65c-0.22,0.27-0.41,0.58-0.58,0.93c-0.17,0.35-0.3,0.72-0.41,1.11c-0.11,0.39-0.19,0.77-0.24,1.16
			c-0.05,0.39-0.08,0.75-0.08,1.1c0,0.27,0.03,0.52,0.07,0.75s0.12,0.42,0.22,0.57c0.1,0.16,0.23,0.28,0.39,0.36
			c0.16,0.08,0.35,0.13,0.57,0.13c0.35,0,0.72-0.11,1.09-0.32c0.37-0.21,0.71-0.5,1.04-0.87c0.32-0.37,0.61-0.79,0.85-1.29
			c0.24-0.49,0.42-1.01,0.54-1.57L86.3,179.58z"/>
		<path class="st1" d="M90.81,184.76c0-0.58,0.13-1.1,0.39-1.56c0.26-0.46,0.67-0.86,1.22-1.19c0.55-0.33,1.25-0.59,2.1-0.77
			s1.86-0.27,3.03-0.27h1.11c0.03-0.19,0.06-0.37,0.07-0.55c0.02-0.18,0.02-0.35,0.02-0.5c0-0.65-0.17-1.14-0.51-1.47
			c-0.34-0.33-0.88-0.5-1.63-0.5c-0.53,0-1.01,0.04-1.43,0.12c-0.42,0.08-0.79,0.16-1.11,0.25s-0.58,0.18-0.79,0.25
			c-0.21,0.08-0.36,0.12-0.46,0.12s-0.16-0.03-0.2-0.09c-0.04-0.06-0.06-0.14-0.06-0.27c0-0.14,0.01-0.29,0.04-0.47
			c0.02-0.18,0.06-0.35,0.1-0.52s0.1-0.34,0.17-0.49c0.07-0.15,0.15-0.27,0.24-0.35c0.1-0.1,0.27-0.19,0.53-0.29
			s0.57-0.19,0.93-0.27c0.36-0.08,0.77-0.15,1.22-0.2c0.45-0.05,0.91-0.08,1.37-0.08c0.77,0,1.44,0.08,2.02,0.24
			c0.58,0.16,1.06,0.41,1.44,0.74c0.39,0.33,0.68,0.75,0.87,1.26c0.19,0.51,0.29,1.12,0.29,1.81c0,0.54-0.05,1.12-0.15,1.73
			c-0.1,0.62-0.26,1.22-0.49,1.82c-0.22,0.6-0.51,1.17-0.87,1.72c-0.35,0.55-0.78,1.03-1.28,1.44s-1.08,0.75-1.74,0.99
			c-0.66,0.25-1.41,0.37-2.26,0.37c-0.73,0-1.36-0.09-1.89-0.26c-0.53-0.17-0.96-0.4-1.3-0.69c-0.34-0.29-0.59-0.61-0.75-0.98
			C90.89,185.53,90.81,185.15,90.81,184.76z M93.79,184.53c0,0.32,0.13,0.59,0.38,0.8c0.25,0.21,0.62,0.32,1.1,0.32
			c0.4,0,0.76-0.07,1.08-0.22s0.6-0.34,0.84-0.58c0.24-0.24,0.45-0.53,0.62-0.87s0.31-0.69,0.42-1.07h-1.01
			c-0.64,0-1.18,0.04-1.62,0.13c-0.43,0.08-0.78,0.2-1.05,0.34c-0.27,0.14-0.46,0.32-0.58,0.51
			C93.85,184.1,93.79,184.31,93.79,184.53z"/>
		<path class="st1" d="M105.81,187.62c-0.83-0.21-1.47-0.64-1.92-1.3s-0.68-1.54-0.68-2.65c0-0.49,0.04-1.03,0.14-1.62
			c0.09-0.59,0.24-1.18,0.45-1.77c0.21-0.59,0.48-1.16,0.81-1.72c0.33-0.55,0.74-1.04,1.22-1.47c0.48-0.43,1.04-0.77,1.68-1.03
			s1.37-0.39,2.19-0.39c0.32,0,0.63,0.02,0.94,0.07c0.31,0.05,0.59,0.12,0.84,0.2c0.26,0.09,0.48,0.18,0.68,0.29
			c0.2,0.11,0.35,0.22,0.44,0.31c0.1,0.09,0.16,0.17,0.19,0.25c0.03,0.07,0.04,0.16,0.04,0.26c0,0.19-0.02,0.4-0.07,0.63
			c-0.04,0.23-0.1,0.45-0.17,0.66c-0.07,0.21-0.16,0.38-0.27,0.52c-0.11,0.14-0.23,0.21-0.36,0.21c-0.12,0-0.24-0.05-0.35-0.14
			c-0.11-0.1-0.25-0.2-0.42-0.32c-0.17-0.12-0.37-0.23-0.62-0.33c-0.25-0.1-0.57-0.15-0.96-0.15c-0.42,0-0.79,0.09-1.12,0.28
			c-0.33,0.19-0.62,0.42-0.86,0.72c-0.24,0.29-0.45,0.63-0.61,1c-0.16,0.37-0.29,0.75-0.4,1.13c-0.11,0.38-0.18,0.75-0.22,1.1
			c-0.04,0.35-0.06,0.65-0.06,0.91c0,0.65,0.14,1.15,0.43,1.48s0.73,0.5,1.34,0.5c0.45,0,0.84-0.06,1.16-0.17
			c0.32-0.12,0.6-0.24,0.83-0.39c0.23-0.14,0.43-0.27,0.59-0.38c0.17-0.11,0.32-0.17,0.45-0.17c0.08,0,0.14,0.04,0.18,0.11
			c0.04,0.07,0.05,0.18,0.05,0.31c0,0.14-0.02,0.31-0.05,0.51c-0.03,0.21-0.07,0.41-0.13,0.62c-0.05,0.21-0.11,0.4-0.18,0.58
			c-0.07,0.18-0.16,0.32-0.27,0.43c-0.11,0.1-0.29,0.23-0.54,0.37s-0.55,0.27-0.89,0.39c-0.35,0.11-0.71,0.19-1.09,0.23l0.14,0.6
			c0.06,0.2,0.1,0.39,0.13,0.57c0.03,0.18,0.05,0.35,0.05,0.53c0,0.43-0.07,0.81-0.21,1.13c-0.14,0.32-0.34,0.58-0.6,0.78
			c-0.26,0.2-0.56,0.35-0.92,0.45c-0.36,0.1-0.75,0.14-1.19,0.14c-0.23,0-0.46-0.01-0.68-0.02c-0.22-0.02-0.42-0.04-0.61-0.08
			c-0.19-0.04-0.35-0.08-0.5-0.12c-0.14-0.04-0.26-0.09-0.36-0.13c-0.09-0.05-0.15-0.1-0.18-0.15c-0.03-0.05-0.05-0.13-0.05-0.24
			c0-0.08,0.01-0.19,0.03-0.34c0.02-0.14,0.06-0.29,0.1-0.43s0.11-0.27,0.2-0.38c0.08-0.11,0.19-0.16,0.32-0.16h1.37
			c0.11,0,0.22-0.01,0.33-0.04c0.1-0.03,0.19-0.07,0.27-0.12s0.14-0.12,0.18-0.21s0.07-0.19,0.07-0.3c0-0.08-0.01-0.17-0.02-0.28
			c-0.01-0.1-0.03-0.21-0.05-0.31L105.81,187.62z"/>
		<path class="st1" d="M124.16,178.73c0,0.58-0.13,1.1-0.39,1.56c-0.26,0.46-0.67,0.86-1.22,1.19c-0.55,0.33-1.25,0.59-2.1,0.77
			c-0.85,0.18-1.86,0.27-3.03,0.27h-1.11c-0.03,0.19-0.06,0.37-0.07,0.55c-0.02,0.18-0.02,0.35-0.02,0.5c0,0.65,0.17,1.14,0.51,1.47
			c0.34,0.33,0.88,0.5,1.63,0.5c0.53,0,1.01-0.04,1.43-0.11c0.42-0.08,0.79-0.16,1.11-0.25c0.32-0.09,0.58-0.18,0.79-0.25
			c0.21-0.08,0.36-0.11,0.46-0.11c0.1,0,0.17,0.03,0.21,0.09c0.04,0.06,0.06,0.14,0.06,0.27c0,0.14-0.01,0.29-0.04,0.47
			c-0.02,0.18-0.06,0.35-0.1,0.52c-0.04,0.17-0.1,0.34-0.17,0.49c-0.07,0.15-0.15,0.27-0.24,0.35c-0.1,0.1-0.27,0.19-0.53,0.29
			c-0.26,0.1-0.57,0.19-0.93,0.27c-0.36,0.08-0.77,0.15-1.22,0.2s-0.91,0.08-1.37,0.08c-0.77,0-1.44-0.08-2.02-0.24
			c-0.58-0.16-1.05-0.41-1.44-0.74c-0.39-0.33-0.68-0.75-0.87-1.26c-0.19-0.51-0.29-1.12-0.29-1.81c0-0.54,0.05-1.12,0.15-1.73
			c0.1-0.62,0.26-1.22,0.49-1.82c0.22-0.6,0.51-1.17,0.87-1.72c0.35-0.55,0.78-1.03,1.28-1.44c0.5-0.41,1.08-0.75,1.74-0.99
			c0.66-0.25,1.41-0.37,2.25-0.37c0.73,0,1.36,0.09,1.89,0.26s0.96,0.4,1.3,0.69c0.34,0.29,0.59,0.61,0.75,0.98
			C124.08,177.97,124.16,178.35,124.16,178.73z M121.18,178.96c0-0.32-0.13-0.59-0.38-0.8c-0.25-0.21-0.62-0.32-1.1-0.32
			c-0.4,0-0.76,0.07-1.08,0.22s-0.6,0.34-0.84,0.58s-0.45,0.53-0.62,0.87s-0.31,0.69-0.42,1.07h1.01c0.64,0,1.18-0.04,1.62-0.13
			c0.43-0.08,0.78-0.2,1.05-0.34c0.26-0.14,0.46-0.32,0.58-0.51C121.12,179.4,121.18,179.19,121.18,178.96z"/>
		<path class="st1" d="M136.42,176.29c0,0.09-0.01,0.2-0.04,0.32c-0.02,0.13-0.06,0.27-0.11,0.41c-0.3,0.87-0.63,1.74-0.99,2.61
			c-0.36,0.87-0.76,1.73-1.19,2.59c-0.43,0.85-0.9,1.69-1.4,2.51s-1.05,1.61-1.63,2.37c-0.08,0.11-0.18,0.2-0.29,0.27
			c-0.11,0.07-0.25,0.12-0.41,0.16c-0.16,0.04-0.35,0.06-0.57,0.06c-0.22,0.01-0.47,0.01-0.76,0.01c-0.44,0-0.79-0.01-1.05-0.03
			c-0.26-0.02-0.45-0.05-0.59-0.1c-0.14-0.05-0.23-0.12-0.28-0.2c-0.05-0.08-0.08-0.19-0.08-0.32l-1.27-9.67
			c-0.01-0.13-0.01-0.25-0.02-0.36c-0.01-0.11-0.01-0.22-0.01-0.31c0-0.16,0.02-0.28,0.05-0.37c0.04-0.09,0.11-0.15,0.22-0.21
			c0.11-0.05,0.27-0.09,0.47-0.12c0.2-0.02,0.48-0.04,0.83-0.04c0.32,0,0.58,0.01,0.76,0.02c0.18,0.02,0.33,0.04,0.43,0.09
			c0.1,0.04,0.17,0.09,0.2,0.16c0.03,0.07,0.05,0.15,0.06,0.25l0.92,7.9v0.3l0.06-0.11c0.41-0.62,0.78-1.24,1.12-1.87
			s0.64-1.27,0.93-1.93c0.29-0.66,0.55-1.34,0.8-2.05c0.25-0.71,0.5-1.46,0.74-2.24c0.02-0.1,0.07-0.19,0.13-0.25
			c0.06-0.06,0.16-0.12,0.3-0.16c0.13-0.04,0.3-0.07,0.51-0.09c0.2-0.02,0.46-0.02,0.77-0.02c0.3,0,0.54,0.01,0.73,0.02
			s0.33,0.04,0.43,0.07c0.1,0.03,0.17,0.07,0.2,0.12C136.4,176.15,136.42,176.21,136.42,176.29z"/>
		<path class="st1" d="M139.5,187.13c-0.02,0.08-0.06,0.15-0.12,0.21c-0.06,0.06-0.15,0.11-0.28,0.15
			c-0.12,0.04-0.29,0.07-0.49,0.09c-0.2,0.02-0.45,0.03-0.74,0.03c-0.3,0-0.54-0.01-0.73-0.03s-0.34-0.05-0.45-0.09
			c-0.11-0.04-0.18-0.09-0.21-0.15c-0.03-0.06-0.04-0.13-0.02-0.21l2.13-10.73c0.02-0.08,0.06-0.15,0.11-0.21
			c0.06-0.06,0.15-0.11,0.28-0.16c0.12-0.04,0.29-0.08,0.48-0.1c0.2-0.02,0.44-0.04,0.74-0.04c0.3,0,0.54,0.01,0.73,0.04
			c0.19,0.03,0.34,0.06,0.45,0.1c0.11,0.04,0.18,0.1,0.21,0.16c0.03,0.06,0.04,0.13,0.02,0.21L139.5,187.13z M142.6,172.75
			c-0.06,0.3-0.13,0.55-0.23,0.75c-0.1,0.21-0.22,0.37-0.39,0.5c-0.16,0.12-0.36,0.21-0.59,0.27c-0.23,0.05-0.52,0.08-0.87,0.08
			c-0.34,0-0.61-0.03-0.83-0.08c-0.21-0.05-0.37-0.14-0.48-0.27c-0.11-0.12-0.17-0.29-0.19-0.5c-0.01-0.2,0.01-0.46,0.07-0.75
			c0.06-0.29,0.13-0.53,0.23-0.74c0.1-0.2,0.22-0.37,0.39-0.49c0.16-0.13,0.36-0.22,0.59-0.28c0.23-0.06,0.52-0.08,0.87-0.08
			c0.34,0,0.61,0.03,0.83,0.08c0.21,0.06,0.37,0.15,0.48,0.28c0.11,0.13,0.17,0.29,0.18,0.49
			C142.68,172.22,142.66,172.46,142.6,172.75z"/>
		<path class="st1" d="M151.45,176.2c0,0.06-0.01,0.16-0.02,0.3c-0.02,0.14-0.04,0.32-0.07,0.51c-0.03,0.19-0.07,0.39-0.12,0.6
			c-0.05,0.21-0.1,0.4-0.16,0.57c-0.06,0.18-0.13,0.32-0.2,0.43s-0.16,0.17-0.25,0.17c-0.07,0-0.14-0.01-0.22-0.04
			c-0.07-0.03-0.15-0.06-0.24-0.08c-0.09-0.03-0.18-0.06-0.29-0.09c-0.1-0.03-0.22-0.04-0.36-0.04c-0.27,0-0.57,0.11-0.88,0.32
			c-0.31,0.21-0.6,0.48-0.89,0.83c-0.28,0.34-0.53,0.74-0.75,1.19c-0.22,0.45-0.38,0.93-0.47,1.43l-0.96,4.84
			c-0.02,0.08-0.06,0.15-0.12,0.21c-0.06,0.06-0.15,0.11-0.28,0.15c-0.12,0.04-0.29,0.07-0.49,0.09c-0.2,0.02-0.45,0.03-0.74,0.03
			c-0.3,0-0.54-0.01-0.73-0.03c-0.19-0.02-0.34-0.05-0.45-0.09c-0.11-0.04-0.18-0.09-0.21-0.15c-0.03-0.06-0.04-0.13-0.02-0.21
			l2.15-10.77c0.02-0.08,0.05-0.15,0.11-0.21c0.06-0.06,0.14-0.11,0.25-0.14c0.11-0.04,0.25-0.06,0.42-0.09
			c0.17-0.02,0.38-0.03,0.62-0.03c0.25,0,0.45,0.01,0.61,0.03c0.16,0.02,0.28,0.05,0.37,0.09c0.09,0.04,0.15,0.08,0.17,0.14
			c0.03,0.06,0.03,0.13,0.02,0.21l-0.34,1.71c0.19-0.35,0.42-0.66,0.67-0.95c0.25-0.29,0.52-0.54,0.81-0.75
			c0.29-0.21,0.58-0.38,0.89-0.5c0.3-0.12,0.61-0.18,0.9-0.18c0.12,0,0.24,0.01,0.37,0.03c0.12,0.01,0.24,0.04,0.35,0.06
			c0.11,0.02,0.2,0.05,0.29,0.09c0.08,0.04,0.15,0.07,0.2,0.11C151.43,176.02,151.45,176.1,151.45,176.2z"/>
	</g>
	<g>
		<path class="st1" d="M120.05,289.19l-1.09,5.5c-0.02,0.08-0.07,0.15-0.13,0.22c-0.06,0.06-0.16,0.12-0.3,0.16
			c-0.13,0.04-0.3,0.07-0.51,0.09c-0.21,0.02-0.47,0.03-0.77,0.03c-0.31,0-0.56-0.01-0.76-0.03c-0.2-0.02-0.35-0.05-0.46-0.09
			c-0.11-0.04-0.18-0.09-0.22-0.16c-0.04-0.06-0.05-0.14-0.03-0.22l1.09-5.5l-2.56-8.5c-0.09-0.28-0.14-0.51-0.16-0.68
			s0.02-0.29,0.11-0.38c0.1-0.08,0.27-0.14,0.51-0.16c0.24-0.03,0.58-0.04,1.03-0.04c0.34,0,0.6,0.01,0.8,0.02
			c0.2,0.01,0.35,0.04,0.46,0.08c0.11,0.04,0.19,0.1,0.24,0.17s0.08,0.17,0.11,0.3l1.05,3.75c0.12,0.45,0.23,0.88,0.32,1.28
			s0.17,0.83,0.25,1.27h0.02c0.23-0.43,0.46-0.86,0.7-1.28c0.24-0.42,0.5-0.84,0.77-1.25l2.49-3.81c0.06-0.1,0.13-0.19,0.21-0.26
			c0.07-0.07,0.17-0.12,0.3-0.16c0.13-0.04,0.3-0.07,0.51-0.08c0.21-0.02,0.5-0.02,0.86-0.02c0.47,0,0.82,0.01,1.07,0.04
			c0.24,0.03,0.41,0.09,0.48,0.18s0.07,0.22-0.01,0.39c-0.09,0.17-0.22,0.38-0.4,0.65L120.05,289.19z"/>
		<path class="st1" d="M134.61,286.31c0,0.58-0.13,1.1-0.39,1.56c-0.26,0.46-0.67,0.86-1.22,1.19c-0.55,0.33-1.25,0.59-2.1,0.77
			c-0.85,0.18-1.86,0.27-3.03,0.27h-1.11c-0.03,0.19-0.06,0.37-0.07,0.55c-0.02,0.18-0.02,0.35-0.02,0.5c0,0.65,0.17,1.14,0.51,1.47
			c0.34,0.33,0.88,0.5,1.63,0.5c0.53,0,1.01-0.04,1.43-0.12c0.42-0.08,0.79-0.16,1.11-0.25s0.58-0.18,0.79-0.25
			c0.21-0.08,0.36-0.11,0.46-0.11s0.17,0.03,0.21,0.09c0.04,0.06,0.06,0.14,0.06,0.27c0,0.14-0.01,0.29-0.04,0.47
			c-0.02,0.18-0.06,0.35-0.1,0.52c-0.04,0.17-0.1,0.34-0.17,0.49c-0.07,0.15-0.15,0.27-0.24,0.35c-0.1,0.1-0.27,0.19-0.53,0.29
			c-0.26,0.1-0.57,0.19-0.93,0.27c-0.36,0.08-0.77,0.15-1.22,0.2c-0.45,0.05-0.91,0.08-1.37,0.08c-0.77,0-1.44-0.08-2.02-0.24
			c-0.58-0.16-1.05-0.41-1.44-0.74c-0.39-0.33-0.68-0.75-0.87-1.26c-0.19-0.51-0.29-1.12-0.29-1.81c0-0.54,0.05-1.12,0.15-1.73
			c0.1-0.62,0.26-1.22,0.49-1.82s0.51-1.17,0.87-1.72s0.78-1.03,1.28-1.44s1.08-0.75,1.74-0.99c0.66-0.25,1.41-0.37,2.25-0.37
			c0.73,0,1.36,0.09,1.89,0.26c0.53,0.17,0.96,0.4,1.3,0.69c0.34,0.29,0.59,0.61,0.75,0.98S134.61,285.92,134.61,286.31z
			 M131.63,286.53c0-0.32-0.13-0.59-0.38-0.8c-0.25-0.21-0.62-0.32-1.1-0.32c-0.4,0-0.76,0.07-1.08,0.22
			c-0.32,0.14-0.6,0.34-0.84,0.58s-0.45,0.53-0.62,0.87c-0.17,0.33-0.31,0.69-0.42,1.07h1.01c0.64,0,1.18-0.04,1.62-0.13
			c0.43-0.08,0.78-0.2,1.05-0.34c0.26-0.14,0.46-0.32,0.58-0.51C131.57,286.97,131.63,286.76,131.63,286.53z"/>
		<path class="st1" d="M146.87,283.86c0,0.09-0.01,0.2-0.04,0.32c-0.02,0.13-0.06,0.27-0.11,0.41c-0.3,0.87-0.63,1.74-0.99,2.61
			c-0.36,0.87-0.76,1.73-1.19,2.59c-0.43,0.85-0.9,1.69-1.4,2.51c-0.5,0.82-1.05,1.61-1.63,2.37c-0.08,0.11-0.18,0.2-0.29,0.27
			c-0.11,0.07-0.25,0.12-0.41,0.16c-0.16,0.04-0.35,0.06-0.57,0.06c-0.22,0.01-0.47,0.01-0.76,0.01c-0.44,0-0.79-0.01-1.05-0.03
			c-0.26-0.02-0.45-0.05-0.59-0.1c-0.14-0.05-0.23-0.11-0.28-0.2c-0.05-0.08-0.08-0.19-0.08-0.32l-1.27-9.67
			c-0.01-0.13-0.01-0.25-0.02-0.36c-0.01-0.11-0.01-0.22-0.01-0.31c0-0.16,0.02-0.28,0.05-0.37c0.04-0.09,0.11-0.15,0.22-0.21
			c0.11-0.05,0.27-0.09,0.47-0.11c0.2-0.02,0.48-0.04,0.83-0.04c0.32,0,0.58,0.01,0.76,0.02c0.18,0.02,0.33,0.04,0.43,0.09
			c0.1,0.04,0.17,0.09,0.2,0.16c0.03,0.07,0.05,0.15,0.06,0.25l0.92,7.9v0.3l0.06-0.11c0.41-0.62,0.78-1.24,1.12-1.87
			s0.64-1.27,0.93-1.93c0.29-0.66,0.55-1.34,0.8-2.05c0.25-0.71,0.5-1.46,0.74-2.24c0.02-0.1,0.07-0.19,0.13-0.25
			c0.06-0.06,0.16-0.12,0.3-0.16c0.13-0.04,0.3-0.07,0.51-0.09c0.2-0.02,0.46-0.02,0.77-0.02c0.3,0,0.54,0.01,0.73,0.02
			c0.19,0.02,0.33,0.04,0.43,0.07c0.1,0.03,0.17,0.07,0.2,0.12C146.85,283.73,146.87,283.79,146.87,283.86z"/>
		<path class="st1" d="M149.94,294.7c-0.02,0.08-0.06,0.15-0.12,0.21c-0.06,0.06-0.15,0.11-0.27,0.15
			c-0.12,0.04-0.28,0.07-0.48,0.09c-0.2,0.02-0.45,0.03-0.74,0.03c-0.31,0-0.55-0.01-0.74-0.03s-0.34-0.05-0.44-0.09
			s-0.17-0.09-0.21-0.15c-0.04-0.06-0.05-0.13-0.03-0.21l3.17-15.85c0.01-0.08,0.05-0.15,0.11-0.22c0.06-0.06,0.15-0.12,0.28-0.16
			c0.13-0.04,0.29-0.08,0.49-0.1c0.2-0.03,0.44-0.04,0.74-0.04c0.3,0,0.54,0.01,0.73,0.04c0.19,0.02,0.34,0.06,0.44,0.1
			c0.1,0.04,0.17,0.1,0.21,0.16c0.03,0.06,0.04,0.14,0.02,0.22L149.94,294.7z"/>
		<path class="st1" d="M162.96,294.71c-0.03,0.17-0.16,0.29-0.38,0.36c-0.22,0.07-0.58,0.11-1.07,0.11c-0.25,0-0.45-0.01-0.61-0.02
			c-0.16-0.02-0.28-0.04-0.38-0.08c-0.1-0.04-0.16-0.09-0.19-0.14c-0.03-0.06-0.03-0.14-0.02-0.22l0.34-1.73
			c-0.12,0.26-0.31,0.53-0.58,0.81c-0.26,0.29-0.58,0.54-0.94,0.78c-0.36,0.23-0.76,0.43-1.2,0.58c-0.44,0.15-0.89,0.23-1.36,0.23
			c-0.64,0-1.18-0.11-1.6-0.34c-0.43-0.23-0.77-0.53-1.03-0.91c-0.26-0.38-0.44-0.82-0.55-1.31c-0.11-0.49-0.16-1.01-0.16-1.54
			c0-0.51,0.05-1.06,0.14-1.66s0.24-1.2,0.45-1.79c0.2-0.59,0.46-1.17,0.77-1.72c0.31-0.55,0.69-1.04,1.13-1.47
			c0.44-0.42,0.94-0.76,1.51-1.02c0.57-0.25,1.21-0.38,1.92-0.38c0.67,0,1.26,0.14,1.77,0.42c0.51,0.28,0.96,0.68,1.35,1.21
			l0.19-0.95c0.03-0.17,0.16-0.29,0.38-0.36c0.22-0.07,0.58-0.11,1.07-0.11c0.24,0,0.44,0.01,0.6,0.03
			c0.16,0.02,0.29,0.05,0.38,0.09c0.09,0.04,0.15,0.08,0.19,0.14c0.03,0.06,0.04,0.13,0.03,0.21L162.96,294.71z M161.47,287.16
			c-0.28-0.44-0.59-0.77-0.93-0.99s-0.74-0.33-1.19-0.33c-0.34,0-0.65,0.08-0.93,0.24c-0.28,0.16-0.53,0.37-0.75,0.64
			c-0.22,0.27-0.41,0.58-0.57,0.93c-0.17,0.35-0.3,0.72-0.41,1.1c-0.11,0.38-0.19,0.77-0.24,1.16s-0.08,0.75-0.08,1.08
			c0,0.24,0.02,0.47,0.06,0.69c0.04,0.22,0.1,0.41,0.2,0.58s0.22,0.3,0.39,0.4c0.16,0.1,0.37,0.15,0.61,0.15
			c0.35,0,0.72-0.11,1.09-0.32c0.37-0.21,0.71-0.5,1.04-0.87c0.32-0.37,0.61-0.79,0.85-1.28c0.24-0.49,0.42-1.01,0.54-1.56
			L161.47,287.16z"/>
		<path class="st1" d="M173.49,289.13l1.93,5.35c0.04,0.14,0.05,0.25,0.02,0.34c-0.02,0.09-0.1,0.16-0.22,0.22
			c-0.12,0.06-0.3,0.09-0.54,0.11c-0.23,0.02-0.54,0.03-0.91,0.03c-0.34,0-0.6-0.01-0.8-0.02c-0.19-0.02-0.34-0.04-0.45-0.07
			c-0.1-0.03-0.17-0.08-0.21-0.13c-0.04-0.06-0.06-0.12-0.08-0.19l-1.3-3.8l-2.72,3.81c-0.05,0.07-0.1,0.14-0.16,0.19
			c-0.06,0.05-0.16,0.09-0.3,0.13s-0.32,0.06-0.55,0.07c-0.23,0.02-0.54,0.02-0.92,0.02c-0.35,0-0.62-0.01-0.83-0.03
			c-0.21-0.02-0.36-0.06-0.46-0.11c-0.1-0.05-0.14-0.12-0.13-0.2c0.01-0.09,0.06-0.19,0.15-0.33l4.09-5.35l-1.8-4.97
			c-0.05-0.14-0.06-0.26-0.05-0.36c0.01-0.09,0.08-0.17,0.19-0.22c0.11-0.06,0.28-0.09,0.51-0.12c0.23-0.02,0.53-0.03,0.91-0.03
			c0.33,0,0.59,0.01,0.78,0.02c0.19,0.01,0.33,0.03,0.43,0.05c0.1,0.02,0.17,0.06,0.21,0.12c0.04,0.05,0.07,0.12,0.09,0.2l1.25,3.59
			l2.59-3.59c0.05-0.06,0.1-0.12,0.16-0.17c0.06-0.05,0.14-0.09,0.27-0.12c0.12-0.03,0.28-0.06,0.47-0.07
			c0.19-0.02,0.45-0.02,0.78-0.02c0.37,0,0.66,0.01,0.88,0.02s0.38,0.05,0.49,0.1c0.11,0.05,0.15,0.11,0.14,0.2
			c-0.01,0.09-0.07,0.2-0.17,0.34L173.49,289.13z"/>
	</g>
	<g>
		<path class="st1" d="M263.75,315.45c0.04,0.29,0.06,0.52,0.05,0.69c0,0.17-0.06,0.29-0.17,0.38c-0.11,0.09-0.29,0.14-0.54,0.16
			c-0.25,0.02-0.59,0.03-1.02,0.03c-0.31,0-0.56-0.01-0.75-0.02c-0.19-0.01-0.34-0.03-0.45-0.06c-0.1-0.03-0.18-0.08-0.22-0.14
			c-0.04-0.06-0.06-0.15-0.07-0.27l-0.42-3.13h-5.86l-1.62,3.06c-0.06,0.11-0.12,0.21-0.19,0.28c-0.07,0.08-0.18,0.14-0.31,0.17
			c-0.14,0.04-0.32,0.07-0.55,0.09c-0.23,0.02-0.52,0.02-0.86,0.02c-0.37,0-0.66-0.01-0.86-0.04c-0.2-0.03-0.34-0.08-0.41-0.18
			s-0.08-0.22-0.02-0.39s0.16-0.39,0.31-0.68l7.57-13.84c0.08-0.14,0.16-0.25,0.24-0.33c0.08-0.08,0.19-0.15,0.34-0.19
			c0.15-0.04,0.35-0.07,0.6-0.08c0.25-0.01,0.59-0.02,0.99-0.02c0.47,0,0.85,0.01,1.13,0.02c0.28,0.01,0.49,0.04,0.65,0.08
			c0.15,0.04,0.25,0.11,0.3,0.2c0.05,0.09,0.08,0.21,0.1,0.36L263.75,315.45z M259.01,304H259l-3.48,6.63h4.39L259.01,304z"/>
		<path class="st1" d="M275.51,316.65c-0.14,0.73-0.37,1.37-0.68,1.91c-0.31,0.54-0.71,1-1.21,1.36s-1.1,0.64-1.81,0.83
			c-0.71,0.19-1.54,0.28-2.49,0.28c-0.68,0-1.3-0.05-1.84-0.16c-0.54-0.11-0.99-0.25-1.36-0.42c-0.13-0.06-0.22-0.14-0.27-0.22
			c-0.05-0.08-0.07-0.19-0.07-0.34c0-0.05,0-0.13,0.01-0.24c0.01-0.11,0.03-0.24,0.05-0.37c0.03-0.14,0.06-0.28,0.1-0.43
			c0.04-0.15,0.09-0.28,0.15-0.4c0.06-0.12,0.13-0.21,0.2-0.29c0.07-0.08,0.16-0.11,0.25-0.11s0.22,0.03,0.36,0.1
			s0.33,0.14,0.56,0.22c0.23,0.08,0.52,0.16,0.87,0.22s0.77,0.1,1.28,0.1c0.41,0,0.78-0.03,1.1-0.1c0.32-0.06,0.61-0.17,0.85-0.31
			c0.24-0.14,0.44-0.33,0.58-0.55c0.15-0.22,0.26-0.5,0.32-0.83c0.11-0.52,0.21-0.96,0.32-1.32c0.1-0.35,0.2-0.64,0.29-0.87
			c-0.14,0.27-0.35,0.53-0.62,0.79s-0.58,0.5-0.92,0.7c-0.35,0.21-0.72,0.38-1.12,0.5c-0.4,0.12-0.8,0.19-1.2,0.19
			c-0.62,0-1.14-0.11-1.56-0.32c-0.42-0.21-0.77-0.5-1.03-0.87c-0.27-0.37-0.46-0.8-0.57-1.3c-0.12-0.5-0.17-1.04-0.17-1.61
			c0-0.52,0.05-1.09,0.14-1.69c0.1-0.6,0.25-1.2,0.45-1.8c0.2-0.6,0.46-1.16,0.78-1.71s0.69-1.03,1.13-1.45
			c0.44-0.42,0.94-0.76,1.51-1.01c0.57-0.25,1.2-0.37,1.91-0.37c0.67,0,1.26,0.14,1.77,0.42c0.51,0.28,0.96,0.68,1.35,1.21
			l0.19-0.95c0.03-0.17,0.16-0.29,0.38-0.36c0.22-0.07,0.58-0.11,1.07-0.11c0.24,0,0.44,0.01,0.6,0.03
			c0.16,0.02,0.29,0.05,0.38,0.09c0.09,0.04,0.15,0.08,0.19,0.14c0.03,0.06,0.04,0.13,0.03,0.21L275.51,316.65z M274.11,308.67
			c-0.28-0.44-0.59-0.77-0.93-0.99c-0.34-0.22-0.74-0.33-1.19-0.33c-0.34,0-0.65,0.08-0.92,0.24c-0.28,0.16-0.53,0.38-0.75,0.65
			c-0.22,0.27-0.41,0.58-0.58,0.93c-0.17,0.35-0.3,0.72-0.41,1.11c-0.11,0.39-0.19,0.77-0.24,1.16s-0.08,0.75-0.08,1.1
			c0,0.27,0.03,0.52,0.07,0.75c0.05,0.22,0.12,0.42,0.22,0.57c0.1,0.16,0.23,0.28,0.39,0.36c0.16,0.08,0.35,0.13,0.57,0.13
			c0.35,0,0.72-0.11,1.09-0.32c0.37-0.21,0.71-0.5,1.04-0.87c0.32-0.37,0.61-0.79,0.85-1.29c0.24-0.49,0.42-1.01,0.54-1.57
			L274.11,308.67z M277.3,300.07c0,0.08-0.02,0.22-0.05,0.43c-0.04,0.21-0.1,0.44-0.2,0.69c-0.1,0.26-0.24,0.52-0.43,0.8
			c-0.19,0.28-0.43,0.53-0.73,0.76c-0.3,0.23-0.66,0.42-1.1,0.56c-0.43,0.14-0.95,0.22-1.54,0.22c-0.61,0-1.11-0.06-1.51-0.19
			c-0.4-0.13-0.71-0.31-0.95-0.53c-0.23-0.22-0.4-0.48-0.49-0.78c-0.09-0.29-0.14-0.6-0.14-0.91c0-0.09,0-0.19,0.01-0.31
			c0.01-0.12,0.02-0.24,0.04-0.36c0.02-0.12,0.04-0.22,0.07-0.31c0.03-0.09,0.06-0.16,0.1-0.2c0.07-0.06,0.18-0.11,0.33-0.14
			c0.15-0.03,0.36-0.05,0.62-0.05c0.19,0,0.35,0.01,0.48,0.02c0.12,0.02,0.22,0.04,0.29,0.07c0.07,0.03,0.12,0.07,0.14,0.11
			c0.03,0.04,0.04,0.09,0.04,0.15c0,0.07-0.01,0.15-0.02,0.25c-0.01,0.09-0.02,0.18-0.02,0.27c0,0.15,0.02,0.29,0.06,0.41
			c0.04,0.12,0.1,0.22,0.19,0.31c0.09,0.09,0.21,0.16,0.36,0.21c0.15,0.05,0.34,0.07,0.56,0.07c0.22,0,0.43-0.03,0.63-0.09
			c0.19-0.06,0.37-0.14,0.52-0.26c0.16-0.12,0.29-0.26,0.4-0.43c0.11-0.17,0.2-0.38,0.26-0.63c0.03-0.08,0.07-0.15,0.11-0.21
			c0.04-0.06,0.11-0.11,0.19-0.14c0.08-0.04,0.19-0.06,0.31-0.09c0.13-0.02,0.29-0.03,0.49-0.03c0.21,0,0.38,0.01,0.5,0.02
			s0.22,0.04,0.29,0.06c0.07,0.02,0.11,0.06,0.14,0.1C277.29,299.98,277.3,300.03,277.3,300.07z"/>
		<path class="st1" d="M288.65,316.23c-0.03,0.17-0.16,0.29-0.38,0.36c-0.22,0.07-0.58,0.11-1.07,0.11c-0.25,0-0.45-0.01-0.61-0.02
			c-0.16-0.02-0.28-0.04-0.38-0.08c-0.1-0.04-0.16-0.09-0.19-0.14c-0.03-0.06-0.04-0.14-0.02-0.22l0.32-1.73
			c-0.12,0.26-0.31,0.53-0.58,0.81c-0.26,0.29-0.58,0.55-0.94,0.78c-0.36,0.24-0.76,0.43-1.2,0.58c-0.44,0.15-0.89,0.22-1.36,0.22
			c-0.46,0-0.86-0.06-1.2-0.18c-0.34-0.12-0.64-0.27-0.88-0.48c-0.24-0.2-0.45-0.44-0.61-0.71c-0.16-0.27-0.29-0.56-0.39-0.87
			c-0.1-0.31-0.17-0.62-0.2-0.95c-0.04-0.33-0.06-0.65-0.06-0.96c0-0.52,0.05-1.08,0.14-1.68c0.1-0.6,0.25-1.19,0.45-1.78
			c0.2-0.59,0.46-1.16,0.78-1.7c0.31-0.55,0.69-1.03,1.13-1.45c0.44-0.42,0.94-0.75,1.51-1c0.57-0.25,1.2-0.37,1.91-0.37
			c0.32,0,0.61,0.04,0.9,0.1s0.55,0.16,0.78,0.28c0.24,0.12,0.45,0.26,0.65,0.42c0.19,0.16,0.36,0.33,0.5,0.5l1.14-5.68
			c0.02-0.08,0.05-0.15,0.11-0.22c0.06-0.06,0.15-0.12,0.27-0.16c0.12-0.04,0.29-0.08,0.48-0.1s0.44-0.04,0.74-0.04
			c0.3,0,0.54,0.01,0.73,0.04c0.19,0.02,0.34,0.06,0.44,0.1s0.17,0.1,0.2,0.16c0.03,0.06,0.04,0.14,0.03,0.22L288.65,316.23z
			 M287.14,308.69c-0.28-0.44-0.59-0.78-0.93-1c-0.34-0.23-0.74-0.34-1.19-0.34c-0.33,0-0.63,0.08-0.91,0.23
			c-0.28,0.16-0.53,0.37-0.75,0.63s-0.41,0.57-0.58,0.92c-0.17,0.35-0.3,0.72-0.41,1.1c-0.11,0.39-0.19,0.77-0.25,1.16
			c-0.06,0.39-0.09,0.75-0.09,1.1c0,0.61,0.1,1.07,0.3,1.38c0.2,0.31,0.52,0.46,0.95,0.46c0.35,0,0.72-0.11,1.09-0.32
			c0.37-0.21,0.71-0.5,1.04-0.86c0.32-0.36,0.61-0.78,0.85-1.27c0.24-0.49,0.42-1.01,0.54-1.56L287.14,308.69z"/>
		<path class="st1" d="M301.67,316.23c-0.03,0.17-0.16,0.29-0.38,0.36c-0.22,0.07-0.58,0.11-1.07,0.11c-0.25,0-0.45-0.01-0.61-0.02
			c-0.16-0.02-0.28-0.04-0.38-0.08c-0.1-0.04-0.16-0.09-0.19-0.14c-0.03-0.06-0.03-0.14-0.02-0.22l0.34-1.73
			c-0.12,0.26-0.31,0.53-0.58,0.81c-0.26,0.29-0.58,0.54-0.94,0.78c-0.36,0.23-0.76,0.43-1.2,0.58s-0.89,0.23-1.36,0.23
			c-0.64,0-1.18-0.11-1.6-0.34c-0.43-0.23-0.77-0.53-1.03-0.91c-0.26-0.38-0.44-0.82-0.55-1.31c-0.11-0.49-0.16-1.01-0.16-1.54
			c0-0.51,0.05-1.06,0.14-1.66c0.1-0.6,0.24-1.2,0.45-1.79c0.2-0.59,0.46-1.17,0.77-1.72c0.31-0.55,0.69-1.04,1.13-1.47
			c0.44-0.42,0.94-0.76,1.51-1.02c0.57-0.25,1.21-0.38,1.92-0.38c0.67,0,1.26,0.14,1.77,0.42c0.51,0.28,0.96,0.68,1.35,1.21
			l0.19-0.95c0.03-0.17,0.16-0.29,0.38-0.36c0.22-0.07,0.58-0.11,1.07-0.11c0.24,0,0.44,0.01,0.6,0.03
			c0.16,0.02,0.29,0.05,0.38,0.09c0.09,0.04,0.15,0.08,0.19,0.14c0.03,0.06,0.04,0.13,0.03,0.21L301.67,316.23z M300.18,308.68
			c-0.28-0.44-0.59-0.77-0.93-0.99c-0.34-0.22-0.74-0.33-1.19-0.33c-0.34,0-0.65,0.08-0.93,0.24c-0.28,0.16-0.53,0.37-0.75,0.64
			c-0.22,0.27-0.41,0.58-0.57,0.93c-0.17,0.35-0.3,0.72-0.41,1.1c-0.11,0.38-0.19,0.77-0.24,1.16s-0.08,0.75-0.08,1.08
			c0,0.24,0.02,0.47,0.06,0.69c0.04,0.22,0.1,0.41,0.2,0.58c0.1,0.17,0.22,0.3,0.39,0.4s0.37,0.15,0.61,0.15
			c0.35,0,0.72-0.11,1.09-0.32c0.37-0.21,0.71-0.5,1.04-0.87c0.32-0.37,0.61-0.79,0.85-1.28c0.24-0.49,0.42-1.01,0.54-1.56
			L300.18,308.68z"/>
		<path class="st1" d="M306.82,316.87c-0.45-0.06-0.84-0.13-1.16-0.23c-0.32-0.1-0.58-0.2-0.78-0.3c-0.2-0.1-0.35-0.2-0.44-0.29
			c-0.06-0.06-0.11-0.13-0.14-0.2c-0.03-0.07-0.04-0.17-0.04-0.28c0-0.07,0.01-0.17,0.02-0.28c0.01-0.11,0.03-0.24,0.06-0.37
			c0.03-0.14,0.06-0.27,0.1-0.41c0.04-0.14,0.08-0.26,0.13-0.37c0.05-0.11,0.1-0.2,0.16-0.27c0.06-0.07,0.12-0.1,0.18-0.1
			c0.11,0,0.24,0.05,0.37,0.14c0.14,0.1,0.31,0.2,0.53,0.32s0.48,0.23,0.8,0.33c0.32,0.1,0.71,0.15,1.19,0.15
			c0.33,0,0.62-0.04,0.86-0.11s0.45-0.18,0.61-0.32c0.16-0.14,0.28-0.29,0.36-0.47c0.08-0.18,0.11-0.37,0.11-0.57
			c0-0.28-0.1-0.51-0.29-0.69c-0.2-0.18-0.45-0.34-0.74-0.49s-0.62-0.31-0.97-0.47c-0.35-0.16-0.67-0.36-0.97-0.59
			c-0.3-0.23-0.54-0.52-0.74-0.87c-0.2-0.35-0.29-0.78-0.29-1.3c0-0.57,0.11-1.1,0.32-1.59c0.22-0.49,0.53-0.92,0.95-1.28
			c0.42-0.37,0.93-0.65,1.52-0.86c0.59-0.2,1.27-0.31,2.03-0.31c0.34,0,0.66,0.02,0.98,0.07c0.32,0.04,0.6,0.1,0.86,0.17
			c0.25,0.07,0.47,0.15,0.66,0.24c0.19,0.09,0.32,0.18,0.4,0.27c0.09,0.08,0.13,0.22,0.13,0.41c0,0.1-0.01,0.24-0.04,0.43
			c-0.03,0.19-0.07,0.38-0.13,0.57c-0.06,0.19-0.12,0.36-0.2,0.5c-0.08,0.14-0.16,0.21-0.26,0.21c-0.11,0-0.23-0.04-0.37-0.12
			c-0.14-0.08-0.31-0.16-0.51-0.25c-0.2-0.09-0.44-0.17-0.7-0.25c-0.27-0.07-0.58-0.11-0.95-0.11c-0.28,0-0.53,0.04-0.75,0.11
			c-0.22,0.07-0.4,0.17-0.55,0.29c-0.14,0.12-0.25,0.27-0.33,0.44c-0.08,0.17-0.11,0.35-0.11,0.54c0,0.25,0.1,0.46,0.31,0.63
			c0.2,0.17,0.46,0.33,0.76,0.48c0.31,0.15,0.64,0.3,0.99,0.46c0.35,0.16,0.68,0.36,0.99,0.6c0.31,0.24,0.56,0.53,0.76,0.88
			c0.2,0.35,0.3,0.78,0.3,1.3c0,0.61-0.12,1.18-0.36,1.72c-0.24,0.53-0.63,1.01-1.16,1.43c-0.53,0.42-1.23,0.73-2.1,0.92l0.18,0.69
			c0.05,0.2,0.09,0.39,0.12,0.57c0.03,0.18,0.05,0.35,0.05,0.53c0,0.43-0.07,0.81-0.21,1.13c-0.14,0.32-0.34,0.58-0.59,0.78
			c-0.25,0.2-0.56,0.35-0.92,0.45c-0.36,0.1-0.76,0.14-1.19,0.14c-0.22,0-0.45-0.01-0.67-0.02c-0.22-0.02-0.42-0.04-0.61-0.08
			c-0.19-0.04-0.36-0.08-0.5-0.12s-0.26-0.09-0.35-0.13c-0.09-0.05-0.15-0.1-0.19-0.15c-0.04-0.05-0.05-0.13-0.05-0.24
			c0-0.08,0.01-0.19,0.03-0.34c0.02-0.14,0.05-0.29,0.1-0.43c0.05-0.14,0.12-0.27,0.2-0.38c0.09-0.11,0.19-0.16,0.33-0.16h1.37
			c0.11,0,0.22-0.01,0.32-0.04s0.19-0.07,0.27-0.12s0.14-0.12,0.18-0.21c0.04-0.09,0.06-0.19,0.06-0.3c0-0.08-0.01-0.17-0.02-0.28
			c-0.01-0.1-0.03-0.21-0.05-0.31L306.82,316.87z"/>
	</g>
	<g>
		<path class="st1" d="M444.62,318.94c0,0.08-0.01,0.19-0.02,0.32c-0.01,0.13-0.03,0.27-0.06,0.42c-0.03,0.15-0.06,0.3-0.1,0.45
			c-0.04,0.15-0.09,0.28-0.14,0.4c-0.06,0.12-0.12,0.22-0.19,0.3c-0.07,0.07-0.14,0.11-0.21,0.11c-0.12,0-0.29-0.07-0.51-0.2
			c-0.22-0.14-0.5-0.29-0.84-0.46c-0.35-0.17-0.77-0.32-1.27-0.46c-0.5-0.14-1.09-0.2-1.77-0.2s-1.31,0.1-1.88,0.3
			c-0.57,0.2-1.09,0.46-1.56,0.81c-0.47,0.34-0.88,0.75-1.24,1.21c-0.36,0.46-0.66,0.96-0.91,1.49s-0.43,1.08-0.55,1.65
			c-0.12,0.57-0.18,1.13-0.18,1.69c0,0.62,0.09,1.16,0.27,1.63c0.18,0.46,0.43,0.85,0.77,1.17c0.33,0.31,0.74,0.55,1.21,0.71
			c0.47,0.16,1.01,0.24,1.59,0.24c0.39,0,0.78-0.04,1.17-0.12c0.39-0.08,0.74-0.2,1.07-0.36l0.72-3.61h-2.94
			c-0.1,0-0.17-0.04-0.23-0.12c-0.06-0.07-0.08-0.2-0.08-0.37c0-0.08,0.01-0.19,0.02-0.32c0.02-0.13,0.04-0.26,0.07-0.4
			c0.03-0.14,0.06-0.29,0.1-0.43c0.04-0.14,0.09-0.27,0.15-0.39c0.06-0.11,0.13-0.2,0.2-0.28c0.07-0.07,0.15-0.11,0.24-0.11h5.27
			c0.27,0,0.45,0.09,0.57,0.27c0.11,0.17,0.14,0.43,0.07,0.75l-1.25,6.25c-0.03,0.15-0.07,0.28-0.12,0.39
			c-0.05,0.11-0.11,0.21-0.19,0.3c-0.09,0.1-0.29,0.21-0.62,0.35c-0.32,0.13-0.71,0.26-1.18,0.39c-0.46,0.13-0.98,0.24-1.55,0.33
			c-0.57,0.09-1.15,0.13-1.75,0.13c-1.12,0-2.1-0.13-2.95-0.39c-0.85-0.26-1.57-0.64-2.14-1.15c-0.58-0.51-1.01-1.14-1.31-1.87
			c-0.3-0.74-0.45-1.59-0.45-2.56c0-0.87,0.09-1.72,0.28-2.56c0.19-0.83,0.47-1.63,0.84-2.38c0.37-0.75,0.84-1.45,1.39-2.08
			c0.55-0.64,1.19-1.19,1.92-1.66c0.73-0.47,1.54-0.83,2.43-1.09c0.89-0.26,1.87-0.39,2.93-0.39c0.59,0,1.14,0.05,1.67,0.14
			c0.52,0.09,0.99,0.2,1.4,0.34c0.41,0.13,0.76,0.27,1.04,0.43c0.28,0.15,0.47,0.27,0.56,0.36s0.16,0.18,0.19,0.28
			C444.61,318.66,444.62,318.78,444.62,318.94z"/>
		<path class="st1" d="M456.89,325.33c0,0.58-0.05,1.17-0.16,1.78c-0.11,0.61-0.28,1.21-0.51,1.79c-0.23,0.58-0.53,1.13-0.9,1.64
			c-0.37,0.51-0.81,0.96-1.32,1.35c-0.51,0.39-1.09,0.7-1.75,0.92c-0.66,0.23-1.4,0.34-2.23,0.34c-0.81,0-1.51-0.09-2.1-0.28
			c-0.59-0.19-1.08-0.47-1.48-0.83c-0.39-0.36-0.69-0.82-0.88-1.35s-0.29-1.15-0.29-1.84c0-0.58,0.05-1.18,0.16-1.78
			c0.11-0.61,0.28-1.21,0.51-1.78c0.23-0.58,0.53-1.13,0.9-1.65c0.37-0.52,0.81-0.97,1.32-1.36s1.09-0.69,1.75-0.92
			c0.66-0.22,1.4-0.34,2.23-0.34c0.81,0,1.51,0.1,2.1,0.29c0.59,0.19,1.08,0.47,1.48,0.83c0.39,0.37,0.69,0.82,0.88,1.35
			C456.79,324.02,456.89,324.64,456.89,325.33z M453.75,325.53c0-0.34-0.03-0.64-0.1-0.9c-0.07-0.26-0.18-0.48-0.34-0.66
			c-0.16-0.18-0.36-0.32-0.6-0.42c-0.24-0.1-0.55-0.14-0.9-0.14c-0.4,0-0.76,0.08-1.09,0.23c-0.32,0.16-0.61,0.37-0.86,0.63
			c-0.25,0.26-0.47,0.57-0.66,0.92c-0.19,0.35-0.34,0.72-0.46,1.1c-0.12,0.39-0.21,0.78-0.26,1.18c-0.06,0.4-0.09,0.78-0.09,1.14
			c0,0.34,0.03,0.64,0.1,0.91c0.07,0.26,0.18,0.49,0.34,0.67c0.16,0.18,0.36,0.32,0.6,0.42c0.24,0.1,0.55,0.14,0.9,0.14
			c0.4,0,0.76-0.08,1.09-0.23c0.32-0.16,0.61-0.37,0.86-0.64c0.25-0.27,0.47-0.58,0.66-0.93c0.19-0.35,0.34-0.72,0.46-1.11
			c0.12-0.39,0.21-0.78,0.26-1.18C453.72,326.27,453.75,325.89,453.75,325.53z M451.99,318.11c-0.06,0.3-0.13,0.54-0.22,0.73
			c-0.09,0.19-0.2,0.35-0.35,0.46c-0.14,0.11-0.32,0.19-0.52,0.23c-0.21,0.04-0.45,0.06-0.72,0.06c-0.28,0-0.51-0.02-0.7-0.06
			c-0.19-0.04-0.33-0.11-0.43-0.23c-0.1-0.12-0.16-0.27-0.18-0.46c-0.02-0.19,0-0.44,0.05-0.73c0.05-0.3,0.12-0.54,0.21-0.73
			s0.21-0.35,0.36-0.46c0.14-0.11,0.32-0.19,0.52-0.23c0.2-0.04,0.44-0.06,0.72-0.06c0.27,0,0.5,0.02,0.69,0.06
			c0.18,0.04,0.33,0.12,0.43,0.23c0.1,0.11,0.17,0.27,0.19,0.46C452.06,317.56,452.05,317.81,451.99,318.11z M456.7,318.11
			c-0.06,0.3-0.13,0.54-0.22,0.73s-0.21,0.35-0.35,0.46c-0.14,0.11-0.31,0.19-0.52,0.23c-0.2,0.04-0.45,0.06-0.73,0.06
			c-0.27,0-0.5-0.02-0.69-0.06c-0.18-0.04-0.33-0.11-0.43-0.23c-0.1-0.12-0.16-0.27-0.18-0.46c-0.02-0.19,0-0.44,0.06-0.73
			c0.05-0.3,0.12-0.54,0.21-0.73s0.21-0.35,0.36-0.46c0.14-0.11,0.32-0.19,0.52-0.23c0.2-0.04,0.44-0.06,0.71-0.06
			c0.28,0,0.51,0.02,0.7,0.06c0.19,0.04,0.33,0.12,0.43,0.23c0.1,0.11,0.17,0.27,0.19,0.46
			C456.78,317.56,456.76,317.81,456.7,318.11z"/>
		<path class="st1" d="M469.39,321.67c0,0.1-0.01,0.22-0.04,0.35c-0.03,0.13-0.06,0.26-0.11,0.4c-0.27,0.74-0.57,1.51-0.89,2.29
			c-0.32,0.79-0.68,1.6-1.09,2.43c-0.41,0.84-0.88,1.7-1.4,2.59c-0.52,0.89-1.12,1.82-1.8,2.77l-2.94,4.17
			c-0.07,0.1-0.16,0.19-0.27,0.26c-0.11,0.07-0.24,0.13-0.41,0.17c-0.17,0.04-0.36,0.08-0.6,0.1c-0.23,0.03-0.5,0.04-0.81,0.04
			c-0.35,0-0.63-0.01-0.84-0.04c-0.21-0.03-0.37-0.07-0.46-0.14c-0.1-0.06-0.14-0.14-0.13-0.24c0.01-0.1,0.06-0.21,0.17-0.35
			l2.74-3.61l-1.77-10.34c-0.02-0.1-0.03-0.22-0.05-0.33c-0.02-0.11-0.03-0.21-0.03-0.29c0-0.14,0.03-0.26,0.08-0.35
			c0.05-0.09,0.14-0.16,0.27-0.21c0.12-0.05,0.29-0.08,0.5-0.1c0.21-0.02,0.46-0.03,0.76-0.03c0.33,0,0.59,0,0.78,0.02
			c0.19,0.01,0.33,0.04,0.43,0.08s0.16,0.1,0.2,0.18c0.04,0.08,0.06,0.18,0.08,0.3l1.11,7.53h0.03c0.4-0.6,0.77-1.21,1.1-1.83
			c0.33-0.62,0.63-1.25,0.9-1.89c0.27-0.64,0.52-1.28,0.75-1.94c0.23-0.65,0.44-1.32,0.63-1.98c0.02-0.08,0.05-0.15,0.11-0.21
			c0.06-0.06,0.15-0.11,0.28-0.14c0.13-0.04,0.31-0.07,0.52-0.09c0.22-0.02,0.5-0.03,0.84-0.03c0.51,0,0.87,0.03,1.06,0.1
			C469.29,321.39,469.39,321.5,469.39,321.67z"/>
		<path class="st1" d="M472.28,332.96c-0.83-0.21-1.47-0.64-1.92-1.29c-0.45-0.66-0.68-1.54-0.68-2.65c0-0.49,0.04-1.03,0.14-1.61
			c0.09-0.59,0.24-1.18,0.45-1.77c0.21-0.59,0.48-1.16,0.81-1.72c0.33-0.55,0.74-1.04,1.22-1.47c0.48-0.43,1.04-0.77,1.68-1.02
			c0.63-0.26,1.37-0.39,2.19-0.39c0.32,0,0.63,0.02,0.94,0.07s0.59,0.12,0.84,0.2c0.26,0.09,0.48,0.18,0.68,0.29
			c0.2,0.11,0.35,0.22,0.44,0.31c0.1,0.09,0.16,0.17,0.19,0.25c0.03,0.07,0.04,0.16,0.04,0.26c0,0.19-0.02,0.4-0.07,0.63
			c-0.04,0.23-0.1,0.46-0.17,0.66c-0.07,0.21-0.16,0.39-0.27,0.53c-0.11,0.14-0.23,0.21-0.36,0.21c-0.12,0-0.24-0.05-0.35-0.14
			c-0.11-0.1-0.25-0.2-0.42-0.32c-0.17-0.12-0.37-0.23-0.62-0.33c-0.25-0.1-0.57-0.15-0.96-0.15c-0.42,0-0.79,0.09-1.12,0.27
			c-0.33,0.19-0.62,0.43-0.86,0.72s-0.45,0.63-0.61,1c-0.16,0.37-0.29,0.75-0.4,1.13c-0.11,0.38-0.18,0.75-0.22,1.1
			c-0.04,0.35-0.06,0.65-0.06,0.91c0,0.65,0.14,1.15,0.43,1.48c0.29,0.34,0.73,0.5,1.34,0.5c0.45,0,0.84-0.06,1.16-0.17
			c0.32-0.11,0.6-0.24,0.83-0.39c0.23-0.14,0.43-0.27,0.59-0.38c0.17-0.11,0.32-0.17,0.45-0.17c0.08,0,0.14,0.04,0.18,0.11
			c0.04,0.07,0.05,0.17,0.05,0.31s-0.02,0.31-0.05,0.51c-0.03,0.21-0.07,0.41-0.13,0.62c-0.05,0.21-0.11,0.4-0.18,0.58
			c-0.07,0.18-0.16,0.33-0.27,0.43c-0.11,0.1-0.29,0.23-0.54,0.37c-0.25,0.14-0.55,0.27-0.89,0.39c-0.35,0.12-0.71,0.19-1.09,0.23
			l0.14,0.6c0.06,0.2,0.1,0.39,0.13,0.56c0.03,0.18,0.05,0.36,0.05,0.53c0,0.43-0.07,0.81-0.21,1.13c-0.14,0.32-0.34,0.58-0.6,0.79
			c-0.26,0.2-0.56,0.35-0.92,0.45c-0.36,0.1-0.75,0.14-1.19,0.14c-0.23,0-0.46-0.01-0.68-0.02c-0.22-0.01-0.42-0.04-0.61-0.08
			c-0.19-0.04-0.35-0.08-0.5-0.12s-0.26-0.09-0.36-0.13c-0.09-0.05-0.15-0.1-0.18-0.15s-0.05-0.13-0.05-0.24
			c0-0.08,0.01-0.19,0.03-0.34c0.02-0.14,0.06-0.29,0.1-0.43s0.11-0.27,0.2-0.38c0.08-0.11,0.19-0.16,0.32-0.16h1.37
			c0.11,0,0.22-0.01,0.33-0.04c0.1-0.03,0.19-0.07,0.27-0.12s0.14-0.12,0.18-0.21c0.04-0.09,0.07-0.19,0.07-0.3
			c0-0.08-0.01-0.17-0.02-0.28c-0.01-0.1-0.03-0.21-0.05-0.31L472.28,332.96z"/>
		<path class="st1" d="M489.4,332.48c-0.03,0.17-0.16,0.29-0.38,0.36c-0.22,0.07-0.58,0.11-1.07,0.11c-0.25,0-0.45-0.01-0.61-0.03
			c-0.16-0.01-0.28-0.04-0.38-0.08c-0.1-0.04-0.16-0.09-0.19-0.14c-0.03-0.06-0.03-0.13-0.02-0.22l0.34-1.73
			c-0.12,0.26-0.31,0.53-0.58,0.82c-0.26,0.29-0.58,0.54-0.94,0.78c-0.36,0.23-0.76,0.43-1.2,0.58c-0.44,0.15-0.89,0.23-1.36,0.23
			c-0.64,0-1.18-0.11-1.6-0.34c-0.43-0.23-0.77-0.53-1.03-0.91c-0.26-0.38-0.44-0.82-0.55-1.31c-0.11-0.49-0.16-1.01-0.16-1.54
			c0-0.51,0.05-1.06,0.14-1.66c0.1-0.6,0.24-1.19,0.45-1.79c0.2-0.59,0.46-1.16,0.77-1.72c0.31-0.55,0.69-1.04,1.13-1.47
			c0.44-0.42,0.94-0.76,1.51-1.02c0.57-0.25,1.21-0.38,1.92-0.38c0.67,0,1.26,0.14,1.77,0.42c0.51,0.27,0.96,0.68,1.35,1.21
			l0.19-0.95c0.03-0.17,0.16-0.29,0.38-0.36c0.22-0.07,0.58-0.11,1.07-0.11c0.24,0,0.44,0.01,0.6,0.03
			c0.16,0.02,0.29,0.05,0.38,0.09c0.09,0.03,0.15,0.08,0.19,0.14c0.03,0.06,0.04,0.13,0.03,0.21L489.4,332.48z M487.91,324.93
			c-0.28-0.44-0.59-0.77-0.93-0.99c-0.34-0.22-0.74-0.33-1.19-0.33c-0.34,0-0.65,0.08-0.93,0.24c-0.28,0.16-0.53,0.37-0.75,0.65
			c-0.22,0.27-0.41,0.58-0.57,0.93c-0.17,0.35-0.3,0.72-0.41,1.1c-0.11,0.38-0.19,0.77-0.24,1.16c-0.05,0.39-0.08,0.75-0.08,1.08
			c0,0.24,0.02,0.47,0.06,0.69c0.04,0.22,0.1,0.41,0.2,0.58c0.1,0.17,0.22,0.3,0.39,0.4s0.37,0.15,0.61,0.15
			c0.35,0,0.72-0.11,1.09-0.32c0.37-0.22,0.71-0.5,1.04-0.87c0.32-0.37,0.61-0.79,0.85-1.28c0.24-0.49,0.42-1.01,0.54-1.56
			L487.91,324.93z"/>
		<path class="st1" d="M504,321.67c0,0.1-0.01,0.22-0.04,0.35c-0.03,0.13-0.06,0.26-0.11,0.4c-0.27,0.74-0.57,1.51-0.89,2.29
			s-0.68,1.6-1.09,2.43c-0.41,0.84-0.88,1.7-1.4,2.59c-0.52,0.89-1.12,1.82-1.8,2.77l-2.94,4.17c-0.07,0.1-0.16,0.19-0.27,0.26
			c-0.11,0.07-0.24,0.13-0.41,0.17c-0.17,0.04-0.36,0.08-0.6,0.1c-0.23,0.03-0.5,0.04-0.81,0.04c-0.35,0-0.63-0.01-0.84-0.04
			c-0.21-0.03-0.37-0.07-0.46-0.14c-0.1-0.06-0.14-0.14-0.13-0.24c0.01-0.1,0.06-0.21,0.17-0.35l2.74-3.61l-1.77-10.34
			c-0.02-0.1-0.03-0.22-0.05-0.33c-0.02-0.11-0.03-0.21-0.03-0.29c0-0.14,0.03-0.26,0.08-0.35c0.05-0.09,0.14-0.16,0.27-0.21
			c0.12-0.05,0.29-0.08,0.5-0.1c0.21-0.02,0.46-0.03,0.76-0.03c0.33,0,0.59,0,0.78,0.02c0.19,0.01,0.33,0.04,0.43,0.08
			c0.1,0.04,0.16,0.1,0.2,0.18c0.04,0.08,0.06,0.18,0.08,0.3l1.11,7.53h0.03c0.4-0.6,0.77-1.21,1.1-1.83
			c0.33-0.62,0.63-1.25,0.9-1.89c0.27-0.64,0.52-1.28,0.75-1.94c0.23-0.65,0.44-1.32,0.63-1.98c0.02-0.08,0.05-0.15,0.11-0.21
			c0.06-0.06,0.15-0.11,0.28-0.14c0.13-0.04,0.31-0.07,0.52-0.09c0.22-0.02,0.5-0.03,0.84-0.03c0.51,0,0.87,0.03,1.06,0.1
			C503.91,321.39,504,321.5,504,321.67z"/>
	</g>
	<g>
		<path class="st1" d="M426.57,422.8c-0.2,1-0.52,1.87-0.94,2.62c-0.42,0.75-0.96,1.38-1.59,1.88c-0.63,0.51-1.36,0.89-2.19,1.14
			c-0.82,0.25-1.73,0.38-2.73,0.38c-1.06,0-1.97-0.13-2.73-0.39c-0.76-0.26-1.36-0.65-1.8-1.16c-0.44-0.52-0.73-1.16-0.86-1.94
			c-0.13-0.78-0.09-1.67,0.12-2.69l1.86-9.26c0.02-0.08,0.05-0.15,0.11-0.22c0.06-0.06,0.16-0.12,0.29-0.16
			c0.13-0.04,0.3-0.07,0.51-0.1c0.2-0.03,0.46-0.04,0.78-0.04c0.31,0,0.56,0.01,0.76,0.04c0.2,0.02,0.36,0.06,0.47,0.1
			c0.11,0.04,0.19,0.09,0.22,0.16c0.04,0.07,0.05,0.14,0.03,0.22l-1.85,9.26c-0.13,0.62-0.17,1.15-0.11,1.6s0.19,0.82,0.4,1.12
			c0.21,0.29,0.5,0.51,0.86,0.65c0.36,0.14,0.79,0.21,1.3,0.21c0.51,0,0.99-0.08,1.43-0.23c0.44-0.16,0.83-0.39,1.16-0.69
			c0.34-0.3,0.63-0.67,0.86-1.1c0.24-0.43,0.41-0.93,0.52-1.48l1.87-9.33c0.02-0.08,0.05-0.15,0.12-0.22
			c0.06-0.06,0.15-0.12,0.28-0.16s0.29-0.07,0.5-0.1c0.21-0.03,0.47-0.04,0.77-0.04c0.31,0,0.55,0.01,0.75,0.04
			c0.19,0.02,0.35,0.06,0.46,0.1s0.19,0.09,0.22,0.16c0.04,0.07,0.05,0.14,0.03,0.22L426.57,422.8z"/>
		<path class="st1" d="M438.58,418.09c0,0.19-0.02,0.4-0.07,0.63c-0.04,0.23-0.1,0.46-0.17,0.66c-0.07,0.21-0.16,0.39-0.27,0.53
			c-0.11,0.14-0.23,0.21-0.36,0.21c-0.12,0-0.24-0.05-0.35-0.14c-0.11-0.1-0.25-0.2-0.42-0.32c-0.17-0.12-0.37-0.23-0.62-0.33
			c-0.25-0.1-0.57-0.15-0.96-0.15c-0.42,0-0.79,0.09-1.12,0.27c-0.33,0.19-0.62,0.43-0.86,0.72c-0.24,0.29-0.45,0.63-0.61,1
			c-0.16,0.37-0.29,0.75-0.4,1.13c-0.11,0.38-0.18,0.75-0.22,1.1s-0.06,0.65-0.06,0.91c0,0.65,0.14,1.15,0.43,1.48
			s0.73,0.5,1.34,0.5c0.45,0,0.84-0.06,1.16-0.17c0.32-0.11,0.6-0.24,0.83-0.39c0.23-0.14,0.43-0.27,0.59-0.38
			c0.17-0.11,0.32-0.17,0.45-0.17c0.08,0,0.14,0.04,0.18,0.11c0.04,0.07,0.05,0.17,0.05,0.31c0,0.14-0.02,0.31-0.05,0.51
			c-0.03,0.21-0.07,0.41-0.13,0.62c-0.05,0.21-0.11,0.4-0.18,0.58c-0.07,0.18-0.16,0.33-0.27,0.43c-0.11,0.1-0.28,0.22-0.51,0.36
			c-0.23,0.13-0.5,0.25-0.81,0.35c-0.31,0.11-0.64,0.19-1,0.26c-0.36,0.06-0.73,0.1-1.11,0.1c-1.37,0-2.4-0.35-3.09-1.04
			c-0.68-0.7-1.02-1.73-1.02-3.08c0-0.49,0.04-1.03,0.14-1.61s0.24-1.18,0.45-1.77c0.21-0.59,0.48-1.16,0.81-1.72
			c0.33-0.55,0.74-1.04,1.22-1.47c0.48-0.43,1.04-0.77,1.68-1.02c0.63-0.26,1.37-0.39,2.19-0.39c0.32,0,0.63,0.02,0.94,0.07
			c0.31,0.05,0.59,0.11,0.84,0.2c0.26,0.09,0.48,0.18,0.68,0.29c0.2,0.12,0.35,0.22,0.44,0.31s0.16,0.17,0.19,0.25
			C438.57,417.9,438.58,417.99,438.58,418.09z"/>
		<path class="st1" d="M448.67,428.15c-0.03,0.17-0.16,0.29-0.38,0.36c-0.22,0.07-0.58,0.11-1.07,0.11c-0.25,0-0.45-0.01-0.61-0.03
			c-0.16-0.01-0.28-0.04-0.38-0.08c-0.1-0.04-0.16-0.09-0.19-0.14c-0.03-0.06-0.03-0.13-0.02-0.22l0.34-1.73
			c-0.12,0.26-0.31,0.53-0.58,0.82c-0.26,0.29-0.58,0.54-0.94,0.78c-0.36,0.23-0.76,0.43-1.2,0.58s-0.89,0.23-1.36,0.23
			c-0.64,0-1.18-0.11-1.6-0.34c-0.43-0.23-0.77-0.53-1.03-0.91c-0.26-0.38-0.44-0.82-0.55-1.31c-0.11-0.49-0.16-1.01-0.16-1.54
			c0-0.51,0.05-1.06,0.14-1.66c0.1-0.6,0.24-1.19,0.45-1.79c0.2-0.59,0.46-1.16,0.77-1.72c0.31-0.55,0.69-1.04,1.13-1.47
			c0.44-0.42,0.94-0.76,1.51-1.02c0.57-0.25,1.21-0.38,1.92-0.38c0.67,0,1.26,0.14,1.77,0.42c0.51,0.27,0.96,0.68,1.35,1.21
			l0.19-0.95c0.03-0.17,0.16-0.29,0.38-0.36c0.22-0.07,0.58-0.11,1.07-0.11c0.24,0,0.44,0.01,0.6,0.03
			c0.16,0.02,0.29,0.05,0.38,0.09c0.09,0.03,0.15,0.08,0.19,0.14c0.03,0.06,0.04,0.13,0.03,0.21L448.67,428.15z M447.18,420.6
			c-0.28-0.44-0.59-0.77-0.93-0.99c-0.34-0.22-0.74-0.33-1.19-0.33c-0.34,0-0.65,0.08-0.93,0.24c-0.28,0.16-0.53,0.37-0.75,0.65
			c-0.22,0.27-0.41,0.58-0.57,0.93c-0.17,0.35-0.3,0.72-0.41,1.1c-0.11,0.38-0.19,0.77-0.24,1.16s-0.08,0.75-0.08,1.08
			c0,0.24,0.02,0.47,0.06,0.69c0.04,0.22,0.1,0.41,0.2,0.58c0.1,0.17,0.22,0.3,0.39,0.4c0.16,0.1,0.37,0.15,0.61,0.15
			c0.35,0,0.72-0.11,1.09-0.32c0.37-0.22,0.71-0.5,1.04-0.87c0.32-0.37,0.61-0.79,0.85-1.28c0.24-0.49,0.42-1.01,0.54-1.56
			L447.18,420.6z"/>
		<path class="st1" d="M460.65,417.21c0,0.06-0.01,0.16-0.02,0.3s-0.04,0.32-0.07,0.51s-0.07,0.39-0.12,0.6
			c-0.05,0.2-0.1,0.4-0.16,0.57c-0.06,0.18-0.13,0.32-0.2,0.43c-0.08,0.12-0.16,0.17-0.25,0.17c-0.07,0-0.14-0.01-0.22-0.04
			c-0.07-0.03-0.15-0.06-0.24-0.08c-0.09-0.03-0.18-0.06-0.29-0.09c-0.1-0.03-0.22-0.04-0.36-0.04c-0.27,0-0.57,0.11-0.88,0.32
			c-0.31,0.21-0.6,0.49-0.89,0.83c-0.28,0.34-0.53,0.74-0.75,1.19c-0.22,0.46-0.38,0.93-0.47,1.43l-0.96,4.84
			c-0.02,0.08-0.06,0.15-0.11,0.21c-0.06,0.06-0.15,0.11-0.28,0.15c-0.12,0.04-0.29,0.07-0.49,0.09c-0.2,0.02-0.45,0.03-0.74,0.03
			c-0.3,0-0.54-0.01-0.73-0.03c-0.19-0.02-0.34-0.05-0.45-0.09c-0.11-0.04-0.18-0.09-0.21-0.15c-0.03-0.06-0.04-0.13-0.02-0.21
			l2.15-10.77c0.02-0.08,0.05-0.15,0.11-0.21c0.06-0.06,0.14-0.11,0.25-0.14c0.11-0.04,0.25-0.07,0.42-0.09
			c0.17-0.02,0.38-0.03,0.62-0.03c0.25,0,0.45,0.01,0.61,0.03c0.16,0.02,0.28,0.05,0.37,0.09c0.09,0.03,0.15,0.08,0.17,0.14
			c0.03,0.06,0.03,0.13,0.02,0.21l-0.34,1.71c0.19-0.35,0.42-0.66,0.67-0.95c0.25-0.29,0.52-0.54,0.81-0.75
			c0.29-0.21,0.58-0.38,0.89-0.5c0.3-0.12,0.61-0.18,0.9-0.18c0.12,0,0.24,0.01,0.37,0.03c0.12,0.01,0.24,0.04,0.35,0.06
			c0.11,0.03,0.2,0.06,0.29,0.09c0.08,0.03,0.15,0.07,0.2,0.11C460.62,417.03,460.65,417.11,460.65,417.21z"/>
	</g>
	<g>
		<path class="st1" d="M590.07,513.02c0,0.14-0.05,0.3-0.16,0.46c-0.1,0.16-0.27,0.37-0.51,0.63l-5.52,5.85l3.28,6.96
			c0.06,0.16,0.11,0.3,0.14,0.42c0.03,0.11,0.05,0.22,0.05,0.32c0,0.11-0.03,0.21-0.08,0.28c-0.05,0.08-0.14,0.14-0.27,0.19
			c-0.13,0.05-0.3,0.08-0.52,0.11c-0.22,0.02-0.5,0.04-0.84,0.04s-0.61-0.01-0.82-0.03c-0.21-0.02-0.37-0.05-0.49-0.09
			c-0.12-0.04-0.21-0.1-0.27-0.17c-0.06-0.07-0.1-0.16-0.13-0.26l-3.3-7.39l-1.46,7.43c-0.02,0.09-0.06,0.16-0.12,0.22
			c-0.06,0.06-0.16,0.11-0.29,0.16c-0.13,0.04-0.3,0.07-0.51,0.1c-0.2,0.02-0.46,0.03-0.76,0.03c-0.32,0-0.57-0.01-0.77-0.03
			c-0.2-0.02-0.35-0.05-0.47-0.1c-0.11-0.04-0.19-0.1-0.23-0.16c-0.04-0.06-0.05-0.13-0.02-0.22l2.94-14.75
			c0.01-0.09,0.04-0.16,0.11-0.22c0.06-0.06,0.16-0.11,0.3-0.15c0.13-0.04,0.3-0.07,0.51-0.09c0.2-0.02,0.46-0.03,0.78-0.03
			c0.31,0,0.56,0.01,0.75,0.03c0.2,0.02,0.35,0.05,0.46,0.09c0.11,0.04,0.19,0.09,0.23,0.15c0.04,0.06,0.05,0.14,0.04,0.22
			l-1.33,6.67l5.79-6.62c0.08-0.1,0.17-0.18,0.26-0.25c0.09-0.07,0.21-0.13,0.36-0.17c0.14-0.04,0.32-0.07,0.53-0.09
			c0.21-0.02,0.47-0.03,0.78-0.03c0.32,0,0.59,0.01,0.79,0.03c0.21,0.02,0.36,0.05,0.48,0.1c0.11,0.04,0.19,0.1,0.24,0.16
			C590.04,512.86,590.07,512.93,590.07,513.02z"/>
		<path class="st1" d="M599.16,527.79c-0.02,0.08-0.05,0.15-0.1,0.21c-0.05,0.06-0.13,0.11-0.24,0.14
			c-0.11,0.04-0.25,0.06-0.42,0.09c-0.17,0.02-0.38,0.03-0.63,0.03s-0.45-0.01-0.61-0.03c-0.16-0.02-0.28-0.05-0.37-0.09
			c-0.09-0.04-0.15-0.09-0.18-0.14c-0.03-0.06-0.03-0.13-0.01-0.21l0.33-1.75c-0.16,0.28-0.38,0.56-0.66,0.85
			c-0.28,0.29-0.6,0.55-0.97,0.78c-0.37,0.24-0.76,0.43-1.19,0.57c-0.42,0.14-0.86,0.22-1.31,0.22c-0.56,0-1.04-0.08-1.43-0.23
			c-0.39-0.16-0.7-0.37-0.94-0.64c-0.24-0.27-0.41-0.59-0.52-0.97c-0.11-0.38-0.16-0.79-0.16-1.23c0-0.27,0.02-0.55,0.05-0.84
			c0.04-0.29,0.08-0.58,0.14-0.87l1.32-6.67c0.02-0.08,0.06-0.15,0.11-0.21c0.06-0.06,0.15-0.11,0.28-0.14
			c0.12-0.04,0.29-0.07,0.49-0.09c0.2-0.02,0.45-0.03,0.74-0.03c0.3,0,0.54,0.01,0.73,0.03c0.19,0.02,0.34,0.05,0.44,0.09
			c0.1,0.03,0.17,0.08,0.21,0.14c0.04,0.06,0.05,0.13,0.03,0.21l-1.28,6.46c-0.04,0.18-0.07,0.36-0.09,0.56
			c-0.02,0.19-0.03,0.38-0.03,0.55c0,0.19,0.02,0.37,0.05,0.53c0.04,0.16,0.09,0.29,0.18,0.4c0.08,0.11,0.18,0.2,0.31,0.25
			c0.12,0.06,0.28,0.09,0.45,0.09c0.33,0,0.67-0.11,1.03-0.32c0.36-0.22,0.7-0.51,1.02-0.88c0.32-0.37,0.61-0.82,0.86-1.32
			c0.25-0.51,0.44-1.06,0.57-1.66l0.92-4.66c0.01-0.08,0.04-0.15,0.11-0.21c0.06-0.06,0.16-0.11,0.28-0.14
			c0.12-0.04,0.29-0.07,0.49-0.09c0.2-0.02,0.45-0.03,0.73-0.03c0.3,0,0.54,0.01,0.73,0.03c0.19,0.02,0.34,0.05,0.45,0.09
			c0.11,0.03,0.18,0.08,0.21,0.14c0.03,0.06,0.04,0.13,0.02,0.21L599.16,527.79z M595.98,513.42c-0.06,0.3-0.13,0.54-0.22,0.73
			c-0.09,0.19-0.21,0.35-0.35,0.46c-0.14,0.11-0.32,0.19-0.52,0.23c-0.21,0.04-0.45,0.06-0.72,0.06c-0.28,0-0.51-0.02-0.7-0.06
			c-0.19-0.04-0.33-0.12-0.43-0.23c-0.1-0.11-0.16-0.27-0.18-0.46c-0.02-0.19,0-0.44,0.05-0.73c0.05-0.3,0.12-0.54,0.21-0.73
			c0.09-0.19,0.21-0.34,0.35-0.46c0.14-0.11,0.32-0.19,0.52-0.23c0.2-0.04,0.44-0.06,0.72-0.06c0.27,0,0.5,0.02,0.69,0.06
			c0.19,0.04,0.33,0.12,0.43,0.23c0.11,0.12,0.17,0.27,0.19,0.46C596.06,512.88,596.04,513.12,595.98,513.42z M600.7,513.42
			c-0.06,0.3-0.13,0.54-0.22,0.73c-0.09,0.19-0.21,0.35-0.35,0.46c-0.14,0.11-0.31,0.19-0.52,0.23c-0.2,0.04-0.45,0.06-0.73,0.06
			c-0.27,0-0.5-0.02-0.69-0.06c-0.19-0.04-0.33-0.12-0.43-0.23c-0.1-0.11-0.16-0.27-0.18-0.46c-0.02-0.19,0-0.44,0.05-0.73
			c0.05-0.3,0.12-0.54,0.21-0.73c0.09-0.19,0.21-0.34,0.36-0.46c0.14-0.11,0.32-0.19,0.52-0.23c0.2-0.04,0.44-0.06,0.71-0.06
			c0.28,0,0.51,0.02,0.7,0.06c0.19,0.04,0.33,0.12,0.43,0.23c0.1,0.12,0.17,0.27,0.19,0.46
			C600.77,512.88,600.76,513.12,600.7,513.42z"/>
		<path class="st1" d="M611.13,516.86c0,0.06-0.01,0.16-0.02,0.3c-0.02,0.14-0.04,0.32-0.07,0.51c-0.03,0.19-0.07,0.39-0.12,0.6
			s-0.1,0.4-0.16,0.57c-0.06,0.18-0.13,0.32-0.2,0.43c-0.08,0.11-0.16,0.17-0.25,0.17c-0.07,0-0.14-0.01-0.22-0.04
			c-0.07-0.03-0.15-0.06-0.24-0.08c-0.09-0.03-0.18-0.06-0.29-0.09c-0.1-0.03-0.22-0.04-0.36-0.04c-0.27,0-0.57,0.11-0.88,0.32
			c-0.31,0.21-0.6,0.49-0.89,0.83c-0.28,0.34-0.53,0.74-0.75,1.19c-0.22,0.46-0.38,0.93-0.47,1.43l-0.96,4.84
			c-0.02,0.08-0.06,0.15-0.12,0.21c-0.06,0.06-0.15,0.11-0.28,0.15s-0.29,0.07-0.49,0.09c-0.2,0.02-0.45,0.03-0.74,0.03
			c-0.3,0-0.54-0.01-0.73-0.03c-0.19-0.02-0.34-0.05-0.45-0.09c-0.11-0.04-0.18-0.09-0.21-0.15c-0.03-0.06-0.04-0.13-0.02-0.21
			l2.15-10.77c0.02-0.08,0.05-0.15,0.11-0.21c0.06-0.06,0.14-0.11,0.25-0.14c0.11-0.04,0.25-0.07,0.42-0.09
			c0.17-0.02,0.38-0.03,0.62-0.03c0.25,0,0.45,0.01,0.61,0.03c0.16,0.02,0.28,0.05,0.37,0.09c0.09,0.03,0.15,0.08,0.17,0.14
			c0.03,0.06,0.03,0.13,0.02,0.21l-0.34,1.71c0.19-0.35,0.42-0.66,0.67-0.95c0.25-0.29,0.52-0.54,0.81-0.75
			c0.29-0.21,0.58-0.38,0.89-0.5c0.3-0.12,0.61-0.18,0.9-0.18c0.12,0,0.24,0.01,0.37,0.03s0.24,0.04,0.35,0.06
			c0.11,0.03,0.2,0.06,0.29,0.09c0.08,0.03,0.15,0.07,0.2,0.11C611.1,516.67,611.13,516.75,611.13,516.86z"/>
		<path class="st1" d="M620.89,527.79c-0.03,0.17-0.16,0.29-0.38,0.36c-0.22,0.07-0.58,0.11-1.07,0.11c-0.25,0-0.45-0.01-0.61-0.03
			c-0.16-0.01-0.28-0.04-0.38-0.08c-0.1-0.04-0.16-0.09-0.19-0.14c-0.03-0.06-0.04-0.13-0.02-0.22l0.32-1.73
			c-0.12,0.26-0.31,0.53-0.58,0.82c-0.26,0.29-0.58,0.55-0.94,0.78c-0.36,0.24-0.76,0.43-1.2,0.58s-0.89,0.22-1.36,0.22
			c-0.46,0-0.86-0.06-1.2-0.17c-0.34-0.12-0.64-0.27-0.88-0.48c-0.24-0.2-0.45-0.44-0.61-0.71c-0.16-0.27-0.29-0.56-0.39-0.87
			c-0.1-0.31-0.17-0.62-0.2-0.95c-0.04-0.33-0.06-0.65-0.06-0.96c0-0.52,0.05-1.08,0.14-1.68c0.1-0.6,0.25-1.19,0.45-1.78
			c0.2-0.59,0.46-1.16,0.78-1.71s0.69-1.03,1.13-1.45s0.94-0.75,1.51-1c0.57-0.25,1.2-0.37,1.91-0.37c0.32,0,0.61,0.04,0.9,0.1
			c0.29,0.07,0.55,0.16,0.78,0.28c0.24,0.11,0.45,0.26,0.65,0.42c0.19,0.16,0.36,0.33,0.5,0.5l1.14-5.68
			c0.02-0.08,0.05-0.15,0.11-0.22c0.06-0.06,0.15-0.12,0.27-0.16s0.29-0.08,0.48-0.1c0.2-0.03,0.44-0.04,0.74-0.04
			c0.3,0,0.54,0.01,0.73,0.04c0.19,0.02,0.34,0.06,0.44,0.1s0.17,0.1,0.2,0.16c0.03,0.07,0.04,0.14,0.03,0.22L620.89,527.79z
			 M619.39,520.26c-0.28-0.44-0.59-0.78-0.93-1c-0.34-0.23-0.74-0.34-1.19-0.34c-0.33,0-0.63,0.08-0.91,0.23
			c-0.28,0.16-0.53,0.37-0.75,0.63c-0.22,0.26-0.41,0.57-0.58,0.92c-0.17,0.35-0.3,0.72-0.41,1.11c-0.11,0.39-0.19,0.77-0.25,1.16
			c-0.06,0.39-0.09,0.75-0.09,1.09c0,0.61,0.1,1.07,0.3,1.38c0.2,0.31,0.52,0.46,0.95,0.46c0.35,0,0.72-0.11,1.09-0.32
			c0.37-0.22,0.71-0.5,1.04-0.86c0.32-0.36,0.61-0.78,0.85-1.27c0.24-0.49,0.42-1.01,0.54-1.56L619.39,520.26z"/>
		<path class="st1" d="M623.89,525.42c0-0.58,0.13-1.1,0.39-1.56c0.26-0.46,0.67-0.86,1.22-1.19s1.25-0.59,2.1-0.76
			c0.85-0.18,1.86-0.27,3.03-0.27h1.11c0.03-0.19,0.06-0.37,0.07-0.55c0.02-0.18,0.02-0.35,0.02-0.5c0-0.65-0.17-1.14-0.51-1.47
			c-0.34-0.33-0.88-0.49-1.63-0.49c-0.53,0-1.01,0.04-1.43,0.11c-0.42,0.07-0.79,0.16-1.11,0.25c-0.32,0.09-0.58,0.18-0.79,0.25
			c-0.21,0.08-0.36,0.11-0.46,0.11c-0.1,0-0.16-0.03-0.2-0.09c-0.04-0.06-0.06-0.14-0.06-0.26c0-0.14,0.01-0.29,0.04-0.47
			c0.02-0.18,0.06-0.35,0.1-0.52c0.04-0.17,0.1-0.34,0.17-0.49c0.07-0.15,0.15-0.27,0.24-0.35c0.1-0.1,0.27-0.19,0.53-0.29
			c0.26-0.1,0.57-0.19,0.93-0.27c0.36-0.08,0.77-0.14,1.22-0.2s0.91-0.08,1.37-0.08c0.77,0,1.44,0.08,2.02,0.24
			c0.58,0.16,1.06,0.41,1.44,0.74c0.39,0.33,0.68,0.75,0.87,1.26c0.19,0.51,0.29,1.12,0.29,1.81c0,0.54-0.05,1.12-0.15,1.73
			c-0.1,0.62-0.26,1.22-0.49,1.82c-0.22,0.6-0.51,1.17-0.87,1.72c-0.35,0.55-0.78,1.03-1.28,1.44c-0.5,0.42-1.08,0.75-1.74,0.99
			c-0.66,0.25-1.41,0.37-2.26,0.37c-0.73,0-1.36-0.09-1.89-0.26c-0.53-0.17-0.96-0.4-1.3-0.69c-0.34-0.29-0.59-0.61-0.75-0.98
			C623.98,526.18,623.89,525.8,623.89,525.42z M626.87,525.19c0,0.32,0.13,0.59,0.38,0.8c0.25,0.22,0.62,0.32,1.1,0.32
			c0.4,0,0.76-0.07,1.08-0.22c0.32-0.14,0.6-0.34,0.84-0.59c0.24-0.24,0.45-0.53,0.62-0.87s0.31-0.69,0.42-1.07h-1.01
			c-0.64,0-1.18,0.04-1.62,0.13c-0.43,0.08-0.78,0.2-1.05,0.34c-0.27,0.14-0.46,0.32-0.58,0.51
			C626.93,524.75,626.87,524.96,626.87,525.19z"/>
		<path class="st1" d="M652.93,527.78c-0.02,0.08-0.06,0.15-0.11,0.21c-0.06,0.06-0.16,0.11-0.28,0.15s-0.29,0.07-0.49,0.09
			c-0.2,0.02-0.45,0.03-0.74,0.03c-0.29,0-0.53-0.01-0.72-0.03c-0.19-0.02-0.34-0.05-0.45-0.09c-0.11-0.04-0.18-0.09-0.21-0.15
			c-0.04-0.06-0.04-0.13-0.02-0.21l1.29-6.45c0.03-0.19,0.06-0.37,0.08-0.55c0.02-0.18,0.04-0.36,0.04-0.55
			c0-0.38-0.07-0.68-0.21-0.92c-0.14-0.23-0.39-0.35-0.75-0.35c-0.32,0-0.65,0.1-1,0.31c-0.35,0.21-0.68,0.49-0.99,0.85
			c-0.32,0.36-0.6,0.78-0.84,1.25c-0.24,0.48-0.42,0.99-0.52,1.52l-0.98,4.87c-0.01,0.08-0.05,0.15-0.11,0.21
			c-0.06,0.06-0.16,0.11-0.28,0.15s-0.29,0.07-0.49,0.09c-0.2,0.02-0.45,0.03-0.74,0.03c-0.29,0-0.53-0.01-0.72-0.03
			c-0.19-0.02-0.34-0.05-0.44-0.09s-0.17-0.09-0.21-0.15c-0.04-0.06-0.05-0.13-0.03-0.21l1.28-6.45c0.05-0.19,0.08-0.37,0.1-0.57
			c0.02-0.2,0.03-0.39,0.03-0.58c0-0.35-0.07-0.65-0.22-0.87c-0.14-0.23-0.39-0.34-0.75-0.34c-0.32,0-0.66,0.1-1,0.31
			c-0.34,0.21-0.68,0.49-0.99,0.85c-0.32,0.36-0.6,0.78-0.84,1.25c-0.24,0.48-0.42,0.99-0.52,1.52l-0.98,4.87
			c-0.02,0.08-0.06,0.15-0.11,0.21c-0.06,0.06-0.15,0.11-0.28,0.15s-0.29,0.07-0.49,0.09c-0.2,0.02-0.45,0.03-0.74,0.03
			c-0.3,0-0.54-0.01-0.73-0.03c-0.19-0.02-0.34-0.05-0.45-0.09c-0.11-0.04-0.18-0.09-0.21-0.15c-0.03-0.06-0.04-0.13-0.02-0.21
			l2.16-10.77c0.01-0.08,0.05-0.15,0.1-0.21c0.05-0.06,0.13-0.11,0.24-0.14c0.11-0.04,0.25-0.07,0.42-0.09
			c0.17-0.02,0.38-0.03,0.62-0.03c0.25,0,0.45,0.01,0.61,0.03c0.16,0.02,0.28,0.05,0.37,0.09c0.09,0.03,0.15,0.08,0.17,0.14
			c0.03,0.06,0.03,0.13,0.02,0.21l-0.35,1.77c0.17-0.28,0.39-0.57,0.68-0.86c0.28-0.29,0.6-0.56,0.96-0.79
			c0.36-0.23,0.75-0.42,1.17-0.57c0.42-0.15,0.86-0.23,1.31-0.23c0.47,0,0.87,0.06,1.21,0.19c0.34,0.12,0.62,0.3,0.84,0.52
			c0.22,0.22,0.39,0.48,0.51,0.78c0.12,0.3,0.19,0.62,0.22,0.96c0.19-0.29,0.42-0.58,0.7-0.87s0.61-0.55,0.96-0.78
			c0.36-0.23,0.75-0.42,1.16-0.57c0.42-0.15,0.85-0.23,1.29-0.23c0.56,0,1.04,0.08,1.42,0.24c0.38,0.16,0.69,0.37,0.92,0.65
			c0.23,0.28,0.4,0.6,0.51,0.98c0.1,0.37,0.16,0.78,0.16,1.21c0,0.28-0.01,0.56-0.05,0.85c-0.03,0.29-0.08,0.58-0.14,0.88
			L652.93,527.78z"/>
		<path class="st1" d="M658.93,527.78c-0.02,0.08-0.06,0.15-0.12,0.21c-0.06,0.06-0.15,0.11-0.28,0.15s-0.29,0.07-0.49,0.09
			c-0.2,0.02-0.45,0.03-0.74,0.03c-0.3,0-0.54-0.01-0.73-0.03c-0.19-0.02-0.34-0.05-0.45-0.09c-0.11-0.04-0.18-0.09-0.21-0.15
			c-0.03-0.06-0.04-0.13-0.02-0.21l2.13-10.73c0.02-0.08,0.06-0.15,0.12-0.21c0.06-0.06,0.15-0.11,0.28-0.16
			c0.12-0.04,0.29-0.08,0.48-0.1c0.2-0.02,0.44-0.03,0.74-0.03c0.3,0,0.54,0.01,0.73,0.03c0.19,0.03,0.34,0.06,0.45,0.1
			c0.11,0.04,0.18,0.1,0.21,0.16c0.03,0.06,0.04,0.13,0.02,0.21L658.93,527.78z M662.04,513.41c-0.06,0.3-0.13,0.55-0.23,0.75
			c-0.1,0.2-0.22,0.37-0.39,0.49c-0.16,0.13-0.36,0.22-0.59,0.27c-0.23,0.05-0.52,0.08-0.87,0.08c-0.34,0-0.61-0.03-0.83-0.08
			s-0.37-0.14-0.48-0.27c-0.11-0.12-0.17-0.29-0.19-0.49c-0.01-0.2,0.01-0.46,0.07-0.75c0.06-0.29,0.13-0.53,0.23-0.74
			c0.1-0.2,0.22-0.36,0.39-0.49c0.16-0.13,0.36-0.22,0.59-0.28c0.23-0.06,0.52-0.08,0.87-0.08c0.34,0,0.61,0.03,0.83,0.08
			c0.21,0.06,0.37,0.15,0.48,0.28c0.11,0.13,0.17,0.29,0.18,0.49C662.12,512.88,662.1,513.12,662.04,513.41z"/>
		<path class="st1" d="M670.89,516.86c0,0.06-0.01,0.16-0.02,0.3c-0.02,0.14-0.04,0.32-0.07,0.51c-0.03,0.19-0.07,0.39-0.12,0.6
			c-0.05,0.2-0.1,0.4-0.16,0.57c-0.06,0.18-0.13,0.32-0.2,0.43c-0.08,0.11-0.16,0.17-0.25,0.17c-0.07,0-0.14-0.01-0.22-0.04
			c-0.07-0.03-0.15-0.06-0.24-0.08c-0.09-0.03-0.18-0.06-0.29-0.09c-0.1-0.03-0.22-0.04-0.36-0.04c-0.27,0-0.57,0.11-0.88,0.32
			c-0.31,0.21-0.6,0.49-0.89,0.83c-0.28,0.34-0.53,0.74-0.75,1.19c-0.22,0.46-0.38,0.93-0.47,1.43l-0.96,4.84
			c-0.02,0.08-0.06,0.15-0.11,0.21c-0.06,0.06-0.15,0.11-0.28,0.15s-0.29,0.07-0.49,0.09c-0.2,0.02-0.45,0.03-0.74,0.03
			c-0.3,0-0.54-0.01-0.73-0.03c-0.19-0.02-0.34-0.05-0.45-0.09c-0.11-0.04-0.18-0.09-0.21-0.15c-0.03-0.06-0.04-0.13-0.02-0.21
			l2.15-10.77c0.02-0.08,0.05-0.15,0.11-0.21c0.06-0.06,0.14-0.11,0.25-0.14c0.11-0.04,0.25-0.07,0.42-0.09
			c0.17-0.02,0.38-0.03,0.62-0.03c0.25,0,0.45,0.01,0.61,0.03c0.16,0.02,0.28,0.05,0.37,0.09c0.09,0.03,0.15,0.08,0.17,0.14
			c0.03,0.06,0.03,0.13,0.02,0.21l-0.34,1.71c0.19-0.35,0.42-0.66,0.67-0.95c0.25-0.29,0.52-0.54,0.81-0.75
			c0.29-0.21,0.58-0.38,0.89-0.5c0.3-0.12,0.61-0.18,0.9-0.18c0.12,0,0.24,0.01,0.37,0.03c0.12,0.01,0.24,0.04,0.35,0.06
			c0.11,0.03,0.2,0.06,0.29,0.09c0.08,0.03,0.15,0.07,0.2,0.11C670.87,516.67,670.89,516.75,670.89,516.86z"/>
	</g>
	<g>
		<path class="st1" d="M372.58,501.36c0.22,0,0.41,0.06,0.55,0.17c0.14,0.11,0.21,0.28,0.21,0.51c0,0.13-0.03,0.33-0.07,0.6
			c-0.05,0.27-0.11,0.52-0.18,0.75c-0.02,0.1-0.06,0.19-0.1,0.29c-0.04,0.1-0.1,0.2-0.17,0.32c-0.07,0.12-0.17,0.25-0.28,0.4
			c-0.11,0.15-0.26,0.34-0.43,0.55l-7.75,9.46h6.41c0.11,0,0.19,0.04,0.24,0.12c0.04,0.08,0.07,0.2,0.07,0.36
			c0,0.06-0.01,0.16-0.01,0.28c-0.01,0.12-0.03,0.27-0.05,0.42c-0.03,0.16-0.06,0.31-0.1,0.47c-0.04,0.16-0.09,0.3-0.14,0.43
			c-0.06,0.13-0.13,0.24-0.21,0.33c-0.09,0.08-0.18,0.13-0.27,0.13h-9.2c-0.29,0-0.5-0.07-0.63-0.22c-0.13-0.14-0.2-0.32-0.2-0.54
			c0-0.06,0.01-0.15,0.02-0.27c0.01-0.12,0.03-0.24,0.06-0.36c0.03-0.12,0.06-0.25,0.08-0.37c0.03-0.12,0.06-0.23,0.08-0.31
			c0.03-0.09,0.07-0.18,0.11-0.27c0.04-0.09,0.1-0.19,0.17-0.3c0.08-0.11,0.17-0.24,0.28-0.4c0.11-0.15,0.26-0.34,0.43-0.55
			l7.79-9.49h-5.86c-0.26,0-0.39-0.17-0.39-0.52c0-0.05,0.01-0.14,0.02-0.26c0.01-0.12,0.03-0.26,0.05-0.41
			c0.02-0.15,0.06-0.3,0.1-0.46c0.04-0.16,0.1-0.3,0.16-0.43c0.06-0.13,0.14-0.24,0.24-0.32c0.09-0.08,0.2-0.13,0.32-0.13H372.58z"
			/>
		<path class="st1" d="M372.82,514.19c0-0.58,0.13-1.1,0.39-1.56c0.26-0.46,0.67-0.86,1.22-1.19c0.55-0.33,1.25-0.59,2.1-0.77
			c0.85-0.18,1.86-0.27,3.03-0.27h1.11c0.03-0.19,0.06-0.37,0.07-0.55c0.02-0.18,0.02-0.35,0.02-0.5c0-0.65-0.17-1.14-0.51-1.47
			c-0.34-0.33-0.88-0.5-1.63-0.5c-0.53,0-1.01,0.04-1.43,0.11c-0.42,0.08-0.79,0.16-1.11,0.25c-0.32,0.09-0.58,0.18-0.79,0.25
			c-0.21,0.08-0.36,0.11-0.46,0.11c-0.1,0-0.16-0.03-0.2-0.09c-0.04-0.06-0.06-0.14-0.06-0.27c0-0.14,0.01-0.29,0.04-0.47
			c0.02-0.18,0.06-0.35,0.1-0.52c0.04-0.17,0.1-0.34,0.17-0.49c0.07-0.15,0.15-0.27,0.24-0.35c0.1-0.1,0.27-0.19,0.53-0.29
			c0.26-0.1,0.57-0.19,0.93-0.27c0.36-0.08,0.77-0.15,1.22-0.2s0.91-0.08,1.37-0.08c0.77,0,1.44,0.08,2.02,0.24
			c0.57,0.16,1.06,0.41,1.44,0.74s0.68,0.75,0.87,1.26c0.19,0.51,0.29,1.12,0.29,1.81c0,0.54-0.05,1.12-0.15,1.73
			c-0.1,0.62-0.26,1.22-0.49,1.82c-0.22,0.6-0.51,1.17-0.87,1.72c-0.35,0.55-0.78,1.03-1.28,1.44c-0.5,0.41-1.08,0.75-1.74,0.99
			c-0.66,0.25-1.41,0.37-2.26,0.37c-0.73,0-1.36-0.09-1.89-0.26c-0.53-0.17-0.96-0.4-1.3-0.69s-0.59-0.61-0.75-0.98
			C372.9,514.95,372.82,514.58,372.82,514.19z M375.8,513.96c0,0.32,0.13,0.59,0.38,0.8c0.25,0.21,0.62,0.32,1.1,0.32
			c0.4,0,0.76-0.07,1.08-0.22c0.32-0.14,0.6-0.34,0.84-0.58c0.24-0.24,0.45-0.53,0.62-0.87c0.17-0.33,0.31-0.69,0.42-1.07h-1.01
			c-0.64,0-1.18,0.04-1.62,0.13c-0.43,0.08-0.78,0.2-1.05,0.34c-0.27,0.14-0.46,0.32-0.58,0.51
			C375.86,513.53,375.8,513.74,375.8,513.96z"/>
		<path class="st1" d="M393.9,505.63c0,0.06-0.01,0.16-0.02,0.3c-0.02,0.14-0.04,0.32-0.07,0.51s-0.07,0.39-0.12,0.6
			c-0.05,0.21-0.1,0.4-0.16,0.57c-0.06,0.18-0.13,0.32-0.2,0.43c-0.08,0.11-0.16,0.17-0.25,0.17c-0.07,0-0.14-0.01-0.22-0.04
			c-0.07-0.03-0.15-0.06-0.24-0.08c-0.09-0.03-0.18-0.06-0.29-0.09c-0.1-0.03-0.22-0.04-0.36-0.04c-0.27,0-0.57,0.11-0.88,0.32
			c-0.31,0.21-0.6,0.48-0.89,0.83c-0.28,0.34-0.53,0.74-0.75,1.19c-0.22,0.45-0.38,0.93-0.47,1.43l-0.96,4.84
			c-0.02,0.08-0.06,0.15-0.11,0.21c-0.06,0.06-0.15,0.11-0.28,0.15c-0.12,0.04-0.29,0.07-0.49,0.09c-0.2,0.02-0.45,0.03-0.74,0.03
			c-0.3,0-0.54-0.01-0.73-0.03c-0.19-0.02-0.34-0.05-0.45-0.09c-0.11-0.04-0.18-0.09-0.21-0.15c-0.03-0.06-0.04-0.13-0.02-0.21
			l2.15-10.77c0.02-0.08,0.05-0.15,0.11-0.21c0.06-0.06,0.14-0.11,0.25-0.14c0.11-0.04,0.25-0.06,0.42-0.09
			c0.17-0.02,0.38-0.03,0.62-0.03c0.25,0,0.45,0.01,0.61,0.03c0.16,0.02,0.28,0.05,0.37,0.09c0.09,0.04,0.15,0.08,0.17,0.14
			c0.03,0.06,0.03,0.13,0.02,0.21l-0.34,1.71c0.19-0.35,0.42-0.66,0.67-0.95c0.25-0.29,0.52-0.54,0.81-0.75
			c0.29-0.21,0.58-0.38,0.89-0.5c0.3-0.12,0.61-0.18,0.9-0.18c0.12,0,0.24,0.01,0.37,0.03c0.12,0.01,0.24,0.04,0.35,0.06
			c0.11,0.02,0.2,0.05,0.29,0.09c0.08,0.04,0.15,0.07,0.2,0.11C393.88,505.45,393.9,505.53,393.9,505.63z"/>
		<path class="st1" d="M403.67,516.57c-0.03,0.17-0.16,0.29-0.38,0.36c-0.22,0.07-0.58,0.11-1.07,0.11c-0.25,0-0.45-0.01-0.61-0.02
			c-0.16-0.02-0.28-0.04-0.38-0.08c-0.1-0.04-0.16-0.09-0.19-0.14c-0.03-0.06-0.04-0.14-0.02-0.22l0.32-1.73
			c-0.12,0.26-0.31,0.53-0.58,0.81c-0.26,0.29-0.58,0.55-0.94,0.78c-0.36,0.24-0.76,0.43-1.2,0.58c-0.44,0.15-0.89,0.22-1.36,0.22
			c-0.46,0-0.86-0.06-1.2-0.18s-0.64-0.27-0.88-0.48c-0.24-0.2-0.45-0.44-0.61-0.71c-0.16-0.27-0.29-0.56-0.39-0.87
			c-0.1-0.31-0.17-0.62-0.2-0.95c-0.04-0.33-0.06-0.65-0.06-0.96c0-0.52,0.05-1.08,0.14-1.68c0.1-0.6,0.25-1.19,0.45-1.78
			c0.2-0.59,0.46-1.16,0.78-1.7c0.31-0.55,0.69-1.03,1.13-1.45c0.44-0.42,0.94-0.75,1.51-1c0.57-0.25,1.2-0.37,1.91-0.37
			c0.32,0,0.61,0.04,0.9,0.1c0.29,0.07,0.55,0.16,0.78,0.28s0.45,0.26,0.65,0.42c0.19,0.16,0.36,0.33,0.5,0.5l1.14-5.68
			c0.02-0.08,0.05-0.15,0.11-0.22c0.06-0.06,0.15-0.12,0.27-0.16c0.12-0.04,0.29-0.08,0.48-0.1c0.2-0.02,0.44-0.04,0.74-0.04
			c0.3,0,0.54,0.01,0.73,0.04c0.19,0.02,0.34,0.06,0.44,0.1c0.1,0.04,0.17,0.1,0.2,0.16c0.03,0.06,0.04,0.14,0.03,0.22
			L403.67,516.57z M402.16,509.03c-0.28-0.44-0.59-0.78-0.93-1c-0.34-0.23-0.74-0.34-1.19-0.34c-0.33,0-0.63,0.08-0.91,0.23
			c-0.28,0.16-0.53,0.37-0.75,0.63s-0.41,0.57-0.58,0.92c-0.17,0.35-0.3,0.72-0.41,1.1c-0.11,0.39-0.19,0.77-0.25,1.16
			c-0.06,0.39-0.09,0.75-0.09,1.1c0,0.61,0.1,1.07,0.3,1.38s0.52,0.46,0.95,0.46c0.35,0,0.72-0.11,1.09-0.32
			c0.37-0.21,0.71-0.5,1.04-0.86c0.32-0.36,0.61-0.78,0.85-1.27c0.24-0.49,0.42-1.01,0.54-1.56L402.16,509.03z"/>
		<path class="st1" d="M416.69,516.57c-0.03,0.17-0.16,0.29-0.38,0.36c-0.22,0.07-0.58,0.11-1.07,0.11c-0.25,0-0.45-0.01-0.61-0.02
			c-0.16-0.02-0.28-0.04-0.38-0.08c-0.1-0.04-0.16-0.09-0.19-0.14c-0.03-0.06-0.03-0.14-0.02-0.22l0.34-1.73
			c-0.12,0.26-0.31,0.53-0.58,0.81c-0.26,0.29-0.58,0.54-0.94,0.78c-0.36,0.23-0.76,0.43-1.2,0.58c-0.44,0.15-0.89,0.23-1.36,0.23
			c-0.64,0-1.18-0.11-1.6-0.34c-0.43-0.23-0.77-0.53-1.03-0.91c-0.26-0.38-0.44-0.82-0.55-1.31c-0.11-0.49-0.16-1.01-0.16-1.54
			c0-0.51,0.05-1.06,0.14-1.66c0.1-0.6,0.24-1.2,0.45-1.79c0.2-0.59,0.46-1.17,0.77-1.72c0.31-0.55,0.69-1.04,1.13-1.47
			c0.44-0.42,0.94-0.76,1.51-1.02c0.57-0.25,1.21-0.38,1.92-0.38c0.67,0,1.26,0.14,1.77,0.42c0.51,0.28,0.96,0.68,1.35,1.21
			l0.19-0.95c0.03-0.17,0.16-0.29,0.38-0.36c0.22-0.07,0.58-0.11,1.07-0.11c0.24,0,0.44,0.01,0.6,0.03
			c0.16,0.02,0.29,0.05,0.38,0.09c0.09,0.04,0.15,0.08,0.19,0.14c0.03,0.06,0.04,0.13,0.03,0.21L416.69,516.57z M415.2,509.02
			c-0.28-0.44-0.59-0.77-0.93-0.99s-0.74-0.33-1.19-0.33c-0.34,0-0.65,0.08-0.93,0.24c-0.28,0.16-0.53,0.37-0.75,0.64
			c-0.22,0.27-0.41,0.58-0.57,0.93c-0.17,0.35-0.3,0.72-0.41,1.1c-0.11,0.38-0.19,0.77-0.24,1.16c-0.05,0.39-0.08,0.75-0.08,1.08
			c0,0.24,0.02,0.47,0.06,0.69c0.04,0.22,0.1,0.41,0.2,0.58c0.1,0.17,0.22,0.3,0.39,0.4s0.37,0.15,0.61,0.15
			c0.35,0,0.72-0.11,1.09-0.32c0.37-0.21,0.71-0.5,1.04-0.87c0.32-0.37,0.61-0.79,0.85-1.28c0.24-0.49,0.42-1.01,0.54-1.56
			L415.2,509.02z"/>
		<path class="st1" d="M431.61,509.21c0,0.53-0.05,1.1-0.14,1.7c-0.1,0.6-0.24,1.2-0.45,1.8c-0.2,0.59-0.46,1.16-0.77,1.71
			c-0.32,0.55-0.69,1.03-1.14,1.45c-0.44,0.42-0.95,0.75-1.51,1c-0.57,0.25-1.2,0.37-1.9,0.37c-0.68,0-1.27-0.13-1.79-0.4
			c-0.52-0.27-0.97-0.67-1.34-1.21l-0.18,0.92c-0.03,0.17-0.16,0.29-0.38,0.37s-0.58,0.11-1.07,0.11c-0.48,0-0.81-0.04-0.98-0.12
			c-0.17-0.08-0.24-0.2-0.21-0.36l3.17-15.85c0.01-0.08,0.05-0.15,0.11-0.22c0.06-0.06,0.15-0.12,0.28-0.16
			c0.13-0.04,0.29-0.08,0.49-0.1c0.2-0.03,0.44-0.04,0.74-0.04c0.3,0,0.54,0.01,0.72,0.04c0.19,0.02,0.33,0.06,0.44,0.1
			c0.11,0.04,0.18,0.1,0.21,0.16c0.03,0.06,0.04,0.14,0.02,0.22l-0.86,4.31c-0.04,0.19-0.08,0.38-0.13,0.59
			c-0.05,0.2-0.1,0.41-0.16,0.61c-0.06,0.2-0.12,0.4-0.18,0.58c-0.06,0.19-0.12,0.36-0.17,0.5c0.14-0.26,0.35-0.52,0.62-0.78
			s0.58-0.5,0.92-0.7c0.35-0.21,0.72-0.38,1.11-0.51c0.4-0.13,0.8-0.19,1.2-0.19c0.46,0,0.86,0.06,1.19,0.18
			c0.34,0.12,0.63,0.27,0.88,0.48c0.25,0.2,0.45,0.44,0.62,0.71c0.16,0.27,0.29,0.56,0.39,0.86c0.1,0.3,0.16,0.61,0.2,0.93
			C431.59,508.59,431.61,508.91,431.61,509.21z M428.48,509.51c0-0.2-0.01-0.41-0.04-0.63c-0.03-0.22-0.09-0.41-0.18-0.59
			c-0.09-0.18-0.22-0.32-0.38-0.43c-0.16-0.11-0.37-0.17-0.64-0.17c-0.36,0-0.73,0.11-1.09,0.32c-0.37,0.21-0.71,0.5-1.03,0.87
			c-0.32,0.37-0.61,0.8-0.86,1.29c-0.25,0.49-0.43,1.01-0.53,1.57l-0.34,1.63c0.28,0.44,0.59,0.77,0.93,0.98
			c0.34,0.21,0.74,0.32,1.19,0.32c0.32,0,0.62-0.08,0.89-0.24c0.27-0.16,0.52-0.36,0.74-0.62c0.22-0.26,0.41-0.56,0.58-0.91
			c0.17-0.34,0.3-0.71,0.42-1.09c0.11-0.38,0.2-0.77,0.25-1.16C428.45,510.27,428.48,509.88,428.48,509.51z"/>
	</g>
	<path id="AZMI" class="st0" d="M129.71,216.68l10.18-3.61l9.85,0.33l5.25,7.22c4.87,4.62,5.45,7.43,4.92,9.19
		c-0.95,3.19-5.5,2.78-14.03,7.12c-7.9,4.02-8.98,6.91-13.16,6.8c-4.46-0.12-6.96-3.52-11.18-7.45
		c-14.23-13.28-27.21-13.33-26.96-18.28c0.11-2.08,2.57-5.2,15.76-8.54L129.71,216.68z"/>
</g>
</svg>
