<?xml version="1.0" encoding="UTF-8"?>
<svg xmlns="http://www.w3.org/2000/svg" version="1.1" viewBox="0 0 841.89 595.28">
  <defs>
    <style>
      .cls-1 {
        fill: #719d96;
      }
    </style>
  </defs>
  <!-- Generator: Adobe Illustrator 28.6.0, SVG Export Plug-In . SVG Version: 1.2.0 Build 709)  -->
  <g>
    <g id="Layer_1">
      <path id="Path_2096" class="cls-1" d="M545.91,89.29c-10.88,2.12-14.07,3.98-14.07,7.7,0,5.3-1.86,5.84-15.92,5.04-8.49-.53-10.08.53-14.07,9.02-3.18,6.64-7.69,10.88-15.92,14.33-15.39,6.63-21.49,14.33-21.76,27.33-.27,13.53-6.64,19.11-19.9,16.98-4.99-.96-10.05-1.5-15.13-1.59-3.61-.24-6.87-2.22-8.76-5.31-1.93-3.3-5.47-5.32-9.29-5.31-4.25,0-7.7-2.39-10.35-7.43l-3.98-7.16-.27,7.16c0,8.49-7.7,10.35-13.53,3.18-2.37-2.54-5.94-3.56-9.29-2.65-7.69,2.12-12.47-3.98-10.08-12.74,1.59-6.37,1.06-6.9-6.64-6.9-5.84,0-8.23-1.32-8.23-4.25,0-2.39-2.39-4.78-5.57-5.57-4.51-1.33-5.31-2.92-3.98-9.29.8-4.78.53-7.16-1.06-6.1-1.73,1.2-2.73,3.2-2.65,5.31,0,1.86-6.11,9.02-13.81,15.92l-13.81,12.47,5.84,4.51c3.98,2.92,5.57,6.1,4.51,9.02-3.98,9.81-19.37,7.69-25.21-3.45-3.72-7.16-6.37-6.64-10.09,1.33-3.45,7.43-12.47,9.02-14.86,2.39-1.01-3.54-1.55-7.2-1.59-10.88,0-5.57-.53-6.11-3.98-3.45-2.2,1.87-5.17,2.56-7.96,1.86-1.73-1.06-3.97-.72-5.31.8-1.06,1.59-7.43,2.66-14.86,2.66-13.26,0-16.45-3.45-10.08-9.82,1.86-1.86,2.39-6.1,1.32-10.08-3.18-12.21-10.08-6.64-22.29,17.78-10.35,20.16-11.68,25.48-13,45.11-1.59,26.27-5.84,38.75-19.64,57.06-13.8,18.31-18.31,20.71-30.52,15.39-14.06-5.84-20.43-5.04-37.68,4.51-18.31,10.35-19.64,11.94-17.26,22.03,2.66,12.47,1.59,18.05-4.78,22.82-7.17,5.31-4.51,10.88,4.51,8.76,3.51-1.05,7.32-.47,10.35,1.59,3.71,2.92,3.71,3.98,0,9.55-5.57,8.76-5.31,11.15,6.63,29.46,9.55,15.13,11.41,16.72,19.64,16.72,13.81,0,22.03,4.25,26.8,13,2.76,5.1,6.9,9.33,11.94,12.21,11.94,6.1,13.81,11.68,9.02,26.8-3.45,10.35-3.45,14.6-1.33,20.71l3.18,7.7,11.94-11.68c8.57-8.54,16.63-17.58,24.15-27.07,17.25-22.29,30.25-27.07,53.87-20.43,11.94,3.45,17.78,1.32,22.56-8.23,2.65-4.78,6.1-7.69,9.55-7.69,5.84,0,6.11-4.78,1.33-16.19-2.92-6.9,7.7-17.26,23.09-22.03,13-3.98,15.39-4.25,23.35-.53,5.04,2.12,15.13,9.29,22.29,16.19,9.34,8.18,19.08,15.88,29.19,23.09,10.23,7.23,19.98,15.12,29.19,23.61,19.9,18.58,23.35,19.64,36.89,13,16.71-7.96,30.26-22.03,32.38-33.44,1.06-6.37,5.57-13.26,12.21-19.9,9.29-9.02,11.15-9.82,18.05-7.43,9.63,3.2,16.68,11.48,18.31,21.5,2.39,11.68,8.23,12.21,22.82,2.12,17.26-11.94,28.13-13,37.15-4.25,6.37,6.37,8.76,6.9,17.51,5.57,9.55-1.59,11.41-.8,21.23,7.96,5.84,5.31,12.21,9.02,13.81,8.49,1.86-.8,9.55-3.98,17.52-7.43,12.47-5.31,15.12-5.57,22.55-2.66,4.75,1.92,9.63,3.51,14.6,4.78,5.57,1.33,5.84,1.06,2.92-4.51-2.66-5.31-2.12-6.9,5.84-14.86,4.78-4.78,11.15-9.02,14.07-9.02,2.87-.03,5.69-.76,8.23-2.12,3.72-2.39,6.37-18.84,3.18-20.71-1.06-.8-2.12-3.98-2.12-7.43-.43-4.9-1.78-9.67-3.98-14.06-2.38-5.06-3.56-10.6-3.45-16.19.32-4.76-1.1-9.47-3.98-13.27-2.58-2.98-4.15-6.69-4.51-10.62,0-2.92-1.06-6.1-2.39-6.9-1.33-1.06-2.39-6.9-2.39-13.53.21-6.11-.59-12.21-2.39-18.05-5.31-11.41-9.55-28.13-8.23-33.17,1.33-4.51.27-5.04-6.9-4.78-7.17.27-8.23-.53-9.02-7.7-.8-5.04-4.51-11.15-10.62-16.46-8.76-7.96-11.41-8.76-26.27-8.76-15.66,0-16.98-.53-26.8-10.35-5.57-5.57-12.47-10.62-15.13-11.15-11.67-2.39-15.66-26.01-6.37-37.95,5.84-7.43,4.78-12.21-2.92-12.21-2.92,0-13-2.92-22.82-6.63-9.55-3.72-18.31-6.37-19.37-6.1-.77.01-7.94,1.61-15.37,2.93Z"/>
    </g>
  </g>
</svg>