<?xml version="1.0" encoding="utf-8"?>
<!-- Generator: Adobe Illustrator 27.1.1, SVG Export Plug-In . SVG Version: 6.00 Build 0)  -->
<svg version="1.1" id="Layer_1" xmlns="http://www.w3.org/2000/svg" xmlns:xlink="http://www.w3.org/1999/xlink" x="0px" y="0px"
	 viewBox="0 0 750 750" style="enable-background:new 0 0 750 750;" xml:space="preserve">

<g>
	<g>
		<path class="st0" d="M708.29,339.2c-1.07-1.59-1.71-3.22-3.25-4.48c-1.21-0.99-2.46-1.29-3.48-2.44c-0.89-1-1.1-1.67-1.13-3.01
			c-0.07-2.78-0.32-5.67-0.77-8.42c-0.39-2.4-1.58-5.03-3.14-6.91c-0.89-1.08-1.68-1.23-2.84-1.91c-1.76-1.03-3.2-2.82-5-3.96
			c-1.38-0.88-3.2-1.07-4.74-1.42c-1.89-0.43-3.26-1.06-4.97-2.01c-2.78-1.55-5.38-2.39-6.65-5.52c-0.67-1.66-1.87-2.66-2.62-4.24
			c-0.69-1.48-1.71-2.58-2.63-3.95c-0.81-1.2-1.39-2.43-2.71-3.15c-1.47-0.8-3.41-0.64-5.01-0.75c-2.99-0.21-4.64-2.88-7.31-3.86
			c-1.31-0.48-2.41-1.2-3.87-1.54c-1.73-0.41-3.55-0.72-5.24-1.26c-1.57-0.49-2.87-1.43-4.52-1.72c-1.34-0.23-2.84-0.13-4.18-0.27
			c-2.14-0.23-4.25-0.59-6.35-1c-1.57-0.31-2.98-0.33-4.54-0.72c-1.76-0.44-3.38-0.75-5.11-1.39c-1.68-0.62-3.42-1.05-5.11-1.66
			c-1.99-0.72-3.74-2.24-5.37-3.59c-2.16-1.79-2.54-4.82-2.82-7.48c-0.45-4.39,0.35-9.45,1.4-13.75c1.13-4.61,1.51-9.22,3.23-13.74
			c1.38-3.64,4.44-6.29,2.65-10.31c-0.57-1.28-1.55-3.24-2.58-4.21c-1.09-1.02-2.7-1.43-3.84-2.25c-0.88-0.63-1.26-1.6-2.09-2.34
			c-2.31-2.06-4.65-0.96-7.41-1.46c-1.84-0.34-3.94-1.57-5.72-2.32c-1.34-0.56-2.66-1.53-3.83-2.38c-1.99-1.44-4-3.98-5.25-6.06
			c-0.81-1.34-1.35-3.56-2.97-4.2c-2.32-0.92-4.82,0.89-6.95,1.27c-2.54,0.46-4.45,0.97-6.52,2.71c-2.15,1.8-3.35,3.95-6.41,3.03
			c-2.55-0.77-4.91-2.6-7.37-3.64c-2.28-0.97-4.44-0.55-6.74-1.13c-3.05-0.76-6.33-0.25-9.46-0.83c-1.96-0.37-3.89-0.43-5.81-0.77
			c-2.14-0.37-4.01-1.84-6.17-1.88c-0.33-0.01-1.81,0.55-2.35,0.68c-0.98,0.24-1.54,0.52-2.61,0.51c-1.11-0.02-2.19,0.12-3.26-0.15
			c-0.75-0.18-1.46-0.75-2.11-1c-1.17-0.45-0.71,0.2-1.56-0.21c-2.24,1.46-4.54,3.81-5.65,4.57c-3.19,2.2-6.85,4.23-10.43,5.76
			c-2.41,1.03-5.05,1.33-7.55,2.07c-5.02,1.49-8.46,4.79-10.01,9.75c-0.9,2.89-1.99,5.44-4.93,6.68c-2.34,0.99-5.47,1.08-7.97,1.22
			c-1.26,0.07-2.12,0.03-3.15,0.66c-0.73,0.44-1.17,1.04-1.73,1.67c-3.34,3.77-7.47,7.02-10.29,11.24c-1.99,2.97-1.86,5.9-2.13,9.26
			c-0.32,3.98-0.52,7.77-0.48,11.78c0.04,4.3,0.4,9.33-2.07,13.14c-1.31,0.04-2.46-1.24-3.74-1.54c-1.67-0.4-3.06,0.27-4.64,0.71
			c-3.14,0.86-5.93,2.63-8.86,4.09c-1.33,0.66-2.41,1.63-3.57,2.54c-0.19,0.15-0.4,0.29-0.59,0.44c0.04,0.55,0.08,1.12-0.01,1.61
			c-0.2,1.11-0.67,1.76-0.69,2.94c-0.07,3.49-0.4,7.34-0.01,10.8c0.11,0.96,0.51,1.08,0.7,1.91c0.22,0.94-0.12,1.35,0.44,2.17
			c0.24,0.36,0.93,1.07,1.3,1.3c1.22,0.77,0.76,0.06,1.87-0.12c0.83-0.13,1.72,0.09,2.56-0.1c0.88-0.2,1.85-0.86,2.67-1.24
			c2.26-1.06,4.09-2.5,6.19-3.77c1.69-1.03,3.34-2.2,4.9-3.47c1.52-1.22,2.89-2.86,4.54-3.89c1.2-0.75,2.76-0.96,4.25-1.32
			c2.52-0.61,4.71-1.64,7.19-2.6c2.97-1.14,5.33-2.89,7.87-4.77c1.84-1.36,3.11-1.43,5.16-0.31c2.18,1.19,4.27,1.79,6.57,2.45
			c1.84,0.52,3.99,0.76,5.74,1.45c1.54,0.61,2.72,2.22,3.89,3.32c2,1.89,4.41,2.77,6.25,4.9c0.89,1.03,2.14,1.98,2.93,3.03
			c0.82,1.11,1.17,2.54,2.12,3.67c1.46,1.73,4.13,3.98,6.04,1.38c2.28,0.51,0.34,2.45-0.47,3.39c-2.17,2.54-5.36,4.49-7.18,7.32
			c-1.56,2.43-0.79,6.18-0.23,8.8c0.57,2.69,2.21,5.58,3.89,7.83c1.09,1.46,2.41,2.74,3.51,4.2c0.8,1.08,1.44,1.92,2.66,2.51
			c2.83,1.36,5.98,2.41,8.91,1.19c2.4-0.99,5.48-1.32,7.15-3.51c0.7-0.91,1.14-1.99,1.51-3.07c0.34-1.02,0.65-2.46,1.37-3.32
			c1.62-1.93,6.26-2.63,8.47-3.51c1.01-0.4,2.97-1.82,4.1-1.6c0.39,0.08,2.69,1.93,2.86,2.04c1.31,0.78,2.65,1.4,4.12,1.81
			c1.08,0.3,2.13,0.5,3.24,0.59c1.29,0.11,2.98-0.28,4.2,0c1.22,0.28,2.22,1.14,3.36,1.68c1.67,0.79,3.6,1.21,5.12,2.29
			c2.7,1.93,3.96,5.02,5.44,7.84c0.81,1.55,2.26,3.92,3.9,4.8c1.78,0.96,4.51,0.89,6.46,1.44c4,1.14,7.28,3.26,10.62,5.62
			c1.81,1.28,2.27,2.05,3.36,3.79c1.98,3.16,4.67,6.23,8.2,7.71c3.09,1.3,6.57,1.44,9.37,3.42c2.76,1.94,4.55,5.73,5.72,8.84
			c3.31,8.76,1.73,18.79,3.11,27.83c0.37,2.41-0.72,5.65-1.32,7.97c-0.58,2.2-2.15,3.85-2.51,6.11c-0.87,5.5,3.74,11.31,6.58,15.59
			c1.56,2.36,2.82,4.78,3.52,7.55c0.56,2.23,1.33,5.09,0.96,7.38c-0.32,1.98-1.51,4.09-2.25,5.97c-1.52,3.88-3.28,8.3-5.66,11.73
			c-2.68,3.86-7.93,7.73-11.96,10.1c-2.1,1.23-3.87,2.41-5.73,4c-1.84,1.58-4.04,3.38-6.34,4.21c-1.85,0.66-3.84,0.68-5.74,1.12
			c-2.61,0.61-4.65,2.38-7.38,2.59c-2.36,0.18-4.4-0.38-6.53-1.4c-2.59-1.23-5.07-3.43-7.89-3.93c-4.36-0.77-8.55,1.81-12.47,3.26
			c-1.82,0.67-4.89,1.26-5.71,3.32c-1,2.49,0.68,6.04,1.15,8.46c0.21,1.07,0.13,2.35,0.85,3.27c1.12,1.44,3.36,1.7,4.85,2.68
			c2.13,1.41,3.97,3.47,4.65,6.01c0.31-0.16,0.62-0.34,1.54-0.17c1.55,0.29,4.19-0.67,5.58-1.26c1.69-0.71,2.95-0.73,4.88-0.73
			c1.85,0,3.71,0.05,5.55,0.01c2.03-0.04,3.56-1.42,5.42,0.16c1.4,1.19,2.42,2.78,3.72,4.09c0.81,0.81,1.78,1.27,2.56,2.01
			c0.9,0.85,1.4,2.02,2.55,2.77c3.64,2.37,8.45,1.87,12.68,2.73c3.05,0.62,5.67,0.86,8.06,2.95c1.26,1.1,2.6,2.67,3.44,4.09
			c0.8,1.34,1.23,2.11,2.67,2.84c0.88,0.44,0.95,0.5,2.03,0.57c1.55,0.1,3,0.62,4.56,0.68c1.91,0.07,3.84-0.17,5.58,0.3
			c0.79,0.21,1.44,0.17,2.31,0.3c0.89,0.13,1.67,0.72,2.58,1.01c1.83,0.58,3.98,1.22,5.4,2.45c1.28,1.11,2.22,2.36,3.1,3.76
			c0.99,1.57,0.66,1.15,1.23,2.24c0.44-0.13,0.88-0.26,1.35-0.28c2.92-0.18,5.5-1.17,8.16,0c1.67,0.73,3.56,0.93,5.37,1.16
			c2.78,0.35,6.87,0.66,9.66,0.18c1.19-0.21,1.99-0.65,3.26-0.68c2.13-0.05,4.27,0.01,6.4-0.02c4.68-0.05,9.08,0.95,13.15,3.28
			c1.52,0.87,2.79,2.01,4,3.25c0.86,0.87,1.7,1.66,2.63,2.46c0.42,0.36,1.61,1.78,2.02,1.91c1.15,0.35,0.53,0.33,1.39-0.54
			c0.3-0.3,0.99-1.58,1.18-1.88c0.82-1.29,1.14-2.4,1.29-3.9c0.17-1.73,0.62-3.34,0.67-5.11c0.04-1.57-0.47-2.61-0.7-4.1
			c-0.57-3.72,0.47-8.25,2.83-11.07c2.14-2.57,4.55-2.45,7.69-3.21c3.95-0.95,7.6-2.32,10.13-5.64c0.88-1.16,1.38-2.49,2.26-3.68
			c0.71-0.96,1.51-2.1,1.83-3.27c0.44-1.65,0.48-4.87,0.02-6.54c-0.33-1.2-1.2-2.2-1.53-3.45c-0.27-1.05-0.27-2-0.47-3.07
			c-0.37-2.05-0.69-3.73-0.36-5.86c0.35-2.24,0.53-4.3,0.49-6.56c-0.04-2.2,0.59-4.09,0.7-6.24c0.08-1.46-0.07-2.94-0.04-4.41
			c0.04-2.15,1.78-4.48,2.77-6.39c1.49-2.86,3.33-5.42,4.57-8.46c0.81-1.97,2.04-3.7,2.66-5.74c0.51-1.69,0.45-3.16,0.47-4.92
			c0.02-2.12-0.64-4.34-1.3-6.33c-0.91-2.73-2.31-3.92-5.06-4.59c-2.22-0.54-5.22-0.94-6.74-2.83c-1.83-2.28-3.01-5.47-5.19-7.51
			c-1.68-1.57-4.38-2.62-5.79-4.49c-0.5-0.67-1.01-1.89-1.45-2.67c-0.36-0.63-0.67-0.69-0.72-1.43c-0.09-1.51,1.61-2.76,2.43-3.83
			c2.29-2.96,5.07-4.84,7.95-7.12c1.48-1.17,2.74-2.6,4.08-3.93c0.76-0.76,2.12-1.61,2.52-2.62c0.9-2.29-0.7-5.2-1.85-7.03
			c-2.01-3.21-4.02-6.61-7.84-7.51c-1.04-0.24-2.15-0.35-3.15-0.64c-0.46-0.14-1.12-0.81-1.59-1c-3.79-1.53-7.96-3.82-10.96-6.68
			c-0.92-0.88-1.75-1.89-2.6-2.77c-0.62-0.65-1.34-1.19-1.83-1.98c-0.74-1.19-1.61-2.9-1.31-4.24c0.7-3.05,2.09-7.22,4.83-9.25
			c2.75-2.04,6.27-3.56,8.75-6.1c1.02-1.04,2.04-2.06,3.06-3.07c-0.99-0.81-2.11-1.49-3.06-2.5
			C710.43,343.47,709.7,341.28,708.29,339.2z"/>
		<path class="st0" d="M555.06,501.44c-1.48-0.98-3.72-1.24-4.85-2.68c-0.72-0.92-0.64-2.19-0.85-3.27
			c-0.47-2.41-2.15-5.97-1.15-8.46c0.82-2.06,3.89-2.65,5.71-3.32c3.93-1.45,8.11-4.03,12.47-3.26c2.82,0.5,5.3,2.7,7.89,3.93
			c2.13,1.02,4.17,1.58,6.53,1.4c2.74-0.21,4.77-1.99,7.38-2.59c1.9-0.44,3.89-0.46,5.74-1.12c2.31-0.83,4.5-2.63,6.34-4.21
			c1.86-1.59,3.63-2.77,5.73-4c4.03-2.37,9.28-6.24,11.96-10.1c2.38-3.43,4.14-7.85,5.66-11.73c0.74-1.88,1.92-3.99,2.25-5.97
			c0.37-2.29-0.4-5.15-0.96-7.38c-0.7-2.76-1.95-5.19-3.52-7.55c-2.83-4.28-7.45-10.08-6.58-15.59c0.36-2.27,1.94-3.91,2.51-6.11
			c0.61-2.32,1.69-5.56,1.32-7.97c-1.38-9.04,0.2-19.07-3.11-27.83c-1.17-3.11-2.97-6.89-5.72-8.84c-2.8-1.97-6.27-2.12-9.37-3.42
			c-3.53-1.48-6.22-4.55-8.2-7.71c-1.09-1.75-1.55-2.51-3.36-3.79c-3.34-2.36-6.63-4.48-10.62-5.62c-1.95-0.55-4.68-0.48-6.46-1.44
			c-1.63-0.88-3.08-3.25-3.9-4.8c-1.48-2.82-2.74-5.91-5.44-7.84c-1.52-1.09-3.45-1.5-5.12-2.29c-1.14-0.54-2.14-1.4-3.36-1.68
			c-1.23-0.28-2.91,0.11-4.2,0c-1.11-0.09-2.17-0.29-3.24-0.59c-1.47-0.42-2.81-1.03-4.12-1.81c-0.17-0.1-2.47-1.96-2.86-2.04
			c-1.13-0.22-3.08,1.19-4.1,1.6c-2.2,0.88-6.85,1.58-8.47,3.51c-0.72,0.86-1.02,2.3-1.37,3.32c-0.36,1.08-0.81,2.15-1.51,3.07
			c-1.67,2.19-4.76,2.52-7.15,3.51c-2.93,1.22-6.08,0.17-8.91-1.19c-1.21-0.58-1.85-1.43-2.66-2.51c-1.09-1.47-2.42-2.74-3.51-4.2
			c-1.68-2.25-3.31-5.14-3.89-7.83c-0.56-2.62-1.33-6.38,0.23-8.8c1.82-2.84,5.01-4.78,7.18-7.32c0.81-0.94,2.74-2.88,0.47-3.39
			c-1.91,2.6-4.58,0.35-6.04-1.38c-0.96-1.13-1.3-2.56-2.12-3.67c-0.79-1.06-2.04-2.01-2.93-3.03c-1.85-2.13-4.25-3.01-6.25-4.9
			c-1.16-1.1-2.35-2.71-3.89-3.32c-1.75-0.69-3.9-0.93-5.74-1.45c-2.3-0.65-4.39-1.26-6.57-2.45c-2.05-1.12-3.32-1.04-5.16,0.31
			c-2.55,1.88-4.9,3.62-7.87,4.77c-2.48,0.96-4.67,1.99-7.19,2.6c-1.48,0.36-3.05,0.57-4.25,1.32c-1.64,1.03-3.02,2.67-4.54,3.89
			c-1.56,1.26-3.21,2.44-4.9,3.47c-2.09,1.27-3.93,2.71-6.19,3.77c-0.82,0.39-1.79,1.04-2.67,1.24c-0.83,0.19-1.72-0.03-2.56,0.1
			c-1.11,0.18-0.65,0.89-1.87,0.12c-0.37-0.24-1.06-0.94-1.3-1.3c-0.56-0.83-0.22-1.23-0.44-2.17c-0.19-0.83-0.6-0.95-0.7-1.91
			c-0.39-3.46-0.06-7.31,0.01-10.8c0.02-1.18,0.5-1.83,0.69-2.94c0.09-0.5,0.05-1.06,0.01-1.61c-2.66,2.01-5.5,3.76-8.12,5.82
			c-4.23,3.32-7.35,5.66-9.14,10.91c-0.9-0.9,1.25-5.85,1.54-6.9c0.84-3.05,1.8-6.53,1.98-9.78c-2,1.47-1.05,0.16-3.97,2.88
			c-1.13,1.05-2.26,2.04-3.39,3.08c-1.43,1.32-2.47,2.09-3.28,3.91c-0.92,2.05-1.43,3.92-1.95,6.07c-0.27,1.15-0.75,2.36-1.29,3.41
			c-0.42,0.82-1.44,1.66-1.74,2.47c-0.58,1.56-0.48,5.27,0.69,6.58c0.51,0.57,1.22,0.72,1.82,1.19c0.82,0.65,1.78,2.01,2.47,2.81
			c2.5,2.92,4.04,6.54,5.91,9.85c3.21,5.66,3.67,12.58,1.43,18.63c-2.44,6.59-4.22,13.34-7.17,19.75
			c-1.76,3.82-3.84,7.15-6.39,10.49c-1.27,1.66-3.14,3.14-4,5.06c-0.41,0.93-0.5,1.95-0.73,2.91c-1.48,5.95-0.66,12.55,0.04,18.57
			c0.4,3.45,1.98,8.13,4.5,10.71c2.02,2.07,4.99,2.94,7.59,3.88c2.97,1.07,6.09,2.41,8.29,4.71c1.83,1.91,3.93,4.66,6.36,5.83
			c4.17,2,9.33,1.07,13.76,1.2c3.75,0.11,6.94,0.99,9.96,3.26c1.67,1.26,3.06,2.71,4.56,4.15c1.06,1.02,2.43,1.78,3.44,2.8
			c1.26,1.28,1.39,2.26,1.59,3.97c0.33,2.69,1.16,5.44,0.57,8.16c-0.3,1.41-1.34,2.89-1.85,4.24c-0.87,2.32-1.69,4.61-2.64,6.9
			c-3.35,8.12-3.33,16.95-3.87,25.57c-0.13,2.01-0.85,3.8-0.74,5.85c0.08,1.34,0.42,2.62,0.7,3.92c0.37,1.71,0.57,4.32,1.91,5.58
			c1.32,1.24,3.73,1.87,5.31,2.73c2.62,1.42,4.44,3.53,7.33,4.62c2.45,0.92,5.19,1.48,6.91,3.57c1.36-1.51,2.32-3.43,3.39-5.13
			c1.74-2.77,3.98-5.28,6.53-7.32c3.59-2.86,6.87-4.65,11.09-6.35c3.06-1.24,5.68-2.97,9.08-2.35c3.56,0.65,6.19,3.94,8.38,6.6
			c2.45,2.97,4.86,6.23,4.76,10.3c-0.09,3.52,2.6,6.75,4.59,9.45c5.72,7.75,15.04,14.71,24.66,16.55c6.63,1.27,8.04-4.89,11.41-8.87
			c2.98-3.52,7.27-5.51,10.61-8.6c2.16-1.99,4.16-4.97,3.46-8.05c-0.02-0.09-0.06-0.18-0.08-0.28c-0.31,0.16-0.61,0.3-1.5,0.06
			c0.89,0.24,1.19,0.1,1.5-0.06C559.04,504.91,557.19,502.85,555.06,501.44z"/>
		<path class="st0" d="M174.55,477.98c0.55-2.39,1.83-4.43,3.1-6.52c1.31-2.14,3.29-3.69,4.6-5.86c1.29-2.12,2.06-3.87,4.66-4.59
			c3.47-0.96,6.57-1.49,9.67-3.37c1.59-0.96,2.64-2.14,4.08-3.31c1.51-1.23,3.18-2.16,4.64-3.46c2.13-1.9,4.79-2.85,7.17-4.38
			c2.43-1.57,4.81-3.27,6.98-5.18c2.57-2.26,4.8-4.58,7.09-7.11c1.67-1.85,2.17-3.3,2.82-5.68c0.31-1.11,0.76-1.77,0.46-2.96
			c-0.2-0.8-0.81-1.63-1.05-2.47c-0.55-1.92-1.2-3.01-2.6-4.54c-1.2-1.31-1.87-2.47-3.33-3.56c-1.72-1.27-3.23-2.34-5.21-3.19
			c-2.11-0.91-4.05-2.16-6.15-3.07c-1.2-0.52-2.1-0.57-3.16-1.44c-0.57-0.47-1.06-1.13-1.58-1.65c-1.35-1.34-2.56-2.6-3.48-4.3
			c-0.59-1.09-0.78-2.06-0.76-3.32c0.04-2.76-0.38-5.21-0.66-7.92c-0.22-2.12-0.64-4.03-1.94-5.74c-1.42-1.86-3.13-3.53-4.61-5.37
			c-2.93-3.64-7.06-4.9-11.42-6.36c-1.77-0.59-3.67-1.03-5.51-1.3c-2.59-0.39-4.7-1.05-7.09-1.98c-2.47-0.96-5.21-1.53-6.71-4.02
			c-0.91-1.51-1.48-4.06-1.8-5.75c-0.65-3.44-0.11-8.24,1.98-11.09c1.99-2.72,4.25-4.96,6.34-7.67c2.87-3.71,7.86-7.66,7.9-12.68
			c0.02-2.09-0.53-3.72-2.12-5.23c-1.49-1.41-3.66-1.97-5.06-3.33c-1.31-1.27-2.6-2.56-3.94-3.82c-1.16-1.09-2.56-1.7-3.62-2.92
			c-0.47-0.54-1.49-1.56-1.51-2.33c-0.02-0.68,0.41-0.6,0.58-1.24c0.3-1.18,0.32-1.81,1.11-2.81c0.81-1.03,1.65-1.63,2.78-2.28
			c1.6-0.92,2.12-1.84,3.27-3.28c5.42-6.84,14.69-8.73,22.74-10.46c3.57-0.77,5.42-2.98,7.99-5.38c3.21-3,4.51-7.32,4.59-11.65
			c0.08-4.04-0.18-8.73-1.98-12.45c-0.65-1.35-1.55-2.61-2.14-4.01c-0.71-1.7-0.72-3.17-1.77-4.78c-1.27-1.95-2.95-4.33-4.58-5.88
			c-0.88-0.84-1.87-1.63-2.62-2.57c-0.99-1.23-1.66-2.68-2.58-3.95c-0.81-1.12-2.03-1.83-3.16-2.61c-1.97-1.38-3.79-2.86-5.53-4.4
			c-1.79-1.58-3.43-2.94-5.7-3.92c-2.13-0.91-5.54-1.39-5.91-3.91c-0.31-2.07,0.69-4.07,1.95-5.57c0.36-0.43,0.74-0.82,1.12-1.22
			c-0.52-0.2-0.98-0.35-1.32-0.39c0.35,0.04,0.81,0.19,1.32,0.39c1.58-1.59,3.35-2.99,4.78-4.85c0.98-1.27,1.28-1.68,1.31-3.41
			c0.02-1.08,0.08-2.19,0.02-3.27c-0.11-1.98-0.92-5.37-2.12-7.04c-1.06-1.47-2.93-1.98-4.43-2.76c-1.15-0.6-1.85-0.54-3.12-0.8
			c-0.98-0.2-2.28-0.91-3.41-1.18c-1.04-0.25-2.2-0.52-3.27-0.63c-0.37-0.04-0.53-0.06-0.61-0.08c0.03,1.31,0.05,2.63-0.01,3.93
			c-0.1,2.24-0.81,4.32-1.16,6.53c-1.21,7.68-5.16,14.31-8,21.44c-1.35,3.39-2.79,6.73-4.41,10.01c-1.93,3.9-4.74,7.18-6.66,11.04
			c-0.9,1.81-2.13,3.19-3.35,4.79c-1.21,1.57-1.76,3.25-2.75,4.93c-1.29,2.19-3,4.78-3.14,7.4c-0.21,3.93,0.1,7.57-0.75,11.47
			c-1.28,5.85-2.43,11.79-3.27,17.73c-0.64,4.55-2.53,8.31-4.31,12.46c-1.59,3.7-2.23,7.3-2.89,11.24
			c-0.28,1.65-0.66,3.08-1.15,4.66c-0.49,1.59-0.44,3.25-1.4,4.64c-1.98,2.86-5.31,5.51-8.4,6.99c-2.63,1.26-5.2,2.62-7.81,3.92
			c-3.26,1.63-5.32,0.67-8.7,0.61c-2.91-0.05-3.5,1.13-5.9,2.65c-2.25,1.42-4.81,1.79-7.23,2.77c-2.15,0.87-4.21,2.06-6.28,3.1
			c-1.92,0.96-3.89,2.03-5.89,2.81c-1.41,0.55-3.79-0.15-5.22-0.81c-1.49-0.69-2.35-1.31-4.04-1.39c-1.7-0.08-3.44,0.05-5.15,0.05
			c-3.59,0-6.04,0.15-9.25,2.03c-2.37,1.39-6.25,4.37-6.93,7.13c-0.33,1.34,0.05,1.72-0.98,2.95c-1.71,2.05-3.37,2.35-5.83,2.28
			c-3.19-0.09-5.65-0.19-8.55,1.14c-2.58,1.19-3.6,2.72-5.03,5.19c-1.39,2.4-2.76,4.92-1.34,7.49c1.22,2.21,2.23,4.67,2.84,7.13
			c0.67,2.7,1.16,4.39,0.32,7.13c-0.81,2.66-3.07,4.93-5.27,6.57c-1.83,1.37-3.13,2.7-3.12,5.19c0.01,2.4,1.51,4.55,2.65,6.55
			c1.08,1.89,2.48,3.6,3.93,5.21c1.69,1.87,1.49,4.05,2.11,6.42c0.48,1.86,0.49,3.4,0.49,5.37c0,0.64-0.01,1.28,0,1.92
			c0.01,0.62,0.12,2.07,0.15,3.2c1.83-0.21,5.37-0.48,6.46,0.87c0.55,0.69,1.03,3.14,1.22,3.73c0.44,1.35,0.91,2.69,1.3,4.06
			c1.08,3.83,3.04,7.75,3.85,11.63c0.39,1.9-1.11,3.8,0.69,5.15c2.05,1.53,6.16,1.35,8.61,1.73c2.57,0.39,5.06,0.55,7.66,0.2
			c2.21-0.3,4.77-1.21,6.57,0.73c0.82,0.88,0.57,1.01,0.77,2.05c0.5,2.67,0.54,5.53,0.94,8.24c0.33,2.22,0.78,4.7,2.87,6.02
			c1.57,0.99,3.89,0.17,5.26,1.4c0.71,0.63,1.18,2.98,1.37,3.58c0.6,1.88,1.28,3.76,2.07,5.57c0.79,1.82,1.5,3.28,2.98,4.58
			c1.62,1.43,3.79,1.91,5.45,3.3c2.72,2.27,4.18,5.42,7.26,7.35c2.55,1.6,5.33,2.67,7.9,4.23c1.39,0.84,2.65,1.29,3.61,2.67
			c1.09,1.57,1.36,3.53,2.08,5.26c0.78,1.88,2.52,2.34,3.49,3.93c1.48,2.41,0.05,6.61-0.18,9.08c-0.18,1.96,0.31,4.1,0.76,6.03
			c0.42,1.78,0.48,3.34,0.49,5.21c0.01,2.27-0.59,4.34-0.67,6.58c-0.04,1.1,0.15,2.24,0.05,3.34c-0.02,0.25-0.07,0.49-0.12,0.73
			c3.64-1.32,7.51-1.85,11.3-2.64c1.61-0.34,2.99-0.83,4.39-1.7c3.84-2.36,6.46-5.78,9.87-8.62c2.38-1.98,4.83-4.24,7.66-5.56
			c1.07-0.5,2.25-0.65,3.38-0.99c2.5-0.76,4.59-2.27,6.84-3.55c0.86-0.49,1.72-0.89,2.29-1.73c0.61-0.91,1.78-1.88,2.92-2.2
			c3.04-0.87,6.01-2.26,8.62-4.33c2.76-2.2,6.21-3.62,8.84-6.11c0.89-0.84,1.42-1.76,2.15-2.72c1-1.34,2.32-2.41,3.25-3.81
			c0.82-1.24,1.8-2.59,2.46-3.93c0.16-0.32,0.29-0.99,0.51-1.33c0.38-0.59,0.95-1.05,1.43-1.57c-1.57-3.61-4.31-7.77-4.61-11.43
			C174.19,482.9,174.05,480.12,174.55,477.98z"/>
		<path class="st0" d="M258.71,464.76c-0.14-1.26-0.69-1.87-0.67-3.25c0.02-1.19-0.31-2.81-0.04-3.95c0.14-0.59,0.59-0.64,0.72-1.24
			c0.15-0.65-0.25-1.23,0.09-1.87c0.38-0.69,1.47-2.02,1.99-2.61c0.57-0.64,1.56-1.2,2.27-1.62c1.99-1.19,3.84-2.03,6.07-2.58
			c1.16-0.29,1.98-0.59,3.23-0.53c1.77,0.09,3.46,1.03,5.26,0.7c1.45-0.27,2.36-0.73,3.92-0.68c1.57,0.04,3.08,0.37,4.61,0.81
			c1.28,0.37,2.56,1,3.92,1.18c1.49,0.19,3.09-0.36,4.56,0.1c1.46,0.46,1.93,2.26,2.62,3.44c0.69,1.18,0.82,2.52,1.44,3.76
			c0.94,1.9,2.05,3.7,2.98,5.61c0.73,1.51,1.8,3.9,3.23,4.89c0.94,0.65,1.95,0.39,2.94,0.92c1.07,0.57,2.1,1.36,3.14,1.98
			c1.56,0.92,2.8,2.52,3.92,3.94c1.69,2.13,3.61,4.01,5.38,6.06c3.75,4.32,8.82,6.72,13.38,10.12c1.88,1.4,3.69,2.41,5.26,4.2
			c1.53,1.75,2.72,3.5,4.55,4.98c2.94,2.37,5.64,4.95,8.47,7.45c5.17,4.58,9.61,10.16,15.7,13.59c2.79,1.57,5.36,3.45,8.18,4.9
			c2.73,1.4,5.36,2.18,8.29,3.09c1.84,0.57,4.13,1.47,5.74,2.56c2.21,1.5,3.84,3.6,5.85,5.3c1.05,0.88,2.44,1.68,3.59,2.4
			c1.69,1.05,3.08,2.28,4.7,3.43c2.16,1.53,4.3,2.59,6.21,4.48c1.24,1.22,2.43,2.5,3.67,3.72c1.99,1.96,3.21,3.92,5.58,5.41
			c1.49,0.94,2.85,1.61,4.56,2.12c2.01,0.6,3.5-0.16,5.14-1.4c1.09-0.82,2.13-1.71,3.19-2.57c1.75-1.41,3.71-2.2,5.5-3.51
			c2.86-2.09,6.07-4.06,8.23-6.93c1.45-1.91,3.01-3.55,4.72-5.23c1.29-1.27,1.91-2.33,2.73-3.89c1.29-2.44,3.43-4.83,5.1-7.06
			c1.32-1.77,2.37-3.48,3.27-5.5c0.48-1.07,0.89-2.19,1.16-3.33c0.11-0.45,0.7-2.08,0.68-2.47c-0.04-0.78-0.88-2.47-1.29-3.22
			c-0.2-0.36-0.42-0.68-0.65-0.97c-0.32,0.35-0.65,0.69-1.02,0.99c0.37-0.3,0.7-0.63,1.02-0.99c-1.72-2.1-4.46-2.65-6.91-3.57
			c-2.9-1.09-4.72-3.2-7.33-4.62c-1.58-0.86-3.99-1.49-5.31-2.73c-1.34-1.26-1.55-3.86-1.91-5.58c-0.28-1.3-0.63-2.58-0.7-3.92
			c-0.11-2.05,0.61-3.84,0.74-5.85c0.54-8.61,0.52-17.45,3.87-25.57c0.95-2.29,1.77-4.59,2.64-6.9c0.51-1.35,1.55-2.84,1.85-4.24
			c0.59-2.73-0.25-5.48-0.57-8.16c-0.21-1.71-0.33-2.69-1.59-3.97c-1.02-1.03-2.38-1.78-3.44-2.8c-1.5-1.45-2.89-2.9-4.56-4.15
			c-3.02-2.27-6.21-3.15-9.96-3.26c-4.43-0.13-9.59,0.8-13.76-1.2c-2.43-1.17-4.53-3.92-6.36-5.83c-2.2-2.29-5.32-3.63-8.29-4.71
			c-2.6-0.94-5.57-1.81-7.59-3.88c-2.52-2.58-4.09-7.26-4.5-10.71c-0.7-6.02-1.52-12.62-0.04-18.57c0.24-0.96,0.32-1.99,0.73-2.91
			c0.86-1.92,2.73-3.4,4-5.06c2.54-3.34,4.62-6.67,6.39-10.49c2.95-6.41,4.74-13.16,7.17-19.75c2.24-6.05,1.77-12.97-1.43-18.63
			c-1.87-3.31-3.41-6.93-5.91-9.85c-0.68-0.8-1.65-2.16-2.47-2.81c-0.59-0.47-1.3-0.62-1.82-1.19c-1.17-1.3-1.27-5.02-0.69-6.58
			c0.3-0.81,1.31-1.65,1.74-2.47c0.54-1.05,1.02-2.26,1.29-3.41c0.51-2.15,1.02-4.02,1.95-6.07c0.82-1.81,1.85-2.59,3.28-3.91
			c1.13-1.04,2.26-2.03,3.39-3.08c2.92-2.72,1.97-1.41,3.97-2.88c0.02-0.36,0.04-0.71,0.04-1.06c0-2.89-0.99-5.58-1.97-8.24
			c-1.29-3.49-2.24-6.57-5.25-8.93c-2.53-1.98-4.83-4.13-7.27-6.21c-1.79-1.53-2.64-2.72-4.83-3.77c-4.12-1.97-7.83-4.07-12.32-5.15
			c-2.13-0.51-4.08-0.59-6.08,0.38c-0.98,0.48-2.24,1.62-3.42,1.86c-2.08,0.42-4.35-2.17-5.82-3.43c-1.74-1.49-3.55-2.81-5.44-4.13
			c-1.85-1.29-3.77-2.26-5.86-3.09c-1.12-0.45-3.43-0.97-4.54-1.82c-1.66-1.28-1.96-3.56-2.64-5.4c-0.36-0.96-0.94-1.94-1.18-2.93
			c-0.63-2.53,1.22-4.88,0.44-7.29c-0.51-1.56-1.99-2.26-3.4-2.76c-2.32-0.82-4.59-1.76-6.94-2.47c-2.37-0.71-4.6-1.69-7.05-2.14
			c-1.09-0.2-3.33-0.24-3.95-1.38c-0.63-1.15-0.12-3.99-0.11-5.2c0.02-1.54,0.41-2.57,0.95-4.06c0.52-1.43,1.02-2.81,1.71-4.16
			c0.09-0.17,0.8-1.01,0.7-1.42c-0.2-0.83-1.45-0.75-2.17-1.02c-2.47-0.92-3.68-2.86-5.25-4.78c-2.3-2.81-4.96-0.62-7.74,0.01
			c-1.26,0.29-1.68,0.33-2.98,0.98c-2.92,1.45-7.65,2.8-9.6,5.6c-0.69,0.99-0.31,1.75-0.43,2.86c-0.13,1.18-0.64,2.43-1.08,3.52
			c-1.06,2.62-2.94,4.57-3.45,7.37c-0.65,3.66-0.55,7.54-5.3,6.78c-1.59-0.26-2.95-0.44-4.58-0.37c-1.57,0.07-2.95,0.65-4.52,0.7
			c-1.38,0.04-2.78-0.02-4.16-0.02c-0.51,0-2.57-0.32-2.98,0.1c-0.72,0.71,0.25,1.52,0.41,2.01c0.3,0.96,0.19,1.99,0.6,2.97
			c1.73,4.15,6.26,7.43,7.25,11.87c0.64,2.86-1.57,6.13-3.63,7.87c-1.65,1.39-2.92,3.82-5.38,3.14c-1.44-0.4-2.4-1.42-3.64-2.11
			c-0.95-0.53-1.41-0.49-2.25-1.31c-2.13-2.11-4.42-4.1-6.55-6.24c-1.95-1.96-3.84-4.18-6.02-5.88c-1.49-1.16-3.63-3.56-5.74-3.32
			c-1.09,0.13-2.01,0.83-2.76,1.34c-0.87,0.59-1.72,0.94-2.65,1.47c-1.8,1.02-3.32,2.53-5.08,3.61c-1.74,1.07-3.2,1.67-5.19,2.29
			c-1.44,0.45-3.74,1.92-5.26,1.35c-1.42-0.53-1.97-2.33-2.25-3.48c-0.36-1.42-0.54-3.3-0.35-4.9c0.12-1.05,0.63-1.86,0.69-2.94
			c0.05-0.86-0.02-1.75-0.02-2.61c0-1.69,0.23-3.57,0.02-5.24c-0.41-3.2-3.75-4.51-5.24-7.17c-0.68-1.21-1.02-1.29-1.3-1.23
			c0.02,1.61,0.15,3.06-0.79,4.5c-0.81,1.25-2.91,2.88-4.46,3.15c-1.33,0.24-2.45-0.76-4.05-0.57c-2.33,0.28-4.49,1.31-6.89,1.36
			c-2.05,0.04-3.45,0.31-4.97-1.08c-0.83-0.76-0.49-0.77-1.7-0.91c-0.63-0.08-1.33,0.02-1.98,0.02c-1.12-0.01-1.6,0.24-2.61,0.51
			c-0.8,0.21-1.54-0.04-2.31,0.12c-1.28,0.26-2.51,1-3.9,1.28c-1.81,0.36-3.2-0.42-4.9-0.6c-1.2-0.13-3.67-1.5-5.44-2.2
			c-0.39,0.39-0.77,0.79-1.12,1.22c-1.26,1.5-2.26,3.5-1.95,5.57c0.37,2.52,3.78,2.99,5.91,3.91c2.27,0.97,3.92,2.34,5.7,3.92
			c1.74,1.53,3.57,3.02,5.53,4.4c1.12,0.79,2.34,1.49,3.16,2.61c0.92,1.28,1.59,2.72,2.58,3.95c0.74,0.93,1.74,1.73,2.62,2.57
			c1.63,1.55,3.31,3.93,4.58,5.88c1.05,1.61,1.06,3.08,1.77,4.78c0.59,1.39,1.49,2.66,2.14,4.01c1.8,3.72,2.05,8.4,1.98,12.45
			c-0.08,4.32-1.38,8.65-4.59,11.65c-2.57,2.4-4.42,4.61-7.99,5.38c-8.05,1.73-17.32,3.61-22.74,10.46
			c-1.14,1.45-1.67,2.36-3.27,3.28c-1.13,0.65-1.97,1.25-2.78,2.28c-0.78,0.99-0.8,1.63-1.11,2.81c-0.16,0.64-0.6,0.56-0.58,1.24
			c0.02,0.77,1.04,1.79,1.51,2.33c1.06,1.22,2.46,1.82,3.62,2.92c1.33,1.26,2.63,2.55,3.94,3.82c1.4,1.36,3.57,1.92,5.06,3.33
			c1.59,1.51,2.14,3.13,2.12,5.23c-0.04,5.02-5.03,8.96-7.9,12.68c-2.09,2.7-4.35,4.95-6.34,7.67c-2.08,2.85-2.63,7.65-1.98,11.09
			c0.32,1.69,0.89,4.24,1.8,5.75c1.5,2.48,4.24,3.06,6.71,4.02c2.38,0.92,4.49,1.59,7.09,1.98c1.84,0.27,3.74,0.71,5.51,1.3
			c4.35,1.46,8.49,2.72,11.42,6.36c1.47,1.84,3.19,3.51,4.61,5.37c1.3,1.7,1.72,3.62,1.94,5.74c0.28,2.71,0.7,5.16,0.66,7.92
			c-0.02,1.25,0.18,2.23,0.76,3.32c0.92,1.7,2.14,2.95,3.48,4.3c0.53,0.52,1.01,1.18,1.58,1.65c1.06,0.87,1.96,0.92,3.16,1.44
			c2.1,0.91,4.04,2.16,6.15,3.07c1.98,0.85,3.49,1.92,5.21,3.19c1.46,1.08,2.13,2.24,3.33,3.56c1.4,1.53,2.05,2.62,2.6,4.54
			c0.24,0.83,0.84,1.67,1.05,2.47c0.3,1.19-0.15,1.85-0.46,2.96c-0.66,2.38-1.15,3.83-2.82,5.68c-2.29,2.53-4.51,4.85-7.09,7.11
			c-2.17,1.91-4.55,3.61-6.98,5.18c-2.38,1.54-5.04,2.48-7.17,4.38c-1.46,1.3-3.13,2.22-4.64,3.46c-1.44,1.18-2.49,2.35-4.08,3.31
			c-3.09,1.88-6.2,2.41-9.67,3.37c-2.6,0.72-3.37,2.47-4.66,4.59c-1.32,2.17-3.29,3.72-4.6,5.86c-1.28,2.09-2.56,4.13-3.1,6.52
			c-0.49,2.15-0.35,4.92-0.18,7.09c0.29,3.66,3.04,7.82,4.61,11.43c0.07-0.08,0.15-0.16,0.22-0.24c1.41-1.75,2.57-3.7,3.81-5.56
			c0.68-1.01,1.25-1.12,2.18-1.83c0.28-0.22,0.49-0.57,0.75-0.8c0.63-0.54,1.25-0.58,1.98-0.96c2.27-1.16,4.58-2.59,6.98-3.52
			c1.98-0.77,4.13-1.21,6.34-1.53c0.91-0.13,1.8-0.1,2.72-0.09c2.65,0.03,5.3-0.14,7.92-0.55c1.38-0.22,2.64-0.51,3.94-0.11
			c0.49,0.15,0.89,0.47,1.44,0.58c1.46,0.31,3.11,0.08,4.6,0.1c2.85,0.03,5.75-0.35,8.55-0.87c1.85-0.35,3.55-0.92,5.43-0.88
			c2.2,0.04,4.41,0.12,6.55-0.42c1.86-0.47,3.67-1.22,5.53-1.66c1.42-0.34,2.67-0.98,4.1-1.29c1.87-0.4,3.75-0.79,5.6-1.3
			c0.37-0.1,0.72-0.23,1.08-0.37c0-2.17,0-4.34,0-6.5C258.69,467.42,258.85,466.03,258.71,464.76z"/>
	</g>
	<g>
		<path class="st1" d="M80.99,408.56c0,0.38-0.05,0.73-0.16,1.06c-0.11,0.33-0.26,0.64-0.46,0.91c-0.2,0.28-0.44,0.52-0.72,0.73
			c-0.28,0.21-0.6,0.38-0.95,0.51c0.28,0.05,0.54,0.14,0.77,0.27c0.23,0.13,0.43,0.29,0.6,0.48c0.17,0.2,0.3,0.43,0.39,0.7
			c0.09,0.27,0.14,0.57,0.14,0.91c0,0.3-0.04,0.62-0.12,0.95c-0.08,0.33-0.21,0.65-0.39,0.96c-0.18,0.31-0.41,0.61-0.69,0.89
			c-0.29,0.28-0.63,0.53-1.03,0.74c-0.4,0.21-0.87,0.38-1.39,0.5c-0.53,0.12-1.14,0.19-1.84,0.19h-3.41c-0.26,0-0.45-0.06-0.57-0.19
			c-0.12-0.13-0.15-0.33-0.09-0.6l2.15-10.73c0.05-0.28,0.16-0.48,0.34-0.6c0.17-0.12,0.38-0.19,0.6-0.19h2.96
			c0.65,0,1.22,0.05,1.69,0.15c0.47,0.1,0.87,0.25,1.2,0.46c0.32,0.21,0.57,0.47,0.73,0.78C80.91,407.76,80.99,408.13,80.99,408.56z
			 M78,414.26c0-0.41-0.15-0.73-0.45-0.96c-0.3-0.23-0.78-0.35-1.44-0.35h-1.66l-0.69,3.5h1.77c0.45,0,0.83-0.06,1.14-0.19
			c0.31-0.13,0.56-0.29,0.76-0.49s0.35-0.44,0.44-0.7C77.95,414.8,78,414.53,78,414.26z M78.42,409.03c0-0.18-0.03-0.33-0.09-0.47
			c-0.06-0.13-0.16-0.25-0.29-0.34c-0.13-0.09-0.29-0.17-0.48-0.22c-0.19-0.05-0.44-0.08-0.74-0.08h-1.36l-0.65,3.2h1.41
			c0.41,0,0.75-0.07,1.03-0.19c0.27-0.13,0.5-0.3,0.67-0.5c0.17-0.21,0.3-0.43,0.38-0.68C78.38,409.49,78.42,409.25,78.42,409.03z"
			/>
		<path class="st1" d="M90.6,411.41c0,0.46-0.1,0.87-0.31,1.23c-0.21,0.37-0.53,0.68-0.96,0.94c-0.44,0.26-0.99,0.46-1.65,0.6
			c-0.67,0.14-1.47,0.21-2.39,0.21h-0.87c-0.03,0.15-0.05,0.29-0.06,0.43c-0.01,0.14-0.02,0.27-0.02,0.39c0,0.51,0.13,0.9,0.4,1.16
			c0.27,0.26,0.69,0.39,1.28,0.39c0.42,0,0.79-0.03,1.13-0.09c0.33-0.06,0.62-0.13,0.88-0.2c0.25-0.07,0.46-0.14,0.62-0.2
			c0.17-0.06,0.29-0.09,0.36-0.09c0.08,0,0.13,0.02,0.16,0.07c0.03,0.05,0.05,0.11,0.05,0.21c0,0.11-0.01,0.23-0.03,0.37
			c-0.02,0.14-0.05,0.28-0.08,0.41c-0.03,0.14-0.08,0.26-0.13,0.39c-0.05,0.12-0.12,0.21-0.19,0.27c-0.08,0.08-0.21,0.15-0.42,0.23
			c-0.2,0.08-0.45,0.15-0.73,0.21c-0.29,0.06-0.61,0.12-0.96,0.16c-0.35,0.04-0.72,0.06-1.08,0.06c-0.61,0-1.14-0.06-1.59-0.19
			c-0.45-0.13-0.83-0.32-1.14-0.58c-0.3-0.26-0.53-0.59-0.68-0.99c-0.15-0.4-0.23-0.88-0.23-1.43c0-0.42,0.04-0.88,0.12-1.36
			c0.08-0.48,0.21-0.96,0.38-1.44c0.18-0.47,0.41-0.92,0.69-1.36c0.28-0.43,0.62-0.81,1.01-1.14c0.4-0.33,0.85-0.59,1.37-0.78
			c0.52-0.2,1.11-0.3,1.78-0.3c0.58,0,1.07,0.07,1.49,0.2c0.42,0.14,0.76,0.32,1.02,0.54c0.27,0.22,0.46,0.48,0.59,0.77
			C90.53,410.81,90.6,411.11,90.6,411.41z M88.25,411.6c0-0.25-0.1-0.46-0.3-0.63c-0.2-0.17-0.49-0.25-0.87-0.25
			c-0.32,0-0.6,0.06-0.85,0.17c-0.25,0.11-0.47,0.27-0.66,0.46c-0.19,0.19-0.35,0.42-0.49,0.69c-0.14,0.26-0.24,0.54-0.33,0.84h0.8
			c0.51,0,0.93-0.03,1.27-0.1c0.34-0.07,0.62-0.16,0.83-0.27c0.21-0.11,0.36-0.25,0.46-0.4C88.2,411.94,88.25,411.77,88.25,411.6z"
			/>
		<path class="st1" d="M100.27,409.52c0,0.08-0.01,0.17-0.03,0.28c-0.02,0.1-0.05,0.21-0.09,0.31c-0.22,0.58-0.45,1.19-0.7,1.81
			c-0.25,0.62-0.54,1.26-0.86,1.92c-0.32,0.66-0.69,1.34-1.1,2.04c-0.41,0.7-0.88,1.43-1.42,2.19l-2.32,3.29
			c-0.06,0.08-0.13,0.15-0.21,0.2c-0.09,0.05-0.19,0.1-0.32,0.13c-0.13,0.03-0.29,0.06-0.47,0.08c-0.18,0.02-0.4,0.03-0.64,0.03
			c-0.27,0-0.49-0.01-0.66-0.03c-0.17-0.02-0.29-0.06-0.37-0.11c-0.08-0.05-0.11-0.11-0.1-0.19c0.01-0.08,0.05-0.17,0.13-0.27
			l2.16-2.84l-1.4-8.16c-0.01-0.08-0.03-0.17-0.04-0.26c-0.01-0.09-0.02-0.17-0.02-0.23c0-0.11,0.02-0.21,0.06-0.28
			c0.04-0.07,0.11-0.12,0.21-0.16c0.1-0.04,0.23-0.07,0.39-0.08c0.16-0.02,0.37-0.03,0.6-0.03c0.26,0,0.46,0.01,0.61,0.02
			c0.15,0.01,0.26,0.03,0.34,0.06c0.08,0.03,0.13,0.08,0.16,0.14c0.03,0.06,0.05,0.14,0.06,0.24l0.88,5.94h0.02
			c0.32-0.47,0.61-0.96,0.87-1.45c0.26-0.49,0.5-0.98,0.71-1.49c0.21-0.5,0.41-1.01,0.59-1.53c0.18-0.52,0.35-1.04,0.5-1.56
			c0.01-0.06,0.04-0.12,0.09-0.17c0.04-0.05,0.12-0.09,0.22-0.11c0.11-0.03,0.24-0.05,0.41-0.07c0.17-0.02,0.39-0.03,0.67-0.03
			c0.41,0,0.68,0.03,0.84,0.08C100.19,409.3,100.27,409.39,100.27,409.52z"/>
		<path class="st1" d="M102.7,418.03c-0.01,0.06-0.04,0.12-0.09,0.17c-0.05,0.05-0.12,0.09-0.21,0.12s-0.22,0.06-0.38,0.07
			c-0.16,0.02-0.35,0.02-0.58,0.02c-0.24,0-0.44-0.01-0.59-0.02c-0.15-0.02-0.26-0.04-0.35-0.07c-0.08-0.03-0.14-0.07-0.17-0.12
			c-0.03-0.05-0.04-0.1-0.02-0.17l2.5-12.51c0.01-0.06,0.04-0.12,0.09-0.17c0.05-0.05,0.12-0.09,0.22-0.13
			c0.1-0.04,0.23-0.06,0.39-0.08c0.15-0.02,0.35-0.03,0.58-0.03c0.23,0,0.43,0.01,0.58,0.03c0.15,0.02,0.26,0.05,0.35,0.08
			c0.08,0.03,0.14,0.08,0.16,0.13c0.03,0.05,0.03,0.11,0.02,0.17L102.7,418.03z"/>
		<path class="st1" d="M105.07,416.17c0-0.46,0.1-0.87,0.31-1.23c0.21-0.36,0.53-0.68,0.96-0.94c0.43-0.26,0.99-0.46,1.65-0.61
			c0.67-0.14,1.47-0.21,2.39-0.21h0.88c0.03-0.15,0.04-0.29,0.06-0.43c0.01-0.14,0.02-0.27,0.02-0.4c0-0.51-0.13-0.9-0.4-1.16
			c-0.27-0.26-0.69-0.39-1.28-0.39c-0.42,0-0.79,0.03-1.13,0.09c-0.33,0.06-0.62,0.13-0.87,0.2c-0.25,0.07-0.46,0.14-0.62,0.2
			c-0.16,0.06-0.29,0.09-0.36,0.09c-0.08,0-0.13-0.02-0.16-0.07c-0.03-0.04-0.05-0.11-0.05-0.21c0-0.11,0.01-0.23,0.03-0.37
			c0.02-0.14,0.05-0.28,0.08-0.41c0.04-0.14,0.08-0.26,0.13-0.38c0.05-0.12,0.11-0.21,0.18-0.28c0.08-0.08,0.22-0.15,0.42-0.23
			c0.2-0.08,0.45-0.15,0.73-0.21c0.29-0.06,0.61-0.12,0.96-0.16c0.36-0.04,0.72-0.06,1.08-0.06c0.61,0,1.14,0.06,1.59,0.19
			c0.45,0.13,0.83,0.32,1.14,0.58c0.31,0.26,0.53,0.59,0.69,0.99c0.15,0.4,0.23,0.88,0.23,1.43c0,0.42-0.04,0.88-0.12,1.36
			c-0.08,0.49-0.21,0.96-0.39,1.44s-0.41,0.92-0.68,1.35c-0.28,0.43-0.62,0.81-1.01,1.14c-0.4,0.33-0.86,0.59-1.37,0.78
			c-0.52,0.2-1.11,0.29-1.78,0.29c-0.58,0-1.07-0.07-1.49-0.2c-0.41-0.14-0.76-0.32-1.02-0.54c-0.27-0.22-0.46-0.48-0.6-0.77
			C105.14,416.77,105.07,416.47,105.07,416.17z M107.42,415.99c0,0.25,0.1,0.46,0.3,0.63c0.2,0.17,0.49,0.25,0.87,0.25
			c0.32,0,0.6-0.06,0.85-0.17c0.25-0.11,0.47-0.27,0.66-0.46c0.19-0.19,0.35-0.42,0.49-0.68c0.14-0.26,0.25-0.54,0.33-0.84h-0.8
			c-0.51,0-0.93,0.03-1.27,0.1c-0.34,0.07-0.62,0.16-0.83,0.27s-0.36,0.25-0.46,0.4C107.47,415.64,107.42,415.81,107.42,415.99z"/>
		<path class="st1" d="M121.88,421.4c-0.01,0.06-0.04,0.12-0.09,0.17c-0.05,0.05-0.12,0.09-0.22,0.13c-0.1,0.03-0.23,0.06-0.39,0.08
			c-0.16,0.02-0.36,0.03-0.59,0.03c-0.23,0-0.42-0.01-0.57-0.03c-0.15-0.02-0.26-0.05-0.35-0.08c-0.08-0.04-0.14-0.08-0.17-0.13
			c-0.03-0.05-0.04-0.11-0.02-0.17l0.55-2.75c0.03-0.14,0.07-0.29,0.11-0.45c0.04-0.16,0.08-0.32,0.13-0.48
			c0.05-0.16,0.1-0.32,0.14-0.46c0.05-0.15,0.09-0.28,0.14-0.39c-0.11,0.2-0.28,0.41-0.49,0.61c-0.21,0.2-0.45,0.39-0.73,0.55
			c-0.27,0.16-0.57,0.29-0.88,0.4c-0.31,0.1-0.63,0.15-0.95,0.15c-0.47,0-0.87-0.08-1.2-0.24c-0.33-0.16-0.61-0.38-0.82-0.66
			c-0.21-0.28-0.37-0.62-0.46-1.01c-0.1-0.39-0.15-0.83-0.15-1.3c0-0.4,0.04-0.84,0.11-1.31c0.08-0.47,0.19-0.94,0.35-1.41
			c0.15-0.47,0.36-0.92,0.6-1.36c0.25-0.44,0.54-0.82,0.89-1.16c0.35-0.34,0.74-0.61,1.19-0.81c0.45-0.2,0.96-0.3,1.52-0.3
			c0.53,0,0.99,0.11,1.4,0.33c0.41,0.22,0.76,0.54,1.06,0.96l0.15-0.75c0.03-0.13,0.13-0.23,0.3-0.29c0.17-0.06,0.45-0.09,0.84-0.09
			c0.19,0,0.35,0.01,0.47,0.02c0.13,0.02,0.23,0.04,0.3,0.07c0.07,0.03,0.12,0.07,0.15,0.12c0.03,0.05,0.03,0.1,0.02,0.17
			L121.88,421.4z M121.36,412.08c-0.22-0.35-0.47-0.61-0.74-0.78s-0.58-0.26-0.94-0.26c-0.27,0-0.52,0.07-0.75,0.2
			c-0.22,0.13-0.42,0.31-0.6,0.53c-0.17,0.22-0.33,0.47-0.45,0.76c-0.13,0.28-0.23,0.58-0.31,0.88c-0.08,0.31-0.14,0.61-0.18,0.9
			c-0.04,0.3-0.06,0.57-0.06,0.82c0,0.49,0.08,0.86,0.25,1.08c0.17,0.23,0.41,0.34,0.74,0.34c0.28,0,0.57-0.08,0.86-0.25
			c0.29-0.17,0.56-0.4,0.82-0.68c0.25-0.29,0.48-0.63,0.67-1.01c0.19-0.39,0.34-0.8,0.42-1.24L121.36,412.08z"/>
		<path class="st1" d="M132.82,418.04c-0.03,0.13-0.13,0.23-0.3,0.29c-0.17,0.06-0.45,0.09-0.84,0.09c-0.2,0-0.36-0.01-0.48-0.02
			c-0.12-0.01-0.22-0.03-0.3-0.06c-0.08-0.03-0.13-0.07-0.15-0.11c-0.02-0.05-0.03-0.11-0.01-0.18l0.27-1.36
			c-0.1,0.2-0.25,0.42-0.46,0.64c-0.21,0.22-0.46,0.43-0.74,0.61c-0.29,0.18-0.6,0.34-0.95,0.46c-0.35,0.12-0.7,0.18-1.07,0.18
			c-0.51,0-0.93-0.09-1.27-0.26c-0.34-0.18-0.61-0.42-0.81-0.72c-0.2-0.3-0.35-0.64-0.43-1.03c-0.09-0.39-0.13-0.79-0.13-1.22
			c0-0.4,0.04-0.83,0.11-1.31c0.08-0.47,0.19-0.94,0.35-1.41c0.16-0.47,0.36-0.92,0.61-1.35c0.25-0.43,0.54-0.82,0.89-1.16
			c0.35-0.34,0.74-0.6,1.19-0.8c0.45-0.2,0.95-0.3,1.52-0.3c0.53,0,0.99,0.11,1.4,0.33c0.41,0.22,0.76,0.54,1.06,0.96l0.15-0.75
			c0.03-0.13,0.13-0.23,0.3-0.29c0.17-0.06,0.45-0.09,0.84-0.09c0.19,0,0.35,0.01,0.47,0.03c0.13,0.02,0.23,0.04,0.3,0.07
			c0.07,0.03,0.12,0.07,0.15,0.11c0.03,0.05,0.03,0.1,0.02,0.17L132.82,418.04z M131.64,412.09c-0.22-0.35-0.47-0.61-0.74-0.78
			c-0.27-0.17-0.58-0.26-0.94-0.26c-0.26,0-0.51,0.06-0.73,0.19c-0.22,0.13-0.42,0.3-0.59,0.51c-0.17,0.21-0.32,0.46-0.45,0.74
			c-0.13,0.28-0.24,0.57-0.32,0.87c-0.09,0.3-0.15,0.61-0.19,0.91c-0.04,0.31-0.06,0.59-0.06,0.85c0,0.19,0.01,0.37,0.04,0.54
			s0.08,0.32,0.16,0.46c0.08,0.13,0.18,0.24,0.3,0.32c0.13,0.08,0.29,0.12,0.48,0.12c0.28,0,0.57-0.08,0.86-0.25
			c0.29-0.17,0.56-0.4,0.82-0.68c0.25-0.29,0.48-0.63,0.67-1.01c0.19-0.38,0.34-0.79,0.42-1.23L131.64,412.09z"/>
		<path class="st1" d="M144.35,411.44c0,0.22-0.02,0.44-0.04,0.67c-0.03,0.22-0.07,0.45-0.11,0.68l-1.05,5.24
			c-0.01,0.06-0.04,0.12-0.09,0.17c-0.05,0.05-0.12,0.09-0.22,0.12c-0.1,0.03-0.22,0.06-0.38,0.07c-0.15,0.02-0.35,0.02-0.58,0.02
			c-0.23,0-0.43-0.01-0.58-0.02c-0.15-0.02-0.26-0.04-0.35-0.07c-0.08-0.03-0.14-0.07-0.17-0.12c-0.03-0.05-0.04-0.1-0.02-0.17
			l1.03-5.09c0.03-0.15,0.06-0.31,0.07-0.47c0.02-0.16,0.02-0.3,0.02-0.42c0-0.29-0.06-0.52-0.18-0.7
			c-0.12-0.18-0.32-0.28-0.61-0.28c-0.26,0-0.53,0.08-0.81,0.25c-0.28,0.16-0.55,0.39-0.8,0.67c-0.25,0.28-0.47,0.61-0.67,0.99
			c-0.2,0.38-0.34,0.78-0.42,1.2l-0.77,3.84c-0.01,0.06-0.04,0.12-0.09,0.17c-0.05,0.05-0.12,0.09-0.22,0.12
			c-0.1,0.03-0.23,0.06-0.39,0.07c-0.16,0.02-0.35,0.02-0.58,0.02c-0.23,0-0.43-0.01-0.58-0.02c-0.15-0.02-0.27-0.04-0.35-0.07
			s-0.14-0.07-0.17-0.12c-0.03-0.05-0.03-0.1-0.02-0.17l1.7-8.49c0.01-0.06,0.04-0.12,0.08-0.17c0.04-0.05,0.11-0.09,0.19-0.11
			c0.09-0.03,0.2-0.05,0.33-0.07c0.14-0.02,0.3-0.03,0.49-0.03c0.2,0,0.36,0.01,0.48,0.03c0.12,0.02,0.22,0.04,0.29,0.07
			c0.07,0.03,0.12,0.07,0.14,0.11c0.02,0.05,0.03,0.1,0.01,0.17l-0.27,1.4c0.13-0.22,0.31-0.45,0.53-0.68
			c0.22-0.23,0.48-0.44,0.76-0.62c0.29-0.18,0.6-0.33,0.94-0.45c0.34-0.12,0.69-0.18,1.06-0.18c0.44,0,0.82,0.07,1.12,0.19
			c0.3,0.13,0.54,0.31,0.73,0.53c0.19,0.22,0.32,0.48,0.4,0.77C144.31,410.8,144.35,411.11,144.35,411.44z"/>
	</g>
	<g>
		<path class="st1" d="M274.3,352.6c-0.01,0.06-0.04,0.12-0.1,0.17c-0.05,0.05-0.13,0.09-0.23,0.12c-0.11,0.03-0.24,0.06-0.41,0.07
			c-0.16,0.02-0.37,0.02-0.61,0.02c-0.25,0-0.45-0.01-0.61-0.02c-0.15-0.02-0.28-0.04-0.37-0.07s-0.15-0.07-0.18-0.12
			c-0.03-0.05-0.04-0.11-0.02-0.17l2.33-11.64c0.01-0.06,0.04-0.12,0.09-0.17c0.05-0.05,0.13-0.09,0.24-0.12
			c0.1-0.03,0.24-0.06,0.4-0.07c0.16-0.02,0.36-0.02,0.6-0.02c0.24,0,0.44,0.01,0.6,0.02c0.16,0.02,0.28,0.04,0.37,0.07
			s0.15,0.07,0.18,0.12c0.03,0.05,0.04,0.11,0.02,0.17L274.3,352.6z M274.54,338.37c0.04-0.22,0.1-0.41,0.18-0.56
			c0.07-0.15,0.17-0.27,0.29-0.37s0.27-0.16,0.45-0.2c0.18-0.04,0.39-0.06,0.65-0.06c0.25,0,0.46,0.02,0.62,0.06
			c0.16,0.04,0.28,0.11,0.36,0.2c0.08,0.1,0.13,0.22,0.14,0.37c0.01,0.15-0.01,0.34-0.05,0.56c-0.04,0.22-0.09,0.4-0.17,0.55
			c-0.07,0.15-0.17,0.27-0.29,0.37c-0.12,0.1-0.27,0.16-0.45,0.2c-0.18,0.04-0.39,0.06-0.65,0.06c-0.25,0-0.46-0.02-0.62-0.06
			c-0.16-0.04-0.28-0.11-0.36-0.2c-0.08-0.1-0.13-0.22-0.14-0.37C274.48,338.77,274.49,338.59,274.54,338.37z"/>
		<path class="st1" d="M290.14,352.61c-0.01,0.06-0.04,0.12-0.09,0.17c-0.05,0.05-0.12,0.09-0.22,0.12
			c-0.1,0.03-0.23,0.06-0.39,0.07c-0.15,0.02-0.35,0.02-0.58,0.02c-0.23,0-0.42-0.01-0.57-0.02c-0.15-0.02-0.27-0.04-0.35-0.07
			c-0.08-0.03-0.14-0.07-0.17-0.12c-0.03-0.05-0.03-0.1-0.01-0.17l1.02-5.09c0.03-0.15,0.05-0.29,0.07-0.43
			c0.02-0.14,0.03-0.29,0.03-0.43c0-0.3-0.06-0.54-0.17-0.72c-0.11-0.18-0.31-0.28-0.59-0.28c-0.25,0-0.52,0.08-0.79,0.25
			c-0.27,0.16-0.53,0.39-0.78,0.67c-0.25,0.28-0.47,0.61-0.67,0.99c-0.19,0.38-0.33,0.78-0.41,1.2l-0.77,3.84
			c-0.01,0.06-0.04,0.12-0.09,0.17c-0.05,0.05-0.12,0.09-0.22,0.12c-0.1,0.03-0.23,0.06-0.39,0.07c-0.16,0.02-0.35,0.02-0.59,0.02
			c-0.23,0-0.42-0.01-0.57-0.02c-0.15-0.02-0.26-0.04-0.35-0.07s-0.14-0.07-0.17-0.12c-0.03-0.05-0.04-0.1-0.02-0.17l1.01-5.09
			c0.04-0.15,0.07-0.3,0.08-0.45c0.02-0.16,0.02-0.31,0.02-0.45c0-0.28-0.06-0.51-0.17-0.69c-0.11-0.18-0.31-0.27-0.59-0.27
			c-0.25,0-0.52,0.08-0.79,0.25c-0.27,0.16-0.53,0.39-0.78,0.67c-0.25,0.28-0.47,0.61-0.67,0.99c-0.19,0.38-0.33,0.78-0.41,1.2
			l-0.77,3.84c-0.01,0.06-0.04,0.12-0.09,0.17c-0.05,0.05-0.12,0.09-0.22,0.12c-0.1,0.03-0.23,0.06-0.39,0.07
			c-0.16,0.02-0.35,0.02-0.58,0.02c-0.23,0-0.43-0.01-0.58-0.02c-0.15-0.02-0.27-0.04-0.35-0.07c-0.09-0.03-0.14-0.07-0.17-0.12
			c-0.03-0.05-0.03-0.1-0.02-0.17l1.7-8.49c0.01-0.06,0.04-0.12,0.08-0.17c0.04-0.05,0.11-0.09,0.19-0.11s0.2-0.05,0.33-0.07
			c0.14-0.02,0.3-0.03,0.49-0.03c0.2,0,0.36,0.01,0.48,0.03c0.12,0.02,0.22,0.04,0.29,0.07c0.07,0.03,0.12,0.07,0.14,0.11
			c0.02,0.05,0.03,0.1,0.01,0.17l-0.27,1.4c0.13-0.22,0.31-0.45,0.53-0.68c0.22-0.23,0.47-0.44,0.75-0.62
			c0.28-0.18,0.59-0.33,0.92-0.45c0.33-0.12,0.68-0.18,1.03-0.18c0.37,0,0.69,0.05,0.96,0.15s0.49,0.23,0.67,0.41
			s0.31,0.38,0.4,0.61c0.09,0.23,0.15,0.49,0.18,0.76c0.15-0.23,0.33-0.46,0.56-0.68c0.22-0.23,0.48-0.43,0.76-0.62
			c0.28-0.18,0.59-0.33,0.92-0.45c0.33-0.12,0.67-0.18,1.02-0.18c0.44,0,0.81,0.06,1.12,0.19c0.3,0.12,0.54,0.29,0.73,0.51
			c0.18,0.22,0.32,0.47,0.4,0.77c0.08,0.3,0.12,0.61,0.12,0.96c0,0.22-0.01,0.45-0.04,0.67c-0.03,0.22-0.06,0.45-0.11,0.69
			L290.14,352.61z"/>
		<path class="st1" d="M294.88,352.61c-0.01,0.06-0.04,0.12-0.09,0.17c-0.05,0.05-0.12,0.09-0.22,0.12
			c-0.1,0.03-0.23,0.06-0.39,0.07c-0.16,0.02-0.35,0.02-0.58,0.02c-0.23,0-0.43-0.01-0.58-0.02c-0.15-0.02-0.27-0.04-0.35-0.07
			s-0.14-0.07-0.17-0.12c-0.03-0.05-0.03-0.1-0.02-0.17l1.68-8.46c0.01-0.06,0.04-0.12,0.09-0.17c0.05-0.05,0.12-0.09,0.22-0.12
			c0.1-0.04,0.22-0.06,0.38-0.08c0.15-0.02,0.35-0.03,0.59-0.03c0.23,0,0.43,0.01,0.58,0.03c0.15,0.02,0.27,0.05,0.35,0.08
			c0.09,0.03,0.14,0.08,0.17,0.12c0.03,0.05,0.03,0.1,0.02,0.17L294.88,352.61z M297.33,341.27c-0.05,0.23-0.11,0.43-0.18,0.59
			c-0.08,0.16-0.18,0.29-0.31,0.39c-0.13,0.1-0.28,0.17-0.47,0.21c-0.18,0.04-0.41,0.06-0.68,0.06c-0.27,0-0.48-0.02-0.65-0.06
			c-0.17-0.04-0.3-0.11-0.38-0.21c-0.09-0.1-0.14-0.23-0.15-0.39c-0.01-0.16,0.01-0.36,0.06-0.59c0.04-0.23,0.1-0.42,0.18-0.58
			c0.08-0.16,0.18-0.29,0.3-0.39c0.13-0.1,0.28-0.17,0.47-0.22c0.18-0.05,0.41-0.07,0.68-0.07c0.27,0,0.48,0.02,0.65,0.07
			c0.17,0.04,0.3,0.12,0.38,0.22c0.09,0.1,0.13,0.23,0.14,0.39C297.39,340.85,297.38,341.05,297.33,341.27z"/>
		<path class="st1" d="M298.93,353.12c-0.36-0.04-0.66-0.1-0.91-0.18c-0.25-0.08-0.46-0.16-0.61-0.24
			c-0.15-0.08-0.27-0.16-0.35-0.23c-0.05-0.05-0.09-0.11-0.11-0.16s-0.03-0.13-0.03-0.22c0-0.06,0.01-0.13,0.02-0.22
			c0.01-0.09,0.03-0.19,0.05-0.29c0.02-0.11,0.05-0.22,0.08-0.32c0.03-0.11,0.06-0.21,0.1-0.3s0.08-0.16,0.12-0.21
			c0.04-0.05,0.09-0.08,0.14-0.08c0.09,0,0.19,0.04,0.3,0.11c0.11,0.08,0.25,0.16,0.42,0.25c0.17,0.09,0.38,0.18,0.63,0.26
			c0.25,0.08,0.56,0.12,0.94,0.12c0.26,0,0.49-0.03,0.68-0.09c0.19-0.06,0.35-0.14,0.48-0.25c0.13-0.11,0.22-0.23,0.28-0.37
			c0.06-0.14,0.09-0.29,0.09-0.45c0-0.22-0.08-0.4-0.23-0.54c-0.15-0.14-0.35-0.27-0.59-0.39c-0.23-0.12-0.49-0.24-0.76-0.37
			c-0.28-0.13-0.53-0.28-0.77-0.47c-0.23-0.18-0.43-0.41-0.58-0.69c-0.16-0.27-0.23-0.61-0.23-1.03c0-0.45,0.09-0.87,0.26-1.26
			c0.17-0.39,0.42-0.72,0.75-1.01c0.33-0.29,0.73-0.51,1.2-0.67c0.47-0.16,1-0.24,1.6-0.24c0.27,0,0.52,0.02,0.77,0.05
			c0.25,0.04,0.48,0.08,0.68,0.14c0.2,0.06,0.37,0.12,0.52,0.19c0.15,0.07,0.25,0.14,0.32,0.21c0.07,0.06,0.1,0.17,0.1,0.32
			c0,0.08-0.01,0.19-0.03,0.34c-0.02,0.15-0.06,0.3-0.1,0.45c-0.05,0.15-0.1,0.28-0.16,0.4c-0.06,0.11-0.13,0.17-0.2,0.17
			c-0.08,0-0.18-0.03-0.29-0.09c-0.11-0.06-0.24-0.13-0.4-0.2c-0.16-0.07-0.34-0.14-0.55-0.19c-0.21-0.06-0.46-0.09-0.75-0.09
			c-0.22,0-0.42,0.03-0.59,0.09c-0.17,0.06-0.32,0.13-0.43,0.23c-0.11,0.1-0.2,0.21-0.26,0.35c-0.06,0.13-0.09,0.28-0.09,0.43
			c0,0.2,0.08,0.36,0.24,0.49c0.16,0.13,0.36,0.26,0.6,0.38s0.5,0.24,0.78,0.37c0.28,0.13,0.54,0.29,0.78,0.48
			c0.24,0.19,0.44,0.42,0.6,0.69c0.16,0.27,0.24,0.61,0.24,1.03c0,0.48-0.1,0.93-0.29,1.35c-0.19,0.42-0.49,0.8-0.91,1.13
			c-0.42,0.33-0.97,0.58-1.65,0.73l0.14,0.54c0.04,0.16,0.07,0.31,0.09,0.45c0.03,0.14,0.04,0.28,0.04,0.42
			c0,0.34-0.06,0.64-0.17,0.89c-0.11,0.25-0.27,0.46-0.47,0.62c-0.2,0.16-0.44,0.28-0.73,0.36s-0.6,0.11-0.94,0.11
			c-0.18,0-0.35-0.01-0.53-0.02c-0.17-0.01-0.34-0.03-0.48-0.06c-0.15-0.03-0.28-0.06-0.4-0.1s-0.21-0.07-0.27-0.1
			c-0.07-0.04-0.12-0.08-0.15-0.12c-0.03-0.04-0.04-0.1-0.04-0.19c0-0.06,0.01-0.15,0.03-0.27c0.02-0.11,0.04-0.23,0.08-0.34
			c0.04-0.11,0.09-0.21,0.16-0.3c0.07-0.09,0.15-0.13,0.26-0.13h1.08c0.09,0,0.17-0.01,0.25-0.03c0.08-0.02,0.15-0.05,0.21-0.1
			c0.06-0.04,0.11-0.1,0.14-0.17c0.04-0.07,0.05-0.15,0.05-0.24c0-0.06-0.01-0.14-0.01-0.22c-0.01-0.08-0.03-0.16-0.04-0.25
			L298.93,353.12z"/>
		<path class="st1" d="M307.34,352.61c-0.01,0.06-0.04,0.12-0.09,0.17c-0.05,0.05-0.12,0.09-0.21,0.12
			c-0.1,0.03-0.22,0.06-0.38,0.07c-0.16,0.02-0.35,0.02-0.58,0.02c-0.24,0-0.44-0.01-0.59-0.02c-0.15-0.02-0.26-0.04-0.35-0.07
			c-0.08-0.03-0.14-0.07-0.17-0.12c-0.03-0.05-0.04-0.1-0.02-0.17l2.5-12.51c0.01-0.06,0.04-0.12,0.09-0.17
			c0.05-0.05,0.12-0.09,0.22-0.13c0.1-0.04,0.23-0.06,0.39-0.08c0.15-0.02,0.35-0.03,0.58-0.03c0.23,0,0.43,0.01,0.58,0.03
			c0.15,0.02,0.26,0.05,0.35,0.08c0.08,0.03,0.14,0.08,0.16,0.13s0.03,0.11,0.02,0.17L307.34,352.61z"/>
		<path class="st1" d="M312.12,352.61c-0.01,0.06-0.04,0.12-0.09,0.17c-0.05,0.05-0.12,0.09-0.22,0.12
			c-0.1,0.03-0.23,0.06-0.39,0.07c-0.16,0.02-0.35,0.02-0.58,0.02c-0.23,0-0.43-0.01-0.58-0.02c-0.15-0.02-0.27-0.04-0.35-0.07
			s-0.14-0.07-0.17-0.12c-0.03-0.05-0.03-0.1-0.02-0.17l1.68-8.46c0.01-0.06,0.04-0.12,0.09-0.17c0.05-0.05,0.12-0.09,0.22-0.12
			c0.1-0.04,0.22-0.06,0.38-0.08c0.15-0.02,0.35-0.03,0.59-0.03c0.23,0,0.43,0.01,0.58,0.03c0.15,0.02,0.27,0.05,0.35,0.08
			c0.09,0.03,0.14,0.08,0.17,0.12c0.03,0.05,0.03,0.1,0.02,0.17L312.12,352.61z M314.57,341.27c-0.05,0.23-0.11,0.43-0.18,0.59
			c-0.08,0.16-0.18,0.29-0.31,0.39c-0.13,0.1-0.28,0.17-0.47,0.21c-0.18,0.04-0.41,0.06-0.68,0.06c-0.27,0-0.48-0.02-0.65-0.06
			c-0.17-0.04-0.3-0.11-0.38-0.21c-0.09-0.1-0.14-0.23-0.15-0.39c-0.01-0.16,0.01-0.36,0.06-0.59c0.04-0.23,0.1-0.42,0.18-0.58
			c0.08-0.16,0.18-0.29,0.3-0.39c0.13-0.1,0.28-0.17,0.47-0.22c0.18-0.05,0.41-0.07,0.68-0.07c0.27,0,0.48,0.02,0.65,0.07
			c0.17,0.04,0.3,0.12,0.38,0.22c0.09,0.1,0.13,0.23,0.14,0.39C314.63,340.85,314.62,341.05,314.57,341.27z"/>
	</g>
	<g>
		<path class="st1" d="M490.42,395.61c0,0.05-0.01,0.12-0.02,0.22c-0.01,0.1-0.02,0.2-0.04,0.31c-0.02,0.11-0.04,0.23-0.07,0.35
			s-0.06,0.22-0.1,0.32c-0.04,0.1-0.09,0.18-0.14,0.24c-0.05,0.06-0.11,0.09-0.16,0.09c-0.09,0-0.2-0.04-0.33-0.12
			c-0.13-0.08-0.3-0.16-0.49-0.26c-0.19-0.09-0.42-0.18-0.68-0.26c-0.26-0.08-0.55-0.12-0.88-0.12c-0.34,0-0.63,0.05-0.87,0.14
			c-0.24,0.1-0.43,0.22-0.59,0.38c-0.15,0.16-0.26,0.33-0.34,0.52c-0.07,0.19-0.11,0.39-0.11,0.59c0,0.23,0.06,0.43,0.17,0.6
			c0.11,0.17,0.26,0.34,0.46,0.49c0.19,0.15,0.41,0.29,0.65,0.43c0.24,0.14,0.49,0.29,0.74,0.44c0.25,0.15,0.5,0.32,0.74,0.5
			s0.46,0.39,0.65,0.63c0.19,0.24,0.34,0.51,0.46,0.82c0.11,0.31,0.17,0.66,0.17,1.06c0,0.6-0.12,1.15-0.36,1.66
			c-0.24,0.51-0.58,0.95-1.02,1.33c-0.44,0.38-0.97,0.67-1.6,0.89c-0.63,0.21-1.32,0.32-2.08,0.32c-0.41,0-0.79-0.03-1.14-0.1
			c-0.35-0.07-0.66-0.15-0.93-0.24c-0.27-0.09-0.5-0.19-0.68-0.3c-0.18-0.11-0.32-0.2-0.41-0.3c-0.09-0.1-0.13-0.24-0.13-0.43
			c0-0.05,0.01-0.13,0.02-0.23c0.01-0.1,0.03-0.21,0.05-0.33c0.02-0.12,0.05-0.24,0.08-0.36c0.03-0.12,0.07-0.23,0.11-0.34
			c0.05-0.1,0.09-0.18,0.15-0.25s0.11-0.1,0.18-0.1c0.11,0,0.24,0.05,0.39,0.15c0.15,0.1,0.33,0.21,0.55,0.32
			c0.22,0.12,0.49,0.23,0.79,0.33c0.31,0.1,0.67,0.15,1.09,0.15c0.37,0,0.7-0.05,0.98-0.14c0.28-0.1,0.52-0.22,0.71-0.39
			c0.19-0.16,0.33-0.36,0.43-0.58c0.1-0.22,0.15-0.46,0.15-0.72c0-0.23-0.06-0.44-0.17-0.62c-0.11-0.18-0.26-0.34-0.45-0.49
			c-0.19-0.15-0.4-0.29-0.64-0.42c-0.24-0.13-0.48-0.27-0.73-0.43c-0.25-0.15-0.49-0.32-0.73-0.49c-0.24-0.18-0.45-0.39-0.64-0.62
			c-0.19-0.24-0.34-0.51-0.45-0.82c-0.11-0.31-0.17-0.67-0.17-1.08c0-0.57,0.11-1.1,0.34-1.58c0.23-0.48,0.54-0.9,0.95-1.24
			c0.4-0.35,0.89-0.62,1.45-0.81c0.57-0.19,1.19-0.29,1.86-0.29c0.32,0,0.62,0.02,0.9,0.07c0.29,0.05,0.54,0.11,0.78,0.18
			c0.23,0.07,0.43,0.15,0.6,0.24c0.16,0.09,0.28,0.16,0.34,0.22s0.11,0.12,0.14,0.19C490.4,395.42,490.42,395.5,490.42,395.61z"/>
		<path class="st1" d="M498.62,406.66c-0.03,0.13-0.13,0.23-0.3,0.29s-0.45,0.09-0.84,0.09c-0.2,0-0.36-0.01-0.48-0.02
			c-0.12-0.01-0.22-0.03-0.3-0.06c-0.08-0.03-0.13-0.07-0.15-0.11c-0.02-0.05-0.03-0.11-0.01-0.18l0.27-1.36
			c-0.1,0.2-0.25,0.42-0.46,0.64c-0.21,0.22-0.46,0.43-0.74,0.61c-0.29,0.18-0.6,0.34-0.95,0.46c-0.35,0.12-0.7,0.18-1.07,0.18
			c-0.51,0-0.93-0.09-1.27-0.26c-0.34-0.18-0.61-0.42-0.81-0.72c-0.2-0.3-0.35-0.64-0.43-1.03c-0.09-0.39-0.13-0.79-0.13-1.22
			c0-0.4,0.04-0.84,0.11-1.31c0.08-0.47,0.19-0.94,0.35-1.41c0.16-0.47,0.36-0.92,0.61-1.35c0.25-0.43,0.54-0.82,0.89-1.16
			c0.35-0.34,0.74-0.6,1.19-0.8c0.45-0.2,0.95-0.3,1.52-0.3c0.53,0,0.99,0.11,1.4,0.33c0.41,0.22,0.76,0.54,1.06,0.96l0.15-0.75
			c0.03-0.13,0.13-0.23,0.3-0.29s0.45-0.09,0.84-0.09c0.19,0,0.35,0.01,0.47,0.03c0.13,0.02,0.23,0.04,0.3,0.07
			c0.07,0.03,0.12,0.07,0.15,0.11c0.03,0.05,0.03,0.1,0.02,0.17L498.62,406.66z M497.44,400.7c-0.22-0.35-0.47-0.61-0.74-0.78
			s-0.58-0.26-0.94-0.26c-0.26,0-0.51,0.06-0.73,0.19c-0.22,0.13-0.42,0.3-0.59,0.51c-0.17,0.21-0.32,0.46-0.45,0.74
			c-0.13,0.28-0.24,0.57-0.32,0.87s-0.15,0.61-0.19,0.91c-0.04,0.31-0.06,0.59-0.06,0.85c0,0.19,0.01,0.37,0.04,0.54
			c0.03,0.17,0.08,0.32,0.16,0.46c0.08,0.13,0.18,0.24,0.3,0.32c0.13,0.08,0.29,0.12,0.48,0.12c0.28,0,0.57-0.08,0.86-0.25
			c0.29-0.17,0.56-0.4,0.82-0.68c0.25-0.29,0.48-0.63,0.67-1.01c0.19-0.38,0.34-0.79,0.42-1.23L497.44,400.7z"/>
		<path class="st1" d="M508.9,406.66c-0.03,0.13-0.13,0.23-0.3,0.29s-0.45,0.09-0.84,0.09c-0.2,0-0.36-0.01-0.48-0.02
			c-0.12-0.01-0.22-0.03-0.3-0.06c-0.08-0.03-0.13-0.07-0.15-0.11c-0.02-0.05-0.03-0.11-0.01-0.18l0.27-1.36
			c-0.1,0.2-0.25,0.42-0.46,0.64c-0.21,0.22-0.46,0.43-0.74,0.61c-0.29,0.18-0.6,0.34-0.95,0.46c-0.35,0.12-0.7,0.18-1.07,0.18
			c-0.51,0-0.93-0.09-1.27-0.26c-0.34-0.18-0.61-0.42-0.81-0.72c-0.2-0.3-0.35-0.64-0.43-1.03c-0.09-0.39-0.13-0.79-0.13-1.22
			c0-0.4,0.04-0.84,0.11-1.31c0.08-0.47,0.19-0.94,0.35-1.41c0.16-0.47,0.36-0.92,0.61-1.35c0.25-0.43,0.54-0.82,0.89-1.16
			c0.35-0.34,0.74-0.6,1.19-0.8c0.45-0.2,0.95-0.3,1.52-0.3c0.53,0,0.99,0.11,1.4,0.33c0.41,0.22,0.76,0.54,1.06,0.96l0.15-0.75
			c0.03-0.13,0.13-0.23,0.3-0.29s0.45-0.09,0.84-0.09c0.19,0,0.35,0.01,0.47,0.03c0.13,0.02,0.23,0.04,0.3,0.07
			c0.07,0.03,0.12,0.07,0.15,0.11c0.03,0.05,0.03,0.1,0.02,0.17L508.9,406.66z M507.72,400.7c-0.22-0.35-0.47-0.61-0.74-0.78
			c-0.27-0.17-0.58-0.26-0.94-0.26c-0.26,0-0.51,0.06-0.73,0.19c-0.22,0.13-0.42,0.3-0.59,0.51c-0.17,0.21-0.32,0.46-0.45,0.74
			c-0.13,0.28-0.24,0.57-0.32,0.87s-0.15,0.61-0.19,0.91c-0.04,0.31-0.06,0.59-0.06,0.85c0,0.19,0.01,0.37,0.04,0.54
			c0.03,0.17,0.08,0.32,0.16,0.46c0.08,0.13,0.18,0.24,0.3,0.32c0.13,0.08,0.29,0.12,0.48,0.12c0.28,0,0.57-0.08,0.86-0.25
			c0.29-0.17,0.56-0.4,0.82-0.68c0.25-0.29,0.48-0.63,0.67-1.01c0.19-0.38,0.34-0.79,0.42-1.23L507.72,400.7z"/>
		<path class="st1" d="M517.97,398.25c0,0.06-0.01,0.14-0.02,0.24c-0.01,0.1-0.03,0.2-0.05,0.32c-0.02,0.11-0.05,0.23-0.09,0.34
			s-0.08,0.22-0.13,0.31c-0.05,0.09-0.1,0.17-0.16,0.23c-0.06,0.06-0.13,0.09-0.19,0.09h-1.85l-0.8,3.99
			c-0.02,0.09-0.04,0.21-0.05,0.34c-0.02,0.13-0.02,0.24-0.02,0.32c0,0.25,0.06,0.44,0.18,0.56s0.31,0.18,0.57,0.18
			c0.15,0,0.28-0.01,0.39-0.03c0.11-0.02,0.2-0.05,0.28-0.08s0.15-0.06,0.2-0.08c0.06-0.02,0.11-0.03,0.16-0.03
			c0.05,0,0.09,0.02,0.13,0.07c0.04,0.05,0.05,0.13,0.05,0.23c0,0.12-0.01,0.26-0.04,0.41c-0.03,0.15-0.06,0.3-0.1,0.44
			c-0.04,0.14-0.09,0.27-0.14,0.39c-0.05,0.12-0.11,0.2-0.16,0.26c-0.06,0.06-0.14,0.11-0.26,0.16c-0.11,0.05-0.25,0.1-0.4,0.13
			c-0.16,0.04-0.32,0.07-0.5,0.09c-0.18,0.02-0.35,0.03-0.53,0.03c-0.38,0-0.72-0.04-1-0.12c-0.29-0.08-0.53-0.2-0.73-0.38
			c-0.2-0.17-0.35-0.39-0.44-0.66c-0.1-0.27-0.15-0.59-0.15-0.97c0-0.07,0-0.15,0.01-0.24c0.01-0.09,0.02-0.19,0.03-0.29
			c0.02-0.1,0.03-0.2,0.05-0.31c0.02-0.11,0.03-0.2,0.05-0.28l0.83-4.14h-1.03c-0.08,0-0.14-0.03-0.18-0.08
			c-0.04-0.05-0.06-0.16-0.06-0.31c0-0.11,0.01-0.25,0.03-0.42c0.02-0.17,0.06-0.35,0.11-0.51c0.05-0.17,0.12-0.31,0.2-0.43
			s0.18-0.18,0.3-0.18h1.02l0.38-1.89c0.01-0.06,0.04-0.12,0.09-0.17c0.05-0.05,0.12-0.09,0.22-0.13s0.22-0.06,0.38-0.08
			c0.16-0.02,0.35-0.02,0.59-0.02c0.23,0,0.42,0.01,0.57,0.02c0.15,0.02,0.27,0.04,0.35,0.08s0.14,0.08,0.17,0.13
			c0.03,0.05,0.04,0.11,0.02,0.17l-0.38,1.89h1.84c0.11,0,0.18,0.04,0.22,0.11C517.95,398.01,517.97,398.12,517.97,398.25z"/>
		<path class="st1" d="M520.44,406.65c-0.01,0.06-0.04,0.12-0.09,0.17c-0.05,0.05-0.12,0.09-0.21,0.12s-0.22,0.06-0.38,0.07
			c-0.16,0.02-0.35,0.02-0.58,0.02c-0.24,0-0.44-0.01-0.59-0.02c-0.15-0.02-0.26-0.04-0.35-0.07s-0.14-0.07-0.17-0.12
			c-0.03-0.05-0.04-0.1-0.02-0.17l2.5-12.51c0.01-0.06,0.04-0.12,0.09-0.17c0.05-0.05,0.12-0.09,0.22-0.13
			c0.1-0.04,0.23-0.06,0.39-0.08c0.15-0.02,0.35-0.03,0.58-0.03c0.23,0,0.43,0.01,0.58,0.03c0.15,0.02,0.26,0.05,0.35,0.08
			c0.08,0.03,0.14,0.08,0.16,0.13s0.03,0.11,0.02,0.17L520.44,406.65z"/>
		<path class="st1" d="M525.22,406.65c-0.01,0.06-0.04,0.12-0.09,0.17c-0.05,0.05-0.12,0.09-0.22,0.12
			c-0.1,0.03-0.23,0.06-0.39,0.07c-0.16,0.02-0.35,0.02-0.58,0.02c-0.23,0-0.43-0.01-0.58-0.02c-0.15-0.02-0.27-0.04-0.35-0.07
			s-0.14-0.07-0.17-0.12c-0.03-0.05-0.03-0.1-0.02-0.17l1.69-8.48c0.01-0.06,0.04-0.12,0.09-0.17c0.05-0.05,0.12-0.09,0.22-0.12
			c0.1-0.03,0.22-0.06,0.38-0.07c0.15-0.02,0.35-0.03,0.58-0.03s0.43,0.01,0.58,0.03c0.15,0.02,0.27,0.04,0.35,0.07
			s0.14,0.07,0.17,0.12c0.03,0.05,0.03,0.1,0.02,0.17L525.22,406.65z"/>
	</g>
	<g>
		<path class="st1" d="M500.97,250.96c0,0.05-0.01,0.12-0.02,0.22c-0.01,0.1-0.02,0.2-0.04,0.31c-0.02,0.11-0.04,0.23-0.07,0.35
			s-0.06,0.22-0.1,0.32c-0.04,0.1-0.09,0.18-0.14,0.24c-0.05,0.06-0.11,0.09-0.16,0.09c-0.09,0-0.2-0.04-0.33-0.12
			c-0.13-0.08-0.3-0.16-0.49-0.26c-0.19-0.09-0.42-0.18-0.68-0.26c-0.26-0.08-0.55-0.12-0.88-0.12c-0.34,0-0.63,0.05-0.87,0.14
			c-0.24,0.1-0.43,0.22-0.59,0.38c-0.15,0.16-0.26,0.33-0.34,0.52c-0.07,0.19-0.11,0.39-0.11,0.59c0,0.23,0.06,0.43,0.17,0.6
			s0.26,0.34,0.46,0.49c0.19,0.15,0.41,0.29,0.65,0.43c0.24,0.14,0.49,0.29,0.74,0.44c0.25,0.15,0.5,0.32,0.74,0.5
			c0.24,0.18,0.46,0.39,0.65,0.63c0.19,0.24,0.34,0.51,0.46,0.82c0.11,0.31,0.17,0.66,0.17,1.06c0,0.6-0.12,1.15-0.36,1.66
			c-0.24,0.51-0.58,0.95-1.02,1.33c-0.44,0.38-0.97,0.67-1.6,0.89c-0.63,0.21-1.32,0.32-2.08,0.32c-0.41,0-0.79-0.03-1.14-0.1
			c-0.35-0.07-0.66-0.15-0.93-0.24c-0.27-0.09-0.5-0.19-0.68-0.3c-0.18-0.11-0.32-0.2-0.41-0.3c-0.09-0.1-0.13-0.24-0.13-0.43
			c0-0.05,0.01-0.13,0.02-0.23c0.01-0.1,0.03-0.21,0.05-0.33s0.05-0.24,0.08-0.36c0.03-0.12,0.07-0.23,0.11-0.34
			c0.05-0.1,0.09-0.18,0.15-0.25c0.05-0.06,0.11-0.1,0.18-0.1c0.11,0,0.24,0.05,0.39,0.15c0.15,0.1,0.33,0.21,0.55,0.32
			c0.22,0.12,0.49,0.23,0.79,0.33c0.31,0.1,0.67,0.15,1.09,0.15c0.37,0,0.7-0.05,0.98-0.14c0.28-0.1,0.52-0.22,0.71-0.39
			c0.19-0.16,0.33-0.36,0.43-0.58c0.1-0.22,0.15-0.46,0.15-0.72c0-0.23-0.06-0.44-0.17-0.62c-0.11-0.18-0.26-0.34-0.45-0.49
			c-0.19-0.15-0.4-0.29-0.64-0.42c-0.24-0.13-0.48-0.27-0.73-0.43c-0.25-0.15-0.49-0.32-0.73-0.49c-0.24-0.18-0.45-0.39-0.64-0.62
			c-0.19-0.24-0.34-0.51-0.45-0.82s-0.17-0.67-0.17-1.08c0-0.57,0.11-1.1,0.34-1.58c0.23-0.48,0.54-0.9,0.95-1.24
			c0.4-0.35,0.89-0.62,1.45-0.81c0.57-0.19,1.19-0.29,1.86-0.29c0.32,0,0.62,0.02,0.9,0.07c0.29,0.05,0.54,0.11,0.78,0.18
			s0.43,0.15,0.6,0.24s0.28,0.16,0.34,0.22c0.06,0.06,0.11,0.12,0.14,0.19C500.96,250.77,500.97,250.85,500.97,250.96z"/>
		<path class="st1" d="M509.17,262.01c-0.03,0.13-0.13,0.23-0.3,0.29s-0.45,0.09-0.84,0.09c-0.2,0-0.36-0.01-0.48-0.02
			c-0.12-0.01-0.22-0.03-0.3-0.06c-0.08-0.03-0.13-0.07-0.15-0.11c-0.02-0.05-0.03-0.11-0.01-0.18l0.27-1.36
			c-0.1,0.2-0.25,0.42-0.46,0.64c-0.21,0.22-0.46,0.43-0.74,0.61c-0.29,0.18-0.6,0.34-0.95,0.46c-0.35,0.12-0.7,0.18-1.07,0.18
			c-0.51,0-0.93-0.09-1.27-0.26c-0.34-0.18-0.61-0.42-0.81-0.72c-0.2-0.3-0.35-0.64-0.43-1.03c-0.09-0.39-0.13-0.79-0.13-1.22
			c0-0.4,0.04-0.84,0.11-1.31c0.08-0.47,0.19-0.94,0.35-1.41c0.16-0.47,0.36-0.92,0.61-1.35c0.25-0.43,0.54-0.82,0.89-1.16
			c0.35-0.34,0.74-0.6,1.19-0.8c0.45-0.2,0.95-0.3,1.52-0.3c0.53,0,0.99,0.11,1.4,0.33c0.41,0.22,0.76,0.54,1.06,0.96l0.15-0.75
			c0.03-0.13,0.13-0.23,0.3-0.29s0.45-0.09,0.84-0.09c0.19,0,0.35,0.01,0.47,0.03c0.13,0.02,0.23,0.04,0.3,0.07
			c0.07,0.03,0.12,0.07,0.15,0.11c0.03,0.05,0.03,0.1,0.02,0.17L509.17,262.01z M507.99,256.05c-0.22-0.35-0.47-0.61-0.74-0.78
			c-0.27-0.17-0.58-0.26-0.94-0.26c-0.26,0-0.51,0.06-0.73,0.19c-0.22,0.13-0.42,0.3-0.59,0.51c-0.17,0.21-0.32,0.46-0.45,0.74
			c-0.13,0.28-0.24,0.57-0.32,0.87s-0.15,0.61-0.19,0.91c-0.04,0.31-0.06,0.59-0.06,0.85c0,0.19,0.01,0.37,0.04,0.54
			c0.03,0.17,0.08,0.32,0.16,0.46c0.08,0.13,0.18,0.24,0.3,0.32c0.13,0.08,0.29,0.12,0.48,0.12c0.28,0,0.57-0.08,0.86-0.25
			c0.29-0.17,0.56-0.4,0.82-0.68c0.25-0.29,0.48-0.63,0.67-1.01c0.19-0.38,0.34-0.79,0.42-1.23L507.99,256.05z"/>
		<path class="st1" d="M520.93,256.2c0,0.42-0.04,0.87-0.11,1.34c-0.08,0.47-0.19,0.95-0.35,1.42c-0.16,0.47-0.36,0.92-0.61,1.35
			c-0.25,0.43-0.55,0.81-0.89,1.14c-0.35,0.33-0.75,0.59-1.19,0.79c-0.45,0.2-0.95,0.29-1.5,0.29c-0.53,0-1-0.1-1.41-0.31
			c-0.41-0.21-0.76-0.53-1.06-0.95l-0.14,0.72c-0.03,0.13-0.13,0.23-0.3,0.29s-0.45,0.09-0.84,0.09c-0.38,0-0.64-0.03-0.77-0.1
			c-0.14-0.06-0.19-0.16-0.17-0.29l2.5-12.51c0.01-0.06,0.04-0.12,0.09-0.17c0.05-0.05,0.12-0.09,0.22-0.13
			c0.1-0.04,0.23-0.06,0.39-0.08c0.15-0.02,0.35-0.03,0.58-0.03c0.23,0,0.43,0.01,0.57,0.03c0.15,0.02,0.26,0.05,0.35,0.08
			c0.09,0.03,0.14,0.08,0.17,0.13c0.03,0.05,0.03,0.11,0.02,0.17l-0.67,3.41c-0.03,0.15-0.07,0.3-0.11,0.46
			c-0.04,0.16-0.08,0.32-0.13,0.48c-0.05,0.16-0.1,0.31-0.14,0.46c-0.05,0.15-0.09,0.28-0.14,0.39c0.11-0.2,0.28-0.41,0.49-0.61
			c0.21-0.21,0.46-0.39,0.73-0.56c0.27-0.16,0.57-0.3,0.88-0.4c0.31-0.1,0.63-0.15,0.95-0.15c0.36,0,0.68,0.05,0.94,0.14
			c0.27,0.09,0.5,0.22,0.69,0.38c0.2,0.16,0.36,0.35,0.48,0.56c0.13,0.21,0.23,0.44,0.3,0.68c0.08,0.24,0.13,0.48,0.16,0.74
			C520.92,255.72,520.93,255.96,520.93,256.2z M518.47,256.44c0-0.16-0.01-0.32-0.03-0.49s-0.07-0.33-0.14-0.47
			c-0.07-0.14-0.17-0.25-0.3-0.34c-0.13-0.09-0.3-0.13-0.5-0.13c-0.29,0-0.57,0.08-0.86,0.25c-0.29,0.17-0.56,0.4-0.81,0.69
			c-0.25,0.29-0.48,0.63-0.67,1.02c-0.2,0.39-0.34,0.8-0.42,1.24l-0.27,1.28c0.22,0.35,0.47,0.61,0.74,0.77
			c0.27,0.17,0.58,0.25,0.94,0.25c0.25,0,0.49-0.06,0.7-0.18c0.22-0.12,0.41-0.29,0.59-0.49s0.33-0.44,0.46-0.71
			c0.13-0.27,0.24-0.56,0.33-0.86c0.09-0.3,0.15-0.61,0.2-0.92C518.45,257.04,518.47,256.73,518.47,256.44z"/>
		<path class="st1" d="M524.24,262c-0.01,0.06-0.04,0.12-0.09,0.17c-0.05,0.05-0.12,0.09-0.22,0.12c-0.1,0.03-0.23,0.06-0.39,0.07
			c-0.16,0.02-0.35,0.02-0.58,0.02c-0.23,0-0.43-0.01-0.58-0.02c-0.15-0.02-0.27-0.04-0.35-0.07c-0.09-0.03-0.14-0.07-0.17-0.12
			c-0.03-0.05-0.03-0.1-0.02-0.17l1.68-8.46c0.01-0.06,0.04-0.12,0.09-0.17c0.05-0.05,0.12-0.09,0.22-0.12
			c0.1-0.04,0.22-0.06,0.38-0.08c0.15-0.02,0.35-0.03,0.59-0.03s0.43,0.01,0.58,0.03c0.15,0.02,0.27,0.05,0.35,0.08
			c0.09,0.03,0.14,0.08,0.17,0.12c0.03,0.05,0.03,0.1,0.02,0.17L524.24,262z M526.7,250.66c-0.05,0.23-0.11,0.43-0.18,0.59
			c-0.08,0.16-0.18,0.29-0.31,0.39c-0.13,0.1-0.28,0.17-0.47,0.21c-0.18,0.04-0.41,0.06-0.68,0.06c-0.27,0-0.48-0.02-0.65-0.06
			c-0.17-0.04-0.3-0.11-0.38-0.21c-0.09-0.1-0.14-0.23-0.15-0.39c-0.01-0.16,0.01-0.36,0.06-0.59c0.04-0.23,0.1-0.42,0.18-0.58
			c0.08-0.16,0.18-0.29,0.3-0.39c0.13-0.1,0.28-0.17,0.47-0.22c0.18-0.05,0.41-0.07,0.68-0.07c0.27,0,0.48,0.02,0.65,0.07
			c0.17,0.04,0.3,0.12,0.38,0.22c0.09,0.1,0.13,0.23,0.14,0.39C526.76,250.24,526.74,250.43,526.7,250.66z"/>
		<path class="st1" d="M533.68,253.38c0,0.04-0.01,0.12-0.02,0.24c-0.01,0.11-0.03,0.25-0.06,0.4s-0.06,0.31-0.09,0.47
			c-0.04,0.16-0.08,0.31-0.13,0.45c-0.05,0.14-0.1,0.25-0.16,0.34s-0.13,0.13-0.2,0.13c-0.06,0-0.11-0.01-0.17-0.03
			c-0.06-0.02-0.12-0.05-0.19-0.07c-0.07-0.02-0.15-0.04-0.23-0.07c-0.08-0.02-0.18-0.03-0.29-0.03c-0.22,0-0.45,0.08-0.69,0.25
			c-0.24,0.16-0.48,0.38-0.7,0.65c-0.22,0.27-0.42,0.58-0.6,0.94c-0.17,0.36-0.3,0.73-0.38,1.13l-0.76,3.81
			c-0.01,0.06-0.04,0.12-0.09,0.17c-0.05,0.05-0.12,0.09-0.22,0.12c-0.1,0.03-0.23,0.06-0.39,0.07c-0.16,0.02-0.35,0.02-0.58,0.02
			c-0.23,0-0.43-0.01-0.58-0.02c-0.15-0.02-0.27-0.04-0.35-0.07c-0.09-0.03-0.14-0.07-0.17-0.12c-0.03-0.05-0.03-0.1-0.02-0.17
			l1.69-8.49c0.01-0.06,0.04-0.12,0.09-0.17c0.05-0.05,0.11-0.09,0.2-0.11s0.2-0.05,0.33-0.07c0.14-0.02,0.3-0.03,0.49-0.03
			c0.2,0,0.36,0.01,0.48,0.03c0.12,0.02,0.22,0.04,0.29,0.07c0.07,0.03,0.12,0.07,0.14,0.11c0.02,0.05,0.03,0.1,0.01,0.17
			l-0.26,1.35c0.15-0.27,0.33-0.52,0.53-0.75c0.2-0.23,0.41-0.43,0.64-0.6c0.23-0.17,0.46-0.3,0.7-0.39s0.48-0.14,0.71-0.14
			c0.09,0,0.19,0.01,0.29,0.02c0.1,0.01,0.19,0.03,0.27,0.05c0.09,0.02,0.16,0.04,0.23,0.07s0.12,0.06,0.16,0.09
			C533.66,253.24,533.68,253.3,533.68,253.38z"/>
		<path class="st1" d="M541.37,262.01c-0.03,0.13-0.13,0.23-0.3,0.29s-0.45,0.09-0.84,0.09c-0.2,0-0.36-0.01-0.48-0.02
			c-0.12-0.01-0.22-0.03-0.3-0.06c-0.08-0.03-0.13-0.07-0.15-0.11c-0.02-0.05-0.03-0.11-0.01-0.18l0.27-1.36
			c-0.1,0.2-0.25,0.42-0.46,0.64c-0.21,0.22-0.46,0.43-0.74,0.61c-0.29,0.18-0.6,0.34-0.95,0.46c-0.35,0.12-0.7,0.18-1.07,0.18
			c-0.51,0-0.93-0.09-1.27-0.26c-0.34-0.18-0.61-0.42-0.81-0.72c-0.2-0.3-0.35-0.64-0.43-1.03c-0.09-0.39-0.13-0.79-0.13-1.22
			c0-0.4,0.04-0.84,0.11-1.31c0.08-0.47,0.19-0.94,0.35-1.41c0.16-0.47,0.36-0.92,0.61-1.35c0.25-0.43,0.54-0.82,0.89-1.16
			c0.35-0.34,0.74-0.6,1.19-0.8c0.45-0.2,0.95-0.3,1.52-0.3c0.53,0,0.99,0.11,1.4,0.33c0.41,0.22,0.76,0.54,1.06,0.96l0.15-0.75
			c0.03-0.13,0.13-0.23,0.3-0.29s0.45-0.09,0.84-0.09c0.19,0,0.35,0.01,0.47,0.03c0.13,0.02,0.23,0.04,0.3,0.07
			c0.07,0.03,0.12,0.07,0.15,0.11c0.03,0.05,0.03,0.1,0.02,0.17L541.37,262.01z M540.19,256.05c-0.22-0.35-0.47-0.61-0.74-0.78
			c-0.27-0.17-0.58-0.26-0.94-0.26c-0.26,0-0.51,0.06-0.73,0.19c-0.22,0.13-0.42,0.3-0.59,0.51c-0.17,0.21-0.32,0.46-0.45,0.74
			c-0.13,0.28-0.24,0.57-0.32,0.87s-0.15,0.61-0.19,0.91c-0.04,0.31-0.06,0.59-0.06,0.85c0,0.19,0.01,0.37,0.04,0.54
			c0.03,0.17,0.08,0.32,0.16,0.46c0.08,0.13,0.18,0.24,0.3,0.32c0.13,0.08,0.29,0.12,0.48,0.12c0.28,0,0.57-0.08,0.86-0.25
			c0.29-0.17,0.56-0.4,0.82-0.68c0.25-0.29,0.48-0.63,0.67-1.01c0.19-0.38,0.34-0.79,0.42-1.23L540.19,256.05z"/>
		<path class="st1" d="M553.13,256.2c0,0.42-0.04,0.87-0.11,1.34c-0.08,0.47-0.19,0.95-0.35,1.42c-0.16,0.47-0.36,0.92-0.61,1.35
			c-0.25,0.43-0.55,0.81-0.89,1.14c-0.35,0.33-0.75,0.59-1.19,0.79c-0.45,0.2-0.95,0.29-1.5,0.29c-0.53,0-1-0.1-1.41-0.31
			c-0.41-0.21-0.76-0.53-1.06-0.95l-0.14,0.72c-0.03,0.13-0.13,0.23-0.3,0.29s-0.45,0.09-0.84,0.09c-0.38,0-0.64-0.03-0.77-0.1
			c-0.14-0.06-0.19-0.16-0.17-0.29l2.5-12.51c0.01-0.06,0.04-0.12,0.09-0.17c0.05-0.05,0.12-0.09,0.22-0.13
			c0.1-0.04,0.23-0.06,0.39-0.08c0.15-0.02,0.35-0.03,0.58-0.03c0.23,0,0.43,0.01,0.57,0.03c0.15,0.02,0.26,0.05,0.35,0.08
			c0.09,0.03,0.14,0.08,0.17,0.13c0.03,0.05,0.03,0.11,0.02,0.17l-0.67,3.41c-0.03,0.15-0.07,0.3-0.11,0.46
			c-0.04,0.16-0.08,0.32-0.13,0.48c-0.05,0.16-0.1,0.31-0.14,0.46c-0.05,0.15-0.09,0.28-0.14,0.39c0.11-0.2,0.28-0.41,0.49-0.61
			c0.21-0.21,0.46-0.39,0.73-0.56c0.27-0.16,0.57-0.3,0.88-0.4c0.31-0.1,0.63-0.15,0.95-0.15c0.36,0,0.68,0.05,0.94,0.14
			c0.27,0.09,0.5,0.22,0.69,0.38c0.2,0.16,0.36,0.35,0.48,0.56c0.13,0.21,0.23,0.44,0.3,0.68c0.08,0.24,0.13,0.48,0.16,0.74
			C553.12,255.72,553.13,255.96,553.13,256.2z M550.67,256.44c0-0.16-0.01-0.32-0.03-0.49s-0.07-0.33-0.14-0.47
			c-0.07-0.14-0.17-0.25-0.3-0.34c-0.13-0.09-0.3-0.13-0.5-0.13c-0.29,0-0.57,0.08-0.86,0.25c-0.29,0.17-0.56,0.4-0.81,0.69
			c-0.25,0.29-0.48,0.63-0.67,1.02c-0.2,0.39-0.34,0.8-0.42,1.24l-0.27,1.28c0.22,0.35,0.47,0.61,0.74,0.77
			c0.27,0.17,0.58,0.25,0.94,0.25c0.25,0,0.49-0.06,0.7-0.18c0.22-0.12,0.41-0.29,0.59-0.49s0.33-0.44,0.46-0.71
			c0.13-0.27,0.24-0.56,0.33-0.86c0.09-0.3,0.15-0.61,0.2-0.92C550.65,257.04,550.67,256.73,550.67,256.44z"/>
		<path class="st1" d="M561.93,262.01c-0.03,0.13-0.13,0.23-0.3,0.29s-0.45,0.09-0.84,0.09c-0.2,0-0.36-0.01-0.48-0.02
			c-0.12-0.01-0.22-0.03-0.3-0.06c-0.08-0.03-0.13-0.07-0.15-0.11c-0.02-0.05-0.03-0.11-0.01-0.18l0.27-1.36
			c-0.1,0.2-0.25,0.42-0.46,0.64c-0.21,0.22-0.46,0.43-0.74,0.61c-0.29,0.18-0.6,0.34-0.95,0.46c-0.35,0.12-0.7,0.18-1.07,0.18
			c-0.51,0-0.93-0.09-1.27-0.26c-0.34-0.18-0.61-0.42-0.81-0.72c-0.2-0.3-0.35-0.64-0.43-1.03c-0.09-0.39-0.13-0.79-0.13-1.22
			c0-0.4,0.04-0.84,0.11-1.31c0.08-0.47,0.19-0.94,0.35-1.41c0.16-0.47,0.36-0.92,0.61-1.35c0.25-0.43,0.54-0.82,0.89-1.16
			c0.35-0.34,0.74-0.6,1.19-0.8c0.45-0.2,0.95-0.3,1.52-0.3c0.53,0,0.99,0.11,1.4,0.33c0.41,0.22,0.76,0.54,1.06,0.96l0.15-0.75
			c0.03-0.13,0.13-0.23,0.3-0.29s0.45-0.09,0.84-0.09c0.19,0,0.35,0.01,0.47,0.03c0.13,0.02,0.23,0.04,0.3,0.07
			c0.07,0.03,0.12,0.07,0.15,0.11c0.03,0.05,0.03,0.1,0.02,0.17L561.93,262.01z M560.75,256.05c-0.22-0.35-0.47-0.61-0.74-0.78
			c-0.27-0.17-0.58-0.26-0.94-0.26c-0.26,0-0.51,0.06-0.73,0.19c-0.22,0.13-0.42,0.3-0.59,0.51c-0.17,0.21-0.32,0.46-0.45,0.74
			c-0.13,0.28-0.24,0.57-0.32,0.87s-0.15,0.61-0.19,0.91c-0.04,0.31-0.06,0.59-0.06,0.85c0,0.19,0.01,0.37,0.04,0.54
			c0.03,0.17,0.08,0.32,0.16,0.46c0.08,0.13,0.18,0.24,0.3,0.32c0.13,0.08,0.29,0.12,0.48,0.12c0.28,0,0.57-0.08,0.86-0.25
			c0.29-0.17,0.56-0.4,0.82-0.68c0.25-0.29,0.48-0.63,0.67-1.01c0.19-0.38,0.34-0.79,0.42-1.23L560.75,256.05z"/>
		<path class="st1" d="M572.22,262.01c-0.03,0.13-0.13,0.23-0.3,0.29s-0.45,0.09-0.84,0.09c-0.2,0-0.36-0.01-0.48-0.02
			c-0.12-0.01-0.22-0.03-0.3-0.06c-0.08-0.03-0.13-0.07-0.15-0.11c-0.02-0.05-0.03-0.11-0.02-0.18l0.26-1.36
			c-0.1,0.2-0.25,0.42-0.46,0.64c-0.21,0.22-0.46,0.43-0.74,0.62c-0.29,0.19-0.6,0.34-0.95,0.46c-0.35,0.12-0.7,0.17-1.07,0.17
			c-0.36,0-0.68-0.05-0.95-0.14c-0.27-0.09-0.5-0.22-0.69-0.38c-0.19-0.16-0.35-0.35-0.48-0.56c-0.13-0.22-0.23-0.44-0.31-0.69
			c-0.08-0.24-0.13-0.49-0.16-0.75c-0.03-0.26-0.05-0.51-0.05-0.76c0-0.41,0.04-0.85,0.11-1.33c0.08-0.47,0.19-0.94,0.36-1.41
			c0.16-0.47,0.37-0.92,0.61-1.35c0.25-0.43,0.54-0.81,0.89-1.14c0.35-0.33,0.74-0.59,1.19-0.79c0.45-0.2,0.95-0.3,1.51-0.3
			c0.25,0,0.48,0.03,0.71,0.08c0.22,0.05,0.43,0.13,0.62,0.22c0.19,0.09,0.36,0.2,0.51,0.33c0.15,0.13,0.28,0.26,0.39,0.4l0.9-4.48
			c0.01-0.06,0.04-0.12,0.09-0.17c0.05-0.05,0.12-0.09,0.21-0.13c0.1-0.04,0.22-0.06,0.38-0.08c0.15-0.02,0.35-0.03,0.59-0.03
			c0.23,0,0.43,0.01,0.58,0.03c0.15,0.02,0.26,0.05,0.35,0.08c0.08,0.03,0.14,0.08,0.16,0.13c0.03,0.05,0.03,0.11,0.02,0.17
			L572.22,262.01z M571.03,256.06c-0.22-0.35-0.47-0.61-0.74-0.79c-0.27-0.18-0.58-0.26-0.94-0.26c-0.26,0-0.5,0.06-0.72,0.18
			c-0.22,0.12-0.41,0.29-0.59,0.49c-0.17,0.21-0.33,0.45-0.46,0.72c-0.13,0.28-0.24,0.57-0.32,0.87c-0.09,0.31-0.15,0.61-0.2,0.91
			c-0.04,0.3-0.07,0.59-0.07,0.87c0,0.48,0.08,0.85,0.24,1.09c0.16,0.24,0.41,0.37,0.75,0.37c0.28,0,0.57-0.08,0.86-0.25
			c0.29-0.17,0.56-0.39,0.82-0.68c0.25-0.28,0.48-0.61,0.67-1c0.19-0.38,0.34-0.79,0.42-1.23L571.03,256.06z"/>
	</g>
</g>
</svg>
