<?xml version="1.0" encoding="UTF-8"?>
<svg id="Layer_1" data-name="Layer 1" xmlns="http://www.w3.org/2000/svg" viewBox="0 0 500 500">
  <defs>
    <style>
      .cls-1 {
        fill: #0b7b5f;
        stroke: #fff;
        stroke-miterlimit: 10;
      }

      .cls-2 {
        fill: #f9e5af;
      }
    </style>
  </defs>
  <g>
    <path class="cls-1" d="m444.12,229.15c-.62-.93-1-1.87-1.89-2.61-.71-.58-1.43-.75-2.02-1.42-.52-.58-.64-.98-.66-1.75-.04-1.62-.18-3.3-.45-4.91-.23-1.4-.92-2.93-1.83-4.02-.52-.63-.98-.72-1.66-1.11-1.03-.6-1.87-1.64-2.91-2.3-.8-.51-1.86-.62-2.76-.83-1.1-.25-1.9-.62-2.89-1.17-1.62-.9-3.13-1.39-3.87-3.21-.39-.97-1.09-1.55-1.52-2.47-.4-.86-1-1.51-1.53-2.3-.47-.7-.81-1.41-1.58-1.83-.85-.47-1.99-.37-2.92-.44-1.74-.12-2.7-1.68-4.26-2.25-.76-.28-1.41-.7-2.25-.9-1.01-.24-2.07-.42-3.05-.73-.91-.29-1.67-.83-2.63-1-.78-.14-1.66-.07-2.43-.16-1.25-.14-2.47-.34-3.7-.58-.92-.18-1.74-.19-2.65-.42-1.03-.26-1.97-.43-2.97-.81-.98-.36-1.99-.61-2.98-.97-1.16-.42-2.18-1.3-3.13-2.09-1.26-1.04-1.48-2.81-1.64-4.36-.26-2.56.2-5.5.82-8.01.66-2.69.88-5.37,1.88-8,.81-2.12,2.59-3.67,1.54-6.01-.33-.75-.9-1.89-1.5-2.45-.64-.6-1.57-.83-2.24-1.31-.51-.37-.73-.93-1.22-1.36-1.34-1.2-2.71-.56-4.32-.85-1.07-.2-2.3-.92-3.33-1.35-.78-.33-1.55-.89-2.23-1.38-1.16-.84-2.33-2.32-3.06-3.53-.47-.78-.79-2.07-1.73-2.45-1.35-.54-2.81.52-4.05.74-1.48.27-2.59.57-3.8,1.58-1.25,1.05-1.95,2.3-3.73,1.76-1.49-.45-2.86-1.51-4.29-2.12-1.33-.56-2.59-.32-3.93-.66-1.77-.44-3.69-.14-5.51-.49-1.14-.22-2.26-.25-3.39-.45-1.24-.21-2.33-1.07-3.59-1.1-.19,0-1.05.32-1.37.4-.57.14-.9.3-1.52.3-.64,0-1.28.07-1.9-.08-.43-.11-.85-.44-1.23-.58-.68-.26-.41.12-.91-.12-1.31.85-2.64,2.22-3.29,2.66-1.86,1.28-3.99,2.46-6.07,3.35-1.4.6-2.94.77-4.4,1.21-2.92.87-4.93,2.79-5.83,5.68-.52,1.68-1.16,3.17-2.87,3.89-1.36.58-3.18.63-4.64.71-.74.04-1.23.02-1.83.38-.42.26-.68.61-1.01.97-1.95,2.19-4.35,4.09-5.99,6.55-1.16,1.73-1.08,3.44-1.24,5.39-.19,2.32-.3,4.53-.28,6.86.03,2.5.23,5.43-1.21,7.66-.76.03-1.43-.72-2.18-.9-.97-.23-1.78.16-2.7.41-1.83.5-3.45,1.53-5.16,2.38-.78.39-1.4.95-2.08,1.48-.11.09-.23.17-.35.26.02.32.05.65,0,.94-.11.65-.39,1.03-.4,1.71-.04,2.03-.23,4.27,0,6.29.06.56.3.63.41,1.11.13.55-.07.78.26,1.27.14.21.54.62.76.76.71.45.44.03,1.09-.07.49-.08,1,.05,1.49-.06.51-.12,1.08-.5,1.55-.72,1.32-.62,2.38-1.46,3.6-2.2.99-.6,1.94-1.28,2.86-2.02.88-.71,1.69-1.66,2.64-2.27.7-.44,1.61-.56,2.47-.77,1.47-.35,2.74-.96,4.19-1.51,1.73-.67,3.1-1.68,4.59-2.78,1.07-.79,1.81-.83,3.01-.18,1.27.69,2.49,1.05,3.82,1.43,1.07.3,2.33.44,3.34.85.89.35,1.59,1.3,2.26,1.93,1.17,1.1,2.57,1.61,3.64,2.85.52.6,1.25,1.15,1.71,1.77.48.65.68,1.48,1.24,2.14.85,1.01,2.41,2.32,3.52.8,1.33.3.2,1.43-.27,1.98-1.26,1.48-3.12,2.61-4.18,4.27-.91,1.41-.46,3.6-.13,5.13.33,1.57,1.29,3.25,2.26,4.56.63.85,1.41,1.59,2.04,2.45.47.63.84,1.12,1.55,1.46,1.65.79,3.49,1.4,5.19.69,1.4-.58,3.19-.77,4.17-2.04.41-.53.67-1.16.88-1.79.2-.59.38-1.43.8-1.93.94-1.13,3.65-1.53,4.93-2.04.59-.24,1.73-1.06,2.39-.93.23.04,1.57,1.13,1.67,1.19.76.46,1.55.81,2.4,1.05.63.18,1.24.29,1.89.35.75.06,1.73-.16,2.45,0,.71.16,1.29.66,1.95.98.97.46,2.09.7,2.98,1.34,1.58,1.12,2.31,2.92,3.17,4.57.47.9,1.32,2.28,2.27,2.8,1.04.56,2.63.52,3.76.84,2.33.66,4.24,1.9,6.19,3.27,1.05.74,1.32,1.19,1.96,2.21,1.15,1.84,2.72,3.63,4.78,4.49,1.8.75,3.83.84,5.46,1.99,1.61,1.13,2.65,3.34,3.33,5.15,1.93,5.1,1.01,10.94,1.81,16.21.21,1.4-.42,3.29-.77,4.64-.34,1.28-1.25,2.24-1.46,3.56-.51,3.21,2.18,6.59,3.83,9.08.91,1.37,1.64,2.79,2.05,4.4.33,1.3.78,2.97.56,4.3-.19,1.16-.88,2.38-1.31,3.48-.88,2.26-1.91,4.84-3.29,6.83-1.56,2.25-4.62,4.5-6.97,5.88-1.22.72-2.25,1.4-3.34,2.33-1.07.92-2.35,1.97-3.69,2.45-1.08.39-2.23.39-3.34.65-1.52.35-2.71,1.39-4.3,1.51-1.38.11-2.56-.22-3.8-.81-1.51-.72-2.95-2-4.6-2.29-2.54-.45-4.98,1.06-7.26,1.9-1.06.39-2.85.73-3.33,1.93-.58,1.45.4,3.52.67,4.93.12.63.08,1.37.5,1.9.65.84,1.96.99,2.82,1.56,1.24.82,2.31,2.02,2.71,3.5.18-.09.36-.2.9-.1.9.17,2.44-.39,3.25-.73.98-.41,1.72-.43,2.84-.43,1.08,0,2.16.03,3.24,0,1.18-.02,2.07-.83,3.16.09.81.69,1.41,1.62,2.17,2.38.47.47,1.04.74,1.49,1.17.52.5.82,1.18,1.48,1.61,2.12,1.38,4.92,1.09,7.38,1.59,1.78.36,3.3.5,4.69,1.72.73.64,1.51,1.56,2,2.38.46.78.72,1.23,1.55,1.65.51.26.56.29,1.18.33.9.06,1.75.36,2.65.39,1.11.04,2.24-.1,3.25.18.46.12.84.1,1.35.18.52.08.97.42,1.5.59,1.06.34,2.32.71,3.14,1.43.74.64,1.29,1.37,1.81,2.19.58.91.38.67.72,1.31.25-.08.51-.15.79-.17,1.7-.11,3.2-.68,4.76,0,.97.43,2.07.54,3.13.68,1.62.21,4,.39,5.63.11.69-.12,1.16-.38,1.9-.4,1.24-.03,2.49,0,3.73-.01,2.73-.03,5.29.55,7.66,1.91.88.51,1.62,1.17,2.33,1.89.5.51.99.97,1.53,1.43.25.21.94,1.04,1.18,1.11.67.2.31.19.81-.31.17-.18.58-.92.69-1.09.48-.75.67-1.4.75-2.27.1-1.01.36-1.94.39-2.98.02-.91-.27-1.52-.41-2.39-.33-2.17.28-4.8,1.65-6.45,1.25-1.5,2.65-1.43,4.48-1.87,2.3-.56,4.43-1.35,5.9-3.29.51-.67.8-1.45,1.32-2.14.41-.56.88-1.22,1.06-1.9.26-.96.28-2.84.01-3.81-.19-.7-.7-1.28-.89-2.01-.16-.61-.16-1.16-.27-1.79-.22-1.19-.4-2.17-.21-3.41.2-1.3.31-2.5.29-3.82-.02-1.28.34-2.38.41-3.63.05-.85-.04-1.71-.02-2.57.02-1.25,1.04-2.61,1.61-3.72.87-1.67,1.94-3.16,2.66-4.93.47-1.15,1.19-2.15,1.55-3.34.3-.99.26-1.84.27-2.87,0-1.23-.37-2.52-.76-3.69-.53-1.59-1.35-2.28-2.95-2.67-1.29-.32-3.04-.55-3.92-1.65-1.06-1.33-1.75-3.19-3.02-4.37-.98-.91-2.55-1.52-3.37-2.62-.29-.39-.59-1.1-.84-1.55-.21-.37-.39-.4-.42-.83-.06-.88.94-1.61,1.42-2.23,1.34-1.72,2.95-2.82,4.63-4.15.86-.68,1.6-1.52,2.38-2.29.44-.44,1.23-.94,1.47-1.52.52-1.33-.41-3.03-1.08-4.09-1.17-1.87-2.34-3.85-4.56-4.37-.6-.14-1.25-.2-1.84-.37-.27-.08-.65-.47-.92-.58-2.21-.89-4.64-2.23-6.38-3.89-.54-.51-1.02-1.1-1.51-1.61-.36-.38-.78-.69-1.07-1.15-.43-.69-.94-1.69-.76-2.47.41-1.78,1.22-4.21,2.81-5.39,1.6-1.19,3.65-2.07,5.1-3.55.59-.61,1.19-1.2,1.78-1.79-.58-.47-1.23-.87-1.78-1.46-1.03-1.1-1.46-2.37-2.28-3.58Z"/>
    <path class="cls-1" d="m354.87,323.64c-.86-.57-2.17-.72-2.82-1.56-.42-.54-.37-1.28-.5-1.9-.28-1.4-1.25-3.48-.67-4.93.48-1.2,2.27-1.54,3.33-1.93,2.29-.84,4.73-2.35,7.26-1.9,1.64.29,3.09,1.57,4.6,2.29,1.24.59,2.43.92,3.8.81,1.59-.12,2.78-1.16,4.3-1.51,1.11-.26,2.26-.27,3.34-.65,1.34-.48,2.62-1.53,3.69-2.45,1.08-.93,2.11-1.61,3.34-2.33,2.35-1.38,5.41-3.63,6.97-5.88,1.38-2,2.41-4.57,3.29-6.83.43-1.1,1.12-2.32,1.31-3.48.22-1.33-.23-3-.56-4.3-.41-1.61-1.14-3.02-2.05-4.4-1.65-2.49-4.34-5.87-3.83-9.08.21-1.32,1.13-2.28,1.46-3.56.35-1.35.98-3.24.77-4.64-.8-5.27.12-11.11-1.81-16.21-.68-1.81-1.73-4.01-3.33-5.15-1.63-1.15-3.65-1.23-5.46-1.99-2.06-.86-3.62-2.65-4.78-4.49-.64-1.02-.9-1.46-1.96-2.21-1.95-1.38-3.86-2.61-6.19-3.27-1.14-.32-2.73-.28-3.76-.84-.95-.51-1.8-1.89-2.27-2.8-.86-1.64-1.59-3.44-3.17-4.57-.89-.63-2.01-.88-2.98-1.34-.66-.31-1.25-.81-1.95-.98-.71-.16-1.7.06-2.45,0-.65-.05-1.26-.17-1.89-.35-.86-.24-1.64-.6-2.4-1.05-.1-.06-1.44-1.14-1.67-1.19-.66-.13-1.8.7-2.39.93-1.28.51-3.99.92-4.93,2.04-.42.5-.6,1.34-.8,1.93-.21.63-.47,1.25-.88,1.79-.98,1.28-2.77,1.47-4.17,2.04-1.71.71-3.54.1-5.19-.69-.71-.34-1.08-.83-1.55-1.46-.64-.85-1.41-1.6-2.04-2.45-.98-1.31-1.93-2.99-2.26-4.56-.33-1.53-.78-3.71.13-5.13,1.06-1.65,2.92-2.78,4.18-4.27.47-.55,1.6-1.68.27-1.98-1.11,1.52-2.67.2-3.52-.8-.56-.66-.76-1.49-1.24-2.14-.46-.62-1.19-1.17-1.71-1.77-1.08-1.24-2.48-1.75-3.64-2.85-.68-.64-1.37-1.58-2.26-1.93-1.02-.4-2.27-.54-3.34-.85-1.34-.38-2.56-.73-3.82-1.43-1.19-.65-1.93-.61-3.01.18-1.48,1.09-2.85,2.11-4.59,2.78-1.45.56-2.72,1.16-4.19,1.51-.86.21-1.78.33-2.47.77-.96.6-1.76,1.55-2.64,2.27-.91.74-1.87,1.42-2.86,2.02-1.22.74-2.29,1.58-3.6,2.2-.48.22-1.04.6-1.55.72-.49.11-1-.02-1.49.06-.64.1-.38.52-1.09.07-.22-.14-.62-.55-.76-.76-.32-.48-.13-.72-.26-1.27-.11-.48-.35-.55-.41-1.11-.23-2.01-.04-4.26,0-6.29.01-.69.29-1.07.4-1.71.05-.29.03-.62,0-.94-1.55,1.17-3.2,2.19-4.73,3.39-2.47,1.93-4.28,3.3-5.33,6.35-.53-.52.73-3.41.9-4.02.49-1.78,1.05-3.8,1.16-5.7-1.16.85-.61.09-2.31,1.68-.66.61-1.32,1.19-1.97,1.79-.83.77-1.44,1.22-1.91,2.28-.54,1.19-.83,2.28-1.13,3.54-.16.67-.43,1.37-.75,1.99-.25.48-.84.97-1.01,1.44-.34.91-.28,3.07.4,3.83.3.33.71.42,1.06.7.48.38,1.04,1.17,1.44,1.64,1.46,1.7,2.35,3.81,3.44,5.74,1.87,3.3,2.14,7.33.84,10.85-1.42,3.84-2.46,7.77-4.18,11.5-1.03,2.23-2.24,4.17-3.72,6.11-.74.97-1.83,1.83-2.33,2.95-.24.54-.29,1.13-.43,1.7-.86,3.47-.38,7.31.02,10.82.23,2.01,1.15,4.73,2.62,6.24,1.17,1.2,2.9,1.71,4.42,2.26,1.73.63,3.55,1.4,4.83,2.74,1.07,1.11,2.29,2.71,3.71,3.39,2.43,1.17,5.43.62,8.01.7,2.18.06,4.04.58,5.8,1.9.97.73,1.78,1.58,2.66,2.42.62.59,1.41,1.03,2,1.63.74.74.81,1.32.93,2.31.19,1.57.68,3.17.33,4.75-.18.82-.78,1.68-1.08,2.47-.51,1.35-.99,2.68-1.54,4.02-1.95,4.73-1.94,9.87-2.25,14.89-.07,1.17-.5,2.21-.43,3.41.04.78.25,1.53.41,2.28.21,1,.33,2.51,1.11,3.25.77.72,2.17,1.09,3.09,1.59,1.52.83,2.58,2.06,4.27,2.69,1.43.54,3.02.86,4.02,2.08.79-.88,1.35-2,1.97-2.99,1.02-1.61,2.32-3.08,3.81-4.26,2.09-1.67,4-2.71,6.46-3.7,1.78-.72,3.31-1.73,5.29-1.37,2.08.38,3.6,2.3,4.88,3.85,1.43,1.73,2.83,3.63,2.77,6-.05,2.05,1.52,3.93,2.67,5.5,3.33,4.52,8.76,8.57,14.36,9.64,3.86.74,4.68-2.85,6.64-5.17,1.73-2.05,4.23-3.21,6.18-5.01,1.26-1.16,2.42-2.9,2.01-4.69-.01-.05-.03-.11-.05-.16-.18.09-.36.17-.87.03.52.14.69.06.87-.03-.39-1.48-1.46-2.68-2.71-3.5Z"/>
    <path class="cls-1" d="m133.25,309.97c.32-1.39,1.06-2.58,1.81-3.8.76-1.25,1.91-2.15,2.68-3.41.75-1.24,1.2-2.26,2.71-2.67,2.02-.56,3.83-.87,5.63-1.96.93-.56,1.54-1.24,2.38-1.93.88-.72,1.86-1.26,2.7-2.01,1.24-1.11,2.79-1.66,4.18-2.55,1.42-.91,2.8-1.9,4.07-3.02,1.5-1.32,2.79-2.67,4.13-4.14.97-1.08,1.26-1.92,1.64-3.31.18-.64.44-1.03.27-1.72-.12-.47-.47-.95-.61-1.44-.32-1.12-.7-1.75-1.51-2.64-.7-.76-1.09-1.44-1.94-2.07-1-.74-1.88-1.36-3.04-1.86-1.23-.53-2.36-1.26-3.58-1.79-.7-.3-1.22-.33-1.84-.84-.33-.27-.62-.66-.92-.96-.78-.78-1.49-1.51-2.03-2.5-.34-.63-.46-1.2-.45-1.93.02-1.61-.22-3.03-.38-4.61-.13-1.23-.37-2.35-1.13-3.34-.83-1.08-1.83-2.06-2.68-3.13-1.7-2.12-4.11-2.86-6.65-3.71-1.03-.34-2.14-.6-3.21-.76-1.51-.23-2.74-.61-4.13-1.15-1.44-.56-3.04-.89-3.91-2.34-.53-.88-.86-2.36-1.05-3.35-.38-2.01-.06-4.8,1.15-6.46,1.16-1.58,2.48-2.89,3.69-4.47,1.67-2.16,4.58-4.46,4.6-7.38,0-1.22-.31-2.17-1.24-3.04-.87-.82-2.13-1.15-2.95-1.94-.76-.74-1.52-1.49-2.29-2.23-.67-.64-1.49-.99-2.11-1.7-.27-.31-.87-.91-.88-1.36-.01-.4.24-.35.34-.72.18-.69.19-1.06.64-1.64.47-.6.96-.95,1.62-1.33.93-.53,1.24-1.07,1.9-1.91,3.16-3.99,8.56-5.09,13.24-6.09,2.08-.45,3.16-1.73,4.66-3.13,1.87-1.75,2.62-4.27,2.67-6.78.04-2.36-.1-5.08-1.15-7.25-.38-.79-.91-1.52-1.25-2.33-.41-.99-.42-1.85-1.03-2.78-.74-1.14-1.72-2.52-2.67-3.43-.51-.49-1.09-.95-1.52-1.49-.57-.72-.96-1.56-1.5-2.3-.47-.66-1.18-1.06-1.84-1.52-1.15-.8-2.21-1.67-3.22-2.56-1.04-.92-2-1.71-3.32-2.28-1.24-.53-3.22-.81-3.44-2.28-.18-1.21.4-2.37,1.13-3.24.21-.25.43-.48.65-.71-.3-.12-.57-.2-.77-.23.2.02.47.11.77.23.92-.93,1.95-1.74,2.78-2.82.57-.74.74-.98.76-1.99.01-.63.04-1.28.01-1.9-.06-1.16-.54-3.13-1.24-4.1-.61-.86-1.71-1.15-2.58-1.61-.67-.35-1.08-.31-1.82-.47-.57-.12-1.33-.53-1.99-.69-.61-.15-1.28-.3-1.9-.37-.21-.02-.31-.04-.36-.04.02.77.03,1.53,0,2.29-.06,1.31-.47,2.52-.68,3.8-.71,4.47-3,8.34-4.66,12.49-.79,1.98-1.62,3.92-2.57,5.83-1.12,2.27-2.76,4.18-3.88,6.43-.53,1.06-1.24,1.86-1.95,2.79-.7.91-1.03,1.89-1.6,2.87-.75,1.28-1.75,2.79-1.83,4.31-.12,2.29.06,4.41-.44,6.68-.75,3.41-1.42,6.87-1.9,10.32-.37,2.65-1.47,4.84-2.51,7.26-.93,2.16-1.3,4.25-1.68,6.55-.16.96-.38,1.79-.67,2.72-.29.92-.25,1.89-.82,2.7-1.15,1.66-3.09,3.21-4.89,4.07-1.53.73-3.03,1.53-4.55,2.28-1.9.95-3.1.39-5.07.36-1.69-.03-2.04.66-3.44,1.54-1.31.83-2.8,1.04-4.21,1.61-1.25.51-2.45,1.2-3.66,1.81-1.12.56-2.27,1.18-3.43,1.64-.82.32-2.21-.09-3.04-.47-.87-.4-1.37-.76-2.35-.81-.99-.05-2,.03-3,.03-2.09,0-3.52.09-5.39,1.18-1.38.81-3.64,2.54-4.04,4.15-.19.78.03,1-.57,1.72-1,1.19-1.96,1.37-3.39,1.33-1.86-.05-3.29-.11-4.98.66-1.5.69-2.1,1.59-2.93,3.03-.81,1.4-1.61,2.86-.78,4.36.71,1.29,1.3,2.72,1.66,4.15.39,1.57.68,2.56.19,4.16-.47,1.55-1.79,2.87-3.07,3.83-1.07.8-1.82,1.57-1.82,3.02,0,1.4.88,2.65,1.54,3.81.63,1.1,1.44,2.1,2.29,3.04.98,1.09.87,2.36,1.23,3.74.28,1.08.29,1.98.29,3.13,0,.37,0,.75,0,1.12,0,.36.07,1.2.09,1.87,1.07-.12,3.13-.28,3.76.51.32.4.6,1.83.71,2.17.25.79.53,1.56.76,2.36.63,2.23,1.77,4.52,2.24,6.77.23,1.11-.65,2.22.4,3,1.2.89,3.59.79,5.01,1.01,1.5.23,2.95.32,4.46.12,1.29-.17,2.78-.7,3.83.42.48.51.33.59.45,1.2.29,1.56.32,3.22.55,4.8.19,1.3.45,2.74,1.67,3.51.92.58,2.26.1,3.06.82.41.37.69,1.74.8,2.08.35,1.1.75,2.19,1.21,3.24.46,1.06.87,1.91,1.74,2.67.95.83,2.21,1.11,3.17,1.92,1.59,1.32,2.43,3.15,4.23,4.28,1.49.93,3.1,1.56,4.6,2.46.81.49,1.54.75,2.1,1.56.64.91.79,2.06,1.21,3.06.46,1.09,1.47,1.36,2.03,2.29.86,1.4.03,3.85-.1,5.29-.11,1.14.18,2.39.45,3.51.24,1.04.28,1.94.29,3.04,0,1.32-.34,2.53-.39,3.83-.02.64.09,1.31.03,1.94-.01.14-.04.28-.07.42,2.12-.77,4.38-1.08,6.58-1.54.94-.2,1.74-.49,2.56-.99,2.23-1.37,3.76-3.37,5.75-5.02,1.39-1.15,2.81-2.47,4.46-3.24.63-.29,1.31-.38,1.97-.58,1.45-.44,2.67-1.32,3.98-2.07.5-.28,1-.52,1.33-1.01.36-.53,1.04-1.09,1.7-1.28,1.77-.51,3.5-1.31,5.02-2.52,1.61-1.28,3.62-2.11,5.15-3.56.52-.49.83-1.02,1.25-1.59.58-.78,1.35-1.4,1.89-2.22.48-.72,1.05-1.51,1.43-2.29.09-.19.17-.58.3-.77.22-.34.55-.61.83-.91-.91-2.11-2.51-4.53-2.68-6.66-.1-1.26-.18-2.88.1-4.13Z"/>
    <path class="cls-1" d="m182.27,302.28c-.08-.74-.4-1.09-.39-1.9,0-.69-.18-1.63-.02-2.3.08-.34.34-.38.42-.72.09-.38-.15-.71.05-1.09.22-.4.85-1.18,1.16-1.52.33-.37.91-.7,1.32-.94,1.16-.69,2.23-1.18,3.53-1.5.68-.17,1.15-.34,1.88-.31,1.03.05,2.02.6,3.06.41.85-.15,1.38-.42,2.28-.4.92.03,1.79.22,2.69.47.75.22,1.49.58,2.28.69.87.11,1.8-.21,2.65.06.85.27,1.12,1.32,1.52,2,.4.69.48,1.47.84,2.19.55,1.11,1.2,2.16,1.73,3.27.42.88,1.05,2.27,1.88,2.85.55.38,1.14.23,1.71.54.62.33,1.22.79,1.83,1.15.91.54,1.63,1.47,2.28,2.29.99,1.24,2.1,2.34,3.14,3.53,2.18,2.52,5.14,3.92,7.79,5.9,1.09.81,2.15,1.4,3.06,2.45.89,1.02,1.58,2.04,2.65,2.9,1.71,1.38,3.29,2.88,4.93,4.34,3.01,2.67,5.6,5.92,9.14,7.92,1.62.91,3.12,2.01,4.77,2.85,1.59.82,3.12,1.27,4.83,1.8,1.07.33,2.41.86,3.35,1.49,1.29.88,2.24,2.1,3.41,3.08.61.51,1.42.98,2.09,1.4.98.61,1.79,1.33,2.74,2,1.26.89,2.5,1.51,3.62,2.61.72.71,1.41,1.45,2.14,2.16,1.16,1.14,1.87,2.28,3.25,3.15.87.55,1.66.94,2.65,1.24,1.17.35,2.04-.09,3-.82.63-.48,1.24-1,1.86-1.49,1.02-.82,2.16-1.28,3.2-2.04,1.67-1.22,3.53-2.37,4.79-4.03.84-1.11,1.75-2.07,2.75-3.05.75-.74,1.11-1.36,1.59-2.26.75-1.42,2-2.81,2.97-4.11.77-1.03,1.38-2.03,1.9-3.2.28-.62.52-1.28.68-1.94.06-.26.41-1.21.4-1.44-.02-.45-.51-1.44-.75-1.87-.11-.21-.24-.39-.38-.56-.18.2-.38.4-.59.57.22-.17.41-.37.59-.57-1-1.22-2.6-1.54-4.02-2.08-1.69-.63-2.75-1.87-4.27-2.69-.92-.5-2.32-.87-3.09-1.59-.78-.73-.9-2.25-1.11-3.25-.16-.76-.37-1.5-.41-2.28-.07-1.19.36-2.24.43-3.41.31-5.02.3-10.16,2.25-14.89.55-1.33,1.03-2.67,1.54-4.02.3-.79.9-1.65,1.08-2.47.34-1.59-.14-3.19-.33-4.75-.12-.99-.19-1.57-.93-2.31-.59-.6-1.39-1.04-2-1.63-.87-.84-1.68-1.69-2.66-2.42-1.76-1.32-3.62-1.83-5.8-1.9-2.58-.07-5.59.47-8.01-.7-1.42-.68-2.64-2.28-3.71-3.39-1.28-1.34-3.1-2.12-4.83-2.74-1.52-.55-3.25-1.05-4.42-2.26-1.47-1.5-2.38-4.23-2.62-6.24-.41-3.51-.89-7.35-.02-10.82.14-.56.19-1.16.43-1.7.5-1.12,1.59-1.98,2.33-2.95,1.48-1.94,2.69-3.88,3.72-6.11,1.72-3.73,2.76-7.66,4.18-11.5,1.3-3.52,1.03-7.55-.84-10.85-1.09-1.93-1.99-4.04-3.44-5.74-.4-.46-.96-1.26-1.44-1.64-.35-.27-.76-.36-1.06-.7-.68-.76-.74-2.93-.4-3.83.17-.47.76-.96,1.01-1.44.32-.61.59-1.32.75-1.99.3-1.25.6-2.34,1.13-3.54.48-1.06,1.08-1.51,1.91-2.28.66-.61,1.31-1.18,1.97-1.79,1.7-1.58,1.15-.82,2.31-1.68.01-.21.02-.42.02-.62,0-1.68-.58-3.25-1.15-4.8-.75-2.03-1.3-3.83-3.06-5.2-1.48-1.15-2.81-2.4-4.23-3.62-1.04-.89-1.54-1.59-2.81-2.19-2.4-1.15-4.56-2.37-7.18-3-1.24-.3-2.37-.34-3.54.22-.57.28-1.3.95-1.99,1.08-1.21.24-2.53-1.26-3.39-2-1.01-.87-2.07-1.64-3.17-2.41-1.08-.75-2.2-1.31-3.41-1.8-.65-.26-2-.57-2.64-1.06-.97-.74-1.14-2.08-1.54-3.14-.21-.56-.55-1.13-.69-1.71-.37-1.47.71-2.84.25-4.25-.3-.91-1.16-1.32-1.98-1.61-1.35-.48-2.67-1.03-4.04-1.44-1.38-.41-2.68-.98-4.11-1.25-.64-.12-1.94-.14-2.3-.8-.37-.67-.07-2.33-.06-3.03.01-.89.24-1.5.56-2.37.31-.83.59-1.64,1-2.43.05-.1.47-.59.41-.83-.12-.48-.84-.44-1.26-.59-1.44-.54-2.14-1.67-3.06-2.78-1.34-1.64-2.89-.36-4.51,0-.73.17-.98.19-1.74.57-1.7.85-4.45,1.63-5.59,3.26-.4.58-.18,1.02-.25,1.66-.07.68-.37,1.41-.63,2.05-.62,1.53-1.72,2.66-2.01,4.29-.38,2.13-.32,4.39-3.08,3.95-.92-.15-1.72-.26-2.67-.22-.91.04-1.72.38-2.63.41-.8.02-1.62-.01-2.42-.01-.3,0-1.5-.18-1.74.06-.42.41.15.88.24,1.17.18.56.11,1.16.35,1.73,1.01,2.42,3.65,4.33,4.22,6.92.37,1.67-.91,3.57-2.11,4.58-.96.81-1.7,2.22-3.13,1.83-.84-.23-1.4-.83-2.12-1.23-.55-.31-.82-.28-1.31-.77-1.24-1.23-2.58-2.39-3.81-3.63-1.14-1.14-2.24-2.44-3.51-3.43-.87-.67-2.11-2.08-3.34-1.93-.64.07-1.17.48-1.61.78-.51.34-1,.55-1.54.86-1.05.6-1.93,1.47-2.96,2.1-1.01.62-1.87.97-3.03,1.33-.84.26-2.18,1.12-3.06.79-.83-.31-1.15-1.35-1.31-2.03-.21-.83-.31-1.92-.21-2.85.07-.61.37-1.09.4-1.71.03-.5,0-1.02,0-1.52,0-.99.13-2.08,0-3.05-.24-1.86-2.18-2.63-3.05-4.18-.39-.7-.59-.75-.76-.72.01.94.09,1.78-.46,2.62-.47.73-1.69,1.68-2.6,1.84-.78.14-1.43-.44-2.36-.33-1.36.16-2.62.76-4.01.79-1.2.03-2.01.18-2.89-.63-.48-.44-.29-.45-.99-.53-.37-.05-.78.01-1.15,0-.65,0-.93.14-1.52.29-.47.12-.9-.02-1.35.07-.74.15-1.46.58-2.27.74-1.06.21-1.86-.24-2.85-.35-.7-.07-2.14-.88-3.17-1.28-.23.23-.45.46-.65.71-.73.87-1.31,2.04-1.13,3.24.22,1.47,2.2,1.74,3.44,2.28,1.32.57,2.28,1.36,3.32,2.28,1.01.89,2.08,1.76,3.22,2.56.65.46,1.36.87,1.84,1.52.54.75.93,1.59,1.5,2.3.43.54,1.01,1.01,1.52,1.49.95.91,1.93,2.29,2.67,3.43.61.94.62,1.8,1.03,2.78.34.81.87,1.55,1.25,2.33,1.05,2.16,1.19,4.89,1.15,7.25-.05,2.52-.8,5.04-2.67,6.78-1.5,1.4-2.57,2.68-4.66,3.13-4.69,1-10.09,2.11-13.24,6.09-.67.84-.97,1.38-1.9,1.91-.66.38-1.15.73-1.62,1.33-.46.58-.47.95-.64,1.64-.1.38-.35.32-.34.72.01.45.61,1.04.88,1.36.62.71,1.44,1.06,2.11,1.7.78.74,1.53,1.49,2.29,2.23.82.79,2.08,1.12,2.95,1.94.93.88,1.24,1.83,1.24,3.04-.02,2.92-2.93,5.22-4.6,7.38-1.22,1.58-2.54,2.88-3.69,4.47-1.21,1.66-1.53,4.45-1.15,6.46.19.99.52,2.47,1.05,3.35.87,1.45,2.47,1.78,3.91,2.34,1.39.54,2.62.93,4.13,1.15,1.07.16,2.18.41,3.21.76,2.54.85,4.95,1.58,6.65,3.71.86,1.07,1.86,2.04,2.68,3.13.76.99,1,2.11,1.13,3.34.16,1.58.41,3,.38,4.61-.01.73.1,1.3.45,1.93.53.99,1.24,1.72,2.03,2.5.31.31.59.69.92.96.62.5,1.14.53,1.84.84,1.22.53,2.35,1.26,3.58,1.79,1.15.5,2.03,1.12,3.04,1.86.85.63,1.24,1.31,1.94,2.07.82.89,1.19,1.53,1.51,2.64.14.49.49.97.61,1.44.18.69-.09,1.08-.27,1.72-.38,1.39-.67,2.23-1.64,3.31-1.33,1.47-2.63,2.82-4.13,4.14-1.27,1.11-2.65,2.1-4.07,3.02-1.39.89-2.94,1.45-4.18,2.55-.85.76-1.83,1.3-2.7,2.01-.84.69-1.45,1.37-2.38,1.93-1.8,1.09-3.61,1.4-5.63,1.96-1.51.42-1.96,1.44-2.71,2.67-.77,1.26-1.92,2.17-2.68,3.41-.74,1.21-1.49,2.41-1.81,3.8-.29,1.25-.21,2.87-.1,4.13.17,2.13,1.77,4.55,2.68,6.66.04-.05.09-.09.13-.14.82-1.02,1.5-2.16,2.22-3.24.39-.59.73-.65,1.27-1.07.16-.13.29-.33.44-.46.37-.32.73-.34,1.15-.56,1.32-.68,2.67-1.51,4.06-2.05,1.16-.45,2.41-.7,3.69-.89.53-.08,1.05-.06,1.58-.05,1.54.02,3.09-.08,4.61-.32.8-.13,1.54-.3,2.3-.07.29.09.52.27.84.34.85.18,1.81.05,2.68.06,1.66.01,3.35-.2,4.98-.51,1.08-.2,2.07-.54,3.16-.51,1.28.03,2.57.07,3.82-.25,1.08-.27,2.14-.71,3.22-.97.83-.2,1.55-.57,2.39-.75,1.09-.24,2.18-.46,3.26-.76.21-.06.42-.13.63-.21v-3.79c0-.74.09-1.55,0-2.29Z"/>
  </g>
  <g>
    <path class="cls-2" d="m78.77,269.55c0,.22-.03.42-.09.62-.06.19-.15.37-.27.53-.12.16-.26.3-.42.43-.16.12-.35.22-.55.3.16.03.31.08.45.16.14.07.25.17.35.28.1.12.17.25.23.41.05.16.08.33.08.53,0,.18-.02.36-.07.55s-.12.38-.23.56-.24.35-.4.52c-.17.17-.37.31-.6.43s-.5.22-.81.29c-.31.07-.66.11-1.07.11h-1.99c-.15,0-.26-.04-.33-.11-.07-.07-.09-.19-.05-.35l1.25-6.25c.03-.16.09-.28.2-.35.1-.07.22-.11.35-.11h1.72c.38,0,.71.03.99.09.28.06.51.15.7.27s.33.27.43.45c.1.18.14.4.14.65Zm-1.74,3.32c0-.24-.09-.42-.26-.56-.17-.14-.46-.21-.84-.21h-.97l-.4,2.04h1.03c.26,0,.48-.04.66-.11.18-.07.33-.17.44-.29s.2-.25.26-.41c.05-.15.08-.31.08-.47Zm.24-3.05c0-.1-.02-.19-.05-.27-.04-.08-.09-.14-.17-.2-.07-.05-.17-.1-.28-.13s-.26-.04-.43-.04h-.79l-.38,1.86h.82c.24,0,.44-.04.6-.11.16-.08.29-.17.39-.29s.17-.25.22-.4c.05-.14.07-.28.07-.42Z"/>
    <path class="cls-2" d="m84.36,271.21c0,.27-.06.5-.18.72-.12.21-.31.4-.56.55-.25.15-.57.27-.96.35s-.85.12-1.39.12h-.51c-.02.08-.03.17-.03.25,0,.08-.01.16-.01.23,0,.3.08.52.23.68.16.15.4.23.75.23.24,0,.46-.02.66-.05.19-.04.36-.07.51-.12.15-.04.27-.08.36-.12.1-.03.17-.05.21-.05s.08.01.09.04c.02.03.03.07.03.12,0,.06,0,.13-.02.22-.01.08-.03.16-.05.24-.02.08-.05.15-.08.22s-.07.12-.11.16c-.04.04-.12.09-.24.13-.12.04-.26.08-.43.12s-.35.07-.56.09c-.21.02-.42.04-.63.04-.35,0-.66-.04-.93-.11-.26-.07-.48-.19-.66-.34-.18-.15-.31-.34-.4-.58-.09-.23-.13-.51-.13-.83,0-.25.02-.51.07-.79.05-.28.12-.56.22-.84.1-.28.24-.54.4-.79.16-.25.36-.47.59-.66.23-.19.5-.34.8-.46s.65-.17,1.04-.17c.34,0,.62.04.87.12.24.08.44.18.6.32s.27.28.35.45c.08.17.11.34.11.52Zm-1.37.11c0-.15-.06-.27-.17-.37-.12-.1-.29-.15-.51-.15-.18,0-.35.03-.5.1-.15.07-.27.16-.39.27-.11.11-.21.25-.29.4-.08.15-.14.32-.19.49h.46c.3,0,.54-.02.74-.06s.36-.09.48-.16c.12-.07.21-.14.27-.24.05-.09.08-.19.08-.29Z"/>
    <path class="cls-2" d="m89.99,270.11s0,.1-.02.16c-.01.06-.03.12-.05.18-.13.34-.26.69-.41,1.05-.15.36-.31.74-.5,1.12s-.4.78-.64,1.19c-.24.41-.51.83-.83,1.27l-1.35,1.92s-.07.09-.12.12-.11.06-.19.08c-.08.02-.17.04-.27.05-.11.01-.23.02-.37.02-.16,0-.29,0-.38-.02s-.17-.03-.21-.06c-.04-.03-.06-.07-.06-.11,0-.04.03-.1.08-.16l1.26-1.66-.81-4.75s-.01-.1-.02-.15c0-.05-.01-.1-.01-.13,0-.07.01-.12.04-.16.02-.04.06-.07.12-.09.06-.02.13-.04.23-.05.1,0,.21-.01.35-.01.15,0,.27,0,.36,0s.15.02.2.04c.04.02.07.05.09.08s.03.08.04.14l.51,3.46h.01c.18-.28.35-.56.5-.84s.29-.57.42-.87c.12-.29.24-.59.35-.89.11-.3.2-.61.29-.91,0-.04.02-.07.05-.1.03-.03.07-.05.13-.07.06-.02.14-.03.24-.04.1,0,.23-.01.39-.01.24,0,.4.02.49.04s.13.08.13.16Z"/>
    <path class="cls-2" d="m91.41,275.06s-.02.07-.05.1-.07.05-.12.07-.13.03-.22.04c-.09,0-.21.01-.34.01-.14,0-.25,0-.34-.01-.09,0-.15-.02-.2-.04s-.08-.04-.1-.07c-.02-.03-.02-.06-.01-.1l1.46-7.28s.02-.07.05-.1c.03-.03.07-.05.13-.07.06-.02.13-.04.22-.05.09-.01.2-.02.34-.02s.25,0,.34.02c.09.01.15.03.2.05.05.02.08.04.09.07s.02.06.01.1l-1.45,7.28Z"/>
    <path class="cls-2" d="m92.79,273.98c0-.27.06-.5.18-.72.12-.21.31-.39.56-.55s.57-.27.96-.35c.39-.08.85-.12,1.39-.12h.51c.01-.08.03-.17.03-.25s.01-.16.01-.23c0-.3-.08-.52-.23-.68s-.4-.23-.75-.23c-.24,0-.46.02-.66.05-.19.04-.36.07-.51.12-.15.04-.27.08-.36.12s-.17.05-.21.05-.08-.01-.09-.04c-.02-.03-.03-.07-.03-.12,0-.06,0-.13.02-.22s.03-.16.05-.24c.02-.08.05-.15.08-.22.03-.07.07-.12.11-.16.04-.04.13-.09.24-.13.12-.04.26-.08.43-.12.17-.04.35-.07.56-.09.21-.02.42-.04.63-.04.35,0,.66.04.93.11.26.07.48.19.66.34.18.15.31.34.4.58s.13.51.13.83c0,.25-.02.51-.07.79-.05.28-.12.56-.22.84s-.24.54-.4.79-.36.47-.59.66-.5.34-.8.46c-.3.11-.65.17-1.04.17-.34,0-.62-.04-.87-.12-.24-.08-.44-.19-.59-.32-.16-.13-.27-.28-.35-.45-.08-.17-.11-.34-.11-.52Zm1.37-.11c0,.15.06.27.17.37s.29.15.51.15c.18,0,.35-.03.5-.1.15-.07.27-.16.38-.27s.21-.25.29-.4.14-.32.19-.49h-.47c-.29,0-.54.02-.74.06-.2.04-.36.09-.48.16s-.21.14-.27.24c-.06.09-.08.19-.08.29Z"/>
    <path class="cls-2" d="m102.58,277.02s-.03.07-.05.1-.07.05-.13.08c-.06.02-.13.04-.22.05-.09.01-.21.02-.34.02s-.24,0-.33-.02c-.09-.01-.15-.03-.2-.05-.05-.02-.08-.05-.1-.08s-.02-.06-.01-.1l.32-1.6c.02-.08.04-.17.06-.26.02-.09.05-.19.07-.28.03-.09.06-.18.08-.27.03-.08.05-.16.08-.23-.07.12-.16.24-.29.35-.12.12-.26.22-.42.32-.16.09-.33.17-.51.23-.18.06-.37.09-.55.09-.27,0-.51-.05-.7-.14-.19-.09-.35-.22-.48-.39-.12-.16-.21-.36-.27-.59-.06-.23-.09-.48-.09-.76,0-.23.02-.49.07-.76.04-.28.11-.55.2-.82.09-.27.21-.54.35-.79.14-.25.32-.48.52-.68.2-.2.43-.35.7-.47.26-.12.56-.17.89-.17.31,0,.58.06.81.19.24.13.44.31.62.56l.09-.44c.01-.08.07-.13.17-.17s.26-.05.49-.05c.11,0,.2,0,.28.01.07,0,.13.02.17.04.04.02.07.04.09.07.01.03.02.06.01.1l-1.38,6.91Zm-.3-5.43c-.13-.2-.27-.36-.43-.46s-.34-.15-.55-.15c-.16,0-.3.04-.43.12s-.25.18-.35.31c-.1.13-.19.28-.26.44-.07.16-.13.33-.18.51-.05.18-.08.35-.1.53-.02.17-.03.33-.03.48,0,.29.05.5.15.63s.24.2.43.2c.16,0,.33-.05.5-.15s.33-.23.48-.4c.15-.17.28-.37.39-.59.11-.23.2-.47.25-.72l.16-.75Z"/>
    <path class="cls-2" d="m108.95,275.07c-.01.08-.07.13-.17.17s-.26.05-.49.05c-.11,0-.21,0-.28-.01-.07,0-.13-.02-.17-.04-.04-.02-.07-.04-.09-.07-.01-.03-.02-.06,0-.1l.16-.79c-.06.12-.14.24-.27.37-.12.13-.27.25-.43.36-.17.11-.35.2-.55.27-.2.07-.41.1-.62.1-.3,0-.54-.05-.74-.15-.2-.1-.35-.24-.47-.42-.12-.17-.2-.38-.25-.6-.05-.22-.07-.46-.07-.71,0-.23.02-.49.07-.76.04-.27.11-.55.21-.82.09-.27.21-.54.35-.79.14-.25.32-.48.52-.67.2-.2.43-.35.69-.47.26-.12.55-.17.88-.17.31,0,.58.06.81.19.24.13.44.31.62.56l.09-.44c.01-.08.07-.13.17-.17s.26-.05.49-.05c.11,0,.2,0,.28.01.07,0,.13.02.17.04.04.02.07.04.09.07.01.03.02.06.01.1l-.99,4.95Zm-.69-3.47c-.13-.2-.27-.36-.43-.46s-.34-.15-.55-.15c-.15,0-.3.04-.43.11-.13.07-.24.17-.34.3-.1.12-.19.27-.26.43-.08.16-.14.33-.19.51s-.09.35-.11.53c-.02.18-.04.34-.04.5,0,.11,0,.22.02.32s.05.19.09.27c.04.08.1.14.18.19.07.05.17.07.28.07.16,0,.33-.05.5-.15s.33-.23.48-.4c.15-.17.28-.36.39-.59.11-.22.2-.46.25-.72l.16-.75Z"/>
    <path class="cls-2" d="m115.66,271.22c0,.13,0,.26-.03.39s-.04.26-.06.4l-.61,3.05s-.03.07-.05.1-.07.05-.13.07c-.06.02-.13.03-.22.04-.09,0-.2.01-.34.01s-.25,0-.34-.01c-.09,0-.15-.02-.2-.04-.05-.02-.08-.04-.1-.07-.02-.03-.02-.06-.01-.1l.6-2.96c.02-.09.03-.18.04-.27,0-.09.01-.17.01-.24,0-.17-.04-.3-.11-.41-.07-.11-.19-.16-.35-.16-.15,0-.31.05-.47.14-.17.1-.32.23-.47.39-.15.16-.28.36-.39.58-.11.22-.2.45-.24.7l-.45,2.24s-.02.07-.05.1-.07.05-.13.07-.13.03-.22.04c-.09,0-.2.01-.34.01s-.25,0-.33-.01c-.09,0-.16-.02-.21-.04s-.08-.04-.1-.07c-.01-.03-.02-.06-.01-.1l.99-4.95s.02-.07.05-.1c.02-.03.06-.05.11-.07s.11-.03.19-.04c.08,0,.17-.01.29-.01s.21,0,.28.01c.07,0,.13.02.17.04.04.02.07.04.08.07.01.03.02.06,0,.1l-.16.81c.08-.13.18-.26.31-.4.13-.13.28-.26.45-.36.17-.11.35-.19.55-.26.2-.07.4-.1.62-.1.26,0,.48.04.65.11.18.08.32.18.43.31s.19.28.24.45.07.35.07.55Z"/>
  </g>
  <g>
    <path class="cls-2" d="m191.35,236.95s-.03.07-.06.1-.07.05-.13.07c-.06.02-.14.03-.24.04-.1,0-.21.01-.35.01s-.26,0-.35-.01c-.09,0-.16-.02-.21-.04s-.09-.04-.11-.07c-.02-.03-.02-.06-.01-.1l1.36-6.78s.02-.07.05-.1c.03-.03.08-.05.14-.07s.14-.03.23-.04c.09,0,.21-.01.35-.01s.26,0,.35.01c.09,0,.16.02.22.04s.09.04.11.07c.02.03.02.06.01.1l-1.35,6.78Zm.14-8.29c.03-.13.06-.24.1-.33.04-.09.1-.16.17-.22s.16-.09.26-.12c.1-.02.23-.04.38-.04s.27.01.36.04c.09.02.16.06.21.12s.08.13.08.22c0,.09,0,.2-.03.33-.02.13-.05.23-.1.32s-.1.16-.17.22-.16.1-.26.12c-.1.02-.23.04-.38.04s-.27-.01-.36-.04c-.09-.02-.16-.06-.21-.12s-.08-.13-.08-.22c0-.09,0-.2.03-.32Z"/>
    <path class="cls-2" d="m200.58,236.96s-.02.07-.05.1c-.03.03-.07.05-.13.07-.06.02-.13.03-.22.04-.09,0-.2.01-.34.01s-.24,0-.33-.01c-.09,0-.16-.02-.21-.04-.05-.02-.08-.04-.1-.07-.02-.03-.02-.06,0-.1l.59-2.96c.01-.08.03-.17.04-.25.01-.08.02-.17.02-.25,0-.17-.03-.31-.1-.42s-.18-.16-.35-.16c-.15,0-.3.05-.46.14-.16.1-.31.23-.46.39-.15.16-.28.36-.39.58-.11.22-.19.45-.24.7l-.45,2.24s-.03.07-.05.1c-.03.03-.07.05-.13.07-.06.02-.13.03-.22.04-.09,0-.2.01-.34.01s-.24,0-.33-.01c-.09,0-.15-.02-.2-.04s-.08-.04-.1-.07c-.02-.03-.02-.06-.01-.1l.59-2.96c.02-.08.04-.17.05-.26,0-.09.01-.18.01-.26,0-.16-.03-.3-.1-.4s-.18-.16-.34-.16c-.15,0-.3.05-.46.14-.16.1-.31.23-.46.39-.15.16-.27.36-.39.58-.11.22-.19.45-.24.7l-.45,2.24s-.02.07-.05.1-.07.05-.13.07-.13.03-.22.04c-.09,0-.2.01-.34.01s-.25,0-.33-.01c-.09,0-.16-.02-.21-.04s-.08-.04-.1-.07c-.01-.03-.02-.06-.01-.1l.99-4.95s.02-.07.05-.1c.02-.03.06-.05.11-.07s.11-.03.19-.04c.08,0,.17-.01.29-.01s.21,0,.28.01c.07,0,.13.02.17.04.04.02.07.04.08.07.01.03.02.06,0,.1l-.16.81c.08-.13.18-.26.31-.4.13-.13.28-.26.44-.36.17-.11.34-.19.54-.26.19-.07.39-.1.6-.1s.4.03.56.09.29.14.39.24.18.22.23.36c.05.14.09.28.1.44.08-.13.19-.27.32-.4s.28-.25.44-.36c.16-.11.34-.19.53-.26.19-.07.39-.1.59-.1.26,0,.47.04.65.11.18.07.32.17.42.3.11.13.18.28.23.45s.07.36.07.56c0,.13,0,.26-.02.39s-.04.26-.07.4l-.61,3.05Z"/>
    <path class="cls-2" d="m203.34,236.96s-.02.07-.05.1-.07.05-.13.07-.13.03-.22.04c-.09,0-.2.01-.34.01s-.25,0-.33-.01c-.09,0-.16-.02-.21-.04s-.08-.04-.1-.07c-.01-.03-.02-.06-.01-.1l.98-4.93s.02-.07.05-.1.07-.05.13-.07c.06-.02.13-.04.22-.05.09-.01.2-.02.34-.02s.25,0,.33.02c.09.01.16.03.21.05.05.02.08.04.1.07.01.03.02.06.01.1l-.98,4.93Zm1.43-6.6c-.03.14-.06.25-.11.35-.04.09-.1.17-.18.23-.07.06-.16.1-.27.12-.11.02-.24.04-.4.04s-.28-.01-.38-.04c-.1-.02-.17-.07-.22-.12-.05-.06-.08-.13-.09-.23,0-.09,0-.21.03-.35.03-.13.06-.25.11-.34.04-.09.1-.17.18-.23.07-.06.16-.1.27-.13.11-.03.24-.04.4-.04s.28.01.38.04c.1.03.17.07.22.13.05.06.08.13.08.23,0,.09,0,.21-.03.34Z"/>
    <path class="cls-2" d="m205.7,237.26c-.21-.03-.38-.06-.53-.1-.15-.04-.27-.09-.36-.14-.09-.05-.16-.09-.2-.13-.03-.03-.05-.06-.06-.09s-.02-.08-.02-.13c0-.03,0-.08,0-.13,0-.05.01-.11.03-.17.01-.06.03-.13.04-.19s.04-.12.06-.17.05-.09.07-.12c.03-.03.05-.05.08-.05.05,0,.11.02.17.07.06.04.14.09.24.15.1.05.22.1.37.15.15.05.33.07.55.07.15,0,.28-.02.4-.05.11-.04.21-.08.28-.15.07-.06.13-.13.16-.22s.05-.17.05-.26c0-.13-.04-.23-.14-.32-.09-.08-.2-.16-.34-.23-.14-.07-.29-.14-.45-.22-.16-.07-.31-.17-.45-.27-.14-.11-.25-.24-.34-.4-.09-.16-.14-.36-.14-.6,0-.26.05-.51.15-.73.1-.22.25-.42.44-.59.19-.17.42-.3.7-.39.27-.09.58-.14.93-.14.16,0,.31,0,.45.03.15.02.28.05.39.08s.22.07.3.11c.09.04.15.08.19.12.04.04.06.1.06.19,0,.04,0,.11-.02.2-.01.09-.03.17-.06.26-.03.09-.06.17-.09.23-.04.06-.07.1-.12.1-.05,0-.1-.02-.17-.05-.06-.04-.14-.07-.24-.12-.09-.04-.2-.08-.32-.11-.12-.03-.27-.05-.44-.05-.13,0-.24.02-.35.05-.1.03-.19.08-.25.13-.07.06-.12.12-.15.2-.04.08-.05.16-.05.25,0,.11.05.21.14.29.09.08.21.15.35.22s.29.14.45.21c.16.07.31.17.45.28.14.11.26.25.35.4.09.16.14.36.14.6,0,.28-.06.54-.17.79-.11.25-.29.47-.53.66-.24.19-.56.33-.96.42l.08.32c.02.09.04.18.05.26s.02.16.02.24c0,.2-.03.37-.1.52-.06.15-.16.27-.27.36-.12.09-.26.16-.42.21s-.35.07-.55.07c-.1,0-.21,0-.31-.01-.1,0-.2-.02-.28-.04-.09-.02-.16-.04-.23-.06s-.12-.04-.16-.06c-.04-.02-.07-.05-.09-.07-.02-.02-.03-.06-.03-.11,0-.04,0-.09.01-.16,0-.07.02-.13.05-.2.02-.07.05-.12.09-.17.04-.05.09-.08.15-.08h.63c.05,0,.1,0,.15-.02s.09-.03.12-.06c.04-.02.06-.06.08-.1s.03-.09.03-.14c0-.04,0-.08,0-.13,0-.05-.01-.1-.03-.14l-.09-.39Z"/>
    <path class="cls-2" d="m210.59,236.96s-.02.07-.05.1-.07.05-.12.07-.13.03-.22.04c-.09,0-.21.01-.34.01-.14,0-.25,0-.34-.01-.09,0-.15-.02-.2-.04s-.08-.04-.1-.07c-.02-.03-.02-.06-.01-.1l1.46-7.28s.02-.07.05-.1c.03-.03.07-.05.13-.07.06-.02.13-.04.22-.05.09-.01.2-.02.34-.02s.25,0,.34.02c.09.01.15.03.2.05.05.02.08.04.09.07s.02.06.01.1l-1.45,7.28Z"/>
    <path class="cls-2" d="m213.38,236.96s-.02.07-.05.1-.07.05-.13.07-.13.03-.22.04c-.09,0-.2.01-.34.01s-.25,0-.33-.01c-.09,0-.16-.02-.21-.04s-.08-.04-.1-.07c-.01-.03-.02-.06-.01-.1l.98-4.93s.02-.07.05-.1.07-.05.13-.07c.06-.02.13-.04.22-.05.09-.01.2-.02.34-.02s.25,0,.33.02c.09.01.16.03.21.05.05.02.08.04.1.07.01.03.02.06.01.1l-.98,4.93Zm1.43-6.6c-.03.14-.06.25-.11.35-.04.09-.1.17-.18.23-.07.06-.16.1-.27.12-.11.02-.24.04-.4.04s-.28-.01-.38-.04c-.1-.02-.17-.07-.22-.12-.05-.06-.08-.13-.09-.23,0-.09,0-.21.03-.35.03-.13.06-.25.11-.34.04-.09.1-.17.18-.23.07-.06.16-.1.27-.13.11-.03.24-.04.4-.04s.28.01.38.04c.1.03.17.07.22.13.05.06.08.13.08.23,0,.09,0,.21-.03.34Z"/>
  </g>
  <g>
    <path class="cls-2" d="m317.22,262s0,.07,0,.13c0,.06-.01.12-.02.18s-.03.13-.04.2-.04.13-.06.19-.05.1-.08.14c-.03.04-.06.05-.09.05-.05,0-.12-.02-.19-.07-.08-.05-.17-.1-.29-.15-.11-.05-.25-.1-.4-.15-.15-.05-.32-.07-.51-.07s-.37.03-.51.08c-.14.06-.25.13-.34.22-.09.09-.15.19-.2.3-.04.11-.06.23-.06.34,0,.13.03.25.1.35s.15.2.27.28c.11.09.24.17.38.25.14.08.29.17.43.25.15.09.29.19.43.29s.27.23.38.37c.11.14.2.3.27.48.07.18.1.38.1.62,0,.35-.07.67-.21.97-.14.3-.34.56-.59.78-.26.22-.57.39-.93.52-.36.12-.77.19-1.21.19-.24,0-.46-.02-.67-.06s-.38-.09-.54-.14c-.16-.05-.29-.11-.4-.17-.11-.06-.19-.12-.24-.17s-.08-.14-.08-.25c0-.03,0-.07.01-.13,0-.06.02-.12.03-.19s.03-.14.05-.21c.02-.07.04-.14.07-.2.03-.06.05-.11.09-.14s.07-.06.1-.06c.06,0,.14.03.22.09.09.06.19.12.32.19.13.07.28.13.46.19.18.06.39.09.64.09.22,0,.41-.03.57-.08.17-.06.3-.13.41-.23.11-.1.19-.21.25-.33.06-.13.09-.27.09-.42,0-.14-.03-.26-.1-.36-.07-.1-.15-.2-.26-.29-.11-.09-.23-.17-.37-.25-.14-.08-.28-.16-.42-.25-.14-.09-.29-.18-.42-.29-.14-.1-.26-.22-.37-.36-.11-.14-.2-.3-.26-.48s-.1-.39-.1-.63c0-.33.07-.64.2-.92s.32-.52.55-.72c.24-.2.52-.36.85-.47.33-.11.69-.17,1.09-.17.18,0,.36.01.53.04.17.03.32.06.45.11s.25.09.35.14.16.09.2.13.06.07.08.11c.02.04.03.09.03.15Z"/>
    <path class="cls-2" d="m322,268.44c-.01.08-.07.13-.17.17s-.26.05-.49.05c-.11,0-.21,0-.28-.01-.07,0-.13-.02-.17-.04-.04-.02-.07-.04-.09-.07-.01-.03-.02-.06,0-.1l.16-.79c-.06.12-.14.24-.27.37-.12.13-.27.25-.43.36-.17.11-.35.2-.55.27-.2.07-.41.1-.62.1-.3,0-.54-.05-.74-.15-.2-.1-.35-.24-.47-.42-.12-.17-.2-.38-.25-.6-.05-.22-.07-.46-.07-.71,0-.23.02-.49.07-.76.04-.27.11-.55.21-.82.09-.27.21-.54.35-.79.14-.25.32-.48.52-.67.2-.2.43-.35.69-.47.26-.12.55-.17.88-.17.31,0,.58.06.81.19.24.13.44.31.62.56l.09-.44c.01-.08.07-.13.17-.17s.26-.05.49-.05c.11,0,.2,0,.28.01.07,0,.13.02.17.04.04.02.07.04.09.07.01.03.02.06.01.1l-.99,4.95Zm-.69-3.47c-.13-.2-.27-.36-.43-.46s-.34-.15-.55-.15c-.15,0-.3.04-.43.11-.13.07-.24.17-.34.3-.1.12-.19.27-.26.43-.08.16-.14.33-.19.51s-.09.35-.11.53c-.02.18-.04.34-.04.5,0,.11,0,.22.02.32s.05.19.09.27c.04.08.1.14.18.19.07.05.17.07.28.07.16,0,.33-.05.5-.15s.33-.23.48-.4c.15-.17.28-.36.39-.59.11-.22.2-.46.25-.72l.16-.75Z"/>
    <path class="cls-2" d="m327.98,268.44c-.01.08-.07.13-.17.17s-.26.05-.49.05c-.11,0-.21,0-.28-.01-.07,0-.13-.02-.17-.04-.04-.02-.07-.04-.09-.07-.01-.03-.02-.06,0-.1l.16-.79c-.06.12-.14.24-.27.37-.12.13-.27.25-.43.36-.17.11-.35.2-.55.27-.2.07-.41.1-.62.1-.3,0-.54-.05-.74-.15-.2-.1-.35-.24-.47-.42-.12-.17-.2-.38-.25-.6-.05-.22-.07-.46-.07-.71,0-.23.02-.49.07-.76.04-.27.11-.55.21-.82.09-.27.21-.54.35-.79.14-.25.32-.48.52-.67.2-.2.43-.35.69-.47.26-.12.55-.17.88-.17.31,0,.58.06.81.19.24.13.44.31.62.56l.09-.44c.01-.08.07-.13.17-.17s.26-.05.49-.05c.11,0,.2,0,.28.01.07,0,.13.02.17.04.04.02.07.04.09.07.01.03.02.06.01.1l-.99,4.95Zm-.69-3.47c-.13-.2-.27-.36-.43-.46s-.34-.15-.55-.15c-.15,0-.3.04-.43.11-.13.07-.24.17-.34.3-.1.12-.19.27-.26.43-.08.16-.14.33-.19.51s-.09.35-.11.53c-.02.18-.04.34-.04.5,0,.11,0,.22.02.32s.05.19.09.27c.04.08.1.14.18.19.07.05.17.07.28.07.16,0,.33-.05.5-.15s.33-.23.48-.4c.15-.17.28-.36.39-.59.11-.22.2-.46.25-.72l.16-.75Z"/>
    <path class="cls-2" d="m333.27,263.54s0,.08-.01.14c0,.06-.02.12-.03.19s-.03.13-.05.2-.05.13-.07.18c-.03.05-.06.1-.09.13-.04.04-.07.05-.11.05h-1.08l-.46,2.32c-.01.05-.02.12-.03.2,0,.08-.01.14-.01.19,0,.15.04.26.11.32s.18.1.33.1c.09,0,.16,0,.23-.02.06-.01.12-.03.16-.04s.09-.03.12-.04.06-.02.09-.02.05.01.08.04c.02.03.03.07.03.14,0,.07,0,.15-.02.24-.01.09-.03.17-.06.26-.02.08-.05.16-.08.23-.03.07-.06.12-.09.15s-.08.06-.15.09c-.07.03-.14.06-.24.08-.09.02-.19.04-.29.05-.1.01-.21.02-.31.02-.22,0-.42-.02-.58-.07-.17-.05-.31-.12-.42-.22-.12-.1-.2-.23-.26-.38-.06-.16-.09-.34-.09-.56,0-.04,0-.09,0-.14,0-.05,0-.11.02-.17,0-.06.02-.12.03-.18,0-.06.02-.12.03-.16l.48-2.41h-.6s-.08-.02-.11-.05-.03-.09-.03-.18c0-.06,0-.15.02-.25.01-.1.03-.2.06-.3s.07-.18.12-.25.11-.11.17-.11h.59l.22-1.1s.02-.07.05-.1c.03-.03.07-.05.13-.08s.13-.04.22-.04c.09,0,.2-.01.34-.01s.24,0,.33.01c.09,0,.16.02.21.04s.08.04.1.08c.02.03.02.06.01.1l-.22,1.1h1.07c.06,0,.11.02.13.06.02.04.03.1.03.18Z"/>
    <path class="cls-2" d="m334.71,268.43s-.02.07-.05.1-.07.05-.12.07-.13.03-.22.04c-.09,0-.21.01-.34.01-.14,0-.25,0-.34-.01-.09,0-.15-.02-.2-.04s-.08-.04-.1-.07c-.02-.03-.02-.06-.01-.1l1.46-7.28s.02-.07.05-.1c.03-.03.07-.05.13-.07.06-.02.13-.04.22-.05.09-.01.2-.02.34-.02s.25,0,.34.02c.09.01.15.03.2.05.05.02.08.04.09.07s.02.06.01.1l-1.45,7.28Z"/>
    <path class="cls-2" d="m337.49,268.43s-.02.07-.05.1-.07.05-.13.07-.13.03-.22.04c-.09,0-.2.01-.34.01s-.25,0-.33-.01c-.09,0-.16-.02-.21-.04s-.08-.04-.1-.07c-.01-.03-.02-.06-.01-.1l.99-4.94s.03-.07.05-.1c.03-.03.07-.05.13-.07.06-.02.13-.03.22-.04.09,0,.2-.01.34-.01s.25,0,.33.01c.09,0,.16.02.21.04s.08.04.1.07c.01.03.02.06.01.1l-.99,4.94Z"/>
  </g>
  <g>
    <path class="cls-2" d="m323.37,177.75s0,.07,0,.13c0,.06-.01.12-.02.18s-.03.13-.04.2-.04.13-.06.19-.05.1-.08.14c-.03.04-.06.05-.09.05-.05,0-.12-.02-.19-.07-.08-.05-.17-.1-.29-.15-.11-.05-.25-.1-.4-.15-.15-.05-.32-.07-.51-.07s-.37.03-.51.08c-.14.06-.25.13-.34.22-.09.09-.15.19-.2.3-.04.11-.06.23-.06.34,0,.13.03.25.1.35s.15.2.27.28c.11.09.24.17.38.25.14.08.29.17.43.25.15.09.29.19.43.29s.27.23.38.37c.11.14.2.3.27.48.07.18.1.38.1.62,0,.35-.07.67-.21.97-.14.3-.34.56-.59.78-.26.22-.57.39-.93.52-.36.12-.77.19-1.21.19-.24,0-.46-.02-.67-.06s-.38-.09-.54-.14c-.16-.05-.29-.11-.4-.17-.11-.06-.19-.12-.24-.17s-.08-.14-.08-.25c0-.03,0-.07.01-.13,0-.06.02-.12.03-.19s.03-.14.05-.21c.02-.07.04-.14.07-.2.03-.06.05-.11.09-.14s.07-.06.1-.06c.06,0,.14.03.22.09.09.06.19.12.32.19.13.07.28.13.46.19.18.06.39.09.64.09.22,0,.41-.03.57-.08.17-.06.3-.13.41-.23.11-.1.19-.21.25-.33.06-.13.09-.27.09-.42,0-.14-.03-.26-.1-.36-.07-.1-.15-.2-.26-.29-.11-.09-.23-.17-.37-.25-.14-.08-.28-.16-.42-.25-.14-.09-.29-.18-.42-.29-.14-.1-.26-.22-.37-.36-.11-.14-.2-.3-.26-.48s-.1-.39-.1-.63c0-.33.07-.64.2-.92s.32-.52.55-.72c.24-.2.52-.36.85-.47.33-.11.69-.17,1.09-.17.18,0,.36.01.53.04.17.03.32.06.45.11s.25.09.35.14.16.09.2.13.06.07.08.11c.02.04.03.09.03.15Z"/>
    <path class="cls-2" d="m328.14,184.19c-.01.08-.07.13-.17.17s-.26.05-.49.05c-.11,0-.21,0-.28-.01-.07,0-.13-.02-.17-.04-.04-.02-.07-.04-.09-.07-.01-.03-.02-.06,0-.1l.16-.79c-.06.12-.14.24-.27.37-.12.13-.27.25-.43.36-.17.11-.35.2-.55.27-.2.07-.41.1-.62.1-.3,0-.54-.05-.74-.15-.2-.1-.35-.24-.47-.42-.12-.17-.2-.38-.25-.6-.05-.22-.07-.46-.07-.71,0-.23.02-.49.07-.76.04-.27.11-.55.21-.82.09-.27.21-.54.35-.79.14-.25.32-.48.52-.67.2-.2.43-.35.69-.47.26-.12.55-.17.88-.17.31,0,.58.06.81.19.24.13.44.31.62.56l.09-.44c.01-.08.07-.13.17-.17s.26-.05.49-.05c.11,0,.2,0,.28.01.07,0,.13.02.17.04.04.02.07.04.09.07.01.03.02.06.01.1l-.99,4.95Zm-.69-3.47c-.13-.2-.27-.36-.43-.46s-.34-.15-.55-.15c-.15,0-.3.04-.43.11-.13.07-.24.17-.34.3-.1.12-.19.27-.26.43-.08.16-.14.33-.19.51s-.09.35-.11.53c-.02.18-.04.34-.04.5,0,.11,0,.22.02.32s.05.19.09.27c.04.08.1.14.18.19.07.05.17.07.28.07.16,0,.33-.05.5-.15s.33-.23.48-.4c.15-.17.28-.36.39-.59.11-.22.2-.46.25-.72l.16-.75Z"/>
    <path class="cls-2" d="m335,180.81c0,.24-.02.5-.07.78-.04.28-.11.55-.21.83-.09.27-.21.54-.35.79-.14.25-.32.47-.52.67-.2.19-.44.34-.7.46-.26.11-.55.17-.87.17s-.58-.06-.82-.18c-.24-.12-.44-.31-.62-.55l-.08.42c-.01.08-.07.13-.17.17s-.26.05-.49.05-.37-.02-.45-.06c-.08-.04-.11-.09-.1-.17l1.46-7.28s.02-.07.05-.1c.03-.03.07-.05.13-.07.06-.02.13-.04.22-.05.09-.01.2-.02.34-.02s.25,0,.33.02c.08.01.15.03.2.05.05.02.08.04.1.07s.02.06.01.1l-.39,1.98c-.02.08-.04.17-.06.27-.02.09-.05.19-.07.28-.03.09-.06.18-.08.27-.03.09-.05.16-.08.23.07-.12.16-.24.29-.36.12-.12.27-.23.42-.32.16-.1.33-.17.51-.23.18-.06.37-.09.55-.09.21,0,.39.03.55.08s.29.13.4.22c.11.09.21.2.28.33.07.12.13.26.18.4.04.14.08.28.09.43s.03.29.03.43Zm-1.43.14c0-.09,0-.19-.02-.29s-.04-.19-.08-.27c-.04-.08-.1-.15-.17-.2s-.17-.08-.29-.08c-.17,0-.33.05-.5.15s-.33.23-.47.4c-.15.17-.28.37-.39.59-.12.23-.2.46-.24.72l-.16.75c.13.2.27.35.43.45s.34.15.54.15c.15,0,.29-.04.41-.11.13-.07.24-.17.34-.29s.19-.26.27-.42c.08-.16.14-.33.19-.5.05-.17.09-.35.12-.53.03-.18.04-.36.04-.53Z"/>
    <path class="cls-2" d="m336.92,184.18s-.02.07-.05.1-.07.05-.13.07-.13.03-.22.04c-.09,0-.2.01-.34.01s-.25,0-.33-.01c-.09,0-.16-.02-.21-.04s-.08-.04-.1-.07c-.01-.03-.02-.06-.01-.1l.98-4.93s.02-.07.05-.1.07-.05.13-.07c.06-.02.13-.04.22-.05.09-.01.2-.02.34-.02s.25,0,.33.02c.09.01.16.03.21.05.05.02.08.04.1.07.01.03.02.06.01.1l-.98,4.93Zm1.43-6.6c-.03.14-.06.25-.11.35-.04.09-.1.17-.18.23-.07.06-.16.1-.27.12-.11.02-.24.04-.4.04s-.28-.01-.38-.04c-.1-.02-.17-.07-.22-.12-.05-.06-.08-.13-.09-.23,0-.09,0-.21.03-.35.03-.13.06-.25.11-.34.04-.09.1-.17.18-.23.07-.06.16-.1.27-.13.11-.03.24-.04.4-.04s.28.01.38.04c.1.03.17.07.22.13.05.06.08.13.08.23,0,.09,0,.21-.03.34Z"/>
    <path class="cls-2" d="m342.42,179.17s0,.07-.01.14c0,.07-.02.14-.03.23s-.03.18-.05.27c-.02.09-.05.18-.08.26s-.06.15-.09.2-.07.08-.11.08c-.03,0-.07,0-.1-.02-.03-.01-.07-.03-.11-.04-.04-.01-.08-.03-.13-.04-.05-.01-.1-.02-.17-.02-.13,0-.26.05-.4.14-.14.1-.28.22-.41.38-.13.16-.25.34-.35.55-.1.21-.17.43-.22.66l-.44,2.22s-.02.07-.05.1-.07.05-.13.07-.13.03-.22.04c-.09,0-.2.01-.34.01s-.25,0-.33-.01c-.09,0-.16-.02-.21-.04s-.08-.04-.1-.07c-.01-.03-.02-.06-.01-.1l.99-4.95s.02-.07.05-.1c.03-.03.06-.05.11-.07s.11-.03.19-.04c.08,0,.17-.01.29-.01s.21,0,.28.01c.07,0,.13.02.17.04.04.02.07.04.08.07.01.03.02.06,0,.1l-.15.79c.09-.16.19-.3.31-.44s.24-.25.37-.35c.13-.1.27-.17.41-.23s.28-.08.42-.08c.05,0,.11,0,.17.01.06,0,.11.02.16.03.05.01.09.02.13.04s.07.03.09.05c.02.02.03.06.03.11Z"/>
    <path class="cls-2" d="m346.9,184.19c-.01.08-.07.13-.17.17s-.26.05-.49.05c-.11,0-.21,0-.28-.01-.07,0-.13-.02-.17-.04-.04-.02-.07-.04-.09-.07-.01-.03-.02-.06,0-.1l.16-.79c-.06.12-.14.24-.27.37-.12.13-.27.25-.43.36-.17.11-.35.2-.55.27-.2.07-.41.1-.62.1-.3,0-.54-.05-.74-.15-.2-.1-.35-.24-.47-.42-.12-.17-.2-.38-.25-.6-.05-.22-.07-.46-.07-.71,0-.23.02-.49.07-.76.04-.27.11-.55.21-.82.09-.27.21-.54.35-.79.14-.25.32-.48.52-.67.2-.2.43-.35.69-.47.26-.12.55-.17.88-.17.31,0,.58.06.81.19.24.13.44.31.62.56l.09-.44c.01-.08.07-.13.17-.17s.26-.05.49-.05c.11,0,.2,0,.28.01.07,0,.13.02.17.04.04.02.07.04.09.07.01.03.02.06.01.1l-.99,4.95Zm-.69-3.47c-.13-.2-.27-.36-.43-.46s-.34-.15-.55-.15c-.15,0-.3.04-.43.11-.13.07-.24.17-.34.3-.1.12-.19.27-.26.43-.08.16-.14.33-.19.51s-.09.35-.11.53c-.02.18-.04.34-.04.5,0,.11,0,.22.02.32s.05.19.09.27c.04.08.1.14.18.19.07.05.17.07.28.07.16,0,.33-.05.5-.15s.33-.23.48-.4c.15-.17.28-.36.39-.59.11-.22.2-.46.25-.72l.16-.75Z"/>
    <path class="cls-2" d="m353.75,180.81c0,.24-.02.5-.07.78-.04.28-.11.55-.21.83-.09.27-.21.54-.35.79-.14.25-.32.47-.52.67-.2.19-.44.34-.7.46-.26.11-.55.17-.87.17s-.58-.06-.82-.18c-.24-.12-.44-.31-.62-.55l-.08.42c-.01.08-.07.13-.17.17s-.26.05-.49.05-.37-.02-.45-.06c-.08-.04-.11-.09-.1-.17l1.46-7.28s.02-.07.05-.1c.03-.03.07-.05.13-.07.06-.02.13-.04.22-.05.09-.01.2-.02.34-.02s.25,0,.33.02c.08.01.15.03.2.05.05.02.08.04.1.07s.02.06.01.1l-.39,1.98c-.02.08-.04.17-.06.27-.02.09-.05.19-.07.28-.03.09-.06.18-.08.27-.03.09-.05.16-.08.23.07-.12.16-.24.29-.36.12-.12.27-.23.42-.32.16-.1.33-.17.51-.23.18-.06.37-.09.55-.09.21,0,.39.03.55.08s.29.13.4.22c.11.09.21.2.28.33.07.12.13.26.18.4.04.14.08.28.09.43s.03.29.03.43Zm-1.43.14c0-.09,0-.19-.02-.29s-.04-.19-.08-.27c-.04-.08-.1-.15-.17-.2s-.17-.08-.29-.08c-.17,0-.33.05-.5.15s-.33.23-.47.4c-.15.17-.28.37-.39.59-.12.23-.2.46-.24.72l-.16.75c.13.2.27.35.43.45s.34.15.54.15c.15,0,.29-.04.41-.11.13-.07.24-.17.34-.29s.19-.26.27-.42c.08-.16.14-.33.19-.5.05-.17.09-.35.12-.53.03-.18.04-.36.04-.53Z"/>
    <path class="cls-2" d="m358.87,184.19c-.01.08-.07.13-.17.17s-.26.05-.49.05c-.11,0-.21,0-.28-.01-.07,0-.13-.02-.17-.04-.04-.02-.07-.04-.09-.07-.01-.03-.02-.06,0-.1l.16-.79c-.06.12-.14.24-.27.37-.12.13-.27.25-.43.36-.17.11-.35.2-.55.27-.2.07-.41.1-.62.1-.3,0-.54-.05-.74-.15-.2-.1-.35-.24-.47-.42-.12-.17-.2-.38-.25-.6-.05-.22-.07-.46-.07-.71,0-.23.02-.49.07-.76.04-.27.11-.55.21-.82.09-.27.21-.54.35-.79.14-.25.32-.48.52-.67.2-.2.43-.35.69-.47.26-.12.55-.17.88-.17.31,0,.58.06.81.19.24.13.44.31.62.56l.09-.44c.01-.08.07-.13.17-.17s.26-.05.49-.05c.11,0,.2,0,.28.01.07,0,.13.02.17.04.04.02.07.04.09.07.01.03.02.06.01.1l-.99,4.95Zm-.69-3.47c-.13-.2-.27-.36-.43-.46s-.34-.15-.55-.15c-.15,0-.3.04-.43.11-.13.07-.24.17-.34.3-.1.12-.19.27-.26.43-.08.16-.14.33-.19.51s-.09.35-.11.53c-.02.18-.04.34-.04.5,0,.11,0,.22.02.32s.05.19.09.27c.04.08.1.14.18.19.07.05.17.07.28.07.16,0,.33-.05.5-.15s.33-.23.48-.4c.15-.17.28-.36.39-.59.11-.22.2-.46.25-.72l.16-.75Z"/>
    <path class="cls-2" d="m364.86,184.19c-.02.08-.07.13-.17.17s-.26.05-.49.05c-.11,0-.21,0-.28-.01-.07,0-.13-.02-.17-.04-.04-.02-.07-.04-.09-.07-.01-.03-.02-.06,0-.1l.15-.79c-.06.12-.14.24-.27.37-.12.13-.27.25-.43.36-.17.11-.35.2-.55.27-.2.07-.41.1-.62.1s-.39-.03-.55-.08c-.16-.05-.29-.13-.4-.22-.11-.09-.21-.2-.28-.33-.07-.13-.13-.26-.18-.4-.04-.14-.08-.29-.09-.43s-.03-.3-.03-.44c0-.24.02-.5.07-.77.04-.28.11-.55.21-.82.09-.27.21-.53.36-.78.14-.25.32-.47.52-.67.2-.19.43-.34.69-.46.26-.11.55-.17.88-.17.14,0,.28.02.41.05s.25.07.36.13c.11.05.21.12.3.19.09.07.16.15.23.23l.53-2.61s.02-.07.05-.1c.03-.03.07-.05.12-.07.06-.02.13-.04.22-.05.09-.01.2-.02.34-.02s.25,0,.33.02c.09.01.15.03.2.05.05.02.08.04.09.07s.02.06.01.1l-1.45,7.27Zm-.69-3.46c-.13-.2-.27-.36-.43-.46-.16-.1-.34-.15-.55-.15-.15,0-.29.04-.42.11-.13.07-.24.17-.34.29s-.19.26-.27.42c-.08.16-.14.33-.19.51-.05.18-.09.35-.11.53-.03.18-.04.34-.04.5,0,.28.05.49.14.63.09.14.24.21.44.21.16,0,.33-.05.5-.15s.33-.23.48-.39c.15-.16.28-.36.39-.58.11-.22.2-.46.25-.72l.16-.75Z"/>
  </g>
</svg>