<?xml version="1.0" encoding="UTF-8"?>
<svg id="Layer_1" data-name="Layer 1" xmlns="http://www.w3.org/2000/svg" viewBox="0 0 500 500">
  <defs>
    <style>
      .cls-1 {
        fill: #0a7b5f;
      }

      .cls-2 {
        fill: #0b7b5f;
        stroke: #fff;
        stroke-miterlimit: 10;
      }

      .cls-3 {
        fill: #f9e5af;
      }
    </style>
  </defs>
  <g>
    <path class="cls-2" d="m119.81,147.6c.49-1.35.51-2.75.86-4.12.17-.67.36-1.21.49-1.89.04-.23.22-.65.33-.92.12-.29.15-.61.26-.87.54-1.25,1-2.64,1.36-4,.18-.68.49-1.19.86-1.82.3-.49.55-1.03.82-1.52.16-.3.24-.62.41-.92.2-.37.54-.64.78-.98.64-.88,1.44-1.69,2.25-2.42.42-.37.91-.49,1.35-.85.47-.38.94-.74,1.47-1.04.25-.14.57-.42.84-.49.28-.08.74.04,1.03,0,.63-.1,1.34-.4,1.91-.61,1.91-.67,3.84-1.33,5.68-2.16.5-.23.88-.2,1.28-.51.78-.6,1.62-1.12,2.41-1.7.75-.55,1.44-1.18,2.22-1.69.93-.6,1.9-1.15,2.82-1.78,1.69-1.16,3.26-2.95,5.25-3.58.71-.23,1.33-.7,2.06-.87.46-.11.83-.1,1.29-.27.49-.17,1.17-.34,1.46-.9.06-.12.12-.33.16-.55-.46.27-.94.53-1.41.81-2.07,1.22-4.32,1.38-6.57,2.03-.76.22-1.89.47-2.68.3-.06-.01-.16-.16-.25-.18-.13-.03-.31.04-.43.02-.35-.04-.65-.21-1-.24-.93-.08-1.93,0-2.86,0-.83,0-1.59-.23-2.41-.22-1.04.01-2.09,0-3.13,0-1.04,0-1.93-.18-2.93-.43-.89-.22-1.51,0-2.39.3-1.12.37-1.91.33-3.03.15-.84-.13-1.79-.02-2.65-.02-.31,0-.64.03-.95,0-.3-.02-.36-.15-.6-.2-.27-.06-.58.05-.85-.01-.21-.05-.32-.19-.52-.24-.24-.05-.51-.04-.76-.1-.46-.11-.55-.03-.99.06-.65.14-1.29.16-1.93.42-.69.29-1.4.53-2.11.76-1.39.46-2.58,1.16-3.89,1.73-.5.21-.64.38-1.24.38-.5,0-1.01,0-1.51,0-.97,0-1.94-.48-2.92-.11-.78.29-1.55.56-2.21,1.14-.29.25-1.65,1.34-1.91,1.01,0,.04.23.3.23.34.02-.06.03-.13.05-.19.27.03.43.41.65.57.21.15.56.16.77.31.6.44,1.23.87,1.79,1.42.62.61,1.07,1.4,1.72,2,.65.6,1.41,1.12,2.17,1.57.69.4.82.89,1.08,1.61.17.47.15.89.26,1.36.11.43.1.87.22,1.3.54,2.05.45,4.29.81,6.38.23,1.39,2.06,1.7,2.4,3.11.08.35-.01.85-.01,1.22v1.98c0,1.03,0,2.05,0,3.08,0,.83.05,1.68.23,2.47.17.74.85,1.29,1.48,1.64.12.06.23.12.34.18.04-.04.09-.09.11-.17.09-.38.06-.72.2-1.09Z"/>
    <path class="cls-2" d="m166.91,217.06c.32-.44.71-.84.97-1.31.48-.91.94-1.8,1.4-2.7.4-.79.8-1.61,1.34-2.33.33-.42.88-.64,1.33-.91.7-.42,1.19-1.12,1.73-1.73,1.07-1.22,1.79-2.76,2.94-3.89.53-.52,1.08-1.14,1.52-1.73.4-.52.78-.88,1.24-1.34.72-.72,1.61-1.63,2.51-2.12.54-.29.81-.8,1.41-1.06,1.29-.58,2.66-.94,3.95-1.54.95-.44,1.92-.79,2.89-1.18.6-.24,1.22-.43,1.81-.53.73-.13,1.46-.35,2.21-.43.74-.08,1.46-.33,2.22-.2.59.1.78.2,1.42.09,1.03-.18,1.99-.17,2.97-.59,1.33-.57,2.55-1.33,3.87-1.89,1.15-.5,2.16-1.39,3.29-1.85.62-.25,1.46-.08,2.16-.25,1.08-.27,2.06-.89,3.07-1.35,1.31-.6,2.62-1.18,3.89-1.88.82-.45,1.75-.7,2.54-1.19.9-.56,1.18-1.5,1.84-2.23.55-.6.84-1.38,1.29-2.05.47-.7,1.08-1.35,1.62-1.99.64-.76,1.51-1.18,2.23-1.85.6-.56,1.24-.92,1.93-1.33.49-.29.91-.72,1.47-.86.51-.13,1.01-.24,1.52-.39.67-.21,1.36-.44,2.05-.17.66.25,1.27.5,1.94.66.67.16,1.01.07,1.61-.16.3-.11.52-.18.76-.38.21-.17.3-.31.53-.43.27-.14.55-.22.8-.41.06-.04.2-.01.25-.07.07-.07.13-.36.2-.45.05-.07.17-.18.29-.3-.1-.14-.22-.27-.35-.38-.37-.32-.69-.57-.92-1.04-.66-1.35-.38-3.6-1.63-4.65-.62-.53-1.27-.6-1.62-1.4-.29-.68-.45-1.27-.94-1.89-.92-1.16-2.2-2.11-2.78-3.5-.54-1.28-.31-2.41-.44-3.74-.07-.75-.11-1.58-.23-2.32-.16-.97-.52-.75-1.28-.8-.67-.05-.38-.37-.82-.64-.16-.1-.9.05-1.02.07-.66.09-1.34.23-2.01.23-.6,0-.75-.21-1.26-.34-.62-.16-1.46.08-2.08.21-.7.15-1.25.57-1.89.88-.66.33-1.91.61-2.34,1.3-.69,1.1-.38,2.57-1.11,3.71-.75,1.19-1.8,2.07-2.46,3.33-.39.74-.66,1.57-1.44,2.01-.59.34-1.45.6-2.14.68-.53.06-.75-.2-1.08-.59-.39-.46-.67-.95-1.18-1.31-.53-.38-.97-.6-1.36-1.13-.22-.3-.38-.63-.68-.87-.45-.37-1-.42-1.49-.69-.83-.44-.47-1.96-.47-2.76v-3.56c0-1.42-.12-2.91,0-4.32.08-.8.29-1.76.69-2.46.31-.54.73-.88.81-1.53.14-1.16-.06-2.29-.27-3.43-.3-1.65-.16-3.18.28-4.78.32-1.16.58-2.53.21-3.69-.32-1-.96-1.86-1.3-2.85-.63-1.82-1.57-3.57-2.34-5.35-.77-1.77-1.41-3.58-2.17-5.35-.71-1.65-2.33-2.08-3.48-3.32-.44-.48-.95-.95-1.3-1.49-.29-.45-.52-.89-.88-1.29-.64-.73-1.23-1.35-1.6-2.27-.28-.67-.52-1.36-.74-2.05-.27-.84-.49-1.63-1.07-2.33-.48-.58-.92-1.1-1.31-1.75-.43-.71-.68-1.58-1.28-2.17-.4-.39-.9-.68-1.41-.9-.34-.15-.79-.07-1.09-.21-.3-.15-.49-.55-.68-.84-.64-.96-1.44-2-1.84-3.05-.16-.41-.43-.83-.8-1.02-1.49-.76-3.42-.19-4.65.82-.45.37-.81.79-1.23,1.19-.76.74-1.58,1.31-2.24,2.13-.52.65-1.19,1.2-1.77,1.8-.76.78-1.72,1.25-2.66,1.79-.93.53-1.86.91-2.85,1.33-1.14.49-2.14,1.27-3.35,1.63-1.31.39-2.44,1.14-3.41,2.09-.52.51-1.11.9-1.73,1.27-.04.22-.1.43-.16.55-.3.56-.98.73-1.46.9-.46.16-.83.16-1.29.27-.73.17-1.35.64-2.06.87-1.99.63-3.56,2.42-5.25,3.58-.92.63-1.88,1.18-2.82,1.78-.79.51-1.47,1.14-2.22,1.69-.79.58-1.63,1.11-2.41,1.7-.4.31-.78.28-1.28.51-1.84.84-3.77,1.49-5.68,2.16-.57.2-1.28.51-1.91.61-.28.04-.75-.07-1.03,0-.27.07-.59.35-.84.49-.53.3-1,.66-1.47,1.04-.44.36-.93.48-1.35.85-.81.73-1.62,1.55-2.25,2.42-.25.34-.58.61-.78.98-.17.3-.24.62-.41.92-.27.5-.52,1.03-.82,1.52-.38.62-.69,1.14-.86,1.82-.35,1.35-.82,2.74-1.36,4-.11.26-.14.58-.26.87-.11.26-.29.68-.33.92-.13.68-.31,1.22-.49,1.89-.36,1.37-.37,2.76-.86,4.12-.13.37-.11.7-.2,1.09-.02.08-.07.13-.11.17.88.46,1.72.81,2.47,1.54.8.78,1.85.97,2.87,1.24.81.22,1.52.26,2.37.27.51,0,.78-.14,1.25-.23.4-.08.92.13,1.3.22.38.09.79.3,1.12.39.45.11.91.13,1.27.48.74.72.67,2.03.9,2.98.09.39.34.93.59,1.24.29.37.74.61,1.09.97.34.34.67.78,1.08,1.04.35.22.82.37,1.04.74.34.56-.08,1.79.05,2.42.26,1.22,1.43,1.19,2.1,2.07.64.84,1.16,1.73.96,2.79-.16.85-.18,1.76-.29,2.63-.15,1.08-.59,1.98-.84,3.02-.39,1.62-.95,3.4-.49,5.05.35,1.26.63,2.79,1.78,3.52.8.51,1.67,1.01,2.53,1.41.95.44,1.91.66,2.62,1.49.63.74.96,2,1.08,2.93.24,1.86.32,3.81.26,5.69-.05,1.65-.53,3.59-.19,5.26.16.78.6,1.58.94,2.3.23.49.54,1.39,1.02,1.69,1.07.66,3.09-1.59,3.42.48.24,1.53-1.61,2.45-1.27,4.05.23,1.08.2,2.28.63,3.3.27.64.58.99,1.19,1.28.75.36,1.36.77,2,1.3,1.01.83,2.22,1.44,3.43,1.94,1,.41,2.24.73,3.15,1.31.4.26.62.59.81,1.01.35.75.75,1.29,1.27,1.94.51.64,1.09,1.46,1.78,1.98.4-.69.77-1.15,1.2-1.99.27-.53.56-1.05.92-1.54Z"/>
    <path class="cls-2" d="m271.69,191.67c-.04.34-.19.51-.23.85-.05.41-.06.7-.16,1.09-.06.24-.01.42-.04.65-.03.22-.12.3-.17.48-.2.64-.36,1.3-.69,1.9-.53.95-1.37,1.69-1.96,2.6-.75,1.15-1.81,2.16-2.58,3.32-.34.5-.84,1.08-1.28,1.48-.56.51-1.42.96-2.17.76-1.26-.34-2.86-.68-4.1-.16-.33.14-.54.03-.82.42-.21.29-.36.67-.56.98-.67,1.04-1.41,2.04-2.09,3.09-.34.52-.78,1.01-1.27,1.38-.88.67-1.66,1.42-2.39,2.24-.26.29-.44.64-.65.96-.15.23-.48.45-.61.69-.18.34,0,.59.11.86.24.55.37.69.91.88.6.21,1.14.06,1.74.2.67.16,1.18.57,1.9.62,1.4.1,2.61.01,3.25,1.54.26.63.4,1.48.53,2.15.21,1.07.53,2.17.6,3.25.08,1.25.23,2.49.37,3.73.07.62.25,1.24.28,1.86.02.45-.03.87.04,1.32.25,1.65.35,3.3.62,4.94.09.54.2,1.16.66,1.51.59.46,1.46.93,2.12,1.29.66.36,1.38.45,2.05.76.78.37,1.5.83,2.29,1.19,1.05.47,2.08.83,2.88,1.72,1.02,1.13,1.43,2.48,2.03,3.86.18.42.39.62.64.98.26.37.15,1.11.52,1.39.29.22.8-.01,1.03-.17.53-.36,1-.89,1.57-1.22,1.16-.66,2.68-1.2,4-1.18,1.5.03,3.06-.48,4.56-.21.68.12,1.26.57,1.87.87.71.35,1.46.11,2.21.25.64.12,1.13.3,1.65.71.63.49,1.32.75,1.82,1.41.88,1.15,1.79,3.08,1.57,4.6-.05.33-.09.32-.22.57-.26.53-.56,1.01-.77,1.6-.34.94-.68,1.91-1.25,2.75-.3.44-.72.67-.55,1.23.07.21.39.62.59.76.29.2.96.29,1.3.37.41.1.88.19,1.31.21.86.05,1.73-.24,2.54.04.42.15,1.13.63,1.69.96.04-.11.08-.21.14-.32.21-.38.55-.64.85-.94.51-.51,1.07-1.3,1.67-1.71.55-.38,1.35-.31,1.98-.47.43-.11.9-.2,1.32-.36,1.19-.43,2.31-1.06,3.49-1.52,1.05-.41,2.16-.62,3.18-1.09.83-.38,1.68-.78,2.54-1.09.49-.18.91-.26,1.34-.53,1.48-.92,3.26-1.38,4.82-2.16.86-.44,1.74-.96,2.53-1.51.63-.44,1.35-.78,1.91-1.31.24-.23.51-.49.68-.79.26-.45.31-1.03.69-1.41.51.35.72.96,1.08,1.44.46.61.84,1.26,1.46,1.75.43.34.89.53,1.28.9.54.5.97,1.03,1.25,1.73.27.68.44,1.42.65,2.11.16.53.4.81.65,1.29.26.48.58.89.86,1.35.18.29.48.97.87,1.01.1-.82.99-1.8,1.48-2.45.76-1.01,1.11-2.25,2.14-3.03.26-.2.47-.33.76-.48.31-.16.41-.37.67-.58.23-.18.51-.25.74-.44.23-.2.43-.44.64-.66.45-.45,1.02-.83,1.41-1.29.36-.42.7-.96,1.03-1.41.41-.57.99-1.04,1.3-1.68.27-.55.5-1.16.83-1.68.51-.82,1.14-1.59,1.73-2.36.55-.72,1.12-1.48,1.86-2.01.36-.26.85-.4,1.2-.74.27-.27.59-.71.81-1.03.24-.34.21-.68.36-1.04.08-.19.28-.36.37-.59.08-.22.15-.43.24-.65.13-.31.25-.61.38-.92-.05-.07-.11-.14-.16-.21-.44-.52-.77-.91-1.08-1.52-.61-1.22-1.61-2.29-2.33-3.46-.83-1.33-1.19-2.63-1.51-4.15-.25-1.21-.44-2.19.15-3.3.28-.54.68-.82,1.05-1.29.35-.45.64-.96.97-1.42.48-.66.91-1.31,1.34-2,1.35-2.21,3.23-4.09,4.61-6.3.67-1.07,1.27-2.31,1.78-3.47.38-.85,1.05-1.85,1.08-2.79.06-1.43.04-2.92,0-4.35-.03-1.11-.69-1.8-1.47-2.52-.69-.63-1.47-.96-2.24-1.46-.41-.26-.62-.52-.59-1.07.07-1.24,1.05-2.42,1.49-3.52.21-.52.41-1.04.64-1.56.18-.43.52-.97.62-1.42.07-.33,0-.62.02-.95.03-.44.19-.86.29-1.29.25-1.17.28-2.52-.11-3.66-.25-.74-.55-1.57-.86-2.29-.14-.31-.34-.69-.59-.93-.31-.29-.73-.37-1.05-.66-.66-.61-.82-1.61-1.34-2.32-.62-.85-1.42-1.52-2.02-2.41-.61-.89-.69-1.95-1.48-2.75-.56-.58-1.43-.86-1.87-1.56-.36-.57-.41-1.47-.48-2.12-.06-.57-.12-1.48-.49-1.95-.2-.25-.54-.82-.79-.92-.22-.08-.98.03-1.1.05-1.29.13-2.55.49-3.84.59-1,.08-2.19.12-3.04-.5-.49-.36-.89-.97-1.33-1.41-.79-.81-1.84-.89-2.71-1.55-.72-.55-1.12-1.45-1.77-2.08-.89-.87-2.14-1.05-3.29-1.39-.67-.2-.85-.58-1.52-.17-.37.23-.54.48-.7.87-.18.42-.27.86-.42,1.3-.24.69-.8.88-1.3,1.34-.81.75-1.76,1.19-2.65,1.85-.64.47-1.37.85-1.99,1.33-1.38,1.07-2.55,2.21-3.5,3.68-.42.66-1.21,1.48-1.95,1.8-.48.21-.99-.02-1.47-.23-.59-.25-1.16-.72-1.78-.89-.55-.15-1.34-.08-1.89.01-1.29.22-2.48.68-3.67,1.25-.55.26-1.08.56-1.56.91-.42.31-.69.75-1.06,1.08-.83.74-2.01,1.27-3.05,1.51-.68.16-1.3.62-1.94.87-.74.29-1.37.67-2.12.86-.65.16-1.36-.41-1.99-.1l-.22.05c-1.29.24-2.64-.45-3.9,0-.75.27-1.42,1.09-2.03,1.6-.65.53-1.03,1.14-1.6,1.74-.78.82-1.69,1.6-2.52,2.37-1.02.95-2.03,1.78-3.16,2.58-1.09.77-1.95,1.77-2.99,2.61-.7.57-1.26.88-2.15,1.03-.83.14-1.48.75-2.27.89-.23.04-.42.01-.61-.04-.06.33-.05.62-.15,1.05-.1.41-.17.66-.22,1.09Z"/>
    <path class="cls-2" d="m229.41,286.99s.03-.03.04-.04c-.03,0-.04.02-.04.04Z"/>
    <path class="cls-2" d="m339.13,370.32c.12-.16.27-.29.39-.44.63-.79,1.18-.94,2.17-1.08.58-.08,1.16-.27,1.75-.37.67-.12,1.5-.16,1.93-.76.5-.7.44-1.16.03-1.89-.4-.72-1.03-1.41-1.62-1.99-.38-.38-.7-.65-1.15-.93-.17-.1-.36-.2-.48-.36-.24-.33-.34-1.07-.43-1.47-.15-.64-.26-1.27-.27-1.93-.02-2.93-.29-5.88-1.4-8.64-.44-1.09-.68-2.24-1.16-3.31-.71-1.56-2.16-2.49-3.32-3.69-.52-.54-1.07-.8-1.72-1.16-.63-.35-1.08-.87-1.46-1.49-.76-1.27-1.26-2.7-.99-4.17.16-.88.43-1.76.77-2.59.21-.51.35-1.12.61-1.6.77-1.42,2.69-1.55,3.94-2.31,1.26-.77,2.22-2.08,3.11-3.24.9-1.18,1.71-2.49,2.39-3.82.53-1.04.75-2.39.75-3.55,0-.35.05-.7-.05-1.03-.06-.2-.21-.32-.18-.6.22.25.48-.07.67-.21.57-.43.95-.43,1.68-.55,1.24-.2,2.41-.68,3.51-1.27,1.88-1.02,3.58-2.27,4.87-3.99.35-.46.58-.93.86-1.43.35-.63.78-1.14,1.06-1.81.58-1.36,1.2-2.55,1.51-4.02.13-.62.25-1.24.38-1.86.14-.67.07-1.34.21-2,.22-1.06-.18-1.98-.28-3.02-.06-.68.01-1.41.01-2.1,0-.89-.1-1.38.59-2,.77-.69,1.56-1.34,2.23-2.12.55-.64,1.32-.98,1.88-1.59.65-.71,1.1-1.77,1.61-2.59.56-.9,1.22-1.96,1.53-2.99.23-.79-.02-1.63.34-2.37.24-.5.7-.86,1-1.32.26-.41.53-.76.82-1.15.48-.65.95-1.33,1.29-2.07.34-.74-.12-.6-.61-.99-.44-.35-.84-1.05-1.03-1.55-.21-.55-.16-.78.17-1.24.42-.57.79-1.19,1.19-1.78.35-.52.63-1.24,1.17-1.58.3-.19.84-.43,1.21-.43.45,0,.69.32,1.2.23,1.06-.19,2.28-.67,3.24-1.22.66-.38,1.13-.93,1.71-1.39.57-.45,1.15-.93,1.73-1.38.5-.38.99-.61,1.4-1.1.33-.4.68-.72,1.08-1.02.68-.52,1.14-1.29,1.74-1.9.46-.47.86-.98,1.25-1.51.6-.82,1.08-1.59,1.4-2.54.3-.92.6-1.85.6-2.86,0-.54-.02-1.08,0-1.62,0-.23.06-.35.11-.54.06-.22.06-.41.1-.65.05-.29.15-.56.26-.82-.22-.11-.31-.21-.54-.52-.4-.53-.94-.65-1.54-.87-.49-.16-.97-.36-1.42-.6-.14-.13-.24-.29-.28-.47-.37-.5-.85-.7-1.46-.79-1-.14-1.74.22-2.41-.66-.37-.48-.8-.91-1.24-1.33-.55-.51-1.2-.95-1.72-1.49-.12-.21-.27-.39-.44-.56-.42-.15-.84-.26-1.29-.31-.6-.14-1.39-.3-1.88-.71-.52-.44-.68-.66-1.35-.97-.49-.22-1.09-.37-1.49-.74-.49-.46-.75-1.07-1.36-1.43-.58-.35-1.29-.36-1.86-.69-.33-.19-.48-.44-.74-.7-.38-.37-.84-.58-1.27-.87-.55-.38-1.2-.61-1.72-1.02-.74-.57-1.17-.62-2.15-.65-1.04-.03-2.05-.21-3.1-.23-.87-.01-1.64.03-2.49.22-.61.14-1.37.4-2.01.21-.51-.15-.8-.62-1.11-1.02-.12.31-.25.62-.38.92-.09.22-.16.43-.24.65-.09.23-.28.39-.37.59-.15.35-.12.7-.36,1.04-.22.31-.54.76-.81,1.03-.35.35-.84.48-1.2.74-.74.53-1.31,1.29-1.86,2.01-.58.77-1.22,1.54-1.73,2.36-.33.52-.55,1.12-.83,1.68-.31.64-.89,1.11-1.3,1.68-.33.45-.67.99-1.03,1.41-.39.46-.96.84-1.41,1.29-.21.21-.41.46-.64.66-.23.2-.52.26-.74.44-.26.21-.36.41-.67.58-.29.15-.5.28-.76.48-1.02.79-1.38,2.03-2.14,3.03-.49.65-1.38,1.63-1.48,2.45-.39-.04-.69-.72-.87-1.01-.28-.46-.61-.86-.86-1.35-.25-.48-.49-.76-.65-1.29-.21-.69-.38-1.43-.65-2.11-.28-.7-.72-1.23-1.25-1.73-.4-.37-.85-.56-1.28-.9-.62-.49-1-1.14-1.46-1.75-.36-.48-.57-1.09-1.08-1.44-.38.38-.43.96-.69,1.41-.17.3-.44.56-.68.79-.56.53-1.29.87-1.91,1.31-.79.55-1.67,1.07-2.53,1.51-1.55.79-3.34,1.25-4.82,2.16-.43.27-.85.35-1.34.53-.86.31-1.71.71-2.54,1.09-1.02.47-2.13.68-3.18,1.09-1.18.46-2.3,1.09-3.49,1.52-.43.15-.89.25-1.32.36-.62.16-1.43.09-1.98.47-.6.41-1.16,1.2-1.67,1.71-.3.3-.64.57-.85.94-.06.1-.1.21-.14.32.19.11.36.21.5.27-.14-.06-.31-.16-.5-.27-.33.94.03,2.04.61,2.82.67.9,1.81,1.58,2.39,2.54.51.85-.26,1.95-.95,2.44-.57.4-1.08.77-1.61,1.25-.38.34-.5.48-.97.53-.59.07-1.18.15-1.78.26-1.13.21-2.05.63-3.21.61-.65-.02-1.2-.06-1.68.45-.23.24-.38.63-.54.9.02-.04-.56.71-.57.84-.15,1.26,2.87,1.45,3.67,1.9,1.25.7,1.88,1.86,1.94,3.29.03.75-.29,1.33-.86,1.83-1.04.92-2.17.05-3.27-.32-1.14-.39-2.29-.43-3.42-.89-1.06-.43-2.07-1.08-3.24-1.12-.86-.02-1.57.33-2.39.53-.64.16-1.15.21-1.73.54-.61.35-1.24.71-1.83,1.1-.93.62-1.68,1.7-2.75,2.09-.46.17-.99.19-1.46.34-.72.23-1.35.48-2.09.62-1.09.2-3.51-.19-3.74,1.31-.15.96.67,2,1.28,2.64.62.66,1.26,1.12,2.1,1.44,1.77.67,3.46,1.34,5.09,2.31.93.56,2.04,1.23,2.76,2.05.61.69,1.04,1.55,1.76,2.14.69.58,1.6.88,2.47,1.06,1.07.22,2.24.63,3.33.66.79.02,1.7-.24,2.4.23.52.35.81.99,1.16,1.48.42.61.71,1.01.35,1.74-.44.89-1.17,1.54-1.93,2.16-.65.53-1.17,1.19-1.66,1.86-.31.42-1.03,1.02-.94,1.6.01.1.22.4.24.46.1.26.13.56.2.83.37,1.27,1.45,2.05,2.11,3.15.54.9.95,1.87,1.31,2.85.17.46.38,1,.19,1.51-.27.72-1.39,1.48-2.08,1.64-1.07.25-2.1.1-3.15.55-.77.33-1.44.7-2.24.94-.59.18-.88.56-.95,1.18-.06.49.02,1.01-.04,1.51-.06.51-.2,1.05-.21,1.55,0,.97,1.05,1.89,1.82,2.36.86.53,1.61.65,2.59.67.98.01,2.46.5,3.31.97,1.25.68,1.55,2.11,2.05,3.33.52,1.27.82,2.49.6,3.87-.15.94-.33,1.89-.61,2.8-.25.83-.59,1.73-.65,2.58-.08,1.07-.52,2.02-.88,3.02-.26.7.09,1.05.21,1.78.17,1.06-.65,2.2-1.41,2.84-.82.69-1.85,1.07-2.71,1.71-.88.66-1.92,1.35-2.94,1.74-.36.14-.71.21-1.02.46-.55.45-.6.73-1.34.9-1.36.3-2.39,1.2-3.37,2.17.13.42.18.76.54,1.12.18.17.35.35.53.53.32.33.46.3.92.31.54,0,1.02-.26,1.54-.39.27-.07.6-.27.91-.32.42-.07.84-.17,1.27-.17.91.01,1.77-.24,2.59-.66.72-.37,1.37-.03,2.11-.21.34-.08.42-.23.83-.15.33.07.52.21.74.48.37.47.66.98.84,1.58.18.59.32,1.2.74,1.66.54.61,1.27.6,1.96.99,1.38.78,2.44,2.05,3.3,3.35.63.96,1.56,2.26,2.76,2.56.49.12,1.16.06,1.62-.14.33-.15.62-.35.93-.54.25-.16.55-.23.78-.38.22-.14.37-.37.61-.51.27-.15.56-.21.83-.33.61-.28,1.19-.69,1.75-1.06.51-.34,1.04-.52,1.58-.79.58-.28,1.12-.81,1.77-.94.55-.11.65.19,1.06.5.72.53,1.78.76,2.64.91,2.09.38,3.93,1.38,5.76,2.38.42.23.78.13,1.21.23.66.16,1.41.83,1.98,1.2.7.46,1.44.68,2.1,1.22.97.8,2.1,1.43,2.98,2.32.41.42.88,1.06,1.39,1.38.68.42,1.08-.08,1.73-.11.51-.02,1,.32,1.47.42,1.12.25,2.11-.57,3.22-.38.42.07.74.26,1.13.42.5.2.98.18,1.51.17.32,0,.62-.04.93-.08,0-.15,0-.3.06-.44,0,.01.44-.47.44-.48Z"/>
    <path class="cls-2" d="m425.03,381.51c-.1-.46-.26-.95-.4-1.41-.17-.55-.51-1.12-.66-1.74-.31-1.25-.86-2.44-1.19-3.69-.3-1.17-.73-2.34-.88-3.55-.17-1.36-.22-2.71-.6-4.04-.1-.33-.19-.73-.34-1.04-.27-.55-.74-1-1.03-1.53-.36-.68-.75-1.39-1.05-2.11-.15-.37-.34-.71-.47-1.09-.2-.58-.6-1-.89-1.53-.21-.39-.33-.81-.59-1.18-.28-.4-.61-.74-.86-1.15-.43-.72-.7-1.18-.7-2.04,0-1.03.19-2.06.32-3.07.07-.51,0-1.02.08-1.53.09-.7.19-1.31.1-2.01-.38-2.83-.58-5.68-.66-8.54-.02-.79-.08-1.78-.48-2.46-.37-.63-1.02-1.11-1.47-1.69-.82-1.06-2.15-2.01-2.41-3.4-.11-.58.02-1-.26-1.54-.49-.95-.68-1.73-.83-2.8l-.39-.84c-.09-.17-.33-.31-.48-.39-.35-.18-.68-.35-1.02-.57-.5-.33-1.01-.81-1.44-1.22-.56-.53-1.22-.89-1.93-1.23-1.22-.59-2.23-1.66-3.33-2.41-.32-.22-.65-.45-.96-.7-.46-.38-.68-.69-.92-1.23-.71-1.58.35-3.26.62-4.83.21-1.2.21-2.37.21-3.58,0-.57.1-1.25-.03-1.8-.11-.46-.5-.86-.84-1.18-.8-.74-1.67-1.39-2.45-2.17-.52-.51-.98-1.51-1.19-2.21-.21-.71-.39-1.18-.39-1.92,0-.93.39-1.69.7-2.55.29-.79.51-1.45.66-2.27.11-.6.04-1.25.04-1.85,0-.43.16-1.21-.21-1.54-.08-.07-.38-.11-.49-.16-.18-.08-.35-.19-.52-.27-.39-.18-.7-.4-1.06-.62-.29-.18-.55-.24-.74-.55-.31-.48-.54-1.16-.71-1.71-.5-1.63-.41-3.38-.47-5.06-.03-.78-.29-1.58-.19-2.36.06-.46.34-.91.53-1.35.33-.76.65-1.51.88-2.3.1-.33.27-.72.18-1.08-.13-.54-.52-.34-.85-.56l.1-1.07c.42-.98.04-1.8-.27-2.76-.28-.86-.04-1.71-.15-2.59-.09-.73-.18-1.19-.07-1.96.07-.49.1-.95.21-1.43.4-1.78.73-3.59,1.2-5.35.09-.35.32-.68.38-1.04.05-.28-.01-.58.04-.87.08-.22.14-.45.19-.68-.02-.11-.08-.18-.19-.22-.06-.36,0-.69-.03-1.06-.09-1.15-1.15-.83-1.78-1.44-.47-.45-.62-1.6-.77-2.22-.11-.45-.15-.92-.48-1.25-.26-.27-.44-.33-.69-.7-.55-.79-1.28-.62-2.13-.85-.61-.17-1.18-.43-1.75-.67-.16-.07-.28-.12-.37-.16-.11.26-.21.53-.26.82-.04.24-.04.43-.1.65-.05.19-.1.31-.11.54-.02.54,0,1.08,0,1.62,0,1-.29,1.94-.6,2.86-.32.96-.79,1.72-1.4,2.54-.39.53-.79,1.04-1.25,1.51-.6.61-1.06,1.38-1.74,1.9-.39.31-.74.62-1.08,1.02-.41.49-.91.72-1.4,1.1-.58.45-1.16.93-1.73,1.38-.58.45-1.05,1-1.71,1.39-.96.55-2.18,1.03-3.24,1.22-.51.09-.75-.23-1.2-.23-.37,0-.91.24-1.21.43-.54.34-.82,1.05-1.17,1.58-.4.59-.77,1.22-1.19,1.78-.34.46-.38.69-.17,1.24.19.5.59,1.2,1.03,1.55.49.39.95.25.61.99-.34.74-.81,1.42-1.29,2.07-.29.39-.56.74-.82,1.15-.3.46-.75.82-1,1.32-.36.74-.11,1.59-.34,2.37-.31,1.03-.97,2.08-1.53,2.99-.51.82-.96,1.88-1.61,2.59-.56.61-1.33.95-1.88,1.59-.68.78-1.47,1.43-2.23,2.12-.69.62-.59,1.11-.59,2,0,.69-.07,1.41-.01,2.1.1,1.05.5,1.96.28,3.02-.14.66-.07,1.33-.21,2-.13.62-.25,1.24-.38,1.86-.31,1.47-.93,2.67-1.51,4.02-.29.67-.71,1.18-1.06,1.81-.28.5-.51.97-.86,1.43-1.29,1.72-2.99,2.97-4.87,3.99-1.1.6-2.27,1.08-3.51,1.27-.72.12-1.11.12-1.68.55-.19.15-.45.46-.67.21-.03.28.13.4.18.6.09.34.05.68.05,1.03,0,1.16-.21,2.52-.75,3.55-.68,1.33-1.49,2.63-2.39,3.82-.88,1.16-1.84,2.47-3.11,3.24-1.25.76-3.17.9-3.94,2.31-.26.48-.4,1.09-.61,1.6-.35.82-.61,1.71-.77,2.59-.27,1.47.23,2.9.99,4.17.37.63.83,1.14,1.46,1.49.64.36,1.19.62,1.72,1.16,1.16,1.2,2.61,2.12,3.32,3.69.49,1.07.72,2.23,1.16,3.31,1.12,2.76,1.38,5.7,1.4,8.64,0,.65.12,1.29.27,1.93.09.4.19,1.14.43,1.47.12.16.32.26.48.36.45.27.76.54,1.15.93.59.59,1.22,1.27,1.62,1.99.41.73.47,1.19-.03,1.89-.43.6-1.26.64-1.93.76-.59.1-1.17.29-1.75.37-.99.14-1.54.29-2.17,1.08-.12.15-.27.29-.39.44,0,0-.45.49-.44.48-.06.14-.06.29-.06.44.47-.06.95-.13,1.44-.11.34.01.36.02.63.17.42.23.53.31,1.07.39,1.34.21,2.96.59,3.65,1.88.29.55.46,1.17.76,1.7.29.52.71.79,1.18,1.12.62.44,1.09.72,1.85.89,1,.22,2.03.25,3.05.38.37.05.9.23,1.28.09.18-.06.33-.21.52-.28.44-.17.96-.22,1.41-.07.65.22.73.76,1.19,1.18.53.49,1.41.62,1.78,1.28.14.26.21.59.32.86.21.48.53.77.92,1.09.68.57,1.48.94,2.11,1.54.67.63,1.67.82,2.41,1.39,1.61,1.25,3.45,1.86,5.28,2.69.51.23.84.16,1.38.04.42-.1.77-.21,1.16-.39.56-.27.51-.4.71-.92.34-.88,1.52-1.5,2.27-2.03.59-.43.99-1.29,1.76-1.29.52,0,1,.24,1.51.33.68.12,1.05.26,1.68.57.82.4,1.61.52,2.49.7.85.18,1.57.57,2.39.79.54.15,1.11.12,1.67.22.42.08.83,0,1.25.06.66.09,1.38.29,2.02.49.53.16,1.13.4,1.43.91.3.52.13.99.04,1.53-.08.45.04.66.11,1.09.12.76-.14,1.65-.15,2.42,0,.47,0,.8.21,1.24.33.69.74,1.11.65,1.93-.1.88-.15,1.7-.15,2.59,0,1.65-1.27,4.82,1.04,5.45,1.06.29,1.91-.29,2.09-1.36.09-.54.02-1.13.02-1.67,0-.8.05-1.6-.04-2.39-.18-1.58.1-2.95.56-4.47.16-.53.34-1.05.67-1.5.35-.5.43-.74.59-1.33.2-.75,1.39-1.8,2.21-1.78.71.02,1.29.86,2,.66,1.18-.32,1.7-1.41,1.95-2.49.12-.51.43-1.32,1.05-1.37.24-.02.51.18.73.24.55.16,1.04.12,1.5.53.48.44.79,1.05,1.27,1.5.61.58,1.39,1,2.1,1.45.81.51,1,1.74,2.09,1.76.64.01.89.18,1.39.47.38.22.55.43.87.7.12.1.24.15.35.27.22.24.35.53.57.77.16.18.37.34.53.52.36.42.53.99.88,1.41.35.42.89.61,1.36.84.6.29,1.06.62,1.58,1.07.6.51.92,1.3,1.58,1.78.46.33,1.09.32,1.58.69.56.43.53,1.17.88,1.75.05-.32-.13-.53-.19-.82-.07-.39.03-.84,0-1.23-.03-.53-.18-1-.18-1.54,0-.18-.02-.38,0-.56.02-.27.14-.44.19-.7.06-.33,0-.75,0-1.09,0-.45.16-.77.18-1.19.05-1.07.49-2.1.72-3.16.2-.95.58-1.84.69-2.8.03-.26-.02-.48.03-.74.05-.29.14-.5.14-.8,0-.5.15-.95.18-1.44.02-.41,0-.82,0-1.23,0-.44.13-.76.18-1.19.05-.38-.1-.87-.18-1.23Z"/>
    <path class="cls-2" d="m217.63,278.01c.2-.49.34-1.01.48-1.51.14-.52.44-.93.7-1.41.69-1.25,1.48-2.41,2.17-3.68,1.07-1.97,3.05-3.33,4.13-5.33.85-1.57,1.84-3.33,2.19-5.09.14-.7.26-1.39.37-2.09.14-.93.5-1.42,1.04-2.17.94-1.33,1.88-2.47,2.22-4.1.43-2.11.43-4.29.75-6.42.16-1.07.26-2.07.65-3.08.23-.6.43-1.2.7-1.79.33-.73.72-1.23,1.42-1.62.88-.48,1.54-.73,2.17-1.56.94-1.25.8-2.67.96-4.13.16-1.37.5-2.67.8-4.01.43-1.93.58-3.93.71-5.88.06-.85.23-1.72.46-2.55.21-.73.3-1.43.43-2.18.42-2.41,1.01-4.84.17-7.23-.23-.66-.53-1.13-.92-1.67-.19-.26-.29-.43-.37-.75-.17-.64-.34-.94-.76-1.48-.29-.36-.69-.46-.96-.77-.16-.19-.18-.5-.28-.72-.3-.68-.54-1.37-.79-2.06-.4-1.1-.43-2.28-.98-3.35-.58-1.14-2.04-1.58-2.94-2.38-.47-.42-1.36-1.02-1.3-1.73.04-.47.45-.85.71-1.23.79-1.14,1.9-1.96,2.98-2.82.49-.39.92-.71,1.39-1.12.68-.6,1.28-1.37,1.84-2.11.64-.85,1.27-1.67,1.87-2.55.2-.29.48-.46.67-.72.25-.35.28-.67.65-.95.32-.24.67-.4,1.03-.59.37-.2.44-.35.74-.65.26-.26.39-.33.59-.64.21-.32.39-.67.6-.99.81-1.21,1.57-2.32,2.71-3.23.55-.44,1.01-.42,1.67-.59.48-.12,1.14-.5,1.51-.87.41-.42.71-.86,1.08-1.3.1-.12.18-.33.26-.52-.23-.19-.43-.41-.67-.72-.43-.54-1.01-.94-1.68-1.07-.6-.11-1.13-.37-1.73-.5-.46-.1-.96-.08-1.32-.41-.16-.14-.2-.49-.43-.6-.22-.1-.86.16-.93.18-.91.28-2.59,1.06-3.46.55-.43-.25-.66-.7-.97-1.1-.13.12-.25.24-.29.3-.07.09-.13.38-.2.45-.05.05-.19.02-.25.07-.25.18-.52.26-.8.41-.23.12-.32.27-.53.43-.24.19-.46.26-.76.38-.61.23-.95.32-1.61.16-.68-.16-1.28-.4-1.94-.66-.69-.26-1.37-.04-2.05.17-.51.16-1.01.27-1.52.39-.56.14-.98.56-1.47.86-.69.41-1.33.78-1.93,1.33-.72.67-1.59,1.09-2.23,1.85-.54.65-1.15,1.3-1.62,1.99-.46.68-.75,1.45-1.29,2.05-.66.73-.94,1.67-1.84,2.23-.79.49-1.72.74-2.54,1.19-1.27.69-2.58,1.28-3.89,1.88-1.01.46-1.99,1.09-3.07,1.35-.69.17-1.53,0-2.16.25-1.14.46-2.15,1.35-3.29,1.85-1.32.57-2.54,1.33-3.87,1.89-.99.42-1.94.41-2.97.59-.64.11-.84,0-1.42-.09-.75-.13-1.47.11-2.22.2-.75.08-1.48.3-2.21.43-.59.1-1.21.29-1.81.53-.97.39-1.94.74-2.89,1.18-1.29.6-2.66.97-3.95,1.54-.59.27-.87.77-1.41,1.06-.9.48-1.79,1.4-2.51,2.12-.46.46-.84.81-1.24,1.34-.45.59-.99,1.21-1.52,1.73-1.15,1.13-1.87,2.66-2.94,3.89-.53.61-1.03,1.31-1.73,1.73-.45.27-1,.49-1.33.91-.55.72-.94,1.54-1.34,2.33-.46.91-.92,1.8-1.4,2.7-.25.48-.65.87-.97,1.31-.36.5-.65,1.02-.92,1.54-.43.83-.8,1.29-1.2,1.99.12.09.24.17.36.24,2.24,1.23,5.15,2.31,6.3,4.76.38.81.93,1.33,1.5,1.98.76.87,1,1.71,1.35,2.77.25.74.37,1.47.59,2.22.37,1.27,1.23,1.4,2.38,1.88.03-.13,0-.09.12-.18.29.12.59.31.88.46.36.18.8.17,1.08.5.73.86.98,2.16.98,3.23,0,.71-.03,1.43,0,2.15.03.68.27,1.26.52,1.88.23.56.76,1.2,1.15,1.67.37.45.52.99.82,1.48.3.49.69.94.97,1.44.42.75.61,1.64,1,2.42.96,1.89,1.05,4.03,1.88,5.96.34.78.82,1.36,1.53,1.8.69.42.99.92,1.35,1.61.29.57.67,1.07.86,1.7.1.36.22.66.4,1,.19.36.49.56.71.9.45.69.83,1.48,1.14,2.25.24.59.64,1.12.92,1.71.23.48.44.8.44,1.34-.01,1.17-.15,2.46.04,3.61.13.79.14,1.53.14,2.32,0,.24.01.49,0,.74-.01.38-.16.7-.19,1.08-.01.25.04.51.02.76-.04.32-.22.61-.19.93.03.3.16.97.53,1.06.24.06.64-.15.86-.22.67-.22,1.28-.39,1.96-.53.81-.16,1.66-.61,2.39-1,.78-.42,1.46-.76,1.46-1.73,0-.33.07-.55.13-.87.04-.23,0-.75.25-.89.33-.19.53.28.7.46.22.22.5.48.77.64.66.42,1.25.29,1.78.97.6.77.57,1.39.57,2.33,0,.41,0,.82,0,1.23,0,.31-.11.89,0,1.19.21.58,1.13.52,1.61.52.71,0,1.32-.03,2.01-.17.51-.1,1.09-.32,1.61-.36.85-.07,1.66-.37,2.48.09.44.25,1,.5,1.38.83.4.35.73.68,1.16.94.33-.4.68-.87.98-1.2.62-.71.85-1.58,1.19-2.45Z"/>
    <path class="cls-2" d="m282.8,351.56c.31-.25.66-.32,1.02-.46,1.02-.4,2.07-1.08,2.94-1.74.86-.65,1.89-1.03,2.71-1.71.76-.63,1.58-1.77,1.41-2.84-.12-.73-.46-1.09-.21-1.78.37-1,.81-1.95.88-3.02.06-.86.4-1.76.65-2.58.28-.91.46-1.86.61-2.8.22-1.38-.08-2.6-.6-3.87-.49-1.22-.8-2.65-2.05-3.33-.85-.46-2.33-.95-3.31-.97-.98-.01-1.73-.13-2.59-.67-.77-.47-1.82-1.4-1.82-2.36,0-.51.15-1.05.21-1.55.05-.49-.02-1.02.04-1.51.08-.62.36-1,.95-1.18.8-.24,1.47-.61,2.24-.94,1.05-.45,2.08-.31,3.15-.55.69-.16,1.81-.92,2.08-1.64.19-.51-.02-1.05-.19-1.51-.36-.98-.77-1.95-1.31-2.85-.66-1.1-1.74-1.88-2.11-3.15-.08-.27-.1-.57-.2-.83-.02-.06-.23-.36-.24-.46-.09-.58.63-1.18.94-1.6.5-.67,1.02-1.33,1.66-1.86.75-.62,1.48-1.27,1.93-2.16.36-.72.08-1.12-.35-1.74-.34-.5-.64-1.14-1.16-1.48-.7-.46-1.62-.21-2.4-.23-1.09-.03-2.26-.44-3.33-.66-.87-.18-1.78-.48-2.47-1.06-.71-.6-1.15-1.45-1.76-2.14-.72-.82-1.83-1.49-2.76-2.05-1.63-.97-3.32-1.64-5.09-2.31-.84-.32-1.49-.78-2.1-1.44-.61-.64-1.42-1.68-1.28-2.64.23-1.5,2.65-1.11,3.74-1.31.74-.14,1.37-.39,2.09-.62.47-.15,1-.18,1.46-.34,1.07-.39,1.82-1.47,2.75-2.09.59-.39,1.22-.75,1.83-1.1.59-.33,1.1-.39,1.73-.54.82-.2,1.54-.56,2.39-.53,1.17.03,2.18.69,3.24,1.12,1.14.46,2.28.5,3.42.89,1.1.38,2.23,1.24,3.27.32.57-.5.89-1.09.86-1.83-.06-1.43-.7-2.59-1.94-3.29-.8-.45-3.82-.64-3.67-1.9.02-.13.6-.88.57-.84.16-.27.31-.66.54-.9.48-.51,1.02-.47,1.68-.45,1.16.03,2.08-.4,3.21-.61.59-.11,1.18-.19,1.78-.26.47-.05.6-.19.97-.53.53-.47,1.04-.84,1.61-1.25.69-.49,1.47-1.59.95-2.44-.58-.96-1.72-1.65-2.39-2.54-.58-.78-.94-1.87-.61-2.82-.56-.34-1.26-.82-1.69-.96-.81-.28-1.68,0-2.54-.04-.42-.02-.9-.12-1.31-.21-.34-.08-1.01-.18-1.3-.37-.2-.13-.53-.55-.59-.76-.17-.56.24-.78.55-1.23.57-.83.9-1.81,1.25-2.75.22-.59.51-1.07.77-1.6.13-.26.17-.24.22-.57.22-1.52-.69-3.44-1.57-4.6-.5-.65-1.19-.91-1.82-1.41-.52-.41-1.01-.58-1.65-.71-.75-.14-1.49.1-2.21-.25-.61-.3-1.19-.75-1.87-.87-1.5-.27-3.06.23-4.56.21-1.32-.02-2.84.51-4,1.18-.56.32-1.04.86-1.57,1.22-.24.16-.74.4-1.03.17-.37-.28-.26-1.02-.52-1.39-.25-.36-.46-.56-.64-.98-.6-1.38-1.01-2.73-2.03-3.86-.81-.89-1.84-1.25-2.88-1.72-.79-.36-1.52-.82-2.29-1.19-.67-.32-1.4-.4-2.05-.76-.66-.36-1.53-.83-2.12-1.29-.46-.36-.56-.97-.66-1.51-.28-1.64-.37-3.29-.62-4.94-.07-.45-.01-.87-.04-1.32-.03-.62-.21-1.24-.28-1.86-.14-1.24-.29-2.48-.37-3.73-.07-1.08-.39-2.18-.6-3.25-.13-.67-.27-1.52-.53-2.15-.64-1.53-1.85-1.44-3.25-1.54-.71-.05-1.23-.46-1.9-.62-.59-.14-1.14.01-1.74-.2-.54-.19-.67-.33-.91-.88-.12-.26-.29-.52-.11-.86.12-.23.45-.46.61-.69.21-.32.4-.67.65-.96.72-.82,1.51-1.57,2.39-2.24.49-.37.93-.87,1.27-1.38.68-1.04,1.42-2.05,2.09-3.09.2-.31.35-.69.56-.98.28-.38.49-.28.82-.42,1.24-.52,2.84-.17,4.1.16.75.2,1.61-.26,2.17-.76.44-.4.95-.97,1.28-1.48.77-1.16,1.83-2.16,2.58-3.32.59-.91,1.43-1.65,1.96-2.6.33-.6.49-1.26.69-1.9.05-.17.15-.26.17-.48.03-.24-.02-.41.04-.65.1-.39.11-.68.16-1.09.04-.35.19-.51.23-.85.05-.42.12-.67.22-1.09.1-.43.09-.72.15-1.05-.3-.08-.57-.22-.92-.26-.34-.04-.57.05-.87-.2-.1-.09-.15-.33-.28-.41-.12-.07-.43-.03-.56-.05-.46-.1-.81-.37-1.21-.64-1.07-.71-1.53-1.69-2.04-2.8-.21-.46-.54-.85-.74-1.32-.49-1.17-1.12-2.59-2.11-3.44-.49-.43-.91-.8-1.35-1.3-.6-.68-1.06-.84-1.98-.87-.73-.02-1.47.02-2.2.02-.85,0-1.67.17-2.5.18-1.29.03-2.27-1.04-3.35-1.57-.33-.16-.57-.31-.78-.49-.08.19-.16.4-.26.52-.37.44-.67.88-1.08,1.3-.36.37-1.03.75-1.51.87-.66.17-1.12.14-1.67.59-1.13.91-1.9,2.03-2.71,3.23-.21.32-.39.67-.6.99-.21.3-.34.38-.59.64-.3.3-.37.45-.74.65-.36.19-.71.35-1.03.59-.37.28-.41.6-.65.95-.19.26-.47.43-.67.72-.6.88-1.23,1.7-1.87,2.55-.56.75-1.16,1.51-1.84,2.11-.47.42-.91.74-1.39,1.12-1.08.86-2.19,1.68-2.98,2.82-.26.38-.67.76-.71,1.23-.06.71.83,1.31,1.3,1.73.9.8,2.36,1.24,2.94,2.38.55,1.07.57,2.25.98,3.35.25.69.49,1.39.79,2.06.1.22.12.53.28.72.26.31.67.41.96.77.43.54.59.84.76,1.48.08.31.19.48.37.75.39.54.68,1.01.92,1.67.84,2.38.25,4.82-.17,7.23-.13.75-.22,1.44-.43,2.18-.23.82-.41,1.7-.46,2.55-.13,1.95-.28,3.95-.71,5.88-.3,1.34-.64,2.64-.8,4.01-.17,1.46-.02,2.88-.96,4.13-.63.83-1.29,1.08-2.17,1.56-.71.38-1.09.89-1.42,1.62-.27.59-.47,1.19-.7,1.79-.39,1.01-.49,2.01-.65,3.08-.32,2.13-.31,4.32-.75,6.42-.34,1.63-1.27,2.78-2.22,4.1-.53.75-.9,1.24-1.04,2.17-.1.71-.22,1.39-.37,2.09-.36,1.76-1.34,3.52-2.19,5.09-1.09,2-3.06,3.35-4.13,5.33-.69,1.27-1.48,2.43-2.17,3.68-.26.48-.56.89-.7,1.41-.14.5-.28,1.02-.48,1.51-.35.86-.57,1.74-1.19,2.45-.29.33-.65.8-.98,1.2.09.06.19.12.29.17.62.3,1.3.55,1.94.78.79.29,1.55.36,2.08,1.08.35.48.49,1.08.8,1.57.26.41.77.38,1.24.46.9.16,1.8-.06,2.7-.12.44-.03.88,0,1.32-.03.32-.03.66-.18.98-.17.72.03,1.23.7,1.94.87.29.07,1.27.15.72.67.09-.03.31,0,.31-.08,0,.2-.04.45,0,.65.04.22.16.39.19.61.05.46-.09.96,0,1.4.09.38.12.81.38,1.1.25.27.73.37.84.74.12.4-.09.91,0,1.32.06.28.14.41.16.7.02.3.03.35.22.57.23.27.45.48.83.4.48-.09.93-.25,1.4-.36,1-.24,2.14-.65,3.16-.38.36.09.95.1,1.31.02.45-.09,1.09-.34,1.56-.15.91.37.91,1.89,1.02,2.65.13.88.1,1.7.13,2.59.02.51.16,1,.19,1.5.03.49,0,1,0,1.49,0,.79,0,1.58,0,2.37,0,.6.08.78.7.78.3,0,.43.07.7.14.21.05.41,0,.62.05.21.05.31.24.48.3.21.08.46.06.66.12.51.15.95.56,1.27.97.44.55.97,1.04,1.41,1.59.38.47.78.94,1.07,1.47.41.76.53,1.7.65,2.55.35,2.42.68,4.78.68,7.23,0,1.07-.17,2.33.09,3.37.13.52-.08,1.02.59,1.15.52.1,1.04.09,1.57.26.88.28,1.75.59,2.59.96.65.29,1.25.56,1.82,1,.4.3.74.73,1.22.89.46.15.7.19,1.06.55.39.39.58.73.67,1.28.1.61-.09,1.12-.21,1.72-.23,1.12-.4,2.29-.51,3.42-.1,1.06-.29,2.1-.43,3.16-.13.97-.4,1.86-.58,2.82-.21,1.14-.08,2.12,0,3.25.04.61.33,1.26.71,1.72.52.63,1.4,1.34,2.12,1.73.6.32,1.22.42,1.83.65.81.3,1.35,1.03,2.09,1.47.96.58,2.08.87,3.06,1.41.65.36,1.18.72,1.87.98,1.02.39,1.99.73,3.09.77.32.01.57.09.88.14.39.06.79-.03,1.16.05.55.12.83.58,1.3.8.36.17.77.17,1.14.36.58.32.75.99,1.44,1.11.05.12.08.22.12.33.98-.97,2.01-1.87,3.37-2.17.75-.16.79-.45,1.34-.9Z"/>
  </g>
  <g>
    <g>
      <path class="cls-1" d="m80.87,103.56s0,.08,0,.15-.02.13-.03.21-.03.15-.05.23-.04.15-.07.22c-.03.07-.06.12-.09.16-.03.04-.07.06-.11.06-.06,0-.13-.03-.22-.08-.09-.05-.2-.11-.33-.17s-.28-.12-.45-.17-.37-.08-.59-.08-.42.03-.58.1c-.16.06-.29.15-.39.25s-.18.22-.22.35c-.05.13-.07.26-.07.39,0,.15.04.29.12.4s.18.22.3.32.27.2.43.29c.16.09.33.19.5.29.17.1.33.21.49.33.16.12.31.26.44.42.13.16.23.34.3.55s.11.44.11.71c0,.4-.08.77-.24,1.11s-.39.64-.68.89c-.29.25-.65.45-1.07.59-.42.14-.88.22-1.39.22-.27,0-.53-.02-.76-.07-.23-.04-.44-.1-.62-.16-.18-.06-.33-.13-.46-.2-.12-.07-.21-.14-.27-.2s-.09-.16-.09-.29c0-.03,0-.08.01-.15,0-.07.02-.14.03-.22.02-.08.03-.16.05-.24.02-.08.05-.16.08-.22.03-.07.06-.12.1-.17.04-.04.08-.06.12-.06.07,0,.16.03.26.1s.22.14.37.22c.15.08.32.15.53.22.2.07.45.1.73.1.25,0,.47-.03.66-.1.19-.06.35-.15.47-.26.13-.11.22-.24.29-.38.07-.15.1-.31.1-.48,0-.16-.04-.29-.11-.41s-.18-.23-.3-.33c-.12-.1-.27-.19-.43-.28s-.32-.18-.49-.29c-.16-.1-.33-.21-.48-.33-.16-.12-.3-.26-.43-.42-.12-.16-.23-.34-.3-.55-.08-.21-.11-.45-.11-.72,0-.38.08-.73.23-1.05.15-.32.36-.6.63-.83s.59-.41.97-.54c.38-.13.79-.19,1.24-.19.21,0,.41.02.6.05.19.03.36.07.52.12s.29.1.4.16c.11.06.19.11.23.15.04.04.07.08.09.13.02.04.03.1.03.17Z"/>
      <path class="cls-1" d="m81.07,109.68c0-.3.07-.58.21-.82s.35-.45.64-.63.66-.31,1.1-.4c.45-.09.98-.14,1.6-.14h.58c.02-.1.03-.19.04-.29,0-.09.01-.18.01-.26,0-.34-.09-.6-.27-.77-.18-.17-.46-.26-.86-.26-.28,0-.53.02-.75.06-.22.04-.42.08-.58.13-.17.05-.31.09-.42.13-.11.04-.19.06-.24.06s-.09-.02-.11-.04-.03-.08-.03-.14c0-.07,0-.15.02-.25.01-.09.03-.19.05-.28.02-.09.05-.18.09-.26.04-.08.08-.14.12-.18.05-.05.14-.1.28-.15s.3-.1.49-.14c.19-.04.4-.08.64-.1s.48-.04.72-.04c.41,0,.76.04,1.06.13.3.08.55.21.76.39s.36.39.46.66.15.59.15.96c0,.28-.03.59-.08.91-.05.32-.14.64-.26.96s-.27.62-.46.9-.41.54-.68.76c-.26.22-.57.39-.92.52-.35.13-.74.2-1.19.2-.39,0-.72-.05-.99-.14s-.5-.21-.68-.36-.31-.32-.4-.51-.13-.39-.13-.59Zm1.57-.12c0,.17.07.31.2.42.13.11.33.17.58.17.21,0,.4-.04.57-.11.17-.08.31-.18.44-.31s.24-.28.33-.46.16-.36.22-.56h-.53c-.34,0-.62.02-.85.07-.23.04-.41.1-.55.18-.14.08-.24.17-.3.27-.06.1-.09.21-.09.33Z"/>
      <path class="cls-1" d="m92.73,110.93c-.02.09-.08.15-.2.19-.12.04-.3.06-.56.06-.13,0-.24,0-.32-.01-.08,0-.15-.02-.2-.04-.05-.02-.08-.04-.1-.08-.01-.03-.02-.07,0-.12l.17-.91c-.06.14-.16.28-.3.43-.14.15-.3.29-.49.41-.19.12-.4.23-.63.3-.23.08-.47.12-.71.12s-.45-.03-.63-.09c-.18-.06-.33-.14-.46-.25-.13-.11-.24-.23-.32-.37s-.15-.3-.2-.46-.09-.33-.11-.5c-.02-.17-.03-.34-.03-.5,0-.28.03-.57.08-.89s.13-.63.24-.94c.11-.31.24-.61.41-.9.17-.29.36-.54.59-.76.23-.22.5-.4.79-.53.3-.13.63-.2,1.01-.2.17,0,.32.02.47.05.15.04.29.08.41.15.12.06.24.13.34.22.1.08.19.17.26.27l.6-2.99s.03-.08.06-.11c.03-.03.08-.06.14-.09.07-.02.15-.04.25-.05s.23-.02.39-.02.28,0,.38.02c.1.01.18.03.23.05s.09.05.11.09c.02.03.02.07.01.11l-1.66,8.33Zm-.79-3.97c-.15-.23-.31-.41-.49-.53-.18-.12-.39-.18-.62-.18-.17,0-.33.04-.48.12-.15.08-.28.19-.39.33-.12.14-.22.3-.3.48-.09.18-.16.38-.22.58-.06.2-.1.41-.13.61s-.04.4-.04.58c0,.32.05.56.16.73s.27.24.5.24c.19,0,.38-.06.57-.17.19-.11.38-.26.54-.45.17-.19.32-.41.45-.67.13-.26.22-.53.28-.82l.18-.86Z"/>
      <path class="cls-1" d="m94.31,109.68c0-.3.07-.58.21-.82.14-.24.35-.45.64-.63.29-.18.66-.31,1.11-.4.45-.09.98-.14,1.6-.14h.58c.02-.1.03-.19.04-.29,0-.09.01-.18.01-.26,0-.34-.09-.6-.27-.77-.18-.17-.46-.26-.86-.26-.28,0-.53.02-.75.06s-.42.08-.58.13c-.17.05-.31.09-.42.13s-.19.06-.24.06-.09-.02-.11-.04c-.02-.03-.03-.08-.03-.14,0-.07,0-.15.02-.25.01-.09.03-.19.05-.28.02-.09.05-.18.09-.26.04-.08.08-.14.12-.18.05-.05.14-.1.28-.15.14-.05.3-.1.49-.14s.4-.08.64-.1c.24-.03.48-.04.72-.04.41,0,.76.04,1.06.13.3.08.55.21.76.39s.36.39.46.66.15.59.15.96c0,.28-.03.59-.08.91-.05.32-.14.64-.26.96-.12.32-.27.62-.46.9-.19.29-.41.54-.68.76-.27.22-.57.39-.92.52s-.74.2-1.19.2c-.38,0-.72-.05-.99-.14-.28-.09-.51-.21-.68-.36s-.31-.32-.4-.51c-.09-.19-.13-.39-.13-.59Zm1.57-.12c0,.17.07.31.2.42.13.11.33.17.58.17.21,0,.4-.04.57-.11.17-.08.31-.18.44-.31s.24-.28.33-.46c.09-.18.16-.36.22-.56h-.53c-.34,0-.62.02-.85.07-.23.04-.41.1-.55.18s-.24.17-.3.27-.1.21-.1.33Z"/>
      <path class="cls-1" d="m105.42,105.18s0,.08-.01.16c0,.08-.02.17-.04.27-.02.1-.04.21-.06.31-.03.11-.05.21-.09.3-.03.09-.07.17-.11.23-.04.06-.08.09-.13.09-.04,0-.08,0-.11-.02s-.08-.03-.13-.04-.1-.03-.15-.04-.12-.02-.19-.02c-.14,0-.3.06-.46.17-.16.11-.32.25-.47.43s-.28.39-.4.63c-.12.24-.2.49-.25.75l-.51,2.55s-.03.08-.06.11c-.03.03-.08.06-.15.08-.07.02-.15.04-.26.05-.11.01-.23.02-.39.02s-.29,0-.38-.02c-.1-.01-.18-.03-.23-.05s-.09-.05-.11-.08c-.02-.03-.02-.07-.01-.11l1.13-5.67s.03-.08.06-.11c.03-.03.07-.06.13-.08.06-.02.13-.03.22-.04.09-.01.2-.02.33-.02s.24,0,.32.02c.08.01.15.03.19.04.05.02.08.04.09.08.01.03.02.07,0,.11l-.18.9c.1-.18.22-.35.35-.5s.28-.28.43-.4c.15-.11.3-.2.47-.26s.32-.1.48-.1c.06,0,.13,0,.19.01.07,0,.13.02.19.03.06.01.11.03.15.05.04.02.08.04.1.06.03.03.04.07.04.12Z"/>
      <path class="cls-1" d="m105.28,109.68c0-.3.07-.58.21-.82.14-.24.35-.45.64-.63.29-.18.66-.31,1.1-.4s.98-.14,1.6-.14h.58c.02-.1.03-.19.04-.29,0-.09.01-.18.01-.26,0-.34-.09-.6-.27-.77-.18-.17-.46-.26-.86-.26-.28,0-.53.02-.75.06-.22.04-.42.08-.58.13s-.31.09-.42.13c-.11.04-.19.06-.24.06s-.09-.02-.11-.04-.03-.08-.03-.14c0-.07,0-.15.02-.25.01-.09.03-.19.05-.28s.05-.18.09-.26c.04-.08.08-.14.12-.18.05-.05.14-.1.28-.15s.3-.1.49-.14c.19-.04.4-.08.64-.1s.48-.04.72-.04c.41,0,.76.04,1.06.13.3.08.56.21.76.39s.36.39.46.66.15.59.15.96c0,.28-.03.59-.08.91-.05.32-.14.64-.26.96s-.27.62-.46.9-.41.54-.68.76-.57.39-.92.52c-.35.13-.74.2-1.19.2-.38,0-.72-.05-.99-.14-.28-.09-.5-.21-.68-.36s-.31-.32-.4-.51c-.09-.19-.13-.39-.13-.59Zm1.57-.12c0,.17.07.31.2.42.13.11.33.17.58.17.21,0,.4-.04.57-.11s.31-.18.44-.31.24-.28.33-.46c.09-.18.16-.36.22-.56h-.53c-.34,0-.62.02-.85.07-.23.04-.41.1-.55.18-.14.08-.24.17-.3.27-.06.1-.1.21-.1.33Z"/>
      <path class="cls-1" d="m117.87,105.24c0,.07-.03.15-.08.24-.06.09-.15.21-.28.35l-2,1.89,1.3,2.73c.04.1.07.19.09.27.02.08.03.13.03.18,0,.05-.01.09-.04.13-.03.04-.07.07-.14.1-.07.03-.15.04-.27.05s-.25.02-.42.02-.31,0-.41-.01-.18-.02-.24-.04c-.06-.02-.1-.05-.13-.08-.03-.03-.05-.08-.06-.13l-1.34-2.98-.6,3s-.03.08-.07.11-.08.06-.15.08-.15.04-.26.05c-.11.01-.24.02-.39.02s-.28,0-.38-.02-.18-.03-.23-.04c-.05-.02-.09-.04-.11-.08-.02-.03-.02-.07-.02-.11l1.68-8.35s.03-.08.06-.12c.03-.03.08-.06.15-.08.07-.02.15-.04.26-.05.1-.01.23-.02.39-.02s.28,0,.38.02c.1.01.18.03.23.05s.09.05.11.08c.02.03.02.07.01.12l-.99,4.97,2.12-2.27c.04-.05.09-.09.14-.13s.11-.06.19-.08c.08-.02.17-.04.28-.04.11,0,.24-.01.4-.01s.29,0,.39.01c.11,0,.19.02.25.04.06.02.1.04.12.07.02.03.03.06.03.1Z"/>
    </g>
    <g>
      <path class="cls-3" d="m156.91,162.4c-.35-.04-.63-.1-.85-.18s-.39-.15-.51-.22c-.12-.07-.22-.14-.28-.2-.06-.06-.09-.16-.09-.29,0-.03,0-.08.01-.15,0-.07.02-.14.03-.22s.03-.16.05-.24c.02-.08.05-.16.08-.22.03-.07.06-.12.1-.17.04-.04.08-.06.12-.06.07,0,.16.03.26.1.1.07.22.14.37.22s.32.15.53.22c.2.07.45.1.73.1.25,0,.47-.03.66-.1s.35-.15.47-.26c.13-.11.22-.24.29-.38.07-.15.1-.31.1-.48,0-.16-.04-.29-.12-.41s-.18-.23-.3-.33-.27-.19-.43-.28c-.16-.09-.32-.18-.49-.29s-.33-.21-.49-.33c-.16-.12-.3-.26-.43-.42-.12-.16-.22-.34-.3-.55-.08-.21-.12-.45-.12-.72,0-.38.08-.73.23-1.05.15-.32.36-.6.63-.83.27-.23.6-.41.97-.54s.79-.19,1.24-.19c.21,0,.41.02.6.05.19.03.36.07.52.12.16.05.29.1.4.16.11.06.19.11.23.15s.07.08.09.13c.02.04.03.1.03.17,0,.03,0,.08,0,.15,0,.06-.02.13-.03.21-.01.08-.03.15-.05.23-.02.08-.04.15-.07.22-.03.07-.06.12-.09.16-.03.04-.07.06-.11.06-.06,0-.13-.03-.22-.08s-.2-.11-.33-.17-.28-.12-.45-.17c-.17-.05-.37-.08-.59-.08s-.42.03-.58.1c-.16.06-.29.15-.39.25s-.18.22-.22.35-.07.26-.07.39c0,.15.04.29.11.4s.18.22.3.32.27.2.43.29c.16.09.33.19.5.29.17.1.33.21.5.33.16.12.31.26.43.42.13.16.23.34.3.55s.12.44.12.71c0,.4-.08.77-.24,1.1-.16.34-.37.62-.64.86s-.57.42-.89.55c-.32.13-.6.2-.82.23l.08.34c.03.11.05.21.07.3.02.09.03.19.03.28,0,.23-.04.43-.11.59s-.18.3-.31.41c-.13.11-.29.19-.48.24-.19.05-.4.08-.62.08-.12,0-.24,0-.36-.01-.12,0-.22-.02-.32-.04-.1-.02-.18-.04-.26-.06-.08-.02-.14-.04-.19-.07-.05-.03-.08-.05-.09-.08-.02-.03-.03-.07-.03-.12,0-.04,0-.1.02-.18,0-.08.03-.15.05-.23s.06-.14.1-.2c.04-.06.1-.08.17-.08h.72c.06,0,.12,0,.17-.02s.1-.04.14-.06.07-.06.1-.11c.02-.05.03-.1.03-.16,0-.04,0-.09,0-.15,0-.05-.02-.11-.03-.17l-.12-.45Z"/>
      <path class="cls-3" d="m161.47,160.82c0-.3.07-.58.21-.82.14-.24.35-.45.64-.63.29-.18.66-.31,1.1-.4.45-.09.98-.14,1.6-.14h.58c.02-.1.03-.19.04-.29,0-.09.01-.18.01-.26,0-.34-.09-.6-.27-.77-.18-.17-.46-.26-.86-.26-.28,0-.53.02-.75.06-.22.04-.42.08-.58.13-.17.05-.3.09-.42.13s-.19.06-.24.06-.09-.02-.11-.04c-.02-.03-.03-.08-.03-.14,0-.07,0-.15.02-.25.01-.09.03-.19.05-.28s.05-.18.09-.26c.04-.08.08-.14.12-.18.05-.05.14-.1.28-.15.13-.05.3-.1.49-.14s.4-.08.64-.1c.24-.03.48-.04.72-.04.41,0,.76.04,1.06.13.3.08.56.21.76.39s.36.39.46.66.15.59.15.96c0,.28-.03.59-.08.91-.05.32-.14.64-.26.96-.12.32-.27.62-.46.9-.19.29-.41.54-.68.76-.26.22-.57.39-.92.52s-.74.2-1.19.2c-.39,0-.72-.05-.99-.14s-.5-.21-.68-.36-.31-.32-.4-.51c-.09-.19-.13-.39-.13-.59Zm1.57-.12c0,.17.07.31.2.42s.33.17.58.17c.21,0,.4-.04.57-.11.17-.08.31-.18.44-.31s.24-.28.33-.46c.09-.18.16-.36.22-.56h-.53c-.34,0-.62.02-.85.07-.23.04-.41.1-.55.18s-.24.17-.3.27-.09.21-.09.33Z"/>
      <path class="cls-3" d="m172.58,156.31s0,.08-.01.16c0,.08-.02.17-.04.27-.02.1-.04.21-.06.31-.03.11-.05.21-.09.3s-.07.17-.11.23c-.04.06-.08.09-.13.09-.04,0-.08,0-.11-.02s-.08-.03-.13-.04-.1-.03-.15-.04-.12-.02-.19-.02c-.14,0-.3.06-.46.17-.16.11-.32.25-.47.43s-.28.39-.4.63c-.12.24-.2.49-.25.75l-.51,2.55s-.03.08-.06.11c-.03.03-.08.06-.15.08-.06.02-.15.04-.26.05-.11.01-.24.02-.39.02s-.28,0-.38-.02-.18-.03-.23-.05c-.06-.02-.09-.05-.11-.08-.02-.03-.02-.07-.01-.11l1.13-5.67s.03-.08.06-.11c.03-.03.07-.06.13-.08.06-.02.13-.03.22-.04.09-.01.2-.02.33-.02s.24,0,.32.02.15.03.19.04c.05.02.08.04.09.08.02.03.02.07,0,.11l-.18.9c.1-.18.22-.35.35-.5.13-.15.28-.28.43-.4s.31-.2.47-.26.32-.1.48-.1c.06,0,.13,0,.19.01.07,0,.13.02.18.03s.11.03.15.05c.04.02.08.04.11.06.03.03.04.07.04.12Z"/>
      <path class="cls-3" d="m177.71,162.07s-.03.08-.05.11c-.03.03-.07.06-.13.08-.06.02-.13.03-.22.04s-.2.02-.33.02-.24,0-.32-.02c-.08-.01-.15-.03-.19-.04-.05-.02-.08-.04-.09-.08-.01-.03-.02-.07,0-.11l.17-.92c-.08.15-.2.3-.35.45s-.32.29-.51.41c-.19.12-.4.22-.62.3-.22.08-.46.12-.69.12-.3,0-.55-.04-.75-.12-.21-.08-.37-.2-.5-.34s-.22-.31-.27-.51c-.06-.2-.09-.42-.09-.65,0-.14,0-.29.03-.44.02-.15.04-.3.07-.46l.7-3.51s.03-.08.06-.11.08-.06.15-.08c.07-.02.15-.03.26-.04s.23-.02.39-.02.29,0,.38.02.18.03.23.04c.06.02.09.04.11.08.02.03.02.07.02.11l-.67,3.4c-.02.09-.04.19-.05.29s-.02.2-.02.29c0,.1,0,.19.03.28.02.08.05.15.09.21.04.06.1.1.16.13.07.03.14.04.24.04.17,0,.35-.06.54-.17.19-.11.37-.27.54-.46.17-.2.32-.43.45-.7.13-.27.23-.56.3-.87l.48-2.45s.02-.08.06-.11c.03-.03.08-.06.15-.08.07-.02.15-.03.26-.04s.24-.02.39-.02.28,0,.38.02c.1.01.18.03.23.04.06.02.09.04.11.08.02.03.02.07.01.11l-1.14,5.68Z"/>
      <path class="cls-3" d="m184.01,156.31s0,.08-.01.16-.02.17-.04.27-.04.21-.06.31c-.03.11-.05.21-.09.3-.03.09-.07.17-.11.23-.04.06-.08.09-.13.09-.04,0-.08,0-.11-.02-.04-.01-.08-.03-.13-.04-.05-.01-.1-.03-.15-.04-.06-.01-.12-.02-.19-.02-.14,0-.3.06-.46.17-.16.11-.32.25-.47.43-.15.18-.28.39-.4.63s-.2.49-.25.75l-.51,2.55s-.03.08-.06.11c-.03.03-.08.06-.15.08s-.15.04-.26.05-.23.02-.39.02-.29,0-.38-.02-.18-.03-.23-.05c-.06-.02-.09-.05-.11-.08-.02-.03-.02-.07-.01-.11l1.13-5.67s.03-.08.06-.11c.03-.03.07-.06.13-.08.06-.02.13-.03.22-.04s.2-.02.33-.02.24,0,.32.02c.08.01.15.03.19.04.05.02.08.04.09.08.01.03.02.07,0,.11l-.18.9c.1-.18.22-.35.35-.5.13-.15.28-.28.43-.4.15-.11.31-.2.47-.26.16-.06.32-.1.48-.1.06,0,.13,0,.19.01.07,0,.13.02.18.03.06.01.11.03.15.05.04.02.08.04.1.06.03.03.04.07.04.12Z"/>
    </g>
    <g>
      <path class="cls-3" d="m189.2,215.74c0,.08-.03.16-.08.24s-.14.19-.27.33l-2.91,3.08,1.73,3.66c.03.08.06.16.08.22s.03.12.03.17c0,.06-.01.11-.04.15s-.08.07-.14.1c-.07.03-.16.04-.28.06-.12.01-.26.02-.44.02s-.32,0-.43-.02-.2-.03-.26-.05c-.06-.02-.11-.05-.14-.09-.03-.04-.05-.08-.07-.13l-1.74-3.89-.77,3.91s-.03.09-.06.12c-.03.03-.09.06-.16.08-.07.02-.16.04-.27.05-.11.01-.24.02-.4.02s-.3,0-.4-.02-.19-.03-.24-.05c-.06-.02-.1-.05-.12-.08-.02-.03-.03-.07-.01-.12l1.55-7.76s.02-.08.06-.12c.03-.03.08-.06.16-.08.07-.02.16-.04.27-.05.11-.01.24-.02.41-.02s.29,0,.4.02c.1.01.19.03.25.05.06.02.1.05.12.08.02.03.03.07.02.12l-.7,3.51,3.05-3.49c.04-.05.09-.09.14-.13.05-.04.11-.07.19-.09s.17-.04.28-.05.25-.02.41-.02.31,0,.42.02c.11.01.19.03.25.05s.1.05.12.08c.02.03.03.07.03.12Z"/>
      <path class="cls-3" d="m188.78,222.27c0-.3.07-.58.21-.82s.35-.45.64-.63.66-.31,1.1-.4c.45-.09.98-.14,1.6-.14h.58c.02-.1.03-.19.04-.29,0-.09.01-.18.01-.26,0-.34-.09-.6-.27-.77-.18-.17-.46-.26-.86-.26-.28,0-.53.02-.75.06-.22.04-.42.08-.58.13-.17.05-.31.09-.42.13-.11.04-.19.06-.24.06s-.09-.02-.11-.04-.03-.08-.03-.14c0-.07,0-.15.02-.25.01-.09.03-.19.05-.28.02-.09.05-.18.09-.26.04-.08.08-.14.12-.18.05-.05.14-.1.28-.15s.3-.1.49-.14c.19-.04.4-.08.64-.1s.48-.04.72-.04c.41,0,.76.04,1.06.13.3.08.55.21.76.39s.36.39.46.66.15.59.15.96c0,.28-.03.59-.08.91-.05.32-.14.64-.26.96s-.27.62-.46.9-.41.54-.68.76c-.26.22-.57.39-.92.52-.35.13-.74.2-1.19.2-.39,0-.72-.05-.99-.14s-.5-.21-.68-.36-.31-.32-.4-.51-.13-.39-.13-.59Zm1.57-.12c0,.17.07.31.2.42.13.11.33.17.58.17.21,0,.4-.04.57-.11.17-.08.31-.18.44-.31s.24-.28.33-.46.16-.36.22-.56h-.53c-.34,0-.62.02-.85.07-.23.04-.41.1-.55.18-.14.08-.24.17-.3.27-.06.1-.09.21-.09.33Z"/>
      <path class="cls-3" d="m201.27,219.11c0,.15,0,.3-.03.45-.02.15-.04.3-.07.46l-.71,3.5s-.03.08-.06.11-.08.06-.15.08-.15.04-.25.05c-.1.01-.23.02-.39.02s-.28,0-.38-.02-.18-.03-.23-.05c-.05-.02-.09-.05-.11-.08-.02-.03-.02-.07-.02-.11l.69-3.4c.02-.1.04-.21.05-.31s.02-.2.02-.28c0-.19-.04-.35-.12-.47s-.22-.18-.41-.18c-.17,0-.35.05-.54.16-.19.11-.37.26-.53.45-.17.19-.32.41-.45.66s-.22.52-.28.8l-.51,2.56s-.03.08-.06.11c-.03.03-.08.06-.15.08-.07.02-.15.04-.26.05s-.24.02-.39.02-.28,0-.38-.02c-.1-.01-.18-.03-.23-.05-.06-.02-.09-.05-.11-.08-.02-.03-.02-.07-.01-.11l1.14-5.67s.03-.08.05-.11c.03-.03.07-.06.13-.08.06-.02.13-.03.22-.04.09-.01.2-.02.33-.02s.24,0,.32.02c.08.01.15.03.19.04.05.02.08.04.09.08.01.03.02.07,0,.11l-.18.93c.09-.15.21-.3.36-.45s.32-.29.51-.42c.19-.12.4-.22.63-.3s.46-.12.71-.12c.3,0,.54.04.75.13s.36.2.49.35c.12.15.21.32.27.52.06.2.08.41.08.62Z"/>
      <path class="cls-3" d="m207.25,223.74c-.08.38-.2.72-.36,1.01-.16.29-.37.53-.63.72s-.58.34-.96.43c-.38.1-.81.15-1.31.15-.36,0-.68-.03-.97-.08-.29-.06-.52-.13-.71-.22-.07-.03-.11-.07-.14-.11-.03-.04-.04-.1-.04-.18,0-.03,0-.07,0-.13,0-.06.01-.12.03-.2s.03-.15.05-.23.05-.15.08-.21c.03-.06.07-.11.1-.15.04-.04.08-.06.13-.06s.11.02.19.05c.07.04.17.08.29.12.12.04.27.08.46.12s.41.05.67.05c.22,0,.41-.02.58-.05.17-.03.32-.09.45-.17s.23-.17.31-.29.13-.26.17-.44c.06-.28.11-.51.17-.69.05-.19.11-.34.15-.46-.08.14-.19.28-.33.42s-.3.26-.49.37c-.18.11-.38.2-.59.26-.21.07-.42.1-.63.1-.33,0-.6-.06-.82-.17-.22-.11-.4-.26-.54-.46-.14-.19-.24-.42-.3-.69-.06-.26-.09-.54-.09-.85,0-.28.03-.57.08-.89.05-.32.13-.63.24-.95.11-.31.24-.61.41-.9s.36-.54.59-.76c.23-.22.5-.4.79-.53.3-.13.63-.2,1.01-.2.35,0,.66.07.93.22.27.15.51.36.71.64l.1-.5c.02-.09.08-.15.2-.19.12-.04.3-.06.56-.06.13,0,.23,0,.32.02s.15.03.2.04c.05.02.08.04.1.08.02.03.02.07.01.11l-1.19,5.9Zm-.74-4.2c-.15-.23-.31-.41-.49-.52s-.39-.17-.62-.17c-.18,0-.34.04-.49.13-.15.08-.28.2-.39.34-.12.14-.22.31-.3.49-.09.19-.16.38-.22.58-.06.2-.1.41-.13.61-.03.2-.04.4-.04.58,0,.14.01.28.04.39s.06.22.12.3c.05.08.12.15.2.19.08.04.18.07.3.07.19,0,.38-.06.57-.17.19-.11.38-.26.54-.46.17-.19.32-.42.45-.68.13-.26.22-.53.28-.82l.18-.86Z"/>
      <path class="cls-3" d="m208.88,222.27c0-.3.07-.58.21-.82.14-.24.35-.45.64-.63.29-.18.66-.31,1.11-.4.45-.09.98-.14,1.6-.14h.58c.02-.1.03-.19.04-.29,0-.09.01-.18.01-.26,0-.34-.09-.6-.27-.77-.18-.17-.46-.26-.86-.26-.28,0-.53.02-.75.06s-.42.08-.58.13c-.17.05-.31.09-.42.13s-.19.06-.24.06-.09-.02-.11-.04c-.02-.03-.03-.08-.03-.14,0-.07,0-.15.02-.25.01-.09.03-.19.05-.28.02-.09.05-.18.09-.26.04-.08.08-.14.12-.18.05-.05.14-.1.28-.15.14-.05.3-.1.49-.14s.4-.08.64-.1c.24-.03.48-.04.72-.04.41,0,.76.04,1.06.13.3.08.55.21.76.39s.36.39.46.66.15.59.15.96c0,.28-.03.59-.08.91-.05.32-.14.64-.26.96-.12.32-.27.62-.46.9-.19.29-.41.54-.68.76-.27.22-.57.39-.92.52s-.74.2-1.19.2c-.38,0-.72-.05-.99-.14-.28-.09-.51-.21-.68-.36s-.31-.32-.4-.51c-.09-.19-.13-.39-.13-.59Zm1.57-.12c0,.17.07.31.2.42.13.11.33.17.58.17.21,0,.4-.04.57-.11.17-.08.31-.18.44-.31s.24-.28.33-.46c.09-.18.16-.36.22-.56h-.53c-.34,0-.62.02-.85.07-.23.04-.41.1-.55.18s-.24.17-.3.27-.1.21-.1.33Z"/>
      <path class="cls-3" d="m219.99,217.76s0,.08-.01.16c0,.08-.02.17-.04.27-.02.1-.04.21-.06.31-.03.11-.05.21-.09.3-.03.09-.07.17-.11.23-.04.06-.08.09-.13.09-.04,0-.08,0-.11-.02s-.08-.03-.13-.04-.1-.03-.15-.04-.12-.02-.19-.02c-.14,0-.3.06-.46.17-.16.11-.32.25-.47.43s-.28.39-.4.63c-.12.24-.2.49-.25.75l-.51,2.55s-.03.08-.06.11c-.03.03-.08.06-.15.08-.07.02-.15.04-.26.05-.11.01-.23.02-.39.02s-.29,0-.38-.02c-.1-.01-.18-.03-.23-.05s-.09-.05-.11-.08c-.02-.03-.02-.07-.01-.11l1.13-5.67s.03-.08.06-.11c.03-.03.07-.06.13-.08.06-.02.13-.03.22-.04.09-.01.2-.02.33-.02s.24,0,.32.02c.08.01.15.03.19.04.05.02.08.04.09.08.01.03.02.07,0,.11l-.18.9c.1-.18.22-.35.35-.5s.28-.28.43-.4c.15-.11.3-.2.47-.26s.32-.1.48-.1c.06,0,.13,0,.19.01.07,0,.13.02.19.03.06.01.11.03.15.05.04.02.08.04.1.06.03.03.04.07.04.12Z"/>
      <path class="cls-3" d="m221.46,223.51s-.03.08-.06.11c-.03.03-.08.06-.14.08-.06.02-.15.04-.25.05-.11.01-.24.02-.39.02-.16,0-.29,0-.39-.02-.1-.01-.18-.03-.23-.05s-.09-.05-.11-.08c-.02-.03-.02-.07-.02-.11l1.67-8.35s.03-.08.06-.12c.03-.03.08-.06.15-.08.07-.02.15-.04.26-.05.1-.01.23-.02.39-.02s.29,0,.38.02c.1.01.18.03.23.05s.09.05.11.08c.02.03.02.07.01.12l-1.66,8.35Z"/>
      <path class="cls-3" d="m224.65,223.51s-.03.08-.06.11c-.03.03-.08.06-.15.08-.07.02-.15.04-.26.05-.11.01-.23.02-.39.02s-.29,0-.38-.02c-.1-.01-.18-.03-.23-.05s-.09-.05-.11-.08c-.02-.03-.02-.07-.01-.11l1.12-5.65s.03-.08.06-.11c.03-.03.08-.06.15-.08.06-.02.15-.04.25-.05.1-.01.23-.02.39-.02s.28,0,.38.02c.1.01.18.03.23.05.06.02.09.05.11.08.02.03.02.07.01.11l-1.12,5.65Zm1.64-7.57c-.03.16-.07.29-.12.4-.05.11-.12.2-.2.26-.08.07-.19.11-.31.14s-.28.04-.46.04-.32-.01-.44-.04c-.11-.03-.2-.07-.25-.14-.06-.07-.09-.15-.1-.26,0-.11,0-.24.04-.4.03-.15.07-.28.12-.39.05-.11.12-.19.2-.26.08-.07.19-.12.31-.15.12-.03.27-.04.46-.04s.32.01.43.04c.11.03.2.08.25.15s.09.15.1.26c0,.11,0,.24-.04.39Z"/>
    </g>
    <g>
      <path class="cls-3" d="m252.48,296.79c0,.25-.04.49-.11.71-.07.22-.17.42-.3.61-.13.18-.29.35-.48.49-.19.14-.4.25-.63.34.19.03.36.09.51.18.16.08.29.19.4.32.11.13.2.29.26.47.06.18.09.38.09.61,0,.2-.03.41-.08.63-.06.22-.14.43-.26.64s-.27.41-.46.59c-.19.19-.42.35-.69.5-.27.14-.58.25-.93.34-.35.08-.76.12-1.23.12h-2.28c-.17,0-.3-.04-.38-.13s-.1-.22-.06-.4l1.44-7.16c.03-.19.11-.32.22-.4.12-.08.25-.12.4-.12h1.97c.44,0,.81.03,1.13.1.32.07.58.17.8.31.22.14.38.31.49.52.11.21.17.46.17.75Zm-2,3.8c0-.27-.1-.48-.3-.64s-.52-.23-.96-.23h-1.11l-.46,2.34h1.18c.3,0,.55-.04.76-.13.21-.08.38-.2.51-.33.13-.14.23-.29.3-.47s.09-.35.09-.54Zm.28-3.49c0-.12-.02-.22-.06-.31-.04-.09-.11-.17-.19-.23-.08-.06-.19-.11-.32-.15-.13-.03-.29-.05-.49-.05h-.91l-.43,2.13h.94c.27,0,.5-.04.69-.13s.33-.2.45-.34c.12-.14.2-.29.25-.45.05-.17.08-.32.08-.48Z"/>
      <path class="cls-3" d="m258.25,303.12c-.02.09-.08.15-.2.19-.12.04-.3.06-.56.06-.13,0-.24,0-.32-.01s-.15-.02-.2-.04c-.05-.02-.08-.04-.1-.08-.01-.03-.02-.07,0-.12l.18-.91c-.06.14-.17.28-.3.43s-.3.29-.5.41-.4.22-.63.3c-.23.08-.47.12-.71.12-.34,0-.62-.06-.84-.18-.22-.12-.4-.28-.54-.48s-.23-.43-.29-.69c-.06-.26-.09-.53-.09-.81,0-.27.03-.56.08-.87s.13-.63.23-.94c.11-.31.24-.61.41-.9s.36-.55.59-.77c.23-.22.49-.4.79-.54.3-.13.64-.2,1.01-.2.35,0,.66.07.93.22.27.15.51.36.71.64l.1-.5c.02-.09.08-.15.2-.19.12-.04.3-.06.56-.06.13,0,.23,0,.32.02.08.01.15.03.2.04.05.02.08.04.1.08.02.03.02.07.01.11l-1.14,5.68Zm-.79-3.97c-.15-.23-.31-.41-.49-.52-.18-.12-.39-.17-.62-.17-.18,0-.34.04-.49.13-.15.08-.28.2-.39.34s-.21.31-.3.49c-.09.19-.16.38-.21.58-.06.2-.1.4-.13.61-.03.21-.04.39-.04.57,0,.13,0,.25.03.36s.05.22.11.3.12.16.2.21c.08.05.19.08.32.08.19,0,.38-.06.57-.17s.38-.26.55-.46.32-.42.45-.67c.13-.26.22-.53.28-.82l.18-.86Z"/>
      <path class="cls-3" d="m266.1,299.25c0,.28-.03.58-.08.9s-.13.63-.24.95c-.11.31-.24.61-.41.9-.16.29-.36.54-.6.76-.23.22-.5.4-.8.53-.3.13-.63.2-1,.2s-.67-.07-.94-.21c-.27-.14-.51-.35-.71-.63l-.1.48c-.02.09-.08.15-.2.19-.12.04-.3.06-.56.06s-.43-.02-.52-.06-.13-.11-.11-.19l1.67-8.35s.03-.08.06-.12c.03-.03.08-.06.15-.08.07-.02.15-.04.26-.05.1-.01.23-.02.39-.02s.28,0,.38.02c.1.01.17.03.23.05.06.02.09.05.11.08.02.03.02.07.01.12l-.45,2.27c-.02.1-.04.2-.07.31-.03.11-.05.21-.08.32-.03.11-.06.21-.1.31-.03.1-.06.19-.09.26.08-.14.18-.27.33-.41.14-.14.3-.26.49-.37.18-.11.38-.2.59-.27.21-.07.42-.1.63-.1.24,0,.45.03.63.09s.33.14.46.25c.13.11.24.23.32.37.08.14.15.29.2.45.05.16.09.32.11.49.02.17.03.33.03.49Zm-1.64.16c0-.11,0-.22-.02-.33s-.05-.22-.1-.31c-.05-.09-.12-.17-.2-.23-.08-.06-.2-.09-.34-.09-.19,0-.38.06-.57.17-.19.11-.37.27-.54.46s-.32.42-.45.68c-.13.26-.22.53-.28.83l-.18.86c.15.23.31.41.49.52s.39.17.62.17c.17,0,.33-.04.47-.12.14-.08.27-.19.39-.33.12-.14.22-.29.3-.48s.16-.37.22-.57c.06-.2.1-.41.13-.61.03-.21.04-.41.04-.6Z"/>
      <path class="cls-3" d="m266.7,301.87c0-.3.07-.58.21-.82.14-.24.35-.45.64-.63.29-.18.66-.31,1.1-.4.45-.09.98-.14,1.6-.14h.58c.02-.1.03-.19.04-.29,0-.09.01-.18.01-.26,0-.34-.09-.6-.27-.77-.18-.17-.46-.26-.86-.26-.28,0-.53.02-.75.06-.22.04-.42.08-.58.13-.17.05-.3.09-.42.13s-.19.06-.24.06-.09-.02-.11-.04c-.02-.03-.03-.08-.03-.14,0-.07,0-.15.02-.25.01-.09.03-.19.05-.28s.05-.18.09-.26c.04-.08.08-.14.12-.18.05-.05.14-.1.28-.15.13-.05.3-.1.49-.14s.4-.08.64-.1c.24-.03.48-.04.72-.04.41,0,.76.04,1.06.13.3.08.56.21.76.39s.36.39.46.66.15.59.15.96c0,.28-.03.59-.08.91-.05.32-.14.64-.26.96-.12.32-.27.62-.46.9-.19.29-.41.54-.68.76-.26.22-.57.39-.92.52s-.74.2-1.19.2c-.39,0-.72-.05-.99-.14s-.5-.21-.68-.36-.31-.32-.4-.51c-.09-.19-.13-.39-.13-.59Zm1.57-.12c0,.17.07.31.2.42s.33.17.58.17c.21,0,.4-.04.57-.11.17-.08.31-.18.44-.31s.24-.28.33-.46c.09-.18.16-.36.22-.56h-.53c-.34,0-.62.02-.85.07-.23.04-.41.1-.55.18s-.24.17-.3.27-.09.21-.09.33Z"/>
      <path class="cls-3" d="m279.29,297.43c0,.07-.03.15-.09.24s-.15.21-.28.35l-2,1.89,1.3,2.73c.04.1.07.19.09.27s.03.13.03.18c0,.05-.01.09-.04.13-.03.04-.07.07-.14.1-.07.03-.15.04-.27.05-.11.01-.25.02-.42.02s-.3,0-.41-.01c-.1,0-.19-.02-.24-.04-.06-.02-.1-.05-.13-.08s-.05-.08-.06-.13l-1.34-2.98-.6,3s-.04.08-.07.11c-.03.03-.08.06-.15.08-.07.02-.15.04-.26.05s-.24.02-.39.02-.28,0-.38-.02c-.1-.01-.18-.03-.23-.04-.05-.02-.09-.04-.11-.08-.02-.03-.02-.07-.02-.11l1.68-8.35s.03-.08.06-.12c.03-.03.08-.06.15-.08s.15-.04.26-.05c.1-.01.23-.02.39-.02s.28,0,.38.02c.1.01.18.03.23.05.05.02.09.05.11.08.02.03.02.07.01.12l-.99,4.97,2.12-2.27c.04-.05.09-.09.14-.13s.11-.06.19-.08c.08-.02.17-.04.28-.04s.24-.01.4-.01.29,0,.39.01.19.02.25.04c.06.02.1.04.12.07s.04.06.04.1Z"/>
    </g>
    <g>
      <path class="cls-3" d="m291.42,215.35c-.35-.04-.63-.1-.85-.18-.22-.08-.39-.15-.51-.22-.12-.07-.22-.14-.28-.2-.06-.06-.09-.16-.09-.29,0-.03,0-.08.01-.15,0-.07.02-.14.04-.22.02-.08.03-.16.05-.24.02-.08.05-.16.08-.22.03-.07.06-.12.1-.17.04-.04.08-.06.12-.06.07,0,.16.03.26.1s.22.14.37.22.32.15.53.22c.2.07.45.1.73.1.25,0,.47-.03.66-.1.19-.06.35-.15.47-.26.13-.11.22-.24.29-.38.07-.15.1-.31.1-.48,0-.16-.04-.29-.11-.41s-.18-.23-.3-.33c-.12-.1-.27-.19-.43-.28-.16-.09-.32-.18-.49-.29s-.33-.21-.49-.33c-.16-.12-.3-.26-.43-.42-.12-.16-.23-.34-.3-.55-.08-.21-.11-.45-.11-.72,0-.38.08-.73.23-1.05.15-.32.36-.6.63-.83.27-.23.59-.41.97-.54s.79-.19,1.24-.19c.21,0,.41.02.6.05.19.03.36.07.52.12.16.05.29.1.4.16.11.06.19.11.23.15s.07.08.09.13c.02.04.03.1.03.17,0,.03,0,.08,0,.15,0,.06-.02.13-.03.21-.01.08-.03.15-.05.23-.02.08-.04.15-.07.22s-.06.12-.09.16c-.03.04-.07.06-.11.06-.06,0-.13-.03-.22-.08s-.2-.11-.33-.17c-.13-.06-.28-.12-.45-.17-.17-.05-.37-.08-.59-.08s-.42.03-.58.1c-.16.06-.29.15-.39.25s-.18.22-.23.35c-.05.13-.07.26-.07.39,0,.15.04.29.11.4s.18.22.3.32.27.2.43.29c.16.09.33.19.5.29s.33.21.5.33c.16.12.31.26.44.42.13.16.23.34.3.55s.11.44.11.71c0,.4-.08.77-.24,1.1-.16.34-.37.62-.64.86s-.57.42-.89.55c-.32.13-.6.2-.82.23l.08.34c.03.11.05.21.07.3.02.09.03.19.03.28,0,.23-.04.43-.11.59s-.18.3-.31.41c-.13.11-.29.19-.48.24s-.4.08-.62.08c-.12,0-.24,0-.36-.01-.12,0-.22-.02-.32-.04-.1-.02-.19-.04-.26-.06s-.14-.04-.19-.07c-.05-.03-.08-.05-.1-.08-.02-.03-.03-.07-.03-.12,0-.04,0-.1.02-.18s.03-.15.05-.23.06-.14.1-.2c.04-.06.1-.08.17-.08h.72c.06,0,.12,0,.17-.02s.1-.04.14-.06c.04-.03.07-.06.1-.11s.04-.1.04-.16c0-.04,0-.09,0-.15,0-.05-.02-.11-.03-.17l-.11-.45Z"/>
      <path class="cls-3" d="m301.26,215.02c-.02.09-.08.15-.2.19-.12.04-.3.06-.56.06-.13,0-.24,0-.32-.01s-.15-.02-.2-.04c-.05-.02-.08-.04-.1-.08-.01-.03-.02-.07,0-.12l.18-.91c-.06.14-.17.28-.3.43s-.3.29-.5.41-.4.22-.63.3c-.23.08-.47.12-.71.12-.34,0-.62-.06-.84-.18-.22-.12-.4-.28-.54-.48s-.23-.43-.29-.69c-.06-.26-.09-.53-.09-.81,0-.27.03-.56.08-.87s.13-.63.23-.94c.11-.31.24-.61.41-.9s.36-.55.59-.77c.23-.22.49-.4.79-.54.3-.13.64-.2,1.01-.2.35,0,.66.07.93.22.27.15.51.36.71.64l.1-.5c.02-.09.08-.15.2-.19.12-.04.3-.06.56-.06.13,0,.23,0,.32.02.08.01.15.03.2.04.05.02.08.04.1.08.02.03.02.07.01.11l-1.14,5.68Zm-.79-3.97c-.15-.23-.31-.41-.49-.52-.18-.12-.39-.17-.62-.17-.18,0-.34.04-.49.13-.15.08-.28.2-.39.34s-.21.31-.3.49c-.09.19-.16.38-.21.58-.06.2-.1.4-.13.61-.03.21-.04.39-.04.57,0,.13,0,.25.03.36s.05.22.11.3.12.16.2.21c.08.05.19.08.32.08.19,0,.38-.06.57-.17s.38-.26.55-.46.32-.42.45-.67c.13-.26.22-.53.28-.82l.18-.86Z"/>
      <path class="cls-3" d="m308.15,215.02s-.03.08-.06.11c-.03.03-.08.06-.15.08-.07.02-.15.04-.25.05s-.24.02-.4.02-.28,0-.38-.02c-.1-.01-.18-.03-.23-.05s-.09-.05-.11-.08c-.02-.03-.02-.07-.02-.11l.68-3.4c.02-.09.03-.19.04-.3s.02-.21.02-.3,0-.18-.03-.26c-.02-.08-.05-.15-.09-.2-.04-.06-.1-.1-.17-.13-.07-.03-.15-.05-.24-.05-.17,0-.35.05-.54.16-.19.11-.37.26-.53.45s-.32.41-.45.67-.22.52-.28.81l-.51,2.55s-.03.08-.06.11c-.03.03-.08.06-.15.08s-.15.04-.26.05-.23.02-.39.02-.29,0-.38-.02-.18-.03-.23-.05c-.06-.02-.09-.05-.11-.08-.02-.03-.02-.07-.01-.11l1.67-8.35s.03-.08.06-.12c.03-.03.08-.06.15-.08.07-.02.15-.04.26-.05.1-.01.23-.02.39-.02s.28,0,.38.02c.1.01.18.03.23.05s.09.05.11.08c.02.03.02.07.01.12l-.45,2.3c-.02.09-.04.19-.07.3s-.05.21-.08.31c-.03.1-.06.2-.1.3-.03.1-.06.18-.09.26.08-.14.19-.27.33-.41s.3-.26.48-.37.37-.2.58-.27c.21-.07.42-.11.64-.11.29,0,.53.04.73.12s.36.19.49.34c.13.14.22.32.28.51.06.2.09.42.09.65,0,.15,0,.3-.03.45s-.04.3-.07.45l-.7,3.5Z"/>
      <path class="cls-3" d="m315.97,211.15c0,.28-.03.58-.08.9s-.13.63-.24.95c-.11.31-.24.61-.41.9-.16.29-.36.54-.6.76-.23.22-.5.4-.8.53-.3.13-.63.2-1,.2s-.67-.07-.94-.21c-.27-.14-.51-.35-.71-.63l-.1.48c-.02.09-.08.15-.2.19-.12.04-.3.06-.56.06s-.43-.02-.52-.06-.13-.11-.11-.19l1.67-8.35s.03-.08.06-.12c.03-.03.08-.06.15-.08.07-.02.15-.04.26-.05.1-.01.23-.02.39-.02s.28,0,.38.02c.1.01.17.03.23.05.06.02.09.05.11.08.02.03.02.07.01.12l-.45,2.27c-.02.1-.04.2-.07.31-.03.11-.05.21-.08.32-.03.11-.06.21-.1.31-.03.1-.06.19-.09.26.08-.14.18-.27.33-.41.14-.14.3-.26.49-.37.18-.11.38-.2.59-.27.21-.07.42-.1.63-.1.24,0,.45.03.63.09s.33.14.46.25c.13.11.24.23.32.37.08.14.15.29.2.45.05.16.09.32.11.49.02.17.03.33.03.49Zm-1.64.16c0-.11,0-.22-.02-.33s-.05-.22-.1-.31c-.05-.09-.12-.17-.2-.23-.08-.06-.2-.09-.34-.09-.19,0-.38.06-.57.17-.19.11-.37.27-.54.46s-.32.42-.45.68c-.13.26-.22.53-.28.83l-.18.86c.15.23.31.41.49.52s.39.17.62.17c.17,0,.33-.04.47-.12.14-.08.27-.19.39-.33.12-.14.22-.29.3-.48s.16-.37.22-.57c.06-.2.1-.41.13-.61.03-.21.04-.41.04-.6Z"/>
      <path class="cls-3" d="m321.83,215.02s-.03.08-.05.11c-.03.03-.07.06-.13.08-.06.02-.13.03-.22.04-.09.01-.2.02-.33.02s-.24,0-.32-.02c-.08-.01-.15-.03-.19-.04-.05-.02-.08-.04-.09-.08-.01-.03-.02-.07,0-.11l.17-.92c-.08.15-.2.3-.35.45-.15.15-.32.29-.51.41-.19.12-.4.22-.62.3s-.46.12-.69.12c-.3,0-.55-.04-.75-.12-.21-.08-.37-.2-.5-.34s-.21-.31-.27-.51c-.06-.2-.08-.42-.08-.65,0-.14,0-.29.03-.44s.04-.3.07-.46l.7-3.51s.03-.08.06-.11c.03-.03.08-.06.15-.08.06-.02.15-.03.26-.04.11-.01.24-.02.39-.02s.28,0,.38.02.18.03.23.04c.05.02.09.04.11.08.02.03.02.07.02.11l-.67,3.4c-.02.09-.04.19-.05.29-.01.1-.02.2-.02.29,0,.1,0,.19.03.28.02.08.05.15.09.21s.1.1.16.13c.07.03.15.04.24.04.17,0,.36-.06.54-.17.19-.11.37-.27.54-.46.17-.2.32-.43.45-.7s.23-.56.3-.87l.48-2.45s.02-.08.06-.11c.03-.03.08-.06.15-.08.07-.02.15-.03.26-.04.11-.01.23-.02.39-.02s.29,0,.38.02c.1.01.18.03.23.04.06.02.09.04.11.08.02.03.02.07.01.11l-1.14,5.68Z"/>
      <path class="cls-3" d="m328.34,209.37s0,.08-.01.14c0,.06-.02.13-.03.2s-.03.14-.04.21c-.02.07-.03.12-.04.16-.03.11-.07.21-.13.3-.05.09-.13.19-.23.3l-2.68,3.27h2.16c.06,0,.11.02.14.06.03.04.04.11.04.2,0,.03,0,.08,0,.15,0,.07-.02.14-.03.21-.01.08-.03.15-.06.23s-.05.15-.08.21-.07.12-.11.16-.09.06-.14.06h-3.74c-.08,0-.14-.02-.18-.07s-.06-.12-.06-.23c0-.03,0-.08.01-.14,0-.06.02-.12.03-.18.01-.06.03-.12.04-.18.01-.06.03-.1.04-.14.01-.05.03-.09.04-.13.02-.04.04-.09.06-.13s.06-.1.1-.15c.04-.05.09-.12.16-.19l2.7-3.28h-1.93c-.06,0-.11-.02-.14-.06s-.05-.12-.05-.22c0-.04,0-.1,0-.16,0-.07.02-.13.03-.21.01-.07.03-.15.06-.22s.05-.14.09-.2.07-.11.11-.15c.04-.04.09-.06.14-.06h3.5c.09,0,.15.02.18.06.03.04.05.1.05.17Z"/>
    </g>
    <g>
      <path class="cls-3" d="m314.49,293.01c0,.12-.02.28-.06.48-.04.2-.09.36-.15.48-.06.12-.13.18-.21.18-.05,0-.12-.04-.2-.1-.08-.07-.18-.15-.3-.23-.12-.08-.28-.16-.47-.23-.19-.07-.43-.1-.71-.1-.31,0-.6.06-.86.19s-.49.29-.69.5-.38.44-.53.71c-.15.27-.28.54-.38.83s-.17.57-.22.86c-.05.29-.07.55-.07.8,0,.3.04.56.11.78.07.22.18.41.32.56.14.15.31.26.51.33s.43.11.69.11c.3,0,.56-.03.77-.09.21-.06.4-.13.55-.21.15-.08.27-.15.37-.21.1-.06.19-.09.27-.09.06,0,.09.02.11.06.02.04.03.1.03.17,0,.03,0,.07-.01.13,0,.06-.02.12-.03.2s-.03.15-.04.24c-.02.09-.04.17-.06.24s-.04.14-.07.2c-.03.06-.06.12-.11.16-.05.05-.14.11-.27.18s-.3.14-.5.21c-.19.06-.42.12-.66.16-.25.04-.51.07-.79.07-.46,0-.88-.06-1.25-.18-.37-.12-.68-.31-.94-.56-.26-.25-.46-.56-.6-.94-.14-.38-.21-.82-.21-1.32,0-.39.04-.8.12-1.23.08-.42.2-.84.37-1.25.16-.41.37-.79.62-1.16s.54-.68.89-.96c.34-.27.73-.49,1.16-.65.43-.16.92-.24,1.44-.24.3,0,.58.03.84.09.26.06.5.14.69.24.2.1.33.19.41.28.08.08.12.19.12.31Z"/>
      <path class="cls-3" d="m319.47,300.22s-.03.08-.05.11c-.03.03-.07.06-.13.08-.06.02-.13.03-.22.04s-.2.02-.33.02-.24,0-.32-.02c-.08-.01-.15-.03-.19-.04-.05-.02-.08-.04-.09-.08-.01-.03-.02-.07,0-.11l.17-.92c-.08.15-.2.3-.35.45s-.32.29-.51.41-.4.22-.63.3c-.22.08-.46.12-.69.12-.3,0-.55-.04-.75-.12-.21-.08-.37-.2-.5-.34-.12-.14-.22-.31-.27-.51-.06-.2-.08-.42-.08-.65,0-.14,0-.29.03-.44.02-.15.04-.3.07-.46l.7-3.51s.03-.08.06-.11.08-.06.15-.08c.07-.02.15-.03.26-.04s.24-.02.39-.02.28,0,.38.02c.1.01.18.03.23.04.05.02.09.04.11.08.02.03.02.07.02.11l-.67,3.4c-.02.09-.04.19-.05.29,0,.1-.02.2-.02.29,0,.1,0,.19.03.28.02.08.05.15.09.21.04.06.1.1.16.13.07.03.15.04.24.04.17,0,.35-.06.54-.17s.37-.27.54-.46c.17-.2.32-.43.45-.7.13-.27.23-.56.3-.87l.48-2.45s.02-.08.06-.11c.03-.03.08-.06.15-.08.07-.02.15-.03.26-.04s.23-.02.39-.02.29,0,.38.02.18.03.23.04c.06.02.09.04.11.08.02.03.02.07.01.11l-1.14,5.68Z"/>
      <path class="cls-3" d="m322.67,300.21s-.03.08-.06.11c-.03.03-.08.06-.14.08-.06.02-.15.04-.25.05-.11.01-.24.02-.39.02-.16,0-.29,0-.39-.02-.1-.01-.18-.03-.23-.05s-.09-.05-.11-.08c-.02-.03-.02-.07-.02-.11l1.67-8.35s.03-.08.06-.12c.03-.03.08-.06.15-.08.07-.02.15-.04.26-.05.1-.01.23-.02.39-.02s.29,0,.38.02c.1.01.18.03.23.05s.09.05.11.08c.02.03.02.07.01.12l-1.66,8.35Z"/>
      <path class="cls-3" d="m329.29,291.97s0,.07,0,.12c0,.06-.02.12-.03.19-.01.07-.02.15-.04.22-.02.08-.04.15-.06.21s-.05.12-.08.16c-.03.04-.06.06-.09.06-.03,0-.06,0-.1-.02-.04-.01-.09-.03-.14-.04s-.11-.03-.17-.04c-.07-.01-.14-.02-.21-.02-.13,0-.25.02-.35.06-.1.04-.19.1-.26.18-.07.08-.13.19-.18.32s-.09.29-.13.47l-.1.48h1.03c.06,0,.11.02.13.06s.04.1.04.19c0,.04,0,.1,0,.17,0,.07-.02.14-.03.22s-.04.16-.06.23-.05.15-.08.21c-.03.06-.06.12-.11.16-.04.04-.08.06-.13.06h-1.04l-1,4.98c-.07.35-.17.66-.29.93s-.28.49-.47.67-.42.32-.68.41-.56.14-.89.14c-.22,0-.4-.02-.55-.05-.15-.03-.24-.07-.29-.1-.02-.03-.04-.05-.04-.08,0-.03-.01-.07-.01-.13,0-.03,0-.07,0-.13s.02-.12.03-.19c.01-.07.03-.14.05-.22s.04-.15.06-.21c.02-.06.05-.12.08-.16.03-.04.06-.06.1-.06.03,0,.05,0,.08,0,.03,0,.05,0,.08.02.03,0,.06.01.1.02.04,0,.09,0,.16,0,.13,0,.25-.02.35-.06s.19-.1.26-.19c.07-.08.13-.19.18-.33.05-.13.1-.29.13-.49l.96-4.77h-.71c-.05,0-.09-.02-.12-.05s-.04-.1-.04-.21c0-.04,0-.1,0-.17,0-.07.02-.14.03-.21.01-.08.03-.15.05-.23s.05-.15.08-.21c.03-.06.07-.11.11-.15.04-.04.09-.06.14-.06h.7l.12-.63c.07-.36.17-.67.3-.94.13-.27.29-.5.48-.68.19-.18.42-.32.68-.41s.56-.14.89-.14c.11,0,.22,0,.33.02s.21.03.3.04c.09.02.17.04.24.07s.11.05.14.08c.03.02.04.05.05.09,0,.04.02.08.02.14Z"/>
      <path class="cls-3" d="m333.54,300.22c-.02.09-.08.15-.2.19-.12.04-.3.06-.56.06-.13,0-.24,0-.32-.01-.08,0-.15-.02-.2-.04-.05-.02-.08-.04-.1-.08-.01-.03-.02-.07,0-.12l.18-.91c-.06.14-.16.28-.3.43-.14.15-.3.29-.49.41-.19.12-.4.22-.63.3-.23.08-.47.12-.71.12-.34,0-.62-.06-.84-.18-.22-.12-.4-.28-.54-.48-.13-.2-.23-.43-.29-.69-.06-.26-.09-.53-.09-.81,0-.27.03-.56.08-.87s.13-.63.24-.94c.11-.31.24-.61.41-.9.16-.29.36-.55.59-.77.23-.22.5-.4.79-.54.3-.13.64-.2,1.01-.2.35,0,.66.07.93.22.27.15.51.36.71.64l.1-.5c.02-.09.08-.15.2-.19.12-.04.3-.06.56-.06.13,0,.23,0,.32.02s.15.03.2.04c.05.02.08.04.1.08.02.03.02.07.01.11l-1.14,5.68Zm-.79-3.97c-.15-.23-.31-.41-.49-.52s-.39-.17-.62-.17c-.18,0-.34.04-.49.13-.15.08-.28.2-.39.34-.11.14-.21.31-.3.49-.09.19-.16.38-.22.58-.06.2-.1.4-.13.61-.03.21-.04.39-.04.57,0,.13,0,.25.03.36.02.11.05.22.1.3s.12.16.2.21.19.08.32.08c.19,0,.38-.06.57-.17.19-.11.38-.26.54-.46.17-.19.32-.42.45-.67.13-.26.22-.53.28-.82l.18-.86Z"/>
    </g>
    <g>
      <path class="cls-3" d="m357.22,339.5c0,.37-.03.77-.1,1.19-.07.42-.18.84-.33,1.26-.15.42-.35.82-.59,1.2s-.54.72-.9,1.01c-.35.29-.76.52-1.24.7s-1.01.26-1.62.26c-.51,0-.96-.06-1.36-.17-.39-.11-.72-.29-.99-.53-.27-.24-.47-.54-.61-.89-.14-.36-.21-.78-.21-1.27,0-.4.04-.81.11-1.25.07-.43.18-.86.34-1.28s.36-.81.61-1.19c.25-.38.55-.71.9-1s.76-.52,1.23-.68,1-.25,1.6-.25c.51,0,.96.06,1.36.17s.72.29.99.53c.27.24.47.54.61.9.14.36.21.79.21,1.28Zm-1.77.16c0-.26-.03-.49-.08-.7-.06-.21-.15-.39-.28-.53s-.29-.25-.5-.33-.46-.12-.75-.12c-.37,0-.69.07-.97.21s-.52.33-.73.56c-.21.23-.38.49-.52.78-.14.29-.25.59-.34.89s-.14.6-.18.89-.05.54-.05.76c0,.26.03.5.08.7.06.21.15.38.28.52.13.14.3.25.5.33.21.08.46.11.76.11.36,0,.69-.07.96-.21.28-.14.52-.32.73-.55s.38-.49.52-.78c.14-.29.25-.59.34-.89s.14-.59.18-.88c.04-.29.05-.54.05-.77Z"/>
      <path class="cls-3" d="m362.32,339s0,.08-.01.16c0,.08-.02.17-.04.27-.02.1-.04.21-.06.31-.03.11-.05.21-.09.3-.03.09-.07.17-.11.23-.04.06-.08.09-.13.09-.04,0-.08,0-.11-.02s-.08-.03-.13-.04-.1-.03-.15-.04-.12-.02-.19-.02c-.14,0-.3.06-.46.17-.16.11-.32.25-.47.43s-.28.39-.4.63c-.12.24-.2.49-.25.75l-.51,2.55s-.03.08-.06.11c-.03.03-.08.06-.15.08-.07.02-.15.04-.26.05-.11.01-.23.02-.39.02s-.29,0-.38-.02c-.1-.01-.18-.03-.23-.05s-.09-.05-.11-.08c-.02-.03-.02-.07-.01-.11l1.13-5.67s.03-.08.06-.11c.03-.03.07-.06.13-.08.06-.02.13-.03.22-.04.09-.01.2-.02.33-.02s.24,0,.32.02c.08.01.15.03.19.04.05.02.08.04.09.08.01.03.02.07,0,.11l-.18.9c.1-.18.22-.35.35-.5s.28-.28.43-.4c.15-.11.3-.2.47-.26s.32-.1.48-.1c.06,0,.13,0,.19.01.07,0,.13.02.19.03.06.01.11.03.15.05.04.02.08.04.1.06.03.03.04.07.04.12Z"/>
      <path class="cls-3" d="m367.46,344.76c-.02.09-.08.15-.2.19-.12.04-.3.06-.56.06-.13,0-.24,0-.32-.01-.08,0-.15-.02-.2-.04-.05-.02-.08-.04-.1-.08-.01-.03-.02-.07,0-.12l.17-.91c-.06.14-.16.28-.3.43-.14.15-.3.29-.49.41-.19.12-.4.23-.63.3-.23.08-.47.12-.71.12s-.45-.03-.63-.09c-.18-.06-.33-.14-.46-.25-.13-.11-.24-.23-.32-.37s-.15-.3-.2-.46-.09-.33-.11-.5c-.02-.17-.03-.34-.03-.5,0-.28.03-.57.08-.89s.13-.63.24-.94c.11-.31.24-.61.41-.9.17-.29.36-.54.59-.76.23-.22.5-.4.79-.53.3-.13.63-.2,1.01-.2.17,0,.32.02.47.05.15.04.29.08.41.15.12.06.24.13.34.22.1.08.19.17.26.27l.6-2.99s.03-.08.06-.11c.03-.03.08-.06.14-.09.07-.02.15-.04.25-.05s.23-.02.39-.02.28,0,.38.02c.1.01.18.03.23.05s.09.05.11.09c.02.03.02.07.01.11l-1.66,8.33Zm-.79-3.97c-.15-.23-.31-.41-.49-.53-.18-.12-.39-.18-.62-.18-.17,0-.33.04-.48.12-.15.08-.28.19-.39.33-.12.14-.22.3-.3.48-.09.18-.16.38-.22.58-.06.2-.1.41-.13.61s-.04.4-.04.58c0,.32.05.56.16.73s.27.24.5.24c.19,0,.38-.06.57-.17.19-.11.38-.26.54-.45.17-.19.32-.41.45-.67.13-.26.22-.53.28-.82l.18-.86Z"/>
      <path class="cls-3" d="m374.31,344.76s-.03.08-.05.11c-.03.03-.07.06-.13.08-.06.02-.13.03-.22.04-.09.01-.2.02-.33.02s-.24,0-.32-.02-.15-.03-.19-.04c-.05-.02-.08-.04-.09-.08-.02-.03-.02-.07,0-.11l.17-.92c-.08.15-.2.3-.35.45-.15.15-.32.29-.51.41-.19.12-.4.22-.63.3s-.46.12-.69.12c-.3,0-.55-.04-.75-.12-.21-.08-.37-.2-.49-.34-.12-.14-.22-.31-.27-.51s-.09-.42-.09-.65c0-.14,0-.29.03-.44.02-.15.04-.3.07-.46l.7-3.51s.03-.08.06-.11c.03-.03.08-.06.15-.08.07-.02.15-.03.26-.04.11-.01.23-.02.39-.02s.29,0,.38.02c.1.01.18.03.23.04.06.02.09.04.11.08.02.03.02.07.02.11l-.67,3.4c-.02.09-.04.19-.05.29,0,.1-.02.2-.02.29,0,.1,0,.19.03.28.02.08.05.15.09.21s.1.1.16.13c.07.03.14.04.24.04.17,0,.35-.06.54-.17.19-.11.37-.27.54-.46.17-.2.32-.43.46-.7.13-.27.23-.56.3-.87l.48-2.45s.02-.08.06-.11c.03-.03.08-.06.15-.08.06-.02.15-.03.26-.04.11-.01.24-.02.39-.02s.28,0,.38.02.18.03.23.04c.06.02.09.04.11.08.02.03.02.07.01.11l-1.14,5.68Z"/>
      <path class="cls-3" d="m382.16,340.88c0,.28-.03.58-.08.9s-.13.63-.23.95c-.11.31-.24.61-.41.9-.17.29-.36.54-.6.76-.23.22-.5.4-.8.53-.3.13-.63.2-1,.2s-.67-.07-.94-.21-.51-.35-.71-.63l-.1.48c-.02.09-.08.15-.2.19-.12.04-.3.06-.56.06s-.43-.02-.52-.06c-.09-.04-.13-.11-.11-.19l1.67-8.35s.03-.08.06-.12c.03-.03.08-.06.15-.08s.15-.04.26-.05c.1-.01.23-.02.39-.02s.28,0,.38.02c.1.01.17.03.23.05s.09.05.11.08c.02.03.02.07.01.12l-.45,2.27c-.02.1-.04.2-.07.31-.03.11-.05.21-.09.32s-.06.21-.1.31c-.03.1-.06.19-.09.26.08-.14.19-.27.33-.41.14-.14.3-.26.48-.37.18-.11.38-.2.59-.27.21-.07.42-.1.63-.1.24,0,.45.03.63.09s.33.14.46.25c.13.11.24.23.32.37s.15.29.2.45c.05.16.09.32.11.49.02.17.03.33.03.49Zm-1.64.16c0-.11,0-.22-.02-.33-.01-.11-.05-.22-.1-.31-.05-.09-.12-.17-.2-.23-.08-.06-.2-.09-.34-.09-.19,0-.38.06-.57.17-.19.11-.37.27-.54.46-.17.19-.32.42-.45.68-.13.26-.22.53-.28.83l-.18.86c.15.23.31.41.49.52s.39.17.62.17c.17,0,.33-.04.47-.12.14-.08.27-.19.39-.33.12-.14.22-.29.3-.48.09-.18.16-.37.22-.57s.1-.41.13-.61c.03-.21.04-.41.04-.6Z"/>
      <path class="cls-3" d="m388.04,344.76c-.02.09-.08.15-.2.19-.12.04-.3.06-.56.06-.13,0-.24,0-.32-.01-.08,0-.15-.02-.2-.04-.05-.02-.08-.04-.1-.08-.01-.03-.02-.07,0-.12l.18-.91c-.06.14-.17.28-.3.43-.14.15-.3.29-.5.41-.19.12-.4.22-.63.3s-.47.12-.71.12c-.34,0-.62-.06-.84-.18-.22-.12-.4-.28-.54-.48-.14-.2-.23-.43-.29-.69-.06-.26-.09-.53-.09-.81,0-.27.03-.56.08-.87s.13-.63.23-.94c.11-.31.24-.61.41-.9.17-.29.36-.55.59-.77.23-.22.5-.4.79-.54.3-.13.64-.2,1.01-.2.35,0,.66.07.93.22.27.15.51.36.71.64l.1-.5c.02-.09.08-.15.2-.19.12-.04.3-.06.56-.06.13,0,.23,0,.32.02s.15.03.2.04c.05.02.08.04.1.08.02.03.02.07.01.11l-1.14,5.68Zm-.79-3.97c-.15-.23-.31-.41-.49-.52-.18-.12-.39-.17-.62-.17-.18,0-.34.04-.49.13-.15.08-.28.2-.39.34-.12.14-.21.31-.3.49s-.16.38-.22.58c-.06.2-.1.4-.13.61s-.04.39-.04.57c0,.13,0,.25.03.36.02.11.05.22.1.3s.12.16.2.21.19.08.32.08c.19,0,.38-.06.57-.17.2-.11.38-.26.55-.46.17-.19.32-.42.45-.67s.22-.53.28-.82l.18-.86Z"/>
      <path class="cls-3" d="m394.9,344.76c-.02.09-.08.15-.2.19-.12.04-.3.06-.56.06-.13,0-.24,0-.32-.01s-.15-.02-.2-.04c-.05-.02-.08-.04-.1-.08-.01-.03-.02-.07,0-.12l.17-.91c-.06.14-.17.28-.3.43s-.3.29-.5.41-.4.23-.63.3-.47.12-.71.12-.45-.03-.63-.09-.33-.14-.46-.25c-.13-.11-.24-.23-.32-.37-.08-.14-.15-.3-.2-.46s-.09-.33-.11-.5c-.02-.17-.03-.34-.03-.5,0-.28.03-.57.08-.89s.13-.63.24-.94c.11-.31.24-.61.41-.9.16-.29.36-.54.59-.76.23-.22.49-.4.79-.53s.63-.2,1.01-.2c.17,0,.32.02.47.05s.29.08.41.15c.12.06.24.13.34.22.1.08.19.17.26.27l.6-2.99s.03-.08.06-.11.08-.06.14-.09c.06-.02.15-.04.25-.05.1-.01.23-.02.39-.02s.28,0,.38.02.18.03.23.05c.05.02.09.05.11.09s.02.07.01.11l-1.66,8.33Zm-.79-3.97c-.15-.23-.31-.41-.49-.53-.18-.12-.39-.18-.62-.18-.17,0-.33.04-.48.12-.14.08-.28.19-.39.33-.12.14-.22.3-.3.48-.09.18-.16.38-.22.58-.06.2-.1.41-.13.61-.03.2-.04.4-.04.58,0,.32.05.56.16.73.11.16.27.24.5.24.19,0,.38-.06.57-.17s.38-.26.55-.45.32-.41.45-.67.22-.53.28-.82l.18-.86Z"/>
    </g>
    <g>
      <path class="cls-3" d="m217.65,255.17c-.02.1-.05.18-.1.26-.05.08-.11.14-.17.19-.07.05-.14.09-.22.11-.08.02-.16.04-.24.04h-.71c-.15,0-.28-.01-.37-.04-.1-.03-.18-.08-.25-.16s-.13-.18-.19-.31c-.05-.13-.11-.3-.17-.5l-1.21-3.67c-.09-.28-.18-.57-.26-.86-.08-.29-.15-.57-.22-.86h-.01c-.04.33-.09.66-.15.99-.06.32-.12.65-.18.97l-.84,4.2s-.03.08-.06.11c-.03.03-.08.06-.14.08-.06.02-.14.04-.24.05-.1.01-.22.02-.37.02s-.27,0-.37-.02c-.1-.01-.17-.03-.22-.05-.05-.02-.08-.05-.1-.08-.02-.03-.02-.07,0-.11l1.48-7.39c.04-.2.12-.35.26-.45s.29-.15.46-.15h.87c.14,0,.26.02.36.05.1.03.19.08.25.15.07.07.13.16.19.27.05.11.1.25.15.41l1.22,3.7c.08.24.15.47.22.7.07.23.13.47.21.7h.01c.05-.3.1-.62.16-.94.06-.32.12-.64.17-.94l.78-3.87s.03-.08.06-.11c.03-.03.08-.06.14-.08.06-.02.14-.03.24-.04.1-.01.22-.02.37-.02s.27,0,.37.02c.1.01.17.03.22.04.05.02.08.04.1.08.02.03.02.07.01.11l-1.49,7.41Z"/>
      <path class="cls-3" d="m224.53,255.54c-.02.09-.08.15-.2.19-.12.04-.3.06-.56.06-.13,0-.24,0-.32-.01s-.15-.02-.2-.04c-.05-.02-.08-.04-.1-.08-.01-.03-.02-.07,0-.12l.18-.91c-.06.14-.17.28-.3.43s-.3.29-.5.41-.4.22-.63.3c-.23.08-.47.12-.71.12-.34,0-.62-.06-.84-.18-.22-.12-.4-.28-.54-.48s-.23-.43-.29-.69c-.06-.26-.09-.53-.09-.81,0-.27.03-.56.08-.87s.13-.63.23-.94c.11-.31.24-.61.41-.9s.36-.55.59-.77c.23-.22.49-.4.79-.54.3-.13.64-.2,1.01-.2.35,0,.66.07.93.22.27.15.51.36.71.64l.1-.5c.02-.09.08-.15.2-.19.12-.04.3-.06.56-.06.13,0,.23,0,.32.02.08.01.15.03.2.04.05.02.08.04.1.08.02.03.02.07.01.11l-1.14,5.68Zm-.79-3.97c-.15-.23-.31-.41-.49-.52-.18-.12-.39-.17-.62-.17-.18,0-.34.04-.49.13-.15.08-.28.2-.39.34s-.21.31-.3.49c-.09.19-.16.38-.21.58-.06.2-.1.4-.13.61-.03.21-.04.39-.04.57,0,.13,0,.25.03.36s.05.22.11.3.12.16.2.21c.08.05.19.08.32.08.19,0,.38-.06.57-.17s.38-.26.55-.46.32-.42.45-.67c.13-.26.22-.53.28-.82l.18-.86Z"/>
      <path class="cls-3" d="m230.08,252.6l1.02,2.82c.02.07.03.13.01.18s-.05.08-.12.11c-.07.03-.16.05-.28.06-.12.01-.28.02-.48.02-.18,0-.32,0-.42-.01s-.18-.02-.23-.04c-.06-.02-.09-.04-.11-.07-.02-.03-.03-.06-.04-.1l-.69-2-1.44,2.01s-.05.07-.08.1c-.03.03-.08.05-.16.07s-.17.03-.29.04c-.12,0-.28.01-.49.01-.18,0-.33,0-.44-.02-.11-.01-.19-.03-.24-.06s-.07-.06-.07-.11c0-.04.03-.1.08-.17l2.15-2.82-.95-2.62c-.03-.08-.03-.14-.03-.19,0-.05.04-.09.1-.12.06-.03.15-.05.27-.06.12-.01.28-.02.48-.02.17,0,.31,0,.41,0,.1,0,.18.02.23.03s.09.03.11.06c.02.03.03.06.05.1l.66,1.89,1.36-1.89s.05-.06.08-.09c.03-.03.08-.05.14-.06.06-.02.15-.03.25-.04s.24-.01.41-.01c.2,0,.35,0,.47.01.12,0,.2.03.26.05.05.03.08.06.07.1,0,.04-.04.1-.09.18l-1.97,2.63Z"/>
      <path class="cls-3" d="m233.3,255.8c-.44-.11-.77-.34-1.01-.68-.24-.34-.36-.81-.36-1.39,0-.26.02-.54.07-.85s.13-.62.24-.93c.11-.31.25-.61.43-.91.18-.29.39-.55.64-.77.25-.22.55-.4.88-.54.33-.14.72-.2,1.15-.2.17,0,.33.01.5.04.16.03.31.06.44.1.14.04.26.1.36.16.1.06.18.11.23.16s.08.09.1.13c.01.04.02.08.02.14,0,.1-.01.21-.04.33-.02.12-.05.24-.09.35-.04.11-.09.2-.14.28s-.12.11-.19.11c-.06,0-.12-.03-.18-.08s-.13-.11-.22-.17c-.09-.06-.2-.12-.33-.17s-.3-.08-.51-.08c-.22,0-.42.05-.59.15-.17.1-.32.22-.45.38s-.24.33-.32.53c-.08.2-.15.4-.21.6s-.09.39-.12.58c-.02.18-.03.34-.03.48,0,.34.08.6.23.78s.39.27.71.27c.24,0,.44-.03.61-.09.17-.06.31-.13.44-.2s.22-.14.31-.2c.09-.06.17-.09.24-.09.04,0,.07.02.09.06s.03.09.03.17,0,.16-.03.27c-.02.11-.04.22-.07.33-.03.11-.06.21-.1.31-.04.1-.08.17-.14.23-.06.05-.15.12-.28.2-.13.08-.29.14-.47.2-.18.06-.37.1-.57.12l.08.32c.03.11.05.21.07.3.02.09.03.19.03.28,0,.23-.04.43-.11.59-.07.17-.18.3-.31.41-.14.11-.3.19-.49.24-.19.05-.4.08-.62.08-.12,0-.24,0-.36-.01-.12,0-.22-.02-.32-.04-.1-.02-.18-.04-.26-.06s-.14-.04-.19-.07c-.05-.03-.08-.05-.09-.08-.02-.03-.03-.07-.03-.12,0-.04,0-.1.02-.18,0-.08.03-.15.05-.23s.06-.14.1-.2c.04-.06.1-.08.17-.08h.72c.06,0,.12,0,.17-.02s.1-.04.14-.06c.04-.03.07-.06.09-.11.02-.05.04-.1.04-.16,0-.04,0-.09,0-.15,0-.05-.02-.11-.03-.17l-.13-.53Z"/>
      <path class="cls-3" d="m238.75,255.54s-.03.08-.06.11c-.03.03-.08.06-.15.08s-.15.04-.26.05-.23.02-.39.02-.29,0-.38-.02-.18-.03-.23-.05c-.06-.02-.09-.05-.11-.08-.02-.03-.02-.07-.01-.11l1.13-5.66s.03-.08.06-.11.08-.06.15-.08.15-.04.25-.05c.1-.01.23-.02.39-.02s.28,0,.38.02.18.03.24.05c.06.02.09.05.11.08.02.03.02.07.01.11l-1.13,5.66Z"/>
      <path class="cls-3" d="m246.43,249.83s0,.1-.02.17c-.01.07-.03.14-.06.22-.16.46-.33.92-.52,1.37s-.4.91-.63,1.36c-.23.45-.47.89-.74,1.32-.27.43-.55.85-.86,1.25-.04.06-.09.11-.15.14-.06.04-.13.06-.21.08-.08.02-.18.03-.3.03-.11,0-.25,0-.4,0-.23,0-.42,0-.55-.02s-.24-.03-.31-.05c-.07-.03-.12-.06-.15-.11-.03-.04-.04-.1-.04-.17l-.67-5.09c0-.07,0-.13-.01-.19s0-.11,0-.17c0-.08,0-.15.03-.19.02-.04.06-.08.12-.11s.14-.05.25-.06c.11-.01.25-.02.43-.02.17,0,.3,0,.4.01s.17.02.22.04c.05.02.09.05.11.08s.03.08.03.13l.48,4.16v.16l.03-.06c.22-.33.41-.65.59-.98s.34-.67.49-1.02c.15-.35.29-.71.42-1.08.13-.37.26-.77.39-1.18.01-.05.04-.1.07-.13s.08-.06.16-.08c.07-.02.16-.04.27-.04.11,0,.24-.01.4-.01s.29,0,.38.01c.1,0,.17.02.23.04.05.02.09.04.11.06s.03.06.03.1Z"/>
      <path class="cls-3" d="m251.71,255.54c-.02.09-.08.15-.2.19-.12.04-.3.06-.56.06-.13,0-.24,0-.32-.01-.08,0-.15-.02-.2-.04-.05-.02-.08-.04-.1-.08-.01-.03-.02-.07,0-.12l.18-.91c-.06.14-.17.28-.3.43-.14.15-.3.29-.5.41-.19.12-.4.22-.63.3s-.47.12-.71.12c-.34,0-.62-.06-.84-.18-.22-.12-.4-.28-.54-.48-.14-.2-.23-.43-.29-.69-.06-.26-.09-.53-.09-.81,0-.27.03-.56.08-.87s.13-.63.23-.94c.11-.31.24-.61.41-.9.17-.29.36-.55.59-.77.23-.22.5-.4.79-.54.3-.13.64-.2,1.01-.2.35,0,.66.07.93.22.27.15.51.36.71.64l.1-.5c.02-.09.08-.15.2-.19.12-.04.3-.06.56-.06.13,0,.23,0,.32.02s.15.03.2.04c.05.02.08.04.1.08.02.03.02.07.01.11l-1.14,5.68Zm-.79-3.97c-.15-.23-.31-.41-.49-.52-.18-.12-.39-.17-.62-.17-.18,0-.34.04-.49.13-.15.08-.28.2-.39.34-.12.14-.21.31-.3.49s-.16.38-.22.58c-.06.2-.1.4-.13.61s-.04.39-.04.57c0,.13,0,.25.03.36.02.11.05.22.1.3s.12.16.2.21.19.08.32.08c.19,0,.38-.06.57-.17.2-.11.38-.26.55-.46.17-.19.32-.42.45-.67s.22-.53.28-.82l.18-.86Z"/>
      <path class="cls-3" d="m259.4,251.14c0,.15,0,.3-.03.45-.02.15-.04.3-.07.46l-.7,3.5s-.03.08-.06.11c-.03.03-.08.06-.15.08-.07.02-.15.04-.25.05s-.23.02-.39.02-.28,0-.38-.02c-.1-.01-.18-.03-.23-.05s-.09-.05-.11-.08c-.02-.03-.02-.07-.02-.11l.69-3.4c.02-.1.04-.21.05-.31.01-.11.02-.2.02-.28,0-.19-.04-.35-.12-.47-.08-.12-.22-.18-.41-.18-.17,0-.36.05-.54.16-.19.11-.37.26-.53.45-.17.19-.32.41-.45.66-.13.25-.22.52-.28.8l-.51,2.56s-.03.08-.06.11c-.03.03-.08.06-.15.08-.07.02-.15.04-.26.05-.11.01-.23.02-.39.02s-.29,0-.38-.02c-.1-.01-.18-.03-.23-.05s-.09-.05-.11-.08c-.02-.03-.02-.07-.01-.11l1.14-5.67s.03-.08.05-.11c.03-.03.07-.06.13-.08.06-.02.13-.03.22-.04.09-.01.2-.02.33-.02s.24,0,.32.02c.08.01.15.03.19.04.05.02.08.04.09.08.01.03.02.07,0,.11l-.18.93c.09-.15.21-.3.36-.45.15-.15.32-.29.51-.42.19-.12.4-.22.63-.3.23-.08.46-.12.71-.12.3,0,.54.04.75.13s.36.2.49.35c.12.15.21.32.27.52.06.2.08.41.08.62Z"/>
    </g>
  </g>
  <path id="AZNX" class="cls-2" d="m256.28,277.57l-9.11,2.03-7.22-10.68,4.05-6.22,5.8.54,6.61-.95,6.55-.27-2.23,9.87-4.45,5.68Z"/>
</svg>