<?xml version="1.0" encoding="UTF-8"?>
<svg xmlns="http://www.w3.org/2000/svg" version="1.1" viewBox="0 0 841.89 595.28">
  <defs>
    <style>
      .cls-1 {
        fill: #22423e;
      }

      .cls-2 {
        fill: #2a2a2a;
      }
    </style>
  </defs>
  <!-- Generator: Adobe Illustrator 28.6.0, SVG Export Plug-In . SVG Version: 1.2.0 Build 709)  -->
  <g>
    <g id="Layer_1">
      <path id="Path_2097" class="cls-2" d="M192.56,70.73c-2.12,2.3-3.38,5.27-3.57,8.39,0,4.62,6.72,13.01,10.49,13.01,8.39,0,14.69-20.98,7.13-23.92-5.88-2.31-10.49-1.26-14.06,2.52Z"/>
      <path id="Path_2098" class="cls-1" d="M244.6,77.87c-2.31,1.26-9.03,6.72-14.9,12.17-18.67,17.63-28.96,20.57-37.77,11.12q-5.25-5.67-18.05-2.94c-18.05,3.57-30.85,10.07-32.32,16.16-1.68,6.3,0,8.6,7.13,10.28,7.98,1.68,14.69,15.74,11.33,23.29-2.73,5.88-.42,7.98,9.02,8.39,10.92.63,25.18,24.97,20.36,35.25-1.68,3.99-1.26,6.29,1.89,11.54,2.1,3.57,3.99,8.6,3.99,11.33.21,8.19,6.92,19.3,12.17,19.93,5.88.84,8.19,5.67,4.62,10.07-3.36,3.78-1.47,5.88,9.23,9.23,12.17,3.99,23.5,16.37,25.18,27.7.68,5.82,3.34,11.24,7.55,15.32,3.57,3.36,6.3,8.19,6.3,10.7.36,3.07,2.04,5.83,4.62,7.55,4.41,2.94,4.62,3.78,2.1,10.92-3.78,10.49-1.68,15.32,7.55,18.05,3.51.98,7.09,1.68,10.7,2.1,1.68,0,7.13,4.2,11.96,9.44,7.97,8.81,9.23,9.44,14.06,7.13,6.72-3.15,11.12-.63,16.79,9.65,2.74,4.55,6.47,8.42,10.92,11.33,3.57,1.89,14.48,11.54,24.76,21.4,14.9,14.9,18.26,19.31,18.26,24.34,0,7.55,7.14,17.42,12.59,17.42,2.31,0,7.34,2.94,11.54,6.5,7.14,6.3,7.55,6.5,14.06,3.36,7.97-3.78,14.69-1.47,18.26,6.09,3.15,7.13,7.13,7.97,14.9,3.99,6.5-3.36,7.13-3.36,17.21,1.89,5.88,3.15,13.85,5.46,18.67,5.46s9.44,1.47,11.75,3.78c5.67,5.88,10.92,7.13,19.1,4.4,6.72-2.31,7.55-1.89,15.74,6.09,13.43,12.8,16.79,13.85,22.46,7.77,5.67-6.09,16.78-7.14,20.98-2.1,1.47,1.89,6.09,3.15,11.54,3.15s13.43,2.31,21.61,6.5c7.13,3.57,13.85,5.88,15.11,5.04,2.73-1.68,2.73-31.27,0-41.13-1.26-4.2-6.09-13.01-10.92-19.93-10.7-15.11-14.69-25.6-11.75-30.85,2.31-4.62-1.26-9.86-6.72-9.86s-9.44-5.67-17-23.08c-8.19-19.31-8.39-28.75-1.05-45.33,8.82-19.51,7.35-23.08-10.91-28.12-6.51-1.68-12.38-5.88-21.2-14.69l-12.17-12.38-11.54,1.26c-10.49,1.05-11.96.63-15.11-3.78-4.83-7.13-4.2-12.8,3.15-26.86,6.3-12.17,6.51-12.8,4.2-26.86-1.38-9.09-1.94-18.29-1.68-27.49.42-12.59,0-13.64-6.29-19.31-4.2-3.78-10.92-6.72-18.26-8.39-12.38-2.52-16.79-1.26-36.51,10.28-5.46,3.15-9.44,3.78-19.93,2.94-13.01-1.05-13.43-1.05-18.47,5.67-7.34,9.65-17,18.67-21.61,20.15-2.52.84-7.13-1.05-13.64-5.67-8.6-6.3-11.33-7.14-23.3-7.14-7.55,0-14.69-.84-16.16-1.68-1.47-.84-3.15-5.04-3.78-9.44-2.31-13.43-5.25-18.47-13.01-22.24-7.14-3.36-7.77-3.36-16.16.84-17.42,8.39-24.34,3.57-19.93-13.65,3.36-13.21,0-23.29-10.49-33.15-6.29-5.67-8.81-10.07-10.49-18.26-1.04-4.5-1.81-9.06-2.31-13.65,0-4.41-7.55-11.54-11.96-11.54-2.8.29-5.52,1.15-7.97,2.53Z"/>
    </g>
  </g>
</svg>