<?xml version="1.0" encoding="UTF-8"?>
<svg id="Layer_1" data-name="Layer 1" xmlns="http://www.w3.org/2000/svg" viewBox="0 0 500 500">
  <defs>
    <style>
      .cls-1 {
        fill: #6f9c77;
        stroke-linecap: round;
        stroke-linejoin: round;
      }

      .cls-1, .cls-2 {
        stroke: #fff;
      }

      .cls-2 {
        fill: #0b7b5f;
        stroke-miterlimit: 10;
      }

      .cls-3 {
        fill: #f9e5af;
      }
    </style>
  </defs>
  <g>
    <path class="cls-2" d="m190.48,222.27c.14-.49.47-1.16.47-1.68,0-.38-.24-.8-.31-1.18-.08-.39-.16-.79-.25-1.17-.21-.8-.36-1.57-.54-2.36-.25-1.08-.09-1.33.32-2.45.4-1.08,1.24-2.04,2.23-2.71,1.42-.96,2.97-1.53,4.43-2.38.94-.55,1.52-1.26,1.86-2.29.24-.73.37-1.49.62-2.21.27-.78.65-1.51.9-2.3.25-.8.49-1.63.65-2.45.16-.83.02-1.78.33-2.58.18-.47.46-.83.59-1.33.19-.68.28-1.49.81-2.03.47-.48,1.16-.47,1.77-.6.6-.13,1.16-.41,1.77-.47,1.25-.12,1.84,1.06,2.88,1.58.73.37,1.58.96,2.44.74.45-.12.87-.44,1.3-.62,1.03-.41,2.11-.64,3.12-1.08.56-.24,1.08-.59,1.67-.75.62-.17,1.32-.21,1.96-.31.6-.09,1.5.14,2.01-.2.31-.21.41-.57.57-.89.43-.86.22-1.58.38-2.53.17-.99.45-2.12-.04-3.06-.47-.91-1.07-1.75-1.07-2.81,0-1.2,1.44-1.49,2.46-1.63.9-.13,1.29.03,1.94.73.82.88,1.49,1.92,2.22,2.88.41.54.61,1.09.94,1.63.24.38.3.44.76.45.57,0,1.17-.23,1.75-.27.55-.04,1.06-.19,1.51-.52.93-.67,1.79-1.47,2.86-1.92.4-.17.97-.56,1.38-.64.58-.12,1.07.3,1.5.62.57.41.94.84,1.02,1.55.11.91.03,1.67.36,2.56.23.62.56,1.23.9,1.79.38.62,1.17.88,1.08,1.7-.16,1.33-1.69,3.23-.03,4.27.59.37,1.51.84,2.21.91.6.06,1.01-.13,1.56-.25.78-.18,1.28.31,2.06.11.76-.2,1.5-.2,2.28-.44.88-.28,2.48-.56,3.07-1.27.02-.02.03-.05.05-.07-.1-.03-.22-.1-.37-.22.14.12.26.19.37.22.42-.57.63-1.77.25-2.35-.21-.32-.62-.38-.9-.61-.35-.29-.46-.61-.59-1.03-.31-1.04,0-2.09-.2-3.12-.16-.85-.53-1.75-.85-2.55-.23-.59-.32-1.14-.47-1.75-.15-.64-.53-1.21-.69-1.84-.22-.92.07-1.92-.1-2.86-.18-1.01-.32-2.03-.45-3.04-.1-.74-.24-1.12-.08-1.87.12-.59.15-1.21.25-1.81.21-1.22.78-2.14,1.51-3.12.94-1.26,2.33-2.32,3.08-3.7.18-.33.29-.67.36-1.03.12-.57.36-1.4.33-1.99-.1-1.61-2.66-.93-3.67-1.06-.87-.11-1.68-.24-2.5-.52-.59-.21-1.3-.47-1.97-.65-1.1-.28-1.9-.3-2.61-1.25-.46-.61-.59-1.42-1.04-2.04-.38-.52-.95-1.03-1.39-1.48-.65-.66-1.07-1.52-1.55-2.33-.49-.82-.94-1.56-1.23-2.47-.24-.75-.41-1.37-.84-2.05-.49-.79-.63-.51-1.41-.33-1.26.29-1.88-1.45-2.38-2.35-.69-1.22-1.27-2.42-1.37-3.82-.11-1.49.32-3.15.8-4.54.24-.7.55-1.33.75-2.04.19-.67.12-1,0-1.68-.1-.59-.47-.99-.92-1.33-.14.12-.31.22-.56.3.25-.08.42-.18.56-.3-.46-.34-1.01-.61-1.47-.92-.57-.39-1.07-.85-1.55-1.3-.43-.4-.95-.66-1.36-1.1-.52-.55-1.02-1.34-1.28-2.05-.38-1.04-.64-2.21-.64-3.36,0-1.1-.26-1.8-.74-2.74-.39-.76-.72-1.71-.81-2.55-.03-.34-.17-.52-.24-.8-.06-.25,0-.5-.04-.75-.04-.2-.1-.44-.19-.65-.99.32-1.88.92-2.49,1.8-1.14,1.63-1.59,3.26-3.48,4.13-1.04.48-2.29.87-2.96,1.8-.49.68-1.07,1.02-1.7,1.58-.67.6-1.06,1.37-1.79,1.9-.54.39-1.21.91-1.81,1.21-.97.47-1.99.58-2.93,1.19-1.07.69-1.77,2.09-2.64,3.01-.48.51-1.08,1.11-1.74,1.33-1.48.48-2.91-.75-4.36-.9-1.49-.16-3.03.35-4.51.45-1.38.1-2.79.2-4.17.27-1.4.07-2.75-.35-4.14-.09-1.32.25-2.59.91-3.95.91-1.02,0-1.65.18-2.48.81-.97.73-1.92,1.43-2.94,2.1-1.59,1.05-2.95,2.27-4.8,2.87-.55.18-1.13.27-1.68.45-.87.29-1.5,1-2.27,1.46-.76.45-1.63.71-2.43,1.06-.91.4-1.7,1.12-2.65,1.42-.67.22-1.38.1-2.07.25-.73.16-1.33.57-2.04.77-.78.22-1.57.13-2.38.14-.81,0-1.2.31-1.81.83-1.45,1.23-3,2.3-4.33,3.69-1.33,1.4-1.83,3.27-3.07,4.73-.38.45-.65.95-1.12,1.32,0,0,0,0,0,0,.35.57.78,1.16,1.02,1.73.45,1.06.6,2.88.6,3.98,0,1.07-.41,1.33-1.1,2.03-.51.52-.91,1.12-1.28,1.74-.77,1.27-1.16,2.39-2.44,3.3-.94.66-2.46.96-2.91,2.17-.06.59-.08,1.18-.07,1.77.03.73-.04,1.45-.2,2.16-.35,2.03-.98,3.7-.26,5.75.72,2.06,2.2,3.93,3.11,5.92.57,1.24,1.17,2.51,1.51,3.84.36,1.43.4,2.9.78,4.34.19.72.33,1.45.52,2.17.26,1.01.82,2.93,2.12,2.62,1.27-.31,2.13-1.1,3.17-1.84,1.09-.77,2.56-.91,3.75-1.49,1.96-.96,3.59-1.83,5.81-1.73,1.16.05,2.93-.09,4,.46,1.05.54,1.98,1.33,2.77,2.19,1.5,1.65,3.16,3.15,4.65,4.82.27.41.62.74,1.04.97.08.03.16.06.25.09.17.17.21.46.36.66.2.26.53.6.77.83.64.62.97,1.35,1.47,2.11.42.63.9,1.18,1.3,1.82.24.38.45.74.84.99.29.19.59.2.85.41.23.19.75.83.85,1.12.1.28-.04.51.02.77.07.31.45.66.72.84.64.41,1.17.71,1.87.97.3.11.85.11,1,.56.13.41-.48.93-.68,1.24-1.1,1.74.64,3,1.97,3.82.71.44,1.34,1.19,2.09,1.55.57.27,1.57.06,2.03.54.55.58.7,1.85.57,2.6-.01.07-.06.29-.13.5.17-.11.33-.24.47-.39.44-.49.81-1.03,1-1.66Z"/>
    <path class="cls-2" d="m179.57,232.72c.31.17.93.33,1.3.39.21.04.45-.07.65-.02.17.04.3.17.43.21.86.28,1.63.7,2.52,1.03.42.15.86.25,1.29.38.32.1.96.51,1.3.48.23-.02.29-.25.49-.36.26-.14.51-.16.79-.25.46-.14.85-.27,1.28-.45.39-.17.73-.25,1.05-.57.25-.25.5-.57.83-.66.25-.07.48.01.73-.04.23-.05.25-.23.49-.29.41-.1,1.15-.04,1.57,0,.67.07,1.34.53,1.95.75,1.32.48,2.7.24,3.72,1.32.57.61.66,1.18,1.03,1.89.35.68.67,1.27.97,1.99.3.73.63,1.32.77,2.11.18.96.46,2.26,1.05,3.08.54.75,1.54.56,1.81,1.55.16.61.12,1.48,0,2.08-.09.43-.32.87-.47,1.28-.25.69-.16,1.09-.24,1.78-.1.82-.44,1.37-.08,2.18.23.51.55.82,1.04,1.1.47.27,1.05.47,1.56.64.25.08.62.09.84.18.4.15.32.26.56.53.45.49,1.17.96,1.75,1.29.5.29.74.26,1.34.25,1.71,0,3.25-.03,4.75-.93.54-.33,1.27-1.01,1.85-.4.4.42.42,1.76.57,2.31.19.7.41,1.39.59,2.1.31,1.24.19,2.55.19,3.82,0,.62.05,1.25-.06,1.86-.15.88-.5,1.77-.66,2.66-.27,1.5-.56,2.31-1.99,3.04-.79.4-1.58.61-2.44.75-1.54.25-2.56.73-3.69,1.81-.69.66-1.28,1.42-1.94,2.13-.17.18-.45.48-.6.72-.24.39-.16.6-.28,1.02-.16.55-.51,1.37-.77,1.85-.35.67-.71,1.19-.94,1.91-.12.39-.22.65-.43,1-.03.05-.06.1-.09.15.54,0,1.08-.01,1.62-.01.66,0,1.03-.04,1.61-.32.61-.29,1.21-.55,1.87-.7,1.21-.28,2.17-.7,3.25-1.29.68-.38,1.13-.52,1.91-.52.67,0,1.4.08,2.07,0,1.17-.13,2.14-1.01,3.22-1.52,1.12-.53,1.69-1.9,2.51-2.81.36-.4.57-.59.77-1.08.33-.82.12-1.27-.07-2.07-.17-.73-.4-1.32-.87-1.94-.37-.5-.9-1.05-.94-1.66-.11-1.45,1.77-1.72,2.79-1.81.66-.06,1.29-.42,1.97-.24.53.15.98.61,1.57.73,1.52.3,3.04-1.38,4.26-2,1.51-.76,2.84-.57,4.39-.18.72.18,1.22.3,1.95.2.47-.06.94-.22,1.39-.28.92-.12,2.01.65,2.85.93.79.26,1.32.39,1.67,1.23.5,1.19.42,2.52.89,3.72.53,1.34.9,3.42,2.12,4.31.73.54,1.71,1.13,2.55,1.44.58.22,1.07.14,1.71.16.49.02.93.12,1.41.21.19.03.61,0,.77.11.41.28.14.73.21,1.13.07.35.24.62.55.83.57.39,1.38.19,2,.31.5.1.93.44,1.44.51,1.33.19,2.49-1.1,3.09-2.11.63-1.05,2.05-2,1.9-3.34-.06-.57-.65-1.42-.5-2,.18-.68,1.46-.78,2.07-.93.65-.16,1.3-.41,1.96-.52.87-.14,1.53-.05,2.42.07.92.12,1.86.06,2.79.06,1.08,0,2.24.14,3.29-.06.85-.16,2.34-.8,3.2-.42.07.65.3,1.09.3,1.77,0,.2,0,.42.02.63.4-.36.76-.78,1.16-1.23.86-.98,1.85-1.9,2.68-2.94.56-.7,1.11-1.27,1.56-2.06.29-.51.52-1,.76-1.54.29-.66.78-1.21,1.01-1.89.56-1.68.33-3.56-.45-5.13-.47-.94-1.43-1.66-2.2-2.34-.5-.44-1.31-.97-1.99-1-.41-.02-.79.21-1.21.24-.86.07-1.74-.11-2.61,0-1.49.18-2.98.59-4.36,1.15-1.21.49-2.38.53-3.64.78-1.47.29-2.9.7-4.39.95-1.38.23-2.75.5-4.15.56-1.31.06-2.67-.3-3.92-.67-.71-.21-1.11-.78-1.65-1.25-.58-.51-1.21-.95-1.89-1.31-.73-.38-1.54-.58-2.35-.72-2.04-.34-3.6-1.72-4.87-3.31-.69-.87-1.4-1.72-1.67-2.81-.24-.95-.5-2.03-.6-3.01-.16-1.44,1-2.56,2.31-2.96,1.41-.44,4.77-.22,5.33-2.09.09-.31.02-.66.09-.98.17-.78.8-1.32,1.09-2.04.45-1.14.56-2.41.4-3.62-.14-1.07-.23-2.03-.23-3.12,0-1.12.16-2.11.25-3.21.16-1.96.99-3.65,3.22-3.27.71.12,1.2.55,1.84.72.35.09.77.15,1.12.22.93.18,2.11.15,2.95-.31.64-.35.97-.82,1.18-1.48.28-.88.5-1.77,1.09-2.54.63-.83,1.21-1.39.92-2.51-.1-.36-.25-.78-.38-1.16-.67-1.96-2.74-1.89-4.36-2.58-.84-.36-2.27-.99-2.76-1.73-.7-1.07-.15-2.74.98-3.18.54-.21,1.03-.19,1.61-.18.83.01,1.25-.23,2.05-.45,2.14-.58,4.02-1.22,5.87-2.49,1.26-.87,2.57-1.76,3.5-2.98.61-.8,1.03-2.31,1.22-3.3.09-.5.11-1.06,0-1.55-.07-.32-.27-.52-.18-.96.07-.34.35-.67.43-.95.15-.49,0-.8-.19-1.23-.17-.39-.39-.75-.61-1.11-.08.15-.19.29-.36.4.17-.11.27-.25.36-.4-.17-.29-.35-.58-.49-.89-.23-.48-.21-.51-.7-.59-.48-.07-.87.02-1.3.2-.82.33-1.41.74-2.32.83-.7.07-1.32.47-2.03.65-1.65.43-3.28-.35-4.72-.84-.98-.33-1.76-.27-2.78-.32-.71-.03-1.22-.49-1.8-.84-.46-.28-.68-.54-1.24-.39-.22.06-.52.32-.73.42-.23.11-.61.2-.81.35-.24.18-.39.48-.63.66-.51.37-.69.85-1.1.72-.02.02-.03.05-.05.07-.59.72-2.18.99-3.07,1.27-.78.25-1.51.24-2.28.44-.78.21-1.29-.28-2.06-.11-.55.12-.96.31-1.56.25-.7-.07-1.62-.54-2.21-.91-1.66-1.04-.13-2.94.03-4.27.1-.82-.7-1.07-1.08-1.7-.34-.56-.67-1.18-.9-1.79-.34-.89-.26-1.65-.36-2.56-.08-.7-.46-1.14-1.02-1.55-.44-.31-.93-.73-1.5-.62-.41.08-.98.47-1.38.64-1.07.45-1.93,1.26-2.86,1.92-.46.33-.96.48-1.51.52-.58.04-1.18.27-1.75.27-.46,0-.52-.06-.76-.45-.33-.54-.53-1.09-.94-1.63-.73-.96-1.4-1.99-2.22-2.88-.65-.7-1.04-.86-1.94-.73-1.01.15-2.45.43-2.46,1.63,0,1.07.59,1.91,1.07,2.81.49.94.21,2.07.04,3.06-.17.95.05,1.67-.38,2.53-.16.33-.26.69-.57.89-.52.34-1.41.1-2.01.2-.64.1-1.34.14-1.96.31-.59.16-1.11.51-1.67.75-1.02.44-2.1.67-3.12,1.08-.44.17-.85.5-1.3.62-.86.22-1.71-.37-2.44-.74-1.04-.53-1.62-1.71-2.88-1.58-.61.06-1.17.34-1.77.47-.61.13-1.3.13-1.77.6-.53.53-.62,1.34-.81,2.03-.14.5-.41.86-.59,1.33-.31.8-.17,1.75-.33,2.58-.16.82-.41,1.65-.65,2.45-.24.79-.63,1.52-.9,2.3-.25.73-.38,1.48-.62,2.21-.34,1.03-.92,1.74-1.86,2.29-1.46.85-3.01,1.42-4.43,2.38-.99.67-1.83,1.62-2.23,2.71-.41,1.12-.56,1.37-.32,2.45.18.79.34,1.56.54,2.36.1.38.18.78.25,1.17.07.38.31.8.31,1.18,0,.51-.33,1.19-.47,1.68-.19.62-.56,1.16-1,1.66-.14.15-.29.29-.47.39-.07.23-.14.45-.19.49-.18.13-.53.04-.73.04-.14,0-.4-.05-.51-.02-.35.09-.45.34-.76.49-.44.21-1.07.21-1.55.37-.62.2-1.15.2-1.81.19-.5,0-1.04.07-1.53.01-.62-.07-1.22-.51-1.83-.35-.65.16-1.27.89-1.66,1.38-.51.64-.25,1.01-.44,1.73-.13.49-.46.8-.83,1.09.62.95,1.82,2.67,2.41,2.98Z"/>
    <path class="cls-2" d="m180.49,333.66c.6-.16.91-.64,1.13-1.16.26-.63.35-1.04.8-1.54.64-.72,1.27-1.36,1.95-2.04.32-.32.56-.67.92-.91.36-.24.77-.43,1.14-.67,1.53-1.01,2.47-2.65,2.71-4.47.15-1.1.48-2.07.95-2.98-.09-.08-.21-.14-.41-.17.21.03.32.09.41.17.41-.8.92-1.56,1.51-2.33,1.18-1.54.37-3.48-.79-4.87-.68-.82-1.31-1.64-1.94-2.48-.56-.74-.66-1.56-.83-2.44-.18-.95-.66-2.17-1.35-2.85-.77-.77-2.29-1.03-2.88-1.92-.29-.43-.12-.56-.61-.85-.34-.2-.7-.37-1.05-.56-.48-.27-.96-.47-1.36-.86-.13-.13-.26-.36-.41-.45-.38-.23-.88-.08-1.31-.26-.5-.2-1.06-.62-1.24-1.13-.34-.93-.53-2.18-1.21-2.94-.36-.4-.91-.69-1.23-1.13-.33-.46-.43-1.11-.75-1.62-.39-.61-1.09-.87-1.68-1.23-.32-.19-.68-.33-.97-.57-.35-.29-.53-.72-.89-1-.24-.19-.63-.24-.89-.43-.14-.1-.27-.24-.41-.34-.28-.18-.61-.29-.9-.47-.68-.41-1.55-.94-2.33-1.12-.6-.14-1.35-.05-1.91.17-.7.28-1.21.32-1.95.33-.73,0-1.28-.37-1.93-.07-.56.26-1.02.62-1.53.91-.33.19-.71.28-1.04.45-.19.1-.56.19-.72.32-.36.26-.7.71-1.01,1.03-.53.54-.74.89-1.49,1.1-.55.16-.9.04-1.41-.12-.7-.22-1.12-.32-1.81-.14-.6.16-1.24.13-1.91.13-.89,0-2.19-.4-3.16-.14.05.56.14,1.13.44,1.69.83,1.56,1.44,3.97,1.27,5.72-.26,2.67-2.16,4.75-3.03,7.17-.29.82-.44,1.67-.71,2.49-.35,1.07-.9,2.14-1.41,3.14-.39.77-.56,1.56-.88,2.35-.23.56-.74,1.12-.9,1.69-.22.83-.1,1.88-.22,2.76-.12.95.13,1.54.34,2.43.37,1.61.41,3.19.38,4.83,0,.62.01,1.22.5,1.68.44.41.91.31,1.48.3,1.34-.03,2.53.22,3.8.62.64.2,1.18,0,1.81.15.72.17.91.86,1.47,1.28.74.56,1.49.74,1.89,1.69.26.62.23,1.32.46,1.95.2.57.61.89.98,1.34.18.21.2.51.48.63.29.12,1-.26,1.3-.32.46-.09.91-.07,1.3-.33.29-.2.55-.75.79-1.02.23-.28.61-.55.8-.85.29-.46.32-1.13.45-1.59.2-.75.44-1.41.83-2.07.39-.65.94-1.2,1.26-1.88.22-.46.28-1.01.58-1.44,1.07-1.56,3.19-2.8,4.97-3.44.91-.33,1.82-.64,2.75-.91.56-.16,1.3-.62,1.91-.49.41.08.72.38,1.04.62.51.37,1.13.55,1.62.96,1.29,1.09,2.14,3.03,2.75,4.56.49,1.24.68,2.53,1.16,3.77.21.55.72,1.21.78,1.78,0,.08,0,.15-.01.23.44.18.87.3,1.43.15Z"/>
    <path class="cls-2" d="m149.82,292.16c.67,0,1.31.03,1.91-.13.69-.18,1.12-.09,1.81.14.51.16.86.28,1.41.12.75-.21.96-.57,1.49-1.1.31-.32.65-.77,1.01-1.03.17-.12.53-.22.72-.32.33-.17.71-.26,1.04-.45.52-.29.97-.65,1.53-.91.65-.3,1.21.07,1.93.07.74,0,1.25-.05,1.95-.33.55-.22,1.31-.31,1.91-.17.78.18,1.65.71,2.33,1.12.29.17.61.29.9.47.15.09.27.24.41.34.27.19.65.24.89.43.36.28.54.71.89,1,.29.24.66.38.97.57.6.35,1.29.61,1.68,1.23.32.5.43,1.16.75,1.62.32.44.87.73,1.23,1.13.67.76.86,2.01,1.21,2.94.19.51.74.93,1.24,1.13.43.17.93.03,1.31.26.15.09.28.32.41.45.4.39.88.59,1.36.86.35.19.71.37,1.05.56.49.28.32.41.61.85.6.89,2.11,1.16,2.88,1.92.68.68,1.16,1.9,1.35,2.85.17.88.27,1.71.83,2.44.63.84,1.26,1.66,1.94,2.48,1.15,1.39,1.97,3.33.79,4.87-.59.77-1.1,1.52-1.51,2.33.19.17.23.41.6.59.39.19.67.34,1.03.57.49.31.76.18,1.34.24.91.09,1.31.67,1.8,1.3.58.75,1.32,1.26,2.15,1.67,1,.5,2.29.6,3.23,1.21.49.32.75,1.38,1.35.81.17-.16.1-.38.23-.53.17-.2.53-.38.73-.57.59-.55,1.1-.89,1.8-1.29,1.02-.59,2.02-.95,2.72-1.91.66-.92,1.16-1.39,2.13-1.97.62-.37,1.42-.9,2.13-1.04.54-.11,1.01.19,1.49-.29.3-.31.5-1.12.58-1.55.16-.86-.12-1.71-.34-2.53-.29-1.05-.52-2.01-.9-3.04-.43-1.14-.72-2.25-1.08-3.41-.21-.68-.58-1.29-.72-2-.2-1-.4-1.84-1.09-2.65-.62-.73-1.16-1.53-1.79-2.26-.55-.64-1.24-.78-1.82-1.34-.66-.64-1.1-1.34-1.59-2.11-.29-.45-.6-.9-.99-1.28-.36-.35-.97-.59-1.26-1-.79-1.13-.74-3.17-.35-4.38.45-1.41,1.54-2.34,2.25-3.6.46-.82.98-1.66,1.23-2.57.27-.97.52-1.73,1.01-2.58h0s.05-.1.09-.15c.21-.35.3-.61.43-1,.23-.72.59-1.25.94-1.91.25-.48.61-1.3.77-1.85.12-.42.04-.63.28-1.02.14-.23.43-.53.6-.72.65-.71,1.24-1.47,1.94-2.13,1.13-1.09,2.16-1.57,3.69-1.81.85-.14,1.65-.35,2.44-.75,1.43-.73,1.72-1.54,1.99-3.04.16-.89.51-1.77.66-2.66.11-.61.06-1.24.06-1.86,0-1.27.12-2.58-.19-3.82-.18-.71-.4-1.4-.59-2.1-.15-.55-.17-1.9-.57-2.31-.58-.61-1.31.07-1.85.4-1.5.91-3.05.93-4.75.93-.6,0-.84.03-1.34-.25-.58-.34-1.3-.8-1.75-1.29-.24-.27-.16-.38-.56-.53-.21-.08-.59-.09-.84-.18-.51-.17-1.09-.38-1.56-.64-.49-.28-.81-.59-1.04-1.1-.36-.81-.02-1.36.08-2.18.09-.69,0-1.09.24-1.78.15-.41.38-.85.47-1.28.12-.6.16-1.48,0-2.08-.27-.99-1.27-.8-1.81-1.55-.59-.83-.87-2.12-1.05-3.08-.15-.79-.47-1.38-.77-2.11-.29-.72-.61-1.3-.97-1.99-.37-.71-.45-1.28-1.03-1.89-1.02-1.08-2.39-.84-3.72-1.32-.61-.22-1.28-.67-1.95-.75-.41-.05-1.15-.11-1.57,0-.23.06-.25.23-.49.29-.24.06-.48-.03-.73.04-.34.09-.59.41-.83.66-.32.32-.66.4-1.05.57-.42.18-.81.31-1.28.45-.28.09-.52.11-.79.25-.2.1-.25.33-.49.36-.34.03-.98-.38-1.3-.48-.43-.13-.87-.22-1.29-.38-.89-.33-1.66-.76-2.52-1.03-.13-.04-.26-.17-.43-.21-.21-.05-.44.06-.65.02-.37-.06-.99-.22-1.3-.39-.59-.32-1.79-2.04-2.41-2.98-.22.17-.46.34-.67.52-.47.41-.96.79-1.54,1.04-1.18.51-1.94-.28-3.11-.27-2.44.04-4.83.39-7.27.51-.84.04-1.81.61-1.77,1.59.05,1.6,1.22,3.07.47,4.6-.18.37-.31.88-.68,1.04-.58.26-1.71-.11-2.35-.03-.83.1-1.78.37-2.53.72-.5.24-1.09.71-1.65.8-.58.09-1.11-.35-1.74-.23-.53.1-1.08.36-1.56.59-.57.28-1.18.52-1.8.65-.33.07-.64.04-.97.11-.32.07-.49.26-.83.22-.93-.11-1.06-.91-1.29-1.57-.56-1.62-1.06-3.75-2.96-4.38-.96-.32-2.18-.65-3.24-.52-.79.1-1.17.93-1.79,1.37-.85.6-1.64,1.23-2.14,2.19-.42.81-.72,1.72-1.48,2.33-.44.35-.74.3-1.28.31-.55,0-1.05-.33-1.55-.21-.74.18-1.33.94-1.87,1.44-.23.21-.45.4-.64.61.14.07.22.25.17.6-.07.46-.33,1.04-.47,1.49-.47,1.5-1.06,3.03-1.85,4.39-.72,1.23-1.87,2.01-2.59,3.23-.33.56-.29.76,0,1.32.37.69.73,1.5,1.29,2.06.79.8,1.59.66,2.61.8,1.46.21,2.29,1.6,3.35,2.52,1.36,1.18,2.91,2.43,3.62,4.16.35.85.28,1.8.74,2.62.42.76,1.01,1.41,1.43,2.18.43.79.8,1.61,1.18,2.42.31.65.78,1.19,1.03,1.88.77,2.09.44,4.24.49,6.43.03,1.13.05,2.4.52,3.46.3.69.65,1.32.88,2.05.27.86.53,1.68.99,2.47.53.93,1.36,1.59,1.87,2.53.39.72.41,1.46.48,2.21.97-.25,2.28.14,3.16.14Z"/>
    <path class="cls-2" d="m373.58,205.9c-.27-1.15-.55-2.31-.83-3.46-.25-1.02-.61-2.24-1.24-3.09-.45-.61-.95-.63-1.6-1-.58-.33-.97-.79-1.61-1.04-.75-.3-1.46-.58-2.28-.59-.83,0-.92.2-1.01,1.08-.08.75-.36,1.48-.21,2.23.05.27.2.48.23.75.06.53-.1,1.59-.33,2.08-.27.58-1.02.71-1.44,1.15-.53.55-.82.99-1.64.99-.73,0-1.62-.23-2.35-.34-.63-.09-1.37-.2-1.96-.44-.48-.2-.82-.61-1.33-.75-.4-.11-.88-.04-1.3-.04-.61,0-.99-.02-1.54-.2-.53-.17-1.05-.5-1.59-.6-.62-.11-1.15.23-1.74.3-.52.06-1.18,0-1.67-.21-.76-.32-.85-.35-1.72-.14-1.43.34-2.73.38-4.13.13-.71-.13-.99-.06-1.52.45-.51.49-1,1.19-1.6,1.57-.63.4-1.4.63-2.06,1.01-1.34.78-2.67.93-4.1,1.29-.53.13-1.12.55-1.61.08-.24-.23-.55-1.04-.65-1.37-.27-.95-.55-1.87-.88-2.82-.3-.87-.51-1.74-.79-2.61-.19-.59-.23-1.18-.45-1.78-.45-1.22-.85-2.03-1.79-2.9-.89-.82-1.29-1.7-1.75-2.84-.21-.51-.51-1.2-.59-1.75-.07-.46-.23-1.07-.19-1.49.13-.06.2-.16.22-.3,0-.18,0-.36-.02-.54.03-.28.16-.37.21-.57.12-.48.29-1,.32-1.49.05-.84.15-1.88-.26-2.58-.36-.62-.76-1.32-1.24-1.87-.11.1-.21.21-.31.32-.33.39-.53.84-.92,1.18-1.2,1.06-2.77,1.13-4.13,1.83-1.24.64-2.27,1.49-3.46,2.23-.98.61-2.13.69-3.29.9-1.44.26-2.92.74-4.31,1.2-1.67.56-3.34,2.2-4.62,3.37-.89.82-1.75,1.54-2.73,2.26-.79.58-1.46,1.13-2.32,1.55-1.23.6-2.24.53-3.57.13-1.28-.38-2.51-.46-3.84-.63-1.92-.25-3.8-1.08-5.46-2.07-.64-.38-.93-.79-1.37-1.35-.77-.97-1.39-1.56-1.77-2.8-.25-.81-.31-1.8-1.27-1.86-.74-.05-1.62.42-2.01,1.03-.34.53-.38,1.42-1.08,1.58-.74.17-.96-.11-1.56.49-.29.29-.36.42-.51.77-.21.49-.52.85-.79,1.31-.13.22-.2.47-.32.69.22.36.44.73.61,1.11.19.43.34.74.19,1.23-.08.28-.37.62-.43.95-.09.44.11.64.18.96.11.49.09,1.05,0,1.55-.19.99-.61,2.5-1.22,3.3-.93,1.22-2.24,2.12-3.5,2.98-1.85,1.27-3.72,1.91-5.87,2.49-.8.22-1.23.47-2.05.45-.58,0-1.07-.03-1.61.18-1.13.44-1.68,2.11-.98,3.18.49.74,1.92,1.37,2.76,1.73,1.62.68,3.69.62,4.36,2.58.13.38.29.8.38,1.16.3,1.12-.28,1.69-.92,2.51-.59.77-.81,1.66-1.09,2.54-.21.66-.54,1.13-1.18,1.48-.84.46-2.02.49-2.95.31-.36-.07-.77-.12-1.12-.22-.64-.17-1.13-.6-1.84-.72-2.23-.38-3.06,1.31-3.22,3.27-.09,1.1-.26,2.1-.25,3.21,0,1.08.09,2.05.23,3.12.16,1.21.05,2.48-.4,3.62-.29.73-.92,1.27-1.09,2.04-.07.32,0,.66-.09.98-.56,1.87-3.92,1.65-5.33,2.09-1.31.41-2.47,1.52-2.31,2.96.11.98.36,2.05.6,3.01.28,1.09.99,1.94,1.67,2.81,1.27,1.59,2.83,2.97,4.87,3.31.81.13,1.62.33,2.35.72.68.36,1.31.8,1.89,1.31.53.47.93,1.04,1.65,1.25,1.26.37,2.61.73,3.92.67,1.4-.07,2.77-.33,4.15-.56,1.49-.25,2.92-.66,4.39-.95,1.26-.25,2.43-.29,3.64-.78,1.38-.56,2.87-.98,4.36-1.15.86-.1,1.74.07,2.61,0,.42-.03.79-.26,1.21-.24.68.03,1.49.56,1.99,1,.78.68,1.73,1.4,2.2,2.34.78,1.58,1.01,3.45.45,5.13-.23.68-.72,1.24-1.01,1.89-.24.54-.47,1.03-.76,1.54-.45.79-1,1.36-1.56,2.06-.83,1.04-1.82,1.96-2.68,2.94-.4.46-.76.87-1.16,1.23.02.4.02.81-.07,1.18-.16.61-.26.61.25,1.09.34.32.55.55.71.98.61,1.71.87,4.25,2.49,5.4.65.46,1.46.69,2.16,1.06.93.5,1.84,1.16,2.7,1.77,1.37.98,1.99,2.43,3.16,3.56.86.83,2.3,1.06,2.93,2.1.32.53.52,1.08.93,1.56.51.62,1.01,1.09,1.37,1.82.69,1.39,2.07,3.4.89,4.92-.51.65-1.24,1.06-1.75,1.73-.39.51-.78,1-1.14,1.53-.39.57-.63.99-.76,1.65-.19.94-.6,1.79-.83,2.71-.14.57-.15,1.09-.39,1.64-.15.35-.07,2.01-.1,2.94.53-.23,1.07-.47,1.64-.67,1.37-.5,2.71-1.09,4.05-1.66,1.74-.74,3.47-2.12,5.39-2.36,1.53-.19,3-.16,4.52-.55,1.33-.34,2.44-.8,3.82-.79,1.24,0,3,.67,4.13.18.8-.35,1.13-1.11,2.06-1.22.02,0,.05,0,.07,0-.01-.45-.06-1.02-.06-1.26,0-.25,0-.51,0-.76,0-.78,0-1.39-.19-2.12-.24-.94-.17-1.8-.83-2.53-.57-.63-1.13-1.31-1.55-2.06-.45-.79-1.04-1.64-1.04-2.58,0-.98.51-1.51,1.23-2.05.87-.65,1.76-1.54,2.08-2.59.33-1.08.14-1.75-.13-2.82-.24-.97-.64-1.94-1.12-2.81-.56-1.02-.02-2.01.53-2.96.56-.98.97-1.58,1.99-2.05,1.14-.53,2.11-.49,3.37-.45.97.03,1.62-.09,2.3-.9.4-.48.26-.64.39-1.16.27-1.09,1.8-2.27,2.73-2.81,1.27-.74,2.23-.8,3.65-.8.67,0,1.36-.05,2.03-.02.67.03,1.01.28,1.6.55.56.26,1.5.54,2.06.32.79-.31,1.57-.73,2.32-1.11.82-.41,1.63-.88,2.48-1.23.96-.39,1.97-.53,2.85-1.09.95-.6,1.18-1.06,2.33-1.04,1.33.02,2.15.4,3.43-.24,1.03-.51,2.05-1.05,3.08-1.55,1.22-.59,2.53-1.63,3.31-2.76.38-.55.36-1.21.55-1.83.19-.63.34-1.19.45-1.84.26-1.56.51-2.98,1.14-4.44.7-1.64,1.45-3.12,1.7-4.92.33-2.34.78-4.68,1.29-7,.34-1.54.21-2.98.3-4.53.06-1.03.73-2.06,1.24-2.92.39-.66.61-1.33,1.09-1.95.48-.63.97-1.17,1.32-1.89.76-1.53,1.87-2.82,2.63-4.36.64-1.29,1.21-2.61,1.74-3.95,1.12-2.81,2.68-5.43,3.16-8.46.14-.87.42-1.69.46-2.58.02-.52.01-1.03,0-1.55-.09-.01.11.01-.31.02.42,0,.23-.03.31-.02,0-.44-.02-.88-.02-1.31,0-1.11-.19-2.08-.44-3.17Z"/>
    <path class="cls-2" d="m292.55,307.62c.24-.55.24-1.06.39-1.64.23-.92.63-1.77.83-2.71.14-.66.37-1.08.76-1.65.36-.53.76-1.02,1.14-1.53.51-.67,1.25-1.08,1.75-1.73,1.18-1.52-.2-3.53-.89-4.92-.36-.72-.86-1.2-1.37-1.82-.4-.48-.6-1.03-.93-1.56-.64-1.03-2.08-1.27-2.93-2.1-1.17-1.14-1.79-2.58-3.16-3.56-.86-.62-1.76-1.28-2.7-1.77-.7-.37-1.51-.6-2.16-1.06-1.62-1.15-1.88-3.69-2.49-5.4-.16-.44-.37-.66-.71-.98-.51-.48-.41-.48-.25-1.09.1-.37.09-.78.07-1.18,0-.21-.02-.43-.02-.63,0-.68-.23-1.12-.3-1.77-.86-.38-2.35.26-3.2.42-1.05.2-2.22.06-3.29.06-.93,0-1.86.05-2.79-.06-.89-.11-1.55-.21-2.42-.07-.67.11-1.31.35-1.96.52-.6.15-1.88.25-2.07.93-.16.58.43,1.43.5,2,.15,1.34-1.27,2.29-1.9,3.34-.6,1-1.76,2.29-3.09,2.11-.52-.07-.94-.42-1.44-.51-.62-.12-1.43.08-2-.31-.31-.21-.49-.49-.55-.83-.07-.39.19-.84-.21-1.13-.16-.11-.58-.07-.77-.11-.48-.09-.92-.19-1.41-.21-.63-.02-1.12.06-1.71-.16-.84-.32-1.82-.91-2.55-1.44-1.22-.9-1.6-2.97-2.12-4.31-.47-1.21-.4-2.53-.89-3.72-.35-.84-.88-.97-1.67-1.23-.84-.28-1.93-1.05-2.85-.93-.45.06-.92.22-1.39.28-.73.09-1.24-.02-1.95-.2-1.54-.39-2.87-.58-4.39.18-1.22.62-2.74,2.29-4.26,2-.59-.12-1.04-.58-1.57-.73-.68-.19-1.31.18-1.97.24-1.02.09-2.9.36-2.79,1.81.05.61.57,1.16.94,1.66.47.63.7,1.22.87,1.94.19.8.4,1.25.07,2.07-.2.49-.4.69-.77,1.08-.83.9-1.39,2.28-2.51,2.81-1.09.51-2.06,1.39-3.22,1.52-.67.08-1.4,0-2.07,0-.78,0-1.23.14-1.91.52-1.07.59-2.04,1.01-3.25,1.29-.66.16-1.26.41-1.87.7-.58.28-.95.32-1.61.32-.54,0-1.08.02-1.62.01-.49.85-.75,1.61-1.01,2.58-.25.91-.78,1.75-1.23,2.57-.71,1.27-1.8,2.19-2.25,3.6-.38,1.21-.43,3.25.35,4.38.29.41.9.65,1.26,1,.39.38.7.82.99,1.28.49.77.93,1.47,1.59,2.11.58.56,1.27.7,1.82,1.34.63.73,1.17,1.53,1.79,2.26.69.81.89,1.65,1.09,2.65.14.71.51,1.32.72,2,.36,1.16.65,2.27,1.08,3.41.39,1.03.61,1.98.9,3.04.22.81.51,1.66.34,2.53-.08.43-.28,1.24-.58,1.55-.47.48-.95.18-1.49.29-.71.14-1.5.67-2.13,1.04-.98.58-1.47,1.05-2.13,1.97-.69.96-1.7,1.32-2.72,1.91-.7.4-1.21.74-1.8,1.29-.2.19-.56.37-.73.57-.13.15-.06.37-.23.53-.61.57-.86-.48-1.35-.81-.94-.61-2.23-.71-3.23-1.21-.83-.41-1.57-.92-2.15-1.67-.48-.63-.88-1.21-1.8-1.3-.58-.06-.85.07-1.34-.24-.37-.23-.64-.38-1.03-.57-.37-.18-.41-.43-.6-.59-.47.91-.8,1.88-.95,2.98-.24,1.82-1.17,3.47-2.71,4.47-.37.24-.78.44-1.14.67-.36.24-.61.59-.92.91-.67.68-1.31,1.32-1.95,2.04-.45.51-.54.91-.8,1.54-.21.52-.52,1.01-1.13,1.16-.57.15-.99.03-1.43-.15-.08.48-.52.97-.71,1.4-.29.67-.29.9-1.01,1.17-.59.22-1.24.36-1.86.42-.68.07-1.18-.06-1.83-.19-.82-.16-1.61.17-2.44.2-1.31.06-1.72,1.5-2.22,2.58-.91,1.98,1.01,2.91,1.86,4.43.61,1.09.51,1.87.29,3.02-.2,1.07-.17,2.27-.52,3.31-.14.42-.33.65-.31,1.1.05,1.05.38,1.86.21,2.96-.09.61-.22,1.92-.75,2.33-.43.33-1.26-.29-1.81-.26-.97.06-2.35,1.2-2.94,1.93-.33.42-.45.67-.86.97-.35.26-.44.4-.64.83-.12.27-.27.47-.43.68.17.1.33.2.51.29.29.14.73.41,1.02.46.5.08,1.05-.25,1.55-.47.56-.24.42-.15.9.07.31.14.48.36.91.27.51-.11.74-.36,1.35-.28.56.07.9.31,1.46.22.64-.1,1.42-.68,2.11-.48.41.12.49.29,1.02.28.3,0,.76-.11,1.05-.02.06.02.3.22.27.22.69.12,1.45-.4,2.17-.22.37.09.52.3.81.53.34.27.6.42,1.08.52.27.05.53-.09.81.03.22.09.46.41.63.58.44.43.75.98,1.15,1.5.7.92,1.62,1.84,1.82,3.04.13.74.08,1.84,0,2.58-.09.76-.63.61-1.29,1.08-.56.39-1.21.66-1.7,1.12-.94.86-1.56,1.93-2.24,2.96.61.29,1.43.72,1.82.83.19.05.47.26.7.33.36.11.66.07,1.01.15,1.58.34,2.69,2.43,4.09,3.26.82.48,1.78.88,2.5,1.52.52.47,1.08.71,1.57,1.24.39.42.8.85,1.27,1.18.59.4.98.66,1.55.11.55-.53.9-1.25,1.36-1.86.88-1.14,2.29-1.79,2.49-3.39.14-1.09.15-2.56-.21-3.53-.24-.66-.26-1.36-.55-2-.26-.57-.68-.97-1.02-1.52-.47-.77-1.05-1.3-1.43-2.14-.34-.74-.61-1.38-.64-2.18-.06-1.79,1.51-2.64,2.84-3.46.53-.33,1.1-.57,1.62-.93.3-.21.63-.59.96-.73.93-.39,1.36.81,1.65,1.47.39.9.66,2.24,1.31,2.96.17.18.41.33.62.47.47.33.88.81,1.38,1.07.92.47,1.56.42,2.51.23.95-.19,1.73.17,2.65.21.79.03,1.28-.21,1.74.5.43.66,1.11,1.42.9,2.21-.28,1.07-1.5,1.44-2.04,2.32-.39.63-.72,1.93.01,2.45,1.26.89,3.19-.02,4.36.88.62.47.74,1.03,1.53,1.18.31.06.63.05.93.12.49.12.95.23,1.4.51,1.26.77,1.85,2.04,2.72,3.19.72.96,1.14,1.95,1,3.18-.09.78-.23,1.51-.23,2.3,0,.79-.49,1.81-.26,2.55,1.96.49,4.43-.7,6.09-1.56.97-.5,2.09-1.29,3.18-1.49.79-.14.79.03,1.25-.86.27-.5.23-1.05.55-1.49.52-.73,1.47-.8,2.25-1.08,1.7-.59,3.21-1.64,4.71-2.61-.13-.23-.21-.51-.38-.69-.19-.21-.8-.38-1.04-.53-.46-.29-.88-.62-1.27-.99-.68-.67-1.01-1.44-1.36-2.31-.21-.52-.64-1.13-.6-1.7.04-.55.41-.83.82-1.19.95-.82,2.02-1.53,3.01-2.31,1.33-1.05,2.09-2.11,2.91-3.54,0-.72.01-1.44.19-2.13.13-.51-.05-1.04.05-1.55.07-.38.55-1.2.84-1.5.33-.34,1.2-.47,1.63-.55.73-.13,1.51-.17,2.26-.34,1.03-.23,2.01-.46,3.04-.66.33-.06.72.02,1.04-.04.28-.06.39-.31.73-.32.07-.36-.52-.82-.74-1.04-.35-.36-.61-.69-.91-1.11-.27-.37-.65-.69-.91-1.07-.5-.74-.51-1.77-.51-2.62,0-1.42.48-2.79.53-4.19.01-.32.13-.96-.05-1.23-.29-.43-1.04-.31-1.45-.63-2-1.55,1.31-2.21,2.21-2.84.94-.66,2.53-3.58,1.1-4.39-.24-.14-1.02-.46-1.3-.47-.48-.02-.96.52-1.43.53-.39,0-.75-.15-.97-.49-.12-.19-.45-.95-.46-1.17,0-.46.8-1.08,1.11-1.42.21-.22.46-.55.7-.72.37-.26.9-.38,1.25-.63.39-.29.87-.81,1.09-1.22.57-1.06-.18-1.96-.27-3.05-.06-.65.14-.58-.44-.89-.27-.14-.54-.32-.82-.45-1.24-.56-2.52.15-3.82.26-.61.05-1.17.27-1.8.27-.62,0-1.04-.19-1.61-.4-.98-.35-1.58-1.27-2.18-2.08-.4-.54-.64-1.1-.97-1.67-.22-.39-1.08-1.05-1.01-1.56.05-.36.73-.59,1.04-.7.6-.2,1.25-.18,1.86-.37.46-.14.84-.42,1.33-.48.83-.11,1.71.28,2.51.42.98.17,2.08.23,3.07.08,1.74-.26,3.32-1.13,5.03-1.47,1.31-.26,2.46-.33,3.66-.99,2.07-1.14,3.26-3.45,4.75-5.2.76-.89,2.37-1.09,3.36-1.67.24-.14.43-.37.65-.5.97-.57,2.36-.71,3.46-.99,1.77-.44,3.51-.77,5.28-1.23,1.02-.26,2.07-.45,3.13-.29.93.14,1.54.82,2.45,1.06,1.01.27,1.62,0,2.56-.26,1.09-.29,2.12-.45,3.26-.55,1.74-.15,3.28-.95,5.01-1.05,1.19-.07,2.21-.48,3.24-.93.04-.93-.04-2.59.1-2.94Z"/>
    <path class="cls-2" d="m314,165.47c-.84-.27-1.73-.44-2.6-.65-.63-.15-1.59-.26-2.12-.61-1.48-.99.32-2.57.03-3.82-.22-.93-1.06-1.52-1.87-1.95-.46-.25-1.03-.37-1.45-.69-.39-.3-.66-.66-1.09-.93-.54-.34-1.28-.51-1.77-.9-.49-.39-.54-1.03-.71-1.59-.18-.63-.33-1.31-.61-1.91-.13-.27-.37-.52-.46-.81-.17-.54-.05-1.23-.06-1.79-.02-1.4.84-2.97.46-4.34-.2-.71-.61-.49-1.22-.63-.69-.16-1.17-.6-1.75-.99-.4-.26-.72-.37-1.15-.55-.6-.26-1.03-.7-1.59-1.02-.64-.37-1.18-.39-1.67-1.01-.42-.54-.86-.89-1.45-1.28-.49-.33-.59-.52-.73-1.09-.15-.64-.17-1.24-.32-1.87-.2-.8-.08-1.59-.32-2.4-.22-.76-.26-1.42-.39-2.17-.07-.42-.2-.72-.21-1.17-.01-.4.03-.76-.04-1.16-.21-1.12-.97-2.6-2.01-3.11-.93-.45-2.63.32-3.31-.43-.22-.24-.3-.94-.31-1.23-.03-.69-.02-1.22-.19-1.87-.26-.97.02-2.07-1.02-2.66-.67-.38-1.51-.26-2.13-.76-.82-.65-1.23-1.68-2.06-2.33-.71-.55-1.31-1.11-2.06-1.55-.64-.38-1.9-.82-2.28-1.53-.32-.6-.05-2.1-.05-2.79,0-.31-.08-.75-.01-1.04.03-.11.2-.25.21-.3.1-.48.06-.99.06-1.49,0-.38.1-.93.01-1.3-.06-.23-.23-.25-.29-.49-.06-.25.03-.48-.04-.73-.22-.77-1.02-1.46-1.49-2.12-.21-.3-.35-.94-.47-1.42-.19.05-.38.11-.58.19-.75.32-1.12.83-1.55,1.49-.56.85-1.26,1.73-1.53,2.71-.38,1.4-1.09,2.48-1.81,3.73-.64,1.11-1.58,1.89-2.44,2.81-.56.59-1.09,1.15-1.52,1.84-.33.53-.53,1.06-.92,1.55-.82,1.03-1.66,1.78-2.66,2.61-.43.36-.83.81-1.3,1.12-.24.15-.82.59-1.09.62-.37.05-.5-.16-.78-.37-.4-.3-.85-.51-1.27-.78-1.28-.82-2.27-1.76-3.23-2.92-.81-.97-1.73-1.78-2.57-2.7-.71-.77-1.32-1.6-2.33-.96-1.12.72-2.38.99-3.5,1.67-.96.58-1.69,1.38-2.22,2.36-.61,1.12-1.28,2.37-1.69,3.58-.26.77-.26,1.62-.72,2.3-.44.66-.96,1.25-1.53,1.81-.68.66-1.07,1.49-1.68,2.21-.75.87-1.49,1.72-2.31,2.57-.47.49-.57.93-.93,1.24.45.34.82.74.92,1.33.12.68.19,1.01,0,1.68-.2.71-.51,1.34-.75,2.04-.48,1.39-.91,3.04-.8,4.54.1,1.39.68,2.59,1.37,3.82.5.9,1.12,2.64,2.38,2.35.78-.18.92-.45,1.41.33.43.68.6,1.3.84,2.05.29.91.74,1.65,1.23,2.47.49.81.91,1.67,1.55,2.33.44.45,1.01.95,1.39,1.48.45.62.58,1.43,1.04,2.04.71.95,1.5.96,2.61,1.25.67.17,1.38.44,1.97.65.82.28,1.62.41,2.5.52,1.01.13,3.57-.55,3.67,1.06.04.59-.21,1.42-.33,1.99-.07.36-.19.7-.36,1.03-.75,1.38-2.14,2.44-3.08,3.7-.73.98-1.3,1.9-1.51,3.12-.1.6-.13,1.22-.25,1.81-.16.75-.02,1.13.08,1.87.13,1.01.26,2.03.45,3.04.17.94-.13,1.94.1,2.86.15.63.53,1.2.69,1.84.15.62.23,1.17.47,1.75.32.8.69,1.7.85,2.55.2,1.03-.11,2.08.2,3.12.12.42.24.74.59,1.03.28.23.69.3.9.61.39.58.17,1.77-.25,2.35.41.13.59-.35,1.1-.72.24-.18.39-.48.63-.66.21-.15.58-.23.81-.35.22-.11.52-.37.73-.42.56-.15.78.11,1.24.39.58.35,1.09.81,1.8.84,1.02.05,1.8-.02,2.78.32,1.44.49,3.07,1.27,4.72.84.71-.18,1.33-.58,2.03-.65.91-.09,1.5-.5,2.32-.83.43-.18.82-.27,1.3-.2.5.07.48.1.7.59.15.31.32.6.49.89.12-.22.19-.46.32-.69.27-.46.58-.82.79-1.31.15-.35.22-.48.51-.77.6-.61.81-.33,1.56-.49.7-.16.75-1.05,1.08-1.58.39-.62,1.27-1.08,2.01-1.03.96.07,1.02,1.05,1.27,1.86.38,1.24.99,1.83,1.77,2.8.45.56.74.97,1.37,1.35,1.66.99,3.54,1.83,5.46,2.07,1.33.17,2.56.24,3.84.63,1.33.4,2.35.47,3.57-.13.87-.42,1.54-.98,2.32-1.55.98-.72,1.84-1.44,2.73-2.26,1.28-1.18,2.95-2.82,4.62-3.37,1.39-.46,2.87-.94,4.31-1.2,1.16-.21,2.31-.29,3.29-.9,1.19-.73,2.21-1.59,3.46-2.23,1.36-.7,2.93-.76,4.13-1.83.38-.34.58-.79.92-1.18.1-.11.2-.21.31-.32-.08-.09-.16-.18-.24-.26.08.08.16.17.24.26.22-.21.45-.4.66-.62.64-.67,1.19-1.59,1.33-2.53.34-2.42-2.25-1.48-3.65-1.74-1.08-.2-2.23-.38-3.29-.64-.79-.2-1.78-.5-2.35-1.11-1.12-1.23.48-1.78.77-3.04.21-.93-.05-1.91.16-2.86.12-.57.38-1.03.36-1.54-.16.04-.27.04-.52-.02.26.05.37.06.52.02,0-.18-.05-.36-.15-.55-.67-1.37-2.03-1.7-3.37-2.13Z"/>
    <path class="cls-2" d="m350.81,348.14c.03-.88.27-1.7.26-2.6,0-.74-.03-1.35-.19-2.06-.18-.76-.37-1.6-.3-2.38.09-.98.65-2.63.07-3.58-.38-.63-1.07-.81-1.38-1.55-.28-.68-.39-1.46-.82-2.08-.38-.54-.88-.73-1.43-1.06-1.02-.61-2.11-1.04-3.12-1.67-1.22-.76-1.79-2-2.87-2.9-.65-.55-1.51-.74-2.15-1.3-.58-.51-.86-1.09-1.18-1.81-.31-.72-.58-1.46-.82-2.2-.08-.24-.26-1.16-.54-1.41-.54-.48-1.45-.16-2.07-.55-.83-.52-1-1.5-1.13-2.38-.16-1.07-.17-2.2-.37-3.25-.08-.41.02-.46-.3-.81-.71-.76-1.72-.41-2.59-.29-1.02.14-2.01.08-3.02-.08-.97-.15-2.59-.08-3.4-.68-.71-.53-.12-1.28-.27-2.03-.32-1.53-1.09-3.08-1.52-4.59-.15-.54-.34-1.07-.51-1.6-.08-.23-.26-1.2-.48-1.47-.43-.53-1.83-.43-2.55-.34,0,.25,0,.46-.01.56.02-.1.02-.31.01-.56-.02,0-.05,0-.07,0-.94.11-1.26.87-2.06,1.22-1.13.49-2.89-.17-4.13-.18-1.38,0-2.49.45-3.82.79-1.51.39-2.99.36-4.52.55-1.92.24-3.65,1.62-5.39,2.36-1.34.57-2.68,1.17-4.05,1.66-.57.21-1.11.45-1.64.67-.01.26-.03.47-.07.57.04-.1.06-.31.07-.57-1.04.45-2.05.86-3.24.93-1.73.1-3.27.9-5.01,1.05-1.14.1-2.17.26-3.26.55-.94.25-1.55.53-2.56.26-.92-.24-1.53-.93-2.45-1.06-1.06-.15-2.11.03-3.13.29-1.77.46-3.51.78-5.28,1.23-1.1.27-2.48.42-3.46.99-.22.13-.41.35-.65.5-.98.58-2.6.78-3.36,1.67-1.49,1.75-2.68,4.06-4.75,5.2-1.2.66-2.35.73-3.66.99-1.71.34-3.29,1.21-5.03,1.47-.99.15-2.1.09-3.07-.08-.8-.14-1.68-.53-2.51-.42-.49.06-.87.34-1.33.48-.6.19-1.26.17-1.86.37-.31.1-.98.33-1.04.7-.07.51.79,1.17,1.01,1.56.33.57.57,1.12.97,1.67.6.81,1.2,1.73,2.18,2.08.57.21,1,.4,1.61.4.63,0,1.18-.22,1.8-.27,1.31-.11,2.58-.82,3.82-.26.28.13.56.31.82.45.58.31.38.24.44.89.09,1.09.84,2,.27,3.05-.22.41-.69.93-1.09,1.22-.35.25-.87.37-1.25.63-.24.17-.5.49-.7.72-.31.34-1.11.96-1.11,1.42,0,.22.33.98.46,1.17.22.34.58.5.97.49.48,0,.95-.55,1.43-.53.28.01,1.05.33,1.3.47,1.43.81-.16,3.73-1.1,4.39-.9.63-4.21,1.29-2.21,2.84.41.32,1.16.21,1.45.63.18.27.06.91.05,1.23-.05,1.4-.53,2.76-.53,4.19,0,.85.01,1.87.51,2.62.26.38.64.7.91,1.07.3.41.56.75.91,1.11.22.22.81.68.74,1.04-.33,0-.45.26-.73.32-.32.07-.7-.02-1.04.04-1.04.2-2.01.43-3.04.66-.75.17-1.52.2-2.26.34-.42.08-1.3.21-1.63.55-.29.29-.76,1.11-.84,1.5-.1.51.09,1.04-.04,1.55-.18.7-.19,1.41-.19,2.13.01-.02.03-.05.04-.07.4.02.45.61.6.9.26.51.54.96.87,1.42.25.35.48.85.91,1.01.41.15.9-.06,1.32.02.35.07.62.26.88.5.26.23.34.6.52.8.98,1.04,3.09.35,4.37.53.07.43-.33.72-.25,1.14.1.49.94,1.03,1.24,1.33,1.09,1.12,1.33,2.67,2.65,3.65,1.16.85,1.81,1.54,2.38,2.86.47,1.1.78,2.24,1.28,3.31.65,1.42,2,2.9,3.75,2.62.46-.07.69-.26,1.14-.26.53,0,.99.28,1.54.24,1.21-.08,2.48-.4,3.64-.68.4-.1.67-.03,1.07-.04.6-.01,1.56-.67,2.07-.49.54.19.45.73,1.18.77.41.02.99-.44,1.33-.33.29.09.31.35.47.6.31.49.72.9,1.04,1.38.41.6.6,1.27,1.23,1.69.27.18.62.22.84.46.21.22.28.61.43.87.19.32.45.57.72.83.83.81,1.54,2.22,1.81,3.35.12.5.34.93.39,1.41,0,.05,0,.1,0,.15,1-.41,2-.87,2.83-1.48.61-.46,1.25-.85,1.83-1.36.69-.61,1.27-1.32,2.04-1.84.73-.49,1.53-.86,2.2-1.44.66-.58,1.25-1.24,1.82-1.91.58-.68,1-1.39,1.42-2.18.36-.69.85-1.29,1.2-1.98.35-.7.51-1.49.88-2.16.33-.6.68-1.2,1.02-1.79.48-.82,1.12-1.56,1.71-2.3.72-.9,1.37-1.83,2.02-2.79.45-.67.82-1.38,1.24-2.07.4-.65.85-1.26,1.22-1.93.3-.56.57-1.15.9-1.7.11-.17.45-.8.68-.85.15-.04.36.13.49.19.45.2.93.33,1.43.33.68,0,1.36-.15,2.04-.19,1.11-.08,2.21-.11,3.32-.18,1.51-.11,2.98-.54,4.45-.88.54-.12,1.08-.2,1.61-.38,1.13-.37,2.22-.92,3.32-1.37,1.42-.58,2.81-1.2,4.2-1.83.19-.09.32-.14.54-.17.82-.11,1.6-.32,2.42-.49,1.87-.39,3.81-.17,5.55-1.05,1.63-.82,2.74-2,3.78-3.47.57-.8,1.35-1.35,2.02-2.05.74-.78,1.56-1.43,2.35-2.14,1.5-1.35,3.03-2.67,4.92-3.4.5-.2.97-.47,1.45-.71.94-.47,1.93-.84,2.88-1.3.28-.14.58-.25.87-.36.02-.09.04-.19.05-.29.04-.43-.04-.88-.02-1.32Z"/>
  </g>
  <g>
    <path class="cls-3" d="m214.13,223.69c.02.15.03.28.03.37s-.03.16-.09.2c-.06.04-.15.07-.29.08s-.32.02-.55.02c-.16,0-.3,0-.4,0-.1,0-.18-.02-.24-.04s-.09-.04-.12-.08c-.02-.03-.03-.08-.04-.14l-.23-1.68h-3.13l-.86,1.64c-.03.06-.06.11-.1.15-.04.04-.09.07-.17.09s-.17.04-.29.05c-.12,0-.28.01-.46.01-.2,0-.35,0-.46-.02-.11-.01-.18-.04-.22-.09-.04-.05-.04-.12-.01-.21.03-.09.08-.21.16-.36l4.05-7.4c.04-.07.09-.13.13-.18.04-.04.1-.08.18-.1.08-.02.19-.04.32-.04.14,0,.31,0,.53,0,.25,0,.45,0,.6,0,.15,0,.26.02.34.04.08.02.13.06.16.11.03.05.04.11.05.19l1.09,7.39Zm-2.53-6.11h0l-1.86,3.54h2.35l-.48-3.54Z"/>
    <path class="cls-3" d="m220.41,224.33c-.08.39-.2.73-.36,1.02s-.38.53-.64.73-.59.34-.97.44-.82.15-1.33.15c-.37,0-.69-.03-.98-.09-.29-.06-.53-.13-.72-.22-.07-.03-.12-.07-.14-.12-.03-.04-.04-.1-.04-.18,0-.03,0-.07,0-.13,0-.06.01-.13.03-.2.01-.07.03-.15.05-.23.02-.08.05-.15.08-.21.03-.06.07-.11.11-.15.04-.04.08-.06.14-.06s.11.02.19.05.17.08.3.12.28.08.46.12c.18.04.41.05.68.05.22,0,.42-.02.59-.05s.33-.09.45-.17.23-.18.31-.3c.08-.12.14-.27.17-.44.06-.28.11-.51.17-.7s.11-.34.15-.46c-.08.14-.19.28-.33.42-.14.14-.31.27-.49.38-.19.11-.38.2-.6.27s-.43.1-.64.1c-.33,0-.61-.06-.83-.17-.23-.11-.41-.27-.55-.46-.14-.2-.24-.43-.31-.7-.06-.27-.09-.55-.09-.86,0-.28.03-.58.08-.9.05-.32.13-.64.24-.96s.25-.62.42-.92c.17-.29.37-.55.6-.78s.5-.4.81-.54c.3-.13.64-.2,1.02-.2.36,0,.67.07.95.22.27.15.51.36.72.65l.1-.51c.02-.09.08-.15.2-.19.12-.04.31-.06.57-.06.13,0,.24,0,.32.02s.15.03.2.04c.05.02.08.04.1.08.02.03.02.07.01.11l-1.21,5.99Zm-.75-4.27c-.15-.24-.32-.41-.5-.53-.18-.12-.39-.18-.63-.18-.18,0-.34.04-.49.13s-.28.2-.4.34-.22.31-.31.5-.16.39-.22.59c-.06.21-.1.41-.13.62-.03.21-.04.4-.04.59,0,.15.01.28.04.4.03.12.07.22.12.31.05.08.12.15.21.19.08.05.19.07.31.07.19,0,.38-.06.58-.17s.38-.27.55-.46.32-.42.46-.69c.13-.26.23-.54.29-.84l.18-.87Zm1.71-4.59s0,.12-.03.23c-.02.11-.06.23-.11.37-.05.14-.13.28-.23.43-.1.15-.23.28-.39.41s-.35.22-.59.3c-.23.08-.51.12-.82.12s-.6-.03-.81-.1-.38-.16-.51-.28c-.12-.12-.21-.26-.26-.42-.05-.16-.07-.32-.07-.49,0-.05,0-.1,0-.17,0-.06.01-.13.02-.19,0-.06.02-.12.04-.17.02-.05.03-.08.06-.11.04-.03.1-.06.18-.08.08-.02.19-.03.33-.03.1,0,.19,0,.25.01.07,0,.12.02.16.04s.06.04.08.06c.01.02.02.05.02.08,0,.04,0,.08,0,.13,0,.05,0,.1,0,.15,0,.08.01.15.03.22s.06.12.1.17c.05.05.11.08.19.11.08.03.18.04.3.04s.23-.02.33-.04c.1-.03.2-.08.28-.14.08-.06.16-.14.22-.23.06-.09.11-.21.14-.34.02-.04.04-.08.06-.11s.06-.06.1-.08.1-.03.17-.04.16-.02.26-.02.2,0,.27.01c.07,0,.12.02.16.03.04.01.06.03.07.05.01.02.02.05.02.07Z"/>
    <path class="cls-3" d="m227.44,224.11c-.02.09-.08.15-.2.19-.12.04-.31.06-.57.06-.13,0-.24,0-.33-.01-.08,0-.15-.02-.2-.04s-.08-.04-.1-.08c-.02-.03-.02-.07,0-.12l.17-.92c-.06.14-.17.28-.31.43-.14.15-.31.29-.5.42-.19.13-.41.23-.64.31-.23.08-.48.12-.72.12s-.46-.03-.64-.09c-.18-.06-.34-.15-.47-.25-.13-.11-.24-.23-.33-.38-.09-.15-.15-.3-.21-.46-.05-.16-.09-.33-.11-.51-.02-.17-.03-.34-.03-.51,0-.28.03-.58.08-.9.05-.32.13-.64.24-.95.11-.32.25-.62.42-.91.17-.29.37-.55.6-.77.23-.22.5-.4.81-.54.3-.13.64-.2,1.02-.2.17,0,.33.02.48.05.15.04.29.09.42.15.13.06.24.14.34.22.1.09.19.18.26.27l.61-3.03s.03-.08.06-.12c.03-.03.08-.06.14-.09.07-.02.15-.04.26-.05.11-.01.24-.02.4-.02s.29,0,.39.02c.1.01.18.03.24.05.06.02.09.05.11.09.02.03.02.07.01.12l-1.69,8.46Zm-.81-4.03c-.15-.24-.32-.41-.5-.53-.18-.12-.39-.18-.63-.18-.18,0-.34.04-.49.13-.15.08-.28.2-.4.33s-.22.3-.31.49c-.09.19-.16.38-.22.59-.06.21-.1.41-.13.62s-.04.4-.04.59c0,.33.05.57.16.74.11.17.28.25.51.25.19,0,.38-.06.58-.17s.38-.27.55-.46c.17-.19.32-.42.46-.68.13-.26.23-.54.29-.83l.18-.88Z"/>
    <path class="cls-3" d="m234.39,224.11c-.02.09-.08.15-.2.19-.12.04-.31.06-.57.06-.13,0-.24,0-.33-.01-.08,0-.15-.02-.2-.04s-.08-.04-.1-.08-.02-.07,0-.12l.18-.92c-.06.14-.17.28-.31.43-.14.15-.31.29-.5.42-.19.12-.41.23-.64.31s-.48.12-.72.12c-.34,0-.63-.06-.86-.18s-.41-.28-.55-.49c-.14-.2-.23-.44-.29-.7-.06-.26-.09-.54-.09-.82,0-.27.03-.57.08-.89.05-.32.13-.64.24-.96s.25-.62.41-.92c.17-.29.37-.56.6-.78.23-.23.5-.41.8-.54s.65-.2,1.03-.2c.36,0,.67.07.95.22.27.15.51.36.72.65l.1-.51c.02-.09.08-.15.2-.19.12-.04.31-.06.57-.06.13,0,.24,0,.32.02s.15.03.2.04c.05.02.08.04.1.08.02.03.02.07.01.11l-1.15,5.76Zm-.8-4.03c-.15-.24-.32-.41-.5-.53-.18-.12-.39-.18-.63-.18-.18,0-.35.04-.5.13s-.28.2-.4.34c-.12.14-.22.31-.31.5s-.16.39-.22.59c-.06.2-.1.41-.13.62-.03.21-.04.4-.04.58,0,.13,0,.25.03.37.02.12.05.22.11.31.05.09.12.16.21.22s.2.08.33.08c.19,0,.38-.06.58-.17s.38-.27.55-.46.32-.42.46-.68c.13-.26.23-.54.29-.83l.18-.87Z"/>
    <path class="cls-3" d="m245.04,224.1s-.03.08-.06.11-.08.06-.15.08c-.07.02-.16.04-.26.05-.11.01-.24.02-.4.02s-.28,0-.39-.02c-.1-.01-.18-.03-.24-.05s-.09-.05-.11-.08c-.02-.03-.02-.07,0-.11l.69-3.45c.02-.1.03-.2.05-.29.01-.1.02-.19.02-.29,0-.2-.04-.37-.11-.49s-.21-.19-.4-.19c-.17,0-.35.06-.54.17s-.36.26-.53.45c-.17.19-.32.42-.45.67-.13.26-.22.53-.28.81l-.52,2.6s-.03.08-.06.11-.08.06-.15.08c-.07.02-.16.04-.26.05s-.24.02-.4.02-.28,0-.38-.02-.18-.03-.24-.05-.09-.05-.11-.08c-.02-.03-.03-.07-.02-.11l.68-3.45c.03-.1.04-.2.05-.31.01-.11.02-.21.02-.31,0-.19-.04-.34-.12-.47-.08-.12-.21-.18-.4-.18-.17,0-.35.06-.53.17-.19.11-.36.26-.53.45-.17.19-.32.42-.45.67-.13.26-.22.53-.28.81l-.52,2.6s-.03.08-.06.11-.08.06-.15.08c-.07.02-.15.04-.26.05s-.24.02-.39.02-.29,0-.39-.02c-.1-.01-.18-.03-.24-.05-.06-.02-.1-.05-.11-.08s-.02-.07-.01-.11l1.15-5.75s.03-.08.05-.11.07-.06.13-.08.13-.03.23-.04c.09-.01.2-.02.33-.02s.24,0,.33.02.15.03.2.04c.05.02.08.04.09.08.01.03.02.07,0,.11l-.19.95c.09-.15.21-.3.36-.46s.32-.3.51-.42c.19-.12.4-.23.62-.31.23-.08.46-.12.7-.12s.46.03.65.1.33.16.45.28.21.26.27.42c.06.16.1.33.12.52.1-.15.22-.31.38-.46.15-.15.33-.29.52-.42.19-.12.4-.23.62-.31.22-.08.45-.12.69-.12.3,0,.55.04.76.13.2.08.37.2.49.35.12.15.21.32.27.52s.08.42.08.65c0,.15,0,.3-.03.45-.02.15-.04.31-.08.47l-.71,3.55Z"/>
  </g>
  <g>
    <path class="cls-3" d="m158.19,253.7l1.28,3.64c.05.15.07.28.08.37,0,.09-.02.16-.08.21-.06.05-.16.08-.29.09s-.33.02-.57.02c-.18,0-.32,0-.42-.01-.1,0-.18-.02-.24-.04-.06-.02-.1-.05-.12-.08s-.04-.08-.06-.13l-1.01-3.03-2.14,3.03c-.04.05-.08.09-.12.13s-.1.06-.17.08c-.08.02-.17.03-.3.04-.12,0-.28.01-.47.01-.23,0-.41,0-.53-.02s-.21-.04-.25-.09c-.04-.05-.04-.12,0-.21.04-.09.11-.21.22-.36l2.75-3.67-1.17-3.39c-.05-.15-.07-.27-.08-.36,0-.09.02-.16.08-.21.06-.05.16-.08.29-.09.14-.01.33-.02.57-.02.18,0,.33,0,.43.01.11,0,.19.02.25.04.06.02.1.05.13.09.03.04.05.09.06.15l.88,2.72,1.95-2.75c.03-.05.07-.09.11-.13.04-.03.1-.06.16-.08.07-.02.16-.03.27-.04.11,0,.26-.01.45-.01.23,0,.41,0,.55.02.13.01.22.04.26.09.04.05.04.12,0,.21-.04.09-.11.21-.22.36l-2.54,3.4Z"/>
    <path class="cls-3" d="m166.68,253.97c0,.31-.03.63-.09.95-.06.33-.15.65-.27.96-.12.31-.29.6-.48.88-.2.27-.43.51-.7.72-.27.21-.58.37-.94.49s-.75.18-1.19.18-.81-.05-1.12-.15c-.32-.1-.58-.25-.79-.45-.21-.2-.37-.44-.47-.72-.1-.29-.15-.61-.15-.98,0-.31.03-.63.09-.95s.15-.64.27-.95c.12-.31.29-.6.48-.88.2-.28.43-.52.7-.73s.58-.37.94-.49.75-.18,1.19-.18.81.05,1.12.15c.32.1.58.25.79.44.21.2.37.44.47.72.1.29.15.61.15.98Zm-1.67.11c0-.18-.02-.34-.05-.48-.04-.14-.1-.26-.18-.35s-.19-.17-.32-.22-.29-.08-.48-.08c-.21,0-.41.04-.58.12s-.33.2-.46.34c-.14.14-.25.31-.35.49-.1.19-.18.38-.24.59s-.11.42-.14.63c-.03.21-.05.42-.05.61,0,.18.02.34.05.48.04.14.1.26.18.36s.19.17.32.22c.13.05.29.08.48.08.21,0,.41-.04.58-.13s.33-.2.46-.34c.14-.14.25-.31.35-.5.1-.19.18-.38.25-.59.06-.21.11-.42.14-.63.03-.21.04-.41.04-.61Z"/>
    <path class="cls-3" d="m172.57,252.41c0,.1-.01.21-.04.33-.02.12-.05.24-.09.35-.04.11-.09.21-.14.28-.06.08-.12.11-.19.11-.06,0-.13-.03-.19-.08-.06-.05-.13-.11-.22-.17s-.2-.12-.33-.18c-.13-.05-.3-.08-.52-.08-.22,0-.42.05-.6.15-.18.1-.33.23-.46.38-.13.16-.24.33-.33.54-.09.2-.16.4-.21.61s-.1.4-.12.59c-.02.19-.04.35-.04.49,0,.35.08.61.23.79s.39.27.72.27c.24,0,.45-.03.62-.09.17-.06.32-.13.44-.21s.23-.14.32-.2c.09-.06.17-.09.24-.09.04,0,.07.02.09.06.02.04.03.09.03.17s0,.16-.03.27c-.02.11-.04.22-.07.33-.03.11-.06.22-.1.31-.04.1-.08.17-.14.23-.06.06-.15.12-.27.19-.12.07-.27.13-.43.19s-.34.1-.53.13c-.19.04-.39.05-.6.05-.73,0-1.28-.19-1.65-.56-.37-.37-.55-.92-.55-1.65,0-.26.03-.55.07-.86.05-.31.13-.63.24-.94.11-.32.26-.62.43-.92.18-.3.4-.56.65-.79s.56-.41.9-.55c.34-.14.73-.21,1.17-.21.17,0,.34.01.5.04.16.03.31.06.45.11s.26.1.36.16.18.12.24.16c.05.05.08.09.1.13.01.04.02.09.02.14Z"/>
    <path class="cls-3" d="m177.96,257.79c-.02.09-.08.16-.2.19-.12.04-.31.06-.57.06-.13,0-.24,0-.33-.01-.08,0-.15-.02-.2-.04-.05-.02-.08-.05-.1-.08s-.02-.07,0-.12l.18-.92c-.06.14-.17.28-.31.43s-.31.29-.5.42c-.19.12-.41.23-.64.31-.23.08-.48.12-.72.12-.34,0-.63-.06-.86-.18s-.41-.28-.55-.49c-.14-.2-.23-.44-.29-.7-.06-.26-.09-.54-.09-.83,0-.27.03-.57.08-.89.05-.32.13-.64.24-.96.11-.32.25-.62.41-.92.17-.29.37-.55.6-.78.23-.23.5-.41.8-.54s.65-.2,1.03-.2c.36,0,.67.07.95.22.27.15.51.36.72.65l.1-.51c.02-.09.08-.16.2-.19.12-.04.31-.06.57-.06.13,0,.24,0,.32.02s.15.03.2.04c.05.02.08.04.1.08.02.03.02.07.01.11l-1.15,5.76Zm-.8-4.03c-.15-.24-.32-.41-.5-.53-.18-.12-.39-.18-.63-.18-.18,0-.35.04-.5.13s-.28.2-.4.34c-.12.14-.22.31-.31.5-.09.19-.16.39-.22.59-.06.2-.1.41-.13.62-.03.21-.04.4-.04.58,0,.13,0,.25.03.37.02.12.05.22.11.31.05.09.12.16.21.22s.2.08.33.08c.19,0,.38-.06.58-.17.2-.11.38-.27.55-.46.17-.2.32-.42.46-.68.13-.26.23-.54.29-.83l.18-.87Z"/>
    <path class="cls-3" d="m181.21,257.78s-.03.08-.06.11-.08.06-.14.08-.15.04-.26.05-.24.02-.39.02c-.16,0-.29,0-.4-.02-.1-.01-.18-.03-.24-.05s-.09-.05-.11-.08c-.02-.03-.02-.07-.02-.11l1.69-8.47s.03-.08.06-.12c.03-.03.08-.06.15-.09.07-.02.16-.04.26-.05.1-.01.24-.02.4-.02s.29,0,.39.02c.1.01.18.03.23.05s.09.05.11.09c.02.03.02.07.01.12l-1.69,8.47Z"/>
    <path class="cls-3" d="m184.45,257.78s-.03.08-.06.11-.08.06-.15.08c-.07.02-.15.04-.26.05s-.24.02-.39.02-.29,0-.39-.02c-.1-.01-.18-.03-.24-.05-.06-.02-.1-.05-.11-.08s-.02-.07-.01-.11l1.15-5.75s.03-.08.06-.11.08-.06.15-.08.15-.04.26-.05c.1-.01.24-.02.4-.02s.29,0,.39.02c.1.01.18.03.24.05.06.02.1.05.11.08.02.03.02.07.01.11l-1.15,5.75Z"/>
  </g>
  <g>
    <path class="cls-3" d="m183.46,164.52s0,.08,0,.15c0,.07-.02.14-.03.22-.02.08-.03.17-.06.25-.02.09-.05.17-.08.24s-.07.13-.12.18c-.04.05-.09.07-.15.07h-2.09l-1.34,6.72s-.04.08-.07.12c-.03.03-.09.06-.16.08-.07.02-.16.04-.27.05-.11.01-.25.02-.42.02s-.3,0-.41-.02c-.11-.01-.19-.03-.25-.05s-.1-.05-.12-.08c-.02-.03-.02-.07-.02-.12l1.34-6.72h-2.07c-.06,0-.11-.02-.13-.07-.02-.05-.04-.11-.04-.19,0-.03,0-.08,0-.15,0-.07.02-.14.03-.23.01-.08.03-.17.06-.26.02-.09.05-.17.09-.24.04-.07.07-.13.12-.18s.09-.07.14-.07h5.88c.05,0,.09.02.12.07.03.05.04.11.04.2Z"/>
    <path class="cls-3" d="m182.79,171.1c0-.31.07-.59.21-.83.14-.25.36-.46.65-.64s.67-.31,1.12-.41c.45-.09.99-.14,1.62-.14h.59c.02-.1.03-.2.04-.29s.01-.19.01-.27c0-.35-.09-.61-.27-.79-.18-.18-.47-.26-.87-.26-.28,0-.54.02-.76.06-.23.04-.42.09-.59.14-.17.05-.31.09-.42.14-.11.04-.19.06-.24.06s-.09-.01-.11-.04c-.02-.03-.03-.08-.03-.14,0-.07,0-.16.02-.25.01-.09.03-.19.05-.28s.05-.18.09-.26c.04-.08.08-.14.12-.19.05-.05.15-.1.28-.15.14-.05.3-.1.5-.14s.41-.08.65-.11.49-.04.73-.04c.41,0,.77.04,1.08.13.31.09.56.22.77.39.21.18.36.4.46.67.1.27.15.6.15.97,0,.29-.03.6-.08.92s-.14.65-.26.97c-.12.32-.28.63-.46.92-.19.29-.42.55-.69.77s-.58.4-.93.53c-.35.13-.75.2-1.2.2-.39,0-.73-.05-1.01-.14s-.51-.21-.69-.37c-.18-.15-.32-.33-.4-.52s-.13-.4-.13-.6Zm1.59-.12c0,.17.07.31.2.43.13.11.33.17.59.17.21,0,.41-.04.58-.12s.32-.18.45-.31c.13-.13.24-.29.33-.46.09-.18.17-.37.22-.57h-.54c-.34,0-.63.02-.86.07-.23.05-.42.11-.56.18-.14.08-.25.17-.31.27-.06.11-.1.22-.1.34Z"/>
    <path class="cls-3" d="m194.06,166.53s0,.08-.01.16c0,.08-.02.17-.04.27-.02.1-.04.21-.06.32-.03.11-.05.21-.09.31s-.07.17-.11.23c-.04.06-.08.09-.13.09-.04,0-.08,0-.12-.02-.04-.02-.08-.03-.13-.05-.05-.02-.1-.03-.15-.04s-.12-.02-.19-.02c-.15,0-.3.06-.47.17-.17.11-.32.26-.47.44s-.29.4-.4.64-.2.5-.25.76l-.52,2.58s-.03.08-.06.11-.08.06-.15.08c-.07.02-.15.04-.26.05s-.24.02-.39.02-.29,0-.39-.02c-.1-.01-.18-.03-.24-.05-.06-.02-.1-.05-.11-.08s-.02-.07-.01-.11l1.15-5.75s.03-.08.06-.11c.03-.03.07-.06.13-.08s.13-.03.23-.04c.09-.01.2-.02.33-.02s.24,0,.33.02.15.03.2.04c.05.02.08.04.09.08.01.03.02.07,0,.11l-.18.92c.1-.18.22-.35.36-.51.14-.15.28-.29.43-.4s.31-.2.47-.27.32-.1.48-.1c.06,0,.13,0,.2.01.07,0,.13.02.19.03.06.01.11.03.15.05.04.02.08.04.11.06.03.03.04.07.04.12Z"/>
    <path class="cls-3" d="m198.45,166.68s0,.1-.01.16c0,.07-.02.14-.04.22-.02.08-.04.15-.06.23s-.05.15-.09.21c-.03.06-.07.11-.11.15-.04.04-.08.06-.13.06h-1.26l-.54,2.7c-.01.06-.03.14-.04.23-.01.09-.02.16-.02.22,0,.17.04.3.12.38.08.08.21.12.39.12.1,0,.19,0,.26-.02.07-.01.14-.03.19-.05.05-.02.1-.04.14-.05.04-.01.08-.02.11-.02s.06.02.09.05.04.08.04.16c0,.08,0,.17-.03.28-.02.1-.04.2-.07.3s-.06.19-.09.26c-.03.08-.07.14-.11.18-.04.04-.1.08-.17.11-.08.03-.17.06-.27.09-.11.03-.22.05-.34.06-.12.01-.24.02-.36.02-.26,0-.48-.03-.68-.08-.2-.05-.36-.14-.49-.25-.13-.12-.23-.26-.3-.44-.07-.18-.1-.4-.1-.66,0-.05,0-.1,0-.16,0-.06.01-.13.02-.2.01-.07.02-.14.03-.21.01-.07.02-.13.04-.19l.56-2.8h-.7c-.06,0-.1-.02-.12-.05-.03-.04-.04-.11-.04-.21,0-.07,0-.17.02-.29.02-.12.04-.23.07-.35s.08-.21.14-.29.12-.12.2-.12h.69l.26-1.28s.03-.08.06-.12c.03-.03.08-.06.15-.09.07-.02.15-.04.26-.05.1-.01.24-.02.4-.02s.28,0,.39.02c.1.01.18.03.24.05.06.02.09.05.11.09.02.03.02.07.02.12l-.26,1.28h1.24c.07,0,.12.02.15.07.03.05.04.12.04.21Z"/>
    <path class="cls-3" d="m198.49,171.1c0-.31.07-.59.21-.83.14-.25.36-.46.65-.64s.67-.31,1.12-.41c.45-.09.99-.14,1.62-.14h.59c.02-.1.03-.2.04-.29s.01-.19.01-.27c0-.35-.09-.61-.27-.79-.18-.18-.47-.26-.87-.26-.28,0-.54.02-.76.06-.23.04-.42.09-.59.14-.17.05-.31.09-.42.14-.11.04-.19.06-.24.06s-.09-.01-.11-.04c-.02-.03-.03-.08-.03-.14,0-.07,0-.16.02-.25.01-.09.03-.19.05-.28s.05-.18.09-.26c.04-.08.08-.14.12-.19.05-.05.15-.1.28-.15.14-.05.3-.1.5-.14s.41-.08.65-.11.49-.04.73-.04c.41,0,.77.04,1.08.13.31.09.56.22.77.39.21.18.36.4.46.67.1.27.15.6.15.97,0,.29-.03.6-.08.92s-.14.65-.26.97c-.12.32-.28.63-.46.92-.19.29-.42.55-.69.77s-.58.4-.93.53c-.35.13-.75.2-1.2.2-.39,0-.73-.05-1.01-.14s-.51-.21-.69-.37c-.18-.15-.32-.33-.4-.52s-.13-.4-.13-.6Zm1.59-.12c0,.17.07.31.2.43.13.11.33.17.59.17.21,0,.41-.04.58-.12s.32-.18.45-.31c.13-.13.24-.29.33-.46.09-.18.17-.37.22-.57h-.54c-.34,0-.63.02-.86.07-.23.05-.42.11-.56.18-.14.08-.25.17-.31.27-.06.11-.1.22-.1.34Z"/>
    <path class="cls-3" d="m209.76,166.53s0,.08-.01.16c0,.08-.02.17-.04.27-.02.1-.04.21-.06.32-.03.11-.05.21-.09.31s-.07.17-.11.23c-.04.06-.08.09-.13.09-.04,0-.08,0-.12-.02-.04-.02-.08-.03-.13-.05-.05-.02-.1-.03-.15-.04s-.12-.02-.19-.02c-.15,0-.3.06-.47.17-.17.11-.32.26-.47.44s-.29.4-.4.64-.2.5-.25.76l-.52,2.58s-.03.08-.06.11-.08.06-.15.08c-.07.02-.15.04-.26.05s-.24.02-.39.02-.29,0-.39-.02c-.1-.01-.18-.03-.24-.05-.06-.02-.1-.05-.11-.08s-.02-.07-.01-.11l1.15-5.75s.03-.08.06-.11c.03-.03.07-.06.13-.08s.13-.03.23-.04c.09-.01.2-.02.33-.02s.24,0,.33.02.15.03.2.04c.05.02.08.04.09.08.01.03.02.07,0,.11l-.18.92c.1-.18.22-.35.36-.51.14-.15.28-.29.43-.4s.31-.2.47-.27.32-.1.48-.1c.06,0,.13,0,.2.01.07,0,.13.02.19.03.06.01.11.03.15.05.04.02.08.04.11.06.03.03.04.07.04.12Z"/>
  </g>
  <g>
    <path class="cls-3" d="m152.6,313.77c-.35-.04-.64-.1-.86-.18-.22-.08-.4-.15-.52-.23-.13-.07-.22-.14-.28-.2-.06-.06-.09-.16-.09-.29,0-.04,0-.09.01-.16,0-.07.02-.14.04-.22.01-.08.03-.16.05-.25s.05-.16.08-.23c.03-.07.06-.12.1-.17.04-.04.08-.06.12-.06.07,0,.16.03.26.1.1.07.23.14.38.22.15.08.33.15.53.22.21.07.45.1.74.1.25,0,.48-.03.67-.1s.35-.15.48-.26c.13-.11.23-.24.29-.39.07-.15.1-.31.1-.49,0-.16-.04-.3-.12-.42s-.18-.23-.31-.33c-.13-.1-.27-.2-.43-.29s-.33-.19-.49-.29-.33-.21-.49-.33-.3-.26-.43-.42-.23-.35-.31-.56c-.08-.21-.12-.46-.12-.73,0-.39.08-.74.23-1.07.15-.33.37-.61.64-.84.28-.23.6-.42.99-.55.38-.13.8-.2,1.26-.2.21,0,.42.02.61.05s.37.07.53.12c.16.05.29.1.41.17.11.06.19.11.23.15.04.04.07.08.09.13.02.04.03.1.03.17,0,.04,0,.08,0,.15,0,.06-.02.14-.03.21s-.03.16-.05.24c-.02.08-.04.15-.07.22-.03.07-.06.12-.09.16s-.07.06-.11.06c-.06,0-.14-.03-.23-.08s-.2-.11-.33-.17c-.13-.06-.28-.12-.46-.17-.18-.05-.38-.08-.6-.08s-.43.03-.59.1-.29.15-.4.25c-.1.1-.18.22-.23.35-.05.13-.07.26-.07.4,0,.16.04.29.12.41s.18.23.31.33c.13.1.28.2.44.29.17.09.33.19.5.3.17.1.34.22.5.34.17.12.31.26.44.42s.23.35.31.55c.08.21.12.45.12.72,0,.4-.08.78-.24,1.12s-.38.63-.65.87c-.27.24-.58.43-.91.55-.33.13-.61.21-.83.23l.08.35c.03.11.05.21.07.3.02.09.03.19.03.28,0,.23-.04.43-.12.6s-.18.31-.32.42c-.13.11-.3.19-.49.24-.19.05-.4.08-.63.08-.12,0-.25,0-.36-.01s-.23-.02-.33-.04-.19-.04-.27-.06-.14-.05-.19-.07c-.05-.03-.08-.05-.1-.08-.02-.03-.03-.07-.03-.12,0-.04,0-.1.02-.18s.03-.15.05-.23c.03-.08.06-.15.11-.2.04-.06.1-.09.17-.09h.74c.06,0,.12,0,.17-.02.06-.02.1-.04.14-.06.04-.03.07-.07.1-.11s.04-.1.04-.16c0-.04,0-.09,0-.15,0-.06-.02-.11-.03-.17l-.12-.46Z"/>
    <path class="cls-3" d="m162.58,313.44s-.03.08-.05.11c-.03.03-.07.06-.13.08-.06.02-.13.03-.22.04-.09.01-.2.02-.33.02s-.24,0-.33-.02c-.08-.01-.15-.03-.2-.04-.05-.02-.08-.04-.09-.08-.02-.03-.02-.07,0-.11l.17-.93c-.09.15-.2.3-.35.45-.15.15-.32.29-.52.42-.2.13-.41.23-.63.31-.23.08-.46.12-.7.12-.3,0-.55-.04-.76-.13-.21-.08-.38-.2-.5-.34-.13-.14-.22-.32-.28-.52-.06-.2-.09-.42-.09-.66,0-.15,0-.29.03-.45s.04-.31.07-.47l.71-3.56s.03-.08.06-.11.08-.06.15-.08.15-.03.26-.04.24-.02.39-.02.29,0,.39.02c.1.01.18.03.24.04.06.02.09.04.11.08s.02.07.02.11l-.68,3.45c-.02.09-.04.19-.05.3-.01.1-.02.2-.02.3,0,.1,0,.2.03.28s.05.16.09.22c.04.06.1.11.17.14.07.03.15.04.24.04.18,0,.36-.06.55-.17.19-.11.37-.27.54-.47.17-.2.33-.44.46-.71.13-.27.24-.57.31-.89l.49-2.49s.02-.08.06-.11.08-.06.15-.08.15-.03.26-.04.24-.02.39-.02.29,0,.39.02c.1.01.18.03.24.04.06.02.1.04.11.08.02.03.02.07.01.11l-1.15,5.76Z"/>
    <path class="cls-3" d="m165.33,313.78c-.24-.03-.45-.07-.62-.12-.17-.05-.31-.11-.42-.16s-.18-.11-.24-.16c-.03-.03-.06-.07-.07-.11-.01-.04-.02-.09-.02-.15,0-.04,0-.09,0-.15,0-.06.02-.13.03-.2s.03-.15.05-.22.04-.14.07-.2c.03-.06.05-.11.08-.14.03-.04.06-.05.1-.05.06,0,.13.03.2.08.07.05.17.11.28.17s.26.12.43.17c.17.05.38.08.63.08.18,0,.33-.02.46-.06.13-.04.24-.1.33-.17s.15-.16.19-.25c.04-.09.06-.2.06-.3,0-.15-.05-.27-.16-.37-.11-.09-.24-.18-.4-.26-.16-.08-.33-.17-.52-.25s-.36-.19-.52-.32c-.16-.12-.29-.28-.4-.46s-.16-.42-.16-.7c0-.3.06-.59.17-.85.12-.26.29-.49.51-.69s.49-.35.81-.46c.32-.11.68-.16,1.08-.16.18,0,.36.01.52.04.17.02.32.06.46.09.14.04.25.08.35.13.1.05.17.09.22.14.05.04.07.12.07.22,0,.05,0,.13-.02.23-.01.1-.04.2-.07.31-.03.1-.07.19-.11.27s-.09.11-.14.11c-.06,0-.12-.02-.2-.06s-.17-.09-.27-.14c-.11-.05-.23-.09-.38-.13-.14-.04-.31-.06-.51-.06-.15,0-.29.02-.4.06s-.22.09-.29.16c-.08.07-.14.14-.18.23-.04.09-.06.19-.06.29,0,.13.05.25.16.33.11.09.25.18.41.25.16.08.34.16.53.25.19.09.37.19.53.32s.3.29.41.47.16.42.16.7c0,.33-.06.63-.19.92-.13.29-.33.54-.62.77-.28.23-.66.39-1.12.49l.1.37c.03.11.05.21.06.3.02.09.03.19.03.28,0,.23-.04.43-.11.6s-.18.31-.32.42c-.13.11-.3.19-.49.24s-.41.08-.64.08c-.12,0-.24,0-.36-.01s-.23-.02-.33-.04c-.1-.02-.19-.04-.27-.06s-.14-.05-.19-.07c-.05-.03-.08-.05-.1-.08-.02-.03-.03-.07-.03-.12,0-.04,0-.1.02-.18s.03-.15.05-.23c.03-.08.06-.15.11-.2.04-.06.1-.09.18-.09h.73c.06,0,.12,0,.17-.02.05-.02.1-.04.14-.06.04-.03.07-.07.1-.11.02-.05.04-.1.04-.16,0-.04,0-.09,0-.15,0-.06-.02-.11-.03-.17l-.11-.45Z"/>
    <path class="cls-3" d="m174.75,313.44c-.02.09-.08.16-.2.19-.12.04-.31.06-.57.06-.13,0-.24,0-.33-.01-.08,0-.15-.02-.2-.04-.05-.02-.08-.05-.1-.08s-.02-.07,0-.12l.18-.92c-.06.14-.17.28-.31.43s-.31.29-.5.42c-.19.12-.41.23-.64.31-.23.08-.48.12-.72.12-.34,0-.63-.06-.86-.18s-.41-.28-.55-.49c-.14-.2-.23-.44-.29-.7-.06-.26-.09-.54-.09-.83,0-.27.03-.57.08-.89.05-.32.13-.64.24-.96.11-.32.25-.62.41-.92.17-.29.37-.55.6-.78.23-.23.5-.41.8-.54s.65-.2,1.03-.2c.36,0,.67.07.95.22.27.15.51.36.72.65l.1-.51c.02-.09.08-.16.2-.19.12-.04.31-.06.57-.06.13,0,.24,0,.32.02s.15.03.2.04c.05.02.08.04.1.08.02.03.02.07.01.11l-1.15,5.76Zm-.8-4.03c-.15-.24-.32-.41-.5-.53-.18-.12-.39-.18-.63-.18-.18,0-.35.04-.5.13s-.28.2-.4.34c-.12.14-.22.31-.31.5-.09.19-.16.39-.22.59-.06.2-.1.41-.13.62-.03.21-.04.4-.04.58,0,.13,0,.25.03.37.02.12.05.22.11.31.05.09.12.16.21.22s.2.08.33.08c.19,0,.38-.06.58-.17.2-.11.38-.27.55-.46.17-.2.32-.42.46-.68.13-.26.23-.54.29-.83l.18-.87Z"/>
  </g>
  <g>
    <path class="cls-3" d="m227.1,294.46l1.28,3.64c.05.15.07.28.08.37,0,.09-.02.16-.08.21-.06.05-.16.08-.29.09s-.33.02-.57.02c-.18,0-.32,0-.42-.01-.1,0-.18-.02-.24-.04-.06-.02-.1-.05-.12-.08s-.04-.08-.06-.13l-1.01-3.03-2.14,3.03c-.04.05-.08.09-.12.13s-.1.06-.17.08c-.08.02-.17.03-.3.04-.12,0-.28.01-.47.01-.23,0-.41,0-.53-.02s-.21-.04-.25-.09c-.04-.05-.04-.12,0-.21.04-.09.11-.21.22-.36l2.75-3.67-1.17-3.39c-.05-.15-.07-.27-.08-.36,0-.09.02-.16.08-.21.06-.05.16-.08.29-.09.14-.01.33-.02.57-.02.18,0,.33,0,.43.01s.19.02.25.04c.06.02.1.05.13.09.03.04.05.09.06.15l.88,2.72,1.95-2.75c.03-.05.07-.09.11-.13s.1-.06.16-.08c.07-.02.16-.03.27-.04.11,0,.26-.01.45-.01.23,0,.41,0,.55.02.13.01.22.04.26.09.04.05.04.12,0,.21-.04.09-.11.21-.22.36l-2.54,3.4Z"/>
    <path class="cls-3" d="m235.59,294.72c0,.31-.03.63-.09.95-.06.33-.15.65-.27.96-.12.31-.29.6-.48.88-.2.27-.43.51-.7.72-.27.21-.58.37-.94.49s-.75.18-1.19.18-.81-.05-1.12-.15c-.32-.1-.58-.25-.79-.45-.21-.2-.37-.44-.47-.72-.1-.29-.15-.61-.15-.98,0-.31.03-.63.09-.95s.15-.64.27-.95c.12-.31.29-.6.48-.88.2-.28.43-.52.7-.73s.58-.37.94-.49.75-.18,1.19-.18.81.05,1.12.15c.32.1.58.25.79.44.21.2.37.44.47.72.1.29.15.61.15.98Zm-1.67.11c0-.18-.02-.34-.05-.48-.04-.14-.1-.26-.18-.35s-.19-.17-.32-.22-.29-.08-.48-.08c-.21,0-.41.04-.58.12s-.33.2-.46.34c-.14.14-.25.31-.35.49-.1.19-.18.38-.24.59s-.11.42-.14.63c-.03.21-.05.42-.05.61,0,.18.02.34.05.48.04.14.1.26.18.36s.19.17.32.22c.13.05.29.08.48.08.21,0,.41-.04.58-.13s.33-.2.46-.34c.14-.14.25-.31.35-.5.1-.19.18-.38.25-.59.06-.21.11-.42.14-.63.03-.21.04-.41.04-.61Z"/>
    <path class="cls-3" d="m241.48,293.17c0,.1-.01.21-.04.33-.02.12-.05.24-.09.35-.04.11-.09.21-.14.28-.06.08-.12.11-.19.11-.06,0-.13-.03-.19-.08-.06-.05-.13-.11-.22-.17s-.2-.12-.33-.18c-.13-.05-.3-.08-.52-.08-.22,0-.42.05-.6.15-.18.1-.33.23-.46.38-.13.16-.24.33-.33.54-.09.2-.16.4-.21.61s-.1.4-.12.59c-.02.19-.04.35-.04.49,0,.35.08.61.23.79s.39.27.72.27c.24,0,.45-.03.62-.09.17-.06.32-.13.44-.21s.23-.14.32-.2c.09-.06.17-.09.24-.09.04,0,.07.02.09.06.02.04.03.09.03.17s0,.16-.03.27c-.02.11-.04.22-.07.33-.03.11-.06.22-.1.31-.04.1-.08.17-.14.23-.06.06-.15.12-.27.19-.12.07-.27.13-.43.19s-.34.1-.53.13c-.19.04-.39.05-.6.05-.73,0-1.28-.19-1.65-.56-.37-.37-.55-.92-.55-1.65,0-.26.03-.55.07-.86.05-.31.13-.63.24-.94.11-.32.26-.62.43-.92.18-.3.4-.56.65-.79s.56-.41.9-.55c.34-.14.73-.21,1.17-.21.17,0,.34.01.5.04.16.03.31.06.45.11s.26.1.36.16.18.12.24.16c.05.05.08.09.1.13.01.04.02.09.02.14Z"/>
    <path class="cls-3" d="m246.87,298.54c-.02.09-.08.16-.2.19-.12.04-.31.06-.57.06-.13,0-.24,0-.33-.01-.08,0-.15-.02-.2-.04-.05-.02-.08-.05-.1-.08s-.02-.07,0-.12l.18-.92c-.06.14-.17.28-.31.43s-.31.29-.5.42c-.19.12-.41.23-.64.31-.23.08-.48.12-.72.12-.34,0-.63-.06-.86-.18s-.41-.28-.55-.49c-.14-.2-.23-.44-.29-.7-.06-.26-.09-.54-.09-.83,0-.27.03-.57.08-.89.05-.32.13-.64.24-.96.11-.32.25-.62.41-.92.17-.29.37-.55.6-.78.23-.23.5-.41.8-.54s.65-.2,1.03-.2c.36,0,.67.07.95.22.27.15.51.36.72.65l.1-.51c.02-.09.08-.16.2-.19.12-.04.31-.06.57-.06.13,0,.24,0,.32.02s.15.03.2.04c.05.02.08.04.1.08.02.03.02.07.01.11l-1.15,5.76Zm-.8-4.03c-.15-.24-.32-.41-.5-.53-.18-.12-.39-.18-.63-.18-.18,0-.35.04-.5.13s-.28.2-.4.34c-.12.14-.22.31-.31.5-.09.19-.16.39-.22.59-.06.2-.1.41-.13.62-.03.21-.04.4-.04.58,0,.13,0,.25.03.37.02.12.05.22.11.31.05.09.12.16.21.22s.2.08.33.08c.19,0,.38-.06.58-.17.2-.11.38-.27.55-.46.17-.2.32-.42.46-.68.13-.26.23-.54.29-.83l.18-.87Z"/>
    <path class="cls-3" d="m254.67,292.75s0,.11-.02.17c-.01.07-.03.14-.06.22-.16.46-.33.93-.53,1.39s-.41.93-.64,1.38c-.23.46-.48.9-.75,1.34-.27.44-.56.86-.87,1.27-.04.06-.09.11-.15.15-.06.04-.13.06-.22.08-.09.02-.19.03-.3.04-.12,0-.25,0-.41,0-.24,0-.42,0-.56-.02-.14-.01-.24-.03-.32-.05s-.12-.06-.15-.11c-.03-.04-.04-.1-.05-.17l-.68-5.17c0-.07,0-.13-.01-.19,0-.06,0-.12,0-.17,0-.09,0-.15.03-.2.02-.04.06-.08.12-.11.06-.03.14-.05.25-.06.11-.01.26-.02.44-.02.17,0,.31,0,.41.01.1,0,.17.02.23.04s.09.05.11.09c.02.04.03.08.03.13l.49,4.22v.16l.03-.06c.22-.33.42-.66.6-1s.34-.68.5-1.03.29-.72.43-1.1c.13-.38.26-.78.39-1.2.01-.06.04-.1.07-.14.03-.03.09-.06.16-.08.07-.02.16-.04.27-.04.11,0,.25-.01.41-.01s.29,0,.39.01c.1,0,.18.02.23.04.05.02.09.04.11.06.02.03.03.06.03.1Z"/>
    <path class="cls-3" d="m254.67,297.27c0-.31.07-.59.21-.83.14-.25.36-.46.65-.64.29-.18.67-.31,1.12-.41s.99-.14,1.62-.14h.59c.02-.1.03-.2.04-.29,0-.1.01-.19.01-.27,0-.35-.09-.61-.27-.79-.18-.18-.47-.26-.87-.26-.28,0-.54.02-.76.06-.23.04-.42.09-.59.13-.17.05-.31.09-.42.14-.11.04-.19.06-.24.06s-.09-.02-.11-.05c-.02-.03-.03-.08-.03-.14,0-.07,0-.16.02-.25s.03-.19.05-.28.05-.18.09-.26c.04-.08.08-.14.12-.19.05-.05.15-.1.28-.15.14-.05.3-.1.5-.14s.41-.08.65-.11.49-.04.73-.04c.41,0,.77.04,1.08.13.31.09.56.22.77.39.21.18.36.4.46.67s.15.6.15.97c0,.29-.03.6-.08.92-.05.33-.14.65-.26.97-.12.32-.28.63-.46.92-.19.29-.42.55-.69.77-.27.22-.58.4-.93.53-.35.13-.75.2-1.2.2-.39,0-.73-.05-1.01-.14-.28-.09-.51-.21-.69-.37s-.32-.33-.4-.52c-.09-.2-.13-.4-.13-.6Zm1.59-.12c0,.17.07.31.2.43.13.11.33.17.59.17.21,0,.41-.04.58-.12s.32-.18.45-.31c.13-.13.24-.29.33-.46.09-.18.17-.37.22-.57h-.54c-.34,0-.63.02-.86.07-.23.04-.42.11-.56.18-.14.08-.25.17-.31.27s-.1.22-.1.34Z"/>
    <path class="cls-3" d="m267.35,294.07c0,.15,0,.3-.03.45s-.04.3-.07.46l-.72,3.55s-.03.08-.06.11-.08.06-.15.08-.15.04-.26.05-.24.02-.4.02-.29,0-.39-.02-.18-.03-.24-.05-.09-.05-.11-.08-.03-.07-.02-.11l.7-3.45c.02-.1.04-.21.05-.32.01-.11.02-.2.02-.28,0-.19-.04-.35-.12-.48-.08-.12-.22-.19-.41-.19-.18,0-.36.06-.55.17-.19.11-.37.26-.54.45-.17.19-.32.42-.45.67-.13.26-.23.53-.28.82l-.52,2.6s-.03.08-.06.11-.08.06-.15.08c-.07.02-.15.04-.26.05s-.24.02-.39.02-.29,0-.39-.02c-.1-.01-.18-.03-.24-.05-.06-.02-.1-.05-.11-.08s-.02-.07-.01-.11l1.15-5.75s.03-.08.05-.11.07-.06.13-.08.13-.03.23-.04c.09-.01.2-.02.33-.02s.24,0,.33.02.15.03.2.04c.05.02.08.04.09.08.01.03.02.07,0,.11l-.19.95c.09-.15.21-.3.36-.46.15-.16.32-.3.52-.42.2-.12.41-.23.64-.31.23-.08.47-.12.72-.12.3,0,.55.04.76.13.2.09.37.21.5.36s.22.33.27.52c.06.2.08.41.08.63Z"/>
    <path class="cls-3" d="m273.48,298.54c-.02.09-.08.16-.2.19-.12.04-.31.06-.57.06-.13,0-.24,0-.33-.01-.08,0-.15-.02-.2-.04-.05-.02-.08-.05-.1-.08-.02-.03-.02-.07,0-.12l.17-.92c-.06.14-.17.28-.31.43s-.31.29-.5.42c-.19.13-.41.23-.64.31-.23.08-.48.12-.72.12s-.46-.03-.64-.09-.34-.15-.47-.25c-.13-.11-.24-.23-.33-.38-.09-.15-.15-.3-.21-.46s-.09-.33-.11-.51-.03-.34-.03-.51c0-.28.03-.58.08-.9.05-.32.13-.64.24-.95.11-.32.25-.62.42-.91.17-.29.37-.55.6-.77.23-.22.5-.4.81-.53.3-.13.64-.2,1.02-.2.17,0,.33.02.48.05.15.04.29.09.42.15s.24.14.34.22c.1.09.19.18.26.27l.61-3.04s.03-.08.06-.12c.03-.03.08-.06.14-.09s.15-.04.26-.05.24-.02.4-.02.29,0,.39.02.18.03.24.05.09.05.11.09c.02.04.02.07.01.12l-1.69,8.46Zm-.81-4.03c-.15-.24-.32-.42-.5-.54-.18-.12-.39-.18-.63-.18-.18,0-.34.04-.49.13-.15.08-.28.2-.4.33s-.22.3-.31.49c-.09.19-.16.38-.22.59-.06.21-.1.41-.13.62-.03.21-.04.4-.04.59,0,.33.05.57.16.74.11.17.28.25.51.25.19,0,.38-.06.58-.17.2-.11.38-.27.55-.46s.32-.42.46-.68c.13-.26.23-.54.29-.83l.18-.88Z"/>
  </g>
  <g>
    <path class="cls-3" d="m152.46,271.13l1.28,3.64c.05.15.07.28.08.37,0,.09-.02.16-.08.21-.06.05-.16.08-.29.09s-.33.02-.57.02c-.18,0-.32,0-.42-.01-.1,0-.18-.02-.24-.04-.06-.02-.1-.05-.12-.08s-.04-.08-.06-.13l-1.01-3.03-2.14,3.03c-.04.05-.08.09-.12.13s-.1.06-.17.08c-.08.02-.17.03-.3.04-.12,0-.28.01-.47.01-.23,0-.41,0-.53-.02s-.21-.04-.25-.09c-.04-.05-.04-.12,0-.21.04-.09.11-.21.22-.36l2.75-3.67-1.17-3.39c-.05-.15-.07-.27-.08-.36,0-.09.02-.16.08-.21.06-.05.16-.08.29-.09.14-.01.33-.02.57-.02.18,0,.33,0,.43.01s.19.02.25.04c.06.02.1.05.13.09.03.04.05.09.06.15l.88,2.72,1.95-2.75c.03-.05.07-.09.11-.13s.1-.06.16-.08c.07-.02.16-.03.27-.04.11,0,.26-.01.45-.01.23,0,.41,0,.55.02.13.01.22.04.26.09.04.05.04.12,0,.21-.04.09-.11.21-.22.36l-2.54,3.4Z"/>
    <path class="cls-3" d="m159.92,275.22c-.02.09-.08.16-.2.19-.12.04-.31.06-.57.06-.13,0-.24,0-.33-.01-.08,0-.15-.02-.2-.04-.05-.02-.08-.05-.1-.08s-.02-.07,0-.12l.18-.92c-.06.14-.17.28-.31.43s-.31.29-.5.42c-.19.12-.41.23-.64.31-.23.08-.48.12-.72.12-.34,0-.63-.06-.86-.18s-.41-.28-.55-.49c-.14-.2-.23-.44-.29-.7-.06-.26-.09-.54-.09-.83,0-.27.03-.57.08-.89.05-.32.13-.64.24-.96.11-.32.25-.62.41-.92.17-.29.37-.55.6-.78.23-.23.5-.41.8-.54s.65-.2,1.03-.2c.36,0,.67.07.95.22.27.15.51.36.72.65l.1-.51c.02-.09.08-.16.2-.19.12-.04.31-.06.57-.06.13,0,.24,0,.32.02s.15.03.2.04c.05.02.08.04.1.08.02.03.02.07.01.11l-1.15,5.76Zm-.8-4.03c-.15-.24-.32-.41-.5-.53-.18-.12-.39-.18-.63-.18-.18,0-.35.04-.5.13s-.28.2-.4.34c-.12.14-.22.31-.31.5-.09.19-.16.39-.22.59-.06.2-.1.41-.13.62-.03.21-.04.4-.04.58,0,.13,0,.25.03.37.02.12.05.22.11.31.05.09.12.16.21.22s.2.08.33.08c.19,0,.38-.06.58-.17.2-.11.38-.27.55-.46.17-.2.32-.42.46-.68.13-.26.23-.54.29-.83l.18-.87Z"/>
    <path class="cls-3" d="m167.73,270.75c0,.15,0,.3-.03.45s-.04.3-.07.46l-.72,3.55s-.03.08-.06.11-.08.06-.15.08-.15.04-.26.05-.24.02-.4.02-.29,0-.39-.02-.18-.03-.24-.05-.09-.05-.11-.08-.03-.07-.02-.11l.7-3.45c.02-.1.04-.21.05-.32.01-.11.02-.2.02-.28,0-.19-.04-.35-.12-.48-.08-.12-.22-.19-.41-.19-.18,0-.36.06-.55.17-.19.11-.37.26-.54.45-.17.19-.32.42-.45.67-.13.26-.23.53-.28.82l-.52,2.6s-.03.08-.06.11-.08.06-.15.08c-.07.02-.15.04-.26.05s-.24.02-.39.02-.29,0-.39-.02c-.1-.01-.18-.03-.24-.05-.06-.02-.1-.05-.11-.08s-.02-.07-.01-.11l1.15-5.75s.03-.08.05-.11.07-.06.13-.08.13-.03.23-.04c.09-.01.2-.02.33-.02s.24,0,.33.02.15.03.2.04c.05.02.08.04.09.08.01.03.02.07,0,.11l-.19.95c.09-.15.21-.3.36-.46.15-.16.32-.3.52-.42.2-.12.41-.23.64-.31.23-.08.47-.12.72-.12.3,0,.55.04.76.13.2.09.37.21.5.36s.22.33.27.52c.06.2.08.41.08.63Z"/>
    <path class="cls-3" d="m174.79,269.44c0,.07-.03.15-.09.24-.06.09-.15.21-.29.35l-2.03,1.91,1.32,2.77c.04.1.07.19.09.27.02.08.03.14.03.18,0,.05-.01.1-.04.14-.03.04-.08.07-.14.1s-.16.04-.27.05c-.11.01-.26.02-.43.02s-.31,0-.42-.01c-.11,0-.19-.02-.25-.04s-.1-.05-.13-.08c-.03-.03-.05-.08-.06-.13l-1.36-3.03-.61,3.04s-.04.08-.07.11-.08.06-.15.08-.15.04-.26.05-.24.02-.39.02-.29,0-.39-.02-.18-.03-.24-.04-.09-.04-.11-.08-.03-.07-.02-.11l1.7-8.48s.03-.08.06-.12c.03-.04.08-.06.15-.09.07-.02.16-.04.26-.05.1-.01.24-.02.4-.02s.29,0,.39.02c.1.01.18.03.23.05.06.02.09.05.11.09.02.03.02.07.01.12l-1.01,5.05,2.15-2.3c.04-.05.09-.1.14-.13.05-.04.11-.07.19-.09.08-.02.17-.04.28-.04.11,0,.25-.01.41-.01s.29,0,.4.01c.11,0,.19.02.25.04.06.02.1.04.13.07.02.03.04.06.04.1Z"/>
    <path class="cls-3" d="m174.82,273.95c0-.31.07-.59.21-.83.14-.25.36-.46.65-.64.29-.18.67-.31,1.12-.41s.99-.14,1.62-.14h.59c.02-.1.03-.2.04-.29,0-.1.01-.19.01-.27,0-.35-.09-.61-.27-.79-.18-.18-.47-.26-.87-.26-.28,0-.54.02-.76.06-.23.04-.42.09-.59.13-.17.05-.31.09-.42.14-.11.04-.19.06-.24.06s-.09-.02-.11-.05c-.02-.03-.03-.08-.03-.14,0-.07,0-.16.02-.25s.03-.19.05-.28.05-.18.09-.26c.04-.08.08-.14.12-.19.05-.05.15-.1.28-.15.14-.05.3-.1.5-.14s.41-.08.65-.11.49-.04.73-.04c.41,0,.77.04,1.08.13.31.09.56.22.77.39.21.18.36.4.46.67s.15.6.15.97c0,.29-.03.6-.08.92-.05.33-.14.65-.26.97-.12.32-.28.63-.46.92-.19.29-.42.55-.69.77-.27.22-.58.4-.93.53-.35.13-.75.2-1.2.2-.39,0-.73-.05-1.01-.14-.28-.09-.51-.21-.69-.37s-.32-.33-.4-.52c-.09-.2-.13-.4-.13-.6Zm1.59-.12c0,.17.07.31.2.43.13.11.33.17.59.17.21,0,.41-.04.58-.12s.32-.18.45-.31c.13-.13.24-.29.33-.46.09-.18.17-.37.22-.57h-.54c-.34,0-.63.02-.86.07-.23.04-.42.11-.56.18-.14.08-.25.17-.31.27s-.1.22-.1.34Z"/>
    <path class="cls-3" d="m187.5,270.75c0,.15,0,.3-.03.45s-.04.3-.07.46l-.72,3.55s-.03.08-.06.11-.08.06-.15.08-.15.04-.26.05-.24.02-.4.02-.29,0-.39-.02-.18-.03-.24-.05-.09-.05-.11-.08-.03-.07-.02-.11l.7-3.45c.02-.1.04-.21.05-.32.01-.11.02-.2.02-.28,0-.19-.04-.35-.12-.48-.08-.12-.22-.19-.41-.19-.18,0-.36.06-.55.17-.19.11-.37.26-.54.45-.17.19-.32.42-.45.67-.13.26-.23.53-.28.82l-.52,2.6s-.03.08-.06.11-.08.06-.15.08c-.07.02-.15.04-.26.05s-.24.02-.39.02-.29,0-.39-.02c-.1-.01-.18-.03-.24-.05-.06-.02-.1-.05-.11-.08s-.02-.07-.01-.11l1.15-5.75s.03-.08.05-.11.07-.06.13-.08.13-.03.23-.04c.09-.01.2-.02.33-.02s.24,0,.33.02.15.03.2.04c.05.02.08.04.09.08.01.03.02.07,0,.11l-.19.95c.09-.15.21-.3.36-.46.15-.16.32-.3.52-.42.2-.12.41-.23.64-.31.23-.08.47-.12.72-.12.3,0,.55.04.76.13.2.09.37.21.5.36s.22.33.27.52c.06.2.08.41.08.63Z"/>
    <path class="cls-3" d="m193.62,275.22c-.02.09-.08.16-.2.19-.12.04-.31.06-.57.06-.13,0-.24,0-.33-.01-.08,0-.15-.02-.2-.04-.05-.02-.08-.05-.1-.08-.02-.03-.02-.07,0-.12l.17-.92c-.06.14-.17.28-.31.43s-.31.29-.5.42c-.19.13-.41.23-.64.31-.23.08-.48.12-.72.12s-.46-.03-.64-.09-.34-.15-.47-.25c-.13-.11-.24-.23-.33-.38-.09-.15-.15-.3-.21-.46s-.09-.33-.11-.51-.03-.34-.03-.51c0-.28.03-.58.08-.9.05-.32.13-.64.24-.95.11-.32.25-.62.42-.91.17-.29.37-.55.6-.77.23-.22.5-.4.81-.53.3-.13.64-.2,1.02-.2.17,0,.33.02.48.05.15.04.29.09.42.15s.24.14.34.22c.1.09.19.18.26.27l.61-3.04s.03-.08.06-.12c.03-.03.08-.06.14-.09s.15-.04.26-.05.24-.02.4-.02.29,0,.39.02.18.03.24.05.09.05.11.09c.02.04.02.07.01.12l-1.69,8.46Zm-.81-4.03c-.15-.24-.32-.42-.5-.54-.18-.12-.39-.18-.63-.18-.18,0-.34.04-.49.13-.15.08-.28.2-.4.33s-.22.3-.31.49c-.09.19-.16.38-.22.59-.06.21-.1.41-.13.62-.03.21-.04.4-.04.59,0,.33.05.57.16.74.11.17.28.25.51.25.19,0,.38-.06.58-.17.2-.11.38-.27.55-.46s.32-.42.46-.68c.13-.26.23-.54.29-.83l.18-.88Z"/>
    <path class="cls-3" d="m196.86,275.21s-.03.08-.06.11-.08.06-.15.08c-.07.02-.15.04-.26.05s-.24.02-.39.02-.29,0-.39-.02c-.1-.01-.18-.03-.24-.05-.06-.02-.1-.05-.11-.08s-.02-.07-.01-.11l1.14-5.74s.03-.08.06-.11.08-.06.15-.08.15-.04.26-.05.24-.02.4-.02.29,0,.39.02.18.03.24.05c.06.02.1.05.11.08.02.03.02.07.01.11l-1.14,5.74Zm1.66-7.68c-.03.16-.07.29-.12.4s-.12.2-.21.26-.19.11-.32.14c-.12.03-.28.04-.46.04s-.33-.01-.44-.04c-.11-.03-.2-.08-.26-.14-.06-.07-.09-.16-.1-.26s0-.24.04-.4c.03-.16.07-.29.12-.39s.12-.2.21-.26.19-.12.32-.15c.12-.03.28-.04.46-.04s.33.01.44.04c.11.03.2.08.26.15.06.07.09.16.1.26,0,.11,0,.24-.04.39Z"/>
  </g>
  <g>
    <path class="cls-3" d="m282.14,338.29s0,.07,0,.14c0,.07-.02.14-.03.22-.02.08-.03.17-.05.25-.02.09-.05.17-.08.25s-.07.14-.11.18c-.04.05-.09.07-.15.07h-2.73l-.45,2.24h2.56c.06,0,.1.02.13.07.03.05.04.11.04.19,0,.03,0,.08-.01.14,0,.07-.02.14-.04.22-.01.08-.03.16-.06.25s-.05.17-.08.24-.07.13-.11.18c-.04.05-.09.07-.15.07h-2.54l-.62,3.11s-.03.09-.06.12c-.03.03-.09.06-.16.08-.07.02-.16.04-.27.05-.11.01-.25.02-.41.02s-.3,0-.41-.02-.19-.03-.25-.05-.1-.05-.12-.08-.03-.08-.01-.12l1.51-7.56c.04-.19.12-.33.23-.41s.25-.13.39-.13h3.9c.07,0,.12.02.14.07.02.05.03.11.03.2Z"/>
    <path class="cls-3" d="m287.1,346.14s-.03.08-.05.11c-.03.03-.07.06-.13.08-.06.02-.13.03-.22.04-.09.01-.2.02-.33.02s-.24,0-.33-.02c-.08-.01-.15-.03-.2-.04-.05-.02-.08-.04-.09-.08-.02-.03-.02-.07,0-.11l.17-.93c-.09.15-.2.3-.35.45-.15.15-.32.29-.52.42-.2.13-.41.23-.63.31-.23.08-.46.12-.7.12-.3,0-.55-.04-.76-.13-.21-.08-.38-.2-.5-.34-.13-.14-.22-.32-.28-.52-.06-.2-.09-.42-.09-.66,0-.15,0-.29.03-.45s.04-.31.07-.47l.71-3.56s.03-.08.06-.11.08-.06.15-.08.15-.03.26-.04.24-.02.39-.02.29,0,.39.02c.1.01.18.03.24.04.06.02.09.04.11.08s.02.07.02.11l-.68,3.45c-.02.09-.04.19-.05.3-.01.1-.02.2-.02.3,0,.1,0,.2.03.28s.05.16.09.22c.04.06.1.11.17.14.07.03.15.04.24.04.18,0,.36-.06.55-.17.19-.11.37-.27.54-.47.17-.2.33-.44.46-.71.13-.27.24-.57.31-.89l.49-2.49s.02-.08.06-.11.08-.06.15-.08.15-.03.26-.04.24-.02.39-.02.29,0,.39.02c.1.01.18.03.24.04.06.02.1.04.11.08.02.03.02.07.01.11l-1.15,5.76Zm-1.69-7.68c-.03.16-.07.29-.12.39-.05.1-.11.18-.19.25-.08.06-.17.1-.28.12s-.24.03-.38.03-.27-.01-.37-.03-.17-.06-.23-.12c-.05-.06-.09-.14-.1-.25-.01-.1,0-.23.03-.39.03-.16.06-.29.11-.39.05-.1.11-.18.19-.25.08-.06.17-.1.28-.12s.24-.03.39-.03.27.01.37.03.18.06.23.12c.06.06.09.14.1.25s0,.23-.03.39Zm2.52,0c-.03.16-.07.29-.12.39-.05.1-.11.18-.19.25-.08.06-.17.1-.28.12s-.24.03-.39.03-.27-.01-.37-.03c-.1-.02-.18-.06-.23-.12-.05-.06-.09-.14-.1-.25-.01-.1,0-.23.03-.39.03-.16.06-.29.11-.39.05-.1.11-.18.19-.25.08-.06.17-.1.28-.12s.23-.03.38-.03.28.01.37.03.18.06.23.12c.06.06.09.14.1.25s0,.23-.03.39Z"/>
    <path class="cls-3" d="m293.7,340.4s0,.08-.01.14c0,.06-.02.13-.03.21-.01.07-.03.14-.04.21-.02.07-.03.12-.04.16-.03.11-.07.21-.13.3-.06.09-.13.19-.23.31l-2.72,3.32h2.19c.06,0,.11.02.14.06.03.04.04.11.04.21,0,.04,0,.08,0,.15,0,.07-.02.14-.03.22-.02.08-.04.16-.06.23s-.05.15-.08.21-.07.12-.11.16c-.04.04-.09.06-.14.06h-3.79c-.08,0-.14-.02-.19-.07-.04-.05-.06-.13-.06-.23,0-.03,0-.08.01-.14,0-.06.02-.12.03-.18.01-.06.03-.12.04-.18.01-.06.03-.1.04-.14.01-.05.03-.09.04-.14.02-.04.04-.09.06-.13.03-.05.06-.1.1-.16s.09-.12.16-.19l2.74-3.32h-1.96c-.06,0-.11-.02-.14-.06s-.05-.12-.05-.23c0-.04,0-.1,0-.16,0-.07.02-.14.03-.21.02-.07.03-.15.06-.23.02-.08.05-.15.09-.21.03-.06.07-.11.12-.15.04-.04.09-.06.14-.06h3.55c.09,0,.15.02.18.06.03.04.05.1.05.17Z"/>
    <path class="cls-3" d="m299.21,346.14s-.03.08-.05.11c-.03.03-.07.06-.13.08-.06.02-.13.03-.22.04-.09.01-.2.02-.33.02s-.24,0-.33-.02c-.08-.01-.15-.03-.2-.04-.05-.02-.08-.04-.09-.08-.02-.03-.02-.07,0-.11l.17-.93c-.09.15-.2.3-.35.45-.15.15-.32.29-.52.42-.2.13-.41.23-.63.31-.23.08-.46.12-.7.12-.3,0-.55-.04-.76-.13-.21-.08-.38-.2-.5-.34-.13-.14-.22-.32-.28-.52-.06-.2-.09-.42-.09-.66,0-.15,0-.29.03-.45s.04-.31.07-.47l.71-3.56s.03-.08.06-.11.08-.06.15-.08.15-.03.26-.04.24-.02.39-.02.29,0,.39.02c.1.01.18.03.24.04.06.02.09.04.11.08s.02.07.02.11l-.68,3.45c-.02.09-.04.19-.05.3-.01.1-.02.2-.02.3,0,.1,0,.2.03.28s.05.16.09.22c.04.06.1.11.17.14.07.03.15.04.24.04.18,0,.36-.06.55-.17.19-.11.37-.27.54-.47.17-.2.33-.44.46-.71.13-.27.24-.57.31-.89l.49-2.49s.02-.08.06-.11.08-.06.15-.08.15-.03.26-.04.24-.02.39-.02.29,0,.39.02c.1.01.18.03.24.04.06.02.1.04.11.08.02.03.02.07.01.11l-1.15,5.76Z"/>
    <path class="cls-3" d="m302.45,346.14s-.03.08-.06.11-.08.06-.14.08-.15.04-.26.05-.24.02-.39.02c-.16,0-.29,0-.4-.02-.1-.01-.18-.03-.24-.05s-.09-.05-.11-.08c-.02-.03-.02-.07-.02-.11l1.69-8.47s.03-.08.06-.12c.03-.04.08-.06.15-.09.07-.02.16-.04.26-.05.1-.01.24-.02.4-.02s.29,0,.39.02c.1.01.18.03.23.05.06.02.09.05.11.09.02.03.02.07.01.12l-1.69,8.47Z"/>
    <path class="cls-3" d="m305.69,346.14s-.03.08-.06.11-.08.06-.15.08c-.07.02-.15.04-.26.05s-.24.02-.39.02-.29,0-.39-.02c-.1-.01-.18-.03-.24-.05-.06-.02-.1-.05-.11-.08s-.02-.07-.01-.11l1.14-5.74s.03-.08.06-.11.08-.06.15-.08.15-.04.26-.05.24-.02.4-.02.29,0,.39.02.18.03.24.05c.06.02.1.05.11.08.02.03.02.07.01.11l-1.14,5.74Zm1.66-7.68c-.03.16-.07.29-.12.4s-.12.2-.21.26-.19.11-.32.14c-.12.03-.28.04-.46.04s-.33-.01-.44-.04c-.11-.03-.2-.08-.26-.14-.06-.07-.09-.16-.1-.26s0-.24.04-.4c.03-.16.07-.29.12-.39s.12-.2.21-.26.19-.12.32-.15c.12-.03.28-.04.46-.04s.33.01.44.04c.11.03.2.08.26.15.06.07.09.16.1.26,0,.11,0,.24-.04.39Z"/>
  </g>
  <g>
    <path class="cls-3" d="m271.32,163.42c0,.25-.04.49-.11.72-.07.23-.17.43-.31.62-.13.19-.3.35-.49.5-.19.14-.41.26-.64.34.19.03.36.09.52.18s.29.2.41.33c.11.13.2.29.26.47.06.18.09.39.09.62,0,.21-.03.42-.08.64s-.14.44-.26.65-.28.41-.47.6c-.19.19-.43.36-.7.5-.27.14-.59.26-.94.34-.36.08-.77.13-1.24.13h-2.31c-.18,0-.3-.04-.38-.13s-.1-.22-.06-.41l1.46-7.27c.04-.19.11-.33.23-.41.12-.08.25-.13.41-.13h2c.44,0,.82.03,1.15.1.32.07.59.17.81.31.22.14.38.32.5.53.11.21.17.46.17.76Zm-2.03,3.86c0-.27-.1-.49-.31-.65-.2-.16-.53-.24-.98-.24h-1.13l-.47,2.37h1.2c.3,0,.56-.04.77-.13s.38-.2.52-.34c.13-.14.24-.29.3-.47s.1-.36.1-.54Zm.28-3.54c0-.12-.02-.23-.06-.32s-.11-.17-.19-.23-.19-.11-.33-.15c-.13-.03-.3-.05-.5-.05h-.92l-.44,2.17h.95c.28,0,.51-.04.7-.13.18-.09.34-.2.46-.34.12-.14.2-.29.26-.46.05-.17.08-.33.08-.48Z"/>
    <path class="cls-3" d="m271.82,168.57c0-.31.07-.59.21-.83.14-.25.36-.46.65-.64s.67-.31,1.12-.41c.45-.09.99-.14,1.62-.14h.59c.02-.1.03-.2.04-.29s.01-.19.01-.27c0-.35-.09-.61-.27-.79-.18-.18-.47-.26-.87-.26-.28,0-.54.02-.76.06-.23.04-.42.09-.59.14-.17.05-.31.09-.42.14-.11.04-.19.06-.24.06s-.09-.01-.11-.04c-.02-.03-.03-.08-.03-.14,0-.07,0-.16.02-.25.01-.09.03-.19.05-.28s.05-.18.09-.26c.04-.08.08-.14.12-.19.05-.05.15-.1.28-.15.14-.05.3-.1.5-.14s.41-.08.65-.11.49-.04.73-.04c.41,0,.77.04,1.08.13.31.09.56.22.77.39.21.18.36.4.46.67.1.27.15.6.15.97,0,.29-.03.6-.08.92s-.14.65-.26.97c-.12.32-.28.63-.46.92-.19.29-.42.55-.69.77s-.58.4-.93.53c-.35.13-.75.2-1.2.2-.39,0-.73-.05-1.01-.14s-.51-.21-.69-.37c-.18-.15-.32-.33-.4-.52s-.13-.4-.13-.6Zm1.59-.12c0,.17.07.31.2.43.13.11.33.17.59.17.21,0,.41-.04.58-.12s.32-.18.45-.31c.13-.13.24-.29.33-.46.09-.18.17-.37.22-.57h-.54c-.34,0-.63.02-.86.07-.23.05-.42.11-.56.18-.14.08-.25.17-.31.27-.06.11-.1.22-.1.34Z"/>
    <path class="cls-3" d="m283.09,164s0,.08-.01.16c0,.08-.02.17-.04.27-.02.1-.04.21-.06.32-.03.11-.05.21-.09.31s-.07.17-.11.23c-.04.06-.08.09-.13.09-.04,0-.08,0-.12-.02-.04-.02-.08-.03-.13-.05-.05-.02-.1-.03-.15-.04s-.12-.02-.19-.02c-.15,0-.3.06-.47.17-.17.11-.32.26-.47.44s-.29.4-.4.64-.2.5-.25.76l-.52,2.58s-.03.08-.06.11-.08.06-.15.08c-.07.02-.15.04-.26.05s-.24.02-.39.02-.29,0-.39-.02c-.1-.01-.18-.03-.24-.05-.06-.02-.1-.05-.11-.08s-.02-.07-.01-.11l1.15-5.75s.03-.08.06-.11c.03-.03.07-.06.13-.08s.13-.03.23-.04c.09-.01.2-.02.33-.02s.24,0,.33.02.15.03.2.04c.05.02.08.04.09.08.01.03.02.07,0,.11l-.18.92c.1-.18.22-.35.36-.51.14-.15.28-.29.43-.4s.31-.2.47-.27.32-.1.48-.1c.06,0,.13,0,.2.01.07,0,.13.02.19.03.06.01.11.03.15.05.04.02.08.04.11.06.03.03.04.07.04.12Z"/>
    <path class="cls-3" d="m288.31,169.84c-.02.09-.08.15-.2.19-.12.04-.31.06-.57.06-.13,0-.24,0-.33-.01-.08,0-.15-.02-.2-.04s-.08-.04-.1-.08c-.02-.03-.02-.07,0-.12l.17-.92c-.06.14-.17.28-.31.43-.14.15-.31.29-.5.42-.19.13-.41.23-.64.31-.23.08-.48.12-.72.12s-.46-.03-.64-.09c-.18-.06-.34-.15-.47-.25-.13-.11-.24-.23-.33-.38-.09-.15-.15-.3-.21-.46-.05-.16-.09-.33-.11-.51-.02-.17-.03-.34-.03-.51,0-.28.03-.58.08-.9.05-.32.13-.64.24-.95.11-.32.25-.62.42-.91.17-.29.37-.55.6-.77.23-.22.5-.4.81-.54.3-.13.64-.2,1.02-.2.17,0,.33.02.48.05.15.04.29.09.42.15.13.06.24.14.34.22.1.09.19.18.26.27l.61-3.03s.03-.08.06-.12c.03-.03.08-.06.14-.09.07-.02.15-.04.26-.05.11-.01.24-.02.4-.02s.29,0,.39.02c.1.01.18.03.24.05.06.02.09.05.11.09.02.03.02.07.01.12l-1.69,8.46Zm-.81-4.03c-.15-.24-.32-.41-.5-.53-.18-.12-.39-.18-.63-.18-.18,0-.34.04-.49.13-.15.08-.28.2-.4.33s-.22.3-.31.49c-.09.19-.16.38-.22.59-.06.21-.1.41-.13.62s-.04.4-.04.59c0,.33.05.57.16.74.11.17.28.25.51.25.19,0,.38-.06.58-.17s.38-.27.55-.46c.17-.19.32-.42.46-.68.13-.26.23-.54.29-.83l.18-.88Z"/>
    <path class="cls-3" d="m289.91,168.57c0-.31.07-.59.21-.83.14-.25.36-.46.65-.64s.67-.31,1.12-.41c.45-.09.99-.14,1.62-.14h.59c.02-.1.03-.2.04-.29s.01-.19.01-.27c0-.35-.09-.61-.27-.79-.18-.18-.47-.26-.87-.26-.28,0-.54.02-.76.06-.23.04-.42.09-.59.14-.17.05-.31.09-.42.14-.11.04-.19.06-.24.06s-.09-.01-.11-.04c-.02-.03-.03-.08-.03-.14,0-.07,0-.16.02-.25.01-.09.03-.19.05-.28s.05-.18.09-.26c.04-.08.08-.14.12-.19.05-.05.15-.1.28-.15.14-.05.3-.1.5-.14s.41-.08.65-.11.49-.04.73-.04c.41,0,.77.04,1.08.13.31.09.56.22.77.39.21.18.36.4.46.67.1.27.15.6.15.97,0,.29-.03.6-.08.92s-.14.65-.26.97c-.12.32-.28.63-.46.92-.19.29-.42.55-.69.77s-.58.4-.93.53c-.35.13-.75.2-1.2.2-.39,0-.73-.05-1.01-.14s-.51-.21-.69-.37c-.18-.15-.32-.33-.4-.52s-.13-.4-.13-.6Zm1.59-.12c0,.17.07.31.2.43.13.11.33.17.59.17.21,0,.41-.04.58-.12s.32-.18.45-.31c.13-.13.24-.29.33-.46.09-.18.17-.37.22-.57h-.54c-.34,0-.63.02-.86.07-.23.05-.42.11-.56.18-.14.08-.25.17-.31.27-.06.11-.1.22-.1.34Z"/>
  </g>
  <g>
    <path class="cls-3" d="m296.47,237.84c.02.15.03.28.03.37s-.03.16-.09.2c-.06.04-.15.07-.29.08s-.32.02-.55.02c-.16,0-.3,0-.4,0-.1,0-.18-.02-.24-.04s-.09-.04-.12-.08c-.02-.03-.03-.08-.04-.14l-.23-1.68h-3.13l-.86,1.64c-.03.06-.06.11-.1.15-.04.04-.09.07-.17.09s-.17.04-.29.05c-.12,0-.28.01-.46.01-.2,0-.35,0-.46-.02-.11-.01-.18-.04-.22-.09-.04-.05-.04-.12-.01-.21.03-.09.08-.21.16-.36l4.05-7.4c.04-.07.09-.13.13-.18.04-.04.1-.08.18-.1.08-.02.19-.04.32-.04.14,0,.31,0,.53,0,.25,0,.45,0,.6,0,.15,0,.26.02.34.04.08.02.13.06.16.11.03.05.04.11.05.19l1.09,7.39Zm-2.53-6.11h0l-1.86,3.54h2.35l-.48-3.54Z"/>
    <path class="cls-3" d="m302.75,238.49c-.08.39-.2.73-.36,1.02s-.38.53-.64.73-.59.34-.97.44-.82.15-1.33.15c-.37,0-.69-.03-.98-.09-.29-.06-.53-.13-.72-.22-.07-.03-.12-.07-.14-.12-.03-.04-.04-.1-.04-.18,0-.03,0-.07,0-.13,0-.06.01-.13.03-.2.01-.07.03-.15.05-.23.02-.08.05-.15.08-.21.03-.06.07-.11.11-.15.04-.04.08-.06.14-.06s.11.02.19.05.17.08.3.12.28.08.46.12c.18.04.41.05.68.05.22,0,.42-.02.59-.05s.33-.09.45-.17.23-.18.31-.3c.08-.12.14-.27.17-.44.06-.28.11-.51.17-.7s.11-.34.15-.46c-.08.14-.19.28-.33.42-.14.14-.31.27-.49.38-.19.11-.38.2-.6.27s-.43.1-.64.1c-.33,0-.61-.06-.83-.17-.23-.11-.41-.27-.55-.46-.14-.2-.24-.43-.31-.7-.06-.27-.09-.55-.09-.86,0-.28.03-.58.08-.9.05-.32.13-.64.24-.96s.25-.62.42-.92c.17-.29.37-.55.6-.78s.5-.4.81-.54c.3-.13.64-.2,1.02-.2.36,0,.67.07.95.22.27.15.51.36.72.65l.1-.51c.02-.09.08-.15.2-.19.12-.04.31-.06.57-.06.13,0,.24,0,.32.02s.15.03.2.04c.05.02.08.04.1.08.02.03.02.07.01.11l-1.21,5.99Zm-.75-4.27c-.15-.24-.32-.41-.5-.53-.18-.12-.39-.18-.63-.18-.18,0-.34.04-.49.13s-.28.2-.4.34-.22.31-.31.5-.16.39-.22.59c-.06.21-.1.41-.13.62-.03.21-.04.4-.04.59,0,.15.01.28.04.4.03.12.07.22.12.31.05.08.12.15.21.19.08.05.19.07.31.07.19,0,.38-.06.58-.17s.38-.27.55-.46.32-.42.46-.69c.13-.26.23-.54.29-.84l.18-.87Zm1.71-4.59s0,.12-.03.23c-.02.11-.06.23-.11.37-.05.14-.13.28-.23.43-.1.15-.23.28-.39.41s-.35.22-.59.3c-.23.08-.51.12-.82.12s-.6-.03-.81-.1-.38-.16-.51-.28c-.12-.12-.21-.26-.26-.42-.05-.16-.07-.32-.07-.49,0-.05,0-.1,0-.17,0-.06.01-.13.02-.19,0-.06.02-.12.04-.17.02-.05.03-.08.06-.11.04-.03.1-.06.18-.08.08-.02.19-.03.33-.03.1,0,.19,0,.25.01.07,0,.12.02.16.04s.06.04.08.06c.01.02.02.05.02.08,0,.04,0,.08,0,.13,0,.05,0,.1,0,.15,0,.08.01.15.03.22s.06.12.1.17c.05.05.11.08.19.11.08.03.18.04.3.04s.23-.02.33-.04c.1-.03.2-.08.28-.14.08-.06.16-.14.22-.23.06-.09.11-.21.14-.34.02-.04.04-.08.06-.11s.06-.06.1-.08.1-.03.17-.04.16-.02.26-.02.2,0,.27.01c.07,0,.12.02.16.03.04.01.06.03.07.05.01.02.02.05.02.07Z"/>
    <path class="cls-3" d="m309.71,232.89c0,.1-.01.21-.04.33-.02.12-.05.24-.09.35-.04.11-.09.21-.14.28-.06.08-.12.11-.19.11-.06,0-.13-.03-.19-.08-.06-.05-.13-.11-.22-.17s-.2-.12-.33-.18c-.13-.05-.3-.08-.52-.08-.22,0-.42.05-.6.15-.18.1-.33.23-.46.38s-.24.33-.33.53c-.09.2-.16.4-.21.61s-.1.4-.12.59c-.02.19-.04.35-.04.49,0,.35.08.61.23.79.15.18.39.27.72.27.24,0,.45-.03.62-.09.17-.06.32-.13.44-.21s.23-.14.32-.2.17-.09.24-.09c.04,0,.07.02.09.06.02.04.03.09.03.17s0,.16-.03.27c-.02.11-.04.22-.07.33-.03.11-.06.22-.1.31-.04.1-.08.17-.14.23-.06.06-.15.12-.27.19-.12.07-.27.13-.43.19-.16.06-.34.1-.53.14-.19.03-.39.05-.6.05-.73,0-1.28-.19-1.65-.56s-.55-.92-.55-1.65c0-.26.03-.55.07-.86.05-.31.13-.63.24-.94.11-.32.26-.62.43-.92.18-.3.4-.56.65-.79.26-.23.56-.41.9-.55.34-.14.73-.21,1.17-.21.17,0,.34.01.5.04.16.03.31.06.45.11.14.05.26.1.36.16s.18.11.24.16.08.09.1.13.02.09.02.14Z"/>
    <path class="cls-3" d="m315.1,238.26c-.02.09-.08.15-.2.19-.12.04-.31.06-.57.06-.13,0-.24,0-.33-.01-.08,0-.15-.02-.2-.04s-.08-.04-.1-.08-.02-.07,0-.12l.18-.92c-.06.14-.17.28-.31.43-.14.15-.31.29-.5.42-.19.12-.41.23-.64.31s-.48.12-.72.12c-.34,0-.63-.06-.86-.18s-.41-.28-.55-.49c-.14-.2-.23-.44-.29-.7-.06-.26-.09-.54-.09-.82,0-.27.03-.57.08-.89.05-.32.13-.64.24-.96s.25-.62.41-.92c.17-.29.37-.56.6-.78.23-.23.5-.41.8-.54s.65-.2,1.03-.2c.36,0,.67.07.95.22.27.15.51.36.72.65l.1-.51c.02-.09.08-.15.2-.19.12-.04.31-.06.57-.06.13,0,.24,0,.32.02s.15.03.2.04c.05.02.08.04.1.08.02.03.02.07.01.11l-1.15,5.76Zm-.8-4.03c-.15-.24-.32-.41-.5-.53-.18-.12-.39-.18-.63-.18-.18,0-.35.04-.5.13s-.28.2-.4.34c-.12.14-.22.31-.31.5s-.16.39-.22.59c-.06.2-.1.41-.13.62-.03.21-.04.4-.04.58,0,.13,0,.25.03.37.02.12.05.22.11.31.05.09.12.16.21.22s.2.08.33.08c.19,0,.38-.06.58-.17s.38-.27.55-.46.32-.42.46-.68c.13-.26.23-.54.29-.83l.18-.87Z"/>
    <path class="cls-3" d="m323.07,234.33c0,.28-.03.59-.08.91-.05.32-.13.64-.24.96s-.25.62-.41.92c-.17.29-.37.55-.61.77-.24.22-.51.4-.81.53-.3.13-.64.2-1.02.2s-.68-.07-.96-.21c-.28-.14-.52-.36-.72-.64l-.1.49c-.02.09-.08.16-.2.2-.12.04-.31.06-.57.06s-.43-.02-.53-.06c-.09-.04-.13-.11-.11-.19l1.69-8.47s.03-.08.06-.12c.03-.03.08-.06.15-.09.07-.02.16-.04.26-.05.1-.01.24-.02.4-.02s.29,0,.39.02c.1.01.18.03.24.05s.1.05.11.09c.02.03.02.07.01.12l-.46,2.31c-.02.1-.04.2-.07.31-.03.11-.05.22-.09.33s-.06.21-.1.31c-.03.1-.06.19-.09.27.08-.14.19-.28.33-.42.14-.14.31-.27.49-.38.19-.11.38-.2.6-.27.21-.07.43-.1.64-.1.25,0,.46.03.64.09.18.06.34.15.47.25s.24.23.33.38c.09.15.15.3.21.46s.09.33.11.5c.02.17.03.34.03.5Zm-1.67.16c0-.11,0-.22-.02-.33-.01-.12-.05-.22-.1-.32-.05-.09-.12-.17-.2-.23s-.2-.09-.34-.09c-.19,0-.39.06-.58.17s-.38.27-.55.47c-.17.2-.33.43-.46.69-.13.26-.23.54-.28.84l-.18.87c.15.24.32.41.5.52s.39.17.63.17c.17,0,.33-.04.48-.13.15-.08.28-.19.4-.33.12-.14.22-.3.31-.48s.16-.38.22-.58c.06-.2.1-.41.13-.62.03-.21.04-.41.04-.61Z"/>
    <path class="cls-3" d="m323.67,236.99c0-.31.07-.59.21-.83.14-.25.36-.46.65-.64s.67-.31,1.12-.41c.45-.09.99-.14,1.62-.14h.59c.02-.1.03-.2.04-.29s.01-.19.01-.27c0-.35-.09-.61-.27-.79-.18-.18-.47-.26-.87-.26-.28,0-.54.02-.76.06-.23.04-.42.09-.59.14-.17.05-.31.09-.42.14-.11.04-.19.06-.24.06s-.09-.01-.11-.04c-.02-.03-.03-.08-.03-.14,0-.07,0-.16.02-.25.01-.09.03-.19.05-.28s.05-.18.09-.26c.04-.08.08-.14.12-.19.05-.05.15-.1.28-.15.14-.05.3-.1.5-.14s.41-.08.65-.11.49-.04.73-.04c.41,0,.77.04,1.08.13.31.09.56.22.77.39.21.18.36.4.46.67.1.27.15.6.15.97,0,.29-.03.6-.08.92s-.14.65-.26.97c-.12.32-.28.63-.46.92-.19.29-.42.55-.69.77s-.58.4-.93.53c-.35.13-.75.2-1.2.2-.39,0-.73-.05-1.01-.14s-.51-.21-.69-.37c-.18-.15-.32-.33-.4-.52s-.13-.4-.13-.6Zm1.59-.12c0,.17.07.31.2.43.13.11.33.17.59.17.21,0,.41-.04.58-.12s.32-.18.45-.31c.13-.13.24-.29.33-.46.09-.18.17-.37.22-.57h-.54c-.34,0-.63.02-.86.07-.23.05-.42.11-.56.18-.14.08-.25.17-.31.27-.06.11-.1.22-.1.34Z"/>
    <path class="cls-3" d="m335.52,238.26c-.02.09-.08.15-.2.19-.12.04-.31.06-.57.06-.13,0-.24,0-.33-.01-.08,0-.15-.02-.2-.04s-.08-.04-.1-.08c-.02-.03-.02-.07,0-.12l.17-.92c-.06.14-.17.28-.31.43-.14.15-.31.29-.5.42-.19.13-.41.23-.64.31-.23.08-.48.12-.72.12s-.46-.03-.64-.09c-.18-.06-.34-.15-.47-.25-.13-.11-.24-.23-.33-.38-.09-.15-.15-.3-.21-.46-.05-.16-.09-.33-.11-.51-.02-.17-.03-.34-.03-.51,0-.28.03-.58.08-.9.05-.32.13-.64.24-.95.11-.32.25-.62.42-.91.17-.29.37-.55.6-.77.23-.22.5-.4.81-.54.3-.13.64-.2,1.02-.2.17,0,.33.02.48.05.15.04.29.09.42.15.13.06.24.14.34.22.1.09.19.18.26.27l.61-3.03s.03-.08.06-.12c.03-.03.08-.06.14-.09.07-.02.15-.04.26-.05.11-.01.24-.02.4-.02s.29,0,.39.02c.1.01.18.03.24.05.06.02.09.05.11.09.02.03.02.07.01.12l-1.69,8.46Zm-.81-4.03c-.15-.24-.32-.41-.5-.53-.18-.12-.39-.18-.63-.18-.18,0-.34.04-.49.13-.15.08-.28.2-.4.33s-.22.3-.31.49c-.09.19-.16.38-.22.59-.06.21-.1.41-.13.62s-.04.4-.04.59c0,.33.05.57.16.74.11.17.28.25.51.25.19,0,.38-.06.58-.17s.38-.27.55-.46c.17-.19.32-.42.46-.68.13-.26.23-.54.29-.83l.18-.88Z"/>
    <path class="cls-3" d="m338.76,238.26s-.03.08-.06.11-.08.06-.15.08c-.07.02-.15.04-.26.05s-.24.02-.39.02-.29,0-.39-.02c-.1-.01-.18-.03-.24-.05-.06-.02-.1-.05-.11-.08s-.02-.07-.01-.11l1.14-5.73s.03-.08.06-.11.08-.06.15-.08c.07-.02.15-.04.26-.05.11-.01.24-.02.4-.02s.29,0,.39.02c.1.01.18.03.24.05.06.02.1.05.11.08.02.03.02.07.01.11l-1.14,5.73Zm1.66-7.68c-.03.16-.07.29-.12.4-.05.11-.12.2-.21.26-.09.07-.19.11-.32.14-.12.03-.28.04-.46.04s-.33-.01-.44-.04c-.11-.03-.2-.08-.26-.14-.06-.07-.09-.15-.1-.26,0-.11,0-.24.04-.4.03-.15.07-.29.12-.39s.12-.2.21-.26.19-.12.32-.15c.12-.03.28-.04.46-.04s.33.02.44.04c.11.03.2.08.26.15.06.07.09.16.1.26,0,.11,0,.24-.04.39Z"/>
  </g>
  <path id="AZXA" class="cls-1" d="m175.53,286.43l.76-2.61c1.6-.18,3.2-.36,4.8-.54.18-.38.72-1.42,1.94-2.12,1.03-.59,2.01-.62,2.44-.61.95.13,1.9.26,2.85.4,1.11-.45,2.17-.59,2.48-.18.35.47-.24,1.75-1.66,3.03l-1.94,2.14-1.82.5-.58-.8-2.25.66c-.8,1.2-1.6,2.4-2.4,3.6-.61-.84-1.23-1.67-1.84-2.51-.92-.32-1.85-.64-2.77-.96Z"/>
</svg>