<?xml version="1.0" encoding="UTF-8"?>
<svg xmlns="http://www.w3.org/2000/svg" version="1.1" viewBox="0 0 841.89 595.28">
  <defs>
    <style>
      .cls-1 {
        fill: #977f2f;
      }
    </style>
  </defs>
  <!-- Generator: Adobe Illustrator 28.6.0, SVG Export Plug-In . SVG Version: 1.2.0 Build 709)  -->
  <g>
    <g id="Layer_1">
      <path id="Path_2093" class="cls-1" d="M416.35,55.33c-7.4,7.59-8.14,8.88-7.03,14.99.74,5.18.37,7.03-2.04,7.96-1.98.56-4.11.15-5.74-1.11-1.85-1.24-4.16-1.58-6.29-.93-2.41.74-5.74-.37-9.26-2.78-7.77-5.92-12.21-3.7-15.92,7.59-4.44,13.33-9.07,17.03-15.73,12.77-1.85-1.11-2.78-5-2.78-12.21,0-5.92-.93-10.92-2.04-11.29-1.11-.37-5.18,1.48-9.07,4.26l-7.22,4.81-3.33-4.07c-4.07-5-7.77-2.78-9.63,5.55-.74,3.88-2.03,5.55-4.81,5.55-2.04,0-3.7,1.29-3.7,2.78s.93,2.78,1.85,2.78c1.11,0,1.85,1.67,1.85,3.7,0,2.41-1.67,4.07-5,4.81-2.7.58-5.27,1.65-7.59,3.15-1.29.92-5,1.29-8.33.92-8.88-1.48-22.39,2.78-29.98,9.26-3.7,3.33-8.7,5.92-11.29,5.92-6.66,0-12.59,3.7-30.91,18.69-.93.74-1.85,8.88-2.41,18.14-.55,13.7,0,18.69,2.96,26.28,4.81,12.22,4.63,16.84-1.11,23.69-5.55,6.66-4.63,9.44,3.52,9.44s17.77-6.29,20.92-14.06c4.63-11.1,11.29-10.18,16.47,2.22,1.67,4.07,6.11,8.51,12.77,12.77,10.92,7.04,14.99,12.4,13.14,17.21-.74,1.85.74,4.26,4.07,7.03,4.44,3.52,4.81,4.44,2.59,7.04-1.28,1.62-3.14,2.68-5.18,2.96-6.66,0-26.1,11.11-33.32,19.25-12.4,13.51-23.13,15.36-26.1,4.26-2.22-8.14-5.18-8.14-9.44.37-4.63,8.88-9.07,11.66-16.66,10.18q-5.74-1.11-5.74,6.29c0,6.48,1.29,8.7,10.18,17.95,5.55,5.74,10.18,11.47,10.18,12.77,0,1.48,2.96,5.37,6.48,8.7,6.29,6.29,6.29,6.48,7.4,26.65.74,11.1,2.04,22.21,3.15,24.43,1.67,3.15,1.11,5-2.04,9.07-2.25,3.22-3.59,7-3.87,10.92,0,7.04,6.11,15.73,11.11,15.73,5.74,0,9.26,2.04,9.26,5.37,0,4.44,3.52,7.4,7.59,6.29,1.23-.27,2.41-.71,3.52-1.29,0,0,1.66-4.81,3.52-10.36,4.26-12.96,10.18-17.21,17.58-12.4,2.59,1.85,5.37,5.55,5.92,8.33.76,2.88,2.09,5.58,3.89,7.96,1.29,1.66,2.03,4.44,1.29,6.11-.93,2.59-2.78,2.96-7.96,2.22-4.26-.74-7.78-.18-10,1.48-3.15,2.41-3.15,2.78.37,8.7,2.78,4.44,3.52,7.96,2.78,12.21l-1.11,5.74,11.29-.92c13.51-1.3,16.29,1.85,9.63,10.73-3.33,4.26-3.7,6.11-2.04,9.25,1.67,2.78,1.48,4.44-.37,6.66-2.04,2.41-1.11,3.89,5.92,10,4.63,4.07,8.88,7.22,9.63,7.22s2.78-2.04,4.44-4.63c2.96-4.44,2.78-5-2.03-12.03-3.89-5.55-4.81-8.51-3.7-12.4,2.22-9.25,9.44-10.55,18.14-3.14,5.18,4.26,6.66,4.63,15.55,3.52,11.66-1.48,15.36.55,15.36,8.51,0,6.29-5.55,10-12.4,8.14q-4.63-1.11.93,3.52c2.96,2.78,7.22,4.81,9.26,4.81,5.55,0,8.51,4.44,4.81,7.4-2.59,2.22-2.59,2.59,0,4.07,4.26,2.41,9.63-1.3,11.85-7.78,2.04-5.74,5.55-7.03,9.25-3.33,3.33,3.33,2.59.18-1.85-7.59-5.74-10.18-3.89-13.14,8.33-13.14,7.22,0,11.29,1.11,14.81,3.7,2.59,2.04,5.74,3.7,7.22,3.7,3.2.4,6.36,1.08,9.44,2.04,6.85,1.85,9.44,7.22,5,9.99-4.26,2.59-1.48,4.63,5.18,3.52,5.92-.93,7.4-.37,11.85,4.44,2.82,3.21,6.47,5.58,10.55,6.84,3.84,1.13,7.22,3.47,9.63,6.66,3.15,4.44,4.44,5,6.48,3.33,1.58-1.43,2.51-3.43,2.59-5.55,0-1.85,3.33-7.03,7.22-11.66,3.89-4.62,8.7-12.04,10.36-16.66,3.52-9.26,6.84-11.11,16.29-9.44,6.29,1.3,19.8-2.78,25.54-7.77,1.67-1.48,10.55-6.48,19.43-11.29l16.47-8.7.37-12.04c.19-6.66.55-14.99.93-18.51.55-5.74-.19-6.84-6.48-10.18-3.7-2.04-7.4-5.18-7.96-6.84-1.45-5.32-6.33-8.98-11.85-8.88-8.88,0-14.62-3.89-20.54-13.51-8.14-13.33-9.25-17.03-6.29-20.92,3.88-5.18,3.33-6.29-3.52-6.29-3.33,0-7.22-1.29-8.51-2.78-1.85-2.22-1.29-3.52,2.59-7.04,4.44-4.26,4.81-5.37,3.7-14.62l-1.11-10.18,14.44-7.96,14.61-7.96,8.51,2.96c12.21,4.44,13.7,4.07,20.73-4.81,11.29-13.88,14.81-22.77,16.1-41.09.93-13.32,2.22-19.25,7.22-29.98,3.33-7.22,8.14-15.18,10.55-17.4,5.55-5.18,5.55-6.66,0-11.11-2.74-2.41-4.73-5.56-5.74-9.07-1.67-7.59-8.51-7.59-13.88.19-2.96,3.89-5,5.18-7.22,4.44-7.77-3.33-9.44-3.15-9.44.55,0,4.81-4.26,6.29-8.7,3.15-4.44-3.52-8.88-3.52-11.85.18-1.53,1.72-3.89,2.43-6.11,1.85-2.5-.39-5.05.28-7.03,1.85-4.63,4.26-6.29,2.22-8.88-10.73-1.11-6.48-3.15-12.96-4.44-14.44-2.02-2.78-3.65-5.83-4.81-9.07-2.41-5.92-2.22-6.48,2.41-10.18,2.78-2.22,5-5,5-6.29,0-3.52-2.41-2.59-6.66,2.78l-4.26,5.18-5.55-6.48c-3.15-3.52-5.55-7.77-5.74-9.25,0-1.48-1.66-3.89-3.7-5.18-2.18-1.54-3.54-3.99-3.7-6.66,0-2.78-2.22-6.11-6.48-9.26-3.7-2.96-7.03-7.4-7.96-10.92-1.11-4.26-2.78-6.11-6.11-6.48-8.7-1.29-16.1-10.92-12.77-17.03,1.66-3.15.92-4.81-4.63-10.18-3.52-3.7-6.48-7.4-6.48-8.33s-3.33-4.07-7.4-6.66c-4.81-3.15-7.96-7.03-8.88-10.55-.74-3.14-2.41-5.92-3.7-6.48-1.3-.37-6.11,2.96-10.55,7.4Z"/>
    </g>
  </g>
</svg>