<?xml version="1.0" encoding="UTF-8"?>
<svg id="Layer_1" data-name="Layer 1" xmlns="http://www.w3.org/2000/svg" viewBox="0 0 500 500">
  <defs>
    <style>
      .cls-1 {
        fill: #0b7b5f;
        stroke: #fff;
        stroke-miterlimit: 10;
      }

      .cls-2 {
        fill: #f9e5af;
      }
    </style>
  </defs>
  <g>
    <path class="cls-1" d="m340.12,319.61c.45-.45.65-1.09,1.16-1.44.43-.3,1-.38,1.46-.7.53-.38,1.22-1.02,1.94-1.05.73-.03,1.48.55,2.21.75,1.3.36,2.47.5,3.8.17,1.45-.36,2.56-1.22,4.11-1.25.78-.01,1.84-.16,2.59,0,.84.17,1.18.89,2.05.35,1.07-.67,1.97-2.16,2.61-3.25.89-1.5,1.63-3.1,2.51-4.61.7-1.21,1.31-2.46,2.02-3.67.52-.89.88-1.78,1.44-2.64.37-.58.48-1.08.64-1.74.18-.76.58-1.45.73-2.22.37-1.89-.64-4.52.63-6.14.2-.25.5-.43.59-.73.13-.4-.02-1.08-.02-1.51,0-.68.05-1.39,0-2.07-.03-.53-.2-.58-.31-1.01-.24-.9.39-1.89.85-2.6.69-1.05,1.39-2.2,2.25-3.11,1.33-1.4,1.51-3.51,2.58-5.03.26-.37.61-.6.94-.86-.01-.05-.02-.11-.03-.17-.14-1.03.13-2.05-.12-3.05-.23-.89-.53-1.6-1.05-2.42-.47-.74-1-1.38-1.71-1.89-.75-.54-1.36-.95-1.73-1.85-.69-1.67.05-2.99.89-4.39.86-1.43,1.48-3.04,2.17-4.55.76-1.66,1.35-3.59,2.58-5,.7-.81,1.12-1.78,1.57-2.77.64-1.41.87-3.17,1.12-4.68.25-1.51-.05-2.85.46-4.34.36-1.05.79-2.15,1.59-2.98.73-.76,1.69-1.4,2.45-2.13,1.77-1.7,2.8-4.26,3.24-6.66.12-.67.01-1.45.02-2.13,0-.66-.25-1.09-.49-1.71-.77-1.97-2.27-3.63-3.18-5.55-1.22-2.58-2.26-5.27-3.44-7.88-.6-1.33-1.12-2.12-2.25-3.09-.8-.69-1.3-1.22-1.59-2.2-.2-.68-.63-1.22-.82-1.9-.11-.4-.24-.71-.44-1.07-.73-1.36-1.82-2.25-3.15-3.01-.73-.42-1.2-.83-1.57-1.57-.41-.82-.41-1.46-.6-2.3-.37-1.73-2.26-3.3-3.71-4.04-.42-.21-.71-.5-.93-.82-.64.86-.19.39-1.08,1.27-1.07,1.07-1.8,2.39-2.86,3.45-.53.53-1.18.9-1.72,1.41-1.11,1.06-2.1,2.22-3.32,3.16-1.03.8-2.3,1.49-2.9,2.72-.39.82-.35,1.78-.73,2.62-.46,1.04-1.33,2.01-2.1,2.84-.9.98-1.94,1.54-2.93,2.41-.73.64-1.37,1.38-2.11,1.99-1.28,1.06-2.61,1.97-3.46,3.44-1.25,2.14.56,5.96-1.99,7.54-.92.57-2.09-.2-3.13-.18-1.02.01-1.65.24-2.63-.12-.46-.17-.74-.29-1.26-.32-1.64-.08-3.04-.15-4.67-.55-1.8-.44-3.53-.54-5.37-.72-1.57-.15-3.57.06-4.82-1.03-.29-.26-.48-.76-.77-.95-.29-.2-.17-.09-.59-.18-.9-.2-2.15,0-3.08,0-1.52,0-3.03.03-4.54.17-1.11.1-2.1.07-3.19-.1-.77-.12.14-.24-1.48.03-1.54.26-3.65.45-4.84,1.33-.64.48-.89,1.04-1.34,1.72-1,1.54-.49,3.18-1.04,4.81-.66,2.01-1.32,3.94-2.48,5.71-.72,1.09-1.51,2.18-2.15,3.32-1.69,3.07-3.69,5.69-6.96,7.2-1.54.71-3.07,1.49-4.58,2.28-1.12.59-2.34,1.04-3.44,1.67-1.62.92-2.69,2.62-4.28,3.57-1.01.6-2.25.71-3.22,1.28-2.64,1.55-5.32,2.89-7.92,4.57-.53.34-1.29.64-1.53,1.22,0,0-.07.52-.09.57-.08.41-.1.84-.17,1.26-.11.64-.27,1.05-.27,1.75,0,.96.07,1.75.22,2.68.22,1.36.38,2.7.64,4.06.2,1.02.58,2.02.59,3.06,0,.65-.12,1.24-.29,1.86-.05.19-.11.35-.17.51.61.36.74.71,1.25,1.52.59.94.98,2.03,1.64,2.94.4.55.63,1.31,1.08,1.81.35.4,1.02.69,1.5.92.37.18.63.22,1.01.28.3.05.48.21.74.26.62.14,1.5.05,2.07.37,1.28.71.35,2.39.34,3.39,0,.8-.33,1.5-.29,2.29.02.39.2.64.27,1.01.08.39,0,.78.01,1.17.02.49.24.85.31,1.32.12.72-.1,1.46.05,2.19.16.78.16,1.57.47,2.25.53,1.12,1.27,2.47,2.32,3.2.51.36,1.14.51,1.6.91.58.51,1.05,1.28,1.23,2.02.18.74.21,1.55.34,2.3.13.71.31,1.75.93,2.22.09.07.28.03.37.09.15.1.29.29.43.38.25.16.55.25.86.38.72.3,1.55.7,2.13,1.23.39.36.75.84,1.2,1.15.59.41,1.5.38,2.19.57.96.27,1.78.49,2.69.86.49.2,1.05.26,1.5.56.47.31.84.8,1.28,1.16.35.29.88.5.96,1.02.06.38-.04.36-.17.69-.33.84-.84,1.68-.86,2.61-.02.67.17,1.3.56,1.78.62.75,1.68.96,2.46,1.48.6.4,1.24.91,1.73,1.47.66.75.82,1.64,1.03,2.59.19.85.43,1.74.55,2.58.2,1.49-.12,3.25-.58,4.66-.65,2-1.45,4.58-.45,6.55.17.33.38.48.45.84.07.34-.01.79-.01,1.15,0,.61-.1,1.31,0,1.91.06.37.2.48.3.82.22.72.43,1.57.57,2.32.02.12.04.21.07.31.18-.13.36-.27.51-.43.52-.56.81-1.27,1.36-1.83,1.17-1.2,2.02-2.51,3.03-3.82,1.14-1.47,2.43-3.19,3.94-4.29,1.58-1.15,3.55-1.93,4.91-3.38.97-1.04,2-2.55,2.47-3.89.41-1.2.68-2.33,1.23-3.49.48-1.02,1.11-1.83,1.66-2.79.32-.57.48-1.29.91-1.81.25-.3.61-.48.88-.76.41-.44.8-1.05,1.16-1.54.23-.31.44-.82.73-1.07.66-.57,3.05-.78,3.83-.44.14.06.21.35.35.44.45.28.99.43,1.45.71,1.8,1.07,3.62,1.39,5.62,1.95,1.22.34,2.33.61,3.5.75,0-.3,0-.6,0-.89v-.15.15c0,.3,0,.6,0,.89.57.07,1.15.11,1.76.11,1.08,0,1.66.04,2.51-.79Z"/>
    <path class="cls-1" d="m206.96,286.64c.4.64.86,1.22,1.22,1.9.36.68.63,1.11.82,1.83.04.16.21.17.24.34.03.18-.03.39.02.56.11.39.17.75.29,1.15.16.58.43,1.13.59,1.71.21.76.28,1.45.28,2.3,0,.81,0,1.63,0,2.44,0,.38-.03.77,0,1.15.03.52.27.92.3,1.44.02.36-.11.82-.02,1.16.09.36.26.44.31.84.05.37-.02.73.06,1.09.05.28.35.71.44.99.25.78.4,1.13,1.15,1.44,1.03.43,2.4.63,3.57.8.66.09,1.68.33,2.34.23.59-.09.99-.24,1.62-.24.67,0,1.35-.07,2.02.06.95.18,1.85.54,2.8.73,1.4.29,2.82.74,4.03,1.5.83.52,1.5,1.3,2.34,1.8,2.83,1.67,3.17,4.49,4.25,7.34.43,1.14,1.15,1.75,1.94,2.64.39.44.59.61.79,1.13.14.37.26.78.46,1.08-1.14,1.12-2.29,2.53-1.36,4.18.44.77,1.05.83,1.87,1.08.67.21,1.38.62,2.05.9.78.33,1.58.63,2.35.97,1.01.44,1.94,1.35,2.61,2.19.64.81,1.18,1.82,2.27,1.96,1.12.15,2.46-.6,3.52-.92.87-.26,1.6-.81,2.5-1.04.78-.2,1.4-.3,1.72-1.13.54-1.43.64-3.46.64-4.96,0-1.05-.29-2.02-.32-3.05-.04-1.29.33-2.57.32-3.87-.04-3.84.57-7.6.57-11.44,0-1.95-.22-3.94.36-5.82.42-1.36.97-2.83,1.08-4.25.06-.74.26-1.46.3-2.2.06-1.02-.2-2.03-.38-3.03-.42-2.31-1.04-4.69-1.08-7.04-.03-1.42.04-2.68.36-4.06.26-1.14.59-2.15,1.15-3.19.55-1.03.96-2.23,1.7-3.14.56-.69.95-1.06,1.22-1.74-.11-.06-.23-.13-.38-.2.15.07.27.13.38.2.06-.15.12-.32.17-.51.17-.62.29-1.21.29-1.86,0-1.04-.39-2.04-.59-3.06-.27-1.36-.42-2.7-.64-4.06-.15-.93-.21-1.72-.22-2.68,0-.7.16-1.11.27-1.75.07-.42.09-.85.17-1.26.01-.06.09-.58.09-.57.24-.58,1-.88,1.53-1.22,2.59-1.68,5.28-3.02,7.92-4.57.97-.57,2.21-.67,3.22-1.28,1.59-.95,2.66-2.65,4.28-3.57,1.1-.63,2.32-1.08,3.44-1.67,1.51-.79,3.04-1.56,4.58-2.28,3.27-1.51,5.27-4.14,6.96-7.2.63-1.15,1.43-2.23,2.15-3.32,1.17-1.77,1.82-3.7,2.48-5.71.54-1.64.04-3.28,1.04-4.81.44-.68.69-1.24,1.34-1.72,1.19-.88,3.3-1.08,4.84-1.33,1.62-.27.71-.15,1.48-.03,1.09.17,2.08.2,3.19.1,1.51-.14,3.02-.17,4.54-.17.94,0,2.19-.2,3.08,0,.41.09.29-.02.59.18.29.2.48.7.77.95,1.24,1.09,3.25.88,4.82,1.03,1.84.17,3.57.27,5.37.72,1.62.4,3.02.47,4.67.55.52.03.8.15,1.26.32.98.36,1.61.13,2.63.12,1.04-.01,2.21.76,3.13.18,2.55-1.58.74-5.4,1.99-7.54.86-1.47,2.19-2.38,3.46-3.44.74-.62,1.38-1.36,2.11-1.99.99-.87,2.03-1.43,2.93-2.41.77-.84,1.64-1.8,2.1-2.84.38-.84.34-1.81.73-2.62.59-1.23,1.87-1.93,2.9-2.72,1.22-.94,2.2-2.1,3.32-3.16.55-.52,1.19-.88,1.72-1.41,1.06-1.06,1.79-2.38,2.86-3.45.89-.89.44-.42,1.08-1.27-.59-.87-.64-2.05-1.08-3.05-.18-.42-.36-1-.85-1.15-.61-.18-1.38.11-2.02-.05-1.54-.39-2.69-1.25-4.02-2.16-1.16-.79-2.49-1.44-3.73-2.02-1.05-.49-2.05-1.15-3.16-1.64-2.17-.96-4.18-2.48-6.31-3.44-1.07-.49-2.17-.7-3.16-1.29-.24-.15-.5-.33-.73-.55-.37.16-.83.12-1.43-.12-1.25-.5-2.55-.79-3.78-1.34-.96-.43-1.65-.93-2.77-.8-1.13.14-2.32.28-3.45.45-1.58.24-3.15.63-4.74.89-1.33.22-2.28.17-3.65,0-3.82-.47-7.55-.34-11.01-2.25-1.05-.58-1.72-1.72-2.87-2.11-.31-.1-.63-.12-.95-.2-.43-.11-.73-.35-1.09-.59-.43-.28-.9-.46-1.28-.81-.45-.41-.83-.81-1.15-1.33-.32-.52-.43-.98-.72-1.49-.55-.99-1.45-1.5-2.25-2.25-.43-.41-.98-.55-1.48-.81-.24-.12-.5-.28-.77-.34-.14-.03-.25-.02-.39-.04-.19-.04-.32-.14-.49-.17-.41-.09-.47-.09-.77-.4-.23-.24-.49-.47-.75-.67-.5-.4-1.04-.45-1.63-.67-.33-.12-.62-.3-.95-.43-.52-.22-.68-.12-1.16,0-.34.09-.62.08-.96.19-.37.12-.77.29-1.15.39-.74.19-1.72.04-2.48.04-1.07,0-2.38.04-3.31-.52-.25-.15-.41-.3-.71-.39-.34-.1-.66-.2-.97-.38-.72-.42-1.36-.98-1.95-1.57-.6-.61-1.22-1.15-1.86-1.73-.24-.22-.48-.45-.71-.67-.06.08-.11.17-.11.28-.03.53-.33,1-.62,1.44-.31.48-.86.96-1.41,1.15-.85.28-1.71.65-2.46,1.14-.31.2-.54.44-.87.62-.31.16-.65.28-.97.44-.37.19-.61.35-1.02.43-.25.05-.48.08-.73.16-2.59.8-5.03,1.91-7.3,3.39-.71.46-1.38.92-2.13,1.32-.88.47-1.66,1.16-2.47,1.73-.95.67-1.98,1.25-2.97,1.84-.88.52-1.41,1.14-2,1.96-.71.98-1.23,2.06-1.6,3.21-.35,1.09-.53,2.46-1.27,3.39-.19.24-.37.62-.6.8-.22.17-.56.36-.81.5-.5.27-1.08.16-1.63.17-.49,0-.91.02-1.38-.14-.78-.27-1.22,0-1.95.3-.72.29-.85.09-1.01-.54-.08-.29-.2-.94-.39-1.18-.37-.45-.97-.2-1.44-.31-.28-.06-.7-.36-.95-.52-.32-.21-.61-.59-.92-.84-.75-.59-.97-1.58-1.43-2.38-.75-1.3-2.37-1.64-3.68-2.12-.52-.19-1.18-.34-1.58-.76-.09-.09-.27-.47-.45-.26-.06.06-.04.51-.05.55-.03.17-.1.3-.12.49-.04.49-.12,1-.15,1.5-.02.38,0,.69-.1,1.07-.1.37-.22.75-.3,1.12-.15.75-.07,1.7-.04,2.47.02.59.15,1.25.37,1.79.21.51.53.79.84,1.21,1.28,1.73.95,4,1.19,6,.1.86.27,1.7.49,2.53.18.72.52,1.34.81,2.02.31.74.59,1.43,1.06,2.09.23.33.47.64.67.98.23.38.35.75.42,1.19.11.7.32,1.42.34,2.13.02.89-.02,1.78,0,2.66,0,.84-.07,1.93-.57,2.63-.67.93-1.32,1.95-1.88,2.96-.54.99-1.02,2.06-1.86,2.84-.76.7-1.39,1.54-2.15,2.24-.77.71-1.46,1.37-2.42,1.83-.66.31-1.32.58-1.98.88-1.12.51-2.03,1.19-3.04,1.88-.31.21-.52.41-.89.54-.57.2-1.14.4-1.71.58-.54.17-1.99.71-2.59.29-.14-.1-.19-.25-.32-.36-.42-.37-1.1-.5-1.62-.63-.34-.09-.57-.13-.95-.13-.24,0-.53.04-.76-.01-.25-.06-.55-.3-.79-.4-.04.28-.2.5-.18.77.02.3.14.54.15.86.01.27.15.4.12.64-.02.15-.11.27-.12.43,0,.18.04.37.01.54-.13.82-.43,1.62-.55,2.45-.09.61-.29,1.13-.32,1.75-.02.47-.23,1.04-.43,1.44-.11.21-.13.42-.25.61-.1.18-.33.38-.5.5-.43.3-.84.45-1.15.89-.1.15-.2.3-.29.45.91.32,1.6,1.19,1.5,2.24-.09.92-.45,1.84-.65,2.74-.11.51-.13,1.02-.24,1.53-.11.52-.52,1.18-.46,1.71.41.11.9-.04,1.33.03.45.08.86.25,1.2.56.56.53,1.41,1.64,1.27,2.44-.18,1-1.36,2.33-.35,3.26.28.18.58.32.9.42.38.21.76.43,1.12.67.9.57,1.74.92,2.75,1.19.5.13.37.19.77.42.57.34,1.39.23,2.01.48.61.24,1.25.6,1.73,1.05.38.36.4.43.84.57.43.13.83.32,1.26.47.83.3,1.73.37,2.56.66.52.18.86.58,1.38.74.66.21,1.43.32,2.11.49.57.14,1.44.05,1.88.5.39.4.43,1.2.62,1.68.22.56.53.99.88,1.46.57.78.65,1.63.81,2.55.12.66.29,1.32.35,1.98.07.78-.09,1.56-.21,2.33-.09.44-.14.88-.15,1.32.04.44.09.89.14,1.33,0,.69-.26,1.4-.5,2.03-.19.5-.39,1.05-.71,1.49-.43.58-1.02.94-1.37,1.61-.39.76-.73,1.51-1.17,2.25-.55.92-1.26,1.14-2.11,1.73-.37.26-.78.39-1.15.63-.35.17-.58.45-.69.84-.06-.5-1.6.29-1.84.43-.38.23-.69.51-1.11.68-.44.19-.88.31-1.3.57-1.22.76-2.05,2.05-3.16,2.97-.51.42-1.1.65-1.67.96-.36.2-.74.3-1.11.48-.41.21-.75.25-1.2.32-.35.06-.63.31-.95.4-.35.1-.68.17-1.01.33-.61.29-1.29.79-1.83,1.25-.52.44-.81.95-1.22,1.47-.28.35-.63.62-.92.96-.21.24-.34.56-.56.79-.29.29-.57.44-.82.76-.53.68-1.22,1.17-1.95,1.58.07.05.14.11.17.17Z"/>
    <path class="cls-1" d="m211.24,225.77c.17-.12.4-.32.5-.5.11-.2.14-.4.25-.61.21-.4.41-.97.43-1.44.03-.62.23-1.14.32-1.75.12-.83.42-1.63.55-2.45.03-.17-.02-.37-.01-.54,0-.16.1-.29.12-.43.03-.25-.11-.37-.12-.64-.01-.32-.12-.56-.15-.86-.02-.28.14-.5.18-.77.24.11.53.34.79.4.23.05.52.01.76.01.37,0,.61.04.95.13.52.13,1.2.26,1.62.63.13.11.17.26.32.36.6.42,2.05-.12,2.59-.29.57-.18,1.15-.38,1.71-.58.37-.13.58-.33.89-.54,1-.69,1.92-1.37,3.04-1.88.66-.3,1.32-.57,1.98-.88.96-.45,1.64-1.12,2.42-1.83.76-.7,1.39-1.54,2.15-2.24.84-.77,1.32-1.85,1.86-2.84.55-1.01,1.2-2.03,1.88-2.96.51-.7.58-1.8.57-2.63,0-.89.03-1.78,0-2.66-.02-.71-.22-1.43-.34-2.13-.07-.44-.19-.81-.42-1.19-.21-.34-.44-.66-.67-.98-.46-.66-.75-1.35-1.06-2.09-.28-.68-.62-1.3-.81-2.02-.21-.84-.38-1.68-.49-2.53-.24-1.99.09-4.27-1.19-6-.31-.42-.63-.69-.84-1.21-.23-.54-.35-1.2-.37-1.79-.03-.76-.11-1.72.04-2.47.07-.37.2-.75.3-1.12.1-.37.07-.69.1-1.07.03-.49.1-1,.15-1.5.02-.18.09-.32.12-.49,0-.05,0-.49.05-.55.18-.2.36.17.45.26.4.41,1.06.57,1.58.76,1.31.48,2.94.82,3.68,2.12.46.8.69,1.79,1.43,2.38.31.24.6.63.92.84.24.15.67.46.95.52.48.1,1.07-.15,1.44.31.19.23.31.88.39,1.18.16.63.29.83,1.01.54.73-.29,1.17-.57,1.95-.3.47.16.89.15,1.38.14.54,0,1.13.11,1.63-.17.25-.14.6-.33.81-.5.23-.18.41-.57.6-.8.74-.93.92-2.3,1.27-3.39.37-1.15.89-2.23,1.6-3.21.59-.82,1.12-1.44,2-1.96,1-.59,2.03-1.17,2.97-1.84.81-.57,1.6-1.27,2.47-1.73.75-.4,1.42-.85,2.13-1.32,2.26-1.48,4.71-2.59,7.3-3.39.25-.08.48-.11.73-.16.41-.07.64-.24,1.02-.43.31-.16.65-.27.97-.44.33-.17.57-.42.87-.62.75-.49,1.62-.85,2.46-1.14.55-.19,1.11-.68,1.41-1.15.28-.44.59-.9.62-1.44,0-.11.05-.2.11-.28-.66-.63-1.31-1.24-2.18-1.63-.71-.32-1.48-.85-2.09-1.34-1.06-.85-2.42-1.29-3.46-2.16-.77-.64-1.45-1.33-2.1-2.07-.29-.33-.67-.6-.96-.93-.49-.57-.78-1.19-1.34-1.74-.39-.39-.76-.87-1.24-1.13-.42-.23-.91-.43-1.34-.69-.95-.57-2.22-1.26-2.78-2.25-1.03-1.82-1.68-3.8-2.53-5.69-.35-.77-.07-1.44.52-2.01.42-.41.93-.73,1.33-1.17.42-.46.8-.84,1.3-1.22.56-.42.85-.75,1.12-1.4.15-.36.21-.75.42-1.09.45-.72,1.02-1.41,1.87-1.68.46-.15.84.1,1.3.16.55.07,1.04-.17,1.57-.21.56-.04,1.01.09,1.54.21.27.06.68.25.96.2.44-.09.59-.64.76-.98.23-.45.24-.65.05-1.12-.62-1.59-2-2.73-2.89-4.18-.37-.61-.53-1.41-1.14-1.83-.54-.37-1.28-.43-1.92-.57-1.13-.24-2.04-.23-2.81.74-.39.48-.63,1-1.09,1.42-.55.49-.98.89-1.63,1.2-1.7.81-2.95-.05-4.28-1.22-.5-.44-.9-.96-1.28-1.51-.31-.45-.75-.48-1.2-.8-.58-.41-.99-.81-1.66-1.11-.27-.12-.55-.26-.84-.34-.76-.23-.72-.23-.91-1.08-.01-.02-.02-.04-.02-.07-.28-.15-.7.08-.96.15-.44.12-.72.3-1.14.53-.36.2-.75.56-1.15.63-.47.08-1.05,0-1.53,0-.49,0-.9,0-1.35-.19-.38-.17-.62-.37-1.04-.38-.94-.04-1.94.12-2.87,0-.94-.11-1.86-.45-2.77-.73-.89-.26-1.58-.99-2.06-1.77-.28-.46-.24-.77-.24-1.33,0-.61-.2-1.11-.19-1.72,0-1.1-.1-2.16-.57-3.16-.45-.95-1.82-1.18-2.8-1.25-.35-.02-.64-.06-.99-.14-.31-.07-.44-.19-.71-.31-.47-.22-1-.31-1.48-.54-.77-.38-1.4-.72-2.06-1.27-.54-.45-1.12-.85-1.71-1.21-1.21-.75-2.7-1.16-4.05-1.54-1.12-.31-2.03-.8-2.95-1.48-.48-.36-.93-.83-1.28-1.32-.66-.91-1.48-1.84-1.88-2.89-.48-1.28-.95-2.16-2.19-2.88-.49-.28-1.07-.18-1.62-.18-.84,0-1.73-.13-2.5.24-.76.37-1.65.97-2.2,1.59-.47.54-.68,1.25-1.09,1.85-.47.68-1.13,1.24-1.64,1.86-.23.28-.33.56-.65.78-.43.3-.87.57-1.31.87-.61.43-1.18.51-1.91.48-.64-.02-1.1-.72-1.68-1.02-.47-.24-.93-.6-1.42-.86-.34-.18-.7-.3-1.01-.54-.55-.42-.87-1.24-1.24-1.8.13-.4-1.03-.35-1.29-.62-.35-.35-.69-.55-1.05-.86-.78-.68-1.86-.65-2.68-1.34-.45-.37-.52-.85-.76-1.34-.21-.43-.6-.75-.91-1.11-.33-.39-.61-.78-.95-1.15-.2-.22-.38-.45-.63-.61-.23-.14-.51-.14-.72-.23-.45-.19-.92-.49-1.34-.77-.27-.19-.42-.3-.71-.43-.26-.11-.49-.11-.77-.19-.17-.05-.36-.27-.54-.32-.26-.07-.55-.02-.8.03-.16.03-.44.2-.62.24-.26.06-.52.14-.76.28-1.02.6-1.61,2.09-2.78,2.4-.54.14-1.16.12-1.72.1-.63-.03-1.19-.28-1.86-.2-.42.05-.84.25-1.25.34-.34.08-.71.11-1.01.28-.26.15-.6.34-.8.52-.34.3-.42.71-.53,1.12-.22.84-.68,1.66-1,2.47-.47,1.17-.65,2.5-1.53,3.47-.72.8-1.63,1.49-2.49,2.14-.8.6-1.58,1.03-2.44,1.52-.32.18-.64.43-.96.63-.31.2-.47.47-.75.68-.64.47-1.48.42-2.22.43-.86,0-1.65-.3-2.49-.38-.81-.08-1.7-.53-2.45-.05-.62.4-1.16,1.08-1.68,1.59-.71.7-1.32,1.42-1.71,2.33-1.15,2.75-3.84,4.38-5.41,6.84-.79,1.24-1.36,2.59-2.11,3.84-.23.38-.41.78-.57,1.19.6.27,1.23.52,1.87.74.57.2,1.07.03,1.64.16.45.11,1.15.46,1.47.82.27.3.41.68.6,1.03.27.49.55.81.94,1.23.33.35.61.8.99,1.1.39.31.88.53,1.34.76.57.28,1.14.49,1.71.76.67.32,1.21.72,1.82,1.1.59.37,1.24.38,1.89.5,1.1.19,1.97.64,2.81,1.33,1.27,1.05,1.9,2.61,3.19,3.62.57.45,1,.8,1.7,1.06.74.28,1.48.56,2.21.87.39.17.63.27.93.56.38.36.72.94,1.15,1.22.33.21.78.53,1.13.66.54.2,1.12.19,1.68.28,1.57.24,3.05.57,4.55,1.1.96.34,1.84.47,2.69,1.05.35.24.67.51,1.08.67.87.36,1.76.25,2.66.41,1.6.28,3.07,1.11,4.64,1.49,1.2.3,2.4.61,3.58.97.33.1.68.21.98.37.3.16.47.42.73.59.96.61,2.13-.34,3.11.16.71.36,1.15.93,1.79,1.35.68.46,1.43.53,2.18.8.92.33,1.51,1.49,1.69,2.4.31,1.58-.24,3.43-.64,4.95-.45,1.74-.77,3.53-1.24,5.27-.2.74-.31,1.5-.46,2.25-.17.84-.04,1.67-.16,2.52-.26,1.9-.64,3.73-1.11,5.59-.49,1.93-.4,3.99-.9,5.92-.38,1.48-1.2,2.78-1.78,4.18-.44,1.06-.75,2.16-1.13,3.24-.36,1.01-.81,1.96-1.16,2.97-.12.36-.29.7-.4,1.07-.21.75-.14,1.52-.22,2.28-.1.96-.15,1.89-.15,2.86,0,1.75-.19,3.45-.43,5.19-.27,1.94-.12,3.77.52,5.64.31.89.62,1.82,1.1,2.63.38.64.56,1.11.72,1.82.17.77.29,1.58.2,2.38-.08.69-.32,1.37-.4,2.05-.05.42-.13,1.45-.1,2.12.15.14.06.22.11.38.06.21.07.3.17.5.06.11.17.24.26.37.27-.26.57-.42.91-.63.57-.35,1.15-.69,1.75-1.01.49-.26,1.06-.66,1.62-.77.17-.03.37-.01.54.02.08.02.12.13.18.14.36.06.76-.14,1.1-.25.4-.13,1.01-.49,1.43-.49.32,0,.24.13.47.27.2.12.34.05.58.14.24.09.59.48.77.66.6.56.25,1,.18,1.71-.08.91-.53,1.86-.96,2.66-.59,1.13-1.52,2-2.21,3.08-.73,1.14-1.14,2.33-1.72,3.54-.64,1.33-2.06,3.37-.28,4.51,1.42.9,3.37.1,4.91.08,1.86-.02,3.65-.65,5.43-1.11.87-.23,1.77-.51,2.67-.53.28,0,.56.04.81.14.09-.15.19-.31.29-.45.31-.45.72-.6,1.15-.89Z"/>
    <path class="cls-1" d="m277.57,409.95c.16-.57.77-1.27,1.16-1.71,1.31-1.47,2.68-3.27,3.22-5.15.37-1.27.91-2.49,1.3-3.75.35-1.12.66-2.45,1.28-3.44.64-1.03,1.12-2.1,1.66-3.16.49-.97.85-1.76.86-2.87,0-1.2-.95-1.32-1.72-2.07-.92-.89-1.88-1.78-2.02-3.17-.14-1.34-.28-2.65-.55-3.94-.27-1.27-.95-1.88-1.73-2.81-.77-.91-1.38-1.99-1.79-3.15-.17-.48-.4-.98-.52-1.49-.27-1.18.01-2.77.01-4,0-1.37-.05-2.76,0-4.13.03-.88.3-1.64.29-2.54,0-.64-.04-1.13.22-1.71.26-.58.57-1.03.91-1.64.42-.76,1.3-1.61,2.07-2.02.88-.46,1.93-.57,2.77-1.19,1.03-.76,1.77-2.03,2.7-2.95.72-.72,1.4-1.56,2.27-2.1.77-.48,1.41-1.11,2.27-1.37.85-.26,1.65-.38,2.43-.83,1.09-.63,2.01-1.43,2.94-2.24.22-.19.47-.36.72-.54-.03-.09-.05-.19-.07-.31-.13-.74-.34-1.6-.57-2.32-.1-.34-.25-.45-.3-.82-.09-.6,0-1.3,0-1.91,0-.35.08-.8.01-1.15-.07-.37-.28-.51-.45-.84-1.01-1.96-.21-4.55.45-6.55.46-1.41.78-3.16.58-4.66-.12-.85-.36-1.73-.55-2.58-.21-.95-.37-1.84-1.03-2.59-.49-.56-1.13-1.06-1.73-1.47-.78-.53-1.85-.73-2.46-1.48-.39-.48-.58-1.1-.56-1.78.02-.93.53-1.76.86-2.61.13-.34.23-.31.17-.69-.08-.51-.62-.73-.96-1.02-.44-.36-.8-.85-1.28-1.16-.45-.29-1.01-.36-1.5-.56-.92-.38-1.73-.59-2.69-.86-.69-.19-1.6-.16-2.19-.57-.45-.31-.8-.79-1.2-1.15-.57-.53-1.41-.92-2.13-1.23-.31-.13-.61-.22-.86-.38-.14-.09-.28-.28-.43-.38-.1-.06-.28-.02-.37-.09-.61-.48-.8-1.51-.93-2.22-.14-.75-.17-1.56-.34-2.3-.18-.74-.64-1.51-1.23-2.02-.46-.4-1.09-.55-1.6-.91-1.04-.73-1.78-2.08-2.32-3.2-.32-.68-.32-1.47-.47-2.25-.15-.73.07-1.47-.05-2.19-.08-.47-.29-.83-.31-1.32-.02-.39.06-.79-.01-1.17-.07-.36-.25-.62-.27-1.01-.04-.8.29-1.5.29-2.29,0-1,.94-2.68-.34-3.39-.57-.32-1.45-.23-2.07-.37-.25-.06-.44-.21-.74-.26-.39-.07-.65-.11-1.01-.28-.48-.24-1.15-.53-1.5-.92-.45-.5-.68-1.26-1.08-1.81-.66-.91-1.06-2.01-1.64-2.94-.51-.81-.63-1.16-1.25-1.52-.28.68-.67,1.05-1.22,1.74-.74.91-1.15,2.11-1.7,3.14-.56,1.04-.89,2.05-1.15,3.19-.32,1.39-.39,2.64-.36,4.06.04,2.35.66,4.72,1.08,7.04.18,1,.44,2.01.38,3.03-.04.75-.24,1.46-.3,2.2-.11,1.42-.66,2.88-1.08,4.25-.58,1.87-.36,3.87-.36,5.82,0,3.85-.61,7.6-.57,11.44.01,1.3-.36,2.58-.32,3.87.03,1.03.32,2,.32,3.05,0,1.5-.1,3.53-.64,4.96-.31.83-.94.93-1.72,1.13-.9.23-1.63.78-2.5,1.04-1.06.32-2.4,1.07-3.52.92-1.09-.14-1.63-1.15-2.27-1.96-.67-.84-1.59-1.76-2.61-2.19-.77-.33-1.57-.64-2.35-.97-.67-.28-1.38-.69-2.05-.9-.81-.26-1.43-.31-1.87-1.08-.93-1.65.22-3.07,1.36-4.18-.2-.3-.32-.71-.46-1.08-.2-.52-.4-.7-.79-1.13-.79-.89-1.5-1.5-1.94-2.64-1.08-2.85-1.42-5.67-4.25-7.34-.84-.5-1.51-1.28-2.34-1.8-1.21-.75-2.64-1.21-4.03-1.5-.95-.2-1.85-.56-2.8-.73-.66-.12-1.35-.05-2.02-.06-.63,0-1.03.15-1.62.24-.67.1-1.68-.14-2.34-.23-1.17-.16-2.54-.37-3.57-.8-.75-.31-.9-.67-1.15-1.44-.09-.28-.38-.71-.44-.99-.07-.37,0-.72-.06-1.09-.05-.4-.22-.48-.31-.84-.08-.35.04-.8.02-1.16-.03-.52-.27-.92-.3-1.44-.02-.38,0-.77,0-1.15,0-.81,0-1.63,0-2.44,0-.85-.07-1.55-.28-2.3-.16-.58-.43-1.13-.59-1.71-.11-.4-.18-.76-.29-1.15-.05-.17.01-.38-.02-.56-.03-.16-.19-.18-.24-.34-.18-.72-.45-1.15-.82-1.83-.36-.68-.82-1.25-1.22-1.9-.04-.06-.1-.12-.17-.17-.93.52-1.93.92-2.83,1.47-.59.36-1.08.86-1.64,1.26-.38.27-.62.59-1,.86-.53.37-.86.89-1.33,1.29-.65.55-1.3,1.03-2.11.86-.7-.15-1.75-.14-2.45,0-.75.15-1.4.81-2.01,1.3-.23.18-.63.46-.72.75-.05.16.02.41.01.57-.01.37-.11.65-.2,1-.14.55-.13,1.09-.23,1.64-.13.69-.42,1.37-.69,2.02-.17.41-.28.95-.6,1.29-.52.54-1.33.84-1.89,1.33-.47.41-.87.83-1.38,1.21-.52.38-1.11.82-1.52,1.32-.6.74-1.31,1.29-1.88,2.08-.45.63-.96,1.22-1.37,1.88-.53.86-1.28,1.63-1.68,2.54-.1.24-.16.49-.24.74.01-.04-.16.49-.15.42-.01.41.31.92.49,1.29.55,1.16,1.32,1.99,2.16,2.92.45.5.75.97.76,1.64.01.64,0,1.27,0,1.91,0,2.31-.27,4.64.72,6.75.33.69.53,1.18,1.42,1.35.72.13,1.5-.13,2.21-.2.99-.1,1.92-.19,2.92-.2,1.16,0,2.59.33,3.26,1.39.31.49.53.99.93,1.44.49.54,1.19,1.05,1.75,1.54.45.39.91.7,1.29,1.19.29.37.42.66.81.9.11.07.28.18.37.28.11.1.2.22.28.35.15.11.32.19.51.23.34.35.4,1.02.32,1.48-.34,2.02-1.31,3.8-1.87,5.76-.62,2.19-.58,4.31-.57,6.55,0,.35.06.74-.03,1.09-.17.65-.47,1.21-.6,1.89-.15.77-.49,1.52-.31,2.32.11.49.45.8.74,1.19.45.62.82,1.35,1.16,2.04.2.41.42.63.71.97.45.54.81,1.17,1.15,1.78.45.8,1.03,1.92,2,2.23.34.11.73.01,1.08.02.51.01.47.04.79.39.9.96,1.88,1.43,3.24,1.53,0,0,.02,0,.02,0,0,0-.02,0-.02,0-.08.02-.36.18-.47.22.17-.03.33.02.5-.01.09-.02.17-.15.22-.16.28-.06.59-.08.87,0,.25.07.51.3.81.35.13.02.26-.03.39-.02.17.02.38.18.49.19.28,0,.54-.17.84-.19.39-.03.6.15.96.21.15.03.31-.02.46,0,.13.02.15.15.29.19.13.03.27-.03.4-.02.24.03.3.13.49.18.52.13,1.05.37,1.61.41.31.02.61-.05.91.04.27.08.57.36.81.53.37.27.64.64.99.91.44.34.92.64,1.35.95.3.22.69.64.88.94.12.18.15.42.26.6.19.32.46.6.54.99.18.88.42,1.75.57,2.64.12.69.39,1.46.38,2.15,0,.4.05.59.15.96.08.32,0,.63.04.96.06.46.32.89.71,1.19.31.24.68.37,1.01.57.49.29.89.74,1.35,1.07.61.43,1.31.66,1.95,1.03.87.5,1.19,1.55,2.06,2.01.84.44,1.53,1.22,2.3,1.78.95.69,1.67,1.22,2.05,2.34.18.52.33.99.47,1.53.18.7.66,1.28.93,1.95.67,1.71,1.92,3.09,2.53,4.84.3.87.61,1.33,1.28,1.97,1.14,1.08,2.82.44,4.2.37,1.35-.07,2.66.21,4.01.2.52,0,.98.11,1.48.24.55.14,1.1.24,1.64.37.67.15,1.17.56,1.75.9.67.39,1.49.53,2.22.79.96.34,2.01.54,2.91,1,.5.25.81.73,1.32.92.85.31,1.51.41,2.29.93.83.56,1.5,1.31,2.32,1.9.57.41,1.14.8,1.7,1.22,1.43,1.08,2.58,2.41,4.41,2.79.82.17,1.87.36,2.61.8.3.18.51.43.84.57.25.11.52.12.77.24.19.09.34.26.52.36.34.18.42.09.77.17.37.09.7.36,1.04.57.14.09.28.18.42.29.13-.26.25-.51.34-.85.12-.47-.07-1,.05-1.45Z"/>
    <path class="cls-1" d="m191.18,214.09c-.05-.16.04-.25-.11-.38-.02-.66.05-1.7.1-2.12.08-.68.32-1.36.4-2.05.09-.8-.03-1.61-.2-2.38-.16-.71-.34-1.18-.72-1.82-.48-.81-.79-1.74-1.1-2.63-.65-1.86-.79-3.7-.52-5.64.24-1.74.43-3.44.43-5.19,0-.97.04-1.9.15-2.86.08-.76.01-1.53.22-2.28.1-.37.28-.71.4-1.07.35-1.01.8-1.97,1.16-2.97.38-1.08.69-2.18,1.13-3.24.58-1.41,1.4-2.7,1.78-4.18.5-1.93.41-3.99.9-5.92.47-1.86.86-3.69,1.11-5.59.11-.85-.01-1.68.16-2.52.15-.75.26-1.52.46-2.25.47-1.74.79-3.52,1.24-5.27.39-1.52.94-3.37.64-4.95-.18-.91-.77-2.07-1.69-2.4-.75-.27-1.49-.34-2.18-.8-.64-.43-1.08-.99-1.79-1.35-.98-.5-2.15.45-3.11-.16-.26-.17-.43-.43-.73-.59-.31-.17-.66-.27-.98-.37-1.18-.36-2.38-.68-3.58-.97-1.57-.38-3.04-1.21-4.64-1.49-.9-.16-1.79-.05-2.66-.41-.41-.17-.73-.43-1.08-.67-.85-.58-1.73-.71-2.69-1.05-1.5-.53-2.98-.86-4.55-1.1-.56-.08-1.14-.08-1.68-.28-.36-.13-.81-.45-1.13-.66-.43-.28-.77-.85-1.15-1.22-.31-.29-.54-.39-.93-.56-.73-.31-1.47-.59-2.21-.87-.7-.26-1.13-.62-1.7-1.06-1.29-1.01-1.92-2.57-3.19-3.62-.84-.69-1.71-1.14-2.81-1.33-.66-.11-1.3-.12-1.89-.5-.61-.39-1.15-.79-1.82-1.1-.57-.27-1.14-.48-1.71-.76-.46-.23-.95-.45-1.34-.76-.38-.3-.66-.75-.99-1.1-.39-.42-.67-.73-.94-1.23-.19-.35-.33-.73-.6-1.03-.33-.36-1.02-.72-1.47-.82-.57-.13-1.06.05-1.64-.16-.64-.23-1.27-.47-1.87-.74-.26.63-.48,1.27-.81,1.87-.48.87-1.15,2.13-2.19,2.45-.38.11-.8.02-1.19.08-.59.1-1.07.15-1.68.15-1.55,0-2.95.52-4.42.97-.77.23-1.59.34-2.31.75-.32.18-.41.4-.65.66-.26.28-.57.52-.85.78-1.19,1.09-2.5,1.65-3.88,2.44-.66.38-1.2.98-1.87,1.32-.71.35-1.47.75-2.2,1.05-.74.3-1.57.37-2.35.23-.38-.07-.78-.24-1.18-.16-.43.08-.98.18-1.34.42-.27.18-1.41.84-1.52,1.08.21.08.44.03.66.05.48.06.99.22,1.44.37.44.15.91.18,1.34.36.73.3,1.32.89,1.74,1.55,1.25,1.95,1.72,4.21,1.32,6.47-.14.83-.42,1.69.08,2.44.74,1.12,2.15,1.25,2.95,2.27.84,1.07,1.35,2.49,1.36,3.86.01,1.05-.56,1.96-1.13,2.79-.55.79-.99,1.68-1.64,2.4-.98,1.09-2.33,1.51-3.53,2.3-.85.56-1.74,1.23-2.18,2.18-.16.36-.15.77-.12,1.16.03.48.28.65.68.96,1.17.91,2.7,1.82,4.21,1.63,1.49-.19,3.05-.42,4.52-.72.92-.18,1.73-.71,2.66-.82,1.18-.14,2.4.34,3.53.66,1.14.33,2.42,1.05,3.52.21.96-.73,1.68-1.79,2.49-2.67.72-.79,1.46-1.68,2.58-1.87.77-.13,1.48.19,2.19.48.79.32,1.44,1.12,1.68,1.95.61,2.07-.23,4.49,1.39,6.23.55.59,1.23,1,1.74,1.63.48.59.74,1.24,1.07,1.9.25.48.59.9.94,1.31.2.23.43.44.64.66.28.49.68.82,1.2,1,.62.42,1.31.44,2.07.07-.06-.26-.48-.31-.24-.35.12.2.25.11.43.16.17.04.34.14.49.18.39.09.85-.09,1.24,0,.18.04.27.17.46.21.17.04.4,0,.58,0,.19,0,.39,0,.58,0,.25-.01.33-.1.52-.15.68-.19,1.42.49,1.28,1.18-.12.61-.66,1.61-1.06,2.11-.58.73-1.34,1.37-2.08,1.93-.82.62-1.82,1.19-2.78,1.54-.84.3-1.66.32-2.39.93-.66.54-1.33,1.08-2.01,1.61-.32.24-.53.41-.95.43-.19.01-.39-.03-.58,0-.27.03-.32.15-.56.21-.19.04-.39-.02-.58.03-.23.06-.36.14-.61.15-.8.05-1.52.09-2.31.23-.66.12-1.34.08-1.98.24-.54.13-1.02.32-1.54.52-.96.37-2.23,1.34-3.32,1.12-1.1-.22-1.99-.94-3.06-1.26-.17-.05-.43-.17-.58-.19-.21-.04-.17-.04-.38,0-.36.07-.79.23-1.15.38-.79.34-1.21.86-1.6,1.63-.09.18-.21.32-.31.48-.13.22-.11.21-.18.47-.11.36-.24.74-.39,1.06-.34.74.02,1.9.38,2.68.21.46.52.85.81,1.24.16.22.38.37.54.57.2.26.28.57.56.78.27.21.63.23.91.41.44.27.65.34,1.2.34,1.17,0,2.26.21,3.44.2.97,0,1.88-.38,2.86-.39,1.03-.02,2.1.11,3.13-.03.51-.07,1.02-.16,1.5-.35.42-.16.63-.25,1.04-.1.48.18,1,.32,1.48.53.88.37,1.57,1.14,2.42,1.58.92.47,2.04.8,3.01,1.16.9.34,1.58.61,2.37,1.14,1.22.82,2.55,1.34,3.62,2.41.73.73,1.5,1.69,1.82,2.68.17.54.22,1.05.52,1.55.42.69.87,1.37,1.41,1.97,1.09,1.22,2.71,3.13,4.5,3.07,1.01-.03,1.9-.5,2.87-.68.78-.14,1.59-.22,2.38-.38.63-.12,1.2-.52,1.84-.58.19-.02.37,0,.56.05.32.08.67.1,1,.18.51.13,1.09.63,1.49.96.29.24.43.58.53.93.13.47.35.89.47,1.36.43,1.69.81,3.28,1.72,4.78.39.64,1.24.88,1.85,1.24.63.37,1.17.59,1.91.65,1.51.12,3.03.36,4.54.09,1.04-.19,2.37-.43,3.27-1.02.61-.41,1.07-.98,1.62-1.45.42-.36.92-.63,1.33-.99.26-.23.43-.51.64-.77.05-.06.1-.1.15-.15-.09-.13-.2-.26-.26-.37-.1-.2-.1-.29-.17-.5Z"/>
  </g>
  <g>
    <g>
      <path class="cls-2" d="m199.9,136.4c.02.15.03.27.03.36s-.03.16-.09.2c-.06.04-.15.07-.28.08-.13.01-.31.02-.54.02-.16,0-.29,0-.39,0-.1,0-.18-.02-.23-.03s-.09-.04-.11-.08-.03-.08-.04-.14l-.22-1.65h-3.08l-.85,1.61c-.03.06-.06.11-.1.15-.04.04-.09.07-.16.09-.07.02-.17.04-.29.04-.12,0-.27.01-.45.01-.19,0-.35,0-.45-.02-.11-.01-.18-.04-.22-.09-.04-.05-.04-.12-.01-.21s.08-.21.16-.36l3.99-7.29c.04-.07.08-.13.13-.17.04-.04.1-.08.18-.1.08-.02.18-.04.32-.04.13,0,.31,0,.52,0,.25,0,.45,0,.59,0,.15,0,.26.02.34.04.08.02.13.06.16.1s.04.11.05.19l1.07,7.28Zm-2.5-6.02h0l-1.83,3.49h2.31l-.47-3.49Z"/>
      <path class="cls-2" d="m206.09,137.03c-.08.39-.19.72-.36,1.01-.16.29-.37.52-.63.72-.26.19-.58.34-.96.43-.38.1-.81.15-1.31.15-.36,0-.68-.03-.97-.09-.29-.06-.52-.13-.71-.22-.07-.03-.11-.07-.14-.11s-.04-.1-.04-.18c0-.03,0-.07,0-.13,0-.06.01-.12.03-.2s.03-.15.05-.23c.02-.08.05-.15.08-.21.03-.06.07-.11.1-.15.04-.04.08-.06.13-.06s.11.02.19.05c.07.04.17.08.29.12s.28.08.46.12c.18.04.41.05.67.05.22,0,.41-.02.58-.05.17-.03.32-.09.45-.17s.23-.17.31-.29.13-.26.17-.44c.06-.27.11-.51.17-.69.05-.19.11-.34.15-.46-.08.14-.19.28-.33.42-.14.14-.3.26-.49.37-.18.11-.38.2-.59.26-.21.07-.42.1-.63.1-.33,0-.6-.06-.82-.17-.22-.11-.4-.26-.54-.46s-.24-.42-.3-.69-.09-.55-.09-.85c0-.27.03-.57.08-.89s.13-.63.24-.95c.11-.31.24-.61.41-.9s.36-.54.59-.76c.23-.22.5-.4.79-.53.3-.13.63-.2,1.01-.2.35,0,.66.07.93.22.27.15.51.36.71.64l.1-.5c.02-.09.08-.15.2-.19s.3-.06.56-.06c.13,0,.23,0,.32.02.08.01.15.03.2.04.05.02.08.04.1.08.02.03.02.07.01.11l-1.19,5.9Zm-.74-4.2c-.15-.23-.31-.41-.49-.52-.18-.12-.39-.17-.62-.17-.18,0-.34.04-.49.13-.15.08-.28.2-.39.34-.12.14-.22.31-.3.49s-.16.38-.22.58c-.06.2-.1.41-.13.61s-.04.4-.04.58c0,.14.01.27.04.39s.06.22.12.3c.05.08.12.15.2.19.08.04.18.07.3.07.19,0,.38-.06.57-.17.19-.11.38-.26.54-.46.17-.19.32-.42.45-.68s.22-.53.28-.83l.18-.86Zm1.68-4.53s0,.12-.03.23c-.02.11-.05.23-.11.37s-.13.28-.23.42c-.1.15-.23.28-.38.4-.16.12-.35.22-.58.29s-.5.11-.81.11-.59-.03-.8-.1c-.21-.07-.38-.16-.5-.28s-.21-.25-.26-.41c-.05-.15-.07-.31-.07-.48,0-.05,0-.1,0-.17,0-.06.01-.13.02-.19,0-.06.02-.12.04-.17.01-.05.03-.08.05-.1.04-.03.1-.06.17-.08s.19-.03.33-.03c.1,0,.19,0,.25.01s.12.02.16.04c.04.02.06.04.08.06.01.02.02.05.02.08,0,.04,0,.08,0,.13,0,.05,0,.1,0,.14,0,.08.01.15.03.22s.05.12.1.17.11.08.19.11.18.04.29.04.23-.01.33-.04.19-.08.28-.14c.08-.06.15-.14.21-.23.06-.09.11-.2.14-.33.02-.04.04-.08.06-.11.02-.03.06-.06.1-.08.04-.02.1-.03.17-.04.07-.01.15-.02.26-.02s.2,0,.26.01.12.02.15.03.06.03.07.05c.01.02.02.05.02.07Z"/>
      <path class="cls-2" d="m212.41,131.39c0,.05,0,.13-.02.23-.01.1-.04.2-.07.3-.03.1-.06.19-.1.26-.04.07-.08.11-.14.11-.06,0-.12-.02-.19-.06-.07-.04-.16-.08-.27-.13-.11-.05-.23-.09-.37-.13s-.31-.06-.5-.06c-.15,0-.28.02-.4.06s-.21.09-.29.16c-.08.07-.13.14-.17.23s-.06.18-.06.29c0,.13.05.24.16.33.11.09.24.17.4.25.16.08.33.16.52.24.19.08.36.19.52.32.16.13.29.28.4.46s.16.41.16.69c0,.32-.06.62-.18.89-.12.27-.3.51-.54.71-.24.2-.52.35-.86.47-.34.11-.72.17-1.14.17-.2,0-.4-.01-.58-.04-.18-.03-.35-.07-.5-.11-.15-.04-.27-.09-.37-.15s-.18-.11-.23-.15c-.03-.03-.06-.07-.07-.11s-.02-.09-.02-.15c0-.04,0-.09,0-.15,0-.06.02-.12.03-.2s.03-.14.05-.22c.02-.07.04-.14.07-.2s.05-.11.08-.14c.03-.04.06-.05.1-.05.06,0,.12.03.2.08s.17.11.28.17c.11.06.25.12.42.17.17.05.38.08.63.08.17,0,.32-.02.45-.06.13-.04.24-.1.32-.17.08-.07.15-.15.19-.25s.06-.19.06-.3c0-.15-.05-.27-.16-.36s-.23-.18-.39-.26-.33-.16-.51-.25c-.18-.08-.35-.19-.51-.31-.16-.12-.29-.27-.39-.46s-.16-.41-.16-.69c0-.3.06-.58.17-.84s.28-.48.5-.68c.22-.19.49-.34.8-.45.31-.11.67-.16,1.07-.16.18,0,.35.01.52.03.17.02.32.05.45.09.13.04.25.08.35.13s.17.09.21.14c.05.04.07.11.07.22Z"/>
      <path class="cls-2" d="m217.17,131.2s0,.1-.01.16c0,.07-.02.14-.04.21s-.04.15-.06.23-.05.15-.09.21c-.03.06-.07.11-.11.15-.04.04-.08.06-.13.06h-1.24l-.53,2.66c-.01.06-.02.14-.04.23-.01.09-.02.16-.02.21,0,.17.04.29.12.37.08.08.21.12.38.12.1,0,.19,0,.26-.02.07-.02.13-.03.19-.05.05-.02.1-.04.14-.05.04-.02.07-.02.11-.02s.06.02.09.05c.02.03.03.08.03.16,0,.08,0,.17-.03.27-.02.1-.04.2-.07.3-.03.09-.06.18-.09.26-.03.08-.07.14-.11.17-.04.04-.1.07-.17.11s-.17.06-.27.09-.21.05-.33.06c-.12.02-.24.02-.36.02-.25,0-.48-.03-.67-.08-.19-.05-.35-.14-.49-.25-.13-.11-.23-.26-.3-.44s-.1-.39-.1-.65c0-.05,0-.1,0-.16,0-.06.01-.13.02-.19s.02-.14.03-.21c.01-.07.02-.13.04-.19l.55-2.76h-.69c-.06,0-.1-.02-.12-.05-.03-.04-.04-.1-.04-.21,0-.07,0-.17.02-.28.01-.12.04-.23.07-.34.03-.11.08-.21.13-.29s.12-.12.2-.12h.68l.25-1.26s.03-.08.06-.11c.03-.03.08-.06.15-.09.07-.02.15-.04.25-.05.1-.01.23-.02.39-.02s.28,0,.38.02c.1.01.18.03.24.05.05.02.09.05.11.09.02.03.02.07.02.11l-.25,1.26h1.22c.07,0,.12.02.15.07s.04.11.04.2Z"/>
      <path class="cls-2" d="m222.33,136.81c-.02.09-.08.15-.2.19s-.3.06-.56.06c-.13,0-.24,0-.32-.01-.08,0-.15-.02-.2-.04-.05-.02-.08-.04-.1-.08-.01-.03-.02-.07,0-.12l.18-.91c-.06.14-.16.28-.3.43-.14.15-.3.29-.49.41-.19.12-.4.22-.63.3s-.47.12-.71.12c-.34,0-.62-.06-.84-.18s-.4-.28-.54-.48c-.13-.2-.23-.43-.29-.69-.06-.26-.09-.53-.09-.81,0-.27.03-.56.08-.87.05-.32.13-.63.24-.94.11-.31.24-.61.41-.9.16-.29.36-.55.59-.77s.5-.4.79-.54c.3-.13.64-.2,1.01-.2.35,0,.66.07.93.22.27.15.51.36.71.64l.1-.5c.02-.09.08-.15.2-.19s.3-.06.56-.06c.13,0,.23,0,.32.02.08.01.15.03.2.04.05.02.08.04.1.08.02.03.02.07.01.11l-1.14,5.67Zm-.79-3.97c-.15-.23-.31-.41-.49-.52-.18-.12-.39-.17-.62-.17-.18,0-.34.04-.49.13-.15.08-.28.2-.39.34-.11.14-.21.31-.3.49s-.16.38-.22.58c-.06.2-.1.4-.13.61-.03.21-.04.39-.04.57,0,.13,0,.25.03.36.02.11.05.22.1.3s.12.16.2.21c.08.05.19.08.32.08.19,0,.38-.06.57-.17.19-.11.38-.26.54-.46.17-.19.32-.42.45-.67.13-.26.22-.53.28-.82l.18-.86Z"/>
      <path class="cls-2" d="m228.96,128.56s0,.07,0,.12c0,.06-.01.12-.03.19s-.02.15-.04.22-.04.15-.06.21c-.02.07-.05.12-.08.16-.03.04-.06.06-.09.06-.03,0-.06,0-.1-.02s-.09-.03-.14-.04c-.05-.02-.11-.03-.17-.04s-.14-.02-.21-.02c-.13,0-.25.02-.35.06s-.19.1-.26.18c-.07.08-.13.19-.18.32s-.09.29-.13.47l-.1.48h1.03c.06,0,.11.02.13.06.03.04.04.1.04.19,0,.04,0,.1,0,.17,0,.07-.02.14-.03.22-.02.08-.04.16-.06.23s-.05.15-.08.21-.06.12-.1.16c-.04.04-.08.06-.13.06h-1.04l-1,4.98c-.07.35-.17.66-.29.93s-.28.49-.47.67c-.19.18-.42.31-.68.41-.26.09-.55.14-.88.14-.22,0-.4-.02-.55-.05s-.24-.07-.29-.1c-.02-.03-.04-.05-.04-.08s-.01-.07-.01-.13c0-.03,0-.07,0-.13,0-.06.02-.12.03-.19.01-.07.03-.14.05-.22.02-.08.04-.15.06-.21s.05-.12.08-.16c.03-.04.06-.06.1-.06.03,0,.05,0,.08,0s.05,0,.08.02c.03,0,.06.01.1.02s.09,0,.16,0c.14,0,.25-.02.35-.06.1-.04.18-.1.26-.19s.13-.19.18-.33c.05-.13.1-.29.13-.49l.96-4.77h-.71c-.05,0-.09-.02-.12-.05-.03-.04-.04-.1-.04-.21,0-.04,0-.1,0-.17,0-.07.02-.14.03-.22s.03-.15.05-.23c.02-.08.05-.15.08-.21.03-.06.07-.11.11-.15.04-.04.09-.06.14-.06h.7l.12-.63c.07-.36.17-.67.3-.94s.29-.5.49-.68.42-.32.68-.41c.26-.09.56-.14.89-.14.11,0,.22,0,.33.02.11.01.21.03.3.04.09.02.17.04.24.07.07.03.11.05.14.08.03.02.04.05.05.09s.02.08.02.14Z"/>
      <path class="cls-2" d="m233.21,136.81c-.02.09-.08.15-.2.19s-.3.06-.56.06c-.13,0-.24,0-.32-.01-.08,0-.15-.02-.2-.04-.05-.02-.08-.04-.1-.08-.01-.03-.02-.07,0-.12l.18-.91c-.06.14-.16.28-.3.43-.14.15-.3.29-.49.41-.19.12-.4.22-.63.3s-.47.12-.71.12c-.34,0-.62-.06-.84-.18s-.4-.28-.54-.48c-.13-.2-.23-.43-.29-.69-.06-.26-.09-.53-.09-.81,0-.27.03-.56.08-.87.05-.32.13-.63.24-.94.11-.31.24-.61.41-.9.16-.29.36-.55.59-.77s.5-.4.79-.54c.3-.13.64-.2,1.01-.2.35,0,.66.07.93.22.27.15.51.36.71.64l.1-.5c.02-.09.08-.15.2-.19s.3-.06.56-.06c.13,0,.23,0,.32.02.08.01.15.03.2.04.05.02.08.04.1.08.02.03.02.07.01.11l-1.14,5.67Zm-.79-3.97c-.15-.23-.31-.41-.49-.52-.18-.12-.39-.17-.62-.17-.18,0-.34.04-.49.13-.15.08-.28.2-.39.34-.11.14-.21.31-.3.49s-.16.38-.22.58c-.06.2-.1.4-.13.61-.03.21-.04.39-.04.57,0,.13,0,.25.03.36.02.11.05.22.1.3s.12.16.2.21c.08.05.19.08.32.08.19,0,.38-.06.57-.17.19-.11.38-.26.54-.46.17-.19.32-.42.45-.67.13-.26.22-.53.28-.82l.18-.86Z"/>
    </g>
    <g>
      <path class="cls-2" d="m224.88,349.92s0,.1,0,.17c0,.07-.02.14-.03.22s-.03.16-.05.24c-.02.08-.05.15-.08.21-.03.06-.06.12-.1.16-.04.04-.07.06-.11.06-.06,0-.15-.04-.27-.11-.11-.07-.26-.15-.44-.24s-.4-.17-.67-.24c-.26-.07-.57-.11-.93-.11s-.69.05-.99.16c-.3.1-.57.25-.82.42-.25.18-.46.39-.65.63s-.35.5-.48.78-.23.57-.29.87c-.06.3-.1.6-.1.89,0,.33.05.61.14.86.09.25.23.45.4.62s.39.29.64.38c.25.08.53.13.84.13.21,0,.41-.02.62-.06.2-.04.39-.11.56-.19l.38-1.9h-1.55c-.05,0-.09-.02-.12-.06-.03-.04-.04-.11-.04-.19,0-.04,0-.1.01-.17,0-.07.02-.14.04-.21.01-.07.03-.15.05-.23s.05-.14.08-.2c.03-.06.07-.11.11-.15.04-.04.08-.06.13-.06h2.77c.14,0,.24.05.3.14.06.09.07.22.04.39l-.66,3.29c-.02.08-.04.15-.06.21-.03.06-.06.11-.1.16-.05.05-.16.11-.32.18-.17.07-.38.14-.62.21-.24.07-.51.12-.82.17-.3.05-.61.07-.92.07-.59,0-1.11-.07-1.55-.2-.45-.14-.82-.34-1.13-.61s-.53-.6-.69-.99c-.16-.39-.24-.84-.24-1.35,0-.46.05-.91.15-1.35.1-.44.25-.86.44-1.25.2-.4.44-.76.73-1.1.29-.34.63-.63,1.01-.87.38-.25.81-.44,1.28-.57s.98-.21,1.54-.21c.31,0,.6.02.88.07.27.05.52.11.74.18.22.07.4.14.55.22.15.08.25.14.29.19.05.04.08.09.1.15.02.05.03.12.03.2Z"/>
      <path class="cls-2" d="m225.07,355.8c0-.3.07-.58.21-.82s.35-.45.64-.63c.29-.18.66-.31,1.1-.4.45-.09.98-.14,1.6-.14h.58c.02-.1.03-.19.04-.29,0-.09.01-.18.01-.26,0-.34-.09-.6-.27-.77-.18-.17-.46-.26-.86-.26-.28,0-.53.02-.75.06-.22.04-.42.08-.58.13s-.31.09-.42.13c-.11.04-.19.06-.24.06s-.09-.01-.11-.04c-.02-.03-.03-.08-.03-.14,0-.07,0-.15.02-.25.01-.09.03-.18.05-.28.02-.09.05-.18.09-.26.04-.08.08-.14.12-.18.05-.05.14-.1.28-.15s.3-.1.49-.14c.19-.04.4-.08.64-.1.24-.03.48-.04.72-.04.41,0,.76.04,1.06.13.3.08.56.21.76.39.2.17.36.39.46.66s.15.59.15.96c0,.28-.03.59-.08.91-.05.32-.14.64-.26.96-.12.31-.27.62-.46.9-.19.29-.41.54-.68.76-.26.22-.57.39-.92.52-.35.13-.74.2-1.19.2-.38,0-.72-.04-.99-.14-.28-.09-.5-.21-.68-.36s-.31-.32-.4-.51c-.09-.19-.13-.39-.13-.59Zm1.57-.12c0,.17.07.31.2.42.13.11.33.17.58.17.21,0,.4-.04.57-.11s.31-.18.44-.31c.13-.13.24-.28.33-.46.09-.18.16-.36.22-.56h-.53c-.34,0-.62.02-.85.07-.23.04-.41.1-.55.18-.14.08-.24.17-.3.27-.06.1-.1.21-.1.33Z"/>
      <path class="cls-2" d="m236.74,357.05c-.02.09-.08.15-.2.19s-.3.06-.56.06c-.13,0-.24,0-.32-.01-.08,0-.15-.02-.2-.04-.05-.02-.08-.04-.1-.08-.01-.03-.02-.07,0-.12l.17-.91c-.06.13-.16.28-.3.43-.14.15-.3.29-.49.41-.19.12-.4.23-.63.3s-.47.12-.71.12-.45-.03-.63-.09-.33-.14-.46-.25c-.13-.11-.24-.23-.32-.37-.08-.14-.15-.3-.2-.46-.05-.16-.09-.33-.11-.5-.02-.17-.03-.34-.03-.5,0-.28.03-.57.08-.89s.13-.63.24-.94c.11-.31.24-.61.41-.9.17-.29.36-.54.59-.76.23-.22.5-.4.79-.53.3-.13.63-.2,1.01-.2.17,0,.32.02.47.05.15.04.29.08.41.15s.24.13.34.22c.1.08.19.17.26.27l.6-2.99s.03-.08.06-.11c.03-.03.08-.06.14-.09s.15-.04.25-.05.23-.02.39-.02.28,0,.38.02.18.03.23.05.09.05.11.09c.02.03.02.07.01.11l-1.66,8.33Zm-.79-3.97c-.15-.23-.31-.41-.49-.53-.18-.12-.39-.18-.62-.18-.17,0-.33.04-.48.12-.15.08-.28.19-.39.33s-.22.3-.3.48c-.09.18-.16.38-.22.58-.06.2-.1.41-.13.61s-.04.4-.04.58c0,.32.05.56.16.73.11.16.27.24.5.24.19,0,.38-.06.57-.17.19-.11.38-.26.54-.45.17-.19.32-.41.45-.67.13-.26.22-.53.28-.82l.18-.86Z"/>
      <path class="cls-2" d="m238.32,355.8c0-.3.07-.58.21-.82s.35-.45.64-.63c.29-.18.66-.31,1.1-.4.45-.09.98-.14,1.6-.14h.58c.02-.1.03-.19.04-.29,0-.09.01-.18.01-.26,0-.34-.09-.6-.27-.77-.18-.17-.46-.26-.86-.26-.28,0-.53.02-.75.06-.22.04-.42.08-.58.13s-.31.09-.42.13c-.11.04-.19.06-.24.06s-.09-.01-.11-.04c-.02-.03-.03-.08-.03-.14,0-.07,0-.15.02-.25.01-.09.03-.18.05-.28.02-.09.05-.18.09-.26.04-.08.08-.14.12-.18.05-.05.14-.1.28-.15s.3-.1.49-.14c.19-.04.4-.08.64-.1.24-.03.48-.04.72-.04.41,0,.76.04,1.06.13.3.08.56.21.76.39.2.17.36.39.46.66s.15.59.15.96c0,.28-.03.59-.08.91-.05.32-.14.64-.26.96-.12.31-.27.62-.46.9-.19.29-.41.54-.68.76-.26.22-.57.39-.92.52-.35.13-.74.2-1.19.2-.38,0-.72-.04-.99-.14-.28-.09-.5-.21-.68-.36s-.31-.32-.4-.51c-.09-.19-.13-.39-.13-.59Zm1.57-.12c0,.17.07.31.2.42.13.11.33.17.58.17.21,0,.4-.04.57-.11s.31-.18.44-.31c.13-.13.24-.28.33-.46.09-.18.16-.36.22-.56h-.53c-.34,0-.62.02-.85.07-.23.04-.41.1-.55.18-.14.08-.24.17-.3.27-.06.1-.1.21-.1.33Z"/>
      <path class="cls-2" d="m250.97,353.17c0,.28-.03.58-.08.9s-.13.63-.23.95c-.11.31-.24.61-.41.9-.17.29-.36.54-.6.76-.23.22-.5.4-.8.53-.3.13-.63.2-1,.2s-.67-.07-.94-.21c-.27-.14-.51-.35-.71-.63l-.09.48c-.02.09-.08.15-.2.19s-.3.06-.56.06-.43-.02-.52-.06c-.09-.04-.13-.11-.11-.19l1.67-8.35s.03-.08.06-.11c.03-.03.08-.06.15-.08.07-.02.15-.04.26-.05s.23-.02.39-.02.28,0,.38.02c.1.01.17.03.23.05.06.02.09.05.11.08.02.03.02.07.01.11l-.45,2.27c-.02.1-.04.2-.07.31-.03.11-.05.21-.09.32-.03.11-.06.21-.1.31-.03.1-.06.19-.09.26.08-.14.19-.27.33-.41.14-.14.3-.26.49-.37.18-.11.38-.2.59-.27.21-.07.42-.1.63-.1.24,0,.45.03.63.09.18.06.33.14.46.25.13.11.24.23.32.38.08.14.15.29.2.45.05.16.08.32.1.49.02.17.03.33.03.5Zm-1.64.16c0-.11,0-.22-.02-.33s-.05-.22-.1-.31c-.05-.09-.12-.17-.2-.23-.08-.06-.2-.09-.34-.09-.19,0-.38.06-.57.17-.19.11-.37.26-.54.46-.17.19-.32.42-.45.68-.13.26-.22.53-.28.83l-.18.86c.15.23.31.41.49.52.18.11.39.17.63.17.17,0,.33-.04.47-.12.14-.08.27-.19.39-.33.12-.13.22-.29.3-.48.09-.18.16-.37.22-.57.06-.2.1-.41.13-.61.03-.21.04-.41.04-.6Z"/>
      <path class="cls-2" d="m251.57,355.8c0-.3.07-.58.21-.82s.35-.45.64-.63c.29-.18.66-.31,1.1-.4.45-.09.98-.14,1.6-.14h.58c.02-.1.03-.19.04-.29,0-.09.01-.18.01-.26,0-.34-.09-.6-.27-.77-.18-.17-.46-.26-.86-.26-.28,0-.53.02-.75.06-.22.04-.42.08-.58.13s-.31.09-.42.13c-.11.04-.19.06-.24.06s-.09-.01-.11-.04c-.02-.03-.03-.08-.03-.14,0-.07,0-.15.02-.25.01-.09.03-.18.05-.28.02-.09.05-.18.09-.26.04-.08.08-.14.12-.18.05-.05.14-.1.28-.15s.3-.1.49-.14c.19-.04.4-.08.64-.1.24-.03.48-.04.72-.04.41,0,.76.04,1.06.13.3.08.56.21.76.39.2.17.36.39.46.66s.15.59.15.96c0,.28-.03.59-.08.91-.05.32-.14.64-.26.96-.12.31-.27.62-.46.9-.19.29-.41.54-.68.76-.26.22-.57.39-.92.52-.35.13-.74.2-1.19.2-.38,0-.72-.04-.99-.14-.28-.09-.5-.21-.68-.36s-.31-.32-.4-.51c-.09-.19-.13-.39-.13-.59Zm1.57-.12c0,.17.07.31.2.42.13.11.33.17.58.17.21,0,.4-.04.57-.11s.31-.18.44-.31c.13-.13.24-.28.33-.46.09-.18.16-.36.22-.56h-.53c-.34,0-.62.02-.85.07-.23.04-.41.1-.55.18-.14.08-.24.17-.3.27-.06.1-.1.21-.1.33Z"/>
      <path class="cls-2" d="m263.98,351.36c0,.06,0,.12-.02.18-.01.07-.03.14-.06.21-.14.39-.3.79-.47,1.21-.17.42-.36.84-.57,1.28-.22.44-.46.9-.74,1.37s-.59.96-.95,1.46l-1.55,2.2c-.04.05-.08.1-.14.14-.06.04-.13.07-.22.09-.09.02-.19.04-.31.05-.12.01-.26.02-.43.02-.18,0-.33,0-.44-.02-.11-.02-.19-.04-.24-.07-.05-.03-.07-.08-.07-.13,0-.05.03-.11.09-.18l1.44-1.9-.93-5.45c0-.06-.02-.11-.03-.17,0-.06-.01-.11-.01-.15,0-.08.01-.14.04-.18.03-.05.07-.08.14-.11s.15-.04.26-.05c.11-.01.24-.02.4-.02.17,0,.31,0,.41,0,.1,0,.17.02.23.04.05.02.09.05.1.09.02.04.03.1.04.16l.58,3.97h.01c.21-.32.4-.64.58-.96.17-.33.33-.66.48-.99.14-.34.28-.68.4-1.02.12-.35.23-.69.33-1.04,0-.04.03-.08.06-.11.03-.03.08-.06.15-.08.07-.02.16-.03.28-.04s.26-.02.44-.02c.27,0,.46.02.56.05.1.03.15.09.15.18Z"/>
    </g>
    <g>
      <path class="cls-2" d="m309.19,277.58c-.35-.04-.63-.1-.85-.18s-.39-.15-.51-.22c-.12-.07-.22-.14-.28-.2-.06-.06-.09-.16-.09-.29,0-.03,0-.08.01-.15,0-.07.02-.14.04-.22s.03-.16.05-.24c.02-.08.05-.16.08-.23.03-.07.06-.12.1-.17.04-.04.08-.06.12-.06.07,0,.16.03.26.1s.22.14.37.22.32.15.53.22c.2.07.45.1.73.1.25,0,.47-.03.66-.09s.35-.15.47-.26c.13-.11.22-.24.29-.38.07-.15.1-.31.1-.48,0-.16-.04-.29-.11-.41-.08-.12-.18-.23-.3-.33s-.27-.19-.43-.28c-.16-.09-.32-.18-.49-.29s-.33-.21-.49-.33c-.16-.12-.3-.26-.43-.42-.12-.16-.23-.34-.3-.55-.08-.21-.11-.45-.11-.72,0-.38.08-.73.23-1.05.15-.32.36-.6.63-.83.27-.23.59-.41.97-.54.38-.13.79-.19,1.24-.19.21,0,.41.02.6.05.19.03.36.07.52.12.16.05.29.1.4.16.11.06.19.11.23.15s.07.08.09.13c.02.04.03.1.03.17,0,.03,0,.08,0,.15,0,.06-.02.13-.03.21-.01.08-.03.15-.05.23-.02.08-.04.15-.07.22-.03.07-.06.12-.09.16-.03.04-.07.06-.11.06-.06,0-.13-.03-.22-.08s-.2-.11-.33-.17c-.13-.06-.28-.12-.45-.17-.17-.05-.37-.08-.59-.08s-.42.03-.58.09c-.16.06-.29.15-.39.25s-.18.22-.23.35c-.05.13-.07.26-.07.39,0,.15.04.29.11.4s.18.22.3.32c.13.1.27.2.43.29.16.09.33.19.5.29s.33.21.5.33c.16.12.31.26.44.42.13.16.23.34.3.55.08.21.11.44.11.71,0,.4-.08.77-.24,1.1-.16.34-.37.62-.64.86-.27.24-.57.42-.89.55-.32.13-.6.2-.82.23l.08.34c.03.11.05.21.07.3.02.09.03.19.03.28,0,.23-.04.43-.11.59s-.18.3-.31.41c-.13.11-.29.19-.48.24s-.4.08-.62.08c-.12,0-.24,0-.36-.01-.12,0-.22-.02-.32-.04-.1-.02-.19-.04-.26-.06s-.14-.05-.19-.07c-.05-.03-.08-.05-.1-.08-.02-.03-.03-.07-.03-.12,0-.04,0-.1.02-.18s.03-.15.05-.23.06-.14.1-.2c.04-.06.1-.09.17-.09h.72c.06,0,.12,0,.17-.02.05-.02.1-.04.14-.06.04-.03.07-.07.1-.11.02-.05.04-.1.04-.16,0-.04,0-.09,0-.15,0-.06-.02-.11-.03-.17l-.11-.45Z"/>
      <path class="cls-2" d="m313.75,276c0-.3.07-.58.21-.82s.35-.45.64-.63c.29-.18.66-.31,1.1-.4.45-.09.98-.14,1.6-.14h.58c.02-.1.03-.19.04-.29,0-.09.01-.18.01-.26,0-.34-.09-.6-.27-.77-.18-.17-.46-.26-.86-.26-.28,0-.53.02-.75.06-.22.04-.42.08-.58.13s-.31.09-.42.13c-.11.04-.19.06-.24.06s-.09-.01-.11-.04c-.02-.03-.03-.08-.03-.14,0-.07,0-.15.02-.25.01-.09.03-.18.05-.28.02-.09.05-.18.09-.26.04-.08.08-.14.12-.18.05-.05.14-.1.28-.15s.3-.1.49-.14c.19-.04.4-.08.64-.1.24-.03.48-.04.72-.04.41,0,.76.04,1.06.13.3.08.56.21.76.39.2.17.36.39.46.66s.15.59.15.96c0,.28-.03.59-.08.91-.05.32-.14.64-.26.96-.12.31-.27.62-.46.9-.19.29-.41.54-.68.76-.26.22-.57.39-.92.52-.35.13-.74.2-1.19.2-.38,0-.72-.04-.99-.14-.28-.09-.5-.21-.68-.36s-.31-.32-.4-.51c-.09-.19-.13-.39-.13-.59Zm1.57-.12c0,.17.07.31.2.42.13.11.33.17.58.17.21,0,.4-.04.57-.11s.31-.18.44-.31c.13-.13.24-.28.33-.46.09-.18.16-.36.22-.56h-.53c-.34,0-.62.02-.85.07-.23.04-.41.1-.55.18-.14.08-.24.17-.3.27-.06.1-.1.21-.1.33Z"/>
      <path class="cls-2" d="m329.04,277.24s-.03.08-.06.11c-.03.03-.08.06-.15.08-.07.02-.15.04-.26.05-.1,0-.23.02-.39.02s-.28,0-.38-.02c-.1-.01-.18-.03-.23-.05-.06-.02-.09-.05-.11-.08-.02-.03-.02-.07,0-.11l.68-3.4c.02-.1.03-.19.04-.29.01-.1.02-.19.02-.29,0-.2-.04-.36-.11-.48-.07-.12-.21-.18-.4-.18-.17,0-.34.06-.53.17-.18.11-.36.26-.52.45-.17.19-.32.41-.44.66-.13.25-.22.52-.28.8l-.51,2.56s-.03.08-.06.11c-.03.03-.08.06-.15.08-.07.02-.15.04-.26.05-.1,0-.23.02-.39.02s-.28,0-.38-.02c-.1-.01-.18-.03-.23-.05-.05-.02-.09-.05-.11-.08-.02-.03-.02-.07-.02-.11l.67-3.4c.03-.1.04-.2.05-.3.01-.1.02-.21.02-.3,0-.19-.04-.34-.12-.46-.08-.12-.21-.18-.39-.18-.17,0-.35.06-.53.17-.18.11-.36.26-.52.45-.17.19-.32.41-.44.66-.13.25-.22.52-.28.8l-.51,2.56s-.03.08-.06.11c-.03.03-.08.06-.15.08-.07.02-.15.04-.26.05-.11,0-.24.02-.39.02s-.28,0-.38-.02c-.1-.01-.18-.03-.23-.05-.06-.02-.09-.05-.11-.08-.02-.03-.02-.07-.01-.11l1.14-5.67s.03-.08.05-.11c.03-.03.07-.06.13-.08.06-.02.13-.03.22-.04s.2-.02.33-.02.24,0,.32.02c.08.01.15.03.19.04.05.02.08.04.09.08.01.03.02.07,0,.11l-.18.93c.09-.15.21-.3.36-.45s.32-.29.5-.42c.19-.12.39-.22.62-.3.22-.08.45-.12.69-.12s.46.03.64.1.33.16.44.27c.12.12.21.25.27.41.06.16.1.33.12.51.1-.15.22-.3.37-.46s.32-.29.51-.41c.19-.12.39-.22.61-.3.22-.08.45-.12.68-.12.3,0,.54.04.75.12.2.08.36.2.49.34.12.15.21.32.27.51.05.2.08.41.08.64,0,.15,0,.3-.03.45-.02.15-.04.3-.08.46l-.7,3.5Z"/>
      <path class="cls-2" d="m336.79,271.55c0,.07-.03.15-.09.24-.06.09-.15.21-.28.35l-2,1.88,1.3,2.73c.04.1.07.19.09.27.02.08.03.14.03.18,0,.05-.01.1-.04.13s-.07.07-.14.09-.15.04-.27.05c-.11,0-.25.02-.42.02s-.31,0-.41-.01c-.1,0-.18-.02-.24-.04-.06-.02-.1-.05-.13-.08-.03-.03-.05-.08-.06-.13l-1.34-2.98-.6,3s-.04.08-.07.11-.08.06-.15.08c-.07.02-.15.04-.26.05-.11,0-.23.02-.39.02s-.28,0-.38-.02c-.1-.01-.18-.03-.23-.04-.06-.02-.09-.04-.11-.08-.02-.03-.02-.07-.02-.11l1.68-8.35s.03-.08.06-.11c.03-.03.08-.06.15-.08.07-.02.15-.04.26-.05s.23-.02.39-.02.29,0,.38.02.18.03.23.05c.05.02.09.05.11.08.02.03.02.07.01.11l-.99,4.97,2.12-2.27c.04-.05.09-.09.14-.13s.11-.06.19-.09c.08-.02.17-.04.28-.04.11,0,.24-.01.4-.01s.29,0,.39.01c.11,0,.19.02.25.04.06.02.1.04.12.07.02.03.04.06.04.1Z"/>
      <path class="cls-2" d="m338.44,277.24s-.03.08-.06.11c-.03.03-.08.06-.15.08-.07.02-.15.04-.26.05-.11,0-.24.02-.39.02s-.28,0-.38-.02c-.1-.01-.18-.03-.23-.05-.06-.02-.09-.05-.11-.08-.02-.03-.02-.07-.01-.11l1.12-5.65s.03-.08.06-.11c.03-.03.08-.06.15-.08.07-.02.15-.04.25-.05s.23-.02.39-.02.28,0,.38.02.18.03.23.05c.06.02.09.05.11.08.02.03.02.07.01.11l-1.12,5.65Zm1.64-7.57c-.03.16-.07.29-.12.4-.05.11-.12.19-.2.26-.08.07-.19.11-.31.14-.12.03-.27.04-.46.04s-.32-.01-.43-.04c-.11-.03-.2-.07-.25-.14-.06-.07-.09-.15-.1-.26,0-.11,0-.24.04-.4.03-.15.07-.28.12-.39.05-.11.12-.19.2-.26.08-.07.19-.12.31-.15.12-.03.27-.04.46-.04s.32.01.43.04c.11.03.2.08.25.15.06.07.09.15.09.26,0,.11,0,.24-.04.39Z"/>
      <path class="cls-2" d="m344.73,271.49s0,.08-.01.16-.02.17-.04.27-.04.21-.06.31c-.03.11-.05.21-.09.3-.03.09-.07.17-.11.23-.04.06-.08.09-.13.09-.04,0-.08,0-.12-.02-.04-.01-.08-.03-.13-.04-.05-.02-.1-.03-.15-.04-.05-.01-.12-.02-.19-.02-.14,0-.3.06-.46.17-.16.11-.32.25-.47.44-.15.18-.28.39-.4.63s-.2.49-.25.75l-.51,2.55s-.03.08-.06.11c-.03.03-.08.06-.15.08-.07.02-.15.04-.26.05-.11,0-.24.02-.39.02s-.28,0-.38-.02c-.1-.01-.18-.03-.23-.05-.06-.02-.09-.05-.11-.08-.02-.03-.02-.07-.01-.11l1.13-5.67s.03-.08.06-.11c.03-.03.07-.06.13-.08.06-.02.13-.03.22-.04s.2-.02.33-.02.24,0,.32.02c.08.01.15.03.19.04.05.02.08.04.09.08.01.03.02.07,0,.11l-.18.9c.1-.18.22-.35.35-.5.13-.15.28-.29.43-.4.15-.11.31-.2.47-.26.16-.06.32-.1.48-.1.06,0,.13,0,.19.01.07,0,.13.02.18.03.06.01.11.03.15.05.04.02.08.04.1.06.03.03.04.07.04.12Z"/>
    </g>
    <g>
      <path class="cls-2" d="m260.08,214.52s0,.08,0,.14c0,.07-.02.14-.03.22-.02.08-.03.16-.06.25-.02.09-.05.17-.08.24-.03.07-.07.13-.11.18s-.09.07-.14.07h-2.06l-1.32,6.62s-.04.08-.07.11c-.04.03-.09.06-.16.08s-.16.04-.27.05c-.11.01-.25.02-.41.02s-.29,0-.4-.02-.19-.03-.24-.05-.1-.05-.11-.08c-.02-.03-.03-.07-.02-.11l1.32-6.62h-2.04c-.06,0-.11-.02-.13-.07s-.04-.11-.04-.19c0-.03,0-.08,0-.15,0-.07.02-.14.03-.22.01-.08.03-.17.06-.25.02-.09.05-.17.09-.24.03-.07.07-.13.11-.17.04-.04.09-.07.14-.07h5.79c.05,0,.09.02.12.07s.04.11.04.2Z"/>
      <path class="cls-2" d="m264.72,218.49c0,.3-.03.62-.09.94s-.15.64-.27.94c-.12.31-.28.59-.47.86-.19.27-.42.51-.69.71-.27.21-.58.37-.92.49-.35.12-.74.18-1.18.18s-.8-.05-1.11-.15c-.31-.1-.57-.25-.78-.44-.21-.19-.36-.43-.46-.71-.1-.28-.15-.6-.15-.97,0-.3.03-.62.09-.94.06-.32.15-.63.27-.94s.28-.59.47-.87c.19-.27.42-.51.69-.71.27-.2.58-.36.92-.48s.74-.18,1.17-.18.8.05,1.11.15c.31.1.57.25.78.44.21.19.36.43.46.71.1.28.15.6.15.97Zm-1.65.11c0-.18-.02-.34-.05-.47-.04-.14-.1-.25-.18-.35-.08-.1-.19-.17-.32-.22s-.29-.08-.47-.08c-.21,0-.4.04-.57.12-.17.08-.32.19-.45.33-.13.14-.25.3-.35.49-.1.18-.18.38-.24.58-.06.2-.11.41-.14.62-.03.21-.04.41-.04.6,0,.18.02.34.05.48.04.14.1.26.18.35.08.09.19.17.32.22s.29.08.47.08c.21,0,.4-.04.57-.12.17-.08.32-.19.45-.34.13-.14.25-.3.35-.49.1-.18.18-.38.24-.58.06-.21.11-.41.14-.62s.04-.41.04-.6Z"/>
      <path class="cls-2" d="m271.37,216.55s0,.1-.02.17c-.01.07-.03.14-.06.22-.16.46-.33.92-.52,1.37-.19.46-.4.91-.63,1.36s-.47.89-.74,1.32c-.27.43-.55.85-.86,1.25-.04.06-.09.11-.15.14-.06.04-.13.06-.21.08-.09.02-.19.03-.3.03-.12,0-.25,0-.4,0-.23,0-.42,0-.55-.02-.13-.01-.24-.03-.31-.05s-.12-.06-.15-.1c-.03-.04-.04-.1-.04-.17l-.67-5.09c0-.07,0-.13-.01-.19s0-.11,0-.17c0-.08,0-.15.03-.19.02-.04.06-.08.12-.11.06-.03.14-.05.25-.06.11-.01.25-.02.43-.02.17,0,.3,0,.4.01s.17.02.22.04.09.05.11.09c.02.04.03.08.03.13l.48,4.16v.16l.03-.06c.22-.33.41-.65.59-.98s.34-.67.49-1.02.29-.71.42-1.08c.13-.37.26-.77.39-1.18.01-.06.04-.1.07-.13.04-.03.09-.06.16-.08s.16-.04.27-.04c.11,0,.24-.01.4-.01s.29,0,.38.01.18.02.23.04.09.04.11.06.03.06.03.1Z"/>
      <path class="cls-2" d="m276.64,222.26s-.03.08-.05.11c-.03.03-.07.06-.13.08-.06.02-.13.03-.22.04-.09.01-.2.02-.33.02s-.24,0-.32-.02c-.08-.01-.15-.03-.19-.04-.05-.02-.08-.04-.09-.08-.02-.03-.02-.07,0-.11l.17-.92c-.08.15-.2.3-.35.45-.15.15-.32.29-.51.41-.19.12-.4.23-.63.3-.22.08-.45.11-.69.11-.29,0-.55-.04-.75-.12-.21-.08-.37-.19-.49-.34-.12-.14-.22-.31-.27-.51s-.09-.41-.09-.65c0-.14,0-.29.03-.44.02-.15.04-.3.07-.46l.7-3.51s.03-.08.06-.11c.03-.03.08-.06.15-.08.07-.02.15-.03.26-.04.11-.01.23-.02.39-.02s.29,0,.38.02c.1.01.18.03.23.04.05.02.09.04.11.08.02.03.03.07.02.11l-.67,3.4c-.02.09-.04.19-.05.29,0,.1-.02.2-.02.29,0,.1,0,.19.03.28.02.08.05.15.09.21s.1.1.16.13c.06.03.14.04.24.04.17,0,.35-.06.54-.17.19-.11.37-.27.54-.46.17-.2.32-.43.46-.7.13-.27.23-.56.3-.87l.48-2.45s.02-.08.06-.11c.04-.03.08-.06.15-.08.06-.02.15-.03.26-.04.11-.01.23-.02.39-.02s.29,0,.38.02c.1.01.18.03.23.04.06.02.1.04.11.08.02.03.02.07.01.11l-1.14,5.67Z"/>
      <path class="cls-2" d="m283.15,216.6s0,.08-.01.14c0,.06-.02.13-.03.2-.01.07-.03.14-.04.21-.01.07-.03.12-.04.16-.03.11-.07.21-.13.3-.05.09-.13.19-.23.3l-2.68,3.27h2.16c.06,0,.11.02.14.06s.04.11.04.2c0,.03,0,.08,0,.15,0,.07-.02.14-.03.21-.02.08-.03.15-.06.23s-.05.15-.08.21c-.03.06-.07.12-.11.16-.04.04-.09.06-.14.06h-3.74c-.08,0-.14-.02-.19-.07-.04-.05-.06-.12-.06-.23,0-.03,0-.08.01-.14,0-.06.02-.12.03-.18.01-.06.03-.12.04-.18.01-.06.03-.1.04-.14.01-.05.03-.09.04-.13.01-.04.04-.09.06-.13s.06-.1.1-.15c.04-.06.09-.12.16-.19l2.7-3.28h-1.93c-.06,0-.1-.02-.13-.06-.03-.04-.05-.12-.05-.22,0-.04,0-.1,0-.16,0-.07.02-.13.03-.21.02-.07.04-.15.06-.22s.05-.14.08-.2c.04-.06.07-.11.12-.15s.09-.06.14-.06h3.5c.09,0,.15.02.18.06.03.04.05.1.05.17Z"/>
    </g>
    <g>
      <path class="cls-2" d="m161.62,166.18s0,.09-.01.17c0,.07-.02.15-.04.24-.02.08-.04.17-.06.26s-.05.17-.09.24c-.03.07-.07.13-.11.17-.04.04-.09.07-.14.07-.04,0-.11-.01-.21-.03-.09-.02-.21-.06-.34-.11-.13-.05-.28-.12-.44-.21-.16-.08-.32-.19-.49-.31-.17-.12-.33-.26-.5-.42-.17-.16-.32-.34-.46-.54-.22.1-.47.18-.74.23s-.57.08-.9.08c-.51,0-.96-.06-1.36-.17-.39-.11-.72-.29-.99-.53-.27-.24-.47-.54-.61-.89-.14-.36-.21-.78-.21-1.27,0-.4.03-.81.1-1.25.07-.43.18-.86.34-1.28s.36-.81.6-1.19c.25-.38.55-.71.9-1,.35-.29.76-.52,1.23-.68s1-.25,1.6-.25c.51,0,.96.06,1.35.17.39.12.72.29.99.53.27.24.47.54.61.9.14.36.21.79.21,1.28,0,.24-.01.5-.04.76s-.07.54-.13.81c-.06.27-.14.54-.23.82-.1.27-.21.54-.34.8-.13.26-.29.51-.47.74-.18.23-.38.46-.61.66.2.21.38.37.55.48s.32.2.45.27.24.11.32.14c.09.03.14.06.17.09s.05.06.06.09c0,.03.01.08.01.14Zm-1.5-5.64c0-.26-.03-.49-.09-.7-.06-.21-.15-.39-.28-.53-.13-.14-.29-.25-.5-.33-.21-.08-.46-.12-.75-.12-.37,0-.69.07-.97.21s-.53.33-.73.56-.38.49-.52.78c-.14.29-.25.59-.34.89s-.14.6-.18.89c-.04.29-.05.54-.05.75,0,.26.03.5.09.71.06.21.15.38.28.52s.3.25.5.33.46.11.75.11c.36,0,.69-.07.96-.21s.52-.32.73-.55.38-.49.52-.78.25-.59.34-.89c.08-.3.14-.59.18-.88.04-.29.05-.54.05-.77Z"/>
      <path class="cls-2" d="m167.66,165.63c-.02.09-.08.15-.2.19s-.3.06-.56.06c-.13,0-.24,0-.32-.01-.08,0-.15-.02-.2-.04-.05-.02-.08-.04-.1-.08-.01-.03-.02-.07,0-.12l.18-.91c-.06.13-.16.28-.3.43-.14.15-.3.29-.49.41-.19.12-.4.22-.63.3-.23.08-.47.12-.71.12-.34,0-.62-.06-.84-.18-.22-.12-.4-.28-.54-.48-.13-.2-.23-.43-.29-.69-.06-.26-.09-.53-.09-.81,0-.27.03-.56.08-.87.05-.32.13-.63.24-.94.11-.31.24-.61.41-.9.16-.29.36-.55.59-.77.23-.22.5-.4.79-.54.3-.13.64-.2,1.01-.2.35,0,.66.07.93.22.27.15.51.36.71.64l.1-.5c.02-.09.08-.15.2-.19s.3-.06.56-.06c.13,0,.23,0,.32.02s.15.03.2.04c.05.02.08.04.1.08.02.03.02.07.01.11l-1.14,5.67Zm-.79-3.97c-.15-.23-.31-.41-.49-.52s-.39-.17-.62-.17c-.18,0-.34.04-.49.13-.15.08-.28.2-.39.34-.11.14-.21.31-.3.49-.09.19-.16.38-.22.58-.06.2-.1.4-.13.61-.03.21-.04.39-.04.57,0,.13,0,.25.03.36.02.11.05.22.1.3s.12.16.2.21c.08.05.19.08.32.08.19,0,.38-.06.57-.17.19-.11.38-.26.54-.46.17-.19.32-.42.45-.67.13-.26.22-.53.28-.82l.18-.86Z"/>
      <path class="cls-2" d="m174.17,159.98s0,.08-.01.14-.02.13-.03.2c-.01.07-.03.14-.04.21-.01.07-.03.12-.04.16-.03.11-.07.21-.13.3-.05.09-.13.19-.23.3l-2.68,3.27h2.16c.06,0,.11.02.14.06.03.04.04.11.04.2,0,.03,0,.08,0,.15,0,.07-.02.14-.03.21s-.03.15-.06.23-.05.15-.08.21c-.03.06-.07.12-.11.16-.04.04-.09.06-.14.06h-3.74c-.08,0-.14-.02-.18-.07-.04-.05-.06-.12-.06-.23,0-.03,0-.08.01-.14,0-.06.02-.12.03-.18.01-.06.03-.12.04-.18.01-.06.03-.1.04-.14.01-.05.03-.09.04-.13.01-.04.04-.09.06-.13.03-.05.06-.1.1-.15.04-.06.09-.12.16-.19l2.7-3.28h-1.93c-.06,0-.1-.02-.14-.06-.03-.04-.05-.12-.05-.22,0-.04,0-.1,0-.16,0-.07.02-.13.03-.21.01-.07.03-.15.06-.22s.05-.14.08-.2c.03-.06.07-.11.12-.15.04-.04.09-.06.14-.06h3.5c.09,0,.15.02.18.06.03.04.05.1.05.17Z"/>
      <path class="cls-2" d="m179.49,165.63c-.02.09-.08.15-.2.19s-.3.06-.56.06c-.13,0-.24,0-.32-.01-.08,0-.15-.02-.2-.04-.05-.02-.08-.04-.1-.08-.01-.03-.02-.07,0-.12l.18-.91c-.06.13-.16.28-.3.43-.14.15-.3.29-.49.41-.19.12-.4.22-.63.3-.23.08-.47.12-.71.12-.34,0-.62-.06-.84-.18-.22-.12-.4-.28-.54-.48-.13-.2-.23-.43-.29-.69-.06-.26-.09-.53-.09-.81,0-.27.03-.56.08-.87.05-.32.13-.63.24-.94.11-.31.24-.61.41-.9.16-.29.36-.55.59-.77.23-.22.5-.4.79-.54.3-.13.64-.2,1.01-.2.35,0,.66.07.93.22.27.15.51.36.71.64l.1-.5c.02-.09.08-.15.2-.19s.3-.06.56-.06c.13,0,.23,0,.32.02s.15.03.2.04c.05.02.08.04.1.08.02.03.02.07.01.11l-1.14,5.67Zm-.79-3.97c-.15-.23-.31-.41-.49-.52s-.39-.17-.62-.17c-.18,0-.34.04-.49.13-.15.08-.28.2-.39.34-.11.14-.21.31-.3.49-.09.19-.16.38-.22.58-.06.2-.1.4-.13.61-.03.21-.04.39-.04.57,0,.13,0,.25.03.36.02.11.05.22.1.3s.12.16.2.21c.08.05.19.08.32.08.19,0,.38-.06.57-.17.19-.11.38-.26.54-.46.17-.19.32-.42.45-.67.13-.26.22-.53.28-.82l.18-.86Z"/>
      <path class="cls-2" d="m185.03,162.69l1.02,2.82c.02.07.03.13.01.18-.01.05-.05.08-.12.11-.07.03-.16.05-.28.06-.12,0-.28.02-.48.02-.18,0-.32,0-.42-.01-.1,0-.18-.02-.24-.04-.05-.02-.09-.04-.11-.07-.02-.03-.03-.06-.04-.1l-.69-2-1.43,2.01s-.05.07-.09.1c-.03.03-.08.05-.16.07-.07.02-.17.03-.29.04-.12,0-.28.01-.49.01-.18,0-.33,0-.44-.02-.11-.01-.19-.03-.24-.06s-.07-.06-.07-.11c0-.04.03-.1.08-.17l2.15-2.82-.95-2.62c-.03-.08-.03-.14-.03-.19,0-.05.04-.09.1-.12.06-.03.15-.05.27-.06.12-.01.28-.02.48-.02.17,0,.31,0,.41,0,.1,0,.18.02.23.03s.09.03.11.06c.02.03.04.06.05.1l.66,1.89,1.37-1.89s.05-.06.08-.09c.03-.03.08-.05.14-.06.06-.02.15-.03.25-.04.1,0,.24-.01.41-.01.19,0,.35,0,.47.01.12,0,.2.03.26.05.06.03.08.06.07.1,0,.04-.04.1-.09.18l-1.97,2.63Z"/>
    </g>
  </g>
</svg>