<?xml version="1.0" encoding="utf-8"?>
<!-- Generator: Adobe Illustrator 27.1.1, SVG Export Plug-In . SVG Version: 6.00 Build 0)  -->
<svg version="1.1" id="Layer_1" xmlns="http://www.w3.org/2000/svg" xmlns:xlink="http://www.w3.org/1999/xlink" x="0px" y="0px"
	 viewBox="0 0 750 750" style="enable-background:new 0 0 750 750;" xml:space="preserve">
<g>
	<g>
		<path class="st0" d="M577.01,531.02c1.01-1,1.45-2.44,2.61-3.23c0.97-0.67,2.25-0.84,3.28-1.57c1.2-0.85,2.74-2.28,4.34-2.35
			c1.65-0.07,3.31,1.23,4.96,1.68c2.92,0.8,5.54,1.12,8.53,0.39c3.25-0.8,5.75-2.74,9.21-2.81c1.74-0.03,4.12-0.36,5.81-0.02
			c1.89,0.38,2.65,2,4.59,0.78c2.41-1.51,4.41-4.85,5.84-7.28c1.99-3.37,3.66-6.95,5.63-10.34c1.57-2.71,2.95-5.51,4.52-8.22
			c1.15-1.98,1.97-3.98,3.22-5.92c0.83-1.29,1.07-2.42,1.43-3.89c0.41-1.7,1.31-3.26,1.64-4.97c0.83-4.23-1.43-10.12,1.42-13.75
			c0.44-0.56,1.12-0.96,1.33-1.64c0.28-0.89-0.05-2.42-0.05-3.39c0-1.53,0.11-3.12,0.01-4.64c-0.07-1.19-0.44-1.31-0.69-2.25
			c-0.54-2.02,0.87-4.24,1.91-5.83c1.55-2.36,3.12-4.93,5.05-6.96c2.98-3.14,3.39-7.88,5.78-11.28c0.58-0.82,1.37-1.34,2.11-1.92
			c-0.02-0.12-0.05-0.24-0.06-0.38c-0.3-2.3,0.29-4.6-0.28-6.84c-0.51-2-1.19-3.58-2.35-5.41c-1.05-1.66-2.25-3.09-3.82-4.23
			c-1.67-1.21-3.04-2.13-3.87-4.14c-1.54-3.74,0.1-6.69,2-9.84c1.94-3.22,3.31-6.81,4.86-10.2c1.7-3.73,3.04-8.04,5.78-11.21
			c1.57-1.81,2.51-3.98,3.53-6.21c1.44-3.16,1.95-7.1,2.5-10.49c0.55-3.39-0.11-6.39,1.04-9.73c0.81-2.36,1.78-4.81,3.58-6.68
			c1.63-1.7,3.78-3.14,5.49-4.78c3.97-3.8,6.28-9.55,7.27-14.93c0.27-1.5,0.03-3.24,0.05-4.77c0.02-1.48-0.55-2.45-1.09-3.83
			c-1.72-4.42-5.09-8.15-7.13-12.45c-2.73-5.79-5.08-11.82-7.72-17.66c-1.35-2.98-2.52-4.74-5.05-6.92
			c-1.8-1.55-2.91-2.74-3.57-4.94c-0.45-1.52-1.41-2.74-1.84-4.26c-0.25-0.89-0.54-1.59-0.99-2.41c-1.64-3.04-4.07-5.05-7.05-6.74
			c-1.64-0.93-2.69-1.85-3.53-3.52c-0.92-1.83-0.93-3.28-1.33-5.16c-0.84-3.87-5.06-7.39-8.32-9.06c-0.93-0.48-1.59-1.11-2.08-1.84
			c-1.43,1.92-0.43,0.87-2.42,2.86c-2.4,2.39-4.05,5.36-6.42,7.74c-1.19,1.19-2.64,2.01-3.87,3.17c-2.49,2.37-4.7,4.97-7.44,7.08
			c-2.31,1.78-5.16,3.34-6.49,6.1c-0.88,1.83-0.79,3.98-1.64,5.88c-1.04,2.34-2.98,4.5-4.71,6.38c-2.02,2.2-4.35,3.46-6.57,5.41
			c-1.63,1.43-3.06,3.08-4.73,4.47c-2.86,2.38-5.84,4.41-7.77,7.71c-2.8,4.8,1.25,13.37-4.46,16.91c-2.07,1.28-4.69-0.45-7.02-0.41
			c-2.29,0.03-3.69,0.53-5.89-0.27c-1.03-0.37-1.66-0.65-2.82-0.71c-3.68-0.18-6.82-0.34-10.46-1.24c-4.04-1-7.92-1.22-12.04-1.61
			c-3.51-0.33-8,0.14-10.79-2.31c-0.66-0.57-1.08-1.7-1.72-2.14c-0.66-0.45-0.39-0.21-1.32-0.41c-2.01-0.44-4.81,0.02-6.91,0.01
			c-3.4-0.01-6.79,0.06-10.18,0.37c-2.48,0.23-4.7,0.16-7.15-0.21c-1.72-0.26,0.31-0.53-3.32,0.07c-3.44,0.57-8.18,1.01-10.84,2.99
			c-1.44,1.07-2.01,2.33-2.99,3.86c-2.23,3.45-1.11,7.12-2.32,10.79c-1.49,4.5-2.95,8.82-5.57,12.8c-1.61,2.45-3.4,4.88-4.81,7.45
			c-3.78,6.87-8.27,12.75-15.59,16.14c-3.46,1.6-6.89,3.34-10.26,5.1c-2.52,1.32-5.24,2.33-7.71,3.74c-3.64,2.07-6.03,5.87-9.6,8
			c-2.26,1.35-5.04,1.58-7.21,2.86c-5.92,3.47-11.93,6.48-17.74,10.24c-1.18,0.76-2.89,1.44-3.43,2.75c0-0.01-0.17,1.16-0.19,1.29
			c-0.17,0.91-0.22,1.89-0.38,2.83c-0.24,1.44-0.6,2.36-0.59,3.92c0.01,2.15,0.16,3.92,0.49,6c0.49,3.05,0.85,6.06,1.44,9.11
			c0.45,2.29,1.3,4.52,1.31,6.86c0.01,1.45-0.27,2.79-0.65,4.17c-0.12,0.43-0.25,0.79-0.39,1.13c1.38,0.81,1.66,1.59,2.79,3.4
			c1.32,2.1,2.2,4.56,3.69,6.6c0.9,1.23,1.41,2.93,2.41,4.05c0.79,0.89,2.29,1.54,3.37,2.07c0.82,0.4,1.4,0.49,2.27,0.64
			c0.67,0.11,1.09,0.47,1.65,0.59c1.39,0.31,3.36,0.11,4.64,0.82c2.87,1.59,0.78,5.36,0.77,7.6c-0.01,1.78-0.75,3.35-0.66,5.14
			c0.05,0.87,0.44,1.44,0.6,2.25c0.17,0.86-0.01,1.75,0.03,2.63c0.05,1.09,0.53,1.91,0.7,2.95c0.26,1.62-0.23,3.27,0.11,4.91
			c0.36,1.74,0.35,3.52,1.06,5.04c1.19,2.52,2.85,5.54,5.19,7.18c1.14,0.8,2.55,1.15,3.58,2.04c1.3,1.14,2.35,2.87,2.75,4.53
			c0.4,1.67,0.46,3.48,0.77,5.17c0.29,1.59,0.7,3.92,2.07,4.99c0.21,0.16,0.62,0.06,0.84,0.2c0.34,0.22,0.65,0.65,0.97,0.85
			c0.57,0.36,1.23,0.55,1.93,0.85c1.6,0.68,3.48,1.56,4.77,2.75c0.88,0.81,1.67,1.88,2.68,2.58c1.32,0.92,3.36,0.85,4.91,1.28
			c2.14,0.6,3.98,1.09,6.03,1.93c1.1,0.45,2.35,0.59,3.36,1.25c1.06,0.7,1.88,1.79,2.86,2.6c0.77,0.64,1.98,1.12,2.15,2.28
			c0.13,0.85-0.09,0.8-0.39,1.55c-0.75,1.89-1.89,3.76-1.94,5.84c-0.04,1.51,0.37,2.91,1.25,3.99c1.38,1.67,3.76,2.14,5.52,3.32
			c1.35,0.91,2.77,2.04,3.88,3.29c1.48,1.67,1.84,3.68,2.31,5.8c0.42,1.92,0.97,3.9,1.23,5.79c0.46,3.34-0.27,7.28-1.29,10.44
			c-1.46,4.47-3.25,10.27-1,14.67c0.38,0.75,0.85,1.07,1.01,1.89c0.15,0.76-0.02,1.77-0.02,2.57c0,1.36-0.22,2.94-0.01,4.28
			c0.12,0.82,0.44,1.08,0.68,1.83c0.5,1.61,0.97,3.53,1.27,5.2c0.05,0.26,0.1,0.48,0.16,0.69c0.41-0.3,0.81-0.61,1.13-0.96
			c1.16-1.25,1.81-2.84,3.04-4.11c2.62-2.69,4.52-5.62,6.8-8.57c2.55-3.3,5.45-7.16,8.83-9.62c3.54-2.58,7.96-4.33,11-7.58
			c2.17-2.33,4.49-5.7,5.53-8.71c0.93-2.68,1.52-5.22,2.75-7.82c1.08-2.28,2.49-4.11,3.71-6.26c0.73-1.28,1.08-2.89,2.04-4.06
			c0.56-0.68,1.36-1.07,1.96-1.7c0.92-0.98,1.79-2.35,2.6-3.44c0.52-0.7,0.99-1.83,1.64-2.39c1.47-1.28,6.83-1.75,8.57-0.98
			c0.31,0.14,0.47,0.79,0.78,0.98c1.02,0.63,2.21,0.97,3.26,1.59c4.04,2.4,8.1,3.11,12.6,4.37c2.74,0.77,5.23,1.37,7.85,1.69
			c0-0.67,0.02-1.34,0.02-2c0-0.11,0-0.22,0-0.33c0,0.11,0,0.22,0,0.33c0,0.66-0.02,1.33-0.02,2c1.27,0.15,2.57,0.24,3.96,0.24
			C573.81,532.79,575.11,532.89,577.01,531.02z"/>
		<path class="st0" d="M278.53,457.13c0.9,1.45,1.92,2.73,2.74,4.25c0.82,1.53,1.42,2.49,1.83,4.1c0.09,0.36,0.47,0.39,0.53,0.76
			c0.07,0.39-0.07,0.88,0.04,1.25c0.24,0.88,0.39,1.68,0.64,2.57c0.36,1.3,0.96,2.53,1.32,3.83c0.48,1.7,0.62,3.25,0.63,5.17
			c0,1.82,0,3.65,0,5.47c0,0.85-0.06,1.73-0.01,2.57c0.06,1.16,0.6,2.06,0.67,3.22c0.05,0.81-0.24,1.83-0.05,2.61
			c0.19,0.8,0.58,0.98,0.69,1.88c0.11,0.83-0.03,1.63,0.13,2.45c0.12,0.62,0.78,1.59,0.99,2.22c0.56,1.74,0.9,2.54,2.57,3.23
			c2.31,0.95,5.38,1.42,8.01,1.79c1.49,0.21,3.76,0.75,5.25,0.52c1.32-0.2,2.22-0.54,3.62-0.53c1.5,0.01,3.04-0.15,4.52,0.13
			c2.12,0.4,4.15,1.2,6.28,1.64c3.13,0.65,6.32,1.67,9.04,3.36c1.87,1.16,3.36,2.93,5.24,4.04c6.34,3.75,7.11,10.06,9.53,16.46
			c0.97,2.56,2.58,3.92,4.34,5.92c0.87,0.98,1.31,1.37,1.77,2.54c0.32,0.82,0.59,1.75,1.03,2.41c-2.56,2.5-5.13,5.68-3.05,9.38
			c0.98,1.73,2.36,1.85,4.18,2.43c1.5,0.48,3.1,1.4,4.59,2.02c1.74,0.73,3.53,1.42,5.26,2.17c2.27,0.98,4.35,3.04,5.84,4.91
			c1.44,1.81,2.65,4.07,5.08,4.39c2.5,0.33,5.5-1.34,7.88-2.07c1.94-0.59,3.59-1.82,5.6-2.33c1.74-0.45,3.15-0.67,3.85-2.53
			c1.21-3.21,1.43-7.76,1.43-11.13c0-2.35-0.65-4.52-0.72-6.83c-0.09-2.89,0.74-5.76,0.71-8.67c-0.09-8.61,1.27-17.03,1.27-25.65
			c0-4.37-0.49-8.84,0.8-13.04c0.95-3.06,2.18-6.34,2.43-9.52c0.13-1.66,0.58-3.26,0.68-4.94c0.12-2.28-0.45-4.56-0.86-6.79
			c-0.94-5.19-2.33-10.51-2.42-15.78c-0.06-3.18,0.09-6,0.81-9.11c0.59-2.56,1.33-4.82,2.59-7.15c1.24-2.3,2.15-4.99,3.81-7.03
			c1.25-1.54,2.12-2.38,2.74-3.9c-0.25-0.14-0.51-0.29-0.84-0.44c0.33,0.15,0.6,0.29,0.84,0.44c0.14-0.34,0.27-0.71,0.39-1.13
			c0.38-1.39,0.66-2.72,0.65-4.17c-0.02-2.33-0.87-4.57-1.31-6.86c-0.6-3.05-0.95-6.06-1.44-9.11c-0.34-2.08-0.48-3.86-0.49-6
			c-0.01-1.56,0.35-2.48,0.59-3.92c0.16-0.94,0.21-1.92,0.38-2.83c0.02-0.13,0.2-1.3,0.19-1.29c0.54-1.31,2.25-1.98,3.43-2.75
			c5.81-3.76,11.83-6.77,17.74-10.24c2.17-1.27,4.94-1.51,7.21-2.86c3.58-2.13,5.96-5.93,9.6-8c2.47-1.4,5.19-2.42,7.71-3.74
			c3.38-1.77,6.8-3.5,10.26-5.1c7.33-3.39,11.81-9.27,15.59-16.14c1.41-2.57,3.2-5,4.81-7.45c2.62-3.98,4.08-8.3,5.57-12.8
			c1.21-3.67,0.09-7.34,2.32-10.79c0.99-1.53,1.55-2.79,2.99-3.86c2.66-1.97,7.4-2.41,10.84-2.99c3.62-0.6,1.6-0.34,3.32-0.07
			c2.44,0.37,4.66,0.44,7.15,0.21c3.39-0.31,6.78-0.38,10.18-0.37c2.1,0.01,4.91-0.45,6.91-0.01c0.93,0.21,0.66-0.04,1.32,0.41
			c0.64,0.44,1.07,1.57,1.72,2.14c2.79,2.44,7.28,1.97,10.79,2.31c4.11,0.39,8,0.61,12.04,1.61c3.63,0.9,6.78,1.06,10.46,1.24
			c1.16,0.06,1.79,0.34,2.82,0.71c2.2,0.8,3.6,0.3,5.89,0.27c2.33-0.03,4.96,1.69,7.02,0.41c5.71-3.54,1.65-12.11,4.46-16.91
			c1.92-3.29,4.91-5.32,7.77-7.71c1.67-1.39,3.1-3.04,4.73-4.47c2.22-1.94,4.54-3.2,6.57-5.41c1.73-1.88,3.67-4.04,4.71-6.38
			c0.84-1.89,0.75-4.05,1.64-5.88c1.33-2.76,4.19-4.32,6.49-6.1c2.73-2.11,4.94-4.72,7.44-7.08c1.22-1.16,2.68-1.98,3.87-3.17
			c2.37-2.38,4.02-5.34,6.42-7.74c2-1.99,0.99-0.94,2.42-2.86c-1.33-1.96-1.43-4.61-2.42-6.83c-0.41-0.93-0.81-2.25-1.9-2.57
			c-1.38-0.41-3.1,0.25-4.54-0.11c-3.46-0.88-6.02-2.8-9.01-4.84c-2.59-1.78-5.58-3.23-8.36-4.52c-2.36-1.09-4.6-2.58-7.08-3.68
			c-4.86-2.16-9.36-5.55-14.14-7.72c-2.4-1.09-4.87-1.56-7.08-2.9c-0.54-0.33-1.12-0.75-1.64-1.22c-0.83,0.36-1.87,0.27-3.2-0.26
			c-2.79-1.11-5.71-1.76-8.47-3.01c-2.14-0.97-3.7-2.09-6.2-1.79c-2.54,0.31-5.2,0.62-7.74,1c-3.55,0.54-7.06,1.42-10.62,2
			c-2.98,0.49-5.1,0.38-8.18,0c-8.57-1.06-16.93-0.76-24.68-5.04c-2.34-1.29-3.85-3.86-6.44-4.73c-0.69-0.23-1.42-0.26-2.12-0.44
			c-0.96-0.24-1.63-0.79-2.44-1.31c-0.96-0.62-2.02-1.04-2.88-1.82c-1.02-0.92-1.86-1.81-2.58-2.99c-0.71-1.16-0.97-2.2-1.61-3.34
			c-1.23-2.22-3.26-3.36-5.04-5.04c-0.97-0.91-2.2-1.24-3.32-1.82c-0.53-0.27-1.11-0.62-1.72-0.76c-0.32-0.08-0.57-0.04-0.87-0.1
			c-0.44-0.09-0.73-0.31-1.1-0.39c-0.93-0.21-1.05-0.19-1.72-0.89c-0.52-0.55-1.1-1.05-1.68-1.51c-1.13-0.89-2.33-1.01-3.65-1.5
			c-0.73-0.28-1.4-0.67-2.12-0.97c-1.17-0.49-1.52-0.26-2.59,0.02c-0.76,0.2-1.38,0.17-2.15,0.42c-0.84,0.27-1.73,0.66-2.57,0.87
			c-1.67,0.42-3.85,0.09-5.56,0.1c-2.39,0.01-5.33,0.09-7.43-1.17c-0.55-0.33-0.92-0.67-1.6-0.87c-0.76-0.23-1.47-0.45-2.17-0.86
			c-1.61-0.94-3.06-2.2-4.36-3.52c-1.35-1.37-2.74-2.58-4.17-3.87c-0.55-0.5-1.07-1-1.58-1.5c-0.13,0.19-0.24,0.38-0.25,0.63
			c-0.06,1.2-0.75,2.24-1.38,3.22c-0.69,1.07-1.93,2.16-3.16,2.58c-1.9,0.64-3.84,1.45-5.52,2.55c-0.69,0.45-1.22,0.99-1.96,1.38
			c-0.7,0.37-1.46,0.62-2.17,0.98c-0.84,0.43-1.36,0.79-2.28,0.96c-0.56,0.1-1.08,0.18-1.64,0.36c-5.8,1.79-11.28,4.29-16.35,7.6
			c-1.59,1.04-3.1,2.06-4.77,2.95c-1.97,1.05-3.72,2.6-5.54,3.89c-2.12,1.5-4.43,2.8-6.67,4.13c-1.97,1.17-3.15,2.56-4.48,4.4
			c-1.58,2.2-2.75,4.61-3.59,7.19c-0.79,2.45-1.19,5.52-2.85,7.61c-0.42,0.53-0.83,1.4-1.34,1.8c-0.49,0.39-1.26,0.81-1.83,1.12
			c-1.11,0.61-2.42,0.37-3.64,0.38c-1.1,0.01-2.05,0.05-3.1-0.32c-1.75-0.61-2.74,0.01-4.38,0.67c-1.61,0.64-1.9,0.2-2.26-1.22
			c-0.17-0.66-0.44-2.12-0.86-2.63c-0.83-1.01-2.17-0.46-3.24-0.69c-0.63-0.14-1.58-0.81-2.12-1.16c-0.73-0.47-1.37-1.33-2.07-1.88
			c-1.67-1.31-2.19-3.55-3.21-5.34c-1.67-2.92-5.32-3.67-8.26-4.75c-1.17-0.43-2.65-0.77-3.55-1.69c-0.2-0.2-0.6-1.04-1.02-0.58
			c-0.13,0.14-0.1,1.13-0.12,1.24c-0.06,0.39-0.22,0.68-0.26,1.1c-0.1,1.1-0.26,2.25-0.33,3.35c-0.05,0.85,0.01,1.55-0.22,2.39
			c-0.22,0.82-0.5,1.67-0.67,2.5c-0.34,1.68-0.15,3.82-0.08,5.53c0.06,1.33,0.33,2.81,0.83,4.02c0.48,1.15,1.19,1.76,1.89,2.71
			c2.88,3.87,2.13,8.97,2.67,13.45c0.23,1.92,0.61,3.81,1.09,5.68c0.41,1.62,1.17,3.01,1.81,4.53c0.69,1.66,1.33,3.2,2.37,4.68
			c0.51,0.73,1.05,1.44,1.51,2.21c0.51,0.86,0.79,1.67,0.95,2.66c0.25,1.57,0.72,3.18,0.76,4.77c0.05,1.99-0.04,3.98-0.02,5.97
			c0.02,1.87-0.15,4.33-1.29,5.9c-1.51,2.09-2.97,4.36-4.2,6.64c-1.21,2.21-2.28,4.62-4.17,6.36c-1.71,1.58-3.11,3.45-4.83,5.03
			c-1.73,1.59-3.27,3.08-5.42,4.09c-1.47,0.7-2.95,1.3-4.44,1.98c-2.5,1.13-4.56,2.66-6.8,4.2c-0.69,0.48-1.16,0.92-1.98,1.21
			c-1.27,0.45-2.56,0.89-3.84,1.29c-1.21,0.38-4.47,1.59-5.81,0.65c-0.32-0.23-0.43-0.56-0.71-0.81c-0.94-0.82-2.47-1.12-3.62-1.42
			c-0.77-0.2-1.29-0.29-2.13-0.28c-0.53,0-1.2,0.09-1.7-0.03c-0.57-0.14-1.23-0.67-1.76-0.91c-0.08,0.62-0.45,1.11-0.4,1.74
			c0.05,0.68,0.3,1.22,0.33,1.94c0.02,0.61,0.34,0.89,0.26,1.44c-0.05,0.33-0.24,0.6-0.27,0.97c-0.02,0.39,0.09,0.82,0.02,1.22
			c-0.29,1.84-0.95,3.63-1.23,5.49c-0.2,1.36-0.64,2.53-0.71,3.92c-0.05,1.05-0.51,2.33-0.97,3.22c-0.25,0.47-0.3,0.93-0.56,1.38
			c-0.23,0.4-0.74,0.85-1.12,1.12c-0.96,0.67-1.89,1-2.58,2c-0.23,0.33-0.45,0.67-0.66,1.01c2.04,0.72,3.58,2.67,3.35,5.01
			c-0.2,2.06-1.01,4.12-1.45,6.13c-0.25,1.14-0.3,2.29-0.54,3.42c-0.25,1.17-1.17,2.63-1.02,3.83c0.91,0.25,2.02-0.09,2.98,0.07
			c1.02,0.17,1.93,0.55,2.68,1.26c1.26,1.19,3.17,3.67,2.85,5.47c-0.4,2.23-3.05,5.22-0.78,7.31c0.63,0.4,1.3,0.71,2.01,0.94
			c0.86,0.46,1.7,0.96,2.51,1.5c2.02,1.27,3.9,2.06,6.17,2.67c1.11,0.3,0.84,0.42,1.73,0.95c1.28,0.76,3.11,0.53,4.51,1.08
			c1.37,0.54,2.8,1.35,3.87,2.36c0.86,0.8,0.89,0.96,1.88,1.28c0.95,0.3,1.87,0.71,2.83,1.06c1.86,0.67,3.87,0.83,5.73,1.48
			c1.16,0.41,1.94,1.3,3.08,1.67c1.47,0.47,3.2,0.72,4.73,1.11c1.27,0.32,3.22,0.11,4.21,1.13c0.87,0.89,0.96,2.68,1.39,3.76
			c0.5,1.27,1.18,2.21,1.96,3.28c1.28,1.75,1.45,3.64,1.82,5.72c0.26,1.47,0.64,2.96,0.78,4.44c0.16,1.75-0.21,3.51-0.48,5.23
			c-0.2,0.98-0.32,1.97-0.35,2.97c0.1,1,0.2,1.99,0.3,2.99c-0.02,1.55-0.59,3.13-1.12,4.56c-0.42,1.13-0.87,2.35-1.6,3.33
			c-0.97,1.3-2.29,2.11-3.07,3.6c-0.88,1.69-1.64,3.39-2.63,5.04c-1.23,2.07-2.83,2.55-4.73,3.88c-0.82,0.57-1.74,0.88-2.59,1.41
			c-0.79,0.38-1.3,1.01-1.54,1.88c-0.13-1.13-3.6,0.66-4.12,0.97c-0.85,0.51-1.55,1.14-2.48,1.53c-1,0.43-1.97,0.69-2.91,1.28
			c-2.73,1.71-4.59,4.6-7.08,6.65c-1.14,0.94-2.46,1.45-3.73,2.14c-0.81,0.44-1.67,0.67-2.48,1.08c-0.92,0.47-1.68,0.56-2.68,0.72
			c-0.79,0.13-1.42,0.68-2.12,0.89c-0.78,0.23-1.52,0.39-2.27,0.74c-1.38,0.65-2.9,1.77-4.1,2.8c-1.15,0.99-1.81,2.13-2.74,3.29
			c-0.63,0.78-1.41,1.39-2.06,2.14c-0.47,0.55-0.75,1.25-1.26,1.76c-0.65,0.65-1.29,0.98-1.84,1.69c-1.19,1.53-2.73,2.62-4.37,3.54
			C278.29,456.87,278.44,456.99,278.53,457.13z"/>
		<path class="st0" d="M288.11,320.69c0.38-0.27,0.89-0.71,1.12-1.12c0.26-0.44,0.31-0.91,0.56-1.38c0.46-0.89,0.92-2.17,0.97-3.22
			c0.07-1.38,0.5-2.56,0.71-3.92c0.28-1.86,0.94-3.65,1.23-5.49c0.06-0.39-0.05-0.82-0.02-1.22c0.02-0.36,0.22-0.64,0.27-0.97
			c0.08-0.55-0.24-0.83-0.26-1.44c-0.03-0.72-0.28-1.26-0.33-1.94c-0.05-0.62,0.32-1.11,0.4-1.74c0.54,0.24,1.19,0.77,1.76,0.91
			c0.51,0.12,1.18,0.03,1.7,0.03c0.84-0.01,1.36,0.09,2.13,0.28c1.15,0.3,2.69,0.59,3.62,1.42c0.29,0.25,0.39,0.58,0.71,0.81
			c1.34,0.94,4.6-0.27,5.81-0.65c1.29-0.4,2.57-0.85,3.84-1.29c0.82-0.29,1.29-0.73,1.98-1.21c2.24-1.54,4.3-3.07,6.8-4.2
			c1.49-0.67,2.97-1.28,4.44-1.98c2.14-1.01,3.69-2.5,5.42-4.09c1.71-1.58,3.11-3.45,4.83-5.03c1.88-1.74,2.96-4.15,4.17-6.36
			c1.24-2.27,2.69-4.55,4.2-6.64c1.13-1.56,1.31-4.03,1.29-5.9c-0.02-1.99,0.06-3.98,0.02-5.97c-0.04-1.59-0.5-3.2-0.76-4.77
			c-0.16-0.99-0.44-1.81-0.95-2.66c-0.46-0.77-1-1.48-1.51-2.21c-1.04-1.48-1.68-3.02-2.37-4.68c-0.63-1.53-1.39-2.92-1.81-4.53
			c-0.48-1.87-0.86-3.76-1.09-5.68c-0.54-4.47,0.21-9.58-2.67-13.45c-0.7-0.95-1.41-1.56-1.89-2.71c-0.5-1.21-0.78-2.69-0.83-4.02
			c-0.07-1.71-0.26-3.85,0.08-5.53c0.17-0.83,0.45-1.68,0.67-2.5c0.22-0.84,0.16-1.54,0.22-2.39c0.07-1.11,0.23-2.25,0.33-3.35
			c0.04-0.41,0.2-0.71,0.26-1.1c0.02-0.11-0.01-1.1,0.12-1.24c0.41-0.46,0.82,0.38,1.02,0.58c0.91,0.92,2.38,1.27,3.55,1.69
			c2.94,1.07,6.59,1.83,8.26,4.75c1.02,1.79,1.54,4.02,3.21,5.34c0.69,0.55,1.34,1.41,2.07,1.88c0.54,0.35,1.49,1.02,2.12,1.16
			c1.07,0.23,2.41-0.33,3.24,0.69c0.42,0.52,0.69,1.98,0.86,2.63c0.36,1.41,0.65,1.86,2.26,1.22c1.65-0.66,2.63-1.28,4.38-0.67
			c1.05,0.37,2,0.33,3.1,0.32c1.22-0.01,2.53,0.24,3.64-0.38c0.56-0.31,1.33-0.73,1.83-1.12c0.51-0.4,0.92-1.27,1.34-1.8
			c1.66-2.09,2.06-5.16,2.85-7.61c0.84-2.58,2-4.99,3.59-7.19c1.32-1.84,2.51-3.23,4.48-4.4c2.23-1.32,4.55-2.63,6.67-4.13
			c1.82-1.28,3.58-2.84,5.54-3.89c1.67-0.89,3.18-1.91,4.77-2.95c5.07-3.31,10.55-5.81,16.35-7.6c0.56-0.17,1.07-0.25,1.64-0.36
			c0.92-0.17,1.45-0.53,2.28-0.96c0.7-0.36,1.47-0.61,2.17-0.98c0.74-0.39,1.27-0.93,1.96-1.38c1.69-1.1,3.63-1.91,5.52-2.55
			c1.24-0.42,2.48-1.51,3.16-2.58c0.63-0.98,1.32-2.03,1.38-3.22c0.01-0.25,0.12-0.44,0.25-0.63c-1.48-1.42-2.94-2.77-4.88-3.66
			c-1.6-0.73-3.32-1.9-4.68-3c-2.38-1.92-5.43-2.9-7.76-4.83c-1.72-1.43-3.25-2.98-4.71-4.63c-0.66-0.75-1.5-1.33-2.15-2.09
			c-1.09-1.29-1.76-2.67-3-3.9c-0.88-0.87-1.71-1.95-2.78-2.53c-0.95-0.52-2.03-0.95-3.01-1.54c-2.13-1.28-4.98-2.82-6.24-5.04
			c-2.32-4.07-3.76-8.52-5.67-12.76c-0.78-1.73-0.15-3.22,1.18-4.52c0.94-0.92,2.1-1.64,2.98-2.61c0.94-1.03,1.78-1.88,2.92-2.73
			c1.26-0.94,1.9-1.69,2.5-3.14c0.34-0.81,0.46-1.69,0.94-2.45c1.01-1.62,2.29-3.17,4.18-3.77c1.03-0.33,1.89,0.23,2.91,0.36
			c1.24,0.16,2.32-0.39,3.53-0.47c1.26-0.08,2.27,0.19,3.45,0.46c0.61,0.14,1.53,0.57,2.16,0.45c0.99-0.19,1.31-1.44,1.7-2.2
			c0.51-1,0.54-1.46,0.12-2.52c-1.4-3.56-4.49-6.12-6.48-9.36c-0.84-1.37-1.19-3.15-2.56-4.09c-1.21-0.83-2.87-0.97-4.31-1.28
			c-2.54-0.55-4.56-0.51-6.31,1.65c-0.87,1.08-1.41,2.25-2.45,3.17c-1.23,1.1-2.2,1.99-3.66,2.69c-3.81,1.82-6.61-0.12-9.59-2.74
			c-1.13-0.99-2.01-2.16-2.87-3.39c-0.7-1-1.67-1.08-2.68-1.79c-1.29-0.92-2.22-1.81-3.73-2.49c-0.61-0.27-1.23-0.58-1.88-0.77
			c-1.7-0.51-1.6-0.52-2.05-2.42c-0.02-0.05-0.04-0.1-0.05-0.15c-0.64-0.34-1.57,0.18-2.15,0.34c-0.98,0.28-1.62,0.68-2.56,1.18
			c-0.81,0.44-1.68,1.25-2.59,1.41c-1.05,0.19-2.36-0.02-3.43-0.02c-1.09,0-2.01,0.02-3.02-0.43c-0.84-0.37-1.39-0.82-2.33-0.86
			c-2.12-0.09-4.34,0.27-6.44,0.02c-2.11-0.25-4.16-1.01-6.22-1.63c-1.99-0.59-3.54-2.23-4.61-3.98c-0.63-1.02-0.55-1.72-0.54-2.99
			c0.01-1.38-0.44-2.48-0.43-3.85c0.02-2.47-0.22-4.85-1.28-7.09c-1.01-2.13-4.09-2.66-6.27-2.8c-0.8-0.05-1.44-0.13-2.23-0.31
			c-0.69-0.16-0.99-0.43-1.59-0.71c-1.05-0.49-2.25-0.69-3.32-1.21c-1.72-0.85-3.14-1.62-4.61-2.85c-1.2-1.01-2.52-1.9-3.84-2.72
			c-2.71-1.69-6.04-2.61-9.07-3.44c-2.51-0.69-4.54-1.8-6.62-3.33c-1.08-0.8-2.08-1.85-2.88-2.95c-1.47-2.04-3.33-4.11-4.22-6.49
			c-1.08-2.87-2.14-4.84-4.92-6.45c-1.09-0.63-2.41-0.41-3.63-0.41c-1.89,0-3.88-0.3-5.6,0.54c-1.7,0.82-3.69,2.17-4.92,3.57
			c-1.06,1.2-1.52,2.81-2.44,4.14c-1.05,1.52-2.54,2.77-3.68,4.17c-0.51,0.63-0.75,1.25-1.47,1.74c-0.97,0.66-1.96,1.27-2.93,1.95
			c-1.37,0.95-2.64,1.13-4.28,1.08c-1.43-0.05-2.47-1.62-3.77-2.28c-1.06-0.54-2.08-1.34-3.19-1.92c-0.77-0.4-1.56-0.67-2.26-1.21
			c-1.23-0.95-1.95-2.79-2.79-4.04c0.3-0.89-2.3-0.79-2.9-1.39c-0.78-0.78-1.56-1.23-2.36-1.93c-1.76-1.53-4.17-1.46-6.01-3
			c-1-0.84-1.17-1.91-1.7-3.01c-0.46-0.96-1.35-1.67-2.04-2.49c-0.73-0.87-1.38-1.75-2.14-2.58c-0.44-0.48-0.84-1-1.41-1.37
			c-0.5-0.32-1.13-0.31-1.62-0.51c-1.01-0.42-2.07-1.09-3-1.73c-0.61-0.42-0.94-0.68-1.6-0.96c-0.57-0.24-1.1-0.24-1.72-0.42
			c-0.38-0.11-0.81-0.61-1.21-0.72c-0.57-0.16-1.23-0.06-1.8,0.06c-0.36,0.07-0.99,0.46-1.38,0.55c-0.59,0.14-1.16,0.32-1.71,0.64
			c-2.28,1.34-3.62,4.68-6.23,5.37c-1.21,0.32-2.59,0.27-3.86,0.21c-1.42-0.06-2.67-0.62-4.17-0.46c-0.93,0.1-1.88,0.56-2.8,0.77
			c-0.76,0.17-1.58,0.24-2.27,0.63c-0.59,0.34-1.34,0.76-1.8,1.16c-0.76,0.67-0.94,1.6-1.18,2.51c-0.49,1.88-1.52,3.72-2.25,5.53
			c-1.06,2.61-1.45,5.6-3.42,7.79c-1.61,1.79-3.65,3.34-5.58,4.79c-1.79,1.34-3.55,2.31-5.47,3.41c-0.72,0.41-1.44,0.97-2.15,1.42
			c-0.7,0.44-1.06,1.06-1.68,1.52c-1.43,1.06-3.31,0.94-4.97,0.95c-1.92,0.02-3.69-0.67-5.58-0.86c-1.81-0.18-3.82-1.19-5.49-0.12
			c-1.39,0.89-2.59,2.41-3.76,3.57c-1.58,1.57-2.97,3.17-3.83,5.22c-2.58,6.16-8.61,9.82-12.13,15.33
			c-1.77,2.77-3.05,5.81-4.73,8.61c-0.51,0.85-0.91,1.75-1.28,2.66c1.35,0.6,2.76,1.15,4.19,1.66c1.28,0.46,2.4,0.06,3.67,0.35
			c1.01,0.24,2.57,1.03,3.3,1.85c0.6,0.67,0.91,1.52,1.34,2.3c0.61,1.11,1.24,1.81,2.11,2.75c0.74,0.79,1.37,1.79,2.23,2.47
			c0.88,0.69,1.98,1.2,3,1.71c1.28,0.63,2.56,1.1,3.84,1.7c1.49,0.71,2.71,1.61,4.08,2.48c1.33,0.84,2.77,0.86,4.25,1.11
			c2.46,0.42,4.41,1.42,6.29,2.98c2.85,2.36,4.25,5.85,7.16,8.12c1.28,1,2.24,1.8,3.81,2.39c1.67,0.63,3.31,1.25,4.95,1.95
			c0.88,0.37,1.4,0.6,2.09,1.25c0.86,0.81,1.62,2.1,2.58,2.73c0.73,0.48,1.74,1.2,2.54,1.49c1.21,0.44,2.51,0.43,3.76,0.62
			c3.52,0.53,6.83,1.27,10.2,2.47c2.15,0.76,4.12,1.06,6.02,2.36c0.79,0.54,1.5,1.13,2.42,1.51c1.95,0.8,3.95,0.57,5.96,0.92
			c3.58,0.63,6.89,2.49,10.4,3.35c2.7,0.66,5.37,1.36,8.03,2.18c0.73,0.22,1.52,0.46,2.2,0.83c0.67,0.36,1.05,0.94,1.64,1.32
			c2.15,1.37,4.78-0.76,6.98,0.37c1.59,0.82,2.57,2.07,4.01,3.03c1.54,1.02,3.21,1.19,4.88,1.79c2.06,0.74,3.39,3.34,3.79,5.38
			c0.69,3.55-0.55,7.7-1.43,11.1c-1.01,3.91-1.72,7.91-2.79,11.8c-0.45,1.65-0.69,3.37-1.03,5.05c-0.38,1.89-0.09,3.75-0.35,5.65
			c-0.57,4.26-1.44,8.35-2.5,12.52c-1.09,4.32-0.9,8.94-2.02,13.27c-0.85,3.32-2.68,6.22-3.98,9.38c-0.98,2.38-1.68,4.84-2.54,7.27
			c-0.8,2.26-1.81,4.4-2.59,6.67c-0.28,0.8-0.66,1.57-0.89,2.39c-0.48,1.68-0.32,3.4-0.5,5.12c-0.23,2.16-0.33,4.23-0.33,6.41
			c0,3.93-0.42,7.74-0.96,11.63c-0.6,4.34-0.27,8.46,1.17,12.63c0.69,2,1.39,4.07,2.47,5.9c0.85,1.43,1.25,2.48,1.61,4.08
			c0.39,1.72,0.65,3.55,0.45,5.34c-0.17,1.56-0.71,3.07-0.89,4.6c-0.11,0.93-0.28,3.26-0.23,4.74c0.34,0.3,0.13,0.5,0.24,0.86
			c0.14,0.47,0.16,0.68,0.38,1.12c0.13,0.26,0.37,0.54,0.58,0.83c0.6-0.58,1.28-0.95,2.03-1.41c1.28-0.79,2.59-1.55,3.92-2.26
			c1.1-0.59,2.38-1.49,3.63-1.71c0.39-0.07,0.83-0.03,1.21,0.04c0.18,0.04,0.26,0.3,0.41,0.32c0.81,0.14,1.71-0.32,2.46-0.56
			c0.89-0.29,2.26-1.1,3.2-1.1c0.72,0,0.54,0.3,1.06,0.61c0.45,0.27,0.76,0.11,1.29,0.31c0.53,0.2,1.32,1.08,1.73,1.47
			c1.36,1.26,0.56,2.25,0.41,3.83c-0.19,2.04-1.2,4.17-2.14,5.97c-1.32,2.53-3.41,4.48-4.95,6.9c-1.63,2.55-2.56,5.22-3.85,7.92
			c-1.43,2.98-4.61,7.56-0.62,10.1c3.18,2.02,7.55,0.22,11,0.18c4.16-0.05,8.18-1.46,12.17-2.5c1.94-0.51,3.97-1.15,5.99-1.18
			c0.63-0.01,1.24,0.1,1.82,0.31c0.21-0.35,0.44-0.69,0.66-1.01C286.22,321.7,287.16,321.36,288.11,320.69z"/>
		<path class="st0" d="M436.8,733.52c0.35-1.28,1.72-2.84,2.6-3.83c2.94-3.3,6-7.32,7.22-11.55c0.83-2.85,2.04-5.58,2.91-8.4
			c0.78-2.52,1.48-5.48,2.88-7.72c1.44-2.31,2.52-4.72,3.72-7.08c1.1-2.17,1.91-3.94,1.93-6.43c0.02-2.69-2.12-2.96-3.86-4.65
			c-2.06-2-4.21-3.99-4.54-7.1c-0.31-3.01-0.63-5.93-1.24-8.83c-0.6-2.85-2.13-4.22-3.88-6.29c-1.72-2.04-3.1-4.47-4.02-7.06
			c-0.38-1.07-0.9-2.2-1.16-3.33c-0.62-2.64,0.03-6.22,0.03-8.96c0-3.08-0.11-6.19-0.01-9.27c0.06-1.96,0.68-3.67,0.66-5.69
			c-0.02-1.43-0.09-2.52,0.49-3.83c0.58-1.31,1.29-2.31,2.04-3.67c0.94-1.71,2.92-3.62,4.65-4.54c1.97-1.04,4.32-1.27,6.21-2.67
			c2.31-1.71,3.98-4.54,6.05-6.61c1.62-1.62,3.13-3.49,5.08-4.71c1.73-1.07,3.16-2.49,5.09-3.08c1.9-0.58,3.7-0.84,5.46-1.87
			c2.44-1.42,4.5-3.19,6.6-5.03c0.49-0.43,1.06-0.81,1.61-1.21c-0.06-0.21-0.11-0.43-0.16-0.69c-0.3-1.67-0.77-3.59-1.27-5.2
			c-0.23-0.75-0.55-1.01-0.68-1.83c-0.2-1.34,0.02-2.92,0.01-4.28c0-0.8,0.17-1.8,0.02-2.57c-0.16-0.82-0.62-1.14-1.01-1.89
			c-2.25-4.4-0.46-10.2,1-14.67c1.03-3.15,1.75-7.09,1.29-10.44c-0.26-1.9-0.81-3.88-1.23-5.79c-0.47-2.12-0.83-4.12-2.31-5.8
			c-1.11-1.25-2.53-2.38-3.88-3.29c-1.76-1.18-4.14-1.65-5.52-3.32c-0.88-1.07-1.29-2.47-1.25-3.99c0.05-2.08,1.19-3.95,1.94-5.84
			c0.3-0.75,0.51-0.7,0.39-1.55c-0.17-1.15-1.38-1.64-2.15-2.28c-0.98-0.81-1.8-1.91-2.86-2.6c-1.01-0.66-2.26-0.8-3.36-1.25
			c-2.05-0.84-3.89-1.33-6.03-1.93c-1.55-0.43-3.58-0.36-4.91-1.28c-1.01-0.7-1.8-1.77-2.68-2.58c-1.28-1.19-3.16-2.07-4.77-2.75
			c-0.7-0.3-1.36-0.49-1.93-0.85c-0.31-0.2-0.63-0.63-0.97-0.85c-0.22-0.14-0.63-0.04-0.84-0.2c-1.38-1.07-1.78-3.39-2.07-4.99
			c-0.31-1.69-0.37-3.5-0.77-5.17c-0.4-1.67-1.44-3.39-2.75-4.53c-1.02-0.9-2.44-1.24-3.58-2.04c-2.34-1.64-4-4.66-5.19-7.18
			c-0.72-1.51-0.71-3.29-1.06-5.04c-0.34-1.64,0.15-3.29-0.11-4.91c-0.17-1.04-0.65-1.86-0.7-2.95c-0.04-0.88,0.14-1.77-0.03-2.63
			c-0.16-0.81-0.56-1.38-0.6-2.25c-0.09-1.79,0.65-3.36,0.66-5.14c0.01-2.24,2.1-6.01-0.77-7.6c-1.28-0.71-3.25-0.52-4.64-0.82
			c-0.56-0.12-0.98-0.48-1.65-0.59c-0.87-0.15-1.45-0.24-2.27-0.64c-1.08-0.53-2.58-1.18-3.37-2.07c-1-1.12-1.52-2.82-2.41-4.05
			c-1.49-2.04-2.37-4.5-3.69-6.6c-1.13-1.81-1.42-2.6-2.79-3.4c-0.63,1.52-1.49,2.36-2.74,3.9c-1.65,2.03-2.57,4.73-3.81,7.03
			c-1.26,2.33-2,4.59-2.59,7.15c-0.72,3.11-0.87,5.92-0.81,9.11c0.1,5.26,1.48,10.59,2.42,15.78c0.41,2.23,0.98,4.5,0.86,6.79
			c-0.09,1.67-0.54,3.28-0.68,4.94c-0.25,3.18-1.48,6.46-2.43,9.52c-1.3,4.2-0.8,8.66-0.8,13.04c0,8.62-1.36,17.04-1.27,25.65
			c0.03,2.91-0.8,5.78-0.71,8.67c0.07,2.32,0.72,4.49,0.72,6.83c0,3.37-0.22,7.92-1.43,11.13c-0.7,1.86-2.1,2.08-3.85,2.53
			c-2.01,0.52-3.65,1.74-5.6,2.33c-2.38,0.72-5.38,2.39-7.88,2.07c-2.44-0.32-3.65-2.58-5.08-4.39c-1.49-1.88-3.57-3.93-5.84-4.91
			c-1.72-0.74-3.51-1.44-5.26-2.17c-1.49-0.62-3.09-1.55-4.59-2.02c-1.82-0.58-3.21-0.69-4.18-2.43c-2.08-3.7,0.49-6.87,3.05-9.38
			c-0.45-0.67-0.71-1.59-1.03-2.41c-0.45-1.17-0.9-1.56-1.77-2.54c-1.76-2-3.37-3.35-4.34-5.92c-2.42-6.39-3.19-12.71-9.53-16.46
			c-1.88-1.12-3.38-2.88-5.24-4.04c-2.71-1.69-5.91-2.71-9.04-3.36c-2.12-0.44-4.16-1.25-6.28-1.64c-1.48-0.28-3.02-0.12-4.52-0.13
			c-1.41-0.01-2.3,0.33-3.62,0.53c-1.49,0.23-3.76-0.31-5.25-0.52c-2.62-0.37-5.69-0.84-8.01-1.79c-1.68-0.69-2.01-1.49-2.57-3.23
			c-0.2-0.63-0.86-1.6-0.99-2.22c-0.16-0.82-0.02-1.61-0.13-2.45c-0.12-0.91-0.5-1.08-0.69-1.88c-0.19-0.78,0.1-1.8,0.05-2.61
			c-0.07-1.16-0.61-2.06-0.67-3.22c-0.05-0.85,0.02-1.72,0.01-2.57c0-1.82,0-3.65,0-5.47c0-1.91-0.15-3.46-0.63-5.17
			c-0.37-1.3-0.96-2.53-1.32-3.83c-0.25-0.9-0.4-1.7-0.64-2.57c-0.1-0.37,0.03-0.86-0.04-1.25c-0.06-0.37-0.44-0.39-0.53-0.76
			c-0.41-1.62-1.01-2.58-1.83-4.1c-0.82-1.52-1.84-2.81-2.74-4.25c-0.09-0.14-0.23-0.26-0.39-0.38c-2.08,1.16-4.34,2.07-6.34,3.29
			c-1.31,0.8-2.43,1.93-3.68,2.83c-0.85,0.61-1.4,1.33-2.24,1.92c-1.18,0.82-1.92,2-2.98,2.9c-1.45,1.23-2.91,2.31-4.74,1.93
			c-1.57-0.33-3.92-0.32-5.48-0.01c-1.67,0.33-3.14,1.82-4.51,2.92c-0.51,0.41-1.41,1.03-1.61,1.69c-0.11,0.35,0.04,0.92,0.03,1.29
			c-0.03,0.82-0.24,1.47-0.44,2.25c-0.31,1.22-0.28,2.45-0.51,3.67c-0.29,1.56-0.94,3.07-1.54,4.52c-0.38,0.92-0.64,2.14-1.35,2.89
			c-1.16,1.22-2.97,1.88-4.23,2.98c-1.06,0.93-1.95,1.85-3.1,2.71c-1.17,0.86-2.49,1.84-3.41,2.97c-1.35,1.66-2.94,2.9-4.21,4.67
			c-1.02,1.42-2.15,2.74-3.07,4.22c-1.19,1.92-2.87,3.64-3.78,5.7c-0.23,0.53-0.36,1.11-0.55,1.65c0.03-0.09-0.35,1.1-0.34,0.93
			c-0.03,0.92,0.7,2.06,1.1,2.89c1.24,2.6,2.96,4.47,4.85,6.55c1.01,1.11,1.69,2.17,1.71,3.67c0.03,1.42-0.01,2.85-0.01,4.28
			c0,5.17-0.62,10.41,1.62,15.13c0.73,1.55,1.2,2.65,3.19,3.02c1.61,0.29,3.37-0.29,4.96-0.45c2.22-0.23,4.3-0.44,6.54-0.44
			c2.6,0,5.82,0.74,7.31,3.11c0.7,1.11,1.18,2.23,2.09,3.23c1.11,1.22,2.66,2.36,3.91,3.46c1,0.88,2.03,1.57,2.89,2.66
			c0.65,0.83,0.95,1.48,1.83,2.03c0.25,0.16,0.62,0.41,0.83,0.62c0.25,0.23,0.46,0.5,0.63,0.79c0.34,0.25,0.72,0.42,1.14,0.51
			c0.77,0.78,0.89,2.29,0.72,3.33c-0.75,4.53-2.94,8.52-4.19,12.91c-1.4,4.9-1.31,9.65-1.29,14.67c0,0.78,0.14,1.67-0.06,2.43
			c-0.38,1.46-1.05,2.71-1.34,4.24c-0.33,1.72-1.1,3.41-0.69,5.2c0.25,1.1,1.01,1.79,1.65,2.67c1.02,1.39,1.84,3.03,2.59,4.58
			c0.44,0.92,0.94,1.4,1.59,2.18c1.01,1.2,1.81,2.62,2.57,3.99c1.01,1.8,2.31,4.3,4.49,4.99c0.76,0.24,1.63,0.03,2.41,0.05
			c1.14,0.03,1.06,0.1,1.78,0.87c2.01,2.16,4.21,3.21,7.25,3.42c0.02,0,0.03,0,0.05,0.01c-0.02,0-0.03,0-0.05-0.01
			c-0.18,0.05-0.81,0.4-1.05,0.49c0.39-0.07,0.74,0.05,1.13-0.03c0.2-0.04,0.39-0.33,0.5-0.36c0.63-0.14,1.32-0.17,1.95,0
			c0.55,0.15,1.15,0.68,1.81,0.78c0.29,0.05,0.58-0.07,0.87-0.03c0.38,0.05,0.85,0.41,1.1,0.42c0.63,0.01,1.21-0.37,1.89-0.42
			c0.88-0.06,1.35,0.33,2.14,0.46c0.34,0.06,0.7-0.05,1.04,0.01c0.29,0.05,0.33,0.34,0.66,0.42c0.29,0.07,0.6-0.07,0.89-0.03
			c0.54,0.07,0.66,0.29,1.1,0.4c1.15,0.29,2.34,0.82,3.61,0.91c0.7,0.05,1.38-0.11,2.05,0.09c0.61,0.18,1.29,0.81,1.81,1.19
			c0.83,0.6,1.43,1.43,2.23,2.04c0.99,0.76,2.07,1.43,3.04,2.13c0.68,0.49,1.54,1.43,1.98,2.1c0.26,0.4,0.33,0.94,0.57,1.35
			c0.43,0.73,1.03,1.35,1.2,2.23c0.39,1.97,0.93,3.92,1.29,5.92c0.28,1.54,0.87,3.27,0.84,4.83c-0.02,0.9,0.12,1.31,0.34,2.14
			c0.19,0.72-0.01,1.42,0.09,2.15c0.13,1.03,0.72,2,1.6,2.67c0.7,0.53,1.53,0.84,2.27,1.28c1.1,0.65,1.99,1.67,3.03,2.4
			c1.36,0.96,2.93,1.49,4.37,2.31c1.96,1.11,2.66,3.48,4.61,4.51c1.88,0.99,3.43,2.73,5.16,3.99c2.13,1.56,3.75,2.75,4.6,5.25
			c0.39,1.16,0.74,2.23,1.05,3.42c0.41,1.56,1.49,2.86,2.08,4.36c1.49,3.83,4.31,6.92,5.67,10.85c0.67,1.96,1.36,2.98,2.88,4.41
			c2.55,2.41,6.32,1,9.43,0.84c3.02-0.15,5.96,0.48,8.99,0.45c1.17-0.01,2.19,0.24,3.32,0.53c1.23,0.31,2.46,0.54,3.69,0.83
			c1.5,0.34,2.62,1.26,3.92,2.02c1.51,0.88,3.33,1.19,4.97,1.77c2.14,0.76,4.5,1.22,6.53,2.25c1.12,0.57,1.8,1.65,2.96,2.06
			c1.9,0.69,3.4,0.92,5.12,2.09c1.85,1.26,3.37,2.94,5.19,4.25c1.27,0.91,2.56,1.79,3.81,2.74c3.2,2.42,5.78,5.39,9.89,6.25
			c1.84,0.38,4.19,0.82,5.84,1.8c0.68,0.41,1.15,0.96,1.88,1.28c0.56,0.24,1.17,0.27,1.72,0.53c0.43,0.21,0.75,0.58,1.17,0.8
			c0.76,0.4,0.95,0.2,1.73,0.38c0.83,0.2,1.57,0.82,2.33,1.28c0.32,0.19,0.63,0.41,0.94,0.64c0.28-0.59,0.57-1.14,0.76-1.89
			C436.94,735.72,436.52,734.53,436.8,733.52z"/>
		<path class="st0" d="M243.15,294.5c-0.11-0.36,0.1-0.55-0.24-0.86c-0.05-1.48,0.12-3.81,0.23-4.74c0.18-1.53,0.72-3.04,0.89-4.6
			c0.2-1.79-0.06-3.62-0.45-5.34c-0.36-1.59-0.76-2.65-1.61-4.08c-1.08-1.83-1.78-3.9-2.47-5.9c-1.45-4.18-1.77-8.29-1.17-12.63
			c0.54-3.89,0.97-7.7,0.96-11.63c0-2.18,0.09-4.25,0.33-6.41c0.18-1.71,0.02-3.44,0.5-5.12c0.23-0.82,0.62-1.59,0.89-2.39
			c0.78-2.27,1.8-4.41,2.59-6.67c0.86-2.43,1.55-4.88,2.54-7.27c1.3-3.15,3.13-6.05,3.98-9.38c1.11-4.33,0.92-8.95,2.02-13.27
			c1.05-4.17,1.93-8.26,2.5-12.52c0.26-1.9-0.03-3.76,0.35-5.65c0.34-1.68,0.58-3.4,1.03-5.05c1.06-3.9,1.77-7.89,2.79-11.8
			c0.88-3.4,2.12-7.55,1.43-11.1c-0.4-2.04-1.73-4.64-3.79-5.38c-1.67-0.6-3.35-0.77-4.88-1.79c-1.44-0.96-2.42-2.22-4.01-3.03
			c-2.2-1.13-4.82,1-6.98-0.37c-0.59-0.37-0.97-0.96-1.64-1.32c-0.68-0.37-1.47-0.61-2.2-0.83c-2.66-0.82-5.33-1.52-8.03-2.18
			c-3.51-0.86-6.82-2.72-10.4-3.35c-2.01-0.36-4.01-0.12-5.96-0.92c-0.92-0.38-1.63-0.97-2.42-1.51c-1.9-1.3-3.87-1.6-6.02-2.36
			c-3.37-1.2-6.68-1.94-10.2-2.47c-1.26-0.19-2.55-0.18-3.76-0.62c-0.8-0.29-1.81-1.01-2.54-1.49c-0.95-0.62-1.72-1.91-2.58-2.73
			c-0.69-0.65-1.21-0.88-2.09-1.25c-1.64-0.7-3.29-1.32-4.95-1.95c-1.57-0.59-2.53-1.39-3.81-2.39c-2.9-2.27-4.31-5.76-7.16-8.12
			c-1.88-1.55-3.83-2.56-6.29-2.98c-1.47-0.25-2.92-0.27-4.25-1.11c-1.37-0.87-2.59-1.77-4.08-2.48c-1.28-0.61-2.56-1.07-3.84-1.7
			c-1.02-0.51-2.12-1.02-3-1.71c-0.86-0.67-1.49-1.67-2.23-2.47c-0.87-0.93-1.51-1.64-2.11-2.75c-0.43-0.78-0.74-1.64-1.34-2.3
			c-0.73-0.81-2.29-1.61-3.3-1.85c-1.27-0.3-2.38,0.1-3.67-0.35c-1.42-0.51-2.84-1.06-4.19-1.66c-0.57,1.4-1.08,2.84-1.81,4.18
			c-1.07,1.96-2.57,4.78-4.92,5.49c-0.85,0.26-1.79,0.04-2.67,0.18c-1.33,0.22-2.4,0.34-3.77,0.33c-3.48-0.01-6.6,1.17-9.92,2.17
			c-1.73,0.52-3.57,0.75-5.17,1.67c-0.72,0.41-0.92,0.9-1.45,1.48c-0.57,0.63-1.28,1.16-1.91,1.74c-2.67,2.45-5.61,3.7-8.71,5.48
			c-1.49,0.85-2.69,2.21-4.2,2.95c-1.58,0.78-3.29,1.69-4.92,2.35c-1.66,0.67-3.51,0.82-5.27,0.51c-0.86-0.15-1.74-0.53-2.65-0.36
			c-0.97,0.18-2.19,0.4-3,0.94c-0.6,0.4-3.17,1.88-3.42,2.42c0.47,0.17,0.99,0.06,1.48,0.12c1.07,0.13,2.21,0.49,3.22,0.83
			c0.98,0.33,2.05,0.41,3,0.81c1.64,0.68,2.96,1.99,3.9,3.46c2.81,4.38,3.85,9.44,2.96,14.51c-0.32,1.85-0.94,3.78,0.18,5.46
			c1.66,2.5,4.81,2.79,6.61,5.08c1.89,2.4,3.02,5.59,3.05,8.64c0.02,2.35-1.25,4.38-2.54,6.25c-1.23,1.77-2.22,3.77-3.67,5.37
			c-2.2,2.44-5.23,3.38-7.92,5.16c-1.9,1.25-3.9,2.76-4.88,4.88c-0.37,0.8-0.33,1.72-0.28,2.59c0.07,1.08,0.62,1.45,1.53,2.16
			c2.63,2.04,6.05,4.08,9.44,3.65c3.35-0.42,6.83-0.94,10.14-1.6c2.07-0.41,3.87-1.59,5.97-1.85c2.65-0.32,5.38,0.76,7.9,1.49
			c2.56,0.74,5.42,2.35,7.89,0.46c2.14-1.64,3.78-4.01,5.59-5.99c1.62-1.77,3.27-3.76,5.77-4.18c1.73-0.29,3.31,0.43,4.91,1.08
			c1.77,0.73,3.22,2.51,3.77,4.37c1.38,4.64-0.51,10.07,3.13,13.97c1.22,1.31,2.75,2.24,3.9,3.65c1.07,1.31,1.65,2.78,2.41,4.27
			c0.55,1.08,1.31,2.03,2.11,2.94c0.45,0.52,0.96,0.98,1.44,1.48c0.64,1.09,1.53,1.84,2.69,2.24c1.39,0.94,2.94,1,4.64,0.16
			c-0.14-0.57-1.07-0.69-0.55-0.78c0.27,0.45,0.56,0.25,0.97,0.35c0.39,0.1,0.76,0.31,1.11,0.39c0.88,0.2,1.9-0.2,2.77,0.01
			c0.41,0.1,0.6,0.37,1.03,0.47c0.38,0.08,0.91-0.01,1.3-0.02c0.43,0,0.86,0.02,1.29,0c0.57-0.02,0.74-0.21,1.16-0.34
			c1.52-0.44,3.19,1.09,2.87,2.65c-0.27,1.38-1.49,3.61-2.37,4.72c-1.29,1.63-3.01,3.07-4.67,4.33c-1.83,1.38-4.08,2.67-6.24,3.45
			c-1.87,0.68-3.72,0.72-5.36,2.08c-1.47,1.22-2.97,2.42-4.52,3.6c-0.71,0.54-1.19,0.91-2.12,0.96c-0.43,0.02-0.87-0.07-1.3-0.02
			c-0.61,0.07-0.73,0.34-1.25,0.46c-0.43,0.1-0.86-0.04-1.31,0.07c-0.52,0.14-0.8,0.31-1.37,0.34c-1.78,0.1-3.4,0.19-5.17,0.52
			c-1.48,0.28-3,0.19-4.44,0.53c-1.22,0.29-2.28,0.71-3.46,1.16c-2.16,0.82-4.99,3-7.44,2.51c-2.46-0.49-4.45-2.1-6.87-2.82
			c-0.37-0.11-0.96-0.37-1.29-0.43c-0.46-0.08-0.38-0.09-0.85,0c-0.82,0.17-1.77,0.51-2.58,0.86c-1.76,0.76-2.7,1.93-3.59,3.66
			c-0.21,0.4-0.48,0.71-0.69,1.07c-0.29,0.49-0.24,0.47-0.41,1.06c-0.24,0.81-0.55,1.66-0.87,2.37c-0.75,1.66,0.05,4.25,0.85,6.01
			c0.47,1.03,1.17,1.89,1.82,2.79c0.36,0.49,0.84,0.82,1.22,1.29c0.46,0.57,0.64,1.28,1.25,1.75c0.62,0.47,1.41,0.52,2.05,0.92
			c0.99,0.61,1.46,0.77,2.68,0.76c2.62-0.02,5.06,0.46,7.7,0.44c2.18-0.02,4.22-0.85,6.41-0.88c2.32-0.03,4.72,0.25,7.02-0.07
			c1.14-0.16,2.29-0.37,3.37-0.78c0.95-0.36,1.42-0.57,2.34-0.23c1.07,0.4,2.25,0.73,3.31,1.18c1.96,0.84,3.52,2.55,5.43,3.54
			c2.05,1.06,4.56,1.79,6.74,2.59c2.02,0.75,3.54,1.37,5.32,2.56c2.74,1.84,5.71,3.01,8.1,5.4c1.63,1.63,3.36,3.79,4.08,6.01
			c0.39,1.21,0.48,2.34,1.16,3.46c0.94,1.54,1.95,3.07,3.16,4.41c2.45,2.72,6.08,7.02,10.1,6.88c2.26-0.08,4.25-1.13,6.43-1.52
			c1.75-0.31,3.57-0.5,5.33-0.84c1.41-0.28,2.69-1.16,4.11-1.31c0.43-0.05,0.84,0.02,1.25,0.11c0.73,0.17,1.51,0.22,2.25,0.4
			c1.15,0.28,2.44,1.42,3.33,2.15c0.65,0.53,0.97,1.29,1.19,2.08c0.3,1.05,0.79,2,1.06,3.05c0.97,3.79,1.81,7.35,3.86,10.71
			c0.88,1.44,2.77,1.96,4.14,2.78c1.4,0.84,2.62,1.33,4.27,1.47c3.39,0.27,6.79,0.82,10.18,0.2c2.34-0.43,5.32-0.96,7.33-2.29
			c1.37-0.91,2.39-2.19,3.63-3.25c0.95-0.81,2.06-1.41,2.98-2.23c0.57-0.51,0.96-1.13,1.44-1.72c0.1-0.13,0.22-0.23,0.33-0.34
			c-0.21-0.29-0.45-0.58-0.58-0.83C243.3,295.18,243.29,294.97,243.15,294.5z"/>
	</g>
	<g>
		<g>
			<path class="st1" d="M262.7,120.35c0.05,0.34,0.07,0.61,0.06,0.81c0,0.2-0.07,0.35-0.2,0.45c-0.13,0.1-0.34,0.16-0.63,0.19
				c-0.29,0.02-0.7,0.04-1.21,0.04c-0.36,0-0.66-0.01-0.88-0.02c-0.23-0.01-0.4-0.04-0.53-0.08c-0.12-0.04-0.21-0.1-0.26-0.17
				c-0.05-0.08-0.08-0.18-0.09-0.31l-0.5-3.7h-6.91l-1.91,3.61c-0.07,0.13-0.14,0.24-0.23,0.33c-0.08,0.09-0.21,0.16-0.37,0.21
				c-0.16,0.05-0.38,0.08-0.65,0.1c-0.27,0.02-0.61,0.03-1.02,0.03c-0.44,0-0.77-0.01-1.02-0.04c-0.24-0.03-0.4-0.1-0.48-0.21
				c-0.08-0.11-0.09-0.26-0.03-0.46s0.18-0.47,0.36-0.8l8.94-16.33c0.09-0.16,0.19-0.29,0.28-0.39c0.09-0.1,0.23-0.18,0.4-0.23
				c0.18-0.05,0.41-0.09,0.71-0.1c0.3-0.02,0.69-0.02,1.17-0.02c0.56,0,1,0.01,1.33,0.02c0.33,0.01,0.58,0.05,0.76,0.1
				c0.18,0.05,0.3,0.13,0.35,0.24c0.06,0.1,0.1,0.25,0.11,0.43L262.7,120.35z M257.11,106.85h-0.01l-4.11,7.83h5.18L257.11,106.85z"
				/>
			<path class="st1" d="M276.57,121.78c-0.17,0.86-0.44,1.62-0.8,2.25c-0.36,0.64-0.83,1.18-1.42,1.61
				c-0.59,0.43-1.3,0.76-2.14,0.97c-0.84,0.22-1.82,0.33-2.94,0.33c-0.81,0-1.53-0.06-2.17-0.19c-0.64-0.13-1.17-0.29-1.6-0.49
				c-0.15-0.08-0.26-0.16-0.31-0.26c-0.06-0.1-0.09-0.23-0.09-0.4c0-0.06,0-0.15,0.02-0.28c0.01-0.13,0.03-0.28,0.06-0.44
				c0.03-0.16,0.07-0.33,0.12-0.51c0.05-0.18,0.11-0.33,0.18-0.47c0.07-0.14,0.15-0.25,0.23-0.34c0.09-0.09,0.19-0.14,0.3-0.14
				s0.25,0.04,0.42,0.12c0.17,0.08,0.39,0.17,0.66,0.26s0.62,0.18,1.02,0.26c0.41,0.08,0.91,0.12,1.51,0.12
				c0.48,0,0.92-0.04,1.3-0.11c0.38-0.08,0.72-0.2,1-0.37c0.28-0.17,0.51-0.39,0.69-0.65c0.18-0.27,0.3-0.59,0.38-0.98
				c0.12-0.62,0.25-1.13,0.37-1.55c0.12-0.42,0.24-0.76,0.34-1.02c-0.17,0.31-0.42,0.62-0.73,0.93c-0.32,0.31-0.68,0.59-1.09,0.83
				c-0.41,0.25-0.85,0.44-1.32,0.59c-0.47,0.15-0.94,0.22-1.41,0.22c-0.73,0-1.35-0.12-1.84-0.37c-0.5-0.25-0.9-0.59-1.22-1.02
				c-0.31-0.44-0.54-0.95-0.68-1.54c-0.14-0.59-0.21-1.22-0.21-1.91c0-0.62,0.06-1.28,0.17-1.99c0.11-0.71,0.29-1.42,0.53-2.12
				c0.24-0.7,0.55-1.38,0.92-2.02s0.81-1.22,1.33-1.71c0.52-0.5,1.11-0.89,1.78-1.19c0.67-0.29,1.42-0.44,2.25-0.44
				c0.79,0,1.49,0.16,2.09,0.49c0.61,0.33,1.14,0.8,1.59,1.43l0.23-1.12c0.04-0.2,0.19-0.34,0.45-0.43
				c0.26-0.09,0.68-0.13,1.26-0.13c0.28,0,0.52,0.01,0.71,0.04c0.19,0.02,0.34,0.06,0.45,0.1c0.11,0.04,0.18,0.1,0.22,0.17
				c0.04,0.07,0.05,0.15,0.03,0.25L276.57,121.78z M274.92,112.36c-0.33-0.52-0.7-0.91-1.1-1.17c-0.4-0.26-0.87-0.39-1.4-0.39
				c-0.4,0-0.76,0.1-1.09,0.28c-0.33,0.19-0.62,0.44-0.88,0.76c-0.26,0.32-0.49,0.69-0.68,1.1c-0.19,0.42-0.36,0.85-0.48,1.31
				c-0.13,0.46-0.22,0.91-0.28,1.37c-0.06,0.46-0.09,0.89-0.09,1.29c0,0.32,0.03,0.62,0.09,0.88s0.14,0.49,0.26,0.68
				c0.12,0.18,0.27,0.33,0.46,0.43c0.18,0.1,0.41,0.15,0.67,0.15c0.42,0,0.84-0.13,1.28-0.38c0.44-0.25,0.84-0.59,1.22-1.02
				c0.38-0.43,0.72-0.94,1-1.52s0.5-1.2,0.63-1.85L274.92,112.36z M278.69,102.21c0,0.1-0.02,0.26-0.06,0.5
				c-0.04,0.24-0.12,0.52-0.24,0.82c-0.12,0.3-0.29,0.62-0.51,0.95c-0.22,0.33-0.51,0.63-0.86,0.9c-0.35,0.27-0.78,0.49-1.3,0.66
				c-0.51,0.17-1.12,0.26-1.82,0.26c-0.72,0-1.32-0.08-1.79-0.23c-0.47-0.15-0.84-0.36-1.12-0.63c-0.28-0.27-0.47-0.57-0.58-0.92
				c-0.11-0.35-0.16-0.7-0.16-1.07c0-0.1,0-0.23,0.01-0.37c0.01-0.14,0.02-0.28,0.04-0.42c0.02-0.14,0.05-0.26,0.08-0.37
				c0.03-0.11,0.07-0.19,0.12-0.23c0.09-0.08,0.22-0.13,0.39-0.17s0.42-0.06,0.73-0.06c0.23,0,0.42,0.01,0.56,0.03
				c0.15,0.02,0.26,0.05,0.35,0.09c0.09,0.04,0.14,0.08,0.17,0.14c0.03,0.05,0.04,0.11,0.04,0.18c0,0.09-0.01,0.18-0.02,0.29
				c-0.01,0.11-0.02,0.22-0.02,0.32c0,0.18,0.02,0.34,0.07,0.48c0.05,0.14,0.12,0.27,0.23,0.37c0.11,0.1,0.25,0.18,0.42,0.24
				c0.18,0.06,0.4,0.09,0.66,0.09c0.26,0,0.51-0.03,0.74-0.1c0.23-0.07,0.43-0.17,0.62-0.31c0.18-0.14,0.34-0.31,0.48-0.51
				c0.13-0.2,0.24-0.45,0.31-0.75c0.04-0.1,0.08-0.18,0.14-0.25c0.05-0.07,0.13-0.13,0.22-0.17c0.09-0.04,0.22-0.08,0.37-0.1
				c0.15-0.02,0.35-0.04,0.58-0.04c0.25,0,0.44,0.01,0.59,0.03c0.15,0.02,0.26,0.04,0.34,0.07s0.14,0.07,0.16,0.12
				C278.68,102.1,278.69,102.16,278.69,102.21z"/>
			<path class="st1" d="M290.75,109.13c0,0.11-0.02,0.28-0.05,0.5c-0.03,0.22-0.08,0.45-0.15,0.68c-0.07,0.23-0.14,0.42-0.23,0.59
				c-0.09,0.17-0.19,0.25-0.3,0.25c-0.12,0-0.27-0.04-0.44-0.13c-0.17-0.09-0.37-0.19-0.6-0.3c-0.24-0.11-0.51-0.21-0.83-0.29
				c-0.32-0.09-0.69-0.13-1.12-0.13c-0.33,0-0.63,0.04-0.89,0.13c-0.26,0.09-0.48,0.2-0.65,0.35c-0.17,0.15-0.3,0.32-0.39,0.52
				c-0.09,0.2-0.14,0.41-0.14,0.64c0,0.29,0.12,0.54,0.36,0.74c0.24,0.2,0.54,0.39,0.9,0.56c0.36,0.18,0.75,0.36,1.17,0.55
				c0.42,0.19,0.81,0.43,1.16,0.71c0.36,0.28,0.66,0.63,0.9,1.04s0.35,0.92,0.35,1.54c0,0.72-0.14,1.39-0.41,2
				c-0.28,0.61-0.68,1.14-1.2,1.59c-0.53,0.45-1.17,0.79-1.92,1.05c-0.75,0.25-1.6,0.38-2.55,0.38c-0.46,0-0.89-0.03-1.3-0.1
				c-0.41-0.07-0.78-0.15-1.11-0.24c-0.33-0.1-0.61-0.2-0.83-0.33c-0.23-0.12-0.4-0.24-0.51-0.34c-0.07-0.08-0.13-0.16-0.16-0.24
				c-0.03-0.09-0.05-0.19-0.05-0.33c0-0.09,0.01-0.19,0.02-0.33c0.01-0.13,0.04-0.28,0.07-0.44s0.07-0.32,0.11-0.48
				c0.04-0.16,0.09-0.31,0.15-0.44s0.12-0.24,0.18-0.32c0.07-0.08,0.14-0.12,0.21-0.12c0.13,0,0.28,0.06,0.44,0.17
				c0.16,0.11,0.37,0.24,0.63,0.38c0.26,0.14,0.57,0.27,0.95,0.39c0.37,0.12,0.84,0.18,1.4,0.18c0.39,0,0.73-0.04,1.02-0.14
				c0.29-0.09,0.53-0.22,0.72-0.38c0.19-0.16,0.33-0.35,0.42-0.55s0.14-0.43,0.14-0.67c0-0.33-0.12-0.6-0.35-0.81
				s-0.53-0.4-0.88-0.58c-0.35-0.18-0.73-0.37-1.14-0.55c-0.41-0.19-0.79-0.42-1.15-0.7c-0.35-0.27-0.64-0.62-0.87-1.02
				s-0.35-0.92-0.35-1.54c0-0.67,0.13-1.3,0.38-1.88c0.26-0.58,0.63-1.08,1.12-1.51c0.49-0.43,1.09-0.77,1.79-1.01
				c0.7-0.24,1.5-0.36,2.39-0.36c0.4,0,0.78,0.03,1.16,0.08c0.37,0.05,0.71,0.12,1.01,0.21c0.3,0.09,0.56,0.18,0.78,0.28
				c0.22,0.1,0.38,0.21,0.48,0.31C290.69,108.74,290.75,108.9,290.75,109.13z"/>
			<path class="st1" d="M301.4,108.7c0,0.1-0.01,0.22-0.03,0.36c-0.02,0.15-0.05,0.31-0.08,0.48c-0.03,0.17-0.08,0.34-0.14,0.51
				c-0.06,0.17-0.12,0.33-0.19,0.46c-0.07,0.14-0.15,0.25-0.24,0.34c-0.09,0.09-0.19,0.14-0.29,0.14h-2.77l-1.2,5.96
				c-0.03,0.14-0.05,0.31-0.08,0.5c-0.02,0.19-0.04,0.35-0.04,0.48c0,0.38,0.09,0.66,0.27,0.83c0.18,0.18,0.47,0.26,0.85,0.26
				c0.23,0,0.42-0.02,0.58-0.05c0.16-0.03,0.3-0.07,0.42-0.11c0.12-0.04,0.22-0.08,0.3-0.11c0.09-0.03,0.17-0.05,0.24-0.05
				c0.08,0,0.14,0.04,0.19,0.11c0.05,0.07,0.08,0.19,0.08,0.35c0,0.18-0.02,0.38-0.06,0.61c-0.04,0.23-0.09,0.45-0.15,0.66
				c-0.06,0.21-0.13,0.41-0.21,0.58c-0.08,0.18-0.16,0.31-0.24,0.39c-0.09,0.09-0.21,0.17-0.39,0.24c-0.17,0.08-0.37,0.14-0.6,0.2
				c-0.23,0.06-0.48,0.1-0.75,0.13c-0.26,0.03-0.53,0.05-0.8,0.05c-0.57,0-1.07-0.06-1.5-0.18c-0.43-0.12-0.79-0.31-1.09-0.56
				c-0.3-0.26-0.52-0.58-0.66-0.98c-0.15-0.4-0.22-0.88-0.22-1.45c0-0.1,0.01-0.23,0.02-0.36c0.01-0.14,0.03-0.28,0.05-0.43
				c0.02-0.15,0.05-0.31,0.07-0.46c0.02-0.16,0.05-0.3,0.08-0.42l1.24-6.19h-1.54c-0.12,0-0.21-0.04-0.27-0.12
				c-0.06-0.08-0.09-0.24-0.09-0.46c0-0.16,0.02-0.37,0.05-0.63c0.03-0.26,0.09-0.52,0.16-0.77c0.08-0.25,0.18-0.47,0.3-0.65
				c0.12-0.18,0.27-0.27,0.44-0.27h1.52l0.57-2.83c0.02-0.1,0.06-0.18,0.14-0.26c0.07-0.08,0.18-0.14,0.33-0.19
				c0.15-0.05,0.34-0.09,0.57-0.11c0.23-0.02,0.53-0.04,0.88-0.04c0.34,0,0.63,0.01,0.85,0.04c0.23,0.02,0.4,0.06,0.53,0.11
				c0.12,0.05,0.21,0.12,0.25,0.19c0.04,0.08,0.05,0.16,0.04,0.26l-0.57,2.83h2.74c0.16,0,0.27,0.05,0.33,0.16
				S301.4,108.5,301.4,108.7z"/>
			<path class="st1" d="M312.97,121.28c-0.04,0.2-0.19,0.34-0.45,0.43c-0.26,0.09-0.68,0.13-1.26,0.13c-0.29,0-0.53-0.01-0.72-0.03
				c-0.19-0.02-0.33-0.05-0.45-0.09c-0.11-0.04-0.19-0.1-0.22-0.17c-0.03-0.07-0.04-0.16-0.02-0.26l0.4-2.03
				c-0.14,0.3-0.37,0.62-0.68,0.96c-0.31,0.34-0.68,0.64-1.11,0.92c-0.43,0.27-0.9,0.5-1.42,0.68c-0.52,0.18-1.05,0.27-1.6,0.27
				c-0.76,0-1.39-0.13-1.89-0.4c-0.5-0.27-0.91-0.62-1.21-1.07c-0.3-0.45-0.52-0.97-0.65-1.54c-0.13-0.58-0.19-1.19-0.19-1.82
				c0-0.6,0.06-1.25,0.17-1.96c0.11-0.71,0.29-1.41,0.53-2.11c0.24-0.7,0.54-1.38,0.91-2.03c0.37-0.65,0.81-1.23,1.33-1.73
				c0.52-0.5,1.11-0.9,1.78-1.2c0.67-0.3,1.43-0.45,2.27-0.45c0.79,0,1.49,0.16,2.09,0.49c0.61,0.33,1.14,0.8,1.59,1.43l0.23-1.12
				c0.04-0.2,0.19-0.34,0.45-0.43c0.26-0.09,0.68-0.13,1.26-0.13c0.28,0,0.52,0.01,0.71,0.04c0.19,0.02,0.34,0.06,0.45,0.1
				c0.11,0.04,0.18,0.1,0.22,0.17c0.04,0.07,0.05,0.15,0.03,0.25L312.97,121.28z M311.2,112.37c-0.33-0.52-0.7-0.91-1.1-1.17
				c-0.4-0.26-0.87-0.39-1.4-0.39c-0.4,0-0.76,0.1-1.09,0.28c-0.33,0.19-0.63,0.44-0.88,0.76c-0.25,0.32-0.48,0.69-0.67,1.1
				c-0.19,0.42-0.36,0.85-0.48,1.3c-0.13,0.45-0.22,0.91-0.28,1.37c-0.06,0.46-0.09,0.88-0.09,1.27c0,0.28,0.02,0.55,0.07,0.81
				c0.04,0.26,0.12,0.48,0.23,0.68c0.11,0.2,0.26,0.36,0.46,0.48c0.19,0.12,0.43,0.18,0.72,0.18c0.42,0,0.84-0.13,1.28-0.38
				c0.44-0.25,0.84-0.59,1.22-1.02c0.38-0.43,0.72-0.93,1-1.51c0.29-0.57,0.5-1.19,0.63-1.84L311.2,112.37z"/>
			<path class="st1" d="M327.84,102.8c0,0.06-0.01,0.15-0.02,0.28c-0.01,0.13-0.03,0.27-0.06,0.43s-0.05,0.33-0.09,0.5
				c-0.04,0.17-0.08,0.33-0.14,0.48c-0.05,0.15-0.11,0.27-0.18,0.36c-0.07,0.09-0.14,0.13-0.21,0.13c-0.06,0-0.13-0.01-0.22-0.04
				s-0.19-0.06-0.31-0.09c-0.11-0.03-0.25-0.06-0.39-0.09s-0.31-0.04-0.48-0.04c-0.3,0-0.56,0.04-0.79,0.13
				c-0.22,0.09-0.42,0.22-0.58,0.41c-0.16,0.18-0.3,0.42-0.41,0.72s-0.21,0.64-0.28,1.05l-0.21,1.08h2.31c0.14,0,0.24,0.04,0.3,0.14
				c0.06,0.09,0.09,0.23,0.09,0.43c0,0.1-0.01,0.22-0.02,0.37c-0.01,0.15-0.04,0.32-0.08,0.49c-0.04,0.18-0.09,0.35-0.14,0.52
				s-0.12,0.33-0.18,0.47s-0.14,0.26-0.23,0.35c-0.09,0.09-0.19,0.14-0.29,0.14h-2.33l-2.23,11.15c-0.16,0.79-0.38,1.48-0.66,2.08
				c-0.28,0.6-0.63,1.1-1.06,1.5c-0.42,0.4-0.93,0.71-1.51,0.91c-0.58,0.2-1.24,0.31-1.98,0.31c-0.49,0-0.91-0.04-1.24-0.11
				c-0.33-0.08-0.55-0.15-0.64-0.23c-0.05-0.06-0.08-0.12-0.1-0.18c-0.02-0.07-0.03-0.16-0.03-0.28c0-0.06,0.01-0.15,0.02-0.28
				c0.01-0.13,0.04-0.28,0.06-0.43c0.03-0.16,0.06-0.32,0.11-0.49c0.04-0.17,0.09-0.33,0.14-0.47c0.05-0.14,0.11-0.26,0.18-0.35
				c0.07-0.09,0.14-0.14,0.23-0.14c0.06,0,0.11,0,0.17,0.01s0.12,0.02,0.19,0.04c0.07,0.01,0.14,0.03,0.23,0.04s0.21,0.01,0.35,0.01
				c0.3,0,0.57-0.04,0.79-0.13c0.22-0.09,0.41-0.23,0.58-0.42s0.3-0.43,0.41-0.73c0.11-0.3,0.21-0.66,0.3-1.09l2.15-10.7h-1.59
				c-0.11,0-0.2-0.04-0.26-0.12c-0.06-0.08-0.09-0.24-0.09-0.46c0-0.1,0.01-0.22,0.02-0.37c0.01-0.15,0.04-0.31,0.07-0.48
				c0.03-0.17,0.07-0.34,0.12-0.52c0.05-0.18,0.11-0.33,0.18-0.47c0.08-0.14,0.16-0.25,0.25-0.34c0.09-0.09,0.2-0.14,0.32-0.14h1.57
				l0.27-1.41c0.15-0.8,0.38-1.5,0.67-2.11c0.29-0.61,0.66-1.11,1.09-1.52c0.43-0.41,0.94-0.71,1.52-0.92
				c0.58-0.2,1.25-0.31,1.99-0.31c0.25,0,0.49,0.01,0.74,0.04c0.25,0.02,0.47,0.06,0.67,0.1c0.2,0.04,0.37,0.09,0.53,0.15
				c0.15,0.06,0.25,0.11,0.31,0.17c0.06,0.05,0.1,0.11,0.12,0.2C327.83,102.57,327.84,102.67,327.84,102.8z"/>
			<path class="st1" d="M337.36,121.28c-0.04,0.2-0.19,0.34-0.45,0.43c-0.26,0.09-0.68,0.13-1.26,0.13c-0.29,0-0.53-0.01-0.72-0.03
				c-0.19-0.02-0.33-0.05-0.45-0.09c-0.11-0.04-0.19-0.1-0.22-0.17c-0.03-0.07-0.04-0.16-0.02-0.26l0.4-2.03
				c-0.14,0.3-0.37,0.62-0.68,0.96c-0.31,0.34-0.68,0.64-1.11,0.92c-0.43,0.27-0.9,0.5-1.42,0.68c-0.52,0.18-1.05,0.27-1.6,0.27
				c-0.76,0-1.39-0.13-1.89-0.4c-0.5-0.27-0.91-0.62-1.21-1.07c-0.3-0.45-0.52-0.97-0.65-1.54c-0.13-0.58-0.19-1.19-0.19-1.82
				c0-0.6,0.06-1.25,0.17-1.96c0.11-0.71,0.29-1.41,0.53-2.11c0.24-0.7,0.54-1.38,0.91-2.03c0.37-0.65,0.81-1.23,1.33-1.73
				c0.52-0.5,1.11-0.9,1.78-1.2c0.67-0.3,1.43-0.45,2.27-0.45c0.79,0,1.49,0.16,2.09,0.49c0.61,0.33,1.14,0.8,1.59,1.43l0.23-1.12
				c0.04-0.2,0.19-0.34,0.45-0.43c0.26-0.09,0.68-0.13,1.26-0.13c0.28,0,0.52,0.01,0.71,0.04c0.19,0.02,0.34,0.06,0.45,0.1
				c0.11,0.04,0.18,0.1,0.22,0.17c0.04,0.07,0.05,0.15,0.03,0.25L337.36,121.28z M335.59,112.37c-0.33-0.52-0.7-0.91-1.1-1.17
				c-0.4-0.26-0.87-0.39-1.4-0.39c-0.4,0-0.76,0.1-1.09,0.28c-0.33,0.19-0.63,0.44-0.88,0.76c-0.25,0.32-0.48,0.69-0.67,1.1
				c-0.19,0.42-0.36,0.85-0.48,1.3c-0.13,0.45-0.22,0.91-0.28,1.37c-0.06,0.46-0.09,0.88-0.09,1.27c0,0.28,0.02,0.55,0.07,0.81
				c0.04,0.26,0.12,0.48,0.23,0.68c0.11,0.2,0.26,0.36,0.46,0.48c0.19,0.12,0.43,0.18,0.72,0.18c0.42,0,0.84-0.13,1.28-0.38
				c0.44-0.25,0.84-0.59,1.22-1.02c0.38-0.43,0.72-0.93,1-1.51c0.29-0.57,0.5-1.19,0.63-1.84L335.59,112.37z"/>
		</g>
		<g>
			<path class="st1" d="M318.7,598.97c0,0.09-0.01,0.22-0.02,0.37c-0.01,0.15-0.04,0.32-0.07,0.49s-0.07,0.35-0.12,0.53
				c-0.05,0.18-0.1,0.33-0.17,0.48c-0.07,0.14-0.14,0.26-0.22,0.35c-0.08,0.09-0.16,0.13-0.25,0.13c-0.14,0-0.34-0.08-0.6-0.24
				c-0.26-0.16-0.59-0.34-1-0.54c-0.41-0.2-0.91-0.38-1.49-0.54c-0.59-0.16-1.29-0.24-2.09-0.24s-1.55,0.12-2.22,0.35
				c-0.67,0.23-1.29,0.55-1.84,0.95c-0.55,0.4-1.04,0.88-1.46,1.42c-0.42,0.55-0.78,1.13-1.07,1.76s-0.51,1.28-0.65,1.95
				c-0.14,0.67-0.21,1.34-0.21,1.99c0,0.73,0.11,1.37,0.31,1.92c0.21,0.55,0.51,1.01,0.9,1.38s0.87,0.65,1.43,0.84
				c0.56,0.19,1.19,0.28,1.88,0.28c0.46,0,0.93-0.05,1.38-0.14c0.46-0.1,0.88-0.24,1.27-0.43l0.85-4.26h-3.47
				c-0.11,0-0.2-0.04-0.27-0.13c-0.07-0.09-0.1-0.24-0.1-0.44c0-0.09,0.01-0.22,0.03-0.37c0.02-0.15,0.05-0.31,0.08-0.48
				c0.03-0.17,0.07-0.33,0.12-0.51c0.05-0.17,0.11-0.32,0.18-0.46c0.07-0.13,0.15-0.24,0.24-0.33c0.08-0.09,0.18-0.13,0.28-0.13
				h6.22c0.31,0,0.54,0.1,0.67,0.31c0.13,0.21,0.16,0.5,0.08,0.88l-1.48,7.37c-0.04,0.18-0.08,0.33-0.14,0.46
				c-0.06,0.13-0.13,0.25-0.23,0.35c-0.11,0.11-0.35,0.25-0.73,0.41c-0.38,0.16-0.84,0.31-1.39,0.46c-0.55,0.15-1.15,0.28-1.83,0.38
				c-0.67,0.11-1.36,0.16-2.06,0.16c-1.32,0-2.48-0.15-3.48-0.46c-1-0.3-1.85-0.76-2.53-1.36c-0.68-0.6-1.19-1.34-1.54-2.21
				c-0.35-0.87-0.53-1.88-0.53-3.02c0-1.02,0.11-2.03,0.33-3.02c0.22-0.99,0.56-1.92,1-2.81c0.44-0.89,0.99-1.71,1.64-2.46
				c0.65-0.75,1.4-1.41,2.26-1.96c0.86-0.55,1.81-0.98,2.87-1.29c1.05-0.31,2.2-0.46,3.46-0.46c0.69,0,1.35,0.05,1.97,0.16
				c0.62,0.11,1.17,0.24,1.66,0.4c0.49,0.16,0.9,0.32,1.23,0.5c0.33,0.18,0.55,0.32,0.66,0.42c0.11,0.1,0.18,0.21,0.22,0.33
				C318.68,598.63,318.7,598.78,318.7,598.97z"/>
			<path class="st1" d="M319.12,612.14c0-0.68,0.16-1.3,0.46-1.84c0.31-0.55,0.79-1.02,1.44-1.41c0.65-0.39,1.48-0.7,2.48-0.9
				c1-0.21,2.19-0.31,3.58-0.31h1.31c0.04-0.22,0.07-0.43,0.09-0.65c0.02-0.21,0.03-0.41,0.03-0.59c0-0.77-0.2-1.35-0.6-1.74
				c-0.4-0.39-1.04-0.58-1.92-0.58c-0.63,0-1.19,0.04-1.69,0.14c-0.5,0.09-0.93,0.19-1.31,0.3c-0.37,0.11-0.69,0.21-0.93,0.3
				c-0.25,0.09-0.43,0.13-0.54,0.13s-0.19-0.03-0.24-0.1c-0.05-0.07-0.07-0.17-0.07-0.31c0-0.16,0.01-0.35,0.04-0.56
				c0.03-0.21,0.07-0.41,0.12-0.62c0.05-0.21,0.12-0.4,0.2-0.58c0.08-0.18,0.17-0.32,0.28-0.41c0.11-0.11,0.32-0.23,0.63-0.34
				c0.3-0.11,0.67-0.22,1.09-0.31c0.43-0.1,0.91-0.17,1.44-0.23c0.53-0.06,1.07-0.09,1.62-0.09c0.91,0,1.71,0.1,2.38,0.28
				c0.68,0.19,1.25,0.48,1.7,0.87c0.46,0.39,0.8,0.88,1.02,1.49c0.23,0.6,0.34,1.32,0.34,2.14c0,0.64-0.06,1.32-0.18,2.04
				c-0.12,0.73-0.31,1.44-0.58,2.15c-0.26,0.7-0.61,1.38-1.02,2.03c-0.42,0.64-0.92,1.21-1.51,1.7c-0.59,0.49-1.28,0.88-2.06,1.17
				c-0.78,0.29-1.67,0.44-2.66,0.44c-0.86,0-1.6-0.1-2.23-0.3c-0.62-0.21-1.13-0.48-1.53-0.81c-0.4-0.34-0.69-0.72-0.89-1.15
				C319.22,613.04,319.12,612.6,319.12,612.14z M322.64,611.87c0,0.38,0.15,0.7,0.45,0.95c0.3,0.25,0.73,0.38,1.3,0.38
				c0.47,0,0.9-0.09,1.27-0.26c0.37-0.17,0.7-0.4,0.99-0.69c0.28-0.29,0.53-0.63,0.73-1.02c0.2-0.39,0.37-0.81,0.49-1.26h-1.2
				c-0.76,0-1.39,0.05-1.91,0.15c-0.51,0.1-0.93,0.23-1.24,0.4c-0.32,0.17-0.54,0.37-0.68,0.6
				C322.71,611.36,322.64,611.61,322.64,611.87z"/>
			<path class="st1" d="M345.27,614.94c-0.04,0.2-0.19,0.34-0.45,0.43c-0.26,0.09-0.68,0.13-1.26,0.13c-0.29,0-0.53-0.01-0.72-0.03
				c-0.18-0.02-0.33-0.05-0.45-0.09c-0.11-0.04-0.19-0.1-0.22-0.17c-0.03-0.07-0.04-0.16-0.02-0.26l0.38-2.03
				c-0.14,0.3-0.37,0.62-0.68,0.96c-0.31,0.33-0.68,0.64-1.11,0.92c-0.43,0.28-0.9,0.51-1.42,0.68s-1.05,0.26-1.6,0.26
				c-0.54,0-1.01-0.07-1.42-0.21c-0.4-0.14-0.75-0.32-1.04-0.56c-0.29-0.24-0.53-0.52-0.72-0.84c-0.19-0.32-0.34-0.67-0.46-1.02
				c-0.11-0.36-0.19-0.73-0.24-1.12c-0.05-0.39-0.07-0.76-0.07-1.13c0-0.62,0.06-1.28,0.17-1.99s0.29-1.41,0.53-2.11
				c0.24-0.7,0.55-1.37,0.92-2.01c0.37-0.64,0.81-1.21,1.33-1.71c0.52-0.49,1.11-0.89,1.78-1.18c0.67-0.3,1.42-0.44,2.25-0.44
				c0.37,0,0.72,0.04,1.06,0.12c0.34,0.08,0.64,0.19,0.92,0.33c0.28,0.14,0.53,0.3,0.76,0.49c0.23,0.19,0.42,0.39,0.58,0.6l1.35-6.7
				c0.02-0.1,0.06-0.18,0.13-0.26c0.07-0.08,0.17-0.14,0.32-0.19s0.34-0.09,0.57-0.12c0.23-0.03,0.52-0.04,0.88-0.04
				c0.35,0,0.64,0.02,0.86,0.04c0.22,0.03,0.4,0.07,0.52,0.12c0.12,0.05,0.2,0.12,0.24,0.19c0.04,0.07,0.05,0.16,0.03,0.26
				L345.27,614.94z M343.49,606.05c-0.33-0.52-0.7-0.91-1.1-1.18c-0.4-0.26-0.87-0.4-1.4-0.4c-0.39,0-0.75,0.09-1.07,0.28
				c-0.33,0.19-0.62,0.43-0.88,0.74s-0.49,0.67-0.68,1.08c-0.19,0.41-0.35,0.85-0.48,1.3c-0.13,0.46-0.23,0.91-0.29,1.37
				c-0.07,0.46-0.1,0.89-0.1,1.29c0,0.72,0.12,1.27,0.36,1.63c0.24,0.36,0.61,0.55,1.12,0.55c0.42,0,0.84-0.13,1.28-0.38
				c0.44-0.25,0.84-0.59,1.22-1.01c0.38-0.42,0.72-0.92,1-1.49c0.29-0.58,0.5-1.19,0.63-1.84L343.49,606.05z"/>
			<path class="st1" d="M348.82,612.14c0-0.68,0.16-1.3,0.46-1.84c0.31-0.55,0.79-1.02,1.44-1.41c0.65-0.39,1.48-0.7,2.48-0.9
				c1-0.21,2.19-0.31,3.58-0.31h1.31c0.04-0.22,0.07-0.43,0.09-0.65c0.02-0.21,0.03-0.41,0.03-0.59c0-0.77-0.2-1.35-0.6-1.74
				c-0.4-0.39-1.04-0.58-1.92-0.58c-0.63,0-1.19,0.04-1.69,0.14c-0.5,0.09-0.93,0.19-1.31,0.3c-0.37,0.11-0.69,0.21-0.93,0.3
				c-0.25,0.09-0.43,0.13-0.54,0.13s-0.19-0.03-0.24-0.1c-0.05-0.07-0.07-0.17-0.07-0.31c0-0.16,0.01-0.35,0.04-0.56
				c0.03-0.21,0.07-0.41,0.12-0.62c0.05-0.21,0.12-0.4,0.2-0.58c0.08-0.18,0.17-0.32,0.28-0.41c0.11-0.11,0.32-0.23,0.63-0.34
				c0.3-0.11,0.67-0.22,1.09-0.31c0.43-0.1,0.91-0.17,1.44-0.23c0.53-0.06,1.07-0.09,1.62-0.09c0.91,0,1.71,0.1,2.38,0.28
				c0.68,0.19,1.25,0.48,1.7,0.87c0.46,0.39,0.8,0.88,1.02,1.49c0.23,0.6,0.34,1.32,0.34,2.14c0,0.64-0.06,1.32-0.18,2.04
				c-0.12,0.73-0.31,1.44-0.58,2.15c-0.26,0.7-0.61,1.38-1.02,2.03c-0.42,0.64-0.92,1.21-1.51,1.7c-0.59,0.49-1.28,0.88-2.06,1.17
				c-0.78,0.29-1.67,0.44-2.66,0.44c-0.86,0-1.6-0.1-2.23-0.3c-0.62-0.21-1.13-0.48-1.53-0.81c-0.4-0.34-0.69-0.72-0.89-1.15
				C348.91,613.04,348.82,612.6,348.82,612.14z M352.33,611.87c0,0.38,0.15,0.7,0.45,0.95c0.3,0.25,0.73,0.38,1.3,0.38
				c0.47,0,0.9-0.09,1.27-0.26c0.37-0.17,0.7-0.4,0.99-0.69c0.28-0.29,0.53-0.63,0.73-1.02c0.2-0.39,0.37-0.81,0.49-1.26h-1.2
				c-0.76,0-1.39,0.05-1.91,0.15c-0.51,0.1-0.93,0.23-1.24,0.4c-0.32,0.17-0.54,0.37-0.68,0.6
				C352.4,611.36,352.33,611.61,352.33,611.87z"/>
			<path class="st1" d="M377.17,606.26c0,0.63-0.06,1.3-0.17,2.01c-0.11,0.71-0.29,1.42-0.53,2.12c-0.24,0.7-0.54,1.38-0.91,2.02
				c-0.37,0.65-0.82,1.21-1.34,1.71c-0.52,0.49-1.12,0.89-1.78,1.18c-0.67,0.29-1.42,0.44-2.24,0.44c-0.8,0-1.5-0.16-2.11-0.47
				c-0.61-0.31-1.14-0.79-1.59-1.42l-0.21,1.08c-0.04,0.2-0.19,0.34-0.45,0.43c-0.26,0.09-0.68,0.14-1.26,0.14
				c-0.57,0-0.96-0.05-1.16-0.14c-0.2-0.1-0.29-0.24-0.25-0.43l3.74-18.71c0.02-0.09,0.06-0.18,0.13-0.26
				c0.07-0.07,0.18-0.14,0.33-0.19c0.15-0.05,0.34-0.09,0.58-0.12s0.52-0.04,0.87-0.04c0.35,0,0.64,0.01,0.85,0.04
				c0.22,0.03,0.39,0.07,0.52,0.12c0.13,0.05,0.21,0.12,0.25,0.19c0.04,0.08,0.05,0.16,0.03,0.26l-1.01,5.09
				c-0.05,0.22-0.1,0.45-0.16,0.69c-0.06,0.24-0.12,0.48-0.19,0.72c-0.07,0.24-0.14,0.47-0.21,0.69c-0.07,0.22-0.14,0.42-0.21,0.59
				c0.17-0.3,0.42-0.61,0.73-0.92c0.32-0.31,0.68-0.59,1.09-0.83c0.41-0.25,0.85-0.44,1.32-0.6c0.47-0.15,0.94-0.23,1.42-0.23
				c0.54,0,1.01,0.07,1.41,0.21c0.4,0.14,0.74,0.32,1.04,0.56c0.29,0.24,0.54,0.52,0.73,0.84c0.19,0.32,0.34,0.66,0.46,1.02
				c0.11,0.35,0.19,0.72,0.23,1.1C377.15,605.54,377.17,605.91,377.17,606.26z M373.49,606.62c0-0.24-0.02-0.48-0.05-0.74
				s-0.11-0.49-0.21-0.7c-0.11-0.21-0.26-0.38-0.45-0.51c-0.19-0.13-0.44-0.2-0.76-0.2c-0.43,0-0.86,0.13-1.29,0.38
				c-0.43,0.25-0.84,0.59-1.22,1.03c-0.38,0.44-0.72,0.94-1.01,1.52c-0.3,0.58-0.5,1.2-0.63,1.85l-0.4,1.92
				c0.33,0.52,0.7,0.91,1.1,1.16c0.4,0.25,0.87,0.38,1.4,0.38c0.38,0,0.73-0.09,1.05-0.28c0.32-0.18,0.62-0.43,0.88-0.73
				c0.26-0.3,0.49-0.66,0.68-1.07c0.19-0.41,0.36-0.84,0.49-1.29c0.13-0.45,0.23-0.91,0.3-1.37
				C373.45,607.51,373.49,607.06,373.49,606.62z"/>
			<path class="st1" d="M378.51,612.14c0-0.68,0.16-1.3,0.46-1.84c0.31-0.55,0.79-1.02,1.44-1.41c0.65-0.39,1.48-0.7,2.48-0.9
				c1-0.21,2.19-0.31,3.58-0.31h1.31c0.04-0.22,0.07-0.43,0.09-0.65c0.02-0.21,0.03-0.41,0.03-0.59c0-0.77-0.2-1.35-0.6-1.74
				c-0.4-0.39-1.04-0.58-1.92-0.58c-0.63,0-1.19,0.04-1.69,0.14c-0.5,0.09-0.93,0.19-1.31,0.3c-0.37,0.11-0.69,0.21-0.93,0.3
				c-0.25,0.09-0.43,0.13-0.54,0.13s-0.19-0.03-0.24-0.1c-0.05-0.07-0.07-0.17-0.07-0.31c0-0.16,0.01-0.35,0.04-0.56
				c0.03-0.21,0.07-0.41,0.12-0.62c0.05-0.21,0.12-0.4,0.2-0.58c0.08-0.18,0.17-0.32,0.28-0.41c0.11-0.11,0.32-0.23,0.63-0.34
				s0.67-0.22,1.09-0.31c0.43-0.1,0.91-0.17,1.44-0.23c0.53-0.06,1.07-0.09,1.62-0.09c0.91,0,1.71,0.1,2.38,0.28
				c0.68,0.19,1.25,0.48,1.7,0.87c0.46,0.39,0.8,0.88,1.02,1.49c0.23,0.6,0.34,1.32,0.34,2.14c0,0.64-0.06,1.32-0.18,2.04
				c-0.12,0.73-0.31,1.44-0.58,2.15c-0.26,0.7-0.61,1.38-1.02,2.03c-0.42,0.64-0.92,1.21-1.51,1.7c-0.59,0.49-1.28,0.88-2.06,1.17
				c-0.78,0.29-1.67,0.44-2.66,0.44c-0.86,0-1.6-0.1-2.23-0.3c-0.62-0.21-1.13-0.48-1.53-0.81c-0.4-0.34-0.69-0.72-0.89-1.15
				C378.61,613.04,378.51,612.6,378.51,612.14z M382.02,611.87c0,0.38,0.15,0.7,0.45,0.95c0.3,0.25,0.73,0.38,1.3,0.38
				c0.47,0,0.9-0.09,1.27-0.26c0.37-0.17,0.7-0.4,0.99-0.69c0.28-0.29,0.53-0.63,0.73-1.02c0.2-0.39,0.37-0.81,0.49-1.26h-1.2
				c-0.76,0-1.39,0.05-1.91,0.15c-0.51,0.1-0.93,0.23-1.24,0.4c-0.32,0.17-0.54,0.37-0.68,0.6
				C382.09,611.36,382.02,611.61,382.02,611.87z"/>
			<path class="st1" d="M406.34,602.2c0,0.12-0.02,0.26-0.04,0.41c-0.03,0.15-0.07,0.31-0.13,0.47c-0.32,0.87-0.67,1.78-1.05,2.7
				c-0.37,0.93-0.8,1.89-1.29,2.87c-0.48,0.99-1.03,2.01-1.65,3.06c-0.62,1.05-1.32,2.14-2.12,3.27l-3.47,4.92
				c-0.08,0.12-0.19,0.23-0.32,0.31c-0.13,0.08-0.29,0.15-0.48,0.2c-0.19,0.05-0.43,0.09-0.7,0.12c-0.28,0.03-0.59,0.04-0.95,0.04
				c-0.41,0-0.74-0.02-0.99-0.05c-0.25-0.04-0.43-0.09-0.55-0.16c-0.11-0.08-0.17-0.17-0.16-0.28c0.01-0.11,0.08-0.25,0.2-0.41
				l3.23-4.25l-2.09-12.21c-0.02-0.12-0.04-0.25-0.06-0.39c-0.02-0.13-0.03-0.25-0.03-0.34c0-0.17,0.03-0.31,0.09-0.41
				c0.06-0.11,0.17-0.19,0.31-0.24c0.15-0.06,0.34-0.1,0.59-0.12c0.25-0.02,0.55-0.04,0.9-0.04c0.39,0,0.69,0.01,0.92,0.02
				c0.22,0.01,0.39,0.04,0.51,0.09c0.11,0.05,0.19,0.12,0.23,0.21c0.04,0.1,0.07,0.21,0.09,0.36l1.31,8.89h0.03
				c0.47-0.71,0.9-1.43,1.29-2.16c0.39-0.73,0.74-1.47,1.07-2.23c0.32-0.75,0.62-1.52,0.89-2.29c0.27-0.77,0.52-1.55,0.75-2.34
				c0.02-0.09,0.06-0.18,0.13-0.25c0.07-0.07,0.18-0.13,0.33-0.17c0.16-0.04,0.36-0.08,0.62-0.1c0.26-0.02,0.59-0.04,1-0.04
				c0.61,0,1.02,0.04,1.25,0.11C406.23,601.86,406.34,602,406.34,602.2z"/>
		</g>
		<g>
			<path class="st1" d="M507.67,436.81c-0.78-0.09-1.41-0.23-1.9-0.4c-0.49-0.18-0.87-0.34-1.15-0.5c-0.28-0.16-0.49-0.31-0.62-0.45
				c-0.13-0.14-0.2-0.36-0.2-0.64c0-0.07,0.01-0.19,0.03-0.34c0.02-0.15,0.05-0.32,0.08-0.49s0.07-0.35,0.12-0.54
				c0.05-0.18,0.1-0.35,0.17-0.51c0.07-0.15,0.14-0.27,0.22-0.37c0.08-0.09,0.17-0.14,0.26-0.14c0.16,0,0.35,0.07,0.58,0.22
				c0.22,0.15,0.5,0.31,0.83,0.48c0.33,0.18,0.73,0.34,1.18,0.49c0.46,0.15,1,0.23,1.64,0.23c0.56,0,1.05-0.07,1.47-0.21
				c0.42-0.14,0.77-0.34,1.06-0.58c0.28-0.25,0.5-0.53,0.65-0.86c0.15-0.33,0.22-0.69,0.22-1.07c0-0.35-0.08-0.66-0.25-0.92
				c-0.17-0.27-0.4-0.51-0.68-0.73s-0.6-0.43-0.95-0.63c-0.35-0.2-0.72-0.41-1.09-0.64c-0.37-0.23-0.73-0.47-1.09-0.74
				c-0.36-0.26-0.67-0.58-0.95-0.93c-0.28-0.36-0.51-0.77-0.68-1.23c-0.17-0.46-0.25-1-0.25-1.62c0-0.85,0.17-1.64,0.51-2.36
				c0.34-0.72,0.81-1.34,1.42-1.86c0.61-0.52,1.33-0.92,2.18-1.21c0.84-0.29,1.77-0.44,2.79-0.44c0.47,0,0.92,0.04,1.35,0.11
				c0.42,0.07,0.81,0.16,1.16,0.27c0.35,0.11,0.65,0.23,0.9,0.36c0.25,0.13,0.42,0.25,0.51,0.33s0.16,0.19,0.21,0.28
				c0.04,0.1,0.07,0.23,0.07,0.38c0,0.08-0.01,0.19-0.02,0.33c-0.02,0.14-0.04,0.3-0.07,0.47c-0.03,0.17-0.06,0.34-0.11,0.52
				c-0.04,0.18-0.1,0.33-0.16,0.48c-0.06,0.15-0.13,0.27-0.21,0.36c-0.08,0.1-0.16,0.14-0.24,0.14c-0.13,0-0.3-0.06-0.5-0.18
				c-0.2-0.12-0.44-0.25-0.73-0.38c-0.29-0.14-0.63-0.27-1.02-0.39c-0.39-0.12-0.83-0.18-1.32-0.18c-0.51,0-0.95,0.07-1.3,0.21
				c-0.35,0.14-0.65,0.33-0.87,0.56c-0.23,0.23-0.4,0.49-0.51,0.78c-0.11,0.29-0.16,0.58-0.16,0.87c0,0.34,0.09,0.64,0.26,0.9
				c0.17,0.26,0.4,0.5,0.68,0.73c0.28,0.22,0.61,0.44,0.97,0.65c0.37,0.21,0.74,0.43,1.11,0.65s0.74,0.48,1.11,0.75
				c0.37,0.27,0.69,0.58,0.98,0.94c0.28,0.35,0.51,0.76,0.68,1.22c0.17,0.46,0.25,0.99,0.25,1.58c0,0.89-0.18,1.72-0.53,2.47
				c-0.36,0.76-0.84,1.4-1.44,1.93c-0.61,0.53-1.27,0.94-2,1.22c-0.73,0.28-1.34,0.46-1.84,0.51l0.18,0.77
				c0.07,0.24,0.12,0.46,0.16,0.67c0.04,0.21,0.06,0.42,0.06,0.63c0,0.51-0.09,0.96-0.26,1.33c-0.17,0.37-0.4,0.68-0.7,0.93
				c-0.3,0.24-0.66,0.42-1.08,0.53c-0.42,0.11-0.89,0.17-1.4,0.17c-0.28,0-0.54-0.01-0.8-0.03c-0.26-0.02-0.5-0.05-0.72-0.09
				c-0.22-0.04-0.42-0.09-0.59-0.14c-0.18-0.05-0.32-0.1-0.42-0.15c-0.11-0.06-0.18-0.12-0.21-0.18c-0.04-0.06-0.06-0.16-0.06-0.28
				c0-0.1,0.01-0.23,0.04-0.4s0.06-0.34,0.12-0.51s0.14-0.32,0.23-0.45c0.1-0.13,0.23-0.19,0.38-0.19h1.62
				c0.13,0,0.26-0.02,0.39-0.05c0.12-0.04,0.23-0.08,0.32-0.14c0.09-0.06,0.16-0.15,0.21-0.25c0.05-0.11,0.08-0.22,0.08-0.36
				c0-0.09-0.01-0.2-0.02-0.33c-0.02-0.12-0.04-0.25-0.07-0.37L507.67,436.81z"/>
			<path class="st1" d="M517.9,433.27c0-0.68,0.16-1.3,0.46-1.84c0.31-0.55,0.79-1.02,1.44-1.41c0.65-0.39,1.48-0.7,2.48-0.9
				c1-0.21,2.19-0.31,3.58-0.31h1.31c0.04-0.22,0.07-0.43,0.09-0.65c0.02-0.21,0.03-0.41,0.03-0.59c0-0.77-0.2-1.35-0.6-1.74
				c-0.4-0.39-1.04-0.58-1.92-0.58c-0.63,0-1.19,0.04-1.69,0.14c-0.5,0.09-0.93,0.19-1.31,0.3c-0.37,0.11-0.69,0.21-0.93,0.3
				c-0.25,0.09-0.43,0.13-0.54,0.13s-0.19-0.03-0.24-0.1c-0.05-0.07-0.07-0.17-0.07-0.31c0-0.16,0.01-0.35,0.04-0.56
				c0.03-0.21,0.07-0.41,0.12-0.62c0.05-0.21,0.12-0.4,0.2-0.58c0.08-0.18,0.17-0.32,0.28-0.41c0.11-0.11,0.32-0.23,0.63-0.34
				c0.3-0.11,0.67-0.22,1.09-0.31c0.43-0.1,0.91-0.17,1.44-0.23c0.53-0.06,1.07-0.09,1.62-0.09c0.91,0,1.71,0.1,2.38,0.28
				c0.68,0.19,1.25,0.48,1.7,0.87c0.46,0.39,0.8,0.88,1.02,1.49c0.23,0.6,0.34,1.32,0.34,2.14c0,0.64-0.06,1.32-0.18,2.04
				c-0.12,0.73-0.31,1.44-0.58,2.15c-0.26,0.7-0.61,1.38-1.02,2.03c-0.42,0.64-0.92,1.21-1.51,1.7c-0.59,0.49-1.28,0.88-2.06,1.17
				c-0.78,0.29-1.67,0.44-2.66,0.44c-0.86,0-1.6-0.1-2.23-0.3c-0.62-0.21-1.13-0.48-1.53-0.81s-0.69-0.72-0.89-1.15
				C517.99,434.17,517.9,433.72,517.9,433.27z M521.41,433c0,0.38,0.15,0.7,0.45,0.95c0.3,0.25,0.73,0.38,1.3,0.38
				c0.47,0,0.9-0.09,1.27-0.26c0.37-0.17,0.7-0.4,0.99-0.69c0.28-0.29,0.53-0.63,0.73-1.02c0.2-0.39,0.37-0.81,0.49-1.26h-1.2
				c-0.76,0-1.39,0.05-1.91,0.15c-0.51,0.1-0.93,0.23-1.24,0.4c-0.32,0.17-0.54,0.37-0.68,0.6
				C521.48,432.48,521.41,432.73,521.41,433z"/>
			<path class="st1" d="M552.16,436.06c-0.02,0.09-0.07,0.18-0.14,0.25c-0.07,0.07-0.18,0.13-0.33,0.18
				c-0.15,0.05-0.34,0.08-0.58,0.11c-0.23,0.02-0.53,0.04-0.88,0.04c-0.34,0-0.63-0.01-0.85-0.04c-0.23-0.02-0.4-0.06-0.53-0.11
				c-0.12-0.05-0.21-0.11-0.25-0.18c-0.04-0.07-0.05-0.16-0.02-0.25l1.52-7.61c0.04-0.22,0.07-0.43,0.1-0.65
				c0.03-0.21,0.04-0.43,0.04-0.65c0-0.45-0.08-0.81-0.25-1.08c-0.17-0.28-0.46-0.41-0.89-0.41c-0.38,0-0.77,0.12-1.18,0.37
				c-0.41,0.25-0.8,0.58-1.17,1c-0.37,0.42-0.71,0.92-1,1.48c-0.29,0.56-0.5,1.16-0.62,1.8l-1.15,5.75
				c-0.02,0.09-0.06,0.18-0.13,0.25c-0.07,0.07-0.18,0.13-0.33,0.18c-0.15,0.05-0.34,0.08-0.58,0.11c-0.23,0.02-0.53,0.04-0.88,0.04
				c-0.34,0-0.62-0.01-0.85-0.04c-0.22-0.02-0.4-0.06-0.52-0.11c-0.12-0.05-0.21-0.11-0.25-0.18c-0.04-0.07-0.05-0.16-0.04-0.25
				l1.51-7.61c0.06-0.22,0.1-0.44,0.12-0.67c0.02-0.23,0.04-0.46,0.04-0.68c0-0.42-0.09-0.76-0.26-1.03
				c-0.17-0.27-0.46-0.41-0.88-0.41c-0.38,0-0.77,0.12-1.18,0.37c-0.41,0.25-0.8,0.58-1.17,1c-0.37,0.42-0.71,0.92-1,1.48
				c-0.29,0.56-0.5,1.16-0.62,1.8l-1.15,5.75c-0.02,0.09-0.07,0.18-0.14,0.25c-0.07,0.07-0.18,0.13-0.33,0.18
				c-0.15,0.05-0.34,0.08-0.58,0.11c-0.24,0.02-0.53,0.04-0.87,0.04c-0.35,0-0.64-0.01-0.86-0.04c-0.22-0.02-0.4-0.06-0.53-0.11
				c-0.13-0.05-0.21-0.11-0.25-0.18c-0.04-0.07-0.05-0.16-0.03-0.25l2.55-12.71c0.02-0.09,0.06-0.18,0.12-0.25
				c0.06-0.07,0.16-0.13,0.28-0.17c0.13-0.04,0.29-0.08,0.5-0.1s0.45-0.04,0.73-0.04c0.29,0,0.53,0.01,0.72,0.04
				c0.19,0.02,0.33,0.06,0.44,0.1c0.1,0.04,0.17,0.1,0.21,0.17c0.03,0.07,0.04,0.15,0.02,0.25l-0.41,2.09
				c0.2-0.33,0.46-0.67,0.8-1.02c0.33-0.35,0.71-0.66,1.13-0.93c0.42-0.27,0.88-0.5,1.38-0.67c0.5-0.18,1.01-0.26,1.55-0.26
				c0.55,0,1.03,0.07,1.43,0.22c0.4,0.15,0.74,0.35,1,0.61c0.26,0.26,0.46,0.56,0.6,0.92c0.14,0.35,0.23,0.73,0.26,1.14
				c0.22-0.34,0.49-0.68,0.83-1.02c0.34-0.34,0.72-0.65,1.14-0.93c0.42-0.27,0.88-0.5,1.37-0.67c0.49-0.18,1-0.26,1.52-0.26
				c0.66,0,1.22,0.09,1.67,0.28c0.45,0.19,0.81,0.44,1.09,0.77c0.28,0.33,0.48,0.71,0.6,1.15c0.12,0.44,0.18,0.92,0.18,1.43
				c0,0.33-0.02,0.67-0.06,1c-0.04,0.34-0.09,0.68-0.17,1.03L552.16,436.06z"/>
			<path class="st1" d="M569.55,423.31c0,0.15-0.07,0.33-0.19,0.53c-0.13,0.2-0.34,0.46-0.63,0.77l-4.48,4.22l2.92,6.12
				c0.09,0.23,0.16,0.43,0.2,0.6c0.04,0.17,0.06,0.3,0.06,0.4c0,0.11-0.03,0.21-0.09,0.3c-0.06,0.09-0.17,0.16-0.31,0.21
				s-0.35,0.1-0.6,0.12c-0.25,0.02-0.57,0.04-0.95,0.04c-0.38,0-0.69-0.01-0.92-0.03c-0.23-0.02-0.41-0.05-0.54-0.1
				c-0.13-0.05-0.22-0.11-0.28-0.18c-0.06-0.08-0.11-0.17-0.14-0.28l-3-6.69l-1.34,6.72c-0.03,0.09-0.08,0.18-0.15,0.25
				c-0.07,0.07-0.18,0.13-0.33,0.18c-0.15,0.05-0.34,0.08-0.58,0.11c-0.24,0.02-0.53,0.04-0.87,0.04c-0.35,0-0.64-0.01-0.86-0.04
				c-0.22-0.02-0.4-0.06-0.52-0.1c-0.12-0.04-0.21-0.1-0.25-0.17c-0.04-0.07-0.05-0.15-0.04-0.25l3.76-18.72
				c0.02-0.09,0.06-0.18,0.13-0.26c0.07-0.07,0.18-0.14,0.33-0.19c0.15-0.05,0.34-0.09,0.58-0.12c0.23-0.03,0.52-0.04,0.87-0.04
				c0.35,0,0.64,0.01,0.86,0.04c0.22,0.03,0.4,0.07,0.52,0.12c0.12,0.05,0.2,0.12,0.24,0.19c0.04,0.08,0.05,0.16,0.03,0.26
				l-2.22,11.14l4.75-5.08c0.09-0.11,0.19-0.21,0.3-0.29s0.25-0.14,0.42-0.19c0.17-0.05,0.38-0.08,0.62-0.1
				c0.24-0.02,0.54-0.03,0.9-0.03c0.35,0,0.65,0.01,0.88,0.03c0.24,0.02,0.42,0.05,0.55,0.09c0.13,0.04,0.23,0.1,0.28,0.16
				C569.52,423.15,569.55,423.22,569.55,423.31z"/>
			<path class="st1" d="M573.23,436.06c-0.02,0.09-0.07,0.18-0.14,0.25c-0.07,0.07-0.18,0.13-0.33,0.18
				c-0.15,0.05-0.34,0.08-0.58,0.11c-0.24,0.02-0.53,0.04-0.87,0.04c-0.35,0-0.64-0.01-0.86-0.04c-0.22-0.02-0.4-0.06-0.53-0.11
				c-0.13-0.05-0.21-0.11-0.25-0.18c-0.04-0.07-0.05-0.16-0.03-0.25l2.52-12.66c0.02-0.1,0.07-0.18,0.14-0.25
				c0.07-0.07,0.18-0.13,0.33-0.18c0.15-0.05,0.34-0.09,0.57-0.12c0.23-0.03,0.52-0.04,0.88-0.04c0.35,0,0.64,0.01,0.86,0.04
				c0.22,0.03,0.4,0.07,0.53,0.12c0.13,0.05,0.21,0.11,0.25,0.18c0.04,0.07,0.05,0.15,0.03,0.25L573.23,436.06z M576.9,419.1
				c-0.07,0.35-0.16,0.65-0.27,0.89c-0.11,0.24-0.26,0.44-0.46,0.58c-0.19,0.15-0.42,0.25-0.7,0.31c-0.27,0.06-0.62,0.09-1.02,0.09
				c-0.4,0-0.72-0.03-0.97-0.09c-0.25-0.06-0.44-0.17-0.57-0.31c-0.13-0.15-0.2-0.34-0.22-0.58c-0.02-0.24,0.01-0.54,0.09-0.89
				c0.07-0.34,0.16-0.63,0.27-0.87c0.11-0.24,0.26-0.43,0.46-0.58c0.19-0.15,0.42-0.26,0.7-0.33c0.27-0.07,0.62-0.1,1.02-0.1
				c0.4,0,0.72,0.03,0.97,0.1c0.25,0.07,0.44,0.18,0.57,0.33c0.13,0.15,0.2,0.35,0.21,0.58C576.99,418.47,576.97,418.76,576.9,419.1
				z"/>
			<path class="st1" d="M587.34,423.17c0,0.07-0.01,0.18-0.03,0.35s-0.05,0.37-0.09,0.6c-0.04,0.23-0.09,0.46-0.14,0.7
				c-0.06,0.24-0.12,0.47-0.19,0.68c-0.07,0.21-0.15,0.38-0.24,0.51c-0.09,0.13-0.19,0.2-0.29,0.2c-0.09,0-0.17-0.02-0.26-0.05
				c-0.08-0.03-0.18-0.07-0.28-0.1c-0.1-0.04-0.22-0.07-0.34-0.1c-0.12-0.03-0.26-0.05-0.42-0.05c-0.32,0-0.67,0.12-1.03,0.37
				c-0.37,0.25-0.71,0.57-1.05,0.98c-0.33,0.4-0.63,0.87-0.89,1.41c-0.26,0.54-0.45,1.1-0.56,1.69l-1.14,5.71
				c-0.02,0.09-0.07,0.18-0.14,0.25c-0.07,0.07-0.18,0.13-0.33,0.18c-0.15,0.05-0.34,0.08-0.58,0.11c-0.24,0.02-0.53,0.04-0.87,0.04
				c-0.35,0-0.64-0.01-0.86-0.04c-0.22-0.02-0.4-0.06-0.53-0.11c-0.13-0.05-0.21-0.11-0.25-0.18c-0.04-0.07-0.05-0.16-0.03-0.25
				l2.53-12.71c0.02-0.09,0.06-0.18,0.13-0.25c0.07-0.07,0.16-0.13,0.29-0.17c0.13-0.04,0.29-0.08,0.5-0.1
				c0.2-0.02,0.45-0.04,0.73-0.04c0.29,0,0.53,0.01,0.72,0.04c0.19,0.02,0.33,0.06,0.44,0.1c0.1,0.04,0.17,0.1,0.21,0.17
				c0.03,0.07,0.04,0.15,0.02,0.25l-0.4,2.02c0.23-0.41,0.49-0.78,0.79-1.12c0.3-0.34,0.62-0.64,0.95-0.89
				c0.34-0.25,0.69-0.45,1.05-0.59c0.36-0.14,0.72-0.21,1.07-0.21c0.14,0,0.29,0.01,0.43,0.03c0.15,0.02,0.28,0.04,0.41,0.07
				c0.13,0.03,0.24,0.06,0.34,0.11c0.1,0.04,0.18,0.09,0.23,0.13C587.31,422.95,587.34,423.04,587.34,423.17z"/>
		</g>
		<g>
			<path class="st1" d="M397.6,295.47c0,0.07-0.01,0.17-0.02,0.32c-0.01,0.15-0.04,0.31-0.07,0.49c-0.04,0.18-0.07,0.37-0.13,0.56
				c-0.05,0.19-0.11,0.37-0.19,0.53c-0.07,0.16-0.15,0.29-0.25,0.4c-0.1,0.1-0.21,0.16-0.32,0.16H392l-2.96,14.84
				c-0.03,0.1-0.08,0.18-0.15,0.26c-0.08,0.08-0.19,0.14-0.35,0.18c-0.16,0.05-0.35,0.09-0.6,0.11c-0.25,0.03-0.55,0.04-0.92,0.04
				c-0.36,0-0.66-0.01-0.9-0.04c-0.24-0.03-0.42-0.07-0.55-0.11s-0.21-0.11-0.25-0.18c-0.04-0.08-0.06-0.16-0.04-0.26l2.96-14.84
				h-4.58c-0.14,0-0.24-0.05-0.29-0.16c-0.05-0.1-0.08-0.25-0.08-0.43c0-0.08,0.01-0.19,0.02-0.33c0.02-0.15,0.04-0.31,0.07-0.5
				c0.03-0.19,0.07-0.38,0.13-0.57c0.05-0.19,0.11-0.37,0.19-0.53c0.07-0.16,0.16-0.29,0.25-0.39c0.1-0.1,0.2-0.15,0.32-0.15h12.98
				c0.11,0,0.2,0.05,0.26,0.16C397.57,295.14,397.6,295.28,397.6,295.47z"/>
			<path class="st1" d="M408.01,304.38c0,0.68-0.07,1.38-0.19,2.11s-0.33,1.43-0.6,2.11c-0.28,0.69-0.63,1.33-1.06,1.94
				c-0.43,0.6-0.95,1.13-1.55,1.59c-0.6,0.46-1.29,0.82-2.07,1.09c-0.78,0.27-1.66,0.4-2.64,0.4c-0.96,0-1.79-0.11-2.48-0.33
				c-0.7-0.22-1.28-0.55-1.74-0.98c-0.46-0.43-0.81-0.96-1.04-1.59c-0.23-0.63-0.34-1.35-0.34-2.17c0-0.68,0.06-1.38,0.19-2.11
				c0.13-0.72,0.33-1.42,0.6-2.11c0.28-0.68,0.63-1.33,1.06-1.94c0.43-0.61,0.95-1.15,1.55-1.6c0.6-0.46,1.29-0.82,2.07-1.08
				s1.65-0.4,2.63-0.4c0.96,0,1.79,0.11,2.48,0.33c0.7,0.22,1.28,0.55,1.75,0.98c0.46,0.43,0.81,0.96,1.04,1.59
				C407.89,302.84,408.01,303.57,408.01,304.38z M404.31,304.62c0-0.4-0.04-0.75-0.12-1.06c-0.08-0.31-0.21-0.57-0.4-0.78
				c-0.18-0.21-0.42-0.38-0.71-0.49s-0.64-0.17-1.06-0.17c-0.48,0-0.9,0.09-1.28,0.28c-0.38,0.19-0.72,0.43-1.02,0.75
				c-0.3,0.31-0.56,0.68-0.77,1.09c-0.22,0.41-0.4,0.85-0.54,1.3c-0.14,0.46-0.25,0.92-0.31,1.39c-0.07,0.47-0.1,0.92-0.1,1.35
				c0,0.4,0.04,0.75,0.12,1.07c0.08,0.31,0.21,0.58,0.4,0.79c0.19,0.21,0.42,0.38,0.71,0.49c0.29,0.11,0.64,0.17,1.06,0.17
				c0.47,0,0.9-0.09,1.28-0.28c0.38-0.18,0.72-0.44,1.02-0.75c0.3-0.32,0.56-0.68,0.77-1.1c0.22-0.41,0.4-0.85,0.54-1.31
				c0.14-0.46,0.25-0.92,0.31-1.39C404.27,305.49,404.31,305.05,404.31,304.62z"/>
			<path class="st1" d="M422.9,300.01c0,0.1-0.01,0.23-0.04,0.38c-0.03,0.15-0.07,0.31-0.13,0.48c-0.35,1.02-0.74,2.05-1.16,3.08
				c-0.43,1.03-0.9,2.05-1.41,3.05s-1.06,1.99-1.65,2.96c-0.6,0.97-1.24,1.9-1.93,2.8c-0.09,0.13-0.21,0.24-0.34,0.32
				c-0.13,0.08-0.29,0.14-0.48,0.19c-0.19,0.04-0.42,0.07-0.67,0.08c-0.26,0.01-0.56,0.01-0.9,0.01c-0.52,0-0.93-0.01-1.24-0.04
				c-0.3-0.02-0.53-0.06-0.7-0.12c-0.16-0.06-0.27-0.13-0.33-0.24c-0.06-0.1-0.09-0.22-0.1-0.38l-1.5-11.41
				c-0.01-0.15-0.02-0.29-0.03-0.43c-0.01-0.13-0.01-0.26-0.01-0.37c0-0.19,0.02-0.33,0.06-0.43c0.04-0.1,0.13-0.18,0.26-0.24
				c0.13-0.06,0.31-0.11,0.56-0.13c0.24-0.03,0.56-0.04,0.97-0.04c0.38,0,0.68,0.01,0.9,0.03c0.22,0.02,0.39,0.05,0.5,0.1
				c0.12,0.05,0.2,0.11,0.24,0.19c0.04,0.08,0.06,0.18,0.07,0.29l1.08,9.32v0.36l0.07-0.13c0.49-0.73,0.92-1.47,1.32-2.21
				c0.39-0.74,0.76-1.5,1.09-2.28c0.34-0.78,0.65-1.58,0.95-2.42c0.3-0.84,0.59-1.72,0.87-2.65c0.03-0.12,0.08-0.22,0.15-0.3
				c0.08-0.08,0.19-0.14,0.35-0.18c0.16-0.05,0.35-0.08,0.6-0.1c0.24-0.02,0.54-0.03,0.9-0.03c0.35,0,0.64,0.01,0.86,0.03
				c0.22,0.02,0.39,0.05,0.51,0.09c0.12,0.04,0.2,0.09,0.24,0.14C422.88,299.86,422.9,299.93,422.9,300.01z"/>
			<path class="st1" d="M434.72,312.82c-0.02,0.1-0.06,0.18-0.12,0.25c-0.06,0.07-0.15,0.13-0.28,0.17
				c-0.13,0.04-0.29,0.08-0.49,0.1c-0.2,0.02-0.45,0.04-0.74,0.04s-0.53-0.01-0.72-0.04c-0.18-0.02-0.33-0.06-0.43-0.1
				c-0.11-0.04-0.18-0.1-0.21-0.17c-0.04-0.07-0.04-0.15-0.01-0.25l0.39-2.06c-0.19,0.33-0.45,0.67-0.78,1
				c-0.33,0.34-0.71,0.65-1.14,0.93c-0.43,0.28-0.9,0.5-1.41,0.68c-0.5,0.17-1.02,0.26-1.55,0.26c-0.66,0-1.23-0.09-1.69-0.28
				c-0.46-0.19-0.83-0.44-1.11-0.76c-0.28-0.32-0.49-0.7-0.61-1.14s-0.19-0.93-0.19-1.45c0-0.32,0.02-0.65,0.07-0.99
				c0.04-0.34,0.1-0.68,0.16-1.03l1.56-7.87c0.02-0.1,0.07-0.18,0.14-0.25c0.07-0.07,0.18-0.13,0.33-0.17
				c0.15-0.04,0.34-0.08,0.58-0.1c0.24-0.02,0.53-0.04,0.87-0.04c0.35,0,0.64,0.01,0.86,0.04c0.22,0.02,0.39,0.06,0.52,0.1
				c0.12,0.04,0.21,0.1,0.25,0.17c0.04,0.07,0.06,0.15,0.04,0.25l-1.51,7.63c-0.05,0.21-0.08,0.43-0.11,0.65
				c-0.02,0.23-0.04,0.45-0.04,0.65c0,0.23,0.02,0.43,0.07,0.62c0.04,0.19,0.11,0.34,0.21,0.48c0.1,0.13,0.21,0.23,0.36,0.3
				c0.14,0.07,0.32,0.1,0.53,0.1c0.39,0,0.79-0.13,1.22-0.38c0.42-0.25,0.82-0.6,1.2-1.04c0.38-0.44,0.72-0.96,1.02-1.57
				c0.3-0.6,0.52-1.25,0.67-1.96l1.08-5.49c0.01-0.1,0.05-0.18,0.13-0.25c0.08-0.07,0.19-0.13,0.34-0.17
				c0.14-0.04,0.34-0.08,0.57-0.1c0.24-0.02,0.53-0.04,0.87-0.04c0.35,0,0.64,0.01,0.86,0.04c0.22,0.02,0.4,0.06,0.53,0.1
				c0.13,0.04,0.21,0.1,0.25,0.17c0.04,0.07,0.05,0.15,0.03,0.25L434.72,312.82z"/>
			<path class="st1" d="M449.31,300.14c0,0.07-0.01,0.17-0.03,0.31c-0.02,0.14-0.04,0.29-0.07,0.46c-0.03,0.16-0.06,0.32-0.09,0.47
				c-0.03,0.15-0.06,0.27-0.08,0.36c-0.07,0.25-0.16,0.47-0.28,0.67c-0.12,0.2-0.29,0.43-0.51,0.68l-6,7.33h4.84
				c0.14,0,0.25,0.05,0.31,0.14c0.06,0.1,0.09,0.25,0.09,0.46c0,0.08-0.01,0.19-0.02,0.33c-0.01,0.15-0.04,0.31-0.07,0.48
				c-0.04,0.17-0.07,0.34-0.13,0.51c-0.05,0.17-0.11,0.33-0.19,0.47c-0.07,0.14-0.15,0.26-0.25,0.35c-0.09,0.09-0.2,0.14-0.31,0.14
				h-8.38c-0.18,0-0.32-0.05-0.42-0.16c-0.09-0.11-0.14-0.28-0.14-0.5c0-0.08,0.01-0.18,0.03-0.31c0.02-0.13,0.04-0.26,0.07-0.4
				c0.03-0.14,0.06-0.27,0.08-0.4c0.03-0.13,0.06-0.23,0.09-0.31c0.03-0.1,0.06-0.2,0.09-0.3c0.03-0.1,0.08-0.19,0.14-0.3
				c0.06-0.1,0.14-0.22,0.23-0.34c0.09-0.12,0.21-0.27,0.35-0.43l6.06-7.34h-4.33c-0.13,0-0.23-0.05-0.3-0.14
				c-0.07-0.1-0.11-0.26-0.11-0.5c0-0.1,0.01-0.22,0.02-0.36c0.01-0.15,0.04-0.3,0.07-0.46c0.04-0.16,0.08-0.33,0.13-0.5
				c0.05-0.17,0.11-0.32,0.19-0.46c0.08-0.13,0.16-0.24,0.26-0.33c0.1-0.09,0.2-0.13,0.31-0.13h7.84c0.2,0,0.34,0.04,0.41,0.14
				C449.27,299.85,449.31,299.98,449.31,300.14z"/>
		</g>
		<g>
			<path class="st1" d="M176.9,187.11c0,0.09-0.01,0.21-0.03,0.37c-0.02,0.16-0.05,0.34-0.09,0.53c-0.04,0.19-0.09,0.38-0.14,0.58
				c-0.06,0.19-0.12,0.37-0.2,0.53c-0.08,0.16-0.16,0.28-0.25,0.38c-0.09,0.1-0.19,0.15-0.31,0.15c-0.09,0-0.25-0.03-0.46-0.08
				c-0.21-0.05-0.47-0.14-0.76-0.26c-0.3-0.12-0.62-0.27-0.98-0.46c-0.35-0.19-0.72-0.42-1.09-0.7c-0.37-0.28-0.74-0.59-1.11-0.95
				c-0.37-0.36-0.72-0.76-1.04-1.22c-0.5,0.23-1.06,0.4-1.66,0.52c-0.6,0.12-1.27,0.18-2.01,0.18c-1.15,0-2.16-0.13-3.04-0.38
				c-0.88-0.26-1.62-0.65-2.22-1.18c-0.6-0.53-1.05-1.2-1.36-2.01c-0.31-0.81-0.46-1.76-0.46-2.85c0-0.89,0.08-1.82,0.23-2.8
				c0.16-0.97,0.41-1.93,0.75-2.86c0.35-0.93,0.8-1.82,1.35-2.67c0.55-0.84,1.23-1.59,2.02-2.23c0.79-0.65,1.71-1.16,2.76-1.53
				c1.05-0.37,2.25-0.56,3.59-0.56c1.14,0,2.15,0.13,3.03,0.39c0.88,0.26,1.62,0.66,2.22,1.2c0.6,0.54,1.05,1.21,1.36,2.03
				c0.31,0.82,0.46,1.78,0.46,2.87c0,0.54-0.03,1.11-0.09,1.71s-0.16,1.2-0.29,1.81c-0.13,0.61-0.31,1.22-0.52,1.83
				c-0.21,0.61-0.47,1.21-0.77,1.79c-0.3,0.58-0.65,1.14-1.05,1.67c-0.4,0.53-0.86,1.02-1.37,1.49c0.45,0.46,0.86,0.83,1.24,1.08
				c0.38,0.26,0.71,0.46,1,0.6c0.29,0.15,0.53,0.25,0.73,0.32c0.19,0.07,0.32,0.13,0.39,0.2c0.07,0.07,0.11,0.13,0.13,0.2
				C176.9,186.87,176.9,186.97,176.9,187.11z M173.53,174.47c0-0.58-0.07-1.1-0.19-1.57c-0.13-0.47-0.33-0.87-0.62-1.19
				c-0.28-0.32-0.66-0.57-1.12-0.75c-0.47-0.18-1.02-0.26-1.68-0.26c-0.82,0-1.55,0.16-2.18,0.48c-0.63,0.32-1.18,0.73-1.64,1.25
				c-0.46,0.51-0.85,1.1-1.16,1.76c-0.32,0.66-0.56,1.33-0.76,2.01c-0.19,0.68-0.32,1.34-0.4,1.99c-0.08,0.64-0.12,1.21-0.12,1.69
				c0,0.59,0.07,1.11,0.19,1.58c0.13,0.46,0.34,0.86,0.63,1.17s0.67,0.56,1.13,0.73c0.46,0.17,1.02,0.26,1.69,0.26
				c0.82,0,1.54-0.16,2.16-0.47c0.63-0.31,1.17-0.72,1.63-1.23c0.46-0.51,0.85-1.09,1.17-1.74c0.32-0.65,0.57-1.32,0.76-1.99
				c0.19-0.67,0.32-1.33,0.4-1.98C173.49,175.54,173.53,174.97,173.53,174.47z"/>
			<path class="st1" d="M190.44,185.89c-0.04,0.2-0.19,0.34-0.45,0.43c-0.26,0.09-0.68,0.13-1.26,0.13c-0.29,0-0.53-0.01-0.72-0.03
				c-0.19-0.02-0.33-0.05-0.45-0.09c-0.11-0.04-0.19-0.1-0.22-0.17c-0.03-0.07-0.04-0.16-0.02-0.26l0.4-2.03
				c-0.14,0.3-0.37,0.62-0.68,0.96c-0.31,0.33-0.68,0.64-1.11,0.92c-0.43,0.27-0.9,0.5-1.42,0.68c-0.52,0.18-1.05,0.27-1.6,0.27
				c-0.76,0-1.39-0.13-1.89-0.4c-0.5-0.26-0.91-0.62-1.21-1.07c-0.3-0.45-0.52-0.97-0.65-1.55c-0.13-0.58-0.19-1.18-0.19-1.82
				c0-0.6,0.06-1.25,0.17-1.95c0.11-0.71,0.29-1.41,0.53-2.11c0.24-0.7,0.54-1.38,0.91-2.03c0.37-0.65,0.81-1.23,1.33-1.73
				c0.52-0.5,1.11-0.9,1.78-1.2c0.67-0.3,1.43-0.45,2.27-0.45c0.79,0,1.49,0.16,2.09,0.49c0.61,0.33,1.14,0.8,1.59,1.43l0.23-1.13
				c0.04-0.2,0.19-0.34,0.45-0.43c0.26-0.09,0.68-0.13,1.26-0.13c0.28,0,0.52,0.01,0.71,0.04c0.19,0.02,0.34,0.06,0.45,0.1
				c0.11,0.04,0.18,0.1,0.22,0.17c0.04,0.07,0.05,0.15,0.03,0.25L190.44,185.89z M188.67,176.98c-0.33-0.52-0.7-0.91-1.1-1.17
				c-0.4-0.26-0.87-0.39-1.4-0.39c-0.4,0-0.76,0.1-1.09,0.28c-0.33,0.19-0.63,0.44-0.88,0.76c-0.25,0.32-0.48,0.69-0.67,1.1
				c-0.19,0.42-0.36,0.85-0.48,1.3c-0.13,0.45-0.22,0.9-0.28,1.37c-0.06,0.46-0.09,0.88-0.09,1.27c0,0.28,0.02,0.56,0.07,0.81
				c0.04,0.26,0.12,0.48,0.23,0.68c0.11,0.2,0.26,0.36,0.46,0.48c0.19,0.12,0.43,0.18,0.72,0.18c0.42,0,0.84-0.13,1.28-0.38
				c0.44-0.25,0.84-0.59,1.22-1.02c0.38-0.43,0.72-0.93,1-1.51c0.29-0.58,0.5-1.19,0.63-1.84L188.67,176.98z"/>
			<path class="st1" d="M205.02,173.21c0,0.07-0.01,0.17-0.03,0.31c-0.02,0.14-0.04,0.29-0.07,0.46c-0.03,0.16-0.06,0.32-0.09,0.47
				c-0.03,0.15-0.06,0.27-0.08,0.36c-0.07,0.25-0.16,0.47-0.28,0.67c-0.12,0.2-0.29,0.43-0.51,0.68l-6,7.33h4.84
				c0.14,0,0.24,0.05,0.3,0.14c0.06,0.09,0.09,0.25,0.09,0.46c0,0.07-0.01,0.19-0.02,0.33c-0.02,0.15-0.04,0.3-0.07,0.48
				c-0.03,0.17-0.07,0.34-0.13,0.51s-0.11,0.33-0.19,0.47c-0.07,0.14-0.15,0.26-0.25,0.35c-0.09,0.09-0.2,0.14-0.31,0.14h-8.38
				c-0.18,0-0.32-0.05-0.41-0.16c-0.09-0.11-0.14-0.28-0.14-0.51c0-0.07,0.01-0.18,0.03-0.3c0.02-0.13,0.04-0.26,0.07-0.4
				c0.03-0.14,0.06-0.27,0.09-0.4c0.03-0.13,0.06-0.23,0.09-0.31c0.03-0.11,0.06-0.2,0.09-0.3c0.03-0.09,0.08-0.19,0.14-0.3
				c0.06-0.11,0.14-0.22,0.23-0.34c0.09-0.12,0.21-0.27,0.35-0.43l6.06-7.34h-4.33c-0.13,0-0.23-0.05-0.3-0.14
				c-0.07-0.1-0.11-0.26-0.11-0.5c0-0.09,0.01-0.21,0.02-0.36c0.01-0.15,0.04-0.3,0.07-0.46c0.03-0.16,0.08-0.33,0.13-0.5
				c0.05-0.17,0.12-0.32,0.19-0.46c0.08-0.13,0.16-0.24,0.26-0.33c0.09-0.09,0.2-0.13,0.31-0.13h7.84c0.2,0,0.33,0.04,0.4,0.14
				C204.98,172.93,205.02,173.05,205.02,173.21z"/>
			<path class="st1" d="M216.96,185.89c-0.04,0.2-0.19,0.34-0.45,0.43c-0.26,0.09-0.68,0.13-1.26,0.13c-0.29,0-0.53-0.01-0.72-0.03
				c-0.19-0.02-0.33-0.05-0.45-0.09c-0.11-0.04-0.19-0.1-0.22-0.17c-0.03-0.07-0.04-0.16-0.02-0.26l0.4-2.03
				c-0.14,0.3-0.37,0.62-0.68,0.96c-0.31,0.33-0.68,0.64-1.11,0.92c-0.43,0.27-0.9,0.5-1.42,0.68c-0.52,0.18-1.05,0.27-1.6,0.27
				c-0.76,0-1.39-0.13-1.89-0.4c-0.5-0.26-0.91-0.62-1.21-1.07c-0.3-0.45-0.52-0.97-0.65-1.55c-0.13-0.58-0.19-1.18-0.19-1.82
				c0-0.6,0.06-1.25,0.17-1.95c0.11-0.71,0.29-1.41,0.53-2.11c0.24-0.7,0.54-1.38,0.91-2.03c0.37-0.65,0.81-1.23,1.33-1.73
				c0.52-0.5,1.11-0.9,1.78-1.2c0.67-0.3,1.43-0.45,2.27-0.45c0.79,0,1.49,0.16,2.09,0.49c0.61,0.33,1.14,0.8,1.59,1.43l0.23-1.13
				c0.04-0.2,0.19-0.34,0.45-0.43c0.26-0.09,0.68-0.13,1.26-0.13c0.28,0,0.52,0.01,0.71,0.04c0.19,0.02,0.34,0.06,0.45,0.1
				c0.11,0.04,0.18,0.1,0.22,0.17c0.04,0.07,0.05,0.15,0.03,0.25L216.96,185.89z M215.19,176.98c-0.33-0.52-0.7-0.91-1.1-1.17
				c-0.4-0.26-0.87-0.39-1.4-0.39c-0.4,0-0.76,0.1-1.09,0.28c-0.33,0.19-0.63,0.44-0.88,0.76c-0.25,0.32-0.48,0.69-0.67,1.1
				c-0.19,0.42-0.36,0.85-0.48,1.3c-0.13,0.45-0.22,0.9-0.28,1.37c-0.06,0.46-0.09,0.88-0.09,1.27c0,0.28,0.02,0.56,0.07,0.81
				c0.04,0.26,0.12,0.48,0.23,0.68c0.11,0.2,0.26,0.36,0.46,0.48c0.19,0.12,0.43,0.18,0.72,0.18c0.42,0,0.84-0.13,1.28-0.38
				c0.44-0.25,0.84-0.59,1.22-1.02c0.38-0.43,0.72-0.93,1-1.51c0.29-0.58,0.5-1.19,0.63-1.84L215.19,176.98z"/>
			<path class="st1" d="M229.38,179.3l2.28,6.32c0.05,0.16,0.06,0.29,0.03,0.4c-0.03,0.1-0.12,0.19-0.26,0.26
				c-0.15,0.07-0.36,0.11-0.63,0.14c-0.28,0.02-0.63,0.04-1.07,0.04c-0.4,0-0.71-0.01-0.94-0.03c-0.23-0.02-0.4-0.05-0.53-0.09
				c-0.12-0.04-0.21-0.09-0.25-0.16c-0.04-0.07-0.07-0.14-0.09-0.23l-1.54-4.48l-3.21,4.5c-0.06,0.09-0.12,0.16-0.19,0.22
				c-0.07,0.06-0.19,0.11-0.36,0.15c-0.17,0.04-0.38,0.07-0.65,0.09c-0.27,0.02-0.63,0.03-1.09,0.03c-0.41,0-0.74-0.01-0.98-0.04
				c-0.25-0.02-0.42-0.07-0.54-0.13c-0.11-0.06-0.16-0.14-0.15-0.24c0.02-0.1,0.07-0.23,0.18-0.39l4.82-6.32l-2.12-5.86
				c-0.06-0.17-0.08-0.31-0.06-0.42c0.02-0.11,0.09-0.2,0.22-0.26c0.13-0.07,0.33-0.11,0.6-0.14c0.27-0.02,0.63-0.04,1.07-0.04
				c0.39,0,0.69,0.01,0.92,0.02c0.22,0.01,0.39,0.04,0.51,0.06s0.2,0.07,0.24,0.14c0.04,0.06,0.08,0.14,0.11,0.23l1.48,4.24
				l3.06-4.24c0.06-0.08,0.12-0.14,0.18-0.2c0.07-0.06,0.17-0.11,0.32-0.14c0.14-0.04,0.33-0.07,0.55-0.09
				c0.23-0.02,0.54-0.03,0.93-0.03c0.44,0,0.78,0.01,1.04,0.03c0.26,0.02,0.45,0.06,0.58,0.11c0.12,0.06,0.18,0.14,0.16,0.23
				c-0.01,0.1-0.08,0.23-0.21,0.4L229.38,179.3z"/>
		</g>
	</g>
</g>
</svg>
