<?xml version="1.0" encoding="UTF-8"?>
<svg xmlns="http://www.w3.org/2000/svg" version="1.1" viewBox="0 0 841.89 595.28">
  <defs>
    <style>
      .cls-1 {
        fill: #22423e;
      }
    </style>
  </defs>
  <!-- Generator: Adobe Illustrator 28.6.0, SVG Export Plug-In . SVG Version: 1.2.0 Build 709)  -->
  <g>
    <g id="Layer_1">
      <path id="Path_2084" class="cls-1" d="M235.54,78.33c-8.25,10.02-17.08,15.91-26.71,17.67-5.5.98-9.23,4.12-19.64,17.08-7.07,8.64-15.71,17.47-19.24,19.64-9.43,6.09-12.18,11.19-12.18,22.97,0,6.48-1.37,12.77-3.34,16.49-3.54,5.69-3.54,5.89,1.96,10.6,6.68,5.69,11.39,5.89,16.1.78,5.3-5.89,12.37-5.11,16.3,1.96,3.34,5.89,4.12,6.28,14.33,8.64,10.6,2.36,8.64,12.96-3.14,16.89-5.89,1.96-8.05,1.76-15.71-2.16-11.39-5.69-17.47-3.34-20.42,7.46-4.71,16.89,0,26.9,12.17,25.72,5.69-.59,6.28-1.37,6.87-7.85.59-7.27,3.93-10.21,9.43-8.05,2.16.78,2.75,3.14,2.36,8.05-.59,6.68-.2,7.07,6.87,8.84,3.93.98,8.25,3.53,9.23,5.5,3.53,6.48,8.64,7.85,16.69,4.52,8.84-3.53,11.58-2.75,15.12,4.52,2.55,5.11,3.34,5.5,14.73,5.5,13.35,0,16.1,1.57,19.44,11.39,1.57,4.91,3.34,6.48,7.85,6.87,7.66.98,9.23,2.75,10.6,12.57.98,8.05,1.37,8.44,7.07,8.05,4.91-.39,6.48.59,8.25,4.52,1.77,3.73,3.54,4.71,7.66,4.32,4.32-.39,5.5.2,5.5,3.34,0,2.35,1.63,4.39,3.93,4.91,4.12,1.18,6.09,8.83,4.12,16.69-1.18,4.91-21.01,24.94-30.43,30.63-4.54,2.41-9.59,3.69-14.73,3.73-7.27,0-9.43.98-13.94,6.09-5.89,7.07-14.73,23.76-14.73,27.88,0,1.57,1.77,4.32,3.93,6.28,3.14,2.75,3.54,5.11,2.55,11.98q-1.18,8.64,4.91,8.64c8.05,0,11.39,5.69,8.44,14.14-5.5,15.51-.39,31.81,11.98,38.09,4.64,2.65,8.76,6.11,12.17,10.21,6.09,7.07,18.85,13.94,26.12,14.14,5.78.29,10.33,5.02,10.41,10.8,0,3.34,1.57,5.11,5.89,6.48,3.53,1.37,6.28,3.93,6.87,6.87,1.18,3.93,2.75,4.91,10.21,5.89,6.16.82,11.98,3.26,16.89,7.07,11.98,8.83,18.07,11.98,28.08,13.74l8.83,1.77,3.73-7.66c5.5-10.6,5.11-19.64-1.18-25.53-4.32-4.12-4.91-5.69-3.73-13.55.78-5.88.18-11.87-1.77-17.47-1.77-4.71-2.55-9.43-1.77-10.8,5.69-9.23,19.05-24.74,21.4-24.74,6.28,0,7.85-13.55,3.73-30.04l-1.37-5.3,13.16.39c12.37.39,13.55,0,17.87-4.91,2.55-3.14,4.71-7.27,4.71-9.23,0-6.09,3.93-6.68,9.43-1.37,10.02,9.62,21.99,10.8,21.99,2.16,0-4.32,7.46-7.07,15.71-5.69,6.68,1.18,8.64.39,19.44-7.85,12.57-9.43,15.91-16.49,13.16-27.49-1.77-7.07,2.16-20.22,6.67-23.17,5.11-3.14,4.91-5.69-.98-10.8-5.89-5.1-6.09-8.05-.98-14.73,2.55-3.34,3.93-7.85,3.93-13.75,0-4.91.98-9.62,2.16-10.21,1.18-.78,1.77-5.3,1.57-10.21-.59-7.85.2-9.81,5.69-15.12,10.4-10.4,9.03-14.33-11.78-35.34-17.88-17.67-18.66-18.26-35.94-23.76-14.14-4.32-19.04-7.07-25.13-13.16l-7.27-7.66-19.24,1.37c-21.2,1.37-28.86-.39-31.61-7.66-1.18-2.95-10.01-9.43-24.35-17.88-26.51-15.9-40.65-27.29-40.65-32.99,0-2.16,3.34-7.07,7.27-11,7.07-6.48,7.07-6.87,3.34-9.62-2.52-1.74-5.7-2.25-8.64-1.37-7.46,1.96-11.78,1.37-16.1-2.36-3.54-3.34-3.93-3.34-9.23-.2-11.39,6.67-19.24,2.36-13.75-7.85,2.55-4.52,2.16-5.3-2.94-9.82-4.52-3.92-6.87-4.52-12.77-3.53-5.69.98-8.44.2-13.74-3.93-8.25-5.89-10.01-6.09-16.49-.98-6.87,5.5-10.6,4.91-19.83-2.75-9.03-7.27-19.24-12.96-23.37-12.96-1.58.02-6.09,3.95-10.02,8.66Z"/>
      <path id="Path_2086" class="cls-1" d="M132.26,225.79c-3.73,4.32-.78,11.98,6.28,16.3,7.46,4.91,11.39,2.94,11.39-5.5-.05-3.84-1.96-7.42-5.11-9.62-6.28-4.91-9.22-5.1-12.56-1.18Z"/>
      <path id="Path_2089" class="cls-1" d="M193.71,261.33c-1.57,4.32,4.52,15.31,10.21,18.46,9.03,4.71,14.73-.2,11.98-10.41-2.16-8.64-19.64-14.73-22.19-8.05Z"/>
    </g>
  </g>
</svg>