<?xml version="1.0" encoding="utf-8"?>
<!-- Generator: Adobe Illustrator 27.1.1, SVG Export Plug-In . SVG Version: 6.00 Build 0)  -->
<svg version="1.1" id="Layer_1" xmlns="http://www.w3.org/2000/svg" xmlns:xlink="http://www.w3.org/1999/xlink" x="0px" y="0px"
	 viewBox="0 0 750 750" style="enable-background:new 0 0 750 750;" xml:space="preserve">

<g>
	<g>
		<path class="st0" d="M128.33,549.35c1.05,0.19,1.63,0.63,2.58,1.1c2.68,1.31,4.39,4.37,7.39,4.96c0.93,0.18,1.88,0.11,2.81,0.27
			c0.36,0.06,0.47,0.47,0.99,0.45c0.38-0.02,0.54-0.51,0.97-0.62c1.59-0.39,4.57-0.19,6.22,0.02c3.47,0.43,6.04,4.1,8.94,5.96
			c2.22,1.42,4.36,3.13,6.48,4.69c2.74,2.02,5.67,3.74,8.56,5.59c2.39,1.53,4.7,3.32,7.19,4.79c1.44,0.85,2.92,1.19,4.59,1.25
			c3.55,0.14,5.69,0.05,9.03,1.51c4.32,1.89,8.23,4.34,12.73,5.85c5.73,1.93,11.81,4.74,16.13,9.09c1.72,1.74,2.7,3.89,4.88,5.16
			c1.93,1.13,3.74,1.46,5.93,0.92c1.7-0.42,2.98-1.42,4.55-2.07c3.18-1.31,5.93-0.16,9.09,0.49c3.31,0.69,6.68,1.01,9.95,1.87
			c2.58,0.67,5.52,0.36,7.88,1.81c1.54,0.94,2.81,2.26,4.45,3.12c1.88,0.99,3.79,1.94,5.33,3.43c5.49,5.32,10.46,11.81,12.08,19.36
			c0.71,0.25,1.45,0.09,2.19-0.21c-0.28-0.71-0.46-1.43-0.44-2.19c-0.02,0.76,0.16,1.49,0.44,2.19c0.91-0.38,1.8-0.97,2.55-1.29
			c2.5-1.05,4.94-0.76,7.52-1.49c3.81-1.07,7.55-1.43,11.49-1.29c2.84,0.1,5.53,0.7,8.42,0.63c1.37-0.03,2.56-0.04,3.87,0.42
			c1.19,0.42,2.2,1.18,3.39,1.63c2.47,0.93,4.67,1.5,7.31,1.66c0.94,0.06,1.23,0.22,2.03,0.59c1.69,0.79,2.36,1.07,4.31,1.4
			c3.34,0.58,7.5,1.38,10.12,3.55c2.69,2.22,5.76,3.87,8.79,5.62c1.63,0.94,2.99,1.58,4.88,1.81c2.01,0.24,4.07-0.1,6.11,0.09
			c2.26,0.21,4.34,0.96,6.38,1.9c2.22,1.02,4.42,1.62,6.85,2.02c4.88,0.8,9.35,2.86,14.19,3.87c2.48,0.52,4.16,1.64,6.19,3.09
			c2.9,2.06,6.21,2.49,9.53,3.36c2.03,0.53,3.3,2.06,4.41,3.73c0.82,1.24,2.25,2.62,2.81,3.95c0.06-0.7-0.56-1.27-0.7-1.94
			c-0.08-0.41-0.05-0.84,0-1.27c-0.52-0.51-1-1.04-1.35-1.52c0.35,0.48,0.82,1.01,1.35,1.52c0.06-0.52,0.14-1.03,0.05-1.52
			c-0.3-1.67-0.67-2.87-0.66-4.64c0.03-3.1-0.05-5.98-0.47-9.04c-0.76-5.45-0.57-11.15-1.54-16.58c-0.65-3.67,1.17-5.76,2.36-9.03
			c1.23-3.38-1.52-5.73-3.4-8.26c-1.62-2.18-3.75-3.51-5.49-5.51c-1.78-2.05-2.3-4.83-1.93-7.47c0.42-3.03,1.71-5.91,2.92-8.69
			c1.06-2.42,1.49-4.89,4.29-5.58c1.45-0.35,3.18-0.19,4.53-0.66c2.02-0.72,4.05-2.37,5.87-3.46c1.94-1.16,3.86-2.3,5.82-3.4
			c0.07-1.18,0.86-2.08,1.45-3.08c1.04-1.74,1.97-3.44,2.55-5.4c0.68-2.28,1.42-5.11,0.9-7.53c-0.5-2.35-1.86-5.65-3.55-7.33
			c-1.65-1.64-3.93-2.73-5.7-4.26c-1.97-1.71-3.82-3.51-5.55-5.46c-2.05-2.32-3.62-4.79-4.81-7.68c-1.05-2.53-1.48-5.21-3.7-6.93
			c-3.13-2.42-8.13-3.71-9.96-7.49c-2.39-4.92,1.04-11.53,3.06-16c2.7-5.98,5.13-12.21,10.89-15.85c5.36-3.39,10.28-7.36,15.5-10.94
			c2.31-1.58,4.54-1.63,7.12-2.3c2.94-0.77,5.84-2.75,8.26-4.55c1.65-1.23,3.99-2.64,5.12-4.42c0.71-1.11,0.83-2.43,1.28-3.63
			c0.42-1.1,1.1-2.04,1.59-3.1c1.31-2.85,1.85-5.74,2.88-8.64c0.83-2.33,1.82-2.65-0.66-4.24c-2.93-1.88-5.49-4.02-8.2-6.23
			c-1.75-1.43-5.17-3.14-4.19-5.97c0.54-1.56,1.85-2.88,2.45-4.48c0.91-2.42,1.46-4.86,1.85-7.41c0.61-3.95,0.59-7.77,0.59-11.76
			c0-2.72,0.04-5.13,0.62-7.75c0.41-1.86,1.07-3.45,1.71-5.23c0.55-1.51,1.14-2.68,1.51-4.17c0.17-0.67,0.39-1.46,0.54-2.3
			c0.05-0.26,0.12-0.5,0.21-0.74c-0.48,0.19-0.92,0.42-1.51,0.46c-1.91,0.12-1.88-3.27-2.46-4.64c-1.16-2.75-3.48-5.73-6.81-5.29
			c-2.43,0.32-4.32,2.98-6.3,4.37c-2.75,1.93-5.89,2.54-9,3.52c-1.28,0.4-2.46,0.97-3.84,0.78c-1.48-0.2-0.75-0.08-1.21-1.23
			c-0.7-1.8-0.58-3.64-1.25-5.46c-1.23-3.31-1.48-6.63-4.49-9.21c-1.37-1.17-2.55-2.01-3.53-3.49c-0.93-1.4-1.72-2.82-2.4-4.38
			c-1.78-4.12-4.19-8.17-5.94-12.4c-1.14-2.75-2.22-5.62-3.24-8.43c-0.83-2.29-1.75-4.9-2.01-7.27c-0.19-1.78-0.86-3.83-1.36-5.56
			c-0.48-1.69-1.56-3.96-2.5-5.42c-1.12-1.73-2.48-2.81-4.05-4c-0.97-0.73-1.93-1.92-2.59-2.92c-1.22-1.86-2.61-2.78-4.43-4.02
			c-1.51-1.04-3.4-1.97-4.85-3.33c-1.16,1.48-3.38,1.43-5.08,1.94c-2,0.6-3.75,1.53-5.7,2.18c-2.08,0.69-4.11,1.2-6.16,2.01
			c-1.69,0.67-3.45,0.85-5.22,1.34c-2.91,0.79-5.65,1.91-8.39,3.13c-3.67,1.63-7.63,2.65-11.37,4.13c-4.31,1.7-8.13,4.09-12.21,6.28
			c-2.42,1.3-5.25,2.12-7.52,3.64c-1.66,1.11-3.7,2.29-5.62,2.95c-2.36,0.81-5.02,0.74-7.35,1.49c-2.09,0.67-4.23,1.74-6.24,2.62
			c-2.51,1.11-4.89,1.9-7.45,2.64c-1.35,0.39-2.17,0.56-3.16,1.59c-3.27,3.42-6.58,6.55-10.27,9.56c-3.35,2.73-7.39,4.58-10.85,7.26
			c-3.7,2.87-7.63,5.19-11.58,7.69c-4.69,2.97-9.12,6.66-13.32,10.29c-5.36,4.63-11.01,8.91-16.4,13.5
			c-6.06,5.17-13.55,8.54-20.05,13.16c-2.33,1.66-4.53,3.6-7.01,5.05c-3.71,2.16-7.93,3.38-11.77,5.29
			c-8.15,4.05-15.41,10.01-22.85,15.2c-7.53,5.26-15.36,10.06-22.89,15.32c-6.93,4.84-14.59,8.36-22.01,12.35
			c-3.24,1.74-6.41,3.67-9.62,5.47c-3.06,1.71-6.63,3.04-9.48,5.08c-2.36,1.68-4.95,3.35-6.93,5.46c-2.61,2.78-4.98,5.99-6.84,9.33
			c-1.97,3.55-3.86,6.96-6.67,9.99c-0.95,1.02-3.02,1.48-4.74,1.65c-1.11,2.46-2.03,4.84-1.69,7.84c0.19,1.63,0.15,3.13,0.73,4.7
			c0.95,2.57,2.35,4.77,3.64,7.16c2.49,4.6,3.96,9.23,8.33,12.56c2.83,2.15,6.05,5.42,9.84,5.52c1.98,0.05,3.18,0.16,5.09,0.89
			c1.91,0.72,3.84,1.18,5.87,1.43c2.54,0.31,5.05-0.27,7.45,0.82c1.98,0.9,4.32,2.36,6.08,3.66c1.75,1.29,1.97,1.99,1.49,3.46
			c0.28,0.11,0.59,0.21,1.03,0.23C126.21,549.44,127.33,549.17,128.33,549.35z"/>
		<path class="st0" d="M333.26,157.94c0.61,0.03,1.86-0.55,2.52-0.68c1.89-0.38,3.53-1.4,5.54-1.87c0.99-0.23,2.07-0.49,3.09-0.6
			c1.31-0.15,2.26-0.7,3.57-0.48c0.06,0.01,1.27,0.44,1.37,0.48c0.32,0.1,1.18,0.38,1.51,0.47c1.13,0.28,2.4,0.43,3.46,0.75
			c2.2,0.66,4.72,2.46,6.17,4.34c0.65,0.84,1.42,2.16,1.7,3.22c0.22,0.8,0.05,1.55,0.26,2.35c0.18,0.71,0.63,1.02,0.53,1.84
			c-0.14,1.19-0.7,1.8-0.66,3.09c0.04,1.61-0.57,2.99-0.93,4.56c-0.64,2.81-2.06,5.72-3.24,8.44c-0.53,1.22-1.27,2.55-1.97,3.66
			c-1.25,1.98-2.17,3.97-3.27,6.06c-1.33,2.53-2.67,4.93-3.71,7.52c-0.39,0.98-0.86,2.08-1.1,3.1c-0.27,1.13-0.93,2.4-1.16,3.45
			c-0.23,1.02-0.07,2.28-0.06,3.34c0.02,1.25-0.45,1.94-0.65,3.09c-0.39,2.19,0.13,5.5,1.1,7.44c1.12,2.25,2.71,4.34,4.53,6.17
			c1.01,1.02,2,1.53,3.07,2.41c0.6,0.5,0.81,1.31,1.36,1.78c0.36,0.1,0.72,0.16,1.09,0.21c0.36,0.22,0.66,0.49,0.92,0.82
			c2.85,1.96,6.25,2.85,9.59,3.86c1.84,0.56,3.7,0.9,5.56,1.39c1.4,0.37,3.06,0.4,4.32,1.04c2.91,1.48,3.59,5.55,2.65,8.38
			c-0.57,1.73-1.49,3.22-2.48,4.72c-0.89,1.35-1.17,2.89-1.99,4.26c-0.79,1.32-1.88,2.49-2.91,3.61c-1.49,1.63-2.51,3.75-3.65,5.65
			c-0.66,1.1-1.01,2.6-1.35,3.83c-0.94,3.41,3.99,6.15,6.14,8.16c2.43,2.28,7.02,4.73,7.34,8.46c0.19,2.28,0.63,4.5,0.6,6.81
			c-0.05,3.99,0.62,7.84,0.6,11.82c-0.01,2.41,0.89,6.61-0.57,8.6c-0.02,0.02-0.04,0.04-0.05,0.06c1.45,1.36,3.33,2.29,4.85,3.33
			c1.81,1.25,3.2,2.17,4.43,4.02c0.66,1,1.63,2.19,2.59,2.92c1.56,1.18,2.92,2.27,4.05,4c0.95,1.46,2.02,3.73,2.5,5.42
			c0.49,1.72,1.16,3.78,1.36,5.56c0.26,2.38,1.18,4.99,2.01,7.27c1.02,2.81,2.1,5.67,3.24,8.43c1.75,4.23,4.16,8.27,5.94,12.4
			c0.68,1.57,1.46,2.98,2.4,4.38c0.98,1.48,2.16,2.32,3.53,3.49c3.02,2.58,3.26,5.9,4.49,9.21c0.68,1.82,0.55,3.66,1.25,5.46
			c0.45,1.15-0.27,1.03,1.21,1.23c1.38,0.19,2.56-0.38,3.84-0.78c3.11-0.98,6.25-1.59,9-3.52c1.98-1.38,3.87-4.05,6.3-4.37
			c3.33-0.44,5.65,2.54,6.81,5.29c0.58,1.38,0.55,4.76,2.46,4.64c0.59-0.04,1.04-0.27,1.51-0.46c0.13-0.36,0.26-0.71,0.33-1.1
			c-0.06,0.39-0.2,0.74-0.33,1.1c0.42-0.17,0.86-0.31,1.43-0.24c1.25,0.13,2.33,1.14,3.54,1.26c1.47,0.15,2.39-0.94,3.68-1.49
			c1.13-0.49,1.4-0.34,2.55-0.02c2.99,0.83,5.62-1.47,8.32-2.55c4.41-1.77,9.43-3.48,14.16-3.92c2-0.18,1.93-0.26,2.84,1.19
			c0.83,1.31,1.77,2.39,3.17,3.15c1.16,0.63,2.72,0.75,3.63,1.79c0.78,0.89,0.58,2.39,1.32,3.19c1.36,1.48,5.11,0.26,6.92-0.05
			c6.88-1.16,12.59-6.9,18.34-10.34c4.78-2.86,12.23-6.22,17.56-3.28c1.65,0.91,3.12,2.14,4.76,3.11c1.36,0.81,2.78,1.37,4.15,2.15
			c1.6,0.91,3.23,1.56,4.79,2.6c2.33,1.56,4.2,3.95,6.72,5.22c2.07,1.05,2.38,0.12,4.22-0.98c1.61-0.96,2.73-0.94,4.5-0.96
			c1.63-0.02,2.98-0.63,4.64-0.65c1.66-0.02,3.51-0.24,5.12,0.15c3.57,0.88,8.13,1.86,12.01,1.04c1.7-0.36,3.56-1.21,5.09-1.95
			c0.92-0.45,1.29-0.93,2.07-1.63c0.29-0.27,0.58-0.47,0.86-0.66c-0.09-0.33-0.19-0.65-0.31-0.97c-0.61-1.71-1.81-3.26-2.33-5.07
			c-0.46-1.61-1.28-2.91-1.85-4.47c-0.37-1.01-0.45-2.15-0.74-3.12c-0.49-1.63-1.29-4-2.33-5.56c-1.14-1.69-2.91-2.48-4.32-3.83
			c-1.19-1.13-4.78-1.94-5.09-3.55c-2.19,0.69-1.55-2.01-2.44-3c-0.75-0.84-1.23-0.52-1.89-1.86c-0.85-1.74-1-2.98-2.58-4.09
			c-1.13-0.8-2.18-1.42-3.13-2.44c-1.46-1.57-2.8-2.88-3.7-4.85c-0.88-1.92-1.27-4.14-2.35-5.96c-0.49-0.37-0.85-0.84-1.07-1.41
			c-0.21-1.37-0.43-2.75-0.66-4.12c-0.62-2.77-1.74-4.98-3.79-6.95c-1.98-1.9-3.61-2.72-4.19-5.56c-0.39-1.86-0.65-3.54-1.35-5.33
			c-1.38-3.52-2.44-5.26-5.42-7.54c-2.75-2.11-3.77-3.17-3.41-6.76c0.19-1.88,0.61-4.32-0.02-6.17c-0.64-1.88-2.4-3.27-3.39-4.97
			c-2.07-3.57-4.57-6.47-7.4-9.41c-2.18-2.27-4.47-4.61-6.54-6.97c-1.68-1.91-3.03-4.03-4.76-5.87c-2.68-2.85-2.72-6.92-4.27-10.41
			c-1.19-2.68-2.96-5.93-4.9-8.11c-1.79-2.01-4.2-3.21-6.19-4.97c-1.03-0.91-1.65-1.93-2.46-3.01c-1.28-1.7-2.9-3.15-3.78-5.14
			c-0.71-1.61-0.77-2.7-2.42-3.6c-1.63-0.88-2.14-1.07-3.15-2.57c-1.39-2.06-3.01-3.97-4.36-6.06c-2.22-3.44-1.83-7.67-4.2-10.94
			c-1.27-1.76-3.1-3.02-4.31-4.86c-0.6-0.92-0.48-1.09-1.31-1.57c-1.52-0.88-3.34-1.18-4.85-2.17c-1.29-0.85-2.06-1.99-3.05-3.15
			c-1.4-1.63-2.07-3.51-2.46-5.68c-0.2-1.07,0.05-2.13-0.21-3.18c-0.4-1.64-1.33-3.2-1.8-4.84c-0.81-2.85-0.59-5.05-2.56-7.49
			c-2.18-2.7-4.92-5.06-7.28-7.6c-1.31-1.4-1.76-2.47-2.81-3.92c-1.03-1.43-2.54-2.38-3.83-3.62c-1.91-1.83-3.5-3.74-4.26-6.32
			c-0.48-1.67-0.52-2.44-1.44-3.81c-1.94-2.9-2.91-6.17-5.65-8.5c-1.68-1.07-3.24-2.31-4.67-3.7c-0.79-1.13-1.66-2.19-2.62-3.18
			c-1.62-1.78-3.36-3.53-4.75-5.5c-1.7-2.4-3.77-4.62-5.34-7.1c-1.12-1.76-1.15-3.85-2.07-5.69c-0.97-1.94-2.74-3.28-3.86-5.12
			c-0.68-1.11-1.03-2.42-1.97-3.35c-1.36-1.34-3.36-1.7-4.82-2.89c-2.53-2.06-4.4-5.3-6.24-7.92c-1.89-2.7-4.37-4.51-7.04-6.36
			c-1.84-1.27-3.12-2.97-5.12-3.95c-1.36-0.67-2.31-1.23-3.51-2.06c-0.74-0.51-1.01-0.94-1.97-1.24c-2.22-0.69-3.96,0.26-5.89-1.34
			c-0.63-0.52-1.24-1.27-1.81-1.86c-1.07-1.11-1.03-1.66-1.36-3.09c-0.29-1.24-1.08-2.16-1.58-3.21c-0.83-1.74-0.92-3.71-1.85-5.48
			c-0.96-1.81-0.96-3.9-1.96-5.7c-0.67-1.21-2-3.32-3.11-4.18c-0.92-0.72-0.9-0.57-2-0.44c-1.29,0.16-1.15,0.29-2.34,0.02
			c-2.26-0.51-1.77,1.12-2.44,2.95c-1.3,3.57-3.59,6.31-5.13,9.72c-0.48,1.08-0.8,2.22-1.65,3.21c-1.13,1.32-2.16,2.08-2.52,3.86
			c-0.35,1.76-0.73,3.59-1.09,5.39c-0.48,2.4,0.88,4.1,1.14,6.37c0.19,1.65-0.17,2.67-0.8,4.11c-0.99,2.24-1.48,4.64-2.9,6.71
			c-0.96,1.41-2.29,2.26-3.12,3.79c-0.86,1.59-1.77,3.18-2.47,4.85c-1.76,4.19-2.28,8.69-4.43,12.72
			c-4.1,7.71-6.66,16.13-10.58,23.96c-1.12,2.24-2.17,4.25-2.84,6.47c0.55,0.12,1.12,0.22,1.66,0.33
			C332.9,157.47,332.65,157.91,333.26,157.94z"/>
		<path class="st0" d="M34.72,476.48c2.06,2.83,4.61,4.12,7.7,5.56c1.59,0.74,2.74,1.15,4.46,1.41c1.66,0.25,3.42,0.41,5.02,0.91
			c2.62,0.82,4.29,2.73,6.77,3.75c4.24,1.75,8.11,3.26,12.79,3.22c2.07-0.02,4.15-0.02,6.22-0.01c0.63,0,1.94-0.28,2.49-0.04
			c1.62,0.7-0.82,5.1-1.23,6.16c-0.5,1.3-1.07,2.5-1.61,3.69c1.72-0.18,3.8-0.63,4.74-1.65c2.81-3.03,4.7-6.43,6.67-9.99
			c1.86-3.34,4.23-6.55,6.84-9.33c1.98-2.11,4.57-3.78,6.93-5.46c2.85-2.03,6.42-3.37,9.48-5.08c3.22-1.8,6.38-3.72,9.62-5.47
			c7.42-3.99,15.08-7.5,22.01-12.35c7.53-5.26,15.35-10.06,22.89-15.32c7.43-5.19,14.69-11.15,22.85-15.2
			c3.84-1.91,8.06-3.12,11.77-5.29c2.48-1.44,4.68-3.39,7.01-5.05c6.5-4.62,13.99-8,20.05-13.16c5.39-4.59,11.04-8.87,16.4-13.5
			c4.2-3.63,8.63-7.32,13.32-10.29c3.95-2.5,7.88-4.82,11.58-7.69c3.46-2.68,7.5-4.52,10.85-7.26c3.69-3.01,7-6.14,10.27-9.56
			c0.98-1.03,1.81-1.2,3.16-1.59c2.56-0.74,4.94-1.53,7.45-2.64c2.01-0.89,4.14-1.95,6.24-2.62c2.33-0.75,4.99-0.68,7.35-1.49
			c1.92-0.66,3.96-1.84,5.62-2.95c2.27-1.53,5.1-2.34,7.52-3.64c4.08-2.19,7.9-4.57,12.21-6.28c3.74-1.48,7.7-2.5,11.37-4.13
			c2.75-1.22,5.48-2.34,8.39-3.13c1.77-0.48,3.53-0.67,5.22-1.34c2.05-0.81,4.08-1.33,6.16-2.01c1.95-0.65,3.7-1.58,5.7-2.18
			c1.7-0.51,3.92-0.45,5.08-1.94c-0.22-0.2-0.42-0.41-0.62-0.64c0.19,0.22,0.4,0.43,0.62,0.64c0.02-0.02,0.04-0.04,0.05-0.06
			c1.47-1.99,0.56-6.19,0.57-8.6c0.02-3.99-0.65-7.83-0.6-11.82c0.03-2.31-0.41-4.53-0.6-6.81c-0.32-3.74-4.91-6.19-7.34-8.46
			c-2.15-2.01-7.08-4.75-6.14-8.16c0.34-1.23,0.69-2.73,1.35-3.83c1.15-1.9,2.16-4.02,3.65-5.65c1.03-1.12,2.12-2.29,2.91-3.61
			c0.82-1.37,1.1-2.91,1.99-4.26c0.99-1.51,1.91-2.99,2.48-4.72c0.94-2.83,0.26-6.89-2.65-8.38c-1.26-0.64-2.93-0.67-4.32-1.04
			c-1.86-0.49-3.71-0.83-5.56-1.39c-3.34-1.01-6.74-1.9-9.59-3.86c-0.26-0.33-0.56-0.6-0.92-0.82c-0.37-0.04-0.73-0.11-1.09-0.21
			c-0.54-0.47-0.76-1.29-1.36-1.78c-1.07-0.88-2.06-1.39-3.07-2.41c-1.82-1.83-3.4-3.92-4.53-6.17c-0.97-1.94-1.48-5.25-1.1-7.44
			c0.2-1.15,0.66-1.84,0.65-3.09c-0.01-1.06-0.17-2.32,0.06-3.34c0.23-1.04,0.9-2.32,1.16-3.45c0.24-1.02,0.71-2.12,1.1-3.1
			c1.04-2.59,2.37-4.99,3.71-7.52c1.11-2.1,2.02-4.08,3.27-6.06c0.7-1.11,1.44-2.45,1.97-3.66c1.19-2.72,2.6-5.63,3.24-8.44
			c0.35-1.56,0.97-2.95,0.93-4.56c-0.03-1.29,0.52-1.9,0.66-3.09c0.1-0.82-0.35-1.12-0.53-1.84c-0.2-0.8-0.04-1.54-0.26-2.35
			c-0.28-1.06-1.05-2.38-1.7-3.22c-1.46-1.88-3.97-3.68-6.17-4.34c-1.07-0.32-2.33-0.47-3.46-0.75c-0.33-0.08-1.19-0.36-1.51-0.47
			c-0.11-0.04-1.31-0.47-1.37-0.48c-1.31-0.23-2.26,0.33-3.57,0.48c-1.02,0.11-2.09,0.37-3.09,0.6c-2.01,0.47-3.65,1.49-5.54,1.87
			c-0.65,0.13-1.9,0.71-2.52,0.68c-0.61-0.03-0.36-0.47-0.72-0.55c-0.53-0.11-1.1-0.21-1.66-0.33c-0.38,1.27-0.64,2.6-0.71,4.07
			c-0.14,3.17,0.14,5.98-0.87,9.08c-1.37,4.21-3.41,8.22-4.72,12.44c-0.52,1.65-0.63,3.25-1.29,4.86c-0.68,1.64-1.49,3.23-2.18,4.86
			c-1.13,2.69-1.93,5.43-3.22,8.07c-0.84,1.71-1.21,3.25-1.45,5.14c-0.24,1.87-0.66,3.7-0.92,5.56c-0.24,1.71-0.11,3.21-0.74,4.85
			c-0.36,0.96-0.93,1.87-1.13,2.89c-0.12,0.63,0.06,1.37-0.08,1.96c-0.55,2.38-3.39,4.04-5.04,5.67c-2.21,2.16-4.75,3.83-6.85,6.08
			c-1.51,1.61-3.58,2.84-5.37,4.11c-2.04,1.45-4.01,1.44-6.25,2.19c-2.07,0.7-3.96,2.38-5.73,3.6c-2.13,1.46-4.38,2.48-6.65,3.69
			c-2.37,1.26-5.38,2.93-7.29,4.79c-0.78,0.75-1.27,1.71-2.03,2.47c-1.04,1.04-2.52,1.82-3.79,2.53c-1.23,0.69-2.04,0.85-3.43,0.74
			c-0.3-0.02-1.38-0.52-1.48-0.52c-0.91-0.02-1.9,0.39-2.94,0.63c-0.98,0.23-2.67,0.74-3.54,1.22c-0.78,0.44-1.59,1.12-2.42,1.56
			c-0.85,0.45-3.43,1.11-4.04,1.88c-0.71,0.91-0.42,2.14-1.1,3.24c-0.72,1.15-1.73,2.27-2.5,3.56c-1.92,3.18-1.29,7.7-4.17,10.56
			c-0.84,0.83-1.86,1.25-3.22,1.33c-1.53,0.09-2.69,0.18-4.19,0.47c-1.35,0.26-3.13,0.35-4.46,0c-1.72-0.45-2.34-0.67-4.01,0.13
			c-1.08,0.52-2.49,1.17-2.81,2.45c-0.3,1.17,0.27,2.49-0.1,3.68c-1.35-0.7-1.14-0.33-2.68,0c-1.96,0.42-4.12,0.33-6.12,0.75
			c-2.72,0.57-5.33,0.16-8.06,0.52c-2.25,0.3-4.5,1.07-6.82,1.28c-1.77,0.16-4.43,0.31-6.15-0.08c-2.37-0.54-4.52-1.81-6.96-2.28
			c-1.97-0.38-3.68-1.08-5.7-1.41c-2.08-0.34-4-0.55-6.17-0.58c-2.02-0.03-3.59,0.97-5.45,1.34c-0.03,0.17,0.14,1.78,0.1,1.95
			c-1.51,0.73-3.45,1.95-5.23,1.58c-0.45-0.09-0.74-0.32-1.19-0.36c-0.93-0.1-2.09-0.1-3.03-0.01c-0.9,0.09-1.68,0.43-2.61,0.44
			c-0.37,0-0.75-0.04-1.12-0.02c-1.2,0.06-2.58,0.42-3.69,0.92c-1.47,0.65-2.89,1.75-4.12,2.79c-1.09,0.92-2.35,1.69-2.97,2.96
			c-0.64,1.29-1.44,2.67-1.88,4.04c-0.45,1.44-0.6,2.74-1.32,4.12c-2.19,4.22-2.64,9.13-4.45,13.5c-0.86,2.09-1.68,4.27-2.47,6.38
			c-0.72,1.93-1.61,3.73-2.57,5.57c-1.06,2.04-1.83,4.29-3.24,6.13c-2.13,2.77-4.08,5.63-6.11,8.48c-1.93,2.71-4.24,5.02-6.31,7.62
			c-1.54,1.93-3.11,3.76-4.91,5.45c-1.49,1.41-3.3,2.69-5.02,3.8c-1.53,0.98-3.24,1.55-4.87,2.35c-1.52,0.75-2.75,1.89-4.34,2.52
			c-0.5,0.2-0.82,0.36-1.33,0.4c-0.38,0.03-0.86-0.19-1.22,0.03c-0.66,0.41-1.06,1.8-1.23,2.48c-0.33,1.39-0.64,2.95-0.84,4.37
			c-0.12,0.81-0.06,1.57-0.07,2.38c-0.01,1.03-0.26,1.97-0.35,2.98c-0.1,1.06,0.3,1.98,0.35,3.02c0.05,0.93-0.04,1.77,0.08,2.72
			c0.32,2.65,0.07,5.31,0.4,7.94c0.21,1.63,0.88,3.26,0.78,4.92c-0.12,2-1.54,5.21-2.73,6.83c-1.29,1.76-3.05,2.69-4.75,3.98
			c-1.48,1.12-2.48,2.8-4.07,3.79c-1.42,0.89-3.02,1.34-4.44,2.29c-1.15,0.77-2.06,1.53-2.89,2.66c-2.18,2.97-2.53,6.13-2.57,9.68
			c-0.03,2.76,1.55,5.62,1.17,8.37c-0.25,1.85-0.7,3.72-0.77,5.6c-0.04,1.14,0.05,2.18-0.21,3.3c-0.22,0.95-0.74,1.8-0.95,2.75
			c-0.18,0.81,0.21,1.88-0.03,2.65c-0.19,0.62-1.39,1.27-1.97,1.54c-1.82,0.86-3.62,0.49-5.42,0.05c-1.76-0.43-3.72,0.94-5.44,1.2
			c-1.31,0.2-2.65,0.01-3.96,0.05c-1.68,0.05-3.35,0.56-4.99,0.94c-0.48,0.11-1.27,0.15-1.74,0.29c-0.29,0.09-0.36,0.34-0.62,0.39
			c-0.62,0.12-1.29,0.1-1.83-0.16c-0.2-0.09-0.3-0.41-0.48-0.54c-0.31-0.21-0.83-0.2-1.18-0.39c-0.29-0.15-0.41-0.43-0.72-0.55
			c-0.72-0.27-2.63,0.29-3.19,0.41c-1.29,0.27-2.58,0.56-3.86,0.85c-0.96,0.14-1.87,0.42-2.73,0.85c-0.11,0.11-0.22,0.22-0.34,0.33
			c-0.73,0.08-1.52-0.34-2.33-0.37c-0.6-0.02-1.47-0.14-2.04-0.02c-0.55,0.11-0.77,0.49-1.22,0.76c-0.58,0.35-1.07,0.43-1.6,0.85
			c1.37,3.63,3.35,9.08,4.88,12.23C29.86,471.79,32.65,473.64,34.72,476.48z"/>
		<path class="st0" d="M627.63,515.56c-2.81-2.2-4.47-6.09-5.88-9.25c-1.31-2.93-2.18-5.91-5.57-6.91c-2.31-0.68-3.92-1.01-5.88-2.4
			c-2.07-1.47-4.41-1.51-6.94-1.85c-2.36-0.31-4.34-0.64-6.63-0.18c-2.84,0.57-5.3,1.38-7.97,2.51c-1.94,0.82-3.67,2.02-5.57,2.85
			c-1.51,0.66-3.4,0.61-5.05,1.03c-1.61,0.41-2.36,0.14-3.81-0.4c-2.67-1-5.99-0.34-8.49-1.76c-0.94-0.53-1.58-1.8-2.57-2.12
			c-0.85-0.27-3.8,0.42-4.54,0.87c-1.23,0.75-1.85,2.07-3.32,2.62c-1.26,0.47-2.38,0.68-3.54,1.4c-0.7,0.43-1.38,1.28-2.26,1.37
			c-1.35,0.13-2.79-1.03-4.21-1.04c-1.22,0-2.4,0.42-3.64,0.33c-1.03-0.07-2-0.45-3.02-0.59c-2.69-0.36-4.8,0.98-7.15,2.01
			c-2.17,0.94-4.02,1.48-5.21,3.69c-1.21,2.25-1.95,5.38-2.62,7.83c-0.69,2.54,0.52,4.51,1.35,6.84c0.94,2.62,2.32,5,3.82,7.35
			c2.57,4.02,5.78,7.66,6.99,12.39c0.64,2.5,0.31,5.15,0.9,7.72c0.48,2.11,0.45,3.93,0.68,6.07c0.2,1.83,0.57,3.49,0.61,5.35
			c0.08,3.7-0.62,6.26-3.1,9.12c-3.72,4.29-8.73,8.04-11.14,13.27c-0.8,1.74-3.22,3.65-5.36,3.46c-1.06-0.09-1.89-0.98-2.93-1.3
			c-0.77-0.24-1.65-0.82-2.34-1.01c-2.19-0.6-4.99,0.14-7.14,0.41c-1.94,0.25-5.29,2.92-6.76,1.38c-1,1.75-2.43,3.15-3.29,4.97
			c-1.36,2.86-2.99,4.15-5.6,5.75c-2.31,1.42-3.64,3.94-5.53,5.92c-1.09,1.15-2.16,2.59-1.84,4.29c0.66,3.51,2.12,7,3.01,10.53
			c0.48,1.92,0.11,4.31,0.11,6.27c0,2.66-0.21,5.4-0.03,8.06c0.14,2.14,0.83,4.56,1.37,6.63c0.47,1.82,1.86,3.21,2.24,5.09
			c0.75,3.67-0.53,7.3,1.33,10.81c0.74,1.39,4.25,5.66,3.9,7.98c0.42,0.43,0.3,0.95,1.32,1.28c0.5,0.17,1.04,0.54,1.56,0.53
			c0.61,0,0.95-0.6,1.58-0.58c0.34,0.01,1.3,0.65,1.67,0.84c0.45,0.23,1.07,0.8,1.53,0.94c1.01,0.3,2.19,0.12,3.26,0.14
			c2.22,0.03,3.54-1.14,5.25-2.49c1.85-1.45,3.96-2.71,5.89-4c1.57-1.05,3.05-2.26,4.62-3.28c1.38-0.9,3.54-0.9,5.21-0.75
			c1.18,0.11,2.21,0.64,3.4,0.67c1.22,0.03,2.39-0.36,3.57-0.65c2.16-0.53,4.41-1.9,6.64-1.86c1.05,0.02,1.28,0.52,2.12,0.68
			c0.87,0.16,1.73-0.43,2.52-0.68c1.85-0.59,3.62-0.95,5.56-1.68c1.06-0.4,1.13-0.27,1.68-1.36c0.56-1.11,0.8-2.23,1.08-3.42
			c0.57-2.37,1.44-4.75,2.02-7.1c0.48-1.94,0.7-3.89,1.29-5.85c0.8-2.62,2.12-4.5,3.79-6.62c0.9-1.15,1.32-2.54,2.1-3.73
			c1.1-1.69,3.02-2.35,4.3-3.81c1.55-1.77,2.99-3.18,4.78-4.72c1.2-1.04,2.04-2.08,3.72-1.72c1.91,0.42,3.7,1.31,5.68,1.63
			c1.35,0.22,2.51,0.05,3.79,0.41c3.36,0.95,6.52,2.99,5.75,6.79c-0.64,3.2-1.46,6.05-2.95,8.99c-1.15,2.27-2.49,4.41-3.07,6.79
			c-0.28,1.17-0.87,2.03-0.67,3.35c0.17,1.14,0.61,1.42,1.42,2.21c1.59,1.52,3.07,2.94,4.8,4.34c0.92,0.74,1.94,1.11,2.86,1.82
			c0.65,0.51,1.07,1.22,1.66,1.81c2.62,2.59,5.99,3.22,9.05,4.97c2.85,1.63,4.89,4.27,7.41,6.31c1.43,1.17,1.86,2.79,3.04,4.09
			c1.19,1.3,3.26,2.26,4.84,3.07c3.34,1.73,7.42,1.42,10.65,3.33c0.68,0.4,1.19,1.12,1.82,1.59c0.77,0.58,1.64,0.85,2.41,1.39
			c0.97,0.67,2.86,2.88,3.16,4.02c0.32,1.25-0.03,1.94,0.63,3.27c0.48,0.97,0.94,1.43,1.93,1.82c1.93,0.76,4.1,0.75,6.11,1.1
			c2.4,0.41,4.1-0.43,6.44-0.37c0.78,0.02,1.33,0.45,2.09,0.57c1.63,0.26,3.27-0.44,4.83-0.8c2.16-0.49,4.31-0.89,6.4-1.64
			c1.12-0.4,1.8-0.59,3.01-0.3c4.08,0.97,7.12,1.15,11.39,0.36c2.96-0.54,6.2-1.61,8.49,0.75c1.16,1.2,1.47,2.28,3.45,1.66
			c2.12-0.66,4.1-2.98,5.06-4.93c0.51-1.04,0.64-2.15,1.58-3.04c1.05-1,3.04-2.14,4.54-1.91c1.39,0.21,2.49,1.37,3.84,1.77
			c1.42,0.42,2.87,0.82,4.31,1.21c2.57,0.7,5.68,3.45,8.4,3.15c0.76-0.08,1.73-0.76,2.26-1.12c0.89-0.58,1.82-1.19,2.69-1.84
			c0.72-0.54,1.42-1.14,2.1-1.73c-0.58-1.49-1.42-2.68-2.46-4.3c-1.61-2.5-2.54-4.76-4.93-6.62c-1.6-1.24-2.3-2.99-3.71-4.42
			c-1.01-1.03-2.21-1.81-3.22-2.85c-1.13-1.16-2.49-2.07-3.6-3.23c-1.18-1.24-1.98-2.86-3.03-4.21c-1.02-1.31-2.05-3.14-3.7-3.58
			c-0.72-0.19-1.38,0.16-2.13-0.26c-1.2-0.68-1.56-2.25-2.18-3.39c-0.72-1.32-1.84-2.34-2.58-3.63c-0.81-1.42-1.58-3.46-1.95-5.04
			c-0.63-2.76-1.85-4.58-3.67-6.78c-1.58-1.91-2.87-3.92-4.63-5.55c-1.6-1.47-2.86-3.2-4.34-4.8c-2.14-2.32-4.21-3.77-6.98-5.26
			c-0.85-0.45-1.67-1.04-2.41-1.66c-1.36-1.14-2.76-2.21-3.81-3.62c-2.04-2.75-3.47-5.97-5.78-8.49c-3.16-3.44-5.3-7.87-7.09-12.16
			c-1.27-3.04-2.85-6.04-3.71-9.19c-1.19-4.35-0.9-9.41-2.9-13.51c-0.31-0.65-1.08-1.21-1.32-1.85c-0.21-0.58-0.06-1.1-0.23-1.67
			c-0.51-1.7-1.74-3.3-2.24-5.03c-0.87-2.96-2.37-5.67-3.38-8.6c-0.55-1.59-0.84-3.32-1.07-4.99c-0.11-0.85-0.27-1.34-0.46-2.2
			c-0.27-1.2,0.05-2.29-0.1-3.47c-0.13-1.01-0.57-1.82-0.67-2.81c-0.07-0.69,0.06-1.41,0.04-2.1c-0.06-1.71-0.48-3.34-0.6-5.06
			c-0.13-1.92-0.66-3.56-0.65-5.54c0-0.84,0.04-1.7,0.07-2.57c-2.06-0.87-4.81-2.1-5.85-2.73
			C630.12,516.67,628.76,516.44,627.63,515.56z"/>
		<path class="st0" d="M599.27,389.9c-1.54,0.75-3.39,1.59-5.09,1.95c-3.88,0.81-8.44-0.17-12.01-1.04
			c-1.61-0.39-3.46-0.17-5.12-0.15c-1.66,0.02-3.01,0.63-4.64,0.65c-1.76,0.02-2.89,0-4.5,0.96c-1.84,1.1-2.15,2.03-4.22,0.98
			c-2.51-1.28-4.38-3.66-6.72-5.22c-1.56-1.04-3.18-1.69-4.79-2.6c-1.37-0.78-2.79-1.34-4.15-2.15c-1.64-0.97-3.11-2.2-4.76-3.11
			c-5.33-2.93-12.78,0.42-17.56,3.28c-5.75,3.44-11.46,9.18-18.34,10.34c-1.8,0.3-5.55,1.53-6.92,0.05c-0.74-0.8-0.54-2.3-1.32-3.19
			c-0.91-1.04-2.47-1.16-3.63-1.79c-1.4-0.76-2.34-1.84-3.17-3.15c-0.92-1.45-0.85-1.37-2.84-1.19c-4.73,0.44-9.75,2.14-14.16,3.92
			c-2.7,1.09-5.33,3.38-8.32,2.55c-1.16-0.32-1.43-0.46-2.55,0.02c-1.29,0.56-2.21,1.64-3.68,1.49c-1.21-0.12-2.3-1.13-3.54-1.26
			c-0.58-0.06-1.02,0.08-1.43,0.24c-0.08,0.24-0.16,0.48-0.21,0.74c-0.15,0.84-0.37,1.63-0.54,2.3c-0.37,1.49-0.96,2.67-1.51,4.17
			c-0.65,1.78-1.3,3.37-1.71,5.23c-0.58,2.62-0.62,5.03-0.62,7.75c0,3.98,0.02,7.81-0.59,11.76c-0.39,2.55-0.94,4.99-1.85,7.41
			c-0.6,1.6-1.91,2.92-2.45,4.48c-0.98,2.83,2.43,4.54,4.19,5.97c2.71,2.21,5.27,4.35,8.2,6.23c2.49,1.59,1.49,1.91,0.66,4.24
			c-1.03,2.91-1.57,5.8-2.88,8.64c-0.49,1.06-1.17,2-1.59,3.1c-0.45,1.2-0.57,2.52-1.28,3.63c-1.13,1.78-3.47,3.19-5.12,4.42
			c-2.42,1.8-5.32,3.78-8.26,4.55c-2.58,0.68-4.8,0.72-7.12,2.3c-5.22,3.58-10.15,7.55-15.5,10.94c-5.76,3.64-8.19,9.87-10.89,15.85
			c-2.01,4.47-5.45,11.07-3.06,16c1.84,3.78,6.83,5.07,9.96,7.49c2.23,1.72,2.66,4.4,3.7,6.93c1.2,2.9,2.76,5.37,4.81,7.68
			c1.73,1.95,3.58,3.76,5.55,5.46c1.77,1.53,4.05,2.63,5.7,4.26c1.69,1.68,3.04,4.98,3.55,7.33c0.52,2.42-0.22,5.25-0.9,7.53
			c-0.58,1.95-1.51,3.65-2.55,5.4c-0.59,1-1.38,1.9-1.45,3.08c-1.97,1.1-3.89,2.24-5.82,3.4c-1.83,1.09-3.85,2.75-5.87,3.46
			c-1.35,0.48-3.08,0.31-4.53,0.66c-2.8,0.68-3.24,3.16-4.29,5.58c-1.21,2.78-2.5,5.66-2.92,8.69c-0.36,2.63,0.15,5.41,1.93,7.47
			c1.74,2,3.87,3.33,5.49,5.51c1.88,2.53,4.63,4.88,3.4,8.26c-1.19,3.26-3.01,5.36-2.36,9.03c0.97,5.43,0.77,11.13,1.54,16.58
			c0.43,3.06,0.5,5.93,0.47,9.04c-0.02,1.77,0.36,2.97,0.66,4.64c0.09,0.48,0.01,1-0.05,1.52c0.72,0.71,1.53,1.39,2.21,1.86
			c1.33,0.93,2.83,1.7,4.17,2.49c1.45,0.85,2.49,1.96,3.84,3.05c1.6,1.29,3.38,2.36,5.11,3.41c1.94,1.19,4.11,2.83,6.16,3.72
			c2.57,1.11,5.34,1.85,7.92,3.07c2.05,0.97,3.8,2.46,5.68,3.7c0.85,0.56,1.73,1.25,2.62,1.71c0.26,0.13,0.67,0.32,1.14,0.5
			c-0.02-0.11-0.04-0.23-0.06-0.33c0.03,0.11,0.04,0.22,0.06,0.33c0.83,0.32,1.81,0.6,2.31,0.47c1-0.27,1.18-1.73,1.66-2.54
			c0.85-1.45,2.43-2,3.74-3.08c2.58-2.12,5.39-3.51,8.28-5.08c4.2-2.28,7.82-6.17,12.42-7.78c1.38-0.48,3.07-1.21,4.49-1.36
			c0.76-0.08,2.67,0.05,3.23-0.71c0.15-0.21,0.23-0.46,0.27-0.73c-0.15-0.15-0.38-0.3-0.75-0.41c0.38,0.12,0.6,0.26,0.75,0.41
			c0.35-2.32-3.16-6.59-3.9-7.98c-1.86-3.51-0.58-7.14-1.33-10.81c-0.38-1.88-1.77-3.27-2.24-5.09c-0.54-2.07-1.23-4.48-1.37-6.63
			c-0.18-2.65,0.03-5.39,0.03-8.06c0-1.96,0.38-4.35-0.11-6.27c-0.89-3.53-2.34-7.02-3.01-10.53c-0.32-1.7,0.74-3.15,1.84-4.29
			c1.89-1.98,3.21-4.5,5.53-5.92c2.61-1.6,4.24-2.89,5.6-5.75c0.87-1.82,2.29-3.22,3.29-4.97c1.47,1.55,4.82-1.13,6.76-1.38
			c2.15-0.28,4.95-1.01,7.14-0.41c0.69,0.19,1.57,0.77,2.34,1.01c1.04,0.32,1.87,1.21,2.93,1.3c2.14,0.19,4.56-1.72,5.36-3.46
			c2.41-5.23,7.42-8.98,11.14-13.27c2.49-2.86,3.18-5.42,3.1-9.12c-0.04-1.86-0.42-3.52-0.61-5.35c-0.23-2.14-0.19-3.96-0.68-6.07
			c-0.59-2.57-0.26-5.22-0.9-7.72c-1.21-4.72-4.42-8.36-6.99-12.39c-1.5-2.35-2.88-4.73-3.82-7.35c-0.83-2.33-2.04-4.3-1.35-6.84
			c0.67-2.45,1.41-5.59,2.62-7.83c1.19-2.21,3.04-2.75,5.21-3.69c2.36-1.02,4.46-2.37,7.15-2.01c1.02,0.13,1.99,0.52,3.02,0.59
			c1.24,0.08,2.42-0.33,3.64-0.33c1.42,0,2.86,1.17,4.21,1.04c0.88-0.08,1.56-0.93,2.26-1.37c1.16-0.72,2.28-0.93,3.54-1.4
			c1.47-0.55,2.09-1.87,3.32-2.62c0.75-0.45,3.7-1.14,4.54-0.87c0.99,0.32,1.63,1.59,2.57,2.12c2.5,1.42,5.82,0.77,8.49,1.76
			c1.45,0.54,2.2,0.81,3.81,0.4c1.65-0.42,3.54-0.37,5.05-1.03c1.9-0.83,3.63-2.03,5.57-2.85c2.68-1.13,5.13-1.94,7.97-2.51
			c2.29-0.46,4.26-0.13,6.63,0.18c2.54,0.34,4.87,0.38,6.94,1.85c1.96,1.38,3.57,1.72,5.88,2.4c3.39,1,4.26,3.98,5.57,6.91
			c1.41,3.15,3.07,7.05,5.88,9.25c1.13,0.88,2.5,1.11,3.69,1.84c1.04,0.64,3.79,1.86,5.85,2.73c0.05-1.6,0.09-3.22-0.12-4.74
			c-0.48-3.5-1.42-6.98-1.8-10.5c-0.16-1.52-0.63-2.64-0.6-4.25c0.04-2.1-0.6-4.03-0.65-6.11c-0.05-2.05,0.15-3.89,0.49-5.86
			c0.35-1.98-0.34-3.34-0.51-5.25c-0.28-3.15-0.61-6.25-1.36-9.4c-0.73-3.06-1.24-6.19-2.01-9.22c-0.41-1.61-0.18-3.17-0.45-4.79
			c-0.25-1.47-0.88-2.87-1.11-4.34c-0.5-3.11-1.36-5.82-2.3-8.8c-0.84-2.68-1.16-5.39-2.01-8.04c-1.19-3.74-1.32-7.84-1.83-11.71
			c-0.44-3.3-1.76-5.85-3.41-8.7c-1.24-2.14-2.37-4.27-4.02-6.15c-0.89-1.01-1.87-1.8-2.64-2.92c-1.19-1.72-2.46-3.42-3.37-5.21
			c-0.97-1.91-2.51-3.52-3.43-5.39c-0.46-0.95-0.74-1.87-1.23-2.81c-0.5-0.96-0.67-1.91-1.05-2.8c-0.74-1.73-1.02-3.65-1.56-5.52
			c-0.28,0.19-0.57,0.39-0.86,0.66C600.57,388.97,600.2,389.45,599.27,389.9z"/>
	</g>
	<g>
		<path class="st1" d="M427.42,294.64l2.58,7.31c0.09,0.31,0.15,0.56,0.16,0.74c0.01,0.19-0.04,0.33-0.15,0.43
			c-0.12,0.1-0.31,0.16-0.59,0.19c-0.28,0.03-0.66,0.04-1.15,0.04c-0.36,0-0.63-0.01-0.84-0.03c-0.21-0.02-0.37-0.05-0.49-0.08
			c-0.12-0.04-0.2-0.09-0.25-0.16s-0.09-0.16-0.12-0.26l-2.03-6.08l-4.3,6.08c-0.08,0.1-0.16,0.19-0.24,0.26
			c-0.08,0.07-0.2,0.12-0.35,0.16c-0.15,0.04-0.35,0.07-0.59,0.08c-0.25,0.02-0.56,0.03-0.95,0.03c-0.46,0-0.82-0.01-1.07-0.04
			c-0.26-0.03-0.43-0.09-0.51-0.18c-0.08-0.09-0.07-0.23,0.01-0.41c0.08-0.18,0.23-0.42,0.45-0.72l5.53-7.38l-2.34-6.81
			c-0.09-0.3-0.15-0.54-0.16-0.72c-0.01-0.18,0.04-0.32,0.16-0.41c0.12-0.09,0.31-0.16,0.59-0.18c0.28-0.03,0.66-0.04,1.14-0.04
			c0.37,0,0.66,0.01,0.87,0.03c0.21,0.02,0.38,0.05,0.5,0.09c0.12,0.04,0.21,0.1,0.26,0.18c0.05,0.08,0.09,0.18,0.13,0.3l1.77,5.46
			l3.91-5.53c0.07-0.1,0.14-0.19,0.23-0.26c0.08-0.07,0.19-0.12,0.33-0.16c0.14-0.04,0.32-0.07,0.55-0.08
			c0.23-0.02,0.53-0.03,0.91-0.03c0.47,0,0.83,0.01,1.1,0.04c0.27,0.03,0.44,0.09,0.52,0.18c0.08,0.09,0.08,0.23,0.01,0.41
			c-0.08,0.18-0.23,0.42-0.44,0.72L427.42,294.64z"/>
		<path class="st1" d="M442.39,302.85c-0.04,0.18-0.17,0.31-0.41,0.39c-0.24,0.08-0.62,0.12-1.15,0.12c-0.27,0-0.49-0.01-0.65-0.03
			c-0.17-0.02-0.3-0.05-0.41-0.08c-0.1-0.04-0.17-0.09-0.2-0.16c-0.03-0.07-0.04-0.14-0.02-0.24l0.36-1.85
			c-0.13,0.28-0.34,0.57-0.62,0.87c-0.28,0.31-0.62,0.59-1.01,0.83c-0.39,0.25-0.82,0.46-1.29,0.62c-0.47,0.16-0.96,0.25-1.46,0.25
			c-0.69,0-1.26-0.12-1.72-0.36c-0.46-0.24-0.83-0.57-1.1-0.98c-0.28-0.41-0.47-0.88-0.59-1.4c-0.12-0.53-0.17-1.08-0.17-1.66
			c0-0.54,0.05-1.14,0.15-1.78c0.1-0.64,0.26-1.28,0.48-1.92c0.21-0.64,0.49-1.25,0.83-1.84c0.34-0.59,0.74-1.12,1.21-1.57
			c0.47-0.46,1.01-0.82,1.62-1.09c0.61-0.27,1.3-0.41,2.06-0.41c0.72,0,1.35,0.15,1.9,0.45c0.55,0.3,1.03,0.73,1.45,1.3l0.21-1.02
			c0.04-0.18,0.17-0.31,0.41-0.39c0.24-0.08,0.62-0.12,1.15-0.12c0.26,0,0.47,0.01,0.65,0.03c0.17,0.02,0.31,0.05,0.41,0.09
			c0.1,0.04,0.17,0.09,0.2,0.15c0.04,0.07,0.04,0.14,0.03,0.23L442.39,302.85z M440.79,294.75c-0.3-0.47-0.64-0.83-1-1.07
			c-0.37-0.24-0.79-0.36-1.28-0.36c-0.36,0-0.69,0.09-1,0.26c-0.3,0.17-0.57,0.4-0.8,0.69c-0.23,0.29-0.44,0.62-0.62,1
			c-0.18,0.38-0.32,0.78-0.44,1.18c-0.12,0.41-0.2,0.82-0.26,1.24c-0.06,0.42-0.08,0.8-0.08,1.16c0,0.26,0.02,0.5,0.06,0.74
			c0.04,0.23,0.11,0.44,0.21,0.62c0.1,0.18,0.24,0.33,0.41,0.43c0.17,0.11,0.39,0.16,0.66,0.16c0.38,0,0.77-0.11,1.16-0.34
			c0.4-0.23,0.77-0.54,1.11-0.93c0.34-0.39,0.65-0.85,0.91-1.37c0.26-0.52,0.46-1.08,0.58-1.68L440.79,294.75z"/>
		<path class="st1" d="M448.71,303.37c-0.89-0.22-1.58-0.69-2.06-1.39c-0.49-0.7-0.73-1.65-0.73-2.84c0-0.53,0.05-1.1,0.15-1.73
			c0.1-0.63,0.26-1.26,0.49-1.9c0.22-0.63,0.52-1.25,0.87-1.84c0.36-0.6,0.8-1.12,1.31-1.58c0.52-0.46,1.12-0.82,1.8-1.1
			c0.68-0.28,1.47-0.41,2.36-0.41c0.34,0,0.68,0.03,1.01,0.08c0.33,0.05,0.63,0.12,0.91,0.21c0.28,0.09,0.52,0.2,0.73,0.32
			c0.21,0.12,0.37,0.23,0.47,0.33c0.11,0.1,0.17,0.19,0.2,0.27c0.03,0.08,0.05,0.17,0.05,0.28c0,0.2-0.02,0.42-0.07,0.67
			c-0.05,0.25-0.11,0.49-0.19,0.71c-0.08,0.22-0.18,0.41-0.29,0.56c-0.12,0.15-0.24,0.23-0.38,0.23c-0.13,0-0.25-0.05-0.38-0.16
			c-0.12-0.1-0.27-0.22-0.45-0.35c-0.18-0.13-0.4-0.25-0.67-0.36c-0.27-0.11-0.61-0.16-1.04-0.16c-0.45,0-0.85,0.1-1.2,0.3
			c-0.35,0.2-0.66,0.46-0.92,0.77c-0.26,0.31-0.48,0.67-0.65,1.07c-0.17,0.4-0.31,0.81-0.43,1.22c-0.11,0.41-0.19,0.8-0.24,1.18
			c-0.05,0.38-0.07,0.7-0.07,0.98c0,0.7,0.15,1.23,0.46,1.59c0.31,0.36,0.79,0.54,1.44,0.54c0.48,0,0.9-0.06,1.24-0.19
			c0.34-0.12,0.64-0.26,0.89-0.41c0.25-0.15,0.46-0.29,0.63-0.41c0.18-0.12,0.34-0.18,0.49-0.18c0.09,0,0.15,0.04,0.19,0.12
			c0.04,0.08,0.06,0.19,0.06,0.34c0,0.15-0.02,0.33-0.05,0.55c-0.04,0.22-0.08,0.44-0.14,0.67c-0.06,0.23-0.12,0.43-0.19,0.63
			c-0.07,0.19-0.17,0.35-0.28,0.46c-0.12,0.11-0.31,0.25-0.58,0.4c-0.27,0.16-0.59,0.29-0.96,0.41c-0.37,0.12-0.76,0.2-1.17,0.25
			l0.16,0.65c0.06,0.21,0.11,0.42,0.14,0.61c0.03,0.19,0.05,0.38,0.05,0.57c0,0.47-0.08,0.87-0.23,1.21
			c-0.15,0.34-0.37,0.62-0.64,0.84c-0.28,0.22-0.61,0.38-0.99,0.49c-0.38,0.1-0.81,0.16-1.28,0.16c-0.25,0-0.49-0.01-0.73-0.03
			c-0.24-0.02-0.45-0.05-0.65-0.08c-0.2-0.04-0.38-0.08-0.53-0.13c-0.15-0.05-0.28-0.09-0.39-0.14c-0.09-0.05-0.16-0.11-0.19-0.16
			c-0.03-0.06-0.05-0.14-0.05-0.25c0-0.09,0.01-0.21,0.03-0.36c0.02-0.16,0.06-0.31,0.11-0.47c0.05-0.16,0.12-0.29,0.21-0.41
			c0.09-0.12,0.2-0.18,0.34-0.18h1.48c0.12,0,0.24-0.01,0.35-0.05c0.11-0.03,0.21-0.07,0.29-0.13c0.08-0.06,0.15-0.13,0.19-0.23
			c0.05-0.1,0.07-0.2,0.07-0.32c0-0.09-0.01-0.19-0.02-0.3c-0.01-0.11-0.03-0.23-0.06-0.34L448.71,303.37z"/>
		<path class="st1" d="M474.68,302.84c-0.02,0.09-0.06,0.16-0.12,0.23c-0.07,0.07-0.17,0.12-0.31,0.16
			c-0.14,0.04-0.31,0.08-0.52,0.1c-0.21,0.02-0.48,0.03-0.79,0.03c-0.31,0-0.57-0.01-0.78-0.03c-0.21-0.02-0.37-0.05-0.48-0.1
			c-0.11-0.04-0.19-0.1-0.23-0.16c-0.04-0.07-0.05-0.14-0.02-0.23l1.38-6.92c0.04-0.2,0.07-0.4,0.09-0.59
			c0.03-0.19,0.04-0.39,0.04-0.59c0-0.41-0.08-0.73-0.23-0.98c-0.15-0.25-0.42-0.38-0.81-0.38c-0.35,0-0.7,0.11-1.08,0.34
			c-0.37,0.22-0.73,0.53-1.07,0.91c-0.34,0.38-0.64,0.83-0.91,1.35c-0.26,0.51-0.45,1.06-0.56,1.64l-1.05,5.23
			c-0.02,0.09-0.06,0.16-0.12,0.23c-0.07,0.07-0.17,0.12-0.31,0.16c-0.14,0.04-0.31,0.08-0.52,0.1c-0.21,0.02-0.48,0.03-0.8,0.03
			c-0.31,0-0.57-0.01-0.77-0.03c-0.2-0.02-0.36-0.05-0.47-0.1c-0.11-0.04-0.19-0.1-0.23-0.16c-0.04-0.07-0.05-0.14-0.03-0.23
			l1.37-6.92c0.05-0.2,0.09-0.4,0.11-0.62c0.02-0.21,0.03-0.42,0.03-0.61c0-0.38-0.08-0.69-0.23-0.94c-0.15-0.25-0.42-0.37-0.8-0.37
			c-0.35,0-0.7,0.11-1.08,0.34c-0.37,0.22-0.73,0.53-1.07,0.91c-0.34,0.38-0.64,0.83-0.91,1.35c-0.26,0.51-0.45,1.06-0.56,1.64
			l-1.05,5.23c-0.02,0.09-0.06,0.16-0.12,0.23c-0.06,0.07-0.16,0.12-0.3,0.16c-0.13,0.04-0.31,0.08-0.52,0.1
			c-0.22,0.02-0.48,0.03-0.79,0.03c-0.32,0-0.58-0.01-0.78-0.03c-0.2-0.02-0.36-0.05-0.48-0.1c-0.12-0.04-0.19-0.1-0.23-0.16
			c-0.03-0.07-0.04-0.14-0.02-0.23l2.32-11.56c0.02-0.09,0.05-0.16,0.11-0.23c0.06-0.06,0.14-0.12,0.26-0.15
			c0.12-0.04,0.27-0.07,0.45-0.09c0.19-0.02,0.41-0.03,0.67-0.03c0.27,0,0.49,0.01,0.65,0.03c0.17,0.02,0.3,0.05,0.39,0.09
			c0.09,0.04,0.16,0.09,0.19,0.15c0.03,0.07,0.04,0.14,0.02,0.23l-0.38,1.9c0.18-0.3,0.42-0.61,0.73-0.93
			c0.3-0.31,0.64-0.6,1.03-0.85c0.38-0.25,0.8-0.46,1.26-0.61c0.45-0.16,0.92-0.24,1.4-0.24c0.5,0,0.94,0.07,1.3,0.2
			c0.37,0.13,0.67,0.32,0.9,0.56c0.24,0.24,0.42,0.52,0.54,0.83c0.12,0.32,0.2,0.66,0.24,1.04c0.2-0.31,0.45-0.62,0.76-0.93
			c0.31-0.31,0.65-0.59,1.03-0.84c0.38-0.25,0.8-0.46,1.25-0.61c0.45-0.16,0.91-0.24,1.39-0.24c0.6,0,1.11,0.08,1.52,0.25
			c0.41,0.17,0.74,0.4,0.99,0.7c0.25,0.3,0.43,0.65,0.54,1.05c0.11,0.4,0.17,0.83,0.17,1.3c0,0.3-0.02,0.61-0.05,0.91
			c-0.04,0.31-0.09,0.62-0.15,0.94L474.68,302.84z"/>
		<path class="st1" d="M488.59,302.85c-0.04,0.18-0.17,0.31-0.41,0.39c-0.24,0.08-0.62,0.12-1.15,0.12c-0.27,0-0.49-0.01-0.65-0.03
			c-0.17-0.02-0.3-0.05-0.41-0.08c-0.1-0.04-0.17-0.09-0.2-0.16c-0.03-0.07-0.04-0.14-0.02-0.24l0.36-1.85
			c-0.13,0.28-0.34,0.57-0.62,0.87c-0.28,0.31-0.62,0.59-1.01,0.83c-0.39,0.25-0.82,0.46-1.29,0.62c-0.47,0.16-0.96,0.25-1.46,0.25
			c-0.69,0-1.26-0.12-1.72-0.36c-0.46-0.24-0.83-0.57-1.1-0.98c-0.28-0.41-0.47-0.88-0.59-1.4c-0.12-0.53-0.17-1.08-0.17-1.66
			c0-0.54,0.05-1.14,0.15-1.78c0.1-0.64,0.26-1.28,0.48-1.92c0.21-0.64,0.49-1.25,0.83-1.84c0.34-0.59,0.74-1.12,1.21-1.57
			c0.47-0.46,1.01-0.82,1.62-1.09c0.61-0.27,1.3-0.41,2.06-0.41c0.72,0,1.35,0.15,1.9,0.45c0.55,0.3,1.03,0.73,1.45,1.3l0.21-1.02
			c0.04-0.18,0.17-0.31,0.41-0.39c0.24-0.08,0.62-0.12,1.15-0.12c0.26,0,0.47,0.01,0.65,0.03c0.17,0.02,0.31,0.05,0.41,0.09
			c0.1,0.04,0.17,0.09,0.2,0.15c0.04,0.07,0.04,0.14,0.03,0.23L488.59,302.85z M486.99,294.75c-0.3-0.47-0.64-0.83-1-1.07
			c-0.37-0.24-0.79-0.36-1.28-0.36c-0.36,0-0.69,0.09-1,0.26c-0.3,0.17-0.57,0.4-0.8,0.69c-0.23,0.29-0.44,0.62-0.62,1
			c-0.18,0.38-0.32,0.78-0.44,1.18c-0.12,0.41-0.2,0.82-0.26,1.24c-0.06,0.42-0.08,0.8-0.08,1.16c0,0.26,0.02,0.5,0.06,0.74
			c0.04,0.23,0.11,0.44,0.21,0.62c0.1,0.18,0.24,0.33,0.41,0.43c0.17,0.11,0.39,0.16,0.66,0.16c0.38,0,0.77-0.11,1.16-0.34
			c0.4-0.23,0.77-0.54,1.11-0.93c0.34-0.39,0.65-0.85,0.91-1.37c0.26-0.52,0.46-1.08,0.58-1.68L486.99,294.75z"/>
		<path class="st1" d="M501.86,291.32c0,0.06-0.01,0.16-0.02,0.28c-0.02,0.13-0.04,0.27-0.07,0.41c-0.02,0.15-0.05,0.29-0.08,0.43
			c-0.03,0.14-0.05,0.25-0.07,0.32c-0.06,0.22-0.15,0.43-0.26,0.61c-0.11,0.18-0.27,0.39-0.47,0.62l-5.46,6.67h4.4
			c0.13,0,0.22,0.04,0.28,0.13c0.06,0.09,0.08,0.23,0.08,0.41c0,0.07-0.01,0.17-0.02,0.3c-0.01,0.13-0.04,0.28-0.06,0.43
			c-0.03,0.16-0.07,0.31-0.12,0.47c-0.05,0.15-0.1,0.3-0.17,0.43c-0.07,0.13-0.14,0.24-0.23,0.32c-0.09,0.08-0.18,0.12-0.28,0.12
			h-7.62c-0.16,0-0.29-0.05-0.38-0.15s-0.13-0.25-0.13-0.46c0-0.07,0.01-0.16,0.03-0.28s0.04-0.24,0.06-0.36
			c0.03-0.12,0.05-0.25,0.08-0.36c0.03-0.12,0.05-0.21,0.08-0.28c0.02-0.09,0.05-0.18,0.08-0.27c0.03-0.09,0.07-0.18,0.13-0.27
			c0.06-0.09,0.13-0.2,0.21-0.31c0.08-0.11,0.19-0.24,0.32-0.39l5.51-6.68h-3.93c-0.12,0-0.21-0.04-0.28-0.13
			c-0.06-0.09-0.1-0.24-0.1-0.45c0-0.09,0.01-0.2,0.02-0.33c0.01-0.13,0.04-0.27,0.07-0.42c0.03-0.15,0.07-0.3,0.12-0.45
			c0.05-0.15,0.11-0.29,0.18-0.41c0.07-0.12,0.15-0.22,0.23-0.3c0.09-0.08,0.18-0.12,0.28-0.12h7.13c0.18,0,0.31,0.04,0.37,0.12
			C501.83,291.06,501.86,291.17,501.86,291.32z"/>
	</g>
	<g>
		<path class="st1" d="M180.03,355.58c0,0.08-0.01,0.19-0.03,0.34c-0.02,0.15-0.04,0.31-0.08,0.48c-0.04,0.17-0.08,0.35-0.13,0.52
			c-0.05,0.18-0.11,0.34-0.18,0.48c-0.07,0.14-0.14,0.26-0.23,0.35c-0.08,0.09-0.17,0.14-0.28,0.14c-0.09,0-0.23-0.02-0.42-0.07
			c-0.19-0.05-0.43-0.13-0.69-0.23c-0.27-0.11-0.56-0.25-0.89-0.42c-0.32-0.17-0.65-0.38-0.99-0.63c-0.34-0.25-0.67-0.54-1.01-0.86
			c-0.34-0.32-0.65-0.69-0.94-1.11c-0.46,0.21-0.96,0.36-1.51,0.47c-0.55,0.11-1.16,0.16-1.83,0.16c-1.04,0-1.97-0.12-2.77-0.35
			c-0.8-0.23-1.47-0.59-2.02-1.07c-0.54-0.48-0.96-1.09-1.24-1.82c-0.28-0.73-0.42-1.6-0.42-2.59c0-0.81,0.07-1.66,0.21-2.54
			c0.14-0.88,0.37-1.75,0.69-2.6c0.32-0.85,0.72-1.66,1.23-2.43s1.12-1.44,1.84-2.03c0.72-0.59,1.56-1.05,2.51-1.39
			c0.95-0.34,2.04-0.51,3.27-0.51c1.03,0,1.95,0.12,2.76,0.36c0.8,0.24,1.48,0.6,2.02,1.09c0.54,0.49,0.96,1.1,1.24,1.84
			s0.42,1.61,0.42,2.61c0,0.49-0.03,1.01-0.08,1.55c-0.06,0.54-0.14,1.09-0.26,1.64c-0.12,0.55-0.28,1.11-0.47,1.66
			s-0.43,1.1-0.7,1.63c-0.27,0.53-0.59,1.04-0.96,1.51c-0.37,0.48-0.78,0.93-1.25,1.35c0.41,0.42,0.78,0.75,1.13,0.98
			c0.34,0.23,0.65,0.42,0.91,0.55c0.26,0.13,0.48,0.23,0.66,0.29c0.18,0.06,0.3,0.12,0.36,0.18c0.06,0.06,0.1,0.12,0.12,0.18
			C180.02,355.36,180.03,355.45,180.03,355.58z M176.96,344.08c0-0.53-0.06-1-0.18-1.43c-0.12-0.43-0.3-0.79-0.56-1.08
			c-0.26-0.29-0.6-0.52-1.02-0.68c-0.42-0.16-0.93-0.24-1.53-0.24c-0.75,0-1.41,0.14-1.99,0.43c-0.57,0.29-1.07,0.67-1.49,1.13
			c-0.42,0.47-0.77,1-1.05,1.6c-0.28,0.6-0.51,1.21-0.69,1.82c-0.17,0.62-0.3,1.22-0.37,1.81c-0.07,0.59-0.11,1.1-0.11,1.54
			c0,0.54,0.06,1.01,0.17,1.44c0.12,0.42,0.31,0.78,0.57,1.07c0.26,0.29,0.6,0.51,1.02,0.67c0.42,0.15,0.93,0.23,1.53,0.23
			c0.74,0,1.4-0.14,1.97-0.43c0.57-0.28,1.07-0.66,1.48-1.12c0.42-0.46,0.77-0.99,1.06-1.59s0.52-1.2,0.69-1.81
			c0.17-0.61,0.3-1.21,0.37-1.8C176.93,345.05,176.96,344.53,176.96,344.08z"/>
		<path class="st1" d="M192.33,354.47c-0.02,0.09-0.05,0.16-0.11,0.23c-0.06,0.06-0.14,0.12-0.26,0.15
			c-0.12,0.04-0.26,0.07-0.45,0.09c-0.18,0.02-0.41,0.03-0.67,0.03c-0.27,0-0.49-0.01-0.65-0.03c-0.17-0.02-0.3-0.05-0.39-0.09
			s-0.16-0.09-0.19-0.15c-0.03-0.07-0.03-0.14-0.01-0.23l0.35-1.88c-0.17,0.3-0.41,0.61-0.71,0.91c-0.3,0.31-0.65,0.59-1.04,0.84
			c-0.39,0.25-0.82,0.46-1.28,0.62c-0.46,0.15-0.93,0.23-1.41,0.23c-0.6,0-1.12-0.08-1.53-0.25c-0.42-0.17-0.76-0.4-1.01-0.69
			c-0.26-0.29-0.44-0.64-0.56-1.04c-0.12-0.41-0.18-0.85-0.18-1.32c0-0.29,0.02-0.59,0.06-0.9c0.04-0.31,0.09-0.62,0.15-0.94
			l1.42-7.16c0.02-0.09,0.06-0.16,0.12-0.23c0.06-0.06,0.16-0.12,0.3-0.15c0.13-0.04,0.31-0.07,0.52-0.09
			c0.22-0.02,0.48-0.03,0.79-0.03c0.32,0,0.58,0.01,0.78,0.03c0.2,0.02,0.36,0.05,0.47,0.09c0.11,0.04,0.19,0.09,0.23,0.15
			c0.04,0.07,0.05,0.14,0.03,0.23l-1.37,6.94c-0.04,0.19-0.08,0.39-0.1,0.6c-0.02,0.21-0.03,0.41-0.03,0.6
			c0,0.21,0.02,0.39,0.06,0.56c0.04,0.17,0.1,0.31,0.19,0.43c0.09,0.12,0.2,0.21,0.33,0.27c0.13,0.06,0.3,0.09,0.49,0.09
			c0.35,0,0.72-0.11,1.11-0.34c0.38-0.23,0.75-0.54,1.09-0.94c0.34-0.4,0.65-0.88,0.92-1.42c0.27-0.55,0.48-1.14,0.62-1.78l0.98-5
			c0.01-0.09,0.05-0.16,0.12-0.23c0.07-0.06,0.17-0.12,0.3-0.15c0.13-0.04,0.31-0.07,0.52-0.09c0.22-0.02,0.48-0.03,0.79-0.03
			c0.32,0,0.58,0.01,0.78,0.03c0.2,0.02,0.36,0.05,0.48,0.09c0.12,0.04,0.19,0.09,0.23,0.15c0.03,0.07,0.04,0.14,0.02,0.23
			L192.33,354.47z"/>
		<path class="st1" d="M205.11,343.41c0,0.1-0.01,0.26-0.05,0.46c-0.03,0.2-0.07,0.41-0.14,0.62c-0.06,0.21-0.13,0.39-0.21,0.54
			c-0.08,0.15-0.18,0.23-0.28,0.23c-0.11,0-0.24-0.04-0.39-0.12c-0.15-0.08-0.33-0.17-0.55-0.27c-0.21-0.1-0.47-0.19-0.76-0.27
			c-0.29-0.08-0.63-0.12-1.02-0.12c-0.3,0-0.57,0.04-0.81,0.12c-0.24,0.08-0.43,0.18-0.59,0.32c-0.15,0.13-0.27,0.29-0.36,0.47
			c-0.08,0.18-0.12,0.38-0.12,0.58c0,0.27,0.11,0.49,0.33,0.67c0.22,0.18,0.49,0.35,0.82,0.51s0.68,0.33,1.06,0.5
			c0.38,0.17,0.73,0.39,1.06,0.65c0.33,0.26,0.6,0.57,0.82,0.94c0.21,0.37,0.32,0.84,0.32,1.4c0,0.66-0.12,1.26-0.38,1.82
			c-0.25,0.56-0.61,1.04-1.09,1.44c-0.48,0.41-1.06,0.72-1.75,0.95c-0.69,0.23-1.46,0.34-2.32,0.34c-0.41,0-0.81-0.03-1.18-0.09
			c-0.38-0.06-0.71-0.13-1.01-0.22c-0.3-0.09-0.55-0.18-0.76-0.3c-0.21-0.11-0.36-0.22-0.46-0.31c-0.07-0.07-0.12-0.14-0.15-0.22
			c-0.03-0.08-0.04-0.18-0.04-0.3c0-0.08,0.01-0.18,0.02-0.3c0.01-0.12,0.04-0.25,0.06-0.4c0.03-0.15,0.07-0.29,0.1-0.44
			c0.04-0.15,0.08-0.28,0.14-0.4s0.11-0.22,0.17-0.29s0.12-0.11,0.19-0.11c0.12,0,0.25,0.05,0.4,0.15s0.34,0.22,0.57,0.34
			c0.23,0.13,0.52,0.24,0.86,0.35s0.77,0.16,1.28,0.16c0.35,0,0.66-0.04,0.92-0.12c0.26-0.08,0.48-0.2,0.65-0.34
			c0.17-0.15,0.3-0.31,0.38-0.5c0.08-0.19,0.12-0.39,0.12-0.61c0-0.3-0.11-0.55-0.32-0.74c-0.21-0.19-0.48-0.37-0.79-0.53
			c-0.32-0.16-0.67-0.33-1.04-0.5s-0.72-0.38-1.04-0.63c-0.32-0.25-0.58-0.56-0.79-0.93c-0.21-0.37-0.32-0.84-0.32-1.4
			c0-0.61,0.12-1.18,0.35-1.71c0.23-0.53,0.57-0.99,1.02-1.38c0.45-0.39,0.99-0.7,1.63-0.92c0.64-0.22,1.36-0.33,2.17-0.33
			c0.36,0,0.71,0.02,1.05,0.07c0.34,0.05,0.65,0.11,0.92,0.19c0.27,0.08,0.51,0.16,0.71,0.26c0.2,0.09,0.35,0.19,0.43,0.28
			C205.07,343.06,205.11,343.21,205.11,343.41z"/>
		<path class="st1" d="M216.76,354.47c-0.04,0.18-0.17,0.31-0.41,0.39c-0.24,0.08-0.62,0.12-1.15,0.12c-0.27,0-0.49-0.01-0.65-0.03
			c-0.17-0.02-0.3-0.05-0.41-0.08c-0.1-0.04-0.17-0.09-0.2-0.16c-0.03-0.07-0.04-0.14-0.02-0.24l0.36-1.85
			c-0.13,0.28-0.34,0.57-0.62,0.87c-0.28,0.31-0.62,0.59-1.01,0.83c-0.39,0.25-0.82,0.46-1.29,0.62c-0.47,0.16-0.96,0.25-1.46,0.25
			c-0.69,0-1.26-0.12-1.72-0.36c-0.46-0.24-0.83-0.57-1.1-0.98c-0.28-0.41-0.47-0.88-0.59-1.4c-0.12-0.53-0.17-1.08-0.17-1.66
			c0-0.54,0.05-1.14,0.15-1.78c0.1-0.64,0.26-1.28,0.48-1.92c0.21-0.64,0.49-1.25,0.83-1.84c0.34-0.59,0.74-1.12,1.21-1.57
			c0.47-0.46,1.01-0.82,1.62-1.09c0.61-0.27,1.3-0.41,2.06-0.41c0.72,0,1.35,0.15,1.9,0.45c0.55,0.3,1.03,0.73,1.45,1.3l0.21-1.02
			c0.04-0.18,0.17-0.31,0.41-0.39c0.24-0.08,0.62-0.12,1.15-0.12c0.26,0,0.47,0.01,0.65,0.03c0.17,0.02,0.31,0.05,0.41,0.09
			c0.1,0.04,0.17,0.09,0.2,0.15c0.04,0.07,0.04,0.14,0.03,0.23L216.76,354.47z M215.16,346.37c-0.3-0.47-0.64-0.83-1-1.07
			c-0.37-0.24-0.79-0.36-1.28-0.36c-0.36,0-0.69,0.09-1,0.26c-0.3,0.17-0.57,0.4-0.8,0.69c-0.23,0.29-0.44,0.62-0.62,1
			c-0.18,0.38-0.32,0.78-0.44,1.18c-0.12,0.41-0.2,0.82-0.26,1.24c-0.06,0.42-0.08,0.8-0.08,1.16c0,0.26,0.02,0.5,0.06,0.74
			c0.04,0.23,0.11,0.44,0.21,0.62c0.1,0.18,0.24,0.33,0.41,0.43c0.17,0.11,0.39,0.16,0.66,0.16c0.38,0,0.77-0.11,1.16-0.34
			c0.4-0.23,0.77-0.54,1.11-0.93c0.34-0.39,0.65-0.85,0.91-1.37c0.26-0.52,0.46-1.08,0.58-1.68L215.16,346.37z"/>
		<path class="st1" d="M229.61,342.73c0,0.06-0.01,0.17-0.02,0.32c-0.02,0.16-0.04,0.34-0.08,0.54c-0.03,0.21-0.08,0.42-0.13,0.64
			c-0.05,0.22-0.11,0.42-0.18,0.61c-0.06,0.19-0.14,0.35-0.22,0.47c-0.08,0.12-0.17,0.18-0.26,0.18c-0.08,0-0.15-0.01-0.23-0.05
			c-0.08-0.03-0.16-0.06-0.26-0.09c-0.09-0.03-0.2-0.06-0.31-0.09s-0.24-0.05-0.39-0.05c-0.29,0-0.61,0.11-0.94,0.34
			c-0.33,0.22-0.65,0.52-0.95,0.89c-0.3,0.37-0.57,0.79-0.81,1.28c-0.24,0.49-0.41,1-0.51,1.53l-1.03,5.19
			c-0.02,0.09-0.06,0.16-0.12,0.23c-0.06,0.07-0.16,0.12-0.3,0.16c-0.13,0.04-0.31,0.08-0.52,0.1c-0.22,0.02-0.48,0.03-0.79,0.03
			c-0.32,0-0.58-0.01-0.78-0.03c-0.2-0.02-0.36-0.05-0.48-0.1c-0.12-0.04-0.19-0.1-0.23-0.16c-0.03-0.07-0.04-0.14-0.02-0.23
			l2.3-11.56c0.02-0.09,0.06-0.16,0.12-0.23c0.06-0.06,0.15-0.12,0.27-0.15c0.12-0.04,0.27-0.07,0.45-0.09s0.41-0.03,0.67-0.03
			c0.27,0,0.49,0.01,0.65,0.03c0.17,0.02,0.3,0.05,0.39,0.09c0.09,0.04,0.16,0.09,0.19,0.15c0.03,0.07,0.04,0.14,0.02,0.23
			l-0.36,1.84c0.21-0.37,0.45-0.71,0.72-1.02c0.27-0.31,0.56-0.58,0.87-0.81c0.31-0.23,0.62-0.41,0.95-0.54
			c0.33-0.13,0.65-0.19,0.97-0.19c0.13,0,0.26,0.01,0.39,0.03c0.13,0.02,0.26,0.04,0.38,0.06c0.12,0.03,0.22,0.06,0.31,0.1
			c0.09,0.04,0.16,0.08,0.21,0.12C229.59,342.54,229.61,342.62,229.61,342.73z"/>
	</g>
	<g>
		<path class="st1" d="M272.52,482.81c0,0.08-0.01,0.19-0.03,0.34c-0.02,0.15-0.04,0.31-0.08,0.48c-0.04,0.17-0.08,0.35-0.13,0.52
			c-0.05,0.18-0.11,0.34-0.18,0.48c-0.07,0.14-0.14,0.26-0.23,0.35c-0.08,0.09-0.17,0.14-0.28,0.14c-0.09,0-0.23-0.02-0.42-0.07
			s-0.43-0.13-0.69-0.23c-0.27-0.11-0.56-0.25-0.89-0.42c-0.32-0.17-0.65-0.38-0.99-0.63c-0.34-0.25-0.67-0.54-1.01-0.86
			c-0.34-0.32-0.65-0.69-0.94-1.11c-0.46,0.21-0.96,0.37-1.51,0.47c-0.55,0.11-1.16,0.16-1.83,0.16c-1.04,0-1.97-0.12-2.77-0.35
			c-0.8-0.23-1.47-0.59-2.02-1.07c-0.54-0.49-0.96-1.09-1.24-1.83c-0.28-0.73-0.42-1.6-0.42-2.59c0-0.81,0.07-1.66,0.21-2.55
			c0.14-0.88,0.37-1.75,0.69-2.6c0.32-0.85,0.72-1.66,1.23-2.43c0.51-0.77,1.12-1.44,1.84-2.03c0.72-0.59,1.56-1.05,2.51-1.39
			c0.95-0.34,2.04-0.51,3.27-0.51c1.03,0,1.95,0.12,2.76,0.36c0.8,0.24,1.48,0.6,2.02,1.09c0.54,0.49,0.96,1.1,1.24,1.84
			c0.28,0.74,0.42,1.61,0.42,2.62c0,0.49-0.03,1.01-0.08,1.55c-0.06,0.54-0.14,1.09-0.26,1.64c-0.12,0.55-0.28,1.11-0.47,1.66
			c-0.19,0.56-0.43,1.1-0.7,1.63c-0.27,0.53-0.59,1.04-0.96,1.52c-0.37,0.48-0.78,0.93-1.25,1.35c0.41,0.42,0.78,0.75,1.13,0.98
			c0.34,0.23,0.65,0.42,0.91,0.55c0.26,0.13,0.48,0.23,0.66,0.29c0.18,0.06,0.3,0.12,0.36,0.18c0.06,0.06,0.1,0.12,0.12,0.18
			C272.51,482.59,272.52,482.68,272.52,482.81z M269.45,471.3c0-0.52-0.06-1-0.18-1.43c-0.12-0.43-0.3-0.79-0.56-1.08
			c-0.26-0.29-0.6-0.52-1.02-0.68c-0.42-0.16-0.93-0.24-1.53-0.24c-0.75,0-1.41,0.14-1.99,0.43c-0.57,0.29-1.07,0.67-1.49,1.13
			c-0.42,0.46-0.77,1-1.05,1.6c-0.28,0.6-0.51,1.21-0.69,1.82c-0.17,0.62-0.3,1.22-0.37,1.81c-0.07,0.59-0.11,1.1-0.11,1.54
			c0,0.53,0.06,1.01,0.17,1.44c0.12,0.42,0.31,0.78,0.57,1.07c0.26,0.29,0.6,0.51,1.02,0.67c0.42,0.15,0.93,0.23,1.53,0.23
			c0.74,0,1.4-0.14,1.97-0.43c0.57-0.28,1.07-0.66,1.48-1.12c0.42-0.46,0.77-0.99,1.06-1.59c0.29-0.59,0.52-1.2,0.69-1.81
			c0.17-0.61,0.3-1.21,0.37-1.8C269.41,472.29,269.45,471.76,269.45,471.3z"/>
		<path class="st1" d="M284.81,481.7c-0.02,0.09-0.05,0.16-0.11,0.23c-0.06,0.06-0.14,0.12-0.26,0.15
			c-0.12,0.04-0.26,0.07-0.45,0.09c-0.18,0.02-0.41,0.03-0.67,0.03c-0.27,0-0.49-0.01-0.65-0.03c-0.17-0.02-0.3-0.05-0.39-0.09
			c-0.09-0.04-0.16-0.09-0.19-0.15c-0.03-0.07-0.03-0.14-0.01-0.23l0.35-1.88c-0.17,0.3-0.41,0.61-0.71,0.91
			c-0.3,0.31-0.65,0.59-1.04,0.84c-0.39,0.25-0.82,0.46-1.28,0.61c-0.46,0.16-0.93,0.23-1.41,0.23c-0.6,0-1.12-0.08-1.53-0.25
			c-0.42-0.17-0.76-0.4-1.01-0.69c-0.26-0.29-0.44-0.64-0.56-1.04c-0.12-0.4-0.18-0.85-0.18-1.32c0-0.29,0.02-0.59,0.06-0.9
			c0.04-0.31,0.09-0.62,0.15-0.94l1.42-7.16c0.02-0.09,0.06-0.16,0.12-0.23c0.06-0.06,0.16-0.12,0.3-0.15s0.31-0.07,0.52-0.09
			c0.22-0.02,0.48-0.03,0.79-0.03c0.32,0,0.58,0.01,0.78,0.03c0.2,0.02,0.36,0.05,0.47,0.09c0.11,0.04,0.19,0.09,0.23,0.15
			c0.04,0.07,0.05,0.14,0.03,0.23l-1.37,6.94c-0.04,0.19-0.08,0.39-0.1,0.6c-0.02,0.21-0.03,0.4-0.03,0.59
			c0,0.21,0.02,0.4,0.06,0.56c0.04,0.17,0.1,0.31,0.19,0.43c0.09,0.12,0.2,0.21,0.33,0.27c0.13,0.06,0.3,0.09,0.49,0.09
			c0.35,0,0.72-0.12,1.11-0.34c0.38-0.23,0.75-0.54,1.09-0.95c0.34-0.4,0.65-0.88,0.92-1.42c0.27-0.55,0.48-1.14,0.62-1.78l0.98-5
			c0.01-0.09,0.05-0.16,0.12-0.23c0.07-0.06,0.17-0.12,0.3-0.15c0.13-0.04,0.31-0.07,0.52-0.09c0.22-0.02,0.48-0.03,0.79-0.03
			c0.32,0,0.58,0.01,0.78,0.03c0.2,0.02,0.36,0.05,0.48,0.09c0.12,0.04,0.19,0.09,0.23,0.15c0.03,0.07,0.04,0.14,0.02,0.23
			L284.81,481.7z"/>
		<path class="st1" d="M300.82,473.8c0,0.57-0.05,1.18-0.15,1.82c-0.1,0.65-0.26,1.29-0.48,1.93c-0.21,0.64-0.49,1.25-0.83,1.84
			c-0.34,0.59-0.74,1.1-1.22,1.55c-0.47,0.45-1.02,0.81-1.62,1.08c-0.61,0.27-1.29,0.4-2.04,0.4c-0.72,0-1.36-0.14-1.92-0.43
			c-0.56-0.28-1.04-0.72-1.44-1.29l-0.19,0.98c-0.04,0.18-0.17,0.31-0.41,0.39c-0.24,0.08-0.62,0.12-1.14,0.12
			c-0.52,0-0.87-0.04-1.05-0.13c-0.19-0.09-0.26-0.22-0.23-0.39l3.4-17.02c0.02-0.09,0.06-0.16,0.12-0.23
			c0.06-0.07,0.16-0.13,0.3-0.17c0.14-0.05,0.31-0.08,0.52-0.11c0.21-0.02,0.48-0.04,0.8-0.04s0.58,0.01,0.78,0.04
			c0.2,0.03,0.36,0.06,0.47,0.11c0.12,0.05,0.19,0.11,0.23,0.17c0.03,0.07,0.04,0.15,0.02,0.23l-0.92,4.63
			c-0.04,0.2-0.09,0.41-0.14,0.63c-0.05,0.22-0.11,0.44-0.18,0.65c-0.06,0.22-0.13,0.43-0.19,0.63c-0.06,0.2-0.13,0.38-0.19,0.54
			c0.16-0.28,0.38-0.56,0.67-0.84c0.29-0.28,0.62-0.53,0.99-0.76c0.37-0.22,0.77-0.4,1.2-0.54c0.43-0.14,0.86-0.21,1.29-0.21
			c0.49,0,0.92,0.06,1.28,0.19c0.36,0.12,0.68,0.3,0.94,0.51c0.27,0.22,0.49,0.47,0.66,0.76c0.17,0.29,0.31,0.6,0.41,0.93
			c0.1,0.32,0.17,0.66,0.21,1C300.8,473.14,300.82,473.48,300.82,473.8z M297.47,474.13c0-0.21-0.01-0.44-0.05-0.67
			c-0.03-0.23-0.09-0.44-0.19-0.63c-0.1-0.19-0.24-0.34-0.41-0.47c-0.17-0.12-0.4-0.18-0.69-0.18c-0.39,0-0.78,0.11-1.17,0.34
			c-0.39,0.23-0.76,0.54-1.11,0.94c-0.34,0.4-0.65,0.86-0.92,1.39c-0.27,0.53-0.46,1.09-0.57,1.68l-0.36,1.75
			c0.3,0.47,0.64,0.83,1,1.05c0.37,0.23,0.79,0.34,1.28,0.34c0.34,0,0.66-0.08,0.96-0.25c0.29-0.17,0.56-0.39,0.8-0.66
			c0.24-0.28,0.44-0.6,0.62-0.97c0.18-0.37,0.32-0.76,0.45-1.17c0.12-0.41,0.21-0.83,0.27-1.25
			C297.44,474.93,297.47,474.53,297.47,474.13z"/>
		<path class="st1" d="M312.79,481.7c-0.04,0.18-0.17,0.31-0.41,0.39c-0.24,0.08-0.62,0.12-1.15,0.12c-0.27,0-0.49-0.01-0.65-0.03
			c-0.17-0.02-0.3-0.05-0.41-0.08c-0.1-0.04-0.17-0.09-0.2-0.15c-0.03-0.06-0.04-0.14-0.02-0.24l0.36-1.85
			c-0.13,0.27-0.34,0.57-0.62,0.87c-0.28,0.31-0.62,0.58-1.01,0.83c-0.39,0.25-0.82,0.46-1.29,0.62c-0.47,0.16-0.96,0.25-1.46,0.25
			c-0.69,0-1.26-0.12-1.72-0.36c-0.46-0.24-0.83-0.57-1.1-0.98c-0.28-0.41-0.47-0.88-0.59-1.4c-0.12-0.53-0.17-1.08-0.17-1.66
			c0-0.54,0.05-1.14,0.15-1.78c0.1-0.64,0.26-1.28,0.48-1.92c0.21-0.64,0.49-1.25,0.83-1.84s0.74-1.11,1.21-1.57
			c0.47-0.46,1.01-0.82,1.62-1.09c0.61-0.27,1.3-0.41,2.06-0.41c0.72,0,1.35,0.15,1.9,0.45c0.55,0.3,1.03,0.73,1.45,1.3l0.21-1.02
			c0.04-0.18,0.17-0.31,0.41-0.39c0.24-0.08,0.62-0.12,1.15-0.12c0.26,0,0.47,0.01,0.65,0.03c0.17,0.02,0.31,0.05,0.41,0.09
			c0.1,0.04,0.17,0.09,0.2,0.15c0.04,0.07,0.04,0.14,0.03,0.23L312.79,481.7z M311.19,473.6c-0.3-0.47-0.64-0.83-1-1.07
			c-0.37-0.24-0.79-0.36-1.28-0.36c-0.36,0-0.69,0.08-1,0.26c-0.3,0.17-0.57,0.4-0.8,0.69c-0.23,0.29-0.44,0.62-0.62,1
			s-0.32,0.77-0.44,1.18c-0.12,0.41-0.2,0.82-0.26,1.24c-0.06,0.42-0.08,0.81-0.08,1.16c0,0.26,0.02,0.51,0.06,0.74
			c0.04,0.23,0.11,0.44,0.21,0.62c0.1,0.18,0.24,0.33,0.41,0.43c0.17,0.11,0.39,0.16,0.66,0.16c0.38,0,0.77-0.12,1.16-0.34
			c0.4-0.23,0.77-0.54,1.11-0.93c0.34-0.39,0.65-0.85,0.91-1.37c0.26-0.52,0.46-1.08,0.58-1.68L311.19,473.6z"/>
	</g>
	<g>
		<path class="st1" d="M493.79,462.64c-0.71-0.09-1.28-0.21-1.73-0.37c-0.44-0.16-0.79-0.31-1.05-0.45
			c-0.25-0.14-0.44-0.28-0.56-0.41c-0.12-0.13-0.18-0.32-0.18-0.58c0-0.07,0.01-0.17,0.02-0.31c0.02-0.14,0.04-0.29,0.07-0.45
			c0.03-0.16,0.07-0.32,0.11-0.49c0.04-0.17,0.09-0.32,0.15-0.46c0.06-0.14,0.13-0.25,0.2-0.34c0.07-0.09,0.15-0.13,0.24-0.13
			c0.15,0,0.32,0.07,0.52,0.2c0.2,0.13,0.46,0.28,0.76,0.44c0.3,0.16,0.66,0.31,1.08,0.45c0.41,0.14,0.91,0.21,1.49,0.21
			c0.51,0,0.95-0.06,1.34-0.19c0.38-0.13,0.7-0.31,0.96-0.53c0.26-0.22,0.45-0.49,0.59-0.78c0.13-0.3,0.2-0.62,0.2-0.98
			c0-0.32-0.08-0.6-0.23-0.84c-0.15-0.24-0.36-0.46-0.62-0.67c-0.25-0.2-0.54-0.39-0.87-0.58c-0.32-0.18-0.65-0.38-0.99-0.58
			c-0.34-0.21-0.67-0.43-0.99-0.67c-0.32-0.24-0.61-0.52-0.87-0.85c-0.25-0.32-0.46-0.7-0.62-1.12c-0.15-0.42-0.23-0.91-0.23-1.48
			c0-0.78,0.16-1.49,0.47-2.15c0.31-0.66,0.74-1.22,1.29-1.69c0.55-0.47,1.21-0.84,1.98-1.1c0.77-0.26,1.61-0.39,2.54-0.39
			c0.43,0,0.84,0.03,1.23,0.1c0.39,0.06,0.74,0.15,1.06,0.25c0.32,0.1,0.59,0.21,0.82,0.33c0.23,0.12,0.38,0.22,0.47,0.3
			c0.08,0.08,0.15,0.17,0.19,0.26c0.04,0.09,0.06,0.21,0.06,0.34c0,0.07-0.01,0.17-0.02,0.3c-0.01,0.13-0.03,0.27-0.06,0.43
			c-0.02,0.15-0.06,0.31-0.1,0.47c-0.04,0.16-0.09,0.31-0.14,0.44c-0.06,0.13-0.12,0.24-0.19,0.33c-0.07,0.08-0.14,0.13-0.22,0.13
			c-0.12,0-0.27-0.05-0.45-0.16c-0.18-0.11-0.4-0.23-0.67-0.35c-0.26-0.13-0.57-0.24-0.92-0.35c-0.35-0.11-0.76-0.16-1.2-0.16
			c-0.47,0-0.86,0.06-1.18,0.19c-0.32,0.13-0.59,0.3-0.79,0.51c-0.21,0.21-0.36,0.45-0.46,0.71c-0.1,0.26-0.15,0.53-0.15,0.79
			c0,0.31,0.08,0.58,0.23,0.82c0.15,0.24,0.36,0.46,0.62,0.66c0.26,0.2,0.55,0.4,0.89,0.59s0.67,0.39,1.01,0.6
			c0.34,0.21,0.68,0.43,1.01,0.68s0.63,0.53,0.89,0.85c0.26,0.32,0.47,0.69,0.62,1.11c0.15,0.42,0.23,0.9,0.23,1.44
			c0,0.81-0.16,1.56-0.49,2.25c-0.32,0.69-0.76,1.27-1.31,1.75c-0.55,0.48-1.16,0.85-1.82,1.11c-0.66,0.26-1.22,0.41-1.68,0.46
			l0.17,0.7c0.06,0.21,0.11,0.42,0.14,0.61c0.03,0.19,0.05,0.38,0.05,0.57c0,0.47-0.08,0.87-0.23,1.21
			c-0.15,0.34-0.37,0.62-0.64,0.84c-0.27,0.22-0.6,0.38-0.98,0.49c-0.38,0.1-0.81,0.15-1.27,0.15c-0.25,0-0.5-0.01-0.73-0.02
			c-0.24-0.02-0.45-0.05-0.65-0.08c-0.2-0.04-0.38-0.08-0.54-0.13c-0.16-0.05-0.29-0.09-0.38-0.13c-0.1-0.05-0.16-0.11-0.2-0.16
			c-0.03-0.06-0.05-0.14-0.05-0.25c0-0.09,0.01-0.21,0.03-0.36c0.02-0.15,0.06-0.31,0.11-0.46s0.12-0.29,0.21-0.41
			c0.09-0.12,0.2-0.17,0.34-0.17h1.48c0.12,0,0.24-0.02,0.35-0.05c0.11-0.03,0.21-0.07,0.29-0.13c0.08-0.06,0.15-0.13,0.19-0.23
			s0.07-0.2,0.07-0.32c0-0.09-0.01-0.19-0.02-0.3c-0.01-0.11-0.03-0.22-0.06-0.34L493.79,462.64z"/>
		<path class="st1" d="M513.85,461.97c-0.04,0.18-0.17,0.31-0.41,0.39c-0.24,0.08-0.62,0.12-1.15,0.12c-0.27,0-0.49-0.01-0.65-0.03
			c-0.17-0.02-0.3-0.05-0.41-0.08c-0.1-0.04-0.17-0.09-0.2-0.15c-0.03-0.06-0.04-0.14-0.02-0.24l0.36-1.85
			c-0.13,0.27-0.34,0.57-0.62,0.87c-0.28,0.31-0.62,0.58-1.01,0.83c-0.39,0.25-0.82,0.46-1.29,0.62c-0.47,0.16-0.96,0.25-1.46,0.25
			c-0.69,0-1.26-0.12-1.72-0.36c-0.46-0.24-0.83-0.57-1.1-0.98c-0.28-0.41-0.47-0.88-0.59-1.4c-0.12-0.53-0.17-1.08-0.17-1.66
			c0-0.54,0.05-1.14,0.15-1.78c0.1-0.64,0.26-1.28,0.48-1.92c0.21-0.64,0.49-1.25,0.83-1.84s0.74-1.11,1.21-1.57
			c0.47-0.46,1.01-0.82,1.62-1.09c0.61-0.27,1.3-0.41,2.06-0.41c0.72,0,1.35,0.15,1.9,0.45c0.55,0.3,1.03,0.73,1.45,1.3l0.21-1.02
			c0.04-0.18,0.17-0.31,0.41-0.39c0.24-0.08,0.62-0.12,1.15-0.12c0.26,0,0.47,0.01,0.65,0.03c0.17,0.02,0.31,0.05,0.41,0.09
			c0.1,0.04,0.17,0.09,0.2,0.15c0.04,0.07,0.04,0.14,0.03,0.23L513.85,461.97z M512.25,453.87c-0.3-0.47-0.64-0.83-1-1.07
			c-0.37-0.24-0.79-0.36-1.28-0.36c-0.36,0-0.69,0.08-1,0.26c-0.3,0.17-0.57,0.4-0.8,0.69c-0.23,0.29-0.44,0.62-0.62,1
			c-0.18,0.38-0.32,0.77-0.44,1.18c-0.12,0.41-0.2,0.82-0.26,1.24c-0.06,0.42-0.08,0.81-0.08,1.16c0,0.26,0.02,0.51,0.06,0.74
			c0.04,0.23,0.11,0.44,0.21,0.62c0.1,0.18,0.24,0.33,0.41,0.43c0.17,0.11,0.39,0.16,0.66,0.16c0.38,0,0.77-0.12,1.16-0.34
			c0.4-0.23,0.77-0.54,1.11-0.93c0.34-0.39,0.65-0.85,0.91-1.37c0.26-0.52,0.46-1.08,0.58-1.68L512.25,453.87z"/>
		<path class="st1" d="M529.86,454.08c0,0.57-0.05,1.18-0.15,1.82c-0.1,0.65-0.26,1.29-0.48,1.93c-0.21,0.64-0.49,1.25-0.83,1.84
			c-0.34,0.59-0.74,1.1-1.22,1.55c-0.47,0.45-1.02,0.81-1.62,1.08c-0.61,0.27-1.29,0.4-2.04,0.4c-0.72,0-1.36-0.14-1.92-0.43
			c-0.56-0.28-1.04-0.72-1.44-1.29l-0.19,0.98c-0.04,0.18-0.17,0.31-0.41,0.39c-0.24,0.08-0.62,0.12-1.14,0.12
			c-0.52,0-0.87-0.04-1.05-0.13c-0.19-0.09-0.26-0.22-0.23-0.39l3.4-17.02c0.02-0.09,0.06-0.16,0.12-0.23
			c0.06-0.07,0.16-0.13,0.3-0.17s0.31-0.08,0.52-0.11c0.21-0.02,0.48-0.04,0.8-0.04c0.32,0,0.58,0.01,0.78,0.04
			c0.2,0.03,0.36,0.06,0.47,0.11c0.12,0.05,0.19,0.11,0.23,0.17c0.03,0.07,0.04,0.15,0.02,0.23l-0.92,4.63
			c-0.04,0.2-0.09,0.41-0.14,0.63c-0.05,0.22-0.11,0.44-0.18,0.65c-0.06,0.22-0.13,0.43-0.19,0.63c-0.06,0.2-0.13,0.38-0.19,0.54
			c0.16-0.28,0.38-0.56,0.67-0.84c0.29-0.28,0.62-0.53,0.99-0.76c0.37-0.22,0.77-0.4,1.2-0.54c0.43-0.14,0.86-0.21,1.29-0.21
			c0.49,0,0.92,0.06,1.28,0.19c0.36,0.12,0.68,0.3,0.94,0.51c0.27,0.22,0.49,0.47,0.66,0.76s0.31,0.6,0.41,0.93
			c0.1,0.32,0.17,0.66,0.21,1C529.84,453.41,529.86,453.75,529.86,454.08z M526.51,454.4c0-0.21-0.01-0.44-0.05-0.67
			c-0.03-0.23-0.09-0.44-0.19-0.63c-0.1-0.19-0.24-0.34-0.41-0.47c-0.17-0.12-0.4-0.18-0.69-0.18c-0.39,0-0.78,0.11-1.17,0.34
			c-0.39,0.23-0.76,0.54-1.11,0.94c-0.34,0.4-0.65,0.86-0.92,1.39c-0.27,0.53-0.46,1.09-0.57,1.68l-0.36,1.75
			c0.3,0.47,0.64,0.83,1,1.05c0.37,0.23,0.79,0.34,1.28,0.34c0.34,0,0.66-0.08,0.96-0.25c0.29-0.17,0.56-0.39,0.8-0.66
			c0.24-0.28,0.44-0.6,0.62-0.97c0.18-0.37,0.32-0.76,0.45-1.17c0.12-0.41,0.21-0.83,0.27-1.25
			C526.48,455.2,526.51,454.8,526.51,454.4z"/>
		<path class="st1" d="M540.69,450.23c0,0.06-0.01,0.17-0.02,0.32c-0.02,0.15-0.04,0.34-0.08,0.54c-0.03,0.21-0.08,0.42-0.13,0.64
			c-0.05,0.22-0.11,0.43-0.18,0.62c-0.06,0.19-0.14,0.34-0.22,0.46c-0.08,0.12-0.17,0.18-0.26,0.18c-0.08,0-0.15-0.01-0.23-0.05
			c-0.08-0.03-0.16-0.06-0.26-0.09c-0.09-0.03-0.2-0.06-0.31-0.09c-0.11-0.03-0.24-0.05-0.39-0.05c-0.29,0-0.61,0.11-0.94,0.34
			c-0.33,0.23-0.65,0.52-0.95,0.89c-0.3,0.37-0.57,0.79-0.81,1.28s-0.41,1-0.51,1.53l-1.03,5.19c-0.02,0.09-0.06,0.16-0.12,0.23
			c-0.06,0.06-0.16,0.12-0.3,0.16c-0.13,0.04-0.31,0.07-0.52,0.1c-0.22,0.02-0.48,0.03-0.79,0.03c-0.32,0-0.58-0.01-0.78-0.03
			c-0.2-0.02-0.36-0.05-0.48-0.1c-0.12-0.04-0.19-0.1-0.23-0.16c-0.03-0.07-0.04-0.14-0.02-0.23l2.3-11.56
			c0.02-0.09,0.06-0.16,0.12-0.23c0.06-0.06,0.15-0.12,0.27-0.15c0.12-0.04,0.27-0.07,0.45-0.09c0.19-0.02,0.41-0.03,0.67-0.03
			c0.27,0,0.49,0.01,0.65,0.03c0.17,0.02,0.3,0.05,0.39,0.09c0.09,0.04,0.16,0.09,0.19,0.15c0.03,0.07,0.04,0.14,0.02,0.23
			l-0.36,1.84c0.21-0.37,0.45-0.71,0.72-1.02c0.27-0.31,0.56-0.58,0.87-0.81c0.31-0.23,0.62-0.41,0.95-0.54
			c0.33-0.13,0.65-0.19,0.97-0.19c0.13,0,0.26,0.01,0.39,0.02c0.13,0.02,0.26,0.04,0.38,0.07c0.12,0.02,0.22,0.06,0.31,0.1
			c0.09,0.04,0.16,0.08,0.21,0.12C540.67,450.04,540.69,450.12,540.69,450.23z"/>
		<path class="st1" d="M551.16,461.97c-0.04,0.18-0.17,0.31-0.41,0.39c-0.24,0.08-0.62,0.12-1.15,0.12c-0.27,0-0.49-0.01-0.65-0.03
			c-0.17-0.02-0.3-0.05-0.41-0.08c-0.1-0.04-0.17-0.09-0.2-0.15c-0.03-0.06-0.04-0.14-0.02-0.24l0.36-1.85
			c-0.13,0.27-0.34,0.57-0.62,0.87c-0.28,0.31-0.62,0.58-1.01,0.83c-0.39,0.25-0.82,0.46-1.29,0.62c-0.47,0.16-0.96,0.25-1.46,0.25
			c-0.69,0-1.26-0.12-1.72-0.36c-0.46-0.24-0.83-0.57-1.1-0.98c-0.28-0.41-0.47-0.88-0.59-1.4c-0.12-0.53-0.17-1.08-0.17-1.66
			c0-0.54,0.05-1.14,0.15-1.78c0.1-0.64,0.26-1.28,0.48-1.92c0.21-0.64,0.49-1.25,0.83-1.84c0.34-0.59,0.74-1.11,1.21-1.57
			c0.47-0.46,1.01-0.82,1.62-1.09c0.61-0.27,1.3-0.41,2.06-0.41c0.72,0,1.35,0.15,1.9,0.45c0.55,0.3,1.03,0.73,1.45,1.3l0.21-1.02
			c0.04-0.18,0.17-0.31,0.41-0.39c0.24-0.08,0.62-0.12,1.15-0.12c0.26,0,0.47,0.01,0.65,0.03c0.17,0.02,0.31,0.05,0.41,0.09
			c0.1,0.04,0.17,0.09,0.2,0.15c0.04,0.07,0.04,0.14,0.03,0.23L551.16,461.97z M549.56,453.87c-0.3-0.47-0.64-0.83-1-1.07
			c-0.37-0.24-0.79-0.36-1.28-0.36c-0.36,0-0.69,0.08-1,0.26c-0.3,0.17-0.57,0.4-0.8,0.69c-0.23,0.29-0.44,0.62-0.62,1
			c-0.18,0.38-0.32,0.77-0.44,1.18c-0.12,0.41-0.2,0.82-0.26,1.24c-0.06,0.42-0.08,0.81-0.08,1.16c0,0.26,0.02,0.51,0.06,0.74
			c0.04,0.23,0.11,0.44,0.21,0.62c0.1,0.18,0.24,0.33,0.41,0.43c0.17,0.11,0.39,0.16,0.66,0.16c0.38,0,0.77-0.12,1.16-0.34
			c0.4-0.23,0.77-0.54,1.11-0.93c0.34-0.39,0.65-0.85,0.91-1.37c0.26-0.52,0.46-1.08,0.58-1.68L549.56,453.87z"/>
		<path class="st1" d="M566.85,452.99c0,0.3-0.02,0.6-0.06,0.91c-0.04,0.3-0.09,0.61-0.15,0.93l-1.44,7.13
			c-0.02,0.09-0.06,0.16-0.12,0.23c-0.07,0.06-0.17,0.12-0.3,0.16c-0.13,0.04-0.31,0.07-0.52,0.1c-0.21,0.02-0.48,0.03-0.8,0.03
			s-0.58-0.01-0.78-0.03c-0.2-0.02-0.36-0.05-0.47-0.1c-0.11-0.04-0.19-0.1-0.23-0.16c-0.04-0.07-0.05-0.14-0.03-0.23l1.4-6.93
			c0.04-0.21,0.07-0.42,0.1-0.63c0.02-0.21,0.03-0.4,0.03-0.57c0-0.39-0.08-0.71-0.25-0.96c-0.16-0.25-0.44-0.37-0.83-0.37
			c-0.35,0-0.72,0.11-1.11,0.34c-0.38,0.22-0.75,0.53-1.09,0.91c-0.34,0.38-0.64,0.83-0.91,1.35c-0.27,0.51-0.46,1.06-0.57,1.64
			l-1.05,5.23c-0.02,0.09-0.06,0.16-0.12,0.23c-0.06,0.06-0.16,0.12-0.3,0.16c-0.13,0.04-0.31,0.07-0.52,0.1
			c-0.22,0.02-0.48,0.03-0.79,0.03c-0.32,0-0.58-0.01-0.78-0.03c-0.2-0.02-0.36-0.05-0.48-0.1c-0.12-0.04-0.19-0.1-0.23-0.16
			c-0.03-0.07-0.04-0.14-0.02-0.23l2.32-11.56c0.02-0.09,0.05-0.16,0.11-0.23c0.06-0.06,0.14-0.12,0.26-0.15
			c0.12-0.04,0.27-0.07,0.45-0.09c0.19-0.02,0.41-0.03,0.67-0.03c0.27,0,0.49,0.01,0.65,0.03c0.17,0.02,0.3,0.05,0.39,0.09
			c0.09,0.04,0.16,0.09,0.19,0.15c0.03,0.07,0.04,0.14,0.02,0.23l-0.38,1.9c0.18-0.3,0.42-0.61,0.73-0.93
			c0.3-0.31,0.65-0.6,1.04-0.85c0.39-0.25,0.82-0.46,1.28-0.62c0.46-0.16,0.94-0.24,1.44-0.24c0.6,0,1.11,0.09,1.52,0.26
			c0.41,0.18,0.74,0.42,1,0.72c0.25,0.3,0.44,0.65,0.55,1.05C566.79,452.11,566.85,452.54,566.85,452.99z"/>
	</g>
	<g>
		<path class="st1" d="M562.68,569.75c0,0.07-0.01,0.17-0.02,0.3c-0.01,0.13-0.03,0.27-0.06,0.43c-0.02,0.15-0.06,0.31-0.1,0.47
			c-0.04,0.16-0.09,0.31-0.14,0.44s-0.12,0.24-0.19,0.33c-0.07,0.08-0.14,0.13-0.22,0.13c-0.12,0-0.27-0.05-0.45-0.16
			c-0.18-0.11-0.4-0.22-0.67-0.35c-0.26-0.13-0.57-0.24-0.92-0.35c-0.35-0.11-0.76-0.16-1.2-0.16c-0.47,0-0.86,0.06-1.18,0.19
			c-0.32,0.13-0.59,0.3-0.79,0.51c-0.21,0.21-0.36,0.45-0.46,0.71c-0.1,0.26-0.15,0.53-0.15,0.79c0,0.31,0.08,0.58,0.23,0.82
			c0.15,0.24,0.36,0.46,0.62,0.66c0.26,0.2,0.55,0.4,0.89,0.59c0.33,0.19,0.67,0.39,1.01,0.6c0.34,0.21,0.68,0.43,1.01,0.68
			s0.63,0.53,0.89,0.85c0.26,0.32,0.47,0.69,0.62,1.11c0.15,0.42,0.23,0.9,0.23,1.44c0,0.81-0.17,1.56-0.49,2.26
			c-0.33,0.7-0.79,1.3-1.39,1.81c-0.6,0.51-1.32,0.92-2.17,1.21c-0.85,0.29-1.79,0.44-2.83,0.44c-0.56,0-1.08-0.05-1.55-0.14
			c-0.47-0.09-0.9-0.2-1.26-0.33c-0.37-0.13-0.67-0.26-0.92-0.41c-0.25-0.14-0.44-0.28-0.56-0.41c-0.12-0.13-0.18-0.32-0.18-0.58
			c0-0.07,0.01-0.17,0.02-0.31c0.02-0.14,0.04-0.29,0.07-0.45c0.03-0.16,0.07-0.32,0.11-0.49c0.04-0.17,0.09-0.32,0.15-0.46
			c0.06-0.14,0.13-0.25,0.2-0.34c0.07-0.09,0.15-0.13,0.24-0.13c0.15,0,0.32,0.07,0.52,0.2c0.2,0.13,0.46,0.28,0.76,0.44
			c0.3,0.16,0.66,0.31,1.08,0.45c0.41,0.14,0.91,0.21,1.49,0.21c0.51,0,0.95-0.06,1.34-0.19c0.38-0.13,0.7-0.31,0.96-0.53
			c0.26-0.23,0.45-0.49,0.59-0.78c0.13-0.3,0.2-0.62,0.2-0.98c0-0.32-0.08-0.6-0.23-0.84c-0.15-0.24-0.36-0.46-0.62-0.67
			c-0.25-0.2-0.54-0.39-0.87-0.58c-0.32-0.18-0.65-0.38-0.99-0.58c-0.34-0.21-0.67-0.43-0.99-0.67c-0.32-0.24-0.61-0.52-0.87-0.85
			c-0.25-0.32-0.46-0.7-0.62-1.12c-0.15-0.42-0.23-0.91-0.23-1.48c0-0.78,0.16-1.49,0.47-2.15s0.74-1.22,1.29-1.69
			c0.55-0.47,1.21-0.84,1.98-1.1c0.77-0.26,1.61-0.39,2.54-0.39c0.43,0,0.84,0.03,1.23,0.1c0.39,0.06,0.74,0.15,1.06,0.25
			s0.59,0.21,0.82,0.33c0.23,0.12,0.38,0.22,0.47,0.3c0.08,0.08,0.15,0.17,0.19,0.26C562.66,569.49,562.68,569.61,562.68,569.75z"/>
		<path class="st1" d="M566.37,584.77c-0.02,0.09-0.06,0.16-0.12,0.23c-0.06,0.06-0.16,0.12-0.3,0.16c-0.13,0.04-0.31,0.07-0.52,0.1
			c-0.22,0.02-0.48,0.03-0.79,0.03c-0.32,0-0.58-0.01-0.78-0.03c-0.2-0.02-0.36-0.05-0.48-0.1c-0.12-0.04-0.19-0.1-0.23-0.16
			c-0.03-0.07-0.04-0.14-0.02-0.23l2.29-11.52c0.02-0.09,0.06-0.16,0.12-0.23c0.06-0.06,0.16-0.12,0.3-0.17
			c0.13-0.05,0.31-0.08,0.52-0.11c0.21-0.02,0.48-0.04,0.8-0.04c0.32,0,0.58,0.01,0.78,0.04c0.2,0.03,0.36,0.06,0.48,0.11
			c0.12,0.05,0.19,0.11,0.23,0.17c0.03,0.06,0.04,0.14,0.02,0.23L566.37,584.77z M569.71,569.34c-0.06,0.32-0.14,0.59-0.25,0.81
			c-0.1,0.22-0.24,0.4-0.41,0.53c-0.17,0.13-0.38,0.23-0.63,0.28c-0.25,0.06-0.56,0.08-0.93,0.08c-0.36,0-0.66-0.03-0.89-0.08
			c-0.23-0.06-0.4-0.15-0.52-0.28c-0.12-0.13-0.18-0.31-0.2-0.53c-0.02-0.22,0.01-0.49,0.08-0.81c0.06-0.31,0.14-0.57,0.25-0.79
			c0.1-0.22,0.24-0.39,0.41-0.53c0.17-0.14,0.38-0.24,0.63-0.3c0.25-0.06,0.56-0.09,0.93-0.09c0.36,0,0.66,0.03,0.89,0.09
			c0.23,0.06,0.4,0.16,0.52,0.3c0.12,0.14,0.18,0.31,0.19,0.53C569.79,568.77,569.77,569.03,569.71,569.34z"/>
		<path class="st1" d="M582.03,573.19c0,0.11-0.01,0.24-0.04,0.38c-0.02,0.14-0.06,0.28-0.12,0.43c-0.29,0.79-0.61,1.61-0.95,2.46
			c-0.34,0.85-0.73,1.72-1.17,2.62c-0.44,0.9-0.94,1.82-1.5,2.78c-0.56,0.96-1.2,1.95-1.93,2.98l-3.16,4.48
			c-0.08,0.11-0.17,0.21-0.29,0.28c-0.12,0.07-0.26,0.13-0.44,0.18c-0.18,0.05-0.39,0.08-0.64,0.11c-0.25,0.03-0.54,0.04-0.87,0.04
			c-0.37,0-0.67-0.01-0.9-0.05c-0.23-0.03-0.39-0.08-0.5-0.15c-0.11-0.07-0.15-0.15-0.14-0.26c0.01-0.11,0.07-0.23,0.18-0.38
			l2.94-3.87l-1.9-11.11c-0.02-0.11-0.04-0.23-0.05-0.35c-0.02-0.12-0.03-0.22-0.03-0.31c0-0.16,0.03-0.28,0.08-0.38
			c0.06-0.09,0.15-0.17,0.28-0.22c0.13-0.05,0.31-0.09,0.54-0.11c0.22-0.02,0.5-0.03,0.82-0.03c0.36,0,0.63,0.01,0.84,0.02
			c0.2,0.01,0.36,0.04,0.46,0.08c0.1,0.04,0.18,0.11,0.21,0.19c0.04,0.08,0.07,0.19,0.08,0.32l1.19,8.09h0.03
			c0.43-0.65,0.82-1.3,1.18-1.97c0.36-0.66,0.68-1.34,0.97-2.03c0.29-0.69,0.56-1.38,0.81-2.08c0.25-0.7,0.47-1.41,0.68-2.13
			c0.02-0.09,0.06-0.16,0.12-0.23c0.06-0.06,0.16-0.12,0.3-0.15c0.14-0.04,0.33-0.07,0.56-0.09c0.23-0.02,0.53-0.03,0.91-0.03
			c0.55,0,0.93,0.04,1.14,0.11C581.93,572.88,582.03,573.01,582.03,573.19z"/>
		<path class="st1" d="M582.06,582.23c0-0.62,0.14-1.18,0.42-1.68c0.28-0.5,0.72-0.92,1.31-1.28c0.59-0.36,1.34-0.63,2.25-0.82
			c0.91-0.19,1.99-0.28,3.26-0.28h1.19c0.03-0.2,0.06-0.39,0.08-0.59c0.02-0.19,0.03-0.37,0.03-0.54c0-0.7-0.18-1.23-0.54-1.58
			c-0.36-0.36-0.94-0.53-1.75-0.53c-0.57,0-1.08,0.04-1.53,0.12c-0.45,0.08-0.85,0.17-1.19,0.27c-0.34,0.1-0.62,0.19-0.85,0.27
			c-0.22,0.08-0.39,0.12-0.49,0.12s-0.18-0.03-0.22-0.09c-0.04-0.06-0.07-0.15-0.07-0.28c0-0.15,0.01-0.31,0.04-0.5
			c0.03-0.19,0.06-0.38,0.11-0.56s0.11-0.36,0.18-0.52c0.07-0.16,0.16-0.29,0.25-0.38c0.1-0.1,0.29-0.21,0.57-0.31
			c0.28-0.1,0.61-0.2,1-0.28c0.39-0.09,0.82-0.16,1.31-0.21c0.48-0.06,0.98-0.08,1.48-0.08c0.83,0,1.55,0.09,2.17,0.26
			c0.62,0.17,1.13,0.44,1.55,0.79c0.41,0.35,0.72,0.8,0.93,1.35c0.21,0.55,0.31,1.2,0.31,1.95c0,0.58-0.06,1.2-0.16,1.86
			c-0.11,0.66-0.28,1.31-0.52,1.95s-0.55,1.26-0.93,1.84c-0.38,0.59-0.84,1.1-1.38,1.55c-0.54,0.44-1.16,0.8-1.87,1.07
			c-0.71,0.27-1.52,0.4-2.42,0.4c-0.79,0-1.46-0.09-2.03-0.28c-0.56-0.18-1.03-0.43-1.39-0.74c-0.36-0.31-0.63-0.66-0.81-1.05
			C582.15,583.05,582.06,582.65,582.06,582.23z M585.25,581.99c0,0.34,0.13,0.63,0.41,0.86c0.27,0.23,0.67,0.34,1.18,0.34
			c0.43,0,0.82-0.08,1.16-0.23c0.34-0.15,0.64-0.36,0.9-0.63c0.26-0.26,0.48-0.57,0.67-0.93c0.18-0.36,0.33-0.74,0.45-1.15h-1.09
			c-0.69,0-1.27,0.05-1.73,0.13c-0.47,0.09-0.84,0.21-1.12,0.37c-0.28,0.15-0.49,0.34-0.62,0.55
			C585.32,581.52,585.25,581.75,585.25,581.99z"/>
		<path class="st1" d="M604.77,573.25c0,0.06-0.01,0.15-0.02,0.28c-0.02,0.13-0.04,0.27-0.07,0.41c-0.02,0.15-0.05,0.29-0.08,0.43
			c-0.03,0.14-0.05,0.25-0.07,0.32c-0.06,0.23-0.15,0.43-0.26,0.61c-0.11,0.18-0.27,0.39-0.47,0.62l-5.46,6.66h4.4
			c0.13,0,0.22,0.04,0.28,0.13c0.06,0.09,0.08,0.22,0.08,0.41c0,0.07-0.01,0.17-0.02,0.3s-0.04,0.28-0.06,0.43
			c-0.03,0.15-0.07,0.31-0.12,0.47c-0.05,0.15-0.1,0.3-0.17,0.43c-0.07,0.13-0.14,0.24-0.23,0.32c-0.09,0.08-0.18,0.12-0.28,0.12
			h-7.62c-0.16,0-0.29-0.05-0.38-0.15c-0.09-0.1-0.13-0.25-0.13-0.46c0-0.07,0.01-0.16,0.03-0.28c0.02-0.12,0.04-0.24,0.06-0.36
			c0.03-0.13,0.05-0.25,0.08-0.36c0.03-0.12,0.05-0.21,0.08-0.28c0.02-0.09,0.05-0.19,0.08-0.27c0.03-0.09,0.07-0.18,0.13-0.27
			c0.06-0.09,0.13-0.2,0.21-0.31c0.08-0.11,0.19-0.24,0.32-0.39l5.51-6.68h-3.93c-0.12,0-0.21-0.04-0.28-0.13
			c-0.06-0.09-0.1-0.24-0.1-0.45c0-0.08,0.01-0.2,0.02-0.33c0.01-0.13,0.04-0.27,0.07-0.42c0.03-0.15,0.07-0.3,0.12-0.45
			c0.05-0.15,0.11-0.29,0.18-0.41c0.07-0.12,0.15-0.22,0.23-0.3c0.09-0.08,0.18-0.12,0.28-0.12h7.13c0.18,0,0.31,0.04,0.37,0.12
			C604.74,572.99,604.77,573.11,604.77,573.25z"/>
		<path class="st1" d="M605.28,582.23c0-0.62,0.14-1.18,0.42-1.68c0.28-0.5,0.72-0.92,1.31-1.28c0.59-0.36,1.34-0.63,2.25-0.82
			c0.91-0.19,1.99-0.28,3.26-0.28h1.19c0.03-0.2,0.06-0.39,0.08-0.59c0.02-0.19,0.03-0.37,0.03-0.54c0-0.7-0.18-1.23-0.54-1.58
			c-0.36-0.36-0.94-0.53-1.75-0.53c-0.57,0-1.08,0.04-1.53,0.12c-0.45,0.08-0.85,0.17-1.19,0.27c-0.34,0.1-0.62,0.19-0.85,0.27
			c-0.23,0.08-0.39,0.12-0.49,0.12s-0.18-0.03-0.22-0.09c-0.04-0.06-0.07-0.15-0.07-0.28c0-0.15,0.01-0.31,0.04-0.5
			c0.03-0.19,0.06-0.38,0.11-0.56s0.11-0.36,0.18-0.52c0.07-0.16,0.16-0.29,0.25-0.38c0.1-0.1,0.29-0.21,0.57-0.31
			c0.28-0.1,0.61-0.2,1-0.28c0.39-0.09,0.82-0.16,1.31-0.21c0.48-0.06,0.98-0.08,1.48-0.08c0.83,0,1.55,0.09,2.17,0.26
			c0.62,0.17,1.13,0.44,1.55,0.79c0.41,0.35,0.72,0.8,0.93,1.35c0.21,0.55,0.31,1.2,0.31,1.95c0,0.58-0.06,1.2-0.16,1.86
			c-0.11,0.66-0.28,1.31-0.52,1.95s-0.55,1.26-0.93,1.84c-0.38,0.59-0.84,1.1-1.38,1.55c-0.54,0.44-1.16,0.8-1.87,1.07
			c-0.71,0.27-1.52,0.4-2.42,0.4c-0.79,0-1.46-0.09-2.03-0.28c-0.56-0.18-1.03-0.43-1.39-0.74c-0.36-0.31-0.63-0.66-0.81-1.05
			C605.36,583.05,605.28,582.65,605.28,582.23z M608.47,581.99c0,0.34,0.13,0.63,0.41,0.86s0.67,0.34,1.18,0.34
			c0.43,0,0.82-0.08,1.16-0.23c0.34-0.15,0.64-0.36,0.9-0.63c0.26-0.26,0.48-0.57,0.67-0.93c0.18-0.36,0.33-0.74,0.45-1.15h-1.09
			c-0.69,0-1.27,0.05-1.73,0.13c-0.47,0.09-0.84,0.21-1.12,0.37c-0.28,0.15-0.49,0.34-0.62,0.55
			C608.54,581.52,608.47,581.75,608.47,581.99z"/>
		<path class="st1" d="M630.75,575.8c0,0.3-0.02,0.6-0.06,0.91c-0.04,0.3-0.09,0.61-0.15,0.93l-1.44,7.13
			c-0.02,0.09-0.06,0.16-0.12,0.23c-0.07,0.06-0.17,0.12-0.3,0.16c-0.13,0.04-0.31,0.07-0.52,0.1c-0.21,0.02-0.48,0.03-0.8,0.03
			s-0.58-0.01-0.78-0.03c-0.2-0.02-0.36-0.05-0.47-0.1s-0.19-0.1-0.23-0.16c-0.04-0.07-0.05-0.14-0.03-0.23l1.4-6.93
			c0.04-0.21,0.07-0.42,0.1-0.63c0.02-0.21,0.03-0.4,0.03-0.57c0-0.39-0.08-0.71-0.25-0.96c-0.16-0.25-0.44-0.37-0.83-0.37
			c-0.35,0-0.72,0.11-1.11,0.34c-0.38,0.22-0.75,0.53-1.09,0.91c-0.34,0.38-0.64,0.83-0.91,1.35c-0.27,0.51-0.46,1.06-0.57,1.64
			l-1.05,5.23c-0.02,0.09-0.06,0.16-0.12,0.23c-0.06,0.06-0.16,0.12-0.3,0.16c-0.13,0.04-0.31,0.07-0.52,0.1
			c-0.22,0.02-0.48,0.03-0.79,0.03c-0.32,0-0.58-0.01-0.78-0.03c-0.2-0.02-0.36-0.05-0.48-0.1s-0.19-0.1-0.23-0.16
			c-0.03-0.07-0.04-0.14-0.02-0.23l2.32-11.56c0.02-0.09,0.05-0.16,0.11-0.23c0.06-0.06,0.14-0.12,0.26-0.15
			c0.12-0.04,0.27-0.07,0.45-0.09c0.19-0.02,0.41-0.03,0.67-0.03c0.27,0,0.49,0.01,0.65,0.03c0.17,0.02,0.3,0.05,0.39,0.09
			c0.09,0.04,0.16,0.09,0.19,0.15c0.03,0.07,0.04,0.14,0.02,0.23l-0.38,1.9c0.18-0.3,0.42-0.61,0.73-0.93
			c0.3-0.31,0.65-0.6,1.04-0.85c0.39-0.25,0.82-0.46,1.28-0.62c0.46-0.16,0.94-0.24,1.44-0.24c0.6,0,1.11,0.09,1.52,0.26
			c0.41,0.18,0.74,0.42,1,0.72c0.25,0.3,0.44,0.65,0.55,1.05C630.69,574.93,630.75,575.35,630.75,575.8z"/>
	</g>
</g>
</svg>
