<?xml version="1.0" encoding="UTF-8"?>
<svg id="Layer_1" data-name="Layer 1" xmlns="http://www.w3.org/2000/svg" viewBox="0 0 500 500">
  <defs>
    <style>
      .cls-1 {
        fill: #0b7b5f;
        stroke: #fff;
        stroke-miterlimit: 10;
      }

      .cls-2 {
        fill: #f9e5af;
      }
    </style>
  </defs>
  <g>
    <path class="cls-1" d="m133.3,332.48c.5.09.77.3,1.22.52,1.27.62,2.08,2.07,3.5,2.34.44.09.89.05,1.33.13.17.03.22.22.47.21.18,0,.25-.24.46-.29.75-.18,2.16-.09,2.94,0,1.64.2,2.86,1.94,4.23,2.82,1.05.67,2.06,1.48,3.07,2.22,1.3.95,2.68,1.77,4.05,2.64,1.13.72,2.22,1.57,3.4,2.27.68.4,1.38.56,2.17.59,1.68.06,2.69.02,4.27.71,2.04.89,3.89,2.05,6.02,2.77,2.71.91,5.59,2.24,7.63,4.3.82.82,1.28,1.84,2.31,2.44.91.53,1.77.69,2.8.44.8-.2,1.41-.67,2.15-.98,1.5-.62,2.8-.08,4.3.23,1.57.32,3.16.48,4.71.88,1.22.32,2.61.17,3.73.85.73.45,1.33,1.07,2.1,1.47.89.47,1.8.92,2.52,1.62,2.6,2.52,4.95,5.59,5.71,9.16.33.12.69.04,1.03-.1-.13-.33-.22-.68-.21-1.04,0,.36.08.7.21,1.04.43-.18.85-.46,1.21-.61,1.18-.5,2.34-.36,3.56-.7,1.8-.51,3.57-.68,5.44-.61,1.34.05,2.62.33,3.98.3.65-.02,1.21-.02,1.83.2.56.2,1.04.56,1.6.77,1.17.44,2.21.71,3.46.79.45.03.58.1.96.28.8.37,1.12.5,2.04.66,1.58.27,3.55.66,4.79,1.68,1.27,1.05,2.73,1.83,4.16,2.66.77.45,1.41.75,2.31.86.95.12,1.93-.05,2.89.04,1.07.1,2.06.45,3.02.9,1.05.48,2.09.77,3.24.96,2.31.38,4.42,1.35,6.71,1.83,1.17.25,1.97.78,2.93,1.46,1.37.98,2.94,1.18,4.51,1.59.96.25,1.56.97,2.09,1.77.39.59,1.06,1.24,1.33,1.87.03-.33-.26-.6-.33-.92-.04-.19-.02-.4,0-.6-.25-.24-.47-.49-.64-.72.16.23.39.48.64.72.03-.24.07-.49.02-.72-.14-.79-.32-1.36-.31-2.2.01-1.47-.02-2.83-.22-4.27-.36-2.58-.27-5.28-.73-7.84-.31-1.74.55-2.73,1.11-4.27.58-1.6-.72-2.71-1.61-3.91-.77-1.03-1.78-1.66-2.6-2.61-.84-.97-1.09-2.29-.92-3.53.2-1.43.81-2.8,1.38-4.11.5-1.14.7-2.32,2.03-2.64.69-.17,1.5-.09,2.14-.31.96-.34,1.91-1.12,2.78-1.64.92-.55,1.82-1.09,2.75-1.61.03-.56.41-.98.69-1.46.49-.82.93-1.63,1.21-2.55.32-1.08.67-2.42.43-3.56-.24-1.11-.88-2.67-1.68-3.47-.78-.77-1.86-1.29-2.69-2.02-.93-.81-1.81-1.66-2.62-2.58-.97-1.1-1.71-2.27-2.28-3.64-.5-1.2-.7-2.46-1.75-3.28-1.48-1.15-3.84-1.75-4.71-3.54-1.13-2.33.49-5.45,1.45-7.57,1.28-2.83,2.43-5.78,5.15-7.5,2.53-1.6,4.86-3.48,7.33-5.17,1.09-.75,2.15-.77,3.37-1.09,1.39-.36,2.76-1.3,3.91-2.15.78-.58,1.89-1.25,2.42-2.09.33-.53.39-1.15.6-1.72.2-.52.52-.97.75-1.47.62-1.35.88-2.71,1.36-4.09.39-1.1.86-1.25-.31-2-1.39-.89-2.6-1.9-3.88-2.95-.83-.68-2.45-1.49-1.98-2.82.26-.74.88-1.36,1.16-2.12.43-1.14.69-2.3.87-3.51.29-1.87.28-3.68.28-5.56,0-1.28.02-2.43.29-3.67.2-.88.5-1.63.81-2.48.26-.71.54-1.27.71-1.97.08-.31.19-.69.26-1.09.02-.12.06-.24.1-.35-.23.09-.44.2-.72.22-.9.06-.89-1.55-1.16-2.2-.55-1.3-1.65-2.71-3.22-2.5-1.15.15-2.05,1.41-2.98,2.07-1.3.91-2.79,1.2-4.26,1.66-.6.19-1.16.46-1.82.37-.7-.1-.36-.04-.57-.58-.33-.85-.27-1.72-.59-2.59-.58-1.57-.7-3.14-2.13-4.36-.65-.55-1.21-.95-1.67-1.65-.44-.66-.81-1.33-1.13-2.07-.84-1.95-1.98-3.87-2.81-5.86-.54-1.3-1.05-2.66-1.53-3.99-.39-1.08-.83-2.32-.95-3.44-.09-.84-.41-1.81-.64-2.63-.23-.8-.74-1.87-1.18-2.56-.53-.82-1.17-1.33-1.91-1.89-.46-.35-.91-.91-1.23-1.38-.58-.88-1.24-1.31-2.09-1.9-.72-.49-1.61-.93-2.29-1.58-.55.7-1.6.68-2.4.92-.94.28-1.77.72-2.7,1.03-.98.33-1.95.57-2.91.95-.8.32-1.63.4-2.47.63-1.38.38-2.67.9-3.97,1.48-1.73.77-3.61,1.26-5.38,1.95-2.04.8-3.85,1.93-5.78,2.97-1.14.61-2.48,1-3.56,1.72-.78.53-1.75,1.08-2.66,1.4-1.12.38-2.38.35-3.48.71-.99.32-2,.82-2.95,1.24-1.19.52-2.32.9-3.52,1.25-.64.19-1.03.27-1.49.75-1.55,1.62-3.11,3.1-4.86,4.52-1.59,1.29-3.5,2.17-5.13,3.43-1.75,1.36-3.61,2.46-5.48,3.64-2.22,1.4-4.32,3.15-6.3,4.87-2.54,2.19-5.21,4.21-7.76,6.39-2.87,2.44-6.41,4.04-9.49,6.23-1.1.78-2.14,1.7-3.32,2.39-1.76,1.02-3.75,1.6-5.57,2.5-3.86,1.91-7.29,4.73-10.81,7.19-3.56,2.49-7.27,4.76-10.83,7.25-3.28,2.29-6.9,3.95-10.41,5.84-1.53.83-3.03,1.74-4.55,2.59-1.45.81-3.14,1.44-4.48,2.4-1.12.79-2.34,1.58-3.28,2.58-1.23,1.32-2.36,2.83-3.24,4.42-.93,1.68-1.83,3.29-3.16,4.72-.45.48-1.43.7-2.24.78-.52,1.16-.96,2.29-.8,3.71.09.77.07,1.48.34,2.22.45,1.22,1.11,2.26,1.72,3.39,1.18,2.17,1.87,4.37,3.94,5.94,1.34,1.02,2.86,2.56,4.65,2.61.94.02,1.5.08,2.41.42.9.34,1.82.56,2.78.67,1.2.15,2.39-.13,3.53.39.94.42,2.04,1.12,2.88,1.73.83.61.93.94.71,1.63.13.05.28.1.49.11.48.03,1.01-.1,1.49-.01Z"/>
    <path class="cls-1" d="m230.25,147.31c.29.02.88-.26,1.19-.32.9-.18,1.67-.66,2.62-.88.47-.11.98-.23,1.46-.28.62-.07,1.07-.33,1.69-.23.03,0,.6.21.65.23.15.05.56.18.71.22.53.13,1.13.2,1.64.36,1.04.31,2.23,1.16,2.92,2.05.31.4.67,1.02.81,1.53.1.38.02.73.12,1.11.09.34.3.48.25.87-.07.56-.33.85-.31,1.46.02.76-.27,1.42-.44,2.16-.3,1.33-.97,2.7-1.53,3.99-.25.58-.6,1.21-.93,1.73-.59.94-1.02,1.88-1.55,2.87-.63,1.2-1.26,2.33-1.75,3.56-.19.46-.41.98-.52,1.47-.13.53-.44,1.14-.55,1.63-.11.48-.03,1.08-.03,1.58,0,.59-.21.92-.31,1.46-.18,1.04.06,2.6.52,3.52.53,1.07,1.28,2.05,2.14,2.92.48.48.95.72,1.45,1.14.29.23.39.62.64.84.17.04.34.08.51.1.17.1.31.23.43.39,1.35.93,2.96,1.35,4.54,1.83.87.26,1.75.43,2.63.66.66.17,1.45.19,2.05.49,1.38.7,1.7,2.62,1.26,3.96-.27.82-.71,1.52-1.18,2.23-.42.64-.55,1.37-.94,2.02-.37.62-.89,1.18-1.38,1.71-.71.77-1.19,1.77-1.73,2.67-.31.52-.48,1.23-.64,1.81-.45,1.61,1.89,2.91,2.9,3.86,1.15,1.08,3.32,2.24,3.47,4,.09,1.08.3,2.13.28,3.22-.02,1.89.29,3.71.28,5.59,0,1.14.42,3.12-.27,4.07,0,.01-.02.02-.03.03.69.64,1.58,1.08,2.29,1.58.86.59,1.51,1.03,2.09,1.9.31.47.77,1.03,1.23,1.38.74.56,1.38,1.07,1.91,1.89.45.69.96,1.77,1.18,2.56.23.81.55,1.79.64,2.63.12,1.12.56,2.36.95,3.44.48,1.33.99,2.68,1.53,3.99.83,2,1.97,3.91,2.81,5.86.32.74.69,1.41,1.13,2.07.46.7,1.02,1.1,1.67,1.65,1.43,1.22,1.54,2.79,2.13,4.36.32.86.26,1.73.59,2.59.21.55-.13.49.57.58.65.09,1.21-.18,1.82-.37,1.47-.46,2.96-.75,4.26-1.66.93-.66,1.83-1.92,2.98-2.07,1.58-.21,2.67,1.2,3.22,2.5.27.65.26,2.25,1.16,2.2.28-.02.49-.13.72-.22.06-.17.12-.34.15-.52-.03.18-.1.35-.15.52.2-.08.41-.14.68-.12.59.06,1.1.54,1.68.6.7.07,1.13-.44,1.74-.71.53-.23.66-.16,1.21-.01,1.41.39,2.66-.69,3.94-1.21,2.09-.84,4.46-1.65,6.7-1.85.94-.09.91-.12,1.34.56.39.62.84,1.13,1.5,1.49.55.3,1.28.35,1.72.85.37.42.27,1.13.62,1.51.64.7,2.42.12,3.27-.02,3.25-.55,5.96-3.27,8.68-4.89,2.26-1.35,5.79-2.94,8.31-1.55.78.43,1.48,1.01,2.25,1.47.64.38,1.31.65,1.96,1.02.76.43,1.53.74,2.26,1.23,1.1.74,1.99,1.87,3.18,2.47.98.5,1.12.06,2-.46.76-.45,1.29-.45,2.13-.45.77,0,1.41-.3,2.19-.31.78,0,1.66-.11,2.42.07,1.69.41,3.85.88,5.68.49.81-.17,1.68-.57,2.41-.92.44-.21.61-.44.98-.77.14-.13.27-.22.41-.31-.04-.15-.09-.31-.15-.46-.29-.81-.86-1.54-1.1-2.4-.22-.76-.61-1.38-.88-2.12-.17-.48-.21-1.02-.35-1.48-.23-.77-.61-1.89-1.1-2.63-.54-.8-1.38-1.17-2.04-1.81-.56-.54-2.26-.92-2.41-1.68-1.04.33-.73-.95-1.15-1.42-.35-.4-.58-.25-.89-.88-.4-.82-.47-1.41-1.22-1.94-.54-.38-1.03-.67-1.48-1.16-.69-.74-1.32-1.36-1.75-2.3-.42-.91-.6-1.96-1.11-2.82-.23-.17-.4-.4-.51-.67-.1-.65-.2-1.3-.31-1.95-.29-1.31-.82-2.35-1.79-3.29-.94-.9-1.71-1.29-1.98-2.63-.18-.88-.31-1.68-.64-2.52-.65-1.67-1.16-2.49-2.56-3.56-1.3-1-1.78-1.5-1.61-3.2.09-.89.29-2.04,0-2.92-.3-.89-1.14-1.55-1.6-2.35-.98-1.69-2.16-3.06-3.5-4.45-1.03-1.07-2.12-2.18-3.1-3.3-.79-.9-1.43-1.9-2.25-2.78-1.27-1.35-1.29-3.28-2.02-4.92-.56-1.27-1.4-2.8-2.32-3.84-.85-.95-1.99-1.52-2.93-2.35-.49-.43-.78-.91-1.16-1.42-.61-.81-1.37-1.49-1.79-2.43-.33-.76-.36-1.28-1.14-1.7-.77-.42-1.01-.51-1.49-1.21-.66-.97-1.42-1.88-2.06-2.87-1.05-1.63-.87-3.63-1.99-5.18-.6-.83-1.46-1.43-2.04-2.3-.29-.44-.23-.52-.62-.74-.72-.41-1.58-.56-2.3-1.03-.61-.4-.97-.94-1.44-1.49-.66-.77-.98-1.66-1.16-2.69-.09-.51.02-1.01-.1-1.5-.19-.78-.63-1.51-.85-2.29-.39-1.35-.28-2.39-1.21-3.55-1.03-1.28-2.33-2.39-3.45-3.59-.62-.66-.83-1.17-1.33-1.85-.49-.67-1.2-1.13-1.81-1.71-.91-.87-1.66-1.77-2.01-2.99-.23-.79-.25-1.16-.68-1.8-.92-1.37-1.38-2.92-2.67-4.02-.8-.51-1.53-1.09-2.21-1.75-.37-.53-.79-1.03-1.24-1.5-.76-.84-1.59-1.67-2.25-2.6-.8-1.14-1.78-2.19-2.53-3.36-.53-.83-.54-1.82-.98-2.69-.46-.92-1.3-1.55-1.83-2.42-.32-.52-.49-1.14-.93-1.58-.64-.63-1.59-.8-2.28-1.37-1.2-.98-2.08-2.51-2.95-3.75-.89-1.28-2.07-2.13-3.33-3.01-.87-.6-1.48-1.4-2.42-1.87-.65-.32-1.09-.58-1.66-.97-.35-.24-.48-.45-.93-.59-1.05-.32-1.87.13-2.79-.64-.3-.25-.59-.6-.86-.88-.5-.53-.49-.79-.64-1.46-.14-.59-.51-1.02-.75-1.52-.39-.82-.43-1.76-.88-2.59-.45-.86-.45-1.85-.93-2.7-.32-.57-.95-1.57-1.47-1.98-.44-.34-.43-.27-.95-.21-.61.07-.54.14-1.11,0-1.07-.24-.84.53-1.16,1.4-.62,1.69-1.7,2.98-2.42,4.6-.23.51-.38,1.05-.78,1.52-.54.62-1.02.98-1.19,1.83-.17.83-.35,1.7-.52,2.55-.23,1.14.42,1.94.54,3.02.09.78-.08,1.26-.38,1.95-.47,1.06-.7,2.19-1.37,3.18-.46.67-1.08,1.07-1.48,1.8-.41.75-.84,1.5-1.17,2.29-.83,1.98-1.08,4.11-2.09,6.02-1.94,3.65-3.15,7.63-5,11.34-.53,1.06-1.03,2.01-1.35,3.06.26.06.53.1.78.16.17.04.05.24.34.26Z"/>
    <path class="cls-1" d="m89.01,298.01c.98,1.34,2.18,1.95,3.64,2.63.75.35,1.3.55,2.11.67.79.12,1.62.19,2.37.43,1.24.39,2.03,1.29,3.2,1.78,2.01.83,3.84,1.54,6.05,1.52.98,0,1.96,0,2.94,0,.3,0,.92-.13,1.18-.02.77.33-.39,2.41-.58,2.91-.24.61-.51,1.18-.76,1.74.82-.08,1.8-.3,2.24-.78,1.33-1.43,2.22-3.04,3.16-4.72.88-1.58,2-3.1,3.24-4.42.94-1,2.16-1.79,3.28-2.58,1.35-.96,3.04-1.59,4.48-2.4,1.52-.85,3.02-1.76,4.55-2.59,3.51-1.89,7.13-3.55,10.41-5.84,3.56-2.49,7.26-4.76,10.83-7.25,3.52-2.45,6.95-5.27,10.81-7.19,1.82-.9,3.81-1.48,5.57-2.5,1.17-.68,2.21-1.6,3.32-2.39,3.08-2.19,6.62-3.78,9.49-6.23,2.55-2.17,5.22-4.19,7.76-6.39,1.99-1.72,4.08-3.46,6.3-4.87,1.87-1.18,3.73-2.28,5.48-3.64,1.64-1.27,3.55-2.14,5.13-3.43,1.75-1.42,3.31-2.9,4.86-4.52.47-.49.86-.57,1.49-.75,1.21-.35,2.34-.73,3.52-1.25.95-.42,1.96-.92,2.95-1.24,1.1-.35,2.36-.32,3.48-.71.91-.31,1.87-.87,2.66-1.4,1.07-.72,2.41-1.11,3.56-1.72,1.93-1.03,3.74-2.16,5.78-2.97,1.77-.7,3.64-1.18,5.38-1.95,1.3-.58,2.59-1.11,3.97-1.48.84-.23,1.67-.32,2.47-.63.97-.38,1.93-.63,2.91-.95.92-.31,1.75-.75,2.7-1.03.8-.24,1.86-.21,2.4-.92-.1-.1-.2-.2-.29-.3.09.11.19.21.29.3,0,0,.02-.02.03-.03.69-.94.27-2.93.27-4.07,0-1.89-.31-3.71-.28-5.59.01-1.09-.19-2.14-.28-3.22-.15-1.77-2.32-2.93-3.47-4-1.02-.95-3.35-2.25-2.9-3.86.16-.58.33-1.29.64-1.81.54-.9,1.02-1.9,1.73-2.67.49-.53,1-1.09,1.38-1.71.39-.65.52-1.38.94-2.02.47-.71.9-1.41,1.18-2.23.44-1.34.12-3.26-1.26-3.96-.6-.3-1.38-.32-2.05-.49-.88-.23-1.76-.39-2.63-.66-1.58-.48-3.19-.9-4.54-1.83-.12-.15-.27-.28-.43-.39-.17-.02-.34-.05-.51-.1-.26-.22-.36-.61-.64-.84-.51-.41-.97-.66-1.45-1.14-.86-.87-1.61-1.85-2.14-2.92-.46-.92-.7-2.48-.52-3.52.1-.54.31-.87.31-1.46,0-.5-.08-1.1.03-1.58.11-.49.42-1.1.55-1.63.11-.48.33-1,.52-1.47.49-1.23,1.12-2.36,1.75-3.56.52-.99.95-1.93,1.55-2.87.33-.53.68-1.16.93-1.73.56-1.29,1.23-2.66,1.53-3.99.17-.74.46-1.39.44-2.16-.02-.61.25-.9.31-1.46.05-.39-.16-.53-.25-.87-.1-.38-.02-.73-.12-1.11-.13-.5-.5-1.13-.81-1.53-.69-.89-1.88-1.74-2.92-2.05-.5-.15-1.1-.22-1.64-.36-.16-.04-.56-.17-.71-.22-.05-.02-.62-.22-.65-.23-.62-.11-1.07.16-1.69.23-.48.05-.99.17-1.46.28-.95.22-1.73.7-2.62.88-.31.06-.9.34-1.19.32-.29-.01-.17-.22-.34-.26-.25-.05-.52-.1-.78-.16-.18.6-.3,1.23-.34,1.93-.07,1.5.07,2.83-.41,4.3-.65,1.99-1.61,3.89-2.23,5.88-.24.78-.3,1.54-.61,2.3-.32.78-.71,1.53-1.03,2.3-.54,1.27-.91,2.57-1.52,3.82-.4.81-.57,1.54-.68,2.43-.11.89-.31,1.75-.44,2.63-.11.81-.05,1.52-.35,2.3-.17.45-.44.88-.53,1.37-.06.3.03.65-.04.93-.26,1.12-1.6,1.91-2.39,2.68-1.04,1.02-2.25,1.81-3.24,2.88-.71.76-1.69,1.34-2.54,1.94-.96.68-1.9.68-2.96,1.04-.98.33-1.87,1.13-2.71,1.7-1.01.69-2.07,1.17-3.15,1.75-1.12.6-2.54,1.39-3.45,2.27-.37.36-.6.81-.96,1.17-.49.49-1.19.86-1.79,1.2-.58.33-.96.4-1.62.35-.14-.01-.65-.24-.7-.25-.43,0-.9.18-1.39.3-.46.11-1.26.35-1.67.58-.37.21-.75.53-1.14.74-.4.21-1.62.52-1.91.89-.34.43-.2,1.01-.52,1.53-.34.54-.82,1.08-1.18,1.68-.91,1.51-.61,3.64-1.97,4.99-.4.39-.88.59-1.52.63-.72.04-1.27.08-1.98.22-.64.12-1.48.17-2.11,0-.81-.21-1.11-.32-1.9.06-.51.24-1.18.55-1.33,1.16-.14.55.13,1.18-.05,1.74-.64-.33-.54-.16-1.27,0-.93.2-1.95.16-2.89.36-1.29.27-2.52.07-3.81.25-1.06.14-2.13.51-3.22.61-.84.08-2.1.15-2.91-.04-1.12-.25-2.14-.86-3.29-1.08-.93-.18-1.74-.51-2.7-.67-.98-.16-1.89-.26-2.92-.27-.95-.01-1.7.46-2.58.63-.02.08.06.84.05.92-.71.34-1.63.92-2.47.75-.21-.04-.35-.15-.56-.17-.44-.05-.99-.05-1.43,0-.43.04-.79.2-1.24.21-.17,0-.36-.02-.53,0-.57.03-1.22.2-1.75.43-.69.31-1.37.83-1.95,1.32-.52.44-1.11.8-1.41,1.4-.3.61-.68,1.26-.89,1.91-.21.68-.28,1.3-.62,1.95-1.04,2-1.25,4.32-2.1,6.39-.41.99-.79,2.02-1.17,3.02-.34.91-.76,1.76-1.22,2.64-.5.97-.86,2.03-1.53,2.9-1.01,1.31-1.93,2.66-2.89,4.01-.91,1.28-2.01,2.38-2.98,3.6-.73.91-1.47,1.78-2.32,2.58-.71.67-1.56,1.27-2.38,1.8-.73.47-1.53.73-2.3,1.11-.72.35-1.3.89-2.05,1.19-.24.09-.39.17-.63.19-.18.01-.41-.09-.58.01-.31.19-.5.85-.58,1.17-.16.66-.3,1.4-.4,2.07-.06.38-.03.74-.03,1.12,0,.49-.12.93-.17,1.41-.05.5.14.93.17,1.43.02.44-.02.84.04,1.29.15,1.25.03,2.51.19,3.76.1.77.42,1.54.37,2.33-.06.95-.73,2.46-1.29,3.23-.61.83-1.44,1.27-2.25,1.88-.7.53-1.18,1.32-1.92,1.79-.67.42-1.43.63-2.1,1.08-.54.36-.98.72-1.37,1.26-1.03,1.4-1.2,2.9-1.22,4.58-.02,1.31.73,2.66.56,3.96-.12.87-.33,1.76-.36,2.65-.02.54.02,1.03-.1,1.56-.1.45-.35.85-.45,1.3-.09.38.1.89-.01,1.25-.09.29-.66.6-.93.73-.86.41-1.71.23-2.56.02-.83-.2-1.76.45-2.57.57-.62.09-1.25,0-1.88.02-.79.02-1.59.27-2.36.45-.23.05-.6.07-.82.14-.14.04-.17.16-.3.18-.29.06-.61.05-.87-.07-.09-.04-.14-.2-.23-.26-.15-.1-.39-.1-.56-.18-.14-.07-.19-.21-.34-.26-.34-.13-1.24.14-1.51.19-.61.13-1.22.26-1.83.4-.45.07-.88.2-1.29.4-.05.05-.11.1-.16.16-.34.04-.72-.16-1.1-.17-.29-.01-.69-.07-.96-.01-.26.05-.36.23-.57.36-.28.17-.51.21-.76.4.65,1.72,1.58,4.3,2.31,5.78.76,1.56,2.08,2.44,3.06,3.78Z"/>
    <path class="cls-1" d="m369.52,316.5c-1.33-1.04-2.12-2.88-2.78-4.37-.62-1.39-1.03-2.8-2.63-3.27-1.09-.32-1.86-.48-2.78-1.13-.98-.69-2.08-.72-3.28-.87-1.12-.15-2.05-.3-3.14-.09-1.34.27-2.51.65-3.77,1.19-.92.39-1.74.95-2.64,1.35-.72.31-1.61.29-2.39.49-.76.19-1.11.07-1.8-.19-1.26-.47-2.83-.16-4.02-.83-.44-.25-.75-.85-1.22-1-.4-.13-1.8.2-2.15.41-.58.35-.88.98-1.57,1.24-.6.22-1.13.32-1.67.66-.33.21-.65.61-1.07.65-.64.06-1.32-.49-1.99-.49-.58,0-1.14.2-1.72.16-.49-.03-.95-.21-1.43-.28-1.27-.17-2.27.47-3.38.95-1.03.45-1.9.7-2.47,1.75-.57,1.06-.92,2.54-1.24,3.71-.33,1.2.25,2.13.64,3.24.44,1.24,1.1,2.36,1.81,3.48,1.21,1.9,2.73,3.63,3.31,5.86.3,1.18.15,2.44.42,3.65.23,1,.21,1.86.32,2.87.09.87.27,1.65.29,2.53.04,1.75-.29,2.96-1.47,4.32-1.76,2.03-4.13,3.8-5.27,6.28-.38.83-1.52,1.73-2.54,1.64-.5-.04-.89-.46-1.39-.62-.36-.11-.78-.39-1.11-.48-1.04-.28-2.36.06-3.38.2-.92.12-2.5,1.38-3.2.65-.47.83-1.15,1.49-1.56,2.35-.64,1.35-1.42,1.96-2.65,2.72-1.09.67-1.72,1.87-2.61,2.8-.52.54-1.02,1.23-.87,2.03.31,1.66,1,3.31,1.42,4.98.23.91.05,2.04.05,2.97,0,1.26-.1,2.56-.01,3.81.07,1.01.39,2.16.65,3.13.22.86.88,1.52,1.06,2.41.35,1.74-.25,3.45.63,5.11.35.66,2.01,2.68,1.85,3.78.2.2.14.45.63.61.24.08.49.25.74.25.29,0,.45-.28.75-.27.16,0,.62.31.79.4.22.11.5.38.72.45.48.14,1.04.06,1.54.07,1.05.01,1.67-.54,2.48-1.18.87-.69,1.87-1.28,2.79-1.89.74-.5,1.44-1.07,2.19-1.55.65-.43,1.68-.43,2.47-.35.56.05,1.05.3,1.61.32.58.02,1.13-.17,1.69-.31,1.02-.25,2.09-.9,3.14-.88.5,0,.61.25,1,.32.41.08.82-.2,1.19-.32.87-.28,1.71-.45,2.63-.8.5-.19.54-.13.79-.64.26-.53.38-1.05.51-1.62.27-1.12.68-2.24.96-3.36.23-.92.33-1.84.61-2.77.38-1.24,1-2.13,1.79-3.13.43-.54.62-1.2.99-1.77.52-.8,1.43-1.11,2.04-1.8.73-.84,1.42-1.5,2.26-2.23.57-.49.96-.98,1.76-.81.9.2,1.75.62,2.69.77.64.1,1.19.02,1.79.19,1.59.45,3.08,1.41,2.72,3.21-.3,1.51-.69,2.86-1.39,4.25-.54,1.07-1.18,2.09-1.45,3.21-.13.56-.41.96-.32,1.58.08.54.29.67.67,1.04.75.72,1.45,1.39,2.27,2.05.43.35.92.53,1.35.86.31.24.51.58.79.85,1.24,1.23,2.83,1.52,4.28,2.35,1.35.77,2.32,2.02,3.5,2.99.68.55.88,1.32,1.44,1.93.56.62,1.54,1.07,2.29,1.45,1.58.82,3.51.67,5.04,1.58.32.19.56.53.86.75.37.27.78.4,1.14.66.46.32,1.35,1.36,1.49,1.9.15.59-.02.92.3,1.55.23.46.44.68.91.86.91.36,1.94.35,2.89.52,1.14.2,1.94-.2,3.05-.17.37.01.63.21.99.27.77.12,1.55-.21,2.28-.38,1.02-.23,2.04-.42,3.03-.77.53-.19.85-.28,1.42-.14,1.93.46,3.37.54,5.39.17,1.4-.26,2.93-.76,4.02.36.55.57.69,1.08,1.63.79,1-.31,1.94-1.41,2.39-2.33.24-.49.3-1.02.75-1.44.49-.47,1.44-1.01,2.15-.91.66.1,1.18.65,1.82.84.67.2,1.36.39,2.04.57,1.22.33,2.69,1.63,3.98,1.49.36-.04.82-.36,1.07-.53.42-.27.86-.56,1.27-.87.34-.26.67-.54.99-.82-.28-.71-.67-1.27-1.16-2.03-.76-1.18-1.2-2.25-2.33-3.13-.76-.59-1.09-1.41-1.76-2.09-.48-.49-1.05-.86-1.53-1.35-.53-.55-1.18-.98-1.7-1.53-.56-.58-.94-1.35-1.44-1.99-.48-.62-.97-1.49-1.75-1.7-.34-.09-.65.08-1.01-.12-.57-.32-.74-1.06-1.03-1.6-.34-.62-.87-1.11-1.22-1.72-.38-.67-.75-1.64-.92-2.38-.3-1.3-.88-2.17-1.74-3.21-.75-.9-1.36-1.86-2.19-2.63-.76-.7-1.35-1.51-2.06-2.27-1.01-1.1-1.99-1.78-3.3-2.49-.4-.22-.79-.49-1.14-.78-.64-.54-1.31-1.04-1.8-1.71-.97-1.3-1.64-2.83-2.74-4.02-1.49-1.63-2.51-3.72-3.35-5.75-.6-1.44-1.35-2.86-1.75-4.35-.56-2.06-.43-4.45-1.37-6.39-.15-.31-.51-.57-.62-.88-.1-.28-.03-.52-.11-.79-.24-.81-.82-1.56-1.06-2.38-.41-1.4-1.12-2.68-1.6-4.07-.26-.75-.4-1.57-.5-2.36-.05-.4-.13-.63-.22-1.04-.13-.57.02-1.08-.05-1.64-.06-.48-.27-.86-.32-1.33-.03-.33.03-.67.02-1-.03-.81-.23-1.58-.28-2.39-.06-.91-.31-1.69-.31-2.62,0-.4.02-.8.03-1.22-.98-.41-2.28-.99-2.77-1.29-.56-.35-1.21-.45-1.74-.87Z"/>
    <path class="cls-1" d="m356.1,257.05c-.73.35-1.6.75-2.41.92-1.83.39-3.99-.08-5.68-.49-.76-.19-1.64-.08-2.42-.07-.78,0-1.42.3-2.19.31-.83,0-1.37,0-2.13.45-.87.52-1.02.96-2,.46-1.19-.6-2.07-1.73-3.18-2.47-.74-.49-1.51-.8-2.26-1.23-.65-.37-1.32-.63-1.96-1.02-.77-.46-1.47-1.04-2.25-1.47-2.52-1.39-6.05.2-8.31,1.55-2.72,1.63-5.42,4.34-8.68,4.89-.85.14-2.63.72-3.27.02-.35-.38-.26-1.09-.62-1.51-.43-.49-1.17-.55-1.72-.85-.66-.36-1.11-.87-1.5-1.49-.43-.69-.4-.65-1.34-.56-2.24.21-4.61,1.01-6.7,1.85-1.28.51-2.52,1.6-3.94,1.21-.55-.15-.67-.22-1.21.01-.61.26-1.04.78-1.74.71-.57-.06-1.09-.53-1.68-.6-.27-.03-.48.04-.68.12-.04.11-.08.23-.1.35-.07.4-.18.77-.26,1.09-.18.7-.45,1.26-.71,1.97-.31.84-.62,1.6-.81,2.48-.27,1.24-.29,2.38-.29,3.67,0,1.89,0,3.69-.28,5.56-.19,1.21-.44,2.36-.87,3.51-.28.76-.9,1.38-1.16,2.12-.47,1.34,1.15,2.15,1.98,2.82,1.28,1.05,2.49,2.06,3.88,2.95,1.18.75.7.9.31,2-.49,1.37-.74,2.74-1.36,4.09-.23.5-.55.95-.75,1.47-.21.57-.27,1.19-.6,1.72-.53.84-1.64,1.51-2.42,2.09-1.15.85-2.52,1.79-3.91,2.15-1.22.32-2.27.34-3.37,1.09-2.47,1.69-4.8,3.57-7.33,5.17-2.72,1.72-3.87,4.67-5.15,7.5-.95,2.11-2.58,5.24-1.45,7.57.87,1.79,3.23,2.4,4.71,3.54,1.05.81,1.26,2.08,1.75,3.28.57,1.37,1.31,2.54,2.28,3.64.82.92,1.69,1.78,2.62,2.58.84.72,1.92,1.24,2.69,2.02.8.8,1.44,2.35,1.68,3.47.25,1.14-.11,2.48-.43,3.56-.27.92-.72,1.73-1.21,2.55-.28.47-.65.9-.69,1.46-.93.52-1.84,1.06-2.75,1.61-.86.52-1.82,1.3-2.78,1.64-.64.23-1.46.15-2.14.31-1.33.32-1.53,1.49-2.03,2.64-.57,1.32-1.18,2.68-1.38,4.11-.17,1.25.07,2.56.92,3.53.82.95,1.83,1.58,2.6,2.61.89,1.2,2.19,2.31,1.61,3.91-.56,1.54-1.42,2.53-1.11,4.27.46,2.57.37,5.26.73,7.84.2,1.45.24,2.81.22,4.27,0,.84.17,1.41.31,2.2.04.23,0,.47-.02.72.34.34.73.66,1.04.88.63.44,1.34.8,1.97,1.18.68.4,1.18.93,1.82,1.44.76.61,1.6,1.12,2.42,1.62.92.56,1.94,1.34,2.91,1.76,1.22.53,2.53.88,3.75,1.45.97.46,1.8,1.16,2.69,1.75.4.27.82.59,1.24.81.12.06.32.15.54.24,0-.05-.02-.11-.03-.16.01.05.02.11.03.16.39.15.85.28,1.09.22.48-.13.56-.82.78-1.2.4-.69,1.15-.94,1.77-1.45,1.22-1,2.55-1.66,3.92-2.4,1.99-1.08,3.7-2.92,5.88-3.68.65-.23,1.45-.57,2.13-.64.36-.04,1.26.02,1.53-.34.07-.1.11-.22.13-.34-.07-.07-.18-.14-.36-.2.18.06.28.12.36.2.16-1.1-1.5-3.12-1.85-3.78-.88-1.66-.28-3.38-.63-5.11-.18-.89-.84-1.55-1.06-2.41-.25-.98-.58-2.12-.65-3.13-.08-1.25.01-2.55.01-3.81,0-.93.18-2.06-.05-2.97-.42-1.67-1.11-3.32-1.42-4.98-.15-.81.35-1.49.87-2.03.89-.94,1.52-2.13,2.61-2.8,1.23-.76,2.01-1.37,2.65-2.72.41-.86,1.08-1.52,1.56-2.35.7.73,2.28-.53,3.2-.65,1.02-.13,2.34-.48,3.38-.2.32.09.74.36,1.11.48.49.15.89.57,1.39.62,1.01.09,2.16-.81,2.54-1.64,1.14-2.47,3.51-4.25,5.27-6.28,1.18-1.35,1.5-2.57,1.47-4.32-.02-.88-.2-1.66-.29-2.53-.11-1.01-.09-1.87-.32-2.87-.28-1.21-.12-2.47-.42-3.65-.57-2.24-2.09-3.96-3.31-5.86-.71-1.11-1.36-2.24-1.81-3.48-.39-1.1-.97-2.03-.64-3.24.32-1.16.67-2.64,1.24-3.71.56-1.05,1.44-1.3,2.47-1.75,1.12-.48,2.11-1.12,3.38-.95.48.06.94.25,1.43.28.58.04,1.15-.16,1.72-.16.67,0,1.35.55,1.99.49.42-.04.74-.44,1.07-.65.55-.34,1.08-.44,1.67-.66.69-.26.99-.88,1.57-1.24.35-.21,1.75-.54,2.15-.41.47.15.77.75,1.22,1,1.18.67,2.75.36,4.02.83.69.26,1.04.38,1.8.19.78-.2,1.67-.18,2.39-.49.9-.39,1.72-.96,2.64-1.35,1.27-.54,2.43-.92,3.77-1.19,1.08-.22,2.02-.06,3.14.09,1.2.16,2.3.18,3.28.87.93.65,1.69.81,2.78,1.13,1.6.47,2.01,1.88,2.63,3.27.67,1.49,1.45,3.33,2.78,4.37.53.42,1.18.53,1.74.87.49.3,1.79.88,2.77,1.29.03-.76.04-1.52-.06-2.24-.23-1.66-.67-3.3-.85-4.97-.08-.72-.3-1.25-.28-2.01.02-.99-.28-1.91-.31-2.89-.02-.97.07-1.84.23-2.77.16-.94-.16-1.58-.24-2.48-.13-1.49-.29-2.96-.64-4.45-.34-1.45-.59-2.93-.95-4.36-.19-.76-.08-1.5-.21-2.27-.12-.69-.41-1.36-.53-2.05-.24-1.47-.64-2.75-1.09-4.16-.4-1.27-.55-2.55-.95-3.81-.57-1.77-.63-3.71-.87-5.54-.21-1.56-.83-2.77-1.61-4.12-.59-1.01-1.12-2.02-1.9-2.91-.42-.48-.88-.85-1.25-1.38-.56-.81-1.16-1.62-1.59-2.47-.46-.9-1.19-1.66-1.62-2.55-.22-.45-.35-.88-.58-1.33-.24-.45-.32-.9-.49-1.32-.35-.82-.48-1.73-.74-2.61-.13.09-.27.19-.41.31-.37.33-.54.56-.98.77Z"/>
  </g>
  <g>
    <path class="cls-2" d="m274.8,211.98l1.22,3.46c.04.15.07.26.08.35,0,.09-.02.16-.07.2s-.15.08-.28.09-.31.02-.54.02c-.17,0-.3,0-.4-.01-.1,0-.17-.02-.23-.04-.05-.02-.09-.04-.12-.08s-.04-.07-.06-.12l-.96-2.88-2.03,2.88s-.07.09-.11.12c-.04.03-.09.06-.17.08-.07.02-.17.03-.28.04s-.27.01-.45.01c-.22,0-.39,0-.51-.02-.12-.01-.2-.04-.24-.09s-.04-.11,0-.2c.04-.09.11-.2.21-.34l2.62-3.49-1.11-3.22c-.04-.14-.07-.26-.08-.34,0-.09.02-.15.07-.2.05-.04.15-.07.28-.09s.31-.02.54-.02c.17,0,.31,0,.41.01.1,0,.18.02.24.04.06.02.1.05.12.09s.04.08.06.14l.84,2.58,1.85-2.61s.07-.09.11-.12c.04-.03.09-.06.16-.08.06-.02.15-.03.26-.04.11,0,.25-.01.43-.01.22,0,.39,0,.52.02.13.01.21.04.25.09s.04.11,0,.2c-.04.09-.11.2-.21.34l-2.42,3.23Z"/>
    <path class="cls-2" d="m281.88,215.87c-.02.09-.08.15-.19.18-.11.04-.29.06-.54.06-.13,0-.23,0-.31-.01-.08,0-.14-.02-.19-.04-.05-.02-.08-.04-.09-.07-.01-.03-.02-.07,0-.11l.17-.88c-.06.13-.16.27-.29.41-.13.15-.29.28-.48.4-.18.12-.39.22-.61.29s-.45.12-.69.12c-.33,0-.6-.06-.81-.17-.22-.11-.39-.27-.52-.46-.13-.19-.22-.42-.28-.66-.05-.25-.08-.51-.08-.78,0-.26.02-.54.07-.84s.12-.61.23-.91c.1-.3.23-.59.39-.87.16-.28.35-.53.57-.74.22-.22.48-.39.77-.52.29-.13.61-.19.98-.19.34,0,.64.07.9.21.26.14.49.35.69.62l.1-.48c.02-.09.08-.15.19-.18.11-.04.29-.06.54-.06.12,0,.22,0,.31.02.08.01.15.02.19.04.05.02.08.04.09.07.02.03.02.07.01.11l-1.1,5.47Zm-.76-3.83c-.14-.22-.3-.39-.47-.5-.17-.11-.38-.17-.6-.17-.17,0-.33.04-.47.12-.14.08-.27.19-.38.33s-.21.29-.29.47c-.08.18-.15.37-.21.56-.06.19-.1.39-.12.59-.03.2-.04.38-.04.55,0,.12,0,.24.03.35.02.11.05.21.1.29.05.09.11.15.2.21.08.05.19.08.31.08.18,0,.36-.05.55-.16.19-.11.36-.25.53-.44.16-.19.31-.4.43-.65.12-.25.22-.51.27-.79l.17-.83Z"/>
    <path class="cls-2" d="m284.87,216.11c-.42-.11-.75-.33-.98-.66s-.35-.78-.35-1.34c0-.25.02-.52.07-.82s.12-.6.23-.9c.11-.3.24-.59.41-.87.17-.28.38-.53.62-.75s.53-.39.85-.52c.32-.13.69-.2,1.11-.2.16,0,.32.01.48.04.16.02.3.06.43.1s.25.09.35.15c.1.06.17.11.22.16.05.05.08.09.1.13.01.04.02.08.02.13,0,.09-.01.2-.03.32-.02.12-.05.23-.09.34s-.08.19-.14.27c-.05.07-.12.11-.18.11-.06,0-.12-.02-.18-.07-.06-.05-.13-.1-.21-.17-.08-.06-.19-.12-.32-.17s-.29-.08-.49-.08c-.21,0-.4.05-.57.14-.17.09-.31.22-.44.36-.12.15-.23.32-.31.51-.08.19-.15.38-.2.58-.05.19-.09.38-.11.56-.02.18-.03.33-.03.46,0,.33.07.58.22.75.14.17.37.26.68.26.23,0,.42-.03.59-.09.16-.06.3-.12.42-.2s.22-.14.3-.19c.08-.06.16-.09.23-.09.04,0,.07.02.09.06.02.04.03.09.03.16s0,.16-.02.26c-.02.1-.04.21-.06.32-.03.11-.06.21-.09.3-.04.09-.08.16-.13.22-.06.05-.15.12-.27.19-.13.07-.28.14-.45.2-.18.06-.36.1-.55.12l.07.31c.03.1.05.2.07.29.02.09.02.18.02.27,0,.22-.04.41-.11.57s-.17.29-.3.4c-.13.1-.29.18-.47.23-.18.05-.38.07-.6.07-.12,0-.23,0-.35-.01s-.21-.02-.31-.04c-.09-.02-.18-.04-.25-.06-.07-.02-.13-.04-.18-.06-.04-.02-.08-.05-.09-.08-.02-.03-.02-.07-.02-.12,0-.04,0-.1.02-.17,0-.07.03-.15.05-.22.02-.07.06-.14.1-.19.04-.06.1-.08.16-.08h.7c.06,0,.11,0,.17-.02.05-.01.1-.03.14-.06.04-.03.07-.06.09-.11.02-.05.03-.1.03-.15,0-.04,0-.09,0-.14,0-.05-.02-.11-.03-.16l-.13-.51Z"/>
    <path class="cls-2" d="m297.16,215.86s-.03.08-.06.11c-.03.03-.08.06-.14.08s-.15.04-.25.05c-.1.01-.23.02-.38.02s-.27,0-.37-.02c-.1-.01-.17-.03-.23-.05-.05-.02-.09-.05-.11-.08s-.02-.07,0-.11l.65-3.28c.02-.09.03-.19.04-.28.01-.09.02-.18.02-.28,0-.19-.04-.35-.11-.47-.07-.12-.2-.18-.38-.18-.16,0-.33.05-.51.16-.18.11-.34.25-.5.43s-.3.39-.43.64c-.12.24-.21.5-.27.77l-.5,2.47s-.03.08-.06.11c-.03.03-.08.06-.14.08-.06.02-.15.04-.25.05-.1.01-.23.02-.38.02s-.27,0-.36-.02-.17-.03-.22-.05-.09-.05-.11-.08c-.02-.03-.02-.07-.01-.11l.65-3.28c.02-.09.04-.19.05-.29,0-.1.01-.2.01-.29,0-.18-.04-.33-.11-.44-.07-.12-.2-.17-.38-.17-.16,0-.33.05-.51.16-.18.11-.34.25-.5.43s-.3.39-.43.64c-.12.24-.21.5-.27.77l-.5,2.47s-.03.08-.06.11-.08.06-.14.08-.15.04-.25.05c-.1.01-.23.02-.37.02s-.27,0-.37-.02-.17-.03-.23-.05-.09-.05-.11-.08c-.02-.03-.02-.07-.01-.11l1.1-5.47s.03-.08.05-.11c.03-.03.07-.06.12-.07.05-.02.13-.03.21-.04s.19-.02.32-.02.23,0,.31.02c.08.01.14.02.19.04.04.02.07.04.09.07.01.03.02.07,0,.11l-.18.9c.09-.14.2-.29.34-.44.14-.15.3-.28.49-.4.18-.12.38-.22.59-.29.21-.08.44-.11.66-.11s.44.03.62.09c.17.06.32.15.43.26s.2.24.26.4c.06.15.1.31.11.49.09-.15.21-.29.36-.44.14-.15.31-.28.49-.4.18-.12.38-.22.59-.29.21-.08.43-.11.66-.11.29,0,.53.04.72.12.19.08.35.19.47.33.12.14.2.31.26.5.05.19.08.4.08.62,0,.14,0,.29-.02.43-.02.15-.04.29-.07.44l-.67,3.37Z"/>
    <path class="cls-2" d="m303.74,215.87c-.02.09-.08.15-.19.18-.11.04-.29.06-.54.06-.13,0-.23,0-.31-.01-.08,0-.14-.02-.19-.04-.05-.02-.08-.04-.09-.07-.01-.03-.02-.07,0-.11l.17-.88c-.06.13-.16.27-.29.41-.13.15-.29.28-.48.4-.18.12-.39.22-.61.29s-.45.12-.69.12c-.33,0-.6-.06-.81-.17-.22-.11-.39-.27-.52-.46-.13-.19-.22-.42-.28-.66-.05-.25-.08-.51-.08-.78,0-.26.02-.54.07-.84s.12-.61.23-.91c.1-.3.23-.59.39-.87.16-.28.35-.53.57-.74.22-.22.48-.39.77-.52.29-.13.61-.19.98-.19.34,0,.64.07.9.21.26.14.49.35.69.62l.1-.48c.02-.09.08-.15.19-.18.11-.04.29-.06.54-.06.12,0,.22,0,.31.02.08.01.15.02.19.04.05.02.08.04.09.07.02.03.02.07.01.11l-1.1,5.47Zm-.76-3.83c-.14-.22-.3-.39-.47-.5-.17-.11-.38-.17-.6-.17-.17,0-.33.04-.47.12-.14.08-.27.19-.38.33s-.21.29-.29.47c-.08.18-.15.37-.21.56-.06.19-.1.39-.12.59-.03.2-.04.38-.04.55,0,.12,0,.24.03.35.02.11.05.21.1.29.05.09.11.15.2.21.08.05.19.08.31.08.18,0,.36-.05.55-.16.19-.11.36-.25.53-.44.16-.19.31-.4.43-.65.12-.25.22-.51.27-.79l.17-.83Z"/>
    <path class="cls-2" d="m310.02,210.41s0,.07-.01.13c0,.06-.02.13-.03.2-.01.07-.03.14-.04.2-.01.07-.03.12-.03.15-.03.11-.07.2-.12.29-.05.09-.13.18-.22.29l-2.58,3.15h2.08c.06,0,.1.02.13.06.03.04.04.11.04.2,0,.03,0,.08,0,.14,0,.06-.02.13-.03.21-.01.07-.03.15-.06.22-.02.07-.05.14-.08.2-.03.06-.07.11-.11.15s-.09.06-.13.06h-3.61c-.08,0-.14-.02-.18-.07s-.06-.12-.06-.22c0-.03,0-.08.01-.13s.02-.11.03-.17c.01-.06.02-.12.04-.17s.02-.1.04-.13c.01-.04.03-.09.04-.13.01-.04.04-.08.06-.13s.06-.09.1-.15c.04-.05.09-.11.15-.18l2.61-3.16h-1.86c-.06,0-.1-.02-.13-.06-.03-.04-.05-.11-.05-.21,0-.04,0-.09,0-.16,0-.06.02-.13.03-.2.01-.07.03-.14.05-.21.02-.07.05-.14.08-.2.03-.06.07-.1.11-.14s.09-.06.13-.06h3.37c.09,0,.14.02.17.06.03.04.05.09.05.16Z"/>
  </g>
  <g>
    <path class="cls-2" d="m157.76,240.81s0,.09-.01.16c0,.07-.02.14-.04.23-.02.08-.04.16-.06.25-.02.08-.05.16-.09.23-.03.07-.07.12-.11.17-.04.04-.08.06-.13.06-.04,0-.11-.01-.2-.03s-.2-.06-.33-.11c-.13-.05-.27-.12-.42-.2-.15-.08-.31-.18-.47-.3-.16-.12-.32-.25-.48-.41-.16-.15-.31-.33-.45-.52-.22.1-.45.17-.71.22-.26.05-.55.08-.87.08-.49,0-.93-.05-1.31-.17-.38-.11-.7-.28-.96-.51-.26-.23-.45-.52-.58-.86-.13-.35-.2-.76-.2-1.22,0-.38.03-.78.1-1.2s.18-.83.32-1.23c.15-.4.34-.79.58-1.15s.53-.68.87-.96c.34-.28.74-.5,1.19-.66.45-.16.97-.24,1.55-.24.49,0,.92.06,1.3.17.38.11.7.28.96.51.26.23.45.52.58.87s.2.76.2,1.24c0,.23-.01.48-.04.73s-.07.52-.12.78c-.06.26-.13.52-.22.79s-.2.52-.33.77c-.13.25-.28.49-.45.72-.17.23-.37.44-.59.64.19.2.37.35.53.47.16.11.31.2.43.26.12.06.23.11.31.14.08.03.14.06.17.09.03.03.05.06.05.09,0,.03.01.07.01.13Zm-1.45-5.44c0-.25-.03-.47-.08-.68-.05-.2-.14-.37-.27-.51-.12-.14-.28-.25-.48-.32s-.44-.11-.72-.11c-.35,0-.67.07-.94.21s-.51.32-.7.54c-.2.22-.36.47-.5.76s-.24.57-.32.86c-.08.29-.14.58-.17.85-.04.28-.05.52-.05.73,0,.25.03.48.08.68.06.2.15.37.27.51.12.14.29.24.48.32.2.07.44.11.73.11.35,0,.66-.07.93-.2s.5-.31.7-.53c.2-.22.37-.47.5-.75s.25-.57.33-.86c.08-.29.14-.57.17-.85.03-.28.05-.52.05-.74Z"/>
    <path class="cls-2" d="m163.58,240.29s-.03.08-.05.11c-.03.03-.07.05-.12.07-.05.02-.12.03-.21.04s-.19.02-.32.02-.23,0-.31-.02c-.08-.01-.14-.02-.19-.04s-.07-.04-.09-.07c-.01-.03-.02-.07,0-.11l.17-.89c-.08.14-.19.29-.34.43-.14.15-.31.28-.49.4-.19.12-.39.22-.6.29-.22.07-.44.11-.67.11-.29,0-.53-.04-.73-.12-.2-.08-.36-.19-.48-.32-.12-.14-.21-.3-.26-.49-.05-.19-.08-.4-.08-.62,0-.14,0-.28.03-.43.02-.14.04-.29.07-.44l.67-3.39s.03-.08.06-.11c.03-.03.08-.06.14-.07.06-.02.15-.03.25-.04.1-.01.23-.02.37-.02s.27,0,.37.02.17.02.22.04c.05.02.09.04.11.07.02.03.02.07.01.11l-.65,3.28c-.02.09-.04.18-.05.28-.01.1-.02.19-.02.28,0,.1,0,.19.03.27s.05.15.09.21.09.1.16.13c.06.03.14.04.23.04.17,0,.34-.05.52-.16.18-.11.35-.26.52-.45.16-.19.31-.41.44-.67.13-.26.23-.54.29-.84l.47-2.36s.02-.08.05-.11c.03-.03.08-.06.14-.07.06-.02.15-.03.25-.04.1-.01.23-.02.37-.02s.27,0,.37.02.17.02.23.04c.05.02.09.04.11.07.02.03.02.07.01.11l-1.1,5.47Z"/>
    <path class="cls-2" d="m169.63,235.06s0,.12-.02.22c-.01.1-.04.19-.06.29-.03.1-.06.18-.1.25-.04.07-.08.11-.13.11-.05,0-.12-.02-.19-.06-.07-.04-.16-.08-.26-.13-.1-.05-.22-.09-.36-.13-.14-.04-.3-.05-.48-.05-.14,0-.27.02-.38.05-.11.04-.21.09-.28.15-.07.06-.13.14-.17.22-.04.09-.06.18-.06.28,0,.13.05.23.16.32.1.09.23.17.39.24s.32.15.5.24.35.18.5.31c.15.12.28.27.39.45.1.18.15.4.15.66,0,.31-.06.6-.18.86-.12.26-.29.49-.52.68-.23.19-.5.34-.83.45-.32.11-.69.16-1.1.16-.2,0-.38-.01-.56-.04-.18-.03-.34-.06-.48-.1-.14-.04-.26-.09-.36-.14-.1-.05-.17-.1-.22-.15-.03-.03-.06-.07-.07-.1-.01-.04-.02-.08-.02-.14,0-.04,0-.08,0-.14s.02-.12.03-.19c.01-.07.03-.14.05-.21.02-.07.04-.13.06-.19s.05-.1.08-.14.06-.05.09-.05c.06,0,.12.02.19.07s.16.1.27.16c.11.06.25.11.41.17s.36.08.6.08c.17,0,.31-.02.44-.06.12-.04.23-.09.31-.16.08-.07.14-.15.18-.24.04-.09.06-.19.06-.29,0-.14-.05-.26-.15-.35-.1-.09-.23-.17-.38-.25-.15-.08-.32-.16-.49-.24s-.34-.18-.49-.3c-.15-.12-.28-.27-.38-.44-.1-.18-.15-.4-.15-.66,0-.29.06-.56.17-.81.11-.25.27-.47.48-.65.21-.19.47-.33.77-.44.3-.1.64-.16,1.03-.16.17,0,.34.01.5.03.16.02.31.05.43.09.13.04.24.08.34.12s.16.09.21.13c.04.04.07.11.07.21Z"/>
    <path class="cls-2" d="m175.14,240.29c-.02.09-.08.15-.19.18-.11.04-.29.06-.54.06-.13,0-.23,0-.31-.01-.08,0-.14-.02-.19-.04-.05-.02-.08-.04-.09-.07-.01-.03-.02-.07,0-.11l.17-.88c-.06.13-.16.27-.29.41-.13.15-.29.28-.48.4-.18.12-.39.22-.61.29s-.45.12-.69.12c-.33,0-.6-.06-.81-.17-.22-.11-.39-.27-.52-.46-.13-.19-.22-.42-.28-.66-.05-.25-.08-.51-.08-.78,0-.26.02-.54.07-.84s.12-.61.23-.91c.1-.3.23-.59.39-.87.16-.28.35-.53.57-.74.22-.22.48-.39.77-.52.29-.13.61-.19.98-.19.34,0,.64.07.9.21.26.14.49.35.69.62l.1-.48c.02-.09.08-.15.19-.18.11-.04.29-.06.54-.06.12,0,.22,0,.31.02.08.01.15.02.19.04.05.02.08.04.09.07.02.03.02.07.01.11l-1.1,5.47Zm-.76-3.83c-.14-.22-.3-.39-.47-.5-.17-.11-.38-.17-.6-.17-.17,0-.33.04-.47.12-.14.08-.27.19-.38.33s-.21.29-.29.47c-.08.18-.15.37-.21.56-.06.19-.1.39-.12.59-.03.2-.04.38-.04.55,0,.12,0,.24.03.35.02.11.05.21.1.29.05.09.11.15.2.21.08.05.19.08.31.08.18,0,.36-.05.55-.16.19-.11.36-.25.53-.44.16-.19.31-.4.43-.65.12-.25.22-.51.27-.79l.17-.83Z"/>
    <path class="cls-2" d="m181.22,234.73s0,.08-.01.15c0,.07-.02.16-.04.26-.02.1-.04.2-.06.3-.02.1-.05.2-.08.29s-.07.16-.1.22c-.04.06-.08.09-.12.09-.04,0-.07,0-.11-.02-.04-.01-.08-.03-.12-.04-.04-.01-.09-.03-.15-.04s-.11-.02-.18-.02c-.14,0-.29.05-.44.16-.16.11-.31.25-.45.42-.14.17-.27.38-.38.61-.11.23-.19.47-.24.73l-.49,2.46s-.03.08-.06.11-.08.06-.14.08-.15.04-.25.05c-.1.01-.23.02-.37.02s-.27,0-.37-.02-.17-.03-.23-.05-.09-.05-.11-.08c-.02-.03-.02-.07-.01-.11l1.09-5.47s.03-.08.05-.11c.03-.03.07-.06.13-.07.05-.02.13-.03.21-.04s.19-.02.32-.02.23,0,.31.02c.08.01.14.02.19.04.04.02.07.04.09.07.01.03.02.07,0,.11l-.17.87c.1-.18.21-.34.34-.48.13-.15.26-.27.41-.38.14-.11.29-.19.45-.25.15-.06.31-.09.46-.09.06,0,.12,0,.19.01.06,0,.12.02.18.03.05.01.1.03.15.05.04.02.08.04.1.06.02.02.04.06.04.12Z"/>
  </g>
  <g>
    <path class="cls-2" d="m201.52,301s0,.09-.01.16c0,.07-.02.15-.04.23-.02.08-.04.17-.06.25-.02.08-.05.16-.09.23-.03.07-.07.12-.11.17-.04.04-.08.06-.13.06-.04,0-.11-.01-.2-.03s-.2-.06-.33-.11c-.13-.05-.27-.12-.42-.2-.15-.08-.31-.18-.47-.3s-.32-.25-.48-.41-.31-.33-.45-.52c-.22.1-.45.17-.71.22-.26.05-.55.08-.87.08-.49,0-.93-.05-1.31-.17-.38-.11-.7-.28-.96-.51-.26-.23-.45-.52-.58-.86-.13-.35-.2-.75-.2-1.22,0-.38.03-.79.1-1.2.07-.42.18-.83.32-1.23.15-.4.34-.78.58-1.15s.53-.68.87-.96c.34-.28.74-.5,1.19-.66.45-.16.97-.24,1.55-.24.49,0,.92.06,1.3.17.38.11.7.28.96.51.26.23.45.52.58.87.13.35.2.76.2,1.24,0,.23-.01.48-.04.73s-.07.52-.12.78c-.06.26-.13.52-.22.79s-.2.52-.33.77c-.13.25-.28.49-.45.72-.17.23-.37.44-.59.64.19.2.37.35.53.46.16.11.31.2.43.26.12.06.23.11.31.14.08.03.14.06.17.09.03.03.05.06.05.08,0,.03.01.07.01.13Zm-1.45-5.44c0-.25-.03-.47-.08-.68-.05-.2-.14-.37-.27-.51-.12-.14-.28-.25-.48-.32s-.44-.11-.72-.11c-.35,0-.67.07-.94.21s-.51.32-.7.54c-.2.22-.36.47-.5.76-.13.28-.24.57-.32.86-.08.29-.14.58-.17.85-.04.28-.05.52-.05.73,0,.25.03.48.08.68.06.2.15.37.27.5.12.14.29.24.48.32.2.07.44.11.73.11.35,0,.66-.07.93-.2.27-.13.5-.31.7-.53.2-.22.37-.47.5-.75.14-.28.25-.57.33-.86.08-.29.14-.57.17-.85.03-.28.05-.52.05-.74Z"/>
    <path class="cls-2" d="m207.33,300.48s-.03.08-.05.11c-.03.03-.07.05-.12.07-.05.02-.12.03-.21.04-.09,0-.19.02-.32.02s-.23,0-.31-.02c-.08-.01-.14-.02-.19-.04s-.07-.04-.09-.07c-.01-.03-.02-.07,0-.11l.17-.89c-.08.14-.19.29-.34.43-.14.14-.31.28-.49.4-.19.12-.39.22-.6.29-.22.07-.44.11-.67.11-.29,0-.53-.04-.73-.12-.2-.08-.36-.19-.48-.32-.12-.14-.21-.3-.26-.49-.05-.19-.08-.4-.08-.62,0-.14,0-.28.03-.42.02-.15.04-.29.07-.44l.67-3.39s.03-.08.06-.11c.03-.03.08-.05.14-.07s.15-.03.25-.04c.1,0,.23-.02.37-.02s.27,0,.37.02c.1.01.17.02.22.04.05.02.09.04.11.07.02.03.02.07.01.11l-.65,3.28c-.02.09-.04.18-.05.28-.01.1-.02.19-.02.28,0,.1,0,.19.03.27.02.08.05.15.09.21.04.06.09.1.16.13s.14.04.23.04c.17,0,.34-.05.52-.16.18-.11.35-.26.52-.45.16-.19.31-.41.44-.67.13-.26.23-.54.29-.84l.47-2.36s.02-.08.05-.11c.03-.03.08-.05.14-.07s.15-.03.25-.04c.1,0,.23-.02.37-.02s.27,0,.37.02c.1.01.17.02.23.04s.09.04.11.07c.02.03.02.07.01.11l-1.1,5.47Z"/>
    <path class="cls-2" d="m214.91,296.74c0,.27-.02.56-.07.86-.05.31-.12.61-.23.91-.1.3-.23.59-.39.87s-.35.52-.58.73c-.22.21-.48.38-.77.51-.29.13-.61.19-.96.19s-.65-.07-.91-.2-.49-.34-.68-.61l-.09.47c-.02.09-.08.15-.19.19s-.29.06-.54.06-.41-.02-.5-.06c-.09-.04-.12-.1-.11-.18l1.61-8.05s.03-.08.05-.11c.03-.03.08-.06.14-.08s.15-.04.25-.05c.1-.01.23-.02.38-.02s.27,0,.37.02c.09.01.17.03.22.05s.09.05.11.08c.02.03.02.07.01.11l-.43,2.19c-.02.09-.04.19-.07.3-.02.1-.05.21-.08.31-.03.1-.06.2-.09.3-.03.1-.06.18-.09.25.07-.13.18-.26.32-.4s.29-.25.47-.36c.18-.11.36-.19.57-.26s.41-.1.61-.1c.23,0,.43.03.61.09.17.06.32.14.45.24.13.1.23.22.31.36s.15.29.2.44c.05.15.08.31.1.47.02.16.03.32.03.48Zm-1.59.15c0-.1,0-.21-.02-.32-.01-.11-.04-.21-.09-.3s-.11-.16-.19-.22c-.08-.06-.19-.08-.32-.08-.18,0-.37.05-.55.16-.19.11-.36.26-.52.44-.16.19-.31.41-.43.66-.13.25-.22.51-.27.8l-.17.83c.14.22.3.39.47.5.17.11.38.16.6.16.16,0,.31-.04.45-.12.14-.08.26-.18.38-.31.11-.13.21-.28.29-.46.08-.17.15-.36.21-.55.06-.19.1-.39.13-.59.03-.2.04-.39.04-.58Z"/>
    <path class="cls-2" d="m220.57,300.48c-.02.09-.08.15-.19.18-.11.04-.29.06-.54.06-.13,0-.23,0-.31-.01-.08,0-.14-.02-.19-.04-.05-.02-.08-.04-.09-.07-.01-.03-.02-.07,0-.11l.17-.88c-.06.13-.16.27-.29.41-.13.14-.29.28-.48.39s-.39.22-.61.29-.45.12-.69.12c-.33,0-.6-.06-.81-.17-.22-.11-.39-.27-.52-.46-.13-.19-.22-.42-.28-.66-.05-.25-.08-.51-.08-.78,0-.26.02-.54.07-.84.05-.3.12-.61.23-.91.1-.3.23-.59.39-.87s.35-.53.57-.74c.22-.22.48-.39.77-.52.29-.13.61-.19.98-.19.34,0,.64.07.9.21.26.14.49.35.69.62l.1-.48c.02-.09.08-.15.19-.18.11-.04.29-.06.54-.06.12,0,.22,0,.31.02.08.01.15.02.19.04s.08.04.09.07c.02.03.02.07.01.11l-1.1,5.47Zm-.76-3.83c-.14-.22-.3-.39-.47-.5-.17-.11-.38-.17-.6-.17-.17,0-.33.04-.47.12-.14.08-.27.19-.38.33s-.21.29-.29.47-.15.37-.21.56c-.06.19-.1.39-.12.59-.03.2-.04.38-.04.55,0,.12,0,.24.03.35.02.11.05.21.1.29.05.09.11.15.2.21.08.05.19.08.31.08.18,0,.36-.05.55-.16.19-.11.36-.26.53-.44s.31-.4.43-.65c.12-.25.22-.51.27-.79l.17-.83Z"/>
  </g>
  <g>
    <path class="cls-2" d="m306.2,291.46c-.33-.04-.61-.1-.82-.17-.21-.08-.38-.15-.5-.21s-.21-.13-.27-.19c-.06-.06-.09-.15-.09-.28,0-.03,0-.08.01-.15,0-.07.02-.14.03-.21.01-.08.03-.15.05-.23.02-.08.04-.15.07-.22s.06-.12.09-.16c.04-.04.07-.06.11-.06.07,0,.15.03.25.09.1.06.22.13.36.21.14.08.31.15.51.21.2.07.43.1.7.1.24,0,.45-.03.63-.09.18-.06.33-.14.46-.25.12-.11.21-.23.28-.37.06-.14.09-.29.09-.46,0-.15-.04-.28-.11-.4s-.17-.22-.29-.32c-.12-.1-.26-.19-.41-.27-.15-.09-.31-.18-.47-.28-.16-.1-.32-.2-.47-.32s-.29-.25-.41-.4-.22-.33-.29-.53c-.07-.2-.11-.43-.11-.7,0-.37.07-.71.22-1.02s.35-.58.61-.8c.26-.22.57-.4.94-.52.36-.12.76-.19,1.2-.19.2,0,.4.01.58.05.18.03.35.07.5.12s.28.1.39.16c.11.06.18.1.22.14.04.04.07.08.09.12.02.04.03.1.03.16,0,.03,0,.08,0,.14,0,.06-.01.13-.03.2-.01.07-.03.15-.05.22-.02.08-.04.14-.07.21s-.06.12-.09.16c-.03.04-.07.06-.1.06-.06,0-.13-.03-.21-.08s-.19-.11-.32-.17c-.12-.06-.27-.11-.44-.17-.17-.05-.36-.08-.57-.08s-.41.03-.56.09-.28.14-.38.24c-.1.1-.17.21-.22.34-.05.12-.07.25-.07.38,0,.15.04.28.11.39s.17.22.29.31c.12.1.26.19.42.28s.32.18.48.28c.16.1.32.21.48.32s.3.25.42.4c.12.15.22.33.29.53s.11.43.11.68c0,.38-.08.74-.23,1.06-.15.32-.36.6-.62.83-.26.23-.55.4-.86.53-.31.12-.58.2-.79.22l.08.33c.03.1.05.2.07.29.02.09.02.18.02.27,0,.22-.04.41-.11.57-.07.16-.17.29-.3.4-.13.1-.28.18-.47.23s-.38.07-.6.07c-.12,0-.23,0-.35-.01s-.21-.02-.31-.04c-.09-.02-.18-.04-.25-.06-.08-.02-.14-.04-.18-.06-.05-.02-.08-.05-.09-.08-.02-.03-.02-.07-.02-.12,0-.04,0-.1.02-.17,0-.07.03-.15.05-.22s.06-.14.1-.19c.04-.05.1-.08.16-.08h.7c.06,0,.11,0,.17-.02.05-.01.1-.04.14-.06s.07-.06.09-.11.03-.1.03-.15c0-.04,0-.09,0-.14,0-.05-.01-.11-.03-.16l-.11-.43Z"/>
    <path class="cls-2" d="m315.69,291.14c-.02.09-.08.15-.19.18-.11.04-.29.06-.54.06-.13,0-.23,0-.31-.01-.08,0-.14-.02-.19-.04-.05-.02-.08-.04-.09-.07-.01-.03-.02-.07,0-.11l.17-.88c-.06.13-.16.27-.29.41-.13.14-.29.28-.48.39s-.39.22-.61.29-.45.12-.69.12c-.33,0-.6-.06-.81-.17-.22-.11-.39-.27-.52-.46-.13-.19-.22-.42-.28-.66-.05-.25-.08-.51-.08-.78,0-.26.02-.54.07-.84.05-.3.12-.61.23-.91.1-.3.23-.59.39-.87s.35-.53.57-.74c.22-.22.48-.39.77-.52.29-.13.61-.19.98-.19.34,0,.64.07.9.21.26.14.49.35.69.62l.1-.48c.02-.09.08-.15.19-.18.11-.04.29-.06.54-.06.12,0,.22,0,.31.02.08.01.15.02.19.04s.08.04.09.07c.02.03.02.07.01.11l-1.1,5.47Zm-.76-3.83c-.14-.22-.3-.39-.47-.5-.17-.11-.38-.17-.6-.17-.17,0-.33.04-.47.12-.14.08-.27.19-.38.33s-.21.29-.29.47-.15.37-.21.56c-.06.19-.1.39-.12.59-.03.2-.04.38-.04.55,0,.12,0,.24.03.35.02.11.05.21.1.29.05.09.11.15.2.21.08.05.19.08.31.08.18,0,.36-.05.55-.16.19-.11.36-.26.53-.44s.31-.4.43-.65c.12-.25.22-.51.27-.79l.17-.83Z"/>
    <path class="cls-2" d="m323.26,287.41c0,.27-.02.56-.07.86-.05.31-.12.61-.23.91-.1.3-.23.59-.39.87s-.35.52-.58.73c-.22.21-.48.38-.77.51-.29.13-.61.19-.96.19s-.65-.07-.91-.2-.49-.34-.68-.61l-.09.47c-.02.09-.08.15-.19.19s-.29.06-.54.06-.41-.02-.5-.06c-.09-.04-.12-.1-.11-.18l1.61-8.05s.03-.08.05-.11c.03-.03.08-.06.14-.08s.15-.04.25-.05c.1-.01.23-.02.38-.02s.27,0,.37.02c.09.01.17.03.22.05s.09.05.11.08c.02.03.02.07.01.11l-.43,2.19c-.02.09-.04.19-.07.3-.02.1-.05.21-.08.31-.03.1-.06.2-.09.3-.03.1-.06.18-.09.25.07-.13.18-.26.32-.4s.29-.25.47-.36c.18-.11.36-.19.57-.26s.41-.1.61-.1c.23,0,.43.03.61.09.17.06.32.14.45.24.13.1.23.22.31.36s.15.29.2.44c.05.15.08.31.1.47.02.16.03.32.03.48Zm-1.59.15c0-.1,0-.21-.02-.32-.01-.11-.04-.21-.09-.3s-.11-.16-.19-.22c-.08-.06-.19-.08-.32-.08-.18,0-.37.05-.55.16-.19.11-.36.26-.52.44-.16.19-.31.41-.43.66-.13.25-.22.51-.27.8l-.17.83c.14.22.3.39.47.5.17.11.38.16.6.16.16,0,.31-.04.45-.12.14-.08.26-.18.38-.31.11-.13.21-.28.29-.46.08-.17.15-.36.21-.55.06-.19.1-.39.13-.59.03-.2.04-.39.04-.58Z"/>
    <path class="cls-2" d="m328.39,285.59s0,.08-.01.15c0,.07-.02.16-.04.26-.02.1-.04.2-.06.3-.02.1-.05.2-.08.29s-.07.16-.1.22c-.04.06-.08.09-.12.09-.04,0-.07,0-.11-.02-.04-.01-.08-.03-.12-.04-.04-.01-.09-.03-.15-.04-.05-.01-.11-.02-.18-.02-.14,0-.29.05-.44.16-.16.11-.31.25-.45.42-.14.17-.27.38-.38.61s-.19.47-.24.73l-.49,2.46s-.03.08-.06.11c-.03.03-.08.06-.14.08s-.15.04-.25.05c-.1,0-.23.02-.37.02s-.27,0-.37-.02c-.1-.01-.17-.03-.23-.05s-.09-.05-.11-.08c-.02-.03-.02-.07-.01-.11l1.09-5.47s.03-.08.05-.11c.03-.03.07-.05.13-.07.05-.02.13-.03.21-.04.09,0,.19-.02.32-.02s.23,0,.31.02c.08.01.14.02.19.04s.07.04.09.07c.01.03.02.07,0,.11l-.17.87c.1-.17.21-.34.34-.48.13-.15.26-.27.41-.38.14-.11.29-.19.45-.25.15-.06.31-.09.46-.09.06,0,.12,0,.19.01.06,0,.12.02.18.03.05.01.1.03.15.05.04.02.08.04.1.06.02.02.04.06.04.12Z"/>
    <path class="cls-2" d="m333.34,291.14c-.02.09-.08.15-.19.18-.11.04-.29.06-.54.06-.13,0-.23,0-.31-.01-.08,0-.14-.02-.19-.04-.05-.02-.08-.04-.09-.07-.01-.03-.02-.07,0-.11l.17-.88c-.06.13-.16.27-.29.41-.13.14-.29.28-.48.39s-.39.22-.61.29-.45.12-.69.12c-.33,0-.6-.06-.81-.17-.22-.11-.39-.27-.52-.46-.13-.19-.22-.42-.28-.66-.05-.25-.08-.51-.08-.78,0-.26.02-.54.07-.84.05-.3.12-.61.23-.91.1-.3.23-.59.39-.87s.35-.53.57-.74c.22-.22.48-.39.77-.52.29-.13.61-.19.98-.19.34,0,.64.07.9.21.26.14.49.35.69.62l.1-.48c.02-.09.08-.15.19-.18.11-.04.29-.06.54-.06.12,0,.22,0,.31.02.08.01.15.02.19.04s.08.04.09.07c.02.03.02.07.01.11l-1.1,5.47Zm-.76-3.83c-.14-.22-.3-.39-.47-.5-.17-.11-.38-.17-.6-.17-.17,0-.33.04-.47.12-.14.08-.27.19-.38.33s-.21.29-.29.47-.15.37-.21.56c-.06.19-.1.39-.12.59-.03.2-.04.38-.04.55,0,.12,0,.24.03.35.02.11.05.21.1.29.05.09.11.15.2.21.08.05.19.08.31.08.18,0,.36-.05.55-.16.19-.11.36-.26.53-.44s.31-.4.43-.65c.12-.25.22-.51.27-.79l.17-.83Z"/>
    <path class="cls-2" d="m340.76,286.9c0,.14,0,.29-.03.43-.02.14-.04.29-.07.44l-.68,3.37s-.03.08-.06.11c-.03.03-.08.06-.14.08-.06.02-.15.04-.25.05-.1,0-.23.02-.38.02s-.27,0-.37-.02c-.1-.01-.17-.03-.22-.05s-.09-.05-.11-.08c-.02-.03-.02-.07-.01-.11l.66-3.28c.02-.1.04-.2.05-.3,0-.1.01-.19.01-.27,0-.18-.04-.33-.12-.45-.08-.12-.21-.18-.39-.18-.17,0-.34.05-.52.16-.18.11-.35.25-.51.43s-.3.39-.43.64c-.13.24-.22.5-.27.77l-.5,2.47s-.03.08-.06.11c-.03.03-.08.06-.14.08s-.15.04-.25.05c-.1,0-.23.02-.37.02s-.27,0-.37-.02c-.1-.01-.17-.03-.23-.05s-.09-.05-.11-.08c-.02-.03-.02-.07-.01-.11l1.1-5.47s.03-.08.05-.11c.03-.03.07-.05.12-.07.05-.02.13-.03.21-.04.09,0,.19-.02.32-.02s.23,0,.31.02c.08.01.14.02.19.04s.07.04.09.07c.01.03.02.07,0,.11l-.18.9c.09-.14.2-.29.34-.44.14-.15.31-.28.49-.4.19-.12.39-.22.61-.29.22-.08.45-.11.68-.11.29,0,.53.04.72.12.19.08.35.2.47.34.12.14.21.31.26.5.05.19.08.39.08.6Z"/>
  </g>
  <g>
    <path class="cls-2" d="m338.79,342.13s0,.08,0,.14c0,.06-.01.13-.03.2-.01.07-.03.15-.05.22-.02.08-.04.14-.07.21s-.06.12-.09.16c-.03.04-.07.06-.1.06-.06,0-.13-.03-.21-.08s-.19-.11-.32-.17c-.12-.06-.27-.11-.44-.17-.17-.05-.36-.08-.57-.08s-.41.03-.56.09-.28.14-.38.24c-.1.1-.17.21-.22.34-.05.12-.07.25-.07.38,0,.15.04.28.11.39s.17.22.29.31c.12.1.26.19.42.28s.32.18.48.28c.16.1.32.21.48.32s.3.25.42.4c.12.15.22.33.29.53s.11.43.11.68c0,.38-.08.74-.23,1.07-.16.33-.37.61-.66.86-.28.24-.63.43-1.03.57s-.85.21-1.34.21c-.27,0-.51-.02-.73-.06s-.42-.09-.6-.16c-.17-.06-.32-.12-.44-.19s-.21-.13-.26-.19c-.06-.06-.09-.15-.09-.28,0-.03,0-.08.01-.15,0-.07.02-.14.03-.21.01-.08.03-.15.05-.23.02-.08.04-.15.07-.22s.06-.12.09-.16c.04-.04.07-.06.11-.06.07,0,.15.03.25.09.1.06.22.13.36.21.14.08.31.15.51.21.2.07.43.1.7.1.24,0,.45-.03.63-.09.18-.06.33-.14.46-.25.12-.11.21-.23.28-.37.06-.14.09-.29.09-.46,0-.15-.04-.28-.11-.4s-.17-.22-.29-.32c-.12-.1-.26-.19-.41-.27-.15-.09-.31-.18-.47-.28-.16-.1-.32-.2-.47-.32s-.29-.25-.41-.4-.22-.33-.29-.53c-.07-.2-.11-.43-.11-.7,0-.37.07-.71.22-1.02s.35-.58.61-.8c.26-.22.57-.4.94-.52.36-.12.76-.19,1.2-.19.2,0,.4.01.58.05.18.03.35.07.5.12s.28.1.39.16c.11.06.18.1.22.14.04.04.07.08.09.12.02.04.03.1.03.16Z"/>
    <path class="cls-2" d="m340.54,349.24s-.03.08-.06.11c-.03.03-.08.06-.14.08s-.15.04-.25.05c-.1,0-.23.02-.37.02s-.27,0-.37-.02c-.1-.01-.17-.03-.23-.05s-.09-.05-.11-.08c-.02-.03-.02-.07-.01-.11l1.08-5.45s.03-.08.06-.11.08-.06.14-.08c.06-.02.15-.04.25-.05.1-.01.23-.02.38-.02s.27,0,.37.02c.1.01.17.03.23.05.05.02.09.05.11.08.02.03.02.07.01.11l-1.08,5.45Zm1.58-7.3c-.03.15-.07.28-.12.38s-.11.19-.2.25c-.08.06-.18.11-.3.13s-.27.04-.44.04-.31-.01-.42-.04-.19-.07-.25-.13c-.05-.06-.09-.15-.09-.25,0-.1,0-.23.04-.38.03-.15.07-.27.12-.37.05-.1.11-.19.2-.25.08-.07.18-.11.3-.14.12-.03.27-.04.44-.04s.31.01.42.04c.11.03.19.08.25.14.05.07.08.15.09.25,0,.1,0,.23-.03.37Z"/>
    <path class="cls-2" d="m347.95,343.76c0,.05,0,.11-.02.18-.01.07-.03.13-.05.2-.14.38-.29.76-.45,1.16-.16.4-.35.81-.55,1.24s-.45.86-.71,1.32c-.26.45-.57.92-.91,1.41l-1.49,2.12c-.04.05-.08.1-.14.13-.05.04-.12.06-.21.09s-.18.04-.3.05c-.12.01-.25.02-.41.02-.18,0-.32,0-.43-.02s-.19-.04-.24-.07c-.05-.03-.07-.07-.07-.12,0-.05.03-.11.08-.18l1.39-1.83-.9-5.25c0-.05-.02-.11-.02-.17,0-.06-.01-.11-.01-.15,0-.07.01-.13.04-.18s.07-.08.13-.1.15-.04.25-.05c.11,0,.24-.02.39-.02.17,0,.3,0,.4,0,.1,0,.17.02.22.04.05.02.08.05.1.09.02.04.03.09.04.15l.56,3.83h.01c.2-.31.39-.62.56-.93.17-.31.32-.63.46-.96.14-.33.27-.65.38-.99.12-.33.22-.67.32-1.01,0-.04.03-.08.05-.11.03-.03.08-.05.14-.07s.16-.03.27-.04c.11,0,.25-.02.43-.02.26,0,.44.02.54.05.1.03.15.09.15.18Z"/>
    <path class="cls-2" d="m347.96,348.04c0-.29.07-.56.2-.79s.34-.44.62-.61c.28-.17.63-.3,1.07-.39s.94-.13,1.54-.13h.56c.02-.09.03-.19.04-.28,0-.09.01-.18.01-.25,0-.33-.09-.58-.26-.75-.17-.17-.45-.25-.83-.25-.27,0-.51.02-.73.06-.21.04-.4.08-.56.13s-.29.09-.4.13c-.11.04-.18.06-.23.06s-.08-.01-.1-.04c-.02-.03-.03-.07-.03-.13,0-.07,0-.15.02-.24.01-.09.03-.18.05-.27s.05-.17.09-.25c.04-.08.07-.14.12-.18.05-.05.14-.1.27-.15.13-.05.29-.09.47-.13s.39-.07.62-.1c.23-.03.46-.04.7-.04.39,0,.73.04,1.03.12.29.08.54.21.73.37.2.17.34.38.44.64.1.26.15.57.15.92,0,.27-.03.57-.08.88s-.13.62-.25.92-.26.59-.44.87c-.18.28-.4.52-.65.73-.25.21-.55.38-.88.5-.33.13-.72.19-1.14.19-.37,0-.69-.04-.96-.13-.27-.09-.49-.2-.66-.35-.17-.14-.3-.31-.38-.5-.08-.19-.13-.38-.13-.57Zm1.51-.12c0,.16.06.3.19.41s.32.16.56.16c.2,0,.39-.04.55-.11s.3-.17.43-.3c.12-.12.23-.27.32-.44.09-.17.16-.35.21-.54h-.51c-.33,0-.6.02-.82.06-.22.04-.4.1-.53.17s-.23.16-.29.26c-.06.1-.09.21-.09.32Z"/>
    <path class="cls-2" d="m358.7,343.79s0,.07-.01.13c0,.06-.02.13-.03.2-.01.07-.03.14-.04.2-.01.07-.03.12-.03.15-.03.11-.07.2-.12.29-.05.08-.13.18-.22.29l-2.58,3.15h2.08c.06,0,.1.02.13.06.03.04.04.11.04.2,0,.03,0,.08,0,.14s-.02.13-.03.21c-.01.07-.03.15-.06.22s-.05.14-.08.2c-.03.06-.07.11-.11.15-.04.04-.09.06-.13.06h-3.61c-.08,0-.14-.02-.18-.07s-.06-.12-.06-.22c0-.03,0-.08.01-.13,0-.06.02-.11.03-.17.01-.06.02-.12.04-.17.01-.05.02-.1.04-.13.01-.04.03-.09.04-.13.01-.04.04-.08.06-.13s.06-.09.1-.15c.04-.05.09-.11.15-.18l2.61-3.16h-1.86c-.06,0-.1-.02-.13-.06s-.05-.11-.05-.21c0-.04,0-.09,0-.16,0-.06.02-.13.03-.2.01-.07.03-.14.05-.21s.05-.14.08-.2c.03-.06.07-.1.11-.14.04-.04.09-.05.13-.05h3.37c.09,0,.14.02.17.06.03.04.05.09.05.16Z"/>
    <path class="cls-2" d="m358.94,348.04c0-.29.07-.56.2-.79s.34-.44.62-.61c.28-.17.63-.3,1.07-.39s.94-.13,1.54-.13h.56c.02-.09.03-.19.04-.28,0-.09.01-.18.01-.25,0-.33-.09-.58-.26-.75-.17-.17-.45-.25-.83-.25-.27,0-.51.02-.73.06-.21.04-.4.08-.56.13s-.29.09-.4.13c-.11.04-.18.06-.23.06s-.08-.01-.1-.04c-.02-.03-.03-.07-.03-.13,0-.07,0-.15.02-.24.01-.09.03-.18.05-.27s.05-.17.09-.25c.04-.08.07-.14.12-.18.05-.05.14-.1.27-.15.13-.05.29-.09.47-.13s.39-.07.62-.1c.23-.03.46-.04.7-.04.39,0,.73.04,1.03.12.29.08.54.21.73.37.2.17.34.38.44.64.1.26.15.57.15.92,0,.27-.03.57-.08.88s-.13.62-.25.92-.26.59-.44.87c-.18.28-.4.52-.65.73-.25.21-.55.38-.88.5-.33.13-.72.19-1.14.19-.37,0-.69-.04-.96-.13-.27-.09-.49-.2-.66-.35-.17-.14-.3-.31-.38-.5-.08-.19-.13-.38-.13-.57Zm1.51-.12c0,.16.06.3.19.41s.32.16.56.16c.2,0,.39-.04.55-.11s.3-.17.43-.3c.12-.12.23-.27.32-.44.09-.17.16-.35.21-.54h-.51c-.33,0-.6.02-.82.06-.22.04-.4.1-.53.17s-.23.16-.29.26c-.06.1-.09.21-.09.32Z"/>
    <path class="cls-2" d="m370.99,345c0,.14,0,.29-.03.43-.02.14-.04.29-.07.44l-.68,3.37s-.03.08-.06.11c-.03.03-.08.06-.14.08-.06.02-.15.04-.25.05-.1,0-.23.02-.38.02s-.27,0-.37-.02c-.1-.01-.17-.03-.22-.05s-.09-.05-.11-.08c-.02-.03-.02-.07-.01-.11l.66-3.28c.02-.1.04-.2.05-.3,0-.1.01-.19.01-.27,0-.18-.04-.33-.12-.45-.08-.12-.21-.18-.39-.18-.17,0-.34.05-.52.16-.18.11-.35.25-.51.43s-.3.39-.43.64c-.13.24-.22.5-.27.77l-.5,2.47s-.03.08-.06.11c-.03.03-.08.06-.14.08s-.15.04-.25.05c-.1,0-.23.02-.37.02s-.27,0-.37-.02c-.1-.01-.17-.03-.23-.05s-.09-.05-.11-.08c-.02-.03-.02-.07-.01-.11l1.1-5.47s.03-.08.05-.11c.03-.03.07-.05.12-.07.05-.02.13-.03.21-.04.09,0,.19-.02.32-.02s.23,0,.31.02c.08.01.14.02.19.04s.07.04.09.07c.01.03.02.07,0,.11l-.18.9c.09-.14.2-.29.34-.44.14-.15.31-.28.49-.4.19-.12.39-.22.61-.29.22-.08.45-.11.68-.11.29,0,.53.04.72.12.19.08.35.2.47.34.12.14.21.31.26.5.05.19.08.39.08.6Z"/>
  </g>
</svg>