<?xml version="1.0" encoding="UTF-8"?>
<svg xmlns="http://www.w3.org/2000/svg" version="1.1" viewBox="0 0 841.89 595.28">
  <defs>
    <style>
      .cls-1 {
        fill: #3e6861;
      }
    </style>
  </defs>
  <!-- Generator: Adobe Illustrator 28.6.0, SVG Export Plug-In . SVG Version: 1.2.0 Build 709)  -->
  <g>
    <g id="Layer_1">
      <path id="Path_2083" class="cls-1" d="M381.53,49.3c-.44,2.19-1.75,9.42-2.41,15.99-2.19,17.3-6.35,24.53-22.34,38.55-7.67,6.79-21.9,22.13-31.32,33.74-9.64,11.83-22.12,25.63-28.04,30.89-7.73,7.25-15.04,14.93-21.9,23-14.24,17.3-23.22,22.78-41.4,24.97-16.87,2.19-24.75,7.01-28.26,17.74-1.53,4.16-5.04,8.98-8.32,10.95-8.11,4.82-7.89,4.6-9.42,16.43-1.54,13.58-5.48,21.25-13.8,27.16-4.82,3.51-6.35,5.91-5.47,8.98,2.63,7.89-.66,12.71-9.42,13.36-9.86.88-11.4,5.48-4.6,14.68,5.91,7.89,4.38,16.87-3.51,20.37-6.79,3.06-6.79,4.16-.44,10.95,4.09,3.99,9.43,6.46,15.12,7.01,11.4,1.75,15.99,5.7,18.18,16.21,2.19,10.29,10.73,19.49,25.63,26.94,7.61,3.84,14.93,8.24,21.9,13.14,5.04,3.5,11.4,6.35,14.24,6.35,7.01,0,13.36,3.5,19.93,11.17,5.92,7.01,10.73,7.89,17.09,3.06,6.57-5.04,11.4-3.94,21.25,4.6,7.67,6.35,10.51,7.67,16.87,6.79,4.98-.46,9.97.69,14.24,3.29,3.72,2.19,8.11,3.94,10.07,3.94s5.26,1.97,7.23,4.16c2.85,3.07,7.67,4.38,18.4,5.04,13.58.66,23,3.51,51.92,15.55,7.01,2.62,14.28,4.45,21.69,5.47,8.76.66,11.17,1.97,14.24,7.23,4.16,7.45,6.57,7.89,14.02,1.97,3.51-2.85,10.52-4.82,19.49-5.7,7.45-.88,15.99-2.85,18.84-4.38,3.5-2.41,8.98-2.85,22.12-1.75,15.55,1.32,17.52,1.1,21.9-3.29,2.97-3.22,4.62-7.44,4.6-11.83.22-10.29,7.67-25.19,14.24-28.26,8.98-4.16,16.87,0,20.37,10.29,2.19,6.79,2.19,9.64.22,13.58-3.72,7.01,1.31,12.05,16.64,16.87,6.57,1.97,14.9,6.13,18.4,8.98,7.23,6.13,12.27,7.01,14.24,2.19,1.75-4.6,10.73-4.16,17.31,1.09,9.2,7.45,14.9,5.04,17.96-7.23,1.53-5.48,0-7.67-15.99-22.56-12.7-11.61-19.49-19.93-23.65-28.91-4.1-8.27-8.63-16.31-13.58-24.1-6.79-10.07-8.11-13.79-9.2-29.57-1.1-13.79-2.85-20.37-7.23-27.82-4.6-7.89-5.7-12.71-5.48-21.9.22-13.14-5.04-27.82-18.84-52.13-10.95-19.49-15.34-25.19-35.05-46.44-9.77-10.73-18.84-22.07-27.16-33.95-5.48-8.55-19.49-25.41-31.32-37.68-11.61-12.49-26.94-30.67-33.95-40.53-10.08-14.68-70.54-78.42-74.04-78.42-.67,0-1.55,1.75-2.2,3.72Z"/>
    </g>
  </g>
</svg>