<?xml version="1.0" encoding="UTF-8"?>
<svg id="Layer_1" data-name="Layer 1" xmlns="http://www.w3.org/2000/svg" viewBox="0 0 500 500">
  <defs>
    <style>
      .cls-1 {
        fill: #0b7b5f;
        stroke: #fff;
        stroke-miterlimit: 10;
      }

      .cls-2 {
        fill: #f9e5af;
      }
    </style>
  </defs>
  <g>
    <path class="cls-1" d="m376.01,193.78c-1.01-.78-1.21-1.62-1.53-2.73-.49-1.66-1.22-2.33-2.76-3-1.01-.44-2.18-1.1-2.99-1.82-.67-.58-.64-.91-.63-1.82,0-.85,0-1.69,0-2.54,0-.66-.13-1.1-.26-1.73-.09-.48.01-.97,0-1.45-.03-.68-.31-1.29-.32-1.96-.03-1.96,1.32-4.1.26-6.03-.39-.71-1.17-1.06-1.95-1.18-1.28-.19-2.14-.95-3.36-1.19-1.11-.22-2.25-.26-3.03-1.11-.28-.31-.84-.75-1.06-1.11-.48-.78.29-2.38.5-3.08.38-1.27.7-2.48,1.47-3.57,1.05-1.5,3.11-3.61,2.13-5.6-.16-.33-.53-.51-.73-.82-.18-.26-.3-.66-.45-.96-.53-1.09-1.11-1.99-1.81-2.99-.7-1.02-1.34-1.85-2.23-2.72-.65-.64-.84-1.39-1.45-2.03-.54-.57-1.16-.8-1.96-.84-1.06-.05-2.06-.1-3.12,0-1.46.16-2.88.59-4.35.57-1.16-.01-2.32.04-3.48,0-1.4-.05-2.71-.61-3.88-1.34-1.59-.99-3.21-1.59-5.03-1.96-1.08-.22-2.07.15-3.13.22-1.31.08-2.6.26-3.89.5-.71.13-1.83.24-2.56.03-.96-.28-1.78-1.55-2.47-2.22-.56-.55-.83-.63-1.64-.48-.53.1-1.18.21-1.66.49-.26.16-.47.62-.83.55-.16-1.03-.97-1.93-1.52-2.78-.55-.85-1.14-1.57-1.54-2.51-.49-1.15-.94-2.4-1.16-3.63-.29-1.66-.38-3.52-1.15-5.05-.39-.77-.53-1.64-.98-2.35-.28-.45-.5-.77-.7-1.27-.43-1.06-1.02-2.08-1.79-2.91-.74-.81-1.23-1.8-2.01-2.57-.93-.91-1.53-2.05-2.43-2.93-1.44-1.4-2.45-3.4-4.26-4.47-.79-.47-1.72-.51-2.53-.83-.54-.21-.99-.58-1.51-.91-.67-.42-1.51-.6-2.25-.78-.96-.23-1.07-.3-1.43-1.23-.27-.69-.53-1.18-.52-1.98,0-.69,0-1.39,0-2.08,0-1.66-.24-3.55-.01-5.19.06-.45.27-.8.3-1.26.02-.32-.01-.66,0-.98,0-.56-.12-.94-.24-1.4-.25.05-.5.09-.77.12-1.3.15-2.53,0-3.83.29-1.18.27-2.1.46-3.31.37-1.49-.11-2.95,0-4.43-.04-2.9-.07-6.06-1.38-8.69-2.58-.79-.36-1.78-.81-1.99-1.72-.12-.51.2-1.11-.21-1.6-.42-.49-1.11-.45-1.79-.24.32.75.89,2.07.92,2.5.06.9.17,2.18-.07,3.05-.23.84-.12,1.62-.24,2.5-.33,2.47-.9,4.88-3.04,6.45-1.01.74-2.2,1.34-3.37,1.78-.92.35-1.98.28-2.82.75-1.87,1.05-3.64,3.17-5.87,3.34-1.15.09-2.26-.36-3.12-1.1-.61-.53-1.02-1.25-1.67-1.72-.57-.41-1.31-.63-1.92-.97-1.53-.85-2.86-1.99-4.48-2.66-1.74-.72-3.27-1.85-4.75-3-.65-.51-1.28-1.02-2.05-1.34-.93-.38-1.93-.37-2.89-.67-1.8-.55-3.5-1.18-4.27-3.03-.67-1.59-1.87-1.23-3.19-.62-1.11.51-1.99.68-3.2.43-.87-.17-1.76-.37-2.6-.65-1.18-.39-1.9-1.48-3.06-1.91-.06-.02-.13-.04-.21-.06-.11.14-.2.3-.32.39-.38.31-.75.72-1.11,1.05-.46.41-.57.84-.94,1.3-.4.49-.84.77-1.12,1.38-.46.99-.72,2.06-1.14,3.06-.31.73-.63,1.57-1.06,2.23-.24.38-.48.64-.67.99.1.1.17.22.19.36.09.19.17.64.21.86.15.87-.03,1.76.13,2.64.17.95.23,1.27-.05,2.24-.27.93-.5,1.79-.66,2.75-.27,1.58-.12,3.07.12,4.64.41,2.68,1.77,5.21,2.38,7.86.21.91.64,2.21.07,3.09-.61.94-2.03,1.01-2.71,1.89-.81,1.04-.51,2.45-.35,3.64.19,1.4.11,2.74.2,4.15.08,1.28.27,2.45.65,3.66.17.55.52,1.19.56,1.76-.47-.36-1.15-.11-1.85.34.37.18.17-.1.67.09.28.11.58.35.9.43.46.11.92.06,1.4.06.46,0,.7-.11,1.12-.22.23-.06.86-.3,1-.29.93.02,1.73.65,2.64.81.82.14,1.65.17,2.49.33,1.34.25,2.75.03,4.05.36.99.25,1.91.07,2.89.48,1.05.45,2.06,1.23,3.15,1.56,1.31.4,1.82-.52,2.74-1.3.89-.74,1.71-.96,2.79-1.16.91-.16,1.98-.94,2.98-.55.69.28.92,1.22,1.27,1.8.54.89,1.4,1.98,2.25,2.59.5.36,1.07.78,1.64,1.02.76.32,1.66.85,2.45.99,1.19.22,2.19-.25,3.17.63.36.32.52.73.9,1,.49.35,1.18.52,1.64.96.44.42.86,1.25,1.11,1.8.77,1.72-.54,2.86-1.13,4.41-.74,1.93-.9,3.91-1.38,5.88-.45,1.84-.79,4.01-.6,5.89.12,1.14.28,2.44,1.21,3.2.7.58,1.45,1.23,2.3,1.54.72.26,1.47.44,2.19.71.74.27,1.43.41,2.19.59.67.17,1.27.18,1.94.31.9.18,1.8.33,2.72.43.57.06,1.22.02,1.79.12.71.12,1.27.53,1.94.74.73.23,1.5.36,2.24.54.62.15,1.1.45,1.66.66,1.14.42,1.85,1.56,3.13,1.65.68.05,1.52-.02,2.15.32.57.31.81.84,1.16,1.35.39.58.83,1.06,1.13,1.69.32.68.83,1.1,1.12,1.81.54,1.34,1.66,1.7,2.85,2.36.73.41,1.32.68,2.13.86.66.15,1.44.23,2.03.61.77.49,1.39,1.25,2.14,1.69.5.29.83.36,1.22.82.67.81,1.17,1.93,1.34,2.96.19,1.18.3,2.42.33,3.61.01.57.1.86.48,1.29.44.49.97.62,1.49,1.04.66.54.93,1.24,1.39,1.92.6.89.92,1.83,1.67,2.63.41.43.88.72,1.31,1.07h0c.35.29.67.61.87,1.1.11.26.08.66.26.88.19.24.32.16.57.3.56.32.75.48,1.48.5.73.02,1.57.1,2.29.02,1.36-.15,2.4-1.07,3.66-1.53,1.64-.59,3.04-1.8,4.35-2.96.59-.52.87-1.21,1.46-1.69.46-.37,1.15-.44,1.55-.89.33-.37.35-.93.73-1.29.53.34.87,1.14,1.29,1.61.6.65,1.31,1.18,1.95,1.79,1.14,1.09,2.49,2.03,3.72,3.02,1.07.86,1.97,1.87,2.94,2.83,1.33,1.32,2.79,2.5,4.12,3.82.61.6,1.13,1.04,1.64,1.73.76,1.03,1.95,1.41,3.19,1.69,2.42.54,4.75.15,7.2.22,1.45.04,3.45.23,4.72.95,1.62.93,2.24,2.95,4.28,3.32,1.18.22,2.42-.08,3.46-.62,1.82-.94,2.58-4.09,4.69-4.47.98-.18,1.1.62,1.27,1.4.22,1.04.69,1.79,1.31,2.65.75,1.05,1.16,1.57,2.55,1.54,1.11-.03,2.52-.14,3.59-.51,1.15-.39,1.8-1.41,2.83-1.9.51-.25,1.66-.27,2.18-.39,1.34-.32,1.32,0,2.04.99.54.74,1.29,1.08,1.88,1.73.49.55.76,1.22,1.32,1.73.74.68,1.54,1,2.4,1.5.76.45.98,1.05,1.64,1.57.4.22.79.45,1.18.71.55.51,1.09,1.03,1.63,1.54.76.6,1.69.83,2.49,1.35.83.53,1.18,1.43,1.92,2.03.34.23.68.44,1.04.64.22.3.35.63.37,1,.2.52.79.97,1.34,1.27,0-1.14.07-2.31.11-3.39.05-1.39.54-2.79.22-4.22-.07-.3-.22-.47-.22-.89,0-.28,0-.56,0-.84,0-.48.15-1.24.01-1.69-.31-1-1.52-1.41-2.18-2.02-.4-.37-.95-.89-1.19-1.31-.33-.55-.32-1.42-.49-2.04-.34-1.29-.6-2.57-.98-3.86-.21-.72-.36-1.39-.54-2.1-.12-.49-.53-1.34-.85-1.75-.25-.31-.58-.57-.83-.88-.19-.24-.44-.52-.58-.79-.12-.22-.1-.41-.19-.63-.43-1.01-.3-2.2-.29-3.35,0-1-.3-1.98-.76-2.86-.26-.49-.37-1.07-.84-1.41-.35-.25-.74-.36-1.13-.55-.95-.47-1.37-1.05-1.52-2.12-.08-.02.4-.59.33-.61,0-.94.58-1.27,1.35-1.86-.26-.14-.6-.17-.86-.31-.33-.17-.66-.47-.96-.71Z"/>
    <path class="cls-1" d="m175.36,351.9c0,.33.09.81.01,1.13-.1.41-.28.47-.3.96-.01.35.09.8.01,1.13-.07.32-.23.5-.3.82-.06.28-.02.83.03,1.11.03.16.2.17.23.33.04.22-.03.45,0,.68.07.43.4.72.52,1.12.1.36.18.75.27,1.11.15.56-.08,1.17.05,1.72.12.51.29.82.29,1.37,0,.66.17,1.13.63,1.61.33.34.35.23.77.35.33.09.63.22.97.29,1.69.36,2.52-1.11,3.45-2.26.51-.64.87-1.28,1.23-2.01.49-.98,1.25-1.88,1.91-2.73.56-.73,1.18-1.45,1.67-2.24.43-.69.8-1.39,1.53-1.71.66-.29,1.59-.04,2.24.31,1.2.63,2.5,1.36,3.79,1.77,1.45.46,2.08-.47,3.07-1.42.96-.92,2-1.63,3.35-1.74,2.48-.2,4.32-2.52,5.73-4.36.45-.58,1-1.1,1.43-1.68.43-.58.49-1.4.82-2.05.51-1.01.67-2.12,1.48-2.89.69-.66.68-.8,1.67-.55,1.27.31,2.67.63,3.97.63,1.04,0,1.84.18,2.79.6,1.28.57,2.31,1.2,2.58,2.6.15.8.25,1.58.37,2.39.17,1.13.63,1.9,1.09,2.92.83,1.83,1.69,3.58,2.64,5.33.66,1.21.64,2.78.97,4.09.21.82.03,1.84.4,2.54.75,1.41,2.22,1.11,3.62,1.08,1.52-.04,3.08-.64,4.58-.93,1.21-.23,2.25-.45,3.47-.48,2.86-.08,1.96-2.77,1.63-4.78-.22-1.35-.74-2.64-1.2-3.92-.51-1.44-.84-2.92-1.41-4.34-.42-1.04-.56-2.09-.55-3.22,0-.6-.12-1.26.16-1.78.28-.52.85-1.37,1.28-1.77.34-.32.7-.43,1.12-.6.97-.39,1.79-.84,2.47-1.67.87-1.07.74-2.15.98-3.4.16-.83.47-1.75.83-2.51.41-.87,1-1.63,1.91-1.13.39.21,1.18.51,1.02,1.05,1.35.68,3.13.62,4.37,1.48.7.48,1.29,1.18,2.07,1.56,1.22.59,2.63.28,3.91.54.62.12,1.14.41,1.76.43.28.01.51-.03.72-.11-.07-.16-.14-.34-.22-.53.08.2.16.37.22.53.4-.13.72-.36,1.19-.48.6-.15,1.11-.24,1.67-.54.49-.26,1.09-.36,1.67-.47,0-.07.02-.14.03-.21.18-.71.65-1.38.86-2.11.4-1.37,1.13-2.63,1.48-4.02.27-1.05.17-2.14.17-3.22-.01-1.75.21-3.46-.6-5.08-.5-.99-1.27-1.82-1.77-2.81-.34-.67-.61-1.4-.85-2.12-.43-1.31-.62-2.68-1.25-3.93-.34-.67-.87-1.84-1.47-2.33-.56-.45-1.33-.38-1.92-.86-.55-.44-.81-.74-.71-1.41.22-1.41,1.06-2.64,1.57-3.94.66-1.67,1.61-3.13,2.51-4.69.97-1.68,1.98-3.12,1.98-5.1,0-2.39-.67-4.73-.83-7.12-.05-.74.26-1.64-.48-2.08.56-.06.92.32,1.44.31.28,0,.54-.1.81-.18-.25-.47-.1-.29-.53-.96-.38-.6-.78-1.13-1.33-1.61-.61-.53-1.53-.8-2.31-1.05-.39-.12-.73-.37-1.11-.43-.38-.06-.65-.04-.99-.13-.75-.2-1.57-.1-2.39-.13-.66-.02-1.29-.25-1.95-.29-.46-.03-.49-.06-.87-.25-.61-.31-.8-.64-1.14-1.22-.36-.61-.93-1.28-1.47-1.75-1.02-.89-2.14-1-3.45-1.26-1.81-.37-3.87-.15-5.43-1.17-.49-.32-.71-.82-1.09-1.19-.33-.32-.75-.51-1.09-.86-.56-.56-.99-1.24-1.59-1.75-.8-.68-1.45-.09-2.32-.07-.79.02-1.59,0-2.38,0-.83,0-1.36.01-2.09.31-.6.25-1.73.66-2.39.54-.39-.07-.53,0-.66.07.01.04.03.08.03.12.3,1.32-.56,2.59-1.48,3.45-1.43,1.32-3.27,2.18-4.54,3.68-1.44,1.7-2.05,4.34-4.88,3.8-4.12-.79-8.11-3.76-10.56-7.08-.85-1.15-2-2.54-1.97-4.04.04-1.74-.99-3.14-2.04-4.41-.94-1.14-2.06-2.55-3.59-2.83-1.45-.26-2.58.48-3.89,1.01-1.81.73-3.21,1.49-4.75,2.72-1.09.87-2.05,1.95-2.8,3.13-.46.73-.87,1.55-1.45,2.2.1.12.2.26.28.41.18.32.54,1.04.55,1.38,0,.17-.25.86-.29,1.06-.12.49-.29.97-.5,1.43-.39.86-.83,1.6-1.4,2.35-.71.96-1.63,1.98-2.18,3.02-.35.67-.62,1.12-1.17,1.66-.73.72-1.4,1.42-2.02,2.24-.93,1.23-2.3,2.07-3.52,2.97-.77.56-1.61.9-2.35,1.5-.45.36-.9.75-1.37,1.1-.7.53-1.34.86-2.2.6-.73-.22-1.31-.51-1.95-.91-1.02-.64-1.54-1.48-2.39-2.32-.53-.52-1.04-1.07-1.57-1.59-.82-.81-1.74-1.26-2.66-1.92-.69-.49-1.29-1.02-2.01-1.47-.5-.31-1.09-.65-1.54-1.03-.86-.72-1.56-1.62-2.5-2.27-.69-.47-1.67-.85-2.46-1.1-1.26-.39-2.38-.72-3.55-1.32-1.21-.62-2.31-1.42-3.5-2.1-2.61-1.47-4.5-3.86-6.72-5.82-1.21-1.07-2.37-2.18-3.62-3.19-.79-.63-1.29-1.38-1.95-2.13-.67-.77-1.45-1.2-2.25-1.8-1.95-1.45-4.12-2.48-5.73-4.33-.76-.88-1.58-1.68-2.31-2.59-.48-.61-1.01-1.29-1.68-1.69-.45-.26-.89-.6-1.34-.85-.42-.23-.86-.12-1.26-.39-.61-.43-1.07-1.45-1.38-2.09-.4-.82-.87-1.59-1.27-2.4-.26-.53-.32-1.11-.62-1.61-.3-.51-.49-1.28-1.12-1.47-.63-.2-1.31.04-1.95-.04-.58-.08-1.13-.35-1.68-.5-.66-.19-1.3-.33-1.97-.35-.67-.02-1.06.18-1.68.29-.77.14-1.5-.26-2.25-.3-.54-.03-.89.1-1.38.22-.95.24-1.74.59-2.6,1.1-.3.18-.73.42-.97.69-.23.25-.69.82-.85,1.12-.15.27.02.52-.04.8-.06.25-.25.28-.31.53-.12.49.02,1.18.02,1.69,0,.59.22.85.29,1.39.06.54,0,1.14,0,1.68v2.78c.59-.22,1.16-.54,1.73-.78,1.37-.59,2.2-1.66,3.31-2.61.56-.48,1.07-1.02,1.59-1.54.29-.29.67-.8,1.07-.9.11.35,0,.73.07,1.09.13.56.34,1.14.48,1.7.42,1.67,3.19,1.22,4.35,2.07.43.31.73.77,1.14,1.1.41.32.87.55,1.28.87.68.53.95,1.19,1.33,1.92.28.53.5,1.02.74,1.57.4.91.99,1.98,1.64,2.71.73.81,1.35,1.7,2.03,2.55.35.44.8.8,1.19,1.2.64.66.76,1.45.89,2.33.14.99.78,1.75,1.3,2.57.92,1.44,1.54,2.95,2.82,4.14.78.73,1.47,1.55,2.01,2.48.26.44.36.52.8.79.57.35,1.03.83,1.52,1.28.67.63,1.39,1.12,2.19,1.57.64.36,1.23.97,1.9,1.24.5.2,1.01.12,1.45.49.26.22.34.52.56.76.29.32.59.38.96.59.42.24.57.64.91.95.54.5.84.54,1.09,1.31.17.51.25.89.23,1.43-.04,1.2-.65,2.48-.02,3.58.5.86,1.17,1.59,1.7,2.42.34.53.61,1.17.89,1.73.3.6.29,1.18.45,1.81.2.78.59,1.56.88,2.3.37.95,1.08,1.68,1.5,2.59.39.84.54,1.69,1.15,2.42.59.71,1.01,1.34,1.79,1.87.52.35,1.26.46,1.71.92.34.35.28.58.45.96.27.57.81.83,1.25,1.24.59.56.55,1.38,1.12,1.9.35.33.95.52,1.38.72.61.27.94.51,1.39.98.59.61,1.22,1.17,1.82,1.78.31.31.66.56.97.86.55.52.83,1.19,1.29,1.76.38.48,1.02.49,1.51.77.37.21.57.69.75,1.07.32.66.67,1.28,1.03,1.93.44.79.99,1.45,1.91,1.48.37.01.36-.08.65.24.42.46.35,1.1.93,1.46.25.16.47.19.72.36.64.46,1.06,1.08,1.85,1.29.21.06-.12.39.04.51.22.17.49.26.71.42.37.25.71.54,1.07.8.73.51,1.54.91,2.28,1.39.36.23.71.44.93.79.18.3.32.75.38,1.12.04.24-.02.47.03.7.09.04.14.12.15.22,0,.13,0,.26-.01.39.04.37.2.66.47.93.26.27.6.45.89.7.33.29.57.34.98.41.96.18,1.68.67,2.05,1.61.2.5.4.9.7,1.34.15.22.32.3.51.46.24.2.3.38.48.61.63.8,1.46,1.45,2.49,1.63-.04.27-.68.12-.92.19-.5.13-1.01.32-1.51.48-.65.21-1.19.49-1.81.75-.62.26-1.26.33-1.91.46-.39.07-.75.15-1.11.28-.47.16-.92.15-1.38.24.24.82.52,1.89.65,2.61.12.69-.02,1.53-.01,2.24Z"/>
    <path class="cls-1" d="m362.84,317.21c-1.52.07-2.99.48-4.5.55-1,.05-2.46-.42-2.99.59-.3.56-.35,1.33-.54,1.94-.21.68-.54,1.34-.97,1.92-.58.77-2.32,2.8-3.39,2.44-1.12-.37-1.26-2.05-2.4-2.51-1.51-.6-3.29.31-4.89-.15-1.56-.44-2.27-1.71-3.34-2.78-.4-.4-.87-.69-1.18-1.15-.27-.4-.31-.81-.48-1.25-.44-1.15-1.02-1.7-2.25-2-.7-.17-1.61-.3-2.25-.64-.68-.36-.9-.68-1.15-1.36-.19-.51-.23-.6-.7-.95-1.29-.96-2.95-1.73-3.85-3.11-.84-1.29-.9-2.88-1.05-4.37-.14-1.31.04-3.99-1.99-3.88-.97.05-1.76,1.16-2.71,1.48-1.07.36-2.28-.05-3.3.33-.87.33-1.59,1.6-1.84,2.43-.3,1.02.04,2.08.1,3.12.16,2.48-.37,4.32-1.1,6.66-1.08,3.41-3.8,5.86-6.85,7.55-.92.51-2.29.96-3.04,1.69-.51.49-.9,1.52-1.27,2.12-.77,1.23-1.37,2.48-1.41,3.95-.03,1.03.09,2.07-.04,3.1-.22,1.73-.61,3.38-.51,5.14.07,1.28.36,2.5.71,3.73.22.78.33,1.61.59,2.37.21.62.44.96.41,1.62-.16,3.49-5.95,2.65-8.1,2.73-1.09.04-1.91.42-2.8,1.04-1.49,1.04-3.09,2.17-4.08,3.71-.72,1.12-1.14,2.15-2.1,3.13-.36.36-1.11,1.42-1.7,1.43-.71.01-1.16-1.14-1.54-1.59-.56-.66-1.34-1.15-1.87-1.79-.47-.58-.56-1.44-.78-2.13-.34-1.08-.75-2.14-1.4-3.08-1.1-1.59-2.8-2.54-4.26-3.77-1.46-1.22-2.5-3.44-4.38-4.06-.78-.25-1.59-.13-2.37-.4-.95-.32-1.89-.77-2.78-1.22-.97-.48-2.57-1.37-2.44-2.64-.57.11-1.18.21-1.67.47-.56.3-1.07.39-1.67.54-.47.12-.8.35-1.19.48.73,1.74.62,1.87-.49,3.78-.52.9-.73,1.91-1.19,2.83-.49.98-1.41,1.65-2.17,2.41-1.5,1.5-2.57,3.82-3.33,5.77-.93,2.38-.9,5.38-.87,7.92.02,1.97-.3,3.9-.29,5.87.01,1.83-.24,3.82.15,5.6.32,1.44,1.19,2.85,2.08,4.02.89,1.17,1.63,2.37,2.66,3.42,1.05,1.07,1.83,2.36,2.87,3.44.65.67,1.58,1.37,1.77,2.34.12.58-.02,1.54-.03,2.11,0,.84.06,1.66.15,2.5.17,1.71.21,3.23-.22,4.91-.3,1.18-.7,2.3-.62,3.53.05.89.17,2.47.87,3.15-.4.51-1.53.27-2.12.27-.44,0-.74.05-1.12.14-.22.06-.68.11-.84.29-.43-.49-2.72-.21-3.36-.17-.17,0-.34.03-.5.05.02.04.06.1.16.24.48.66.98,1.32,1.51,1.95.85,1.01,1.95,1.69,2.9,2.52.56.49,1.18.99,1.59,1.61.34.51.53,1.1.73,1.64.22.61.46,1.11,1.01,1.52.74.55,1.31.16,2.09-.21,1.04-.49,2.02-1.08,2.95-1.75.91-.65,1.55-1.4,2.59-1.9,1.19-.56,2.68-2.08,3.96-1.12,1.55,1.15,2.27,3.16,4.21,3.8.56.19,1.05.25,1.51.42.06-.13.12-.26.19-.41-.07.15-.13.28-.19.41.27.1.54.24.8.47.64.56.98,1.26,1.52.29.52-.94,1.1-1.82,1.57-2.8.33-.7.81-1.51,1.02-2.24.17-.61.43-1.12.65-1.73.31-.84.69-1.35,1.17-2.06.22-.32.55-.87.66-1.25.13-.45-.07-.86.2-1.26.23-.33.76-.43,1.12-.58.9-.39,1.81-.71,2.74-1.03,1.05-.37,2.12-.95,3.24-1.09.14-1.61,1.48-2.48,2.77-3.32,1.42-.92,2.97-2.05,3.87-3.49.75-1.2,1.86-1.85,2.86-2.86.36-.36.48-.78.76-1.19.35-.52.8-.82,1.24-1.25.4-.39.71-.87,1.09-1.27.85-.87,1.88-1.52,2.71-2.42,1.86-2,3.17-4.39,5.73-5.65,1.08-.53,2.05-1.17,3.1-1.75.57-.32.97-.25,1.64-.25,1.1,0,1.63.36,2.24,1.37,1,1.66,1.5,3.35,1.9,5.19.2.95.06,2.02.06,2.97,0,.74.07,1.51-.02,2.25-.1.78-.28,1.47-.26,2.27.03.94.21,1.33.84,1.95.96.96,1.44,2.08,2.03,3.3.9,1.84,3.68.31,5.22.27,1.17-.03,2.43-.28,3.58-.1,1.04.16,1.2.75,1.76,1.57.97,1.4,1.65,2.87,2.53,4.33.41.68.58,1.38,1.37,1.47.37.04.77.02,1.14-.03.36-.05.8-.32,1.15-.28.59.07.72.46,1.34.66,1.02.33,1.86.18,2.86-.08,1.04-.27,2.15-.59,3.03.06.27.2.48.41.72.64.3.29.49.74.76,1,.41.41.82.19,1.34.25.3.03.42.17.68.22.34.07.67,0,1,.05.63.1.84.53,1.23.98.57.65,1.14,1.34,1.84,1.84.28.2.54.41.79.64.01-.04.02-.07.03-.11.35-1.1.99-2.06,1.41-3.1.82-2.03.03-4.57.34-6.72.44-3.09.79-6.05.78-9.19,0-3.49-1.04-7.02-.41-10.5.38-2.1,1.41-4.15,1.53-6.28.09-1.68,1.18-2.84,1.81-4.33.69-1.64,2.06-2.49,3.48-3.49,1.05-.74,1.93-.67,3.11-.29,1.74.56,3.47-.1,4.84-1.24.35-.29.64-.7,1.12-.57.5.14.98.99,1.28,1.37.68.84,1.48,1.67,2.11,2.55.34.48.45,1.06.75,1.56.27.46.75,1.24,1.23,1.51.33.19.65.12.97.37.48.38.75,1.23,1.12,1.73.6.81,1.28,1.6,1.96,2.35.34.37.68.91,1.17,1.02.34.08.69-.1,1.03,0,.23.75-.33,1.39-.13,2.08.16.53.73,1.04,1.13,1.4.59.52,1.27.45,1.97.71.89.34,1.67.95,2.66,1.09.66.1,1.04-.33,1.66-.3.97.06,1.75.84,2.77.89.58.02,1.16-.11,1.72.04.49.13.82.32,1.35.19.23-1.11.45-1.96.12-3.05-.23-.74-.31-1.54-.62-2.24-.23-.51-.42-.45-.85-.81-.49-.41-.54-1.03-1.04-1.45-.7-.58-1.17-.48-2.03-.52-.43-.02-.71-.23-1.12-.31-.38-.07-.62.14-.92-.18-.53-.56.42-1.11.39-1.78,0-.06-.33-.73-.36-.77-.15-.15-.59-.2-.78-.33-.84-.58-.56-1.68-.56-2.64,0-.54.03-1.1,0-1.64-.03-.65-.26-1.22-.3-1.87-.08-1.25.31-2.4.29-3.65,0-.28-.12-.8.04-1.05.17-.26.88-.71,1.14-.91.42-.32.92-.5,1.34-.82.42-.32.71-.81,1.13-1.15,1.6-1.28.53-2.64-.51-3.92-.42-.52-.64-1.01-1.17-1.38-.36-.26-1.2-1.17-1.63-1.1-.01.7-.53,1.34-1.17,1.12-.42-.14-.89-.48-1.34-.66-.98-.38-1.95-1.04-2.86-1.61-1.87-1.16-2.36-3.4-3.35-5.2-.49-.9-1.21-1.67-1.81-2.5-.88-1.23-1.69-2.56-2.55-3.81-.7-1.02-1.38-1.75-2.3-2.55-.44-.39-.75-.67-1.04-1.17-.55-.97-.96-2.03-1.6-2.95-.38-.54-.96-.9-1.34-1.44-.42-.6-.67-1.29-1.12-1.85-.74-.92-1.13-2-1.68-3.07-.89-1.75-1.74-3.57-1.42-5.58-.17,0-.33-.04-.59-.15-1.98-.84-3.93-.32-6.04-.22Z"/>
    <path class="cls-1" d="m388.78,271.04c.08-.34.25-.43.3-.82.03-.26,0-.58,0-.85,0-.67.02-1.34,0-2.01-.02-1.03-.29-1.98-.29-3.02,0-2,0-4.01,0-6.02,0-1.07.07-2.16,0-3.23-.04-.73-.24-1.49-.35-2.22-.3-2-.79-3.95-.78-6.01,0-1.22-.17-2.57-.02-3.78.12-.96.66-1.85.87-2.81.12-.56.25-1.07.27-1.66.04-.92-.19-1.64-.29-2.53-.08-.68-.1-1.4-.1-2.13-.55-.3-1.14-.75-1.34-1.27-.02-.37-.15-.7-.37-1-.35-.2-.7-.42-1.04-.64-.75-.6-1.1-1.5-1.92-2.03-.8-.51-1.73-.75-2.49-1.35-.54-.52-1.08-1.03-1.63-1.54-.38-.25-.77-.49-1.18-.71-.66-.52-.88-1.12-1.64-1.57-.85-.5-1.66-.82-2.4-1.5-.56-.51-.82-1.18-1.32-1.73-.59-.66-1.34-.99-1.88-1.73-.72-.99-.7-1.31-2.04-.99-.52.12-1.67.15-2.18.39-1.03.49-1.68,1.51-2.83,1.9-1.08.37-2.48.48-3.59.51-1.39.04-1.79-.49-2.55-1.54-.62-.86-1.09-1.61-1.31-2.65-.17-.78-.29-1.58-1.27-1.4-2.11.39-2.87,3.53-4.69,4.47-1.05.54-2.29.84-3.46.62-2.04-.37-2.66-2.39-4.28-3.32-1.27-.73-3.27-.91-4.72-.95-2.44-.07-4.77.33-7.2-.22-1.24-.28-2.43-.66-3.19-1.69-.51-.69-1.03-1.12-1.64-1.73-1.34-1.32-2.8-2.5-4.12-3.82-.97-.96-1.87-1.97-2.94-2.83-1.23-.98-2.59-1.93-3.72-3.02-.64-.61-1.35-1.13-1.95-1.79-.43-.46-.76-1.26-1.29-1.61-.38.36-.4.92-.73,1.29-.4.46-1.09.52-1.55.89-.59.48-.87,1.17-1.46,1.69-1.31,1.16-2.71,2.37-4.35,2.96-1.27.46-2.3,1.37-3.66,1.53-.72.08-1.55,0-2.29-.02-.73-.02-.92-.19-1.48-.5-.25-.14-.38-.06-.57-.3-.18-.22-.15-.62-.26-.88-.2-.48-.52-.81-.87-1.1-.44.44-.87.87-1.31,1.32-1.06,1.09-2.57,1.74-3.75,2.61-1.17.87-1.77,2.65-2.07,3.96-.13.57.24,1.31.56,1.81.21.34.52.57.78.85.36.38.72.81,1.11,1.19,1.28,1.22,3.07,2.21,4.69,2.86.2.08.48.37.68.43.43.13.91.17,1.35.27,1.64.38,2.49,1.84,3.35,3.21.49.78,1.18,2.03.79,3.01-.17.43-.75.79-1.08,1.12-.57.57-1.11,1.18-1.75,1.68-1.23.98-2.42,1.78-3.4,3.05-.35.45-1.08.99-1.04,1.64.02.32.15.34.31.61.19.33.4.86.62,1.14.6.8,1.76,1.25,2.48,1.92.93.87,1.44,2.24,2.22,3.21.65.81,1.93.98,2.88,1.21,1.18.29,1.78.8,2.17,1.97.28.85.56,1.8.56,2.71,0,.75.02,1.38-.2,2.11-.26.87-.79,1.61-1.14,2.46-.53,1.3-1.32,2.4-1.96,3.62-.42.81-1.17,1.81-1.18,2.73-.01.63.05,1.26.02,1.89-.05.92-.32,1.73-.3,2.67.02.97-.06,1.85-.21,2.81-.14.91,0,1.63.16,2.51.08.46.08.87.2,1.32.14.53.51.96.65,1.48.2.71.18,2.09,0,2.8-.13.5-.48.99-.78,1.4-.38.51-.59,1.08-.97,1.58-1.08,1.42-2.65,2.01-4.34,2.41-1.34.32-2.37.27-3.29,1.37-1.01,1.21-1.46,3.15-1.21,4.74.1.64.31,1.08.3,1.75-.02.76-.21,1.45-.28,2.19-.06.64-.2,1.12-.55,1.67-.08.13-.38.67-.51.8-.37.37-.1.38-.59.23-.18-.05-.69-.66-.87-.82-.4-.34-.76-.68-1.13-1.05-.52-.53-1.06-1.02-1.71-1.39-1.74-1-3.63-1.43-5.63-1.41-.91,0-1.83-.02-2.74,0-.54.01-.88.21-1.39.29-1.2.21-2.95.07-4.14-.08-.77-.1-1.58-.18-2.3-.5-1.14-.5-2.24-.08-3.49,0-.2.01-.39.06-.58.12h0c-.27.08-.53.18-.81.18-.52,0-.88-.37-1.44-.31.74.43.43,1.34.48,2.08.16,2.39.83,4.74.83,7.12,0,1.97-1.01,3.42-1.98,5.1-.9,1.56-1.86,3.02-2.51,4.69-.51,1.3-1.35,2.53-1.57,3.94-.1.67.16.97.71,1.41.6.48,1.36.41,1.92.86.61.49,1.14,1.65,1.47,2.33.62,1.24.82,2.62,1.25,3.93.24.71.51,1.44.85,2.12.5.99,1.27,1.82,1.77,2.81.81,1.62.58,3.32.6,5.08,0,1.08.1,2.17-.17,3.22-.35,1.39-1.08,2.64-1.48,4.02-.21.72-.68,1.39-.86,2.11-.02.07-.03.14-.03.21.17-.03.33-.07.49-.11-.16.04-.32.07-.49.11-.13,1.27,1.47,2.16,2.44,2.64.9.44,1.84.89,2.78,1.22.79.27,1.6.15,2.37.4,1.88.61,2.92,2.83,4.38,4.06,1.46,1.22,3.15,2.18,4.26,3.77.65.93,1.06,2,1.4,3.08.22.69.31,1.55.78,2.13.52.65,1.31,1.13,1.87,1.79.37.45.82,1.6,1.54,1.59.59-.01,1.35-1.06,1.7-1.43.96-.98,1.38-2.01,2.1-3.13.99-1.54,2.6-2.67,4.08-3.71.88-.62,1.71-1,2.8-1.04,2.15-.08,7.94.76,8.1-2.73.03-.67-.2-1-.41-1.62-.25-.76-.37-1.59-.59-2.37-.35-1.23-.64-2.45-.71-3.73-.1-1.76.29-3.41.51-5.14.13-1.03,0-2.07.04-3.1.04-1.47.65-2.71,1.41-3.95.37-.6.77-1.63,1.27-2.12.76-.73,2.12-1.18,3.04-1.69,3.06-1.69,5.78-4.14,6.86-7.55.74-2.34,1.27-4.18,1.11-6.66-.07-1.04-.41-2.1-.1-3.12.25-.83.98-2.1,1.84-2.43,1.02-.39,2.22.03,3.3-.33.95-.32,1.73-1.43,2.71-1.48,2.03-.11,1.85,2.57,1.99,3.88.15,1.49.21,3.07,1.05,4.37.9,1.39,2.56,2.16,3.85,3.11.48.35.52.43.7.95.25.67.47,1,1.15,1.36.64.33,1.55.47,2.25.64,1.23.3,1.81.85,2.25,2,.17.44.21.85.48,1.25.31.46.79.76,1.18,1.15,1.07,1.07,1.78,2.34,3.34,2.78,1.59.45,3.38-.46,4.89.15,1.14.46,1.28,2.14,2.4,2.51,1.08.35,2.82-1.67,3.39-2.44.43-.58.76-1.23.97-1.92.19-.61.25-1.37.54-1.94.53-1.01,2-.54,2.99-.59,1.52-.07,2.98-.48,4.5-.55,2.11-.1,4.06-.62,6.04.22.26.11.42.14.59.15,0-.03,0-.05.01-.08.17-.99.71-1.92.92-2.92.23-1.12.8-2.07,1.13-3.16.68-2.22.72-4.4,2.02-6.36.63-.95,1.38-1.88,1.82-2.93.55-1.3,1.68-3.26,1.38-4.75-.18-.9-.24-1.29-.05-2.18.2-.9.25-1.81.5-2.71.12-.45.28-.86.42-1.3.07-.22.34-1.16.27-1.39.47-.08.94-.18,1.41-.3.51-1.69.17-3.78,1.1-5.34.52-.66,1.09-1.26,1.73-1.81.77-.76,1.5-1.56,2.19-2.39.62-.75,1.22-1.51,1.7-2.36.8-1.41.81-3.04,1.68-4.41.32-.51.66-.9,1.04-1.23-.02-.33-.02-.65.05-.91Z"/>
  </g>
  <g>
    <path class="cls-2" d="m250.55,136.05s-.03.08-.06.12c-.03.03-.08.06-.15.08s-.16.04-.27.05-.25.02-.41.02-.29,0-.4-.02c-.11-.01-.19-.03-.24-.05-.06-.02-.1-.05-.12-.08-.02-.03-.03-.07-.01-.12l.66-3.33h-3.07l-.66,3.33s-.03.08-.06.12c-.03.03-.09.06-.16.08-.07.02-.16.04-.27.05-.11.01-.24.02-.4.02s-.3,0-.4-.02-.18-.03-.24-.05-.1-.05-.12-.08c-.02-.03-.03-.07-.01-.12l1.55-7.77s.02-.08.06-.11.08-.06.15-.08c.07-.02.16-.04.27-.05.11-.01.25-.02.41-.02s.29,0,.4.02.19.03.25.05c.06.02.1.05.12.08.02.03.02.07.02.11l-.6,3.02h3.08l.6-3.02s.03-.08.06-.11c.03-.03.08-.06.15-.08s.16-.04.27-.05.25-.02.41-.02.29,0,.4.02c.11.01.19.03.25.05s.1.05.12.08c.02.03.02.07.02.11l-1.55,7.77Z"/>
    <path class="cls-2" d="m257.51,136.07c-.02.09-.08.15-.2.19-.12.04-.3.06-.56.06-.13,0-.24,0-.32-.01-.08,0-.15-.02-.2-.04-.05-.02-.08-.04-.1-.08-.01-.03-.02-.07,0-.12l.18-.91c-.06.14-.16.28-.3.43-.14.15-.3.29-.49.41-.19.12-.4.22-.63.3s-.47.12-.71.12c-.34,0-.62-.06-.84-.18-.22-.12-.4-.28-.54-.48-.13-.2-.23-.43-.29-.69-.06-.26-.09-.53-.09-.81,0-.27.03-.56.08-.87s.13-.63.24-.94c.11-.31.24-.61.41-.9.16-.29.36-.55.59-.77.23-.22.5-.4.79-.54.3-.13.64-.2,1.01-.2.35,0,.66.07.93.22.27.15.51.36.71.64l.1-.5c.02-.09.08-.15.2-.19.12-.04.3-.06.56-.06.13,0,.23,0,.32.02s.15.03.2.04c.05.02.08.04.1.08.02.03.02.07.01.11l-1.14,5.68Zm-.79-3.97c-.15-.23-.31-.41-.49-.52s-.39-.17-.62-.17c-.18,0-.34.04-.49.13-.15.08-.28.2-.39.34-.11.14-.21.31-.3.49s-.16.38-.22.58c-.06.2-.1.4-.13.61s-.04.39-.04.57c0,.13,0,.25.03.36.02.11.05.22.1.3s.12.16.2.21.19.08.32.08c.19,0,.38-.06.57-.17.19-.11.38-.26.54-.46.17-.19.32-.42.45-.67s.22-.53.28-.82l.18-.86Z"/>
    <path class="cls-2" d="m264.3,130.77c0,.1-.01.21-.04.33-.02.12-.05.24-.09.35s-.09.2-.14.28c-.06.07-.12.11-.19.11-.06,0-.12-.03-.18-.08-.06-.05-.13-.11-.22-.17s-.2-.12-.33-.17c-.13-.05-.3-.08-.51-.08-.22,0-.42.05-.59.15-.17.1-.33.22-.45.38s-.24.33-.32.53c-.08.2-.15.4-.21.6-.06.2-.09.39-.12.58-.02.18-.03.34-.03.48,0,.34.07.6.22.78s.39.27.71.27c.24,0,.44-.03.61-.09s.31-.13.43-.2c.12-.07.22-.14.31-.2.09-.06.17-.09.24-.09.04,0,.07.02.09.06.02.04.03.09.03.17s0,.16-.03.27c-.02.11-.04.22-.07.33s-.06.21-.1.31c-.04.1-.08.17-.14.23-.06.05-.15.12-.27.19-.12.07-.26.13-.42.19-.16.06-.34.1-.52.13s-.38.05-.59.05c-.72,0-1.27-.18-1.62-.55s-.54-.91-.54-1.62c0-.26.02-.54.07-.85s.13-.62.24-.93c.11-.31.25-.61.43-.91.18-.29.39-.55.64-.77.25-.22.55-.4.88-.54s.72-.2,1.16-.2c.17,0,.33.01.5.04s.31.06.44.1c.14.04.25.1.36.16.1.06.18.11.23.16s.08.09.1.13c.01.04.02.08.02.14Z"/>
    <path class="cls-2" d="m266.06,136.06s-.03.08-.06.11c-.03.03-.08.06-.15.08s-.15.04-.26.05-.24.02-.39.02-.28,0-.38-.02-.18-.03-.23-.05c-.06-.02-.09-.05-.11-.08-.02-.03-.02-.07-.01-.11l1.13-5.66s.03-.08.06-.11.08-.06.15-.08.15-.04.25-.05.23-.02.39-.02.28,0,.38.02.18.03.24.05c.06.02.09.05.11.08.02.03.02.07.01.11l-1.13,5.66Z"/>
    <path class="cls-2" d="m272.47,138.31s-.03.08-.06.11c-.03.03-.08.06-.15.09s-.15.04-.26.05c-.11.01-.24.02-.39.02s-.28,0-.38-.02-.18-.03-.23-.05c-.06-.02-.09-.05-.11-.09-.02-.03-.02-.07-.02-.11l.37-1.83c.02-.09.04-.19.07-.3s.05-.21.09-.32c.03-.11.06-.21.09-.31.03-.1.06-.18.09-.26-.08.14-.19.27-.33.41s-.3.26-.49.37c-.18.11-.38.2-.59.26-.21.07-.42.1-.63.1-.31,0-.58-.05-.8-.16-.22-.11-.4-.25-.55-.44s-.25-.41-.31-.68-.1-.55-.1-.87c0-.27.03-.56.08-.87s.13-.63.23-.94c.1-.31.24-.62.4-.91s.36-.55.59-.78.5-.41.8-.54c.3-.13.64-.2,1.02-.2.35,0,.66.07.93.22.27.15.51.36.71.64l.1-.5c.02-.09.08-.15.2-.19s.3-.06.56-.06c.13,0,.23,0,.32.02s.15.03.2.05c.05.02.08.05.1.08.02.03.02.07.01.11l-1.58,7.92Zm-.34-6.22c-.15-.23-.31-.41-.49-.52s-.39-.17-.62-.17c-.18,0-.35.04-.5.13-.15.09-.28.21-.4.36-.12.15-.22.32-.3.5-.08.19-.16.38-.21.59s-.09.4-.12.6-.04.38-.04.55c0,.33.06.57.17.72s.28.23.49.23c.19,0,.38-.06.57-.17.19-.11.38-.26.54-.46.17-.19.32-.42.45-.68.13-.26.22-.53.28-.82l.18-.86Z"/>
    <path class="cls-2" d="m279.77,136.07c-.02.09-.08.15-.2.19-.12.04-.3.06-.56.06-.13,0-.24,0-.32-.01-.08,0-.15-.02-.2-.04-.05-.02-.08-.04-.1-.08-.01-.03-.02-.07,0-.12l.18-.91c-.06.14-.16.28-.3.43-.14.15-.3.29-.49.41-.19.12-.4.22-.63.3s-.47.12-.71.12c-.34,0-.62-.06-.84-.18-.22-.12-.4-.28-.54-.48-.13-.2-.23-.43-.29-.69-.06-.26-.09-.53-.09-.81,0-.27.03-.56.08-.87s.13-.63.24-.94c.11-.31.24-.61.41-.9.16-.29.36-.55.59-.77.23-.22.5-.4.79-.54.3-.13.64-.2,1.01-.2.35,0,.66.07.93.22.27.15.51.36.71.64l.1-.5c.02-.09.08-.15.2-.19.12-.04.3-.06.56-.06.13,0,.23,0,.32.02s.15.03.2.04c.05.02.08.04.1.08.02.03.02.07.01.11l-1.14,5.68Zm-.79-3.97c-.15-.23-.31-.41-.49-.52s-.39-.17-.62-.17c-.18,0-.34.04-.49.13-.15.08-.28.2-.39.34-.11.14-.21.31-.3.49s-.16.38-.22.58c-.06.2-.1.4-.13.61s-.04.39-.04.57c0,.13,0,.25.03.36.02.11.05.22.1.3s.12.16.2.21.19.08.32.08c.19,0,.38-.06.57-.17.19-.11.38-.26.54-.46.17-.19.32-.42.45-.67s.22-.53.28-.82l.18-.86Z"/>
    <path class="cls-2" d="m287.63,132.19c0,.28-.03.58-.08.9s-.13.63-.23.95c-.11.31-.24.61-.41.9-.17.29-.36.54-.6.76-.23.22-.5.4-.8.53-.3.13-.63.2-1,.2s-.67-.07-.94-.21c-.27-.14-.51-.35-.71-.63l-.09.48c-.02.09-.08.15-.2.19s-.3.06-.56.06-.43-.02-.52-.06-.13-.11-.11-.19l1.67-8.35s.03-.08.06-.12c.03-.03.08-.06.15-.08.07-.02.15-.04.26-.05.1-.01.23-.02.39-.02s.28,0,.38.02c.1.01.17.03.23.05.06.02.09.05.11.08.02.03.02.07.01.12l-.45,2.27c-.02.1-.04.2-.07.31-.03.11-.05.21-.09.32-.03.11-.06.21-.1.31-.03.1-.06.19-.09.26.08-.14.19-.27.33-.41s.3-.26.49-.37c.18-.11.38-.2.59-.27.21-.07.42-.1.63-.1.24,0,.45.03.63.09s.33.14.46.25c.13.11.24.23.32.37.08.14.15.29.2.45.05.16.08.32.1.49.02.17.03.33.03.49Zm-1.64.16c0-.11,0-.22-.02-.33s-.05-.22-.1-.31c-.05-.09-.12-.17-.2-.23-.08-.06-.2-.09-.34-.09-.19,0-.38.06-.57.17s-.37.27-.54.46-.32.42-.45.68c-.13.26-.22.53-.28.83l-.18.86c.15.23.31.41.49.52s.39.17.63.17c.17,0,.33-.04.47-.12.14-.08.27-.19.39-.33.12-.14.22-.29.3-.48s.16-.37.22-.57c.06-.2.1-.41.13-.61.03-.21.04-.41.04-.6Z"/>
    <path class="cls-2" d="m293.49,136.07s-.03.08-.05.11c-.03.03-.07.06-.13.08-.06.02-.13.03-.22.04s-.2.02-.33.02-.24,0-.32-.02c-.08-.01-.15-.03-.19-.04-.05-.02-.08-.04-.09-.08-.01-.03-.02-.07,0-.11l.17-.92c-.08.15-.2.3-.35.45s-.32.29-.51.41-.4.22-.63.3c-.22.08-.45.12-.69.12-.3,0-.55-.04-.75-.12-.21-.08-.37-.2-.5-.34s-.22-.31-.27-.51c-.06-.2-.08-.42-.08-.65,0-.14,0-.29.03-.44.02-.15.04-.3.07-.46l.7-3.51s.03-.08.06-.11.08-.06.15-.08c.07-.02.15-.03.26-.04s.24-.02.39-.02.28,0,.38.02.18.03.23.04c.05.02.09.04.11.08.02.03.02.07.02.11l-.67,3.4c-.02.09-.04.19-.05.29s-.02.2-.02.29c0,.1,0,.19.03.28.02.08.05.15.09.21.04.06.1.1.16.13.07.03.15.04.24.04.17,0,.35-.06.54-.17s.37-.27.54-.46c.17-.2.32-.43.45-.7.13-.27.23-.56.3-.87l.48-2.45s.02-.08.06-.11c.03-.03.08-.06.15-.08.07-.02.15-.03.26-.04s.23-.02.39-.02.29,0,.38.02.18.03.23.04c.06.02.09.04.11.08.02.03.02.07.01.11l-1.14,5.68Z"/>
    <path class="cls-2" d="m296.69,136.06s-.03.08-.06.11c-.03.03-.08.06-.14.08-.06.02-.15.04-.25.05-.11.01-.24.02-.39.02-.16,0-.29,0-.39-.02s-.18-.03-.23-.05-.09-.05-.11-.08c-.02-.03-.02-.07-.02-.11l1.67-8.35s.03-.08.06-.12c.03-.03.08-.06.15-.08.07-.02.15-.04.26-.05.1-.01.23-.02.39-.02s.29,0,.38.02c.1.01.18.03.23.05s.09.05.11.08c.02.03.02.07.01.12l-1.66,8.35Z"/>
  </g>
  <path id="AZMI" class="cls-1" d="m296.91,190.77l2.85-1.01,2.76.09,1.47,2.02,1.38,2.58c2.33,1.63,4.67,3.26,7,4.89-.83.86-1.95,2.01-3.29,3.35-1.46,1.45-1.81,1.76-2.25,2.1-.49.37-2.06,1.46-4.44,2.11-1.73.48-4.62,1.27-6.26-.14-.61-.52-.49-.87-1.38-2.17-.94-1.38-1.97-2.3-2.66-2.85-.28-.61-.74-1.53-1.46-2.57-.86-1.23-1.19-1.36-1.59-2.24-.4-.89-.32-1.33-.63-3.16-.19-1.12-.4-2.02-.55-2.6,1.21-.8,2.41-1.61,3.62-2.41l5.43,2.02Z"/>
  <g>
    <path class="cls-2" d="m316.09,186.55c-.35-.04-.63-.1-.85-.18s-.39-.15-.51-.22c-.12-.07-.22-.14-.28-.2-.06-.06-.09-.16-.09-.29,0-.03,0-.08.01-.15,0-.07.02-.14.04-.22s.03-.16.05-.24c.02-.08.05-.16.08-.22.03-.07.06-.12.1-.17.04-.04.08-.06.12-.06.07,0,.16.03.26.1s.22.14.37.22.32.15.53.22c.2.07.45.1.73.1.25,0,.47-.03.66-.1s.35-.15.47-.26c.13-.11.22-.24.29-.38.07-.15.1-.31.1-.48,0-.16-.04-.29-.11-.41s-.18-.23-.3-.33-.27-.19-.43-.28c-.16-.09-.32-.18-.49-.29s-.33-.21-.49-.33c-.16-.12-.3-.26-.43-.42-.12-.16-.23-.34-.3-.55-.08-.21-.11-.45-.11-.72,0-.38.08-.73.23-1.05.15-.32.36-.6.63-.83.27-.23.59-.41.97-.54s.79-.19,1.24-.19c.21,0,.41.02.6.05.19.03.36.07.52.12.16.05.29.1.4.16.11.06.19.11.23.15s.07.08.09.13c.02.04.03.1.03.17,0,.03,0,.08,0,.15,0,.06-.02.13-.03.21-.01.08-.03.15-.05.23-.02.08-.04.15-.07.22s-.06.12-.09.16c-.03.04-.07.06-.11.06-.06,0-.13-.03-.22-.08s-.2-.11-.33-.17-.28-.12-.45-.17c-.17-.05-.37-.08-.59-.08s-.42.03-.58.1c-.16.06-.29.15-.39.25s-.18.22-.23.35-.07.26-.07.39c0,.15.04.29.11.4s.18.22.3.32.27.2.43.29c.16.09.33.19.5.29s.33.21.5.33c.16.12.31.26.44.42.13.16.23.34.3.55s.11.44.11.71c0,.4-.08.77-.24,1.1-.16.34-.37.62-.64.86s-.57.42-.89.55c-.32.13-.6.2-.82.23l.08.34c.03.11.05.21.07.3.02.09.03.19.03.28,0,.23-.04.43-.11.59s-.18.3-.31.41c-.13.11-.29.19-.48.24s-.4.08-.62.08c-.12,0-.24,0-.36-.01-.12,0-.22-.02-.32-.04-.1-.02-.19-.04-.26-.06s-.14-.04-.19-.07c-.05-.03-.08-.05-.1-.08-.02-.03-.03-.07-.03-.12,0-.04,0-.1.02-.18s.03-.15.05-.23.06-.14.1-.2c.04-.06.1-.08.17-.08h.72c.06,0,.12,0,.17-.02s.1-.04.14-.06.07-.06.1-.11.04-.1.04-.16c0-.04,0-.09,0-.15,0-.05-.02-.11-.03-.17l-.11-.45Z"/>
    <path class="cls-2" d="m322.26,186.22s-.03.08-.06.11c-.03.03-.08.06-.15.08s-.15.04-.26.05-.24.02-.39.02-.28,0-.38-.02-.18-.03-.23-.05c-.06-.02-.09-.05-.11-.08-.02-.03-.02-.07-.01-.11l1.12-5.65s.03-.08.06-.11c.03-.03.08-.06.15-.08s.15-.04.25-.05c.1-.01.23-.02.39-.02s.28,0,.38.02c.1.01.18.03.23.05.06.02.09.05.11.08.02.03.02.07.01.11l-1.12,5.65Zm1.64-7.57c-.03.16-.07.29-.12.4-.05.11-.12.2-.2.26s-.19.11-.31.14c-.12.03-.27.04-.46.04s-.32-.01-.43-.04-.2-.07-.25-.14c-.06-.07-.09-.15-.1-.26,0-.11,0-.24.04-.4.03-.15.07-.28.12-.39.05-.11.12-.19.2-.26s.19-.12.31-.15c.12-.03.27-.04.46-.04s.32.01.43.04c.11.03.2.08.25.15.06.07.09.15.09.26,0,.11,0,.24-.04.39Z"/>
    <path class="cls-2" d="m328.56,180.47s0,.08-.01.16-.02.17-.04.27-.04.21-.06.31c-.03.11-.05.21-.09.3-.03.09-.07.17-.11.23s-.08.09-.13.09c-.04,0-.08,0-.12-.02-.04-.01-.08-.03-.13-.04-.05-.01-.1-.03-.15-.04-.05-.01-.12-.02-.19-.02-.14,0-.3.06-.46.17-.16.11-.32.25-.47.43-.15.18-.28.39-.4.63s-.2.49-.25.75l-.51,2.55s-.03.08-.06.11c-.03.03-.08.06-.15.08s-.15.04-.26.05-.24.02-.39.02-.28,0-.38-.02-.18-.03-.23-.05c-.06-.02-.09-.05-.11-.08-.02-.03-.02-.07-.01-.11l1.13-5.67s.03-.08.06-.11c.03-.03.07-.06.13-.08.06-.02.13-.03.22-.04s.2-.02.33-.02.24,0,.32.02c.08.01.15.03.19.04.05.02.08.04.09.08.01.03.02.07,0,.11l-.18.9c.1-.18.22-.35.35-.5.13-.15.28-.28.43-.4s.31-.2.47-.26c.16-.06.32-.1.48-.1.06,0,.13,0,.19.01.07,0,.13.02.18.03.06.01.11.03.15.05.04.02.08.04.1.06.03.03.04.07.04.12Z"/>
    <path class="cls-2" d="m334.63,180.51s0,.1-.02.17-.03.14-.06.22c-.16.46-.33.92-.52,1.37-.19.46-.4.91-.63,1.36-.23.45-.47.89-.74,1.32s-.55.85-.86,1.25c-.04.06-.09.11-.15.14s-.13.06-.22.08c-.08.02-.18.03-.3.03-.12,0-.25,0-.4,0-.23,0-.42,0-.55-.02-.13-.01-.24-.03-.31-.05s-.12-.06-.15-.11c-.03-.04-.04-.1-.04-.17l-.67-5.09c0-.07,0-.13-.01-.19,0-.06,0-.11,0-.17,0-.08,0-.15.03-.19.02-.04.06-.08.11-.11.06-.03.14-.05.25-.06.11-.01.25-.02.43-.02.17,0,.3,0,.4.01.1,0,.17.02.22.04.05.02.09.05.11.08.02.04.03.08.03.13l.48,4.16v.16l.03-.06c.22-.33.41-.65.59-.98s.34-.67.49-1.02c.15-.35.29-.71.42-1.08.13-.37.26-.77.39-1.18.01-.05.04-.1.07-.13.03-.03.09-.06.16-.08.07-.02.16-.04.27-.04.11,0,.24-.01.4-.01s.28,0,.38.01.18.02.23.04.09.04.11.06c.02.03.03.06.03.1Z"/>
    <path class="cls-2" d="m339.91,186.22c-.02.09-.08.15-.2.19-.12.04-.3.06-.56.06-.13,0-.24,0-.32-.01-.08,0-.15-.02-.2-.04-.05-.02-.08-.04-.1-.08-.01-.03-.02-.07,0-.12l.18-.91c-.06.14-.16.28-.3.43-.14.15-.3.29-.49.41-.19.12-.4.22-.63.3s-.47.12-.71.12c-.34,0-.62-.06-.84-.18-.22-.12-.4-.28-.54-.48-.13-.2-.23-.43-.29-.69-.06-.26-.09-.53-.09-.81,0-.27.03-.56.08-.87s.13-.63.24-.94c.11-.31.24-.61.41-.9.16-.29.36-.55.59-.77.23-.22.5-.4.79-.54.3-.13.64-.2,1.01-.2.35,0,.66.07.93.22.27.15.51.36.71.64l.1-.5c.02-.09.08-.15.2-.19.12-.04.3-.06.56-.06.13,0,.23,0,.32.02s.15.03.2.04c.05.02.08.04.1.08.02.03.02.07.01.11l-1.14,5.68Zm-.79-3.97c-.15-.23-.31-.41-.49-.52s-.39-.17-.62-.17c-.18,0-.34.04-.49.13-.15.08-.28.2-.39.34-.11.14-.21.31-.3.49s-.16.38-.22.58c-.06.2-.1.4-.13.61s-.04.39-.04.57c0,.13,0,.25.03.36.02.11.05.22.1.3s.12.16.2.21.19.08.32.08c.19,0,.38-.06.57-.17.19-.11.38-.26.54-.46.17-.19.32-.42.45-.67s.22-.53.28-.82l.18-.86Z"/>
    <path class="cls-2" d="m347.6,181.82c0,.15,0,.3-.03.45-.02.15-.04.3-.07.46l-.71,3.5s-.03.08-.06.11-.08.06-.15.08-.15.04-.25.05-.23.02-.39.02-.28,0-.38-.02-.18-.03-.23-.05c-.05-.02-.09-.05-.11-.08-.02-.03-.02-.07-.02-.11l.69-3.4c.02-.1.04-.21.05-.31s.02-.2.02-.28c0-.19-.04-.35-.12-.47s-.22-.18-.41-.18c-.17,0-.35.05-.54.16-.19.11-.37.26-.53.45s-.32.41-.45.66-.22.52-.28.8l-.51,2.56s-.03.08-.06.11c-.03.03-.08.06-.15.08s-.15.04-.26.05-.24.02-.39.02-.28,0-.38-.02-.18-.03-.23-.05c-.06-.02-.09-.05-.11-.08-.02-.03-.02-.07-.01-.11l1.14-5.67s.03-.08.05-.11c.03-.03.07-.06.13-.08.06-.02.13-.03.22-.04s.2-.02.33-.02.24,0,.32.02c.08.01.15.03.19.04.05.02.08.04.09.08.01.03.02.07,0,.11l-.18.93c.09-.15.21-.3.36-.45s.32-.29.51-.42c.19-.12.4-.22.63-.3s.46-.12.71-.12c.3,0,.54.04.75.13s.36.2.49.35c.12.15.21.32.27.52.05.2.08.41.08.62Z"/>
  </g>
  <g>
    <path class="cls-2" d="m325.98,260.08s0,.08,0,.15c0,.06-.02.13-.03.21-.01.08-.03.15-.05.23-.02.08-.04.15-.07.22s-.06.12-.09.16c-.03.04-.07.06-.11.06-.06,0-.13-.03-.22-.08s-.2-.11-.33-.17-.28-.12-.45-.17c-.17-.05-.37-.08-.59-.08s-.42.03-.58.1c-.16.06-.29.15-.39.25s-.18.22-.23.35-.07.26-.07.39c0,.15.04.29.11.4s.18.22.3.32.27.2.43.29c.16.09.33.19.5.29s.33.21.5.33c.16.12.31.26.44.42.13.16.23.34.3.55s.11.44.11.71c0,.4-.08.77-.24,1.11-.16.34-.39.64-.68.89s-.65.45-1.07.59c-.42.14-.88.22-1.39.22-.27,0-.53-.02-.76-.07-.23-.04-.44-.1-.62-.16-.18-.06-.33-.13-.45-.2-.12-.07-.21-.14-.27-.2-.06-.06-.09-.16-.09-.29,0-.03,0-.08.01-.15,0-.07.02-.14.04-.22s.03-.16.05-.24c.02-.08.05-.16.08-.22.03-.07.06-.12.1-.17.04-.04.08-.06.12-.06.07,0,.16.03.26.1s.22.14.37.22.32.15.53.22c.2.07.45.1.73.1.25,0,.47-.03.66-.1s.35-.15.47-.26c.13-.11.22-.24.29-.38.07-.15.1-.31.1-.48,0-.16-.04-.29-.11-.41s-.18-.23-.3-.33-.27-.19-.43-.28c-.16-.09-.32-.18-.49-.29s-.33-.21-.49-.33c-.16-.12-.3-.26-.43-.42-.12-.16-.23-.34-.3-.55-.08-.21-.11-.45-.11-.72,0-.38.08-.73.23-1.05.15-.32.36-.6.63-.83.27-.23.59-.41.97-.54s.79-.19,1.24-.19c.21,0,.41.02.6.05.19.03.36.07.52.12.16.05.29.1.4.16.11.06.19.11.23.15s.07.08.09.13c.02.04.03.1.03.17Z"/>
    <path class="cls-2" d="m331.45,267.46c-.02.09-.08.15-.2.19-.12.04-.3.06-.56.06-.13,0-.24,0-.32-.01-.08,0-.15-.02-.2-.04-.05-.02-.08-.04-.1-.08-.01-.03-.02-.07,0-.12l.18-.91c-.06.14-.16.28-.3.43-.14.15-.3.29-.49.41-.19.12-.4.22-.63.3s-.47.12-.71.12c-.34,0-.62-.06-.84-.18-.22-.12-.4-.28-.54-.48-.13-.2-.23-.43-.29-.69-.06-.26-.09-.53-.09-.81,0-.27.03-.56.08-.87s.13-.63.24-.94c.11-.31.24-.61.41-.9.16-.29.36-.55.59-.77.23-.22.5-.4.79-.54.3-.13.64-.2,1.01-.2.35,0,.66.07.93.22.27.15.51.36.71.64l.1-.5c.02-.09.08-.15.2-.19.12-.04.3-.06.56-.06.13,0,.23,0,.32.02s.15.03.2.04c.05.02.08.04.1.08.02.03.02.07.01.11l-1.14,5.68Zm-.79-3.97c-.15-.23-.31-.41-.49-.52s-.39-.17-.62-.17c-.18,0-.34.04-.49.13-.15.08-.28.2-.39.34-.11.14-.21.31-.3.49s-.16.38-.22.58c-.06.2-.1.4-.13.61s-.04.39-.04.57c0,.13,0,.25.03.36.02.11.05.22.1.3s.12.16.2.21.19.08.32.08c.19,0,.38-.06.57-.17.19-.11.38-.26.54-.46.17-.19.32-.42.45-.67s.22-.53.28-.82l.18-.86Z"/>
    <path class="cls-2" d="m334.65,267.45s-.03.08-.06.11c-.03.03-.08.06-.14.08-.06.02-.15.04-.25.05-.11.01-.24.02-.39.02-.16,0-.29,0-.39-.02s-.18-.03-.23-.05-.09-.05-.11-.08c-.02-.03-.02-.07-.02-.11l1.67-8.35s.03-.08.06-.12c.03-.03.08-.06.15-.08.07-.02.15-.04.26-.05.1-.01.23-.02.39-.02s.29,0,.38.02c.1.01.18.03.23.05s.09.05.11.08c.02.03.02.07.01.12l-1.66,8.35Z"/>
    <path class="cls-2" d="m342.33,261.77c0,.05,0,.12-.02.18-.01.07-.03.14-.06.21-.14.39-.3.79-.47,1.21-.17.41-.36.84-.57,1.28-.22.44-.46.9-.74,1.37s-.59.96-.95,1.46l-1.55,2.2c-.04.05-.08.1-.14.14-.06.04-.13.07-.22.09s-.19.04-.31.05c-.12.01-.26.02-.43.02-.18,0-.33,0-.44-.02s-.19-.04-.24-.07-.07-.08-.07-.13c0-.05.03-.11.09-.18l1.44-1.9-.93-5.45c0-.05-.02-.11-.03-.17,0-.06-.01-.11-.01-.15,0-.08.01-.14.04-.18s.07-.08.14-.11.15-.04.26-.05c.11-.01.24-.02.4-.02.17,0,.31,0,.41,0,.1,0,.17.02.23.04s.09.05.1.09c.02.04.03.1.04.16l.58,3.97h.01c.21-.32.4-.64.58-.96.17-.33.33-.66.48-.99.14-.34.28-.68.4-1.02.12-.34.23-.69.33-1.04,0-.04.03-.08.06-.11.03-.03.08-.06.15-.08.07-.02.16-.03.28-.04s.26-.02.44-.02c.27,0,.46.02.56.05s.15.09.15.18Z"/>
    <path class="cls-2" d="m347.62,267.46c-.02.09-.08.15-.2.19-.12.04-.3.06-.56.06-.13,0-.24,0-.32-.01-.08,0-.15-.02-.2-.04-.05-.02-.08-.04-.1-.08-.01-.03-.02-.07,0-.12l.18-.91c-.06.14-.16.28-.3.43-.14.15-.3.29-.49.41-.19.12-.4.22-.63.3s-.47.12-.71.12c-.34,0-.62-.06-.84-.18-.22-.12-.4-.28-.54-.48-.13-.2-.23-.43-.29-.69-.06-.26-.09-.53-.09-.81,0-.27.03-.56.08-.87s.13-.63.24-.94c.11-.31.24-.61.41-.9.16-.29.36-.55.59-.77.23-.22.5-.4.79-.54.3-.13.64-.2,1.01-.2.35,0,.66.07.93.22.27.15.51.36.71.64l.1-.5c.02-.09.08-.15.2-.19.12-.04.3-.06.56-.06.13,0,.23,0,.32.02s.15.03.2.04c.05.02.08.04.1.08.02.03.02.07.01.11l-1.14,5.68Zm-.79-3.97c-.15-.23-.31-.41-.49-.52s-.39-.17-.62-.17c-.18,0-.34.04-.49.13-.15.08-.28.2-.39.34-.11.14-.21.31-.3.49s-.16.38-.22.58c-.06.2-.1.4-.13.61s-.04.39-.04.57c0,.13,0,.25.03.36.02.11.05.22.1.3s.12.16.2.21.19.08.32.08c.19,0,.38-.06.57-.17.19-.11.38-.26.54-.46.17-.19.32-.42.45-.67s.22-.53.28-.82l.18-.86Z"/>
    <path class="cls-2" d="m355.31,263.05c0,.15,0,.3-.03.45-.02.15-.04.3-.07.46l-.71,3.5s-.03.08-.06.11-.08.06-.15.08-.15.04-.25.05-.23.02-.39.02-.28,0-.38-.02-.18-.03-.23-.05c-.05-.02-.09-.05-.11-.08-.02-.03-.02-.07-.02-.11l.69-3.4c.02-.1.04-.21.05-.31s.02-.2.02-.28c0-.19-.04-.35-.12-.47s-.22-.18-.41-.18c-.17,0-.35.05-.54.16-.19.11-.37.26-.53.45s-.32.41-.45.66-.22.52-.28.8l-.51,2.56s-.03.08-.06.11c-.03.03-.08.06-.15.08s-.15.04-.26.05-.24.02-.39.02-.28,0-.38-.02-.18-.03-.23-.05c-.06-.02-.09-.05-.11-.08-.02-.03-.02-.07-.01-.11l1.14-5.67s.03-.08.05-.11c.03-.03.07-.06.13-.08.06-.02.13-.03.22-.04s.2-.02.33-.02.24,0,.32.02c.08.01.15.03.19.04.05.02.08.04.09.08.01.03.02.07,0,.11l-.18.93c.09-.15.21-.3.36-.45s.32-.29.51-.42c.19-.12.4-.22.63-.3s.46-.12.71-.12c.3,0,.54.04.75.13s.36.2.49.35c.12.15.21.32.27.52.05.2.08.41.08.62Z"/>
  </g>
  <g>
    <path class="cls-2" d="m189.92,310.09c0,.25-.04.49-.11.71-.07.22-.17.42-.3.61-.13.18-.29.35-.48.49-.19.14-.4.25-.63.34.19.03.36.09.51.18.16.08.29.19.4.32.11.13.2.29.26.46s.09.38.09.61c0,.2-.03.41-.08.63-.05.22-.14.43-.26.64-.12.21-.27.4-.46.59-.19.19-.42.35-.69.49-.27.14-.58.25-.93.34-.35.08-.76.12-1.22.12h-2.28c-.17,0-.3-.04-.38-.13-.08-.09-.1-.22-.06-.4l1.43-7.16c.03-.19.11-.32.23-.4.12-.08.25-.12.4-.12h1.97c.44,0,.81.04,1.13.1.32.07.58.17.8.31.22.14.38.31.49.52.11.21.17.46.17.75Zm-2,3.8c0-.27-.1-.48-.3-.64s-.52-.23-.96-.23h-1.11l-.46,2.34h1.18c.3,0,.55-.04.76-.13.21-.09.38-.2.51-.33.13-.14.23-.29.29-.47.06-.18.1-.36.1-.54Zm.28-3.49c0-.12-.02-.22-.06-.31-.04-.09-.11-.16-.19-.23-.08-.06-.19-.11-.32-.14-.13-.04-.29-.05-.49-.05h-.91l-.43,2.13h.94c.28,0,.5-.04.69-.13.18-.09.33-.2.45-.34.12-.14.2-.29.25-.46.05-.16.08-.32.08-.47Z"/>
    <path class="cls-2" d="m192.03,316.42s-.03.08-.06.11c-.03.03-.08.06-.15.08s-.15.04-.26.05c-.11.01-.24.02-.39.02s-.28,0-.38-.02c-.1,0-.18-.03-.23-.05-.06-.02-.09-.05-.11-.08s-.02-.07-.01-.11l1.12-5.65s.03-.08.06-.11c.03-.03.08-.06.15-.08s.15-.04.25-.05c.1-.01.23-.02.39-.02s.28,0,.38.02c.1.01.18.03.23.05.06.02.09.05.11.08s.02.07.01.11l-1.12,5.65Zm1.64-7.57c-.03.16-.07.29-.12.4-.05.11-.12.2-.2.26-.08.06-.19.11-.31.14-.12.03-.27.04-.46.04s-.32-.01-.43-.04-.2-.07-.25-.14c-.06-.07-.09-.15-.1-.26,0-.11,0-.24.04-.4.03-.15.07-.28.12-.39s.12-.19.2-.26c.08-.07.19-.12.31-.15.12-.03.27-.04.46-.04s.32.02.43.04.2.08.25.15c.06.07.09.15.09.26,0,.11,0,.23-.04.39Z"/>
    <path class="cls-2" d="m195.23,316.42s-.03.08-.06.11c-.03.03-.08.06-.14.08-.06.02-.15.04-.25.05-.11.01-.24.02-.39.02-.16,0-.29,0-.39-.02-.1,0-.18-.03-.23-.05s-.09-.05-.11-.08c-.02-.03-.02-.07-.02-.11l1.67-8.35s.03-.08.06-.12.08-.06.15-.09c.07-.02.15-.04.26-.05.1-.01.23-.02.39-.02s.29,0,.38.02c.1.01.18.03.23.05s.09.05.11.09c.02.03.02.07.01.12l-1.66,8.35Z"/>
    <path class="cls-2" d="m196.8,315.17c0-.3.07-.58.21-.82.14-.24.35-.45.64-.63s.66-.31,1.1-.4c.45-.09.98-.14,1.6-.14h.58c.02-.1.03-.19.04-.29s.01-.18.01-.26c0-.34-.09-.6-.27-.77-.18-.17-.46-.26-.86-.26-.28,0-.53.02-.75.06-.22.04-.42.08-.58.13s-.31.09-.42.13c-.11.04-.19.06-.24.06s-.09-.02-.11-.04-.03-.08-.03-.14c0-.07,0-.15.02-.25.01-.09.03-.19.05-.28.02-.09.05-.18.09-.26.04-.08.08-.14.12-.19.05-.05.14-.1.28-.15s.3-.1.49-.14c.19-.04.4-.08.64-.11s.48-.04.72-.04c.41,0,.76.04,1.06.13s.56.21.76.39.36.39.46.66c.1.27.15.59.15.96,0,.28-.03.59-.08.91-.05.32-.14.64-.26.96-.12.32-.27.62-.46.9-.19.29-.41.54-.68.76-.26.22-.57.39-.92.52-.35.13-.74.2-1.19.2-.38,0-.72-.05-.99-.14-.28-.09-.5-.21-.68-.36s-.31-.32-.4-.51c-.09-.19-.13-.39-.13-.59Zm1.57-.12c0,.17.07.31.2.42.13.11.33.17.58.17.21,0,.4-.04.57-.12s.31-.18.44-.31.24-.28.33-.46.16-.36.22-.56h-.53c-.34,0-.62.02-.85.07s-.41.11-.55.18c-.14.08-.24.17-.3.27-.06.1-.1.21-.1.33Z"/>
    <path class="cls-2" d="m207.81,311c0,.05,0,.12-.02.22s-.04.2-.07.3c-.03.1-.06.19-.1.26s-.08.11-.14.11c-.06,0-.12-.02-.19-.06-.07-.04-.16-.09-.27-.13s-.23-.09-.37-.13c-.14-.04-.31-.06-.5-.06-.15,0-.28.02-.4.06-.12.04-.21.09-.29.15-.08.07-.13.14-.17.23-.04.09-.06.18-.06.29,0,.13.05.24.16.33.11.09.24.17.4.25.16.08.33.16.52.24.19.08.36.19.52.32.16.13.29.28.4.46.11.18.16.41.16.69,0,.32-.06.62-.18.89s-.3.51-.54.71c-.24.2-.52.35-.86.46-.34.11-.72.17-1.14.17-.2,0-.4-.02-.58-.04-.18-.03-.35-.07-.5-.11-.15-.04-.27-.09-.37-.15s-.18-.11-.23-.15c-.03-.04-.06-.07-.07-.11-.01-.04-.02-.09-.02-.15,0-.04,0-.09,0-.15,0-.06.02-.12.03-.2s.03-.14.05-.21c.02-.07.04-.14.07-.2s.05-.11.08-.14c.03-.04.06-.05.1-.05.06,0,.12.03.2.08s.17.11.28.17c.11.06.25.12.42.17s.38.08.63.08c.17,0,.32-.02.45-.06.13-.04.24-.1.32-.17.08-.07.15-.15.19-.25s.06-.19.06-.3c0-.15-.05-.27-.16-.36s-.23-.18-.39-.26-.33-.16-.51-.25c-.18-.08-.35-.19-.51-.31-.16-.12-.29-.28-.39-.46s-.16-.41-.16-.69c0-.3.06-.58.17-.84s.28-.48.5-.68c.22-.19.49-.34.8-.45.31-.11.67-.16,1.07-.16.18,0,.35.01.52.04s.32.05.45.09c.13.04.25.08.35.13s.17.09.21.14c.05.04.07.11.07.21Z"/>
    <path class="cls-2" d="m213.52,316.42s-.03.08-.05.11c-.03.03-.07.06-.13.08-.06.02-.13.04-.22.04-.09.01-.2.02-.33.02s-.24,0-.32-.02c-.08,0-.15-.03-.19-.04-.05-.02-.08-.04-.09-.08-.01-.03-.02-.07,0-.11l.17-.92c-.08.15-.2.3-.35.45s-.32.29-.51.41-.4.22-.63.3c-.22.08-.45.12-.69.12-.3,0-.55-.04-.75-.12s-.37-.2-.5-.34c-.12-.14-.22-.31-.27-.51-.06-.2-.08-.41-.08-.65,0-.14,0-.29.03-.44.02-.15.04-.3.07-.46l.7-3.51s.03-.08.06-.11c.03-.03.08-.06.15-.08s.15-.03.26-.04c.11,0,.24-.02.39-.02s.28,0,.38.02c.1.01.18.03.23.04s.09.04.11.08c.02.03.02.07.02.11l-.67,3.4c-.02.09-.04.19-.05.29s-.02.2-.02.29c0,.1,0,.19.03.28.02.08.05.15.09.21.04.06.1.1.16.13.07.03.15.04.24.04.17,0,.35-.05.54-.17.19-.11.37-.27.54-.46s.32-.43.45-.7c.13-.27.23-.56.3-.87l.48-2.45s.02-.08.06-.11.08-.06.15-.08.15-.03.26-.04c.11,0,.23-.02.39-.02s.29,0,.38.02c.1.01.18.03.23.04.06.02.09.04.11.08s.02.07.01.11l-1.14,5.68Z"/>
    <path class="cls-2" d="m221.2,310.71s0,.1-.02.17c-.01.07-.03.14-.06.22-.16.46-.33.91-.52,1.37-.19.46-.4.91-.63,1.36-.23.45-.47.89-.74,1.32s-.55.85-.86,1.25c-.04.06-.09.11-.15.14-.06.04-.13.06-.22.08s-.18.03-.3.04c-.12,0-.25,0-.4,0-.23,0-.42,0-.55-.02-.13,0-.24-.03-.31-.05s-.12-.06-.15-.11-.04-.1-.04-.17l-.67-5.09c0-.07,0-.13-.01-.19,0-.06,0-.12,0-.17,0-.08,0-.15.03-.19.02-.04.06-.08.11-.11.06-.03.14-.05.25-.06.11-.01.25-.02.43-.02.17,0,.3,0,.4.01.1,0,.17.02.22.04.05.02.09.05.11.08.02.04.03.08.03.13l.48,4.16v.16l.03-.06c.22-.33.41-.65.59-.98s.34-.67.49-1.02.29-.71.42-1.08c.13-.37.26-.77.39-1.18.01-.05.04-.1.07-.13.03-.04.09-.06.16-.08.07-.02.16-.04.27-.04.11,0,.24-.01.4-.01s.28,0,.38.01c.1,0,.18.02.23.04.05.02.09.04.11.06.02.03.03.06.03.1Z"/>
    <path class="cls-2" d="m226.48,316.42c-.02.09-.08.15-.2.19-.12.04-.3.06-.56.06-.13,0-.24,0-.32-.01-.08,0-.15-.02-.2-.04-.05-.02-.08-.04-.1-.08-.01-.03-.02-.07,0-.12l.18-.91c-.06.13-.16.28-.3.43-.14.15-.3.29-.49.41-.19.12-.4.22-.63.3s-.47.12-.71.12c-.34,0-.62-.06-.84-.18-.22-.12-.4-.28-.54-.48-.13-.2-.23-.43-.29-.69-.06-.26-.09-.53-.09-.81,0-.27.03-.56.08-.87.05-.32.13-.63.24-.94.11-.31.24-.62.41-.9.16-.29.36-.55.59-.77s.5-.4.79-.54c.3-.13.64-.2,1.01-.2.35,0,.66.07.93.22s.51.36.71.64l.1-.5c.02-.09.08-.15.2-.19.12-.04.3-.06.56-.06.13,0,.23,0,.32.02.08.01.15.03.2.04s.08.04.1.08c.02.03.02.07.01.11l-1.14,5.68Zm-.79-3.97c-.15-.23-.31-.41-.49-.52-.18-.12-.39-.17-.62-.17-.18,0-.34.04-.49.13-.15.08-.28.2-.39.34-.11.14-.21.31-.3.49-.09.19-.16.38-.22.58-.06.2-.1.4-.13.61s-.04.39-.04.57c0,.13,0,.25.03.36.02.11.05.21.1.3.05.09.12.16.2.21s.19.08.32.08c.19,0,.38-.05.57-.17.19-.11.38-.26.54-.46.17-.19.32-.42.45-.67s.22-.53.28-.82l.18-.86Z"/>
    <path class="cls-2" d="m232.78,310.67s0,.08-.01.16-.02.17-.04.27-.04.21-.06.31c-.03.11-.05.21-.09.3-.03.09-.07.17-.11.23-.04.06-.08.09-.13.09-.04,0-.08,0-.12-.02-.04-.02-.08-.03-.13-.04-.05-.01-.1-.03-.15-.04-.05-.01-.12-.02-.19-.02-.14,0-.3.05-.46.17-.16.11-.32.25-.47.43-.15.18-.28.39-.4.63-.12.24-.2.49-.25.75l-.51,2.54s-.03.08-.06.11c-.03.03-.08.06-.15.08s-.15.04-.26.05c-.11.01-.24.02-.39.02s-.28,0-.38-.02c-.1,0-.18-.03-.23-.05-.06-.02-.09-.05-.11-.08s-.02-.07-.01-.11l1.13-5.67s.03-.08.06-.11c.03-.03.07-.06.13-.08.06-.02.13-.03.22-.04.09,0,.2-.02.33-.02s.24,0,.32.02c.08.01.15.03.19.04.05.02.08.04.09.08s.02.07,0,.11l-.18.9c.1-.18.22-.35.35-.5.13-.15.28-.29.43-.4.15-.11.31-.2.47-.26.16-.06.32-.1.48-.1.06,0,.13,0,.19.01.07,0,.13.02.18.03.06.01.11.03.15.05.04.02.08.04.1.06.03.03.04.07.04.12Z"/>
  </g>
  <g>
    <path class="cls-2" d="m319.53,354.7c-.02.1-.05.18-.1.26s-.11.14-.17.19-.14.09-.22.11-.16.04-.24.04h-.71c-.15,0-.28-.01-.38-.04-.1-.03-.18-.08-.25-.16-.07-.08-.13-.18-.19-.31-.05-.13-.11-.3-.17-.5l-1.21-3.67c-.09-.28-.18-.57-.26-.86-.08-.29-.15-.57-.23-.86h-.01c-.04.33-.09.66-.15.99-.05.32-.12.65-.18.97l-.84,4.2s-.03.08-.06.11c-.03.03-.08.06-.14.08-.06.02-.14.04-.24.05-.1.01-.22.02-.37.02s-.27,0-.37-.02c-.1-.01-.17-.03-.22-.05-.05-.02-.08-.05-.1-.08s-.02-.07,0-.11l1.48-7.39c.04-.2.12-.35.26-.45.14-.1.29-.15.46-.15h.87c.14,0,.26.02.36.05.1.03.18.08.25.15.07.07.13.16.18.27s.1.25.15.41l1.22,3.7c.08.24.15.47.22.7s.13.47.21.7h.01c.05-.3.1-.62.16-.94.06-.32.12-.64.17-.94l.78-3.87s.03-.08.06-.11c.03-.03.08-.06.14-.08.06-.02.14-.03.24-.04s.22-.02.37-.02.27,0,.37.02.17.03.22.04c.05.02.08.04.1.08.02.03.02.07.01.11l-1.48,7.41Z"/>
    <path class="cls-2" d="m327.06,350.65c0,.3-.07.58-.21.82s-.35.45-.64.63-.66.31-1.1.4-.98.14-1.6.14h-.58c-.02.1-.03.19-.04.29,0,.09-.01.18-.01.26,0,.34.09.6.27.77.18.17.46.26.86.26.28,0,.53-.02.75-.06.22-.04.42-.08.58-.13s.31-.09.42-.13c.11-.04.19-.06.24-.06s.09.02.11.04.03.08.03.14c0,.07,0,.15-.02.25-.01.09-.03.19-.05.28s-.05.18-.09.26c-.04.08-.08.14-.12.18-.05.05-.14.1-.28.15s-.3.1-.49.14c-.19.04-.4.08-.64.1s-.48.04-.72.04c-.41,0-.76-.04-1.06-.13-.3-.08-.55-.21-.76-.39s-.36-.39-.46-.66-.15-.59-.15-.96c0-.28.03-.59.08-.91.05-.32.14-.64.26-.96s.27-.62.46-.9.41-.54.68-.76.57-.39.92-.52c.35-.13.74-.2,1.19-.2.38,0,.72.05.99.14s.5.21.68.36.31.32.4.51.13.39.13.59Zm-1.57.12c0-.17-.07-.31-.2-.42-.13-.11-.33-.17-.58-.17-.21,0-.4.04-.57.11s-.31.18-.44.31-.24.28-.33.46-.16.36-.22.56h.53c.34,0,.62-.02.85-.07.23-.04.41-.1.55-.18.14-.08.24-.17.3-.27.06-.1.09-.21.09-.33Z"/>
    <path class="cls-2" d="m335.67,349.46s0,.1,0,.16c0,.07-.02.14-.04.21-.02.08-.04.15-.06.23s-.05.14-.08.21-.06.11-.1.15-.09.06-.14.06h-1.24l-.53,2.66c0,.06-.02.14-.03.22s-.02.16-.02.21c0,.17.04.29.12.37.08.08.21.12.38.12.1,0,.19,0,.26-.02.07-.01.13-.03.19-.05.05-.02.1-.04.14-.05.04-.01.07-.02.11-.02s.06.02.09.05c.02.03.03.08.03.16,0,.08,0,.17-.03.27-.02.1-.04.2-.07.3-.03.09-.06.18-.09.26s-.07.14-.11.17c-.04.04-.1.07-.17.11-.08.03-.17.06-.27.09s-.21.04-.33.06-.24.02-.36.02c-.25,0-.48-.03-.67-.08s-.35-.14-.49-.25-.23-.26-.29-.44-.1-.39-.1-.65c0-.05,0-.1,0-.16s.01-.13.02-.19c0-.07.02-.14.03-.21.01-.07.02-.13.04-.19l.55-2.76h-2.08l-1,4.98c-.07.35-.17.66-.29.93s-.28.49-.47.67c-.19.18-.42.32-.68.41-.26.09-.55.14-.88.14-.22,0-.4-.02-.55-.05-.15-.03-.24-.07-.29-.1-.02-.03-.04-.05-.04-.08s-.01-.07-.01-.13c0-.03,0-.07,0-.13,0-.06.02-.12.03-.19.01-.07.03-.14.05-.22.02-.08.04-.15.06-.21s.05-.12.08-.16.06-.06.1-.06c.03,0,.05,0,.08,0,.03,0,.05,0,.08.02.03,0,.06.01.1.02s.09,0,.16,0c.14,0,.25-.02.35-.06s.18-.1.26-.19.13-.19.18-.33c.05-.13.1-.29.13-.49l.96-4.77h-.71c-.05,0-.09-.02-.12-.05s-.04-.1-.04-.21c0-.04,0-.1,0-.17,0-.07.02-.14.03-.21s.03-.15.05-.23c.02-.08.05-.15.08-.21s.07-.11.11-.15.09-.06.14-.06h.7l.12-.63c.07-.36.17-.67.3-.94.13-.27.29-.5.49-.68s.42-.32.68-.41c.26-.09.56-.14.89-.14.11,0,.22,0,.32.02s.2.02.28.04c.08.02.16.04.22.06s.1.05.13.08c.02.02.04.05.05.08.01.04.02.08.02.14,0,.03,0,.07,0,.12,0,.06-.02.12-.03.19-.01.07-.03.15-.04.22-.02.08-.04.15-.06.21s-.05.12-.08.16c-.03.04-.06.06-.09.06s-.06,0-.1-.02-.08-.02-.12-.04-.1-.03-.17-.04c-.06-.01-.13-.02-.21-.02-.13,0-.25.02-.35.06-.1.04-.18.1-.25.18-.07.08-.13.19-.18.32s-.09.29-.13.47l-.09.48h2.08l.25-1.26s.03-.08.06-.11c.03-.03.08-.06.14-.09s.15-.04.25-.05.23-.02.39-.02.29,0,.38.02.18.03.23.05c.06.02.1.05.11.09.02.03.02.07.02.11l-.25,1.26h1.22c.07,0,.11.02.14.07.03.05.04.11.04.2Z"/>
    <path class="cls-2" d="m337.08,355.32c-.44-.11-.77-.34-1.01-.68s-.36-.81-.36-1.39c0-.26.02-.54.07-.85s.13-.62.24-.93c.11-.31.25-.61.43-.91.18-.29.39-.55.64-.77.25-.22.55-.4.88-.54s.72-.2,1.16-.2c.17,0,.33.01.5.04s.31.06.44.1c.14.04.25.1.36.16.1.06.18.11.23.16s.08.09.1.13c.01.04.02.08.02.14,0,.1-.01.21-.04.33-.02.12-.05.24-.09.35s-.09.2-.14.28c-.06.07-.12.11-.19.11-.06,0-.12-.03-.18-.08-.06-.05-.13-.11-.22-.17s-.2-.12-.33-.17c-.13-.05-.3-.08-.51-.08-.22,0-.42.05-.59.15-.17.1-.33.22-.45.38s-.24.33-.32.53c-.08.2-.15.4-.21.6-.06.2-.09.39-.12.58-.02.18-.03.34-.03.48,0,.34.07.6.22.78s.39.27.71.27c.24,0,.44-.03.61-.09s.31-.13.43-.2c.12-.07.22-.14.31-.2.09-.06.17-.09.24-.09.04,0,.07.02.09.06.02.04.03.09.03.17s0,.16-.03.27c-.02.11-.04.22-.07.33s-.06.21-.1.31c-.04.1-.08.17-.14.23-.06.05-.15.12-.28.2s-.29.14-.47.2c-.18.06-.37.1-.57.12l.08.32c.03.11.05.21.07.3.02.09.03.19.03.28,0,.23-.04.43-.11.59s-.18.3-.31.41c-.14.11-.3.19-.49.24s-.4.08-.63.08c-.12,0-.24,0-.36-.01-.12,0-.22-.02-.32-.04-.1-.02-.18-.04-.26-.06s-.14-.04-.19-.07c-.05-.03-.08-.05-.1-.08s-.03-.07-.03-.12c0-.04,0-.1.02-.18s.03-.15.05-.23.06-.14.1-.2c.04-.06.1-.08.17-.08h.72c.06,0,.12,0,.17-.02.05-.01.1-.04.14-.06s.07-.06.09-.11.04-.1.04-.16c0-.04,0-.09,0-.15,0-.05-.02-.11-.03-.17l-.13-.53Z"/>
    <path class="cls-2" d="m346.09,355.07c-.02.09-.08.15-.2.19-.12.04-.3.06-.56.06-.13,0-.24,0-.32-.01-.08,0-.15-.02-.2-.04-.05-.02-.08-.04-.1-.08-.01-.03-.02-.07,0-.12l.18-.91c-.06.14-.16.28-.3.43-.14.15-.3.29-.49.41-.19.12-.4.22-.63.3s-.47.12-.71.12c-.34,0-.62-.06-.84-.18-.22-.12-.4-.28-.54-.48-.13-.2-.23-.43-.29-.69-.06-.26-.09-.53-.09-.81,0-.27.03-.56.08-.87s.13-.63.24-.94c.11-.31.24-.61.41-.9.16-.29.36-.55.59-.77.23-.22.5-.4.79-.54.3-.13.64-.2,1.01-.2.35,0,.66.07.93.22.27.15.51.36.71.64l.1-.5c.02-.09.08-.15.2-.19.12-.04.3-.06.56-.06.13,0,.23,0,.32.02s.15.03.2.04c.05.02.08.04.1.08.02.03.02.07.01.11l-1.14,5.68Zm-.79-3.97c-.15-.23-.31-.41-.49-.52s-.39-.17-.62-.17c-.18,0-.34.04-.49.13-.15.08-.28.2-.39.34-.11.14-.21.31-.3.49s-.16.38-.22.58c-.06.2-.1.4-.13.61s-.04.39-.04.57c0,.13,0,.25.03.36.02.11.05.22.1.3s.12.16.2.21.19.08.32.08c.19,0,.38-.06.57-.17.19-.11.38-.26.54-.46.17-.19.32-.42.45-.67s.22-.53.28-.82l.18-.86Z"/>
    <path class="cls-2" d="m349.29,355.06s-.03.08-.06.11c-.03.03-.08.06-.14.08-.06.02-.15.04-.25.05-.11.01-.24.02-.39.02-.16,0-.29,0-.39-.02s-.18-.03-.23-.05-.09-.05-.11-.08c-.02-.03-.02-.07-.02-.11l1.67-8.35s.03-.08.06-.12c.03-.03.08-.06.15-.08.07-.02.15-.04.26-.05.1-.01.23-.02.39-.02s.29,0,.38.02c.1.01.18.03.23.05s.09.05.11.08c.02.03.02.07.01.12l-1.66,8.35Z"/>
    <path class="cls-2" d="m356.14,355.07c-.02.09-.08.15-.2.19-.12.04-.3.06-.56.06-.13,0-.24,0-.32-.01-.08,0-.15-.02-.2-.04-.05-.02-.08-.04-.1-.08-.01-.03-.02-.07,0-.12l.18-.91c-.06.14-.16.28-.3.43-.14.15-.3.29-.49.41-.19.12-.4.22-.63.3s-.47.12-.71.12c-.34,0-.62-.06-.84-.18-.22-.12-.4-.28-.54-.48-.13-.2-.23-.43-.29-.69-.06-.26-.09-.53-.09-.81,0-.27.03-.56.08-.87s.13-.63.24-.94c.11-.31.24-.61.41-.9.16-.29.36-.55.59-.77.23-.22.5-.4.79-.54.3-.13.64-.2,1.01-.2.35,0,.66.07.93.22.27.15.51.36.71.64l.1-.5c.02-.09.08-.15.2-.19.12-.04.3-.06.56-.06.13,0,.23,0,.32.02s.15.03.2.04c.05.02.08.04.1.08.02.03.02.07.01.11l-1.14,5.68Zm-.79-3.97c-.15-.23-.31-.41-.49-.52s-.39-.17-.62-.17c-.18,0-.34.04-.49.13-.15.08-.28.2-.39.34-.11.14-.21.31-.3.49s-.16.38-.22.58c-.06.2-.1.4-.13.61s-.04.39-.04.57c0,.13,0,.25.03.36.02.11.05.22.1.3s.12.16.2.21.19.08.32.08c.19,0,.38-.06.57-.17.19-.11.38-.26.54-.46.17-.19.32-.42.45-.67s.22-.53.28-.82l.18-.86Z"/>
  </g>
</svg>