<?xml version="1.0" encoding="utf-8"?>
<!-- Generator: Adobe Illustrator 27.1.1, SVG Export Plug-In . SVG Version: 6.00 Build 0)  -->
<svg version="1.1" id="Layer_1" xmlns="http://www.w3.org/2000/svg" xmlns:xlink="http://www.w3.org/1999/xlink" x="0px" y="0px"
	 viewBox="0 0 750 750" style="enable-background:new 0 0 750 750;" xml:space="preserve">
<g>
	<g>
		<path class="st0" d="M680.34,322.95c-0.15-0.66-0.49-1.04-0.48-1.95c0.01-0.61,0-1.23,0-1.84c0-1.05,0.34-2.73,0.03-3.72
			c-0.68-2.19-3.36-3.1-4.8-4.44c-0.88-0.81-2.08-1.96-2.63-2.88c-0.73-1.22-0.71-3.13-1.07-4.49c-0.76-2.84-1.33-5.65-2.15-8.5
			c-0.46-1.58-0.8-3.05-1.2-4.62c-0.27-1.07-1.17-2.95-1.88-3.86c-0.54-0.69-1.28-1.25-1.83-1.94c-0.42-0.53-0.96-1.14-1.28-1.74
			c-0.26-0.5-0.21-0.9-0.41-1.39c-0.94-2.22-0.65-4.84-0.63-7.37c0.01-2.19-0.65-4.36-1.68-6.29c-0.57-1.07-0.81-2.37-1.85-3.11
			c-0.76-0.54-1.63-0.8-2.48-1.22c-2.1-1.03-3.01-2.32-3.34-4.67c-0.17-0.04,0.89-1.3,0.72-1.34c-0.02-2.06,1.28-2.8,2.96-4.08
			c-0.56-0.32-1.32-0.37-1.9-0.67c-0.73-0.38-1.45-1.04-2.12-1.56c-2.22-1.71-2.65-3.56-3.37-6c-1.07-3.65-2.68-5.13-6.07-6.61
			c-2.23-0.98-4.79-2.43-6.58-4c-1.47-1.29-1.4-1.99-1.39-4.01c0.01-1.86-0.02-3.73,0-5.59c0.01-1.46-0.29-2.41-0.56-3.81
			c-0.21-1.06,0.02-2.14-0.02-3.2c-0.06-1.49-0.69-2.84-0.71-4.32c-0.06-4.31,2.91-9.03,0.57-13.27c-0.86-1.56-2.58-2.33-4.3-2.59
			c-2.81-0.41-4.7-2.1-7.41-2.63c-2.44-0.48-4.96-0.57-6.66-2.43c-0.62-0.68-1.84-1.66-2.33-2.45c-1.06-1.72,0.63-5.23,1.09-6.79
			c0.83-2.79,1.54-5.45,3.23-7.86c2.32-3.31,6.83-7.96,4.68-12.33c-0.36-0.72-1.16-1.13-1.6-1.8c-0.39-0.58-0.67-1.46-0.99-2.11
			c-1.18-2.4-2.45-4.37-3.97-6.59c-1.54-2.24-2.95-4.07-4.9-5.99c-1.44-1.41-1.85-3.07-3.19-4.46c-1.2-1.25-2.55-1.77-4.32-1.85
			c-2.34-0.11-4.53-0.23-6.86,0.02c-3.21,0.34-6.35,1.29-9.58,1.26c-2.55-0.03-5.11,0.08-7.66-0.02c-3.07-0.12-5.97-1.35-8.53-2.94
			c-3.49-2.17-7.07-3.49-11.07-4.31c-2.37-0.48-4.55,0.33-6.89,0.47c-2.88,0.17-5.72,0.58-8.56,1.09c-1.57,0.28-4.03,0.52-5.63,0.06
			c-2.12-0.61-3.92-3.41-5.43-4.89c-1.23-1.2-1.82-1.39-3.62-1.06c-1.17,0.22-2.61,0.46-3.64,1.08c-0.46,0.27-0.84,0.96-1.37,1.16
			c-1.45,2.33-3.86,3.6-6.16,4.94c-1.28,0.75-2.51,1.58-3.54,2.66c-1.42,1.48-2.3,3.31-3.1,5.18c-3.22,7.5-4.12,15.68-6.29,23.49
			c-1.59,5.72-3.95,12.2-9.5,15.19c-3.98,2.15-8.69,2.16-13.02,3.11c-2.77,0.61-5.5,1.55-7.93,3.04c-2.85,1.76-5.16,4.23-7.31,6.77
			c-2.09,2.47-4.06,5.05-6.41,7.28c-1.24,1.18-2.59,2.23-4.15,2.96c-1.35,0.63-2.79,1.01-4.26,1.25c-3.34,0.55-6.69,0.75-9.92,1.83
			c-2.77,0.93-5.11,2.66-6.87,4.98c-1.71,2.26-2.91,4.88-4.1,7.44c-0.4,0.86-0.79,1.72-1.19,2.57c0.07,0.12,0.14,0.24,0.2,0.37
			c0.7,1.49,1.83,2.43,2.46,3.99c1.2,2.95,3.65,3.74,6.26,5.2c1.6,0.89,2.9,1.49,4.68,1.9c1.45,0.33,3.16,0.51,4.46,1.34
			c1.69,1.07,3.05,2.76,4.71,3.73c1.1,0.64,1.84,0.79,2.68,1.8c1.47,1.77,2.58,4.25,2.95,6.51c0.43,2.59,0.66,5.32,0.72,7.93
			c0.03,1.25,0.23,1.89,1.07,2.83c0.96,1.08,2.13,1.36,3.27,2.3c1.45,1.19,2.05,2.72,3.06,4.22c1.32,1.96,2.01,4.02,3.68,5.8
			c0.89,0.95,1.95,1.59,2.88,2.36c0.78,0.63,1.47,1.35,1.92,2.42c0.24,0.57,0.18,1.45,0.57,1.94c0.42,0.52,0.7,0.34,1.25,0.66
			c1.24,0.7,1.65,1.06,3.27,1.11c1.62,0.05,3.45,0.22,5.03,0.04c3-0.34,5.27-2.35,8.06-3.36c3.6-1.3,6.69-3.97,9.57-6.52
			c1.3-1.15,1.92-2.67,3.22-3.72c1.02-0.82,2.54-0.96,3.41-1.97c0.72-0.82,0.76-2.05,1.6-2.84c1.17,0.76,1.9,2.52,2.85,3.54
			c1.33,1.44,2.89,2.59,4.3,3.94c2.5,2.39,5.48,4.48,8.19,6.64c2.37,1.89,4.34,4.11,6.47,6.23c2.92,2.91,6.13,5.5,9.08,8.4
			c1.35,1.33,2.49,2.28,3.61,3.8c1.68,2.27,4.28,3.11,7.01,3.72c5.34,1.2,10.46,0.32,15.84,0.48c3.19,0.09,7.6,0.5,10.39,2.1
			c3.56,2.05,4.93,6.49,9.42,7.31c2.59,0.47,5.32-0.18,7.62-1.37c4-2.08,5.68-9,10.32-9.85c2.16-0.4,2.42,1.35,2.79,3.08
			c0.49,2.29,1.52,3.95,2.88,5.84c1.66,2.31,2.55,3.47,5.6,3.39c2.45-0.06,5.54-0.31,7.91-1.12c2.53-0.86,3.96-3.1,6.23-4.19
			c1.13-0.54,3.66-0.59,4.8-0.86c2.95-0.69,2.9,0.02,4.49,2.19c1.19,1.63,2.84,2.37,4.13,3.81c1.09,1.21,1.67,2.68,2.9,3.81
			c1.62,1.49,3.4,2.19,5.28,3.29c1.68,0.98,2.15,2.32,3.61,3.46c0.89,0.48,1.75,1,2.59,1.55c1.2,1.12,2.4,2.26,3.58,3.4
			c1.67,1.32,3.71,1.83,5.48,2.96c1.82,1.17,2.59,3.15,4.23,4.48c0.74,0.5,1.5,0.97,2.28,1.41c0.49,0.66,0.77,1.39,0.82,2.21
			c0.45,1.15,1.75,2.14,2.95,2.8c0-2.52,0.15-5.09,0.24-7.46C679.96,329.16,681.04,326.08,680.34,322.95z"/>
		<path class="st0" d="M421.38,218.18c1.51,0.11,3.34-0.04,4.72,0.71c1.25,0.68,1.79,1.84,2.56,2.97c0.55,0.81,1.12,1.53,1.64,2.29
			c0.93-2.01,1.86-4.02,2.9-5.97c1.27-2.39,2.81-4.68,4.94-6.39c2.46-1.97,5.45-2.93,8.51-3.51c3.05-0.57,6.24-0.57,9.18-1.62
			c3.22-1.15,5.6-3.73,7.78-6.26c2.12-2.46,4.08-5.06,6.37-7.36c2.28-2.29,4.85-4.13,7.84-5.37c2.36-0.98,4.84-1.57,7.35-2
			c4.3-0.73,8.98-1.01,12.47-3.94c2.19-1.84,3.69-4.34,4.84-6.93c1.68-3.76,2.62-7.88,3.52-11.88c0.86-3.87,1.62-7.77,2.71-11.59
			c0.58-2.02,1.25-4.01,2.05-5.94c0.73-1.76,1.51-3.52,2.69-5.03c1.85-2.36,4.43-3.58,6.92-5.13c1.16-0.72,2.27-1.58,3.09-2.69
			c0.2-0.27,0.38-0.55,0.55-0.85c-0.6-1.91-2.09-3.62-3.13-5.25c-1.2-1.88-2.51-3.47-3.39-5.53c-1.08-2.53-2.07-5.29-2.54-8
			c-0.64-3.66-0.84-7.75-2.53-11.11c-0.85-1.69-1.17-3.61-2.16-5.17c-0.61-0.98-1.09-1.7-1.54-2.8c-0.94-2.33-2.24-4.57-3.94-6.41
			c-1.64-1.77-2.7-3.97-4.41-5.65c-2.04-1.99-3.36-4.5-5.35-6.44c-3.18-3.09-5.39-7.48-9.37-9.84c-1.73-1.03-3.79-1.13-5.57-1.83
			c-1.19-0.47-2.18-1.28-3.33-2c-1.46-0.92-3.31-1.33-4.96-1.71c-2.12-0.5-2.35-0.66-3.15-2.7c-0.6-1.53-1.17-2.59-1.16-4.36
			c0.01-1.53,0-3.06,0-4.59c0-3.65-0.54-7.81-0.02-11.42c0.14-0.99,0.6-1.75,0.65-2.77c0.04-0.71-0.02-1.44-0.02-2.15
			c0.01-1.23-0.27-2.06-0.53-3.08c-0.55,0.1-1.11,0.2-1.68,0.27c-2.87,0.33-5.57-0.02-8.42,0.64c-2.59,0.59-4.61,1.02-7.28,0.81
			c-3.27-0.25-6.49,0-9.76-0.09c-6.38-0.16-13.34-3.03-19.13-5.69c-1.75-0.8-3.93-1.77-4.38-3.78c-0.26-1.13,0.44-2.45-0.46-3.51
			c-0.92-1.09-2.43-1-3.93-0.53c0.71,1.65,1.96,4.56,2.02,5.5c0.14,1.99,0.38,4.81-0.15,6.71c-0.51,1.84-0.27,3.57-0.53,5.49
			c-0.73,5.44-1.98,10.74-6.7,14.2c-2.23,1.63-4.83,2.94-7.41,3.93c-2.02,0.77-4.36,0.61-6.21,1.64c-4.12,2.3-8.02,6.98-12.92,7.34
			c-2.53,0.19-4.97-0.79-6.86-2.42c-1.33-1.16-2.25-2.75-3.68-3.78c-1.25-0.9-2.88-1.39-4.22-2.14c-3.36-1.88-6.29-4.37-9.87-5.85
			c-3.83-1.59-7.2-4.06-10.46-6.61c-1.44-1.13-2.81-2.25-4.52-2.94c-2.05-0.83-4.25-0.82-6.36-1.46c-3.96-1.2-7.7-2.6-9.4-6.67
			c-1.47-3.51-4.12-2.7-7.03-1.36c-2.44,1.12-4.38,1.49-7.04,0.96c-1.91-0.38-3.87-0.81-5.72-1.42c-2.61-0.86-4.18-3.25-6.74-4.2
			c-0.13-0.05-0.28-0.09-0.45-0.13c-0.24,0.32-0.45,0.66-0.71,0.87c-0.84,0.68-1.64,1.58-2.45,2.31c-1.01,0.91-1.26,1.85-2.07,2.85
			c-0.88,1.08-1.84,1.69-2.47,3.04c-1.02,2.18-1.58,4.52-2.52,6.73c-0.68,1.6-1.39,3.45-2.33,4.9c-0.54,0.83-1.06,1.41-1.48,2.18
			c0.22,0.22,0.36,0.48,0.41,0.8c0.2,0.41,0.38,1.41,0.46,1.9c0.33,1.92-0.06,3.87,0.29,5.81c0.38,2.09,0.51,2.8-0.11,4.92
			c-0.59,2.05-1.09,3.95-1.45,6.05c-0.6,3.48-0.26,6.76,0.27,10.22c0.91,5.9,3.9,11.46,5.23,17.3c0.46,2,1.41,4.87,0.15,6.81
			c-1.34,2.07-4.46,2.23-5.97,4.15c-1.79,2.29-1.12,5.39-0.76,8c0.42,3.08,0.24,6.03,0.44,9.13c0.18,2.81,0.59,5.39,1.43,8.06
			c0.38,1.22,1.14,2.61,1.24,3.87c-1.03-0.8-2.54-0.24-4.07,0.75c0.8,0.39,0.37-0.22,1.47,0.2c0.61,0.23,1.28,0.77,1.99,0.94
			c1.01,0.25,2.03,0.12,3.08,0.14c1.01,0.01,1.53-0.25,2.46-0.48c0.51-0.12,1.9-0.65,2.21-0.65c2.04,0.04,3.8,1.43,5.81,1.77
			c1.81,0.31,3.63,0.37,5.48,0.72c2.95,0.56,6.05,0.07,8.91,0.79c2.17,0.54,4.21,0.15,6.35,1.06c2.32,0.99,4.54,2.71,6.94,3.43
			c2.88,0.87,4.01-1.15,6.04-2.85c1.95-1.64,3.75-2.12,6.14-2.55c2.01-0.36,4.37-2.07,6.55-1.2c1.52,0.61,2.04,2.7,2.8,3.96
			c1.18,1.96,3.07,4.36,4.95,5.71c1.11,0.8,2.35,1.71,3.61,2.24c1.67,0.7,3.66,1.87,5.39,2.18c2.61,0.48,4.81-0.56,6.98,1.38
			c0.78,0.7,1.14,1.61,1.97,2.2c1.08,0.77,2.59,1.16,3.62,2.12c0.97,0.92,1.89,2.76,2.43,3.97c1.69,3.78-1.19,6.29-2.49,9.71
			c-1.62,4.26-1.98,8.6-3.04,12.95c-0.99,4.05-1.75,8.82-1.32,12.95c0.26,2.5,0.62,5.37,2.66,7.05c1.54,1.27,3.18,2.7,5.06,3.38
			c1.59,0.57,3.24,0.98,4.81,1.56c1.62,0.6,3.15,0.89,4.81,1.31c1.47,0.37,2.8,0.39,4.28,0.68c1.98,0.39,3.97,0.72,5.98,0.94
			c1.26,0.14,2.68,0.04,3.94,0.26c1.56,0.27,2.79,1.16,4.26,1.62c1.6,0.5,3.31,0.8,4.94,1.18c1.37,0.32,2.41,1,3.64,1.45
			C417.01,215.47,418.56,217.98,421.38,218.18z"/>
		<path class="st0" d="M210.73,599.27c0,0.74,0.2,1.78,0.03,2.49c-0.22,0.9-0.61,1.03-0.65,2.12c-0.03,0.76,0.19,1.75,0.03,2.49
			c-0.15,0.7-0.51,1.1-0.66,1.8c-0.13,0.62-0.04,1.82,0.08,2.43c0.07,0.35,0.45,0.37,0.51,0.72c0.09,0.49-0.06,1,0.02,1.49
			c0.15,0.94,0.89,1.58,1.14,2.46c0.23,0.79,0.4,1.65,0.6,2.43c0.32,1.24-0.18,2.58,0.11,3.79c0.27,1.13,0.64,1.81,0.65,3.01
			c0.01,1.45,0.38,2.49,1.39,3.54c0.72,0.75,0.76,0.51,1.69,0.77c0.73,0.2,1.4,0.48,2.13,0.64c3.73,0.79,5.55-2.44,7.6-4.98
			c1.13-1.4,1.91-2.81,2.7-4.41c1.07-2.16,2.75-4.13,4.21-6.02c1.24-1.61,2.6-3.19,3.68-4.93c0.94-1.51,1.75-3.06,3.36-3.77
			c1.46-0.65,3.49-0.08,4.93,0.67c2.65,1.39,5.5,2.99,8.35,3.89c3.2,1.01,4.58-1.03,6.76-3.12c2.12-2.03,4.4-3.59,7.37-3.83
			c5.46-0.44,9.5-5.54,12.61-9.59c0.98-1.28,2.2-2.42,3.15-3.7c0.95-1.28,1.08-3.08,1.8-4.52c1.11-2.22,1.48-4.67,3.25-6.37
			c1.51-1.45,1.49-1.76,3.68-1.21c2.79,0.69,5.88,1.38,8.75,1.4c2.29,0.01,4.05,0.41,6.13,1.32c2.83,1.25,5.08,2.63,5.67,5.71
			c0.33,1.76,0.54,3.48,0.81,5.26c0.38,2.49,1.39,4.17,2.41,6.44c1.82,4.02,3.72,7.88,5.81,11.74c1.44,2.67,1.41,6.13,2.14,9.01
			c0.46,1.8,0.07,4.06,0.88,5.59c1.65,3.11,4.89,2.45,7.97,2.37c3.35-0.09,6.78-1.42,10.07-2.04c2.67-0.51,4.94-0.99,7.65-1.07
			c6.29-0.17,4.32-6.09,3.59-10.52c-0.49-2.97-1.63-5.8-2.63-8.63c-1.12-3.17-1.84-6.44-3.11-9.56c-0.93-2.29-1.24-4.6-1.22-7.08
			c0.01-1.32-0.27-2.77,0.35-3.93c0.61-1.15,1.88-3.01,2.83-3.9c0.75-0.7,1.55-0.95,2.46-1.31c2.13-0.85,3.94-1.86,5.43-3.68
			c1.92-2.35,1.62-4.72,2.16-7.47c0.36-1.82,1.04-3.85,1.83-5.52c0.9-1.92,2.21-3.6,4.2-2.49c0.85,0.47,2.59,1.12,2.26,2.32
			c2.97,1.5,6.89,1.37,9.61,3.26c1.53,1.06,2.83,2.59,4.57,3.43c2.67,1.3,5.8,0.61,8.61,1.18c1.35,0.27,2.51,0.9,3.87,0.96
			c0.62,0.03,1.12-0.07,1.58-0.23c-0.15-0.36-0.31-0.74-0.49-1.17c0.18,0.43,0.34,0.81,0.49,1.17c0.87-0.3,1.59-0.8,2.62-1.06
			c1.31-0.33,2.43-0.52,3.67-1.19c1.07-0.58,2.41-0.79,3.67-1.04c0.02-0.15,0.04-0.31,0.07-0.47c0.39-1.57,1.42-3.05,1.89-4.64
			c0.89-3.02,2.48-5.78,3.26-8.84c0.59-2.32,0.38-4.71,0.36-7.09c-0.03-3.86,0.47-7.61-1.31-11.17c-1.1-2.19-2.8-4.01-3.9-6.19
			c-0.74-1.48-1.34-3.09-1.86-4.66c-0.95-2.88-1.38-5.91-2.75-8.64c-0.74-1.48-1.91-4.05-3.24-5.12c-1.24-0.99-2.93-0.83-4.24-1.89
			c-1.2-0.98-1.79-1.62-1.56-3.1c0.48-3.1,2.33-5.81,3.46-8.67c1.44-3.67,3.55-6.89,5.53-10.32c2.13-3.7,4.36-6.88,4.36-11.22
			c0-5.26-1.47-10.42-1.82-15.68c-0.11-1.63,0.57-3.62-1.06-4.57c1.24-0.13,2.02,0.71,3.17,0.69c0.61-0.01,1.19-0.21,1.78-0.39
			c-0.54-1.03-0.23-0.63-1.16-2.11c-0.83-1.32-1.72-2.5-2.92-3.54c-1.34-1.16-3.36-1.77-5.08-2.31c-0.86-0.27-1.6-0.82-2.43-0.95
			c-0.83-0.13-1.43-0.08-2.18-0.28c-1.64-0.44-3.46-0.22-5.26-0.28c-1.46-0.05-2.83-0.54-4.29-0.64c-1.01-0.07-1.09-0.12-1.91-0.54
			c-1.35-0.69-1.76-1.41-2.51-2.68c-0.79-1.34-2.05-2.82-3.24-3.86c-2.26-1.97-4.72-2.19-7.59-2.78c-3.98-0.81-8.52-0.34-11.94-2.57
			c-1.08-0.7-1.55-1.81-2.4-2.61c-0.73-0.69-1.65-1.13-2.41-1.89c-1.22-1.23-2.19-2.73-3.5-3.85c-1.76-1.49-3.2-0.19-5.11-0.15
			c-1.74,0.04-3.49-0.01-5.23-0.01c-1.82,0-3,0.03-4.59,0.69c-1.31,0.55-3.8,1.46-5.26,1.19c-0.87-0.16-1.16,0.01-1.46,0.16
			c0.02,0.09,0.06,0.17,0.08,0.26c0.66,2.9-1.23,5.71-3.26,7.58c-3.15,2.91-7.19,4.79-10,8.1c-3.18,3.75-4.5,9.55-10.75,8.36
			c-9.06-1.73-17.85-8.28-23.24-15.59c-1.87-2.54-4.41-5.59-4.33-8.9c0.1-3.83-2.17-6.9-4.48-9.7c-2.07-2.51-4.54-5.61-7.9-6.22
			c-3.2-0.58-5.68,1.05-8.55,2.22c-3.98,1.61-7.06,3.29-10.44,5.99c-2.41,1.92-4.51,4.29-6.16,6.9c-1.01,1.6-1.91,3.41-3.19,4.83
			c0.23,0.27,0.43,0.58,0.62,0.91c0.39,0.71,1.18,2.3,1.21,3.03c0.02,0.37-0.54,1.9-0.65,2.33c-0.25,1.08-0.64,2.13-1.09,3.14
			c-0.85,1.9-1.83,3.51-3.08,5.18c-1.57,2.1-3.59,4.35-4.8,6.65c-0.77,1.46-1.35,2.47-2.57,3.66c-1.62,1.59-3.09,3.13-4.45,4.93
			c-2.04,2.7-5.06,4.55-7.76,6.53c-1.69,1.24-3.53,1.98-5.18,3.31c-1,0.8-1.98,1.65-3,2.42c-1.55,1.17-2.96,1.89-4.85,1.32
			c-1.6-0.48-2.89-1.12-4.29-2c-2.23-1.41-3.38-3.25-5.26-5.1c-1.17-1.15-2.29-2.35-3.45-3.5c-1.81-1.77-3.82-2.77-5.85-4.22
			c-1.52-1.08-2.83-2.24-4.42-3.23c-1.09-0.68-2.4-1.43-3.39-2.26c-1.89-1.59-3.43-3.57-5.51-4.99c-1.52-1.03-3.68-1.88-5.41-2.42
			c-2.77-0.86-5.24-1.59-7.81-2.91c-2.66-1.36-5.08-3.13-7.71-4.61c-5.74-3.23-9.91-8.49-14.79-12.8c-2.66-2.36-5.21-4.79-7.98-7.02
			c-1.73-1.39-2.85-3.04-4.29-4.69c-1.48-1.69-3.19-2.64-4.96-3.96c-4.3-3.2-9.08-5.46-12.61-9.54c-1.67-1.93-3.48-3.7-5.07-5.71
			c-1.06-1.33-2.23-2.84-3.7-3.71c-0.98-0.58-1.95-1.32-2.96-1.86c-0.93-0.5-1.88-0.25-2.77-0.87c-1.35-0.94-2.36-3.19-3.04-4.61
			c-0.87-1.8-1.92-3.49-2.8-5.28c-0.58-1.17-0.71-2.43-1.35-3.54c-0.65-1.11-1.09-2.81-2.46-3.24c-1.38-0.43-2.89,0.09-4.29-0.1
			c-1.28-0.17-2.48-0.76-3.69-1.11c-1.44-0.42-2.86-0.73-4.34-0.77c-1.47-0.04-2.33,0.4-3.69,0.65c-1.7,0.31-3.29-0.58-4.96-0.66
			c-1.18-0.06-1.95,0.23-3.04,0.49c-2.1,0.52-3.84,1.31-5.71,2.43c-0.67,0.4-1.6,0.92-2.14,1.52c-0.5,0.56-1.52,1.81-1.88,2.46
			c-0.33,0.6,0.05,1.15-0.09,1.76c-0.13,0.56-0.55,0.61-0.68,1.17c-0.26,1.08,0.05,2.6,0.03,3.72c-0.02,1.31,0.49,1.88,0.63,3.07
			c0.14,1.19-0.01,2.5-0.01,3.71c0,2.04,0,4.09,0,6.13c1.3-0.49,2.54-1.18,3.82-1.73c3.02-1.3,4.83-3.65,7.28-5.74
			c1.23-1.06,2.35-2.24,3.5-3.4c0.64-0.65,1.48-1.75,2.36-1.99c0.24,0.78-0.01,1.61,0.16,2.4c0.28,1.24,0.74,2.5,1.05,3.74
			c0.92,3.68,7.02,2.67,9.58,4.55c0.94,0.69,1.6,1.7,2.52,2.42c0.89,0.7,1.92,1.21,2.81,1.92c1.49,1.18,2.1,2.62,2.93,4.23
			c0.61,1.17,1.09,2.24,1.62,3.46c0.87,2,2.17,4.36,3.62,5.97c1.6,1.79,2.97,3.74,4.46,5.61c0.77,0.98,1.76,1.76,2.62,2.65
			c1.41,1.46,1.68,3.2,1.96,5.13c0.32,2.17,1.72,3.86,2.86,5.65c2.03,3.18,3.38,6.49,6.2,9.12c1.72,1.6,3.23,3.42,4.42,5.47
			c0.57,0.98,0.8,1.15,1.76,1.74c1.25,0.77,2.27,1.82,3.34,2.82c1.47,1.38,3.05,2.46,4.81,3.46c1.4,0.8,2.71,2.13,4.18,2.72
			c1.1,0.44,2.22,0.27,3.18,1.08c0.56,0.47,0.75,1.15,1.23,1.67c0.65,0.7,1.3,0.84,2.1,1.3c0.92,0.53,1.26,1.4,2.01,2.09
			c1.19,1.1,1.84,1.2,2.4,2.88c0.37,1.12,0.54,1.96,0.5,3.14c-0.09,2.64-1.44,5.47-0.04,7.89c1.09,1.88,2.58,3.5,3.74,5.33
			c0.75,1.18,1.33,2.57,1.96,3.82c0.66,1.33,0.64,2.59,0.99,3.98c0.43,1.71,1.31,3.43,1.94,5.07c0.81,2.09,2.39,3.69,3.31,5.71
			c0.85,1.86,1.19,3.73,2.53,5.34c1.3,1.57,2.23,2.95,3.95,4.11c1.15,0.77,2.78,1.02,3.76,2.03c0.74,0.77,0.61,1.28,0.99,2.1
			c0.59,1.26,1.78,1.83,2.75,2.74c1.3,1.23,1.21,3.03,2.46,4.19c0.77,0.72,2.09,1.15,3.05,1.58c1.34,0.6,2.07,1.13,3.07,2.16
			c1.29,1.33,2.69,2.58,4.01,3.91c0.68,0.68,1.45,1.23,2.14,1.9c1.2,1.15,1.82,2.62,2.83,3.88c0.85,1.05,2.24,1.08,3.33,1.71
			c0.82,0.46,1.26,1.52,1.66,2.36c0.7,1.46,1.47,2.81,2.26,4.24c0.96,1.74,2.17,3.19,4.2,3.25c0.81,0.02,0.79-0.17,1.42,0.53
			c0.92,1.02,0.77,2.42,2.05,3.21c0.56,0.34,1.04,0.41,1.58,0.8c1.41,1.02,2.32,2.38,4.06,2.84c0.47,0.13-0.27,0.86,0.08,1.13
			c0.47,0.37,1.07,0.58,1.57,0.92c0.81,0.55,1.56,1.19,2.36,1.75c1.61,1.12,3.38,2,5.03,3.07c0.79,0.51,1.56,0.96,2.04,1.74
			c0.41,0.67,0.7,1.65,0.84,2.46c0.09,0.52-0.04,1.03,0.07,1.55c0.2,0.1,0.31,0.26,0.34,0.48c0,0.28-0.01,0.57-0.03,0.85
			c0.1,0.81,0.45,1.45,1.03,2.04c0.58,0.58,1.32,0.99,1.95,1.54c0.73,0.64,1.25,0.74,2.15,0.91c2.12,0.4,3.69,1.47,4.52,3.53
			c0.44,1.11,0.87,1.97,1.54,2.95c0.33,0.48,0.71,0.66,1.13,1.01c0.53,0.43,0.66,0.83,1.06,1.34c1.38,1.77,3.22,3.2,5.47,3.58
			c-0.09,0.59-1.49,0.27-2.02,0.41c-1.09,0.28-2.22,0.7-3.31,1.05c-1.42,0.46-2.61,1.08-3.98,1.65c-1.37,0.57-2.77,0.74-4.21,1
			c-0.86,0.16-1.64,0.34-2.45,0.62c-1.03,0.36-2.02,0.34-3.04,0.52c0.53,1.81,1.15,4.16,1.43,5.73
			C211.03,595.85,210.73,597.72,210.73,599.27z"/>
		<path class="st0" d="M623.35,522.91c-3.34,0.16-6.57,1.05-9.91,1.21c-2.19,0.11-5.42-0.92-6.58,1.3
			c-0.65,1.24-0.77,2.93-1.19,4.26c-0.47,1.5-1.19,2.95-2.14,4.22c-1.27,1.69-5.1,6.15-7.47,5.37c-2.47-0.81-2.78-4.52-5.28-5.52
			c-3.31-1.33-7.25,0.68-10.75-0.32c-3.43-0.98-5-3.77-7.35-6.12c-0.87-0.87-1.91-1.52-2.6-2.54c-0.59-0.88-0.68-1.78-1.06-2.76
			c-0.98-2.52-2.24-3.73-4.95-4.4c-1.53-0.37-3.54-0.67-4.94-1.4c-1.5-0.79-1.99-1.51-2.53-2.99c-0.41-1.13-0.5-1.32-1.55-2.09
			c-2.84-2.1-6.49-3.8-8.48-6.85c-1.86-2.85-1.98-6.33-2.31-9.61c-0.3-2.89,0.1-8.77-4.38-8.54c-2.14,0.11-3.88,2.56-5.96,3.26
			c-2.36,0.8-5.02-0.12-7.25,0.74c-1.9,0.72-3.51,3.51-4.06,5.34c-0.67,2.24,0.08,4.57,0.23,6.87c0.35,5.45-0.81,9.51-2.43,14.66
			c-2.37,7.5-8.36,12.89-15.09,16.62c-2.03,1.12-5.03,2.11-6.7,3.72c-1.12,1.09-1.98,3.35-2.8,4.68c-1.69,2.72-3.02,5.45-3.11,8.69
			c-0.07,2.27,0.2,4.55-0.09,6.82c-0.49,3.81-1.34,7.44-1.13,11.31c0.16,2.82,0.79,5.5,1.56,8.21c0.48,1.71,0.74,3.53,1.29,5.21
			c0.45,1.37,0.97,2.1,0.9,3.58c-0.36,7.67-13.09,5.83-17.83,6c-2.39,0.09-4.21,0.94-6.16,2.29c-3.27,2.28-6.79,4.77-8.98,8.16
			c-1.59,2.47-2.51,4.74-4.63,6.89c-0.79,0.8-2.45,3.12-3.75,3.14c-1.57,0.03-2.55-2.52-3.38-3.5c-1.22-1.46-2.96-2.52-4.11-3.95
			c-1.03-1.28-1.24-3.17-1.72-4.68c-0.75-2.38-1.65-4.72-3.08-6.77c-2.43-3.49-6.16-5.59-9.37-8.29c-3.21-2.7-5.5-7.57-9.63-8.93
			c-1.71-0.56-3.49-0.29-5.22-0.88c-2.08-0.71-4.15-1.71-6.12-2.68c-2.14-1.05-5.65-3.01-5.37-5.81c-1.26,0.25-2.6,0.46-3.67,1.04
			c-1.23,0.66-2.35,0.85-3.67,1.19c-1.03,0.26-1.75,0.76-2.62,1.06c1.6,3.83,1.37,4.12-1.07,8.32c-1.15,1.98-1.61,4.2-2.62,6.23
			c-1.07,2.15-3.11,3.62-4.79,5.3c-3.3,3.3-5.65,8.41-7.32,12.7c-2.05,5.24-1.97,11.85-1.91,17.43c0.05,4.34-0.66,8.59-0.63,12.93
			c0.03,4.02-0.53,8.4,0.34,12.33c0.7,3.17,2.62,6.27,4.58,8.84c1.96,2.57,3.58,5.22,5.86,7.53c2.32,2.35,4.02,5.2,6.31,7.57
			c1.43,1.48,3.47,3.02,3.89,5.15c0.25,1.28-0.05,3.4-0.06,4.64c-0.01,1.86,0.14,3.65,0.32,5.5c0.37,3.77,0.46,7.1-0.48,10.8
			c-0.66,2.59-1.53,5.06-1.37,7.78c0.12,1.96,0.37,5.44,1.9,6.93c-0.88,1.11-3.37,0.6-4.68,0.59c-0.97-0.01-1.64,0.1-2.46,0.31
			c-0.49,0.12-1.49,0.23-1.85,0.65c-0.95-1.07-5.98-0.46-7.39-0.37c-0.37,0.02-0.74,0.06-1.11,0.12c0.04,0.08,0.13,0.22,0.35,0.53
			c1.05,1.44,2.17,2.91,3.33,4.29c1.87,2.21,4.28,3.71,6.39,5.54c1.24,1.07,2.59,2.17,3.51,3.54c0.74,1.11,1.16,2.41,1.6,3.61
			c0.49,1.34,1.02,2.45,2.22,3.34c1.63,1.2,2.89,0.34,4.59-0.46c2.29-1.07,4.45-2.38,6.5-3.86c2-1.44,3.41-3.08,5.7-4.17
			c2.61-1.24,5.9-4.57,8.73-2.47c3.41,2.53,5,6.95,9.27,8.37c1.23,0.41,2.3,0.55,3.32,0.93c0.13-0.28,0.27-0.58,0.43-0.9
			c-0.15,0.32-0.29,0.62-0.43,0.9c0.6,0.23,1.18,0.54,1.76,1.04c1.41,1.24,2.17,2.78,3.34,0.63c1.14-2.08,2.43-4.02,3.45-6.17
			c0.73-1.54,1.79-3.33,2.24-4.93c0.37-1.34,0.94-2.47,1.43-3.8c0.68-1.86,1.52-2.98,2.58-4.52c0.49-0.71,1.22-1.92,1.46-2.76
			c0.29-0.99-0.15-1.9,0.45-2.76c0.51-0.73,1.68-0.95,2.46-1.28c1.97-0.85,3.99-1.57,6.02-2.28c2.32-0.81,4.68-2.1,7.13-2.4
			c0.3-3.55,3.26-5.45,6.1-7.3c3.13-2.03,6.54-4.51,8.52-7.68c1.65-2.64,4.1-4.08,6.29-6.3c0.78-0.79,1.07-1.73,1.67-2.62
			c0.77-1.14,1.75-1.79,2.73-2.74c0.88-0.86,1.55-1.91,2.41-2.79c1.86-1.92,4.13-3.35,5.96-5.32c4.1-4.4,6.97-9.67,12.6-12.44
			c2.37-1.17,4.52-2.57,6.81-3.86c1.26-0.71,2.14-0.55,3.62-0.56c2.42-0.02,3.59,0.79,4.93,3.02c2.2,3.66,3.31,7.38,4.17,11.42
			c0.45,2.08,0.14,4.44,0.14,6.54c0,1.63,0.16,3.33-0.05,4.94c-0.23,1.72-0.63,3.24-0.57,5.01c0.06,2.08,0.47,2.93,1.84,4.3
			c2.11,2.11,3.17,4.59,4.47,7.26c1.97,4.05,8.09,0.68,11.49,0.6c2.57-0.06,5.34-0.61,7.88-0.21c2.29,0.36,2.63,1.66,3.88,3.46
			c2.13,3.08,3.62,6.33,5.56,9.54c0.91,1.5,1.28,3.03,3.02,3.24c0.81,0.1,1.7,0.03,2.51-0.07c0.78-0.11,1.76-0.7,2.52-0.61
			c1.3,0.16,1.58,1.02,2.96,1.46c2.24,0.72,4.09,0.39,6.29-0.18c2.28-0.6,4.74-1.3,6.67,0.12c0.58,0.43,1.07,0.9,1.58,1.41
			c0.65,0.65,1.08,1.62,1.67,2.2c0.91,0.89,1.8,0.42,2.96,0.56c0.66,0.08,0.93,0.38,1.49,0.49c0.75,0.15,1.48-0.01,2.2,0.11
			c1.4,0.22,1.85,1.18,2.71,2.15c1.26,1.43,2.5,2.94,4.06,4.05c0.62,0.44,1.19,0.91,1.74,1.41c0.02-0.08,0.04-0.16,0.06-0.24
			c0.78-2.42,2.18-4.53,3.11-6.82c1.8-4.46,0.07-10.05,0.74-14.79c0.96-6.81,1.73-13.32,1.72-20.22c-0.01-7.68-2.29-15.45-0.9-23.12
			c0.84-4.63,3.11-9.14,3.36-13.82c0.2-3.69,2.6-6.24,3.98-9.54c1.52-3.62,4.54-5.47,7.66-7.67c2.31-1.63,4.24-1.47,6.85-0.63
			c3.82,1.23,7.64-0.22,10.65-2.73c0.76-0.64,1.41-1.55,2.48-1.26c1.1,0.3,2.15,2.18,2.82,3.01c1.5,1.85,3.26,3.68,4.64,5.61
			c0.75,1.05,0.98,2.32,1.65,3.44c0.61,1.01,1.64,2.73,2.7,3.33c0.72,0.41,1.44,0.26,2.13,0.81c1.06,0.85,1.66,2.71,2.46,3.8
			c1.33,1.79,2.81,3.51,4.31,5.17c0.74,0.82,1.49,1.99,2.58,2.25c0.74,0.17,1.51-0.22,2.27,0.02c0.51,1.65-0.72,3.06-0.28,4.58
			c0.35,1.18,1.6,2.3,2.49,3.08c1.3,1.14,2.8,0.99,4.33,1.56c1.97,0.74,3.69,2.08,5.85,2.4c1.45,0.21,2.3-0.74,3.65-0.66
			c2.13,0.13,3.86,1.86,6.11,1.95c1.27,0.05,2.55-0.23,3.78,0.09c1.08,0.28,1.8,0.71,2.97,0.42c0.51-2.45,0.99-4.32,0.26-6.72
			c-0.5-1.63-0.67-3.39-1.37-4.93c-0.51-1.12-0.93-1-1.88-1.79c-1.08-0.9-1.2-2.27-2.29-3.19c-1.54-1.28-2.57-1.05-4.46-1.15
			c-0.95-0.05-1.56-0.52-2.46-0.67c-0.83-0.14-1.37,0.31-2.03-0.4c-1.16-1.24,0.92-2.44,0.86-3.91c-0.01-0.13-0.72-1.61-0.8-1.69
			c-0.34-0.33-1.3-0.43-1.72-0.73c-1.84-1.27-1.23-3.7-1.23-5.81c0-1.2,0.06-2.41,0.01-3.61c-0.06-1.44-0.57-2.7-0.66-4.12
			c-0.18-2.75,0.67-5.29,0.65-8.03c-0.01-0.62-0.26-1.77,0.09-2.31c0.38-0.58,1.93-1.56,2.51-2c0.93-0.71,2.02-1.09,2.94-1.8
			c0.93-0.71,1.57-1.79,2.48-2.53c3.51-2.82,1.16-5.81-1.12-8.62c-0.93-1.14-1.41-2.22-2.58-3.05c-0.8-0.56-2.63-2.57-3.59-2.42
			c-0.03,1.54-1.16,2.95-2.57,2.47c-0.92-0.31-1.97-1.07-2.94-1.44c-2.16-0.83-4.28-2.29-6.29-3.54c-4.12-2.56-5.19-7.48-7.38-11.45
			c-1.09-1.98-2.66-3.67-3.99-5.5c-1.95-2.7-3.72-5.64-5.61-8.39c-1.54-2.25-3.03-3.85-5.06-5.62c-0.98-0.85-1.65-1.47-2.29-2.58
			c-1.22-2.13-2.12-4.46-3.52-6.49c-0.83-1.2-2.11-1.97-2.94-3.17c-0.92-1.32-1.47-2.83-2.46-4.07c-1.64-2.03-2.49-4.39-3.69-6.76
			c-1.96-3.84-3.82-7.85-3.13-12.29c-0.38-0.01-0.72-0.08-1.3-0.33C632.29,521.54,627.98,522.69,623.35,522.91z"/>
		<path class="st0" d="M680.44,421.31c0.18-0.75,0.55-0.95,0.66-1.8c0.08-0.58-0.01-1.27-0.01-1.86c0-1.47,0.04-2.95,0.01-4.42
			c-0.04-2.26-0.64-4.36-0.63-6.65c0.02-4.41,0-8.83,0-13.24c0-2.35,0.15-4.76,0.01-7.11c-0.09-1.61-0.52-3.28-0.76-4.89
			c-0.66-4.41-1.74-8.7-1.71-13.24c0.02-2.69-0.38-5.65-0.05-8.31c0.26-2.12,1.46-4.08,1.91-6.18c0.26-1.24,0.55-2.36,0.6-3.65
			c0.08-2.02-0.42-3.62-0.64-5.57c-0.17-1.5-0.23-3.09-0.22-4.7c-1.21-0.66-2.51-1.65-2.95-2.8c-0.05-0.82-0.33-1.55-0.82-2.21
			c-0.78-0.44-1.54-0.92-2.28-1.41c-1.64-1.33-2.41-3.31-4.23-4.48c-1.77-1.13-3.81-1.64-5.48-2.96c-1.19-1.14-2.38-2.27-3.58-3.4
			c-0.84-0.55-1.7-1.07-2.59-1.55c-1.46-1.14-1.93-2.47-3.61-3.46c-1.88-1.1-3.66-1.8-5.28-3.29c-1.22-1.13-1.81-2.6-2.9-3.81
			c-1.3-1.44-2.94-2.19-4.13-3.81c-1.59-2.17-1.53-2.88-4.49-2.19c-1.14,0.27-3.67,0.32-4.8,0.86c-2.26,1.08-3.69,3.32-6.23,4.19
			c-2.37,0.81-5.46,1.05-7.91,1.12c-3.05,0.08-3.95-1.07-5.6-3.39c-1.36-1.89-2.39-3.55-2.88-5.84c-0.37-1.72-0.63-3.47-2.79-3.08
			c-4.64,0.85-6.32,7.77-10.32,9.85c-2.3,1.19-5.03,1.85-7.62,1.37c-4.49-0.82-5.86-5.26-9.42-7.31c-2.79-1.6-7.2-2.01-10.39-2.1
			c-5.38-0.15-10.5,0.72-15.84-0.48c-2.73-0.61-5.34-1.45-7.01-3.72c-1.12-1.52-2.26-2.47-3.61-3.8c-2.94-2.89-6.15-5.49-9.08-8.4
			c-2.14-2.12-4.11-4.34-6.47-6.23c-2.71-2.16-5.69-4.25-8.19-6.64c-1.41-1.35-2.97-2.5-4.3-3.94c-0.94-1.02-1.67-2.78-2.85-3.54
			c-0.83,0.78-0.88,2.02-1.6,2.84c-0.88,1-2.39,1.14-3.41,1.97c-1.3,1.05-1.92,2.57-3.22,3.72c-2.87,2.55-5.96,5.21-9.57,6.52
			c-2.79,1.01-5.07,3.02-8.06,3.36c-1.58,0.18-3.42,0.01-5.03-0.04c-1.61-0.05-2.03-0.41-3.27-1.11c-0.56-0.31-0.84-0.13-1.25-0.66
			c-0.39-0.49-0.33-1.37-0.57-1.94c-0.45-1.07-1.14-1.78-1.92-2.42c-0.96,0.96-1.92,1.92-2.88,2.9c-2.34,2.39-5.65,3.83-8.24,5.75
			c-2.58,1.91-3.89,5.84-4.55,8.72c-0.29,1.26,0.53,2.87,1.23,3.99c0.46,0.74,1.14,1.25,1.72,1.86c0.79,0.83,1.57,1.78,2.45,2.61
			c2.83,2.69,6.76,4.86,10.33,6.3c0.45,0.18,1.06,0.81,1.5,0.94c0.94,0.28,2,0.38,2.97,0.6c3.6,0.84,5.49,4.05,7.38,7.07
			c1.08,1.72,2.59,4.47,1.74,6.62c-0.37,0.95-1.65,1.75-2.37,2.46c-1.26,1.26-2.45,2.6-3.85,3.71c-2.72,2.15-5.33,3.93-7.49,6.71
			c-0.78,1-2.38,2.18-2.29,3.6c0.04,0.7,0.34,0.75,0.68,1.35c0.42,0.73,0.89,1.88,1.36,2.51c1.33,1.77,3.87,2.75,5.45,4.23
			c2.05,1.92,3.17,4.93,4.89,7.07c1.43,1.78,4.26,2.16,6.35,2.67c2.59,0.63,3.92,1.76,4.77,4.33c0.63,1.88,1.24,3.97,1.22,5.96
			c-0.01,1.66,0.04,3.05-0.44,4.64c-0.58,1.92-1.75,3.54-2.51,5.4c-1.17,2.86-2.91,5.27-4.31,7.97c-0.93,1.79-2.57,3.99-2.61,6.02
			c-0.03,1.38,0.11,2.78,0.04,4.15c-0.11,2.02-0.7,3.81-0.66,5.88c0.04,2.13-0.14,4.07-0.46,6.18c-0.31,2.01-0.01,3.59,0.34,5.52
			c0.18,1.01,0.18,1.91,0.44,2.9c0.31,1.17,1.12,2.12,1.44,3.25c0.44,1.57,0.4,4.6-0.02,6.16c-0.3,1.1-1.05,2.17-1.72,3.08
			c-0.83,1.12-1.3,2.38-2.13,3.47c-2.38,3.13-5.82,4.42-9.54,5.31c-2.95,0.71-5.22,0.6-7.24,3.02c-2.22,2.66-3.2,6.93-2.66,10.43
			c0.22,1.4,0.69,2.38,0.66,3.86c-0.04,1.67-0.47,3.19-0.63,4.82c-0.14,1.41-0.44,2.46-1.22,3.68c-0.18,0.28-0.83,1.48-1.11,1.77
			c-0.81,0.82-0.22,0.84-1.31,0.51c-0.39-0.12-1.51-1.46-1.91-1.8c-0.88-0.76-1.67-1.5-2.48-2.32c-1.14-1.17-2.34-2.24-3.77-3.06
			c-3.83-2.2-7.98-3.14-12.39-3.09c-2.01,0.02-4.02-0.03-6.03,0.02c-1.19,0.03-1.95,0.45-3.07,0.65c-2.63,0.46-6.49,0.16-9.1-0.17
			c-1.7-0.22-3.49-0.4-5.06-1.09c-2.51-1.1-4.94-0.17-7.69,0c-0.44,0.03-0.86,0.14-1.27,0.27l0,0c-0.59,0.18-1.17,0.39-1.78,0.39
			c-1.15,0.02-1.93-0.82-3.17-0.69c1.63,0.95,0.95,2.94,1.06,4.57c0.36,5.26,1.82,10.42,1.82,15.68c0,4.34-2.22,7.52-4.36,11.22
			c-1.98,3.43-4.09,6.64-5.53,10.32c-1.13,2.86-2.98,5.57-3.46,8.67c-0.23,1.48,0.36,2.13,1.56,3.1c1.31,1.06,3,0.9,4.24,1.89
			c1.33,1.07,2.5,3.64,3.25,5.12c1.37,2.74,1.8,5.77,2.75,8.65c0.52,1.57,1.12,3.18,1.86,4.66c1.1,2.19,2.8,4.01,3.9,6.2
			c1.78,3.56,1.29,7.32,1.31,11.17c0.02,2.38,0.23,4.77-0.36,7.09c-0.78,3.06-2.37,5.82-3.26,8.84c-0.47,1.59-1.5,3.07-1.89,4.64
			c-0.04,0.16-0.06,0.31-0.07,0.47c0.37-0.07,0.73-0.15,1.08-0.24c-0.35,0.09-0.71,0.16-1.08,0.24c-0.28,2.8,3.23,4.76,5.37,5.81
			c1.97,0.97,4.04,1.97,6.12,2.68c1.73,0.59,3.52,0.32,5.22,0.88c4.13,1.35,6.42,6.23,9.63,8.93c3.21,2.69,6.94,4.8,9.37,8.29
			c1.43,2.05,2.33,4.39,3.08,6.77c0.48,1.51,0.69,3.4,1.72,4.68c1.15,1.42,2.88,2.49,4.11,3.95c0.82,0.98,1.81,3.52,3.38,3.5
			c1.3-0.02,2.97-2.34,3.75-3.14c2.12-2.16,3.04-4.43,4.63-6.89c2.19-3.39,5.71-5.88,8.98-8.16c1.94-1.36,3.77-2.21,6.16-2.29
			c4.74-0.17,17.47,1.68,17.83-6c0.07-1.47-0.44-2.21-0.9-3.58c-0.56-1.68-0.81-3.5-1.29-5.21c-0.77-2.71-1.41-5.39-1.56-8.21
			c-0.21-3.87,0.64-7.5,1.13-11.31c0.29-2.26,0.02-4.55,0.09-6.82c0.1-3.24,1.43-5.97,3.11-8.69c0.82-1.32,1.69-3.59,2.81-4.68
			c1.66-1.62,4.67-2.6,6.7-3.72c6.73-3.72,12.72-9.12,15.09-16.62c1.63-5.15,2.79-9.21,2.43-14.66c-0.15-2.3-0.9-4.63-0.23-6.87
			c0.55-1.83,2.15-4.62,4.06-5.34c2.24-0.85,4.89,0.06,7.25-0.74c2.08-0.7,3.82-3.15,5.96-3.26c4.47-0.23,4.08,5.65,4.38,8.54
			c0.34,3.28,0.46,6.76,2.31,9.61c1.99,3.05,5.63,4.75,8.48,6.85c1.05,0.77,1.14,0.96,1.55,2.09c0.54,1.48,1.03,2.2,2.53,2.99
			c1.4,0.73,3.41,1.03,4.94,1.4c2.72,0.67,3.97,1.87,4.95,4.4c0.38,0.97,0.47,1.88,1.06,2.76c0.69,1.02,1.73,1.67,2.6,2.54
			c2.35,2.35,3.92,5.14,7.35,6.12c3.5,1,7.44-1.01,10.75,0.32c2.5,1,2.81,4.71,5.28,5.52c2.37,0.78,6.2-3.68,7.47-5.37
			c0.95-1.27,1.67-2.72,2.14-4.22c0.42-1.33,0.54-3.02,1.19-4.26c1.17-2.22,4.39-1.2,6.59-1.3c3.34-0.16,6.57-1.05,9.91-1.21
			c4.64-0.23,8.95-1.38,13.29,0.48c0.58,0.25,0.92,0.32,1.3,0.33c0.01-0.06,0.01-0.12,0.02-0.18c0.37-2.18,1.57-4.22,2.02-6.43
			c0.5-2.47,1.77-4.57,2.49-6.95c1.49-4.89,1.58-9.68,4.44-14c1.39-2.09,3.03-4.15,4.01-6.44c1.22-2.87,3.69-7.19,3.03-10.45
			c-0.4-1.97-0.54-2.83-0.1-4.79c0.44-1.99,0.55-3.99,1.09-5.98c0.26-0.98,0.63-1.9,0.92-2.85c0.15-0.48,0.75-2.56,0.6-3.06
			c1.04-0.18,2.07-0.4,3.09-0.67c1.13-3.72,0.38-8.33,2.42-11.75c1.14-1.45,2.41-2.78,3.81-3.98c1.69-1.68,3.3-3.43,4.82-5.26
			c1.37-1.64,2.69-3.33,3.75-5.2c1.75-3.1,1.79-6.69,3.69-9.7c0.7-1.12,1.45-1.99,2.29-2.71C680.3,422.6,680.3,421.9,680.44,421.31z
			"/>
	</g>
	<g>
		<path class="st1" d="M376.21,124.22c-0.02,0.09-0.06,0.18-0.14,0.25c-0.08,0.07-0.19,0.13-0.34,0.18
			c-0.15,0.05-0.34,0.08-0.59,0.11c-0.24,0.02-0.54,0.03-0.89,0.03c-0.35,0-0.65-0.01-0.88-0.03c-0.23-0.02-0.41-0.06-0.54-0.11
			c-0.12-0.05-0.21-0.11-0.26-0.18c-0.05-0.08-0.06-0.16-0.03-0.25l1.45-7.32h-6.76l-1.45,7.32c-0.02,0.09-0.06,0.18-0.14,0.25
			c-0.08,0.07-0.19,0.13-0.34,0.18c-0.15,0.05-0.35,0.08-0.59,0.11c-0.24,0.02-0.53,0.03-0.89,0.03c-0.36,0-0.66-0.01-0.89-0.03
			c-0.23-0.02-0.41-0.06-0.54-0.11c-0.13-0.05-0.22-0.11-0.27-0.18c-0.05-0.08-0.06-0.16-0.03-0.25l3.42-17.1
			c0.01-0.09,0.05-0.18,0.12-0.25c0.08-0.08,0.19-0.14,0.34-0.18c0.15-0.05,0.35-0.08,0.59-0.11c0.24-0.02,0.54-0.03,0.89-0.03
			c0.35,0,0.65,0.01,0.88,0.03c0.23,0.02,0.41,0.06,0.54,0.11c0.13,0.05,0.22,0.11,0.26,0.18c0.04,0.07,0.05,0.16,0.03,0.25
			l-1.33,6.65h6.77l1.31-6.65c0.02-0.09,0.06-0.18,0.14-0.25c0.08-0.08,0.19-0.14,0.34-0.18c0.15-0.05,0.34-0.08,0.59-0.11
			c0.24-0.02,0.54-0.03,0.89-0.03s0.65,0.01,0.88,0.03c0.23,0.02,0.41,0.06,0.55,0.11c0.13,0.05,0.22,0.11,0.26,0.18
			c0.04,0.07,0.05,0.16,0.03,0.25L376.21,124.22z"/>
		<path class="st1" d="M391.52,124.25c-0.04,0.19-0.18,0.34-0.44,0.42c-0.26,0.09-0.67,0.13-1.24,0.13c-0.29,0-0.52-0.01-0.7-0.03
			c-0.18-0.02-0.33-0.05-0.44-0.09c-0.11-0.04-0.18-0.1-0.22-0.17c-0.03-0.07-0.04-0.16-0.02-0.26l0.39-2
			c-0.14,0.3-0.36,0.61-0.67,0.94c-0.31,0.33-0.67,0.63-1.09,0.9c-0.42,0.27-0.88,0.49-1.39,0.67c-0.51,0.18-1.03,0.27-1.57,0.27
			c-0.75,0-1.36-0.13-1.86-0.39c-0.49-0.26-0.89-0.61-1.19-1.06c-0.3-0.44-0.51-0.95-0.63-1.52c-0.13-0.57-0.19-1.16-0.19-1.79
			c0-0.59,0.06-1.23,0.17-1.92c0.11-0.69,0.28-1.39,0.52-2.08c0.23-0.69,0.53-1.35,0.89-1.99c0.36-0.64,0.8-1.2,1.3-1.7
			c0.51-0.49,1.09-0.89,1.75-1.18c0.66-0.29,1.4-0.44,2.23-0.44c0.77,0,1.46,0.16,2.05,0.48c0.6,0.32,1.12,0.79,1.56,1.4l0.22-1.1
			c0.04-0.19,0.18-0.34,0.44-0.42c0.26-0.09,0.67-0.13,1.24-0.13c0.28,0,0.51,0.01,0.7,0.03c0.19,0.02,0.33,0.06,0.44,0.1
			c0.11,0.04,0.18,0.1,0.21,0.17c0.04,0.07,0.05,0.15,0.03,0.24L391.52,124.25z M389.79,115.5c-0.33-0.51-0.69-0.9-1.08-1.15
			s-0.85-0.38-1.38-0.38c-0.39,0-0.75,0.09-1.07,0.28c-0.33,0.18-0.61,0.43-0.87,0.75c-0.25,0.31-0.47,0.67-0.66,1.08
			s-0.35,0.84-0.47,1.28c-0.13,0.44-0.22,0.89-0.28,1.34s-0.09,0.87-0.09,1.25c0,0.28,0.02,0.54,0.06,0.8
			c0.04,0.25,0.12,0.47,0.23,0.67c0.11,0.2,0.26,0.35,0.45,0.47c0.19,0.12,0.42,0.17,0.71,0.17c0.41,0,0.83-0.12,1.26-0.37
			c0.43-0.25,0.83-0.58,1.2-1.01c0.37-0.42,0.7-0.92,0.99-1.48c0.28-0.56,0.49-1.17,0.62-1.81L389.79,115.5z"/>
		<path class="st1" d="M406.48,112.59c0,0.21-0.03,0.46-0.08,0.73c-0.05,0.27-0.12,0.53-0.2,0.77c-0.08,0.24-0.19,0.44-0.31,0.61
			c-0.13,0.16-0.26,0.24-0.41,0.24c-0.14,0-0.28-0.06-0.41-0.17c-0.13-0.11-0.29-0.24-0.48-0.38c-0.19-0.14-0.43-0.27-0.72-0.38
			c-0.29-0.12-0.66-0.17-1.12-0.17c-0.49,0-0.92,0.11-1.3,0.32c-0.38,0.21-0.72,0.49-1,0.83c-0.28,0.34-0.52,0.73-0.7,1.16
			c-0.19,0.43-0.34,0.87-0.46,1.31c-0.12,0.44-0.21,0.87-0.26,1.27c-0.05,0.41-0.08,0.76-0.08,1.06c0,0.75,0.16,1.33,0.49,1.72
			c0.33,0.39,0.85,0.58,1.56,0.58c0.52,0,0.97-0.07,1.34-0.2c0.37-0.14,0.69-0.28,0.96-0.45c0.27-0.16,0.49-0.31,0.69-0.44
			c0.19-0.13,0.37-0.2,0.52-0.2c0.09,0,0.16,0.04,0.2,0.13c0.04,0.08,0.06,0.2,0.06,0.36c0,0.16-0.02,0.36-0.06,0.59
			c-0.04,0.24-0.09,0.48-0.15,0.72c-0.06,0.24-0.13,0.47-0.21,0.68c-0.08,0.21-0.18,0.38-0.31,0.5c-0.12,0.12-0.32,0.26-0.59,0.41
			c-0.27,0.15-0.58,0.29-0.93,0.41c-0.35,0.12-0.74,0.22-1.15,0.29s-0.84,0.11-1.29,0.11c-1.59,0-2.79-0.4-3.58-1.21
			c-0.79-0.81-1.19-2-1.19-3.57c0-0.57,0.05-1.19,0.16-1.87c0.11-0.68,0.28-1.36,0.52-2.05c0.24-0.69,0.56-1.35,0.94-1.99
			c0.39-0.64,0.86-1.21,1.42-1.7c0.56-0.49,1.21-0.89,1.94-1.19c0.74-0.3,1.58-0.45,2.54-0.45c0.37,0,0.74,0.03,1.09,0.08
			c0.35,0.06,0.68,0.13,0.98,0.23c0.3,0.1,0.56,0.21,0.79,0.34c0.23,0.13,0.4,0.25,0.51,0.36s0.18,0.2,0.21,0.29
			C406.47,112.37,406.48,112.47,406.48,112.59z"/>
		<path class="st1" d="M410.34,124.23c-0.02,0.09-0.06,0.17-0.13,0.25c-0.07,0.07-0.18,0.13-0.32,0.17
			c-0.14,0.05-0.33,0.08-0.57,0.11c-0.23,0.02-0.52,0.03-0.85,0.03c-0.34,0-0.63-0.01-0.84-0.03c-0.22-0.02-0.39-0.06-0.52-0.11
			c-0.13-0.05-0.21-0.11-0.25-0.17c-0.04-0.07-0.05-0.15-0.03-0.25l2.49-12.46c0.02-0.09,0.06-0.17,0.13-0.25
			c0.07-0.07,0.18-0.13,0.32-0.17c0.14-0.05,0.33-0.08,0.56-0.11c0.23-0.02,0.52-0.03,0.86-0.03c0.34,0,0.63,0.01,0.84,0.03
			c0.22,0.02,0.39,0.06,0.52,0.11c0.12,0.05,0.21,0.11,0.25,0.17c0.04,0.07,0.05,0.15,0.03,0.25L410.34,124.23z"/>
		<path class="st1" d="M424.45,129.18c-0.02,0.09-0.06,0.18-0.13,0.25c-0.07,0.08-0.18,0.14-0.32,0.19
			c-0.14,0.05-0.33,0.09-0.57,0.12c-0.23,0.03-0.52,0.04-0.86,0.04c-0.34,0-0.61-0.02-0.83-0.04c-0.22-0.03-0.39-0.07-0.51-0.12
			c-0.12-0.05-0.2-0.11-0.25-0.19c-0.04-0.08-0.05-0.16-0.03-0.25l0.81-4.04c0.05-0.21,0.1-0.43,0.15-0.66s0.12-0.47,0.19-0.7
			c0.07-0.24,0.14-0.46,0.21-0.68c0.07-0.21,0.14-0.4,0.2-0.57c-0.17,0.3-0.41,0.6-0.72,0.89c-0.31,0.3-0.67,0.57-1.07,0.8
			c-0.4,0.24-0.83,0.43-1.29,0.58c-0.46,0.15-0.92,0.22-1.39,0.22c-0.69,0-1.28-0.12-1.77-0.35c-0.49-0.23-0.89-0.56-1.2-0.97
			c-0.31-0.41-0.54-0.91-0.68-1.49c-0.14-0.58-0.22-1.21-0.22-1.92c0-0.58,0.06-1.23,0.17-1.92c0.11-0.69,0.28-1.39,0.51-2.07
			c0.23-0.69,0.52-1.36,0.89-2c0.36-0.64,0.8-1.21,1.31-1.71c0.51-0.5,1.09-0.89,1.75-1.19c0.66-0.29,1.41-0.44,2.24-0.44
			c0.77,0,1.46,0.16,2.05,0.48c0.6,0.32,1.12,0.79,1.56,1.4l0.22-1.1c0.04-0.19,0.18-0.34,0.44-0.43c0.26-0.09,0.67-0.13,1.24-0.13
			c0.28,0,0.51,0.01,0.7,0.04s0.33,0.06,0.44,0.11c0.11,0.05,0.18,0.1,0.21,0.17c0.04,0.07,0.05,0.15,0.03,0.24L424.45,129.18z
			 M423.7,115.49c-0.33-0.51-0.69-0.9-1.08-1.15c-0.4-0.26-0.85-0.38-1.38-0.38c-0.4,0-0.77,0.1-1.1,0.29
			c-0.33,0.19-0.63,0.46-0.88,0.78c-0.26,0.32-0.48,0.69-0.66,1.11c-0.19,0.41-0.34,0.85-0.46,1.29c-0.12,0.45-0.21,0.89-0.26,1.33
			c-0.06,0.44-0.09,0.84-0.09,1.2c0,0.73,0.12,1.26,0.37,1.59c0.25,0.34,0.61,0.5,1.08,0.5c0.41,0,0.83-0.12,1.26-0.37
			c0.43-0.25,0.83-0.58,1.2-1.01c0.37-0.42,0.7-0.92,0.99-1.49c0.28-0.57,0.49-1.17,0.62-1.81L423.7,115.49z"/>
		<path class="st1" d="M440.53,124.25c-0.04,0.19-0.18,0.34-0.44,0.42c-0.26,0.09-0.67,0.13-1.24,0.13c-0.29,0-0.52-0.01-0.7-0.03
			c-0.18-0.02-0.33-0.05-0.44-0.09c-0.11-0.04-0.18-0.1-0.22-0.17c-0.03-0.07-0.04-0.16-0.02-0.26l0.39-2
			c-0.14,0.3-0.36,0.61-0.67,0.94c-0.31,0.33-0.67,0.63-1.09,0.9c-0.42,0.27-0.88,0.49-1.39,0.67c-0.51,0.18-1.03,0.27-1.57,0.27
			c-0.75,0-1.36-0.13-1.86-0.39c-0.49-0.26-0.89-0.61-1.19-1.06c-0.3-0.44-0.51-0.95-0.63-1.52c-0.13-0.57-0.19-1.16-0.19-1.79
			c0-0.59,0.06-1.23,0.17-1.92c0.11-0.69,0.28-1.39,0.52-2.08c0.23-0.69,0.53-1.35,0.89-1.99c0.36-0.64,0.8-1.2,1.3-1.7
			c0.51-0.49,1.09-0.89,1.75-1.18c0.66-0.29,1.4-0.44,2.23-0.44c0.77,0,1.46,0.16,2.05,0.48c0.6,0.32,1.12,0.79,1.56,1.4l0.22-1.1
			c0.04-0.19,0.18-0.34,0.44-0.42c0.26-0.09,0.67-0.13,1.24-0.13c0.28,0,0.51,0.01,0.7,0.03c0.19,0.02,0.33,0.06,0.44,0.1
			c0.11,0.04,0.18,0.1,0.21,0.17c0.04,0.07,0.05,0.15,0.03,0.24L440.53,124.25z M438.8,115.5c-0.33-0.51-0.69-0.9-1.08-1.15
			c-0.4-0.26-0.85-0.38-1.38-0.38c-0.39,0-0.75,0.09-1.07,0.28c-0.33,0.18-0.61,0.43-0.87,0.75c-0.25,0.31-0.47,0.67-0.66,1.08
			s-0.35,0.84-0.48,1.28c-0.13,0.44-0.22,0.89-0.28,1.34s-0.09,0.87-0.09,1.25c0,0.28,0.02,0.54,0.06,0.8
			c0.04,0.25,0.12,0.47,0.23,0.67s0.26,0.35,0.45,0.47c0.19,0.12,0.42,0.17,0.71,0.17c0.41,0,0.83-0.12,1.26-0.37
			c0.43-0.25,0.83-0.58,1.2-1.01c0.37-0.42,0.7-0.92,0.99-1.48c0.28-0.56,0.49-1.17,0.62-1.81L438.8,115.5z"/>
		<path class="st1" d="M457.81,115.72c0,0.61-0.06,1.27-0.17,1.97s-0.28,1.39-0.52,2.08c-0.23,0.69-0.53,1.35-0.89,1.98
			c-0.37,0.63-0.8,1.19-1.32,1.68c-0.51,0.49-1.1,0.87-1.75,1.16c-0.66,0.29-1.39,0.43-2.2,0.43c-0.78,0-1.47-0.15-2.07-0.46
			c-0.6-0.31-1.12-0.77-1.56-1.4l-0.21,1.06c-0.04,0.2-0.18,0.34-0.44,0.43c-0.26,0.09-0.67,0.13-1.24,0.13
			c-0.56,0-0.94-0.05-1.14-0.14c-0.2-0.09-0.28-0.23-0.25-0.42l3.68-18.37c0.02-0.09,0.06-0.18,0.12-0.25
			c0.06-0.07,0.17-0.14,0.32-0.19c0.15-0.05,0.34-0.09,0.57-0.12c0.23-0.03,0.51-0.04,0.86-0.04c0.35,0,0.63,0.01,0.84,0.04
			c0.21,0.03,0.38,0.07,0.51,0.12c0.12,0.05,0.21,0.11,0.25,0.19c0.04,0.08,0.05,0.16,0.03,0.25l-0.99,5
			c-0.05,0.21-0.1,0.44-0.15,0.68c-0.06,0.24-0.12,0.47-0.19,0.7c-0.07,0.23-0.14,0.46-0.21,0.68c-0.07,0.22-0.14,0.41-0.2,0.58
			c0.17-0.3,0.41-0.6,0.72-0.9c0.31-0.3,0.67-0.58,1.07-0.82c0.4-0.24,0.83-0.44,1.29-0.59c0.46-0.15,0.92-0.22,1.39-0.22
			c0.53,0,0.99,0.07,1.38,0.2s0.73,0.32,1.02,0.55c0.29,0.23,0.53,0.51,0.71,0.82c0.18,0.32,0.34,0.65,0.45,1
			c0.11,0.35,0.19,0.71,0.23,1.08C457.79,115.01,457.81,115.37,457.81,115.72z M454.19,116.07c0-0.23-0.02-0.47-0.05-0.73
			c-0.03-0.25-0.1-0.48-0.21-0.69c-0.11-0.2-0.25-0.37-0.44-0.5c-0.19-0.13-0.43-0.19-0.74-0.19c-0.42,0-0.84,0.12-1.26,0.37
			c-0.42,0.25-0.82,0.58-1.2,1.01c-0.37,0.43-0.7,0.93-0.99,1.49c-0.29,0.57-0.49,1.17-0.61,1.82l-0.39,1.88
			c0.32,0.51,0.69,0.89,1.08,1.14s0.86,0.37,1.38,0.37c0.37,0,0.72-0.09,1.03-0.27c0.32-0.18,0.6-0.42,0.86-0.72
			c0.26-0.3,0.48-0.65,0.67-1.05s0.35-0.82,0.48-1.26c0.13-0.44,0.23-0.89,0.29-1.35C454.16,116.94,454.19,116.5,454.19,116.07z"/>
		<path class="st1" d="M470.72,124.25c-0.02,0.09-0.06,0.17-0.12,0.24c-0.06,0.07-0.15,0.13-0.28,0.17
			c-0.12,0.04-0.29,0.08-0.48,0.1c-0.2,0.02-0.44,0.03-0.73,0.03c-0.29,0-0.52-0.01-0.7-0.03c-0.18-0.02-0.32-0.06-0.43-0.1
			c-0.1-0.04-0.17-0.1-0.2-0.17c-0.03-0.07-0.03-0.15-0.01-0.24l0.38-2.03c-0.19,0.33-0.44,0.65-0.77,0.98s-0.7,0.63-1.12,0.91
			s-0.88,0.49-1.38,0.66c-0.49,0.17-1,0.25-1.52,0.25c-0.65,0-1.2-0.09-1.65-0.27c-0.45-0.18-0.81-0.43-1.09-0.74
			c-0.28-0.31-0.47-0.69-0.6-1.12c-0.12-0.44-0.19-0.91-0.19-1.42c0-0.32,0.02-0.64,0.06-0.97c0.04-0.33,0.09-0.67,0.16-1.01
			l1.53-7.73c0.02-0.09,0.06-0.17,0.13-0.24c0.07-0.07,0.18-0.13,0.32-0.17c0.14-0.04,0.33-0.08,0.57-0.1
			c0.23-0.02,0.52-0.03,0.85-0.03c0.34,0,0.63,0.01,0.84,0.03c0.22,0.02,0.39,0.06,0.51,0.1c0.12,0.04,0.2,0.1,0.25,0.17
			c0.04,0.07,0.05,0.15,0.03,0.24l-1.48,7.49c-0.05,0.21-0.08,0.42-0.11,0.64c-0.02,0.22-0.03,0.44-0.03,0.64
			c0,0.22,0.02,0.43,0.06,0.61c0.04,0.18,0.11,0.34,0.2,0.47c0.09,0.13,0.21,0.23,0.35,0.29c0.14,0.06,0.32,0.1,0.52,0.1
			c0.38,0,0.78-0.12,1.2-0.37s0.81-0.59,1.18-1.02c0.37-0.43,0.7-0.95,1-1.54c0.29-0.59,0.51-1.23,0.66-1.92l1.06-5.39
			c0.01-0.09,0.05-0.17,0.12-0.24c0.08-0.07,0.18-0.13,0.33-0.17c0.14-0.04,0.33-0.08,0.57-0.1c0.23-0.02,0.52-0.03,0.85-0.03
			c0.35,0,0.63,0.01,0.85,0.03c0.22,0.02,0.39,0.06,0.52,0.1c0.13,0.04,0.21,0.1,0.24,0.17c0.04,0.07,0.05,0.15,0.03,0.24
			L470.72,124.25z"/>
		<path class="st1" d="M477.76,124.23c-0.02,0.09-0.06,0.17-0.13,0.25c-0.07,0.07-0.18,0.13-0.31,0.17
			c-0.14,0.05-0.33,0.08-0.56,0.11c-0.23,0.02-0.52,0.03-0.85,0.03c-0.35,0-0.64-0.01-0.86-0.03c-0.22-0.02-0.39-0.06-0.51-0.11
			c-0.12-0.05-0.2-0.11-0.25-0.17c-0.04-0.07-0.05-0.15-0.03-0.25l3.68-18.37c0.02-0.09,0.06-0.18,0.12-0.25
			c0.06-0.07,0.17-0.14,0.32-0.19c0.15-0.05,0.34-0.09,0.57-0.12c0.23-0.03,0.51-0.04,0.86-0.04c0.35,0,0.63,0.01,0.85,0.04
			c0.22,0.03,0.39,0.07,0.51,0.12s0.2,0.11,0.24,0.19c0.04,0.08,0.05,0.16,0.03,0.25L477.76,124.23z"/>
	</g>
	<path id="AZMI_00000149343673027698780070000005603561973913511857_" class="st0" d="M478.24,244.65l6.28-2.23l6.08,0.2l3.24,4.46
		l3.04,5.67c5.14,3.59,10.27,7.18,15.4,10.77c-1.83,1.9-4.29,4.43-7.24,7.37c-3.21,3.2-3.98,3.88-4.96,4.61
		c-1.09,0.81-4.53,3.21-9.77,4.65c-3.81,1.05-10.16,2.79-13.79-0.32c-1.34-1.15-1.09-1.92-3.03-4.78c-2.07-3.03-4.33-5.07-5.86-6.28
		c-0.61-1.34-1.63-3.38-3.22-5.67c-1.88-2.71-2.63-2.99-3.51-4.94c-0.88-1.95-0.7-2.93-1.38-6.95c-0.42-2.47-0.88-4.45-1.2-5.72
		c2.66-1.77,5.31-3.54,7.97-5.31L478.24,244.65z"/>
	<g>
		<path class="st1" d="M520.45,235.36c-0.77-0.09-1.39-0.23-1.87-0.4c-0.48-0.17-0.86-0.34-1.13-0.49c-0.28-0.15-0.48-0.3-0.61-0.44
			c-0.13-0.14-0.19-0.35-0.19-0.63c0-0.08,0.01-0.19,0.03-0.34c0.02-0.15,0.05-0.31,0.08-0.48c0.03-0.17,0.07-0.35,0.12-0.53
			c0.05-0.18,0.1-0.35,0.17-0.49c0.06-0.15,0.14-0.27,0.21-0.37c0.08-0.09,0.17-0.14,0.26-0.14c0.16,0,0.35,0.07,0.57,0.21
			c0.22,0.14,0.49,0.3,0.82,0.47c0.33,0.17,0.71,0.33,1.16,0.48c0.45,0.15,0.98,0.22,1.61,0.22c0.55,0,1.03-0.07,1.45-0.21
			c0.41-0.14,0.76-0.33,1.04-0.57c0.28-0.24,0.49-0.52,0.64-0.85c0.14-0.32,0.21-0.67,0.21-1.05c0-0.35-0.08-0.65-0.25-0.91
			c-0.17-0.26-0.39-0.5-0.66-0.72c-0.28-0.22-0.59-0.43-0.94-0.62c-0.35-0.2-0.7-0.41-1.07-0.63c-0.36-0.22-0.72-0.46-1.07-0.73
			c-0.35-0.26-0.66-0.57-0.94-0.91c-0.28-0.35-0.5-0.75-0.66-1.21c-0.17-0.46-0.25-0.99-0.25-1.59c0-0.84,0.17-1.61,0.5-2.32
			c0.34-0.71,0.8-1.32,1.4-1.82c0.6-0.51,1.31-0.9,2.14-1.19s1.74-0.43,2.74-0.43c0.47,0,0.91,0.03,1.33,0.1
			c0.42,0.07,0.8,0.16,1.14,0.27c0.35,0.11,0.64,0.23,0.88,0.36c0.24,0.13,0.41,0.24,0.5,0.33c0.09,0.09,0.16,0.18,0.2,0.28
			c0.04,0.1,0.06,0.22,0.06,0.37c0,0.08-0.01,0.18-0.02,0.32c-0.02,0.14-0.03,0.29-0.06,0.46c-0.03,0.17-0.06,0.34-0.1,0.51
			c-0.04,0.17-0.09,0.33-0.15,0.47c-0.06,0.14-0.13,0.26-0.2,0.35c-0.08,0.09-0.15,0.14-0.24,0.14c-0.13,0-0.29-0.06-0.49-0.18
			c-0.2-0.12-0.44-0.24-0.72-0.38s-0.62-0.26-1-0.38c-0.38-0.12-0.81-0.17-1.3-0.17c-0.5,0-0.93,0.07-1.28,0.21
			c-0.35,0.14-0.63,0.32-0.86,0.55c-0.22,0.23-0.39,0.49-0.5,0.77s-0.16,0.57-0.16,0.86c0,0.34,0.08,0.63,0.25,0.89
			s0.39,0.49,0.67,0.71s0.6,0.43,0.96,0.64c0.36,0.2,0.72,0.42,1.09,0.64c0.37,0.22,0.73,0.47,1.09,0.74
			c0.36,0.26,0.68,0.57,0.96,0.92c0.28,0.35,0.5,0.75,0.67,1.2c0.17,0.45,0.25,0.97,0.25,1.56c0,0.88-0.17,1.69-0.52,2.42
			c-0.35,0.74-0.82,1.37-1.42,1.89s-1.25,0.92-1.96,1.2c-0.71,0.28-1.32,0.45-1.81,0.5l0.18,0.75c0.07,0.23,0.12,0.45,0.15,0.66
			c0.04,0.21,0.06,0.41,0.06,0.61c0,0.5-0.08,0.94-0.25,1.31c-0.17,0.37-0.4,0.67-0.69,0.91c-0.29,0.24-0.65,0.41-1.06,0.52
			c-0.41,0.11-0.87,0.17-1.38,0.17c-0.27,0-0.53-0.01-0.79-0.03c-0.26-0.02-0.49-0.05-0.71-0.09c-0.21-0.04-0.41-0.09-0.58-0.14
			c-0.17-0.05-0.31-0.1-0.41-0.15c-0.1-0.06-0.17-0.11-0.21-0.17c-0.04-0.06-0.06-0.15-0.06-0.27c0-0.09,0.01-0.22,0.04-0.39
			c0.02-0.17,0.06-0.34,0.12-0.5c0.06-0.17,0.13-0.31,0.23-0.44c0.1-0.12,0.22-0.19,0.37-0.19h1.59c0.13,0,0.26-0.02,0.38-0.05
			s0.23-0.08,0.31-0.14c0.09-0.06,0.16-0.14,0.21-0.25c0.05-0.1,0.08-0.22,0.08-0.35c0-0.09-0.01-0.2-0.02-0.32
			c-0.02-0.12-0.03-0.24-0.06-0.36L520.45,235.36z"/>
		<path class="st1" d="M534.05,234.62c-0.02,0.09-0.06,0.17-0.13,0.25c-0.07,0.07-0.18,0.13-0.32,0.17s-0.33,0.08-0.57,0.11
			c-0.23,0.02-0.52,0.03-0.85,0.03c-0.34,0-0.63-0.01-0.84-0.03c-0.22-0.02-0.39-0.06-0.52-0.11c-0.13-0.05-0.21-0.11-0.24-0.17
			c-0.04-0.07-0.05-0.15-0.03-0.25l2.47-12.43c0.02-0.09,0.06-0.17,0.13-0.25c0.07-0.07,0.18-0.13,0.32-0.18
			c0.14-0.05,0.33-0.09,0.56-0.12c0.23-0.03,0.51-0.04,0.86-0.04c0.34,0,0.63,0.02,0.84,0.04c0.22,0.03,0.39,0.07,0.52,0.12
			c0.13,0.05,0.21,0.11,0.24,0.18c0.04,0.07,0.05,0.15,0.03,0.25L534.05,234.62z M537.65,217.97c-0.06,0.34-0.15,0.64-0.26,0.87
			c-0.11,0.24-0.26,0.43-0.45,0.57c-0.19,0.14-0.41,0.25-0.69,0.31c-0.27,0.06-0.6,0.09-1.01,0.09c-0.39,0-0.71-0.03-0.96-0.09
			c-0.25-0.06-0.43-0.16-0.56-0.31c-0.12-0.14-0.2-0.34-0.22-0.57c-0.02-0.24,0.01-0.53,0.09-0.87c0.06-0.34,0.15-0.62,0.26-0.85
			c0.11-0.23,0.26-0.42,0.45-0.57c0.19-0.15,0.41-0.26,0.69-0.32c0.27-0.06,0.6-0.1,1.01-0.1c0.39,0,0.71,0.03,0.96,0.1
			c0.25,0.07,0.43,0.17,0.56,0.32c0.12,0.15,0.2,0.34,0.21,0.57C537.74,217.35,537.72,217.63,537.65,217.97z"/>
		<path class="st1" d="M547.9,221.96c0,0.06-0.01,0.18-0.03,0.35c-0.02,0.17-0.05,0.37-0.08,0.59c-0.04,0.22-0.08,0.45-0.14,0.69
			c-0.06,0.24-0.12,0.46-0.19,0.66c-0.07,0.2-0.15,0.37-0.24,0.5c-0.09,0.13-0.18,0.2-0.29,0.2c-0.09,0-0.17-0.02-0.25-0.05
			c-0.08-0.03-0.18-0.06-0.28-0.1c-0.1-0.03-0.21-0.07-0.34-0.1c-0.12-0.03-0.26-0.05-0.42-0.05c-0.32,0-0.66,0.12-1.01,0.37
			c-0.36,0.24-0.7,0.56-1.03,0.96c-0.32,0.4-0.62,0.86-0.87,1.38s-0.44,1.08-0.55,1.65l-1.12,5.6c-0.02,0.09-0.06,0.17-0.13,0.25
			c-0.07,0.07-0.18,0.13-0.32,0.17c-0.14,0.05-0.33,0.08-0.57,0.11c-0.23,0.02-0.52,0.03-0.85,0.03c-0.34,0-0.63-0.01-0.84-0.03
			c-0.22-0.02-0.39-0.06-0.52-0.11c-0.13-0.05-0.21-0.11-0.24-0.17c-0.04-0.07-0.05-0.15-0.03-0.25l2.49-12.48
			c0.02-0.09,0.06-0.17,0.13-0.24c0.06-0.07,0.16-0.13,0.29-0.17c0.12-0.04,0.29-0.08,0.49-0.1c0.2-0.02,0.44-0.03,0.72-0.03
			c0.29,0,0.52,0.01,0.7,0.03c0.18,0.02,0.32,0.06,0.43,0.1c0.1,0.04,0.17,0.1,0.2,0.17c0.03,0.07,0.04,0.15,0.02,0.24l-0.39,1.99
			c0.22-0.4,0.48-0.77,0.77-1.1c0.29-0.34,0.61-0.63,0.94-0.87c0.33-0.25,0.67-0.44,1.03-0.58c0.35-0.14,0.7-0.21,1.05-0.21
			c0.14,0,0.28,0.01,0.43,0.03c0.14,0.02,0.28,0.04,0.41,0.07c0.12,0.03,0.24,0.06,0.34,0.11c0.1,0.04,0.17,0.09,0.23,0.13
			C547.88,221.75,547.9,221.84,547.9,221.96z"/>
		<path class="st1" d="M561.26,222.06c0,0.1-0.01,0.23-0.04,0.38c-0.03,0.15-0.07,0.31-0.13,0.47c-0.34,1.01-0.73,2.01-1.14,3.02
			c-0.42,1.01-0.88,2.01-1.38,3c-0.5,0.99-1.04,1.96-1.63,2.91c-0.58,0.95-1.21,1.87-1.89,2.75c-0.09,0.13-0.2,0.23-0.34,0.31
			s-0.29,0.14-0.48,0.18c-0.19,0.04-0.41,0.07-0.66,0.08c-0.25,0.01-0.55,0.02-0.88,0.02c-0.51,0-0.92-0.01-1.22-0.03
			c-0.3-0.02-0.52-0.06-0.68-0.12s-0.27-0.13-0.32-0.23c-0.06-0.1-0.09-0.22-0.1-0.37l-1.47-11.2c-0.01-0.15-0.02-0.29-0.03-0.42
			c-0.01-0.13-0.02-0.25-0.02-0.36c0-0.19,0.02-0.33,0.06-0.43c0.04-0.1,0.13-0.18,0.25-0.24c0.13-0.06,0.31-0.1,0.55-0.13
			c0.24-0.03,0.56-0.04,0.96-0.04c0.37,0,0.67,0.01,0.88,0.03c0.21,0.02,0.38,0.05,0.49,0.1c0.12,0.05,0.19,0.11,0.23,0.19
			c0.04,0.08,0.06,0.17,0.07,0.29l1.06,9.15v0.35l0.07-0.12c0.48-0.72,0.91-1.44,1.29-2.17c0.39-0.73,0.74-1.47,1.07-2.24
			c0.33-0.76,0.64-1.55,0.93-2.37c0.29-0.82,0.57-1.69,0.85-2.6c0.03-0.12,0.08-0.22,0.15-0.29c0.08-0.08,0.19-0.14,0.34-0.18
			c0.15-0.05,0.35-0.08,0.59-0.1c0.24-0.02,0.53-0.03,0.89-0.03c0.34,0,0.63,0.01,0.84,0.03c0.22,0.02,0.39,0.05,0.5,0.08
			c0.12,0.04,0.2,0.08,0.24,0.14C561.24,221.91,561.26,221.98,561.26,222.06z"/>
		<path class="st1" d="M572.88,234.64c-0.04,0.19-0.18,0.34-0.44,0.42c-0.26,0.09-0.67,0.13-1.24,0.13c-0.29,0-0.52-0.01-0.71-0.03
			c-0.18-0.02-0.33-0.05-0.44-0.09c-0.11-0.04-0.18-0.1-0.22-0.17c-0.03-0.07-0.04-0.16-0.02-0.26l0.39-2
			c-0.14,0.3-0.36,0.61-0.67,0.94c-0.31,0.33-0.67,0.63-1.09,0.9c-0.42,0.27-0.88,0.49-1.39,0.67c-0.51,0.18-1.03,0.27-1.57,0.27
			c-0.75,0-1.36-0.13-1.86-0.39c-0.49-0.26-0.89-0.61-1.19-1.06c-0.3-0.44-0.51-0.95-0.63-1.52c-0.13-0.57-0.19-1.16-0.19-1.79
			c0-0.59,0.06-1.23,0.17-1.92c0.11-0.69,0.28-1.39,0.52-2.08c0.23-0.69,0.53-1.35,0.89-1.99c0.36-0.64,0.8-1.2,1.3-1.7
			c0.51-0.49,1.09-0.89,1.75-1.18c0.66-0.29,1.4-0.44,2.23-0.44c0.77,0,1.46,0.16,2.05,0.48c0.6,0.32,1.12,0.79,1.56,1.4l0.22-1.1
			c0.04-0.19,0.18-0.34,0.44-0.42c0.26-0.09,0.67-0.13,1.24-0.13c0.28,0,0.51,0.01,0.7,0.03c0.19,0.02,0.33,0.06,0.44,0.1
			c0.11,0.04,0.18,0.1,0.21,0.17c0.04,0.07,0.05,0.15,0.03,0.24L572.88,234.64z M571.15,225.89c-0.33-0.51-0.69-0.9-1.08-1.15
			c-0.4-0.26-0.85-0.38-1.38-0.38c-0.39,0-0.75,0.09-1.07,0.28c-0.33,0.18-0.61,0.43-0.87,0.75c-0.25,0.31-0.47,0.67-0.66,1.08
			c-0.19,0.41-0.35,0.84-0.47,1.28c-0.13,0.44-0.22,0.89-0.28,1.34s-0.09,0.87-0.09,1.25c0,0.28,0.02,0.54,0.06,0.8
			c0.04,0.25,0.12,0.47,0.23,0.67c0.11,0.2,0.26,0.35,0.45,0.47s0.42,0.17,0.71,0.17c0.41,0,0.83-0.12,1.26-0.37
			c0.43-0.25,0.83-0.58,1.2-1.01c0.37-0.42,0.7-0.92,0.99-1.48c0.28-0.56,0.49-1.17,0.62-1.81L571.15,225.89z"/>
		<path class="st1" d="M589.82,224.94c0,0.33-0.02,0.65-0.06,0.98c-0.04,0.32-0.09,0.66-0.16,1.01l-1.55,7.7
			c-0.02,0.09-0.06,0.17-0.13,0.25c-0.07,0.07-0.18,0.13-0.32,0.17s-0.33,0.08-0.56,0.11c-0.23,0.02-0.52,0.03-0.86,0.03
			c-0.34,0-0.63-0.01-0.84-0.03c-0.22-0.02-0.39-0.06-0.51-0.11c-0.12-0.05-0.2-0.11-0.24-0.17c-0.04-0.07-0.05-0.15-0.04-0.25
			l1.51-7.47c0.05-0.22,0.08-0.45,0.11-0.69c0.02-0.23,0.04-0.44,0.04-0.61c0-0.42-0.09-0.76-0.27-1.03
			c-0.18-0.27-0.48-0.4-0.89-0.4c-0.38,0-0.78,0.12-1.2,0.36c-0.41,0.24-0.81,0.57-1.17,0.99c-0.37,0.41-0.7,0.9-0.98,1.45
			c-0.29,0.55-0.49,1.14-0.61,1.77l-1.13,5.64c-0.02,0.09-0.06,0.17-0.13,0.25c-0.07,0.07-0.18,0.13-0.32,0.17s-0.33,0.08-0.57,0.11
			c-0.23,0.02-0.52,0.03-0.85,0.03c-0.34,0-0.63-0.01-0.84-0.03c-0.22-0.02-0.39-0.06-0.52-0.11c-0.13-0.05-0.21-0.11-0.24-0.17
			c-0.04-0.07-0.05-0.15-0.03-0.25l2.5-12.48c0.02-0.09,0.06-0.17,0.12-0.24c0.06-0.07,0.15-0.13,0.28-0.17
			c0.12-0.04,0.29-0.08,0.49-0.1c0.2-0.02,0.44-0.03,0.72-0.03c0.29,0,0.52,0.01,0.7,0.03c0.18,0.02,0.32,0.06,0.43,0.1
			c0.1,0.04,0.17,0.1,0.2,0.17c0.03,0.07,0.04,0.15,0.02,0.24l-0.41,2.05c0.2-0.33,0.46-0.66,0.78-1c0.33-0.34,0.7-0.64,1.12-0.91
			c0.42-0.27,0.89-0.49,1.38-0.66c0.5-0.17,1.02-0.26,1.56-0.26c0.65,0,1.2,0.1,1.64,0.29c0.44,0.19,0.8,0.45,1.08,0.77
			c0.28,0.33,0.47,0.71,0.59,1.14C589.75,224,589.82,224.45,589.82,224.94z"/>
	</g>
	<g>
		<path class="st1" d="M542.22,397.18c0,0.08-0.01,0.18-0.02,0.32c-0.02,0.14-0.03,0.29-0.06,0.46c-0.03,0.17-0.06,0.34-0.1,0.51
			c-0.04,0.17-0.09,0.33-0.15,0.48c-0.06,0.14-0.13,0.26-0.2,0.35c-0.08,0.09-0.15,0.14-0.24,0.14c-0.13,0-0.29-0.06-0.49-0.18
			c-0.2-0.12-0.44-0.24-0.72-0.38s-0.62-0.26-1-0.38c-0.38-0.12-0.81-0.17-1.3-0.17c-0.5,0-0.93,0.07-1.28,0.21
			c-0.35,0.14-0.63,0.32-0.86,0.55c-0.22,0.23-0.39,0.49-0.5,0.77c-0.11,0.28-0.16,0.57-0.16,0.86c0,0.34,0.08,0.63,0.25,0.89
			s0.39,0.49,0.67,0.71c0.28,0.22,0.6,0.43,0.96,0.64c0.36,0.2,0.72,0.42,1.09,0.64c0.37,0.22,0.73,0.47,1.09,0.74
			c0.36,0.26,0.68,0.57,0.96,0.92c0.28,0.35,0.5,0.75,0.67,1.2c0.17,0.45,0.25,0.97,0.25,1.56c0,0.88-0.18,1.69-0.53,2.44
			c-0.35,0.75-0.86,1.4-1.5,1.96c-0.65,0.55-1.43,0.99-2.35,1.3c-0.92,0.32-1.94,0.48-3.05,0.48c-0.6,0-1.16-0.05-1.68-0.15
			c-0.51-0.1-0.97-0.22-1.36-0.35c-0.4-0.14-0.73-0.29-1-0.44c-0.27-0.15-0.47-0.3-0.6-0.44c-0.13-0.14-0.19-0.35-0.19-0.63
			c0-0.08,0.01-0.19,0.03-0.34c0.02-0.15,0.05-0.31,0.08-0.48c0.03-0.17,0.07-0.35,0.12-0.53c0.05-0.18,0.1-0.35,0.17-0.49
			c0.06-0.15,0.14-0.27,0.21-0.37c0.08-0.09,0.17-0.14,0.26-0.14c0.16,0,0.35,0.07,0.57,0.21s0.49,0.3,0.82,0.48
			c0.33,0.17,0.71,0.33,1.16,0.48c0.45,0.15,0.98,0.22,1.61,0.22c0.55,0,1.03-0.07,1.45-0.21s0.76-0.33,1.04-0.57
			c0.28-0.24,0.49-0.52,0.64-0.85c0.14-0.32,0.21-0.67,0.21-1.05c0-0.35-0.08-0.65-0.25-0.91c-0.17-0.26-0.39-0.5-0.66-0.72
			c-0.28-0.22-0.59-0.43-0.94-0.62c-0.35-0.2-0.7-0.41-1.07-0.63c-0.36-0.22-0.72-0.46-1.07-0.73c-0.35-0.26-0.66-0.57-0.94-0.91
			c-0.28-0.35-0.5-0.75-0.66-1.21c-0.17-0.46-0.25-0.99-0.25-1.59c0-0.84,0.17-1.61,0.5-2.32c0.34-0.71,0.8-1.32,1.4-1.82
			c0.6-0.51,1.31-0.9,2.14-1.19c0.83-0.28,1.74-0.43,2.74-0.43c0.47,0,0.91,0.03,1.33,0.1c0.42,0.07,0.8,0.16,1.14,0.27
			c0.35,0.11,0.64,0.23,0.88,0.36c0.24,0.13,0.41,0.24,0.5,0.33c0.09,0.09,0.16,0.18,0.2,0.28
			C542.2,396.91,542.22,397.03,542.22,397.18z"/>
		<path class="st1" d="M554.26,413.42c-0.04,0.19-0.18,0.34-0.44,0.42c-0.26,0.09-0.67,0.13-1.24,0.13c-0.29,0-0.52-0.01-0.71-0.03
			c-0.18-0.02-0.33-0.05-0.44-0.09c-0.11-0.04-0.18-0.1-0.22-0.17c-0.03-0.07-0.04-0.16-0.02-0.26l0.39-2
			c-0.14,0.3-0.36,0.61-0.67,0.94c-0.31,0.33-0.67,0.63-1.09,0.9c-0.42,0.27-0.88,0.49-1.39,0.67c-0.51,0.18-1.03,0.27-1.57,0.27
			c-0.75,0-1.36-0.13-1.86-0.39c-0.49-0.26-0.89-0.61-1.19-1.06c-0.3-0.44-0.51-0.95-0.63-1.52c-0.13-0.57-0.19-1.16-0.19-1.79
			c0-0.59,0.06-1.23,0.17-1.92c0.11-0.69,0.28-1.39,0.52-2.08c0.23-0.69,0.53-1.35,0.89-1.99c0.36-0.64,0.8-1.2,1.3-1.7
			c0.51-0.49,1.09-0.89,1.75-1.18c0.66-0.29,1.4-0.44,2.23-0.44c0.77,0,1.46,0.16,2.05,0.48c0.6,0.32,1.12,0.79,1.56,1.4l0.22-1.1
			c0.04-0.19,0.18-0.34,0.44-0.42c0.26-0.09,0.67-0.13,1.24-0.13c0.28,0,0.51,0.01,0.7,0.03c0.19,0.02,0.33,0.06,0.44,0.1
			c0.11,0.04,0.18,0.1,0.21,0.17c0.04,0.07,0.05,0.15,0.03,0.24L554.26,413.42z M552.53,404.67c-0.33-0.51-0.69-0.9-1.08-1.15
			s-0.85-0.38-1.38-0.38c-0.39,0-0.75,0.09-1.07,0.28c-0.33,0.18-0.61,0.43-0.87,0.75c-0.25,0.31-0.47,0.67-0.66,1.08
			s-0.35,0.84-0.47,1.28c-0.13,0.44-0.22,0.89-0.28,1.34s-0.09,0.87-0.09,1.25c0,0.28,0.02,0.54,0.06,0.8
			c0.04,0.25,0.12,0.48,0.23,0.67s0.26,0.35,0.45,0.47c0.19,0.12,0.42,0.17,0.71,0.17c0.41,0,0.83-0.12,1.26-0.37
			c0.43-0.25,0.83-0.58,1.2-1.01c0.37-0.42,0.7-0.92,0.99-1.48c0.28-0.56,0.49-1.17,0.62-1.81L552.53,404.67z"/>
		<path class="st1" d="M561.3,413.4c-0.02,0.09-0.06,0.17-0.13,0.25c-0.07,0.07-0.18,0.13-0.31,0.17c-0.14,0.05-0.33,0.08-0.56,0.11
			c-0.23,0.02-0.52,0.03-0.85,0.03c-0.35,0-0.64-0.01-0.86-0.03c-0.22-0.02-0.39-0.06-0.51-0.11c-0.12-0.05-0.2-0.11-0.25-0.17
			c-0.04-0.07-0.05-0.15-0.03-0.25l3.68-18.37c0.02-0.09,0.06-0.18,0.12-0.25c0.06-0.07,0.17-0.14,0.32-0.19
			c0.15-0.05,0.34-0.09,0.57-0.12c0.23-0.03,0.51-0.04,0.86-0.04c0.35,0,0.63,0.01,0.85,0.04c0.22,0.03,0.39,0.07,0.51,0.12
			s0.2,0.11,0.24,0.19c0.04,0.08,0.05,0.16,0.03,0.25L561.3,413.4z"/>
		<path class="st1" d="M578.2,400.9c0,0.12-0.02,0.26-0.04,0.4c-0.03,0.15-0.07,0.3-0.13,0.46c-0.32,0.86-0.66,1.74-1.03,2.66
			c-0.37,0.91-0.79,1.85-1.26,2.82c-0.48,0.97-1.01,1.97-1.62,3c-0.61,1.03-1.3,2.1-2.08,3.21l-3.41,4.83
			c-0.08,0.12-0.19,0.22-0.31,0.3c-0.12,0.08-0.28,0.14-0.48,0.2c-0.19,0.05-0.42,0.09-0.69,0.12c-0.27,0.03-0.58,0.04-0.94,0.04
			c-0.4,0-0.72-0.02-0.97-0.05c-0.25-0.03-0.43-0.09-0.54-0.16s-0.16-0.17-0.15-0.28c0.01-0.11,0.08-0.25,0.2-0.4l3.17-4.18
			l-2.05-11.99c-0.02-0.12-0.04-0.25-0.06-0.38c-0.02-0.13-0.03-0.24-0.03-0.34c0-0.17,0.03-0.3,0.09-0.41s0.16-0.18,0.31-0.24
			c0.14-0.06,0.34-0.09,0.58-0.12c0.24-0.02,0.54-0.03,0.88-0.03c0.38,0,0.68,0.01,0.9,0.02c0.22,0.01,0.38,0.04,0.5,0.09
			c0.11,0.05,0.19,0.12,0.23,0.21c0.04,0.09,0.07,0.21,0.09,0.35l1.29,8.73h0.03c0.46-0.7,0.89-1.41,1.27-2.12
			c0.38-0.72,0.73-1.45,1.05-2.19c0.32-0.74,0.61-1.49,0.87-2.25c0.26-0.76,0.51-1.53,0.73-2.3c0.02-0.09,0.06-0.17,0.12-0.24
			c0.07-0.07,0.18-0.13,0.33-0.17c0.15-0.04,0.36-0.08,0.61-0.1c0.25-0.02,0.58-0.03,0.98-0.03c0.6,0,1.01,0.04,1.23,0.11
			C578.09,400.57,578.2,400.7,578.2,400.9z"/>
		<path class="st1" d="M589.84,413.42c-0.04,0.19-0.18,0.34-0.44,0.42c-0.26,0.09-0.67,0.13-1.24,0.13c-0.29,0-0.52-0.01-0.71-0.03
			c-0.18-0.02-0.33-0.05-0.44-0.09c-0.11-0.04-0.18-0.1-0.22-0.17c-0.03-0.07-0.04-0.16-0.02-0.26l0.39-2
			c-0.14,0.3-0.36,0.61-0.67,0.94c-0.31,0.33-0.67,0.63-1.09,0.9c-0.42,0.27-0.88,0.49-1.39,0.67c-0.51,0.18-1.03,0.27-1.57,0.27
			c-0.75,0-1.36-0.13-1.86-0.39c-0.49-0.26-0.89-0.61-1.19-1.06c-0.3-0.44-0.51-0.95-0.63-1.52c-0.13-0.57-0.19-1.16-0.19-1.79
			c0-0.59,0.06-1.23,0.17-1.92c0.11-0.69,0.28-1.39,0.52-2.08c0.23-0.69,0.53-1.35,0.89-1.99c0.36-0.64,0.8-1.2,1.3-1.7
			c0.51-0.49,1.09-0.89,1.75-1.18c0.66-0.29,1.4-0.44,2.23-0.44c0.77,0,1.46,0.16,2.05,0.48c0.6,0.32,1.12,0.79,1.56,1.4l0.22-1.1
			c0.04-0.19,0.18-0.34,0.44-0.42c0.26-0.09,0.67-0.13,1.24-0.13c0.28,0,0.51,0.01,0.7,0.03c0.19,0.02,0.33,0.06,0.44,0.1
			c0.11,0.04,0.18,0.1,0.21,0.17c0.04,0.07,0.05,0.15,0.03,0.24L589.84,413.42z M588.11,404.67c-0.33-0.51-0.69-0.9-1.08-1.15
			s-0.85-0.38-1.38-0.38c-0.39,0-0.75,0.09-1.07,0.28c-0.33,0.18-0.61,0.43-0.87,0.75c-0.25,0.31-0.47,0.67-0.66,1.08
			s-0.35,0.84-0.47,1.28c-0.13,0.44-0.22,0.89-0.28,1.34s-0.09,0.87-0.09,1.25c0,0.28,0.02,0.54,0.06,0.8
			c0.04,0.25,0.12,0.48,0.23,0.67s0.26,0.35,0.45,0.47s0.42,0.17,0.71,0.17c0.41,0,0.83-0.12,1.26-0.37
			c0.43-0.25,0.83-0.58,1.2-1.01c0.37-0.42,0.7-0.92,0.99-1.48c0.28-0.56,0.49-1.17,0.62-1.81L588.11,404.67z"/>
		<path class="st1" d="M606.77,403.72c0,0.33-0.02,0.65-0.06,0.98c-0.04,0.32-0.09,0.66-0.16,1.01l-1.55,7.7
			c-0.02,0.09-0.06,0.17-0.13,0.25c-0.07,0.07-0.18,0.13-0.32,0.17c-0.14,0.05-0.33,0.08-0.56,0.11c-0.23,0.02-0.52,0.03-0.86,0.03
			c-0.34,0-0.63-0.01-0.84-0.03c-0.22-0.02-0.39-0.06-0.51-0.11c-0.12-0.05-0.2-0.11-0.24-0.17c-0.04-0.07-0.05-0.15-0.04-0.25
			l1.51-7.47c0.05-0.22,0.08-0.45,0.11-0.69c0.02-0.23,0.04-0.44,0.04-0.61c0-0.42-0.09-0.76-0.27-1.03
			c-0.18-0.27-0.47-0.4-0.89-0.4c-0.38,0-0.78,0.12-1.2,0.36c-0.41,0.24-0.81,0.57-1.17,0.99c-0.37,0.41-0.7,0.9-0.98,1.45
			c-0.29,0.55-0.49,1.14-0.61,1.77l-1.13,5.64c-0.02,0.09-0.06,0.17-0.13,0.25c-0.07,0.07-0.18,0.13-0.32,0.17
			c-0.14,0.05-0.33,0.08-0.57,0.11c-0.23,0.02-0.52,0.03-0.85,0.03c-0.34,0-0.63-0.01-0.84-0.03c-0.22-0.02-0.39-0.06-0.52-0.11
			c-0.13-0.05-0.21-0.11-0.24-0.17c-0.04-0.07-0.05-0.15-0.03-0.25l2.5-12.48c0.02-0.09,0.06-0.17,0.12-0.24
			c0.06-0.07,0.15-0.13,0.28-0.17c0.12-0.04,0.29-0.08,0.49-0.1s0.44-0.03,0.72-0.03c0.29,0,0.52,0.01,0.7,0.03
			c0.18,0.02,0.32,0.06,0.43,0.1c0.1,0.04,0.17,0.1,0.2,0.17c0.03,0.07,0.04,0.15,0.02,0.24l-0.41,2.05c0.2-0.33,0.46-0.66,0.78-1
			c0.33-0.34,0.7-0.64,1.12-0.91c0.42-0.27,0.89-0.49,1.38-0.66c0.5-0.17,1.02-0.26,1.56-0.26c0.65,0,1.2,0.1,1.64,0.29
			s0.8,0.45,1.08,0.77c0.28,0.33,0.47,0.71,0.59,1.14C606.71,402.78,606.77,403.24,606.77,403.72z"/>
	</g>
	<g>
		<path class="st1" d="M242.78,507.26c0,0.55-0.08,1.07-0.23,1.56c-0.15,0.49-0.38,0.93-0.67,1.34c-0.29,0.4-0.65,0.76-1.06,1.07
			c-0.41,0.31-0.88,0.56-1.39,0.75c0.41,0.07,0.79,0.2,1.13,0.39c0.34,0.18,0.64,0.42,0.89,0.71c0.25,0.29,0.44,0.63,0.57,1.02
			c0.14,0.4,0.2,0.84,0.2,1.34c0,0.45-0.06,0.91-0.18,1.39c-0.12,0.48-0.31,0.95-0.57,1.41c-0.26,0.46-0.6,0.89-1.02,1.31
			c-0.42,0.41-0.92,0.78-1.52,1.09c-0.59,0.31-1.27,0.56-2.05,0.74c-0.77,0.18-1.67,0.28-2.7,0.28h-5.02
			c-0.38,0-0.66-0.09-0.83-0.28c-0.17-0.19-0.22-0.48-0.13-0.88l3.16-15.76c0.08-0.41,0.24-0.7,0.5-0.89
			c0.26-0.18,0.55-0.28,0.89-0.28h4.35c0.96,0,1.79,0.08,2.49,0.22c0.7,0.15,1.29,0.37,1.76,0.68c0.47,0.3,0.83,0.68,1.07,1.14
			C242.66,506.08,242.78,506.63,242.78,507.26z M238.38,515.63c0-0.6-0.22-1.07-0.66-1.41c-0.44-0.34-1.15-0.52-2.12-0.52h-2.44
			l-1.02,5.14h2.6c0.66,0,1.22-0.09,1.67-0.28c0.45-0.19,0.83-0.43,1.12-0.73c0.29-0.3,0.51-0.64,0.65-1.03
			C238.31,516.42,238.38,516.03,238.38,515.63z M238.99,507.95c0-0.26-0.05-0.49-0.14-0.69c-0.09-0.19-0.23-0.36-0.42-0.5
			c-0.19-0.14-0.42-0.25-0.7-0.32c-0.28-0.08-0.64-0.11-1.08-0.11h-2l-0.95,4.69h2.07c0.61,0,1.11-0.1,1.51-0.29
			c0.4-0.19,0.73-0.44,0.99-0.74c0.26-0.31,0.44-0.64,0.56-1C238.94,508.63,238.99,508.28,238.99,507.95z"/>
		<path class="st1" d="M247.42,521.17c-0.02,0.09-0.06,0.18-0.13,0.25c-0.07,0.07-0.18,0.13-0.32,0.18
			c-0.14,0.05-0.33,0.08-0.57,0.1c-0.23,0.03-0.52,0.03-0.85,0.03c-0.34,0-0.63-0.01-0.84-0.03c-0.22-0.02-0.39-0.06-0.52-0.1
			c-0.13-0.05-0.21-0.11-0.25-0.18c-0.04-0.07-0.05-0.15-0.03-0.25l2.47-12.43c0.02-0.09,0.06-0.18,0.13-0.25
			c0.07-0.07,0.18-0.13,0.32-0.18c0.14-0.05,0.33-0.09,0.56-0.12c0.23-0.03,0.51-0.04,0.86-0.04c0.34,0,0.63,0.02,0.84,0.04
			c0.22,0.03,0.39,0.07,0.52,0.12c0.13,0.05,0.21,0.11,0.25,0.18c0.04,0.07,0.05,0.15,0.03,0.25L247.42,521.17z M251.02,504.52
			c-0.06,0.34-0.15,0.64-0.26,0.87c-0.11,0.24-0.26,0.43-0.45,0.58c-0.19,0.14-0.41,0.25-0.69,0.31c-0.27,0.06-0.6,0.09-1.01,0.09
			c-0.39,0-0.71-0.03-0.96-0.09c-0.25-0.06-0.43-0.16-0.56-0.31c-0.12-0.15-0.2-0.34-0.22-0.58c-0.02-0.24,0.01-0.53,0.09-0.87
			c0.06-0.34,0.15-0.62,0.26-0.85c0.11-0.23,0.26-0.43,0.45-0.57c0.19-0.15,0.41-0.26,0.69-0.32c0.27-0.06,0.6-0.1,1.01-0.1
			c0.39,0,0.71,0.03,0.96,0.1c0.25,0.06,0.43,0.17,0.56,0.32c0.12,0.15,0.2,0.34,0.21,0.57
			C251.11,503.9,251.09,504.18,251.02,504.52z"/>
		<path class="st1" d="M254.45,521.17c-0.02,0.09-0.06,0.18-0.13,0.25c-0.07,0.07-0.18,0.13-0.31,0.18
			c-0.14,0.05-0.33,0.08-0.56,0.1c-0.23,0.03-0.52,0.03-0.85,0.03c-0.35,0-0.64-0.01-0.86-0.03c-0.22-0.02-0.39-0.06-0.51-0.1
			s-0.2-0.11-0.25-0.18c-0.04-0.07-0.05-0.15-0.03-0.25l3.68-18.37c0.02-0.09,0.06-0.18,0.12-0.25s0.17-0.14,0.32-0.19
			c0.15-0.05,0.34-0.09,0.57-0.12c0.23-0.03,0.51-0.04,0.86-0.04c0.35,0,0.63,0.01,0.85,0.04c0.22,0.03,0.39,0.06,0.51,0.12
			c0.12,0.05,0.2,0.12,0.24,0.19c0.04,0.07,0.05,0.16,0.03,0.25L254.45,521.17z"/>
		<path class="st1" d="M257.92,518.43c0-0.67,0.15-1.27,0.46-1.81c0.3-0.53,0.77-0.99,1.41-1.38c0.64-0.39,1.45-0.68,2.43-0.89
			c0.98-0.2,2.15-0.31,3.51-0.31h1.29c0.04-0.21,0.06-0.43,0.08-0.64c0.02-0.21,0.03-0.4,0.03-0.58c0-0.75-0.2-1.32-0.59-1.7
			c-0.39-0.38-1.02-0.58-1.88-0.58c-0.61,0-1.17,0.05-1.66,0.13c-0.49,0.09-0.92,0.18-1.29,0.29s-0.67,0.21-0.91,0.3
			c-0.24,0.09-0.42,0.13-0.53,0.13c-0.11,0-0.19-0.03-0.24-0.1c-0.05-0.06-0.07-0.17-0.07-0.31c0-0.16,0.01-0.34,0.04-0.54
			c0.03-0.21,0.07-0.41,0.12-0.61c0.05-0.2,0.12-0.39,0.2-0.56c0.08-0.18,0.17-0.31,0.27-0.41c0.11-0.11,0.32-0.22,0.61-0.34
			c0.3-0.11,0.66-0.21,1.07-0.31c0.42-0.09,0.89-0.17,1.41-0.23s1.05-0.09,1.59-0.09c0.89,0,1.67,0.09,2.34,0.28
			s1.22,0.47,1.67,0.85c0.45,0.38,0.78,0.87,1.01,1.46c0.22,0.59,0.34,1.29,0.34,2.1c0,0.62-0.06,1.29-0.18,2
			c-0.12,0.71-0.31,1.42-0.57,2.11c-0.26,0.7-0.6,1.36-1.01,1.99c-0.41,0.64-0.9,1.19-1.49,1.67c-0.58,0.48-1.26,0.86-2.02,1.15
			c-0.77,0.29-1.64,0.43-2.61,0.43c-0.85,0-1.58-0.1-2.19-0.3c-0.61-0.2-1.11-0.47-1.5-0.8s-0.68-0.7-0.87-1.13
			C258.02,519.32,257.92,518.88,257.92,518.43z M261.37,518.17c0,0.37,0.15,0.68,0.44,0.93c0.29,0.24,0.72,0.37,1.28,0.37
			c0.46,0,0.88-0.09,1.25-0.25c0.37-0.17,0.69-0.39,0.97-0.67s0.52-0.62,0.72-1.01c0.2-0.39,0.36-0.8,0.48-1.24h-1.17
			c-0.75,0-1.37,0.05-1.87,0.15c-0.5,0.1-0.91,0.23-1.21,0.4c-0.31,0.17-0.53,0.37-0.67,0.59
			C261.44,517.67,261.37,517.91,261.37,518.17z"/>
		<path class="st1" d="M282.15,509.26c0,0.11-0.02,0.28-0.05,0.49c-0.03,0.22-0.08,0.44-0.15,0.67c-0.06,0.22-0.14,0.42-0.23,0.58
			c-0.09,0.16-0.19,0.25-0.3,0.25c-0.12,0-0.26-0.05-0.43-0.13c-0.16-0.09-0.36-0.19-0.59-0.3c-0.23-0.11-0.51-0.2-0.82-0.28
			c-0.31-0.09-0.68-0.12-1.1-0.12c-0.32,0-0.62,0.04-0.87,0.12c-0.26,0.08-0.47,0.2-0.64,0.34c-0.17,0.15-0.29,0.32-0.38,0.51
			c-0.09,0.2-0.13,0.4-0.13,0.63c0,0.29,0.12,0.53,0.36,0.73c0.24,0.2,0.53,0.38,0.89,0.55c0.35,0.17,0.74,0.35,1.15,0.54
			c0.41,0.18,0.79,0.42,1.14,0.7c0.35,0.28,0.65,0.62,0.88,1.02c0.23,0.4,0.35,0.9,0.35,1.51c0,0.7-0.13,1.36-0.4,1.96
			s-0.66,1.12-1.18,1.56c-0.52,0.43-1.15,0.78-1.89,1.02c-0.74,0.25-1.58,0.37-2.51,0.37c-0.45,0-0.87-0.03-1.28-0.1
			c-0.41-0.06-0.77-0.15-1.09-0.24c-0.32-0.09-0.6-0.2-0.82-0.32c-0.22-0.12-0.39-0.23-0.5-0.34c-0.07-0.08-0.13-0.15-0.16-0.24
			c-0.03-0.09-0.05-0.19-0.05-0.32c0-0.09,0.01-0.19,0.02-0.32c0.01-0.13,0.04-0.28,0.07-0.43c0.03-0.16,0.07-0.31,0.11-0.47
			c0.04-0.16,0.09-0.31,0.15-0.43c0.06-0.13,0.12-0.24,0.18-0.31c0.06-0.08,0.14-0.12,0.21-0.12c0.13,0,0.27,0.06,0.43,0.17
			s0.36,0.24,0.61,0.37c0.25,0.14,0.56,0.26,0.93,0.38c0.37,0.12,0.83,0.18,1.38,0.18c0.38,0,0.71-0.05,1-0.13
			c0.28-0.09,0.52-0.21,0.7-0.37c0.19-0.16,0.32-0.34,0.41-0.55c0.09-0.21,0.13-0.43,0.13-0.66c0-0.33-0.11-0.59-0.34-0.8
			c-0.23-0.21-0.52-0.4-0.86-0.57c-0.34-0.18-0.72-0.36-1.12-0.55c-0.41-0.18-0.78-0.41-1.13-0.68c-0.34-0.27-0.63-0.61-0.86-1.01
			c-0.23-0.4-0.34-0.9-0.34-1.51c0-0.66,0.12-1.28,0.38-1.84s0.62-1.07,1.1-1.49c0.49-0.43,1.07-0.76,1.76-0.99
			c0.69-0.24,1.47-0.36,2.35-0.36c0.39,0,0.77,0.03,1.14,0.08c0.37,0.05,0.7,0.12,0.99,0.2c0.29,0.09,0.55,0.18,0.77,0.28
			c0.22,0.1,0.38,0.21,0.47,0.31C282.1,508.87,282.15,509.03,282.15,509.26z"/>
		<path class="st1" d="M294.71,521.19c-0.02,0.09-0.06,0.17-0.12,0.24c-0.06,0.07-0.15,0.13-0.28,0.17
			c-0.12,0.04-0.29,0.08-0.48,0.1c-0.2,0.03-0.44,0.03-0.73,0.03s-0.52-0.01-0.7-0.03c-0.18-0.02-0.32-0.06-0.43-0.1
			c-0.1-0.04-0.17-0.09-0.2-0.17c-0.03-0.07-0.03-0.15-0.01-0.24l0.38-2.03c-0.19,0.33-0.44,0.65-0.77,0.98s-0.7,0.64-1.12,0.91
			c-0.42,0.28-0.88,0.49-1.38,0.66c-0.49,0.17-1,0.25-1.52,0.25c-0.65,0-1.2-0.09-1.65-0.28s-0.81-0.43-1.09-0.74
			c-0.28-0.31-0.48-0.69-0.6-1.13c-0.12-0.44-0.19-0.91-0.19-1.42c0-0.32,0.02-0.64,0.06-0.97c0.04-0.33,0.09-0.67,0.16-1.01
			l1.53-7.72c0.02-0.09,0.06-0.18,0.13-0.25c0.07-0.07,0.18-0.12,0.32-0.17c0.14-0.04,0.33-0.07,0.57-0.1
			c0.23-0.02,0.52-0.03,0.85-0.03c0.34,0,0.63,0.01,0.84,0.03c0.22,0.03,0.39,0.06,0.51,0.1c0.12,0.04,0.2,0.1,0.25,0.17
			c0.04,0.07,0.05,0.15,0.03,0.25l-1.48,7.49c-0.05,0.21-0.08,0.42-0.11,0.64c-0.02,0.22-0.03,0.43-0.03,0.64
			c0,0.22,0.02,0.43,0.06,0.61c0.04,0.18,0.11,0.34,0.2,0.47c0.09,0.13,0.21,0.23,0.35,0.3c0.14,0.06,0.32,0.09,0.52,0.09
			c0.38,0,0.78-0.12,1.2-0.37c0.41-0.25,0.81-0.58,1.18-1.02s0.7-0.95,1-1.54c0.29-0.59,0.51-1.23,0.66-1.92l1.06-5.39
			c0.01-0.09,0.05-0.18,0.12-0.25c0.08-0.07,0.18-0.12,0.33-0.17c0.14-0.04,0.33-0.07,0.57-0.1c0.23-0.02,0.52-0.03,0.85-0.03
			c0.35,0,0.63,0.01,0.85,0.03c0.22,0.03,0.39,0.06,0.52,0.1c0.13,0.04,0.21,0.1,0.25,0.17c0.04,0.07,0.05,0.15,0.03,0.25
			L294.71,521.19z"/>
		<path class="st1" d="M311.61,508.62c0,0.1-0.01,0.23-0.04,0.37c-0.03,0.15-0.07,0.31-0.13,0.48c-0.34,1.01-0.73,2.01-1.14,3.02
			c-0.42,1.01-0.88,2.01-1.38,3c-0.5,0.98-1.04,1.96-1.63,2.91c-0.58,0.95-1.21,1.87-1.89,2.75c-0.09,0.13-0.2,0.23-0.34,0.31
			c-0.13,0.08-0.29,0.14-0.47,0.18s-0.41,0.07-0.66,0.08c-0.25,0.01-0.55,0.01-0.88,0.01c-0.51,0-0.92-0.01-1.22-0.03
			c-0.3-0.02-0.52-0.06-0.68-0.12c-0.16-0.06-0.27-0.13-0.32-0.23c-0.06-0.1-0.09-0.22-0.1-0.37l-1.47-11.21
			c-0.01-0.15-0.02-0.29-0.03-0.42c-0.01-0.13-0.02-0.25-0.02-0.37c0-0.18,0.02-0.33,0.06-0.43c0.04-0.1,0.13-0.18,0.25-0.24
			c0.13-0.06,0.31-0.1,0.55-0.13c0.24-0.03,0.56-0.04,0.96-0.04c0.37,0,0.67,0.01,0.88,0.03c0.21,0.02,0.38,0.05,0.49,0.1
			c0.12,0.04,0.19,0.11,0.23,0.18c0.04,0.08,0.06,0.18,0.07,0.29l1.06,9.15v0.35l0.07-0.12c0.48-0.72,0.91-1.44,1.29-2.17
			s0.74-1.47,1.07-2.24c0.33-0.77,0.64-1.56,0.93-2.37c0.29-0.82,0.57-1.69,0.85-2.6c0.03-0.12,0.08-0.22,0.15-0.29
			c0.08-0.08,0.19-0.14,0.34-0.18c0.15-0.05,0.35-0.08,0.59-0.1c0.24-0.02,0.53-0.03,0.89-0.03c0.34,0,0.63,0.01,0.84,0.03
			c0.22,0.02,0.39,0.05,0.5,0.08c0.12,0.04,0.2,0.09,0.24,0.14C311.59,508.46,311.61,508.53,311.61,508.62z"/>
		<path class="st1" d="M323.24,521.19c-0.04,0.19-0.18,0.34-0.44,0.42c-0.26,0.09-0.67,0.12-1.24,0.12c-0.29,0-0.52-0.01-0.7-0.03
			c-0.18-0.02-0.33-0.05-0.44-0.09c-0.11-0.04-0.18-0.1-0.22-0.17c-0.03-0.07-0.04-0.16-0.02-0.26l0.39-2
			c-0.14,0.3-0.36,0.61-0.67,0.94c-0.31,0.33-0.67,0.63-1.09,0.9c-0.42,0.27-0.88,0.49-1.39,0.67c-0.51,0.18-1.03,0.27-1.57,0.27
			c-0.75,0-1.36-0.13-1.86-0.39c-0.49-0.26-0.89-0.61-1.19-1.06c-0.3-0.44-0.51-0.95-0.63-1.51c-0.13-0.57-0.19-1.16-0.19-1.79
			c0-0.59,0.06-1.23,0.17-1.92c0.11-0.7,0.28-1.39,0.52-2.08c0.23-0.69,0.53-1.35,0.89-1.99c0.36-0.64,0.8-1.2,1.3-1.7
			c0.51-0.49,1.09-0.89,1.75-1.18c0.66-0.29,1.4-0.44,2.23-0.44c0.77,0,1.46,0.16,2.05,0.48c0.6,0.32,1.12,0.79,1.56,1.41l0.22-1.1
			c0.04-0.19,0.18-0.34,0.44-0.42c0.26-0.09,0.67-0.13,1.24-0.13c0.28,0,0.51,0.01,0.7,0.03c0.19,0.03,0.33,0.06,0.44,0.1
			c0.11,0.04,0.18,0.1,0.21,0.17c0.04,0.07,0.05,0.15,0.03,0.25L323.24,521.19z M321.5,512.44c-0.33-0.51-0.69-0.9-1.08-1.15
			c-0.4-0.26-0.85-0.38-1.38-0.38c-0.39,0-0.75,0.09-1.07,0.28c-0.33,0.18-0.61,0.43-0.87,0.74c-0.25,0.31-0.47,0.67-0.66,1.08
			c-0.19,0.41-0.35,0.84-0.48,1.28c-0.13,0.44-0.22,0.89-0.28,1.34s-0.09,0.87-0.09,1.25c0,0.28,0.02,0.54,0.06,0.8
			c0.04,0.25,0.12,0.47,0.23,0.67c0.11,0.19,0.26,0.35,0.45,0.47c0.19,0.12,0.42,0.17,0.71,0.17c0.41,0,0.83-0.12,1.26-0.37
			c0.43-0.24,0.83-0.58,1.2-1.01c0.37-0.42,0.7-0.92,0.99-1.48c0.28-0.56,0.49-1.17,0.62-1.81L321.5,512.44z"/>
		<path class="st1" d="M337.11,508.52c0,0.06-0.01,0.18-0.03,0.35c-0.02,0.17-0.05,0.37-0.08,0.59c-0.04,0.22-0.08,0.45-0.14,0.69
			c-0.06,0.24-0.12,0.46-0.19,0.67c-0.07,0.2-0.15,0.37-0.24,0.5c-0.09,0.13-0.18,0.19-0.29,0.19c-0.09,0-0.17-0.02-0.25-0.05
			c-0.08-0.03-0.18-0.06-0.28-0.1c-0.1-0.03-0.21-0.06-0.34-0.1c-0.12-0.03-0.26-0.05-0.42-0.05c-0.32,0-0.66,0.12-1.01,0.37
			c-0.36,0.24-0.7,0.56-1.03,0.95c-0.32,0.4-0.62,0.86-0.87,1.38c-0.26,0.52-0.44,1.08-0.55,1.65l-1.12,5.6
			c-0.02,0.09-0.06,0.18-0.13,0.25c-0.07,0.07-0.18,0.13-0.32,0.18s-0.33,0.08-0.57,0.1c-0.23,0.03-0.52,0.03-0.85,0.03
			c-0.34,0-0.63-0.01-0.84-0.03c-0.22-0.02-0.39-0.06-0.52-0.1c-0.13-0.05-0.21-0.11-0.25-0.18c-0.04-0.07-0.05-0.15-0.03-0.25
			l2.49-12.47c0.02-0.09,0.06-0.18,0.13-0.25c0.06-0.07,0.16-0.12,0.29-0.17c0.12-0.04,0.29-0.07,0.49-0.1
			c0.2-0.02,0.44-0.03,0.72-0.03c0.29,0,0.52,0.01,0.7,0.03c0.18,0.03,0.32,0.06,0.43,0.1c0.1,0.04,0.17,0.1,0.2,0.17
			c0.03,0.07,0.04,0.15,0.02,0.25l-0.39,1.99c0.22-0.4,0.48-0.77,0.77-1.1c0.29-0.34,0.61-0.63,0.94-0.87
			c0.33-0.25,0.67-0.44,1.03-0.58c0.35-0.14,0.7-0.21,1.05-0.21c0.14,0,0.28,0.01,0.43,0.03c0.14,0.02,0.28,0.04,0.41,0.07
			c0.12,0.03,0.24,0.06,0.34,0.1c0.1,0.04,0.17,0.09,0.23,0.13C337.08,508.31,337.11,508.4,337.11,508.52z"/>
	</g>
	<g>
		<path class="st1" d="M528.03,605.42c-0.04,0.21-0.11,0.4-0.22,0.57c-0.11,0.17-0.23,0.31-0.38,0.42c-0.14,0.11-0.3,0.19-0.48,0.24
			s-0.35,0.08-0.54,0.08h-1.56c-0.34,0-0.61-0.03-0.83-0.1c-0.21-0.07-0.4-0.18-0.55-0.35c-0.15-0.17-0.29-0.4-0.41-0.69
			c-0.12-0.29-0.25-0.66-0.38-1.1l-2.67-8.07c-0.2-0.62-0.39-1.25-0.57-1.89c-0.17-0.63-0.34-1.26-0.5-1.88h-0.03
			c-0.09,0.74-0.2,1.46-0.32,2.17c-0.12,0.71-0.26,1.43-0.4,2.15l-1.84,9.23c-0.02,0.09-0.06,0.18-0.13,0.25
			c-0.07,0.08-0.17,0.14-0.31,0.18c-0.14,0.05-0.32,0.08-0.54,0.11c-0.22,0.03-0.49,0.04-0.82,0.04c-0.33,0-0.6-0.02-0.8-0.04
			c-0.21-0.03-0.37-0.07-0.48-0.11c-0.11-0.05-0.18-0.11-0.22-0.18c-0.03-0.08-0.04-0.16-0.01-0.25l3.25-16.26
			c0.08-0.44,0.28-0.77,0.57-0.98c0.3-0.22,0.63-0.33,1.01-0.33h1.92c0.31,0,0.57,0.03,0.79,0.11c0.22,0.07,0.41,0.18,0.56,0.34
			c0.15,0.15,0.29,0.35,0.41,0.59c0.12,0.24,0.23,0.54,0.33,0.89l2.7,8.15c0.18,0.52,0.34,1.04,0.48,1.55s0.3,1.03,0.46,1.54h0.03
			c0.1-0.67,0.22-1.36,0.34-2.07c0.12-0.71,0.25-1.4,0.38-2.07l1.72-8.52c0.02-0.09,0.06-0.17,0.12-0.24
			c0.07-0.07,0.17-0.13,0.3-0.17c0.14-0.04,0.31-0.08,0.52-0.1c0.21-0.02,0.48-0.03,0.81-0.03s0.6,0.01,0.81,0.03
			c0.21,0.02,0.38,0.06,0.49,0.1c0.11,0.04,0.18,0.1,0.22,0.17c0.04,0.07,0.05,0.15,0.03,0.24L528.03,605.42z"/>
		<path class="st1" d="M544.6,596.51c0,0.67-0.15,1.27-0.45,1.81c-0.3,0.54-0.77,1-1.41,1.38c-0.64,0.39-1.45,0.68-2.43,0.89
			c-0.98,0.2-2.15,0.31-3.51,0.31h-1.29c-0.04,0.21-0.06,0.43-0.08,0.64c-0.02,0.21-0.03,0.4-0.03,0.58c0,0.75,0.2,1.32,0.59,1.7
			c0.39,0.38,1.02,0.57,1.89,0.57c0.61,0,1.16-0.05,1.65-0.13c0.49-0.09,0.92-0.18,1.29-0.29c0.37-0.11,0.67-0.21,0.92-0.29
			c0.24-0.09,0.42-0.13,0.53-0.13s0.19,0.03,0.24,0.1c0.05,0.06,0.07,0.17,0.07,0.31c0,0.16-0.02,0.34-0.04,0.54
			c-0.03,0.21-0.07,0.41-0.12,0.61s-0.12,0.39-0.2,0.57c-0.08,0.18-0.17,0.31-0.27,0.41c-0.11,0.11-0.32,0.22-0.61,0.34
			c-0.3,0.11-0.66,0.21-1.08,0.31c-0.42,0.09-0.89,0.17-1.41,0.23s-1.05,0.09-1.59,0.09c-0.89,0-1.67-0.09-2.34-0.28
			c-0.67-0.19-1.22-0.47-1.67-0.85c-0.45-0.38-0.78-0.87-1.01-1.46c-0.22-0.59-0.34-1.29-0.34-2.1c0-0.63,0.06-1.29,0.17-2.01
			c0.12-0.71,0.31-1.42,0.57-2.11s0.6-1.36,1.01-1.99s0.9-1.19,1.49-1.67c0.58-0.48,1.26-0.86,2.02-1.15
			c0.76-0.29,1.63-0.43,2.61-0.43c0.85,0,1.58,0.1,2.19,0.3c0.61,0.2,1.11,0.47,1.5,0.8s0.68,0.71,0.87,1.13
			C544.5,595.63,544.6,596.06,544.6,596.51z M541.15,596.77c0-0.37-0.15-0.68-0.44-0.93c-0.29-0.25-0.72-0.37-1.28-0.37
			c-0.47,0-0.88,0.08-1.25,0.25c-0.37,0.17-0.69,0.39-0.97,0.68c-0.28,0.28-0.52,0.62-0.72,1.01c-0.2,0.39-0.36,0.8-0.48,1.24h1.17
			c0.75,0,1.37-0.05,1.87-0.15c0.5-0.1,0.91-0.23,1.22-0.4c0.31-0.17,0.53-0.37,0.67-0.59
			C541.08,597.28,541.15,597.04,541.15,596.77z"/>
		<path class="st1" d="M563.54,593.9c0,0.09-0.01,0.21-0.02,0.35c-0.01,0.14-0.04,0.3-0.08,0.47c-0.04,0.17-0.08,0.34-0.14,0.5
			c-0.06,0.17-0.12,0.32-0.18,0.45c-0.06,0.14-0.14,0.25-0.23,0.34c-0.09,0.09-0.19,0.13-0.3,0.13h-2.73l-1.17,5.85
			c-0.02,0.14-0.04,0.3-0.06,0.49c-0.02,0.19-0.03,0.35-0.03,0.47c0,0.37,0.09,0.64,0.26,0.82c0.18,0.17,0.46,0.26,0.84,0.26
			c0.22,0,0.41-0.02,0.57-0.05c0.15-0.03,0.29-0.07,0.41-0.11c0.12-0.04,0.22-0.08,0.31-0.11c0.09-0.03,0.16-0.05,0.24-0.05
			c0.08,0,0.14,0.03,0.19,0.11c0.05,0.07,0.08,0.18,0.08,0.34c0,0.18-0.02,0.38-0.06,0.6c-0.04,0.22-0.09,0.44-0.15,0.65
			c-0.06,0.21-0.13,0.4-0.2,0.57c-0.08,0.17-0.15,0.3-0.24,0.38c-0.09,0.08-0.21,0.16-0.38,0.24c-0.17,0.08-0.37,0.14-0.6,0.2
			s-0.47,0.1-0.73,0.13c-0.26,0.03-0.52,0.05-0.79,0.05c-0.56,0-1.05-0.06-1.47-0.17c-0.42-0.12-0.78-0.3-1.07-0.55
			c-0.29-0.25-0.5-0.57-0.64-0.96c-0.14-0.39-0.21-0.87-0.21-1.43c0-0.1,0.01-0.22,0.02-0.35c0.01-0.14,0.02-0.28,0.04-0.43
			c0.02-0.15,0.04-0.3,0.06-0.45c0.02-0.15,0.05-0.29,0.08-0.41l1.21-6.08h-4.57l-2.19,10.95c-0.16,0.77-0.37,1.45-0.65,2.04
			c-0.28,0.59-0.62,1.08-1.04,1.47c-0.42,0.4-0.91,0.69-1.49,0.89c-0.57,0.2-1.22,0.3-1.95,0.3c-0.49,0-0.89-0.04-1.22-0.11
			c-0.33-0.07-0.54-0.15-0.63-0.22c-0.05-0.06-0.08-0.12-0.1-0.18c-0.02-0.06-0.03-0.16-0.03-0.28c0-0.06,0.01-0.15,0.02-0.28
			c0.01-0.13,0.03-0.27,0.06-0.43c0.03-0.15,0.06-0.31,0.11-0.48c0.04-0.17,0.09-0.32,0.14-0.46s0.11-0.25,0.17-0.34
			c0.06-0.09,0.14-0.13,0.22-0.13c0.06,0,0.11,0,0.17,0.01c0.06,0.01,0.12,0.02,0.18,0.04c0.06,0.01,0.14,0.03,0.23,0.03
			c0.09,0.01,0.2,0.02,0.34,0.02c0.3,0,0.56-0.05,0.78-0.13s0.41-0.23,0.57-0.41c0.16-0.19,0.29-0.43,0.4-0.72
			c0.11-0.29,0.21-0.65,0.29-1.07l2.11-10.51h-1.56c-0.11,0-0.2-0.04-0.26-0.12s-0.09-0.23-0.09-0.45c0-0.09,0.01-0.21,0.02-0.37
			c0.01-0.15,0.04-0.31,0.07-0.47s0.07-0.34,0.12-0.51c0.05-0.17,0.11-0.32,0.18-0.46c0.08-0.14,0.16-0.25,0.25-0.34
			c0.09-0.09,0.19-0.13,0.31-0.13h1.54l0.26-1.38c0.15-0.78,0.37-1.47,0.66-2.07c0.29-0.6,0.64-1.09,1.07-1.49
			c0.42-0.4,0.92-0.7,1.5-0.9c0.57-0.2,1.22-0.3,1.95-0.3c0.24,0,0.48,0.01,0.7,0.03c0.23,0.02,0.43,0.05,0.62,0.09
			c0.19,0.04,0.35,0.09,0.48,0.14c0.14,0.06,0.23,0.11,0.29,0.17c0.05,0.05,0.09,0.11,0.11,0.19c0.03,0.08,0.04,0.18,0.04,0.32
			c0,0.06-0.01,0.15-0.02,0.27c-0.01,0.13-0.03,0.27-0.06,0.43c-0.03,0.16-0.06,0.32-0.1,0.49c-0.04,0.17-0.08,0.32-0.13,0.47
			c-0.05,0.14-0.11,0.26-0.18,0.35c-0.06,0.09-0.13,0.13-0.19,0.13c-0.07,0-0.14-0.01-0.21-0.03c-0.08-0.02-0.17-0.05-0.27-0.08
			c-0.11-0.03-0.23-0.06-0.36-0.09c-0.14-0.03-0.29-0.04-0.47-0.04c-0.29,0-0.54,0.04-0.76,0.13c-0.22,0.08-0.4,0.21-0.56,0.4
			c-0.15,0.18-0.29,0.42-0.4,0.71c-0.11,0.29-0.2,0.63-0.28,1.03l-0.2,1.06h4.58l0.56-2.78c0.02-0.09,0.06-0.18,0.13-0.25
			c0.07-0.08,0.17-0.14,0.31-0.19s0.33-0.09,0.56-0.11c0.23-0.02,0.52-0.03,0.85-0.03c0.35,0,0.63,0.01,0.85,0.03
			c0.22,0.02,0.39,0.06,0.52,0.11c0.13,0.05,0.21,0.11,0.25,0.19c0.04,0.07,0.05,0.16,0.04,0.25l-0.56,2.78h2.7
			c0.15,0,0.25,0.05,0.31,0.15C563.52,593.55,563.54,593.7,563.54,593.9z"/>
		<path class="st1" d="M566.64,606.81c-0.96-0.24-1.7-0.74-2.23-1.5c-0.53-0.76-0.79-1.78-0.79-3.07c0-0.57,0.05-1.19,0.16-1.87
			s0.28-1.36,0.52-2.05c0.24-0.69,0.56-1.35,0.94-1.99c0.39-0.64,0.86-1.21,1.42-1.7c0.56-0.49,1.21-0.89,1.94-1.19
			c0.74-0.3,1.58-0.45,2.54-0.45c0.37,0,0.74,0.03,1.09,0.08c0.35,0.06,0.68,0.13,0.98,0.23c0.3,0.1,0.56,0.21,0.79,0.34
			c0.23,0.13,0.4,0.25,0.51,0.36s0.18,0.2,0.21,0.29c0.03,0.08,0.05,0.18,0.05,0.31c0,0.21-0.03,0.46-0.08,0.73
			c-0.05,0.27-0.12,0.53-0.2,0.77c-0.08,0.24-0.19,0.44-0.31,0.61c-0.13,0.16-0.26,0.24-0.41,0.24c-0.14,0-0.28-0.06-0.41-0.17
			c-0.13-0.11-0.29-0.24-0.48-0.38s-0.43-0.27-0.72-0.38c-0.29-0.12-0.66-0.17-1.12-0.17c-0.49,0-0.92,0.11-1.3,0.32
			c-0.38,0.21-0.72,0.49-1,0.83c-0.28,0.34-0.52,0.73-0.71,1.16c-0.19,0.43-0.34,0.87-0.46,1.31c-0.12,0.44-0.21,0.87-0.26,1.27
			c-0.05,0.41-0.08,0.76-0.08,1.06c0,0.75,0.16,1.33,0.49,1.72s0.85,0.58,1.56,0.58c0.52,0,0.97-0.07,1.34-0.2
			c0.37-0.14,0.69-0.28,0.96-0.45c0.27-0.16,0.49-0.31,0.69-0.44c0.19-0.13,0.37-0.2,0.52-0.2c0.09,0,0.16,0.04,0.2,0.13
			c0.04,0.08,0.06,0.2,0.06,0.36c0,0.16-0.02,0.36-0.06,0.59c-0.04,0.24-0.09,0.48-0.15,0.72s-0.13,0.47-0.21,0.68
			c-0.08,0.21-0.18,0.38-0.31,0.5c-0.12,0.12-0.33,0.26-0.62,0.43c-0.29,0.17-0.63,0.32-1.03,0.45c-0.4,0.13-0.82,0.22-1.26,0.27
			l0.17,0.7c0.06,0.23,0.12,0.45,0.15,0.66c0.04,0.21,0.06,0.41,0.06,0.61c0,0.5-0.08,0.94-0.24,1.31
			c-0.16,0.37-0.39,0.67-0.69,0.91c-0.3,0.24-0.65,0.41-1.07,0.52c-0.41,0.11-0.87,0.17-1.38,0.17c-0.27,0-0.53-0.01-0.79-0.03
			c-0.26-0.02-0.49-0.05-0.71-0.09c-0.21-0.04-0.41-0.09-0.57-0.14c-0.17-0.05-0.31-0.1-0.42-0.15c-0.1-0.06-0.17-0.11-0.21-0.17
			c-0.04-0.06-0.06-0.15-0.06-0.27c0-0.09,0.01-0.22,0.03-0.39c0.02-0.17,0.06-0.34,0.12-0.5c0.06-0.17,0.13-0.31,0.23-0.44
			c0.1-0.12,0.22-0.19,0.37-0.19h1.59c0.13,0,0.26-0.02,0.38-0.05c0.12-0.03,0.23-0.08,0.31-0.14s0.16-0.14,0.21-0.25
			c0.05-0.1,0.08-0.22,0.08-0.35c0-0.09-0.01-0.2-0.02-0.32c-0.01-0.12-0.03-0.24-0.06-0.36L566.64,606.81z"/>
		<path class="st1" d="M586.48,606.25c-0.04,0.19-0.18,0.34-0.44,0.42c-0.26,0.09-0.67,0.13-1.24,0.13c-0.29,0-0.52-0.01-0.71-0.03
			c-0.18-0.02-0.33-0.05-0.44-0.09c-0.11-0.04-0.18-0.1-0.22-0.17c-0.03-0.07-0.04-0.16-0.02-0.26l0.39-2
			c-0.14,0.3-0.36,0.61-0.67,0.94c-0.31,0.33-0.67,0.63-1.09,0.9c-0.42,0.27-0.88,0.49-1.39,0.67c-0.51,0.18-1.03,0.27-1.57,0.27
			c-0.75,0-1.36-0.13-1.86-0.39c-0.49-0.26-0.89-0.61-1.19-1.06c-0.3-0.44-0.51-0.95-0.63-1.52c-0.13-0.57-0.19-1.16-0.19-1.79
			c0-0.59,0.06-1.23,0.17-1.92c0.11-0.69,0.28-1.39,0.52-2.08c0.23-0.69,0.53-1.35,0.89-1.99c0.36-0.64,0.8-1.2,1.3-1.7
			c0.51-0.49,1.09-0.89,1.75-1.18c0.66-0.29,1.4-0.44,2.23-0.44c0.77,0,1.46,0.16,2.05,0.48c0.6,0.32,1.12,0.79,1.56,1.4l0.22-1.1
			c0.04-0.19,0.18-0.34,0.44-0.42c0.26-0.09,0.67-0.13,1.24-0.13c0.28,0,0.51,0.01,0.7,0.03c0.19,0.02,0.33,0.06,0.44,0.1
			c0.11,0.04,0.18,0.1,0.21,0.17c0.04,0.07,0.05,0.15,0.03,0.24L586.48,606.25z M584.75,597.5c-0.33-0.51-0.69-0.9-1.08-1.15
			c-0.4-0.26-0.85-0.38-1.38-0.38c-0.39,0-0.75,0.09-1.07,0.28c-0.33,0.18-0.61,0.43-0.87,0.75c-0.25,0.31-0.47,0.67-0.66,1.08
			s-0.35,0.84-0.47,1.28c-0.13,0.44-0.22,0.89-0.28,1.34s-0.09,0.87-0.09,1.25c0,0.28,0.02,0.54,0.06,0.8
			c0.04,0.25,0.12,0.47,0.23,0.67c0.11,0.2,0.26,0.35,0.45,0.47c0.19,0.12,0.42,0.17,0.71,0.17c0.41,0,0.83-0.12,1.26-0.37
			c0.43-0.25,0.83-0.58,1.2-1.01c0.37-0.42,0.7-0.92,0.99-1.48s0.49-1.17,0.62-1.81L584.75,597.5z"/>
		<path class="st1" d="M593.52,606.23c-0.02,0.09-0.06,0.17-0.13,0.24c-0.07,0.07-0.18,0.13-0.31,0.17
			c-0.14,0.05-0.33,0.08-0.56,0.11c-0.23,0.02-0.52,0.03-0.85,0.03c-0.35,0-0.64-0.01-0.86-0.03c-0.22-0.02-0.39-0.06-0.51-0.11
			c-0.12-0.05-0.2-0.11-0.25-0.17c-0.04-0.07-0.05-0.15-0.03-0.24l3.68-18.37c0.02-0.09,0.06-0.18,0.12-0.25
			c0.06-0.07,0.17-0.14,0.32-0.19c0.15-0.05,0.34-0.09,0.57-0.12c0.23-0.03,0.51-0.04,0.86-0.04c0.35,0,0.63,0.01,0.85,0.04
			c0.22,0.03,0.39,0.07,0.51,0.12s0.2,0.11,0.24,0.19c0.04,0.08,0.05,0.16,0.03,0.25L593.52,606.23z"/>
		<path class="st1" d="M608.61,606.25c-0.04,0.19-0.18,0.34-0.44,0.42c-0.26,0.09-0.67,0.13-1.24,0.13c-0.29,0-0.52-0.01-0.7-0.03
			c-0.18-0.02-0.33-0.05-0.44-0.09c-0.11-0.04-0.18-0.1-0.22-0.17c-0.03-0.07-0.04-0.16-0.02-0.26l0.39-2
			c-0.14,0.3-0.36,0.61-0.67,0.94c-0.31,0.33-0.67,0.63-1.09,0.9c-0.42,0.27-0.88,0.49-1.39,0.67c-0.51,0.18-1.03,0.27-1.57,0.27
			c-0.75,0-1.36-0.13-1.86-0.39c-0.49-0.26-0.89-0.61-1.19-1.06c-0.3-0.44-0.51-0.95-0.63-1.52c-0.13-0.57-0.19-1.16-0.19-1.79
			c0-0.59,0.06-1.23,0.17-1.92c0.11-0.69,0.28-1.39,0.52-2.08c0.23-0.69,0.53-1.35,0.89-1.99c0.36-0.64,0.8-1.2,1.3-1.7
			c0.51-0.49,1.09-0.89,1.75-1.18c0.66-0.29,1.4-0.44,2.23-0.44c0.77,0,1.46,0.16,2.05,0.48c0.6,0.32,1.12,0.79,1.56,1.4l0.22-1.1
			c0.04-0.19,0.18-0.34,0.44-0.42c0.26-0.09,0.67-0.13,1.24-0.13c0.28,0,0.51,0.01,0.7,0.03c0.19,0.02,0.33,0.06,0.44,0.1
			c0.11,0.04,0.18,0.1,0.21,0.17c0.04,0.07,0.05,0.15,0.03,0.24L608.61,606.25z M606.88,597.5c-0.33-0.51-0.69-0.9-1.08-1.15
			c-0.4-0.26-0.85-0.38-1.38-0.38c-0.39,0-0.75,0.09-1.07,0.28c-0.33,0.18-0.61,0.43-0.87,0.75c-0.25,0.31-0.47,0.67-0.66,1.08
			s-0.35,0.84-0.48,1.28c-0.13,0.44-0.22,0.89-0.28,1.34s-0.09,0.87-0.09,1.25c0,0.28,0.02,0.54,0.06,0.8
			c0.04,0.25,0.12,0.47,0.23,0.67c0.11,0.2,0.26,0.35,0.45,0.47c0.19,0.12,0.42,0.17,0.71,0.17c0.41,0,0.83-0.12,1.26-0.37
			c0.43-0.25,0.83-0.58,1.2-1.01c0.37-0.42,0.7-0.92,0.99-1.48c0.28-0.56,0.49-1.17,0.62-1.81L606.88,597.5z"/>
	</g>
</g>
</svg>
