<?xml version="1.0" encoding="UTF-8"?>
<svg xmlns="http://www.w3.org/2000/svg" version="1.1" viewBox="0 0 841.89 595.28">
  <defs>
    <style>
      .cls-1 {
        fill: #22423e;
      }
    </style>
  </defs>
  <!-- Generator: Adobe Illustrator 28.6.0, SVG Export Plug-In . SVG Version: 1.2.0 Build 709)  -->
  <g>
    <g id="Layer_1">
      <path id="Path_2094" class="cls-1" d="M378.15,43.22c-.38,1.31-1.13,5.62-1.88,9.56-.56,3.93-3.75,9.93-6.93,13.49-4.5,5.24-6.93,6.56-12.74,6.56-4.12,0-8.06-1.31-9.37-2.81-1.68-2.06-4.12-2.62-7.87-1.87-4.31,1.13-5.81.38-8.43-4.12-3.75-6.37-18.93-14.81-21.93-11.81-3.37,3.37-7.5,2.06-12.55-3.93-5.43-6.75-9.18-6-9.18,1.87,0,2.81-.94,6-2.06,7.12-1.31,1.31-1.5,3.18-.18,5.43.94,2.06,2.44,8.62,3.18,14.8.56,6,1.5,11.62,1.88,12.18.38.57,0,4.12-.75,7.87-1.31,5.43-.75,8.24,2.06,13.11,2.06,3.37,4.12,6.56,4.5,6.93s5.81-.38,12.37-1.69c11.43-2.25,12.37-2.25,28.67,3.37,17.99,6.18,20.61,9.18,14.8,15.55-6.18,6.93-3,24.17,4.5,24.17,1.5,0,5.62,3.19,8.99,6.93,6,6.56,6.75,6.93,16.67,6.56,11.62-.56,15.74,1.13,24.73,9.93,4.12,4.12,6,7.5,5.81,10.49-.56,3.94,0,4.31,5.81,3.75,6-.56,6.18-.19,5.25,4.69-.37,2.81.75,9.75,2.62,15.55,2.43,8.04,4.31,16.25,5.62,24.55,1.13,7.68,3.37,15.55,5.06,17.43,1.5,1.87,3.19,7.12,3.37,11.99.37,4.68,1.5,9.56,2.62,10.68.94.94,1.88,4.12,1.88,6.93,0,2.7,1,5.31,2.81,7.31,2.06,1.69,2.44,3,.94,4.5-.94.94-1.88,4.12-1.88,6.75.11,3.22-1.74,6.18-4.68,7.5-2.62,1.31-5.06,2.06-5.81,1.5-.56-.56-3.56,1.31-6.56,4.12-4.5,4.12-5.43,6-4.5,9.93,1.88,6.93-3.19,8.62-11.99,4.12-3.75-2.06-7.12-3.75-7.68-3.94s-5.62,1.5-11.24,4.12c-13.68,5.81-15.55,5.62-24.36-2.25-6.75-6.18-8.06-6.75-12.37-4.69-6.56,3-7.5,2.81-13.87-3.56-6.75-6.56-9.18-6.37-23.23,2.06-12.37,7.68-18.17,6.75-20.8-2.81-2.06-7.12-8.62-14.24-12.93-14.24-4.69.19-14.62,11.62-15.55,17.99-1.31,7.5-8.43,15.55-20.99,23.61-12.37,7.87-17.24,7.12-29.79-4.69-6.66-6.14-13.67-11.9-20.99-17.24-5.62-3.93-15.92-12.18-22.86-18.36-10.31-9.18-14.05-11.24-20.61-11.99-9.75-.94-22.67,5.62-23.61,11.99-.56,3.94-.37,4.12,5.06,1.31,3.19-1.69,7.5-2.44,9.75-1.69,6,1.88,31.3,24.92,34.85,31.48,1.68,3.37,6.37,8.81,10.31,12.37,4.12,3.56,11.99,13.49,17.61,22.11,6.37,9.93,12.74,17.43,17.8,20.61,19.11,12.55,28.11,26.61,25.48,39.91-.56,2.62-.37,6,.56,7.5.97,1.9.9,4.16-.19,6-1.5,2.81-.94,3.75,3,5.25,6,2.25,10.12.56,12.37-5.06,1.31-3.37,2.81-4.5,5.43-3.75,2.23.49,4.54-.31,6-2.06,1.31-1.5,5.25-3.94,8.62-5.43,6.18-2.62,6.74-3.19,8.62-12.37.94-3.56,3.37-6.18,7.68-8.24,6.18-3,6.75-2.81,10.31.38,2.62,2.44,3.75,5.81,3.75,11.62,0,4.5.75,9.93,1.87,11.81,2.25,4.12,13.31,11.24,17.43,11.24s7.12-10.49,5.81-21.93c-1.12-8.43-.75-10.68,2.44-14.24,2.06-2.19,3.71-4.73,4.87-7.5,1.88-5.06,6.56-5.81,14.99-2.06,13.49,5.81,13.87,6.75,7.12,17.24-6.93,11.05-7.31,16.67-1.13,29.23,3.11,7.35,5.43,15.02,6.93,22.86,1.88,11.62,1.69,14.61-1.12,23.98-3.19,9.75-3.19,10.87-.38,15.18,2.62,4.12,4.5,4.69,14.05,4.69,6.18,0,12.37.56,14.05,1.13,1.88.75,3.75-.75,5.62-4.5,1.5-3,8.81-10.49,15.93-16.49,9.93-8.24,14.99-14.24,19.86-23.42,3.56-6.93,7.87-13.12,9.56-13.68,8.99-3.37,17.99,1.69,24.17,14.06,5.06,9.93,8.43,12.93,14.99,12.93,7.87,0,32.98,13.12,36.16,18.93,2.25,4.31,2.25,8.06-.56,35.04-1.5,15.37,3.19,11.43,6.75-5.43,1.69-7.68,4.31-18.17,6.18-23.42,2.62-8.06,2.81-11.62,1.12-21.93-5.62-35.42-.56-50.03,17.24-50.03,4.87,0,7.87,1.69,14.24,8.24,7.12,7.5,7.87,8.81,5.62,12.18-3.19,5.06-1.5,6.18,5.62,3.56,4.87-1.88,6.93-1.88,9.75,0,10.12,6.37,12.55-.38,3-8.43-9.56-8.06-12.93-16.11-11.62-27.54l1.12-9.56-8.81-5.62c-5.48-3.15-9.91-7.85-12.74-13.49-2.25-4.87-5.62-8.81-8.62-10.12-10.12-4.12-13.31-18.36-8.43-36.17,1.5-5.25,3.56-13.68,4.69-18.55,1.34-5.5,3.56-10.75,6.56-15.55,4.12-6.18,4.12-6.75,1.69-16.67-2.06-7.87-2.25-14.99-.94-31.3.75-11.62.94-27.54.19-35.41-1.31-13.12-3.19-18.74-11.62-34.48-1.96-3.9-3.35-8.07-4.12-12.37-.75-5.25-2.25-7.31-7.5-9.75-8.06-3.75-11.24-9.93-13.68-26.23-2.25-13.87-5.25-19.3-17.8-30.73-8.81-8.24-11.05-8.81-33.92-10.87-7.12-.56-15.18-2.25-17.99-3.75-5.26-2.83-13.12-11.26-13.12-14.27-.98-4.1-2.3-8.11-3.94-11.99-3.56-9.56-4.69-10.87-14.8-15.92-6-3-13.3-8.43-16.12-11.8-5.43-6.37-22.3-16.3-27.92-16.3-1.56.03-2.99.89-3.75,2.25Z"/>
    </g>
  </g>
</svg>