<?xml version="1.0" encoding="UTF-8"?>
<svg xmlns="http://www.w3.org/2000/svg" version="1.1" viewBox="0 0 841.89 595.28">
  <defs>
    <style>
      .cls-1 {
        fill: #2d5650;
      }
    </style>
  </defs>
  <!-- Generator: Adobe Illustrator 28.6.0, SVG Export Plug-In . SVG Version: 1.2.0 Build 709)  -->
  <g>
    <g id="Layer_1">
      <path id="Path_2095" class="cls-1" d="M268.62,58.59c-6.41,3.13-12.36,3.13-35.83.47l-7.67-.94,3.29,4.22c3.75,4.85,4.22,8.76,1.72,13.46-1.41,2.66-.78,4.07,3.91,8.6,5.01,4.85,5.63,6.26,5.63,13.61-.12,5.69-1.45,11.29-3.91,16.43-3.6,7.82-4.22,8.29-8.92,7.82-5.01-.47-5.16-.31-6.1,7.35-1.88,15.17-10.95,30.51-17.99,30.51-2.97,0-4.38-1.41-6.41-6.41-2.35-5.94-2.82-6.26-7.35-5.32-2.66.63-11.89,1.25-20.49,1.41-16.9.31-25.81,2.97-28.79,8.45-2.03,3.91-2.19,9.23-.31,10.32.78.47,10.95,2.97,22.68,5.48,11.73,2.5,23,5.63,25.19,7.04,4.07,2.66,5.16,8.45,2.35,11.26-1.09,1.09-.78,2.82,1.25,5.48,2.03,2.76,3.46,5.9,4.23,9.23,2.19,10.01,5.16,13.61,17.68,20.97,10.64,6.26,13.46,7.2,20.97,7.2,9.85,0,12.98,2.35,18.15,14.24,2.97,7.04,18.93,24.41,33.01,35.83,5.32,4.38,7.04,7.04,8.13,12.83.94,3.91,2.5,7.67,3.75,8.14,1.25.31,4.85-1.41,8.14-4.07,7.98-6.41,23.63-13.77,29.26-13.77,3.07.2,5.98,1.41,8.29,3.44,3.29,3.13,3.75,3.13,6.41.78,4.38-4.07,7.2-1.09,5.94,6.57-1.25,8.14,1.72,10.01,13.77,8.6,10.01-1.25,23.94,1.72,25.82,5.48,2.03,3.91.31,6.41-4.69,6.41s-12.36,5.94-12.36,9.85c0,1.25,1.41,4.07,3.29,6.41,1.88,2.35,2.82,5.32,2.35,6.57-.94,2.5-2.82,2.5-11.42-.16-2.66-.78-3.6-.47-3.6,1.25,0,4.54-3.75,5.95-11.89,4.23-6.88-1.25-7.98-1.1-10.32,1.88-3.75,4.22-3.6,9.85.47,16.27,2.08,3.31,3.02,7.21,2.66,11.11-.47,5.16.16,6.26,5.01,9.54,4.54,3.13,6.88,3.6,14.08,2.97,13.46-1.1,19.4,2.82,15.49,10.01-2.35,4.69-.63,7.98,7.98,14.55,10.64,8.14,10.95,10.33,3.6,21.12-6.42,9.39-10.48,11.58-12.21,6.57-.62-2.35-2.35-3.29-5.63-3.29-4.23,0-4.54-.47-4.54-5.48,0-4.38-.63-5.48-2.97-5.48-7.67,0-15.8,5.78-15.8,11.26,0,2.35,2.66,4.22,10.8,7.98,8.14,3.44,11.42,5.94,12.67,9.07,1.21,2.6,2.85,4.98,4.85,7.04,2.03,1.88,2.97,4.69,2.97,9.39,0,5.16.78,7.35,3.13,8.76,4.38,2.82,3.91,9.39-1.25,17.21-3.44,5.32-4.23,8.14-4.07,15.18.16,9.7,5.16,24.25,10.17,29.57,3.13,3.44,3.29,3.44,7.82.78,8.92-5.32,20.18-18.93,25.97-31.44,6.41-14.08,8.76-17.05,15.64-19.87,3.28-1.41,5.32-3.44,5.94-6.1.47-2.19,1.09-5.78,1.57-7.82,1.25-6.1,18.77-26.91,26.28-31.29,9.08-5.32,13.14-5.16,22.22,1.25,8.29,5.95,10.01,5.95,12.98-.31,1.09-2.35,5.01-6.41,8.6-8.92,4.38-3.29,7.04-6.57,8.14-10.64,1.09-3.75,5.48-9.7,13.3-17.68,12.05-12.2,18.46-16.27,26.13-16.27,3.29-.16,5.63-1.72,9.54-7.04,2.82-3.91,6.88-7.51,8.92-7.98,2.19-.47,3.91-1.41,3.91-2.03,0-2.82-5.16-7.67-8.92-8.76-2.5-.47-6.57-3.13-9.39-5.79-4.22-4.22-5.48-4.54-9.38-3.29-7.51,2.66-11.42-1.25-5.79-5.94,2.19-1.88,2.19-2.19-.31-4.07-2.13-1.28-4.56-1.98-7.04-2.03-2.95-.27-5.77-1.35-8.14-3.13-4.85-3.75-18.93-5.95-20.49-3.29-.63.94.31,4.07,2.03,7.04,5.16,8.14,3.91,15.96-1.41,9.54-1.72-2.19-2.5-1.72-5.32,3.44-2.66,4.54-4.38,6.1-8.14,6.41-5.48.47-8.29-3.13-5.32-6.73,1.88-2.35-.47-4.69-3.13-3.13-1.88,1.25-12.52-7.04-12.52-9.85,0-1.09,2.19-1.88,6.1-1.88,6.26,0,8.76-2.5,7.04-7.04-.78-1.72-3.6-2.35-11.26-2.35-8.92,0-10.8-.47-14.55-4.07-9.39-8.92-15.02,1.88-6.73,12.83l4.07,5.32-4.07,5.48c-2.35,2.97-4.69,5.48-5.32,5.48s-5.01-3.44-9.7-7.67c-7.2-6.41-8.29-7.98-6.57-10.01,1.25-1.41,1.57-4.07.94-6.41-.63-2.97-.16-5.16,1.72-7.2,4.85-5.32,2.03-7.98-8.14-7.51l-9.07.47.47-6.26c.31-4.69-.31-7.35-2.66-10.01-1.88-2.03-3.28-4.23-3.28-4.85,0-2.5,8.76-6.73,13.61-6.57,5.63.16,5.78,0,3.91-4.07-.78-1.41-2.35-4.85-3.6-7.35-1.88-3.6-3.29-4.69-6.88-4.69-4.38,0-5.01.78-7.82,9.39-2.5,7.35-4.07,9.7-7.35,10.79-4.85,1.72-9.07-.78-9.07-5.48,0-2.19-1.09-2.97-4.07-2.97-2.35,0-5.95-1.88-8.61-4.54-3.75-3.75-4.54-5.94-4.54-12.05,0-4.54.94-8.45,2.5-10.17,2.03-2.19,2.19-3.75.78-7.98-1.09-4.24-1.56-8.61-1.41-12.99.47-14.71-1.57-23.15-6.41-27.69-2.5-2.35-5.16-5.95-5.79-7.82-.63-1.88-4.07-6.57-7.98-10.17-7.82-7.67-10.17-12.67-8.92-19.24.94-4.23,1.57-4.69,7.04-4.69,6.73,0,11.73-3.75,13.3-10.01.94-3.91,4.54-6.26,7.04-4.69.78.47,2.5,3.28,3.75,6.26,3.29,8.14,8.29,7.35,18.46-3.13,8.14-8.45,21.75-16.59,27.54-16.59,4.69,0,5.63-3.13,1.88-5.63-2.19-1.56-3.29-4.07-3.29-7.66,0-5.48-.63-6.1-12.52-13.77-3.65-2.78-6.73-6.23-9.07-10.17-4.07-7.35-7.67-8.45-9.07-2.66-2.5,10.17-21.12,18.46-27.54,12.21q-2.97-3.13.94-7.82c5.01-5.94,5.16-11.42.63-23.16-2.97-7.98-3.13-9.7-1.57-15.96,2.35-8.29,1.57-9.85-4.38-9.85-3.28,0-5.63,1.56-9.39,6.26-5.94,7.51-12.05,9.07-21.9,5.48-3.91-1.41-10.32-3.44-14.24-4.38-3.91-1.09-8.45-2.82-9.85-4.07-1.72-1.41-4.54-1.88-8.45-1.25-4.23.78-9.39-.31-19.09-3.6-15.5-5.31-17.38-5.47-25.82-1.41Z"/>
    </g>
  </g>
</svg>