<?xml version="1.0" encoding="UTF-8"?>
<svg id="Layer_1" data-name="Layer 1" xmlns="http://www.w3.org/2000/svg" viewBox="0 0 500 500">
  <defs>
    <style>
      .cls-1 {
        fill: #0a7b5f;
        stroke: #fff;
        stroke-miterlimit: 10;
      }

      .cls-2 {
        fill: #f9e5af;
      }
    </style>
  </defs>
  <g>
    <path class="cls-1" d="m393.11,309.39c-.24-1.03-.89-2.3-1.64-3.04-.24-.24-.48-.46-.65-.76-.14-.24-.21-.59-.39-.79-.21-.22-.52-.26-.77-.42-.57-.38-.75-.99-1.12-1.54-.3-.44-.67-.8-.95-1.25-.14-.23-.17-.47-.43-.55-.32-.1-.84.31-1.21.3-.66-.03-.58-.52-1.07-.69-.46-.16-1.33.43-1.87.44-.36,0-.61-.05-.97.03-1.05.25-2.2.54-3.3.62-.5.03-.91-.22-1.39-.22-.4,0-.62.17-1.03.23-1.59.26-2.81-1.08-3.4-2.37-.45-.98-.73-2.01-1.16-3.01-.52-1.2-1.11-1.82-2.16-2.59-1.2-.89-1.41-2.3-2.4-3.31-.27-.28-1.04-.77-1.12-1.21-.08-.38.29-.65.22-1.04-1.16-.17-3.08.46-3.97-.48-.17-.18-.24-.51-.47-.72-.24-.22-.48-.39-.8-.46-.38-.08-.83.12-1.2-.02-.39-.15-.6-.6-.82-.92-.3-.43-.55-.83-.79-1.29-.14-.27-.18-.8-.55-.82-.01.02-.03.04-.04.07,0,.41,0,.83-.02,1.25.03-.42.02-.84.02-1.25-.74,1.3-1.43,2.26-2.64,3.21-.9.71-1.87,1.35-2.74,2.1-.37.32-.71.58-.74,1.08-.04.52.35,1.07.54,1.54.32.79.61,1.49,1.23,2.1.35.34.74.64,1.15.9.22.14.77.3.94.48.15.16.23.42.34.63-1.37.87-2.73,1.83-4.28,2.37-.71.25-1.57.31-2.04.98-.29.4-.25.9-.5,1.36-.42.8-.42.65-1.14.78-.98.18-2.01.89-2.88,1.35-1.51.78-3.75,1.86-5.53,1.42-.21-.67.24-1.6.24-2.31,0-.72.12-1.38.21-2.09.13-1.12-.25-2.01-.9-2.88-.78-1.04-1.33-2.2-2.47-2.89-.41-.25-.83-.35-1.27-.46-.27-.06-.56-.05-.85-.11-.72-.14-.83-.65-1.39-1.07-1.06-.82-2.81.01-3.96-.8-.66-.47-.36-1.65,0-2.22.49-.79,1.6-1.13,1.85-2.1.19-.72-.43-1.41-.82-2.01-.42-.65-.86-.43-1.58-.46-.83-.03-1.54-.36-2.4-.19-.86.17-1.44.21-2.28-.21-.46-.23-.82-.67-1.25-.97-.19-.13-.41-.26-.56-.43-.59-.66-.84-1.87-1.19-2.69-.26-.6-.65-1.7-1.49-1.34-.3.13-.6.48-.87.67-.47.32-.99.54-1.47.84-1.21.74-2.63,1.52-2.57,3.14.02.74.28,1.31.58,1.98.35.76.88,1.24,1.3,1.94.31.5.69.87.92,1.38.26.58.27,1.21.5,1.81.33.88.31,2.21.19,3.2-.18,1.45-1.46,2.04-2.26,3.07-.42.55-.74,1.2-1.24,1.68-.52.5-.88.27-1.41-.1-.43-.3-.8-.69-1.16-1.07-.44-.48-.95-.7-1.42-1.12-.65-.58-1.53-.94-2.27-1.38-1.27-.75-2.28-2.65-3.71-2.96-.32-.07-.59-.04-.92-.13-.21-.06-.46-.26-.64-.3-.36-.09-1.1-.49-1.65-.75-.35.52-.71,1.03-1.16,1.48-.62.62-1.18,1.3-1.76,1.96-.55.62-1.25,1.03-1.7,1.76-.35.57-.62,1.18-.88,1.79-.38.87-.32,1.86-.46,2.8-.2,1.31.15,2.33.42,3.56.04.16-.04.31.03.47.1.26.5.54.67.75.44.55.75.95,1.34,1.35.55.37,1.19.64,1.71,1.04.57.43.68,1.09.7,1.77.04,1.41-.33,3.06.32,4.34.36.7.69,1.42.89,2.18.25.95.74,1.75.89,2.72.2,1.25.28,2.61.62,3.86.53,1.95,1.82,3.32,3.37,4.53.87.68,1.57,1.62,2.57,2.13.47.24,1.03.54,1.42.9.35.33.48.84.63,1.29.18.54.51,1.14.53,1.7.02.42.13.57.24.92,0,0,0,.02,0,.03.14-.23.25-.47.2-.62.32.25.84.17,1.2.43.4.28.77.78,1.15,1.11.75.65,1.74,1.19,2.58,1.74,1.05.69,1.74,1.36,2.41,2.43.8,1.29,1.34,2.69,2.11,3.98.48.8.8,1.96,1.1,2.88.32.99.67,2.26.69,3.28.01.65.22,1.25.23,1.91,0,.59.34,1.18.26,1.77-.06.42-.33.81-.43,1.22-.1.4,0,.78-.05,1.18,0,.04,0,.07-.01.09.26-.07.51-.15.76-.23-.14-.01-.29,0-.42-.04-.05-.14-.05-.28,0-.42.29-.08.65-.1.94-.16.9-.18,1.77-.46,2.66-.66.52-.12.83-.04,1.15-.45.25-.31.47-.46.84-.65.7-.36,1.04-.69,1.82-.5,1.77.42,3.01,1.31,4.17,2.71.53.64.95,1.51,1.71,1.89.51.25,1.37,1.08,1.98.9.41-.12.78-.63,1.04-.94.48-.56.91-1.16,1.33-1.78.64-.94,1.16-1.94,1.83-2.86.53-.74,1.08-1.13,1.98-1.34.72-.16,1.47-.07,2.16-.39,1.16-.54,2.05-1.77,3.02-2.58.77-.64,1.61-1.19,2.39-1.82.74-.61,1.71-1.46,2.19-2.31.23-.4.59-.79.72-1.23.19-.58.1-1.29.21-1.9.05-.26.52-.18.18-.36.11-.25.16-.54.28-.82.29-.69.7-1.39.91-2.1.23-.78.62-1.48.9-2.25.24-.66.21-1.37.53-2,.32-.63.71-1.32,1.25-1.77.32-.27.63-.56.94-.85.42-.38.65-.83.98-1.28.6-.84,1.37-1.93,2.25-2.52.38-.26.84-.35,1.24-.56.45-.24.92-.49,1.33-.79.62-.46,1.13-.98,1.69-1.5.92-.85,2.21-1.45,3.32-2.03,1.17-.61,2.28-1.32,3.46-1.91.29-.14.52-.18.83-.26.67-.15,1.31-.47,2-.53,1.76-.17,3.58.51,5.31.06.23-.06.54-.14.69-.3.17-.19.29-.77.39-1.01.46-1.05,1.02-2.11,1.8-2.96,1.68-1.83,4.03-2.49,6.28-3.37.47-.18.97-.37,1.46-.57,0-.05,0-.09,0-.13-.05-.44-.25-.83-.35-1.28Z"/>
    <path class="cls-1" d="m323.04,353.99c.1-.41.37-.79.43-1.22.08-.59-.25-1.18-.26-1.77-.01-.66-.22-1.25-.23-1.91-.02-1.02-.37-2.29-.69-3.28-.3-.92-.62-2.08-1.1-2.88-.77-1.29-1.3-2.69-2.11-3.98-.67-1.07-1.36-1.75-2.41-2.43-.84-.55-1.82-1.09-2.58-1.74-.38-.33-.75-.83-1.15-1.11-.37-.25-.88-.18-1.2-.43.05.15-.06.39-.2.62.06.22.03.48.11.72-.09-.24-.06-.49-.11-.72-.17.27-.39.54-.48.69-.33.52-.54,1.16-.91,1.64-.25.32-.72.6-1.02.88-.26.24-.59.55-.88.77-.45.33-.93.69-1.4.99-.99.64-1.66,1.71-2.57,2.51-1.19,1.04-2.89,1.49-3.99,2.57-.66.65-1.38,1.41-2.16,1.9-.65.41-1.38.42-2,.91-1.08.84-1.45,1.84-2.1,3-.57,1.02-1.04,2.09-1.64,3.11-.59,1-1.66,1.88-2.58,2.57-.49.36-.96.7-1.5.98-.45.24-1.11.79-1.6.9-.83.18-1.57-.69-2.16-1.12-.5-.37-.77-.82-1.17-1.25-.28-.29-.6-.39-.83-.75-.42-.65-.52-1.28-.52-2.05,0-.53.05-.91.18-1.4.1-.4-.03-.78.04-1.17.16-.9.58-1.99.95-2.82.29-.65.63-1.4.71-2.09.05-.44.07-.76.18-1.18.12-.45,0-.91.1-1.35.03-.16.16-.28.19-.51.02-.23-.06-.49-.02-.71.1-.46.25-.68.25-1.17-.01-.93-.09-1.61-.64-2.39-.54-.77-1.07-.78-1.78-1.12-.31.45-.83.63-1.36.68-.41.04-.8-.12-1.2-.14-.46-.03-.94-.01-1.4.04-1.23.15-2.45.38-3.6.83-.74.29-1.23.46-1.68,1.2-.5.82-.94,1.67-1.5,2.46-.68.96-1.6,1.69-2.44,2.51-.66.64-1.42.91-2.17,1.41-.36.24-.36.61-.68.9-.43-.19-.67-.28-.9-.77-.22-.48-.38-.95-.41-1.48-.06-.79.26-1.52.28-2.29,0-.52-.28-1.07-.34-1.59-.1-.78-.02-1.53.02-2.31.01-.28.06-.59-.09-.81-.08-.12-.25-.18-.36-.27-.23-.18-.42-.43-.68-.58-.36-.21-.79-.28-1.13-.07-.25.15-.42.47-.64.68-.21.2-.44.39-.67.56-.45.34-.68.54-.81,1.09-.19.86-.42,1.63-.86,2.4-.32.55-.89,1.5-1.61,1.52-.63.02-1.23-.4-1.72-.74-.64-.44-1.35-.71-1.97-1.17-1.67-1.23-4.13-2.04-5.84-.45-.23.21-.41.46-.63.69-.06.06-.27.22-.3.31-.14.38.23.83.36,1.17.22.53.46,1.12.54,1.68.08.56,0,1.12.1,1.68.16.95.17,1.72-.08,2.67-.16.62-.4,1.67.13,2.19.3.29.77.3,1.16.31.79.02,1.6.13,2.38.12.56,0,1.14-.13,1.68-.28.58-.16,1.19-.47,1.81-.3.67.18,1.31,1.16,1.59,1.77.36.79.38,1.77.23,2.6-.13.71-.08,1.41.09,2.1.15.57.6.97.7,1.52.07.37.06.76.06,1.13,0,.2-.02.42.01.61.04.2.15.29.14.56-.02.69.33.38.85.48.09.02.09.11.18.13.1.02.21-.02.3,0,.14.04.42.12.55.23.28.25.39.61.68.87.44.39.75.21,1.27.3.22.04.37.14.6.17.23.03.5-.07.73-.01.29.07.58.33.77.55.27.32.44.63.59,1.02.17.46.36.74.19,1.24-.1.29-.13.45-.31.67-.15.18-.24.37-.35.59-.1.2-.17.45-.3.62-.17.23-.65.63-.91.75-.44.21-.9.12-1.29.46-.36.31-.44.7-.55,1.13-.1.37.01.96.27,1.26.32.37.95.45,1.41.46.49.01,1.1-.1,1.57.03.11.03.18.12.29.14.18.02.37-.13.54-.16.26-.04.45.04.67.18.48.29.88.78,1.06,1.31.17.51.02.98-.08,1.46-.18.86-.71,1.41-1.18,2.12-.2.3-.38.45-.61.7-.24.25-.42.59-.64.88-.72.95-1.51,1.82-1.31,3.11.06.39.2.68.13,1.09-.07.43-.29.76-.42,1.16-.25.75-.51,1.68-1.05,2.27-.41.46-.77,1.02-.72,1.68.06.76.62,1.39.64,2.15.01.56.06,1.2,0,1.76-.07.65-.72,1.07-1.25,1.36-.57.32-1.47.82-1.62,1.52-.07.33.04.72.09,1.05.09.54.12,1.13.3,1.65.15.44.48.75.75,1.12.33.45.45.96.7,1.44.23.44.47.8.82,1.14.4.39.55.85.82,1.33.81,1.44.98,3.12,1.44,4.64.15.51.26,1.04.4,1.56.12.48-.04,1,.03,1.48.07.5.25.99.33,1.48.04.24.11,1.58.66,1.34.18-.08.21-.38.25-.54.2-.74.48-1.02,1.15-1.38.83-.45,1.42-1.21,2.31-1.56.72-.29,1.23-.68,1.74-1.28.71-.84,1.48-1.59,2.12-2.51.24-.35.48-.68.75-1.01.29-.34.63-.8,1-1.06.33-.23.69-.39,1.04-.57.46-.23.94-.62,1.31-.98.59-.59,1.04-1.33,1.64-1.92.48-.48.85-1.05,1.36-1.47.25-.21.37-.45.58-.67.18-.2.45-.33.63-.52.4-.41.77-.87,1.12-1.31.11-.14.28-.21.4-.34.15-.17.25-.39.39-.56.29-.35.64-.65.96-.98.51-.52,1.06-1.08,1.62-1.56.89-.77,1.2-1.99,1.79-2.97.61-1,1.27-2.03,1.99-2.96.29-.38.55-.82.86-1.17.57-.64,1.22-.8,1.97-1.14.28-.13.27-.19.52-.41.25-.22.62-.35.94-.4.36-.05.75.06,1.09-.02.18-.04.38-.2.59-.26,1.41-.36,2.99.13,4.3-.52.24-.12.44-.12.66-.22.2-.09.46-.34.62-.49.64-.58.95-1.46,1.2-2.25.14-.42.29-.84.45-1.25.14-.36.39-.65.54-1,.29-.67,0-1.24-.01-1.93-.05-1.75.71-3.42,2.01-4.64,1.19-1.12,2.44-2.14,3.71-3.17,1.11-.9,2.27-1.6,3.28-2.62.91-.92,2.01-1.59,2.88-2.53.38-.4.74-.73,1.05-1.2.24-.36.29-.77.36-1.18.08-.48.18-.95.45-1.36.25-.4.44-.72.59-1.17.21-.64.19-.72.93-.92,1.45-.38,2.96-.57,4.41-.97,0-.03,0-.05.01-.09.05-.4-.05-.78.05-1.18Z"/>
    <path class="cls-1" d="m163.91,198.3c.45-.24.86-.47,1.28-.75.28-.19.5-.32.81-.45.12-.05.15-.15.27-.18.19-.05.39.03.58,0,.44-.1,1.06-.41,1.51-.59.68-.27,1.28-.73,1.99-.95,1.21-.36,2.04-.99,3.05-1.69.88-.61,1.81-1.51,2.28-2.46,1.19-2.43,2.55-4.82,3.39-7.43.22-.69.2-1.41.36-2.12.13-.59-.13-1.31.04-1.87.1-.33.57-.7.83-.93.49-.44.76-.92,1.4-.94.27,0,.55.02.82,0,.31-.02.6-.22.88-.2.05,0,.19.19.27.21.16.03.34-.07.49-.03.23.07.4.26.52.47.38.67.55,1.49.86,2.21.45,1.05,1.29,1.74,2.11,2.49.52.47,1.19.81,1.59,1.4.25.36.39.79.58,1.18.17.34.3.91.52,1.18.49.6,1.44-.11,1.99-.31,1.84-.66,3.66-1.38,5.52-2.01,3.68-1.24,7.63-.36,11.42-.86.92-.12,1.82-.04,2.75-.13.71-.07,1.41-.28,2.11-.4,2.13-.36,4.27-.8,6.32-1.5,1.55-.53,3.15-.92,4.73-1.37.81-.23,1.47-.64,2.24-.93.8-.3,1.65-.58,2.48-.8.83-.21,1.34-.48,2.06-.91,1.33-.78,2.64-1.26,4.12-1.7,1.16-.35,1.81-.33,2.96-.13,1.47.25,3.05.34,4.52.07.58-.11.86.17,1.41.21.77.05,1.83-.27,2.47-.66.39-.24.64-.57,1.03-.81.58-.35,1.19-.64,1.8-.91.83-.37,1.58-.97,2.45-1.22,1.15-.33,2.33-.32,3.5-.72.42-.14,1.34-.78,1.72-.59.17-.2.37-.37.58-.56.49-.45,1.02-1.15,1.7-1.3.45-.11.91.19,1.4.19.49,0,.77.04,1.16-.28.69-.55.97-1.37,1.35-2.11.45-.88,1.17-1.45,1.94-1.99.57-.4.91-1.15,1.63-1.24.96-.12,2.06.18,2.94.47,1.72.57,2.18,2.51,2.69,3.98.21.6.33,1.32,1.17,1.42.31.04.47-.13.75-.2.3-.07.58-.04.88-.1.56-.12,1.11-.34,1.63-.59.44-.21.94-.45,1.42-.54.57-.1,1.05.29,1.58.21.51-.08,1.05-.51,1.5-.72.68-.32,1.54-.57,2.29-.66.58-.07,1.61.26,2.14.03.34-.15.45-.61.62-.95.68-1.39-.38-2.73-.43-4.18-.03-.89.84-1.41,1.61-1.45,2.21-.11,4.38-.43,6.6-.47,1.06-.02,1.74.7,2.82.24.53-.23.97-.57,1.4-.95.19-.17.41-.32.61-.48-.12-.18-.21-.33-.27-.43.06.1.16.25.27.43.33-.26.63-.54.75-.99.17-.66-.06-.99.4-1.57.36-.45.92-1.1,1.51-1.25.56-.14,1.1.25,1.66.32.45.05.94-.01,1.39-.01.6,0,1.08,0,1.64-.18.44-.14,1.01-.15,1.41-.34.28-.13.37-.36.69-.44.11-.03.34.02.47.02.18,0,.5.08.66-.04.04-.03.11-.24.17-.44-.25.16-.54.25-.83.26-.39,0-.5-.08-.79-.35.29.27.39.35.79.35.3,0,.58-.1.83-.26.06-.2.1-.39.11-.46.12-.68-.01-1.83-.51-2.36-.42-.44-1.32-.24-1.84-.49-.67-.32-1.25-1.01-1.89-1.4-1.21-.75-2.79-1.89-1.79-3.47.18-.28.74-.75.61-1.12-.13-.41-.64-.41-.91-.51-.63-.23-1.12-.51-1.7-.88-.25-.16-.6-.48-.66-.76-.05-.24.07-.45-.02-.7-.09-.26-.57-.85-.78-1.02-.24-.2-.51-.2-.78-.37-.35-.23-.54-.55-.76-.9-.37-.58-.8-1.08-1.18-1.66-.46-.69-.76-1.35-1.34-1.91-.21-.21-.52-.51-.7-.75-.13-.18-.17-.44-.32-.6-.07-.03-.15-.05-.22-.08-.39-.21-.7-.5-.95-.88-1.35-1.51-2.86-2.87-4.22-4.37-.72-.79-1.56-1.5-2.51-1.99-.97-.5-2.58-.37-3.63-.42-2.02-.09-3.49.7-5.28,1.57-1.09.53-2.42.65-3.41,1.35-.94.67-1.72,1.39-2.88,1.67-1.18.29-1.69-1.45-1.93-2.37-.16-.66-.29-1.31-.47-1.97-.35-1.3-.38-2.63-.71-3.94-.31-1.21-.85-2.36-1.37-3.49-.83-1.81-2.17-3.51-2.82-5.38-.65-1.86-.07-3.38.24-5.22.15-.65.21-1.3.18-1.96-.01-.54,0-1.07.06-1.61.41-1.1,1.78-1.37,2.64-1.97,1.17-.82,1.52-1.84,2.22-3,.34-.56.7-1.11,1.16-1.58.63-.64,1-.88,1-1.85,0-1-.13-2.66-.54-3.62-.22-.52-.61-1.06-.93-1.57-.59.47-1.23.99-1.89,1.36-1.25.71-2.37,1.48-3.47,2.41-.94.79-2.08,1.41-3.1,2.1-.64.43-1.12.88-1.68,1.4-.9.84-2.11,1.34-3.16,1.97-.72.43-1.49.88-2.33,1.04-.47.09-.79.06-1.23.2-1.6.52-3,1.39-4.73,1.22-1.43-.14-2.86-.51-4.26-.7-.86-.11-1.78.13-2.64.02-1.08-.14-2.12-.34-3.09-.83-1.06-.53-2.05-1.25-2.81-2.16-.25-.3-.51-.58-.79-.84-.44,0-.87-.3-1.3-.4-.49-.12-.97.29-1.36.21-.27-.06-.7-.59-.98-.73-.48-.24-.96-.34-1.42-.64-.35-.23-.65-.36-1.05-.5-1.07-.36-2.12-.81-3.21-1.14-.91-.28-1.73-.5-2.58-.94-.44-.23-1.1-.63-1.59-.71-.36-.06-.8,0-1.17.01-.75,0-1.36-.23-2.11-.23-.49,0-.72.18-1.17.24-.37.05-.8,0-1.18,0-.77,0-1.43.07-2.09-.23-.38-.17-.76-.2-1.09-.46-.15-.12-.24-.32-.38-.43-.12-.09-.29-.06-.42-.16-.5-.38-.98-.82-1.46-1.24-.46-.4-.94-.71-1.4-1.17-.03-.03-.06-.05-.09-.08-.28-.06-.46-.19-.79-.22-.42-.04-.54-.13-.92-.24-.73-.21-1.9.01-2.6.19-.37.1-.74-.01-1.11.1-.38.12-.71.36-1.12.43-1.19.2-2.37.24-3.62.23-.93,0-1.9.22-2.81.41-.82.17-1.36.28-2.17.06-.69-.19-1.31-.21-2.04-.23-1.43-.03-2.93-.34-4.29-.77-2.08-.67-4.44-.58-6.46-1.52-1.22-.57-2.53-1.24-3.9-1.23-.46,0-1.03-.09-1.48-.01-.46.08-.72.21-1.22.24-.78.04-1.57.35-2.33.49-.69.13-1.85.08-2.52-.06-.23-.05-.44-.18-.76-.18-.38,0-.76-.05-1.12.05-.18.05-.29.16-.51.19-.23.03-.5-.07-.72-.02-.19.04-.55.24-.7.36-.39.31-.76.75-1.11,1.12-.34.36-.83.98-.98,1.48.34-.03.67-.03,1.03-.09.47-.07,1.05-.25,1.53-.1.28.09.58.42.82.57.3.18.6.32.88.53.57.43,1.22.75,1.67,1.29.37.45.5.82.72,1.34.13.3.36.67.58.93.09.11.23.18.32.29.46.55.32,1.01,0,1.58-.24-.07-.58.27-.77.32-.29.07-.46-.1-.71-.15-.46-.1-.88.04-1.33-.13-.35-.13-.51-.32-.78-.58-.1-.1-.23-.2-.31-.31-.11-.14-.15-.37-.3-.48-.57-.41-1.49.23-1.88.63-.46.47-.84,1.08-1.02,1.72-.11.4-.15.75-.27,1.14-.05.15-.2.33-.24.5-.1.37-.06.42.27.47.21.03.42-.03.63,0,.25.03.25.1.46.2.41.21.89.32,1.29.54.35.19.69.25,1.05.39.43.17.83.36,1.25.54.41.18.85.42,1.21.66.28.19.5.45.79.64.25.17.42.2.66.3.37.15.79.35,1.09.63.21.19.35.43.54.63.2.2.46.29.66.49.59.58,1.17,1.32,1.51,2.09.23.51.65.96.84,1.48.08.21.19.49.2.71.02.29-.13.62-.17.91-.06.42-.22,1.23-.63,1.43-.27.13-.62.07-.91.07-.31,0-.43.07-.72.14-.24.06-.34-.02-.51.2-.12.16-.19.56-.2.74-.02.31.06.64,0,.94-.09.43-.4.79-.51,1.24-.24,1.02-.11,2.17-.11,3.22,0,.43.05.9-.03,1.32-.1.5-.16.89-.09,1.41.12.8.15,1.48-.22,2.22-.41.8-.77,1.65-1.22,2.44-.52.91-1.17,1.62-1.88,2.39-1.17,1.27-2.96,1.29-4.32,2.32-.52.4-1.08.81-1.67,1.1-.53.26-.97.58-1.48.87-.31.18-.64.24-.96.38-.03.01-.15.11-.18.12-.14.04-.32-.01-.44.06-.66.36-.06,1.36,0,1.84.17,1.28.4,2.61.67,3.88.14.63.02,1.26-.08,1.89-.14.84-.23,1.66-.32,2.51-.07.7-.13,1.41-.27,2.09-.15.74-.39,1.46-.56,2.2-.16.74-.29,1.48-.69,2.13-.19.3-.71.9-1.06,1.03-.37-.47-1.32-.94-1.89-.68-.41.19-.82.59-1.18.88-.56.44-1.2.71-1.81,1.07-.55.33-1.02.77-1.59,1.1-.85.49-1.68,1.03-2.52,1.55-.72.44-1.46.82-2.29.97-.66.12-1.09-.02-1.72-.29-1.21-.53-2.04-1.47-2.96-2.38-.67-.66-1.23-1.41-1.94-2.03-.46-.4-.92-.92-1.48-1.16-1.08-.46-2.16-.62-3.12-1.36-.63-.49-1.37-.64-2.05-1.08-.02-.01,0,.06,0,.15.05,0,.09.01.14.03-.04.05-.07.17-.11.23,0,0,0,.01-.01.02,0,0,0-.01.01-.02,0-.04-.01-.17-.03-.27-.33-.02-.71.36-.97.44-.43.13-.88-.14-1.25-.24-.39-.11-.74-.13-1.14-.2-.21-.04-.45-.12-.67-.18-.05-.01-.11-.11-.18-.13-.15-.04-.33.05-.48.02-.12-.03-.13-.13-.24-.15-.13-.03-.25,0-.38,0-.21-.02-.27-.12-.46-.17-.45-.11-1.1,0-1.57,0-.43,0-.86-.02-1.25.08-.43.11-.93.07-1.4.08-.26,0-.46.02-.7-.07-.27-.1-.41-.23-.7-.24-.51-.02-1.08-.04-1.59,0-.4.03-.74.18-1.15.17-.37-.01-.71-.13-1.08-.17-.5-.04-1.01-.19-1.49-.3-.49-.12-.87-.32-1.4-.32-.55,0-.87.16-1.25.55-.41.42-.89.82-1.33,1.25-.3.3-.54.61-.86.89-.35.32-.56.77-.94,1.07-.6.47-1.07,1.06-1.75,1.49-.66.42-1.26.88-1.88,1.3-.42.29-.93.65-1.25,1.06-.25.32-.78.88-.88,1.26.64.13,1.28.36,1.93.57.65.21,1.25.48,1.95.4.54-.06.96-.33,1.46-.52.39-.15.82-.12,1.2-.3.24-.11.48-.39.76-.25.14.07.29.37.33.5.1.39.08.86.13,1.27.07.54.02,1.07.03,1.61.02.82.25,1.01.79,1.56.25.26.34.52.68.68.28.13.59.2.88.29.51.16.97.5,1.5.61.88.18,1.83-.13,2.73-.13,1.06,0,2-.04,3.01.31.8.27,1.45.8,2.11,1.3.28.21.55.45.87.59.43.18.88.28,1.3.49.83.42,1.54.99,2.33,1.47.48.29,1,.52,1.46.84.63.44,1.36.77,1.91,1.31.6.59.94,1.41,1.33,2.14.14.26.37.6.61.78.33.24.84.18,1.23.11.64-.11,1.27-.09,1.9-.23.59-.13,1.25-.3,1.84-.35.61-.05,1.23.02,1.85-.04.66-.06,1.43-.27,2.08-.12.31.07.51.31.7.56.43.54,1.09,1.05,1.33,1.7.22.59.23,1.29.3,1.91.05.45.21.88.28,1.33.09.54.03,1.1.03,1.65,0,1.11,0,2.22,0,3.32,0,1.16-.02,2.33.3,3.46.15.55.41,1.12.74,1.6.34.5.6.71,1.15.93.53.22.95.43,1.08,1.06.1.47.02,1-.13,1.44-.22.63-.53,1.17-.64,1.83-.11.7.06,1.65.32,2.3.17.42.17.85.31,1.29.12.38.12.83.39,1.13.38.42,1.06.4,1.56.48,1.23.19,2.56.5,3.7,1.01,1.29.58,2.31,1.48,3.53,2.2.29.17.55.35.88.43.35.08.72.07,1.07.16.1.03.19.06.28.09.59-.66,1.29-1.58,1.98-1.95Z"/>
    <path class="cls-1" d="m258.73,282.11c.71.38.91.77,1.23,1.46.35.75.72.99,1.47,1.29.54.21,1.06.57,1.63.71.72.18,1.43.04,2.1.28.81.29,1.54.64,2.34,1,.68.3,1.43.43,2.17.42.37,0,.78.05,1.16.01.54-.05,1.03-.37,1.6-.26.7.14,1.54.48,2.28.2.65-.25,1.51-1.32,1.92-1.87.65-.86,1.22-1.8,1.7-2.76.4-.81.84-1.43,1.35-2.16.36-.52.72-.89,1.12-1.35.29-.33.45-.82.7-1.19.11-.17.38-.54.57-.65.34-.19.75-.08,1.12-.33.83-.55,1.15-1.18,2.1-.6.64.39,1.23.86,1.89,1.26.14-.19.28-.38.39-.62.18-.39.26-.52.58-.76.37-.28.48-.51.78-.88.54-.67,1.79-1.7,2.67-1.76.5-.03,1.25.54,1.64.23.47-.37.59-1.56.68-2.11.15-1-.14-1.73-.19-2.68-.02-.41.15-.62.28-1,.32-.94.29-2.03.47-3,.2-1.05.29-1.75-.26-2.74-.77-1.38-2.51-2.22-1.69-4.02.45-.98.82-2.28,2.02-2.34.75-.04,1.47-.33,2.21-.19.59.11,1.04.24,1.66.17.56-.06,1.16-.19,1.69-.38.65-.24.65-.45.91-1.06.17-.4.57-.84.64-1.27-.15-.06-.3-.13-.46-.2.16.07.31.14.46.2.01-.07.02-.14.01-.21-.05-.52-.52-1.12-.71-1.62-.44-1.13-.61-2.3-1.06-3.42-.55-1.39-1.32-3.15-2.5-4.14-.44-.37-1-.54-1.47-.87-.29-.22-.57-.49-.95-.56-.56-.11-1.23.3-1.73.45-.84.25-1.67.53-2.49.83-1.61.58-3.54,1.71-4.51,3.13-.27.39-.32.89-.52,1.31-.29.62-.79,1.11-1.14,1.7-.36.61-.57,1.2-.76,1.88-.12.42-.15,1.03-.41,1.45-.17.27-.51.52-.72.77-.21.25-.45.75-.72.93-.35.24-.76.22-1.18.3-.27.05-.92.4-1.18.29-.26-.11-.28-.38-.44-.57-.34-.41-.71-.7-.89-1.22-.2-.57-.18-1.21-.42-1.77-.37-.86-1.04-1.02-1.72-1.53-.51-.38-.68-1.01-1.33-1.16-.57-.13-1.06.05-1.64-.14-1.15-.37-2.23-.59-3.45-.56-.52.01-.95.1-1.35-.27-.45-.42-.47-.96-.46-1.53.02-1.49-.01-2.93-.35-4.39-.19-.81-.42-1.35-.3-2.21.1-.8,0-1.75.2-2.5.14-.52.61-1.02.82-1.53.29-.72.44-1.44.8-2.14.46-.9.96-1.88,1.28-2.85.25-.74.38-1.52.65-2.26.79-2.2,2.51-4.08,2.75-6.51.15-1.59-.39-3.78-1.15-5.2-.27-.51-.35-1.02-.4-1.53-.19.05-.37.13-.52.24.15-.11.33-.19.52-.24-.06-.68-.08-1.35-.43-2.01-.46-.85-1.22-1.45-1.7-2.29-.41-.72-.65-1.46-.9-2.25-.21-.66-.53-1.23-.8-1.86-.42-.96-.44-2.12-.47-3.14-.05-1.98.25-3.94-.45-5.84-.23-.62-.65-1.11-.94-1.71-.35-.74-.68-1.48-1.07-2.19-.38-.7-.92-1.29-1.3-1.98-.41-.75-.35-1.61-.67-2.38-.65-1.56-2.05-2.7-3.29-3.77-.96-.84-1.71-2.1-3.04-2.29-.93-.13-1.65,0-2.37-.73-.51-.51-.84-1.25-1.17-1.87-.27-.51-.3-.7,0-1.2.65-1.11,1.7-1.81,2.35-2.94.72-1.23,1.25-2.62,1.68-3.98.13-.41.36-.93.42-1.35.04-.32-.02-.48-.15-.54-.11.13-.22.26-.3.43-.16.33-.21.71-.4,1.01.2-.31.24-.68.4-1.01.08-.16.18-.3.3-.43-.38-.19-1.3.45-1.72.59-1.17.39-2.35.38-3.5.72-.86.25-1.62.85-2.45,1.22-.62.28-1.22.57-1.8.91-.39.23-.64.57-1.03.81-.64.39-1.7.71-2.47.66-.55-.04-.83-.32-1.41-.21-1.47.27-3.05.19-4.52-.07-1.15-.2-1.8-.22-2.96.13-1.48.44-2.8.92-4.12,1.7-.72.43-1.24.69-2.06.91-.83.21-1.67.5-2.48.8-.78.29-1.43.69-2.24.93-1.58.45-3.18.84-4.73,1.37-2.05.7-4.2,1.15-6.32,1.5-.71.12-1.4.33-2.11.4-.92.09-1.82.01-2.75.13-3.78.5-7.73-.38-11.42.86-1.86.63-3.68,1.35-5.52,2.01-.55.2-1.5.9-1.99.31-.22-.27-.35-.84-.52-1.18-.19-.38-.33-.82-.58-1.18-.4-.58-1.07-.93-1.59-1.4-.83-.75-1.66-1.44-2.11-2.49-.31-.71-.49-1.54-.86-2.21-.12-.21-.29-.4-.52-.47-.15-.04-.34.05-.49.03-.09-.02-.23-.2-.27-.21-.28-.02-.58.18-.88.2-.27.02-.55-.01-.82,0-.65.02-.92.5-1.4.94-.26.23-.73.6-.83.93-.17.56.09,1.28-.04,1.87-.16.71-.14,1.43-.36,2.12-.84,2.61-2.21,5-3.39,7.43-.46.95-1.39,1.85-2.28,2.46-1.01.7-1.84,1.33-3.05,1.69-.71.21-1.31.68-1.99.95-.45.18-1.07.49-1.51.59-.19.04-.39-.04-.58,0-.12.03-.16.14-.27.18-.31.12-.53.25-.81.45-.41.28-.82.51-1.28.75-.69.37-1.39,1.29-1.98,1.95.63.24,1.17.66,1.78.91.28.12.58.2.85.32.64.29,1.04.66,1.72.88.74.24,1.51.5,2.22.8.85.36,1.71.88,2.53,1.3.64.33,1.2.79,1.84,1.14.58.31,1.11.62,1.68.96.24.14.47.27.74.35.32.1.79.05,1.09.19.41.19.78.71,1.1,1.01.24.23.54.32.76.56.32.36.21.62.06,1.02-.19.46-.22.92-.34,1.4-.08.34-.79,1.32-.61,1.65.14.25.69.42.93.55.47.24.98.4,1.42.7.35.24.59.6.93.83.27.19.43.28.58.61.2.41.35.85.8,1.09l.05.41c.42.23.7.9,1.03,1.24.21.22.35.48.55.71.15.17.44.33.55.53.17.32-.07.49-.13.74-.07.27,0,.66,0,.94,0,.6-.04,1.26.62,1.53.32.13.61.13.94.18.35.06.52.21.9.13.06-.01.1-.11.18-.13.13-.03.34,0,.48,0,.36,0,.73,0,1.09,0,.81,0,1.07.43,1.21,1.21.15.82.03,1.65-.24,2.42-.27.77-.6,1.53-.78,2.33-.07.31-.1.69.07.94.25.35.73.54,1.1.7.43.18.43.18.86.07.29-.08.59-.08.89-.16.21-.05.38-.02.59-.03.24,0,.39-.08.63-.13.43-.08.88.01,1.31-.03.43-.04.81-.27,1.25-.14.43.13.89.62,1.22.92.88.79,2.15,1.12,2.97,2.02.42.46.73.99,1.2,1.41.52.48,1.01.93,1.49,1.44.39.41.58.89.89,1.34.42.6,1.11.6,1.68.96.92.57,1.76,1.21,2.62,1.86.55.41,1.3.63,1.65,1.28.29.54-.44,1.3-.65,1.86-.33.92-.7,1.98-.78,2.95-.08.88-.28,1.76-.32,2.66-.03.63.09,1.35.59,1.74.52.42,1.07.75,1.57,1.21.16.15.43.28.56.47.1.15.1.32.22.46.19-.79,1.06-1.69,1.58-2.27.38-.43.83-.77,1.24-1.17.44-.43.9-.57,1.44-.83.49-.23.94-.73,1.49-.82.52-.09,1.01.37,1.46.61.59.32,1.13.73,1.73,1.02,1.04.51,2.04-.02,3.04-.4.98-.37,2.07-.59,3.01-1.07.76-.39,1.47-.91,2.14-1.44.73-.58,1.39-1.15,2.22-1.59.71-.38,1.47-.59,2.2-.91.55-.24,1.04-.55,1.55-.86.74-.43,1.47-.84,2.17-1.32.71-.5,1.64-.62,2.42-.98.54-.25,1.95-.95,2.5-.55.47.33.58,1.04.96,1.46.36.4.39.69.48,1.25.15.93.37,1.82.94,2.59.59.8,1.61,1,2.41,1.53.4.27.65.75,1.12.88.64.18,1.63-.4,2.15-.74.5-.32,1.83-2.94,2.32-1.2.28,1,.35,2.09.48,3.12.14,1.18.35,2.36-.13,3.5-.19.45-.41.88-.63,1.32-.16.32-.27.58-.03.91.28.39,1,.54,1.43.67.52.16,1.19.27,1.73.12.59-.16.9-.38,1.55-.26.49.09.91.28,1.42.3.95.02,1.91,0,2.82-.25.98-.27,1.94-.69,2.91-1.02.99-.34,2.15-.29,3.18-.42.67-.08,1.33-.08,1.99-.24.31-.07.55-.12.86-.11.55,0,1.16.04,1.41.64.18.42.02.59.41.91.26.22.56.38.75.67.14.22.19.51.33.73.14.21.36.39.54.56.42.4.51.78.73,1.32.22.55.52,1.08.84,1.58.34.53.86.81,1.3,1.25.47.47.83.93.57,1.64-.18.47-.55.76-.98.99-.6.32-.82,0-1.32-.35-.41-.28-.71-.4-1.21-.43-.52-.03-1.19-.27-1.71-.17-.63.12-.43,1.09-.77,1.54-.24.32-.69.71-1.05.86-.62.27-1.21.58-1.82.87-.59.27-1.23.42-1.81.73-.5.27-1,.54-1.5.81-.56.3-1,.57-.71,1.26.23.55.45,1.12.68,1.67.14.34.25.59.53.83.35.31.6.36.87.79.46.72.92,1.2,1.67,1.59.47.25.53.73.97,1.01.23.15.51.21.73.38.25.18.41.4.61.63.35.41.71.67.8,1.24.05.29.01.56.01.85,0,.5.13.99.15,1.49.05.95-.56,2.08-1.67,1.75-.55-.17-1.12-.23-1.52-.65-.23-.24-.38-.56-.6-.82-.34-.4-.74-.81-1.15-1.13-.31-.24-.68-.45-.96-.72-.27-.27-.43-.62-.65-.92-.2-.28-.41-.45-.63-.69-.24-.27-.36-.61-.61-.86-.36.05-.71.44-1.01.63-.38.24-.78.46-1.17.68-.79.46-1.22,1-1.58,1.83-.18.41-.2.85-.33,1.27-.09.31-.25.58-.45.82.46.58,1.21,1.35,1.76,1.65Z"/>
    <path class="cls-1" d="m283.96,337.31c.54.78.63,1.46.64,2.39,0,.49-.15.71-.25,1.17-.05.22.04.48.02.71-.03.23-.15.36-.19.51-.1.44.01.91-.1,1.35-.11.42-.13.73-.18,1.18-.07.69-.42,1.44-.71,2.09-.37.83-.79,1.92-.95,2.82-.07.39.06.77-.04,1.17-.13.5-.18.88-.18,1.4,0,.77.1,1.4.52,2.05.23.36.55.46.83.75.4.42.67.88,1.17,1.25.59.44,1.33,1.31,2.16,1.12.49-.11,1.15-.66,1.6-.9.53-.28,1.01-.62,1.5-.98.92-.68,1.99-1.57,2.58-2.57.6-1.01,1.07-2.09,1.64-3.11.65-1.16,1.02-2.16,2.1-3,.63-.48,1.35-.5,2-.91.78-.49,1.49-1.25,2.16-1.9,1.11-1.08,2.8-1.53,3.99-2.57.91-.8,1.58-1.87,2.57-2.51.46-.3.95-.66,1.4-.99.29-.21.61-.52.88-.77.31-.28.78-.57,1.02-.88.37-.47.58-1.12.91-1.64.09-.15.31-.42.48-.69,0,0,0-.02,0-.03-.1-.35-.22-.5-.24-.92-.02-.56-.35-1.17-.53-1.7-.15-.44-.28-.96-.63-1.29-.39-.36-.95-.66-1.42-.9-1-.51-1.7-1.45-2.57-2.13-1.54-1.21-2.83-2.58-3.37-4.53-.34-1.25-.42-2.61-.62-3.86-.15-.97-.65-1.77-.89-2.72-.2-.76-.54-1.48-.89-2.18-.65-1.28-.28-2.93-.32-4.34-.02-.68-.13-1.34-.7-1.77-.52-.39-1.16-.67-1.71-1.04-.59-.4-.9-.81-1.34-1.35-.17-.21-.57-.5-.67-.75-.06-.16,0-.31-.03-.47-.28-1.23-.62-2.25-.42-3.56.14-.94.08-1.93.46-2.8.27-.61.54-1.22.88-1.79.45-.73,1.15-1.13,1.7-1.76.58-.66,1.15-1.33,1.76-1.96.45-.45.81-.96,1.16-1.48-.2-.09-.37-.17-.5-.21.13.04.3.12.5.21.62-.93,1.18-1.91,2.04-2.69.45-.41,1.04-.66,1.54-1.01.61-.43,1.09-.29,1.18-.98.08-.68.12-1.68,0-2.35-.18-1.08-1.02-1.92-1.65-2.76-.36-.48-.64-.97-1.04-1.36-.15-.15-.37-.44-.58-.53-.25-.11-.48.02-.73-.03-.44-.09-.67-.22-.98-.47-.27-.21-.4-.4-.74-.49-.66-.16-1.34.31-1.97.2.02,0-.2-.18-.25-.2-.26-.09-.67.01-.95.01-.48,0-.56-.15-.92-.25-.63-.18-1.34.34-1.92.44-.52.08-.82-.13-1.33-.2-.55-.07-.76.16-1.22.26-.39.08-.54-.11-.83-.25-.43-.2-.31-.28-.81-.06-.46.2-.96.49-1.41.42-.26-.04-.66-.28-.92-.42-.16-.08-.31-.17-.46-.26-.12.16-.25.31-.38.5.13-.18.25-.34.38-.5-.67-.4-1.25-.87-1.89-1.26-.95-.58-1.27.04-2.1.6-.37.25-.79.14-1.12.33-.19.11-.46.47-.57.65-.24.37-.4.86-.7,1.19-.4.45-.76.83-1.12,1.35-.5.73-.95,1.35-1.35,2.16-.48.96-1.04,1.9-1.7,2.76-.42.55-1.28,1.62-1.92,1.87-.74.28-1.58-.06-2.28-.2-.56-.11-1.06.21-1.6.26-.37.04-.79-.02-1.16-.01-.75.01-1.49-.11-2.17-.42-.8-.35-1.53-.71-2.34-1-.67-.24-1.38-.1-2.1-.28-.57-.14-1.09-.49-1.63-.71-.75-.3-1.12-.54-1.47-1.29-.32-.69-.52-1.08-1.23-1.46-.55-.3-1.3-1.07-1.76-1.65-.5.61-1.26,1.04-1.86,1.49.01.58-.8,1.24-1.37,1.22.01,0-.15-.12-.19-.13-.1-.02-.22.02-.32.01-.19-.02-.37-.08-.54-.16-.16-.07-.37-.1-.55-.19-.21-.11-.32-.26-.5-.4-.28-.21-.56-.23-.82-.5-.24-.25-.48-.52-.74-.74-.2-.17-.52-.39-.78-.47-.5-.15-1.02.18-1.43.43-.67.41-1.38,1.07-1.81,1.78-.21.34-.45.67-.66,1.03-.1.17-.21.27-.31.42-.13.2-.18.44-.27.67-.08.23-.17.47-.24.7-.07.25-.04.45-.07.71-.04.29-.16.8-.35,1.05-.34.46-.87.84-1.3,1.21-.29.25-.37.19-.71.23-.22.02-.38.08-.51.27-.25.38,0,1.13.18,1.53.24.53.47,1.07.68,1.63.12.33.3.64.43.97.14.35.2.72.35,1.07.16.35.34.62.42,1.01.11.56.19,1.1.41,1.64.3.73.72,1.37,1.05,2.08.18.38.44.68.59,1.07.16.4.29.82.54,1.17.71,1,1.02,2.34,1.95,3.18.33.3.7.56,1.02.87.21.21.36.49.55.73.21.28.4.59.6.87.14.2.31.3.46.49.24.29.4.47.73.72.22.17.44.32.7.43.33.13.64.12.98.11.55,0,.88.06,1.37.27.65.28,1.29.55,1.97.82.36.14.72.18,1.1.26.24.05.46.09.69.2.19.09.39.34.61.34.35,0,.62-.55.79-.78.18-.24.36-.35.58-.53.42-.36.61-.86,1.2-.9.41-.03.37.02.63.21.42.31.91.51,1.31.88.4.37.63.79.64,1.33,0,.56.17.86.38,1.38.29.69.5,1.43.7,2.15.16.56.45,1.01.7,1.53.28.57.53.94.93,1.41.34.4.29.62.01,1.02-.31.44-.55.9-.78,1.39-.3.64-.7,1.08-.87,1.78-.35,1.41.15,2.75,1.02,3.85.79,1.01,1.6,2.07,2.62,2.88.83.66,1.66.76,2.63,1.01.29.08.43.16.66.35.13.11.31.36.49.35.51-.03.97-1.04,1.31-1.37.1.33.06.88.02,1.22-.05.34-.26.62-.37.94-.16.45-.23.97-.25,1.45-.02.5-.13,1.03.33,1.35.38.27.95.34,1.38.47.26.08.73.41,1,.46.3.05.59-.19.86-.3.54-.21,1.16-.35,1.74-.33.72.02,1.12.55,1.73.8.29.12.62.26.93.3.24.04.76-.12.96.03.31.24.11.96-.05,1.24-.01.02-.03.04-.05.07.72.34,1.24.35,1.78,1.12Z"/>
  </g>
  <g>
    <path class="cls-2" d="m195.46,136.02c0,.08-.03.16-.08.24s-.14.19-.27.33l-2.91,3.08,1.73,3.66c.03.08.06.16.08.22.02.06.03.12.03.17,0,.06-.01.11-.04.15-.03.04-.08.07-.14.1-.07.03-.16.04-.28.06s-.26.02-.44.02-.32,0-.43-.02c-.11-.01-.2-.03-.26-.05-.06-.02-.11-.05-.14-.09-.03-.04-.05-.08-.07-.13l-1.74-3.89-.77,3.91s-.03.09-.06.12c-.03.03-.08.06-.16.08-.07.02-.16.04-.27.05-.11.01-.24.02-.4.02s-.3,0-.4-.02c-.1-.01-.19-.03-.25-.05-.06-.02-.1-.05-.12-.08-.02-.03-.03-.07-.01-.12l1.55-7.76s.02-.09.06-.12c.03-.03.09-.06.16-.08.07-.02.16-.04.27-.05.11-.01.24-.02.41-.02s.29,0,.4.02c.1.01.19.03.24.05.06.02.1.05.12.08.02.03.03.07.02.12l-.7,3.51,3.05-3.48c.04-.05.09-.1.14-.13s.11-.07.19-.09.17-.04.28-.05c.11-.01.25-.02.41-.02s.31,0,.42.02c.11.01.19.03.25.05.06.02.1.05.12.08.02.03.04.07.04.12Z"/>
    <path class="cls-2" d="m195.04,142.54c0-.3.07-.58.21-.82.14-.24.35-.45.64-.63.29-.18.66-.31,1.1-.4s.98-.14,1.6-.14h.58c.02-.1.03-.19.04-.29,0-.09.01-.18.01-.26,0-.34-.09-.6-.27-.77s-.46-.26-.86-.26c-.28,0-.53.02-.75.06-.22.04-.42.08-.58.13-.17.05-.31.09-.42.13-.11.04-.19.06-.24.06s-.09-.01-.11-.04-.03-.08-.03-.14c0-.07,0-.15.02-.25s.03-.19.05-.28c.02-.09.05-.18.09-.26s.08-.14.12-.18c.05-.05.14-.1.28-.15s.3-.1.49-.14c.19-.04.4-.08.64-.1.24-.03.48-.04.72-.04.41,0,.76.04,1.06.13s.56.21.76.39.36.39.46.66c.1.27.15.59.15.96,0,.28-.03.59-.08.91-.05.32-.14.64-.26.96-.12.31-.27.62-.46.9s-.41.54-.68.76c-.26.22-.57.39-.92.52-.35.13-.74.2-1.19.2-.38,0-.72-.05-.99-.14-.28-.09-.5-.21-.68-.36-.18-.15-.31-.32-.4-.51-.09-.19-.13-.39-.13-.59Zm1.57-.12c0,.17.07.31.2.42.13.11.33.17.58.17.21,0,.4-.04.57-.11s.31-.18.44-.31c.13-.13.24-.28.33-.46.09-.18.16-.36.22-.56h-.53c-.34,0-.62.02-.85.07-.23.04-.41.1-.55.18-.14.08-.24.17-.3.27-.06.1-.1.21-.1.33Z"/>
    <path class="cls-2" d="m203.03,143.79s-.03.08-.06.11c-.03.03-.08.06-.14.08-.06.02-.15.04-.25.05-.11.01-.24.02-.39.02-.16,0-.29,0-.39-.02-.1-.01-.18-.03-.23-.05s-.09-.05-.11-.08c-.02-.03-.02-.07-.02-.11l1.67-8.35s.03-.08.06-.11.08-.06.15-.09c.07-.02.15-.04.26-.05s.23-.02.39-.02.29,0,.38.02.18.03.23.05c.05.02.09.05.11.09.02.03.02.07.01.11l-1.66,8.35Z"/>
    <path class="cls-2" d="m210.88,139.92c0,.28-.03.58-.08.9s-.13.63-.23.95c-.11.31-.24.61-.41.9-.17.29-.36.54-.6.76-.23.22-.5.4-.8.53-.3.13-.63.2-1,.2s-.67-.07-.94-.21c-.27-.14-.51-.35-.71-.63l-.09.48c-.02.09-.08.15-.2.19-.12.04-.3.06-.56.06s-.43-.02-.52-.06-.13-.11-.11-.19l1.67-8.35s.03-.08.06-.11.08-.06.15-.09c.07-.02.15-.04.26-.05s.23-.02.39-.02.28,0,.38.02c.1.01.17.03.23.05.06.02.09.05.11.09.02.03.02.07.01.11l-.45,2.27c-.02.1-.04.2-.07.31-.03.11-.05.21-.09.32-.03.11-.06.21-.1.31-.03.1-.06.19-.09.26.08-.14.19-.27.33-.41.14-.14.3-.26.49-.37s.38-.2.59-.27c.21-.07.42-.1.63-.1.24,0,.45.03.63.09.18.06.33.14.46.25s.24.23.32.37c.08.14.15.29.2.45.05.16.08.32.1.49.02.17.03.33.03.5Zm-1.64.16c0-.11,0-.22-.02-.33s-.05-.22-.1-.31-.12-.17-.2-.23c-.08-.06-.2-.09-.34-.09-.19,0-.38.06-.57.17-.19.11-.37.27-.54.46s-.32.42-.45.68c-.13.26-.22.53-.28.83l-.18.86c.15.23.31.41.49.52.18.11.39.17.63.17.17,0,.33-.04.47-.12.14-.08.27-.19.39-.33s.22-.29.3-.48.16-.37.22-.57c.06-.2.1-.41.13-.61s.04-.41.04-.6Z"/>
    <path class="cls-2" d="m211.48,142.54c0-.3.07-.58.21-.82.14-.24.35-.45.64-.63.29-.18.66-.31,1.1-.4s.98-.14,1.6-.14h.58c.02-.1.03-.19.04-.29,0-.09.01-.18.01-.26,0-.34-.09-.6-.27-.77s-.46-.26-.86-.26c-.28,0-.53.02-.75.06-.22.04-.42.08-.58.13-.17.05-.31.09-.42.13-.11.04-.19.06-.24.06s-.09-.01-.11-.04-.03-.08-.03-.14c0-.07,0-.15.02-.25s.03-.19.05-.28c.02-.09.05-.18.09-.26s.08-.14.12-.18c.05-.05.14-.1.28-.15s.3-.1.49-.14c.19-.04.4-.08.64-.1.24-.03.48-.04.72-.04.41,0,.76.04,1.06.13s.56.21.76.39.36.39.46.66c.1.27.15.59.15.96,0,.28-.03.59-.08.91-.05.32-.14.64-.26.96-.12.31-.27.62-.46.9s-.41.54-.68.76c-.26.22-.57.39-.92.52-.35.13-.74.2-1.19.2-.38,0-.72-.05-.99-.14-.28-.09-.5-.21-.68-.36-.18-.15-.31-.32-.4-.51-.09-.19-.13-.39-.13-.59Zm1.57-.12c0,.17.07.31.2.42.13.11.33.17.58.17.21,0,.4-.04.57-.11s.31-.18.44-.31c.13-.13.24-.28.33-.46.09-.18.16-.36.22-.56h-.53c-.34,0-.62.02-.85.07-.23.04-.41.1-.55.18-.14.08-.24.17-.3.27-.06.1-.1.21-.1.33Z"/>
    <path class="cls-2" d="m223.07,138.5c0,.1-.01.21-.04.33s-.05.24-.09.35-.09.2-.14.28c-.06.07-.12.11-.19.11-.06,0-.12-.03-.18-.08-.06-.05-.13-.11-.22-.17s-.2-.12-.33-.17c-.13-.05-.3-.08-.51-.08-.22,0-.42.05-.59.15s-.33.22-.45.38c-.13.15-.24.33-.32.53-.08.2-.15.4-.21.6-.06.2-.09.39-.12.58-.02.18-.03.34-.03.48,0,.34.07.6.22.78s.39.27.71.27c.24,0,.44-.03.61-.09.17-.06.31-.13.43-.2.12-.07.22-.14.31-.2s.17-.09.24-.09c.04,0,.07.02.09.06.02.04.03.09.03.17s0,.16-.03.27c-.02.11-.04.22-.07.33s-.06.21-.1.31c-.04.1-.08.17-.14.23-.06.06-.15.12-.27.19-.12.07-.26.13-.42.19-.16.06-.34.1-.52.13s-.38.05-.59.05c-.72,0-1.27-.18-1.62-.55-.36-.37-.54-.91-.54-1.62,0-.26.02-.54.07-.85s.13-.62.24-.93c.11-.31.25-.61.43-.9s.39-.55.64-.77.55-.4.88-.54.72-.2,1.16-.2c.17,0,.33.01.5.04s.31.06.44.1c.14.04.25.1.36.16s.18.11.23.16c.05.05.08.09.1.13s.02.08.02.14Z"/>
    <path class="cls-2" d="m223.21,142.54c0-.3.07-.58.21-.82.14-.24.35-.45.64-.63.29-.18.66-.31,1.1-.4s.98-.14,1.6-.14h.58c.02-.1.03-.19.04-.29,0-.09.01-.18.01-.26,0-.34-.09-.6-.27-.77s-.46-.26-.86-.26c-.28,0-.53.02-.75.06-.22.04-.42.08-.58.13-.17.05-.31.09-.42.13-.11.04-.19.06-.24.06s-.09-.01-.11-.04-.03-.08-.03-.14c0-.07,0-.15.02-.25s.03-.19.05-.28c.02-.09.05-.18.09-.26s.08-.14.12-.18c.05-.05.14-.1.28-.15s.3-.1.49-.14c.19-.04.4-.08.64-.1.24-.03.48-.04.72-.04.41,0,.76.04,1.06.13s.56.21.76.39.36.39.46.66c.1.27.15.59.15.96,0,.28-.03.59-.08.91-.05.32-.14.64-.26.96-.12.31-.27.62-.46.9s-.41.54-.68.76c-.26.22-.57.39-.92.52-.35.13-.74.2-1.19.2-.38,0-.72-.05-.99-.14-.28-.09-.5-.21-.68-.36-.18-.15-.31-.32-.4-.51-.09-.19-.13-.39-.13-.59Zm1.57-.12c0,.17.07.31.2.42.13.11.33.17.58.17.21,0,.4-.04.57-.11s.31-.18.44-.31c.13-.13.24-.28.33-.46.09-.18.16-.36.22-.56h-.53c-.34,0-.62.02-.85.07-.23.04-.41.1-.55.18-.14.08-.24.17-.3.27-.06.1-.1.21-.1.33Z"/>
    <path class="cls-2" d="m234.32,138.04s0,.08-.01.16-.02.17-.04.27-.04.21-.06.31c-.03.11-.05.21-.09.3-.03.09-.07.17-.11.23s-.08.09-.13.09c-.04,0-.08,0-.12-.02-.04-.01-.08-.03-.13-.04-.05-.02-.1-.03-.15-.04-.05-.01-.12-.02-.19-.02-.14,0-.3.06-.46.17s-.32.25-.47.44c-.15.18-.28.39-.4.63-.12.24-.2.49-.25.75l-.51,2.55s-.03.08-.06.11c-.03.03-.08.06-.15.08s-.15.04-.26.05c-.11.01-.24.02-.39.02s-.28,0-.38-.02c-.1-.01-.18-.03-.23-.05-.06-.02-.09-.05-.11-.08-.02-.03-.02-.07-.01-.11l1.13-5.67s.03-.08.06-.11c.03-.03.07-.06.13-.08.06-.02.13-.03.22-.04.09-.01.2-.02.33-.02s.24,0,.32.02c.08.01.15.03.19.04.05.02.08.04.09.08.01.03.02.07,0,.11l-.18.9c.1-.18.22-.35.35-.5.13-.15.28-.28.43-.4.15-.11.31-.2.47-.26.16-.06.32-.1.48-.1.06,0,.13,0,.19.01s.13.02.18.03c.06.01.11.03.15.05.04.02.08.04.1.06.03.03.04.07.04.12Z"/>
  </g>
  <g>
    <path class="cls-2" d="m218.09,210.81s0,.08,0,.14c0,.07-.02.14-.03.23s-.03.17-.06.26-.05.17-.08.24c-.03.07-.07.13-.11.18s-.09.07-.15.07h-3.76c-.07,0-.13,0-.19-.03-.06-.02-.1-.05-.14-.1-.04-.04-.06-.1-.07-.17-.01-.07-.01-.14,0-.24l1.5-7.46s.02-.08.06-.11c.03-.03.09-.06.16-.08.07-.02.16-.04.27-.05.11-.01.24-.02.41-.02s.29,0,.4.02c.11.01.19.03.25.05s.1.05.12.08c.02.03.02.07.02.11l-1.32,6.61h2.59c.06,0,.1.02.12.07s.04.11.04.18Z"/>
    <path class="cls-2" d="m224.09,211.73c-.02.09-.08.15-.2.19s-.3.06-.56.06c-.13,0-.24,0-.32-.01-.08,0-.15-.02-.2-.04-.05-.02-.08-.04-.1-.08-.01-.03-.02-.07,0-.12l.18-.91c-.06.14-.16.28-.3.43-.14.15-.3.29-.49.41-.19.12-.4.22-.63.3s-.47.12-.71.12c-.34,0-.62-.06-.84-.18s-.4-.28-.54-.48c-.13-.2-.23-.43-.29-.69-.06-.26-.09-.53-.09-.81,0-.27.03-.56.08-.87.05-.32.13-.63.24-.94.11-.31.24-.61.41-.9.16-.29.36-.55.59-.77s.5-.4.79-.54c.3-.13.64-.2,1.01-.2.35,0,.66.07.93.22.27.15.51.36.71.64l.1-.5c.02-.09.08-.15.2-.19s.3-.06.56-.06c.13,0,.23,0,.32.02.08.01.15.03.2.04.05.02.08.04.1.08.02.03.02.07.01.11l-1.14,5.67Zm-.79-3.97c-.15-.23-.31-.41-.49-.52-.18-.12-.39-.17-.62-.17-.18,0-.34.04-.49.13-.15.08-.28.2-.39.34-.11.14-.21.31-.3.49s-.16.38-.22.58c-.06.2-.1.4-.13.61-.03.21-.04.39-.04.57,0,.13,0,.25.03.36.02.11.05.22.1.3s.12.16.2.21c.08.05.19.08.32.08.19,0,.38-.06.57-.17.19-.11.38-.26.54-.46.17-.19.32-.42.45-.67.13-.26.22-.53.28-.82l.18-.86Z"/>
    <path class="cls-2" d="m227.19,211.98c-.44-.11-.77-.34-1.01-.68-.24-.35-.36-.81-.36-1.39,0-.26.02-.54.07-.85s.13-.62.24-.93c.11-.31.25-.61.43-.9s.39-.55.64-.77.55-.4.88-.54.72-.2,1.16-.2c.17,0,.33.01.5.04s.31.06.44.1c.14.04.25.1.36.16s.18.11.23.16c.05.05.08.09.1.13s.02.08.02.14c0,.1-.01.21-.04.33s-.05.24-.09.35-.09.2-.14.28c-.06.07-.12.11-.19.11-.06,0-.12-.03-.18-.08-.06-.05-.13-.11-.22-.17s-.2-.12-.33-.17c-.13-.05-.3-.08-.51-.08-.22,0-.42.05-.59.15s-.33.22-.45.38c-.13.15-.24.33-.32.53-.08.2-.15.4-.21.6-.06.2-.09.39-.12.58-.02.18-.03.34-.03.48,0,.34.07.6.22.78s.39.27.71.27c.24,0,.44-.03.61-.09.17-.06.31-.13.43-.2.12-.07.22-.14.31-.2s.17-.09.24-.09c.04,0,.07.02.09.06.02.04.03.09.03.17s0,.16-.03.27c-.02.11-.04.22-.07.33s-.06.21-.1.31c-.04.1-.08.17-.14.23-.06.06-.15.12-.28.2s-.29.14-.47.2-.37.1-.57.12l.08.32c.03.11.05.21.07.3.02.09.03.19.03.28,0,.23-.04.43-.11.59-.07.17-.18.3-.31.41-.14.11-.3.19-.49.24s-.4.08-.63.08c-.12,0-.24,0-.36-.01s-.22-.02-.32-.04c-.1-.02-.18-.04-.26-.06-.08-.02-.14-.05-.19-.07-.05-.03-.08-.05-.1-.08-.02-.03-.03-.07-.03-.12,0-.04,0-.1.02-.18s.03-.15.05-.23.06-.14.1-.2c.04-.06.1-.09.17-.09h.72c.06,0,.12,0,.17-.02.05-.02.1-.04.14-.06.04-.03.07-.06.09-.11s.04-.1.04-.16c0-.04,0-.09,0-.15,0-.06-.02-.11-.03-.17l-.13-.53Z"/>
    <path class="cls-2" d="m232.65,211.72s-.03.08-.06.11c-.03.03-.08.06-.15.08s-.15.04-.26.05c-.11.01-.24.02-.39.02s-.28,0-.38-.02c-.1-.01-.18-.03-.23-.05-.06-.02-.09-.05-.11-.08-.02-.03-.02-.07-.01-.11l1.13-5.66s.03-.08.06-.11.08-.06.15-.08.15-.04.25-.05c.1-.01.23-.02.39-.02s.28,0,.38.02c.1.01.18.03.24.05.06.02.09.05.11.08.02.03.02.07.01.11l-1.13,5.66Z"/>
    <path class="cls-2" d="m240.33,207.32c0,.15,0,.3-.03.44-.02.15-.04.3-.07.46l-.71,3.5s-.03.08-.06.11-.08.06-.15.08-.15.04-.25.05c-.1.01-.23.02-.39.02s-.28,0-.38-.02c-.1-.01-.18-.03-.23-.05-.05-.02-.09-.05-.11-.08-.02-.03-.02-.07-.02-.11l.69-3.4c.02-.1.04-.21.05-.31s.02-.2.02-.28c0-.19-.04-.35-.12-.47s-.22-.18-.41-.18c-.17,0-.35.06-.54.17s-.37.26-.53.45c-.17.19-.32.41-.45.66-.13.25-.22.52-.28.8l-.51,2.56s-.03.08-.06.11c-.03.03-.08.06-.15.08s-.15.04-.26.05c-.11.01-.24.02-.39.02s-.28,0-.38-.02c-.1-.01-.18-.03-.23-.05-.06-.02-.09-.05-.11-.08-.02-.03-.02-.07-.01-.11l1.14-5.67s.03-.08.05-.11c.03-.03.07-.06.13-.08.06-.02.13-.03.22-.04.09-.01.2-.02.33-.02s.24,0,.32.02c.08.01.15.03.19.04.05.02.08.04.09.08.01.03.02.07,0,.11l-.18.93c.09-.15.21-.3.36-.45.15-.15.32-.29.51-.42s.4-.22.63-.3c.23-.08.46-.12.71-.12.3,0,.54.04.75.13.2.09.36.2.49.35s.21.32.27.52c.05.2.08.41.08.63Z"/>
  </g>
  <g>
    <path class="cls-2" d="m258.28,300.52s0,.09-.01.17c0,.07-.02.15-.04.24-.02.08-.04.17-.06.26s-.05.17-.09.24c-.03.07-.07.13-.11.17-.04.04-.09.07-.14.07-.04,0-.11-.01-.21-.03-.09-.02-.21-.06-.34-.11-.13-.05-.28-.12-.44-.21-.16-.08-.32-.19-.49-.31-.17-.12-.33-.26-.5-.42-.17-.16-.32-.34-.46-.54-.22.1-.47.18-.74.23s-.57.08-.9.08c-.51,0-.96-.06-1.36-.17-.39-.11-.72-.29-.99-.53-.27-.24-.47-.54-.61-.89-.14-.36-.21-.78-.21-1.27,0-.4.03-.81.1-1.25.07-.43.18-.86.34-1.28s.36-.81.6-1.19c.25-.38.55-.71.9-1,.35-.29.76-.52,1.23-.68s1-.25,1.6-.25c.51,0,.96.06,1.35.17.39.12.72.29.99.53.27.24.47.54.61.9.14.36.21.79.21,1.28,0,.24-.01.5-.04.76s-.07.54-.13.81c-.06.27-.14.54-.23.82-.1.27-.21.54-.34.8-.13.26-.29.51-.47.74-.18.23-.38.46-.61.66.2.21.38.37.55.48s.32.2.45.27.24.11.32.14c.09.03.14.06.17.09s.05.06.06.09c0,.03.01.08.01.14Zm-1.5-5.64c0-.26-.03-.49-.09-.7-.06-.21-.15-.39-.28-.53-.13-.14-.29-.25-.5-.33-.21-.08-.46-.12-.75-.12-.37,0-.69.07-.97.21s-.53.33-.73.56-.38.49-.52.78c-.14.29-.25.59-.34.89s-.14.6-.18.89c-.04.29-.05.54-.05.75,0,.26.03.5.09.71.06.21.15.38.28.52s.3.25.5.33.46.11.75.11c.36,0,.69-.07.96-.21s.52-.32.73-.55.38-.49.52-.78.25-.59.34-.89c.08-.3.14-.59.18-.88.04-.29.05-.54.05-.77Z"/>
    <path class="cls-2" d="m264.31,299.97s-.03.08-.05.11c-.03.03-.07.06-.13.08-.06.02-.13.03-.22.04-.09,0-.2.02-.33.02s-.24,0-.32-.02c-.08-.01-.15-.03-.19-.04-.05-.02-.08-.04-.09-.08-.01-.03-.02-.07,0-.11l.17-.92c-.08.15-.2.3-.35.45s-.32.29-.51.41c-.19.12-.4.22-.63.3-.22.08-.45.11-.69.11-.3,0-.55-.04-.75-.12-.21-.08-.37-.2-.5-.34s-.22-.31-.27-.51c-.06-.2-.08-.42-.08-.65,0-.14,0-.29.03-.44.02-.15.04-.3.07-.46l.7-3.51s.03-.08.06-.11.08-.06.15-.08c.07-.02.15-.03.26-.04s.24-.02.39-.02.28,0,.38.02.18.03.23.04c.05.02.09.04.11.08.02.03.02.07.02.11l-.67,3.4c-.02.09-.04.19-.05.29s-.02.2-.02.29c0,.1,0,.19.03.28.02.08.05.15.09.21.04.06.1.1.16.13.07.03.15.04.24.04.17,0,.35-.06.54-.17.19-.11.37-.27.54-.46.17-.2.32-.43.45-.7.13-.27.23-.56.3-.87l.48-2.45s.02-.08.06-.11c.03-.03.08-.06.15-.08.07-.02.15-.03.26-.04s.23-.02.39-.02.29,0,.38.02.18.03.23.04c.06.02.09.04.11.08.02.03.02.07.01.11l-1.14,5.67Z"/>
    <path class="cls-2" d="m272.16,296.1c0,.28-.03.58-.08.9s-.13.63-.23.95c-.11.31-.24.61-.41.9-.17.29-.36.54-.6.76-.23.22-.5.4-.8.53-.3.13-.63.2-1,.2s-.67-.07-.94-.21c-.27-.14-.51-.35-.71-.63l-.09.48c-.02.09-.08.15-.2.19s-.3.06-.56.06-.43-.02-.52-.06c-.09-.04-.13-.11-.11-.19l1.67-8.35s.03-.08.06-.11c.03-.03.08-.06.15-.08.07-.02.15-.04.26-.05s.23-.02.39-.02.28,0,.38.02c.1.01.17.03.23.05.06.02.09.05.11.08.02.03.02.07.01.11l-.45,2.27c-.02.1-.04.2-.07.31-.03.11-.05.21-.09.32-.03.11-.06.21-.1.31-.03.1-.06.19-.09.26.08-.14.19-.27.33-.41.14-.14.3-.26.49-.37.18-.11.38-.2.59-.27.21-.07.42-.1.63-.1.24,0,.45.03.63.09.18.06.33.14.46.25.13.11.24.23.32.38.08.14.15.29.2.45.05.16.08.32.1.49.02.17.03.33.03.5Zm-1.64.16c0-.11,0-.22-.02-.33s-.05-.22-.1-.31c-.05-.09-.12-.17-.2-.23-.08-.06-.2-.09-.34-.09-.19,0-.38.06-.57.17-.19.11-.37.26-.54.46-.17.19-.32.42-.45.68-.13.26-.22.53-.28.83l-.18.86c.15.23.31.41.49.52.18.11.39.17.63.17.17,0,.33-.04.47-.12.14-.08.27-.19.39-.33.12-.13.22-.29.3-.48.09-.18.16-.37.22-.57.06-.2.1-.41.13-.61.03-.21.04-.41.04-.6Z"/>
    <path class="cls-2" d="m278.03,299.97c-.02.09-.08.15-.2.19s-.3.06-.56.06c-.13,0-.24,0-.32-.01-.08,0-.15-.02-.2-.04-.05-.02-.08-.04-.1-.08-.01-.03-.02-.07,0-.12l.18-.91c-.06.13-.16.28-.3.43-.14.15-.3.29-.49.41-.19.12-.4.22-.63.3-.23.08-.47.12-.71.12-.34,0-.62-.06-.84-.18-.22-.12-.4-.28-.54-.48-.13-.2-.23-.43-.29-.69-.06-.26-.09-.53-.09-.81,0-.27.03-.56.08-.87.05-.32.13-.63.24-.94.11-.31.24-.61.41-.9.16-.29.36-.55.59-.77.23-.22.5-.4.79-.54.3-.13.64-.2,1.01-.2.35,0,.66.07.93.22.27.15.51.36.71.64l.1-.5c.02-.09.08-.15.2-.19s.3-.06.56-.06c.13,0,.23,0,.32.02s.15.03.2.04c.05.02.08.04.1.08.02.03.02.07.01.11l-1.14,5.67Zm-.79-3.97c-.15-.23-.31-.41-.49-.52s-.39-.17-.62-.17c-.18,0-.34.04-.49.13-.15.08-.28.2-.39.34-.11.14-.21.31-.3.49-.09.19-.16.38-.22.58-.06.2-.1.4-.13.61-.03.21-.04.39-.04.57,0,.13,0,.25.03.36.02.11.05.22.1.3s.12.16.2.21c.08.05.19.08.32.08.19,0,.38-.06.57-.17.19-.11.38-.26.54-.46.17-.19.32-.42.45-.67.13-.26.22-.53.28-.82l.18-.86Z"/>
    <path class="cls-2" d="m284.9,299.97c-.02.09-.08.15-.2.19s-.3.06-.56.06c-.13,0-.24,0-.32-.01-.08,0-.15-.02-.2-.04-.05-.02-.08-.04-.1-.08-.01-.03-.02-.07,0-.12l.17-.91c-.06.13-.16.28-.3.43-.14.15-.3.29-.49.41-.19.12-.4.23-.63.3s-.47.12-.71.12-.45-.03-.63-.09-.33-.14-.46-.25c-.13-.11-.24-.23-.32-.37-.08-.14-.15-.3-.2-.46-.05-.16-.09-.33-.11-.5-.02-.17-.03-.34-.03-.5,0-.28.03-.57.08-.89s.13-.63.24-.94c.11-.31.24-.61.41-.9.17-.29.36-.54.59-.76.23-.22.5-.4.79-.53.3-.13.63-.2,1.01-.2.17,0,.32.02.47.05.15.04.29.08.41.15s.24.13.34.22c.1.08.19.17.26.27l.6-2.99s.03-.08.06-.11c.03-.03.08-.06.14-.09s.15-.04.25-.05.23-.02.39-.02.28,0,.38.02.18.03.23.05.09.05.11.09c.02.03.02.07.01.11l-1.66,8.33Zm-.79-3.97c-.15-.23-.31-.41-.49-.53-.18-.12-.39-.18-.62-.18-.17,0-.33.04-.48.12-.15.08-.28.19-.39.33s-.22.3-.3.48c-.09.18-.16.38-.22.58-.06.2-.1.41-.13.61s-.04.4-.04.58c0,.32.05.56.16.73.11.16.27.24.5.24.19,0,.38-.06.57-.17.19-.11.38-.26.54-.45.17-.19.32-.41.45-.67.13-.26.22-.53.28-.82l.18-.86Z"/>
    <path class="cls-2" d="m288.09,299.96s-.03.08-.06.11c-.03.03-.08.06-.14.08-.06.02-.15.04-.25.05-.11,0-.24.02-.39.02-.16,0-.29,0-.39-.02-.1-.01-.18-.03-.23-.05-.05-.02-.09-.05-.11-.08-.02-.03-.02-.07-.02-.11l1.67-8.35s.03-.08.06-.11c.03-.03.08-.06.15-.08.07-.02.15-.04.26-.05s.23-.02.39-.02.29,0,.38.02.18.03.23.05c.05.02.09.05.11.08.02.03.02.07.01.11l-1.66,8.35Z"/>
    <path class="cls-2" d="m291.29,299.96s-.03.08-.06.11c-.03.03-.08.06-.15.08-.07.02-.15.04-.26.05-.11,0-.24.02-.39.02s-.28,0-.38-.02c-.1-.01-.18-.03-.23-.05-.06-.02-.09-.05-.11-.08-.02-.03-.02-.07-.01-.11l1.13-5.66s.03-.08.06-.11.08-.06.15-.08c.07-.02.15-.04.25-.05s.23-.02.39-.02.28,0,.38.02.18.03.24.05c.06.02.09.05.11.08.02.03.02.07.01.11l-1.13,5.66Z"/>
  </g>
  <g>
    <path class="cls-2" d="m317.2,313.07c0,.12-.02.28-.06.48-.04.2-.09.36-.15.48-.06.12-.13.18-.21.18-.06,0-.12-.04-.2-.1-.08-.07-.18-.15-.3-.23-.12-.08-.28-.16-.47-.23-.19-.07-.43-.1-.71-.1-.31,0-.6.06-.86.19-.26.12-.49.29-.69.5-.2.21-.38.44-.53.71s-.28.54-.38.83c-.1.29-.17.57-.22.86-.05.29-.07.55-.07.8,0,.3.04.56.11.78.07.22.18.41.32.56.14.15.31.26.51.33s.43.11.69.11c.3,0,.56-.03.77-.1s.4-.13.55-.21.27-.15.37-.21.19-.09.27-.09c.05,0,.09.02.11.06.02.04.03.1.03.17,0,.03,0,.07-.01.13,0,.06-.02.13-.03.2s-.03.15-.04.24c-.02.09-.04.17-.06.24s-.05.14-.07.2-.06.12-.11.16-.14.11-.27.18-.3.14-.5.21-.42.12-.66.16c-.25.04-.51.07-.79.07-.46,0-.88-.06-1.25-.18-.37-.12-.68-.31-.94-.56-.26-.25-.46-.56-.6-.94-.14-.38-.21-.82-.21-1.32,0-.39.04-.8.12-1.23.08-.42.2-.84.36-1.25s.37-.79.62-1.16c.25-.36.54-.68.89-.96.34-.27.73-.49,1.16-.65.43-.16.92-.24,1.44-.24.3,0,.58.03.84.09.26.06.5.14.69.24.2.1.33.19.41.28.08.08.12.19.12.31Z"/>
    <path class="cls-2" d="m316.91,319.03c0-.3.07-.58.21-.82s.35-.45.64-.63c.29-.18.66-.31,1.1-.4.45-.09.98-.14,1.6-.14h.58c.02-.1.03-.19.04-.29,0-.09.01-.18.01-.26,0-.34-.09-.6-.27-.77-.18-.17-.46-.26-.86-.26-.28,0-.53.02-.75.06-.22.04-.42.08-.58.13s-.31.09-.42.13c-.11.04-.19.06-.24.06s-.09-.01-.11-.04c-.02-.03-.03-.08-.03-.14,0-.07,0-.15.02-.25.01-.09.03-.18.05-.28.02-.09.05-.18.09-.26.04-.08.08-.14.12-.18.05-.05.14-.1.28-.15s.3-.1.49-.14c.19-.04.4-.08.64-.1.24-.03.48-.04.72-.04.41,0,.76.04,1.06.13.3.08.56.21.76.39.2.17.36.39.46.66s.15.59.15.96c0,.28-.03.59-.08.91-.05.32-.14.64-.26.96-.12.31-.27.62-.46.9-.19.29-.41.54-.68.76-.26.22-.57.39-.92.52-.35.13-.74.2-1.19.2-.38,0-.72-.04-.99-.14-.28-.09-.5-.21-.68-.36s-.31-.32-.4-.51c-.09-.19-.13-.39-.13-.59Zm1.57-.12c0,.17.07.31.2.42.13.11.33.17.58.17.21,0,.4-.04.57-.11s.31-.18.44-.31c.13-.13.24-.28.33-.46.09-.18.16-.36.22-.56h-.53c-.34,0-.62.02-.85.07-.23.04-.41.1-.55.18-.14.08-.24.17-.3.27-.06.1-.1.21-.1.33Z"/>
    <path class="cls-2" d="m329.56,316.41c0,.28-.03.58-.08.9s-.13.63-.23.95c-.11.31-.24.61-.41.9-.17.29-.36.54-.6.76-.23.22-.5.4-.8.53-.3.13-.63.2-1,.2s-.67-.07-.94-.21c-.27-.14-.51-.35-.71-.63l-.09.48c-.02.09-.08.15-.2.19s-.3.06-.56.06-.43-.02-.52-.06c-.09-.04-.13-.11-.11-.19l1.67-8.35s.03-.08.06-.11c.03-.03.08-.06.15-.08.07-.02.15-.04.26-.05s.23-.02.39-.02.28,0,.38.02c.1.01.17.03.23.05.06.02.09.05.11.08.02.03.02.07.01.11l-.45,2.27c-.02.1-.04.2-.07.31-.03.11-.05.21-.09.32-.03.11-.06.21-.1.31-.03.1-.06.19-.09.26.08-.14.19-.27.33-.41.14-.14.3-.26.49-.37.18-.11.38-.2.59-.27.21-.07.42-.1.63-.1.24,0,.45.03.63.09.18.06.33.14.46.25.13.11.24.23.32.38.08.14.15.29.2.45.05.16.08.32.1.49.02.17.03.33.03.5Zm-1.64.16c0-.11,0-.22-.02-.33s-.05-.22-.1-.31c-.05-.09-.12-.17-.2-.23-.08-.06-.2-.09-.34-.09-.19,0-.38.06-.57.17-.19.11-.37.26-.54.46-.17.19-.32.42-.45.68-.13.26-.22.53-.28.83l-.18.86c.15.23.31.41.49.52.18.11.39.17.63.17.17,0,.33-.04.47-.12.14-.08.27-.19.39-.33.12-.13.22-.29.3-.48.09-.18.16-.37.22-.57.06-.2.1-.41.13-.61.03-.21.04-.41.04-.6Z"/>
    <path class="cls-2" d="m334.87,314.52s0,.08-.01.16-.02.17-.04.27-.04.21-.06.31c-.03.11-.05.21-.09.3-.03.09-.07.17-.11.23-.04.06-.08.09-.13.09-.04,0-.08,0-.12-.02-.04-.01-.08-.03-.13-.04-.05-.02-.1-.03-.15-.04-.05-.01-.12-.02-.19-.02-.14,0-.3.06-.46.17-.16.11-.32.25-.47.44-.15.18-.28.39-.4.63s-.2.49-.25.75l-.51,2.55s-.03.08-.06.11c-.03.03-.08.06-.15.08-.07.02-.15.04-.26.05-.11,0-.24.02-.39.02s-.28,0-.38-.02c-.1-.01-.18-.03-.23-.05-.06-.02-.09-.05-.11-.08-.02-.03-.02-.07-.01-.11l1.13-5.67s.03-.08.06-.11c.03-.03.07-.06.13-.08.06-.02.13-.03.22-.04s.2-.02.33-.02.24,0,.32.02c.08.01.15.03.19.04.05.02.08.04.09.08.01.03.02.07,0,.11l-.18.9c.1-.18.22-.35.35-.5.13-.15.28-.29.43-.4.15-.11.31-.2.47-.26.16-.06.32-.1.48-.1.06,0,.13,0,.19.01.07,0,.13.02.18.03.06.01.11.03.15.05.04.02.08.04.1.06.03.03.04.07.04.12Z"/>
    <path class="cls-2" d="m340.01,320.28c-.02.09-.08.15-.2.19s-.3.06-.56.06c-.13,0-.24,0-.32-.01-.08,0-.15-.02-.2-.04-.05-.02-.08-.04-.1-.08-.01-.03-.02-.07,0-.12l.18-.91c-.06.13-.16.28-.3.43-.14.15-.3.29-.49.41-.19.12-.4.22-.63.3-.23.08-.47.12-.71.12-.34,0-.62-.06-.84-.18-.22-.12-.4-.28-.54-.48-.13-.2-.23-.43-.29-.69-.06-.26-.09-.53-.09-.81,0-.27.03-.56.08-.87.05-.32.13-.63.24-.94.11-.31.24-.61.41-.9.16-.29.36-.55.59-.77.23-.22.5-.4.79-.54.3-.13.64-.2,1.01-.2.35,0,.66.07.93.22.27.15.51.36.71.64l.1-.5c.02-.09.08-.15.2-.19s.3-.06.56-.06c.13,0,.23,0,.32.02s.15.03.2.04c.05.02.08.04.1.08.02.03.02.07.01.11l-1.14,5.67Zm-.79-3.97c-.15-.23-.31-.41-.49-.52s-.39-.17-.62-.17c-.18,0-.34.04-.49.13-.15.08-.28.2-.39.34-.11.14-.21.31-.3.49-.09.19-.16.38-.22.58-.06.2-.1.4-.13.61-.03.21-.04.39-.04.57,0,.13,0,.25.03.36.02.11.05.22.1.3s.12.16.2.21c.08.05.19.08.32.08.19,0,.38-.06.57-.17.19-.11.38-.26.54-.46.17-.19.32-.42.45-.67.13-.26.22-.53.28-.82l.18-.86Z"/>
    <path class="cls-2" d="m347.69,314.59c0,.06,0,.12-.02.18-.01.07-.03.14-.06.21-.14.39-.3.79-.47,1.21-.17.42-.36.84-.57,1.28-.22.44-.46.9-.74,1.37s-.59.96-.95,1.46l-1.55,2.2c-.04.05-.08.1-.14.14-.06.04-.13.07-.22.09-.09.02-.19.04-.31.05-.12.01-.26.02-.43.02-.18,0-.33,0-.44-.02-.11-.02-.19-.04-.24-.07-.05-.03-.07-.08-.07-.13,0-.05.03-.11.09-.18l1.44-1.9-.93-5.45c0-.06-.02-.11-.03-.17,0-.06-.01-.11-.01-.15,0-.08.01-.14.04-.18.03-.05.07-.08.14-.11s.15-.04.26-.05c.11-.01.24-.02.4-.02.17,0,.31,0,.41,0,.1,0,.17.02.23.04.05.02.09.05.1.09.02.04.03.1.04.16l.58,3.97h.01c.21-.32.4-.64.58-.96.17-.33.33-.66.48-.99.14-.34.28-.68.4-1.02.12-.35.23-.69.33-1.04,0-.04.03-.08.06-.11.03-.03.08-.06.15-.08.07-.02.16-.03.28-.04s.26-.02.44-.02c.27,0,.46.02.56.05.1.03.15.09.15.18Z"/>
    <path class="cls-2" d="m349.32,320.28s-.03.08-.06.11c-.03.03-.08.06-.15.08-.07.02-.15.04-.26.05-.11,0-.24.02-.39.02s-.28,0-.38-.02c-.1-.01-.18-.03-.23-.05-.06-.02-.09-.05-.11-.08-.02-.03-.02-.07-.01-.11l1.13-5.66s.03-.08.06-.11.08-.06.15-.08c.07-.02.15-.04.25-.05s.23-.02.39-.02.28,0,.38.02.18.03.24.05c.06.02.09.05.11.08.02.03.02.07.01.11l-1.13,5.66Z"/>
    <path class="cls-2" d="m352.51,320.28s-.03.08-.06.11c-.03.03-.08.06-.14.08-.06.02-.15.04-.25.05-.11,0-.24.02-.39.02-.16,0-.29,0-.39-.02-.1-.01-.18-.03-.23-.05-.05-.02-.09-.05-.11-.08-.02-.03-.02-.07-.02-.11l1.67-8.35s.03-.08.06-.11c.03-.03.08-.06.15-.08.07-.02.15-.04.26-.05s.23-.02.39-.02.29,0,.38.02.18.03.23.05c.05.02.09.05.11.08.02.03.02.07.01.11l-1.66,8.35Z"/>
  </g>
  <g>
    <path class="cls-2" d="m270.43,358.93c.12,0,.21.03.29.09.07.06.11.15.11.27,0,.07-.01.17-.04.31-.03.14-.06.27-.09.4-.01.05-.03.1-.05.15s-.05.11-.09.17-.09.13-.15.21c-.06.08-.13.18-.23.29l-4.08,4.98h3.38c.06,0,.1.02.12.06.02.04.04.11.04.19,0,.03,0,.08,0,.15s-.01.14-.03.22c-.01.08-.03.17-.05.25-.02.08-.05.16-.08.23-.03.07-.07.13-.11.17-.04.04-.09.07-.14.07h-4.84c-.15,0-.26-.04-.33-.11-.07-.08-.11-.17-.11-.29,0-.03,0-.08,0-.14,0-.06.02-.12.03-.19l.04-.2c.01-.07.03-.12.04-.16.02-.05.04-.09.06-.14.02-.05.05-.1.09-.16.04-.06.09-.13.15-.21.06-.08.14-.18.23-.29l4.1-5h-3.08c-.14,0-.2-.09-.2-.27,0-.03,0-.07,0-.14,0-.07.02-.14.03-.22s.03-.16.05-.24c.02-.08.05-.16.09-.23.03-.07.08-.12.12-.17.05-.04.1-.07.17-.07h4.56Z"/>
    <path class="cls-2" d="m270.56,365.69c0-.3.07-.58.21-.82s.35-.45.64-.63c.29-.18.66-.31,1.1-.4.45-.09.98-.14,1.6-.14h.58c.02-.1.03-.19.04-.29,0-.09.01-.18.01-.26,0-.34-.09-.6-.27-.77-.18-.17-.46-.26-.86-.26-.28,0-.53.02-.75.06-.22.04-.42.08-.58.13s-.31.09-.42.13c-.11.04-.19.06-.24.06s-.09-.01-.11-.04c-.02-.03-.03-.08-.03-.14,0-.07,0-.15.02-.25.01-.09.03-.18.05-.28.02-.09.05-.18.09-.26.04-.08.08-.14.12-.18.05-.05.14-.1.28-.15s.3-.1.49-.14c.19-.04.4-.08.64-.1.24-.03.48-.04.72-.04.41,0,.76.04,1.06.13.3.08.56.21.76.39.2.17.36.39.46.66s.15.59.15.96c0,.28-.03.59-.08.91-.05.32-.14.64-.26.96-.12.31-.27.62-.46.9-.19.29-.41.54-.68.76-.26.22-.57.39-.92.52-.35.13-.74.2-1.19.2-.38,0-.72-.04-.99-.14-.28-.09-.5-.21-.68-.36s-.31-.32-.4-.51c-.09-.19-.13-.39-.13-.59Zm1.57-.12c0,.17.07.31.2.42.13.11.33.17.58.17.21,0,.4-.04.57-.11s.31-.18.44-.31c.13-.13.24-.28.33-.46.09-.18.16-.36.22-.56h-.53c-.34,0-.62.02-.85.07-.23.04-.41.1-.55.18-.14.08-.24.17-.3.27-.06.1-.1.21-.1.33Z"/>
    <path class="cls-2" d="m283.05,362.53c0,.15,0,.3-.03.44-.02.15-.04.3-.07.46l-.71,3.5s-.03.08-.06.11-.08.06-.15.08c-.07.02-.15.04-.25.05-.1,0-.23.02-.39.02s-.28,0-.38-.02c-.1-.01-.18-.03-.23-.05-.05-.02-.09-.05-.11-.08-.02-.03-.02-.07-.02-.11l.69-3.4c.02-.1.04-.21.05-.31.01-.11.02-.2.02-.28,0-.19-.04-.35-.12-.47-.08-.12-.22-.18-.41-.18-.17,0-.35.06-.54.17-.19.11-.37.26-.53.45-.17.19-.32.41-.45.66-.13.25-.22.52-.28.8l-.51,2.56s-.03.08-.06.11c-.03.03-.08.06-.15.08-.07.02-.15.04-.26.05-.11,0-.24.02-.39.02s-.28,0-.38-.02c-.1-.01-.18-.03-.23-.05-.06-.02-.09-.05-.11-.08-.02-.03-.02-.07-.01-.11l1.14-5.67s.03-.08.05-.11c.03-.03.07-.06.13-.08.06-.02.13-.03.22-.04s.2-.02.33-.02.24,0,.32.02c.08.01.15.03.19.04.05.02.08.04.09.08.01.03.02.07,0,.11l-.18.93c.09-.15.21-.3.36-.45s.32-.29.51-.42c.19-.12.4-.22.63-.3.23-.08.46-.12.71-.12.3,0,.54.04.75.13.2.09.36.2.49.35.12.15.21.32.27.52.05.2.08.41.08.62Z"/>
    <path class="cls-2" d="m289.02,367.16c-.08.38-.19.72-.36,1.01-.16.29-.37.52-.63.72-.26.19-.58.34-.96.43-.38.1-.81.15-1.31.15-.36,0-.68-.03-.97-.08-.29-.06-.52-.13-.71-.22-.07-.03-.11-.07-.14-.11-.03-.04-.04-.1-.04-.18,0-.03,0-.07,0-.13,0-.06.01-.12.03-.2.01-.07.03-.15.05-.23s.05-.15.08-.21c.03-.06.07-.11.1-.15.04-.04.08-.06.13-.06s.11.02.19.05.17.08.29.12c.12.04.28.08.46.12.18.04.41.05.67.05.22,0,.41-.02.58-.05.17-.03.32-.09.45-.17s.23-.17.31-.29c.08-.12.13-.26.17-.44.06-.27.11-.51.17-.69.05-.19.11-.34.15-.46-.08.14-.19.28-.33.42-.14.14-.3.26-.49.37-.18.11-.38.2-.59.26-.21.07-.42.1-.63.1-.33,0-.6-.05-.82-.17-.22-.11-.4-.26-.54-.46-.14-.19-.24-.42-.3-.69-.06-.26-.09-.55-.09-.85,0-.27.03-.57.08-.89s.13-.63.24-.95c.11-.31.24-.61.41-.9.17-.29.36-.54.59-.76.23-.22.5-.4.79-.53.3-.13.63-.2,1.01-.2.35,0,.66.07.93.22.27.15.51.36.71.64l.1-.5c.02-.09.08-.15.2-.19s.3-.06.56-.06c.13,0,.23,0,.32.02s.15.03.2.04c.05.02.08.04.1.08.02.03.02.07.01.11l-1.19,5.9Zm-.74-4.2c-.15-.23-.31-.41-.49-.52-.18-.12-.39-.17-.62-.17-.18,0-.34.04-.49.13-.15.08-.28.2-.39.34-.12.14-.22.31-.3.49-.09.19-.16.38-.22.58-.06.2-.1.41-.13.61s-.04.4-.04.58c0,.14.01.27.04.39.03.12.06.22.12.3.05.08.12.15.2.19.08.04.18.07.3.07.19,0,.38-.06.57-.17.19-.11.38-.26.54-.46.17-.19.32-.42.45-.68.13-.26.22-.53.28-.83l.18-.86Z"/>
    <path class="cls-2" d="m292.27,366.93s-.03.08-.06.11c-.03.03-.08.06-.15.08-.07.02-.15.04-.26.05-.11,0-.24.02-.39.02s-.28,0-.38-.02c-.1-.01-.18-.03-.23-.05-.06-.02-.09-.05-.11-.08-.02-.03-.02-.07-.01-.11l1.12-5.65s.03-.08.06-.11c.03-.03.08-.06.15-.08.07-.02.15-.04.25-.05s.23-.02.39-.02.28,0,.38.02.18.03.23.05c.06.02.09.05.11.08.02.03.02.07.01.11l-1.12,5.65Zm1.64-7.57c-.03.16-.07.29-.12.4-.05.11-.12.19-.2.26-.08.07-.19.11-.31.14-.12.03-.27.04-.46.04s-.32-.01-.43-.04c-.11-.03-.2-.07-.25-.14-.06-.07-.09-.15-.1-.26,0-.11,0-.24.04-.4.03-.15.07-.28.12-.39.05-.11.12-.19.2-.26.08-.07.19-.12.31-.15.12-.03.27-.04.46-.04s.32.01.43.04c.11.03.2.08.25.15.06.07.09.15.09.26,0,.11,0,.24-.04.39Z"/>
    <path class="cls-2" d="m295.47,366.93s-.03.08-.06.11c-.03.03-.08.06-.14.08-.06.02-.15.04-.25.05-.11,0-.24.02-.39.02-.16,0-.29,0-.39-.02-.1-.01-.18-.03-.23-.05-.05-.02-.09-.05-.11-.08-.02-.03-.02-.07-.02-.11l1.67-8.35s.03-.08.06-.11c.03-.03.08-.06.15-.08.07-.02.15-.04.26-.05s.23-.02.39-.02.29,0,.38.02.18.03.23.05c.05.02.09.05.11.08.02.03.02.07.01.11l-1.66,8.35Z"/>
    <path class="cls-2" d="m302.32,366.94c-.02.09-.08.15-.2.19s-.3.06-.56.06c-.13,0-.24,0-.32-.01-.08,0-.15-.02-.2-.04-.05-.02-.08-.04-.1-.08-.01-.03-.02-.07,0-.12l.18-.91c-.06.13-.16.28-.3.43-.14.15-.3.29-.49.41-.19.12-.4.22-.63.3-.23.08-.47.12-.71.12-.34,0-.62-.06-.84-.18-.22-.12-.4-.28-.54-.48-.13-.2-.23-.43-.29-.69-.06-.26-.09-.53-.09-.81,0-.27.03-.56.08-.87.05-.32.13-.63.24-.94.11-.31.24-.61.41-.9.16-.29.36-.55.59-.77.23-.22.5-.4.79-.54.3-.13.64-.2,1.01-.2.35,0,.66.07.93.22.27.15.51.36.71.64l.1-.5c.02-.09.08-.15.2-.19s.3-.06.56-.06c.13,0,.23,0,.32.02s.15.03.2.04c.05.02.08.04.1.08.02.03.02.07.01.11l-1.14,5.67Zm-.79-3.97c-.15-.23-.31-.41-.49-.52s-.39-.17-.62-.17c-.18,0-.34.04-.49.13-.15.08-.28.2-.39.34-.11.14-.21.31-.3.49-.09.19-.16.38-.22.58-.06.2-.1.4-.13.61-.03.21-.04.39-.04.57,0,.13,0,.25.03.36.02.11.05.22.1.3s.12.16.2.21c.08.05.19.08.32.08.19,0,.38-.06.57-.17.19-.11.38-.26.54-.46.17-.19.32-.42.45-.67.13-.26.22-.53.28-.82l.18-.86Z"/>
    <path class="cls-2" d="m310.01,362.53c0,.15,0,.3-.03.44-.02.15-.04.3-.07.46l-.71,3.5s-.03.08-.06.11-.08.06-.15.08c-.07.02-.15.04-.25.05-.1,0-.23.02-.39.02s-.28,0-.38-.02c-.1-.01-.18-.03-.23-.05-.05-.02-.09-.05-.11-.08-.02-.03-.02-.07-.02-.11l.69-3.4c.02-.1.04-.21.05-.31.01-.11.02-.2.02-.28,0-.19-.04-.35-.12-.47-.08-.12-.22-.18-.41-.18-.17,0-.35.06-.54.17-.19.11-.37.26-.53.45-.17.19-.32.41-.45.66-.13.25-.22.52-.28.8l-.51,2.56s-.03.08-.06.11c-.03.03-.08.06-.15.08-.07.02-.15.04-.26.05-.11,0-.24.02-.39.02s-.28,0-.38-.02c-.1-.01-.18-.03-.23-.05-.06-.02-.09-.05-.11-.08-.02-.03-.02-.07-.01-.11l1.14-5.67s.03-.08.05-.11c.03-.03.07-.06.13-.08.06-.02.13-.03.22-.04s.2-.02.33-.02.24,0,.32.02c.08.01.15.03.19.04.05.02.08.04.09.08.01.03.02.07,0,.11l-.18.93c.09-.15.21-.3.36-.45s.32-.29.51-.42c.19-.12.4-.22.63-.3.23-.08.46-.12.71-.12.3,0,.54.04.75.13.2.09.36.2.49.35.12.15.21.32.27.52.05.2.08.41.08.62Z"/>
  </g>
</svg>