<?xml version="1.0" encoding="utf-8"?>
<!-- Generator: Adobe Illustrator 27.1.1, SVG Export Plug-In . SVG Version: 6.00 Build 0)  -->
<svg version="1.1" id="Layer_1" xmlns="http://www.w3.org/2000/svg" xmlns:xlink="http://www.w3.org/1999/xlink" x="0px" y="0px"
	 viewBox="0 0 750 750" style="enable-background:new 0 0 750 750;" xml:space="preserve">
<g>
	<g>
		<path class="st0" d="M469.7,387.22c-0.78,0.98-2.12,2.56-2.56,3.73c-0.6,1.61-1.02,3.4-1.46,5.05c-0.19,0.73-0.73,1.28-0.88,1.94
			c-0.18,0.79,0.03,2.03,0.03,2.86c0,1.88-0.03,3.77,0,5.66c0.04,2.11,0.56,4.07,0.56,6.23c0,2.4,0,4.81,0,7.21
			c0,2.21,0.1,4.25-0.57,6.37c-0.34,1.1-0.91,2.11-1.28,3.22c-0.46,1.39-0.27,2.65-0.52,4.07c-0.28,1.56-0.88,2.99-1.02,4.56
			c-0.1,1.08-0.36,1.07-1,1.81c-0.72,0.83-1.03,1.84-1.81,2.69c-1.1,1.2-1.76,2.39-2.44,3.88c-0.66,1.45-1.53,2.92-2.23,4.47
			c-1.18,2.6-1.65,5.42-2.26,8.21c-1.09,4.96-3.26,8.95-5.86,13.16c-0.41,0.66-0.97,1.31-1.46,1.92c-0.89,1.12-1.44,1.99-2.12,3.27
			c-1.25,2.34-2.65,4.57-3.85,6.94c-2.23,4.4-3.97,9.05-5.78,13.55c-0.72,1.81-1.62,3.69-1.72,5.67c-0.11,2,0.25,4.08,0.04,6.07
			c-0.2,1.98-0.83,4.6-1.73,6.4c-0.9,1.81-1.71,2.91-1.69,5.06c0.01,2.06-0.24,3.68-0.59,5.67c-0.17,0.96-0.08,1.78,0.54,2.26
			c1.12,0.86,2.87,0.15,4.05,0.65c0.92,0.39,1.81,1.16,2.78,1.58c1.36,0.58,2.01,1.91,2.52,3.37c0.81,2.33,0.6,6.72,0.26,9.11
			c-0.36,2.54-1.75,5.01-1.66,7.56c0.05,1.25,0.39,2.12,1.09,3.2c1.31,2.03,3.31,0.9,5.19,0.57c1.82-0.32,3.24,0.08,5.01-0.6
			c2.22-0.85,3.49-0.75,5.69-0.56c0.64,0.05,2.25-0.41,2.73,0.07c0.58,0.57,0.09,4.21,0.2,4.95c0.48,3.2,1.2,6.32,1.46,9.56
			c0.17,2.18,0.17,4.55,0.72,6.66c0.22,0.84,0.68,1.18,1.1,1.88c0.67,1.11,1.03,2.4,1.88,3.41c2.5,2.98,6.07,5.27,8.91,7.94
			c2.6,2.44,4.89,5.31,7.29,7.95c2.4,2.64,4.95,5.22,7.27,7.93c5.43,6.31,11.09,12.28,17.54,17.59c1.88,1.55,3.87,2.84,6,4.04
			c2.43,1.36,5.06,1.93,7.5,3.2c2.21,1.15,4.3,2.92,6.35,4.35c2.75,1.91,5.36,4.23,7.91,6.4c2.07,1.76,4.66,2.84,7.11,3.98
			c3.24,1.5,7.77,3.06,11.4,4.64c-1.06-5.5-2.7-10.82-2.64-16.49c0.04-3.1-0.82-6.02-0.48-9.15c0.32-2.86,1.24-5.55,2.14-8.27
			c0.67-2.02,1.38-3.87,2.68-5.59c0.96-1.26,2.14-2.3,2.97-3.66c1.82-2.96,3.15-6.66,3.73-10.08c0.53-3.14,0.05-6.31,0.66-9.47
			c0.35-1.79,0.82-3.68,1.4-5.4c0.82-2.47,2.03-4.54,3.18-6.83c0.65-1.29,0.67-2.63,1.2-3.95c0.58-1.47,1.23-2.81,1.7-4.33
			c1.44-4.72,4.88-8.62,6.81-13.08c1.25-2.89,2.97-4.86,1.74-8.08c-1.49-3.91-2.37-8.4-1.78-12.65c0.11-0.77,0.29-0.96,0.61-1.73
			c0.34-0.82,0.39-1.37,0.66-2.22c0.57-1.82,1.92-3.05,3.41-4.11c0.71-0.51,1.44-0.96,2.2-1.4c1.84-1.07,2.42-1.8,3.47-3.68
			c1.76-3.16,4.31-5.74,5.95-9.02c1.65-3.3,3.09-6.51,5.25-9.52c2.24-3.12,3.21-6.68,4.52-10.24c0.91-2.47,1.81-4.34,1.69-7.01
			c-0.12-2.71-1.61-4.7-0.6-7.51c1.82-5.06,6.87-9.9,6.84-15.5c-0.01-2.6-0.63-5.29-1.02-7.86c-0.34-2.28-1.46-4.05-2-6.29
			c-0.56-2.3-0.99-4.89-0.99-7.25c0-1.79,0.55-3.58,1-5.31c0.84-3.22,2.71-5.9,3.55-9.05c0.37-1.4,0.88-3.01,1.09-4.49
			c-0.21-0.02-0.43-0.04-0.72-0.09c-0.49-0.08-0.84-0.41-1.3-0.58c-0.49-0.18-0.97-0.3-1.43-0.52c-0.03,0.11-0.43-0.15-0.46-0.04
			c-1.03-0.48-1.71-1.08-2.47-1.91c-0.52-0.57-0.37-0.63-1.22-0.75c-1.63-0.22-2.58,0.3-3.77-1.12c-0.8-0.96-1.25-0.69-2.44-1.05
			c-0.92-0.16-1.53-0.67-1.83-1.54c-0.12-0.8-0.45-1.49-0.97-2.1c-1.04-0.78-3-0.48-4.21-1c-1.19-0.52-2.75-1.44-3.75-2.3
			c-0.36-0.31-0.67-0.79-1.07-1.07c-1.66-1.16-3.44-0.22-5.25,0.31c-1.42,0.42-2.91,0.71-4.32,1.18c-2.87,0.97-4.71,3.76-7.24,5.34
			c-2.17,1.35-4.77,1.99-7.1,3c-1.17,0.5-2.12,1.52-3.36,1.8c-1.02,0.23-1.95,0.19-3.01,0.49c-1.13,0.32-2.18,0.83-3.13,1.52
			c-0.43,0.42-0.93,0.68-1.51,0.78c-0.7,0.07-1.78-0.39-2.5-0.45c-1.78-0.14-3.9-0.03-5.34-1.18c-1.98-1.58-4.62-2.35-5.63-4.82
			c-0.75-1.83-1.89-3.46-2.65-5.28c-0.45-1.08-0.33-2.15-1.1-3.07c-0.35-0.42-0.8-0.7-1.13-1.14c-1.61-2.14-2.38-4.8-3.32-7.26
			c-0.55-1.44-0.71-2.29-1.96-3.36c-0.9-0.76-1.89-1.51-2.89-2.15c-1.1-0.71-2.24-1.03-3.51-1.23c-0.97-0.15-2.18-0.15-3.08-0.6
			c-1.45-0.74-1.13-2.8-2.65-3.41c-1.6-0.64-4.5,0.96-5.99,1.48c-1.65,0.57-3.13,1.33-4.86,1.61c-1.52,0.25-3.08,0.71-4.63,0.59
			c-1.26-0.1-2.44-0.27-3.7-0.3c-1.93-0.05-3.76-0.75-5.66-1.07c-1.74-0.29-3.08-0.05-4.77-0.8c-2.38-1.06-3.87-3.01-5.92-4.51
			c-0.35-0.26-0.72-0.49-1.09-0.73c-0.32,0.97,0.2,0.34-0.73,1.52C472.51,384.94,470.83,385.8,469.7,387.22z"/>
		<path class="st0" d="M602.63,432.9c-0.45,1.73-1,3.52-1,5.31c0,2.36,0.43,4.95,0.99,7.25c0.54,2.24,1.66,4.01,2,6.29
			c0.38,2.57,1,5.26,1.02,7.86c0.03,5.6-5.02,10.44-6.84,15.5c-1.01,2.8,0.49,4.8,0.6,7.51c0.11,2.67-0.79,4.54-1.69,7.01
			c-1.31,3.56-2.28,7.12-4.52,10.24c-2.16,3-3.6,6.22-5.25,9.52c-1.64,3.28-4.19,5.86-5.95,9.02c-1.05,1.89-1.63,2.61-3.47,3.68
			c-0.75,0.44-1.48,0.89-2.2,1.4c-1.49,1.06-2.84,2.3-3.41,4.11c-0.27,0.84-0.32,1.4-0.66,2.22c-0.32,0.76-0.5,0.96-0.61,1.73
			c-0.59,4.25,0.29,8.74,1.78,12.65c1.23,3.23-0.49,5.19-1.74,8.08c-1.93,4.46-5.37,8.36-6.81,13.08c-0.46,1.52-1.12,2.86-1.7,4.33
			c-0.52,1.32-0.55,2.66-1.2,3.95c-1.15,2.29-2.36,4.35-3.18,6.83c-0.57,1.73-1.05,3.61-1.4,5.4c-0.62,3.16-0.13,6.32-0.66,9.47
			c-0.58,3.42-1.91,7.12-3.73,10.08c-0.83,1.36-2.01,2.4-2.97,3.66c-1.3,1.72-2.01,3.57-2.68,5.59c-0.9,2.72-1.82,5.41-2.14,8.27
			c-0.35,3.12,0.51,6.04,0.48,9.15c-0.07,5.67,1.58,10.99,2.64,16.49c0.68,0.3,1.34,0.59,1.95,0.89c-0.61-0.3-1.26-0.6-1.95-0.89
			c0.29,1.52,0.54,3.05,0.7,4.61c0.27,2.7,0.44,5.53,1.03,8.18c0.15,0.69,1.19,3.51-0.43,3.56c-1,0.03-1.36-1.73-1.79-2.22
			c-0.87-0.98-3.1-1.41-4.3-1.84c-1.07-0.38-2.11-0.57-3.12-1.1c-0.7-0.37-1.1-0.93-1.87-1.13c-1.82-0.46-4.49,0.1-6.22,0.67
			c-1.95,0.65-3.23,1.59-4.21,3.43c-0.42,0.78-0.55,1.24-0.87,1.43c0.25,1.1,0.53,2.49,0.78,3.49c0.22,0.9,0.89,2.21,0.72,3.13
			c-0.08,0.4-0.39,0.67-0.47,0.96c-0.16,0.57,0,1.01-0.09,1.57c-0.18,1.13-0.83,2.26-1.32,3.26c-0.96,1.98-1.55,4.22-1.54,6.63
			c0.01,2.17,0.01,4.34,0,6.5c0,0.5-0.14,1.25-0.03,1.73c0.12,0.51,0.5,0.56,0.62,1.07c0.28,1.15-0.03,2.79-0.03,3.99
			c0,2.07,0,4.15,0,6.22c0,2.31,0.35,4.99-0.13,7.22c-0.03,0.12-0.41,0.42-0.47,0.66c-0.12,0.48,0.03,1.23,0.03,1.73
			c0.01,0.98-0.3,2.49-0.03,3.42c0.32,1.07,1.44,1.28,2.29,1.79c0.54,0.32,1.19,0.77,1.69,1.13c0.79,0.58,1.38,1.62,2.26,2.04
			c2.53,1.2,5.31,1.31,7.76,2.91c2.69,1.76,4.74,3.6,6.52,6.23c0.9,1.34,1.92,2.44,3.09,3.47c0.65-1.48,1.84-3.63,2.43-4.6
			c1.48-2.44,4.31-4.02,7.07-3.96c3.65,0.07,6.22-2.19,9.2-4.1c1.49-0.96,2.93-2.18,4.66-2.7c1.65-0.5,3.2-0.52,5.07-0.55
			c1.56-0.02,2.99,0.78,4.53,1.27c1.83,0.58,3.09,1,5.09,0.99c1.56,0,3.25-0.17,4.78,0.05c2.04,0.3,3.93,1.01,5.96,0.1
			c0.93-0.42,1.79-1,2.7-1.44c0.67-0.32,1.06-0.26,1.82-0.38c2.81-0.46,4.02-2.56,5.68-4.55c-0.46-0.27-0.8-0.48-0.93-0.59
			c0.13,0.11,0.47,0.33,0.93,0.59c0.17-0.2,0.34-0.4,0.52-0.6c1.52-1.67,3.57-2.86,5.12-4.47c0.75-0.78,1.16-1.77,1.96-2.57
			c1.06-1.05,1.89-1.83,3.27-2.42c0.87-0.37,1.88-0.38,2.7-0.68c0.94-0.34,0.86-0.87,1.23-1.7c1.43-3.22,4.23-5.74,5.83-8.83
			c1.05-2.03,2.06-4.22,2.96-6.33c0.69-1.61,0.97-3.16,1.38-4.82c0.44-1.76,2.53-4.9,1.04-6.44c3.04-1.73,5.96-4.82,8.05-7.57
			c1.49-1.97,3.71-3.39,5.5-5.09c3.53-3.34,9.04-0.78,13.29-1.65c1.47-0.3,3.42-1.95,4.67-2.79c2.01-1.36,3.55-3.26,5.49-4.71
			c2.75-2.06,5.17-4.28,8.68-4.87c3.79-0.64,6.53-2.35,9.44-4.81c2.57-2.17,4.31-3.75,3.83-7.36c-0.49-3.65-1.4-7.42-1.31-11.1
			c0.06-2.79-2.08-7.42,0.56-9.51c1.59-1.26,3.36,0.08,4.84,0.43c1.09,0.26,2.6,0.38,3.71,0.32c2.25-0.11,3.68-1.49,5.58-2.52
			c3.88-2.09,6.02-5.17,8.1-8.96c1.25-2.28,2.65-4.65,3.68-7.05c1.15-2.69,0.42-4.25-0.44-6.95c-0.95-2.97-1.5-6.04-2.27-9.05
			c-0.75-2.91-1.85-5.47-3.06-8.2c-0.78-1.77-1.57-3.55-2.59-5.2c-0.92-1.5-1.82-2.61-2.28-4.35c-1.17-4.36-1.88-8.86-2.55-13.32
			c-0.56-3.74,0.39-8.89,2.88-11.87c1.16-1.39,2.86-2.33,4.1-3.65c0.82-0.88,1.42-1.88,2.38-2.6c2.08,2.06,3.41,4.42,4.6,7.23
			c0.77,1.83,1.59,3.86,3.75,4.39c1.76-2.48,1.8-6.38,2.24-9.29c0.37-2.48,1-4.67,1.84-7.03c0.78-2.21,1.21-4.79,2.23-6.88
			c1.16-2.38,3.68-4.73,5.55-6.58c1.37-1.36,2.68-2.77,4.17-4c1.31-1.09,1.46-1.86,2.06-3.39c0.13-0.33,0.24-0.62,0.32-0.88
			c-0.39-0.15-0.72-0.34-1.33-0.38c0.61,0.04,0.94,0.22,1.33,0.38c0.44-1.34,0.24-1.99-1.37-3.16c-1.62-1.18-3.75-2.53-5.57-3.35
			c-2.2-1-4.5-0.47-6.83-0.75c-1.86-0.23-3.63-0.64-5.38-1.31c-1.75-0.66-2.85-0.77-4.66-0.81c-3.47-0.09-6.42-3.08-9.01-5.05
			c-4-3.04-5.35-7.29-7.63-11.5c-1.19-2.19-2.47-4.21-3.34-6.56c-0.53-1.43-0.49-2.81-0.67-4.3c-0.32-2.75,0.53-4.93,1.55-7.18
			c-0.43,0.04-0.85,0.07-1.2,0.08c0.36-0.01,0.77-0.04,1.2-0.08c0.49-1.09,1.02-2.19,1.47-3.37c0.37-0.98,2.61-5,1.13-5.64
			c-0.5-0.22-1.7,0.04-2.28,0.04c-1.9,0-3.8,0-5.69,0.01c-4.29,0.03-7.83-1.35-11.71-2.95c-2.27-0.94-3.8-2.68-6.2-3.44
			c-1.47-0.46-3.07-0.61-4.59-0.84c-1.57-0.23-2.63-0.61-4.08-1.29c-2.83-1.32-5.16-2.5-7.05-5.09c-1.9-2.6-4.45-4.29-5.92-7.32
			c-1.4-2.88-3.21-7.87-4.46-11.2c-0.05,0.04-0.11,0.09-0.16,0.14c-0.75,0.7-1.53,1.47-2.16,2.27c-0.72,0.91-1.35,1.81-2.26,2.57
			c-0.77,0.64-1.57,1.13-2.26,1.86c-1.72,1.82-4.44,4.95-7.16,4.91c-1.53-0.02-2.86-0.17-4.33-0.36c-0.67-0.09-1.18-0.36-1.88-0.4
			c-0.69-0.03-1.39,0-2.07,0c-1.44,0-2.8,0.14-4.15-0.38c-1.2-0.46-2.28-0.81-3.32-1.6c-0.41-0.31-0.68-0.83-1.1-1.14
			c-0.38-0.28-0.82-0.42-1.23-0.65c-0.87-0.49-1.64-1.19-2.55-1.6c-1.23-0.56-1.79-1.5-2.45-2.72c-0.54-1.02-1.27-1.85-1.89-2.82
			c-0.44-0.69-0.7-0.78-1.41-1.14c-0.39-0.2-0.67-0.25-0.99-0.28c-0.21,1.48-0.72,3.09-1.09,4.49
			C605.34,426.99,603.47,429.68,602.63,432.9z"/>
		<path class="st0" d="M34.28,203.49c1.19-0.23,2.4-0.86,3.67-1.04c1.02-0.15,2.22,0.47,3.17,0.95c1.07,0.54,1.8,1.29,2.63,2.2
			c1.22,1.34,2.62,2.99,4.06,4.08c0.99,0.76,2.05,1.07,3.14,1.41c1.18,0.36,2.47,1.25,3.65,1.45c1.33,0.23,3.13-0.88,4.26-1.49
			c1.93-1.04,3.61-2.66,5.42-3.9c1.85-1.27,3.99-2.4,5.63-3.96c1.32-1.25,2.43-2.65,3.65-3.96c1.78-1.92,4.63-2.55,7.07-2.54
			c1.8,0.01,3.79,0.26,5.54-0.13c0.87-0.19,1.45-0.44,2.36-0.45c1.05-0.01,1.88,0.38,2.86,0.53c1.25,0.19,3.13,0.32,4.25-0.36
			c0.98-0.6,1.75-1.44,2.58-2.1c2.46-1.95,5.97-3.36,8.67-4.84c2.79-1.52,5.98-2.47,8.49-4.55c3.88-3.21,8.96-4.85,13.69-6.3
			c2.77-0.85,5.09-3.42,5.73-6.16c0.68-2.9-0.22-5.36-0.19-8.29c0.02-1.71-0.06-3.43-0.01-5.14c0.04-1.36,0.48-2.58,0.62-3.92
			c0.27-2.75-0.5-5.53,0.94-8.09c0.54-0.97,1.08-0.89,2.07-1.42c1.09-0.58,1.94-1.53,2.73-2.46c2.71-3.19,5.79-5.92,9.07-8.49
			c3.03-2.38,5.05-5.21,8.59-6.95c1.71-0.84,3.49-1.97,5.3-2.58c1.6-0.53,2.73-1.47,4.21-2.4c1.02-0.64,2.52-1.12,3.21-2.02
			c0.46-0.6,0.65-1.17,1.32-1.8c2.12-2,4.38-3.83,6.54-5.78c1.7-1.53,2.98-3.46,4.59-5.08c1.42-1.43,2.65-2.59,4.49-3.38
			c2.37-1.02,4.06-1.51,5.73-3.64c1.32-1.68,2.26-3.43,3.86-4.86c1.69-1.51,2.92-3.34,4.47-4.99c1.11-1.19,2.52-2.02,3.53-3.3
			c1.23-1.57,2.25-3.13,3.1-4.92c1.27-2.67,3.78-5.19,3.69-8.28c-0.03-1.16-0.6-1.86-1.03-2.92c-0.42-1.05-0.51-2.2-0.83-3.28
			c-0.51-1.7-1.33-3.25-2.06-4.86c-0.51-1.13-1.02-2.16-1.61-3.2c-0.2,0.07-0.4,0.13-0.62,0.17c-0.47,0.08-0.89,0.01-1.37,0.16
			c-0.46,0.14-0.82,0.4-1.31,0.51c-1.98,0.43-3.77-0.34-5.7-0.31c-1.32,0.02-2.64,0.01-3.97,0.01c-3.26,0-6.7,0.94-9.91,0.1
			c-2.39-0.62-4.78-0.71-7.24-0.13c-1.87,0.44-4.43,0.69-6.02,1.83c-0.66,0.47-1.36,1.06-1.97,1.65c-1.2,1.17-2.59,2.05-3.73,3.27
			c-1.29,1.38-3.39,1.58-4.84,2.87c-0.59,0.52-0.92,1.12-1.43,1.72c-2.1,2.47-6.26,1.87-9.16,1.88c-1.16,0.01-2.42,0.05-3.51-0.44
			c-1.35-0.62-2.02-1.86-2.91-2.97c-0.49-0.61-0.89-1.3-1.41-1.89c-0.19-0.22-0.64-0.46-0.77-0.71c-0.2-0.38-0.22-0.75-0.44-1.15
			c-1.04-1.86-1.54-3.44-1.51-5.62c0.02-1.19-0.36-2.25-0.39-3.43c-0.03-1.1,0.08-2,0.3-3.02c0.21-0.96,0.31-2.03,0.47-3.02
			c0.19-1.13,0.37-2.22,0.36-3.38c-0.01-1.03,0-2.05,0-3.08c0-0.86,0.08-1.74,0.02-2.59c-0.05-0.77-0.37-1.46-0.41-2.24
			c-0.12-2.6-0.86-5.38-1.78-7.83c-0.51-1.35-1.2-2.85-0.51-4.13c-0.72-0.44-1.14-0.8-2-0.87c-0.58-0.05-0.99-0.23-1.54-0.33
			c-1.18-0.22-2.4-0.23-3.58-0.44c-1.11-0.2-2.06-0.52-3.24-0.31c-1.35,0.23-2.54,0.74-3.93,0.72c-0.95-0.01-2.09,0.2-3.02,0.02
			c-0.48-0.09-0.83-0.35-1.32-0.41c-0.42-0.05-0.89,0.01-1.32,0.01c-0.9,0-1.96-0.16-2.83,0.03c-1.01,0.22-1.44,0.42-2.45,0.16
			c-0.84-0.22-1.73-0.07-2.65-0.18c-0.42-0.05-0.62-0.28-0.97-0.35c-0.4-0.09-0.8-0.03-1.2-0.12c-0.39-0.09-0.67-0.3-1.22-0.29
			c-0.43,0.01-0.9,0.04-1.32-0.03c-0.78-0.14-1.49-0.57-2.23-0.76c-0.8-0.2-1.66-0.65-2.49-1.01c-0.72-0.31-1.16-0.74-1.87-1.12
			c-0.78-0.42-1.78-0.71-2.65-0.87c-0.82-0.15-1.86,0.28-2.66,0.04c-0.88-0.27-2.18-1.92-2.81-2.64c-0.64-0.74-1.28-1.32-1.98-1.99
			c-0.43-0.4-0.96-0.69-1.4-1.06c-1.21,1.07-0.56,2.3-0.84,3.67c-0.15,0.74-0.96,1.76-1.21,2.61c-0.64,2.22-1.85,4.44-2.14,6.79
			c-0.27,2.18-0.39,4.06-1.01,6.17c-0.45,1.56-1.81,3.53-2.56,5.07c-1.71,3.49-4.27,6.63-7,9.54c-1.37,1.46-3.02,2.26-4.45,3.6
			c-1.47,1.38-2.27,2.74-3.37,4.26c-2.37,3.28-7.07,5.48-10.41,7.4c-1.72,0.99-3.59,1.34-5.5,2.1c-2.1,0.84-3.59,2.22-5.1,3.84
			c-1.58,1.69-2.93,3.41-4.46,5.13c-1.54,1.73-3.63,3.16-5.3,4.85c-1.1,1.11-2.71,2.04-3.62,3.35c-0.72,1.03-0.81,1.82-0.54,3.13
			c0.1,0.49,0.61,0.5,0.7,0.99c0.13,0.7-0.02,1.37,0.05,2.07c0.13,1.25,0.66,1.76,0.9,2.91c0.24,1.1-0.03,2.72-0.03,3.85
			c0,3.1-0.42,4.88-1.91,7.65c-2.6,4.85-7.52,7.11-9.33,12.51c-0.33,1-0.66,1.44-0.64,2.74c0.02,1.2,0.14,2.58-0.08,3.74
			c-0.09,0.49-0.62,0.5-0.7,0.99c-0.09,0.53,0.08,1.14-0.05,1.65c-0.27,1.09-0.81,2.23-1.27,3.36c-2.44,5.98-5.13,12.06-7.04,18.28
			c-1.45,4.72-1.71,9.2,2.12,12.91c1.87,1.81,4.96,1.85,7.37,2.31c4.21,0.81,3.78,4.27,2.85,7.64c-0.43,1.58-1.07,3.35-1.69,4.87
			c-0.55,1.33-2.13,2.82-1.36,4.3c0.52,0.99,1.49,0.86,2.37,1c1.66,0.27,3.53,0.42,5.15,0.82c1.21,0.3,2.1,0.74,3.35,0.87
			c1.34,0.14,2.49,0.14,3.43,1.34c2.29,2.9,1.08,6.61,0.38,9.77c-0.62,2.78-0.38,5.56-0.41,8.4c0,0.07,0,0.14,0.01,0.21
			C33.63,203.5,33.87,203.57,34.28,203.49z"/>
		<path class="st0" d="M393.59,264.81c-2.16,4.28-2.07,9.71-2.82,14.44c-0.47,3.02-2,6.06-2.97,8.97c-1,3.03-2.74,6.69-5.05,9
			c-1.4,1.4-3.42,2.42-4.99,3.64c-1.63,1.27-3.22,2.35-5.09,3.24c-2.85,1.37-5.51,3.05-8.08,4.89c-1.61,1.15-3.48,2.29-4.42,4.1
			c-1.32,2.57-1.61,4.97-4.13,6.73c-1.42,0.99-2.8,1.01-4.38,1.29c-1.67,0.3-2.86,1.35-4.33,2.14c-1.53,0.82-2.63,0.4-4.24,0.61
			c-1.23,0.16-1.89,0.83-2.93,1.47c-2.22,1.37-5.31,1.65-7.79,2.61c-5.21,2.04-10.98,4.87-16.58,5.49
			c-2.44,0.27-3.93,0.95-6.08,2.31c-1.57,1-2.89,2.38-4.49,3.32c-4.4,2.57-9.31,4.11-13.42,7.16c-4.55,3.37-9.31,4.78-14.68,6.22
			c-5.33,1.43-8.49,4.83-10.45,9.93c-1.69,4.41-3.6,8.87-5.95,12.98c-2.24,3.92-4.97,8.97-9.76,10.04c-1.7,0.38-2.72,0.6-4,1.9
			c-1.51,1.53-2.7,3.45-3.75,5.32c-1.93,3.42-2.84,7.07-3.31,10.96c-0.61,5.05-1.33,10.06-0.84,15.13c0.34,3.6,0.88,7.14,0.76,10.77
			c-0.12,3.49-2.1,8.97-4.67,11.41c-1.49,1.41-4.96,2.99-3.76,5.72c0.77,1.77,3.41,2.32,4.96,3.07c2.71,1.32,5.69,3.58,7.89,5.68
			c2.23,2.13,4.3,4.72,7.54,5.32c2.32,0.43,5.59-0.78,7.51,0.87c2.19,1.89,4.34,4.6,5.88,7.02c1.1,1.73,1.37,3.78,2.1,5.67
			c0.89,2.3,2.1,4.88,3.65,6.84c1.83,2.32,4.28,4.12,6.13,6.45c2.04,2.56,4.07,5.8,4.58,9.08c0.46,3.01,0.55,6.03,1.11,9.03
			c0.69,3.63,1.35,7.26,1.7,10.93c0.37,3.79,1.35,7.48,1.77,11.25c0.26,2.39,0.63,4.53,0.45,6.95c-0.18,2.5-0.57,4.91-0.52,7.42
			c0.04,2.11-0.22,4.05-0.57,6.14c-0.46,2.79-0.4,5.54-0.69,8.34c-0.39,3.81-1.05,7.72-1.71,11.49c-0.21,1.21-0.32,2.42-0.37,3.62
			c2.74,1.57,3.92,2.92,6.3,5.3c0.56,0.56,1.1,1.18,1.7,1.69c0.8,0.69,1.6,0.94,2.54,1.41c0.75,0.37,1.49,0.76,2.26,1.13
			c1.12,0.54,2.08,0.69,3.27,0.97c1.98,0.47,3.58,1.01,5.35,2.28c1.74,1.25,3.28,2.54,5.08,3.65c1.98,1.22,3.94,2.79,6.23,3.57
			c0.67,0.23,1.04,0.3,1.66,0.66c1.02,0.59,1.82,0.86,2.93,1.3c1.13,0.45,2.7,1.57,3.62,2.39c1.45,1.29,2.9,2.77,4.21,4.19
			c0.82,0.89,1.15,1.84,1.78,2.84c0.61,0.98,1.49,1.78,2.21,2.67c1.62,1.99,4.14,3.12,6.22,4.72c1.94,1.5,4.79,3.87,7.35,3.99
			c3.41,0.16,6.39,0.92,9.63,2.12c3.28,1.22,7.06,1.17,9.85,3.3c2.41,1.83,6.03,1.16,7.78,3.59c0.98,1.36,1.55,3.25,2.69,4.45
			c1.2,1.26,3.14,1.95,4.63,2.87c2.04,1.25,3.21,2.98,5.45,3.89c1.76,0.71,3.5,1.44,5.28,2.1c1.2,0.45,2.45,0.8,3.67,1.21
			c0.26-0.28,0.53-0.55,0.78-0.8c1.16-1.17,2.35-1.88,3.82-2.53c0.86-0.38,1.51-0.18,2.43-0.4c0.51-0.12,0.56-0.5,1.07-0.62
			c0.49-0.12,1.22,0.03,1.73,0.03c1.11-0.01,1.78,0.41,2.83,0.59c1.01,0.18,2.36-0.01,3.39-0.03c1.82-0.02,3.47,0.65,5.06,1.14
			c1.1,0.34,2.32,0.42,3.42,0.94c1.04,0.5,1.82,1.37,2.77,1.99c0.53,0.35,1.09,0.53,1.63,0.85c0.87,0.52,1.05,0.82,1.78,1.54
			c1.28,1.28,2.9,2.29,4.04,3.72c0.74,0.93,0.92,1.43,2.22,1c0.59-0.2,1.02-0.76,1.68-0.79c0.87-0.04,1.86,0.79,2.56,1.19
			c1.9,1.08,3.97,1.91,5.89,2.53c2.37,0.76,5.32,0.28,7.41,1.67c1.35,0.91,2.18,2.69,3.12,3.96c0.82,1.1,1.63,1.95,2.51,2.98
			c0.48,0.56,0.68,1.12,1.24,1.62c0.87,0.77,2.17,1.2,3.15,1.8c0.9,0.56,2.18,1.1,3.04,1.71c0.47,0.33,0.45,0.8,1.02,1.02
			c0.99,0.38,3.05-0.03,4.17-0.04c1.44-0.01,2.66,0.18,4.04,0.63c1.24,0.4,1.02,0.58,2.26-0.06c1.42-0.73,2.57-1.31,3.31-2.84
			c0.3-0.62,0.13-2.34,0.49-2.74c0.59-0.66,4.01-0.08,4.86-0.08c4.03-0.02,7.8,1.19,11.32,3.38c3.26,2.02,6.11,4.5,9.14,6.8
			c1.43,1.08,2.34,1.78,4.04,1.31c2.93-0.81,6.55-0.93,9.15-2.52c1.72-1.06,3.48-3.44,5.48-3.91c1.7-0.4,3.1,0.74,4.6,1.07
			c0.69,0.15,1.05,0.15,1.29,0c-0.04-0.16-0.07-0.31-0.11-0.45c0.04,0.14,0.07,0.29,0.11,0.45c0.32-0.19,0.45-0.65,0.87-1.43
			c0.99-1.84,2.26-2.78,4.21-3.43c1.72-0.57,4.4-1.13,6.22-0.67c0.77,0.2,1.18,0.76,1.87,1.13c1.01,0.53,2.05,0.71,3.12,1.1
			c1.2,0.43,3.43,0.86,4.3,1.84c0.43,0.48,0.79,2.25,1.79,2.22c1.62-0.05,0.58-2.87,0.43-3.56c-0.59-2.65-0.76-5.48-1.03-8.18
			c-0.15-1.56-0.4-3.09-0.7-4.61c-3.63-1.58-8.16-3.14-11.4-4.64c-2.45-1.14-5.04-2.21-7.11-3.98c-2.55-2.17-5.17-4.49-7.91-6.4
			c-2.05-1.42-4.14-3.2-6.35-4.35c-2.44-1.27-5.07-1.84-7.5-3.2c-2.13-1.19-4.12-2.49-6-4.04c-6.45-5.31-12.11-11.28-17.54-17.59
			c-2.33-2.7-4.88-5.28-7.27-7.93c-2.4-2.64-4.69-5.51-7.29-7.95c-2.84-2.67-6.41-4.95-8.91-7.94c-0.84-1.01-1.21-2.3-1.88-3.41
			c-0.42-0.7-0.88-1.05-1.1-1.88c-0.55-2.11-0.55-4.48-0.72-6.66c-0.25-3.24-0.97-6.36-1.46-9.56c-0.11-0.74,0.38-4.38-0.2-4.95
			c-0.48-0.48-2.09-0.02-2.73-0.07c-2.2-0.18-3.48-0.29-5.69,0.56c-1.77,0.68-3.19,0.28-5.01,0.6c-1.88,0.33-3.87,1.45-5.19-0.57
			c-0.7-1.08-1.04-1.94-1.09-3.2c-0.09-2.55,1.3-5.02,1.66-7.56c0.34-2.4,0.56-6.79-0.26-9.11c-0.51-1.46-1.16-2.79-2.52-3.37
			c-0.97-0.41-1.86-1.19-2.78-1.58c-1.18-0.5-2.94,0.21-4.05-0.65c-0.62-0.48-0.72-1.3-0.54-2.26c0.36-1.99,0.61-3.61,0.59-5.67
			c-0.01-2.15,0.79-3.25,1.69-5.06c0.9-1.8,1.52-4.42,1.73-6.4c0.2-1.99-0.15-4.06-0.04-6.07c0.11-1.97,1-3.86,1.72-5.67
			c1.81-4.51,3.56-9.16,5.78-13.55c1.2-2.38,2.6-4.61,3.85-6.94c0.68-1.27,1.23-2.15,2.12-3.27c0.49-0.61,1.04-1.26,1.46-1.92
			c2.61-4.21,4.78-8.2,5.86-13.16c0.61-2.79,1.09-5.62,2.26-8.21c0.7-1.55,1.57-3.01,2.23-4.47c0.68-1.49,1.34-2.68,2.44-3.88
			c0.78-0.85,1.08-1.86,1.81-2.69c0.65-0.74,0.91-0.73,1-1.81c0.14-1.57,0.74-3,1.02-4.56c0.26-1.42,0.06-2.68,0.52-4.07
			c0.37-1.11,0.94-2.12,1.28-3.22c0.67-2.13,0.57-4.16,0.57-6.37c0-2.4,0-4.81,0-7.21c0-2.16-0.53-4.12-0.56-6.23
			c-0.03-1.88,0-3.77,0-5.66c0-0.83-0.21-2.06-0.03-2.86c0.15-0.67,0.69-1.22,0.88-1.94c0.43-1.65,0.86-3.44,1.46-5.05
			c0.44-1.17,1.78-2.75,2.56-3.73c1.13-1.42,2.81-2.28,3.9-3.67c0.92-1.18,0.41-0.55,0.73-1.52c-0.81-0.51-1.65-0.97-2.45-1.49
			c-1.02-0.65-1.71-1.4-2.56-2.24c-1.25-1.24-2.72-2.08-4.11-3.13c-1.46-1.1-2.89-2.28-4.33-3.41c-1.35-1.06-2.65-2.36-4.28-3
			c-0.93-0.36-2.32-0.18-3.13-0.81c-0.7-0.55-0.86-1.32-1.63-1.85c-0.67-0.46-1.17-1.06-1.86-1.5c-1.97-1.27-3.99-2.48-5.97-3.74
			c-1.36-0.87-2.37-2.01-3.62-3.03c-1.53-1.24-3.2-2.26-4.94-3.16c-1.02-0.53-1.88-1.22-2.87-1.78c-0.54-0.31-1.41-0.43-1.9-0.79
			c-1.33-0.98-1.18-3.98-1.56-5.52c-0.24-0.99-0.63-1.78-0.68-2.8c-0.04-0.87,0.02-1.77,0.03-2.64c0.01-1.3-0.4-2.43-0.38-3.69
			c0.05-3.06-0.06-6.1,0.1-9.16c0.13-2.41-0.14-4.79-0.1-7.2c0.03-2.2-0.58-4.06-1.05-6.19c-0.26-1.19-0.77-3.02-1.57-3.93
			c-1.11-1.25-3.44-1.65-4.84-2.51c-1.55-0.95-3.03-2.34-4.88-2.67c-0.93-0.16-1.26,0.05-1.99-0.71c-0.42-0.43-0.87-1.1-1.14-1.63
			c-0.18-0.36-0.26-0.83-0.45-1.16c-0.18-0.32-0.64-0.64-0.7-1c-0.1-0.58,0.45-1.79,0.87-2.2c0.29-0.28,0.73-0.29,1.05-0.51
			c0.6-0.41,0.85-1.06,1.51-1.47c1.87-1.16,3.54-1.74,4.25-4.02c0.49-1.59,0.57-4.17,0.01-5.76c-0.49-1.38-1.29-2.16-2.67-2.55
			c-0.48-0.14-1.09-0.26-1.5-0.55c-0.72-0.49-1.55-0.87-2.26-1.41c-0.57-0.42-0.98-0.99-1.55-1.42c-0.76-0.59-1.63-0.98-2.35-1.63
			c-0.96-0.86-1.44-1.85-1.93-2.99c-0.54-1.24-1.05-2.33-1.71-3.49c-0.49-0.85-0.98-1.71-1.51-2.57c-0.53-0.86-1.19-1.27-1.88-1.95
			c-1.18-1.16-1.76-3.15-2.63-4.52c-0.36-0.57-0.56-1.25-0.92-1.8c-0.52-0.79-1.23-1.58-1.77-2.3c-0.09,0.11-0.19,0.24-0.32,0.39
			C395.05,261.86,394.35,263.3,393.59,264.81z"/>
		<path class="st0" d="M169.13,326.17c0.09-0.89,0.22-1.18,0.42-1.96c0.22-0.87-0.08-1.74,0.1-2.57c0.32-1.53,0.92-2.99,1.19-4.53
			c0.24-1.35-0.15-2.69,0.25-3.96c0.43-1.36,1.28-2.7,1.97-3.93c0.72-1.28,1.35-3.02,2.28-4.23c1.18-1.53,3.1-2.46,4.55-3.72
			c3.81-3.3,6.66-7.79,9.45-11.89c2.26-3.31,4.54-6.68,6.5-10.16c1.64-2.91,1.77-6.18,3.1-9.19c1.96-4.44,5.23-8.11,7.99-12
			c1.17-1.65,2.37-3.28,3.6-4.85c0.51-0.65,0.97-0.94,1.41-1.68c0.52-0.87,0.48-0.91,0.76-1.91c0.16-0.55,0.62-1.11,0.8-1.74
			c0.19-0.69,0.09-1.35,0.25-2.01c0.15-0.65,0.53-0.92,0.61-1.65c0.09-0.82-0.01-1.73-0.01-2.56c0-0.67-0.16-1.63-0.02-2.28
			c0.12-0.58,0.45-0.82,0.6-1.36c0.22-0.76-0.18-1.82,1.13-1.8c0.35,0.01,0.44,0.45,0.67,0.51c0.45,0.12,0.81,0.1,1.28,0.13
			c0.76,0.04,1.65,0.12,2.4-0.1c1.04-0.3,1.79-1.31,3-1.09c0.91,0.17,1.34,1.01,2.24,1.22c0.98,0.24,2.28-0.15,3.14-0.58
			c1.76-0.89,2.93-2.64,4.68-3.59c0.41-0.22,0.95-0.66,1.38-0.82c0.33-0.12,0.46-0.37,0.84-0.47c0.08-0.02,0.55,0.37,0.7,0.38
			c2.38,0.05,4.46-0.81,6.92-0.23c1.28,0.3,1.68,0.76,2.65,1.44c2.93,2.06,6.26,2.2,9.65,2.83c1.76,0.32,3.39,1.08,5.12,1.47
			c1.66,0.38,3.37-0.23,5.01,0.06c1.22,0.21,1.3,0.79,1.74,1.74c0.64,1.36,1.43,1.58,3.04,1.86c2.26,0.39,4.38,0.23,6.64,0.37
			c1.4,0.08,2.53,0.69,3.96,0.64c2.99-0.1,6.01-0.81,8.99-0.65c1.64,0.08,1.57,1.01,2.84,1.77c1.55,0.93,4.77,0.05,5.96,1.43
			c0.27,0.31,0.06,0.79,0.27,1.04c0.44,0.53,0.94,0.64,1.73,0.66c1.69,0.04,4.34-1.47,5.89-0.9c1.02,0.38,0.8,1.06,2.04,1.18
			c2.27,0.22,4.54-2.44,6.11-3.66c1.15-0.9,1.6-1.56,2.42-2.63c1.66-2.15,5.13-1.56,7.35-2.77c4.87-2.65,10.21-5.79,12.33-11.12
			c0.73-1.84,0.56-3.78,1.06-5.65c0.26-0.98,0.42-3.58,1.13-4.84c-0.58-0.38-1.12-0.71-1.67-1.44c-0.6-0.81-1-1.09-1.84-1.63
			c-1.09-0.7-1.23-1.76-2.12-2.63c-0.75-0.53-1.55-0.98-2.39-1.34c-0.8-0.75-1.64-1.43-2.53-2.06c-1.12-0.65-2.22-0.76-3.36-1.22
			c-0.68-0.27-1.69-0.57-2.03-1.2c0.04-1.19,0.22-2.36,0.54-3.5c0.1-0.56,0.19-1.12,0.29-1.67c0.39-1.85,1.97-2.85,2.49-4.59
			c0.69-2.31-0.69-4.8-0.25-7.1c0.35-1.86,1.33-4.12,1.11-6c-0.16-1.3-2.33-2.99-3.47-3.36c-0.77-0.25-1.69-0.1-2.51-0.31
			c-0.74-0.19-1.43-0.42-2.07-0.83c-2.18-1.36-2.64-3.65-4.46-5.32c-1.83-1.68-3.84-2.79-5.11-5.03c-0.75-1.33-0.87-1.9-2.3-2.52
			c-1.16-0.5-1.55-1-2.46-1.81c-0.75-0.66-1.69-0.74-2.52-1.29c-2.33-1.54-3.65-4.45-5.48-6.47c-1.29-1.43-0.33-4.05-0.11-5.8
			c0.32-2.58,1.47-4.87,1.46-7.48c0-3.05-0.82-5.41-2.3-8.04c-0.46-0.85-0.89-1.71-1.29-2.58c-0.54-0.77-1.2-1.43-1.98-1.97
			c-0.51-0.53-0.63-0.89-0.86-1.53c-0.45-1.23-0.79-2.61-2.25-2.98c-1.08-0.27-2.02,0.16-3.09-0.35c-0.78-0.37-0.95-0.69-1.84-0.8
			c-0.85-0.11-1.84,0.06-2.71,0.05c-2.99-0.04-6-0.55-8.94-1.05c-1.56-0.27-2.69-1.34-4.22-1.57c-1.03-0.15-2.21-0.05-3.22-0.04
			c-0.69,0.01-2.23,0.25-2.93,0.03c-0.73-0.23-0.47-0.12-0.68-0.85c-0.73-2.43-2.26-4.41-4.38-5.83c-2.28-1.53-3.96-2.83-5.42-5.19
			c-0.81-1.31-1.82-2.61-2.49-4c-0.55-1.15-0.83-2.27-1.54-3.36c-1.46-2.26-2.61-4.28-3.16-6.95c-0.29-1.42-0.57-3.36-1.36-4.43
			c-0.57-0.77-1-1.6-1.49-2.43c-0.83-1.42-1.87-2.73-2.65-4.17c-0.41-0.75-0.85-1.58-1.2-2.36c-0.4-0.91-0.25-1.76-0.43-2.7
			c-0.2-1.04-0.59-2.01-0.77-3.08c-0.58-3.44-0.44-7-0.93-10.47c-0.15-1.03-0.55-1.6-0.79-2.54c-0.17-0.68-0.07-1.4-0.06-2.1
			c0.02-1.35-0.16-2.61-0.31-3.95c-0.15-1.29,0.01-2.27,0.22-3.52c0.32-1.95,0.03-3.4-2.03-4.06c-1.81-0.58-3.85,0.61-5.63,0.26
			c-0.49-0.1-0.56-0.32-1.19-0.31c-0.74,0.01-1.24,0.23-2.01,0.13c-1.25-0.17-1.92-0.66-2.99-1.25c-1.71-0.94-4.44-1.95-5.57,0
			c-0.22,0.37-0.61,0.75-0.78,1.13c-0.19,0.43-0.18,0.98-0.35,1.43c-0.28,0.76-0.66,1.5-0.95,2.26c-0.45,1.17-1.16,2.52-2.06,3.38
			c-0.96,0.91-1.64,1.75-2.37,2.83c-0.63,0.93-1.3,1.65-2.3,2.01c0.58,1.04,1.1,2.07,1.61,3.2c0.72,1.61,1.55,3.15,2.06,4.86
			c0.32,1.08,0.41,2.23,0.83,3.28c0.43,1.06,0.99,1.76,1.03,2.92c0.09,3.09-2.43,5.62-3.69,8.28c-0.85,1.79-1.87,3.35-3.1,4.92
			c-1.01,1.29-2.42,2.12-3.53,3.3c-1.55,1.65-2.77,3.48-4.47,4.99c-1.6,1.43-2.55,3.19-3.86,4.86c-1.67,2.12-3.35,2.61-5.73,3.64
			c-1.84,0.79-3.07,1.95-4.49,3.38c-1.61,1.62-2.9,3.56-4.59,5.08c-2.16,1.94-4.42,3.78-6.54,5.78c-0.67,0.63-0.86,1.19-1.32,1.8
			c-0.69,0.9-2.19,1.38-3.21,2.02c-1.48,0.93-2.6,1.87-4.21,2.4c-1.82,0.6-3.6,1.74-5.3,2.58c-3.54,1.74-5.56,4.57-8.59,6.95
			c-3.28,2.57-6.36,5.3-9.07,8.49c-0.79,0.93-1.64,1.88-2.73,2.46c-0.99,0.53-1.53,0.45-2.07,1.42c-1.44,2.57-0.66,5.34-0.94,8.09
			c-0.13,1.34-0.57,2.56-0.62,3.92c-0.05,1.71,0.03,3.43,0.01,5.14c-0.03,2.92,0.87,5.38,0.19,8.29c-0.64,2.74-2.97,5.31-5.73,6.16
			c-4.73,1.45-9.81,3.09-13.69,6.3c-2.51,2.08-5.71,3.02-8.49,4.55c-2.7,1.47-6.21,2.88-8.67,4.84c-0.83,0.66-1.6,1.5-2.58,2.1
			c-1.12,0.68-2.99,0.55-4.25,0.36c-0.99-0.15-1.81-0.54-2.86-0.53c-0.91,0.01-1.5,0.26-2.36,0.45c-1.75,0.38-3.74,0.13-5.54,0.13
			c-2.44-0.01-5.28,0.62-7.07,2.54c-1.22,1.31-2.33,2.72-3.65,3.96c-1.65,1.56-3.78,2.69-5.63,3.96c-1.81,1.24-3.49,2.86-5.42,3.9
			c-1.13,0.61-2.93,1.72-4.26,1.49c-1.18-0.2-2.47-1.08-3.65-1.45c-1.08-0.33-2.15-0.65-3.14-1.41c-1.43-1.1-2.84-2.74-4.06-4.08
			c-0.83-0.91-1.56-1.66-2.63-2.2c-0.94-0.48-2.14-1.1-3.17-0.95c-1.27,0.18-2.48,0.82-3.67,1.04c-0.41,0.08-0.65,0.01-0.86-0.1
			c0.05,2.96,1.91,5.43,4.28,7.26c2.26,1.75,3.94,3.26,4.86,6.13c0.51,1.59,1.3,2.73,1.92,4.29c1,2.52,0.63,3.63,0.16,6.06
			c-0.35,1.81,0.07,3.62-0.26,5.41c-0.32,1.71-1.21,2.54-0.4,4.2c1.14,2.36,4.89,3.78,6.83,5.44c2.84,2.43,4.7,6.37,7.85,8.58
			c4.57,3.2,9.36,6.24,14.05,9.3c1.26,0.82,2.61,1.92,4.09,2.34c2.44,0.68,4.95,0.2,7.47,1.01c3.18,1.02,6.24,2.3,7.23,5.55
			c0.57,1.86,1.27,3.55,1.33,5.52c0.06,1.91-0.19,2.21,0.76,3.73c2.41,3.88,5.86,4.78,9.85,6.43c2.62,1.08,5.44,1.35,8.02,2.63
			c3.05,1.5,5.62,3.87,8.33,5.89c3.58,2.67,7.81,5.37,12.16,6.51c3.26,0.86,6.67,0.96,9.92,1.87c2.95,0.82,5.56,2.23,8.53,3.01
			c5.97,1.55,9.77,7.47,12.3,12.69c1.95,4,1.75,8.64,6.51,9.76C169.14,326.84,169.08,326.64,169.13,326.17z"/>
		<path class="st0" d="M178.16,471.47c1.6,0,3.2,0.02,4.81,0c1.73-0.02,2.99,0.54,4.5,1.2c1.72,0.74,3.53,0.49,5.39,0.5
			c1.99,0,2.88,0.21,4.51,1.27c1.2,0.79,1.85,1.22,2.42,2.55c0.66,1.55,0.43,3.45,0.43,5.24c0,1.81,0.14,3.61-0.28,5.36
			c-0.26,1.09-0.17,2.02-0.27,3.11c-0.11,1.22-0.57,2.27-1.02,3.43c-1.25,3.22-0.63,6.31,0.58,9.57c0.81,2.18,1.81,4.5,3.02,6.45
			c1.1,1.77,2.71,3.19,3.92,4.83c1.24,1.68,2.48,4.21,2.97,6.21c0.3,1.22,0.6,2.71,0.71,3.96c0.13,1.52,0.53,2.92,0.56,4.43
			c0.02,0.97-0.02,1.95-0.01,2.93c0.01,1.36-0.36,2.27-0.59,3.53c-0.1,0.54,0.12,1.2,0.06,1.74c-0.07,0.67-0.44,1.2-0.55,1.84
			c-0.17,1.04-0.16,1.55-0.54,2.42c0.45,0.23,1.69-0.24,2.16-0.43c0.23-0.68,0.43-1.36,0.55-2.01c-0.12,0.65-0.32,1.33-0.55,2.01
			c0,0,0,0,0.01,0c2.05-0.83,3.59-1.72,5.94-1.75c1.6-0.02,3.21,0.03,4.81,0.02c1.9-0.01,2.63,0.24,4.2,0.99
			c1.58,0.77,3.48,0.3,4.92,1.23c1.24,0.81,1.44,2.13,2.14,3.28c1.19,1.96,3.4,2.35,5.12,3.61c1.57,1.16,2.75,2.49,4.44,3.52
			c1.12,0.69,2.29,1.25,3.48,1.8c3.35,1.54,7.15,3.49,9.93,5.94c2.09,1.84,3.22,3.65,6.1,4.37c2.04,0.51,2.81,1.38,4.49,2.42
			c1.75,1.08,4.21,1.09,6.15,1.53c1.86,0.42,3.36,0.91,5.03,1.82c1.99,1.08,4.74,2.47,5.1,4.91c0-1.2,0-2.38,0.06-3.56
			c-0.41-0.24-0.86-0.48-1.35-0.73c0.49,0.25,0.94,0.49,1.35,0.73c0.05-1.2,0.16-2.4,0.37-3.62c0.66-3.77,1.32-7.67,1.71-11.49
			c0.29-2.8,0.23-5.55,0.69-8.34c0.34-2.09,0.6-4.03,0.57-6.14c-0.04-2.51,0.34-4.92,0.52-7.42c0.18-2.42-0.18-4.56-0.45-6.95
			c-0.42-3.77-1.4-7.46-1.77-11.25c-0.36-3.67-1.02-7.3-1.7-10.93c-0.57-3-0.65-6.02-1.11-9.03c-0.51-3.28-2.54-6.52-4.58-9.08
			c-1.85-2.33-4.3-4.13-6.13-6.45c-1.55-1.96-2.76-4.54-3.65-6.84c-0.73-1.89-1-3.94-2.1-5.67c-1.54-2.42-3.7-5.13-5.88-7.02
			c-1.92-1.66-5.19-0.45-7.51-0.87c-3.24-0.6-5.32-3.19-7.54-5.32c-2.2-2.1-5.18-4.36-7.89-5.68c-1.54-0.75-4.18-1.3-4.96-3.07
			c-1.19-2.73,2.27-4.31,3.76-5.72c2.58-2.44,4.55-7.92,4.67-11.41c0.12-3.63-0.41-7.17-0.76-10.77
			c-0.48-5.07,0.24-10.07,0.84-15.13c0.47-3.89,1.38-7.54,3.31-10.96c1.05-1.87,2.24-3.78,3.75-5.32c1.28-1.3,2.3-1.52,4-1.9
			c4.8-1.07,7.52-6.12,9.76-10.04c2.35-4.11,4.26-8.57,5.95-12.98c1.96-5.1,5.12-8.5,10.45-9.93c5.37-1.44,10.13-2.84,14.68-6.22
			c4.11-3.05,9.03-4.59,13.42-7.16c1.6-0.94,2.92-2.32,4.49-3.32c2.15-1.36,3.64-2.04,6.08-2.31c5.6-0.62,11.37-3.46,16.58-5.49
			c2.47-0.97,5.57-1.24,7.79-2.61c1.04-0.64,1.7-1.31,2.93-1.47c1.61-0.2,2.71,0.22,4.24-0.61c1.46-0.79,2.65-1.84,4.33-2.14
			c1.58-0.28,2.96-0.3,4.38-1.29c2.52-1.76,2.81-4.16,4.13-6.73c0.93-1.81,2.8-2.95,4.42-4.1c2.57-1.84,5.23-3.52,8.08-4.89
			c1.86-0.9,3.46-1.98,5.09-3.24c1.57-1.22,3.58-2.24,4.99-3.64c2.31-2.31,4.04-5.96,5.05-9c0.96-2.91,2.49-5.95,2.97-8.97
			c0.74-4.72,0.66-10.16,2.82-14.44c0.76-1.51,1.46-2.95,2.55-4.26c0.13-0.16,0.23-0.28,0.32-0.39c-0.01-0.02-0.03-0.04-0.04-0.06
			c-1.21-1.64-1.89-3.33-2.65-5.19c-0.44-1.09-1-2.28-1.13-3.38c-0.32-2.69-0.77-5.27-1.78-7.64c-0.31-0.73-0.61-1.43-0.95-2.17
			c-0.21-0.46-0.18-0.68-0.27-1.14c-0.05-0.28-0.25-0.63-0.29-0.83c-0.15-0.7-0.07-1.45-0.08-2.18c-0.01-0.79,0.27-1.14,0.4-1.88
			c0.14-0.83,0.07-1.49,0.35-2.25c0.3-0.82,0.39-1.39,0.39-2.27c0-0.77,0.07-1.34-0.27-1.99c-0.2-0.37-0.55-0.73-0.75-1.11
			c-0.41-0.78-0.89-1.39-1.23-2.2c-0.26-0.6-0.48-1.27-0.76-1.88c-0.29-0.64-0.32-1.07-0.46-1.78c-0.07-0.39-0.49-1.01-0.59-1.54
			c-1.6,0.27-3.07-0.12-4.41-1.21c-0.93-1.07-1.86-2.15-2.79-3.22c-1.24-2.17-2.36-4.41-3.36-6.7c-0.14-0.51-0.28-1.01-0.42-1.52
			c-0.1-1.13,1.07-2.41,0.67-3.48c-1.14,0.81-2.33,0.63-3.69,0.72c-2.71,0.18-5.33,0.25-8.06,0.27c-2.91,0.02-5.91,0.08-8.69,1.07
			c-1.1,0.4-2.03,0.78-2.72,1.85c-1.29,1.99-0.53,4.3-2.19,6.16c-0.88,0.99-2.13,2.47-3.36,3.06c-1.1,0.53-2.26,0.63-3.24,1.43
			c-0.49,0.4-1.4,1.99-2.26,1.42c-1.09-0.72-0.54-3.04-1.6-3.98c-0.34-0.3-0.66-0.51-0.97-0.71c-0.71,1.26-0.87,3.86-1.13,4.84
			c-0.5,1.87-0.33,3.81-1.06,5.65c-2.12,5.33-7.46,8.47-12.33,11.12c-2.22,1.21-5.69,0.62-7.35,2.77c-0.83,1.07-1.27,1.74-2.42,2.63
			c-1.57,1.22-3.84,3.88-6.11,3.66c-1.24-0.12-1.01-0.8-2.04-1.18c-1.56-0.58-4.21,0.94-5.89,0.9c-0.78-0.02-1.28-0.14-1.73-0.66
			c-0.21-0.25,0-0.73-0.27-1.04c-1.18-1.38-4.41-0.5-5.96-1.43c-1.27-0.77-1.2-1.69-2.84-1.77c-2.99-0.15-6.01,0.56-8.99,0.65
			c-1.43,0.05-2.56-0.56-3.96-0.64c-2.26-0.13-4.38,0.02-6.64-0.37c-1.61-0.28-2.4-0.5-3.04-1.86c-0.44-0.95-0.52-1.52-1.74-1.74
			c-1.64-0.28-3.36,0.32-5.01-0.06c-1.73-0.39-3.36-1.15-5.12-1.47c-3.39-0.62-6.72-0.76-9.65-2.83c-0.97-0.68-1.36-1.14-2.65-1.44
			c-2.46-0.58-4.54,0.28-6.92,0.23c-0.15,0-0.62-0.4-0.7-0.38c-0.38,0.11-0.51,0.35-0.84,0.47c-0.43,0.16-0.97,0.6-1.38,0.82
			c-1.75,0.94-2.92,2.69-4.68,3.59c-0.86,0.43-2.16,0.82-3.14,0.58c-0.9-0.22-1.33-1.05-2.24-1.22c-1.2-0.23-1.95,0.79-3,1.09
			c-0.75,0.22-1.64,0.14-2.4,0.1c-0.47-0.03-0.83-0.01-1.28-0.13c-0.23-0.06-0.32-0.51-0.67-0.51c-1.31-0.02-0.91,1.04-1.13,1.8
			c-0.16,0.55-0.48,0.79-0.6,1.36c-0.14,0.65,0.02,1.61,0.02,2.28c0,0.83,0.11,1.74,0.01,2.56c-0.08,0.74-0.46,1-0.61,1.65
			c-0.15,0.67-0.05,1.33-0.25,2.01c-0.18,0.63-0.64,1.19-0.8,1.74c-0.28,1-0.24,1.04-0.76,1.91c-0.44,0.74-0.9,1.03-1.41,1.68
			c-1.23,1.57-2.43,3.2-3.6,4.85c-2.76,3.89-6.03,7.56-7.99,12c-1.33,3.01-1.46,6.28-3.1,9.19c-1.96,3.48-4.24,6.85-6.5,10.16
			c-2.8,4.1-5.65,8.59-9.45,11.89c-1.45,1.26-3.37,2.19-4.55,3.72c-0.93,1.21-1.55,2.94-2.28,4.23c-0.69,1.23-1.54,2.56-1.97,3.93
			c-0.4,1.27-0.01,2.61-0.25,3.96c-0.27,1.54-0.87,2.99-1.19,4.53c-0.18,0.84,0.13,1.71-0.1,2.57c-0.2,0.78-0.33,1.08-0.42,1.96
			c-0.05,0.47,0.01,0.66,0.06,0.8c0.04,0.01,0.07,0.02,0.11,0.03c1.22,0.27,1.83,0.02,3.06,0.78c0.8,0.5,1.1,1.32,1.81,1.81
			c1.58,1.08,3.57,1.49,5.11,2.67c1.24,0.95,3.03,2.63,3.31,4.26c0.34,1.95-0.86,4.16-0.8,6.21c0.06,2.17,0.44,3.62,2.18,5.08
			c1.87,1.57,5.04,1.84,6.46,3.93c1.18,1.73,0.24,3.72,1.18,5.38c0.88,1.57,2.17,2.05,3.79,2.12c3.32,0.14,5.14-0.16,7.46,2.46
			c2.79,3.16-0.32,5.43-2.99,6.9c-3.19,1.74-8.3,3.39-9.58,6.91c-0.64,1.76-1.65,3.86-1.74,5.76c-0.1,2.15,0.42,4.23-0.32,6.29
			c-0.66,1.82-1.37,2.15-2.97,3.11c-1.2,0.72-2.09,1.81-3.26,2.56c-0.8,0.51-1.5,0.4-2.27,0.75c-2.72,1.22-2.98,5.07-3.85,7.64
			c-0.94,2.81-1.19,5.73-1.91,8.6c-1.19,4.8-0.42,8.68,1.18,13.36c1.54,4.51-6.5,6.58-7.01,11.23c-0.38,3.42,0.89,6.88,1,10.28
			c0.11,3.28,0.46,7.33-0.2,10.61c-1.19,5.86-3.36,11.37-3.93,17.31c2.33-0.35,6.8-1.13,8.06-1.44
			C174.66,471.21,176.53,471.47,178.16,471.47z"/>
	</g>
	<g>
		<path class="st1" d="M63.28,103.98c0,0.57-0.08,1.1-0.24,1.6c-0.16,0.5-0.39,0.96-0.69,1.38c-0.3,0.42-0.67,0.79-1.09,1.11
			c-0.43,0.32-0.9,0.58-1.43,0.77c0.42,0.08,0.81,0.21,1.17,0.4c0.36,0.19,0.66,0.44,0.91,0.73c0.25,0.3,0.45,0.65,0.59,1.06
			c0.14,0.41,0.21,0.87,0.21,1.37c0,0.46-0.06,0.94-0.19,1.43c-0.13,0.49-0.32,0.98-0.59,1.45c-0.27,0.47-0.62,0.92-1.05,1.35
			c-0.43,0.43-0.95,0.8-1.56,1.12c-0.61,0.32-1.31,0.58-2.11,0.76c-0.8,0.19-1.72,0.28-2.78,0.28h-5.17c-0.39,0-0.68-0.1-0.86-0.29
			c-0.18-0.19-0.22-0.49-0.14-0.91l3.25-16.23c0.08-0.42,0.25-0.73,0.51-0.91c0.26-0.19,0.57-0.28,0.91-0.28h4.48
			c0.99,0,1.84,0.08,2.56,0.23c0.72,0.15,1.32,0.39,1.81,0.7s0.86,0.71,1.11,1.18C63.16,102.76,63.28,103.32,63.28,103.98z
			 M58.75,112.6c0-0.61-0.23-1.1-0.68-1.45c-0.45-0.35-1.18-0.53-2.18-0.53h-2.52l-1.05,5.3H55c0.68,0,1.25-0.1,1.72-0.29
			c0.47-0.19,0.85-0.44,1.15-0.75c0.3-0.31,0.53-0.66,0.67-1.06S58.75,113.01,58.75,112.6z M59.39,104.68c0-0.27-0.05-0.5-0.14-0.71
			c-0.1-0.2-0.24-0.37-0.43-0.52c-0.19-0.14-0.43-0.25-0.73-0.33c-0.29-0.08-0.67-0.12-1.12-0.12h-2.06l-0.98,4.83h2.13
			c0.62,0,1.14-0.1,1.55-0.3c0.41-0.2,0.75-0.45,1.02-0.76c0.26-0.31,0.45-0.66,0.58-1.03C59.33,105.39,59.39,105.03,59.39,104.68z"
			/>
		<path class="st1" d="M76.36,118.33c-0.04,0.2-0.19,0.35-0.45,0.43c-0.26,0.09-0.69,0.13-1.27,0.13c-0.3,0-0.54-0.01-0.73-0.03
			c-0.19-0.02-0.34-0.05-0.45-0.09c-0.12-0.04-0.19-0.1-0.22-0.17c-0.03-0.07-0.04-0.16-0.02-0.27l0.4-2.06
			c-0.14,0.31-0.37,0.63-0.69,0.97c-0.32,0.34-0.69,0.65-1.12,0.93c-0.43,0.28-0.91,0.51-1.43,0.69c-0.52,0.18-1.06,0.27-1.62,0.27
			c-0.77,0-1.41-0.14-1.91-0.4c-0.51-0.27-0.92-0.63-1.22-1.09c-0.31-0.46-0.53-0.98-0.65-1.56c-0.13-0.59-0.19-1.2-0.19-1.84
			c0-0.61,0.06-1.26,0.17-1.98c0.12-0.72,0.29-1.43,0.53-2.14c0.24-0.71,0.55-1.39,0.92-2.05c0.37-0.66,0.82-1.24,1.34-1.75
			c0.52-0.51,1.12-0.91,1.8-1.22c0.68-0.3,1.44-0.45,2.29-0.45c0.8,0,1.5,0.17,2.12,0.5c0.61,0.33,1.15,0.81,1.61,1.45l0.23-1.14
			c0.04-0.2,0.19-0.35,0.45-0.43c0.26-0.09,0.69-0.13,1.27-0.13c0.29,0,0.53,0.01,0.72,0.04s0.34,0.06,0.45,0.1
			c0.11,0.04,0.18,0.1,0.22,0.17c0.04,0.07,0.05,0.15,0.03,0.25L76.36,118.33z M74.58,109.32c-0.34-0.53-0.71-0.92-1.12-1.19
			c-0.41-0.26-0.88-0.39-1.42-0.39c-0.4,0-0.77,0.1-1.11,0.29c-0.34,0.19-0.63,0.45-0.89,0.77s-0.49,0.69-0.68,1.12
			c-0.2,0.42-0.36,0.86-0.49,1.32c-0.13,0.46-0.23,0.92-0.29,1.38c-0.06,0.46-0.09,0.89-0.09,1.29c0,0.29,0.02,0.56,0.07,0.82
			c0.04,0.26,0.12,0.49,0.24,0.69c0.12,0.2,0.27,0.36,0.46,0.48s0.44,0.18,0.73,0.18c0.42,0,0.85-0.13,1.3-0.38
			c0.44-0.25,0.85-0.6,1.24-1.04c0.38-0.44,0.72-0.95,1.02-1.53c0.29-0.58,0.51-1.2,0.64-1.86L74.58,109.32z"/>
		<path class="st1" d="M83.62,118.31c-0.02,0.1-0.07,0.18-0.14,0.25c-0.07,0.07-0.18,0.13-0.32,0.18c-0.14,0.05-0.34,0.08-0.58,0.11
			s-0.53,0.04-0.88,0.04c-0.36,0-0.66-0.01-0.89-0.04c-0.22-0.02-0.4-0.06-0.52-0.11c-0.13-0.05-0.21-0.11-0.25-0.18
			c-0.04-0.07-0.05-0.16-0.04-0.25l3.78-18.92c0.02-0.1,0.06-0.18,0.13-0.26c0.07-0.08,0.18-0.14,0.33-0.19s0.35-0.1,0.58-0.12
			c0.23-0.03,0.53-0.04,0.88-0.04s0.65,0.01,0.87,0.04c0.22,0.03,0.4,0.07,0.52,0.12s0.21,0.12,0.24,0.19
			c0.04,0.08,0.05,0.16,0.03,0.26L83.62,118.31z"/>
		<path class="st1" d="M99.16,118.33c-0.04,0.2-0.19,0.35-0.45,0.43c-0.26,0.09-0.69,0.13-1.27,0.13c-0.3,0-0.54-0.01-0.73-0.03
			c-0.19-0.02-0.34-0.05-0.45-0.09c-0.12-0.04-0.19-0.1-0.22-0.17c-0.03-0.07-0.04-0.16-0.02-0.27l0.4-2.06
			c-0.14,0.31-0.37,0.63-0.69,0.97c-0.32,0.34-0.69,0.65-1.12,0.93c-0.43,0.28-0.91,0.51-1.43,0.69c-0.52,0.18-1.06,0.27-1.62,0.27
			c-0.77,0-1.41-0.14-1.91-0.4c-0.51-0.27-0.92-0.63-1.22-1.09c-0.31-0.46-0.53-0.98-0.65-1.56c-0.13-0.59-0.19-1.2-0.19-1.84
			c0-0.61,0.06-1.26,0.17-1.98c0.12-0.72,0.29-1.43,0.53-2.14c0.24-0.71,0.55-1.39,0.92-2.05c0.37-0.66,0.82-1.24,1.34-1.75
			c0.52-0.51,1.12-0.91,1.8-1.22c0.68-0.3,1.44-0.45,2.29-0.45c0.8,0,1.5,0.17,2.12,0.5c0.61,0.33,1.15,0.81,1.61,1.45l0.23-1.14
			c0.04-0.2,0.19-0.35,0.45-0.43c0.26-0.09,0.69-0.13,1.27-0.13c0.29,0,0.53,0.01,0.72,0.04s0.34,0.06,0.45,0.1
			c0.11,0.04,0.18,0.1,0.22,0.17c0.04,0.07,0.05,0.15,0.03,0.25L99.16,118.33z M97.37,109.32c-0.34-0.53-0.71-0.92-1.12-1.19
			c-0.41-0.26-0.88-0.39-1.42-0.39c-0.4,0-0.77,0.1-1.11,0.29c-0.34,0.19-0.63,0.45-0.89,0.77s-0.49,0.69-0.68,1.12
			c-0.2,0.42-0.36,0.86-0.49,1.32c-0.13,0.46-0.23,0.92-0.29,1.38c-0.06,0.46-0.09,0.89-0.09,1.29c0,0.29,0.02,0.56,0.07,0.82
			c0.04,0.26,0.12,0.49,0.24,0.69c0.12,0.2,0.27,0.36,0.46,0.48s0.44,0.18,0.73,0.18c0.42,0,0.85-0.13,1.3-0.38
			c0.44-0.25,0.85-0.6,1.24-1.04c0.38-0.44,0.72-0.95,1.02-1.53c0.29-0.58,0.51-1.2,0.64-1.86L97.37,109.32z"/>
		<path class="st1" d="M116.83,105.42c0,0.15-0.07,0.33-0.19,0.54c-0.13,0.21-0.34,0.47-0.64,0.78l-4.53,4.27l2.95,6.19
			c0.1,0.23,0.16,0.43,0.2,0.61c0.04,0.17,0.06,0.31,0.06,0.4c0,0.12-0.03,0.21-0.09,0.3c-0.06,0.09-0.17,0.16-0.32,0.22
			c-0.15,0.06-0.35,0.1-0.6,0.12c-0.25,0.02-0.57,0.04-0.96,0.04c-0.38,0-0.69-0.01-0.93-0.03c-0.24-0.02-0.42-0.05-0.55-0.1
			c-0.13-0.05-0.23-0.11-0.29-0.19c-0.06-0.08-0.11-0.17-0.14-0.29l-3.04-6.76l-1.35,6.79c-0.03,0.1-0.08,0.18-0.15,0.25
			c-0.07,0.07-0.18,0.13-0.33,0.18c-0.15,0.05-0.34,0.08-0.58,0.11c-0.24,0.02-0.53,0.04-0.88,0.04c-0.36,0-0.65-0.01-0.87-0.04
			c-0.23-0.02-0.4-0.06-0.53-0.1c-0.13-0.04-0.21-0.1-0.25-0.17c-0.04-0.07-0.06-0.15-0.04-0.25l3.8-18.94
			c0.02-0.1,0.06-0.18,0.13-0.26c0.07-0.08,0.18-0.14,0.33-0.19c0.15-0.05,0.35-0.1,0.58-0.12c0.23-0.03,0.53-0.04,0.88-0.04
			s0.65,0.01,0.87,0.04c0.22,0.03,0.4,0.07,0.52,0.12c0.13,0.05,0.21,0.12,0.24,0.19c0.04,0.08,0.05,0.16,0.03,0.26l-2.24,11.27
			l4.81-5.14c0.1-0.12,0.2-0.21,0.31-0.29c0.11-0.08,0.25-0.15,0.43-0.19c0.17-0.05,0.38-0.08,0.63-0.1
			c0.24-0.02,0.55-0.03,0.91-0.03c0.36,0,0.65,0.01,0.89,0.03c0.24,0.02,0.43,0.05,0.56,0.09c0.13,0.04,0.23,0.1,0.28,0.17
			C116.8,105.25,116.83,105.33,116.83,105.42z"/>
		<path class="st1" d="M116.9,115.49c0-0.69,0.16-1.31,0.47-1.86c0.31-0.55,0.8-1.02,1.45-1.42c0.66-0.4,1.49-0.7,2.5-0.91
			c1.01-0.21,2.22-0.32,3.62-0.32h1.32c0.04-0.22,0.07-0.44,0.09-0.66c0.02-0.21,0.03-0.41,0.03-0.6c0-0.77-0.2-1.36-0.6-1.75
			c-0.4-0.39-1.05-0.59-1.94-0.59c-0.63,0-1.2,0.05-1.71,0.14c-0.5,0.09-0.94,0.19-1.32,0.3c-0.38,0.11-0.69,0.21-0.94,0.3
			c-0.25,0.09-0.43,0.14-0.55,0.14c-0.12,0-0.2-0.04-0.24-0.1c-0.05-0.07-0.07-0.17-0.07-0.32c0-0.16,0.01-0.35,0.04-0.56
			c0.03-0.21,0.07-0.42,0.12-0.63c0.05-0.21,0.12-0.4,0.2-0.58c0.08-0.18,0.18-0.32,0.28-0.42c0.12-0.12,0.33-0.23,0.63-0.35
			c0.31-0.12,0.68-0.22,1.11-0.32c0.43-0.1,0.92-0.17,1.45-0.24c0.54-0.06,1.08-0.1,1.64-0.1c0.92,0,1.72,0.1,2.41,0.29
			c0.69,0.19,1.26,0.48,1.72,0.88s0.81,0.89,1.04,1.5c0.23,0.61,0.35,1.33,0.35,2.17c0,0.64-0.06,1.33-0.18,2.07
			c-0.12,0.73-0.31,1.46-0.58,2.17c-0.27,0.72-0.61,1.4-1.04,2.05c-0.42,0.65-0.93,1.23-1.53,1.72c-0.6,0.49-1.29,0.89-2.08,1.19
			s-1.68,0.45-2.69,0.45c-0.87,0-1.62-0.1-2.25-0.31c-0.63-0.21-1.14-0.48-1.55-0.82c-0.4-0.34-0.7-0.73-0.9-1.16
			C117,116.4,116.9,115.95,116.9,115.49z M120.45,115.22c0,0.38,0.15,0.7,0.45,0.96c0.3,0.25,0.74,0.38,1.32,0.38
			c0.48,0,0.91-0.09,1.29-0.26c0.38-0.17,0.71-0.41,1-0.7c0.29-0.29,0.53-0.64,0.74-1.04c0.21-0.4,0.37-0.82,0.5-1.28h-1.21
			c-0.77,0-1.41,0.05-1.93,0.15c-0.52,0.1-0.94,0.24-1.25,0.41c-0.32,0.17-0.55,0.38-0.69,0.61
			C120.53,114.69,120.45,114.95,120.45,115.22z"/>
		<path class="st1" d="M145.22,108.34c0,0.34-0.02,0.67-0.07,1.01c-0.04,0.33-0.1,0.68-0.16,1.04l-1.6,7.93
			c-0.02,0.1-0.06,0.18-0.14,0.25c-0.07,0.07-0.18,0.13-0.33,0.18c-0.15,0.05-0.34,0.08-0.58,0.11c-0.24,0.02-0.53,0.04-0.89,0.04
			c-0.36,0-0.65-0.01-0.87-0.04c-0.23-0.02-0.4-0.06-0.53-0.11c-0.13-0.05-0.21-0.11-0.25-0.18c-0.04-0.07-0.06-0.16-0.04-0.25
			l1.55-7.7c0.05-0.23,0.08-0.47,0.11-0.71c0.02-0.24,0.04-0.45,0.04-0.63c0-0.43-0.09-0.79-0.27-1.06
			c-0.18-0.28-0.49-0.42-0.92-0.42c-0.39,0-0.8,0.12-1.23,0.37c-0.43,0.25-0.83,0.59-1.21,1.02c-0.38,0.43-0.72,0.93-1.01,1.5
			c-0.3,0.57-0.51,1.18-0.63,1.82l-1.17,5.81c-0.02,0.1-0.07,0.18-0.14,0.25c-0.07,0.07-0.18,0.13-0.33,0.18
			c-0.15,0.05-0.34,0.08-0.58,0.11c-0.24,0.02-0.53,0.04-0.88,0.04c-0.36,0-0.65-0.01-0.87-0.04c-0.22-0.02-0.4-0.06-0.53-0.11
			c-0.13-0.05-0.21-0.11-0.25-0.18c-0.04-0.07-0.05-0.16-0.03-0.25l2.58-12.85c0.02-0.1,0.06-0.18,0.12-0.25
			c0.06-0.07,0.16-0.13,0.29-0.17c0.13-0.04,0.3-0.08,0.5-0.1c0.21-0.02,0.45-0.04,0.74-0.04c0.3,0,0.54,0.01,0.73,0.04
			c0.19,0.02,0.33,0.06,0.44,0.1c0.11,0.04,0.17,0.1,0.21,0.17c0.03,0.07,0.04,0.15,0.02,0.25l-0.42,2.12
			c0.2-0.34,0.47-0.68,0.81-1.03c0.34-0.35,0.72-0.66,1.16-0.94c0.44-0.28,0.91-0.51,1.43-0.68c0.51-0.18,1.05-0.27,1.6-0.27
			c0.67,0,1.24,0.1,1.69,0.3c0.46,0.2,0.83,0.46,1.11,0.8c0.28,0.34,0.49,0.73,0.61,1.17C145.16,107.37,145.22,107.84,145.22,108.34
			z"/>
	</g>
	<g>
		<path class="st1" d="M160.08,185.91c0.27,0,0.49,0.07,0.66,0.2c0.17,0.14,0.25,0.34,0.25,0.6c0,0.15-0.03,0.39-0.09,0.71
			s-0.13,0.62-0.22,0.9c-0.03,0.12-0.07,0.23-0.12,0.35c-0.05,0.12-0.12,0.24-0.2,0.38s-0.2,0.3-0.33,0.48
			c-0.13,0.18-0.31,0.4-0.52,0.66l-9.25,11.29h7.66c0.13,0,0.23,0.05,0.28,0.15c0.05,0.1,0.08,0.24,0.08,0.43
			c0,0.08,0,0.19-0.01,0.34c-0.01,0.15-0.03,0.32-0.06,0.5c-0.03,0.19-0.08,0.37-0.12,0.56c-0.05,0.19-0.11,0.36-0.17,0.52
			c-0.07,0.16-0.15,0.29-0.25,0.39c-0.1,0.1-0.21,0.15-0.32,0.15h-10.98c-0.35,0-0.6-0.09-0.75-0.26c-0.16-0.17-0.24-0.39-0.24-0.65
			c0-0.08,0.01-0.18,0.02-0.32c0.02-0.14,0.04-0.28,0.07-0.43c0.03-0.15,0.07-0.3,0.1-0.44c0.03-0.15,0.07-0.27,0.09-0.37
			c0.04-0.11,0.08-0.21,0.13-0.32c0.05-0.11,0.12-0.23,0.21-0.36c0.09-0.13,0.2-0.29,0.34-0.47c0.13-0.18,0.31-0.4,0.52-0.66
			l9.3-11.32h-6.99c-0.31,0-0.46-0.21-0.46-0.62c0-0.06,0.01-0.16,0.02-0.31c0.01-0.15,0.04-0.31,0.06-0.49
			c0.03-0.18,0.07-0.36,0.12-0.55c0.05-0.19,0.12-0.36,0.19-0.51c0.08-0.15,0.17-0.28,0.28-0.38c0.11-0.1,0.24-0.15,0.38-0.15
			H160.08z"/>
		<path class="st1" d="M172.1,204.06c-0.04,0.2-0.19,0.35-0.45,0.43c-0.26,0.09-0.69,0.13-1.27,0.13c-0.3,0-0.54-0.01-0.73-0.03
			c-0.19-0.02-0.34-0.05-0.45-0.09c-0.12-0.04-0.19-0.1-0.22-0.17c-0.03-0.07-0.04-0.16-0.02-0.27l0.4-2.06
			c-0.14,0.31-0.37,0.63-0.69,0.97c-0.32,0.34-0.69,0.65-1.12,0.93c-0.43,0.28-0.91,0.51-1.43,0.69c-0.52,0.18-1.06,0.27-1.62,0.27
			c-0.77,0-1.41-0.14-1.91-0.4c-0.51-0.27-0.92-0.63-1.22-1.09c-0.31-0.46-0.53-0.98-0.65-1.56c-0.13-0.59-0.19-1.2-0.19-1.84
			c0-0.61,0.06-1.26,0.17-1.98c0.12-0.72,0.29-1.43,0.53-2.14c0.24-0.71,0.55-1.39,0.92-2.05c0.37-0.66,0.82-1.24,1.34-1.75
			c0.52-0.51,1.12-0.91,1.8-1.22c0.68-0.3,1.44-0.45,2.29-0.45c0.8,0,1.5,0.17,2.12,0.5c0.61,0.33,1.15,0.81,1.61,1.45l0.23-1.14
			c0.04-0.2,0.19-0.35,0.45-0.43c0.26-0.09,0.69-0.13,1.27-0.13c0.29,0,0.53,0.01,0.72,0.04c0.19,0.02,0.34,0.06,0.45,0.1
			c0.11,0.04,0.18,0.1,0.22,0.17c0.04,0.07,0.05,0.15,0.03,0.25L172.1,204.06z M170.31,195.05c-0.34-0.53-0.71-0.92-1.12-1.19
			c-0.41-0.26-0.88-0.39-1.42-0.39c-0.4,0-0.77,0.1-1.11,0.29c-0.34,0.19-0.63,0.45-0.89,0.77c-0.26,0.32-0.49,0.69-0.68,1.12
			c-0.2,0.42-0.36,0.86-0.49,1.32c-0.13,0.46-0.23,0.92-0.29,1.38c-0.06,0.46-0.09,0.89-0.09,1.29c0,0.29,0.02,0.56,0.07,0.82
			c0.04,0.26,0.12,0.49,0.24,0.69c0.12,0.2,0.27,0.36,0.46,0.48c0.19,0.12,0.44,0.18,0.73,0.18c0.42,0,0.85-0.13,1.3-0.38
			c0.44-0.25,0.85-0.6,1.24-1.04c0.38-0.44,0.72-0.95,1.02-1.53c0.29-0.58,0.51-1.2,0.64-1.86L170.31,195.05z"/>
		<path class="st1" d="M186.65,209.13c-0.02,0.1-0.06,0.18-0.14,0.26c-0.07,0.08-0.18,0.14-0.33,0.19
			c-0.15,0.05-0.34,0.09-0.58,0.12c-0.24,0.03-0.54,0.04-0.89,0.04c-0.35,0-0.63-0.02-0.86-0.04c-0.23-0.03-0.4-0.07-0.53-0.12
			s-0.21-0.12-0.25-0.19c-0.04-0.08-0.06-0.16-0.04-0.26l0.83-4.16c0.05-0.21,0.1-0.44,0.16-0.68c0.06-0.24,0.12-0.48,0.19-0.73
			c0.07-0.25,0.14-0.48,0.21-0.7c0.07-0.22,0.14-0.42,0.21-0.59c-0.17,0.31-0.42,0.61-0.74,0.92c-0.32,0.31-0.69,0.58-1.1,0.83
			c-0.41,0.24-0.86,0.44-1.33,0.6c-0.47,0.15-0.95,0.23-1.43,0.23c-0.71,0-1.32-0.12-1.82-0.36c-0.5-0.24-0.92-0.57-1.24-1
			c-0.32-0.43-0.56-0.94-0.7-1.53c-0.15-0.6-0.22-1.25-0.22-1.97c0-0.6,0.06-1.26,0.17-1.98c0.12-0.72,0.29-1.43,0.52-2.14
			c0.24-0.71,0.54-1.4,0.91-2.06c0.37-0.66,0.82-1.25,1.35-1.76c0.52-0.51,1.12-0.92,1.81-1.22c0.68-0.3,1.45-0.45,2.3-0.45
			c0.8,0,1.5,0.17,2.12,0.5c0.61,0.33,1.15,0.81,1.61,1.45l0.23-1.14c0.04-0.2,0.19-0.35,0.45-0.44c0.26-0.09,0.69-0.14,1.27-0.14
			c0.29,0,0.53,0.01,0.72,0.04c0.19,0.02,0.34,0.06,0.45,0.11c0.11,0.05,0.18,0.11,0.22,0.18c0.04,0.07,0.05,0.15,0.03,0.25
			L186.65,209.13z M185.87,195.03c-0.34-0.53-0.71-0.92-1.12-1.19c-0.41-0.26-0.88-0.4-1.42-0.4c-0.41,0-0.79,0.1-1.13,0.3
			c-0.34,0.2-0.64,0.47-0.91,0.81c-0.26,0.33-0.49,0.72-0.68,1.14c-0.19,0.43-0.35,0.87-0.47,1.33s-0.22,0.91-0.27,1.37
			c-0.06,0.45-0.09,0.86-0.09,1.24c0,0.75,0.13,1.3,0.38,1.64c0.25,0.35,0.63,0.52,1.11,0.52c0.42,0,0.85-0.13,1.3-0.38
			c0.44-0.25,0.85-0.6,1.24-1.04s0.72-0.95,1.02-1.53c0.29-0.58,0.51-1.21,0.64-1.87L185.87,195.03z"/>
		<path class="st1" d="M203.21,204.06c-0.04,0.2-0.19,0.35-0.45,0.43c-0.26,0.09-0.69,0.13-1.27,0.13c-0.3,0-0.54-0.01-0.73-0.03
			c-0.19-0.02-0.34-0.05-0.45-0.09c-0.12-0.04-0.19-0.1-0.22-0.17c-0.03-0.07-0.04-0.16-0.02-0.27l0.4-2.06
			c-0.14,0.31-0.37,0.63-0.69,0.97c-0.32,0.34-0.69,0.65-1.12,0.93c-0.43,0.28-0.91,0.51-1.43,0.69c-0.52,0.18-1.06,0.27-1.62,0.27
			c-0.77,0-1.41-0.14-1.91-0.4c-0.51-0.27-0.92-0.63-1.22-1.09c-0.31-0.46-0.53-0.98-0.65-1.56c-0.13-0.59-0.19-1.2-0.19-1.84
			c0-0.61,0.06-1.26,0.17-1.98c0.12-0.72,0.29-1.43,0.53-2.14c0.24-0.71,0.55-1.39,0.92-2.05c0.37-0.66,0.82-1.24,1.34-1.75
			c0.52-0.51,1.12-0.91,1.8-1.22c0.68-0.3,1.44-0.45,2.29-0.45c0.8,0,1.5,0.17,2.12,0.5c0.61,0.33,1.15,0.81,1.61,1.45l0.23-1.14
			c0.04-0.2,0.19-0.35,0.45-0.43c0.26-0.09,0.69-0.13,1.27-0.13c0.29,0,0.53,0.01,0.72,0.04c0.19,0.02,0.34,0.06,0.45,0.1
			c0.11,0.04,0.18,0.1,0.22,0.17c0.04,0.07,0.05,0.15,0.03,0.25L203.21,204.06z M201.42,195.05c-0.34-0.53-0.71-0.92-1.12-1.19
			c-0.41-0.26-0.88-0.39-1.42-0.39c-0.4,0-0.77,0.1-1.11,0.29c-0.34,0.19-0.63,0.45-0.89,0.77c-0.26,0.32-0.49,0.69-0.68,1.12
			c-0.2,0.42-0.36,0.86-0.49,1.32c-0.13,0.46-0.23,0.92-0.29,1.38c-0.06,0.46-0.09,0.89-0.09,1.29c0,0.29,0.02,0.56,0.07,0.82
			c0.04,0.26,0.12,0.49,0.24,0.69c0.12,0.2,0.27,0.36,0.46,0.48c0.19,0.12,0.44,0.18,0.73,0.18c0.42,0,0.85-0.13,1.3-0.38
			c0.44-0.25,0.85-0.6,1.24-1.04c0.38-0.44,0.72-0.95,1.01-1.53c0.29-0.58,0.51-1.2,0.64-1.86L201.42,195.05z"/>
		<path class="st1" d="M216.94,191.34c0,0.1-0.01,0.22-0.03,0.37c-0.02,0.15-0.05,0.31-0.08,0.48c-0.03,0.17-0.08,0.35-0.14,0.52
			c-0.06,0.17-0.12,0.33-0.19,0.47c-0.07,0.14-0.15,0.25-0.24,0.35c-0.09,0.09-0.19,0.14-0.3,0.14h-2.81l-1.21,6.03
			c-0.03,0.14-0.06,0.31-0.08,0.51c-0.02,0.2-0.04,0.36-0.04,0.48c0,0.38,0.09,0.66,0.27,0.84s0.47,0.27,0.86,0.27
			c0.23,0,0.43-0.02,0.59-0.05c0.16-0.03,0.3-0.07,0.43-0.12c0.12-0.04,0.22-0.08,0.31-0.12c0.09-0.03,0.17-0.05,0.24-0.05
			c0.08,0,0.14,0.04,0.19,0.11c0.05,0.07,0.08,0.19,0.08,0.35c0,0.18-0.02,0.39-0.06,0.62c-0.04,0.23-0.09,0.45-0.15,0.67
			c-0.06,0.21-0.13,0.41-0.21,0.59c-0.08,0.18-0.16,0.31-0.24,0.4c-0.09,0.09-0.22,0.17-0.39,0.24c-0.17,0.08-0.38,0.15-0.61,0.2
			c-0.24,0.06-0.49,0.1-0.76,0.14c-0.27,0.03-0.54,0.05-0.81,0.05c-0.58,0-1.08-0.06-1.52-0.18c-0.44-0.12-0.8-0.31-1.1-0.57
			c-0.3-0.26-0.52-0.59-0.67-0.99c-0.15-0.4-0.22-0.89-0.22-1.47c0-0.1,0-0.23,0.01-0.37s0.03-0.29,0.05-0.44
			c0.02-0.15,0.05-0.31,0.07-0.47c0.02-0.16,0.05-0.3,0.08-0.42l1.25-6.26h-1.55c-0.13,0-0.22-0.04-0.27-0.12s-0.09-0.24-0.09-0.47
			c0-0.16,0.02-0.38,0.05-0.64c0.03-0.26,0.09-0.52,0.16-0.78c0.08-0.25,0.18-0.47,0.3-0.65c0.13-0.18,0.27-0.27,0.45-0.27h1.54
			l0.58-2.86c0.02-0.1,0.06-0.18,0.14-0.26c0.07-0.08,0.18-0.14,0.33-0.19c0.15-0.05,0.34-0.09,0.58-0.12
			c0.24-0.02,0.53-0.04,0.89-0.04c0.35,0,0.63,0.01,0.86,0.04c0.23,0.02,0.41,0.06,0.53,0.12s0.21,0.12,0.25,0.19
			c0.04,0.08,0.06,0.16,0.04,0.26l-0.58,2.86h2.78c0.16,0,0.27,0.05,0.33,0.16C216.91,190.98,216.94,191.13,216.94,191.34z"/>
		<path class="st1" d="M228.63,204.06c-0.04,0.2-0.19,0.35-0.45,0.43c-0.26,0.09-0.69,0.13-1.27,0.13c-0.3,0-0.54-0.01-0.73-0.03
			c-0.19-0.02-0.34-0.05-0.45-0.09c-0.12-0.04-0.19-0.1-0.22-0.17c-0.03-0.07-0.04-0.16-0.02-0.27l0.4-2.06
			c-0.14,0.31-0.37,0.63-0.69,0.97c-0.32,0.34-0.69,0.65-1.12,0.93c-0.43,0.28-0.91,0.51-1.43,0.69c-0.52,0.18-1.06,0.27-1.62,0.27
			c-0.77,0-1.41-0.14-1.91-0.4c-0.51-0.27-0.92-0.63-1.22-1.09c-0.31-0.46-0.53-0.98-0.65-1.56c-0.13-0.59-0.19-1.2-0.19-1.84
			c0-0.61,0.06-1.26,0.17-1.98s0.29-1.43,0.53-2.14c0.24-0.71,0.55-1.39,0.92-2.05s0.82-1.24,1.34-1.75
			c0.52-0.51,1.12-0.91,1.8-1.22c0.68-0.3,1.44-0.45,2.29-0.45c0.8,0,1.5,0.17,2.12,0.5c0.61,0.33,1.15,0.81,1.61,1.45l0.23-1.14
			c0.04-0.2,0.19-0.35,0.45-0.43c0.26-0.09,0.69-0.13,1.27-0.13c0.29,0,0.53,0.01,0.72,0.04c0.19,0.02,0.34,0.06,0.45,0.1
			c0.11,0.04,0.18,0.1,0.22,0.17c0.04,0.07,0.05,0.15,0.03,0.25L228.63,204.06z M226.85,195.05c-0.34-0.53-0.71-0.92-1.12-1.19
			c-0.41-0.26-0.88-0.39-1.42-0.39c-0.4,0-0.77,0.1-1.11,0.29c-0.34,0.19-0.63,0.45-0.89,0.77c-0.26,0.32-0.49,0.69-0.68,1.12
			c-0.2,0.42-0.36,0.86-0.49,1.32c-0.13,0.46-0.23,0.92-0.29,1.38c-0.06,0.46-0.09,0.89-0.09,1.29c0,0.29,0.02,0.56,0.07,0.82
			c0.04,0.26,0.12,0.49,0.24,0.69s0.27,0.36,0.46,0.48c0.19,0.12,0.44,0.18,0.73,0.18c0.42,0,0.85-0.13,1.3-0.38
			c0.44-0.25,0.85-0.6,1.24-1.04c0.38-0.44,0.72-0.95,1.02-1.53c0.29-0.58,0.51-1.2,0.64-1.86L226.85,195.05z"/>
		<path class="st1" d="M235.89,204.04c-0.02,0.1-0.07,0.18-0.14,0.25c-0.07,0.07-0.18,0.13-0.32,0.18s-0.34,0.08-0.58,0.11
			c-0.24,0.02-0.53,0.04-0.88,0.04c-0.36,0-0.66-0.01-0.89-0.04c-0.22-0.02-0.4-0.06-0.52-0.11s-0.21-0.11-0.25-0.18
			c-0.04-0.07-0.05-0.16-0.04-0.25l3.78-18.92c0.02-0.1,0.06-0.18,0.13-0.26c0.07-0.08,0.18-0.14,0.33-0.19s0.35-0.1,0.58-0.12
			c0.23-0.03,0.53-0.04,0.88-0.04c0.36,0,0.65,0.01,0.87,0.04c0.22,0.03,0.4,0.07,0.52,0.12s0.21,0.12,0.24,0.19
			c0.04,0.08,0.05,0.16,0.03,0.26L235.89,204.04z"/>
		<path class="st1" d="M251.43,204.06c-0.04,0.2-0.19,0.35-0.45,0.43c-0.26,0.09-0.69,0.13-1.27,0.13c-0.3,0-0.54-0.01-0.73-0.03
			c-0.19-0.02-0.34-0.05-0.45-0.09c-0.12-0.04-0.19-0.1-0.22-0.17c-0.03-0.07-0.04-0.16-0.02-0.27l0.4-2.06
			c-0.14,0.31-0.37,0.63-0.69,0.97c-0.32,0.34-0.69,0.65-1.12,0.93c-0.43,0.28-0.91,0.51-1.43,0.69c-0.52,0.18-1.06,0.27-1.62,0.27
			c-0.77,0-1.41-0.14-1.91-0.4c-0.51-0.27-0.92-0.63-1.22-1.09c-0.31-0.46-0.53-0.98-0.65-1.56c-0.13-0.59-0.19-1.2-0.19-1.84
			c0-0.61,0.06-1.26,0.17-1.98c0.12-0.72,0.29-1.43,0.53-2.14c0.24-0.71,0.55-1.39,0.92-2.05c0.37-0.66,0.82-1.24,1.34-1.75
			c0.52-0.51,1.12-0.91,1.8-1.22c0.68-0.3,1.44-0.45,2.29-0.45c0.8,0,1.5,0.17,2.12,0.5c0.61,0.33,1.15,0.81,1.61,1.45l0.23-1.14
			c0.04-0.2,0.19-0.35,0.45-0.43c0.26-0.09,0.69-0.13,1.27-0.13c0.29,0,0.53,0.01,0.72,0.04c0.19,0.02,0.34,0.06,0.45,0.1
			c0.11,0.04,0.18,0.1,0.22,0.17c0.04,0.07,0.05,0.15,0.03,0.25L251.43,204.06z M249.64,195.05c-0.34-0.53-0.71-0.92-1.12-1.19
			c-0.41-0.26-0.88-0.39-1.42-0.39c-0.4,0-0.77,0.1-1.11,0.29c-0.34,0.19-0.63,0.45-0.89,0.77c-0.26,0.32-0.49,0.69-0.68,1.12
			c-0.2,0.42-0.36,0.86-0.49,1.32c-0.13,0.46-0.23,0.92-0.29,1.38c-0.06,0.46-0.09,0.89-0.09,1.29c0,0.29,0.02,0.56,0.07,0.82
			c0.04,0.26,0.12,0.49,0.24,0.69c0.12,0.2,0.27,0.36,0.46,0.48c0.19,0.12,0.44,0.18,0.73,0.18c0.42,0,0.85-0.13,1.3-0.38
			c0.44-0.25,0.85-0.6,1.24-1.04c0.38-0.44,0.72-0.95,1.02-1.53c0.29-0.58,0.51-1.2,0.64-1.86L249.64,195.05z"/>
	</g>
	<g>
		<path class="st1" d="M242.98,313.11c0,0.09-0.01,0.21-0.03,0.38c-0.02,0.16-0.05,0.34-0.09,0.53s-0.09,0.39-0.14,0.58
			s-0.13,0.37-0.2,0.53c-0.08,0.16-0.16,0.29-0.25,0.39c-0.09,0.1-0.19,0.15-0.31,0.15c-0.1,0-0.25-0.03-0.47-0.08
			c-0.21-0.05-0.47-0.14-0.77-0.26c-0.3-0.12-0.63-0.28-0.99-0.47c-0.36-0.19-0.73-0.43-1.1-0.71s-0.75-0.6-1.12-0.96
			c-0.37-0.36-0.72-0.77-1.05-1.23c-0.51,0.23-1.07,0.41-1.68,0.52c-0.61,0.12-1.29,0.18-2.04,0.18c-1.16,0-2.19-0.13-3.08-0.39
			s-1.64-0.66-2.24-1.2c-0.6-0.54-1.06-1.21-1.37-2.03c-0.31-0.81-0.47-1.78-0.47-2.88c0-0.9,0.08-1.84,0.24-2.83
			c0.16-0.98,0.41-1.95,0.76-2.89c0.35-0.95,0.81-1.84,1.37-2.7c0.56-0.85,1.24-1.61,2.04-2.26c0.8-0.65,1.73-1.17,2.79-1.55
			c1.06-0.38,2.27-0.57,3.63-0.57c1.15,0,2.17,0.13,3.06,0.39c0.89,0.26,1.64,0.67,2.24,1.21c0.6,0.54,1.06,1.23,1.37,2.05
			c0.31,0.83,0.47,1.8,0.47,2.91c0,0.54-0.03,1.12-0.09,1.73c-0.06,0.6-0.16,1.21-0.29,1.83c-0.13,0.61-0.31,1.23-0.52,1.85
			c-0.22,0.62-0.48,1.22-0.78,1.81c-0.3,0.59-0.66,1.15-1.06,1.68c-0.41,0.53-0.87,1.03-1.39,1.5c0.45,0.47,0.87,0.83,1.25,1.09
			s0.72,0.46,1.01,0.61c0.29,0.15,0.54,0.26,0.73,0.33c0.2,0.07,0.33,0.13,0.4,0.2c0.07,0.07,0.11,0.14,0.13,0.2
			C242.97,312.86,242.98,312.97,242.98,313.11z M239.57,300.32c0-0.58-0.07-1.12-0.19-1.59c-0.13-0.48-0.34-0.88-0.63-1.2
			c-0.29-0.33-0.67-0.58-1.14-0.75c-0.47-0.18-1.04-0.27-1.7-0.27c-0.83,0-1.57,0.16-2.21,0.48c-0.64,0.32-1.19,0.74-1.66,1.26
			c-0.46,0.52-0.86,1.11-1.17,1.78c-0.32,0.67-0.57,1.34-0.76,2.03s-0.33,1.35-0.41,2.01c-0.08,0.65-0.12,1.22-0.12,1.71
			c0,0.59,0.07,1.13,0.19,1.6c0.13,0.47,0.34,0.87,0.63,1.19c0.29,0.32,0.67,0.57,1.14,0.74c0.46,0.17,1.03,0.26,1.7,0.26
			c0.82,0,1.55-0.16,2.19-0.48c0.63-0.31,1.18-0.73,1.65-1.24c0.47-0.51,0.86-1.1,1.18-1.76c0.32-0.66,0.58-1.33,0.77-2.01
			c0.19-0.68,0.33-1.35,0.41-2C239.53,301.41,239.57,300.83,239.57,300.32z"/>
		<path class="st1" d="M256.67,311.87c-0.04,0.2-0.19,0.35-0.45,0.43c-0.26,0.09-0.69,0.13-1.27,0.13c-0.3,0-0.54-0.01-0.73-0.03
			c-0.19-0.02-0.34-0.05-0.45-0.09c-0.12-0.04-0.19-0.1-0.22-0.17c-0.03-0.07-0.04-0.16-0.02-0.27l0.4-2.06
			c-0.14,0.31-0.37,0.63-0.69,0.97c-0.32,0.34-0.69,0.65-1.12,0.93c-0.43,0.28-0.91,0.51-1.43,0.69c-0.52,0.18-1.06,0.27-1.62,0.27
			c-0.77,0-1.41-0.14-1.91-0.4c-0.51-0.27-0.92-0.63-1.22-1.09c-0.31-0.46-0.53-0.98-0.65-1.56c-0.13-0.59-0.19-1.2-0.19-1.84
			c0-0.61,0.06-1.26,0.17-1.98c0.12-0.72,0.29-1.43,0.53-2.14c0.24-0.71,0.55-1.39,0.92-2.05c0.37-0.66,0.82-1.24,1.34-1.75
			c0.52-0.51,1.12-0.91,1.8-1.22c0.68-0.3,1.44-0.45,2.29-0.45c0.8,0,1.5,0.17,2.12,0.5c0.61,0.33,1.15,0.81,1.61,1.45l0.23-1.14
			c0.04-0.2,0.19-0.35,0.45-0.43c0.26-0.09,0.69-0.13,1.27-0.13c0.29,0,0.53,0.01,0.72,0.04s0.34,0.06,0.45,0.1
			c0.11,0.04,0.18,0.1,0.22,0.17c0.04,0.07,0.05,0.15,0.03,0.25L256.67,311.87z M254.88,302.86c-0.34-0.53-0.71-0.92-1.12-1.19
			c-0.41-0.26-0.88-0.39-1.42-0.39c-0.4,0-0.77,0.1-1.11,0.29c-0.34,0.19-0.63,0.45-0.89,0.77c-0.26,0.32-0.49,0.69-0.68,1.12
			c-0.2,0.42-0.36,0.86-0.49,1.32c-0.13,0.46-0.23,0.92-0.29,1.38c-0.06,0.46-0.09,0.89-0.09,1.29c0,0.29,0.02,0.56,0.07,0.82
			c0.04,0.26,0.12,0.49,0.24,0.69c0.12,0.2,0.27,0.36,0.46,0.48c0.19,0.12,0.44,0.18,0.73,0.18c0.42,0,0.85-0.13,1.3-0.38
			s0.85-0.6,1.24-1.04c0.38-0.44,0.72-0.95,1.02-1.53c0.29-0.58,0.51-1.2,0.64-1.86L254.88,302.86z"/>
		<path class="st1" d="M269.23,305.21l2.3,6.39c0.05,0.16,0.06,0.3,0.03,0.4s-0.12,0.19-0.27,0.26c-0.15,0.07-0.36,0.11-0.64,0.14
			c-0.28,0.02-0.64,0.04-1.08,0.04c-0.4,0-0.72-0.01-0.95-0.03s-0.41-0.05-0.53-0.09c-0.13-0.04-0.21-0.09-0.25-0.16
			c-0.04-0.07-0.08-0.15-0.09-0.23l-1.55-4.53l-3.25,4.55c-0.06,0.09-0.12,0.16-0.19,0.22c-0.07,0.06-0.19,0.11-0.36,0.15
			c-0.17,0.04-0.39,0.07-0.66,0.09c-0.27,0.02-0.64,0.03-1.1,0.03c-0.41,0-0.74-0.01-0.99-0.04c-0.25-0.02-0.43-0.07-0.55-0.13
			c-0.12-0.06-0.16-0.14-0.15-0.24c0.02-0.1,0.08-0.23,0.18-0.4l4.88-6.39l-2.14-5.93c-0.06-0.17-0.08-0.31-0.06-0.43
			c0.02-0.11,0.09-0.2,0.22-0.27c0.13-0.07,0.33-0.11,0.6-0.14c0.27-0.02,0.64-0.04,1.09-0.04c0.39,0,0.7,0.01,0.93,0.02
			c0.23,0.01,0.4,0.04,0.52,0.06c0.12,0.03,0.2,0.08,0.25,0.14c0.04,0.06,0.08,0.14,0.11,0.24l1.5,4.29l3.09-4.29
			c0.06-0.08,0.12-0.14,0.19-0.2c0.07-0.06,0.17-0.11,0.32-0.14c0.14-0.04,0.33-0.07,0.56-0.09c0.23-0.02,0.54-0.03,0.94-0.03
			c0.44,0,0.79,0.01,1.06,0.03c0.26,0.02,0.46,0.06,0.58,0.12c0.13,0.06,0.18,0.14,0.16,0.24c-0.01,0.1-0.08,0.24-0.21,0.41
			L269.23,305.21z"/>
	</g>
	<g>
		<path class="st1" d="M322.67,445.66c-0.79-0.1-1.43-0.23-1.92-0.41c-0.49-0.18-0.88-0.35-1.17-0.5c-0.28-0.16-0.49-0.31-0.63-0.45
			c-0.13-0.14-0.2-0.36-0.2-0.65c0-0.08,0.01-0.19,0.03-0.35c0.02-0.15,0.05-0.32,0.08-0.5c0.03-0.18,0.08-0.36,0.12-0.55
			c0.05-0.19,0.11-0.36,0.17-0.51c0.07-0.15,0.14-0.28,0.22-0.38c0.08-0.1,0.17-0.14,0.27-0.14c0.16,0,0.36,0.07,0.58,0.22
			c0.22,0.15,0.51,0.31,0.84,0.49c0.34,0.18,0.73,0.34,1.19,0.5c0.46,0.15,1.01,0.23,1.65,0.23c0.57,0,1.06-0.07,1.49-0.22
			c0.43-0.14,0.78-0.34,1.07-0.59c0.29-0.25,0.51-0.54,0.66-0.87c0.15-0.33,0.22-0.69,0.22-1.08c0-0.36-0.09-0.67-0.26-0.94
			c-0.17-0.27-0.4-0.52-0.68-0.74c-0.28-0.23-0.6-0.44-0.97-0.64c-0.36-0.2-0.73-0.42-1.1-0.65c-0.37-0.23-0.74-0.48-1.1-0.75
			c-0.36-0.27-0.68-0.58-0.97-0.94c-0.28-0.36-0.51-0.77-0.68-1.25c-0.17-0.47-0.26-1.02-0.26-1.64c0-0.86,0.17-1.66,0.52-2.39
			c0.35-0.73,0.82-1.35,1.44-1.88c0.61-0.52,1.35-0.93,2.2-1.22c0.85-0.29,1.79-0.44,2.82-0.44c0.48,0,0.94,0.04,1.37,0.11
			c0.43,0.07,0.82,0.16,1.18,0.27s0.66,0.23,0.91,0.37c0.25,0.13,0.42,0.25,0.52,0.34c0.1,0.09,0.17,0.19,0.21,0.29
			c0.04,0.1,0.07,0.23,0.07,0.38c0,0.08-0.01,0.19-0.02,0.33c-0.02,0.14-0.04,0.3-0.07,0.47s-0.07,0.35-0.11,0.53
			c-0.04,0.18-0.1,0.34-0.16,0.49c-0.06,0.15-0.13,0.27-0.21,0.37c-0.08,0.1-0.16,0.15-0.24,0.15c-0.13,0-0.3-0.06-0.5-0.18
			c-0.2-0.12-0.45-0.25-0.74-0.39c-0.29-0.14-0.64-0.27-1.03-0.39c-0.39-0.12-0.84-0.18-1.34-0.18c-0.52,0-0.96,0.07-1.32,0.22
			c-0.36,0.14-0.65,0.33-0.88,0.57c-0.23,0.23-0.4,0.5-0.51,0.79c-0.11,0.29-0.17,0.59-0.17,0.89c0,0.35,0.09,0.65,0.26,0.91
			s0.4,0.51,0.69,0.73c0.29,0.23,0.62,0.44,0.99,0.66c0.37,0.21,0.74,0.43,1.12,0.66c0.38,0.23,0.75,0.48,1.12,0.76
			c0.37,0.27,0.7,0.59,0.99,0.95c0.29,0.36,0.52,0.77,0.69,1.24s0.26,1,0.26,1.6c0,0.9-0.18,1.74-0.54,2.5
			c-0.36,0.76-0.85,1.41-1.46,1.95s-1.29,0.95-2.02,1.24c-0.73,0.29-1.36,0.46-1.86,0.52l0.19,0.78c0.07,0.24,0.12,0.46,0.16,0.68
			c0.04,0.21,0.06,0.42,0.06,0.63c0,0.52-0.09,0.97-0.26,1.35s-0.41,0.69-0.71,0.94c-0.3,0.24-0.67,0.42-1.09,0.54
			c-0.43,0.12-0.9,0.17-1.42,0.17c-0.28,0-0.55-0.01-0.81-0.03c-0.26-0.02-0.51-0.05-0.73-0.1c-0.22-0.04-0.42-0.09-0.6-0.14
			c-0.18-0.05-0.32-0.1-0.43-0.15c-0.11-0.06-0.18-0.12-0.22-0.18c-0.04-0.06-0.06-0.16-0.06-0.28c0-0.1,0.01-0.23,0.04-0.4
			c0.02-0.17,0.06-0.35,0.12-0.52s0.14-0.32,0.24-0.45c0.1-0.13,0.23-0.19,0.38-0.19h1.64c0.13,0,0.26-0.02,0.39-0.05
			c0.13-0.03,0.23-0.08,0.32-0.14c0.09-0.06,0.16-0.15,0.22-0.25c0.05-0.11,0.08-0.23,0.08-0.36c0-0.1-0.01-0.21-0.02-0.33
			c-0.02-0.12-0.04-0.25-0.07-0.37L322.67,445.66z"/>
		<path class="st1" d="M333.02,442.07c0-0.69,0.16-1.31,0.47-1.86c0.31-0.55,0.8-1.02,1.45-1.42c0.66-0.4,1.49-0.7,2.5-0.91
			c1.01-0.21,2.22-0.32,3.62-0.32h1.32c0.04-0.22,0.07-0.44,0.09-0.66c0.02-0.21,0.03-0.41,0.03-0.6c0-0.77-0.2-1.36-0.6-1.75
			c-0.4-0.39-1.05-0.59-1.94-0.59c-0.63,0-1.2,0.05-1.71,0.14c-0.5,0.09-0.94,0.19-1.32,0.3c-0.38,0.11-0.69,0.21-0.94,0.3
			s-0.43,0.14-0.55,0.14s-0.2-0.04-0.24-0.1c-0.05-0.07-0.07-0.17-0.07-0.32c0-0.16,0.01-0.35,0.04-0.56
			c0.03-0.21,0.07-0.42,0.12-0.63c0.05-0.21,0.12-0.4,0.2-0.58c0.08-0.18,0.18-0.32,0.28-0.42c0.12-0.12,0.33-0.23,0.63-0.35
			c0.31-0.12,0.68-0.22,1.11-0.32c0.43-0.1,0.92-0.17,1.45-0.24c0.54-0.06,1.08-0.1,1.64-0.1c0.92,0,1.72,0.1,2.41,0.29
			c0.69,0.19,1.26,0.48,1.72,0.88c0.46,0.39,0.81,0.89,1.04,1.5s0.35,1.33,0.35,2.17c0,0.64-0.06,1.33-0.18,2.07
			c-0.12,0.73-0.31,1.46-0.58,2.17c-0.27,0.72-0.61,1.4-1.04,2.05c-0.42,0.65-0.93,1.23-1.53,1.72c-0.6,0.49-1.29,0.89-2.08,1.19
			c-0.79,0.3-1.68,0.45-2.69,0.45c-0.87,0-1.62-0.1-2.25-0.31c-0.63-0.21-1.14-0.48-1.55-0.82c-0.4-0.34-0.7-0.73-0.9-1.16
			C333.12,442.98,333.02,442.53,333.02,442.07z M336.57,441.8c0,0.38,0.15,0.7,0.45,0.96c0.3,0.25,0.74,0.38,1.32,0.38
			c0.48,0,0.91-0.09,1.29-0.26c0.38-0.17,0.71-0.41,1-0.7c0.29-0.29,0.53-0.64,0.74-1.04c0.21-0.4,0.37-0.82,0.5-1.28h-1.21
			c-0.77,0-1.41,0.05-1.93,0.15c-0.52,0.1-0.94,0.24-1.25,0.41c-0.32,0.17-0.55,0.38-0.69,0.61
			C336.64,441.28,336.57,441.53,336.57,441.8z"/>
		<path class="st1" d="M361.57,432c0,0.15-0.07,0.33-0.19,0.54c-0.13,0.21-0.34,0.47-0.64,0.78l-4.53,4.27l2.95,6.19
			c0.1,0.23,0.16,0.43,0.2,0.61c0.04,0.17,0.06,0.31,0.06,0.4c0,0.12-0.03,0.21-0.09,0.3c-0.06,0.09-0.17,0.16-0.32,0.22
			c-0.15,0.06-0.35,0.1-0.6,0.12c-0.25,0.02-0.57,0.04-0.96,0.04s-0.69-0.01-0.93-0.03c-0.24-0.02-0.42-0.05-0.55-0.1
			c-0.13-0.05-0.23-0.11-0.29-0.19c-0.06-0.08-0.11-0.17-0.14-0.29l-3.04-6.76l-1.35,6.79c-0.03,0.1-0.08,0.18-0.15,0.25
			c-0.07,0.07-0.18,0.13-0.33,0.18c-0.15,0.05-0.34,0.08-0.58,0.11c-0.24,0.02-0.53,0.04-0.88,0.04c-0.36,0-0.65-0.01-0.87-0.04
			c-0.23-0.02-0.4-0.06-0.53-0.1c-0.13-0.04-0.21-0.1-0.25-0.17c-0.04-0.07-0.06-0.15-0.04-0.25l3.8-18.94
			c0.02-0.1,0.06-0.18,0.13-0.26c0.07-0.08,0.18-0.14,0.33-0.19c0.15-0.05,0.35-0.1,0.58-0.12c0.23-0.03,0.53-0.04,0.88-0.04
			s0.65,0.01,0.87,0.04c0.22,0.03,0.4,0.07,0.52,0.12c0.13,0.05,0.21,0.12,0.24,0.19c0.04,0.08,0.05,0.16,0.03,0.26l-2.24,11.27
			l4.81-5.14c0.1-0.12,0.2-0.21,0.31-0.29c0.11-0.08,0.25-0.15,0.43-0.19c0.17-0.05,0.38-0.08,0.63-0.1
			c0.24-0.02,0.55-0.03,0.91-0.03c0.36,0,0.65,0.01,0.89,0.03c0.24,0.02,0.43,0.05,0.56,0.09c0.13,0.04,0.23,0.1,0.28,0.17
			C361.54,431.83,361.57,431.91,361.57,432z"/>
		<path class="st1" d="M365.29,444.89c-0.02,0.1-0.07,0.18-0.14,0.25c-0.07,0.07-0.18,0.13-0.33,0.18
			c-0.15,0.05-0.34,0.08-0.58,0.11c-0.24,0.02-0.53,0.04-0.88,0.04c-0.36,0-0.65-0.01-0.87-0.04c-0.22-0.02-0.4-0.06-0.53-0.11
			c-0.13-0.05-0.21-0.11-0.25-0.18c-0.04-0.07-0.05-0.16-0.03-0.25l2.55-12.81c0.02-0.1,0.07-0.18,0.14-0.25
			c0.07-0.07,0.18-0.13,0.33-0.19c0.15-0.05,0.34-0.09,0.58-0.12c0.23-0.03,0.53-0.04,0.88-0.04s0.65,0.02,0.87,0.04
			c0.22,0.03,0.4,0.07,0.53,0.12c0.13,0.05,0.21,0.12,0.25,0.19c0.04,0.07,0.05,0.16,0.03,0.25L365.29,444.89z M369.01,427.74
			c-0.07,0.35-0.16,0.66-0.27,0.9c-0.12,0.25-0.27,0.44-0.46,0.59c-0.19,0.15-0.43,0.25-0.71,0.32c-0.28,0.06-0.62,0.09-1.04,0.09
			c-0.4,0-0.73-0.03-0.99-0.09c-0.25-0.06-0.44-0.17-0.58-0.32c-0.13-0.15-0.2-0.35-0.22-0.59c-0.02-0.24,0.01-0.54,0.09-0.9
			c0.07-0.35,0.16-0.64,0.27-0.88c0.12-0.24,0.27-0.44,0.46-0.59c0.19-0.15,0.43-0.26,0.71-0.33c0.28-0.07,0.62-0.1,1.04-0.1
			c0.4,0,0.73,0.03,0.99,0.1c0.25,0.07,0.44,0.18,0.58,0.33c0.13,0.15,0.2,0.35,0.21,0.59C369.1,427.1,369.07,427.39,369.01,427.74z
			"/>
	</g>
	<g>
		<path class="st1" d="M497.84,498.25c0,0.84-0.08,1.74-0.23,2.71c-0.15,0.96-0.4,1.91-0.74,2.86c-0.34,0.95-0.79,1.85-1.35,2.71
			c-0.56,0.86-1.23,1.62-2.03,2.28c-0.79,0.66-1.73,1.18-2.8,1.58c-1.07,0.39-2.3,0.59-3.67,0.59c-1.16,0-2.19-0.13-3.07-0.39
			c-0.89-0.26-1.64-0.66-2.24-1.2c-0.61-0.54-1.07-1.21-1.38-2.03c-0.31-0.81-0.47-1.78-0.47-2.88c0-0.9,0.08-1.84,0.24-2.83
			c0.16-0.98,0.41-1.95,0.76-2.89c0.35-0.95,0.81-1.84,1.37-2.7c0.56-0.85,1.25-1.61,2.04-2.26s1.73-1.17,2.79-1.55
			c1.06-0.38,2.27-0.57,3.63-0.57c1.16,0,2.18,0.13,3.07,0.39c0.89,0.26,1.63,0.67,2.24,1.21c0.6,0.54,1.06,1.23,1.37,2.05
			C497.68,496.16,497.84,497.13,497.84,498.25z M493.84,498.6c0-0.58-0.06-1.12-0.19-1.59c-0.13-0.48-0.34-0.88-0.63-1.2
			c-0.29-0.33-0.66-0.58-1.13-0.75c-0.46-0.18-1.03-0.27-1.7-0.27c-0.84,0-1.57,0.16-2.2,0.48c-0.63,0.32-1.18,0.74-1.65,1.26
			c-0.47,0.52-0.86,1.11-1.18,1.78c-0.31,0.67-0.57,1.34-0.76,2.03c-0.19,0.69-0.33,1.35-0.41,2.01c-0.08,0.65-0.12,1.22-0.12,1.71
			c0,0.59,0.06,1.13,0.19,1.6c0.13,0.47,0.34,0.87,0.63,1.19c0.29,0.32,0.67,0.57,1.14,0.74c0.46,0.17,1.04,0.26,1.72,0.26
			c0.82,0,1.55-0.16,2.19-0.48c0.63-0.31,1.18-0.73,1.65-1.24c0.46-0.51,0.85-1.1,1.17-1.76c0.31-0.66,0.57-1.33,0.76-2.01
			c0.19-0.68,0.33-1.35,0.41-2C493.8,499.69,493.84,499.11,493.84,498.6z"/>
		<path class="st1" d="M510.56,510.66c-0.17,0.87-0.44,1.63-0.81,2.28c-0.37,0.65-0.85,1.19-1.44,1.63
			c-0.6,0.44-1.32,0.76-2.17,0.99c-0.85,0.22-1.84,0.33-2.97,0.33c-0.82,0-1.55-0.06-2.19-0.19c-0.65-0.13-1.19-0.29-1.62-0.5
			c-0.15-0.08-0.26-0.16-0.31-0.26c-0.06-0.1-0.09-0.23-0.09-0.4c0-0.06,0-0.15,0.02-0.29c0.01-0.14,0.03-0.28,0.06-0.45
			c0.04-0.16,0.08-0.33,0.12-0.51c0.05-0.18,0.11-0.33,0.18-0.47c0.08-0.14,0.15-0.25,0.24-0.35c0.09-0.09,0.19-0.14,0.3-0.14
			c0.12,0,0.26,0.04,0.43,0.12s0.39,0.17,0.67,0.27c0.28,0.1,0.62,0.19,1.04,0.27c0.41,0.08,0.92,0.12,1.53,0.12
			c0.49,0,0.93-0.04,1.31-0.12c0.39-0.08,0.73-0.2,1.01-0.37c0.29-0.17,0.52-0.39,0.7-0.66c0.18-0.27,0.31-0.6,0.38-0.99
			c0.12-0.62,0.25-1.15,0.37-1.57c0.13-0.42,0.24-0.77,0.35-1.04c-0.17,0.32-0.42,0.63-0.74,0.94c-0.32,0.31-0.69,0.59-1.1,0.84
			c-0.41,0.25-0.86,0.45-1.33,0.6c-0.47,0.15-0.95,0.22-1.43,0.22c-0.74,0-1.36-0.13-1.86-0.38c-0.5-0.25-0.92-0.59-1.23-1.04
			c-0.32-0.44-0.54-0.96-0.69-1.55c-0.14-0.59-0.21-1.24-0.21-1.93c0-0.62,0.06-1.3,0.17-2.01c0.12-0.72,0.3-1.43,0.54-2.15
			c0.24-0.71,0.55-1.39,0.93-2.04c0.37-0.65,0.82-1.23,1.35-1.73c0.52-0.5,1.12-0.91,1.8-1.2c0.68-0.3,1.43-0.45,2.28-0.45
			c0.8,0,1.5,0.17,2.12,0.5c0.61,0.33,1.15,0.81,1.61,1.45l0.23-1.14c0.04-0.2,0.19-0.35,0.45-0.43c0.27-0.09,0.69-0.13,1.28-0.13
			c0.29,0,0.53,0.01,0.72,0.04c0.19,0.02,0.35,0.06,0.46,0.1c0.11,0.04,0.18,0.1,0.22,0.17c0.04,0.07,0.05,0.15,0.03,0.25
			L510.56,510.66z M508.89,501.14c-0.34-0.53-0.71-0.92-1.12-1.19c-0.41-0.26-0.88-0.4-1.42-0.4c-0.4,0-0.77,0.1-1.1,0.29
			c-0.33,0.19-0.63,0.45-0.89,0.77c-0.27,0.32-0.5,0.69-0.69,1.11c-0.2,0.42-0.36,0.86-0.49,1.32c-0.13,0.46-0.23,0.92-0.29,1.38
			c-0.06,0.46-0.09,0.9-0.09,1.31c0,0.33,0.03,0.62,0.09,0.89c0.06,0.27,0.15,0.5,0.27,0.68c0.12,0.19,0.27,0.33,0.46,0.43
			c0.19,0.1,0.41,0.15,0.68,0.15c0.42,0,0.85-0.13,1.3-0.38c0.44-0.25,0.85-0.6,1.24-1.04c0.39-0.44,0.72-0.95,1.01-1.53
			c0.29-0.58,0.51-1.21,0.64-1.87L508.89,501.14z M512.71,490.88c0,0.1-0.02,0.27-0.07,0.51c-0.04,0.25-0.12,0.52-0.24,0.83
			c-0.12,0.31-0.29,0.63-0.52,0.96c-0.23,0.33-0.51,0.63-0.87,0.91c-0.36,0.27-0.79,0.5-1.31,0.67c-0.52,0.17-1.13,0.26-1.84,0.26
			c-0.73,0-1.33-0.08-1.81-0.23s-0.85-0.37-1.13-0.63c-0.28-0.27-0.47-0.58-0.58-0.93c-0.11-0.35-0.16-0.71-0.16-1.09
			c0-0.11,0-0.23,0.01-0.37s0.02-0.29,0.04-0.43c0.02-0.14,0.04-0.26,0.08-0.37c0.03-0.11,0.07-0.19,0.12-0.24
			c0.09-0.08,0.22-0.14,0.4-0.17c0.18-0.04,0.42-0.06,0.74-0.06c0.23,0,0.42,0.01,0.57,0.03c0.15,0.02,0.27,0.05,0.35,0.09
			c0.09,0.04,0.14,0.08,0.17,0.14s0.04,0.11,0.04,0.18c0,0.09-0.01,0.18-0.02,0.29c-0.01,0.11-0.02,0.22-0.02,0.32
			c0,0.18,0.02,0.35,0.07,0.49c0.05,0.14,0.13,0.27,0.23,0.37c0.11,0.11,0.25,0.19,0.43,0.25c0.18,0.06,0.4,0.09,0.67,0.09
			c0.27,0,0.52-0.03,0.75-0.1c0.23-0.07,0.44-0.17,0.63-0.31c0.19-0.14,0.35-0.31,0.48-0.52c0.14-0.21,0.24-0.46,0.32-0.75
			c0.04-0.1,0.08-0.18,0.14-0.25c0.05-0.07,0.13-0.13,0.22-0.17c0.1-0.04,0.22-0.08,0.38-0.1c0.15-0.02,0.35-0.04,0.59-0.04
			c0.25,0,0.45,0.01,0.6,0.03c0.15,0.02,0.26,0.04,0.35,0.07c0.08,0.03,0.14,0.07,0.16,0.12
			C512.69,490.77,512.71,490.82,512.71,490.88z"/>
		<path class="st1" d="M526.22,510.16c-0.02,0.1-0.06,0.18-0.12,0.25c-0.06,0.07-0.16,0.13-0.29,0.17c-0.13,0.04-0.29,0.08-0.5,0.1
			c-0.2,0.02-0.45,0.04-0.75,0.04c-0.3,0-0.54-0.01-0.73-0.04c-0.19-0.02-0.33-0.06-0.44-0.1c-0.11-0.04-0.18-0.1-0.21-0.17
			c-0.03-0.07-0.04-0.15-0.01-0.25l0.39-2.09c-0.19,0.34-0.46,0.67-0.79,1.01c-0.34,0.34-0.72,0.65-1.16,0.94
			c-0.44,0.28-0.91,0.51-1.42,0.68c-0.51,0.17-1.03,0.26-1.57,0.26c-0.67,0-1.24-0.1-1.7-0.28c-0.46-0.19-0.84-0.44-1.12-0.76
			c-0.28-0.32-0.49-0.71-0.62-1.16c-0.13-0.45-0.19-0.94-0.19-1.47c0-0.33,0.02-0.66,0.06-1c0.04-0.34,0.1-0.69,0.17-1.04l1.58-7.96
			c0.02-0.1,0.07-0.18,0.14-0.25c0.07-0.07,0.18-0.13,0.33-0.17c0.15-0.04,0.34-0.08,0.58-0.1c0.24-0.02,0.53-0.04,0.88-0.04
			c0.35,0,0.64,0.01,0.87,0.04c0.22,0.02,0.4,0.06,0.52,0.1c0.12,0.04,0.21,0.1,0.25,0.17c0.04,0.07,0.05,0.15,0.04,0.25l-1.53,7.71
			c-0.05,0.21-0.08,0.43-0.11,0.66c-0.02,0.23-0.04,0.45-0.04,0.66c0,0.23,0.02,0.44,0.06,0.63c0.04,0.19,0.11,0.35,0.21,0.48
			c0.1,0.14,0.22,0.23,0.37,0.3c0.15,0.07,0.33,0.1,0.54,0.1c0.39,0,0.8-0.13,1.23-0.38c0.43-0.25,0.83-0.6,1.22-1.05
			c0.39-0.44,0.73-0.97,1.03-1.58c0.3-0.61,0.53-1.27,0.68-1.98l1.09-5.56c0.01-0.1,0.05-0.18,0.13-0.25
			c0.08-0.07,0.19-0.13,0.34-0.17c0.15-0.04,0.34-0.08,0.58-0.1c0.24-0.02,0.53-0.04,0.88-0.04c0.36,0,0.65,0.01,0.87,0.04
			s0.4,0.06,0.53,0.1c0.13,0.04,0.21,0.1,0.25,0.17c0.04,0.07,0.05,0.15,0.03,0.25L526.22,510.16z"/>
		<path class="st1" d="M540.97,497.34c0,0.07-0.01,0.17-0.03,0.32c-0.02,0.14-0.04,0.3-0.07,0.46c-0.03,0.16-0.06,0.32-0.09,0.48
			c-0.03,0.15-0.06,0.27-0.08,0.36c-0.07,0.25-0.16,0.47-0.29,0.68c-0.12,0.2-0.3,0.43-0.52,0.69l-6.07,7.41h4.89
			c0.14,0,0.25,0.05,0.31,0.14c0.06,0.1,0.1,0.25,0.1,0.46c0,0.08-0.01,0.19-0.02,0.34c-0.02,0.15-0.04,0.31-0.07,0.48
			s-0.08,0.35-0.13,0.52c-0.05,0.17-0.12,0.33-0.19,0.48c-0.07,0.14-0.15,0.26-0.25,0.35c-0.1,0.09-0.2,0.14-0.31,0.14h-8.48
			c-0.18,0-0.32-0.06-0.42-0.17c-0.1-0.11-0.14-0.28-0.14-0.51c0-0.08,0.01-0.18,0.03-0.31c0.02-0.13,0.04-0.26,0.07-0.4
			c0.03-0.14,0.06-0.27,0.09-0.4c0.03-0.13,0.06-0.23,0.09-0.31c0.03-0.11,0.06-0.21,0.09-0.3c0.03-0.1,0.08-0.19,0.14-0.3
			c0.06-0.11,0.14-0.22,0.23-0.35c0.09-0.12,0.21-0.27,0.35-0.43l6.13-7.42h-4.37c-0.13,0-0.24-0.05-0.31-0.14
			c-0.07-0.1-0.11-0.26-0.11-0.5c0-0.1,0.01-0.22,0.02-0.37c0.01-0.15,0.04-0.31,0.07-0.47c0.04-0.16,0.08-0.33,0.13-0.5
			c0.05-0.17,0.12-0.33,0.19-0.46c0.08-0.14,0.16-0.24,0.26-0.33c0.1-0.08,0.2-0.13,0.31-0.13h7.93c0.2,0,0.34,0.05,0.41,0.14
			C540.93,497.05,540.97,497.17,540.97,497.34z"/>
	</g>
	<g>
		<path class="st1" d="M607.99,589.79c0,0.09-0.01,0.21-0.03,0.38c-0.02,0.16-0.05,0.34-0.09,0.53c-0.04,0.19-0.08,0.39-0.14,0.58
			s-0.13,0.37-0.2,0.53c-0.08,0.16-0.16,0.29-0.25,0.39c-0.09,0.1-0.19,0.15-0.31,0.15c-0.1,0-0.25-0.03-0.47-0.08
			c-0.22-0.05-0.47-0.14-0.77-0.26c-0.3-0.12-0.62-0.28-0.99-0.47c-0.36-0.19-0.73-0.43-1.1-0.71c-0.38-0.28-0.75-0.6-1.12-0.96
			c-0.37-0.36-0.72-0.77-1.05-1.23c-0.51,0.23-1.07,0.41-1.68,0.52c-0.61,0.12-1.29,0.18-2.03,0.18c-1.16,0-2.19-0.13-3.08-0.39
			c-0.89-0.26-1.64-0.66-2.24-1.2c-0.6-0.54-1.06-1.21-1.37-2.03c-0.31-0.81-0.47-1.78-0.47-2.88c0-0.9,0.08-1.84,0.24-2.83
			c0.15-0.98,0.41-1.95,0.76-2.89c0.35-0.95,0.81-1.84,1.37-2.7c0.56-0.85,1.24-1.61,2.04-2.26c0.8-0.65,1.73-1.17,2.79-1.55
			c1.06-0.38,2.27-0.57,3.63-0.57c1.15,0,2.17,0.13,3.07,0.39s1.64,0.67,2.24,1.21s1.06,1.23,1.37,2.05
			c0.31,0.83,0.47,1.8,0.47,2.91c0,0.54-0.03,1.12-0.1,1.73c-0.06,0.6-0.16,1.21-0.29,1.83c-0.14,0.61-0.31,1.23-0.53,1.85
			c-0.22,0.62-0.47,1.22-0.77,1.81c-0.31,0.59-0.66,1.15-1.07,1.68c-0.41,0.53-0.87,1.03-1.39,1.5c0.45,0.47,0.87,0.83,1.25,1.09
			c0.39,0.26,0.72,0.46,1.01,0.61c0.29,0.15,0.54,0.26,0.73,0.33c0.2,0.07,0.33,0.13,0.4,0.2c0.07,0.07,0.11,0.14,0.13,0.2
			C607.99,589.54,607.99,589.65,607.99,589.79z M604.59,577c0-0.58-0.07-1.12-0.19-1.59c-0.13-0.48-0.34-0.88-0.62-1.2
			c-0.29-0.33-0.67-0.58-1.14-0.75c-0.47-0.18-1.04-0.27-1.7-0.27c-0.83,0-1.57,0.16-2.21,0.48c-0.64,0.32-1.19,0.74-1.66,1.26
			c-0.46,0.52-0.86,1.11-1.17,1.78c-0.32,0.67-0.57,1.34-0.76,2.03c-0.19,0.69-0.33,1.35-0.41,2.01c-0.08,0.65-0.12,1.22-0.12,1.71
			c0,0.59,0.06,1.13,0.19,1.6c0.13,0.47,0.34,0.87,0.63,1.19c0.29,0.32,0.67,0.57,1.14,0.74c0.46,0.17,1.03,0.26,1.7,0.26
			c0.83,0,1.55-0.16,2.19-0.48c0.63-0.31,1.18-0.73,1.65-1.24c0.47-0.51,0.86-1.1,1.18-1.76c0.32-0.66,0.58-1.33,0.77-2.01
			c0.19-0.68,0.33-1.35,0.41-2C604.55,578.09,604.59,577.51,604.59,577z"/>
		<path class="st1" d="M609.72,585.72c0-0.69,0.16-1.31,0.47-1.86c0.31-0.55,0.8-1.02,1.45-1.42c0.66-0.4,1.49-0.7,2.5-0.91
			c1.01-0.21,2.22-0.32,3.62-0.32h1.32c0.04-0.22,0.07-0.44,0.09-0.66c0.02-0.21,0.03-0.41,0.03-0.6c0-0.77-0.2-1.36-0.6-1.75
			c-0.4-0.39-1.05-0.59-1.94-0.59c-0.63,0-1.2,0.05-1.71,0.14c-0.5,0.09-0.95,0.19-1.32,0.3c-0.38,0.11-0.69,0.21-0.94,0.3
			c-0.25,0.09-0.43,0.14-0.55,0.14s-0.19-0.04-0.24-0.1s-0.07-0.17-0.07-0.32c0-0.16,0.01-0.35,0.04-0.56
			c0.03-0.21,0.07-0.42,0.12-0.63c0.05-0.21,0.12-0.4,0.2-0.58c0.08-0.18,0.17-0.32,0.28-0.42c0.12-0.12,0.33-0.23,0.63-0.35
			s0.68-0.22,1.11-0.32c0.43-0.1,0.92-0.17,1.45-0.24c0.54-0.06,1.08-0.1,1.64-0.1c0.92,0,1.72,0.1,2.41,0.29
			c0.68,0.19,1.26,0.48,1.72,0.88c0.46,0.39,0.81,0.89,1.04,1.5s0.35,1.33,0.35,2.17c0,0.64-0.06,1.33-0.18,2.07
			c-0.12,0.73-0.31,1.46-0.58,2.17s-0.61,1.4-1.04,2.05c-0.42,0.65-0.93,1.23-1.53,1.72c-0.6,0.49-1.29,0.89-2.08,1.19
			c-0.79,0.3-1.68,0.45-2.69,0.45c-0.87,0-1.62-0.1-2.25-0.31c-0.63-0.21-1.14-0.48-1.55-0.82s-0.7-0.73-0.9-1.16
			C609.82,586.63,609.72,586.18,609.72,585.72z M613.28,585.45c0,0.38,0.15,0.7,0.45,0.96c0.3,0.25,0.74,0.38,1.32,0.38
			c0.48,0,0.91-0.09,1.29-0.26c0.38-0.17,0.71-0.41,1-0.7c0.29-0.29,0.53-0.64,0.74-1.04c0.21-0.4,0.37-0.82,0.5-1.28h-1.21
			c-0.77,0-1.41,0.05-1.93,0.15c-0.52,0.1-0.94,0.24-1.25,0.41c-0.32,0.17-0.55,0.38-0.69,0.61
			C613.35,584.93,613.28,585.18,613.28,585.45z"/>
		<path class="st1" d="M638.4,579.78c0,0.63-0.06,1.31-0.17,2.03s-0.29,1.43-0.53,2.15c-0.24,0.71-0.54,1.39-0.92,2.04
			c-0.37,0.65-0.82,1.23-1.35,1.73c-0.53,0.5-1.13,0.9-1.81,1.2c-0.68,0.3-1.43,0.45-2.27,0.45c-0.81,0-1.52-0.16-2.14-0.48
			c-0.62-0.32-1.15-0.8-1.6-1.44l-0.22,1.09c-0.04,0.2-0.19,0.35-0.45,0.44c-0.27,0.09-0.69,0.14-1.28,0.14
			c-0.58,0-0.97-0.05-1.17-0.14c-0.21-0.1-0.29-0.24-0.25-0.43l3.78-18.92c0.02-0.1,0.06-0.18,0.13-0.26
			c0.07-0.08,0.18-0.14,0.33-0.19c0.15-0.05,0.35-0.1,0.58-0.12c0.23-0.03,0.53-0.04,0.89-0.04c0.35,0,0.64,0.01,0.86,0.04
			c0.22,0.03,0.39,0.07,0.52,0.12c0.13,0.05,0.21,0.12,0.25,0.19c0.04,0.08,0.05,0.16,0.03,0.26l-1.02,5.15
			c-0.05,0.22-0.1,0.45-0.16,0.7c-0.06,0.24-0.12,0.49-0.19,0.73c-0.07,0.24-0.14,0.47-0.22,0.7c-0.07,0.23-0.14,0.43-0.21,0.6
			c0.17-0.31,0.42-0.62,0.74-0.93c0.32-0.31,0.69-0.59,1.1-0.84c0.41-0.25,0.86-0.45,1.33-0.61c0.48-0.15,0.95-0.23,1.43-0.23
			c0.55,0,1.02,0.07,1.42,0.21c0.4,0.14,0.75,0.33,1.05,0.57c0.3,0.24,0.54,0.52,0.73,0.85c0.19,0.33,0.35,0.67,0.46,1.03
			c0.12,0.36,0.19,0.73,0.24,1.12C638.38,579.04,638.4,579.41,638.4,579.78z M634.68,580.14c0-0.24-0.02-0.49-0.05-0.75
			s-0.11-0.49-0.22-0.71c-0.11-0.21-0.26-0.38-0.45-0.52c-0.19-0.13-0.45-0.2-0.76-0.2c-0.43,0-0.87,0.13-1.3,0.38
			c-0.44,0.25-0.85,0.6-1.23,1.04s-0.72,0.95-1.02,1.54c-0.3,0.59-0.51,1.21-0.63,1.87l-0.4,1.94c0.34,0.53,0.71,0.92,1.12,1.17
			s0.88,0.38,1.42,0.38c0.39,0,0.74-0.09,1.07-0.28c0.33-0.19,0.62-0.43,0.88-0.74c0.26-0.31,0.49-0.67,0.69-1.08s0.36-0.85,0.5-1.3
			c0.13-0.46,0.23-0.92,0.3-1.39C634.64,581.03,634.68,580.58,634.68,580.14z"/>
		<path class="st1" d="M639.75,585.72c0-0.69,0.15-1.31,0.47-1.86c0.31-0.55,0.79-1.02,1.45-1.42c0.66-0.4,1.49-0.7,2.5-0.91
			c1.01-0.21,2.22-0.32,3.62-0.32h1.32c0.04-0.22,0.07-0.44,0.08-0.66c0.02-0.21,0.03-0.41,0.03-0.6c0-0.77-0.2-1.36-0.61-1.75
			c-0.4-0.39-1.05-0.59-1.94-0.59c-0.63,0-1.2,0.05-1.71,0.14c-0.5,0.09-0.94,0.19-1.32,0.3c-0.38,0.11-0.69,0.21-0.94,0.3
			s-0.43,0.14-0.55,0.14s-0.2-0.04-0.24-0.1c-0.05-0.07-0.07-0.17-0.07-0.32c0-0.16,0.02-0.35,0.04-0.56
			c0.03-0.21,0.07-0.42,0.12-0.63c0.05-0.21,0.12-0.4,0.2-0.58c0.08-0.18,0.18-0.32,0.28-0.42c0.12-0.12,0.33-0.23,0.63-0.35
			c0.31-0.12,0.68-0.22,1.11-0.32c0.43-0.1,0.92-0.17,1.45-0.24c0.54-0.06,1.08-0.1,1.64-0.1c0.92,0,1.72,0.1,2.41,0.29
			c0.69,0.19,1.26,0.48,1.72,0.88c0.46,0.39,0.81,0.89,1.04,1.5s0.35,1.33,0.35,2.17c0,0.64-0.06,1.33-0.18,2.07
			c-0.12,0.73-0.31,1.46-0.58,2.17c-0.27,0.72-0.61,1.4-1.04,2.05c-0.42,0.65-0.93,1.23-1.53,1.72c-0.6,0.49-1.29,0.89-2.08,1.19
			c-0.79,0.3-1.68,0.45-2.69,0.45c-0.87,0-1.62-0.1-2.25-0.31c-0.63-0.21-1.14-0.48-1.55-0.82s-0.7-0.73-0.9-1.16
			C639.85,586.63,639.75,586.18,639.75,585.72z M643.31,585.45c0,0.38,0.15,0.7,0.45,0.96c0.3,0.25,0.74,0.38,1.32,0.38
			c0.48,0,0.91-0.09,1.29-0.26c0.38-0.17,0.71-0.41,1-0.7c0.29-0.29,0.54-0.64,0.74-1.04c0.2-0.4,0.37-0.82,0.5-1.28h-1.21
			c-0.77,0-1.41,0.05-1.93,0.15c-0.52,0.1-0.93,0.24-1.25,0.41c-0.32,0.17-0.55,0.38-0.69,0.61
			C643.38,584.93,643.31,585.18,643.31,585.45z"/>
		<path class="st1" d="M657.88,588.54c-0.02,0.1-0.07,0.18-0.14,0.25c-0.07,0.07-0.18,0.13-0.32,0.18
			c-0.14,0.05-0.34,0.08-0.58,0.11c-0.24,0.02-0.53,0.04-0.88,0.04c-0.37,0-0.66-0.01-0.89-0.04c-0.23-0.02-0.4-0.06-0.53-0.11
			c-0.12-0.05-0.21-0.11-0.25-0.18c-0.04-0.07-0.05-0.16-0.04-0.25l3.79-18.92c0.02-0.1,0.06-0.18,0.13-0.26
			c0.07-0.08,0.18-0.14,0.33-0.19c0.15-0.05,0.35-0.1,0.58-0.12c0.23-0.03,0.53-0.04,0.88-0.04s0.64,0.01,0.87,0.04
			c0.23,0.03,0.4,0.07,0.53,0.12c0.12,0.05,0.2,0.12,0.24,0.19c0.04,0.08,0.05,0.16,0.03,0.26L657.88,588.54z"/>
		<path class="st1" d="M661.47,585.72c0-0.69,0.16-1.31,0.47-1.86c0.31-0.55,0.8-1.02,1.45-1.42c0.66-0.4,1.49-0.7,2.5-0.91
			c1.01-0.21,2.22-0.32,3.62-0.32h1.32c0.04-0.22,0.07-0.44,0.09-0.66c0.02-0.21,0.03-0.41,0.03-0.6c0-0.77-0.2-1.36-0.6-1.75
			c-0.4-0.39-1.05-0.59-1.94-0.59c-0.63,0-1.2,0.05-1.71,0.14c-0.5,0.09-0.95,0.19-1.32,0.3c-0.38,0.11-0.69,0.21-0.94,0.3
			c-0.25,0.09-0.43,0.14-0.55,0.14s-0.19-0.04-0.24-0.1s-0.07-0.17-0.07-0.32c0-0.16,0.01-0.35,0.04-0.56
			c0.03-0.21,0.07-0.42,0.12-0.63c0.05-0.21,0.12-0.4,0.2-0.58c0.08-0.18,0.17-0.32,0.28-0.42c0.12-0.12,0.33-0.23,0.63-0.35
			s0.68-0.22,1.11-0.32c0.43-0.1,0.92-0.17,1.45-0.24c0.54-0.06,1.08-0.1,1.64-0.1c0.92,0,1.72,0.1,2.41,0.29
			c0.68,0.19,1.26,0.48,1.72,0.88s0.81,0.89,1.04,1.5s0.35,1.33,0.35,2.17c0,0.64-0.06,1.33-0.18,2.07
			c-0.12,0.73-0.31,1.46-0.58,2.17c-0.27,0.72-0.61,1.4-1.04,2.05c-0.42,0.65-0.93,1.23-1.53,1.72c-0.6,0.49-1.29,0.89-2.08,1.19
			c-0.79,0.3-1.68,0.45-2.69,0.45c-0.87,0-1.62-0.1-2.25-0.31c-0.63-0.21-1.14-0.48-1.55-0.82s-0.7-0.73-0.9-1.16
			C661.57,586.63,661.47,586.18,661.47,585.72z M665.02,585.45c0,0.38,0.15,0.7,0.45,0.96c0.3,0.25,0.74,0.38,1.32,0.38
			c0.48,0,0.91-0.09,1.29-0.26c0.38-0.17,0.71-0.41,1-0.7c0.29-0.29,0.53-0.64,0.74-1.04c0.21-0.4,0.37-0.82,0.5-1.28h-1.21
			c-0.77,0-1.41,0.05-1.93,0.15c-0.52,0.1-0.94,0.24-1.25,0.41c-0.32,0.17-0.55,0.38-0.69,0.61
			C665.09,584.93,665.02,585.18,665.02,585.45z"/>
	</g>
</g>
</svg>
