<?xml version="1.0" encoding="UTF-8"?>
<svg xmlns="http://www.w3.org/2000/svg" version="1.1" viewBox="0 0 841.89 595.28">
  <defs>
    <style>
      .cls-1 {
        fill: #668d85;
      }
    </style>
  </defs>
  <!-- Generator: Adobe Illustrator 28.6.0, SVG Export Plug-In . SVG Version: 1.2.0 Build 709)  -->
  <g>
    <g id="Layer_1">
      <path id="Path_2082" class="cls-1" d="M200.06,47.08c1.63,9.97-4.53,19.94-15.77,25.57-5.94,3.45-11.27,7.86-15.77,13.05-4.69,5.46-10.34,10.01-16.68,13.42-11.42,5.43-17.04,13.05-19.95,26.65-2.72,12.87-.72,25.57,5.26,32.45,4.53,5.44,9.06,5.8,7.07.54-1.45-3.63,1.99-7.8,6.35-7.8,2.72,0,3.45,1.27,3.45,6.35,0,7.43.9,7.8,6.53,2.54,4.89-4.72,9.06-3.63,11.6,3.08,2.18,5.44,1.09,7.61-4.72,9.79-4.89,1.99-5.62,6.71-1.63,11.96,1.63,2,2.18,5.62,1.63,8.88-1.09,6.71,3.63,14.32,6.35,9.97,1.63-2.18,2.36-2.18,6.71,0,2.72,1.45,5.26,4.17,5.8,5.8.52,1.89,2.21,3.21,4.17,3.27,1.9-.02,3.66,1.03,4.53,2.72.72,1.81,3.08,2.54,6.89,2.18,4.9-.36,5.62.18,6.17,4.53.72,6.16,7.43,11.6,17.41,14.32,5.19,1.47,10.28,3.28,15.23,5.44,4.17,1.81,8.88,3.45,10.33,3.45s4.35,1.63,6.53,3.81c2.9,2.9,3.27,4.17,1.45,6.35-3.08,3.81-.36,5.44,3.45,1.99,3.81-3.44,7.61-1.09,7.61,4.35,0,1.63,1.81,4.17,3.81,5.62,3.44,2.18,3.63,3.08,1.81,6.53-1.81,3.44-1.63,4.17,1.09,5.08,12.51,3.99,14.14,6.71,7.8,12.51-1.99,1.81-3.63,4.72-3.63,6.35,0,1.81-2.9,5.44-6.35,7.98-5.44,4.17-6.35,5.98-6.35,12.51.04,4.58.59,9.14,1.63,13.6,1.27,4.35,1.09,7.98-.9,13.42-1.04,2.66-1.89,5.38-2.54,8.16,0,.36,3.44.54,7.8.36,10.7-.54,15.05,1.27,17.59,7.62,1.81,4.35,1.81,6.89,0,12.33-2.18,6.71-1.99,7.07,5.62,17.04,6.53,8.52,8.88,10.34,13.42,10.34,3.44,0,11.96,3.81,22.48,9.97,20.49,12.15,31.01,17.59,49.32,25.38,7.62,3.27,16.68,7.98,20.31,10.7,4.66,3.43,10.19,5.5,15.95,5.98,8.34.91,10.7,2.18,16.32,7.98,4.17,4.53,8.16,7.07,10.88,7.07,3.1.19,6.11,1.19,8.7,2.9,3.63,2.54,5.44,2.72,14.87.72,10.7-2.36,10.88-2.18,15.77,2.54,6.17,5.62,6.89,5.8,8.16,1.09,1.45-5.26,6.16-4.35,12.15,2.18,5.08,5.44,5.62,5.62,11.42,3.63,9.97-3.63,13.24-2.72,17.41,4.17,1.99,3.45,4.35,6.35,5.44,6.35.9,0,2.18,1.27,2.72,2.9.72,1.99-1.09,4.89-5.44,9.06-5.62,5.08-6.35,6.53-4.35,8.88,1.71,1.65,3.97,2.62,6.35,2.72,2.36,0,6.7,1.99,9.43,4.35,5.26,4.53,5.44,4.53,10.52,1.09,2.9-1.81,10.88-4.35,17.95-5.62,16.86-2.72,21.94-5.62,26.65-14.87,3.29-5.9,7.11-11.48,11.42-16.68,4.17-5.08,9.61-11.79,11.97-15.23,4.92-6.65,12.59-10.71,20.85-11.06,4.72,0,6.53-4.53,2.36-5.98-1.81-.54-1.81-1.63-.36-4.17,1.45-2.54,1.45-4.35.18-6.53-3.26-5.08,1.81-9.25,9.79-7.98,9.07,1.45,11.24-1.45,9.61-13.23-.72-5.08-1.99-9.79-2.72-10.34-.91-.54-1.63-2.72-1.63-5.08-.23-2.76-1.45-5.33-3.44-7.25-4.35-3.99-5.8-11.06-2.9-15.05,2.72-3.63,8.16-1.99,9.43,3.08.54,1.99,1.81,3.63,2.72,3.63,1.09,0,1.27-3.99.54-9.97-1.27-9.79-1.27-10.15,5.26-15.95,3.63-3.44,6.53-6.53,6.53-7.07s-4.89-3.08-10.7-5.8c-12.51-5.62-21.03-14.32-23.75-24.66-2.18-7.98-4.89-9.79-16.86-11.78-5.26-.91-7.8-2.72-11.6-8.34-5.62-8.52-8.52-8.16-19.4,1.45-8.52,7.62-12.87,7.25-26.65-2.18-7.62-5.26-10.88-6.35-18.67-6.35-5.31-.16-10.56,1.09-15.23,3.63-3.27,1.99-7.62,3.63-9.61,3.63s-5.62,1.45-8.16,3.08c-3.99,2.54-4.89,2.54-6.35.36-1.05-1.88-1.55-4.01-1.45-6.16.54-10.7-2.72-15.41-11.06-15.41-2.88-.04-5.67-.99-7.98-2.72-3.62-3.63-6.52-3.44-11.24,1.09-6.35,5.98-12.51,3.27-27.38-12.33-11.24-11.78-13.05-14.68-13.6-21.03-.36-5.98-1.45-7.98-5.98-10.33-6.53-3.63-7.61-7.8-3.63-13.96,2.9-4.35,2.9-4.72-1.63-9.43-2.9-2.75-4.59-6.52-4.72-10.51,0-5.08-.54-5.8-5.8-6.35-5.62-.54-5.98-1.09-5.98-7.25,0-5.62-1.09-7.25-6.35-10.88-4.72-3.08-6.53-5.8-6.89-10.15-.72-7.8-6.16-11.6-13.05-9.07-2.78.87-5.32,2.36-7.43,4.35-2.9,3.44-8.7,3.27-10.15-.72-1.15-2.4-2.68-4.61-4.53-6.53-3.44-3.26-3.44-5.26-.54-12.51,1.09-2.54.36-3.08-4.89-3.08-3.77.13-7.41-1.4-9.97-4.17-5.26-5.8-9.61-14.87-9.61-20.3,0-9.43-2.72-11.79-14.15-11.79s-14.87-1.99-14.87-9.43c0-5.44-4.53-9.25-13.05-11.24-5.8-1.27-6.71-5.44-1.99-8.16,2.72-1.45,2.9-2.54.9-7.8-1.04-3-1.77-6.1-2.18-9.25,0-2.72-6.35-8.52-9.25-8.52-.72,0-3.08,2.9-5.26,6.35-5.8,9.43-10.15,11.24-15.59,6.17-3.44-3.27-4.72-3.63-6.89-1.81-1.63,1.45-4.9,1.81-8.16,1.09-5.08-1.09-5.44-.72-7.43,6.35-2.36,8.7-5.98,10.88-10.88,6.35-5.62-5.08-6.53-14.32-1.99-20.12,2.72-3.63,3.26-5.62,1.99-8.16-1.63-2.72-3.26-3.08-10.51-2.18-7.43.91-9.43.36-14.32-3.81-7.96-6.69-10.14-6.15-8.87,2.01Z"/>
    </g>
  </g>
</svg>
