<?xml version="1.0" encoding="UTF-8"?>
<svg id="Layer_1" data-name="Layer 1" xmlns="http://www.w3.org/2000/svg" viewBox="0 0 500 500">
  <defs>
    <style>
      .cls-1 {
        fill: #0b7b5f;
        stroke: #fff;
        stroke-miterlimit: 10;
      }

      .cls-2 {
        fill: #f9e5af;
      }
    </style>
  </defs>
  <g>
    <path class="cls-1" d="m291.77,255.39c-.34.43-.94,1.13-1.13,1.65-.26.71-.45,1.5-.64,2.23-.08.32-.32.56-.39.86-.08.35.01.9.01,1.26,0,.83-.01,1.66,0,2.5.02.93.25,1.8.25,2.75,0,1.06,0,2.12,0,3.18,0,.98.04,1.87-.25,2.81-.15.49-.4.93-.57,1.42-.2.61-.12,1.17-.23,1.79-.12.69-.39,1.32-.45,2.01-.04.48-.16.47-.44.8-.32.37-.45.81-.8,1.19-.49.53-.78,1.05-1.08,1.71-.29.64-.68,1.29-.99,1.97-.52,1.14-.73,2.39-1,3.62-.48,2.19-1.44,3.95-2.59,5.8-.18.29-.43.58-.64.85-.39.49-.63.88-.94,1.44-.55,1.03-1.17,2.01-1.7,3.06-.98,1.94-1.75,3.99-2.55,5.98-.32.8-.71,1.63-.76,2.5-.05.88.11,1.8.02,2.68-.09.87-.37,2.03-.76,2.82-.4.8-.75,1.28-.75,2.23,0,.91-.1,1.62-.26,2.5-.08.42-.04.79.24,1,.49.38,1.27.07,1.79.29.41.17.8.51,1.23.69.6.25.89.84,1.11,1.49.36,1.03.26,2.96.11,4.02-.16,1.12-.77,2.21-.73,3.34.02.55.17.93.48,1.41.58.89,1.46.4,2.29.25.8-.14,1.43.04,2.21-.26.98-.38,1.54-.33,2.51-.25.28.02.99-.18,1.2.03.25.25.04,1.86.09,2.18.21,1.41.53,2.79.64,4.22.08.96.08,2.01.32,2.94.1.37.3.52.48.83.29.49.46,1.06.83,1.5,1.1,1.32,2.68,2.32,3.93,3.5,1.15,1.08,2.16,2.34,3.22,3.51,1.06,1.17,2.18,2.3,3.21,3.5,2.4,2.79,4.89,5.42,7.74,7.76.83.68,1.71,1.25,2.65,1.78,1.07.6,2.23.85,3.31,1.41.97.51,1.9,1.29,2.8,1.92,1.21.84,2.36,1.86,3.49,2.82.91.78,2.05,1.25,3.14,1.75,1.43.66,3.43,1.35,5.03,2.05-.47-2.43-1.19-4.77-1.16-7.27.02-1.37-.36-2.66-.21-4.03.14-1.26.54-2.45.94-3.65.3-.89.61-1.71,1.18-2.46.42-.56.94-1.01,1.31-1.61.8-1.31,1.39-2.94,1.64-4.44.23-1.39.02-2.78.29-4.18.15-.79.36-1.62.62-2.38.36-1.09.9-2,1.4-3.01.29-.57.3-1.16.53-1.74.26-.65.54-1.24.75-1.91.64-2.08,2.15-3.8,3.01-5.77.55-1.27,1.31-2.14.77-3.57-.66-1.72-1.04-3.71-.79-5.58.05-.34.13-.42.27-.76.15-.36.17-.61.29-.98.25-.8.85-1.35,1.5-1.82.31-.22.64-.42.97-.62.81-.47,1.07-.79,1.53-1.62.78-1.4,1.9-2.53,2.63-3.98.73-1.45,1.36-2.87,2.31-4.2.99-1.38,1.42-2.95,1.99-4.52.4-1.09.8-1.91.75-3.09-.05-1.2-.71-2.08-.27-3.31.8-2.23,3.03-4.37,3.02-6.84,0-1.15-.28-2.33-.45-3.47-.15-1.01-.64-1.79-.88-2.77-.25-1.02-.44-2.16-.44-3.2,0-.79.24-1.58.44-2.34.37-1.42,1.19-2.6,1.56-3.99.16-.62.39-1.33.48-1.98-.09,0-.19-.02-.32-.04-.22-.04-.37-.18-.57-.26-.21-.08-.43-.13-.63-.23-.01.05-.19-.07-.2-.02-.46-.21-.75-.47-1.09-.84-.23-.25-.16-.28-.54-.33-.72-.1-1.14.13-1.66-.5-.35-.42-.55-.3-1.08-.46-.41-.07-.68-.3-.81-.68-.05-.35-.2-.66-.43-.92-.46-.35-1.32-.21-1.86-.44-.53-.23-1.21-.63-1.65-1.01-.16-.14-.3-.35-.47-.47-.73-.51-1.52-.1-2.31.14-.63.18-1.28.31-1.9.52-1.26.43-2.08,1.66-3.19,2.36-.96.6-2.1.88-3.13,1.32-.51.22-.93.67-1.48.79-.45.1-.86.08-1.33.22-.5.14-.96.37-1.38.67-.19.18-.41.3-.66.34-.31.03-.79-.17-1.1-.2-.78-.06-1.72-.01-2.36-.52-.88-.7-2.04-1.04-2.49-2.13-.33-.81-.83-1.53-1.17-2.33-.2-.48-.14-.95-.49-1.36-.15-.18-.35-.31-.5-.51-.71-.94-1.05-2.12-1.47-3.2-.24-.64-.31-1.01-.87-1.48-.4-.34-.84-.67-1.27-.95-.48-.31-.99-.45-1.55-.54-.43-.07-.96-.07-1.36-.27-.64-.32-.5-1.23-1.17-1.5-.71-.28-1.98.42-2.64.65-.73.25-1.38.59-2.15.71-.67.11-1.36.31-2.04.26-.55-.05-1.07-.12-1.63-.13-.85-.02-1.66-.33-2.5-.47-.77-.13-1.36-.02-2.1-.35-1.05-.47-1.71-1.33-2.61-1.99-.16-.11-.32-.22-.48-.32-.14.43.09.15-.32.67-.48.61-1.22.99-1.72,1.62Z"/>
    <path class="cls-1" d="m350.42,275.54c-.2.76-.44,1.55-.44,2.34,0,1.04.19,2.18.44,3.2.24.99.73,1.77.88,2.77.17,1.13.44,2.32.45,3.47.01,2.47-2.21,4.6-3.02,6.84-.44,1.24.22,2.12.27,3.31.05,1.18-.35,2-.75,3.09-.58,1.57-1,3.14-1.99,4.52-.95,1.33-1.59,2.75-2.31,4.2-.72,1.45-1.85,2.59-2.63,3.98-.46.83-.72,1.15-1.53,1.62-.33.19-.65.39-.97.62-.66.47-1.25,1.01-1.5,1.82-.12.37-.14.62-.29.98-.14.34-.22.42-.27.76-.26,1.87.13,3.86.79,5.58.54,1.42-.21,2.29-.77,3.57-.85,1.97-2.37,3.69-3.01,5.77-.21.67-.49,1.26-.75,1.91-.23.58-.24,1.17-.53,1.74-.51,1.01-1.04,1.92-1.4,3.01-.25.76-.46,1.59-.62,2.38-.27,1.39-.06,2.79-.29,4.18-.26,1.51-.84,3.14-1.64,4.44-.37.6-.89,1.06-1.31,1.61-.57.76-.89,1.57-1.18,2.46-.4,1.2-.8,2.39-.94,3.65-.15,1.38.23,2.67.21,4.03-.03,2.5.7,4.85,1.16,7.27.3.13.59.26.86.39-.27-.13-.56-.26-.86-.39.13.67.24,1.35.31,2.03.12,1.19.2,2.44.45,3.61.07.31.53,1.55-.19,1.57-.44.01-.6-.76-.79-.98-.38-.43-1.37-.62-1.9-.81-.47-.17-.93-.25-1.38-.48-.31-.16-.49-.41-.83-.5-.8-.2-1.98.04-2.74.3-.86.29-1.42.7-1.86,1.51-.18.34-.24.55-.38.63.11.48.23,1.1.34,1.54.1.4.39.98.32,1.38-.03.18-.17.3-.21.42-.07.25,0,.44-.04.69-.08.5-.37,1-.58,1.44-.42.87-.68,1.86-.68,2.92,0,.96,0,1.91,0,2.87,0,.22-.06.55-.01.76.05.23.22.25.28.47.12.51-.01,1.23-.01,1.76v2.74c0,1.02.15,2.2-.06,3.19-.01.05-.18.19-.21.29-.05.21.01.54.01.76,0,.43-.13,1.1-.01,1.51.14.47.63.56,1.01.79.24.14.53.34.75.5.35.26.61.71,1,.9,1.12.53,2.34.58,3.42,1.28,1.19.78,2.09,1.59,2.87,2.75.4.59.85,1.07,1.36,1.53.29-.65.81-1.6,1.07-2.03.65-1.08,1.9-1.77,3.12-1.75,1.61.03,2.75-.97,4.06-1.81.66-.42,1.29-.96,2.06-1.19.73-.22,1.41-.23,2.24-.24.69,0,1.32.34,2,.56.81.26,1.36.44,2.24.44.69,0,1.44-.08,2.11.02.9.13,1.74.45,2.63.05.41-.18.79-.44,1.19-.63.29-.14.47-.11.8-.17,1.24-.2,1.77-1.13,2.51-2.01-.2-.12-.35-.21-.41-.26.06.05.21.14.41.26.07-.09.15-.18.23-.26.67-.74,1.58-1.26,2.26-1.97.33-.34.51-.78.86-1.13.47-.47.83-.81,1.44-1.07.39-.16.83-.17,1.19-.3.41-.15.38-.38.54-.75.63-1.42,1.87-2.53,2.57-3.89.46-.89.91-1.86,1.31-2.79.3-.71.43-1.39.61-2.12.19-.78,1.11-2.16.46-2.84,1.34-.76,2.63-2.13,3.55-3.34.66-.87,1.64-1.5,2.43-2.25,1.56-1.47,3.99-.35,5.86-.73.65-.13,1.51-.86,2.06-1.23.89-.6,1.56-1.44,2.42-2.08,1.21-.91,2.28-1.89,3.83-2.15,1.67-.28,2.88-1.04,4.17-2.12,1.13-.96,1.9-1.65,1.69-3.25-.21-1.61-.62-3.27-.58-4.9.03-1.23-.92-3.27.25-4.2.7-.56,1.48.03,2.14.19.48.11,1.15.17,1.64.14.99-.05,1.62-.66,2.46-1.11,1.71-.92,2.66-2.28,3.57-3.95.55-1.01,1.17-2.05,1.62-3.11.51-1.19.19-1.87-.19-3.07-.42-1.31-.66-2.66-1-3.99-.33-1.28-.82-2.41-1.35-3.62-.34-.78-.69-1.56-1.14-2.29-.41-.66-.8-1.15-1.01-1.92-.51-1.92-.83-3.91-1.12-5.87-.25-1.65.17-3.92,1.27-5.24.51-.61,1.26-1.03,1.81-1.61.36-.39.62-.83,1.05-1.15.92.91,1.5,1.95,2.03,3.19.34.81.7,1.7,1.66,1.94.78-1.09.79-2.81.99-4.1.17-1.09.44-2.06.81-3.1.35-.98.54-2.11.98-3.04.51-1.05,1.63-2.09,2.45-2.9.61-.6,1.18-1.22,1.84-1.77.58-.48.64-.82.91-1.5.06-.14.1-.27.14-.39-.17-.07-.32-.15-.59-.17.27.02.42.1.59.17.19-.59.11-.88-.6-1.4-.71-.52-1.65-1.11-2.46-1.48-.97-.44-1.99-.21-3.01-.33-.82-.1-1.6-.28-2.37-.58-.77-.29-1.26-.34-2.05-.36-1.53-.04-2.83-1.36-3.97-2.23-1.77-1.34-2.36-3.22-3.36-5.07-.52-.97-1.09-1.86-1.47-2.89-.23-.63-.22-1.24-.29-1.9-.14-1.21.23-2.18.68-3.17-.19.02-.37.03-.53.04.16,0,.34-.02.53-.04.22-.48.45-.96.65-1.49.17-.43,1.15-2.2.5-2.49-.22-.1-.75.02-1,.02-.84,0-1.67,0-2.51,0-1.89.01-3.45-.6-5.17-1.3-1-.41-1.68-1.18-2.73-1.52-.65-.2-1.36-.27-2.03-.37-.69-.1-1.16-.27-1.8-.57-1.25-.58-2.28-1.1-3.11-2.25-.84-1.15-1.96-1.89-2.61-3.23-.62-1.27-1.41-3.47-1.97-4.94-.02.02-.05.04-.07.06-.33.31-.67.65-.95,1-.32.4-.6.8-1,1.13-.34.28-.69.5-1,.82-.76.8-1.96,2.18-3.16,2.16-.68,0-1.26-.07-1.91-.16-.3-.04-.52-.16-.83-.17-.3-.01-.61,0-.91,0-.64,0-1.23.06-1.83-.17-.53-.2-1.01-.36-1.46-.71-.18-.14-.3-.37-.49-.5-.17-.12-.36-.19-.54-.29-.39-.22-.72-.52-1.12-.71-.54-.25-.79-.66-1.08-1.2-.24-.45-.56-.82-.83-1.25-.19-.31-.31-.34-.62-.5-.17-.09-.3-.11-.44-.12-.09.65-.32,1.36-.48,1.98-.37,1.39-1.2,2.57-1.56,3.99Z"/>
    <path class="cls-1" d="m99.7,174.34c.53-.1,1.06-.38,1.62-.46.45-.06.98.21,1.4.42.47.24.8.57,1.16.97.54.59,1.16,1.32,1.79,1.8.44.33.91.47,1.38.62.52.16,1.09.55,1.61.64.59.1,1.38-.39,1.88-.66.85-.46,1.59-1.17,2.39-1.72.82-.56,1.76-1.06,2.48-1.75.58-.55,1.07-1.17,1.61-1.75.79-.84,2.04-1.12,3.12-1.12.79,0,1.67.11,2.44-.06.38-.08.64-.19,1.04-.2.47,0,.83.17,1.26.23.55.08,1.38.14,1.87-.16.43-.26.77-.64,1.14-.93,1.09-.86,2.63-1.48,3.82-2.13,1.23-.67,2.64-1.09,3.75-2.01,1.71-1.42,3.95-2.14,6.04-2.78,1.22-.37,2.25-1.51,2.53-2.72.3-1.28-.1-2.37-.08-3.66,0-.75-.03-1.51,0-2.27.02-.6.21-1.14.27-1.73.12-1.21-.22-2.44.41-3.57.24-.43.48-.39.91-.63.48-.26.86-.68,1.21-1.09,1.2-1.41,2.55-2.61,4-3.75,1.34-1.05,2.23-2.3,3.79-3.07.75-.37,1.54-.87,2.34-1.14.71-.24,1.2-.65,1.86-1.06.45-.28,1.11-.49,1.42-.89.2-.27.29-.51.58-.79.94-.88,1.93-1.69,2.88-2.55.75-.67,1.31-1.53,2.03-2.24.63-.63,1.17-1.14,1.98-1.49,1.05-.45,1.79-.67,2.53-1.6.58-.74,1-1.51,1.7-2.14.75-.67,1.29-1.47,1.97-2.2.49-.52,1.11-.89,1.56-1.46.54-.69.99-1.38,1.37-2.17.56-1.18,1.67-2.29,1.63-3.65-.01-.51-.27-.82-.45-1.29-.19-.46-.22-.97-.37-1.45-.23-.75-.59-1.43-.91-2.14-.22-.5-.45-.95-.71-1.41-.09.03-.18.06-.27.07-.21.04-.39,0-.6.07-.2.06-.36.18-.58.22-.88.19-1.66-.15-2.52-.14-.58,0-1.17,0-1.75,0-1.44,0-2.96.41-4.37.05-1.06-.27-2.11-.31-3.19-.06-.82.19-1.95.3-2.65.81-.29.21-.6.47-.87.73-.53.52-1.14.91-1.65,1.44-.57.61-1.49.7-2.13,1.27-.26.23-.41.49-.63.76-.92,1.09-2.76.82-4.04.83-.51,0-1.07.02-1.55-.2-.6-.27-.89-.82-1.28-1.31-.22-.27-.39-.57-.62-.83-.09-.1-.28-.2-.34-.32-.09-.17-.1-.33-.19-.51-.46-.82-.68-1.52-.67-2.48,0-.53-.16-.99-.17-1.51-.01-.48.03-.88.13-1.33.09-.42.14-.9.21-1.33.08-.5.16-.98.16-1.49,0-.45,0-.91,0-1.36,0-.38.03-.77,0-1.14-.02-.34-.16-.65-.18-.99-.05-1.15-.38-2.37-.78-3.45-.22-.6-.53-1.26-.23-1.82-.32-.19-.5-.35-.88-.38-.25-.02-.44-.1-.68-.15-.52-.1-1.06-.1-1.58-.19-.49-.09-.91-.23-1.43-.14-.59.1-1.12.32-1.73.32-.42,0-.92.09-1.33,0-.21-.04-.37-.16-.58-.18-.19-.02-.39,0-.58,0-.4,0-.86-.07-1.25.01-.45.1-.63.19-1.08.07-.37-.1-.76-.03-1.17-.08-.19-.02-.27-.12-.43-.16-.18-.04-.35-.01-.53-.05-.17-.04-.29-.13-.54-.13-.19,0-.39.02-.58-.02-.34-.06-.66-.25-.98-.33-.35-.09-.73-.29-1.1-.45-.32-.14-.51-.32-.82-.49-.34-.19-.79-.32-1.17-.38-.36-.06-.82.12-1.17.02-.39-.12-.96-.85-1.24-1.17-.28-.33-.56-.58-.87-.88-.19-.18-.42-.31-.62-.47-.53.47-.25,1.01-.37,1.62-.07.33-.43.78-.53,1.15-.28.98-.82,1.96-.95,3-.12.96-.17,1.79-.44,2.72-.2.69-.8,1.56-1.13,2.24-.76,1.54-1.88,2.93-3.09,4.21-.6.64-1.33,1-1.96,1.59-.65.61-1,1.21-1.49,1.88-1.04,1.45-3.12,2.42-4.59,3.26-.76.44-1.58.59-2.43.93-.93.37-1.58.98-2.25,1.69-.7.75-1.29,1.51-1.97,2.26-.68.76-1.6,1.4-2.34,2.14-.48.49-1.19.9-1.6,1.48-.32.45-.36.8-.24,1.38.04.21.27.22.31.44.06.31-.01.61.02.91.06.55.29.78.4,1.29.1.49-.01,1.2-.01,1.7,0,1.37-.19,2.15-.84,3.38-1.14,2.14-3.32,3.14-4.11,5.52-.15.44-.29.64-.28,1.21,0,.53.06,1.14-.03,1.65-.04.22-.27.22-.31.44-.04.23.04.5-.02.73-.12.48-.36.99-.56,1.48-1.08,2.64-2.26,5.32-3.11,8.07-.64,2.08-.75,4.06.94,5.7.82.8,2.19.81,3.25,1.02,1.86.36,1.67,1.89,1.26,3.37-.19.7-.47,1.48-.75,2.15-.24.59-.94,1.24-.6,1.9.23.44.66.38,1.05.44.73.12,1.56.19,2.27.36.54.13.92.33,1.48.38.59.06,1.1.06,1.51.59,1.01,1.28.47,2.91.17,4.31-.27,1.23-.17,2.45-.18,3.7,0,.03,0,.06,0,.09.09.05.2.08.38.05Z"/>
    <path class="cls-1" d="m258.2,201.39c-.95,1.89-.91,4.29-1.24,6.37-.21,1.33-.88,2.67-1.31,3.96-.44,1.34-1.21,2.95-2.23,3.97-.62.62-1.51,1.07-2.2,1.61-.72.56-1.42,1.04-2.24,1.43-1.26.6-2.43,1.35-3.57,2.16-.71.51-1.54,1.01-1.95,1.81-.58,1.13-.71,2.19-1.82,2.97-.63.44-1.23.44-1.93.57-.74.13-1.26.59-1.91.94-.67.36-1.16.18-1.87.27-.54.07-.83.37-1.29.65-.98.61-2.34.73-3.43,1.15-2.3.9-4.84,2.15-7.31,2.42-1.08.12-1.73.42-2.68,1.02-.69.44-1.27,1.05-1.98,1.46-1.94,1.13-4.11,1.81-5.92,3.16-2.01,1.49-4.1,2.11-6.47,2.74-2.35.63-3.75,2.13-4.61,4.38-.75,1.95-1.59,3.91-2.63,5.73-.99,1.73-2.19,3.96-4.31,4.43-.75.17-1.2.26-1.76.84-.67.68-1.19,1.52-1.65,2.35-.85,1.51-1.25,3.12-1.46,4.84-.27,2.23-.59,4.44-.37,6.67.15,1.59.39,3.15.33,4.75-.05,1.54-.92,3.96-2.06,5.03-.66.62-2.19,1.32-1.66,2.52.34.78,1.51,1.02,2.19,1.35,1.2.58,2.51,1.58,3.48,2.5.98.94,1.9,2.08,3.33,2.35,1.02.19,2.47-.35,3.31.39.97.83,1.92,2.03,2.6,3.1.49.76.6,1.67.93,2.5.39,1.02.93,2.15,1.61,3.02.81,1.02,1.89,1.82,2.71,2.85.9,1.13,1.8,2.56,2.02,4.01.21,1.33.24,2.66.49,3.98.3,1.6.59,3.2.75,4.82.16,1.67.6,3.3.78,4.96.12,1.05.28,2,.2,3.07-.08,1.1-.25,2.16-.23,3.27.02.93-.1,1.79-.25,2.71-.2,1.23-.18,2.44-.3,3.68-.17,1.68-.46,3.4-.75,5.07-.09.54-.14,1.07-.16,1.6,1.21.69,1.73,1.29,2.78,2.34.25.25.48.52.75.75.35.3.7.41,1.12.62.33.16.66.33,1,.5.49.24.92.3,1.44.43.87.21,1.58.44,2.36,1.01.77.55,1.45,1.12,2.24,1.61.87.54,1.74,1.23,2.75,1.58.3.1.46.13.73.29.45.26.8.38,1.29.57.5.2,1.19.69,1.6,1.05.64.57,1.28,1.22,1.86,1.85.36.39.51.81.79,1.25.27.43.66.79.97,1.18.71.88,1.83,1.37,2.74,2.08.86.66,2.11,1.71,3.24,1.76,1.5.07,2.82.41,4.25.93,1.45.54,3.11.52,4.35,1.46,1.06.81,2.66.51,3.43,1.58.43.6.68,1.43,1.19,1.96.53.56,1.38.86,2.04,1.27.9.55,1.41,1.32,2.4,1.71.77.31,1.54.63,2.33.93.53.2,1.08.35,1.62.53.12-.12.23-.24.34-.35.51-.52,1.04-.83,1.68-1.11.38-.17.67-.08,1.07-.18.23-.05.25-.22.47-.28.21-.05.54.02.76.01.49,0,.79.18,1.25.26.45.08,1.04,0,1.5-.01.8-.01,1.53.29,2.23.51.49.15,1.02.18,1.51.42.46.22.8.6,1.22.88.24.16.48.23.72.38.38.23.46.36.78.68.56.57,1.28,1.01,1.78,1.64.33.41.41.63.98.44.26-.09.45-.33.74-.35.38-.02.82.35,1.13.52.84.48,1.75.84,2.6,1.11,1.05.34,2.35.12,3.27.74.6.4.96,1.19,1.38,1.74.36.49.72.86,1.11,1.31.21.25.3.5.55.71.38.34.96.53,1.39.8.4.25.96.49,1.34.75.21.15.2.35.45.45.44.17,1.34-.01,1.84-.02.64,0,1.17.08,1.78.28.55.18.45.26,1-.03.63-.32,1.13-.58,1.46-1.25.13-.27.06-1.03.21-1.21.26-.29,1.77-.04,2.14-.04,1.78,0,3.44.53,5,1.49,1.44.89,2.69,1.99,4.03,3,.63.48,1.03.79,1.78.58,1.29-.36,2.89-.41,4.04-1.11.76-.47,1.54-1.52,2.42-1.73.75-.18,1.37.33,2.03.47.31.07.46.07.57,0-.02-.07-.03-.13-.05-.2.02.06.03.13.05.2.14-.09.2-.29.38-.63.43-.81,1-1.23,1.86-1.51.76-.25,1.94-.5,2.74-.3.34.09.52.34.83.5.44.23.9.31,1.38.48.53.19,1.51.38,1.9.81.19.21.35.99.79.98.71-.02.26-1.26.19-1.57-.26-1.17-.34-2.42-.45-3.61-.07-.69-.18-1.36-.31-2.03-1.6-.7-3.6-1.38-5.03-2.05-1.08-.5-2.22-.98-3.14-1.75-1.13-.96-2.28-1.98-3.49-2.82-.9-.63-1.83-1.41-2.8-1.92-1.08-.56-2.24-.81-3.31-1.41-.94-.53-1.82-1.1-2.65-1.78-2.84-2.34-5.34-4.98-7.74-7.76-1.03-1.19-2.15-2.33-3.21-3.5-1.06-1.17-2.07-2.43-3.22-3.51-1.25-1.18-2.83-2.19-3.93-3.5-.37-.44-.53-1.01-.83-1.5-.18-.31-.39-.46-.48-.83-.24-.93-.24-1.98-.32-2.94-.11-1.43-.43-2.81-.64-4.22-.05-.33.17-1.93-.09-2.18-.21-.21-.92,0-1.2-.03-.97-.08-1.53-.13-2.51.25-.78.3-1.41.12-2.21.26-.83.15-1.71.64-2.29-.25-.31-.48-.46-.86-.48-1.41-.04-1.13.57-2.22.73-3.34.15-1.06.25-2.99-.11-4.02-.23-.65-.51-1.23-1.11-1.49-.43-.18-.82-.52-1.23-.69-.52-.22-1.29.09-1.79-.29-.28-.21-.32-.57-.24-1,.16-.88.27-1.59.26-2.5,0-.95.35-1.43.75-2.23.4-.8.67-1.95.76-2.82.09-.88-.07-1.79-.02-2.68.05-.87.44-1.7.76-2.5.8-1.99,1.57-4.04,2.55-5.98.53-1.05,1.15-2.03,1.7-3.06.3-.56.54-.95.94-1.44.22-.27.46-.56.64-.85,1.15-1.86,2.11-3.62,2.59-5.8.27-1.23.48-2.48,1-3.62.31-.68.69-1.33.99-1.97.3-.66.59-1.18,1.08-1.71.34-.37.48-.82.8-1.19.29-.33.4-.32.44-.8.06-.69.33-1.33.45-2.01.11-.63.03-1.18.23-1.79.16-.49.41-.94.57-1.42.29-.94.25-1.83.25-2.81,0-1.06,0-2.12,0-3.18,0-.95-.23-1.82-.25-2.75-.01-.83,0-1.66,0-2.5,0-.36-.09-.91-.01-1.26.07-.29.31-.54.39-.86.19-.73.38-1.52.64-2.23.19-.52.78-1.21,1.13-1.65.5-.62,1.24-1,1.72-1.62.41-.52.18-.24.32-.67-.36-.22-.73-.43-1.08-.66-.45-.29-.76-.62-1.13-.99-.55-.54-1.2-.92-1.81-1.38-.65-.48-1.27-1-1.91-1.5-.6-.47-1.17-1.04-1.89-1.32-.41-.16-1.02-.08-1.38-.36-.31-.24-.38-.58-.72-.82-.3-.2-.52-.47-.82-.66-.87-.56-1.76-1.09-2.63-1.65-.6-.38-1.05-.89-1.6-1.34-.68-.55-1.41-1-2.18-1.4-.45-.24-.83-.54-1.27-.79-.24-.14-.62-.19-.84-.35-.59-.43-.52-1.75-.69-2.44-.11-.44-.28-.79-.3-1.24-.02-.39,0-.78.01-1.17,0-.57-.18-1.07-.17-1.63.02-1.35-.02-2.69.05-4.04.06-1.07-.06-2.11-.05-3.18.01-.97-.26-1.79-.46-2.73-.12-.53-.34-1.33-.69-1.73-.49-.55-1.52-.73-2.14-1.11-.69-.42-1.34-1.03-2.15-1.18-.41-.07-.56.02-.88-.31-.18-.19-.38-.48-.5-.72-.08-.16-.12-.36-.2-.51-.08-.14-.28-.28-.31-.44-.04-.26.2-.79.38-.97.13-.12.32-.13.46-.22.26-.18.38-.47.67-.65.82-.51,1.56-.77,1.87-1.77.22-.7.25-1.84,0-2.54-.22-.61-.57-.95-1.18-1.13-.21-.06-.48-.11-.66-.24-.32-.22-.68-.38-1-.62-.25-.19-.43-.44-.68-.63-.34-.26-.72-.43-1.04-.72-.42-.38-.63-.82-.85-1.32-.24-.55-.46-1.03-.75-1.54-.21-.38-.43-.75-.66-1.13-.23-.38-.52-.56-.83-.86-.52-.51-.78-1.39-1.16-2-.16-.25-.25-.55-.41-.79-.23-.35-.54-.69-.78-1.01-.04.05-.08.1-.14.17-.48.58-.79,1.21-1.12,1.88Z"/>
    <path class="cls-1" d="m159.19,228.46c.04-.39.1-.52.19-.87.1-.38-.03-.77.04-1.14.14-.68.41-1.32.52-2,.1-.59-.07-1.19.11-1.75.19-.6.56-1.19.87-1.73.32-.57.59-1.33,1-1.86.52-.68,1.37-1.09,2.01-1.64,1.68-1.45,2.94-3.43,4.17-5.24,1-1.46,2-2.95,2.87-4.48.72-1.28.78-2.73,1.37-4.05.86-1.96,2.31-3.58,3.52-5.29.52-.73,1.04-1.45,1.59-2.14.23-.29.43-.42.62-.74.23-.38.21-.4.34-.84.07-.24.27-.49.35-.77.09-.3.04-.59.11-.89.07-.29.23-.4.27-.73.04-.36,0-.76,0-1.13,0-.3-.07-.72,0-1.01.05-.25.2-.36.27-.6.1-.33-.08-.8.5-.79.16,0,.19.2.3.23.2.05.36.05.56.06.34.02.73.05,1.06-.04.46-.13.79-.58,1.32-.48.4.08.59.45.99.54.43.1,1.01-.06,1.38-.26.78-.39,1.29-1.17,2.06-1.58.18-.1.42-.29.61-.36.15-.05.2-.16.37-.21.03,0,.24.16.31.17,1.05.02,1.97-.36,3.05-.1.57.13.74.34,1.17.64,1.29.91,2.76.97,4.26,1.25.78.14,1.5.48,2.26.65.73.17,1.49-.1,2.21.03.54.09.57.35.77.77.28.6.63.7,1.34.82,1,.17,1.93.1,2.93.16.62.04,1.12.3,1.75.28,1.32-.04,2.65-.36,3.97-.29.72.04.69.44,1.25.78.68.41,2.11.02,2.63.63.12.14.03.35.12.46.2.23.42.28.76.29.74.02,1.91-.65,2.6-.4.45.17.35.47.9.52,1,.1,2-1.08,2.69-1.62.51-.4.7-.69,1.07-1.16.73-.95,2.26-.69,3.24-1.22,2.15-1.17,4.5-2.55,5.44-4.91.32-.81.24-1.67.47-2.49.12-.43.19-1.58.5-2.14-.26-.17-.49-.31-.74-.64-.27-.36-.44-.48-.81-.72-.48-.31-.54-.78-.93-1.16-.33-.23-.68-.43-1.06-.59-.35-.33-.72-.63-1.12-.91-.49-.29-.98-.34-1.48-.54-.3-.12-.75-.25-.9-.53.02-.52.1-1.04.24-1.55.04-.25.09-.49.13-.74.17-.81.87-1.26,1.1-2.02.3-1.02-.3-2.12-.11-3.13.16-.82.59-1.82.49-2.65-.07-.57-1.03-1.32-1.53-1.48-.34-.11-.74-.05-1.11-.14-.32-.08-.63-.19-.91-.37-.96-.6-1.16-1.61-1.97-2.35-.81-.74-1.69-1.23-2.25-2.22-.33-.59-.38-.84-1.01-1.11-.51-.22-.68-.44-1.09-.8-.33-.29-.75-.33-1.11-.57-1.03-.68-1.61-1.96-2.42-2.86-.57-.63-.15-1.79-.05-2.56.14-1.14.65-2.15.65-3.3,0-1.34-.36-2.39-1.01-3.55-.2-.37-.39-.75-.57-1.14-.24-.34-.53-.63-.87-.87-.22-.23-.28-.39-.38-.67-.2-.54-.35-1.15-.99-1.31-.48-.12-.89.07-1.36-.15-.34-.16-.42-.31-.81-.35-.38-.05-.81.03-1.19.02-1.32-.02-2.65-.24-3.94-.46-.69-.12-1.19-.59-1.86-.69-.45-.07-.97-.02-1.42-.02-.3,0-.98.11-1.29.01-.32-.1-.21-.05-.3-.37-.32-1.07-1-1.95-1.93-2.57-1.01-.68-1.75-1.25-2.39-2.29-.36-.58-.8-1.15-1.1-1.77-.24-.51-.37-1-.68-1.48-.64-1-1.15-1.89-1.4-3.07-.13-.63-.25-1.48-.6-1.96-.25-.34-.44-.71-.66-1.07-.37-.63-.82-1.2-1.17-1.84-.18-.33-.38-.7-.53-1.04-.17-.4-.11-.78-.19-1.19-.09-.46-.26-.89-.34-1.36-.26-1.52-.19-3.09-.41-4.62-.06-.45-.24-.7-.35-1.12-.08-.3-.03-.62-.02-.92,0-.6-.07-1.15-.14-1.74-.07-.57,0-1,.1-1.55.14-.86.01-1.5-.89-1.79-.8-.26-1.7.27-2.48.12-.22-.04-.25-.14-.52-.14-.33,0-.55.1-.89.06-.55-.07-.85-.29-1.32-.55-.75-.42-1.96-.86-2.46,0-.09.16-.27.33-.35.5-.09.19-.08.43-.15.63-.12.34-.29.66-.42,1-.2.52-.51,1.11-.91,1.49-.42.4-.72.77-1.05,1.25-.28.41-.57.73-1.01.89.26.46.49.91.71,1.41.32.71.68,1.39.91,2.14.14.47.18.98.37,1.45.19.47.44.78.45,1.29.04,1.36-1.07,2.48-1.63,3.65-.38.79-.83,1.48-1.37,2.17-.44.57-1.07.93-1.56,1.46-.68.73-1.22,1.53-1.97,2.2-.71.63-1.12,1.41-1.7,2.14-.74.94-1.48,1.15-2.53,1.6-.81.35-1.35.86-1.98,1.49-.71.71-1.28,1.57-2.03,2.24-.95.86-1.95,1.67-2.88,2.55-.3.28-.38.53-.58.79-.3.4-.97.61-1.42.89-.65.41-1.15.82-1.86,1.06-.8.27-1.59.77-2.34,1.14-1.56.77-2.45,2.02-3.79,3.07-1.45,1.14-2.81,2.34-4,3.75-.35.41-.72.83-1.21,1.09-.44.23-.67.2-.91.63-.63,1.13-.29,2.36-.41,3.57-.06.59-.25,1.13-.27,1.73-.02.75.01,1.51,0,2.27-.02,1.29.38,2.37.08,3.66-.28,1.21-1.31,2.34-2.53,2.72-2.09.64-4.33,1.36-6.04,2.78-1.11.92-2.52,1.33-3.75,2.01-1.19.65-2.74,1.27-3.82,2.13-.37.29-.71.66-1.14.93-.49.3-1.32.24-1.87.16-.44-.06-.8-.24-1.26-.23-.4,0-.66.12-1.04.2-.77.17-1.65.06-2.44.06-1.07,0-2.33.27-3.12,1.12-.54.58-1.03,1.2-1.61,1.75-.73.69-1.67,1.19-2.48,1.75-.8.55-1.54,1.26-2.39,1.72-.5.27-1.29.76-1.88.66-.52-.09-1.09-.48-1.61-.64-.48-.15-.95-.29-1.38-.62-.63-.48-1.25-1.21-1.79-1.8-.36-.4-.69-.73-1.16-.97-.42-.21-.94-.48-1.4-.42-.56.08-1.09.36-1.62.46-.18.03-.29,0-.38-.05.02,1.31.84,2.4,1.89,3.2,1,.77,1.74,1.44,2.14,2.7.22.7.57,1.2.84,1.89.44,1.11.28,1.6.07,2.67-.15.8.03,1.6-.11,2.38-.14.75-.53,1.12-.18,1.85.5,1.04,2.16,1.67,3.01,2.4,1.25,1.07,2.08,2.81,3.46,3.78,2.02,1.41,4.13,2.75,6.2,4.1.55.36,1.15.85,1.81,1.03,1.07.3,2.19.09,3.29.45,1.4.45,2.75,1.02,3.19,2.45.25.82.56,1.57.59,2.43.03.84-.08.98.33,1.65,1.06,1.71,2.59,2.11,4.35,2.84,1.16.48,2.4.6,3.54,1.16,1.35.66,2.48,1.71,3.67,2.6,1.58,1.18,3.45,2.37,5.36,2.87,1.44.38,2.94.42,4.38.82,1.3.36,2.45.99,3.76,1.33,2.63.68,4.31,3.29,5.43,5.6.86,1.76.77,3.81,2.87,4.31-.02-.06-.05-.15-.03-.35Z"/>
    <path class="cls-1" d="m163.17,292.56c.71,0,1.41,0,2.12,0,.76,0,1.32.24,1.99.53.76.33,1.56.22,2.38.22.88,0,1.27.09,1.99.56.53.35.82.54,1.07,1.12.29.68.19,1.52.19,2.31s.06,1.59-.12,2.36c-.12.48-.08.89-.12,1.37-.05.54-.25,1-.45,1.52-.55,1.42-.28,2.78.26,4.22.36.96.8,1.99,1.33,2.85.48.78,1.19,1.41,1.73,2.13.55.74,1.09,1.86,1.31,2.74.13.54.26,1.19.31,1.75.06.67.23,1.29.25,1.95,0,.43-.01.86,0,1.29,0,.6-.16,1-.26,1.56-.04.24.05.53.03.77-.03.3-.2.53-.24.81-.08.46-.07.68-.24,1.07.2.1.75-.11.95-.19.1-.3.19-.6.24-.89-.05.29-.14.59-.24.89,0,0,0,0,0,0,.9-.36,1.58-.76,2.62-.77.71,0,1.41.01,2.12,0,.84,0,1.16.1,1.85.44.7.34,1.54.13,2.17.54.55.36.63.94.94,1.45.53.86,1.5,1.04,2.26,1.59.69.51,1.21,1.1,1.96,1.55.5.3,1.01.55,1.54.79,1.48.68,3.15,1.54,4.38,2.62.92.81,1.42,1.61,2.69,1.93.9.22,1.24.61,1.98,1.07.77.48,1.86.48,2.71.67.82.18,1.48.4,2.22.8.88.48,2.09,1.09,2.25,2.17,0-.53,0-1.05.02-1.57-.18-.1-.38-.21-.6-.32.22.11.41.22.6.32.02-.53.07-1.06.16-1.6.29-1.66.58-3.38.75-5.07.13-1.24.1-2.45.3-3.68.15-.92.27-1.78.25-2.71-.02-1.11.15-2.17.23-3.27.08-1.07-.08-2.01-.2-3.07-.18-1.67-.62-3.29-.78-4.96-.16-1.62-.45-3.22-.75-4.82-.25-1.32-.29-2.65-.49-3.98-.22-1.45-1.12-2.87-2.02-4.01-.82-1.03-1.9-1.82-2.71-2.85-.68-.86-1.22-2-1.61-3.02-.32-.83-.44-1.74-.93-2.5-.68-1.07-1.63-2.26-2.6-3.1-.85-.73-2.29-.2-3.31-.39-1.43-.26-2.34-1.41-3.33-2.35-.97-.93-2.28-1.92-3.48-2.5-.68-.33-1.85-.57-2.19-1.35-.53-1.21,1-1.9,1.66-2.52,1.14-1.08,2.01-3.49,2.06-5.03.05-1.6-.18-3.16-.33-4.75-.21-2.24.1-4.44.37-6.67.21-1.72.61-3.33,1.46-4.84.46-.83.99-1.67,1.65-2.35.56-.57,1.01-.67,1.76-.84,2.12-.47,3.32-2.7,4.31-4.43,1.04-1.81,1.88-3.78,2.63-5.73.86-2.25,2.26-3.75,4.61-4.38,2.37-.63,4.47-1.25,6.47-2.74,1.81-1.34,3.98-2.02,5.92-3.16.71-.41,1.29-1.02,1.98-1.46.95-.6,1.61-.9,2.68-1.02,2.47-.27,5.02-1.52,7.31-2.42,1.09-.43,2.46-.55,3.43-1.15.46-.28.75-.58,1.29-.65.71-.09,1.2.1,1.87-.27.65-.35,1.17-.81,1.91-.94.7-.12,1.31-.13,1.93-.57,1.11-.78,1.24-1.84,1.82-2.97.41-.8,1.24-1.3,1.95-1.81,1.13-.81,2.31-1.55,3.57-2.16.82-.4,1.53-.87,2.24-1.43.69-.54,1.58-.99,2.2-1.61,1.02-1.02,1.78-2.63,2.23-3.97.42-1.28,1.1-2.62,1.31-3.96.33-2.08.29-4.48,1.24-6.37.34-.67.65-1.3,1.12-1.88.06-.07.1-.12.14-.17,0,0-.01-.02-.02-.02-.53-.72-.84-1.47-1.17-2.29-.19-.48-.44-1.01-.5-1.49-.14-1.19-.34-2.32-.79-3.37-.14-.32-.27-.63-.42-.96-.09-.2-.08-.3-.12-.5-.02-.12-.11-.28-.13-.37-.06-.31-.03-.64-.04-.96,0-.35.12-.5.17-.83.06-.37.03-.66.15-.99.13-.36.17-.61.17-1,0-.34.03-.59-.12-.88-.09-.16-.24-.32-.33-.49-.18-.35-.39-.62-.54-.97-.11-.26-.21-.56-.33-.83-.13-.28-.14-.47-.2-.79-.03-.17-.21-.44-.26-.68-.7.12-1.35-.05-1.94-.53-.41-.47-.82-.95-1.23-1.42-.55-.96-1.04-1.94-1.48-2.96-.06-.22-.12-.45-.18-.67-.04-.5.47-1.06.3-1.54-.5.36-1.03.28-1.63.32-1.2.08-2.35.11-3.55.12-1.28,0-2.61.03-3.83.47-.49.17-.89.34-1.2.82-.57.88-.23,1.9-.96,2.72-.39.44-.94,1.09-1.48,1.35-.48.23-1,.28-1.43.63-.22.18-.62.88-1,.63-.48-.32-.24-1.34-.71-1.75-.15-.13-.29-.23-.43-.32-.31.56-.38,1.7-.5,2.14-.22.82-.14,1.68-.47,2.49-.93,2.35-3.29,3.73-5.44,4.91-.98.53-2.51.28-3.24,1.22-.36.47-.56.77-1.07,1.16-.69.54-1.69,1.71-2.69,1.62-.55-.05-.45-.35-.9-.52-.69-.26-1.86.41-2.6.4-.35,0-.57-.06-.76-.29-.09-.11,0-.32-.12-.46-.52-.61-1.94-.22-2.63-.63-.56-.34-.53-.74-1.25-.78-1.32-.07-2.65.25-3.97.29-.63.02-1.13-.25-1.75-.28-1-.06-1.93.01-2.93-.16-.71-.12-1.06-.22-1.34-.82-.2-.42-.23-.67-.77-.77-.72-.13-1.48.14-2.21-.03-.76-.17-1.48-.51-2.26-.65-1.5-.27-2.96-.34-4.26-1.25-.43-.3-.6-.5-1.17-.64-1.09-.26-2,.12-3.05.1-.07,0-.28-.18-.31-.17-.17.05-.23.15-.37.21-.19.07-.43.26-.61.36-.77.42-1.29,1.19-2.06,1.58-.38.19-.95.36-1.38.26-.39-.1-.59-.46-.99-.54-.53-.1-.86.35-1.32.48-.33.1-.72.06-1.06.04-.21-.01-.37,0-.56-.06-.1-.03-.14-.22-.3-.23-.58,0-.4.46-.5.79-.07.24-.21.35-.27.6-.06.29,0,.71,0,1.01,0,.36.05.77,0,1.13-.04.33-.2.44-.27.73-.07.29-.02.58-.11.89-.08.28-.28.53-.35.77-.12.44-.11.46-.34.84-.2.33-.4.46-.62.74-.54.69-1.07,1.41-1.59,2.14-1.22,1.72-2.66,3.33-3.52,5.29-.59,1.33-.64,2.77-1.37,4.05-.87,1.54-1.87,3.02-2.87,4.48-1.23,1.81-2.49,3.79-4.17,5.24-.64.55-1.49.96-2.01,1.64-.41.53-.69,1.3-1,1.86-.31.54-.68,1.13-.87,1.73-.18.56,0,1.15-.11,1.75-.12.68-.38,1.32-.52,2-.08.37.06.75-.04,1.14-.09.35-.15.47-.19.87-.02.21,0,.29.03.35.02,0,.03.01.05.01.54.12.81,0,1.35.35.35.22.48.58.8.8.7.48,1.57.66,2.26,1.18.55.42,1.34,1.16,1.46,1.88.15.86-.38,1.84-.35,2.74.03.96.2,1.59.96,2.24.82.69,2.22.81,2.85,1.73.52.76.11,1.64.52,2.37.39.69.96.91,1.67.94,1.47.06,2.27-.07,3.29,1.09,1.23,1.39-.14,2.4-1.32,3.04-1.41.77-3.66,1.5-4.23,3.05-.28.78-.73,1.7-.77,2.54-.04.95.19,1.87-.14,2.78-.29.8-.6.95-1.31,1.37-.53.32-.92.8-1.44,1.13-.35.23-.66.18-1,.33-1.2.54-1.32,2.24-1.7,3.37-.42,1.24-.53,2.53-.84,3.79-.53,2.12-.18,3.83.52,5.9.68,1.99-2.87,2.9-3.09,4.95-.17,1.51.39,3.03.44,4.53.05,1.45.2,3.23-.09,4.68-.53,2.59-1.48,5.02-1.73,7.64,1.03-.15,3-.5,3.56-.64.7-.17,1.52-.06,2.24-.06Z"/>
  </g>
  <g>
    <path class="cls-2" d="m112.49,130.44c0,.25-.03.49-.1.71-.07.22-.17.42-.3.61-.13.18-.29.35-.48.49-.19.14-.4.25-.63.34.19.03.36.09.51.18s.29.19.4.32c.11.13.2.29.26.47.06.18.09.38.09.61,0,.2-.03.41-.08.63s-.14.43-.26.64-.27.41-.46.59-.42.35-.69.5c-.27.14-.58.25-.93.34-.35.08-.76.12-1.23.12h-2.28c-.17,0-.3-.04-.38-.13-.08-.08-.1-.22-.06-.4l1.43-7.16c.03-.19.11-.32.23-.4.12-.08.25-.12.4-.12h1.97c.44,0,.81.03,1.13.1s.58.17.8.31.38.31.49.52c.11.21.17.46.17.75Zm-2,3.8c0-.27-.1-.48-.3-.64-.2-.16-.52-.23-.96-.23h-1.11l-.46,2.34h1.18c.3,0,.55-.04.76-.13.21-.08.38-.2.51-.33.13-.14.23-.29.3-.47s.1-.35.1-.54Zm.28-3.49c0-.12-.02-.22-.06-.31s-.11-.17-.19-.23-.19-.11-.32-.15c-.13-.03-.29-.05-.49-.05h-.91l-.43,2.13h.94c.27,0,.5-.04.69-.13s.33-.2.45-.34c.12-.14.2-.29.25-.45.05-.17.08-.32.08-.48Z"/>
    <path class="cls-2" d="m118.26,136.77c-.02.09-.08.15-.2.19-.12.04-.3.06-.56.06-.13,0-.24,0-.32-.01-.08,0-.15-.02-.2-.04-.05-.02-.08-.04-.1-.08-.01-.03-.02-.07,0-.12l.18-.91c-.06.14-.17.28-.3.43s-.3.29-.5.41-.4.22-.63.3c-.23.08-.47.12-.71.12-.34,0-.62-.06-.84-.18-.22-.12-.4-.28-.54-.48s-.23-.43-.29-.69c-.06-.26-.09-.53-.09-.81,0-.27.03-.56.08-.87s.13-.63.23-.94c.11-.31.24-.61.41-.9s.36-.55.59-.77c.23-.22.5-.4.79-.54.3-.13.64-.2,1.01-.2.35,0,.66.07.93.22.27.15.51.36.71.64l.1-.5c.02-.09.08-.15.2-.19.12-.04.3-.06.56-.06.13,0,.23,0,.32.02s.15.03.2.04c.05.02.08.04.1.08.02.03.02.07.01.11l-1.14,5.68Zm-.79-3.97c-.15-.23-.31-.41-.49-.52-.18-.12-.39-.17-.62-.17-.18,0-.34.04-.49.13-.15.08-.28.2-.39.34s-.21.31-.3.49c-.09.19-.16.38-.22.58-.06.2-.1.4-.13.61-.03.21-.04.39-.04.57,0,.13,0,.25.03.36.02.11.05.22.1.3s.12.16.2.21.19.08.32.08c.19,0,.38-.06.57-.17s.38-.26.55-.46.32-.42.45-.67c.13-.26.22-.53.28-.82l.18-.86Z"/>
    <path class="cls-2" d="m121.46,136.77s-.03.08-.06.11c-.03.03-.08.06-.14.08s-.15.04-.25.05-.23.02-.39.02c-.16,0-.29,0-.39-.02-.1-.01-.18-.03-.23-.05s-.09-.05-.11-.08c-.02-.03-.02-.07-.02-.11l1.67-8.35s.03-.08.06-.12c.03-.03.08-.06.15-.08s.15-.04.26-.05c.1-.01.23-.02.39-.02s.28,0,.38.02c.1.01.18.03.23.05s.09.05.11.08c.02.03.02.07.01.12l-1.66,8.35Z"/>
    <path class="cls-2" d="m128.32,136.77c-.02.09-.08.15-.2.19-.12.04-.3.06-.56.06-.13,0-.24,0-.32-.01-.08,0-.15-.02-.2-.04-.05-.02-.08-.04-.1-.08-.01-.03-.02-.07,0-.12l.18-.91c-.06.14-.17.28-.3.43s-.3.29-.5.41-.4.22-.63.3c-.23.08-.47.12-.71.12-.34,0-.62-.06-.84-.18-.22-.12-.4-.28-.54-.48s-.23-.43-.29-.69c-.06-.26-.09-.53-.09-.81,0-.27.03-.56.08-.87s.13-.63.23-.94c.11-.31.24-.61.41-.9s.36-.55.59-.77c.23-.22.5-.4.79-.54.3-.13.64-.2,1.01-.2.35,0,.66.07.93.22.27.15.51.36.71.64l.1-.5c.02-.09.08-.15.2-.19.12-.04.3-.06.56-.06.13,0,.23,0,.32.02s.15.03.2.04c.05.02.08.04.1.08.02.03.02.07.01.11l-1.14,5.68Zm-.79-3.97c-.15-.23-.31-.41-.49-.52-.18-.12-.39-.17-.62-.17-.18,0-.34.04-.49.13-.15.08-.28.2-.39.34s-.21.31-.3.49c-.09.19-.16.38-.22.58-.06.2-.1.4-.13.61-.03.21-.04.39-.04.57,0,.13,0,.25.03.36.02.11.05.22.1.3s.12.16.2.21.19.08.32.08c.19,0,.38-.06.57-.17s.38-.26.55-.46.32-.42.45-.67c.13-.26.22-.53.28-.82l.18-.86Z"/>
    <path class="cls-2" d="m136.11,131.08c0,.07-.03.15-.09.24-.06.09-.15.21-.28.35l-2,1.89,1.3,2.73c.04.1.07.19.09.27s.03.13.03.18c0,.05-.01.09-.04.13-.03.04-.07.07-.14.1-.07.03-.15.04-.27.05-.11.01-.25.02-.42.02s-.31,0-.41-.01c-.1,0-.18-.02-.24-.04-.06-.02-.1-.05-.13-.08-.03-.03-.05-.08-.06-.13l-1.34-2.98-.6,3s-.03.08-.07.11-.08.06-.15.08c-.07.02-.15.04-.26.05s-.23.02-.39.02-.28,0-.38-.02c-.1-.01-.18-.03-.23-.04-.06-.02-.09-.04-.11-.08-.02-.03-.02-.07-.02-.11l1.68-8.35s.03-.08.06-.12c.03-.03.08-.06.15-.08s.15-.04.26-.05c.1-.01.23-.02.39-.02s.28,0,.38.02c.1.01.18.03.23.05s.09.05.11.08c.02.03.02.07.01.12l-.99,4.97,2.12-2.27c.04-.05.09-.09.14-.13.05-.04.11-.06.19-.08.08-.02.17-.04.28-.04.11,0,.24-.01.4-.01s.29,0,.39.01.19.02.25.04c.06.02.1.04.12.07.02.03.03.06.03.1Z"/>
    <path class="cls-2" d="m136.14,135.52c0-.3.07-.58.21-.82.14-.24.35-.45.64-.63.29-.18.66-.31,1.1-.4.45-.09.98-.14,1.6-.14h.58c.02-.1.03-.19.04-.29,0-.09.01-.18.01-.26,0-.34-.09-.6-.27-.77-.18-.17-.46-.26-.86-.26-.28,0-.53.02-.75.06-.22.04-.42.08-.58.13-.17.05-.31.09-.42.13s-.19.06-.24.06-.09-.02-.11-.04-.03-.08-.03-.14c0-.07,0-.15.02-.25.01-.09.03-.19.05-.28.02-.09.05-.18.09-.26.04-.08.08-.14.12-.18.05-.05.14-.1.28-.15s.3-.1.49-.14.4-.08.64-.1.48-.04.72-.04c.41,0,.76.04,1.06.13.3.08.56.21.76.39s.36.39.46.66.15.59.15.96c0,.28-.03.59-.08.91-.05.32-.14.64-.26.96s-.27.62-.46.9-.41.54-.68.76c-.26.22-.57.39-.92.52s-.74.2-1.19.2c-.39,0-.72-.05-.99-.14-.28-.09-.5-.21-.68-.36s-.31-.32-.4-.51c-.09-.19-.13-.39-.13-.59Zm1.57-.12c0,.17.07.31.2.42.13.11.33.17.58.17.21,0,.4-.04.57-.11.17-.08.31-.18.44-.31s.24-.28.33-.46c.09-.18.16-.36.22-.56h-.53c-.34,0-.62.02-.85.07-.23.04-.41.1-.55.18s-.24.17-.3.27-.1.21-.1.33Z"/>
    <path class="cls-2" d="m148.64,132.37c0,.15,0,.3-.03.45-.02.15-.04.3-.07.46l-.7,3.5s-.03.08-.06.11-.08.06-.15.08c-.07.02-.15.04-.25.05-.1.01-.23.02-.39.02s-.28,0-.38-.02c-.1-.01-.18-.03-.23-.05s-.09-.05-.11-.08c-.02-.03-.02-.07-.02-.11l.69-3.4c.02-.1.04-.21.05-.31.01-.11.02-.2.02-.28,0-.19-.04-.35-.12-.47s-.22-.18-.41-.18c-.17,0-.35.05-.54.16-.19.11-.37.26-.53.45-.17.19-.32.41-.45.66s-.22.52-.28.8l-.51,2.56s-.03.08-.06.11c-.03.03-.08.06-.15.08-.07.02-.15.04-.26.05s-.23.02-.39.02-.28,0-.38-.02c-.1-.01-.18-.03-.23-.05-.06-.02-.09-.05-.11-.08-.02-.03-.02-.07-.01-.11l1.14-5.67s.03-.08.05-.11c.03-.03.07-.06.13-.08.06-.02.13-.03.22-.04.09-.01.2-.02.33-.02s.24,0,.32.02c.08.01.15.03.19.04.05.02.08.04.09.08.01.03.02.07,0,.11l-.18.93c.09-.15.21-.3.36-.45s.32-.29.51-.42c.19-.12.4-.22.63-.3.23-.08.46-.12.71-.12.3,0,.54.04.75.13.2.09.36.2.49.35.12.15.21.32.27.52.06.2.08.41.08.62Z"/>
  </g>
  <g>
    <path class="cls-2" d="m155.19,166.59c.12,0,.21.03.29.09.07.06.11.15.11.27,0,.07-.01.17-.04.31s-.06.27-.1.4c-.01.05-.03.1-.05.15s-.05.11-.09.17-.09.13-.15.21-.14.18-.23.29l-4.08,4.98h3.38c.06,0,.1.02.12.06.02.04.03.11.03.19,0,.03,0,.08,0,.15s-.01.14-.03.22c-.02.08-.03.17-.05.25-.02.08-.05.16-.08.23-.03.07-.07.13-.11.17-.04.04-.09.07-.14.07h-4.84c-.15,0-.26-.04-.33-.11-.07-.08-.1-.17-.1-.29,0-.03,0-.08,0-.14,0-.06.02-.12.03-.19l.04-.2c.02-.07.03-.12.04-.16.02-.05.04-.09.06-.14s.05-.1.09-.16c.04-.06.09-.13.15-.21s.14-.18.23-.29l4.1-5h-3.08c-.14,0-.2-.09-.2-.27,0-.03,0-.07,0-.14,0-.07.02-.14.03-.22s.03-.16.05-.24c.02-.08.05-.16.09-.22.03-.07.08-.12.12-.17.05-.04.1-.07.17-.07h4.56Z"/>
    <path class="cls-2" d="m160.49,174.59c-.02.09-.08.15-.2.19-.12.04-.3.06-.56.06-.13,0-.24,0-.32-.01-.08,0-.15-.02-.2-.04-.05-.02-.08-.04-.1-.08-.01-.03-.02-.07,0-.12l.18-.91c-.06.14-.17.28-.3.43s-.3.29-.5.41-.4.22-.63.3c-.23.08-.47.12-.71.12-.34,0-.62-.06-.84-.18-.22-.12-.4-.28-.54-.48s-.23-.43-.29-.69c-.06-.26-.09-.53-.09-.81,0-.27.03-.56.08-.87s.13-.63.23-.94c.11-.31.24-.61.41-.9s.36-.55.59-.77c.23-.22.5-.4.79-.54.3-.13.64-.2,1.01-.2.35,0,.66.07.93.22.27.15.51.36.71.64l.1-.5c.02-.09.08-.15.2-.19.12-.04.3-.06.56-.06.13,0,.23,0,.32.02s.15.03.2.04c.05.02.08.04.1.08.02.03.02.07.01.11l-1.14,5.68Zm-.79-3.97c-.15-.23-.31-.41-.49-.52-.18-.12-.39-.17-.62-.17-.18,0-.34.04-.49.13-.15.08-.28.2-.39.34s-.21.31-.3.49c-.09.19-.16.38-.22.58-.06.2-.1.4-.13.61-.03.21-.04.39-.04.57,0,.13,0,.25.03.36.02.11.05.22.1.3s.12.16.2.21.19.08.32.08c.19,0,.38-.06.57-.17s.38-.26.55-.46.32-.42.45-.67c.13-.26.22-.53.28-.82l.18-.86Z"/>
    <path class="cls-2" d="m166.91,176.83s-.03.08-.06.11c-.03.03-.08.06-.15.09-.07.02-.15.04-.26.05s-.24.02-.39.02-.28,0-.38-.02c-.1-.01-.18-.03-.23-.05s-.09-.05-.11-.09c-.02-.03-.02-.07-.02-.11l.37-1.83c.02-.09.04-.19.07-.3s.05-.21.09-.32c.03-.11.06-.21.09-.31.03-.1.06-.18.09-.26-.08.14-.19.27-.33.41-.14.14-.3.26-.49.37-.18.11-.38.2-.59.26-.21.07-.42.1-.63.1-.31,0-.58-.05-.8-.16-.22-.11-.4-.25-.55-.44-.14-.19-.25-.41-.31-.68-.07-.26-.1-.55-.1-.87,0-.27.03-.56.08-.87s.13-.63.23-.94c.1-.31.24-.62.4-.91s.36-.55.59-.78c.23-.23.5-.41.8-.54.3-.13.64-.2,1.02-.2.35,0,.66.07.93.22.27.15.51.36.71.64l.1-.5c.02-.09.08-.15.2-.19.12-.04.3-.06.56-.06.13,0,.23,0,.32.02s.15.03.2.05c.05.02.08.05.1.08.02.03.02.07.01.11l-1.58,7.92Zm-.34-6.22c-.15-.23-.31-.41-.49-.52-.18-.12-.39-.17-.62-.17-.18,0-.35.04-.5.13-.15.09-.28.21-.4.36-.12.15-.22.32-.3.5s-.15.38-.21.59-.1.4-.12.6-.04.38-.04.55c0,.33.06.57.17.72.11.15.28.23.49.23.19,0,.38-.06.57-.17s.38-.26.55-.46.32-.42.45-.68.22-.53.28-.82l.18-.86Z"/>
    <path class="cls-2" d="m174.22,174.59c-.02.09-.08.15-.2.19-.12.04-.3.06-.56.06-.13,0-.24,0-.32-.01-.08,0-.15-.02-.2-.04-.05-.02-.08-.04-.1-.08-.01-.03-.02-.07,0-.12l.18-.91c-.06.14-.17.28-.3.43s-.3.29-.5.41-.4.22-.63.3c-.23.08-.47.12-.71.12-.34,0-.62-.06-.84-.18-.22-.12-.4-.28-.54-.48s-.23-.43-.29-.69c-.06-.26-.09-.53-.09-.81,0-.27.03-.56.08-.87s.13-.63.23-.94c.11-.31.24-.61.41-.9s.36-.55.59-.77c.23-.22.5-.4.79-.54.3-.13.64-.2,1.01-.2.35,0,.66.07.93.22.27.15.51.36.71.64l.1-.5c.02-.09.08-.15.2-.19.12-.04.3-.06.56-.06.13,0,.23,0,.32.02s.15.03.2.04c.05.02.08.04.1.08.02.03.02.07.01.11l-1.14,5.68Zm-.79-3.97c-.15-.23-.31-.41-.49-.52-.18-.12-.39-.17-.62-.17-.18,0-.34.04-.49.13-.15.08-.28.2-.39.34s-.21.31-.3.49c-.09.19-.16.38-.22.58-.06.2-.1.4-.13.61-.03.21-.04.39-.04.57,0,.13,0,.25.03.36.02.11.05.22.1.3s.12.16.2.21.19.08.32.08c.19,0,.38-.06.57-.17s.38-.26.55-.46.32-.42.45-.67c.13-.26.22-.53.28-.82l.18-.86Z"/>
    <path class="cls-2" d="m180.27,168.98s0,.1-.01.16-.02.14-.03.21c-.02.08-.04.15-.06.23s-.05.14-.09.21c-.03.06-.07.11-.11.15-.04.04-.08.06-.13.06h-1.24l-.53,2.66c-.01.06-.02.14-.04.22-.01.09-.02.16-.02.21,0,.17.04.29.12.37s.21.12.38.12c.1,0,.19,0,.26-.02s.13-.03.19-.05c.05-.02.1-.04.14-.05s.07-.02.11-.02.06.02.09.05c.02.03.03.08.03.16,0,.08,0,.17-.03.27s-.04.2-.07.3c-.03.09-.06.18-.09.26s-.07.14-.11.17-.1.07-.17.11c-.08.03-.17.06-.27.09-.1.03-.21.04-.33.06s-.24.02-.36.02c-.25,0-.48-.03-.67-.08-.19-.05-.35-.14-.49-.25s-.23-.26-.3-.44c-.07-.18-.1-.39-.1-.65,0-.05,0-.1,0-.16s.01-.13.02-.19c.01-.07.02-.14.03-.21.01-.07.02-.13.04-.19l.55-2.76h-.69c-.06,0-.1-.02-.12-.05s-.04-.1-.04-.21c0-.07,0-.17.02-.28.01-.12.04-.23.07-.34s.08-.21.13-.29c.06-.08.12-.12.2-.12h.68l.25-1.26s.03-.08.06-.11c.03-.03.08-.06.15-.09.07-.02.15-.04.25-.05.1-.01.23-.02.39-.02s.28,0,.38.02.18.03.23.05.09.05.11.09c.02.03.02.07.02.11l-.25,1.26h1.23c.07,0,.12.02.15.07.03.05.04.11.04.2Z"/>
    <path class="cls-2" d="m185.43,174.59c-.02.09-.08.15-.2.19-.12.04-.3.06-.56.06-.13,0-.24,0-.32-.01-.08,0-.15-.02-.2-.04-.05-.02-.08-.04-.1-.08-.01-.03-.02-.07,0-.12l.18-.91c-.06.14-.17.28-.3.43s-.3.29-.5.41-.4.22-.63.3c-.23.08-.47.12-.71.12-.34,0-.62-.06-.84-.18-.22-.12-.4-.28-.54-.48s-.23-.43-.29-.69c-.06-.26-.09-.53-.09-.81,0-.27.03-.56.08-.87s.13-.63.23-.94c.11-.31.24-.61.41-.9s.36-.55.59-.77c.23-.22.5-.4.79-.54.3-.13.64-.2,1.01-.2.35,0,.66.07.93.22.27.15.51.36.71.64l.1-.5c.02-.09.08-.15.2-.19.12-.04.3-.06.56-.06.13,0,.23,0,.32.02s.15.03.2.04c.05.02.08.04.1.08.02.03.02.07.01.11l-1.14,5.68Zm-.79-3.97c-.15-.23-.31-.41-.49-.52-.18-.12-.39-.17-.62-.17-.18,0-.34.04-.49.13-.15.08-.28.2-.39.34s-.21.31-.3.49c-.09.19-.16.38-.22.58-.06.2-.1.4-.13.61-.03.21-.04.39-.04.57,0,.13,0,.25.03.36.02.11.05.22.1.3s.12.16.2.21.19.08.32.08c.19,0,.38-.06.57-.17s.38-.26.55-.46.32-.42.45-.67c.13-.26.22-.53.28-.82l.18-.86Z"/>
    <path class="cls-2" d="m188.63,174.58s-.03.08-.06.11c-.03.03-.08.06-.14.08s-.15.04-.25.05-.23.02-.39.02c-.16,0-.29,0-.39-.02-.1-.01-.18-.03-.23-.05s-.09-.05-.11-.08c-.02-.03-.02-.07-.02-.11l1.67-8.35s.03-.08.06-.12c.03-.03.08-.06.15-.08s.15-.04.26-.05c.1-.01.23-.02.39-.02s.28,0,.38.02c.1.01.18.03.23.05s.09.05.11.08c.02.03.02.07.01.12l-1.66,8.35Z"/>
    <path class="cls-2" d="m195.49,174.59c-.02.09-.08.15-.2.19-.12.04-.3.06-.56.06-.13,0-.24,0-.32-.01-.08,0-.15-.02-.2-.04-.05-.02-.08-.04-.1-.08-.01-.03-.02-.07,0-.12l.18-.91c-.06.14-.17.28-.3.43s-.3.29-.5.41-.4.22-.63.3c-.23.08-.47.12-.71.12-.34,0-.62-.06-.84-.18-.22-.12-.4-.28-.54-.48s-.23-.43-.29-.69c-.06-.26-.09-.53-.09-.81,0-.27.03-.56.08-.87s.13-.63.23-.94c.11-.31.24-.61.41-.9s.36-.55.59-.77c.23-.22.5-.4.79-.54.3-.13.64-.2,1.01-.2.35,0,.66.07.93.22.27.15.51.36.71.64l.1-.5c.02-.09.08-.15.2-.19.12-.04.3-.06.56-.06.13,0,.23,0,.32.02s.15.03.2.04c.05.02.08.04.1.08.02.03.02.07.01.11l-1.14,5.68Zm-.79-3.97c-.15-.23-.31-.41-.49-.52-.18-.12-.39-.17-.62-.17-.18,0-.34.04-.49.13-.15.08-.28.2-.39.34s-.21.31-.3.49c-.09.19-.16.38-.22.58-.06.2-.1.4-.13.61-.03.21-.04.39-.04.57,0,.13,0,.25.03.36.02.11.05.22.1.3s.12.16.2.21.19.08.32.08c.19,0,.38-.06.57-.17s.38-.26.55-.46.32-.42.45-.67c.13-.26.22-.53.28-.82l.18-.86Z"/>
  </g>
  <g>
    <path class="cls-2" d="m191.76,222.7s0,.09-.01.17c0,.07-.02.15-.04.23s-.04.17-.06.26-.06.17-.09.24c-.03.07-.07.13-.11.17-.04.04-.09.07-.14.07-.04,0-.11-.01-.21-.04-.09-.02-.21-.06-.34-.11s-.28-.12-.44-.21c-.16-.08-.32-.19-.49-.31s-.33-.26-.5-.42c-.17-.16-.32-.34-.46-.54-.22.1-.47.18-.74.23-.27.05-.57.08-.9.08-.51,0-.96-.06-1.36-.17s-.72-.29-.99-.53c-.27-.24-.47-.54-.61-.89-.14-.36-.21-.78-.21-1.27,0-.4.03-.81.1-1.25.07-.43.18-.86.34-1.28.15-.42.36-.81.6-1.19.25-.38.55-.71.9-1,.35-.29.76-.52,1.23-.68.47-.17,1-.25,1.6-.25.51,0,.96.06,1.35.17s.72.29.99.53.47.54.61.9c.14.36.21.79.21,1.28,0,.24-.01.49-.04.76-.03.27-.07.54-.13.81s-.14.54-.23.82c-.1.27-.21.54-.34.8-.13.26-.29.51-.47.74-.18.23-.38.46-.61.66.2.21.38.37.55.48s.32.2.45.27c.13.07.24.11.32.14.09.03.14.06.17.09.03.03.05.06.06.09,0,.03.01.08.01.14Zm-1.5-5.64c0-.26-.03-.49-.09-.7-.06-.21-.15-.39-.28-.53s-.29-.25-.5-.33-.46-.12-.75-.12c-.37,0-.69.07-.97.21-.28.14-.52.33-.73.56-.21.23-.38.49-.52.78s-.25.59-.34.89-.15.6-.18.89c-.04.29-.05.54-.05.76,0,.26.03.5.09.7.06.21.15.38.28.52.13.14.3.25.5.33.21.08.46.11.75.11.36,0,.69-.07.96-.21.28-.14.52-.32.73-.55.21-.23.38-.49.52-.78.14-.29.26-.59.34-.89s.15-.59.18-.88c.04-.29.05-.54.05-.77Z"/>
    <path class="cls-2" d="m197.8,222.15c-.02.09-.08.15-.2.19-.12.04-.3.06-.56.06-.13,0-.24,0-.32-.01-.08,0-.15-.02-.2-.04-.05-.02-.08-.04-.1-.08-.01-.03-.02-.07,0-.12l.18-.91c-.06.14-.17.28-.3.43s-.3.29-.5.41-.4.22-.63.3c-.23.08-.47.12-.71.12-.34,0-.62-.06-.84-.18-.22-.12-.4-.28-.54-.48s-.23-.43-.29-.69c-.06-.26-.09-.53-.09-.81,0-.27.03-.56.08-.87s.13-.63.23-.94c.11-.31.24-.61.41-.9s.36-.55.59-.77c.23-.22.5-.4.79-.54.3-.13.64-.2,1.01-.2.35,0,.66.07.93.22.27.15.51.36.71.64l.1-.5c.02-.09.08-.15.2-.19.12-.04.3-.06.56-.06.13,0,.23,0,.32.02s.15.03.2.04c.05.02.08.04.1.08.02.03.02.07.01.11l-1.14,5.68Zm-.79-3.97c-.15-.23-.31-.41-.49-.52-.18-.12-.39-.17-.62-.17-.18,0-.34.04-.49.13-.15.08-.28.2-.39.34s-.21.31-.3.49c-.09.19-.16.38-.22.58-.06.2-.1.4-.13.61-.03.21-.04.39-.04.57,0,.13,0,.25.03.36.02.11.05.22.1.3s.12.16.2.21.19.08.32.08c.19,0,.38-.06.57-.17s.38-.26.55-.46.32-.42.45-.67c.13-.26.22-.53.28-.82l.18-.86Z"/>
    <path class="cls-2" d="m203.34,219.21l1.02,2.82c.02.07.03.13.01.18s-.05.08-.12.11c-.07.03-.16.05-.28.06s-.28.02-.48.02c-.18,0-.32,0-.42-.01s-.18-.02-.23-.04-.09-.04-.11-.07c-.02-.03-.03-.06-.04-.1l-.69-2-1.43,2.01s-.05.07-.09.1c-.03.03-.08.05-.16.07-.07.02-.17.03-.29.04-.12,0-.28.01-.49.01-.18,0-.33,0-.44-.02s-.19-.03-.24-.06-.07-.06-.07-.11c0-.04.03-.1.08-.17l2.15-2.82-.95-2.62c-.03-.08-.03-.14-.03-.19s.04-.09.1-.12c.06-.03.15-.05.27-.06.12-.01.28-.02.48-.02.17,0,.31,0,.41,0,.1,0,.18.02.23.03.05.01.09.03.11.06.02.03.03.06.05.1l.66,1.89,1.36-1.89s.05-.06.08-.09.08-.05.14-.06.15-.03.25-.04.24-.01.41-.01c.19,0,.35,0,.47.01.12,0,.2.03.26.05s.08.06.07.1c0,.04-.04.1-.09.18l-1.97,2.63Z"/>
  </g>
  <g>
    <path class="cls-2" d="m226.92,281.17c-.35-.04-.63-.1-.85-.18-.22-.08-.39-.15-.51-.22-.12-.07-.22-.14-.28-.2s-.09-.16-.09-.29c0-.03,0-.08.01-.15,0-.07.02-.14.03-.22.02-.08.03-.16.05-.24.02-.08.05-.16.08-.22.03-.07.06-.12.1-.17.04-.04.08-.06.12-.06.07,0,.16.03.26.1.1.07.22.14.37.22s.32.15.53.22c.2.07.45.1.73.1.25,0,.47-.03.66-.1.19-.06.35-.15.47-.26.13-.11.22-.24.29-.38.07-.15.1-.31.1-.48,0-.16-.04-.29-.11-.41s-.18-.23-.3-.33c-.12-.1-.27-.19-.43-.28-.16-.09-.32-.18-.49-.29s-.33-.21-.49-.33c-.16-.12-.3-.26-.43-.42-.12-.16-.23-.34-.3-.55-.08-.21-.11-.45-.11-.72,0-.38.08-.73.23-1.05.15-.32.36-.6.63-.83s.59-.41.97-.54.79-.19,1.24-.19c.21,0,.41.02.6.05.19.03.36.07.52.12s.29.1.4.16c.11.06.19.11.23.15s.07.08.09.13c.02.04.03.1.03.17,0,.03,0,.08,0,.15,0,.06-.02.13-.03.21s-.03.15-.05.23c-.02.08-.04.15-.07.22-.03.07-.06.12-.09.16-.03.04-.07.06-.11.06-.06,0-.13-.03-.22-.08s-.2-.11-.33-.17c-.13-.06-.28-.12-.45-.17s-.37-.08-.59-.08-.42.03-.58.1c-.16.06-.29.15-.39.25s-.18.22-.23.35c-.05.13-.07.26-.07.39,0,.15.04.29.11.4s.18.22.3.32.27.2.43.29c.16.09.33.19.5.29.17.1.33.21.5.33.16.12.31.26.44.42.13.16.23.34.3.55s.11.44.11.71c0,.4-.08.77-.24,1.1-.16.34-.37.62-.64.86s-.57.42-.89.55c-.32.13-.6.2-.82.23l.08.34c.03.11.05.21.07.3.02.09.03.19.03.28,0,.23-.04.43-.11.59s-.18.3-.31.41c-.13.11-.29.19-.48.24-.19.05-.4.08-.62.08-.12,0-.24,0-.36-.01-.12,0-.22-.02-.32-.04-.1-.02-.19-.04-.26-.06-.08-.02-.14-.04-.19-.07-.05-.03-.08-.05-.1-.08s-.03-.07-.03-.12c0-.04,0-.1.02-.18.01-.08.03-.15.05-.23s.06-.14.1-.2c.04-.06.1-.08.17-.08h.72c.06,0,.12,0,.17-.02s.1-.04.14-.06c.04-.03.07-.06.1-.11.02-.05.03-.1.03-.16,0-.04,0-.09,0-.15,0-.05-.02-.11-.03-.17l-.11-.45Z"/>
    <path class="cls-2" d="m231.48,279.59c0-.3.07-.58.21-.82.14-.24.35-.45.64-.63.29-.18.66-.31,1.1-.4.45-.09.98-.14,1.6-.14h.58c.02-.1.03-.19.04-.29,0-.09.01-.18.01-.26,0-.34-.09-.6-.27-.77-.18-.17-.46-.26-.86-.26-.28,0-.53.02-.75.06-.22.04-.42.08-.58.13-.17.05-.31.09-.42.13s-.19.06-.24.06-.09-.02-.11-.04-.03-.08-.03-.14c0-.07,0-.15.02-.25.01-.09.03-.19.05-.28.02-.09.05-.18.09-.26.04-.08.08-.14.12-.18.05-.05.14-.1.28-.15s.3-.1.49-.14.4-.08.64-.1.48-.04.72-.04c.41,0,.76.04,1.06.13.3.08.56.21.76.39s.36.39.46.66.15.59.15.96c0,.28-.03.59-.08.91-.05.32-.14.64-.26.96s-.27.62-.46.9-.41.54-.68.76c-.26.22-.57.39-.92.52s-.74.2-1.19.2c-.39,0-.72-.05-.99-.14-.28-.09-.5-.21-.68-.36s-.31-.32-.4-.51c-.09-.19-.13-.39-.13-.59Zm1.57-.12c0,.17.07.31.2.42.13.11.33.17.58.17.21,0,.4-.04.57-.11.17-.08.31-.18.44-.31s.24-.28.33-.46c.09-.18.16-.36.22-.56h-.53c-.34,0-.62.02-.85.07-.23.04-.41.1-.55.18s-.24.17-.3.27-.1.21-.1.33Z"/>
    <path class="cls-2" d="m244.07,275.14c0,.07-.03.15-.09.24-.06.09-.15.21-.28.35l-2,1.89,1.3,2.73c.04.1.07.19.09.27s.03.13.03.18c0,.05-.01.09-.04.13-.03.04-.07.07-.14.1-.07.03-.15.04-.27.05-.11.01-.25.02-.42.02s-.31,0-.41-.01c-.1,0-.18-.02-.24-.04-.06-.02-.1-.05-.13-.08-.03-.03-.05-.08-.06-.13l-1.34-2.98-.6,3s-.03.08-.07.11-.08.06-.15.08c-.07.02-.15.04-.26.05s-.23.02-.39.02-.28,0-.38-.02c-.1-.01-.18-.03-.23-.04-.06-.02-.09-.04-.11-.08-.02-.03-.02-.07-.02-.11l1.68-8.35s.03-.08.06-.12c.03-.03.08-.06.15-.08s.15-.04.26-.05c.1-.01.23-.02.39-.02s.28,0,.38.02c.1.01.18.03.23.05s.09.05.11.08c.02.03.02.07.01.12l-.99,4.97,2.12-2.27c.04-.05.09-.09.14-.13.05-.04.11-.06.19-.08.08-.02.17-.04.28-.04.11,0,.24-.01.4-.01s.29,0,.39.01.19.02.25.04c.06.02.1.04.12.07.02.03.03.06.03.1Z"/>
    <path class="cls-2" d="m245.72,280.83s-.03.08-.06.11c-.03.03-.08.06-.15.08-.07.02-.15.04-.26.05s-.23.02-.39.02-.28,0-.38-.02c-.1-.01-.18-.03-.23-.05-.06-.02-.09-.05-.11-.08-.02-.03-.02-.07-.01-.11l1.12-5.65s.03-.08.06-.11c.03-.03.08-.06.15-.08.07-.02.15-.04.25-.05.1-.01.23-.02.39-.02s.28,0,.38.02c.1.01.18.03.23.05.06.02.09.05.11.08.02.03.02.07.01.11l-1.12,5.65Zm1.64-7.57c-.03.16-.07.29-.12.4-.05.11-.12.2-.2.26s-.19.11-.31.14-.27.04-.46.04-.32-.01-.44-.04c-.11-.03-.2-.07-.25-.14-.06-.07-.09-.15-.1-.26,0-.11,0-.24.04-.4.03-.15.07-.28.12-.39.05-.11.12-.19.2-.26s.19-.12.31-.15c.12-.03.27-.04.46-.04s.32.01.44.04c.11.03.2.08.25.15.06.07.09.15.09.26,0,.11,0,.24-.03.39Z"/>
  </g>
  <g>
    <path class="cls-2" d="m304.19,304.37c0,.37-.03.77-.1,1.19-.07.42-.18.84-.33,1.26-.15.42-.35.82-.59,1.2s-.54.72-.9,1.01c-.35.29-.76.52-1.24.7s-1.01.26-1.62.26c-.51,0-.96-.06-1.36-.17-.39-.11-.72-.29-.99-.53-.27-.24-.47-.54-.61-.89-.14-.36-.21-.78-.21-1.27,0-.4.04-.81.11-1.25.07-.43.18-.86.34-1.28s.36-.81.61-1.19c.25-.38.55-.71.9-1s.76-.52,1.23-.68,1-.25,1.6-.25c.51,0,.96.06,1.36.17s.72.29.99.53c.27.24.47.54.61.9.14.36.21.79.21,1.28Zm-1.77.16c0-.26-.03-.49-.08-.7-.06-.21-.15-.39-.28-.53s-.29-.25-.5-.33-.46-.12-.75-.12c-.37,0-.69.07-.97.21s-.52.33-.73.56c-.21.23-.38.49-.52.78-.14.29-.25.59-.34.89s-.14.6-.18.89-.05.54-.05.76c0,.26.03.5.08.7.06.21.15.38.28.52.13.14.3.25.5.33.21.08.46.11.76.11.36,0,.69-.07.96-.21.28-.14.52-.32.73-.55s.38-.49.52-.78c.14-.29.25-.59.34-.89s.14-.59.18-.88c.04-.29.05-.54.05-.77Z"/>
    <path class="cls-2" d="m309.8,309.85c-.08.38-.2.72-.36,1.01-.16.29-.37.53-.63.72-.26.19-.58.34-.96.43-.38.1-.81.15-1.31.15-.36,0-.68-.03-.97-.08-.29-.06-.52-.13-.71-.22-.07-.03-.11-.07-.14-.11-.03-.04-.04-.1-.04-.18,0-.03,0-.07,0-.13,0-.06.01-.12.03-.2.02-.07.03-.15.05-.23.02-.08.05-.15.08-.21.03-.06.07-.11.11-.15s.08-.06.13-.06.11.02.19.05.17.08.29.12c.12.04.28.08.46.12.18.04.41.05.67.05.21,0,.41-.02.58-.05s.32-.09.45-.17.23-.17.31-.29.13-.26.17-.44c.05-.28.11-.51.17-.69s.11-.34.15-.46c-.08.14-.18.28-.33.42-.14.14-.3.26-.49.37s-.38.2-.59.26-.42.1-.63.1c-.33,0-.6-.06-.82-.17-.22-.11-.4-.26-.54-.46-.14-.19-.24-.42-.3-.69-.06-.26-.09-.54-.09-.85,0-.28.03-.57.08-.89.05-.32.13-.63.24-.95s.24-.61.41-.9c.16-.29.36-.54.59-.76.23-.22.49-.4.79-.53s.63-.2,1.01-.2c.35,0,.66.07.93.22.27.15.51.36.71.64l.1-.5c.02-.09.08-.15.2-.19.12-.04.3-.06.56-.06.13,0,.23,0,.32.02.08.01.15.03.2.04.05.02.08.04.1.08.02.03.02.07.01.11l-1.19,5.9Zm-.74-4.2c-.15-.23-.31-.41-.49-.52s-.39-.17-.62-.17c-.18,0-.34.04-.49.13s-.28.2-.39.34c-.12.14-.22.31-.3.49-.09.19-.16.38-.22.58s-.1.41-.13.61-.04.4-.04.58c0,.14.01.28.04.39s.06.22.12.3c.05.08.12.15.2.19.08.04.18.07.3.07.19,0,.38-.06.57-.17s.38-.26.55-.46.32-.42.45-.68c.13-.26.22-.53.28-.82l.18-.86Zm1.68-4.53s0,.12-.03.22c-.02.11-.05.23-.11.37s-.13.28-.23.42c-.1.15-.23.28-.38.4-.16.12-.35.22-.58.29s-.5.11-.81.11-.59-.03-.8-.1-.38-.16-.5-.28c-.12-.12-.21-.25-.26-.41s-.07-.31-.07-.48c0-.05,0-.1,0-.17s.01-.13.02-.19c0-.06.02-.12.04-.17.01-.05.03-.08.05-.1.04-.03.1-.06.18-.08.08-.02.19-.03.33-.03.1,0,.19,0,.25.01.07,0,.12.02.16.04s.06.04.08.06.02.05.02.08c0,.04,0,.08,0,.13s0,.1,0,.14c0,.08.01.15.03.22.02.06.06.12.1.16s.11.08.19.11.18.04.29.04.23-.01.33-.04c.1-.03.19-.07.28-.14.08-.06.15-.14.21-.23s.11-.2.14-.33c.02-.04.04-.08.06-.11.02-.03.06-.06.1-.08.04-.02.1-.03.17-.04.07-.01.15-.02.26-.02s.2,0,.26.01c.07,0,.12.02.15.03.04.01.06.03.07.05.01.02.02.05.02.07Z"/>
    <path class="cls-2" d="m316.71,309.62s-.03.08-.05.11c-.03.03-.07.06-.13.08-.06.02-.13.03-.22.04s-.2.02-.33.02-.24,0-.32-.02c-.08-.01-.15-.03-.19-.04-.05-.02-.08-.04-.09-.08-.01-.03-.02-.07,0-.11l.17-.92c-.08.15-.2.3-.35.45s-.32.29-.51.41-.4.22-.63.3c-.22.08-.46.12-.69.12-.3,0-.55-.04-.75-.12-.21-.08-.37-.2-.5-.34-.12-.14-.22-.31-.27-.51-.06-.2-.08-.42-.08-.65,0-.14,0-.29.03-.44.02-.15.04-.3.07-.46l.7-3.51s.03-.08.06-.11.08-.06.15-.08c.07-.02.15-.03.26-.04s.24-.02.39-.02.28,0,.38.02c.1.01.18.03.23.04.05.02.09.04.11.08.02.03.02.07.02.11l-.67,3.4c-.02.09-.04.19-.05.29,0,.1-.02.2-.02.29,0,.1,0,.19.03.28.02.08.05.15.09.21.04.06.1.1.16.13.07.03.15.04.24.04.17,0,.35-.06.54-.17s.37-.27.54-.46c.17-.2.32-.43.45-.7.13-.27.23-.56.3-.87l.48-2.45s.02-.08.06-.11c.03-.03.08-.06.15-.08.07-.02.15-.03.26-.04s.23-.02.39-.02.29,0,.38.02.18.03.23.04c.06.02.09.04.11.08.02.03.02.07.01.11l-1.14,5.68Z"/>
    <path class="cls-2" d="m323.21,303.97s0,.08-.01.14-.02.13-.03.2c-.01.07-.03.14-.04.21-.01.07-.03.12-.04.16-.03.11-.07.21-.13.3-.05.09-.13.19-.23.3l-2.68,3.27h2.16c.06,0,.11.02.14.06.03.04.04.11.04.2,0,.03,0,.08,0,.15,0,.07-.02.14-.03.21s-.03.15-.06.23c-.02.08-.05.15-.08.21-.03.06-.07.12-.11.16-.04.04-.09.06-.14.06h-3.74c-.08,0-.14-.02-.18-.07-.04-.05-.06-.12-.06-.23,0-.03,0-.08.01-.14,0-.06.02-.12.03-.18s.03-.12.04-.18c.01-.06.03-.1.04-.14.01-.05.03-.09.04-.13.01-.04.04-.09.06-.13s.06-.1.1-.15c.04-.05.09-.12.16-.19l2.7-3.28h-1.93c-.06,0-.1-.02-.14-.06-.03-.04-.05-.12-.05-.22,0-.04,0-.1,0-.16,0-.07.02-.13.03-.21.02-.07.03-.15.06-.22.02-.08.05-.14.08-.2.03-.06.07-.11.12-.15.04-.04.09-.06.14-.06h3.5c.09,0,.15.02.18.06.03.04.05.1.05.17Z"/>
  </g>
  <g>
    <path class="cls-2" d="m352.78,344.75s0,.09-.01.17c0,.07-.02.15-.04.23-.02.08-.04.17-.06.26s-.06.17-.09.24c-.03.07-.07.13-.11.17-.04.04-.08.07-.14.07-.04,0-.11-.01-.21-.04s-.21-.06-.34-.11-.28-.12-.44-.21c-.16-.08-.32-.19-.48-.31-.17-.12-.33-.26-.5-.42-.16-.16-.32-.34-.46-.54-.22.1-.47.18-.74.23-.27.05-.57.08-.9.08-.51,0-.96-.06-1.36-.17s-.72-.29-.99-.53c-.27-.24-.47-.54-.61-.89-.14-.36-.21-.78-.21-1.27,0-.4.04-.81.11-1.25.07-.43.18-.86.34-1.28s.36-.81.6-1.19c.25-.38.55-.71.9-1s.76-.52,1.23-.68c.47-.17,1-.25,1.6-.25.51,0,.96.06,1.35.17s.72.29.99.53.47.54.61.9c.14.36.21.79.21,1.28,0,.24-.01.49-.04.76-.03.27-.07.54-.13.81-.06.27-.14.54-.23.82-.1.27-.21.54-.34.8-.13.26-.29.51-.47.74-.18.23-.38.46-.61.66.2.21.38.37.55.48.17.11.32.2.45.27.13.07.24.11.32.14.09.03.14.06.17.09.03.03.05.06.06.09,0,.03.01.08.01.14Zm-1.5-5.64c0-.26-.03-.49-.09-.7-.06-.21-.15-.39-.28-.53s-.29-.25-.5-.33-.46-.12-.75-.12c-.37,0-.69.07-.97.21-.28.14-.53.33-.73.56s-.38.49-.52.78-.25.59-.34.89c-.08.3-.15.6-.18.89-.04.29-.05.54-.05.76,0,.26.03.5.08.7.06.21.15.38.28.52.13.14.3.25.5.33s.46.11.75.11c.36,0,.69-.07.96-.21.28-.14.52-.32.73-.55.21-.23.38-.49.52-.78.14-.29.25-.59.34-.89.08-.3.14-.59.18-.88.04-.29.05-.54.05-.77Z"/>
    <path class="cls-2" d="m353.54,342.96c0-.3.07-.58.21-.82.14-.24.35-.45.64-.63.29-.18.66-.31,1.1-.4s.98-.14,1.6-.14h.58c.02-.1.03-.19.04-.29,0-.09.01-.18.01-.26,0-.34-.09-.6-.27-.77-.18-.17-.46-.26-.86-.26-.28,0-.53.02-.75.06-.22.04-.42.08-.58.13s-.31.09-.42.13c-.11.04-.19.06-.24.06s-.09-.02-.11-.04-.03-.08-.03-.14c0-.07,0-.15.02-.25.01-.09.03-.19.05-.28s.05-.18.09-.26c.04-.08.08-.14.12-.18.05-.05.14-.1.28-.15s.3-.1.49-.14c.19-.04.4-.08.64-.1s.48-.04.72-.04c.41,0,.76.04,1.06.13.3.08.56.21.76.39s.36.39.46.66.15.59.15.96c0,.28-.03.59-.08.91-.05.32-.14.64-.26.96s-.27.62-.46.9-.41.54-.68.76-.57.39-.92.52c-.35.13-.74.2-1.19.2-.38,0-.72-.05-.99-.14-.28-.09-.5-.21-.68-.36s-.31-.32-.4-.51c-.09-.19-.13-.39-.13-.59Zm1.57-.12c0,.17.07.31.2.42.13.11.33.17.58.17.21,0,.4-.04.57-.11s.31-.18.44-.31.24-.28.33-.46c.09-.18.16-.36.22-.56h-.53c-.34,0-.62.02-.85.07-.23.04-.41.1-.55.18-.14.08-.24.17-.3.27-.06.1-.1.21-.1.33Z"/>
    <path class="cls-2" d="m366.19,340.33c0,.28-.03.58-.08.9s-.13.63-.24.95c-.11.31-.24.61-.41.9-.16.29-.36.54-.6.76-.23.22-.5.4-.8.53-.3.13-.63.2-1,.2s-.67-.07-.94-.21c-.27-.14-.51-.35-.71-.63l-.1.48c-.02.09-.08.15-.2.19-.12.04-.3.06-.56.06s-.43-.02-.52-.06-.13-.11-.11-.19l1.67-8.35s.03-.08.06-.12c.03-.03.08-.06.15-.08.07-.02.15-.04.26-.05.1-.01.23-.02.39-.02s.28,0,.38.02c.1.01.17.03.23.05.06.02.09.05.11.08.02.03.02.07.01.12l-.45,2.27c-.02.1-.04.2-.07.31-.03.11-.05.21-.08.32-.03.11-.06.21-.1.31-.03.1-.06.19-.09.26.08-.14.18-.27.33-.41.14-.14.3-.26.49-.37.18-.11.38-.2.59-.27.21-.07.42-.1.63-.1.24,0,.45.03.63.09s.33.14.46.25c.13.11.24.23.32.37.08.14.15.29.2.45.05.16.09.32.11.49.02.17.03.33.03.49Zm-1.64.16c0-.11,0-.22-.02-.33s-.05-.22-.1-.31c-.05-.09-.12-.17-.2-.23-.08-.06-.2-.09-.34-.09-.19,0-.38.06-.57.17-.19.11-.37.27-.54.46s-.32.42-.45.68c-.13.26-.22.53-.28.83l-.18.86c.15.23.31.41.49.52s.39.17.62.17c.17,0,.33-.04.47-.12.14-.08.27-.19.39-.33.12-.14.22-.29.3-.48s.16-.37.22-.57c.06-.2.1-.41.13-.61.03-.21.04-.41.04-.6Z"/>
    <path class="cls-2" d="m366.79,342.96c0-.3.07-.58.21-.82.14-.24.35-.45.64-.63.29-.18.66-.31,1.1-.4.45-.09.98-.14,1.6-.14h.58c.02-.1.03-.19.04-.29,0-.09.01-.18.01-.26,0-.34-.09-.6-.27-.77-.18-.17-.46-.26-.86-.26-.28,0-.53.02-.75.06-.22.04-.42.08-.58.13-.17.05-.3.09-.42.13s-.19.06-.24.06-.09-.02-.11-.04c-.02-.03-.03-.08-.03-.14,0-.07,0-.15.02-.25.01-.09.03-.19.05-.28s.05-.18.09-.26c.04-.08.08-.14.12-.18.05-.05.14-.1.28-.15.13-.05.3-.1.49-.14s.4-.08.64-.1c.24-.03.48-.04.72-.04.41,0,.76.04,1.06.13.3.08.56.21.76.39s.36.39.46.66.15.59.15.96c0,.28-.03.59-.08.91-.05.32-.14.64-.26.96-.12.32-.27.62-.46.9-.19.29-.41.54-.68.76-.26.22-.57.39-.92.52s-.74.2-1.19.2c-.39,0-.72-.05-.99-.14s-.5-.21-.68-.36-.31-.32-.4-.51c-.09-.19-.13-.39-.13-.59Zm1.57-.12c0,.17.07.31.2.42s.33.17.58.17c.21,0,.4-.04.57-.11.17-.08.31-.18.44-.31s.24-.28.33-.46c.09-.18.16-.36.22-.56h-.53c-.34,0-.62.02-.85.07-.23.04-.41.1-.55.18s-.24.17-.3.27-.09.21-.09.33Z"/>
    <path class="cls-2" d="m374.79,344.2s-.03.08-.06.11c-.03.03-.08.06-.14.08s-.15.04-.25.05-.23.02-.39.02c-.16,0-.29,0-.39-.02s-.18-.03-.23-.05c-.05-.02-.09-.05-.11-.08-.02-.03-.02-.07-.02-.11l1.67-8.35s.03-.08.06-.12c.03-.03.08-.06.15-.08s.15-.04.26-.05c.1-.01.23-.02.39-.02s.28,0,.38.02c.1.01.18.03.23.05.05.02.09.05.11.08.02.03.02.07.01.12l-1.66,8.35Z"/>
    <path class="cls-2" d="m376.37,342.96c0-.3.07-.58.21-.82.14-.24.35-.45.64-.63.29-.18.66-.31,1.1-.4s.98-.14,1.6-.14h.58c.02-.1.03-.19.04-.29,0-.09.01-.18.01-.26,0-.34-.09-.6-.27-.77-.18-.17-.46-.26-.86-.26-.28,0-.53.02-.75.06-.22.04-.42.08-.58.13s-.31.09-.42.13c-.11.04-.19.06-.24.06s-.09-.02-.11-.04-.03-.08-.03-.14c0-.07,0-.15.02-.25.01-.09.03-.19.05-.28s.05-.18.09-.26c.04-.08.08-.14.12-.18.05-.05.14-.1.28-.15s.3-.1.49-.14c.19-.04.4-.08.64-.1s.48-.04.72-.04c.41,0,.76.04,1.06.13.3.08.56.21.76.39s.36.39.46.66.15.59.15.96c0,.28-.03.59-.08.91-.05.32-.14.64-.26.96s-.27.62-.46.9-.41.54-.68.76-.57.39-.92.52c-.35.13-.74.2-1.19.2-.38,0-.72-.05-.99-.14-.28-.09-.5-.21-.68-.36s-.31-.32-.4-.51c-.09-.19-.13-.39-.13-.59Zm1.57-.12c0,.17.07.31.2.42.13.11.33.17.58.17.21,0,.4-.04.57-.11s.31-.18.44-.31.24-.28.33-.46c.09-.18.16-.36.22-.56h-.53c-.34,0-.62.02-.85.07-.23.04-.41.1-.55.18-.14.08-.24.17-.3.27-.06.1-.1.21-.1.33Z"/>
  </g>
</svg>