<?xml version="1.0" encoding="UTF-8"?>
<svg xmlns="http://www.w3.org/2000/svg" version="1.1" viewBox="0 0 600 440">
  <defs>
    <style>
      .cls-1 {
        fill-rule: evenodd;
      }

      .cls-1, .cls-2 {
        fill: #a98a3f;
      }
    </style>
  </defs>
  <!-- Generator: Adobe Illustrator 28.6.0, SVG Export Plug-In . SVG Version: 1.2.0 Build 709)  -->
  <g>
    <g id="Layer_1">
      <g>
        <path class="cls-2" d="M425.61,367.37l-5.33-13.05-5.1,13.05c1.36.05,3.13.08,5.31.08s3.82-.02,5.13-.08M441.4,380.77l-.22.26c-3.69-.1-5.91-.15-6.67-.15-3.05,0-5.89.05-8.52.15l-.22-.26v-1.56l.25-.28,2.17-.12c.91-.05,1.37-.37,1.37-.97,0-.35-.23-1.13-.7-2.35l-2.01-5.26c-2.3-.03-4.63-.05-7.03-.05-1.29,0-3.21.02-5.77.05l-1.1,3.03c-.83,2.31-1.25,3.76-1.25,4.34,0,.63.39,1,1.17,1.12.43.07,1.28.14,2.54.2l.25.26v1.59l-.25.26c-3.07-.1-5.05-.15-5.93-.15-.68,0-2.37.05-5.06.15l-.25-.23v-1.61l.27-.26c1.71-.1,2.76-.43,3.15-1.02.39-.58,1.86-4.04,4.4-10.38l6.5-16.27c.49-1.27,1.22-3.16,2.19-5.71h3.54l13.2,31.06c.51,1.18.98,1.84,1.39,1.99.55.2,1.33.31,2.36.31l.22.27v1.59ZM402.17,346.89c-2.62,3.57-5.49,7.94-8.61,13.13-1.77,2.93-2.74,4.79-2.92,5.6-.1.43-.15,1.05-.15,1.87v2.47c0,4.86.15,7.57.45,8.12.14.23.32.38.57.45.42.11,1.44.22,3.07.32l.25.25v1.67l-.25.26c-1.65-.1-4.21-.15-7.68-.15s-6.11.05-7.67.15l-.22-.23v-1.69l.25-.25c1.62-.1,2.64-.21,3.06-.32.26-.07.44-.22.58-.45.3-.55.44-3.26.44-8.12v-2.94c0-.63-1.3-3.15-3.91-7.58-2.65-4.5-4.77-7.55-6.35-9.17-.77-.77-1.27-1.22-1.54-1.33-.27-.11-.89-.16-1.87-.16l-.27-.28v-1.39l.24-.27c4.06-.8,6.65-1.36,7.8-1.69.87.42,1.63.95,2.31,1.62,1.41,1.38,3.31,4.46,5.68,9.22l3.26,6.53c.98-1.58,2.85-4.75,5.6-9.52l2.77-4.96c.3-.55.71-1.31,1.22-2.27h3.64l.25.25v.88ZM362.27,337.97c0,1.01-.36,1.87-1.06,2.58-.71.71-1.57,1.06-2.58,1.06s-1.84-.36-2.55-1.06c-.71-.71-1.06-1.57-1.06-2.58s.36-1.88,1.07-2.6c.71-.72,1.56-1.09,2.54-1.09s1.83.36,2.55,1.06c.72.71,1.09,1.58,1.09,2.63ZM366.55,380.77l-.23.26c-1.66-.1-4.23-.15-7.7-.15s-6.01.05-7.67.15l-.23-.26v-1.67l.25-.25c1.69-.1,2.66-.19,2.91-.25.48-.13.77-.43.85-.92.21-1.2.32-3.77.32-7.72v-13.18c0-3.95-.11-6.53-.32-7.72-.08-.49-.37-.79-.85-.93-.25-.06-1.22-.15-2.91-.25l-.25-.25v-1.69l.25-.23c1.59.1,4.15.15,7.67.15s6.05-.05,7.64-.15l.26.23v1.69l-.26.25c-1.69.1-2.66.19-2.91.25-.49.14-.77.44-.85.93-.21,1.19-.32,3.77-.32,7.72v13.18c0,3.95.11,6.52.32,7.72.09.48.37.79.85.92.24.07,1.21.15,2.91.25l.26.25v1.67ZM341.28,368.3l-.25.27c-1.03.25-1.63.6-1.79,1.03-.17.44-.26,2.13-.26,5.05,0,1.41.07,2.81.2,4.18-5.54,2.09-10.58,3.14-15.09,3.14-5.95,0-10.76-1.67-14.44-4.99-3.68-3.33-5.52-7.87-5.52-13.62,0-7.48,3.25-12.82,9.74-16.01,2.98-1.46,6.75-2.2,11.33-2.2,2.66,0,5.35.29,8.08.87,2.24.49,4,1.03,5.31,1.65l.22.44c-.43,1.46-.79,4.01-1.07,7.63l-.27.25h-1.5l-.25-.25c0-.31-.03-.97-.1-1.96-.07-.99-.15-1.68-.25-2.08-.73-.99-1.98-1.84-3.74-2.53-1.89-.73-3.94-1.1-6.13-1.1-5.87,0-9.93,2.37-12.18,7.12-1.03,2.19-1.55,4.74-1.55,7.63,0,4.62,1.23,8.44,3.69,11.49,2.56,3.16,5.88,4.73,9.99,4.73,2.17,0,4.28-.47,6.3-1.39.11-1.16.17-2.76.17-4.78,0-1.65-.06-2.64-.17-2.99-.1-.26-.42-.46-.95-.57-.44-.1-1.84-.23-4.21-.37l-.27-.25v-1.56l.27-.25c2.42.06,4.93.09,7.58.07,1.53-.02,3.81-.04,6.86-.07l.25.25v1.2ZM286.22,363.76c0-4.81-.96-8.64-2.9-11.47-1.94-2.83-4.77-4.24-8.5-4.24-4.94,0-8.2,2.21-9.82,6.65-.82,2.27-1.24,4.82-1.24,7.64,0,5.14.94,9.18,2.84,12.16,1.96,3.07,4.89,4.61,8.79,4.61,4.74,0,7.92-2.33,9.54-7,.87-2.48,1.29-5.26,1.29-8.35ZM293.9,362.46c0,6.13-1.78,10.93-5.36,14.42-3.47,3.39-8.21,5.09-14.23,5.09-5.68,0-10.14-1.6-13.37-4.8-3.24-3.2-4.86-7.64-4.86-13.34,0-7.99,3.05-13.52,9.15-16.59,2.77-1.39,6.18-2.09,10.24-2.09,5.79,0,10.31,1.51,13.53,4.56,3.27,3.09,4.91,7.34,4.91,12.75ZM246.86,372.55c-.37,2.43-.55,5.17-.55,8.22l-.26.26-18.1-.15c-3.03,0-5.16.05-6.4.15l-.26-.26v-.7l.13-.3c1.23-.78,1.9-1.27,1.99-1.47.15-.3.25-1.4.28-3.31l.07-5.59v-12.63c0-3.95-.1-6.53-.32-7.72-.08-.49-.37-.79-.84-.93-.26-.06-1.22-.15-2.92-.25l-.25-.25v-1.69l.25-.23c1.71.1,4.22.15,7.53.15s6.02-.05,7.8-.15l.25.23v1.72l-.25.22c-1.7.1-2.67.19-2.92.25-.49.14-.77.44-.85.93-.21,1.19-.32,3.77-.32,7.72v14.9c0,2.18.04,4.29.13,6.33h3.39c4.86,0,7.82-.19,8.92-.57.19-.07.32-.16.4-.28.16-.23.32-.72.48-1.49l.59-3.09.25-.27h1.52l.27.25ZM202.84,363.76c0-4.81-.96-8.64-2.9-11.47-1.94-2.83-4.77-4.24-8.5-4.24-4.94,0-8.21,2.21-9.82,6.65-.82,2.27-1.24,4.82-1.24,7.64,0,5.14.94,9.18,2.84,12.16,1.96,3.07,4.89,4.61,8.79,4.61,4.73,0,7.92-2.33,9.54-7,.87-2.48,1.29-5.26,1.29-8.35ZM210.51,362.46c0,6.13-1.78,10.93-5.36,14.42-3.47,3.39-8.21,5.09-14.23,5.09-5.68,0-10.14-1.6-13.37-4.8-3.24-3.2-4.86-7.64-4.86-13.34,0-7.99,3.05-13.52,9.15-16.59,2.77-1.39,6.18-2.09,10.24-2.09,5.79,0,10.31,1.51,13.53,4.56,3.27,3.09,4.91,7.34,4.91,12.75ZM163.73,347.64l-.28.25c-1.69.1-2.66.19-2.91.25-.48.14-.77.44-.85.93-.21,1.19-.32,3.77-.32,7.72v10.11c0,7.46.11,12.32.32,14.57l-.32.23c-1.88-.31-3.3-.54-4.26-.67-4.45-5-12.05-14.12-22.8-27.36v16.29c0,3.95.11,6.52.32,7.72.08.48.37.79.85.92.25.07,1.22.15,2.92.25l.25.25v1.69l-.25.23c-1.91-.1-3.69-.15-5.33-.15-1.91,0-3.83.05-5.76.15l-.25-.23v-1.69l.25-.25c1.69-.1,2.67-.19,2.92-.25.48-.13.77-.43.84-.92.22-1.2.33-3.77.33-7.72v-13.18c0-3.95-.11-6.53-.33-7.72-.07-.49-.36-.79-.84-.93-.25-.06-1.23-.15-2.92-.25l-.25-.25v-1.69l.25-.23c1.58.1,3.08.15,4.51.15,2.24,0,4.11-.05,5.59-.15,5.98,7.98,13,16.52,21.07,25.64v-14.58c0-3.95-.11-6.53-.32-7.72-.09-.49-.37-.79-.84-.93-.26-.06-1.22-.15-2.92-.25l-.26-.25v-1.69l.26-.23c1.85.1,3.62.15,5.3.15,2.14,0,4.07-.05,5.77-.15l.25.23v1.69ZM116.97,380.7l-.26.25-5.08-.08c-.83-.02-2.29,0-4.36.08-.5-.62-1.31-1.97-2.44-4.06l-5.19-9.59-1.96,2.81c-2.49,3.57-4.8,7.19-6.92,10.84-.76-.05-1.53-.08-2.3-.08-1.55,0-2.67.02-3.38.08l-.26-.25v-1.59l.26-.27c1.36-.1,2.18-.24,2.46-.42.49-.32,1.62-1.67,3.38-4.07l3.26-4.4c.13-.17,1.46-1.96,3.99-5.38l-1.9-3.34-3.04-5.26c-2.15-3.72-3.8-5.92-4.93-6.6-.37-.23-.77-.35-1.19-.35-.33,0-.85.02-1.55.07l-.32-.25-.2-1.32.22-.37c2.34-.48,5.36-1.15,9.04-1.99,1.05.68,2.13,1.91,3.24,3.68.54.87,1.37,2.35,2.49,4.44l2.81,5.23,3.24-4.73c2.68-3.91,4.41-6.58,5.21-7.99.68.07,1.35.1,2.02.1,1.11,0,2.24-.03,3.38-.1l.26.25v1.65l-.26.25c-1.14.01-1.9.14-2.28.37-.37.23-1.1,1.02-2.18,2.36-1.08,1.34-2.5,3.21-4.26,5.6-.98,1.33-2.18,2.98-3.59,4.96.83,1.53,2.01,3.68,3.56,6.45l3.19,5.49c1.76,3.02,2.87,4.73,3.33,5.12.46.39,1.2.59,2.23.59l.26.25v1.59ZM76.98,372.55c-.37,2.43-.55,5.17-.55,8.22l-.26.26-18.1-.15c-3.03,0-5.16.05-6.4.15l-.26-.26v-.7l.13-.3c1.23-.78,1.9-1.27,1.99-1.47.15-.31.25-1.42.28-3.31l.07-5.59v-12.63c0-3.95-.1-6.53-.32-7.72-.08-.49-.36-.79-.84-.93-.26-.06-1.22-.15-2.92-.25l-.25-.25v-1.69l.25-.23c1.67.1,4.27.15,7.77.15,3.12,0,9.05-.05,17.82-.15l.27.2-.32,2.76c-.1.88-.18,1.63-.23,2.24l-.17,2.32-.24.27h-1.45l-.25-.25c-.02-2.26-.14-3.55-.4-3.86-.18-.24-1.07-.42-2.67-.55-1.61-.13-3.01-.19-4.23-.19-1.45,0-2.91.06-4.39.17-.18,1.74-.27,4.17-.27,7.25v5.15c1.31.08,2.37.13,3.19.13l3.27-.03c1.53-.02,2.39-.13,2.59-.37.26-.3.43-1.42.52-3.36l.25-.26h1.55l.25.26c-.06,1.85-.09,3.56-.09,5.1,0,1.68.03,3.51.09,5.51l-.25.22h-1.67l-.26-.25c0-1.91-.13-3.05-.39-3.4-.27-.36-1.07-.6-2.42-.71-1.01-.08-2.09-.12-3.23-.12-1.22,0-2.35.04-3.39.12v7.6c0,2.18.04,4.29.13,6.33h3.39c4.86,0,7.82-.19,8.92-.57.19-.07.32-.16.4-.28.16-.23.32-.72.48-1.49l.59-3.09.25-.27h1.52l.27.25ZM41.95,345.87c-.2,1.23-.3,2.5-.32,3.81l-.05,4.16-.25.25h-1.57l-.27-.23c-.08-2.13-.18-3.37-.27-3.73-.21-.66-.73-1.06-1.6-1.17-.33-.05-1.9-.08-4.68-.08h-3.33c-.03.59-.05,2.89-.05,6.93v14.15c0,3.95.11,6.52.32,7.72.09.48.37.79.85.92.25.07,1.22.15,2.91.25l.25.25v1.67l-.25.26c-1.64-.1-4.2-.15-7.67-.15s-6.11.05-7.67.15l-.23-.23v-1.69l.26-.25c1.69-.1,2.66-.19,2.91-.25.49-.13.77-.43.85-.92.21-1.2.32-3.77.32-7.72v-14.15c0-4.11-.02-6.41-.08-6.93h-3.56c-2.97,0-4.7.09-5.2.28-.26.09-.45.22-.54.36-.15.27-.28.8-.37,1.6-.12.88-.2,1.78-.23,2.71l-.25.25h-1.57l-.27-.25-.05-4.26c-.02-1.19-.11-2.43-.3-3.71l.23-.25c.98.17,4.55.25,10.71.25h10.09c5.68,0,9.25-.08,10.72-.25l.24.25ZM497.98,317.48c-.37,2.43-.54,5.17-.54,8.22l-.26.25-18.1-.15c-3.03,0-5.16.05-6.4.15l-.26-.25v-.7l.13-.3c1.22-.78,1.9-1.27,1.99-1.47.15-.3.25-1.4.28-3.31l.07-5.59v-12.63c0-3.95-.1-6.53-.32-7.72-.08-.49-.37-.79-.84-.93-.26-.06-1.22-.14-2.92-.25l-.25-.25v-1.69l.25-.23c1.71.1,4.22.15,7.53.15s6.02-.05,7.8-.15l.25.23v1.72l-.25.22c-1.7.1-2.67.19-2.92.25-.49.14-.77.44-.85.93-.21,1.19-.32,3.77-.32,7.72v14.9c0,2.18.04,4.28.13,6.33h3.38c4.86,0,7.82-.19,8.92-.57.19-.07.32-.16.4-.28.16-.23.32-.72.48-1.49l.6-3.09.24-.27h1.52l.27.25ZM462.66,282.91c0,1.01-.36,1.87-1.06,2.58-.71.71-1.57,1.06-2.58,1.06s-1.84-.36-2.55-1.06-1.06-1.57-1.06-2.58.36-1.88,1.07-2.6c.71-.72,1.56-1.09,2.54-1.09s1.83.36,2.55,1.06c.72.71,1.09,1.58,1.09,2.63ZM466.94,325.7l-.23.25c-1.66-.1-4.23-.15-7.7-.15s-6.01.05-7.67.15l-.23-.25v-1.67l.26-.24c1.69-.1,2.66-.19,2.91-.26.49-.13.77-.43.85-.92.21-1.2.32-3.77.32-7.72v-13.18c0-3.95-.11-6.53-.32-7.72-.08-.49-.37-.79-.85-.93-.24-.06-1.22-.14-2.91-.25l-.26-.25v-1.69l.26-.23c1.59.1,4.15.15,7.67.15s6.05-.05,7.64-.15l.26.23v1.69l-.26.25c-1.69.1-2.66.19-2.91.25-.48.14-.77.44-.85.93-.21,1.19-.32,3.77-.32,7.72v13.18c0,3.95.11,6.52.32,7.72.08.48.37.79.85.92.25.07,1.22.15,2.91.26l.26.24v1.67ZM441.45,314.29c0,2.75-.78,5.16-2.35,7.25-1.36,1.84-3.15,3.21-5.36,4.11-2.02.83-4.44,1.25-7.24,1.25-3.49,0-6.91-.8-10.26-2.39l-.3-.55c.46-1.91.7-4.63.7-8.15l.25-.25h1.59l.23.25v.58c0,.93.1,2.15.3,3.68.59,1.06,1.67,1.98,3.21,2.74,1.61.8,3.29,1.2,5.04,1.2,3.28,0,5.56-1.15,6.82-3.43.65-1.18.98-2.4.98-3.67,0-2.13-.89-3.65-2.67-4.56-.88-.45-2.3-.82-4.26-1.12-4.43-.68-7.35-1.54-8.74-2.57-2.11-1.56-3.16-3.97-3.16-7.25s1.15-6.12,3.44-8.14c2.42-2.13,5.8-3.19,10.12-3.19,3.89,0,7.03.62,9.42,1.87l.17.6c-.39,1.97-.64,4.35-.72,7.12l-.28.25h-1.56l-.26-.25c-.04-2-.13-3.29-.25-3.89-.51-.78-1.41-1.45-2.69-2-1.36-.56-2.78-.84-4.26-.84-2.23,0-3.99.59-5.28,1.77-1.22,1.11-1.82,2.55-1.82,4.31,0,1.9.69,3.31,2.07,4.21.89.58,3.01,1.13,6.35,1.67.35.05,1.32.21,2.92.5.98.16,1.88.4,2.71.71,1.67.64,2.94,1.6,3.78,2.89.92,1.41,1.38,3.17,1.38,5.28ZM406.38,325.7l-.26.25c-1.64-.1-4.2-.15-7.67-.15s-6.11.05-7.67.15l-.25-.23v-1.69l.27-.24c1.7-.1,2.67-.19,2.92-.26.48-.13.77-.43.85-.92.21-1.2.32-3.77.32-7.72v-6c-.85-.09-3.54-.13-8.07-.13-4.18,0-6.95.04-8.27.13v6c0,3.95.11,6.52.32,7.72.09.48.36.79.85.92.25.07,1.21.15,2.92.26l.25.24v1.67l-.22.25c-1.67-.1-4.23-.15-7.68-.15s-6.13.05-7.67.15l-.25-.23v-1.69l.25-.24c1.69-.1,2.66-.19,2.92-.26.48-.13.76-.43.84-.92.22-1.2.32-3.77.32-7.72v-13.18c0-3.95-.1-6.53-.32-7.72-.09-.49-.37-.79-.84-.93-.26-.06-1.22-.14-2.92-.25l-.25-.25v-1.69l.25-.23c1.59.1,4.15.15,7.67.15s6.16-.05,7.68-.15l.22.23v1.72l-.25.22c-1.7.1-2.67.19-2.92.25-.49.14-.77.44-.85.93-.21,1.19-.32,3.77-.32,7.72v4.11c1.76.08,4.18.13,7.28.13,4.85,0,7.86-.04,9.06-.13v-4.11c0-3.95-.11-6.53-.32-7.72-.08-.49-.36-.79-.85-.93-.25-.06-1.22-.14-2.92-.25l-.27-.25v-1.69l.25-.23c1.61.1,4.17.15,7.67.15s6.18-.05,7.67-.15l.26.23v1.72l-.23.22c-1.73.1-2.71.19-2.93.25-.49.14-.77.44-.85.93-.22,1.19-.32,3.77-.32,7.72v13.18c0,3.95.1,6.52.32,7.72.09.48.37.79.85.92.25.07,1.22.15,2.91.26l.26.24v1.67ZM355.43,309.51h-21l-.25.25c0,1.83.1,3.45.32,4.88.94,6.27,4.32,9.39,10.11,9.39,4.74,0,7.92-2.33,9.54-7,.77-2.18,1.19-4.69,1.28-7.53ZM363.13,307.4c0,6.13-1.79,10.93-5.36,14.42-3.47,3.39-8.21,5.09-14.23,5.09s-10.41-1.58-13.1-4.74c-2.62-3.07-3.94-6.86-3.94-11.38,0-1.4.05-2.53.15-3.38l.25-.25,28.53.04c0-2.4-.14-4.21-.4-5.4-1.31-5.88-4.98-8.82-10.99-8.82-3.07,0-5.55.77-7.45,2.31-1.83,1.48-3.28,3.83-4.36,7.05l-.37.3-1.4-.77,1.05-7.63c.95-.8,1.93-1.45,2.94-1.97,2.89-1.46,6.3-2.19,10.24-2.19,5.8,0,10.31,1.51,13.53,4.56,3.27,3.09,4.91,7.34,4.91,12.76ZM318.16,290.81c-.2,1.22-.31,2.5-.32,3.81l-.05,4.16-.24.25h-1.57l-.27-.23c-.09-2.12-.18-3.37-.27-3.73-.2-.66-.73-1.05-1.6-1.17-.33-.05-1.9-.07-4.69-.07h-3.33c-.03.59-.05,2.89-.05,6.93v14.15c0,3.95.11,6.52.32,7.72.09.48.37.79.85.92.25.07,1.22.15,2.91.26l.25.24v1.67l-.25.25c-1.64-.1-4.2-.15-7.67-.15s-6.11.05-7.67.15l-.23-.23v-1.69l.26-.24c1.69-.1,2.66-.19,2.91-.26.49-.13.77-.43.85-.92.21-1.2.32-3.77.32-7.72v-14.15c0-4.11-.02-6.41-.07-6.93h-3.56c-2.97,0-4.7.09-5.2.28-.26.09-.45.22-.54.37-.15.27-.28.8-.37,1.6-.12.88-.2,1.78-.23,2.71l-.25.25h-1.57l-.27-.25-.05-4.26c-.02-1.19-.11-2.43-.3-3.71l.23-.26c.98.17,4.55.26,10.71.26h10.09c5.68,0,9.25-.08,10.71-.26l.24.26ZM259.73,282.91c0,1.01-.36,1.87-1.06,2.58-.71.71-1.57,1.06-2.58,1.06s-1.85-.36-2.55-1.06c-.71-.71-1.06-1.57-1.06-2.58s.36-1.88,1.07-2.6c.71-.72,1.56-1.09,2.54-1.09s1.83.36,2.55,1.06c.72.71,1.09,1.58,1.09,2.63ZM264.01,325.7l-.23.25c-1.66-.1-4.23-.15-7.7-.15s-6.01.05-7.67.15l-.23-.25v-1.67l.25-.24c1.69-.1,2.66-.19,2.91-.26.48-.13.77-.43.85-.92.21-1.2.32-3.77.32-7.72v-13.18c0-3.95-.11-6.53-.32-7.72-.08-.49-.37-.79-.85-.93-.25-.06-1.22-.14-2.91-.25l-.25-.25v-1.69l.25-.23c1.59.1,4.15.15,7.67.15s6.05-.05,7.64-.15l.26.23v1.69l-.26.25c-1.69.1-2.66.19-2.91.25-.48.14-.77.44-.85.93-.21,1.19-.32,3.77-.32,7.72v13.18c0,3.95.11,6.52.32,7.72.08.48.37.79.85.92.25.07,1.22.15,2.91.26l.26.24v1.67ZM239.29,317.48c-.37,2.43-.54,5.17-.54,8.22l-.26.25-18.1-.15c-3.03,0-5.16.05-6.4.15l-.25-.25v-.7l.13-.3c1.22-.78,1.9-1.27,1.99-1.47.15-.3.25-1.4.28-3.31l.07-5.59v-12.63c0-3.95-.1-6.53-.32-7.72-.08-.49-.37-.79-.84-.93-.26-.06-1.22-.14-2.92-.25l-.25-.25v-1.69l.25-.23c1.71.1,4.22.15,7.53.15s6.02-.05,7.8-.15l.25.23v1.72l-.25.22c-1.7.1-2.67.19-2.92.25-.49.14-.77.44-.85.93-.21,1.19-.32,3.77-.32,7.72v14.9c0,2.18.04,4.28.13,6.33h3.38c4.86,0,7.82-.19,8.92-.57.19-.07.32-.16.4-.28.16-.23.32-.72.48-1.49l.6-3.09.25-.27h1.52l.27.25ZM203.39,317.48c-.37,2.43-.54,5.17-.54,8.22l-.26.25-18.1-.15c-3.03,0-5.16.05-6.4.15l-.25-.25v-.7l.13-.3c1.23-.78,1.9-1.27,1.99-1.47.15-.3.25-1.4.28-3.31l.07-5.59v-12.63c0-3.95-.1-6.53-.32-7.72-.08-.49-.36-.79-.84-.93-.26-.06-1.23-.14-2.92-.25l-.24-.25v-1.69l.24-.23c1.71.1,4.22.15,7.53.15s6.02-.05,7.8-.15l.25.23v1.72l-.25.22c-1.7.1-2.67.19-2.92.25-.49.14-.76.44-.85.93-.21,1.19-.32,3.77-.32,7.72v14.9c0,2.18.04,4.28.13,6.33h3.38c4.86,0,7.82-.19,8.92-.57.19-.07.31-.16.4-.28.16-.23.32-.72.48-1.49l.6-3.09.25-.27h1.52l.27.25ZM168.07,282.91c0,1.01-.36,1.87-1.06,2.58-.71.71-1.57,1.06-2.58,1.06s-1.84-.36-2.55-1.06c-.71-.71-1.06-1.57-1.06-2.58s.36-1.88,1.07-2.6c.71-.72,1.56-1.09,2.54-1.09s1.83.36,2.55,1.06c.72.71,1.09,1.58,1.09,2.63ZM172.35,325.7l-.23.25c-1.66-.1-4.23-.15-7.7-.15s-6.01.05-7.67.15l-.23-.25v-1.67l.25-.24c1.69-.1,2.66-.19,2.91-.26.48-.13.77-.43.85-.92.21-1.2.32-3.77.32-7.72v-13.18c0-3.95-.11-6.53-.32-7.72-.08-.49-.37-.79-.85-.93-.25-.06-1.22-.14-2.91-.25l-.25-.25v-1.69l.25-.23c1.59.1,4.15.15,7.67.15s6.05-.05,7.64-.15l.26.23v1.69l-.26.25c-1.69.1-2.66.19-2.91.25-.49.14-.77.44-.85.93-.21,1.19-.32,3.77-.32,7.72v13.18c0,3.95.11,6.52.32,7.72.09.48.37.79.85.92.24.07,1.21.15,2.91.26l.26.24v1.67ZM147.73,325.7l-.25.25c-1.65-.1-4.2-.15-7.68-.15s-6.1.05-7.67.15l-.22-.23v-1.69l.25-.24c1.69-.1,2.66-.19,2.92-.26.48-.13.77-.43.84-.92.22-1.2.33-3.77.33-7.72v-16.85l-5.56,11.39c-.32.63-1.4,2.96-3.24,6.98l-4.56,9.96h-1.67c-.87-2.06-2.03-4.65-3.51-7.8l-3.49-7.4-6.53-13.57v17.29c0,3.95.11,6.52.32,7.72.08.48.37.79.85.92.25.07,1.22.15,2.92.26l.25.24v1.69l-.25.23c-1.91-.1-3.69-.15-5.33-.15-1.91,0-3.83.05-5.76.15l-.25-.23v-1.69l.25-.24c1.69-.1,2.66-.19,2.92-.26.48-.13.76-.43.84-.92.22-1.2.32-3.77.32-7.72v-13.18c0-3.95-.1-6.53-.32-7.72-.09-.49-.37-.79-.84-.93-.25-.06-1.22-.14-2.92-.25l-.25-.25v-1.69l.25-.23c1.73.1,3.91.15,6.55.15,2.03,0,3.8-.05,5.3-.15.55,1.27,1.34,3.04,2.35,5.33l1.59,3.44,7.93,16.57,3.81-7.73,5.95-12.73c.7-1.5,1.38-3.14,2.05-4.88,1.87.1,3.14.15,3.78.15,3.26,0,5.75-.05,7.47-.15l.25.23v1.72l-.25.22c-1.69.1-2.67.19-2.92.25-.48.14-.77.44-.85.93-.21,1.19-.33,3.77-.33,7.72v13.18c0,3.95.11,6.52.33,7.72.08.48.37.79.85.92.25.07,1.22.15,2.92.26l.25.24v1.67Z"/>
        <path class="cls-2" d="M587.42,380.77l-.23.26c-1.66-.1-4.23-.15-7.7-.15s-6.01.05-7.67.15l-.23-.26v-1.67l.26-.25c1.69-.1,2.66-.19,2.91-.25.49-.13.77-.43.85-.92.21-1.2.32-3.77.32-7.72v-13.18c0-3.95-.11-6.53-.32-7.72-.08-.49-.36-.79-.85-.93-.24-.06-1.22-.15-2.91-.25l-.26-.25v-1.69l.26-.23c1.59.1,4.15.15,7.67.15s6.06-.05,7.64-.15l.26.23v1.69l-.26.25c-1.69.1-2.66.19-2.91.25-.48.14-.77.44-.85.93-.21,1.19-.32,3.77-.32,7.72v13.18c0,3.95.11,6.52.32,7.72.09.48.37.79.85.92.25.07,1.22.15,2.91.25l.26.25v1.67ZM563.87,380.77l-.25.26c-.12,0-.43,0-.94-.02-2.28-.09-3.7-.13-4.26-.13-.85,0-2.19.05-4.04.15-.07-.4-.38-1.06-.94-2l-6.18-10.31-2.76-4.21c-.35-.51-.84-1.02-1.47-1.52l.27-.84c.38.02.66.03.85.03,1.62,0,2.91-.26,3.83-.77.85-.47,1.63-1.27,2.35-2.44.71-1.16,1.06-2.55,1.06-4.16,0-2.81-1.05-4.7-3.14-5.68-1-.47-2.45-.7-4.35-.7-.83,0-1.63.06-2.4.2-.16,1.62-.25,4.4-.25,8.32v13.03c0,3.95.11,6.52.32,7.72.09.48.37.79.85.92.25.07,1.21.15,2.91.25l.25.25v1.67l-.22.26c-1.67-.1-4.23-.15-7.68-.15s-6.13.05-7.67.15l-.25-.23v-1.69l.25-.25c1.69-.1,2.66-.19,2.92-.25.48-.13.76-.43.84-.92.22-1.2.32-3.77.32-7.72v-13.18c0-3.95-.1-6.53-.32-7.72-.08-.49-.37-.79-.84-.93-.26-.06-1.22-.15-2.92-.25l-.25-.25v-1.69l.25-.23c1.62.1,4.18.15,7.67.15,2.02,0,3.67-.02,4.93-.07,2.51-.1,4.39-.15,5.63-.15,2.87,0,4.98.26,6.33.77,1.81.7,3.03,1.88,3.64,3.54.3.82.45,1.78.45,2.89,0,4.51-2.54,7.72-7.62,9.62.83,1.39,1.71,2.81,2.64,4.23l3.84,5.9c2.26,3.49,3.77,5.47,4.51,5.96.38.25.92.37,1.6.37l.25.26v1.59ZM506.18,367.37l-5.33-13.05-5.1,13.05c1.36.05,3.13.08,5.3.08s3.82-.02,5.13-.08ZM521.97,380.77l-.22.26c-3.69-.1-5.91-.15-6.67-.15-3.05,0-5.89.05-8.52.15l-.22-.26v-1.56l.25-.28,2.17-.12c.91-.05,1.37-.37,1.37-.97,0-.35-.23-1.13-.7-2.35l-2.01-5.26c-2.3-.03-4.64-.05-7.03-.05-1.29,0-3.21.02-5.77.05l-1.1,3.03c-.83,2.31-1.25,3.76-1.25,4.34,0,.63.39,1,1.17,1.12.43.07,1.28.14,2.54.2l.25.26v1.59l-.25.26c-3.07-.1-5.05-.15-5.93-.15-.68,0-2.37.05-5.06.15l-.25-.23v-1.61l.27-.26c1.71-.1,2.76-.43,3.15-1.02.39-.58,1.86-4.04,4.4-10.38l6.5-16.27c.48-1.27,1.22-3.16,2.19-5.71h3.54l13.2,31.06c.51,1.18.98,1.84,1.39,1.99.54.2,1.33.31,2.36.31l.22.27v1.59ZM476.63,372.55c-.37,2.43-.54,5.17-.54,8.22l-.26.26-18.1-.15c-3.03,0-5.16.05-6.4.15l-.26-.26v-.7l.13-.3c1.22-.78,1.9-1.27,1.99-1.47.15-.3.25-1.4.28-3.31l.07-5.59v-12.63c0-3.95-.1-6.53-.32-7.72-.08-.49-.36-.79-.84-.93-.26-.06-1.23-.15-2.92-.25l-.25-.25v-1.69l.25-.23c1.71.1,4.22.15,7.53.15s6.02-.05,7.8-.15l.25.23v1.72l-.25.22c-1.7.1-2.67.19-2.92.25-.49.14-.77.44-.85.93-.21,1.19-.32,3.77-.32,7.72v14.9c0,2.18.04,4.29.13,6.33h3.38c4.86,0,7.82-.19,8.92-.57.19-.07.31-.16.4-.28.16-.23.32-.72.48-1.49l.6-3.09.24-.27h1.52l.27.25Z"/>
        <path class="cls-2" d="M435.3,393.05c0,1.01-.36,1.87-1.06,2.58-.71.71-1.57,1.06-2.58,1.06s-1.84-.36-2.55-1.06c-.71-.71-1.06-1.56-1.06-2.58s.36-1.88,1.07-2.6c.71-.72,1.56-1.09,2.54-1.09s1.83.36,2.55,1.06c.72.71,1.09,1.58,1.09,2.63M439.57,435.84l-.23.25c-1.66-.1-4.23-.15-7.7-.15s-6.01.05-7.67.15l-.23-.25v-1.67l.25-.25c1.69-.1,2.66-.19,2.91-.26.48-.13.77-.43.85-.92.21-1.2.32-3.77.32-7.72v-13.18c0-3.95-.11-6.53-.32-7.72-.08-.49-.37-.79-.85-.93-.25-.06-1.22-.14-2.91-.25l-.25-.24v-1.69l.25-.23c1.59.1,4.15.15,7.67.15s6.05-.05,7.64-.15l.26.23v1.69l-.26.24c-1.69.1-2.66.19-2.91.25-.48.13-.77.44-.85.93-.21,1.19-.32,3.77-.32,7.72v13.18c0,3.95.11,6.52.32,7.72.08.49.37.79.85.92.25.07,1.22.15,2.91.26l.26.25v1.67ZM414.63,427.3c-.35,3.03-.61,5.88-.8,8.57l-.25.23c-6.83-.14-12.01-.2-15.54-.2-2.6,0-7.18.07-13.77.2l-.26-.23v-1.74c1.23-1.55,3.11-4.11,5.64-7.69l3.63-5.19,4.66-6.84c1.55-2.26,3.85-5.76,6.92-10.49l-6.25.02c-4.83.02-7.61.14-8.34.35-.43.12-.73.45-.9,1-.07.21-.2.99-.43,2.31l-.2,1.24-.27.26h-1.52l-.25-.3c.11-1.76.17-3.35.17-4.76,0-.45-.02-1.45-.05-2.99l.25-.25c2.25.1,7.29.15,15.09.15,1.84,0,5.86-.05,12.03-.15l.25.25v1.49l-2.04,2.86c-2.14,2.96-3.99,5.56-5.53,7.82l-7.37,10.81c-.83,1.21-2.77,4.19-5.81,8.91.88.03,2.22.05,4.01.05,8.42,0,12.9-.23,13.45-.7.3-.25.68-1.52,1.14-3.84.1-.49.2-.88.28-1.2l.27-.24h1.5l.27.27ZM372.68,419.65h-21l-.25.24c0,1.83.1,3.45.32,4.88.94,6.27,4.32,9.4,10.11,9.4,4.73,0,7.92-2.33,9.54-7,.77-2.18,1.19-4.68,1.27-7.53ZM380.38,417.54c0,6.13-1.78,10.93-5.36,14.42-3.47,3.39-8.21,5.09-14.23,5.09s-10.41-1.58-13.1-4.74c-2.62-3.07-3.94-6.86-3.94-11.39,0-1.4.05-2.53.15-3.38l.25-.25,28.53.04c0-2.4-.14-4.21-.4-5.4-1.31-5.89-4.97-8.82-10.99-8.82-3.07,0-5.55.76-7.45,2.31-1.83,1.48-3.28,3.83-4.36,7.05l-.37.3-1.39-.77,1.05-7.63c.95-.8,1.93-1.45,2.94-1.96,2.89-1.46,6.3-2.19,10.24-2.19,5.8,0,10.31,1.51,13.53,4.56,3.27,3.09,4.91,7.34,4.91,12.75ZM335.74,435.84l-.25.25c-2.72-.1-4.61-.15-5.65-.15-.94,0-2.4.05-4.41.15-.38-.83-1.23-2.01-2.56-3.52l-7.41-8.44c-1.61-1.83-3.34-3.5-5.21-5.03v5.93c0,3.95.11,6.52.32,7.72.09.49.37.79.85.92.25.07,1.22.15,2.92.26l.25.25v1.67l-.22.25c-1.67-.1-4.23-.15-7.68-.15s-6.13.05-7.67.15l-.25-.23v-1.69l.25-.25c1.69-.1,2.66-.19,2.92-.26.48-.13.76-.43.84-.92.22-1.2.32-3.77.32-7.72v-13.18c0-3.95-.1-6.53-.32-7.72-.09-.49-.37-.79-.84-.93-.26-.06-1.22-.14-2.92-.25l-.25-.24v-1.69l.25-.23c1.59.1,4.15.15,7.67.15s6.17-.05,7.68-.15l.22.23v1.72l-.25.22c-1.7.1-2.67.19-2.92.25-.49.13-.77.44-.85.93-.21,1.19-.32,3.77-.32,7.72v6.18c3.1-2.89,5.33-5.03,6.68-6.43l3.54-3.66c1.22-1.26,2.76-2.99,4.66-5.18v-1.72l.27-.25c1.28.1,2.54.15,3.77.15,1.45,0,3.14-.05,5.08-.15l.26.25v1.54l-.26.25c-1.92,0-3.35.32-4.28.93-1.34.89-3.9,3.12-7.65,6.68l-5.03,4.78c.71.97,1.88,2.39,3.49,4.26l5.59,6.48c4.13,4.81,6.52,7.35,7.17,7.65.4.18,1.05.28,1.97.3l.25.27v1.67ZM291.47,435.84l-.25.25c-.12,0-.43,0-.94-.02-2.28-.09-3.7-.13-4.26-.13-.85,0-2.19.05-4.04.15-.07-.4-.38-1.06-.94-2l-6.18-10.31-2.76-4.21c-.35-.51-.84-1.02-1.47-1.52l.27-.84c.38.02.66.02.85.02,1.62,0,2.91-.26,3.83-.77.85-.47,1.63-1.28,2.35-2.44.71-1.16,1.06-2.55,1.06-4.16,0-2.81-1.05-4.7-3.14-5.68-1-.47-2.45-.7-4.35-.7-.83,0-1.63.06-2.4.19-.16,1.63-.25,4.4-.25,8.32v13.03c0,3.95.11,6.52.32,7.72.09.49.37.79.85.92.24.07,1.21.15,2.92.26l.25.25v1.67l-.22.25c-1.67-.1-4.23-.15-7.68-.15s-6.13.05-7.67.15l-.25-.23v-1.69l.25-.25c1.69-.1,2.66-.19,2.92-.26.48-.13.76-.43.84-.92.22-1.2.32-3.77.32-7.72v-13.18c0-3.95-.1-6.53-.32-7.72-.08-.49-.37-.79-.84-.93-.26-.06-1.22-.14-2.92-.25l-.25-.24v-1.69l.25-.23c1.62.1,4.18.15,7.67.15,2.02,0,3.67-.03,4.93-.08,2.51-.1,4.39-.15,5.63-.15,2.87,0,4.98.26,6.33.77,1.81.7,3.03,1.88,3.64,3.54.3.82.45,1.78.45,2.89,0,4.52-2.54,7.72-7.62,9.62.83,1.39,1.71,2.8,2.64,4.23l3.84,5.9c2.26,3.49,3.77,5.48,4.51,5.96.38.25.92.37,1.6.37l.25.25v1.59ZM245.74,419.65h-21l-.25.24c0,1.83.1,3.45.32,4.88.94,6.27,4.32,9.4,10.11,9.4,4.74,0,7.92-2.33,9.54-7,.77-2.18,1.19-4.68,1.28-7.53ZM253.44,417.54c0,6.13-1.79,10.93-5.36,14.42-3.47,3.39-8.21,5.09-14.23,5.09s-10.41-1.58-13.1-4.74c-2.62-3.07-3.94-6.86-3.94-11.39,0-1.4.05-2.53.15-3.38l.25-.25,28.53.04c0-2.4-.14-4.21-.4-5.4-1.31-5.89-4.98-8.82-10.99-8.82-3.07,0-5.55.76-7.45,2.31-1.83,1.48-3.28,3.83-4.36,7.05l-.37.3-1.4-.77,1.05-7.63c.95-.8,1.93-1.45,2.94-1.96,2.89-1.46,6.3-2.19,10.24-2.19,5.8,0,10.31,1.51,13.53,4.56,3.27,3.09,4.91,7.34,4.91,12.75ZM207.7,435.84l-.25.25c-1.65-.1-4.2-.15-7.68-.15s-6.1.05-7.67.15l-.22-.23v-1.69l.25-.25c1.69-.1,2.66-.19,2.92-.26.48-.13.77-.43.84-.92.22-1.2.33-3.77.33-7.72v-16.84l-5.56,11.38c-.32.63-1.4,2.96-3.24,6.98l-4.56,9.96h-1.67c-.87-2.06-2.03-4.65-3.51-7.8l-3.49-7.4-6.53-13.57v17.29c0,3.95.11,6.52.32,7.72.08.49.37.79.85.92.25.07,1.22.15,2.92.26l.25.25v1.69l-.25.23c-1.91-.1-3.69-.15-5.33-.15-1.91,0-3.83.05-5.76.15l-.25-.23v-1.69l.25-.25c1.69-.1,2.66-.19,2.92-.26.48-.13.76-.43.84-.92.22-1.2.32-3.77.32-7.72v-13.18c0-3.95-.1-6.53-.32-7.72-.09-.49-.37-.79-.84-.93-.25-.06-1.22-.14-2.92-.25l-.25-.24v-1.69l.25-.23c1.73.1,3.91.15,6.55.15,2.03,0,3.8-.05,5.31-.15.55,1.27,1.34,3.04,2.35,5.33l1.59,3.43,7.93,16.57,3.81-7.73,5.95-12.73c.7-1.5,1.38-3.14,2.05-4.88,1.87.1,3.14.15,3.78.15,3.26,0,5.75-.05,7.47-.15l.25.23v1.72l-.25.22c-1.69.1-2.67.19-2.92.25-.48.13-.77.44-.85.93-.21,1.19-.33,3.77-.33,7.72v13.18c0,3.95.11,6.52.33,7.72.08.49.37.79.85.92.25.07,1.22.15,2.92.26l.25.25v1.67Z"/>
        <path class="cls-2" d="M8.99,263.22c-1.25,0-2.26-1.01-2.26-2.26s1.01-2.26,2.26-2.26h582.03c1.25,0,2.26,1.01,2.26,2.26s-1.01,2.26-2.26,2.26H8.99Z"/>
        <path class="cls-1" d="M147.19,239.12c-42.09-13.95-88.46-16.32-138.2-15.78l5.7-12.1c46.53,2.98,89.71,7.63,132.5,27.88,42.8-20.26,85.97-24.9,132.5-27.88l5.7,12.1c-49.74-.53-96.11,1.83-138.2,15.78M147.19,239.12c-42.09-23.25-88.46-34.32-138.2-35.8,15.75-38.88,20.55-76.72,19.5-116.18,8.09,37.24,7.2,68.47.56,104.8,49.57,8.8,88.54,23.83,118.15,47.18,42.09-23.25,88.46-34.32,138.2-35.8-15.75-38.88-20.55-76.72-19.5-116.18-8.09,37.24-7.2,68.47-.56,104.8-49.57,8.8-88.54,23.83-118.15,47.18"/>
        <path class="cls-1" d="M167.8,28.75c10.16,6.57,16.89,18,16.89,31.01,0,20.38-16.52,36.9-36.9,36.9s-36.9-16.52-36.9-36.9c0-13,6.73-24.43,16.89-31-6.51,5.62-10.63,13.93-10.63,23.2,0,16.92,13.72,30.64,30.64,30.64s30.64-13.72,30.64-30.64c0-9.27-4.12-17.59-10.63-23.21"/>
        <polygon class="cls-1" points="147.79 22.08 150.2 27.27 155.57 25.31 153.6 30.68 158.79 33.09 153.6 35.5 155.57 40.87 150.19 38.9 147.79 44.09 145.38 38.9 140 40.87 141.97 35.5 136.78 33.09 141.97 30.68 140 25.31 145.38 27.27 147.79 22.08"/>
        <path class="cls-1" d="M98.8,40.15c.44-1.06,1.66-1.57,2.72-1.13,1.06.44,1.57,1.66,1.13,2.72-.44,1.06-1.66,1.57-2.72,1.13-1.06-.44-1.56-1.66-1.12-2.72"/>
        <path class="cls-1" d="M98.8,80.28c-.44-1.06.06-2.28,1.13-2.72,1.06-.44,2.28.06,2.72,1.13.44,1.06-.06,2.28-1.13,2.72-1.06.44-2.28-.06-2.72-1.13"/>
        <path class="cls-1" d="M127.17,108.65c-1.06-.44-1.57-1.66-1.13-2.72.44-1.06,1.66-1.57,2.72-1.13,1.06.44,1.57,1.66,1.13,2.72-.44,1.06-1.66,1.56-2.72,1.12"/>
        <path class="cls-1" d="M167.3,108.65c-1.06.44-2.28-.06-2.72-1.13-.44-1.06.06-2.28,1.13-2.72,1.06-.44,2.28.06,2.72,1.13.44,1.06-.06,2.28-1.13,2.72"/>
        <path class="cls-1" d="M195.67,80.28c-.44,1.06-1.66,1.57-2.72,1.13-1.06-.44-1.56-1.66-1.12-2.72.44-1.06,1.66-1.57,2.72-1.13,1.06.44,1.56,1.66,1.12,2.72"/>
        <path class="cls-1" d="M195.67,40.15c.44,1.06-.06,2.28-1.13,2.72-1.06.44-2.28-.06-2.72-1.13-.44-1.06.06-2.28,1.13-2.72,1.06-.44,2.28.06,2.72,1.13"/>
        <path class="cls-2" d="M192.01,61.69c.2-6.18-.88-12.5-3.4-18.58-3.39-8.2-9.19-15.07-16.36-19.92-7.16-4.84-15.7-7.66-24.58-7.76-2.97-.03-5.97.23-8.97.81-2.91.56-5.81,1.43-8.66,2.61-6.12,2.54-11.39,6.28-15.63,10.83-4.41,4.73-7.71,10.34-9.74,16.4h0s-.04.11-.04.11h0l-.14.44-.14.46-.05.15h0s-.25.86-.25.86h0s-.06.2-.06.2l-.22.81-.07.27h0l-.17.68-.1.44h0l-.13.58h0s-.11.54-.11.54h0l-.08.44h0l-.13.7h0l-.05.28h0l-.14.89-.02.14h0l-.11.84h0c-.45,3.77-.44,7.61.09,11.44.51,3.71,1.5,7.43,3.01,11.06,2.54,6.12,6.28,11.39,10.83,15.63,4.73,4.41,10.35,7.72,16.41,9.74h0s.09.03.09.03h0s.46.15.46.15l.47.15h0s.09.03.09.03h0s.47.13.47.13l.48.14h0s.1.03.1.03h0s.45.12.45.12h0s.48.12.48.12l.13.03.87.21.2.04h0s.4.09.4.09h0s.42.08.42.08h0s.25.05.25.05h0s.8.15.8.15h0s.3.06.3.06h0s.69.11.69.11h0s.44.06.44.06h0s.64.09.64.09h0s.45.06.45.06h0s.6.07.6.07h0s.51.05.51.05h0s.5.05.5.05h0s.61.05.61.05h0s.48.04.48.04l.62.04h0s.45.02.45.02l.61.02c3.08.08,6.19-.16,9.29-.74,3.01-.56,6.02-1.45,8.97-2.67,2.99-1.24,5.77-2.76,8.33-4.52,2.62-1.81,5.02-3.88,7.16-6.16l.06-.07h0s.66-.71.66-.71h0s.09-.11.09-.11l.3-.34h0l.29-.33.14-.16h0s.57-.69.57-.69h0l.12-.16h0s.53-.66.53-.66h0s.16-.21.16-.21h0s.47-.62.47-.62l.2-.27h0s.43-.6.43-.6h0s.2-.29.2-.29l.4-.59.22-.34h0s.34-.52.34-.52l.26-.42.3-.5h0s.26-.43.26-.43h0l.28-.49h0s.27-.47.27-.47h0s.23-.43.23-.43h0l.29-.56h0s.21-.41.21-.41h0s.27-.54.27-.54h0c2.8-5.69,4.4-11.96,4.61-18.38M190.87,42.18c2.65,6.41,3.79,13.08,3.58,19.59-.22,6.77-1.9,13.38-4.85,19.38h0s-.28.57-.28.57h0s-.22.44-.22.44h0s-.29.57-.29.57h0s-.25.46-.25.46h0s-.27.49-.27.49h0s-.29.51-.29.51v.02s-.28.46-.28.46h0s-.31.52-.31.52h0s-.27.43-.27.43h0s-.35.55-.35.55h0s-.24.37-.24.37v.02s-.41.59-.41.59h0s-.22.32-.22.32h0s-.43.61-.43.61h0s-.22.31-.22.31h0s-.48.65-.48.65h0s-.16.22-.16.22v.02s-.56.69-.56.69h0s-.14.18-.14.18h0s-.57.7-.57.7h-.01s-.15.19-.15.19h0s-.3.35-.3.35h0s-.3.36-.3.36h0s-.1.11-.1.11h-.01s-.67.74-.67.74h0s-.07.09-.07.09h0c-2.25,2.4-4.78,4.59-7.56,6.5-2.7,1.86-5.64,3.47-8.78,4.77-3.1,1.28-6.27,2.22-9.46,2.81-3.27.61-6.55.86-9.8.78h0l-.63-.02h-.01l-.47-.02h-.01l-.64-.04h-.01l-.5-.03h-.01l-.61-.05h-.02s-.53-.05-.53-.05h-.01l-.52-.06h-.02l-.6-.07h-.01s-.48-.07-.48-.07h-.02l-.65-.09h0l-.44-.07h-.02s-.71-.12-.71-.12h-.02s-.33-.06-.33-.06h-.01l-.8-.16h0s-.27-.06-.27-.06h-.01l-.42-.09h0s-.42-.1-.42-.1h0l-.2-.05h-.02s-.9-.22-.9-.22h-.02s-.14-.04-.14-.04l-.48-.12h-.01s-.47-.13-.47-.13h0l-.1-.03h0l-.48-.14h-.02s-.48-.15-.48-.15h0s-.1-.04-.1-.04h-.01l-.47-.15h-.01s-.48-.16-.48-.16h0s-.1-.04-.1-.04h0c-6.39-2.13-12.31-5.62-17.3-10.26-4.8-4.47-8.75-10.03-11.43-16.49-1.59-3.83-2.63-7.75-3.17-11.67-.56-4.05-.58-8.1-.1-12.06h0s.11-.83.11-.83h0s0-.06,0-.06v-.04s0-.02,0-.02v-.1s.15-.89.15-.89h0s.05-.33.05-.33h0s.12-.72.12-.72v-.02s.09-.46.09-.46h0s.11-.57.11-.57v-.02l.13-.58h0s.1-.46.1-.46v-.02s.18-.71.18-.71h0s.07-.31.07-.31v-.02s.23-.83.23-.83v-.02s.06-.2.06-.2h0s.26-.89.26-.89v-.02s.05-.15.05-.15l.14-.46v-.02s.16-.46.16-.46h0s.04-.11.04-.11h0c2.13-6.39,5.62-12.31,10.26-17.3,4.47-4.8,10.03-8.75,16.49-11.42,3-1.24,6.06-2.15,9.13-2.75,3.14-.61,6.31-.89,9.45-.85,9.39.1,18.39,3.07,25.93,8.17,7.55,5.11,13.66,12.36,17.25,21.02Z"/>
        <path class="cls-1" d="M127.17,11.78c1.06-.44,2.28.06,2.72,1.13.44,1.06-.06,2.28-1.13,2.72-1.06.44-2.28-.06-2.72-1.13-.44-1.06.06-2.28,1.13-2.72"/>
        <path class="cls-1" d="M167.3,11.78c1.06.44,1.56,1.66,1.13,2.72-.44,1.06-1.66,1.56-2.72,1.13-1.06-.44-1.57-1.66-1.13-2.72.44-1.06,1.66-1.57,2.72-1.13"/>
        <path class="cls-1" d="M152.65,207.84c.43-4.26.85-8.53,1.3-12.78,0,0,.21-2.01.8-4.68-.04,0-.06.02-.06.02-.77.16-1.54.3-2.3.45-2,9.54-5.06,26.34-5.2,28.81.29-.13.58-.26.86-.4,0,0,.27-3.92,4.6-11.42M205.72,104.62c-12.18,10.89-23.73,23.5-32.38,38.04-8.7,14.63-14.64,31.12-18.6,47.72,17.2-12.94,25.77-35.24,35.15-48.83-2.8-1.01-5.43-1.11-8.4-.9-.18-.27,4.57-3.96,10.5-3.53,5.88-9.22,18.48-23.67,22.72-28.16,0,0-5.53.12-7.59,1.04,3.58-3.58,7.16-4.91,11.55-5.17,9.79-9.42,25.43-17.31,37.8-21.4-19.12,3.85-48.83,7.46-66.04,21.5-.04,2.56-.49,5.37-2,7.71-.31-1.47-1.41-4.32-2.16-5.28-9.93,7.2-18.83,15.94-25.88,30.33.52,2.9.95,6.11,2.48,10.97,0,0-4.08-2.19-4.97-6.43-5.49,17.75-8.44,27.79-5.51,48.62,4.19-17.4,10.31-34.53,19.39-49.3,9.04-14.7,21.11-26.98,33.95-36.93Z"/>
        <path class="cls-1" d="M141.72,207.84c-.43-4.26-.85-8.53-1.29-12.78,0,0-.21-2.01-.8-4.68.04,0,.07.02.07.02.77.16,1.53.3,2.3.45,2,9.54,5.06,26.34,5.2,28.81-.29-.13-.57-.26-.86-.4,0,0-.27-3.92-4.6-11.42M88.65,104.62c12.18,10.89,23.73,23.5,32.38,38.04,8.7,14.63,14.64,31.12,18.6,47.72-17.2-12.94-25.77-35.24-35.15-48.83,2.8-1.01,5.43-1.11,8.4-.9.18-.27-4.56-3.96-10.5-3.53-5.88-9.22-18.48-23.67-22.72-28.16,0,0,5.53.12,7.59,1.04-3.58-3.58-7.16-4.91-11.55-5.17-9.79-9.42-25.43-17.31-37.8-21.4,19.12,3.85,48.83,7.46,66.04,21.5.04,2.56.49,5.37,2,7.71.31-1.47,1.41-4.32,2.17-5.28,9.93,7.2,18.83,15.94,25.88,30.33-.52,2.9-.95,6.11-2.48,10.97,0,0,4.09-2.19,4.97-6.43,5.49,17.75,8.44,27.79,5.51,48.62-4.19-17.4-10.31-34.53-19.39-49.3-9.04-14.7-21.11-26.98-33.95-36.93Z"/>
        <path class="cls-1" d="M93.68,40.79v-.02c.11-.27.21-.55.31-.82l.18-.47c.11-.28.22-.55.33-.83l.19-.47c.11-.27.23-.55.35-.82l.2-.46c.12-.27.25-.55.37-.82.07-.15.14-.3.22-.45.12-.25.24-.51.37-.76.08-.15.15-.31.23-.46.12-.24.24-.47.36-.71.09-.17.18-.35.28-.52.12-.22.24-.44.36-.66.1-.17.19-.35.29-.52.13-.23.26-.45.39-.68l.27-.45c.15-.25.3-.49.45-.73l.23-.37c.17-.27.35-.55.53-.82l.22-.34c.18-.27.37-.54.55-.81l.25-.36c.19-.27.38-.53.57-.79l.24-.32c.2-.27.39-.53.6-.79l.25-.33c.21-.27.41-.53.62-.79l.22-.27c.22-.27.44-.54.67-.8l.2-.24c.21-.25.42-.49.64-.73l.27-.31c.22-.24.43-.48.65-.71l.21-.23c.25-.27.5-.53.76-.79l.21-.21c.26-.26.52-.52.78-.78l.22-.21c.27-.26.54-.51.82-.77l.21-.19c.28-.26.56-.51.85-.76l.19-.17c.29-.25.59-.5.88-.75l.2-.17c.3-.25.6-.49.9-.73l.19-.14c.31-.25.63-.49.95-.73l.15-.11c.33-.25.66-.49,1-.73l.03-.02h0s.02-.01.02-.01c.34-.25.69-.49,1.04-.72l.14-.1c.34-.23.69-.46,1.05-.69l.15-.1c.35-.23.71-.45,1.07-.67l.16-.09c.35-.21.71-.42,1.06-.63l.2-.11c.36-.2.72-.4,1.08-.6l.18-.1c.37-.2.74-.39,1.12-.58l.16-.08c.39-.19.77-.38,1.17-.57l.13-.06c.4-.19.81-.38,1.22-.56l.09-.04c.43-.19.85-.37,1.29-.55.43-.18.86-.35,1.29-.51l.12-.04c.41-.16.82-.31,1.22-.45l.18-.06c.4-.14.8-.28,1.2-.41l.2-.07c.4-.13.8-.26,1.19-.37l.2-.06c.4-.12.8-.23,1.2-.34l.2-.05c.41-.11.82-.22,1.23-.32l.11-.03c.41-.1.82-.2,1.23-.29l.11-.02c.4-.09.8-.17,1.21-.25l.24-.05c.38-.07.76-.14,1.15-.21l.27-.05c.37-.06.74-.12,1.12-.17l.34-.05c.36-.05.72-.1,1.09-.14l.33-.04c.37-.04.74-.08,1.1-.12l.29-.02c.35-.03.7-.06,1.05-.08l.32-.02c.33-.02.65-.04.98-.05l.4-.02c.33-.01.66-.02.98-.03h.39c.33-.01.66-.01.99-.01.15,0,.3,0,.46,0,.31,0,.63,0,.94.02l.51.02c.3,0,.6.02.9.04.17,0,.35.02.52.03.23.01.46.03.69.05.25.02.5.04.74.06l.59.06c.28.03.56.06.84.09l.52.06c.29.04.58.07.87.11.18.03.37.05.55.08.26.04.52.08.78.12.2.03.39.06.59.1.22.04.44.08.66.12l.38.07c.34.07.69.14,1.03.21l.35.08c.35.08.71.16,1.06.24l.28.07c.38.09.77.19,1.15.29l.23.06c.4.11.79.22,1.19.33l.19.06c.43.13.86.26,1.28.4l.09.03c1.16.38,2.31.79,3.44,1.24l.06.03c.43.17.86.35,1.29.53l.08.03c.43.19.86.38,1.29.57h.02c.45.21.89.42,1.33.64,3.13,1.53,6.13,3.35,8.94,5.44l.05.04.4.3c.21.16.43.33.64.49.15.12.31.24.46.37.2.16.4.32.6.49.18.14.35.29.53.44.17.14.34.29.51.44.18.16.37.32.55.48.16.14.32.28.47.42.18.17.37.34.55.51.16.14.31.29.46.43.19.18.39.37.58.56l.37.37c.21.21.42.41.62.62l.33.34c.22.22.43.45.64.68l.29.31c.22.24.44.49.66.74l.24.27c.23.27.47.54.7.82l.19.23c.24.29.48.58.71.87l.17.21c.24.3.47.6.7.9l.17.22c.23.31.46.63.69.94l.13.18c.23.33.46.66.69.99l.11.17c.23.34.46.69.69,1.04l.08.12c.23.36.46.73.68,1.1l.07.11c.22.37.45.75.66,1.12l.07.12c.22.38.43.77.65,1.16l.03.07c.22.4.43.81.64,1.22l.03.07c.21.41.41.83.61,1.25l.02.04c.2.43.4.86.6,1.3h0c.2.45.39.9.58,1.35.18.44.36.88.53,1.33l.02.05c.16.42.32.84.47,1.26l.05.14c.15.41.29.83.43,1.24l.05.14c.14.41.26.82.39,1.23l.05.16c.12.4.23.8.34,1.2l.06.22c.11.39.21.79.31,1.18l.05.21c.1.39.19.78.27,1.18l.05.24c.08.39.17.77.24,1.16l.05.25c.07.38.14.77.21,1.15l.04.27c.06.38.12.76.18,1.14l.04.27c.05.36.1.72.14,1.08l.03.29c.04.35.08.71.11,1.06l.03.31c.03.34.06.68.08,1.03l.03.36c.02.34.04.67.05,1.01l.02.38c.01.33.02.66.03,1v.43c.01.32.01.64.01.96v.46c0,.31-.01.62-.02.93l-.02.52c-.01.3-.02.59-.04.89l-.03.5c-.02.3-.04.6-.06.9-.01.18-.03.35-.04.53-.02.22-.04.45-.06.68-.02.25-.05.5-.08.75-.02.18-.04.36-.06.54-.04.29-.07.58-.11.87l-.06.45c-.05.32-.1.64-.15.96l-.06.38c-.06.35-.12.69-.19,1.03l-.06.31c-.07.37-.15.74-.23,1.1l-.06.26c-.09.4-.18.8-.28,1.2l-.03.14c-.11.44-.22.87-.34,1.3l-.02.06c-.69,2.53-1.54,5-2.57,7.41h0c-.18.44-.38.88-.57,1.31-2.15,4.74-4.95,9.18-8.34,13.19l-.23.27c-.23.27-.46.53-.69.79l-.22.25c-.24.27-.48.53-.73.8l-.21.23c-.25.26-.5.52-.75.78l-.18.18c-.27.27-.54.54-.81.8l-.15.15c-.29.27-.57.55-.87.82l-.14.13c-.3.28-.61.55-.92.83l-.14.12c-.3.27-.61.53-.93.79l-.13.11c-.31.26-.63.52-.95.77l-.13.1c-.33.26-.66.51-.99.76l-.11.08c-.35.26-.7.52-1.06.77l-.08.06c-.36.26-.72.51-1.09.75l-.09.06c-.36.25-.73.49-1.1.72l-.07.05c-.38.24-.76.48-1.15.72l-.04.02c-.39.23-.78.47-1.17.69l-.08.05c-.4.23-.81.46-1.22.68h-.01c-.41.23-.83.45-1.25.66l-.05.03c-.41.21-.83.41-1.25.61l-.06.03c-.42.2-.85.39-1.27.59l-.04.02c-.44.2-.89.39-1.33.57-.44.18-.89.36-1.33.53l-.07.03c-.43.16-.86.32-1.29.48l-.07.03c-.44.16-.87.3-1.31.45l-.05.02c-.44.14-.88.28-1.32.41l-.1.03c-.41.12-.83.24-1.24.36l-.17.05c-.4.11-.8.21-1.21.31l-.16.04c-.42.1-.83.2-1.25.29l-.2.04c-.37.08-.75.16-1.13.23l-.32.06c-.35.07-.7.13-1.05.19l-.34.06c-.33.05-.67.11-1,.15l-.47.07c-.3.04-.6.08-.9.12l-.51.06c-.29.03-.58.06-.88.09-.19.02-.38.04-.56.05-.25.02-.51.04-.76.06-.23.02-.46.03-.69.04-.22.01-.43.02-.65.04-.27.01-.53.02-.8.03l-.53.02c-.31,0-.62.01-.92.01h-.45c-.32,0-.63,0-.94,0h-.42s0,0,0,0c-.39,0-.79-.02-1.18-.04h-.11c-.38-.02-.76-.04-1.14-.07l-.23-.02c-.37-.02-.74-.05-1.1-.09-4.88-.44-9.67-1.5-14.24-3.15h-.03c-.35-.14-.7-.27-1.05-.4l-.23-.09c-.35-.14-.7-.28-1.05-.42l-.24-.1c-.34-.14-.68-.29-1.02-.44l-.26-.11c-.33-.15-.66-.3-.98-.45l-.29-.13c-.32-.15-.65-.31-.97-.47l-.26-.13c-.33-.17-.66-.34-.99-.51l-.22-.12c-.34-.18-.68-.36-1.01-.55l-.16-.09c-.33-.19-.66-.38-.99-.57l-.18-.11c-.32-.19-.64-.39-.96-.59l-.16-.1c-.33-.21-.66-.42-.99-.64l-.17-.11c-.32-.21-.64-.43-.96-.65l-.19-.13c-.31-.22-.62-.44-.92-.66l-.22-.16c-.3-.22-.6-.45-.9-.67l-.21-.16c-.3-.23-.6-.47-.89-.71l-.19-.15c-.3-.24-.6-.49-.9-.74l-.16-.14c-.3-.26-.6-.52-.9-.79l-.12-.11c-.3-.27-.6-.54-.89-.82l-.06-.05c-.31-.29-.62-.59-.93-.89l-.08-.08c-.29-.29-.58-.58-.87-.88l-.13-.13c-.28-.29-.55-.58-.82-.87l-.14-.16c-.27-.29-.53-.59-.8-.89l-.14-.16c-.27-.31-.53-.61-.79-.92l-.11-.14c-.26-.31-.52-.63-.77-.95l-.13-.16c-.25-.32-.5-.65-.75-.98l-.1-.13c-.26-.34-.51-.69-.76-1.04l-.03-.04c-.25-.35-.5-.71-.75-1.07l-.06-.09c-.25-.36-.49-.73-.72-1.1l-.06-.1c-.23-.36-.46-.72-.68-1.09l-.09-.14c-.21-.35-.42-.71-.63-1.08l-.11-.2c-.2-.36-.41-.72-.6-1.09l-.09-.16c-.2-.37-.4-.75-.59-1.13l-.08-.17c-.19-.38-.38-.77-.56-1.15l-.07-.16c-.19-.4-.37-.8-.56-1.21l-.03-.08c-.19-.43-.38-.86-.56-1.3-.18-.44-.36-.88-.53-1.33l-.02-.06c-.17-.43-.33-.87-.48-1.3l-.03-.07c-.15-.43-.3-.86-.44-1.29l-.04-.11c-.14-.42-.27-.85-.4-1.27l-.04-.12c-.13-.42-.25-.85-.36-1.27l-.03-.13c-.12-.43-.23-.86-.33-1.28l-.02-.08c-.1-.41-.2-.82-.29-1.23l-.04-.18c-.08-.39-.16-.77-.24-1.16l-.05-.26c-.07-.38-.14-.76-.21-1.14l-.05-.27c-.06-.37-.12-.74-.17-1.12l-.05-.34c-.05-.35-.09-.69-.14-1.04l-.04-.39c-.04-.32-.07-.64-.1-.95l-.04-.47c-.02-.29-.05-.58-.07-.88l-.04-.56c-.02-.27-.03-.55-.04-.82-.01-.2-.02-.41-.02-.61-.01-.25-.02-.5-.02-.76,0-.23,0-.46-.01-.69,0-.22,0-.45,0-.67,0-.26,0-.51,0-.77v-.51c.02-.34.03-.68.04-1.02v-.32c.03-.41.06-.83.09-1.24v-.14c.1-1.28.24-2.56.42-3.83v-.02c.07-.48.14-.95.22-1.42.57-3.45,1.46-6.83,2.65-10.1M172.36,12.38h0c.18.09.36.19.53.28.19.1.38.21.57.31.18.1.36.2.54.3.2.11.4.23.6.35.18.11.36.21.54.32.18.11.36.22.54.33.18.11.37.23.55.34.18.12.37.24.55.35.19.12.38.25.56.37.17.11.34.23.5.34.19.13.38.26.56.39.17.12.34.24.51.36.21.15.41.3.61.45l.41.3c.2.15.39.3.59.45.15.12.31.24.46.36.17.14.34.27.51.41h0c6.67,5.46,12.13,12.59,15.66,21.11,6.19,14.95,5.17,31.09-1.45,44.55-.11.22-.22.44-.33.66l-.26.5c-.11.22-.23.44-.35.65-.1.18-.19.35-.29.53-.1.19-.21.37-.31.56-.11.2-.22.39-.34.58-.11.18-.21.36-.32.54-.12.2-.24.39-.36.59-.1.17-.21.33-.31.49-.14.21-.27.42-.41.63l-.28.42c-.16.23-.31.47-.47.7l-.25.36c-.17.24-.33.47-.5.71l-.26.35c-.18.25-.37.5-.56.74l-.19.25c-.21.27-.42.54-.64.81l-.16.2c-.22.27-.44.54-.67.8l-.18.21c-.23.27-.47.54-.71.81l-.11.13c-.26.29-.52.57-.79.86l-.09.09c-5.08,5.41-11.37,9.85-18.68,12.88-7.21,2.98-14.69,4.29-22.01,4.11-.24,0-.49-.01-.74-.02-.18,0-.37-.01-.55-.02-.25-.01-.5-.03-.75-.04-.19-.01-.39-.03-.58-.04-.24-.02-.48-.04-.71-.06-.21-.02-.42-.04-.63-.06-.21-.02-.41-.04-.62-.06-.23-.03-.47-.05-.7-.08l-.57-.07c-.25-.03-.51-.07-.76-.11l-.51-.08c-.28-.05-.56-.09-.84-.14l-.38-.07c-.32-.06-.63-.12-.94-.18l-.32-.07c-.33-.07-.65-.14-.98-.21l-.24-.05c-.35-.08-.7-.17-1.05-.26l-.17-.04c-.37-.1-.75-.2-1.12-.3l-.12-.04c-.38-.11-.75-.22-1.13-.33l-.12-.04c-.37-.11-.74-.23-1.12-.36l-.11-.04c-14.34-4.78-26.6-15.52-32.84-30.58-3.68-8.89-4.81-18.2-3.73-27.12.04-.33.08-.67.13-1.01h0s.02-.18.02-.18c.05-.35.1-.7.16-1.04l.06-.37c.05-.28.1-.55.15-.83l.1-.54c.04-.22.09-.44.14-.66.05-.23.1-.46.15-.68l.12-.53c.06-.28.13-.56.2-.83l.09-.35c.08-.33.17-.65.26-.97l.07-.24c.1-.35.2-.69.31-1.04l.05-.18c.11-.36.23-.72.34-1.08l.04-.13c4.79-14.33,15.52-26.59,30.58-32.82,15.42-6.39,32.1-5.11,45.8,2.09Z"/>
        <path class="cls-1" d="M452.81,239.12c-42.09-13.95-88.46-16.32-138.2-15.78l5.7-12.1c46.53,2.98,89.71,7.63,132.5,27.88,42.8-20.26,85.97-24.9,132.5-27.88l5.7,12.1c-49.74-.54-96.11,1.83-138.2,15.78M395.13,104.38c12.19,10.89,23.74,23.5,32.39,38.05,8.7,14.63,14.65,31.13,18.61,47.74-17.21-12.94-25.78-35.25-35.16-48.85,2.8-1.01,5.43-1.11,8.4-.9.18-.27-4.57-3.96-10.5-3.53-5.88-9.23-18.49-23.68-22.72-28.17,0,0,5.54.12,7.6,1.04-3.58-3.58-7.16-4.91-11.56-5.17-9.79-9.42-25.44-17.31-37.81-21.41,19.12,3.86,48.84,7.46,66.07,21.5.04,2.56.49,5.38,2,7.71.3-1.47,1.41-4.32,2.16-5.28,9.93,7.2,18.84,15.94,25.89,30.34-.52,2.91-.95,6.11-2.48,10.97,0,0,4.09-2.19,4.97-6.43,5.49,17.75,8.44,27.8,5.51,48.64-4.19-17.4-10.31-34.54-19.39-49.31-9.04-14.7-21.12-26.99-33.97-36.94ZM459.16,207.63c.43-4.26.85-8.53,1.29-12.78,0,0,.21-2.01.8-4.68-.04.01-.06.02-.06.02-.77.16-1.54.3-2.3.45-2,9.54-5.06,26.35-5.2,28.82-.29-.13-.58-.26-.86-.4,0,0-.27-3.92-4.6-11.42-.43-4.26-.85-8.53-1.3-12.78,0,0-.21-2.01-.8-4.68.04.01.07.02.07.02.77.16,1.54.3,2.3.45,2,9.54,5.06,26.35,5.2,28.82.29-.13.58-.26.86-.4,0,0,.27-3.92,4.6-11.42ZM512.25,104.38c-12.19,10.89-23.74,23.5-32.39,38.05-8.7,14.63-14.65,31.13-18.61,47.74,17.21-12.94,25.78-35.25,35.16-48.85-2.8-1.01-5.43-1.11-8.4-.9-.18-.27,4.57-3.96,10.51-3.53,5.88-9.23,18.49-23.68,22.72-28.17,0,0-5.54.12-7.6,1.04,3.58-3.58,7.16-4.91,11.55-5.17,9.79-9.42,25.44-17.31,37.81-21.41-19.12,3.86-48.84,7.46-66.07,21.5-.04,2.56-.49,5.38-2,7.71-.31-1.47-1.41-4.32-2.17-5.28-9.93,7.2-18.84,15.94-25.89,30.34.52,2.91.95,6.11,2.48,10.97,0,0-4.09-2.19-4.97-6.43-5.49,17.75-8.44,27.8-5.51,48.64,4.19-17.4,10.31-34.54,19.4-49.31,9.04-14.7,21.12-26.99,33.96-36.94ZM474.04,59.16,453.14,3.6c-13.11,15.25-19.7,35.34-19.8,55.55,12.89,15.18,20.36,35.57,20.36,57.71-13.67-15.9-20.47-36.87-20.36-57.71-10.26-12.08-23.96-20.86-40.06-24.6-.08,1.03-.14,2.06-.17,3.09v1.46h-.03c-.44,35.59,25.76,69.71,60.62,77.76,0-22.14,7.46-42.52,20.35-57.71.22,20.72-6.37,41.43-19.8,57.06l-.56.65c36.35-8.39,63.28-45.12,60.42-82.31-16.11,3.74-29.81,12.52-40.07,24.6-.22-20.34-7.01-40.68-20.35-56.21l-.55.65ZM452.81,239.12c-42.09-23.25-88.46-34.32-138.2-35.8,15.75-38.88,20.55-76.72,19.5-116.18,8.09,37.23,7.2,68.47.56,104.8,49.57,8.8,88.54,23.83,118.15,47.18,42.09-23.25,88.46-34.32,138.2-35.8-15.75-38.88-20.55-76.72-19.5-116.18-8.09,37.23-7.2,68.47-.56,104.8-49.57,8.8-88.54,23.83-118.15,47.18Z"/>
      </g>
    </g>
  </g>
</svg>