<svg width="451" height="167" viewBox="0 0 451 167" fill="none" xmlns="http://www.w3.org/2000/svg">
<g clip-path="url(#clip0_587_8842)">
<path d="M425.691 0.232698C425.003 0.46618 424.437 0.963089 424.116 1.61414C423.795 2.26519 423.746 3.01705 423.979 3.70436C424.009 3.79118 424.043 3.87549 424.08 3.95728L348.481 47.1554L348.588 47.0941L348.231 47.2981L347.939 48L348.041 47.7539L328.297 95.1774C327.889 95.0492 327.456 95.0186 327.035 95.0881C326.613 95.1576 326.213 95.3252 325.868 95.5774C325.523 95.8296 325.241 96.1593 325.047 96.5401C324.852 96.9208 324.75 97.342 324.748 97.7695L284.286 101.259C284.222 100.9 284.087 100.557 283.888 100.252C283.69 99.9458 283.432 99.6828 283.13 99.478C282.829 99.2732 282.489 99.1307 282.132 99.0589C281.775 98.9872 281.407 98.9875 281.049 99.06C280.692 99.1325 280.353 99.2757 280.052 99.4811C279.751 99.6866 279.494 99.9501 279.296 100.256C279.098 100.562 278.963 100.905 278.9 101.264C278.836 101.623 278.845 101.991 278.926 102.346L171.346 77.3097C171.413 76.827 171.35 76.3351 171.163 75.885C170.976 75.4349 170.673 75.0428 170.284 74.7493C169.895 74.4558 169.434 74.2715 168.95 74.2154C168.466 74.1594 167.976 74.2336 167.53 74.4304C167.084 74.6272 166.699 74.9395 166.414 75.335C166.13 75.7305 165.956 76.1949 165.91 76.6801C165.865 77.1653 165.95 77.6538 166.157 78.0951C166.364 78.5365 166.685 78.9146 167.087 79.1904L122.442 158.906C121.838 158.636 121.157 158.595 120.525 158.789C119.893 158.983 119.353 159.401 119.005 159.963L84.3965 142.734C84.5371 142.372 84.599 141.984 84.5779 141.596C84.5568 141.208 84.4533 140.828 84.2743 140.484C84.0952 140.139 83.8447 139.836 83.5395 139.595C83.2342 139.355 82.8813 139.182 82.504 139.089C82.1268 138.995 81.734 138.983 81.3518 139.054C80.9696 139.124 80.6067 139.275 80.2874 139.496C79.9681 139.718 79.6996 140.005 79.4998 140.338C79.3001 140.671 79.1737 141.043 79.129 141.429L43.9405 140.6C43.9149 140.192 43.7981 139.794 43.5985 139.436C43.3989 139.079 43.1217 138.771 42.7872 138.534C42.4528 138.298 42.0696 138.14 41.6659 138.072C41.2623 138.003 40.8484 138.026 40.4547 138.139C40.061 138.251 39.6977 138.451 39.3913 138.722C39.0849 138.994 38.8434 139.331 38.6844 139.708C38.5254 140.085 38.4531 140.494 38.4728 140.902C38.4925 141.311 38.6036 141.711 38.798 142.071L-14.1726 176.836C-14.4476 176.491 -14.8018 176.217 -15.2053 176.039C-15.6087 175.861 -16.0494 175.782 -16.4896 175.811C-16.9298 175.84 -17.3566 175.974 -17.7335 176.203C-18.1104 176.433 -18.4263 176.75 -18.6542 177.127C-18.8821 177.505 -19.0153 177.932 -19.0424 178.373C-19.0695 178.813 -18.9897 179.253 -18.8098 179.656C-18.6299 180.059 -18.3552 180.412 -18.0093 180.686C-17.6633 180.96 -17.2563 181.146 -16.8229 181.228L-20.3076 217.387C-20.7101 217.366 -21.1123 217.434 -21.4854 217.587C-21.8586 217.739 -22.1934 217.973 -22.466 218.269C-22.7385 218.566 -22.9422 218.92 -23.0622 219.305C-23.1823 219.689 -23.2159 220.096 -23.1607 220.495C-23.1054 220.894 -22.9626 221.277 -22.7425 221.614C-22.5223 221.952 -22.2303 222.237 -21.8873 222.448C-21.5443 222.66 -21.1588 222.793 -20.7583 222.839C-20.3578 222.884 -19.9522 222.841 -19.5705 222.711C-19.5335 222.698 -19.4988 222.682 -19.4628 222.668L-1.43153 257.277C-1.78403 257.564 -2.05916 257.936 -2.232 258.357C-2.40483 258.778 -2.46991 259.235 -2.42134 259.688C-2.37276 260.14 -2.21207 260.573 -1.95382 260.948C-1.69557 261.323 -1.34792 261.627 -0.942356 261.833C-0.536794 262.04 -0.0861378 262.142 0.368793 262.13C0.823725 262.119 1.26856 261.994 1.66299 261.767C2.05743 261.54 2.38901 261.218 2.62769 260.83C2.86638 260.443 3.00463 260.002 3.02992 259.548L53.8484 253.057C53.8519 253.068 53.8539 253.078 53.8574 253.089C53.9916 253.484 54.2142 253.842 54.5082 254.138C54.8023 254.434 55.16 254.658 55.5541 254.795C55.9481 254.931 56.3682 254.976 56.782 254.925C57.1959 254.874 57.5928 254.729 57.9422 254.502C58.2917 254.274 58.5845 253.97 58.7984 253.612C59.0123 253.254 59.1416 252.852 59.1765 252.437C59.2113 252.021 59.1507 251.603 58.9993 251.214C58.8479 250.826 58.6098 250.477 58.303 250.195L85.3845 216.056C85.7851 216.307 86.244 216.45 86.7165 216.472C87.189 216.493 87.6589 216.391 88.0805 216.177C88.502 215.962 88.8608 215.642 89.1218 215.248C89.3828 214.853 89.5371 214.398 89.5696 213.926L153 211.138C153.023 211.293 153.06 211.445 153.109 211.594C153.279 212.094 153.589 212.535 154.004 212.863C154.418 213.19 154.918 213.391 155.444 213.44C155.97 213.489 156.499 213.385 156.967 213.14C157.435 212.895 157.822 212.519 158.081 212.059L189.678 226.234C189.454 226.888 189.487 227.603 189.768 228.234C190.05 228.865 190.56 229.367 191.197 229.637C191.833 229.907 192.548 229.926 193.198 229.69C193.848 229.455 194.385 228.981 194.7 228.366L247.195 249.416C247.05 249.902 247.043 250.419 247.174 250.909C247.305 251.398 247.57 251.842 247.939 252.19C248.308 252.538 248.766 252.777 249.262 252.88C249.759 252.983 250.274 252.946 250.751 252.773C251.227 252.6 251.647 252.298 251.962 251.901C252.277 251.504 252.476 251.027 252.536 250.523C252.596 250.02 252.514 249.51 252.301 249.049C252.088 248.589 251.752 248.198 251.329 247.918L269.068 214.937C269.518 215.129 270.012 215.197 270.497 215.132C270.982 215.068 271.441 214.875 271.826 214.572C272.211 214.27 272.507 213.869 272.685 213.413C272.862 212.957 272.913 212.461 272.833 211.979L359.505 189.409L359.442 189.166C359.592 189.608 359.853 190.004 360.199 190.316C360.546 190.628 360.967 190.847 361.422 190.95L356.756 225.863C356.244 225.842 355.736 225.965 355.29 226.219C354.844 226.473 354.479 226.847 354.236 227.298C353.992 227.749 353.88 228.26 353.913 228.772C353.946 229.284 354.122 229.776 354.421 230.193C354.72 230.609 355.13 230.933 355.604 231.128C356.079 231.323 356.598 231.381 357.104 231.294C357.609 231.208 358.081 230.982 358.464 230.641C358.847 230.3 359.126 229.858 359.27 229.366L434.013 243.959C433.988 244.322 434.036 244.686 434.153 245.03C434.27 245.375 434.455 245.692 434.696 245.964C434.938 246.236 435.231 246.457 435.559 246.615C435.886 246.772 436.242 246.863 436.606 246.881L437.182 279.081C436.709 279.16 436.266 279.362 435.895 279.666C435.525 279.97 435.241 280.366 435.072 280.814C434.903 281.262 434.855 281.747 434.932 282.22C435.009 282.693 435.209 283.137 435.512 283.508C435.814 283.88 436.209 284.165 436.657 284.336C437.105 284.506 437.589 284.556 438.062 284.481C438.535 284.406 438.98 284.207 439.353 283.906C439.725 283.604 440.012 283.211 440.184 282.764L529.551 302.718C529.48 303.272 529.581 303.834 529.84 304.329C530.099 304.823 530.503 305.227 530.998 305.486C531.493 305.744 532.055 305.845 532.609 305.775C533.163 305.704 533.682 305.466 534.096 305.092C534.511 304.718 534.801 304.226 534.928 303.682C535.055 303.138 535.012 302.569 534.806 302.05C534.599 301.531 534.239 301.088 533.773 300.78C533.307 300.472 532.759 300.314 532.2 300.327L525.003 238.183C525.11 238.161 525.215 238.132 525.319 238.098C525.779 237.942 526.19 237.666 526.509 237.298C526.827 236.931 527.042 236.485 527.131 236.007C527.221 235.529 527.181 235.035 527.016 234.578C526.851 234.12 526.567 233.715 526.194 233.403C525.82 233.092 525.37 232.885 524.89 232.805C524.411 232.726 523.918 232.775 523.464 232.949C523.009 233.122 522.609 233.414 522.305 233.793C522.001 234.173 521.803 234.627 521.733 235.108L479.378 232.831C479.354 232.203 479.114 231.602 478.699 231.129C478.283 230.657 477.717 230.343 477.097 230.239L479.155 202.414C479.545 202.396 479.926 202.295 480.274 202.118C480.622 201.94 480.928 201.69 481.171 201.385C481.414 201.079 481.589 200.725 481.684 200.347C481.779 199.968 481.792 199.573 481.722 199.189C481.651 198.805 481.5 198.441 481.277 198.12C481.054 197.799 480.766 197.53 480.43 197.33C480.095 197.131 479.72 197.005 479.332 196.962C478.944 196.919 478.552 196.959 478.18 197.081L462.169 163.484C462.54 163.285 462.861 163.003 463.105 162.659C463.349 162.316 463.51 161.92 463.576 161.504C463.642 161.088 463.611 160.662 463.484 160.26C463.358 159.858 463.14 159.491 462.849 159.187L486.683 131.73C487.1 132.029 487.592 132.206 488.103 132.24C488.615 132.274 489.126 132.163 489.578 131.92C490.03 131.678 490.405 131.313 490.66 130.868C490.915 130.423 491.04 129.916 491.02 129.403C491.001 128.891 490.838 128.394 490.55 127.969C490.262 127.545 489.86 127.21 489.391 127.003C488.922 126.795 488.404 126.724 487.896 126.796C487.388 126.869 486.911 127.082 486.519 127.413L463.201 104.349C463.46 104.035 463.645 103.668 463.743 103.273C463.842 102.879 463.851 102.468 463.77 102.069C463.689 101.671 463.521 101.296 463.276 100.971C463.032 100.646 462.718 100.38 462.358 100.192L479.88 57.6029C480.402 57.763 480.96 57.7633 481.482 57.6037C482.004 57.4441 482.466 57.132 482.809 56.7074C483.153 56.2828 483.361 55.7653 483.408 55.2213C483.454 54.6774 483.337 54.1319 483.071 53.655C482.806 53.1782 482.403 52.7918 481.916 52.5456C481.429 52.2993 480.879 52.2046 480.337 52.2734C479.795 52.3422 479.287 52.5715 478.877 52.9318C478.466 53.2921 478.173 53.7669 478.035 54.295L412.514 43.4588C412.54 43.0946 412.492 42.729 412.375 42.3834C412.349 42.3119 412.321 42.2437 412.292 42.1758L425.862 5.468C426.275 5.57871 426.708 5.59119 427.127 5.50442C427.545 5.41765 427.938 5.23405 428.273 4.96834C428.607 4.70263 428.875 4.36218 429.055 3.97429C429.234 3.5864 429.321 3.16184 429.307 2.73463C429.293 2.30742 429.179 1.88945 428.974 1.51419C428.769 1.13893 428.48 0.816828 428.128 0.573686C427.777 0.330544 427.373 0.173124 426.95 0.11404C426.526 0.054957 426.095 0.0951009 425.691 0.232698ZM170.427 79.0082L211.506 118.474L184.896 124.826V124.824C184.684 124.202 184.257 123.678 183.691 123.346C183.125 123.014 182.458 122.896 181.812 123.014L169.615 79.4914C169.912 79.3787 170.186 79.2152 170.427 79.0082ZM0.991968 256.748L6.38909 231.913L53.7469 251.777C53.7051 252.037 53.7011 252.301 53.7351 252.562L25.8357 256.125L3.01205 259.04C2.94196 258.501 2.71223 257.994 2.35233 257.585C1.99243 257.177 1.51874 256.885 0.991968 256.748ZM187.901 179.79C188.024 179.767 188.146 179.736 188.265 179.696C188.513 179.611 188.748 179.491 188.962 179.34L212.69 207.12L194.053 225.05C193.553 224.618 192.913 224.382 192.253 224.384L187.901 179.79ZM268.773 210.047L265.782 205.794L278.712 169.223L270.432 209.703C269.857 209.637 269.275 209.758 268.773 210.047ZM357.923 226.179L383.573 164.501C383.911 164.609 384.267 164.649 384.621 164.619C384.975 164.588 385.319 164.487 385.633 164.322L401.976 189.996L358.563 226.647C358.373 226.461 358.158 226.303 357.923 226.179ZM437.685 279.045L437.11 246.861C437.818 246.767 438.462 246.398 438.901 245.833L469.366 264.605L439.936 280.309C439.693 279.93 439.361 279.616 438.968 279.396C438.576 279.175 438.135 279.055 437.685 279.046M439.173 245.408C439.36 245.046 439.464 244.645 439.477 244.237L521.754 236.03C521.776 236.151 521.807 236.271 521.846 236.388C521.867 236.45 521.892 236.508 521.917 236.567L469.882 264.331L439.173 245.408ZM530.074 301.421L470.38 264.638L522.155 237.013C522.41 237.4 522.759 237.716 523.169 237.932C523.579 238.148 524.038 238.256 524.501 238.246L531.699 300.39C531.592 300.412 531.487 300.441 531.383 300.475C530.861 300.651 530.405 300.982 530.074 301.422M378.801 80.6331C379.047 81.1857 379.47 81.6406 380.004 81.9259L365.788 115.447L330.057 98.7165C330.238 98.2154 330.268 97.6721 330.144 97.1539L378.801 80.6331ZM43.6843 141.959L68.9309 151.166L16.7515 190.508C16.5884 190.329 16.4022 190.173 16.1978 190.043L40.193 143.326C40.8395 143.588 41.5615 143.591 42.2107 143.337C42.86 143.083 43.3869 142.59 43.6843 141.959ZM79.517 157.669L67.0636 207.645L17.4108 192.884C17.5061 192.413 17.4749 191.926 17.3202 191.471C17.2918 191.387 17.2588 191.305 17.2234 191.226L78.1757 156.651C78.5046 157.123 78.9743 157.479 79.517 157.669ZM69.4964 151.373L77.7738 154.391C77.636 154.911 77.655 155.459 77.8284 155.967C77.8568 156.051 77.8898 156.133 77.9253 156.212L17.9796 190.216L69.4964 151.373ZM82.4569 156.913L110.366 177.607L88.1636 211.348C87.7484 211.116 87.28 210.997 86.8046 211.002L80.9661 157.767C81.543 157.654 82.0667 157.354 82.4559 156.913M111.052 177.486L120.047 163.818C120.452 164.036 120.905 164.147 121.365 164.142C121.825 164.137 122.276 164.015 122.676 163.788L153.808 208.742C153.721 208.825 153.64 208.914 153.565 209.008L111.052 177.486ZM123.923 162.28L167.281 172.585L156.129 208.012C155.458 207.903 154.771 208.051 154.205 208.426L123.091 163.5C123.474 163.177 123.762 162.755 123.923 162.28ZM167.926 172.219L181.727 128.377C181.922 128.419 182.12 128.44 182.32 128.439L186.866 174.42C186.39 174.508 185.947 174.722 185.582 175.04C185.218 175.359 184.946 175.769 184.795 176.229L167.926 172.219ZM361.315 185.648L349.363 160.47C349.69 160.276 349.973 160.015 350.193 159.705C350.414 159.395 350.567 159.043 350.644 158.67L370.674 160.912L362.799 185.66C362.314 185.518 361.8 185.514 361.314 185.648M459.481 158.718L441.901 131.833C442.191 131.602 442.431 131.315 442.607 130.988C442.783 130.662 442.891 130.303 442.924 129.934L460.695 129.866L460.548 158.36C460.171 158.404 459.808 158.526 459.481 158.718ZM461.202 129.359L461.326 105.338C461.886 105.292 462.417 105.072 462.845 104.709L486.164 127.773C485.815 128.198 485.602 128.718 485.552 129.266L461.202 129.359ZM460.697 129.361L442.921 129.429C442.86 128.763 442.555 128.143 442.064 127.688L459.623 104.925C459.985 105.153 460.395 105.294 460.821 105.336L460.697 129.361ZM329.843 99.1713L365.591 115.91L348.796 155.511C348.322 155.359 347.814 155.339 347.33 155.456L328.599 100.286C329.12 100.054 329.555 99.6641 329.843 99.1713ZM189.714 175.67L217.136 155.063L242.201 175.952C242.151 176.194 242.134 176.441 242.151 176.687L190.109 176.843C190.072 176.427 189.937 176.025 189.716 175.67M184.233 127.641L216.737 154.73L189.412 175.266C189.153 174.982 188.837 174.755 188.485 174.601C188.133 174.446 187.753 174.368 187.369 174.37L183.768 137.954L182.823 128.389C183.358 128.291 183.85 128.03 184.232 127.642M233.337 142.888C233.637 143.206 234.009 143.447 234.421 143.591C234.834 143.736 235.275 143.779 235.707 143.719L236.803 148.379L242.957 174.563C242.705 174.812 242.503 175.107 242.364 175.433L217.55 154.752L233.337 142.888ZM237.565 142.578L255.735 152.596L245.079 173.779C244.485 173.734 243.892 173.886 243.393 174.212L236.199 143.603L236.205 143.602C236.756 143.414 237.232 143.055 237.564 142.578M256.403 152.388L280.596 104.293C280.808 104.375 281.03 104.431 281.257 104.459L279.441 162.937V162.97C279.065 163.003 278.699 163.114 278.368 163.297C278.036 163.479 277.747 163.729 277.518 164.03L256.403 152.388ZM383.506 126.18C383.575 126.162 383.644 126.145 383.712 126.121C383.933 126.046 384.143 125.942 384.337 125.813L403.957 150.308L386.618 160.311C386.367 159.957 386.035 159.668 385.65 159.467C385.266 159.267 384.839 159.16 384.405 159.157L383.506 126.18ZM349.259 155.71L366.047 116.125L380.209 122.756C380.081 123.184 380.061 123.638 380.15 124.076C380.24 124.514 380.436 124.924 380.721 125.268L349.719 156.021C349.577 155.902 349.423 155.798 349.259 155.71ZM383.207 81.4752L393.672 90.3908L383.458 120.867C383.31 120.831 383.159 120.808 383.007 120.798L382.15 96.5009L381.646 82.2317C381.827 82.2083 382.005 82.167 382.178 82.1084C382.564 81.977 382.915 81.7609 383.207 81.4752ZM394.087 90.7434L437.961 128.119C437.744 128.429 437.593 128.78 437.517 129.151L385.566 123.57C385.576 123.032 385.427 122.504 385.137 122.052C384.847 121.6 384.429 121.244 383.937 121.029L394.087 90.7434ZM437.711 130.836L404.4 150.052L384.731 125.496C385.129 125.111 385.401 124.614 385.512 124.071L437.463 129.653C437.457 129.965 437.505 130.276 437.605 130.572C437.636 130.662 437.672 130.75 437.711 130.836ZM381.766 126.047L370.828 160.421L350.698 158.169C350.713 157.519 350.494 156.886 350.08 156.385L381.188 125.717C381.367 125.85 381.561 125.961 381.767 126.047M281.324 163.498L308.562 124.981L345.728 156.547C345.397 157.019 345.223 157.582 345.23 158.158L320.533 160.817L282.317 164.929C282.306 164.891 282.297 164.851 282.284 164.813C282.106 164.287 281.771 163.828 281.325 163.497M366.247 115.659L380.47 82.1212C380.688 82.1912 380.914 82.2335 381.142 82.247L382.487 120.813C382.306 120.836 382.127 120.877 381.955 120.936C381.279 121.165 380.721 121.648 380.398 122.284L366.247 115.659ZM392.842 65.2146L408.275 45.5443C408.391 45.6203 408.512 45.6876 408.637 45.7456L393.848 89.8729L383.536 81.0899C383.916 80.553 384.088 79.8972 384.023 79.2431C383.958 78.589 383.658 77.9804 383.18 77.5292L392.842 65.2146ZM439.055 127.206C438.772 127.337 438.514 127.516 438.291 127.734L394.262 90.2267L409.113 45.9152C409.533 46.0229 409.974 46.0283 410.397 45.9311L439.055 127.206ZM438.935 132.117L423.273 170.405C422.889 170.286 422.483 170.254 422.084 170.312C421.686 170.369 421.306 170.515 420.971 170.738L404.722 150.451L437.966 131.272C438.217 131.627 438.55 131.916 438.935 132.117ZM419.932 172.015L387.07 162.411C387.162 161.944 387.13 161.461 386.977 161.01C386.947 160.921 386.912 160.833 386.872 160.747L404.279 150.706L420.576 171.053C420.296 171.324 420.076 171.652 419.932 172.015ZM381.662 161.632L371.342 160.477L382.25 126.199C382.497 126.254 382.751 126.273 383.004 126.257L383.9 159.2C383.311 159.301 382.771 159.594 382.366 160.034C381.961 160.474 381.713 161.036 381.661 161.632M276.979 166.052L247.421 175.504C247.265 175.109 247.02 174.755 246.704 174.471C246.388 174.187 246.01 173.981 245.601 173.869L256.178 152.839L277.251 164.458C277.001 164.95 276.907 165.506 276.979 166.052ZM184.85 126.704L232.629 140.54C232.51 141.217 232.652 141.913 233.027 142.489L217.152 154.418L184.556 127.253C184.675 127.081 184.773 126.897 184.85 126.704ZM237.595 139.482L279.685 103.701C279.825 103.839 279.98 103.961 280.146 104.065L255.963 152.143L237.816 142.138C238.01 141.713 238.092 141.246 238.054 140.781C238.015 140.315 237.857 139.868 237.595 139.482ZM283.507 103.7L308.176 124.652L280.893 163.233C280.596 163.089 280.276 163 279.948 162.969L281.764 104.474C282.42 104.437 283.04 104.162 283.507 103.7ZM308.856 124.567L326.118 100.156C326.723 100.506 327.44 100.611 328.12 100.448L346.851 155.617C346.555 155.749 346.285 155.933 346.054 156.16L308.856 124.567ZM411.374 45.4894L456.962 98.2283L441.275 127.179C440.725 126.942 440.113 126.893 439.533 127.04L410.918 45.8921L410.982 45.7202C411.119 45.6541 411.25 45.5773 411.374 45.4894ZM457.316 98.6357L459.116 100.717C458.864 100.979 458.667 101.288 458.536 101.627C458.405 101.965 458.343 102.327 458.353 102.689C458.363 103.052 458.445 103.41 458.594 103.74C458.744 104.071 458.958 104.369 459.224 104.616L441.919 127.049L457.316 98.6357ZM486.302 131.397L462.465 158.855C462.051 158.557 461.563 158.381 461.054 158.345L461.2 129.863L485.556 129.769C485.612 130.381 485.875 130.955 486.302 131.397ZM458.159 161.449L443.863 135.754L459.072 159.014C458.73 159.312 458.468 159.691 458.309 160.116C458.149 160.541 458.098 160.999 458.159 161.449ZM477.568 197.368C477.225 197.583 476.935 197.872 476.718 198.213L425.049 173.949C425.275 173.327 425.266 172.643 425.026 172.026C424.785 171.409 424.328 170.901 423.74 170.596L439.403 132.307C439.95 132.476 440.537 132.467 441.08 132.282C441.155 132.257 441.231 132.225 441.303 132.193L477.568 197.368ZM462.432 216.842L424.491 174.873C424.621 174.73 424.736 174.574 424.833 174.407L476.488 198.663C476.299 199.134 476.244 199.648 476.331 200.148C476.417 200.648 476.64 201.114 476.977 201.494L462.432 216.842ZM462.084 217.21L438.523 242.073C438.246 241.835 437.925 241.656 437.577 241.545C437.23 241.434 436.863 241.393 436.5 241.425L423.26 175.639C423.292 175.63 423.324 175.623 423.356 175.612C423.629 175.519 423.885 175.383 424.116 175.21L462.084 217.21ZM462.424 217.586L474.627 231.086C474.34 231.399 474.13 231.774 474.013 232.183C473.897 232.591 473.876 233.021 473.955 233.439L439.336 243.268C439.232 242.966 439.076 242.684 438.876 242.436L462.424 217.586ZM477.523 235.53C478 235.368 478.423 235.077 478.745 234.69C479.067 234.303 479.276 233.835 479.349 233.337L521.136 235.583L439.615 243.714L474.093 233.925C474.347 234.583 474.846 235.118 475.485 235.417C476.124 235.716 476.854 235.757 477.522 235.53M435.498 241.716L402.64 190.097L420.558 174.97C420.846 175.254 421.194 175.47 421.576 175.603C421.957 175.736 422.364 175.783 422.766 175.741L436.003 241.518C435.957 241.531 435.91 241.542 435.864 241.558C435.739 241.601 435.616 241.654 435.498 241.716ZM402.366 189.666L386.061 164.051C386.448 163.751 386.748 163.352 386.929 162.896L419.791 172.498C419.719 172.858 419.722 173.228 419.798 173.586C419.873 173.945 420.021 174.284 420.231 174.584L402.366 189.666ZM363.695 186.11C363.561 186.008 363.419 185.92 363.27 185.844L371.186 160.968L381.662 162.14C381.681 162.354 381.725 162.565 381.793 162.769C381.933 163.181 382.17 163.554 382.484 163.855L363.695 186.11ZM359.524 187.197L282.412 165.979C282.431 165.795 282.432 165.61 282.414 165.426L345.286 158.658C345.308 158.772 345.338 158.884 345.374 158.995C345.49 159.335 345.671 159.65 345.909 159.92C346.146 160.19 346.434 160.411 346.756 160.57C347.079 160.729 347.429 160.823 347.788 160.846C348.147 160.869 348.507 160.822 348.847 160.706C348.868 160.699 348.887 160.69 348.907 160.683L360.841 185.823C360.252 186.109 359.785 186.596 359.526 187.197M265.427 205.285L246.654 178.589C247.022 178.275 247.3 177.869 247.46 177.412C247.62 176.955 247.656 176.464 247.565 175.988L277.095 166.545C277.097 166.554 277.099 166.563 277.102 166.571C277.221 166.922 277.411 167.246 277.659 167.521C277.908 167.797 278.21 168.019 278.548 168.174L265.427 205.285ZM265.221 205.869L250.488 247.543C250.291 247.494 250.09 247.466 249.888 247.462L245.314 179.206C245.64 179.157 245.955 179.047 246.24 178.881L265.221 205.869ZM248.24 247.96L213.385 207.153L243.092 178.577C243.571 178.989 244.177 179.224 244.809 179.24L249.383 247.496C248.971 247.558 248.58 247.717 248.24 247.96ZM213.056 206.769L189.346 179.011C189.783 178.56 190.053 177.973 190.11 177.348L242.231 177.192C242.248 177.257 242.265 177.323 242.286 177.388C242.389 177.687 242.543 177.967 242.741 178.213L213.056 206.769ZM157.32 208.51C157.105 208.353 156.869 208.228 156.619 208.138L167.774 172.703L184.677 176.72C184.621 177.11 184.65 177.508 184.762 177.886C184.875 178.264 185.068 178.613 185.328 178.91L157.32 208.51ZM152.968 210.634L89.5571 213.422C89.535 213.23 89.4929 213.041 89.4312 212.858C89.2683 212.378 88.9747 211.954 88.5834 211.632L110.775 177.909L153.288 209.431C153.09 209.803 152.98 210.214 152.968 210.634ZM84.282 212.764L67.5493 207.79L80.0078 157.792C80.1597 157.816 80.3133 157.827 80.4671 157.824L86.3033 211.057C85.8481 211.144 85.4229 211.347 85.0688 211.646C84.7146 211.945 84.4442 212.33 84.282 212.764ZM66.9418 208.137L56.6398 249.478C55.9638 249.431 55.2944 249.637 54.7626 250.057L16.4797 194.45C16.8272 194.16 17.0973 193.788 17.2659 193.368L66.9418 208.137ZM6.49882 231.412L14.3977 195.066C14.8055 195.117 15.2196 195.075 15.6089 194.943C15.767 194.889 15.9198 194.82 16.0655 194.738L54.3917 250.408C54.1667 250.666 53.9916 250.963 53.8755 251.284L6.49882 231.412ZM6.02494 231.213L-17.9241 221.168C-17.7694 220.804 -17.697 220.41 -17.7123 220.015C-17.7276 219.62 -17.8301 219.233 -18.0125 218.882L12.7612 194.25C13.0775 194.577 13.4702 194.821 13.9039 194.958L6.02494 231.213ZM4.85648 188.236L12.139 191.476C12.0036 191.869 11.9609 192.289 12.014 192.701C12.0672 193.114 12.2149 193.509 12.4456 193.855L-18.2823 218.451C-18.3185 218.404 -18.3545 218.358 -18.3932 218.314L4.85648 188.236ZM5.17457 187.824L39.7332 143.115L15.7476 189.813C15.1314 189.564 14.4455 189.548 13.8187 189.769C13.1919 189.99 12.6674 190.433 12.3436 191.013L5.17457 187.824ZM43.9286 141.105L79.1171 141.936C79.1446 142.379 79.2824 142.809 79.518 143.185L69.4121 150.805L43.8587 141.486C43.891 141.361 43.9144 141.235 43.9286 141.107M81.3046 144.428L80.4583 152.355C79.9336 152.346 79.4176 152.488 78.9722 152.766C78.5269 153.043 78.1713 153.444 77.9482 153.919L69.9776 151.011L79.8213 143.589C80.2142 144.019 80.7337 144.313 81.3046 144.428ZM83.0735 155.752L118.601 161.239C118.574 161.677 118.653 162.115 118.831 162.516C119.009 162.917 119.281 163.269 119.625 163.542L110.646 177.184L82.7594 156.507C82.9012 156.273 83.0071 156.018 83.0735 155.752ZM123.811 160.247L180.079 127.299C180.375 127.709 180.778 128.03 181.245 128.225L167.433 172.102L124.04 161.789C124.117 161.264 124.037 160.727 123.811 160.246M211.939 118.89L233.187 139.304C233.007 139.53 232.863 139.782 232.762 140.052L184.99 126.219C185.047 125.922 185.054 125.617 185.011 125.317L211.939 118.89ZM212.523 118.751L279.098 102.862C279.169 103.021 279.256 103.173 279.356 103.316L237.275 139.091C236.788 138.594 236.13 138.302 235.435 138.274C234.741 138.246 234.061 138.484 233.536 138.94L212.523 118.751ZM284.33 101.762L324.793 98.2733C324.899 98.895 325.222 99.4589 325.705 99.8648L308.469 124.238L283.834 103.315C284.153 102.859 284.326 102.318 284.33 101.762ZM329.892 96.4948L369.212 70.4449L378.259 80.2816L329.982 96.6728C329.954 96.6116 329.923 96.553 329.892 96.4948ZM369.639 70.1623L407.653 44.9778C407.724 45.0662 407.8 45.1502 407.881 45.2295L382.782 77.2186C382.342 76.9341 381.83 76.7821 381.305 76.7807C380.781 76.7792 380.268 76.9285 379.826 77.2105C379.385 77.4926 379.033 77.8957 378.814 78.3717C378.595 78.8478 378.517 79.3768 378.59 79.8958L369.639 70.1623ZM477.952 54.7933C477.917 55.2752 478.011 55.7576 478.224 56.1913C478.437 56.625 478.761 56.9945 479.163 57.2621L457.22 97.7544L411.756 45.1597C412.079 44.823 412.311 44.4094 412.43 43.9581L477.952 54.7933ZM461.89 99.9992C461.489 99.8746 461.064 99.8447 460.648 99.9119C460.233 99.9791 459.839 100.142 459.497 100.387L457.574 98.1621L478.642 59.285L461.89 99.9992ZM475.43 192.487L459.122 163.18C459.475 163.474 459.896 163.674 460.347 163.762C460.798 163.85 461.264 163.823 461.701 163.684L475.43 192.487ZM476.591 230.202C476.017 230.212 475.461 230.403 475.002 230.747L462.772 217.218L477.345 201.839C477.724 202.133 478.173 202.323 478.647 202.389L476.591 230.202ZM440.32 282.277C440.407 281.817 440.373 281.342 440.222 280.899C440.205 280.85 440.185 280.805 440.166 280.758L469.863 264.912L529.809 301.85C529.75 301.971 529.7 302.097 529.66 302.225L440.32 282.277ZM359.367 228.871C359.434 228.221 359.264 227.568 358.889 227.033L402.25 190.427L435.071 241.986C434.592 242.357 434.249 242.876 434.096 243.461L359.367 228.871ZM361.922 191.019C362.46 191.041 362.993 190.903 363.453 190.624C363.914 190.345 364.281 189.936 364.51 189.448C364.739 188.961 364.819 188.417 364.74 187.884C364.661 187.352 364.427 186.854 364.066 186.454L382.879 164.173C382.952 164.222 383.028 164.266 383.107 164.308L357.457 225.986C357.391 225.965 357.324 225.947 357.256 225.932L361.922 191.019ZM272.706 211.49C272.562 211.09 272.326 210.729 272.017 210.437C271.708 210.144 271.335 209.927 270.928 209.804L279.394 168.411C280.03 168.483 280.671 168.329 281.205 167.975C281.739 167.622 282.131 167.092 282.313 166.478L359.368 187.68C359.273 188.089 359.275 188.515 359.373 188.923L272.706 211.49ZM268.622 214.699L251.149 247.186L265.576 206.378L268.361 210.338C268.038 210.613 267.783 210.958 267.617 211.348C267.45 211.738 267.377 212.161 267.402 212.584C267.427 213.007 267.551 213.419 267.763 213.786C267.974 214.153 268.269 214.466 268.622 214.699ZM194.887 227.898C195.015 227.475 195.037 227.028 194.953 226.595C194.868 226.162 194.68 225.756 194.403 225.413L213.02 207.505L247.856 248.29C247.666 248.484 247.507 248.706 247.383 248.948L194.887 227.898ZM158.289 211.599C158.451 211.13 158.481 210.625 158.377 210.14C158.273 209.654 158.038 209.207 157.698 208.845L185.697 179.256C186.182 179.637 186.782 179.842 187.398 179.84L191.75 224.434C191.359 224.506 190.99 224.663 190.667 224.895C190.345 225.126 190.078 225.427 189.886 225.774L158.289 211.599ZM57.9011 249.889C57.6654 249.742 57.4088 249.632 57.1401 249.562L67.4265 208.281L84.1463 213.251C84.0641 213.705 84.0976 214.171 84.2439 214.608C84.3902 215.045 84.6445 215.438 84.9831 215.751L57.9011 249.889ZM-19.0096 222.444C-18.6694 222.234 -18.3797 221.951 -18.1612 221.615L5.91521 231.714L0.492924 256.664C-0.0292432 256.625 -0.551385 256.739 -1.00949 256.993L-19.0096 222.444ZM-16.3195 181.276C-15.8318 181.28 -15.3521 181.152 -14.9308 180.906C-14.5095 180.66 -14.1622 180.305 -13.9252 179.878L4.38084 188.023L-18.7642 217.965C-19.0721 217.725 -19.4276 217.553 -19.8071 217.462L-16.3195 181.276ZM39.0748 142.494C39.1578 142.599 39.2484 142.698 39.3459 142.79L4.69893 187.611L-13.7196 179.417C-13.5974 179.065 -13.5499 178.691 -13.5802 178.319C-13.6105 177.948 -13.718 177.586 -13.8958 177.259L39.0748 142.494ZM118.78 160.417C118.74 160.522 118.706 160.63 118.679 160.739L83.1518 155.253C83.1927 154.594 82.9933 153.942 82.5905 153.419C82.1876 152.895 81.6086 152.535 80.9608 152.406L81.8072 144.48C82.2798 144.488 82.7465 144.373 83.1612 144.146C83.576 143.92 83.9246 143.589 84.1728 143.186L118.78 160.417ZM167.527 79.4372C168.029 79.661 168.587 79.7275 169.128 79.628L181.326 123.152C180.665 123.404 180.128 123.903 179.827 124.543C179.526 125.183 179.484 125.915 179.712 126.585C179.744 126.68 179.782 126.773 179.824 126.864L123.557 159.81C123.372 159.553 123.144 159.331 122.883 159.153L167.527 79.4372ZM171.231 77.8014L277.902 102.628L212.09 118.335L170.776 78.643C170.976 78.3913 171.129 78.1064 171.231 77.8014ZM348.511 47.9363L368.866 70.0682L329.614 96.0733C329.381 95.784 329.092 95.5451 328.763 95.3714L348.511 47.9363ZM407.084 43.7026C407.129 44.0028 407.227 44.2926 407.374 44.5583L369.293 69.7878L348.972 47.692L407.084 43.7026ZM424.331 4.39617C424.6 4.78113 424.965 5.08998 425.389 5.29285L411.963 41.6111C411.62 41.1586 411.146 40.824 410.604 40.6535C410.063 40.4831 409.482 40.4852 408.942 40.6597C408.402 40.8342 407.93 41.1724 407.591 41.6273C407.252 42.0823 407.063 42.6315 407.05 43.1988L349.512 47.1481L424.331 4.39617Z" fill="#395F5C"/>
<path d="M174.533 122.634C174.134 122.773 173.789 123.035 173.547 123.382ZM144.979 133.58C144.907 133.647 144.841 133.72 144.78 133.798ZM439.905 31.9729C440.015 31.6467 440.04 31.2976 439.977 30.959L505.704 16.2833C505.734 16.3782 505.771 16.4707 505.814 16.5602L461.712 43.7343L439.863 32.0758C439.877 32.0411 439.892 32.0076 439.905 31.9719M438.038 33.3359C438.369 33.3291 438.694 33.2407 438.982 33.0786C439.271 32.9165 439.515 32.6856 439.694 32.4065L461.346 43.9578L438.932 57.7704C438.61 57.3551 438.136 57.0833 437.615 57.0139L438.038 33.3359ZM465.218 68.6188L456.239 78.5503L438.915 60.2684C439.063 60.0857 439.177 59.8784 439.254 59.6561L464.722 66.8879C464.664 67.195 464.679 67.5113 464.765 67.8117C464.851 68.1122 465.005 68.3885 465.217 68.6188M466.586 92.472L428.583 110.318C428.512 110.195 428.427 110.08 428.331 109.975L456.245 79.0977L466.945 90.3892C466.698 90.6689 466.534 91.0118 466.47 91.3796C466.407 91.7475 466.447 92.1257 466.586 92.472ZM438.655 60.5362L455.988 78.8274L428.055 109.726C427.886 109.599 427.697 109.5 427.496 109.431C427.473 109.423 427.45 109.418 427.426 109.411L437.165 61.0123C437.433 61.0361 437.702 61.0063 437.958 60.9245C438.214 60.8427 438.45 60.7107 438.654 60.5362M453.772 121.643L442.582 138.756L453.102 119.853C453.057 120.183 453.094 120.52 453.212 120.833C453.329 121.145 453.522 121.424 453.773 121.644M454.075 121.861C454.316 122.003 454.583 122.093 454.86 122.125L454.968 143.089L441.894 143.038C441.87 142.767 441.79 142.503 441.661 142.263C441.531 142.023 441.355 141.811 441.141 141.642L454.075 121.861ZM453.805 164.532L452.482 166.063L441.154 145.16L453.885 161.663C453.689 161.845 453.532 162.064 453.422 162.308C453.312 162.551 453.252 162.814 453.244 163.081C453.237 163.348 453.283 163.614 453.379 163.863C453.475 164.112 453.62 164.34 453.805 164.532M441.261 144.691C441.622 144.356 441.847 143.9 441.892 143.41L454.97 143.46L455.061 161.135C454.747 161.166 454.446 161.27 454.18 161.437L441.261 144.691ZM452.222 166.364L418.682 205.164C418.591 205.099 418.494 205.042 418.393 204.993L418.347 204.868L439.396 145.167C439.823 145.275 440.274 145.239 440.678 145.065L452.222 166.364ZM417.962 204.839C417.651 204.768 417.328 204.772 417.019 204.851L406.092 172.251L438.484 144.656C438.648 144.817 438.838 144.949 439.046 145.045L417.962 204.839ZM397.207 166.941L397.813 149.759C397.925 149.752 398.036 149.735 398.145 149.709L405.66 172.132L397.959 178.691C397.647 178.385 397.244 178.19 396.811 178.134L397.207 166.941ZM396.439 178.12C396.271 178.13 396.105 178.161 395.944 178.213L385.481 153.54L395.892 148.665C396.129 149.132 396.54 149.488 397.037 149.656C397.164 149.7 397.296 149.73 397.429 149.747L396.439 178.12ZM398.497 149.59C398.859 149.432 399.166 149.169 399.38 148.837C399.593 148.504 399.703 148.116 399.696 147.72L437.916 143.614C437.972 143.887 438.084 144.145 438.244 144.373L405.964 171.871L398.497 149.59ZM437.983 142.568C437.909 142.786 437.874 143.015 437.878 143.245L399.656 147.352C399.575 146.952 399.375 146.587 399.082 146.303L413.552 128.237L438.059 142.375C438.03 142.438 438.004 142.503 437.982 142.569M413.461 127.756L400.655 120.368C400.684 120.305 400.71 120.241 400.732 120.175C400.845 119.843 400.869 119.487 400.801 119.143L424.978 112.079C425.084 112.345 425.245 112.586 425.451 112.785L413.461 127.756ZM424.942 110.691C424.829 111.023 424.806 111.379 424.874 111.723L400.697 118.788C400.564 118.453 400.343 118.159 400.058 117.938L412.054 99.0929L425.198 110.189C425.089 110.344 425.003 110.514 424.942 110.692M400.469 120.691L413.226 128.051L398.792 146.072C398.649 145.977 398.494 145.901 398.332 145.846C398.282 145.828 398.232 145.815 398.181 145.802L398.841 121.542C399.161 121.54 399.475 121.461 399.758 121.314C400.041 121.166 400.285 120.953 400.469 120.693M397.811 145.746C397.625 145.734 397.437 145.748 397.255 145.788L389.23 120.57L396.823 119.72C396.861 120.159 397.043 120.572 397.341 120.896C397.64 121.22 398.037 121.436 398.47 121.51L397.811 145.746ZM396.919 118.883C396.869 119.033 396.837 119.189 396.823 119.346L389.115 120.209L383.291 101.907C383.401 101.851 383.506 101.786 383.604 101.711L397.427 118.084C397.197 118.305 397.022 118.58 396.919 118.883ZM396.901 145.901C396.75 145.965 396.607 146.046 396.476 146.144L373.59 123.581C373.894 123.213 374.056 122.747 374.044 122.269L388.854 120.612L396.901 145.901ZM396.132 146.475C395.922 146.728 395.777 147.029 395.712 147.351C395.646 147.674 395.66 148.007 395.755 148.323L385.336 153.201L372.985 124.078C373.106 124.014 373.219 123.937 373.324 123.85L396.132 146.475ZM395.604 178.362C395.211 178.572 394.9 178.907 394.719 179.313L358.922 167.159C359.013 166.778 358.991 166.378 358.857 166.01L385.145 153.701L395.604 178.362ZM394.32 179.57L387.664 186.807L358.737 167.642C358.76 167.599 358.782 167.556 358.802 167.511L394.32 179.57ZM394.564 179.855C394.51 180.236 394.567 180.626 394.728 180.976C394.889 181.326 395.148 181.623 395.473 181.83C395.798 182.038 396.175 182.147 396.561 182.146C396.946 182.145 397.324 182.034 397.647 181.824L416.113 205.359C416.053 205.417 415.997 205.478 415.945 205.543L387.978 187.015L394.564 179.855ZM403.666 188.893L397.941 181.595C398.292 181.263 398.512 180.815 398.56 180.334C398.609 179.853 398.481 179.37 398.202 178.975L405.788 172.513L416.669 204.977C416.577 205.02 416.488 205.07 416.403 205.126L403.666 188.893ZM438.247 142.056L413.788 127.947L425.742 113.021C425.989 113.185 426.268 113.293 426.561 113.335C426.855 113.377 427.153 113.354 427.436 113.266L438.959 141.435C438.675 141.582 438.431 141.795 438.246 142.056M436.699 60.9162C436.733 60.9275 436.767 60.9356 436.801 60.9451L427.062 109.338C426.766 109.306 426.467 109.341 426.186 109.439C425.905 109.537 425.65 109.696 425.438 109.904L412.255 98.7756L436.429 60.7999C436.516 60.8452 436.606 60.8841 436.698 60.9164M380.324 71.0992C380.416 70.8263 380.449 70.5368 380.419 70.2503L435.398 59.5157C435.51 59.9467 435.763 60.3283 436.115 60.6009L411.969 98.5335L380.068 71.6025C380.177 71.4476 380.263 71.2781 380.324 71.0992ZM379.828 71.8861L411.767 98.8501L399.744 117.738C399.657 117.692 399.566 117.653 399.473 117.621C399.07 117.484 398.634 117.479 398.228 117.607L379.358 72.2299C379.53 72.1387 379.689 72.0229 379.828 71.8861ZM378.867 72.4126C378.917 72.401 378.966 72.3874 379.014 72.3726L397.884 117.749C397.827 117.78 397.771 117.813 397.717 117.85L383.877 101.458C384.143 101.163 384.316 100.797 384.374 100.405C384.432 100.013 384.374 99.6125 384.205 99.2537C384.037 98.8949 383.766 98.5939 383.427 98.3885C383.088 98.1831 382.695 98.0825 382.299 98.0994L378.867 72.4126ZM382.944 102.04L388.737 120.248L374.001 121.897C373.944 121.623 373.831 121.363 373.669 121.135C373.507 120.907 373.299 120.716 373.058 120.572L381.851 102.05C382.209 102.149 382.587 102.146 382.943 102.042M380.534 100.909C380.725 101.351 381.068 101.71 381.502 101.92L372.722 120.415C372.707 120.41 372.693 120.403 372.678 120.398C372.407 120.304 372.12 120.27 371.834 120.297C371.549 120.324 371.273 120.412 371.025 120.555C370.776 120.697 370.562 120.892 370.395 121.125C370.228 121.358 370.114 121.624 370.059 121.905L323.803 116.926C323.817 116.791 323.816 116.654 323.802 116.519L380.534 100.909ZM370.384 123.46L343.043 146.682L323.003 118.345C323.331 118.102 323.577 117.764 323.708 117.378C323.717 117.349 323.724 117.32 323.733 117.292L352.228 120.359L370.019 122.274C370.013 122.697 370.141 123.112 370.385 123.459M316.663 83.0372L380.423 99.6403C380.351 99.9407 380.35 100.254 380.419 100.555L323.73 116.153C323.596 115.702 323.307 115.312 322.915 115.052C322.522 114.792 322.051 114.678 321.583 114.731L315.354 84.2779C315.654 84.1874 315.929 84.0281 316.156 83.8127C316.383 83.5972 316.557 83.3317 316.663 83.0372ZM314.124 84.2593C314.402 84.3536 314.698 84.3854 314.991 84.3524L321.081 114.134L311.568 87.2284L313.769 84.0992C313.881 84.1637 314 84.2173 314.122 84.2593M252.13 145.771L287.276 135.594C287.351 135.793 287.456 135.978 287.588 136.144L271.956 151.162L252.146 146.434C252.177 146.213 252.172 145.989 252.13 145.77M207.289 119.602L239.213 112.014L249.375 144.295C249.032 144.439 248.735 144.675 248.517 144.977L207.121 120.737C207.287 120.384 207.346 119.989 207.289 119.602ZM239.576 111.928L251.986 108.978C252.085 109.271 252.249 109.538 252.468 109.757C252.686 109.976 252.952 110.142 253.244 110.241C253.331 110.27 253.42 110.293 253.51 110.309L250.165 144.137C250.018 144.136 249.872 144.152 249.729 144.183L239.576 111.928ZM251.243 137.017L253.88 110.347C254.163 110.348 254.443 110.29 254.701 110.177C254.96 110.063 255.193 109.896 255.383 109.687L275.486 124.795L251.573 144.724C251.356 144.507 251.092 144.342 250.801 144.243C250.714 144.214 250.625 144.191 250.535 144.175L251.243 137.017ZM255.897 108.154C255.855 107.694 255.656 107.263 255.335 106.931L272.778 86.5096L294.617 107.518C294.471 107.7 294.358 107.905 294.283 108.126C294.267 108.173 294.255 108.221 294.242 108.269L255.897 108.154ZM294.22 109.182L275.78 124.55L255.606 109.389C255.769 109.128 255.868 108.833 255.895 108.526L294.182 108.641C294.17 108.822 294.183 109.004 294.22 109.182ZM275.791 125.025L287.47 133.801C287.195 134.225 287.09 134.738 287.178 135.236L252.026 145.415C251.97 145.273 251.897 145.138 251.811 145.012L275.791 125.025ZM276.085 124.78L294.341 109.566C294.443 109.805 294.591 110.022 294.777 110.206L290.655 127.744L289.443 132.898C289.125 132.853 288.801 132.885 288.497 132.991C288.194 133.097 287.92 133.275 287.699 133.508L276.085 124.78ZM295.098 110.463C295.465 110.703 295.901 110.815 296.338 110.782L304.177 126.366L290.81 133.737C290.565 133.385 290.215 133.121 289.809 132.984L289.805 132.982L295.098 110.463ZM296.721 110.715C297.022 110.632 297.3 110.48 297.533 110.271C297.765 110.062 297.946 109.802 298.06 109.511L319.806 116.465C319.753 116.867 319.822 117.276 320.006 117.638L304.504 126.186L296.721 110.715ZM319.895 116.082C319.893 116.089 319.892 116.095 319.89 116.101L298.165 109.155C298.232 108.806 298.205 108.445 298.088 108.109C297.97 107.773 297.765 107.474 297.494 107.243L311.307 87.6026L320.959 114.905C320.711 115.019 320.488 115.182 320.306 115.385C320.123 115.588 319.983 115.826 319.895 116.084M313.658 80.6776C313.398 80.8496 313.182 81.0797 313.026 81.3498C312.87 81.6199 312.779 81.9225 312.76 82.2338C312.742 82.5451 312.796 82.8564 312.918 83.1432C313.041 83.4299 313.228 83.6843 313.466 83.8861L311.417 86.7995L300.803 56.7764L313.658 80.6776ZM299.875 56.5718C300.024 56.5681 300.172 56.548 300.317 56.5119L311.156 87.1712L297.192 107.027C297.079 106.963 296.961 106.909 296.838 106.867C296.731 106.832 296.622 106.805 296.511 106.788L299.875 56.5718ZM298.664 56.2053C298.913 56.3838 299.201 56.5007 299.505 56.5466L296.139 106.762C295.675 106.775 295.228 106.947 294.876 107.251L273.021 86.227L298.664 56.2053ZM259.391 72.1858C259.525 71.7912 259.532 71.3645 259.412 70.9653L298.032 55.4803C298.124 55.6581 298.241 55.8213 298.38 55.9648L272.751 85.9688L259.056 72.7946C259.202 72.6131 259.315 72.4076 259.39 72.1873M258.798 73.0626L272.51 86.2529L255.053 106.691C254.895 106.579 254.723 106.491 254.54 106.429C254.452 106.4 254.363 106.377 254.272 106.36L257.473 73.5526C257.96 73.5542 258.43 73.3802 258.798 73.0626ZM232.489 84.2555C232.632 83.8345 232.631 83.3779 232.486 82.9577L255.732 72.5291C255.974 72.9608 256.367 73.2877 256.836 73.4466C256.923 73.4756 257.013 73.4986 257.104 73.5154L253.902 106.323C253.448 106.321 253.007 106.472 252.65 106.752L232.051 84.9835C232.248 84.7749 232.397 84.5267 232.489 84.2555ZM231.773 85.2304L252.379 107.007C252.188 107.225 252.046 107.482 251.963 107.76C251.881 108.038 251.86 108.33 251.901 108.618L239.465 111.573L231.257 85.5035C231.441 85.4379 231.615 85.3459 231.773 85.2304M229.481 85.2918C229.898 85.5675 230.403 85.6762 230.896 85.5963L239.101 111.66L207.203 119.241C207.084 118.891 206.873 118.581 206.59 118.344L229.481 85.2918ZM181.827 82.0306C181.872 81.896 181.903 81.757 181.919 81.6158L228.571 83.6666C228.58 83.9759 228.661 84.2788 228.806 84.5519L197.529 107.743L181.203 82.9328C181.491 82.6959 181.707 82.3835 181.827 82.0306ZM175.232 122.519C175.118 122.518 175.005 122.526 174.894 122.543ZM173.362 123.705C173.337 123.764 173.312 123.823 173.291 123.885C173.164 124.259 173.15 124.663 173.251 125.044L167.161 127.265L166.745 127.416L148.172 134.19C147.953 133.726 147.565 133.363 147.088 133.176C146.61 132.989 146.079 132.991 145.603 133.183C145.161 133.357 144.796 133.685 144.577 134.107C144.435 134.372 144.354 134.665 144.34 134.966C144.326 135.266 144.38 135.565 144.497 135.842C144.614 136.119 144.792 136.366 145.017 136.566C145.242 136.765 145.509 136.911 145.798 136.994C146.087 137.077 146.39 137.093 146.687 137.043C146.983 136.993 147.265 136.877 147.51 136.704C147.756 136.531 147.96 136.305 148.107 136.043C148.254 135.781 148.341 135.489 148.36 135.189L174.248 134.579C174.281 134.864 174.373 135.138 174.52 135.384C174.667 135.63 174.864 135.842 175.1 136.005C175.335 136.169 175.602 136.28 175.884 136.332C176.165 136.384 176.455 136.375 176.733 136.306C177.011 136.237 177.271 136.11 177.496 135.933C177.721 135.755 177.905 135.532 178.037 135.278C178.168 135.023 178.244 134.744 178.259 134.458C178.274 134.172 178.228 133.886 178.124 133.619L203.585 120.945C203.841 121.359 204.238 121.666 204.703 121.809C205.168 121.952 205.669 121.922 206.113 121.723L238.958 180.37C238.663 180.573 238.427 180.851 238.275 181.176C238.123 181.5 238.06 181.86 238.093 182.217C238.127 182.574 238.255 182.915 238.464 183.206C238.673 183.497 238.957 183.727 239.285 183.872C239.613 184.016 239.973 184.071 240.329 184.03C240.685 183.989 241.024 183.853 241.31 183.637C241.596 183.422 241.82 183.133 241.957 182.802C242.095 182.471 242.141 182.109 242.092 181.754L321.24 163.334C321.176 163.597 321.167 163.871 321.211 164.137C321.256 164.404 321.353 164.659 321.499 164.888C321.644 165.116 321.834 165.313 322.057 165.466C322.28 165.619 322.531 165.726 322.797 165.779C323.062 165.833 323.335 165.833 323.6 165.779C323.865 165.725 324.117 165.618 324.339 165.464C324.562 165.311 324.752 165.114 324.897 164.885C325.042 164.657 325.139 164.402 325.183 164.135L354.951 166.702C354.953 167.016 355.028 167.326 355.171 167.606C355.314 167.886 355.521 168.129 355.775 168.314C356.029 168.5 356.323 168.623 356.633 168.674C356.943 168.726 357.261 168.703 357.562 168.609L372.086 203.498L371.577 203.463L372.226 203.834L372.314 204.044L372.41 203.939L428.028 235.72C428.001 235.78 427.976 235.842 427.954 235.906C427.81 236.331 427.812 236.792 427.96 237.216C428.107 237.64 428.392 238.002 428.77 238.245C429.147 238.489 429.594 238.599 430.041 238.559C430.488 238.519 430.909 238.33 431.237 238.023C431.564 237.717 431.78 237.309 431.85 236.866C431.919 236.423 431.839 235.969 431.621 235.576C431.403 235.184 431.06 234.876 430.647 234.7C430.234 234.525 429.774 234.493 429.341 234.609L419.357 207.603C419.379 207.552 419.4 207.502 419.418 207.45C419.504 207.196 419.539 206.927 419.52 206.659L467.724 198.687C467.826 199.076 468.042 199.426 468.344 199.692C468.646 199.957 469.02 200.127 469.419 200.177C469.818 200.228 470.224 200.159 470.583 199.977C470.942 199.796 471.238 199.511 471.434 199.16C471.63 198.808 471.717 198.406 471.682 198.006C471.648 197.605 471.494 197.224 471.241 196.911C470.988 196.598 470.647 196.368 470.262 196.251C469.877 196.134 469.466 196.134 469.081 196.253L456.19 164.921C456.455 164.783 456.686 164.587 456.866 164.348C457.046 164.109 457.17 163.833 457.229 163.54C457.289 163.247 457.282 162.944 457.21 162.654C457.137 162.364 457.001 162.093 456.811 161.862L473.966 144.894C474.254 145.137 474.605 145.294 474.978 145.347C475.351 145.4 475.732 145.347 476.077 145.194C476.421 145.042 476.716 144.795 476.928 144.484C477.139 144.172 477.259 143.807 477.274 143.43C477.288 143.053 477.196 142.68 477.009 142.353C476.822 142.026 476.546 141.758 476.214 141.58C475.882 141.401 475.507 141.32 475.131 141.344C474.754 141.369 474.393 141.499 474.087 141.719L456.55 121.518C456.765 121.294 456.925 121.024 457.018 120.728C457.111 120.432 457.134 120.119 457.085 119.813C457.037 119.507 456.918 119.216 456.739 118.963C456.559 118.71 456.323 118.503 456.05 118.356L467.829 93.6397C468.103 93.7295 468.392 93.7598 468.678 93.7284C468.964 93.6971 469.24 93.6048 469.487 93.4579C469.734 93.311 469.947 93.1128 470.111 92.8766C470.275 92.6405 470.387 92.3719 470.439 92.089C470.49 91.8061 470.481 91.5154 470.411 91.2364C470.341 90.9575 470.212 90.6968 470.032 90.4719C469.853 90.2471 469.628 90.0632 469.371 89.9328C469.115 89.8024 468.834 89.7284 468.546 89.7158L467.032 69.2447C467.489 69.1683 467.905 68.9368 468.211 68.5892C468.517 68.2417 468.693 67.7994 468.711 67.3368L499.871 65.662C499.924 66.0281 500.075 66.3728 500.31 66.6586C500.544 66.9444 500.853 67.1603 501.202 67.2827C501.551 67.4051 501.927 67.4294 502.288 67.3528C502.65 67.2762 502.984 67.1017 503.253 66.8484C503.523 66.5951 503.717 66.2727 503.816 65.9163C503.915 65.56 503.914 65.1834 503.813 64.8276C503.712 64.4718 503.516 64.1505 503.245 63.8987C502.974 63.6469 502.639 63.4744 502.277 63.3998L507.571 17.6788C507.984 17.6895 508.389 17.5735 508.734 17.3466C509.078 17.1197 509.345 16.7927 509.498 16.4096C509.651 16.0265 509.683 15.6058 509.589 15.204C509.496 14.8022 509.282 14.4387 508.975 14.1624C508.669 13.8862 508.285 13.7104 507.876 13.6587C507.467 13.6071 507.052 13.682 506.686 13.8736C506.321 14.0651 506.023 14.3639 505.833 14.7299C505.642 15.0959 505.569 15.5114 505.622 15.9204L439.875 30.6006C439.753 30.2846 439.553 30.0045 439.294 29.7862C439.035 29.568 438.725 29.4186 438.393 29.3519C438.061 29.2852 437.717 29.3034 437.394 29.4048C437.071 29.5062 436.779 29.6874 436.544 29.9318C436.31 30.1762 436.141 30.4758 436.053 30.8029C435.965 31.13 435.961 31.474 436.041 31.8031C436.121 32.1321 436.283 32.4356 436.512 32.6854C436.741 32.9352 437.029 33.1233 437.349 33.2322C437.453 33.2666 437.558 33.2924 437.666 33.3095L437.242 56.9993C436.975 57.0129 436.713 57.0796 436.472 57.1954C436.231 57.3113 436.016 57.474 435.838 57.6741C435.661 57.8743 435.525 58.1077 435.439 58.3609C435.352 58.6141 435.317 58.8819 435.336 59.1488L380.348 69.8854C380.242 69.5226 380.037 69.1968 379.755 68.9453C379.473 68.6937 379.126 68.5265 378.753 68.4627C378.381 68.399 377.998 68.4412 377.649 68.5846C377.299 68.728 376.997 68.9669 376.776 69.2738C376.556 69.5808 376.426 69.9435 376.402 70.3206C376.378 70.6977 376.461 71.0739 376.64 71.4064C376.82 71.7389 377.089 72.0142 377.418 72.2009C377.746 72.3875 378.121 72.4781 378.498 72.4622L381.931 98.1477C381.596 98.2239 381.287 98.3845 381.032 98.6143C380.777 98.8441 380.585 99.1353 380.474 99.4603L380.521 99.2812L316.756 82.6771C316.815 82.3218 316.777 81.9572 316.647 81.6215C316.517 81.2858 316.298 80.9913 316.015 80.7688C315.732 80.5463 315.394 80.404 315.037 80.3567C314.68 80.3095 314.317 80.359 313.986 80.5002L300.936 56.2368C301.246 56.0308 301.494 55.7426 301.651 55.4041C301.807 55.0657 301.867 54.6904 301.823 54.3202C301.778 53.9499 301.632 53.5991 301.401 53.307C301.169 53.0149 300.86 52.7929 300.51 52.6658C300.159 52.5387 299.78 52.5114 299.415 52.5871C299.05 52.6627 298.713 52.8383 298.442 53.0942C298.171 53.3502 297.976 53.6764 297.879 54.0366C297.782 54.3967 297.788 54.7767 297.894 55.134L259.273 70.6207C259.042 70.1678 258.647 69.8194 258.169 69.6457C257.69 69.4721 257.164 69.4861 256.696 69.685C256.228 69.8838 255.852 70.2528 255.645 70.7174C255.438 71.1821 255.414 71.7081 255.579 72.1893L232.333 82.6179C232.129 82.2522 231.816 81.9594 231.437 81.7805C231.059 81.6016 230.634 81.5455 230.222 81.6202C229.81 81.6949 229.431 81.8965 229.14 82.1969C228.848 82.4973 228.657 82.8814 228.595 83.2954L181.929 81.2441C181.905 80.897 181.791 80.562 181.599 80.2719C181.407 79.9817 181.143 79.7463 180.833 79.5886C180.523 79.4308 180.177 79.3561 179.83 79.3718C179.482 79.3875 179.144 79.493 178.85 79.678L178.555 79.903C178.305 80.1328 178.118 80.4218 178.01 80.7433C177.903 81.0647 177.878 81.4081 177.939 81.7416L178.039 82.0998C178.145 82.3769 178.31 82.6274 178.523 82.8332C178.737 83.0389 178.993 83.1949 179.274 83.2899C179.357 83.3175 179.441 83.3396 179.527 83.356C179.649 83.3765 179.773 83.3898 179.897 83.3961C180.247 83.3997 180.592 83.3121 180.897 83.1419L197.232 107.964L176.698 123.19C176.468 122.932 176.174 122.737 175.846 122.626C175.766 122.6 175.685 122.578 175.602 122.562C175.154 122.462 174.686 122.521 174.277 122.73C173.868 122.939 173.545 123.284 173.364 123.706M174.34 133.701C174.285 133.865 174.251 134.036 174.24 134.21L148.35 134.819C148.34 134.725 148.323 134.632 148.3 134.54L167.099 127.684L174.534 133.29C174.454 133.419 174.388 133.557 174.339 133.7M174.757 132.993L167.515 127.532L173.379 125.393C173.543 125.742 173.804 126.036 174.132 126.241C174.46 126.445 174.839 126.55 175.225 126.543L175.848 132.374C175.428 132.459 175.046 132.675 174.757 132.992M177.957 133.287C177.775 132.991 177.519 132.747 177.213 132.581C176.908 132.414 176.565 132.329 176.218 132.335L175.595 126.504C176.071 126.409 176.497 126.144 176.794 125.759C177.09 125.374 177.237 124.894 177.207 124.409L203.344 120.373C203.365 120.454 203.39 120.533 203.42 120.611L177.957 133.287ZM203.39 119.237C203.306 119.484 203.271 119.746 203.287 120.006L177.15 124.043C177.101 123.848 177.023 123.661 176.919 123.488L197.435 108.276L204.04 118.313C203.739 118.552 203.514 118.873 203.39 119.238M205.944 117.979C205.684 117.891 205.408 117.857 205.134 117.879C204.86 117.902 204.593 117.981 204.351 118.111L197.734 108.055L229.01 84.8648C229.066 84.9339 229.125 84.9993 229.189 85.0606L206.285 118.132C206.176 118.07 206.062 118.019 205.944 117.978M239.283 180.189L206.438 121.541C206.63 121.41 206.797 121.247 206.933 121.058L248.33 145.298C248.298 145.365 248.27 145.433 248.247 145.503C248.08 145.996 248.11 146.534 248.332 147.005C248.553 147.476 248.948 147.843 249.434 148.029L240.46 180.049C240.063 179.976 239.652 180.024 239.283 180.189M241.416 180.505C241.239 180.352 241.037 180.232 240.818 180.149L249.792 148.129C250.267 148.216 250.757 148.13 251.173 147.885C251.59 147.641 251.904 147.255 252.06 146.798V146.797L271.639 151.469L241.416 180.505ZM242.008 181.392C241.933 181.168 241.82 180.958 241.673 180.773L272.067 151.571L320.486 163.127L242.008 181.392ZM321.366 162.956L272.386 151.266L287.845 136.414C288.232 136.749 288.732 136.923 289.243 136.903C289.754 136.882 290.238 136.667 290.596 136.302L321.556 162.621C321.482 162.726 321.418 162.838 321.366 162.955M321.797 162.338L290.831 136.014C291.024 135.73 291.141 135.401 291.169 135.058C291.198 134.716 291.138 134.372 290.994 134.06L304.345 126.699L322.137 162.07C322.015 162.147 321.901 162.237 321.798 162.338M322.469 161.904L304.671 126.52L320.204 117.955C320.373 118.177 320.586 118.361 320.829 118.495C321.073 118.63 321.342 118.711 321.62 118.736L321.736 122.503L322.956 161.782C322.789 161.803 322.626 161.844 322.469 161.905M323.851 161.872C323.682 161.815 323.506 161.782 323.328 161.771L321.992 118.737C322.233 118.715 322.468 118.649 322.686 118.543L342.758 146.924L324.61 162.338C324.395 162.127 324.136 161.967 323.851 161.87M355.057 166.041C355.025 166.135 355.001 166.232 354.984 166.331L325.216 163.764C325.213 163.355 325.085 162.957 324.85 162.622L342.974 147.228L355.655 165.16C355.38 165.394 355.173 165.698 355.057 166.041ZM357.432 164.73C356.931 164.611 356.404 164.687 355.958 164.945L343.259 146.987L370.626 123.742C370.796 123.91 370.994 124.045 371.212 124.142L357.432 164.73ZM371.564 124.262C371.921 124.347 372.294 124.333 372.643 124.221L385 153.356L358.698 165.67C358.487 165.308 358.166 165.021 357.783 164.85L371.564 124.262ZM357.905 168.466C358.146 168.338 358.359 168.162 358.53 167.949L387.408 187.081L372.433 203.364L357.905 168.466ZM387.722 187.29L415.739 205.851C415.686 205.949 415.641 206.05 415.605 206.155C415.569 206.261 415.543 206.37 415.526 206.48L372.772 203.545L387.722 187.29ZM428.993 234.738C428.681 234.888 428.412 235.115 428.214 235.398L373.17 203.945L415.499 206.851C415.509 207.268 415.648 207.672 415.897 208.007C416.147 208.341 416.494 208.59 416.892 208.718C417.289 208.847 417.716 208.848 418.114 208.723C418.512 208.598 418.862 208.352 419.114 208.019L428.993 234.738ZM467.765 197.529C467.679 197.783 467.644 198.052 467.663 198.32L419.458 206.292C419.371 205.96 419.2 205.656 418.962 205.408L452.41 166.715L468.554 196.504C468.185 196.749 467.907 197.11 467.765 197.529M468.17 195.016L452.67 166.413L454.085 164.775C454.337 164.956 454.627 165.076 454.933 165.125C455.238 165.174 455.551 165.152 455.847 165.061L468.17 195.016ZM456.549 161.598C456.234 161.33 455.843 161.168 455.431 161.135L455.34 143.461L473.255 143.53C473.291 143.933 473.448 144.315 473.705 144.628L456.549 161.598ZM456.269 121.761L473.806 141.962C473.492 142.287 473.298 142.709 473.257 143.159L455.338 143.091L455.231 122.136C455.605 122.11 455.964 121.98 456.269 121.761ZM455.708 118.21C455.386 118.107 455.043 118.087 454.712 118.152C454.38 118.216 454.07 118.363 453.81 118.58L465.807 97.0182L455.708 118.21ZM440.7 141.376C440.647 141.352 440.592 141.33 440.536 141.311C440.137 141.175 439.705 141.169 439.303 141.293L427.78 113.124C428.212 112.899 428.548 112.525 428.725 112.072C428.902 111.618 428.908 111.115 428.742 110.658L466.756 92.8067C466.915 93.0578 467.129 93.2702 467.38 93.4285L440.7 141.376ZM468.175 89.7314C467.825 89.7803 467.495 89.9198 467.217 90.136L456.496 78.8214L465.493 68.8687C465.831 69.1222 466.24 69.2627 466.662 69.2701L468.175 89.7314ZM468.69 66.9633C468.626 66.5234 468.418 66.1172 468.098 65.8081C467.779 65.499 467.366 65.3046 466.924 65.2552C466.482 65.2057 466.036 65.3041 465.656 65.5349C465.276 65.7657 464.983 66.1159 464.824 66.5307L439.458 59.3285L499.432 65.3109L468.69 66.9633ZM499.955 64.7193C499.927 64.8055 499.904 64.8936 499.888 64.9828L439.357 58.9447C439.347 58.6444 439.271 58.35 439.133 58.0832L461.725 44.1618L500.008 64.5877C499.989 64.631 499.971 64.674 499.955 64.7193ZM501.908 63.3533C501.568 63.346 501.23 63.4253 500.929 63.5838C500.627 63.7422 500.37 63.9746 500.182 64.2593L462.092 43.9356L506.009 16.8755C506.3 17.267 506.725 17.5373 507.203 17.6345L501.908 63.3533Z" fill="#77918E"/>
</g>
<defs>
<clipPath id="clip0_587_8842">
<rect width="451" height="167" fill="white"/>
</clipPath>
</defs>
</svg>
