<svg xmlns="http://www.w3.org/2000/svg" width="16.84" height="15.996" viewBox="0 0 16.84 15.996">
  <g id="Group_937" data-name="Group 937" transform="translate(1579.814 -314.224)">
    <path id="Path_2194" data-name="Path 2194" d="M-1511.7,323.919v-.23q0-4.252,0-8.5a.971.971,0,0,1,.173-.632.845.845,0,0,1,.9-.3.827.827,0,0,1,.6.749c.005.085,0,.171,0,.256q0,4.212,0,8.425v.285c.084-.078.135-.122.182-.17q1.275-1.278,2.549-2.557a.83.83,0,0,1,.953-.227.838.838,0,0,1,.357,1.294,1.78,1.78,0,0,1-.161.174l-4.033,4.032a.86.86,0,0,1-1.371,0q-2.044-2.044-4.088-4.088a.842.842,0,0,1,.107-1.342.842.842,0,0,1,1.094.154q1.041,1.038,2.076,2.082c.2.2.4.413.6.62Z" transform="translate(-60.531 0)" fill="#fff"/>
    <path id="Path_2195" data-name="Path 2195" d="M-1571.391,587.347q-3.76,0-7.519,0a.841.841,0,0,1-.847-1.131.825.825,0,0,1,.749-.552c.065-.006.132,0,.2,0q7.421,0,14.841,0a1.481,1.481,0,0,1,.428.051.827.827,0,0,1,.559.93.844.844,0,0,1-.77.7c-.072.005-.144,0-.217,0Z" transform="translate(0 -257.128)" fill="#fff"/>
  </g>
</svg>
