<svg width="79" height="16" viewBox="0 0 79 16" fill="none" xmlns="http://www.w3.org/2000/svg">
<g id="Group 164">
<path id="Path 2034" d="M20.6489 6.45412H21.5108V0.997953H20.6489V6.45412ZM20.6876 0.719823H21.4409V0H20.6876V0.719823Z" fill="white"/>
<path id="Path 2035" d="M27.1323 0.998718V6.45214H26.3616L23.5534 2.39222V6.45214H22.7407V0.998718H23.5649L26.3158 5.01049V0.998718H27.1323Z" fill="white"/>
<path id="Path 2036" d="M32.5549 6.45214H31.437L29.6971 4.127L29.2202 4.68115V6.45214H28.3579V0.998718H29.2202V3.64507L31.3034 0.998718H32.3946L30.2886 3.44434L32.5549 6.45214Z" fill="white"/>
<path id="Path 2037" d="M33.3403 6.45412H34.2022V0.997953H33.3403V6.45412ZM33.379 0.719823H34.1324V0H33.379V0.719823Z" fill="white"/>
<g id="Group 163">
<g id="Group 162">
<path id="Path 2038" d="M38.7942 4.91015C38.7942 5.19123 38.7331 5.45627 38.611 5.70526C38.4889 5.95424 38.2982 6.15508 38.0349 6.31167C37.8594 6.41611 37.6496 6.48833 37.3977 6.52053L36.9971 7.39589H36.215L36.7873 6.5406C36.6193 6.53257 36.4668 6.52053 36.3294 6.50037C36.1348 6.46827 35.9555 6.42012 35.7952 6.35581C35.635 6.29161 35.4672 6.21125 35.2954 6.11886V5.21932C35.4976 5.38806 35.7418 5.5286 36.0317 5.63704C36.318 5.74549 36.627 5.80166 36.959 5.80166C37.2795 5.80166 37.5199 5.72933 37.6801 5.5928C37.8365 5.45226 37.9166 5.25955 37.9166 5.01458C37.9166 4.82177 37.8594 4.66919 37.7411 4.55272C37.6228 4.43625 37.4702 4.33594 37.2795 4.25558C37.0849 4.17121 36.8826 4.09096 36.6652 4.00659C36.4973 3.94239 36.3371 3.87407 36.1768 3.79784C36.0127 3.72551 35.8677 3.63311 35.738 3.52066C35.6083 3.4082 35.5053 3.26766 35.429 3.091C35.3527 2.91836 35.3107 2.70147 35.3107 2.44446C35.3107 2.2678 35.3451 2.08302 35.4137 1.89834C35.4824 1.71355 35.5816 1.54492 35.719 1.39635C35.8563 1.24377 36.0394 1.12329 36.2645 1.03491C36.4896 0.946527 36.7605 0.898376 37.0772 0.898376C37.2833 0.898376 37.4626 0.914427 37.6152 0.942513C37.7679 0.966589 37.9128 1.01083 38.0502 1.06701C38.1875 1.12329 38.3363 1.19551 38.5004 1.27587V2.15936C38.3706 2.07098 38.2371 1.99073 38.1074 1.91439C37.9738 1.83804 37.8289 1.77384 37.6763 1.72559C37.5199 1.67744 37.3443 1.64935 37.1535 1.64534C36.9361 1.63731 36.7567 1.6654 36.6193 1.72559C36.4782 1.78588 36.3713 1.87014 36.2989 1.97859C36.2264 2.08703 36.1921 2.21554 36.1921 2.35608C36.1921 2.54889 36.234 2.69746 36.3256 2.80991C36.4171 2.92237 36.5469 3.01466 36.711 3.08699C36.875 3.16333 37.0696 3.23556 37.2871 3.30388C37.4778 3.37209 37.6648 3.44442 37.8441 3.52467C38.0273 3.60904 38.1875 3.70544 38.3287 3.82592C38.466 3.94239 38.5805 4.08695 38.6645 4.2636C38.7521 4.43625 38.7942 4.65314 38.7942 4.91015Z" fill="white"/>
<path id="Path 2039" d="M42.2628 0.998718H41.3509L39.3325 6.45214H40.1872L40.6946 4.97438H42.816L43.3272 6.45214H44.2278L42.2628 0.998718ZM40.9503 4.23544L41.7515 1.89826L42.5604 4.23544H40.9503Z" fill="white"/>
<path id="Path 2040" d="M44.9722 6.45409V0.997925H48.2985V1.75861H45.827V3.38653H47.9876V4.15535H45.827V6.45409H44.9722Z" fill="white"/>
<path id="Path 2041" d="M24.8459 15.9092H23.7241L21.9843 13.5841L21.5112 14.1342V15.9092H20.6489V10.4518H21.5112V13.1022L23.5944 10.4518H24.6819L22.5757 12.9014L24.8459 15.9092Z" fill="white"/>
<path id="Path 2042" d="M27.8365 16C27.3235 16 26.8871 15.8965 26.5269 15.6891C26.1666 15.4818 25.8934 15.1712 25.7068 14.7566C25.5205 14.3422 25.4272 13.8187 25.4272 13.1859C25.4272 12.2535 25.6332 11.5501 26.045 11.0756C26.457 10.601 27.054 10.3638 27.8365 10.3638C28.3546 10.3638 28.7924 10.4675 29.15 10.6747C29.5074 10.8821 29.7806 11.1943 29.9699 11.6112C30.1589 12.0285 30.2536 12.5535 30.2536 13.1859C30.2536 14.1131 30.0476 14.8139 29.6357 15.2884C29.2238 15.7627 28.624 16 27.8365 16ZM27.8365 15.2229C28.1837 15.2229 28.4699 15.1533 28.6953 15.0143C28.9207 14.8752 29.089 14.6558 29.2005 14.3557C29.3119 14.0558 29.3677 13.6633 29.3677 13.1778C29.3677 12.698 29.3119 12.3095 29.2005 12.0122C29.089 11.7149 28.9207 11.4969 28.6953 11.3578C28.4699 11.2188 28.1837 11.1492 27.8365 11.1492C27.4945 11.1492 27.2094 11.2201 26.9815 11.3619C26.7535 11.5036 26.5839 11.7232 26.4725 12.0203C26.361 12.3176 26.3054 12.7061 26.3054 13.1859C26.3054 13.666 26.361 14.0558 26.4725 14.3557C26.5839 14.6558 26.7535 14.8752 26.9815 15.0143C27.2094 15.1533 27.4945 15.2229 27.8365 15.2229Z" fill="white"/>
<path id="Path 2043" d="M34.1087 13.6965C34.2919 13.6564 34.4597 13.5801 34.6047 13.4716C34.8108 13.319 34.971 13.1223 35.0778 12.8854C35.1885 12.6444 35.2419 12.3834 35.2419 12.0983C35.2419 11.5522 35.0969 11.1425 34.8108 10.8654C34.5247 10.5923 34.1087 10.4518 33.5708 10.4518H31.27V15.9092H32.1247V13.8491H33.2197L34.4331 15.9092H35.4976L34.1087 13.6965ZM32.1247 11.2148H33.4715C33.7921 11.2148 34.0171 11.2951 34.1507 11.4598C34.2843 11.6244 34.3491 11.8573 34.3491 12.1545C34.3491 12.4758 34.2651 12.7167 34.0973 12.8733C33.9294 13.0339 33.6738 13.1143 33.3304 13.1143H32.1247V11.2148Z" fill="white"/>
<path id="Path 2044" d="M37.2948 13.955V15.91H36.4399V10.4538H38.4916C39.0823 10.4538 39.5395 10.5985 39.8635 10.8875C40.1872 11.1766 40.349 11.6072 40.349 12.1799C40.349 12.7525 40.1872 13.1915 39.8635 13.4969C39.5395 13.8024 39.0823 13.955 38.4916 13.955H37.2948ZM37.2948 13.186H38.3828C38.6055 13.186 38.787 13.1602 38.9269 13.1083C39.0667 13.0565 39.1755 12.9828 39.2532 12.8876C39.331 12.792 39.384 12.6871 39.4126 12.5726C39.441 12.458 39.4554 12.3382 39.4554 12.2126C39.4554 12.0872 39.441 11.9645 39.4126 11.8444C39.384 11.7246 39.331 11.6168 39.2532 11.5214C39.1755 11.426 39.0667 11.3511 38.9269 11.2965C38.787 11.242 38.6055 11.2147 38.3828 11.2147H37.2948V13.186Z" fill="white"/>
<path id="Path 2045" d="M43.5817 16C43.0686 16 42.6322 15.8965 42.272 15.6891C41.9117 15.4818 41.6386 15.1712 41.4519 14.7566C41.2657 14.3422 41.1724 13.8187 41.1724 13.1859C41.1724 12.2535 41.3783 11.5501 41.7901 11.0756C42.2021 10.601 42.7991 10.3638 43.5817 10.3638C44.0997 10.3638 44.5375 10.4675 44.8951 10.6747C45.2525 10.8821 45.5257 11.1943 45.715 11.6112C45.904 12.0285 45.9988 12.5535 45.9988 13.1859C45.9988 14.1131 45.7927 14.8139 45.3807 15.2884C44.9689 15.7627 44.3691 16 43.5817 16ZM43.5817 15.2229C43.9287 15.2229 44.215 15.1533 44.4404 15.0143C44.6658 14.8752 44.8341 14.6558 44.9456 14.3557C45.057 14.0558 45.1128 13.6633 45.1128 13.1778C45.1128 12.698 45.057 12.3095 44.9456 12.0122C44.8341 11.7149 44.6658 11.4969 44.4404 11.3578C44.215 11.2188 43.9287 11.1492 43.5817 11.1492C43.2396 11.1492 42.9545 11.2201 42.7266 11.3619C42.4987 11.5036 42.329 11.7232 42.2176 12.0203C42.1061 12.3176 42.0505 12.7061 42.0505 13.1859C42.0505 13.666 42.1061 14.0558 42.2176 14.3557C42.329 14.6558 42.4987 14.8752 42.7266 15.0143C42.9545 15.1533 43.2396 15.2229 43.5817 15.2229Z" fill="white"/>
<path id="Path 2046" d="M49.8548 13.6925C50.0418 13.6564 50.2058 13.5801 50.3508 13.4716C50.5569 13.319 50.7171 13.1223 50.8239 12.8854C50.9346 12.6444 50.9879 12.3834 50.9879 12.0983C50.9879 11.5522 50.843 11.1425 50.5569 10.8654C50.2706 10.5923 49.8548 10.4518 49.3169 10.4518H47.0161V15.9092H47.8708V13.8491H48.9658L50.1792 15.9092H51.2436L49.8548 13.6925ZM47.8708 11.2148H49.2176C49.5382 11.2148 49.7632 11.2951 49.8967 11.4598C50.0264 11.6244 50.0952 11.8573 50.0952 12.1545C50.0952 12.4758 50.0112 12.7167 49.8434 12.8733C49.6717 13.0339 49.4199 13.1143 49.0765 13.1143H47.8708V11.2148Z" fill="white"/>
<path id="Path 2047" d="M54.6319 10.4518H53.7238L51.7017 15.9092H52.5564L53.0676 14.4274H55.1851L55.6964 15.9092H56.6007L54.6319 10.4518ZM53.3194 13.6925L54.1207 11.3553L54.9295 13.6925H53.3194Z" fill="white"/>
<path id="Path 2048" d="M58.9299 15.9999C58.6709 15.9999 58.443 15.9848 58.246 15.9549C58.0491 15.9248 57.8703 15.8772 57.7097 15.8118C57.5491 15.7463 57.3832 15.6673 57.2124 15.5747V14.6747C57.4144 14.8439 57.6593 14.983 57.9469 15.0919C58.2344 15.2012 58.544 15.2556 58.8756 15.2556C59.1968 15.2556 59.4364 15.1861 59.5945 15.047C59.7524 14.9079 59.8317 14.7156 59.8317 14.4702C59.8317 14.2794 59.7732 14.1253 59.6567 14.0081C59.5401 13.8909 59.3858 13.7914 59.1942 13.7095C59.0025 13.6277 58.7979 13.546 58.5803 13.4641C58.4144 13.3986 58.2512 13.3291 58.0906 13.2555C57.9299 13.1819 57.7848 13.0892 57.6553 12.9773C57.5257 12.8656 57.4222 12.7224 57.3446 12.548C57.2669 12.3735 57.228 12.1582 57.228 11.9017C57.228 11.7216 57.2617 11.5391 57.3291 11.3538C57.3963 11.1683 57.4985 11.0006 57.6359 10.8506C57.7731 10.7007 57.9546 10.5806 58.18 10.4905C58.4054 10.4006 58.6761 10.3556 58.9921 10.3556C59.1993 10.3556 59.3794 10.3693 59.5324 10.3964C59.685 10.4239 59.8302 10.466 59.9675 10.5233C60.1048 10.5806 60.2537 10.6501 60.4145 10.7319V11.6153C60.2848 11.5282 60.154 11.4464 60.0218 11.3701C59.8898 11.2938 59.7461 11.2309 59.5906 11.1818C59.4352 11.1329 59.2615 11.1056 59.0699 11.1001C58.8521 11.0947 58.6734 11.122 58.5336 11.1818C58.3938 11.242 58.2875 11.3265 58.215 11.4355C58.1422 11.5446 58.1062 11.6699 58.1062 11.8117C58.1062 12.0027 58.1515 12.154 58.2422 12.2658C58.3328 12.3776 58.461 12.4703 58.6267 12.5439C58.7926 12.6175 58.9843 12.6897 59.202 12.7607C59.3936 12.8261 59.5801 12.8997 59.7616 12.9815C59.943 13.0632 60.1035 13.1629 60.2434 13.2801C60.3833 13.3974 60.496 13.5432 60.5815 13.7178C60.667 13.8924 60.7097 14.1077 60.7097 14.3639C60.7097 14.6475 60.6488 14.9134 60.527 15.1615C60.4053 15.4097 60.2134 15.6113 59.9519 15.7668C59.6903 15.9222 59.3497 15.9999 58.9299 15.9999Z" fill="white"/>
<path id="Path 2049" d="M61.729 10.4538H62.5909V15.91H61.729V10.4538ZM61.7675 9.45587H62.5207V10.1758H61.7675V9.45587Z" fill="white"/>
<path id="Path 2050" d="M68.0169 10.4518L66.1359 13.4716V15.9092H65.2813V13.4636L63.3315 10.4518H64.3808L65.762 12.7207L67.0937 10.4518H68.0169Z" fill="white"/>
<path id="Path 2051" d="M70.5431 10.4518H69.635L67.6128 15.9092H68.4674L68.9749 14.4274H71.0962L71.6076 15.9092H72.508L70.5431 10.4518ZM69.2267 13.6925L70.0318 11.3513L70.8407 13.6925H69.2267Z" fill="white"/>
<path id="Path 2052" d="M74.8401 15.9999C74.5811 15.9999 74.3531 15.9848 74.1561 15.9549C73.9593 15.9248 73.7805 15.8772 73.6198 15.8118C73.4592 15.7463 73.2934 15.6673 73.1226 15.5747V14.6747C73.3245 14.8439 73.5694 14.983 73.857 15.0919C74.1445 15.2012 74.4541 15.2556 74.7857 15.2556C75.1069 15.2556 75.3465 15.1861 75.5046 15.047C75.6626 14.9079 75.7418 14.7156 75.7418 14.4702C75.7418 14.2794 75.6834 14.1253 75.5668 14.0081C75.4503 13.8909 75.2959 13.7914 75.1043 13.7095C74.9126 13.6277 74.708 13.546 74.4905 13.4641C74.3245 13.3986 74.1613 13.3291 74.0008 13.2555C73.84 13.1819 73.6949 13.0892 73.5655 12.9773C73.4359 12.8656 73.3323 12.7224 73.2548 12.548C73.177 12.3735 73.1381 12.1582 73.1381 11.9017C73.1381 11.7216 73.1718 11.5391 73.2392 11.3538C73.3065 11.1683 73.4087 11.0006 73.546 10.8506C73.6833 10.7007 73.8647 10.5806 74.0902 10.4905C74.3156 10.4006 74.5863 10.3556 74.9023 10.3556C75.1094 10.3556 75.2896 10.3693 75.4425 10.3964C75.5952 10.4239 75.7404 10.466 75.8776 10.5233C76.015 10.5806 76.1639 10.6501 76.3246 10.7319V11.6153C76.195 11.5282 76.0642 11.4464 75.932 11.3701C75.7999 11.2938 75.6562 11.2309 75.5008 11.1818C75.3453 11.1329 75.1716 11.1056 74.98 11.1001C74.7623 11.0947 74.5836 11.122 74.4438 11.1818C74.3039 11.242 74.1976 11.3265 74.1252 11.4355C74.0524 11.5446 74.0163 11.6699 74.0163 11.8117C74.0163 12.0027 74.0616 12.154 74.1524 12.2658C74.243 12.3776 74.3711 12.4703 74.537 12.5439C74.7027 12.6175 74.8945 12.6897 75.1122 12.7607C75.3038 12.8261 75.4903 12.8997 75.6718 12.9815C75.8532 13.0632 76.0137 13.1629 76.1535 13.2801C76.2934 13.3974 76.4062 13.5432 76.4917 13.7178C76.5772 13.8924 76.6199 14.1077 76.6199 14.3639C76.6199 14.6475 76.559 14.9134 76.4373 15.1615C76.3155 15.4097 76.1236 15.6113 75.8621 15.7668C75.6005 15.9222 75.2599 15.9999 74.8401 15.9999Z" fill="white"/>
<rect id="Rectangle 587" x="77.6382" y="10.4538" width="0.861892" height="5.45617" fill="white"/>
<path id="Path 2053" d="M15.78 0.019043H11.3586V9.7422L4.92207 3.97612L6.27624 2.30195L9.27082 4.98442V0.019043H0.500488V15.9807H4.92207V6.25754L11.3586 12.0236L10.0044 13.6978L7.00981 11.0153V15.9807H15.78V0.019043Z" fill="white"/>
</g>
</g>
</g>
</svg>
