<svg width="50" height="24" viewBox="0 0 50 24" fill="none" xmlns="http://www.w3.org/2000/svg">
<path d="M36.2427 14.7379C36.097 14.7788 35.9412 14.7966 35.8075 14.864C35.1759 15.1831 34.5444 15.5049 33.9229 15.8471C33.1317 16.2814 32.3392 16.7109 31.4461 16.837C31.2015 16.8718 30.9405 16.8554 30.6985 16.8016C30.5548 16.7695 30.3736 16.6516 30.3121 16.5173C30.1069 16.0701 29.7338 15.978 29.3435 15.9269C28.8197 15.858 28.2888 15.8437 27.7668 15.7646C27.2645 15.6883 26.8306 15.4306 26.4549 15.0604C26.287 14.8954 26.1135 14.7359 25.9361 14.5818C25.5965 14.2852 25.2203 14.2484 24.8414 14.4659C24.4835 14.6711 24.1383 14.905 23.7968 15.1415C23.3319 15.4647 22.8707 15.7967 22.3202 15.9296C22.1561 15.9692 21.9724 16.0087 21.8147 15.9692C21.1071 15.7919 20.5015 16.0728 19.9136 16.428C19.4373 16.7157 18.9685 17.0088 18.4174 17.107C17.7788 17.2209 17.4431 16.8568 17.5723 16.1744C17.5983 16.0373 17.6363 15.9017 17.6496 15.7633C17.6749 15.5069 17.5527 15.3849 17.3278 15.4715C17.0611 15.5738 16.7976 15.6978 16.5531 15.8499C15.8201 16.3032 15.0986 16.7791 14.3676 17.2372C14.194 17.3463 14.0021 17.4233 13.8146 17.5058C13.5871 17.606 13.4028 17.5222 13.2495 17.332C12.8605 16.8493 12.7288 16.2957 12.851 15.6719C12.8593 15.629 12.8732 15.5853 12.8707 15.5431C12.8612 15.3945 12.8453 15.2465 12.832 15.0986C12.6933 15.1292 12.5349 15.1231 12.4196 15.1967C12.0212 15.4504 11.6405 15.736 11.2484 16.0019C10.7808 16.3182 10.3184 16.6455 9.8338 16.9284C9.61969 17.0538 9.35996 17.1179 9.11417 17.1472C8.73346 17.1929 8.47626 16.9618 8.4731 16.5418C8.46993 16.1355 8.54341 15.7285 8.58332 15.3215C8.59663 15.1852 8.60866 15.0488 8.62766 14.8422C8.46423 14.8906 8.335 14.9002 8.23428 14.9622C7.86813 15.1899 7.50705 15.4272 7.15294 15.6753C5.84544 16.5943 4.55189 17.5372 3.23173 18.4344C2.56721 18.8864 1.86722 19.2872 1.08235 19.4672C0.399464 19.6233 0.0238139 19.3111 0.071958 18.5612C0.104265 18.0587 0.226526 17.5638 0.304443 17.0641C0.46978 16.0046 0.630683 14.9445 0.79792 13.8851C0.846697 13.5776 0.911945 13.2728 0.969591 12.9667C0.946786 12.9531 0.923981 12.9402 0.901176 12.9265C0.837195 13.0029 0.770047 13.0765 0.709233 13.1556C0.495752 13.4296 0.286706 13.5217 0.133405 13.4051C-0.0236967 13.2858 -0.0541035 12.9824 0.107433 12.707C0.350687 12.2932 0.621814 11.8984 0.882172 11.4969C2.17446 9.50072 3.47308 7.50864 4.75524 5.5043C4.96872 5.16956 5.08528 4.7646 5.29052 4.42304C5.62056 3.87423 5.97341 3.33974 6.34526 2.82297C6.51376 2.58982 6.63032 2.64026 6.76272 2.90342C6.89321 3.1618 6.87104 3.42496 6.76018 3.66085C6.38073 4.47076 6.00191 5.28205 5.58319 6.06947C4.97885 7.20731 4.33587 8.32197 3.71887 9.45231C3.62512 9.6248 3.58394 9.83069 3.51806 10.0216C3.54467 10.0441 3.5719 10.0666 3.59851 10.0898C3.71697 9.98817 3.85443 9.90431 3.95009 9.78228C4.4575 9.13189 4.95731 8.47537 5.45396 7.81543C6.26354 6.74099 7.06425 5.65905 7.88017 4.59007C8.0379 4.38282 8.24125 4.21238 8.43446 4.0399C8.48703 3.99286 8.60296 3.95945 8.64857 3.99081C8.69988 4.0249 8.73409 4.14489 8.72332 4.21783C8.69165 4.42372 8.66251 4.63916 8.58016 4.82391C8.33183 5.38295 8.06071 5.92971 7.79401 6.4792C7.5989 6.88143 7.39049 7.27685 7.20108 7.68249C7.14597 7.79907 7.13457 7.93951 7.10353 8.06836C7.12696 8.08609 7.15104 8.10313 7.17447 8.12017C7.2847 8.01587 7.41266 7.92656 7.50261 7.80452C7.94161 7.20799 8.35781 6.59101 8.80631 6.00266C9.60765 4.95072 10.4666 3.95809 11.4694 3.12022C11.6101 3.00296 11.7653 2.90342 11.9211 2.81002C11.9889 2.7698 12.0883 2.72685 12.1511 2.75139C12.4589 2.87138 12.6255 2.66481 12.789 2.45415C12.8618 2.36075 12.9024 2.23871 12.9777 2.14872C13.0962 2.00828 13.2166 1.8583 13.3635 1.75808C13.5732 1.61628 13.8462 1.66673 14.0223 1.83921C14.213 2.02669 14.1256 2.23394 14.0603 2.44392C13.9235 2.88024 13.7791 3.3152 13.6657 3.75902C13.6106 3.97513 13.6302 4.2117 13.5922 4.43395C13.5536 4.65961 13.4275 4.78982 13.2159 4.89686C13.0221 4.99503 12.8574 5.21251 12.737 5.41635C12.4108 5.96789 12.146 6.56374 11.8014 7.10096C10.7466 8.74739 9.94529 10.5254 9.33082 12.4057C9.28775 12.5366 9.25671 12.6743 9.23897 12.812C9.20666 13.0581 9.28584 13.1304 9.49616 13.0199C9.6843 12.9211 9.85471 12.7806 10.0283 12.6525C10.2424 12.495 10.4438 12.3163 10.6656 12.1732C10.8379 12.0627 11.0292 12.0702 11.1863 12.2284C11.332 12.3757 11.3332 12.5686 11.2484 12.737C11.0507 13.1269 10.8455 13.5135 10.6174 13.883C10.3336 14.3411 10.02 14.7781 9.72674 15.2301C9.65516 15.3406 9.61208 15.4722 9.59498 15.6481C9.71217 15.6092 9.83697 15.5867 9.94529 15.5288C10.7245 15.1149 11.4941 14.6786 12.2803 14.2798C12.8441 13.9941 13.4281 13.7542 14.0052 13.4992C14.0705 13.4699 14.1478 13.4644 14.2206 13.4624C14.545 13.4508 14.6868 13.6226 14.5925 13.9519C14.5164 14.2171 14.3955 14.4666 14.296 14.7236C14.1807 15.0215 14.0477 15.3133 13.959 15.6201C13.8665 15.9405 14.0192 16.1151 14.3169 16.0176C14.6178 15.9187 14.9143 15.7837 15.1879 15.6174C16.0723 15.0788 16.9408 14.5095 17.8263 13.973C18.0994 13.8073 18.4009 13.6798 18.7031 13.5864C19.1744 13.4406 19.3727 13.6621 19.2168 14.1598C19.1053 14.5136 18.9394 14.847 18.8019 15.192C18.7322 15.3679 18.6619 15.5451 18.6106 15.7278C18.5631 15.8983 18.6575 15.9671 18.7968 15.9153C18.9489 15.8587 19.1009 15.7844 19.2339 15.6869C19.6774 15.3617 20.1043 15.0099 20.5528 14.6922C20.9044 14.4434 21.2655 14.2 21.6462 14.0091C22.0504 13.8067 22.2132 13.9001 22.4704 14.3009C22.5191 14.3773 22.6731 14.44 22.7548 14.4161C23.0348 14.3336 23.3167 14.2375 23.5745 14.0964C24.1313 13.7896 24.671 13.446 25.2241 13.131C25.4236 13.0172 25.6377 12.9238 25.8537 12.8536C26.1933 12.7438 26.4112 12.8413 26.6114 13.1563C26.657 13.2285 26.7039 13.3015 26.7362 13.3812C27.153 14.4134 27.9923 14.7304 28.9286 14.8777C29.6134 14.9854 30.1582 14.7332 30.5484 14.1114C30.9165 13.5244 31.2896 12.9408 31.6538 12.3504C32.8302 10.4415 34.3664 8.91441 36.0552 7.5475C38.0291 5.95016 40.1589 4.61325 42.2658 3.2368C43.2737 2.57823 44.2587 1.88011 45.2596 1.20859C46.0559 0.674097 46.9446 0.391852 47.8499 0.168238C48.3326 0.0489316 48.8204 -0.0771922 49.3195 0.0591579C49.9175 0.222096 50.1614 0.670006 49.889 1.26654C49.6635 1.76217 49.3823 2.26053 49.0218 2.6464C48.0653 3.67107 47.0789 4.66915 46.0565 5.61747C44.386 7.16709 42.7054 8.7058 40.9748 10.1757C39.9562 11.0415 38.8317 11.7628 37.7593 12.5563C37.5458 12.7145 37.3431 12.8952 37.1568 13.0888C36.9801 13.2728 37.0137 13.3724 37.2442 13.4521C37.3057 13.4733 37.3697 13.491 37.4273 13.521C37.7605 13.6976 37.8593 13.9478 37.7162 14.3146C37.4318 15.0454 37.0517 15.7169 36.5772 16.3237C35.6606 17.4956 34.73 18.6566 33.819 19.834C32.924 20.9916 32.0504 22.1683 31.1553 23.3266C30.976 23.5591 30.7543 23.7609 30.5275 23.9409C30.4439 24.007 30.2114 24.0193 30.1835 23.9695C30.1202 23.8543 30.0796 23.6409 30.1386 23.5468C30.5034 22.9694 30.8759 22.3933 31.2883 21.8547C32.6528 20.0692 34.0427 18.3062 35.404 16.518C35.7005 16.1287 35.9247 15.6746 36.1673 15.2404C36.2389 15.1129 36.2617 14.9534 36.3067 14.8081C36.2852 14.785 36.2643 14.7611 36.2427 14.7379ZM31.8147 14.2212C31.9212 14.1939 32.0903 14.1625 32.2518 14.1066C33.7069 13.5987 35.1234 12.9886 36.4815 12.2277C38.9844 10.8254 41.2662 9.06849 43.4124 7.11459C44.9023 5.75723 46.3346 4.32623 47.7694 2.90069C48.2515 2.42142 48.6823 1.8733 48.9578 1.21609C49.0015 1.11246 49.0066 0.942025 48.954 0.856806C48.916 0.79613 48.7386 0.787949 48.6449 0.822718C47.9158 1.09337 47.1581 1.30744 46.474 1.67627C44.9194 2.51414 43.3864 3.4011 41.8737 4.32282C40.105 5.40067 38.3421 6.49352 36.7558 7.88156C34.9422 9.47004 33.2559 11.1853 31.9237 13.2694C31.7907 13.4781 31.6665 13.6955 31.5651 13.9232C31.4758 14.1257 31.548 14.2212 31.8147 14.2212ZM6.92108 10.6917L6.84063 10.6311C6.73421 10.7176 6.61005 10.7872 6.5258 10.8929C6.05893 11.4758 5.57812 12.0484 5.14926 12.662C4.77931 13.1917 4.46827 13.7692 4.1395 14.3309C3.8614 14.8054 3.56684 15.0086 3.16901 14.9077C2.77816 14.8081 2.47916 14.9411 2.23084 15.2431C1.71772 15.8676 1.35158 16.5821 1.13049 17.3811C1.09122 17.5222 1.06778 17.6708 1.05384 17.8174C1.0095 18.3069 1.25402 18.5141 1.65248 18.2844C2.46142 17.8188 3.26214 17.3347 4.04701 16.8234C4.51071 16.5214 4.94528 16.1635 5.37857 15.8096C5.69088 15.554 5.8068 15.1817 5.72128 14.7788C5.53061 13.8769 5.79603 13.0929 6.20146 12.3307C6.4029 11.9523 6.59294 11.5657 6.77412 11.1751C6.8438 11.0251 6.87294 10.8533 6.92108 10.6917ZM11.4998 5.78927L11.4238 5.73609C11.3503 5.82404 11.2724 5.90789 11.204 5.99993C10.1271 7.44592 9.25797 9.03236 8.46043 10.6679C8.15509 11.2944 7.86813 11.9305 7.74777 12.6354C7.7256 12.7636 7.71863 12.8952 7.70469 13.0254C7.73827 13.0383 7.77121 13.0513 7.80478 13.0635C9.11101 10.6829 10.3552 8.26539 11.4998 5.78927ZM34.8611 14.1312C34.8453 14.0978 34.8288 14.0637 34.8123 14.0303C33.7285 14.4884 32.644 14.9452 31.562 15.4081C31.4587 15.4524 31.3498 15.5213 31.282 15.6126C31.2155 15.7012 31.1439 15.8567 31.1749 15.9392C31.2041 16.0183 31.37 16.0912 31.4644 16.0769C31.645 16.0496 31.8306 15.9842 31.9915 15.8894C32.8752 15.3713 33.7519 14.8409 34.6299 14.3112C34.7122 14.2614 34.7845 14.1918 34.8611 14.1312ZM8.27355 8.28857C8.24441 8.26607 8.21591 8.24357 8.18677 8.22107C7.97012 8.49514 7.74587 8.76307 7.54316 9.04872C7.49818 9.11144 7.52859 9.2362 7.52415 9.33301C7.61537 9.31937 7.72496 9.33642 7.79465 9.28733C8.12785 9.05213 8.22604 8.68125 8.27355 8.28857Z" fill="white"/>
</svg>
