<svg xmlns="http://www.w3.org/2000/svg" width="10.79" height="10.79" viewBox="0 0 10.79 10.79">
  <g id="ELEMENTS" transform="translate(0 0)">
    <g id="Group_113" data-name="Group 113" transform="translate(0 0)">
      <path id="Path_2003" data-name="Path 2003" d="M256.311,216.97a.631.631,0,1,0,.631.631A.631.631,0,0,0,256.311,216.97Z" transform="translate(-248.057 -215.038)" fill="#fff"/>
      <path id="Path_2004" data-name="Path 2004" d="M247.522,219.477a2.708,2.708,0,0,0-3.755,3.755,1.937,1.937,0,0,0,.678.678,2.707,2.707,0,0,0,3.755-3.755A1.874,1.874,0,0,0,247.522,219.477Zm-.443,3.57a1.744,1.744,0,0,1-2.446-2.446.93.93,0,0,1,.263-.263,1.744,1.744,0,0,1,2.446,2.446A1.046,1.046,0,0,1,247.079,223.047Z" transform="translate(-240.546 -216.294)" fill="#fff"/>
      <path id="Path_2005" data-name="Path 2005" d="M244.558,222.83h-5.867a2.46,2.46,0,0,1-2.461-2.461V214.5a2.46,2.46,0,0,1,2.461-2.461h5.867a2.46,2.46,0,0,1,2.461,2.461v5.867A2.46,2.46,0,0,1,244.558,222.83Zm-5.863-9.771a1.445,1.445,0,0,0-1.446,1.446v5.867a1.445,1.445,0,0,0,1.446,1.446h5.867a1.445,1.445,0,0,0,1.446-1.446v-5.867a1.445,1.445,0,0,0-1.446-1.446Z" transform="translate(-236.23 -212.04)" fill="#fff"/>
    </g>
  </g>
</svg>
