<?xml version="1.0" encoding="UTF-8"?>
<svg id="Layer_1" xmlns="http://www.w3.org/2000/svg" viewBox="0 0 4.95 4.95">
  <defs>
    <style>
      .cls-1 {
        fill: #967d2e;
        fill-rule: evenodd;
      }
    </style>
  </defs>
  <polyline class="cls-1" points="2.1 2.84 2.22 2.81 2.35 2.78 2.47 3 2.6 2.78 2.84 2.84 2.78 2.6 3 2.47 2.78 2.35 2.84 2.11 2.6 2.17 2.47 1.95 2.35 2.17 2.11 2.11 2.17 2.35 1.95 2.47 2.17 2.6 2.14 2.72 2.1 2.84"/>
  <path class="cls-1" d="M2.68,1.96s.08.01.11-.01c.28-.19.51-.46.66-.8.15-.33.19-.69.14-1.03,0-.04-.03-.07-.07-.09-.04-.02-.08-.01-.11.01-.28.19-.51.46-.66.8-.15.33-.19.69-.14,1.03,0,.04.03.07.07.09"/>
  <path class="cls-1" d="M2.27,2.99s-.08-.01-.11.01c-.28.19-.51.46-.66.8-.15.33-.19.69-.14,1.03,0,.04.03.07.07.09.04.02.08.01.11-.01.28-.19.51-.46.66-.8.15-.33.19-.69.14-1.03,0-.04-.03-.07-.07-.09"/>
  <path class="cls-1" d="M2.15,1.95s.07.03.11.01c.04-.01.06-.04.07-.08.06-.33.04-.69-.1-1.03-.13-.34-.35-.62-.63-.82-.03-.02-.07-.03-.11-.01-.04.01-.06.04-.07.08-.06.33-.04.69.1,1.03.13.34.35.62.63.82"/>
  <path class="cls-1" d="M2.69,2.99s-.06.04-.07.08c-.06.33-.04.69.1,1.03.13.34.35.62.63.82.03.02.07.03.11.01.04-.01.06-.04.07-.08.06-.33.04-.69-.1-1.03-.13-.34-.35-.62-.63-.82-.03-.02-.07-.03-.11-.01"/>
  <path class="cls-1" d="M.84,2.19c.33.15.69.19,1.03.14.04,0,.07-.03.09-.07.02-.04.01-.08-.01-.11-.19-.28-.46-.51-.8-.66-.33-.15-.69-.19-1.03-.14-.04,0-.07.03-.09.07-.02.04-.01.08.01.11.19.28.46.51.8.66"/>
  <path class="cls-1" d="M4.11,2.76c-.33-.15-.69-.19-1.03-.14-.04,0-.07.03-.09.07-.02.04-.01.08.01.11.19.28.46.51.8.66.33.15.69.19,1.03.14.04,0,.07-.03.09-.07.02-.04.01-.08-.01-.11-.19-.28-.46-.51-.8-.66"/>
  <path class="cls-1" d="M1.12,3.43c.34-.13.62-.35.82-.63.02-.03.03-.07.01-.11-.01-.04-.04-.06-.08-.07-.33-.06-.69-.04-1.03.1-.34.13-.62.35-.82.63-.02.03-.03.07-.01.11.01.04.04.06.08.07.33.06.69.04,1.03-.1"/>
  <path class="cls-1" d="M4.94,1.49s-.04-.06-.08-.07c-.33-.06-.69-.04-1.03.1-.34.13-.62.35-.82.63-.02.03-.03.07-.01.11.01.04.04.06.08.07.33.06.69.04,1.03-.1.34-.13.62-.35.82-.63.02-.03.03-.07.01-.11"/>
</svg>