<svg width="35" height="42" viewBox="0 0 35 42" fill="none" xmlns="http://www.w3.org/2000/svg">
<path d="M5.97524 36.525L5.26161 37.2298L6.02067 38.2922H5.6332L5.04785 37.4469L4.79119 37.6962V38.2922H4.47852V36.525H4.79119V37.341C4.82154 37.3039 4.86519 37.2564 4.92214 37.198L5.57957 36.525H5.97524Z" fill="white"/>
<path d="M6.51244 36.7926H6.22656V36.525H6.51244V36.7926ZM6.51244 38.2922H6.22656V37.0124H6.51244V38.2922Z" fill="white"/>
<path d="M7.78013 37.8151H8.05617C8.03837 37.9723 7.9774 38.0968 7.87323 38.1887C7.76888 38.2805 7.6347 38.3273 7.47082 38.329L7.38544 38.4482C7.42637 38.4414 7.45926 38.4377 7.48417 38.4377C7.5466 38.4377 7.597 38.4536 7.63518 38.4854C7.67353 38.5171 7.69264 38.5586 7.69264 38.6099C7.69264 38.6805 7.66552 38.7366 7.61128 38.7782C7.55686 38.8196 7.48333 38.8404 7.39073 38.8404C7.30695 38.8404 7.21965 38.8227 7.12878 38.7874L7.17679 38.6894C7.23745 38.7141 7.29622 38.7265 7.35332 38.7265C7.44595 38.7265 7.49232 38.6937 7.49232 38.6283C7.49232 38.5667 7.45045 38.5356 7.36666 38.5356C7.3416 38.5356 7.31144 38.5418 7.2758 38.5543L7.22765 38.5092L7.36137 38.329C7.19201 38.3009 7.06152 38.2289 6.96974 38.1131C6.87793 37.9974 6.83203 37.8467 6.83203 37.6612C6.83203 37.4564 6.89091 37.2912 7.00856 37.1659C7.12607 37.0405 7.28109 36.9777 7.47354 36.9777C7.6392 36.9777 7.7724 37.0184 7.87323 37.0995C7.97384 37.181 8.03388 37.2967 8.05365 37.4467H7.76683C7.73278 37.2842 7.63278 37.2029 7.46652 37.2029C7.35926 37.2029 7.27435 37.2426 7.21192 37.3221C7.14935 37.4015 7.11806 37.5103 7.11806 37.648C7.11806 37.7894 7.14887 37.9007 7.21047 37.982C7.2721 38.0633 7.35654 38.1037 7.46394 38.1037C7.63709 38.1037 7.74256 38.0074 7.78013 37.8151Z" fill="white"/>
<path d="M8.63744 36.7926H8.35156V36.525H8.63744V36.7926ZM8.63744 38.2922H8.35156V37.0124H8.63744V38.2922Z" fill="white"/>
<path d="M10.1832 37.0129L9.68868 37.4818L10.2286 38.2927H9.88132L9.48836 37.6726L9.31727 37.8317V38.2927H9.03125V36.5255H9.31727V37.5348C9.3635 37.4818 9.39272 37.4492 9.40523 37.4368L9.83429 37.0129H10.1832Z" fill="white"/>
<path d="M12.2692 37.0128L11.8068 38.2926H11.4886L11.0156 37.0128H11.3257L11.5262 37.5904C11.5777 37.7387 11.6204 37.8846 11.6544 38.0276C11.6793 37.918 11.722 37.7714 11.7827 37.5877L11.9751 37.0128H12.2692Z" fill="white"/>
<path d="M12.6794 37.4122H12.4067C12.4406 37.2761 12.5093 37.1698 12.6127 37.0929C12.7159 37.0161 12.8425 36.9777 12.9921 36.9777C13.1828 36.9777 13.3364 37.0382 13.4532 37.1592C13.5699 37.2801 13.6282 37.4395 13.6282 37.6373C13.6282 37.8388 13.5694 38.0039 13.4518 38.133C13.3341 38.2618 13.1836 38.3263 13.0001 38.3263C12.8077 38.3263 12.6576 38.2604 12.5498 38.1288C12.4419 37.9973 12.3889 37.8158 12.3907 37.5843H13.3449C13.3341 37.3194 13.2166 37.1868 12.9921 37.1868C12.8388 37.1868 12.7347 37.262 12.6794 37.4122ZM13.3396 37.7726H12.6742C12.683 37.8768 12.7168 37.9603 12.7756 38.0229C12.8345 38.0857 12.9093 38.1171 13.0001 38.1171C13.1961 38.1171 13.3093 38.0022 13.3396 37.7726Z" fill="white"/>
<path d="M15.4516 36.4824C15.7047 36.4824 15.91 36.568 16.0677 36.7392C16.2255 36.9107 16.3042 37.1341 16.3042 37.4098C16.3042 37.6853 16.2255 37.9083 16.0677 38.0786C15.91 38.2494 15.7038 38.3346 15.4489 38.3346C15.1942 38.3346 14.9879 38.2494 14.8302 38.0786C14.6725 37.9083 14.5938 37.6844 14.5938 37.4072C14.5938 37.1315 14.673 36.9085 14.8316 36.7381C14.9902 36.5675 15.1968 36.4824 15.4516 36.4824ZM15.4516 36.7421C15.2842 36.7421 15.1513 36.8024 15.0534 36.923C14.9554 37.0436 14.9064 37.2057 14.9064 37.4098C14.9064 37.61 14.9558 37.7711 15.0547 37.8925C15.1537 38.0141 15.286 38.0748 15.4516 38.0748C15.6155 38.0748 15.7465 38.0145 15.8445 37.8938C15.9426 37.7733 15.9916 37.611 15.9916 37.4072C15.9916 37.2048 15.9426 37.0436 15.8445 36.923C15.7465 36.8024 15.6155 36.7421 15.4516 36.7421Z" fill="white"/>
<path d="M17.1998 36.9887V37.2591C17.1517 37.2555 17.1178 37.2536 17.0983 37.2536C16.9467 37.2536 16.8398 37.3171 16.7775 37.4439C16.7454 37.5091 16.7294 37.6211 16.7294 37.7797V38.2923H16.4434V37.0125H16.7106V37.267C16.8105 37.0797 16.9565 36.986 17.1491 36.986C17.1668 36.986 17.1838 36.9869 17.1998 36.9887Z" fill="white"/>
<path d="M18.0938 37.0115V37.218H17.8346V37.8911C17.8346 37.997 17.8567 38.057 17.9014 38.0712C17.921 38.0764 17.9495 38.0791 17.9869 38.0791C18.0153 38.0791 18.0511 38.0764 18.0938 38.0712V38.294C18.0243 38.301 17.9629 38.3045 17.9094 38.3045C17.742 38.3045 17.6351 38.2637 17.5887 38.1824C17.562 38.1348 17.5486 38.0165 17.5486 37.8276V37.218H17.332V37.0115H17.5486V36.6272H17.8346V37.0115H18.0938Z" fill="white"/>
<path d="M18.5949 37.4096H18.3276C18.3543 37.1216 18.5467 36.9777 18.9048 36.9777C19.108 36.9777 19.2541 37.0227 19.3432 37.1127C19.4003 37.1711 19.4289 37.2612 19.4289 37.3831C19.4289 37.4324 19.4279 37.4933 19.4262 37.5658C19.4262 37.5781 19.4252 37.6126 19.4234 37.6691L19.4207 37.7221V37.7751V37.8758C19.4189 37.9094 19.4181 37.9279 19.4181 37.9315C19.4181 38.0111 19.4221 38.0599 19.43 38.0785C19.4382 38.0972 19.459 38.1063 19.4929 38.1063C19.5143 38.1063 19.5348 38.1046 19.5544 38.1009V38.2997C19.4759 38.3191 19.4136 38.3289 19.3672 38.3289C19.246 38.3289 19.1775 38.2778 19.1615 38.1753C19.0421 38.2778 18.8897 38.3289 18.7045 38.3289C18.5726 38.3289 18.4674 38.2944 18.3891 38.2254C18.3106 38.1567 18.2715 38.0639 18.2715 37.9473C18.2715 37.7937 18.34 37.6851 18.4772 37.6215C18.5395 37.5914 18.61 37.5729 18.6885 37.5658L18.7419 37.5606L18.7953 37.5527L18.8488 37.5475C18.9841 37.5333 19.0679 37.5172 19.1 37.4995C19.1321 37.482 19.1482 37.4431 19.1482 37.3831C19.1482 37.2523 19.0609 37.1868 18.8862 37.1868C18.7918 37.1868 18.7226 37.2039 18.6791 37.2373C18.6353 37.2707 18.6072 37.3283 18.5949 37.4096ZM19.1482 37.8042V37.6534C19.0942 37.6816 18.9926 37.7055 18.8433 37.7248C18.7373 37.739 18.6631 37.7614 18.6207 37.7923C18.5785 37.8233 18.5575 37.8716 18.5575 37.9368C18.5575 38.0639 18.6365 38.1275 18.7947 38.1275C18.8668 38.1275 18.9328 38.1148 18.9931 38.089C19.0533 38.0635 19.096 38.0303 19.1212 37.9898C19.1392 37.9598 19.1482 37.898 19.1482 37.8042Z" fill="white"/>
<path d="M20.582 36.525H21.3491C21.5308 36.525 21.6618 36.5453 21.7419 36.5857C21.8133 36.6211 21.8702 36.6732 21.913 36.7422C21.9558 36.8112 21.9772 36.8843 21.9772 36.9621C21.9772 37.144 21.8926 37.2704 21.7232 37.341C21.946 37.4027 22.0574 37.5477 22.0574 37.7755C22.0574 37.9751 21.9701 38.1236 21.7953 38.2206C21.7099 38.2683 21.5923 38.2922 21.4427 38.2922H20.582V36.525ZM20.8947 36.7767V37.2589H21.2902C21.3936 37.2589 21.4693 37.2509 21.5175 37.2352C21.6154 37.2034 21.6643 37.1305 21.6643 37.0165C21.6643 36.8987 21.6164 36.825 21.5201 36.7951C21.4809 36.7828 21.4079 36.7767 21.301 36.7767H20.8947ZM20.8947 37.4841V38.0405H21.3331C21.4773 38.0405 21.5762 38.0238 21.6297 37.9902C21.7064 37.9407 21.7446 37.8648 21.7446 37.7622C21.7446 37.6298 21.6886 37.545 21.5762 37.5078C21.5282 37.4922 21.4372 37.4841 21.3037 37.4841H20.8947Z" fill="white"/>
<path d="M22.6767 36.7926H22.3906V36.525H22.6767V36.7926ZM22.6767 38.2922H22.3906V37.0124H22.6767V38.2922Z" fill="white"/>
<path d="M24.0661 37.0128V37.2083L23.4541 37.9299C23.4361 37.951 23.3917 37.9969 23.3204 38.0674H23.4915H24.1062V38.2926H22.9648V38.0784L23.561 37.3781C23.5947 37.3395 23.6438 37.2927 23.708 37.2381H23.5796H23.0158V37.0128H24.0661Z" fill="white"/>
<path d="M24.6286 37.0122V37.2004C24.7409 37.052 24.8843 36.9777 25.0589 36.9777C25.2353 36.9777 25.36 37.0378 25.4332 37.1579C25.4759 37.2286 25.4972 37.3345 25.4972 37.4758V38.292H25.2112V37.5475C25.2112 37.452 25.2032 37.3822 25.1872 37.3381C25.157 37.255 25.0812 37.2136 24.96 37.2136C24.8281 37.2136 24.7372 37.2682 24.6875 37.3778C24.6607 37.436 24.6474 37.5271 24.6474 37.6507V38.292H24.3613V37.0122H24.6286Z" fill="white"/>
<path d="M26.7593 37.8918H27.032C26.9982 38.0278 26.9294 38.1341 26.8262 38.211C26.7227 38.2878 26.5962 38.3263 26.4466 38.3263C26.2559 38.3263 26.1023 38.2657 25.9855 38.1446C25.8688 38.0238 25.8105 37.8644 25.8105 37.6666C25.8105 37.4651 25.8693 37.3 25.9869 37.171C26.1046 37.0422 26.255 36.9777 26.4386 36.9777C26.6311 36.9777 26.7811 37.0435 26.889 37.1751C26.9967 37.3065 27.0497 37.4882 27.048 37.7196H26.0938C26.1046 37.9845 26.2221 38.1171 26.4466 38.1171C26.5999 38.1171 26.7041 38.0419 26.7593 37.8918ZM26.0991 37.5313H26.7646C26.7558 37.4273 26.7219 37.3436 26.6632 37.281C26.6043 37.2183 26.5295 37.1869 26.4386 37.1869C26.2426 37.1869 26.1293 37.3019 26.0991 37.5313Z" fill="white"/>
<path d="M28.346 37.3831H28.0742C28.0564 37.2507 27.9649 37.1844 27.7999 37.1844C27.6436 37.1844 27.5654 37.2338 27.5654 37.3328C27.5654 37.3822 27.5845 37.4176 27.6227 37.4387C27.661 37.4599 27.7511 37.4857 27.8931 37.5156C28.0797 37.5563 28.2097 37.6052 28.2835 37.6626C28.3572 37.72 28.394 37.8018 28.394 37.9078C28.394 38.0366 28.3432 38.1387 28.2418 38.2138C28.1402 38.2888 28.0012 38.3265 27.8248 38.3265C27.4577 38.3265 27.2661 38.178 27.25 37.8813H27.5227C27.5405 38.0385 27.6447 38.1171 27.8354 38.1171C27.9209 38.1171 27.9886 38.1003 28.0386 38.0668C28.0885 38.0332 28.1134 37.9882 28.1134 37.9315C28.1134 37.8821 28.0938 37.8454 28.0546 37.8216C28.0153 37.7977 27.9325 37.7709 27.806 37.7408C27.6652 37.7072 27.5797 37.686 27.5495 37.6773C27.5084 37.6648 27.4701 37.6491 27.4344 37.6295C27.3312 37.5713 27.2795 37.4801 27.2795 37.3567C27.2795 37.2383 27.3263 37.1455 27.4198 37.0783C27.5134 37.0112 27.6412 36.9777 27.8035 36.9777C28.142 36.9777 28.3227 37.1129 28.346 37.3831Z" fill="white"/>
<path d="M28.993 36.7926H28.707V36.525H28.993V36.7926ZM28.993 38.2922H28.707V37.0124H28.993V38.2922Z" fill="white"/>
<path d="M29.654 37.0122V37.2004C29.7663 37.052 29.9096 36.9777 30.0843 36.9777C30.2607 36.9777 30.3854 37.0378 30.4586 37.1579C30.5012 37.2286 30.5226 37.3345 30.5226 37.4758V38.292H30.2366V37.5475C30.2366 37.452 30.2287 37.3822 30.2125 37.3381C30.1824 37.255 30.1066 37.2136 29.9854 37.2136C29.8535 37.2136 29.7626 37.2682 29.7129 37.3778C29.686 37.436 29.6727 37.5271 29.6727 37.6507V38.292H29.3867V37.0122H29.654Z" fill="white"/>
<path d="M1.52373 33.3655L2.20795 35.1329H1.87378L1.70288 34.6638H0.99983L0.823447 35.1329H0.5L1.18956 33.3655H1.52373ZM1.6226 34.428L1.47559 34.0332C1.43287 33.9202 1.3918 33.7964 1.35264 33.6623C1.32759 33.7454 1.28585 33.8673 1.22694 34.0278L1.08011 34.428H1.6226Z" fill="white"/>
<path d="M3.43914 33.8534V34.049L2.82714 34.7705C2.80929 34.7916 2.7647 34.8375 2.69342 34.908H2.86451H3.47927V35.1332H2.33789V34.919L2.93401 34.2187C2.96774 34.1801 3.01682 34.1333 3.08103 34.0787H2.95266H2.3888V33.8534H3.43914Z" fill="white"/>
<path d="M3.92146 34.2532H3.64874C3.6826 34.1171 3.75131 34.0108 3.85467 33.9339C3.95804 33.8571 4.08449 33.8186 4.23409 33.8186C4.4248 33.8186 4.57856 33.8792 4.69523 34.0002C4.81195 34.1211 4.87035 34.2805 4.87035 34.4783C4.87035 34.6797 4.81143 34.8449 4.69378 34.9739C4.57632 35.1027 4.4256 35.1672 4.24215 35.1672C4.04984 35.1672 3.89963 35.1014 3.79177 34.9698C3.68391 34.8384 3.63094 34.6568 3.63286 34.4253H4.5869C4.57632 34.1604 4.45866 34.0278 4.23409 34.0278C4.08084 34.0278 3.97668 34.1029 3.92146 34.2532ZM4.58161 34.6135H3.91617C3.92497 34.7178 3.95884 34.8013 4.01776 34.8638C4.07648 34.9267 4.15128 34.958 4.24215 34.958C4.4381 34.958 4.55126 34.8431 4.58161 34.6135Z" fill="white"/>
<path d="M5.92446 33.8296V34.1C5.87631 34.0965 5.84245 34.0945 5.82287 34.0945C5.67136 34.0945 5.56444 34.158 5.50214 34.2848C5.47006 34.3501 5.45399 34.4621 5.45399 34.6206V35.1333H5.16797V33.8535H5.43522V34.1079C5.53507 33.9206 5.68129 33.8269 5.87374 33.8269C5.8914 33.8269 5.9084 33.8278 5.92446 33.8296Z" fill="white"/>
<path d="M6.43056 33.3655V34.0201C6.53186 33.8858 6.67227 33.8186 6.85175 33.8186C7.02415 33.8186 7.16218 33.8798 7.26615 34.0015C7.37017 34.1234 7.42216 34.285 7.42216 34.4863C7.42216 34.6913 7.36792 34.8561 7.25959 34.9805C7.15108 35.1051 7.00809 35.1675 6.83039 35.1675C6.63841 35.1675 6.49894 35.0976 6.41178 34.9581V35.133H6.14453V33.3655H6.43056ZM6.78337 34.044C6.67279 34.044 6.58516 34.0836 6.52015 34.1632C6.45496 34.2425 6.42255 34.3505 6.42255 34.4863C6.42255 34.6278 6.45463 34.739 6.5187 34.8203C6.58292 34.9016 6.66923 34.9422 6.77807 34.9422C6.88674 34.9422 6.97357 34.9011 7.03858 34.8189C7.10358 34.7368 7.13618 34.6268 7.13618 34.489C7.13618 34.353 7.10452 34.2449 7.04129 34.1646C6.97806 34.0841 6.89203 34.044 6.78337 34.044Z" fill="white"/>
<path d="M7.97575 34.2511H7.7085C7.73515 33.9631 7.9276 33.8191 8.2857 33.8191C8.48888 33.8191 8.63495 33.8641 8.72418 33.9541C8.78118 34.0126 8.80956 34.1026 8.80956 34.2245C8.80956 34.2738 8.80876 34.3348 8.80703 34.4073C8.80703 34.4196 8.80605 34.4541 8.80427 34.5106L8.80155 34.5636V34.6166V34.7173C8.79977 34.7508 8.79897 34.7693 8.79897 34.773C8.79897 34.8525 8.803 34.9014 8.81101 34.92C8.81887 34.9386 8.83991 34.9477 8.87377 34.9477C8.89513 34.9477 8.9155 34.9461 8.93526 34.9424V35.1412C8.85676 35.1606 8.79447 35.1704 8.74811 35.1704C8.6269 35.1704 8.55838 35.1192 8.54232 35.0167C8.42292 35.1192 8.27058 35.1704 8.08539 35.1704C7.95345 35.1704 7.84831 35.1359 7.77 35.0669C7.6915 34.9982 7.65234 34.9054 7.65234 34.7887C7.65234 34.6352 7.72086 34.5265 7.85809 34.463C7.92052 34.4329 7.99082 34.4143 8.06932 34.4073L8.12276 34.4021L8.1762 34.3941L8.22969 34.3889C8.365 34.3747 8.44874 34.3587 8.48087 34.341C8.51295 34.3234 8.52901 34.2845 8.52901 34.2245C8.52901 34.0937 8.44171 34.0283 8.26706 34.0283C8.17269 34.0283 8.10352 34.0453 8.06 34.0787C8.01622 34.1121 7.98811 34.1698 7.97575 34.2511ZM8.52901 34.6457V34.4948C8.47507 34.523 8.37348 34.5469 8.22421 34.5663C8.11812 34.5805 8.04399 34.6029 8.0016 34.6338C7.95941 34.6648 7.93838 34.713 7.93838 34.7783C7.93838 34.9054 8.01748 34.969 8.17559 34.969C8.24763 34.969 8.31362 34.9563 8.37394 34.9305C8.43417 34.905 8.47684 34.8718 8.50203 34.8312C8.52002 34.8013 8.52901 34.7394 8.52901 34.6457Z" fill="white"/>
<path d="M10.3273 33.8534L9.84879 35.1093C9.77217 35.3107 9.71152 35.4387 9.66712 35.4936C9.59757 35.5801 9.49771 35.6233 9.36756 35.6233C9.31412 35.6233 9.24911 35.618 9.17254 35.6074V35.3715C9.23675 35.3822 9.28569 35.3876 9.3196 35.3876C9.38733 35.3876 9.43626 35.3556 9.46657 35.2921C9.50582 35.2108 9.52985 35.1437 9.53865 35.0907L9.04688 33.8534H9.35969L9.61087 34.5422C9.634 34.6058 9.6643 34.7048 9.70173 34.839C9.72313 34.7613 9.75517 34.6563 9.79803 34.5238L10.0304 33.8534H10.3273Z" fill="white"/>
<path d="M11.4227 34.6533H11.7041C11.681 34.8158 11.6172 34.942 11.5129 35.0322C11.4089 35.1222 11.2728 35.1672 11.1054 35.1672C10.9147 35.1672 10.762 35.1073 10.647 34.9872C10.532 34.867 10.4746 34.7073 10.4746 34.5076C10.4746 34.2992 10.5325 34.1322 10.6484 34.0068C10.7642 33.8813 10.9192 33.8186 11.1134 33.8186C11.281 33.8186 11.4155 33.8593 11.5171 33.9405C11.6187 34.0218 11.6782 34.1365 11.6962 34.285H11.4094C11.3789 34.1243 11.2814 34.0439 11.1171 34.0439C11.0063 34.0439 10.9192 34.084 10.8558 34.1645C10.7923 34.2449 10.7606 34.3548 10.7606 34.4943C10.7606 34.6339 10.7909 34.7432 10.8518 34.8228C10.9124 34.9023 10.9956 34.942 11.101 34.942C11.2851 34.942 11.3923 34.8459 11.4227 34.6533Z" fill="white"/>
<path d="M12.2238 34.2511H11.9565C11.9832 33.9631 12.1756 33.8191 12.5337 33.8191C12.7369 33.8191 12.883 33.8641 12.9722 33.9541C13.0292 34.0126 13.0578 34.1026 13.0578 34.2245C13.0578 34.2738 13.0568 34.3348 13.0551 34.4073C13.0551 34.4196 13.0541 34.4541 13.0523 34.5106L13.0496 34.5636V34.6166V34.7173C13.0478 34.7508 13.047 34.7693 13.047 34.773C13.047 34.8525 13.0511 34.9014 13.0591 34.92C13.0671 34.9386 13.088 34.9477 13.1218 34.9477C13.1432 34.9477 13.1637 34.9461 13.1833 34.9424V35.1412C13.1048 35.1606 13.0425 35.1704 12.9962 35.1704C12.8749 35.1704 12.8064 35.1192 12.7904 35.0167C12.671 35.1192 12.5186 35.1704 12.3334 35.1704C12.2015 35.1704 12.0963 35.1359 12.018 35.0669C11.9395 34.9982 11.9004 34.9054 11.9004 34.7887C11.9004 34.6352 11.9689 34.5265 12.1061 34.463C12.1686 34.4329 12.2389 34.4143 12.3174 34.4073L12.3708 34.4021L12.4242 34.3941L12.4777 34.3889C12.6132 34.3747 12.6968 34.3587 12.7289 34.341C12.761 34.3234 12.7771 34.2845 12.7771 34.2245C12.7771 34.0937 12.6898 34.0283 12.5151 34.0283C12.4207 34.0283 12.3516 34.0453 12.3081 34.0787C12.2643 34.1121 12.2362 34.1698 12.2238 34.2511ZM12.7771 34.6457V34.4948C12.7231 34.523 12.6215 34.5469 12.4723 34.5663C12.3662 34.5805 12.292 34.6029 12.2496 34.6338C12.2074 34.6648 12.1864 34.713 12.1864 34.7783C12.1864 34.9054 12.2654 34.969 12.4236 34.969C12.4957 34.969 12.5617 34.9563 12.622 34.9305C12.6822 34.905 12.7249 34.8718 12.7501 34.8312C12.7681 34.8013 12.7771 34.7394 12.7771 34.6457Z" fill="white"/>
<path d="M13.7342 33.8532V34.0414C13.8464 33.8929 13.9899 33.8186 14.1645 33.8186C14.3409 33.8186 14.4656 33.8788 14.5386 33.9989C14.5815 34.0696 14.6028 34.1755 14.6028 34.3168V35.133H14.3168V34.3885C14.3168 34.2929 14.3088 34.2231 14.2927 34.1791C14.2626 34.096 14.1868 34.0546 14.0656 34.0546C13.9337 34.0546 13.8428 34.1092 13.7929 34.2188C13.7663 34.2771 13.753 34.3681 13.753 34.4917V35.133H13.4668V33.8532H13.7342Z" fill="white"/>
<path d="M15.7363 33.3655H16.5808C16.7413 33.3655 16.866 33.392 16.955 33.4451C17.1048 33.5334 17.1796 33.6703 17.1796 33.8557C17.1796 34.0785 17.0815 34.2241 16.8855 34.2928C16.9693 34.3106 17.0343 34.3549 17.0807 34.4254C17.1109 34.4731 17.1315 34.535 17.1422 34.6109C17.1438 34.6268 17.1483 34.6728 17.1555 34.7489L17.1661 34.8572C17.1786 34.9898 17.1992 35.0738 17.2276 35.1089L17.2464 35.1329H16.9097C16.9024 35.1205 16.8941 35.0952 16.8843 35.0574C16.8745 35.0195 16.8677 34.9793 16.8642 34.9368L16.8534 34.7778C16.8446 34.6347 16.8125 34.5367 16.7573 34.4838C16.7019 34.4306 16.604 34.4042 16.4633 34.4042H16.049V35.1329H15.7363V33.3655ZM16.049 33.6252V34.1737H16.4605C16.6086 34.1737 16.7132 34.1525 16.7746 34.1105C16.8361 34.0683 16.8669 33.9961 16.8669 33.8942C16.8669 33.7149 16.7448 33.6252 16.5007 33.6252H16.049Z" fill="white"/>
<path d="M18.4409 34.7332H18.7137C18.6798 34.8693 18.6111 34.9756 18.5079 35.0524C18.4044 35.1293 18.2779 35.1677 18.1283 35.1677C17.9376 35.1677 17.784 35.1072 17.6672 34.9861C17.5504 34.8653 17.4922 34.7059 17.4922 34.5081C17.4922 34.3066 17.5509 34.1415 17.6686 34.0124C17.7863 33.8837 17.9368 33.8191 18.1203 33.8191C18.3127 33.8191 18.4628 33.885 18.5706 34.0166C18.6783 34.148 18.7313 34.3297 18.7297 34.561H17.7755C17.7863 34.826 17.9037 34.9585 18.1283 34.9585C18.2816 34.9585 18.3857 34.8834 18.4409 34.7332ZM17.7808 34.3728H18.4462C18.4374 34.2688 18.4036 34.185 18.3448 34.1225C18.2859 34.0597 18.2111 34.0284 18.1203 34.0284C17.9243 34.0284 17.8111 34.1434 17.7808 34.3728Z" fill="white"/>
<path d="M20.0276 34.224H19.7558C19.7381 34.0917 19.6467 34.0253 19.4815 34.0253C19.3254 34.0253 19.247 34.0747 19.247 34.1737C19.247 34.223 19.2661 34.2586 19.3044 34.2797C19.3426 34.3009 19.4327 34.3266 19.5748 34.3566C19.7613 34.3973 19.8915 34.4462 19.9652 34.5036C20.0388 34.561 20.0757 34.6428 20.0757 34.7487C20.0757 34.8775 20.0249 34.9796 19.9234 35.0548C19.8218 35.1297 19.6828 35.1674 19.5064 35.1674C19.1394 35.1674 18.9477 35.019 18.9316 34.7222H19.2044C19.2222 34.8794 19.3263 34.958 19.5172 34.958C19.6026 34.958 19.6703 34.9412 19.7202 34.9078C19.7701 34.8742 19.795 34.8292 19.795 34.7725C19.795 34.723 19.7754 34.6864 19.7363 34.6626C19.6971 34.6387 19.6141 34.6118 19.4876 34.5817C19.3469 34.5482 19.2613 34.527 19.2311 34.5183C19.1901 34.5058 19.1517 34.4899 19.1161 34.4705C19.0129 34.4123 18.9612 34.3211 18.9612 34.1976C18.9612 34.0793 19.0079 33.9865 19.1015 33.9193C19.195 33.8522 19.3228 33.8186 19.4851 33.8186C19.8236 33.8186 20.0043 33.9538 20.0276 34.224Z" fill="white"/>
<path d="M23.7938 33.3655V34.0201C23.8951 33.8858 24.0356 33.8186 24.215 33.8186C24.3874 33.8186 24.5256 33.8798 24.6294 34.0015C24.7334 34.1234 24.7854 34.285 24.7854 34.4863C24.7854 34.6913 24.7312 34.8561 24.6229 34.9805C24.5145 35.1051 24.3714 35.1675 24.1937 35.1675C24.0017 35.1675 23.8622 35.0976 23.7752 34.9581V35.133H23.5078V33.3655H23.7938ZM24.1467 34.044C24.0362 34.044 23.9484 34.0836 23.8834 34.1632C23.8184 34.2425 23.7858 34.3505 23.7858 34.4863C23.7858 34.6278 23.8179 34.739 23.8821 34.8203C23.9462 34.9016 24.0327 34.9422 24.1414 34.9422C24.25 34.9422 24.3369 34.9011 24.4019 34.8189C24.467 34.7368 24.4995 34.6268 24.4995 34.489C24.4995 34.353 24.4678 34.2449 24.4046 34.1646C24.3414 34.0841 24.2553 34.044 24.1467 34.044Z" fill="white"/>
<path d="M23.1164 33.8534V35.1332H22.8491V34.9424C22.7386 35.0926 22.597 35.1677 22.4243 35.1677C22.2655 35.1677 22.1453 35.1163 22.0633 35.014C22.0081 34.9433 21.9805 34.8302 21.9805 34.6747V33.8534H22.2665V34.5847C22.2665 34.6837 22.2736 34.7551 22.2879 34.7992C22.3164 34.8877 22.393 34.9317 22.5177 34.9317C22.6459 34.9317 22.7369 34.8752 22.7904 34.7623C22.8171 34.7056 22.8304 34.6121 22.8304 34.4813V33.8534H23.1164Z" fill="white"/>
<path d="M20.652 33.8532V34.0226C20.7534 33.8867 20.8937 33.8186 21.0733 33.8186C21.251 33.8186 21.394 33.8801 21.5025 34.0028C21.6108 34.1257 21.6651 34.2885 21.6651 34.4915C21.6651 34.6967 21.6131 34.8604 21.5091 34.9832C21.4051 35.106 21.2661 35.1674 21.0919 35.1674C20.9072 35.1674 20.7668 35.1003 20.6707 34.966V35.6071H20.3848V33.8532H20.652ZM21.0183 34.044C20.9078 34.044 20.8205 34.0835 20.7563 34.1631C20.6921 34.2425 20.6602 34.3521 20.6602 34.4915C20.6602 34.633 20.6926 34.7434 20.7576 34.823C20.8226 34.9025 20.9122 34.9422 21.0263 34.9422C21.1349 34.9422 21.221 34.9025 21.2842 34.823C21.3475 34.7434 21.3791 34.6357 21.3791 34.4997C21.3791 34.3601 21.3465 34.2492 21.2815 34.1671C21.2165 34.085 21.1287 34.044 21.0183 34.044Z" fill="white"/>
<rect x="25.1191" y="33.3655" width="0.552574" height="1.76732" fill="white"/>
<path d="M26.0849 33.6333H25.7988V33.3655H26.0849V33.6333ZM26.0849 35.133H25.7988V33.8532H26.0849V35.133Z" fill="white"/>
<path d="M27.6305 33.8534L27.1359 34.3224L27.6759 35.1332H27.3286L26.9356 34.5131L26.7645 34.6722V35.1332H26.4785V33.366H26.7645V34.3754C26.8108 34.3224 26.84 34.2898 26.8525 34.2774L27.2816 33.8534H27.6305Z" fill="white"/>
<path d="M28.1339 34.2511H27.8667C27.8933 33.9631 28.0858 33.8191 28.4441 33.8191C28.6471 33.8191 28.7932 33.8641 28.8824 33.9541C28.9394 34.0126 28.9679 34.1026 28.9679 34.2245C28.9679 34.2738 28.967 34.3348 28.9652 34.4073C28.9652 34.4196 28.9642 34.4541 28.9625 34.5106L28.9599 34.5636V34.6166V34.7173C28.958 34.7508 28.9572 34.7693 28.9572 34.773C28.9572 34.8525 28.9612 34.9014 28.9692 34.92C28.9773 34.9386 28.9981 34.9477 29.032 34.9477C29.0535 34.9477 29.0739 34.9461 29.0935 34.9424V35.1412C29.015 35.1606 28.9527 35.1704 28.9065 35.1704C28.7851 35.1704 28.7168 35.1192 28.7005 35.0167C28.5811 35.1192 28.4288 35.1704 28.2436 35.1704C28.1117 35.1704 28.0065 35.1359 27.9282 35.0669C27.8497 34.9982 27.8105 34.9054 27.8105 34.7887C27.8105 34.6352 27.879 34.5265 28.0163 34.463C28.0787 34.4329 28.149 34.4143 28.2275 34.4073L28.281 34.4021L28.3344 34.3941L28.3879 34.3889C28.5234 34.3747 28.6069 34.3587 28.6391 34.341C28.6712 34.3234 28.6872 34.2845 28.6872 34.2245C28.6872 34.0937 28.5999 34.0283 28.4253 34.0283C28.3309 34.0283 28.2619 34.0453 28.2182 34.0787C28.1744 34.1121 28.1463 34.1698 28.1339 34.2511ZM28.6872 34.6457V34.4948C28.6333 34.523 28.5317 34.5469 28.3824 34.5663C28.2763 34.5805 28.2022 34.6029 28.16 34.6338C28.1176 34.6648 28.0966 34.713 28.0966 34.7783C28.0966 34.9054 28.1757 34.969 28.3338 34.969C28.4058 34.969 28.472 34.9563 28.5322 34.9305C28.5924 34.905 28.6351 34.8718 28.6603 34.8312C28.6782 34.8013 28.6872 34.7394 28.6872 34.6457Z" fill="white"/>
<path d="M30.3616 34.224H30.0899C30.0721 34.0917 29.9805 34.0253 29.8155 34.0253C29.6594 34.0253 29.581 34.0747 29.581 34.1737C29.581 34.223 29.6001 34.2586 29.6383 34.2797C29.6765 34.3009 29.7667 34.3266 29.9088 34.3566C30.0953 34.3973 30.2253 34.4462 30.2992 34.5036C30.3728 34.561 30.4097 34.6428 30.4097 34.7487C30.4097 34.8775 30.3589 34.9796 30.2574 35.0548C30.1558 35.1297 30.0168 35.1674 29.8404 35.1674C29.4733 35.1674 29.2817 35.019 29.2656 34.7222H29.5383C29.5561 34.8794 29.6603 34.958 29.851 34.958C29.9365 34.958 30.0043 34.9412 30.0542 34.9078C30.1041 34.8742 30.129 34.8292 30.129 34.7725C30.129 34.723 30.1094 34.6864 30.0703 34.6626C30.0309 34.6387 29.9481 34.6118 29.8216 34.5817C29.6809 34.5482 29.5953 34.527 29.5651 34.5183C29.5241 34.5058 29.4857 34.4899 29.4501 34.4705C29.3468 34.4123 29.2952 34.3211 29.2952 34.1976C29.2952 34.0793 29.3419 33.9865 29.4354 33.9193C29.529 33.8522 29.6568 33.8186 29.8191 33.8186C30.1576 33.8186 30.3383 33.9538 30.3616 34.224Z" fill="white"/>
<rect x="30.7207" y="33.8534" width="0.552574" height="1.27975" fill="white"/>
<path d="M31.5857 33.8532V34.0414C31.6981 33.8929 31.8414 33.8186 32.0161 33.8186C32.1925 33.8186 32.3172 33.8788 32.3902 33.9989C32.433 34.0696 32.4544 34.1755 32.4544 34.3168V35.133H32.1684V34.3885C32.1684 34.2929 32.1604 34.2231 32.1443 34.1791C32.1142 34.096 32.0384 34.0546 31.9172 34.0546C31.7853 34.0546 31.6944 34.1092 31.6445 34.2188C31.6178 34.2771 31.6045 34.3681 31.6045 34.4917V35.133H31.3184V33.8532H31.5857Z" fill="white"/>
<rect x="32.7676" y="33.8534" width="0.552574" height="1.27975" fill="white"/>
<path d="M33.6324 33.8532V34.0414C33.7448 33.8929 33.8882 33.8186 34.0628 33.8186C34.2392 33.8186 34.3639 33.8788 34.4369 33.9989C34.4798 34.0696 34.5011 34.1755 34.5011 34.3168V35.133H34.2151V34.3885C34.2151 34.2929 34.2071 34.2231 34.1911 34.1791C34.1609 34.096 34.0851 34.0546 33.9639 34.0546C33.832 34.0546 33.7411 34.1092 33.6914 34.2188C33.6646 34.2771 33.6513 34.3681 33.6513 34.4917V35.133H33.3652V33.8532H33.6324Z" fill="white"/>
<path d="M7.98455 41.4513H7.67188V39.6842H7.98455V41.4513ZM7.97378 39.4509H7.69853V39.1805H7.97378V39.4509Z" fill="white"/>
<path d="M8.66763 40.1718V40.36C8.7798 40.2115 8.92331 40.1372 9.09795 40.1372C9.27434 40.1372 9.39906 40.1974 9.47208 40.3175C9.51493 40.3882 9.5363 40.4941 9.5363 40.6354V41.4515H9.25027V40.707C9.25027 40.6115 9.24226 40.5417 9.22619 40.4977C9.19603 40.4146 9.12026 40.3732 8.99909 40.3732C8.86716 40.3732 8.77629 40.4278 8.72636 40.5374C8.69971 40.5957 8.68642 40.6867 8.68642 40.8103V41.4515H8.40039V40.1718H8.66763Z" fill="white"/>
<path d="M11.0738 40.1715L10.5793 40.6404L11.1193 41.4512H10.7717L10.3789 40.8311L10.2078 40.9903V41.4512H9.92188V39.6841H10.2078V40.6934C10.2541 40.6404 10.2833 40.6078 10.2957 40.5954L10.7247 40.1715H11.0738Z" fill="white"/>
<path d="M11.6394 39.9517H11.3535V39.6841H11.6394V39.9517ZM11.6394 41.4514H11.3535V40.1717H11.6394V41.4514Z" fill="white"/>
<path d="M13.0159 40.5426H12.7432C12.7254 40.4103 12.6337 40.3439 12.4679 40.3439C12.3111 40.3439 12.2328 40.3935 12.2328 40.4923C12.2328 40.5417 12.2518 40.5772 12.2902 40.5983C12.3284 40.6195 12.419 40.6452 12.5615 40.6752C12.7485 40.7159 12.8791 40.7648 12.953 40.8222C13.0269 40.8796 13.064 40.9614 13.064 41.0674C13.064 41.1961 13.0132 41.2988 12.9117 41.3747C12.8242 41.4364 12.7103 41.4727 12.5695 41.4832L12.4813 41.6078C12.5223 41.6008 12.5544 41.5973 12.5775 41.5973C12.6398 41.5973 12.6907 41.6132 12.7299 41.645C12.769 41.6767 12.7886 41.7182 12.7886 41.7694C12.7886 41.8401 12.7619 41.8963 12.7085 41.9378C12.6551 41.9791 12.5811 42 12.4867 42C12.4029 42 12.3156 41.9824 12.2247 41.947L12.2702 41.849C12.3326 41.8737 12.3922 41.8859 12.4493 41.8859C12.5418 41.8859 12.5881 41.8533 12.5881 41.7879C12.5881 41.7261 12.5462 41.6951 12.4626 41.6951C12.4376 41.6951 12.4074 41.7013 12.3717 41.7137L12.3236 41.6687L12.4573 41.4861C12.1134 41.4754 11.9342 41.3271 11.9199 41.0408H12.1927C12.2104 41.198 12.3146 41.2767 12.5053 41.2767C12.5908 41.2767 12.6586 41.2598 12.7085 41.2264C12.7584 41.1928 12.7833 41.1478 12.7833 41.0911C12.7833 41.0418 12.7637 41.0051 12.7246 40.9812C12.6852 40.9573 12.6024 40.9304 12.4759 40.9003C12.3352 40.8667 12.2496 40.8456 12.2194 40.8369C12.1784 40.8244 12.14 40.8087 12.1044 40.7891C12.0011 40.7309 11.9495 40.6397 11.9495 40.5162C11.9495 40.3978 11.9962 40.305 12.0898 40.2379C12.1833 40.1708 12.3111 40.1372 12.4732 40.1372C12.8119 40.1372 12.9926 40.2724 13.0159 40.5426Z" fill="white"/>
<path d="M13.6027 40.5692H13.3355C13.3621 40.2812 13.5546 40.1372 13.9127 40.1372C14.1158 40.1372 14.2619 40.1822 14.351 40.2722C14.4081 40.3307 14.4365 40.4207 14.4365 40.5426C14.4365 40.5921 14.4357 40.6528 14.434 40.7254C14.434 40.7377 14.433 40.7722 14.4312 40.8286L14.4285 40.8817V40.9347V41.0354C14.4267 41.069 14.4259 41.0874 14.4259 41.0911C14.4259 41.1706 14.43 41.2195 14.4378 41.2381C14.446 41.2567 14.4669 41.2658 14.5007 41.2658C14.5221 41.2658 14.5426 41.2641 14.5622 41.2605V41.4593C14.4837 41.4787 14.4214 41.4885 14.3751 41.4885C14.2539 41.4885 14.1853 41.4373 14.1693 41.3348C14.0499 41.4373 13.8975 41.4885 13.7123 41.4885C13.5804 41.4885 13.4753 41.454 13.397 41.3849C13.3185 41.3162 13.2793 41.2235 13.2793 41.1068C13.2793 40.9533 13.3478 40.8446 13.485 40.7811C13.5473 40.751 13.6178 40.7324 13.6963 40.7254L13.7497 40.7202L13.8032 40.7122L13.8566 40.707C13.992 40.6928 14.0757 40.6767 14.1078 40.6591C14.1399 40.6415 14.156 40.6025 14.156 40.5426C14.156 40.4118 14.0687 40.3464 13.894 40.3464C13.7995 40.3464 13.7305 40.3634 13.6868 40.3969C13.6432 40.4302 13.6151 40.4879 13.6027 40.5692ZM14.156 40.9638V40.8129C14.102 40.8411 14.0004 40.8649 13.8512 40.8844C13.7451 40.8985 13.6709 40.921 13.6286 40.9519C13.5863 40.9828 13.5653 41.0311 13.5653 41.0963C13.5653 41.2235 13.6443 41.2871 13.8025 41.2871C13.8746 41.2871 13.9406 41.2744 14.0009 41.2486C14.0611 41.2231 14.1038 41.1899 14.129 41.1493C14.1468 41.1194 14.156 41.0575 14.156 40.9638Z" fill="white"/>
<path d="M15.452 39.6816V39.9017C15.403 39.8964 15.3627 39.8936 15.3314 39.8936C15.2773 39.8936 15.2398 39.9052 15.2188 39.9281C15.1979 39.951 15.1873 39.9908 15.1873 40.0473V40.1719H15.4279V40.3786H15.1873V41.4517H14.9013V40.3786H14.6875V40.1719H14.9013V40.0952C14.9013 39.9467 14.9272 39.8441 14.9788 39.7876C15.0483 39.7118 15.1552 39.6737 15.2997 39.6737C15.3371 39.6737 15.3878 39.6764 15.452 39.6816Z" fill="white"/>
<rect x="15.6973" y="40.1714" width="0.552574" height="1.27975" fill="white"/>
<path d="M17.9729 39.6841L18.6572 41.4514H18.323L18.1521 40.9823H17.449L17.2727 41.4514H16.9492L17.6389 39.6841H17.9729ZM18.0718 40.7465L17.9248 40.3518C17.8821 40.2388 17.841 40.115 17.8019 39.9808C17.777 40.0639 17.7351 40.1858 17.6763 40.3463L17.5293 40.7465H18.0718Z" fill="white"/>
<path d="M20.0697 40.1718V41.3031C20.0697 41.4886 20.0412 41.6262 19.9842 41.7164C19.8844 41.8737 19.7054 41.9523 19.4469 41.9523C19.0959 41.9523 18.9027 41.8215 18.8671 41.5601H19.1556C19.1825 41.6873 19.2821 41.751 19.4552 41.751C19.5744 41.751 19.661 41.7208 19.7144 41.6608C19.7678 41.6008 19.7945 41.5053 19.7945 41.3747V41.2236C19.7054 41.3667 19.5691 41.4383 19.3855 41.4383C19.2146 41.4383 19.0781 41.3804 18.9767 41.2647C18.8751 41.1491 18.8242 40.9941 18.8242 40.7996C18.8242 40.6001 18.8772 40.4397 18.9833 40.3188C19.0894 40.1979 19.2306 40.1372 19.4069 40.1372C19.5744 40.1372 19.7063 40.2087 19.8025 40.3519V40.1718H20.0697ZM19.4457 40.3625C19.342 40.3625 19.26 40.4009 19.2001 40.4779C19.1402 40.5546 19.1102 40.6583 19.1102 40.7891C19.1102 40.9199 19.1402 41.0231 19.2001 41.0991C19.26 41.175 19.342 41.213 19.4457 41.213C19.5529 41.213 19.638 41.1746 19.7006 41.0978C19.7632 41.0209 19.7945 40.9163 19.7945 40.7837C19.7945 40.6513 19.7637 40.5479 19.7018 40.4738C19.6402 40.3994 19.5548 40.3625 19.4457 40.3625Z" fill="white"/>
<path d="M21.3374 41.0513H21.6101C21.5763 41.1873 21.5076 41.2936 21.4043 41.3705C21.3008 41.4474 21.1743 41.4858 21.0248 41.4858C20.8341 41.4858 20.6805 41.4252 20.5636 41.3041C20.4469 41.1834 20.3887 41.024 20.3887 40.8262C20.3887 40.6247 20.4474 40.4595 20.565 40.3305C20.6827 40.2017 20.8331 40.1372 21.0167 40.1372C21.2092 40.1372 21.3592 40.2031 21.4671 40.3347C21.5748 40.4661 21.6278 40.6478 21.6261 40.8791H20.672C20.6827 41.1441 20.8002 41.2766 21.0248 41.2766C21.178 41.2766 21.2822 41.2015 21.3374 41.0513ZM20.6773 40.6909H21.3427C21.3339 40.5868 21.3 40.5031 21.2413 40.4406C21.1824 40.3778 21.1076 40.3464 21.0167 40.3464C20.8208 40.3464 20.7074 40.4615 20.6773 40.6909Z" fill="white"/>
<path d="M22.2069 40.1718V40.36C22.319 40.2115 22.4625 40.1372 22.6372 40.1372C22.8135 40.1372 22.9383 40.1974 23.0113 40.3175C23.0541 40.3882 23.0755 40.4941 23.0755 40.6354V41.4515H22.7895V40.707C22.7895 40.6115 22.7814 40.5417 22.7654 40.4977C22.735 40.4146 22.6594 40.3732 22.5383 40.3732C22.4063 40.3732 22.3155 40.4278 22.2656 40.5374C22.239 40.5957 22.2255 40.6867 22.2255 40.8103V41.4515H21.9395V40.1718H22.2069Z" fill="white"/>
<path d="M24.0508 40.172V40.3787H23.7916V41.0516C23.7916 41.1576 23.8137 41.2177 23.8584 41.2319C23.878 41.237 23.9065 41.2398 23.944 41.2398C23.9723 41.2398 24.008 41.237 24.0508 41.2319V41.4545C23.9813 41.4615 23.9199 41.465 23.8664 41.465C23.699 41.465 23.5919 41.4244 23.5457 41.3431C23.519 41.2955 23.5056 41.177 23.5056 40.9881V40.3787H23.2891V40.172H23.5056V39.7877H23.7916V40.172H24.0508Z" fill="white"/>
<rect x="24.3477" y="39.6841" width="0.552574" height="1.76713" fill="white"/>
<path d="M25.3153 39.9517H25.0293V39.6841H25.3153V39.9517ZM25.3153 41.4514H25.0293V40.1717H25.3153V41.4514Z" fill="white"/>
<path d="M26.8173 40.1714L26.339 41.4273C26.2623 41.6287 26.2018 41.7566 26.1572 41.8116C26.0877 41.8981 25.9878 41.9413 25.8578 41.9413C25.8044 41.9413 25.7394 41.936 25.6628 41.9254V41.6897C25.7268 41.7002 25.7758 41.7056 25.8097 41.7056C25.8774 41.7056 25.9263 41.6736 25.9567 41.6101C25.9959 41.5288 26.0199 41.4617 26.0289 41.4087L25.5371 40.1714H25.8498L26.1011 40.8604C26.1243 40.9238 26.1546 41.0228 26.192 41.157C26.2133 41.0793 26.2455 40.9743 26.2881 40.8417L26.5207 40.1714H26.8173Z" fill="white"/>
<path d="M27.329 39.9517H27.043V39.6841H27.329V39.9517ZM27.329 41.4514H27.043V40.1717H27.329V41.4514Z" fill="white"/>
<path fill-rule="evenodd" clip-rule="evenodd" d="M25.5188 21.9992C25.3983 21.9992 25.3002 22.0961 25.3002 22.2156C25.297 26.4922 21.7866 29.9692 17.4733 29.969H17.4672C13.1515 29.9659 9.64302 26.4825 9.6462 22.2041C9.64989 17.1963 12.866 13.4015 16.3406 10.0468L16.6154 9.7819L17.0573 9.6623L17.4972 10.4249L17.9373 9.6623L18.7941 9.89329L18.5609 9.04412L19.3302 8.60795L18.5609 8.1717L18.7941 7.32532L17.9373 7.55641L17.4972 6.7937L17.0573 7.55641L16.2035 7.32532L16.4366 8.1717L15.6673 8.60795L16.4366 9.04412L16.3225 9.4599L16.0361 9.73598L16.0356 9.73658C12.4925 13.1573 9.21302 17.0356 9.20899 22.2037C9.20561 26.7212 12.9101 30.399 17.4669 30.4024H17.4733C22.027 30.4022 25.7338 26.7312 25.7373 22.2161C25.7373 22.0963 25.6395 21.9992 25.5188 21.9992Z" fill="white"/>
<path fill-rule="evenodd" clip-rule="evenodd" d="M18.229 6.80171C18.3561 6.85645 18.4932 6.84485 18.6086 6.76638C19.5935 6.09936 20.4093 5.15725 20.9268 3.99506C21.4414 2.82985 21.5871 1.59908 21.417 0.428299C21.3966 0.291934 21.3144 0.183427 21.1873 0.128686C21.0602 0.073945 20.9229 0.0855525 20.8075 0.164019C19.8228 0.831034 19.007 1.77032 18.4924 2.93552C17.9749 4.09767 17.8292 5.32844 17.9993 6.50224C18.0197 6.63846 18.1019 6.74697 18.229 6.80171Z" fill="white"/>
<path fill-rule="evenodd" clip-rule="evenodd" d="M16.7693 10.4173C16.6422 10.3625 16.5051 10.3741 16.3897 10.4526C15.4048 11.1196 14.5892 12.0589 14.0744 13.2241C13.5569 14.3862 13.4112 15.6169 13.5814 16.7907C13.6017 16.927 13.6839 17.0355 13.811 17.0903C13.9381 17.145 14.0754 17.1334 14.1908 17.055C15.1755 16.3879 15.9913 15.4458 16.5088 14.2836C17.0234 13.1184 17.1693 11.8877 16.999 10.7167C16.9786 10.5805 16.8964 10.472 16.7693 10.4173Z" fill="white"/>
<path fill-rule="evenodd" clip-rule="evenodd" d="M16.3501 6.76916C16.4617 6.85125 16.5974 6.87038 16.7261 6.81991C16.855 6.76949 16.9438 6.66525 16.9695 6.52889C17.19 5.36688 17.095 4.12877 16.6318 2.94416C16.1647 1.75968 15.39 0.787153 14.4343 0.0786297C14.3227 -0.00345875 14.1872 -0.0227272 14.0584 0.0276959C13.9294 0.0781654 13.8406 0.18254 13.8151 0.318905C13.5944 1.48091 13.6875 2.71693 14.1547 3.90159C14.618 5.08602 15.3925 6.05855 16.3501 6.76916Z" fill="white"/>
<path fill-rule="evenodd" clip-rule="evenodd" d="M18.2731 10.4004C18.1442 10.4508 18.0555 10.5552 18.0298 10.6916C17.8093 11.8535 17.9024 13.0895 18.3696 14.2741C18.8327 15.4587 19.6074 16.4311 20.565 17.1419C20.6766 17.2238 20.8122 17.243 20.9411 17.1927C21.07 17.1423 21.1587 17.0378 21.1843 16.9015C21.4049 15.7395 21.3098 14.5015 20.8467 13.317C20.3795 12.1322 19.6047 11.1598 18.6492 10.4512C18.5375 10.3692 18.402 10.35 18.2731 10.4004Z" fill="white"/>
<path fill-rule="evenodd" clip-rule="evenodd" d="M11.7755 7.62581C12.9479 8.13882 14.1894 8.28326 15.3735 8.11462C15.5107 8.09443 15.6205 8.01294 15.6755 7.88693C15.7307 7.76106 15.719 7.62502 15.6399 7.51061C14.9671 6.53428 14.0167 5.72547 12.8443 5.21251C11.6689 4.70238 10.4276 4.5579 9.24647 4.72657C9.10905 4.74677 8.9994 4.82821 8.94418 4.95427C8.88915 5.08028 8.90072 5.21632 8.98001 5.33072C9.65267 6.30692 10.6001 7.11568 11.7755 7.62581Z" fill="white"/>
<path fill-rule="evenodd" clip-rule="evenodd" d="M23.2233 9.59313C22.0479 9.083 20.8066 8.93851 19.6254 9.10719C19.4881 9.12738 19.3784 9.20887 19.3232 9.33488C19.268 9.46089 19.2797 9.59694 19.3588 9.71134C20.0317 10.6875 20.9791 11.4963 22.1545 12.0065C23.3268 12.5194 24.5684 12.6639 25.7524 12.4952C25.8898 12.475 25.9993 12.3936 26.0545 12.2675C26.1097 12.1417 26.098 12.0056 26.0189 11.8912C25.346 10.9149 24.3957 10.1061 23.2233 9.59313Z" fill="white"/>
<path fill-rule="evenodd" clip-rule="evenodd" d="M12.75 11.9263C13.9448 11.4673 14.9258 10.6993 15.6428 9.7499C15.7255 9.63921 15.7449 9.5049 15.694 9.37711C15.6431 9.24939 15.5378 9.1614 15.4003 9.13591C14.2281 8.91727 12.9793 9.01148 11.7844 9.47058C10.5894 9.9339 9.60854 10.7018 8.89368 11.6491C8.81083 11.7598 8.79158 11.8942 8.84244 12.022C8.89335 12.1496 8.99845 12.2378 9.13601 12.263C10.3082 12.4819 11.555 12.3895 12.75 11.9263Z" fill="white"/>
<path fill-rule="evenodd" clip-rule="evenodd" d="M26.1588 5.19967C26.108 5.07189 26.0026 4.98391 25.8651 4.9586C24.6931 4.73983 23.444 4.83417 22.2492 5.29322C21.0543 5.75641 20.0732 6.52446 19.3585 7.47168C19.2758 7.58227 19.2564 7.71673 19.3072 7.84451C19.358 7.97229 19.4635 8.06027 19.601 8.08572C20.7731 8.30436 22.0199 8.21205 23.2148 7.74886C24.4098 7.28981 25.3906 6.52176 26.1076 5.5725C26.1903 5.46191 26.2097 5.32744 26.1588 5.19967Z" fill="white"/>
<path d="M11.0938 23.9496V21.249H11.4385V22.5944L13.0311 21.249H13.484L12.3618 22.2086L13.6551 23.9496H13.2374L12.1127 22.4406L11.4385 22.99V23.9496H11.0938Z" fill="white"/>
<path d="M15.1456 24.0203C14.7296 24.0203 14.3862 23.8872 14.1153 23.621C13.8444 23.3548 13.709 23.0176 13.709 22.6089C13.709 22.1987 13.8448 21.8605 14.1166 21.5944C14.3883 21.3283 14.7313 21.1952 15.1456 21.1952C15.5616 21.1952 15.9063 21.3287 16.1797 21.5956C16.4531 21.8626 16.5898 22.2004 16.5898 22.6089C16.5898 23.0176 16.4536 23.3548 16.181 23.621C15.9084 23.8872 15.5633 24.0203 15.1456 24.0203ZM15.1456 23.7052C15.4576 23.7052 15.7159 23.6019 15.9206 23.3952C16.1252 23.1885 16.2275 22.9263 16.2275 22.6089C16.2275 22.2899 16.1256 22.027 15.9218 21.8202C15.718 21.6135 15.4593 21.5101 15.1456 21.5101C14.8337 21.5101 14.5753 21.6139 14.3707 21.8215C14.1661 22.029 14.0638 22.2915 14.0638 22.6089C14.0638 22.9263 14.1661 23.1885 14.3707 23.3952C14.5753 23.6019 14.8337 23.7052 15.1456 23.7052Z" fill="white"/>
<path d="M17.1953 23.9496V21.2539H18.8383C19.1117 21.2539 19.3184 21.3105 19.4585 21.4236C19.5986 21.5368 19.6686 21.704 19.6686 21.9254C19.6686 22.0328 19.6468 22.1289 19.6032 22.2135C19.5596 22.2982 19.4975 22.3666 19.417 22.4186C19.5645 22.5016 19.6762 22.6034 19.7516 22.7238C19.8272 22.8443 19.8649 22.9826 19.8649 23.1389C19.8649 23.388 19.7806 23.5854 19.612 23.731C19.4434 23.8767 19.2148 23.9496 18.9264 23.9496H17.1953ZM17.54 22.3185H18.8685C19.0145 22.3185 19.126 22.2864 19.2032 22.222C19.2802 22.1578 19.3189 22.0654 19.3189 21.9449C19.3189 21.8179 19.2815 21.7227 19.2069 21.6592C19.1322 21.5957 19.0194 21.564 18.8685 21.564H17.54V22.3185ZM17.54 23.6395H18.9943C19.152 23.6395 19.2761 23.5943 19.3667 23.5039C19.4573 23.4136 19.5025 23.2903 19.5025 23.134C19.5025 22.9794 19.4573 22.8565 19.3667 22.7653C19.2761 22.6742 19.152 22.6286 18.9943 22.6286H17.54V23.6395Z" fill="white"/>
<path d="M20.4902 20.5335C20.4902 20.4668 20.515 20.4094 20.5644 20.3614C20.6139 20.3133 20.673 20.2893 20.7418 20.2893C20.8106 20.2893 20.8689 20.3129 20.9167 20.3601C20.9645 20.4074 20.9884 20.4651 20.9884 20.5335C20.9884 20.6019 20.9645 20.6589 20.9167 20.7044C20.8689 20.75 20.8106 20.7728 20.7418 20.7728C20.673 20.7728 20.6139 20.7492 20.5644 20.702C20.515 20.6548 20.4902 20.5986 20.4902 20.5335ZM20.5657 21.2392H20.9154V23.9495H20.5657V21.2392Z" fill="white"/>
<path d="M21.332 23.9496L22.6932 21.2539H22.98L24.3563 23.9496H23.9814L23.604 23.2243H22.0692L21.7019 23.9496H21.332ZM22.2277 22.9094H23.4505L22.8366 21.7154L22.2277 22.9094Z" fill="white"/>
</svg>
