<svg width="24" height="50" viewBox="0 0 24 50" fill="none" xmlns="http://www.w3.org/2000/svg">
<path d="M3.43018 34.375V28.6939H4.13309V31.5241L7.38195 28.6939H8.30586L6.01652 30.7147L8.65439 34.3772H7.80432L5.51073 31.2029L4.13522 32.359V34.3798L3.43018 34.375Z" fill="white"/>
<path d="M11.4793 34.4798C11.0901 34.492 10.7025 34.4238 10.3409 34.2793C9.97925 34.1348 9.65128 33.9172 9.37747 33.6401C8.84407 33.0584 8.54834 32.2975 8.54883 31.5079C8.54932 30.7183 8.84599 29.9577 9.38011 29.3767C9.94767 28.8366 10.7009 28.5354 11.484 28.5354C12.2672 28.5354 13.0204 28.8366 13.588 29.3767C14.1253 29.9557 14.4241 30.7166 14.4246 31.5068C14.4251 32.2971 14.1272 33.0583 13.5906 33.638C13.3148 33.9152 12.9851 34.1328 12.6218 34.2773C12.2585 34.4217 11.8694 34.4899 11.4787 34.4777M11.4787 33.8151C11.7732 33.8235 12.0661 33.7697 12.3384 33.6573C12.6108 33.5449 12.8564 33.3763 13.0593 33.1626C13.4623 32.7051 13.6849 32.1164 13.6854 31.5065C13.6859 30.8967 13.4642 30.3076 13.062 29.8495C12.6418 29.4306 12.0729 29.1954 11.4798 29.1954C10.8867 29.1954 10.3178 29.4306 9.89759 29.8495C9.49421 30.3063 9.27158 30.895 9.27158 31.5047C9.27158 32.1144 9.49421 32.7031 9.89759 33.1599C10.1006 33.3736 10.3462 33.5421 10.6185 33.6545C10.8908 33.7669 11.1837 33.8207 11.4782 33.8124" fill="white"/>
<path d="M15.125 34.3586V28.6875H18.4759C18.9262 28.6553 19.3737 28.7815 19.7409 29.0444C19.8879 29.176 20.0029 29.3395 20.0771 29.5225C20.1514 29.7055 20.1828 29.903 20.1691 30.1C20.1727 30.3097 20.127 30.5174 20.0358 30.7062C19.9495 30.8811 19.8184 31.0299 19.6559 31.1375C19.9339 31.2906 20.1688 31.5115 20.3386 31.7799C20.4952 32.0438 20.575 32.3462 20.5692 32.6531C20.5802 32.886 20.5398 33.1184 20.4507 33.3338C20.3616 33.5491 20.2261 33.7422 20.0538 33.8991C19.6616 34.2221 19.1626 34.3861 18.6555 34.3586H15.125ZM15.8279 30.9269H18.5375C18.782 30.9437 19.0244 30.8718 19.2202 30.7243C19.3009 30.6508 19.364 30.56 19.4048 30.4587C19.4457 30.3575 19.4632 30.2483 19.4561 30.1393C19.4645 30.0284 19.4484 29.917 19.4089 29.8131C19.3694 29.7091 19.3075 29.6152 19.2277 29.5379C19.0292 29.3898 18.7838 29.3187 18.537 29.3379H15.8274L15.8279 30.9269ZM15.8279 33.706H18.7941C18.9335 33.7137 19.0729 33.6922 19.2036 33.6432C19.3343 33.5941 19.4534 33.5185 19.5533 33.421C19.7331 33.2021 19.8313 32.9276 19.8313 32.6443C19.8313 32.361 19.7331 32.0865 19.5533 31.8677C19.4538 31.7695 19.3348 31.6932 19.2041 31.6436C19.0733 31.5941 18.9337 31.5724 18.7941 31.5799H15.8269L15.8279 33.706Z" fill="white"/>
<path fill-rule="evenodd" clip-rule="evenodd" d="M23.0796 30.6855C22.9995 30.6855 22.9228 30.7173 22.8662 30.7739C22.8096 30.8306 22.7778 30.9074 22.7778 30.9875C22.7724 33.8559 21.6311 36.6051 19.6041 38.6326C17.577 40.6601 14.8295 41.8004 11.9638 41.8036H11.9559C9.08885 41.7982 6.34108 40.6547 4.31529 38.624C2.28951 36.5933 1.15113 33.8413 1.14987 30.9716C1.15519 23.9854 5.59893 18.6914 10.3997 14.0122L10.7785 13.6431L11.389 13.4761L11.9968 14.5397L12.6046 13.4761L13.7883 13.7984L13.4658 12.6136L14.5284 12.0052L13.4658 11.3963L13.7883 10.2157L12.6046 10.538L11.9968 9.4744L11.389 10.538L10.2095 10.2157L10.5315 11.3963L9.46887 12.0052L10.5315 12.6136L10.3721 13.1932L9.97624 13.5782C5.08037 18.3505 0.549502 23.7599 0.544189 30.9678C0.54531 33.9979 1.74721 36.9038 3.88618 39.048C6.02515 41.1921 8.92652 42.3995 11.9537 42.4051H11.9622C14.9874 42.4017 17.8879 41.1983 20.0283 39.0584C22.1687 36.9185 23.3744 34.0166 23.3813 30.9886C23.3813 30.9084 23.3495 30.8315 23.293 30.7748C23.2364 30.7181 23.1596 30.6861 23.0796 30.686" fill="white"/>
<path fill-rule="evenodd" clip-rule="evenodd" d="M13.0071 9.48556C13.0913 9.52375 13.1841 9.53927 13.2761 9.5306C13.3682 9.52193 13.4564 9.48935 13.532 9.4361C14.9391 8.47217 16.0483 7.13293 16.7338 5.57021C17.4193 4.00748 17.6537 2.28378 17.4104 0.594516C17.3973 0.503441 17.3611 0.417241 17.3054 0.344045C17.2497 0.270849 17.1762 0.213074 17.092 0.176188C17.0077 0.139303 16.9155 0.124518 16.824 0.13323C16.7325 0.141943 16.6447 0.17387 16.5689 0.225987C15.1638 1.1917 14.0561 2.53112 13.3708 4.09324C12.6855 5.65535 12.4499 7.37803 12.6904 9.06703C12.7028 9.15839 12.7387 9.24495 12.7946 9.31823C12.8505 9.39151 12.9244 9.44898 13.0092 9.48502" fill="white"/>
<path fill-rule="evenodd" clip-rule="evenodd" d="M10.9889 14.5285C10.9046 14.4903 10.8119 14.4748 10.7198 14.4835C10.6278 14.4922 10.5396 14.5248 10.4639 14.578C9.05875 15.5438 7.95108 16.8833 7.2658 18.4455C6.58053 20.0077 6.3449 21.7305 6.58549 23.4196C6.59868 23.5106 6.63483 23.5969 6.69056 23.6701C6.74628 23.7432 6.81973 23.801 6.90396 23.8379C6.98819 23.8748 7.08043 23.8896 7.17196 23.8809C7.26349 23.8722 7.35128 23.8402 7.42705 23.7881C8.83419 22.8243 9.94341 21.4852 10.6289 19.9225C11.3144 18.3599 11.5488 16.6363 11.3055 14.9471C11.2931 14.8557 11.2572 14.7692 11.2013 14.6959C11.1455 14.6226 11.0715 14.5651 10.9867 14.5291" fill="white"/>
<path fill-rule="evenodd" clip-rule="evenodd" d="M10.4101 9.43982C10.4838 9.49488 10.5703 9.53023 10.6614 9.54255C10.7525 9.55486 10.8452 9.54372 10.9308 9.51019C11.0164 9.47665 11.0921 9.42184 11.1506 9.35091C11.2092 9.27997 11.2488 9.19527 11.2655 9.10479C11.5795 7.42741 11.4178 5.69554 10.7988 4.10542C10.1798 2.5153 9.12822 1.1305 7.76322 0.107931C7.68957 0.0527224 7.60305 0.0172552 7.51186 0.00489325C7.42068 -0.00746872 7.32785 0.00368563 7.24218 0.0372945C7.15651 0.0709033 7.08083 0.125853 7.02232 0.196939C6.96381 0.268026 6.92439 0.35289 6.90783 0.44349C6.59592 2.12098 6.75856 3.85233 7.3774 5.44222C7.99624 7.03211 9.04665 8.41727 10.4101 9.44141" fill="white"/>
<path fill-rule="evenodd" clip-rule="evenodd" d="M13.0655 14.5051C12.9791 14.5377 12.9026 14.5922 12.8436 14.6634C12.7846 14.7345 12.7452 14.8198 12.7292 14.9109C12.4172 16.5885 12.5798 18.32 13.1988 19.91C13.8177 21.5001 14.8683 22.8853 16.232 23.9094C16.3057 23.9644 16.3922 23.9998 16.4834 24.012C16.5745 24.0243 16.6673 24.0131 16.7529 23.9795C16.8385 23.946 16.9142 23.8911 16.9727 23.8201C17.0312 23.7491 17.0707 23.6643 17.0874 23.5738C17.4017 21.8962 17.2402 20.1641 16.6212 18.5738C16.0022 16.9834 14.9504 15.5984 13.5851 14.5759C13.5122 14.5198 13.4259 14.4837 13.3347 14.4713C13.2436 14.4589 13.1508 14.4706 13.0655 14.5051Z" fill="white"/>
<path fill-rule="evenodd" clip-rule="evenodd" d="M4.09095 10.6348C5.65081 11.3255 7.37368 11.562 9.06174 11.3171C9.15282 11.3039 9.23903 11.2677 9.31223 11.2119C9.38543 11.1561 9.44319 11.0825 9.48006 10.9981C9.51692 10.9137 9.53165 10.8213 9.52288 10.7296C9.51411 10.6379 9.48212 10.55 9.42992 10.4742C8.4669 9.0657 7.12891 7.95547 5.56765 7.26932C4.00639 6.58317 2.28431 6.34856 0.596629 6.59208C0.505189 6.60396 0.418479 6.63969 0.345186 6.69569C0.271892 6.75169 0.214584 6.826 0.179027 6.91115C0.14097 6.99539 0.125515 7.08811 0.134179 7.18015C0.142844 7.27219 0.175339 7.36039 0.228446 7.43603C1.18938 8.84578 2.52815 9.95559 4.09095 10.638" fill="white"/>
<path fill-rule="evenodd" clip-rule="evenodd" d="M19.9066 13.3794C18.3457 12.6925 16.6236 12.4576 14.9359 12.7013C14.8449 12.7146 14.7587 12.7509 14.6856 12.8067C14.6125 12.8625 14.5548 12.9361 14.518 13.0205C14.4811 13.1048 14.4664 13.1971 14.4751 13.2888C14.4838 13.3804 14.5156 13.4683 14.5677 13.5442C15.5325 14.9509 16.8708 16.0598 18.4317 16.7457C19.9926 17.4317 21.7139 17.6674 23.4015 17.4263C23.4925 17.4131 23.5786 17.3769 23.6517 17.3211C23.7249 17.2653 23.7826 17.1918 23.8195 17.1075C23.8563 17.0232 23.8711 16.9309 23.8624 16.8393C23.8537 16.7477 23.8217 16.6598 23.7697 16.5839C22.8068 15.175 21.4687 14.0642 19.9072 13.3777" fill="white"/>
<path fill-rule="evenodd" clip-rule="evenodd" d="M5.43571 16.6339C7.02653 16.0181 8.41166 14.9659 9.4321 13.5979C9.48724 13.5241 9.52264 13.4375 9.53498 13.3462C9.54732 13.2549 9.53619 13.162 9.50262 13.0762C9.46905 12.9904 9.41416 12.9146 9.34315 12.856C9.27215 12.7974 9.18737 12.7578 9.09685 12.7412C7.42087 12.4265 5.69035 12.5882 4.10147 13.2078C2.5126 13.8274 1.12894 14.8802 0.107367 16.2468C0.052381 16.3206 0.0170914 16.4072 0.00483051 16.4985C-0.00743041 16.5897 0.00374209 16.6826 0.0372905 16.7683C0.070839 16.854 0.125658 16.9298 0.196575 16.9884C0.267492 17.0471 0.352159 17.0867 0.442603 17.1035C2.1183 17.4204 3.84935 17.2577 5.43676 16.6339" fill="white"/>
<path fill-rule="evenodd" clip-rule="evenodd" d="M23.9613 7.25097C23.9288 7.16436 23.8742 7.08775 23.803 7.02872C23.7318 6.96968 23.6465 6.93026 23.5554 6.91434C21.8794 6.59975 20.1489 6.76141 18.5601 7.38101C16.9712 8.00061 15.5875 9.05336 14.5659 10.4199C14.5109 10.4937 14.4756 10.5803 14.4634 10.6715C14.4511 10.7627 14.4622 10.8556 14.4957 10.9413C14.5292 11.027 14.5839 11.1028 14.6548 11.1615C14.7256 11.2201 14.8102 11.2598 14.9006 11.2766C16.5766 11.5887 18.3064 11.4258 19.8948 10.8064C21.4833 10.187 22.8673 9.13572 23.8907 7.77107C23.9467 7.69806 23.9827 7.61166 23.9951 7.52042C24.0075 7.42919 23.9959 7.3363 23.9613 7.25097Z" fill="white"/>
<path d="M4.05713 49.9613V46.226H4.63624V48.0043H4.6596L6.21896 46.226H6.90698L5.42786 47.8799L7.03131 49.9608H6.31247L5.01929 48.2782L4.63676 48.7153V49.9603L4.05713 49.9613Z" fill="white"/>
<path d="M7.929 46.058H7.36743V49.9613H7.929V46.058Z" fill="white"/>
<path d="M8.40193 49.1562C8.40193 48.6643 8.78235 48.3798 9.47516 48.3357L10.2328 48.2915V48.074C10.2328 47.7549 10.0203 47.5768 9.64303 47.5768C9.51491 47.5635 9.38628 47.5967 9.28051 47.6703C9.17474 47.7438 9.09883 47.8529 9.06659 47.9778H8.54166C8.57625 47.7156 8.71288 47.4776 8.92181 47.3157C9.13075 47.1538 9.3951 47.0809 9.65738 47.1131C10.3428 47.1131 10.7848 47.4758 10.7848 48.032V49.9603H10.2493V49.4918H10.2365C10.148 49.6476 10.0186 49.7763 9.86228 49.8638C9.70599 49.9514 9.52876 49.9945 9.34976 49.9885C9.23158 50.0023 9.11182 49.9912 8.99821 49.9558C8.8846 49.9204 8.77967 49.8615 8.69023 49.783C8.60079 49.7044 8.52881 49.6079 8.47896 49.4998C8.42912 49.3916 8.40252 49.2742 8.40088 49.1552M10.2317 48.9042V48.684L9.54899 48.7308C9.16646 48.7542 8.96458 48.8962 8.96458 49.1451C8.96458 49.3939 9.17391 49.5412 9.49588 49.5412C9.58623 49.5497 9.67735 49.5397 9.76371 49.5118C9.85008 49.4839 9.9299 49.4388 9.99831 49.3791C10.0667 49.3194 10.1223 49.2465 10.1617 49.1646C10.2011 49.0828 10.2235 48.9938 10.2275 48.9031" fill="white"/>
<path d="M12.3919 47.1163C13.0072 47.1163 13.4545 47.463 13.4652 47.9522H12.937C12.9137 47.7039 12.699 47.5486 12.3787 47.5486C12.0583 47.5486 11.8474 47.6959 11.8474 47.9209C11.8474 48.0916 11.9871 48.208 12.2846 48.2809L12.75 48.392C13.3164 48.5292 13.5257 48.7334 13.5257 49.1477C13.5257 49.6497 13.0476 49.9986 12.3696 49.9986C11.7156 49.9986 11.2682 49.6593 11.2268 49.152H11.7804C11.8245 49.421 12.0418 49.5689 12.3983 49.5689C12.7548 49.5689 12.9673 49.4237 12.9673 49.1966C12.9673 49.0179 12.8563 48.9249 12.5614 48.8499L12.0599 48.7255C11.553 48.601 11.3023 48.3426 11.3023 47.9544C11.3023 47.4598 11.7443 47.121 12.3909 47.121" fill="white"/>
<path d="M14.7083 46.5185V47.1503H15.2481V47.5927H14.7104V49.1637C14.7104 49.4072 14.8167 49.521 15.0542 49.521C15.1181 49.5202 15.1819 49.5159 15.2454 49.5082V49.9507C15.1414 49.9708 15.0357 49.9804 14.9298 49.9794C14.3688 49.9794 14.1515 49.7667 14.1515 49.2211V47.5933H13.7637V47.1508H14.1515V46.519L14.7083 46.5185Z" fill="white"/>
<path d="M18.0551 49.1381C17.9906 49.402 17.8333 49.6338 17.612 49.7911C17.3908 49.9484 17.1203 50.0208 16.8501 49.9948C16.6654 50.0023 16.4812 49.9695 16.3103 49.8988C16.1394 49.8281 15.9859 49.7211 15.8603 49.5853C15.7347 49.4495 15.64 49.288 15.5828 49.112C15.5256 48.936 15.5071 48.7497 15.5288 48.5659C15.5068 48.3829 15.5241 48.1972 15.5794 48.0214C15.6348 47.8455 15.7269 47.6835 15.8497 47.5462C15.9726 47.4088 16.1232 47.2992 16.2917 47.2247C16.4602 47.1502 16.6426 47.1125 16.8267 47.1141C17.0043 47.1095 17.1808 47.1434 17.3441 47.2133C17.5074 47.2833 17.6536 47.3876 17.7729 47.5194C17.8922 47.6511 17.9817 47.807 18.0353 47.9765C18.0888 48.146 18.1052 48.3251 18.0833 48.5015V48.6983H16.0946V48.7318C16.0856 48.8366 16.0989 48.9422 16.1337 49.0415C16.1684 49.1408 16.2238 49.2316 16.2961 49.3079C16.3684 49.3842 16.4561 49.4443 16.5533 49.4843C16.6506 49.5242 16.7552 49.5431 16.8602 49.5396C16.9987 49.5526 17.1376 49.5206 17.2564 49.4482C17.3752 49.3759 17.4675 49.2671 17.5196 49.1381H18.0551ZM16.0973 48.2995H17.5222C17.528 48.2049 17.5141 48.1101 17.4814 48.0212C17.4487 47.9322 17.398 47.851 17.3324 47.7826C17.2668 47.7143 17.1878 47.6603 17.1003 47.624C17.0128 47.5877 16.9187 47.57 16.8241 47.572C16.7286 47.5718 16.634 47.5904 16.5457 47.6269C16.4574 47.6634 16.3772 47.717 16.3097 47.7846C16.2421 47.8522 16.1886 47.9325 16.1522 48.0208C16.1157 48.1092 16.0971 48.2039 16.0973 48.2995Z" fill="white"/>
<path d="M18.5332 47.1503H19.0687V47.6241H19.0789C19.1176 47.4757 19.206 47.3449 19.3292 47.2536C19.4524 47.1623 19.6031 47.1159 19.7562 47.1221C19.819 47.1215 19.8816 47.1285 19.9427 47.1428V47.6683C19.8629 47.6446 19.78 47.6325 19.6967 47.6321C19.6125 47.6289 19.5285 47.644 19.4506 47.6764C19.3727 47.7087 19.3028 47.7576 19.2455 47.8196C19.1883 47.8816 19.1451 47.9553 19.119 48.0355C19.0929 48.1158 19.0845 48.2008 19.0943 48.2846V49.9619H18.5332V47.1503Z" fill="white"/>
</svg>
