<svg width="53" height="38" viewBox="0 0 53 38" fill="none" xmlns="http://www.w3.org/2000/svg">
<path d="M37.636 31.9009L37.1634 30.7583L36.7111 31.9009C36.8317 31.9053 36.9884 31.9075 37.1814 31.9075C37.3684 31.9075 37.5198 31.9053 37.636 31.9009ZM39.0359 33.074L39.0163 33.0963C38.6891 33.0873 38.4923 33.083 38.4245 33.083C38.154 33.083 37.9021 33.0873 37.6692 33.0963L37.6496 33.074V32.937L37.6714 32.9125L37.8637 32.9021C37.9442 32.8976 37.9851 32.8694 37.9851 32.8172C37.9851 32.7867 37.9646 32.7181 37.9232 32.6117L37.7446 32.1517C37.541 32.1487 37.3338 32.1472 37.1211 32.1472C37.0065 32.1472 36.8361 32.1487 36.6093 32.1517L36.5121 32.4174C36.4381 32.62 36.4012 32.7465 36.4012 32.7971C36.4012 32.8521 36.4357 32.8849 36.5051 32.8953C36.5437 32.9014 36.6182 32.9072 36.7306 32.9125L36.7524 32.9348V33.074L36.7306 33.0963C36.4585 33.0873 36.2827 33.083 36.2051 33.083C36.145 33.083 35.9949 33.0873 35.7566 33.0963L35.7348 33.0762V32.9348L35.759 32.9125C35.9104 32.9041 36.0039 32.8745 36.0378 32.8231C36.0726 32.7725 36.2029 32.4696 36.4283 31.9141L37.0043 30.4902C37.0472 30.3794 37.1121 30.2133 37.1988 29.9907H37.5124L38.6831 32.7099C38.7283 32.8134 38.7698 32.8714 38.8067 32.8843C38.8551 32.9021 38.925 32.911 39.0163 32.911L39.0359 32.9348V33.074ZM35.5576 30.1084C35.3255 30.421 35.0706 30.8036 34.7941 31.2577C34.6371 31.5138 34.5513 31.6768 34.5354 31.7483C34.5264 31.7862 34.5219 31.8405 34.5219 31.912V32.1279C34.5219 32.5537 34.5354 32.7903 34.5618 32.8387C34.5739 32.8589 34.5905 32.8722 34.6122 32.8783C34.6491 32.8878 34.7397 32.8976 34.8845 32.9065L34.9063 32.928V33.074L34.8845 33.0963C34.7382 33.0873 34.5112 33.083 34.2038 33.083C33.8886 33.083 33.6625 33.0873 33.5238 33.0963L33.5042 33.0762V32.928L33.526 32.9065C33.67 32.8976 33.7603 32.8878 33.7974 32.8783C33.82 32.8722 33.8367 32.8589 33.8486 32.8387C33.8752 32.7903 33.8879 32.5537 33.8879 32.1279V31.8703C33.8879 31.8152 33.7725 31.5942 33.5411 31.207C33.3059 30.8133 33.1181 30.5461 32.9779 30.4046C32.91 30.3368 32.8649 30.2975 32.8415 30.2885C32.8175 30.2789 32.7624 30.2744 32.6756 30.2744L32.6515 30.2497V30.1277L32.6733 30.1038C33.033 30.034 33.2628 29.9847 33.3646 29.9557C33.4414 29.9923 33.5093 30.0391 33.5698 30.0972C33.6948 30.2177 33.8629 30.4873 34.0733 30.9042L34.3628 31.4758C34.4495 31.3373 34.6152 31.0596 34.8596 30.6428L35.1054 30.2088C35.1317 30.1604 35.1679 30.0942 35.2131 30.0101H35.5358L35.5576 30.0317V30.1084ZM32.0204 29.3274C32.0204 29.416 31.9888 29.4913 31.9263 29.5531C31.8637 29.6148 31.7875 29.646 31.6979 29.646C31.6096 29.646 31.5344 29.6148 31.4717 29.5531C31.4091 29.4913 31.3775 29.416 31.3775 29.3274C31.3775 29.2389 31.4091 29.1629 31.4725 29.0997C31.5356 29.0364 31.6112 29.0045 31.6979 29.0045C31.7847 29.0045 31.8599 29.0357 31.924 29.0974C31.988 29.1593 32.0204 29.2359 32.0204 29.3274ZM32.3997 33.074L32.3794 33.0963C32.2323 33.0873 32.0046 33.083 31.6971 33.083C31.3909 33.083 31.1641 33.0873 31.0171 33.0963L30.9969 33.074V32.928L31.0193 32.9065C31.1693 32.8976 31.2554 32.89 31.2772 32.8843C31.3201 32.873 31.3451 32.8463 31.3525 32.8039C31.3713 32.6988 31.3813 32.4741 31.3813 32.1279V30.9741C31.3813 30.6279 31.3713 30.4024 31.3525 30.2981C31.3451 30.2557 31.3201 30.229 31.2772 30.217C31.2554 30.2119 31.1693 30.2043 31.0193 30.1954L30.9969 30.1739V30.0258L31.0193 30.0056C31.1604 30.0145 31.3872 30.0189 31.6994 30.0189C32.0099 30.0189 32.2362 30.0145 32.377 30.0056L32.3997 30.0258V30.1739L32.377 30.1954C32.227 30.2043 32.141 30.2119 32.1193 30.217C32.0764 30.229 32.0515 30.2557 32.0438 30.2981C32.0249 30.4024 32.0152 30.6279 32.0152 30.9741V32.1279C32.0152 32.4741 32.0249 32.6988 32.0438 32.8039C32.0515 32.8463 32.0764 32.873 32.1193 32.8843C32.141 32.89 32.227 32.8976 32.377 32.9065L32.3997 32.928V33.074ZM30.16 31.982L30.1382 32.0058C30.0469 32.0274 29.9935 32.0579 29.9792 32.0958C29.964 32.1346 29.9564 32.282 29.9564 32.5381C29.9564 32.6615 29.9625 32.7837 29.9745 32.9041C29.483 33.0873 29.0368 33.179 28.6364 33.179C28.1087 33.179 27.6821 33.033 27.3564 32.7419C27.03 32.4503 26.8671 32.0527 26.8671 31.5495C26.8671 30.8945 27.1552 30.4271 27.7303 30.1479C27.994 30.0197 28.3288 29.9557 28.7352 29.9557C28.9712 29.9557 29.2094 29.9811 29.4514 30.0317C29.6496 30.0742 29.8064 30.1218 29.9217 30.1761L29.9413 30.2148C29.9029 30.3428 29.8713 30.5654 29.8464 30.8825L29.8223 30.9042H29.6896L29.6677 30.8825C29.6677 30.855 29.6647 30.7976 29.6587 30.7112C29.6526 30.625 29.6452 30.5639 29.6367 30.5288C29.572 30.4418 29.4613 30.3681 29.3051 30.3072C29.1378 30.2431 28.9561 30.2111 28.7614 30.2111C28.2407 30.2111 27.8811 30.4187 27.6821 30.8341C27.5908 31.0261 27.5448 31.2487 27.5448 31.5017C27.5448 31.9061 27.6543 32.241 27.8721 32.5075C28.099 32.7837 28.3937 32.9214 28.7578 32.9214C28.9499 32.9214 29.137 32.8804 29.3164 32.7993C29.3263 32.6974 29.3315 32.5581 29.3315 32.3809C29.3315 32.2365 29.3263 32.1494 29.3164 32.1189C29.3075 32.0958 29.2794 32.0788 29.2319 32.069C29.1928 32.0601 29.0684 32.049 28.8589 32.0362L28.8347 32.0139V31.8771L28.8589 31.8554C29.073 31.8607 29.296 31.8629 29.5304 31.8614C29.6661 31.8599 29.8682 31.8577 30.1382 31.8554L30.16 31.8771V31.982ZM25.2788 31.5844C25.2788 31.1631 25.1936 30.8282 25.0216 30.5802C24.8497 30.3323 24.5988 30.2088 24.2678 30.2088C23.8298 30.2088 23.5404 30.4024 23.397 30.7909C23.3241 30.9898 23.2871 31.2131 23.2871 31.4601C23.2871 31.9098 23.3708 32.2641 23.5389 32.5246C23.7123 32.7934 23.9723 32.928 24.3183 32.928C24.7382 32.928 25.0202 32.7241 25.1642 32.3155C25.2411 32.0988 25.2788 31.8554 25.2788 31.5844ZM25.9595 31.4713C25.9595 32.008 25.8012 32.4286 25.4844 32.7338C25.1769 33.0309 24.7563 33.179 24.2233 33.179C23.7198 33.179 23.3247 33.039 23.0376 32.7591C22.7503 32.4792 22.6064 32.0899 22.6064 31.5913C22.6064 30.8921 22.8769 30.4076 23.4174 30.1388C23.6632 30.0169 23.9655 29.9557 24.3251 29.9557C24.8385 29.9557 25.2388 30.0882 25.5245 30.3547C25.814 30.625 25.9595 30.9972 25.9595 31.4713ZM21.7893 32.3542C21.7568 32.567 21.741 32.8068 21.741 33.074L21.7183 33.0963L20.1134 33.083C19.845 33.083 19.6557 33.0873 19.5458 33.0963L19.5232 33.074V33.013L19.5343 32.9868C19.643 32.9184 19.7025 32.8759 19.7109 32.8581C19.7244 32.8321 19.7327 32.7354 19.7357 32.5686L19.7417 32.0794V30.9741C19.7417 30.6279 19.7327 30.4024 19.7131 30.2981C19.7056 30.2557 19.6807 30.229 19.6385 30.217C19.6158 30.2119 19.5299 30.2043 19.3799 30.1954L19.3581 30.1739V30.0258L19.3799 30.0056C19.5314 30.0145 19.7537 30.0189 20.0471 30.0189C20.3501 30.0189 20.5808 30.0145 20.7383 30.0056L20.7602 30.0258V30.1761L20.7383 30.1954C20.5875 30.2043 20.5017 30.2119 20.4798 30.217C20.4366 30.229 20.4119 30.2557 20.4043 30.2981C20.3856 30.4024 20.3757 30.6279 20.3757 30.9741V32.2782C20.3757 32.4689 20.3795 32.6534 20.387 32.8321H20.6871C21.1176 32.8321 21.3806 32.8157 21.4778 32.7822C21.4945 32.7761 21.5058 32.7681 21.5133 32.7576C21.5276 32.7376 21.5419 32.6943 21.5556 32.6273L21.6083 32.3564L21.6301 32.3325H21.7652L21.7893 32.3542ZM17.8865 31.5844C17.8865 31.1631 17.8013 30.8282 17.6294 30.5802C17.4576 30.3323 17.2066 30.2088 16.8756 30.2088C16.4376 30.2088 16.1482 30.4024 16.0049 30.7909C15.9318 30.9898 15.8947 31.2131 15.8947 31.4601C15.8947 31.9098 15.9784 32.2641 16.1465 32.5246C16.3199 32.7934 16.58 32.928 16.9261 32.928C17.3459 32.928 17.628 32.7241 17.7719 32.3155C17.8487 32.0988 17.8865 31.8554 17.8865 31.5844ZM18.5671 31.4713C18.5671 32.008 18.409 32.4286 18.0922 32.7338C17.7846 33.0309 17.364 33.179 16.831 33.179C16.3275 33.179 15.9324 33.039 15.6452 32.7591C15.358 32.4792 15.2141 32.0899 15.2141 31.5913C15.2141 30.8921 15.4847 30.4076 16.0251 30.1388C16.271 30.0169 16.5733 29.9557 16.9328 29.9557C17.4462 29.9557 17.8464 30.0882 18.1321 30.3547C18.4217 30.625 18.5671 30.9972 18.5671 31.4713ZM14.4194 30.1739L14.3947 30.1954C14.2447 30.2043 14.1586 30.2119 14.1367 30.217C14.0938 30.229 14.0689 30.2557 14.0615 30.2981C14.0425 30.4024 14.0327 30.6279 14.0327 30.9741V31.8591C14.0327 32.512 14.0425 32.9377 14.0615 33.135L14.0327 33.1551C13.8662 33.1277 13.7402 33.1075 13.6551 33.0963C13.2608 32.6586 12.5869 31.8599 11.634 30.7016V32.1279C11.634 32.4741 11.6439 32.6988 11.6626 32.8039C11.6701 32.8463 11.695 32.873 11.738 32.8843C11.7599 32.89 11.8466 32.8976 11.9965 32.9065L12.0184 32.928V33.0762L11.9965 33.0963C11.827 33.0873 11.6695 33.083 11.524 33.083C11.3544 33.083 11.1848 33.0873 11.0135 33.0963L10.9918 33.0762V32.928L11.0135 32.9065C11.1635 32.8976 11.2502 32.89 11.2722 32.8843C11.3151 32.873 11.34 32.8463 11.3467 32.8039C11.3663 32.6988 11.3762 32.4741 11.3762 32.1279V30.9741C11.3762 30.6279 11.3663 30.4024 11.3467 30.2981C11.34 30.2557 11.3151 30.229 11.2722 30.217C11.2502 30.2119 11.1635 30.2043 11.0135 30.1954L10.9918 30.1739V30.0258L11.0135 30.0056C11.1538 30.0145 11.2865 30.0189 11.4131 30.0189C11.612 30.0189 11.7773 30.0145 11.9084 30.0056C12.4383 30.7039 13.0612 31.452 13.7764 32.25V30.9741C13.7764 30.6279 13.7668 30.4024 13.7478 30.2981C13.7402 30.2557 13.7154 30.229 13.6732 30.217C13.6506 30.2119 13.5647 30.2043 13.4146 30.1954L13.392 30.1739V30.0258L13.4146 30.0056C13.5789 30.0145 13.7357 30.0189 13.8849 30.0189C14.075 30.0189 14.2453 30.0145 14.3969 30.0056L14.4194 30.0258V30.1739ZM10.2741 33.0673L10.2514 33.0896L9.80135 33.083C9.72752 33.0814 9.59857 33.0838 9.41459 33.0896C9.37035 33.0352 9.29851 32.917 9.19827 32.7338L8.73842 31.8941L8.56434 32.1405C8.34344 32.4532 8.13911 32.7697 7.95062 33.0896C7.88285 33.0852 7.81501 33.083 7.7471 33.083C7.61002 33.083 7.51037 33.0852 7.44726 33.0896L7.42448 33.0673V32.928L7.44726 32.9041C7.56777 32.8953 7.64013 32.8827 7.66572 32.8671C7.70944 32.8395 7.80969 32.7212 7.96578 32.5112L8.25519 32.1257C8.26665 32.1109 8.38487 31.9538 8.60873 31.6544L8.44065 31.362L8.17078 30.9018C7.98006 30.5766 7.8338 30.3838 7.73349 30.3243C7.70035 30.3041 7.66498 30.2938 7.62807 30.2938C7.5987 30.2938 7.55268 30.2959 7.49076 30.3003L7.46221 30.2781L7.4449 30.1628L7.4645 30.13C7.67172 30.0882 7.93944 30.0295 8.26584 29.9557C8.35928 30.0153 8.45501 30.1225 8.55295 30.2781C8.6006 30.354 8.67443 30.4835 8.77385 30.6666L9.02331 31.1243L9.31065 30.7098C9.54819 30.3673 9.70192 30.1336 9.77264 30.0101C9.83309 30.0161 9.89249 30.0189 9.95145 30.0189C10.0502 30.0189 10.1504 30.0161 10.2514 30.0101L10.2741 30.0317V30.1761L10.2514 30.1978C10.1504 30.1991 10.0826 30.2103 10.0494 30.2305C10.0163 30.2505 9.95219 30.3197 9.85639 30.4373C9.76066 30.555 9.63482 30.7187 9.47873 30.9279C9.39202 31.0447 9.28579 31.1891 9.16062 31.362C9.2346 31.4959 9.3392 31.6842 9.47651 31.9269L9.75911 32.4072C9.91528 32.6713 10.0133 32.8209 10.054 32.8551C10.0947 32.8894 10.1601 32.9065 10.2514 32.9065L10.2741 32.928V33.0673ZM6.72885 32.3542C6.69637 32.567 6.68047 32.8068 6.68047 33.074L6.65783 33.0963L5.05286 33.083C4.78461 33.083 4.5953 33.0873 4.48529 33.0963L4.46265 33.074V33.013L4.4739 32.9868C4.58257 32.9184 4.64198 32.8759 4.65041 32.8581C4.66395 32.8306 4.67224 32.7338 4.67527 32.5686L4.68119 32.0794V30.9741C4.68119 30.6279 4.67224 30.4024 4.65263 30.2981C4.64509 30.2557 4.62023 30.229 4.57799 30.217C4.55535 30.2119 4.46946 30.2043 4.31943 30.1954L4.29761 30.1739V30.0258L4.31943 30.0056C4.46783 30.0145 4.69783 30.0189 5.0084 30.0189C5.28508 30.0189 5.81122 30.0145 6.58777 30.0056L6.61197 30.0235L6.58326 30.2652C6.57423 30.3421 6.56736 30.4076 6.56299 30.4612L6.54775 30.6644L6.52608 30.6883H6.39772L6.37523 30.6666C6.37368 30.4686 6.36236 30.3562 6.33972 30.3287C6.32389 30.3079 6.24481 30.2923 6.10306 30.2803C5.96065 30.2691 5.83615 30.2632 5.72836 30.2632C5.60015 30.2632 5.47054 30.2683 5.33938 30.2781C5.32355 30.4306 5.31526 30.6428 5.31526 30.913V31.3641C5.43133 31.3715 5.52573 31.3753 5.59801 31.3753L5.88749 31.373C6.02317 31.3715 6.09922 31.3612 6.11727 31.3403C6.14072 31.3143 6.15581 31.216 6.16336 31.0462L6.18518 31.0238H6.32241L6.34431 31.0462C6.33898 31.2086 6.33595 31.3581 6.33595 31.4929C6.33595 31.6402 6.33898 31.8003 6.34431 31.9753L6.32241 31.9947H6.1746L6.15204 31.9731C6.15204 31.8055 6.14072 31.7065 6.11727 31.6753C6.0933 31.6441 6.02243 31.6232 5.90258 31.6128C5.81277 31.6061 5.71704 31.6022 5.61606 31.6022C5.50827 31.6022 5.40803 31.6061 5.31526 31.6128V32.2782C5.31526 32.4689 5.31903 32.6534 5.32651 32.8321H5.62671C6.05712 32.8321 6.32012 32.8157 6.4174 32.7822C6.43405 32.7761 6.44529 32.7681 6.45284 32.7576C6.46711 32.7376 6.48147 32.6943 6.49508 32.6273L6.54775 32.3564L6.56958 32.3325H6.70466L6.72885 32.3542ZM3.62351 30.0189C3.60546 30.1263 3.59651 30.2378 3.59495 30.3524L3.59044 30.7165L3.56869 30.7388H3.42924L3.40498 30.7187C3.3975 30.5325 3.38914 30.4239 3.38093 30.392C3.36273 30.3339 3.31605 30.2996 3.23911 30.2892C3.20974 30.2847 3.07103 30.2825 2.8238 30.2825H2.52825C2.52529 30.3339 2.52374 30.5356 2.52374 30.8893V32.1279C2.52374 32.4741 2.53365 32.6988 2.55237 32.8039C2.55999 32.8463 2.58484 32.873 2.62775 32.8843C2.64972 32.89 2.73554 32.8976 2.88564 32.9065L2.90813 32.928V33.074L2.88564 33.0963C2.74005 33.0873 2.51323 33.083 2.20563 33.083C1.89055 33.083 1.66366 33.0873 1.52576 33.0963L1.50534 33.0762V32.928L1.52798 32.9065C1.67793 32.8976 1.7639 32.89 1.78572 32.8843C1.82878 32.873 1.85364 32.8463 1.86111 32.8039C1.87997 32.6988 1.88974 32.4741 1.88974 32.1279V30.8893C1.88974 30.5296 1.88752 30.3279 1.88293 30.2825H1.56704C1.30397 30.2825 1.15017 30.2907 1.10571 30.3072C1.08233 30.3152 1.06583 30.3265 1.05747 30.3391C1.04401 30.363 1.03262 30.409 1.02433 30.4792C1.01368 30.5558 1.00702 30.6354 1.00406 30.7165L0.982088 30.7388H0.842712L0.818521 30.7165L0.814008 30.3436C0.812528 30.2394 0.804243 30.1308 0.787598 30.0189L0.808016 29.9967C0.894719 30.0116 1.21142 30.0189 1.75709 30.0189H2.6518C3.15544 30.0189 3.47207 30.0116 3.60183 29.9967L3.62351 30.0189ZM44.0518 27.5335C44.0193 27.7463 44.0036 27.9861 44.0036 28.2534L43.9808 28.2756L42.3758 28.2622C42.1075 28.2622 41.9182 28.2667 41.8082 28.2756L41.7857 28.2534V28.1923L41.7969 28.1662C41.9054 28.0977 41.9651 28.0553 41.9733 28.0374C41.9869 28.0114 41.9952 27.9146 41.9983 27.7479L42.0041 27.2588V26.1534C42.0041 25.8072 41.9952 25.5818 41.9756 25.4776C41.968 25.4349 41.9432 25.4083 41.9009 25.3964C41.8783 25.3912 41.7924 25.3837 41.6424 25.3747L41.6205 25.3532V25.205L41.6424 25.185C41.7939 25.1939 42.0163 25.1983 42.3095 25.1983C42.6125 25.1983 42.8433 25.1939 43.0008 25.185L43.0227 25.205V25.3553L43.0008 25.3747C42.8501 25.3837 42.7641 25.3912 42.7423 25.3964C42.6993 25.4083 42.6744 25.4349 42.6669 25.4776C42.648 25.5818 42.6381 25.8072 42.6381 26.1534V27.4576C42.6381 27.6481 42.642 27.8327 42.6496 28.0114H42.9496C43.3801 28.0114 43.6431 27.995 43.7403 27.9615C43.7569 27.9555 43.7682 27.9474 43.7758 27.937C43.79 27.9168 43.8044 27.8736 43.8181 27.8066L43.8708 27.5357L43.8925 27.5118H44.0276L44.0518 27.5335ZM40.9208 24.5068C40.9208 24.5953 40.8893 24.6706 40.8267 24.7324C40.7641 24.7941 40.6879 24.8253 40.5982 24.8253C40.51 24.8253 40.4347 24.7941 40.3721 24.7324C40.3096 24.6706 40.2777 24.5953 40.2777 24.5068C40.2777 24.4182 40.3096 24.3422 40.373 24.279C40.4361 24.2157 40.5114 24.1837 40.5982 24.1837C40.6849 24.1837 40.7603 24.2149 40.8244 24.2768C40.8885 24.3385 40.9208 24.4151 40.9208 24.5068ZM41.3001 28.2534L41.2798 28.2756C41.1326 28.2667 40.905 28.2622 40.5974 28.2622C40.2914 28.2622 40.0644 28.2667 39.9175 28.2756L39.8971 28.2534V28.1073L39.9197 28.0859C40.0697 28.0769 40.1558 28.0694 40.1775 28.0635C40.2206 28.0523 40.2454 28.0255 40.2529 27.9832C40.2718 27.878 40.2815 27.6534 40.2815 27.3072V26.1534C40.2815 25.8072 40.2718 25.5818 40.2529 25.4776C40.2454 25.4349 40.2206 25.4083 40.1775 25.3964C40.1558 25.3912 40.0697 25.3837 39.9197 25.3747L39.8971 25.3532V25.205L39.9197 25.185C40.0607 25.1939 40.2876 25.1983 40.5998 25.1983C40.9103 25.1983 41.1365 25.1939 41.2774 25.185L41.3001 25.205V25.3532L41.2774 25.3747C41.1274 25.3837 41.0415 25.3912 41.0197 25.3964C40.9768 25.4083 40.9518 25.4349 40.9443 25.4776C40.9254 25.5818 40.9155 25.8072 40.9155 26.1534V27.3072C40.9155 27.6534 40.9254 27.878 40.9443 27.9832C40.9518 28.0255 40.9768 28.0523 41.0197 28.0635C41.0415 28.0694 41.1274 28.0769 41.2774 28.0859L41.3001 28.1073V28.2534ZM39.0407 27.2543C39.0407 27.4948 38.9713 27.7063 38.8327 27.8893C38.7121 28.0508 38.5538 28.1707 38.3576 28.2489C38.1784 28.3218 37.9643 28.3583 37.7155 28.3583C37.4063 28.3583 37.1025 28.2883 36.8055 28.1491L36.7792 28.1008C36.8199 27.934 36.8409 27.6957 36.8409 27.3875L36.8629 27.3659H37.0038L37.0241 27.3875V27.4383C37.0241 27.5194 37.0333 27.6265 37.0506 27.7604C37.1033 27.8536 37.1983 27.934 37.3354 28.0002C37.4779 28.0702 37.6273 28.1051 37.7818 28.1051C38.0727 28.1051 38.2748 28.0047 38.3863 27.8044C38.4444 27.701 38.4731 27.5944 38.4731 27.4836C38.4731 27.2974 38.3939 27.1643 38.2365 27.0846C38.1588 27.0452 38.0329 27.0125 37.8587 26.9862C37.466 26.9268 37.2072 26.8518 37.0838 26.7615C36.8968 26.6253 36.8032 26.4139 36.8032 26.1272C36.8032 25.8289 36.905 25.5914 37.1078 25.4142C37.3227 25.2281 37.622 25.135 38.0048 25.135C38.3494 25.135 38.6277 25.1893 38.8396 25.2988L38.8546 25.351C38.8199 25.5236 38.7979 25.732 38.7912 25.9747L38.7664 25.9962H38.6277L38.605 25.9747C38.6012 25.7997 38.5938 25.6867 38.5832 25.6345C38.538 25.566 38.458 25.5079 38.3449 25.4596C38.2243 25.4105 38.0985 25.3859 37.9673 25.3859C37.7698 25.3859 37.6136 25.4373 37.4992 25.5407C37.3912 25.6383 37.3377 25.7641 37.3377 25.9181C37.3377 26.0849 37.3989 26.2078 37.521 26.2866C37.6002 26.3373 37.7878 26.3856 38.0841 26.4325C38.1151 26.4371 38.201 26.4512 38.3427 26.4763C38.4295 26.4905 38.5092 26.5114 38.5832 26.5389C38.7317 26.5948 38.844 26.6789 38.9186 26.792C39.0001 26.9156 39.0407 27.0697 39.0407 27.2543ZM35.9311 28.2534L35.9085 28.2756C35.763 28.2667 35.536 28.2622 35.2285 28.2622C34.9133 28.2622 34.6865 28.2667 34.5485 28.2756L34.526 28.2554V28.1073L34.5499 28.0859C34.7008 28.0769 34.7867 28.0694 34.8086 28.0635C34.8516 28.0523 34.8765 28.0255 34.8839 27.9832C34.9027 27.878 34.9125 27.6534 34.9125 27.3072V26.7816C34.8373 26.7742 34.599 26.7704 34.1971 26.7704C33.8263 26.7704 33.5813 26.7742 33.4637 26.7816V27.3072C33.4637 27.6534 33.4735 27.878 33.4923 27.9832C33.4999 28.0255 33.5246 28.0523 33.5678 28.0635C33.5897 28.0694 33.6755 28.0769 33.8263 28.0859L33.8482 28.1073V28.2534L33.8286 28.2756C33.6808 28.2667 33.4539 28.2622 33.1478 28.2622C32.8312 28.2622 32.6044 28.2667 32.4679 28.2756L32.446 28.2554V28.1073L32.4679 28.0859C32.6179 28.0769 32.7038 28.0694 32.7265 28.0635C32.7687 28.0523 32.7935 28.0255 32.8011 27.9832C32.8207 27.878 32.8297 27.6534 32.8297 27.3072V26.1534C32.8297 25.8072 32.8207 25.5818 32.8011 25.4776C32.7935 25.4349 32.7687 25.4083 32.7265 25.3964C32.7038 25.3912 32.6179 25.3837 32.4679 25.3747L32.446 25.3532V25.205L32.4679 25.185C32.6088 25.1939 32.8358 25.1983 33.1478 25.1983C33.4675 25.1983 33.6944 25.1939 33.8286 25.185L33.8482 25.205V25.3553L33.8263 25.3747C33.6755 25.3837 33.5897 25.3912 33.5678 25.3964C33.5246 25.4083 33.4999 25.4349 33.4923 25.4776C33.4735 25.5818 33.4637 25.8072 33.4637 26.1534V26.5129C33.6198 26.5204 33.8345 26.524 34.1092 26.524C34.5387 26.524 34.8063 26.5204 34.9125 26.5129V26.1534C34.9125 25.8072 34.9027 25.5818 34.8839 25.4776C34.8765 25.4349 34.8516 25.4083 34.8086 25.3964C34.7867 25.3912 34.7008 25.3837 34.5499 25.3747L34.526 25.3532V25.205L34.5485 25.185C34.691 25.1939 34.9178 25.1983 35.2285 25.1983C35.5495 25.1983 35.7765 25.1939 35.9085 25.185L35.9311 25.205V25.3553L35.9108 25.3747C35.7576 25.3837 35.6709 25.3912 35.6507 25.3964C35.6077 25.4083 35.5828 25.4349 35.5753 25.4776C35.5557 25.5818 35.5466 25.8072 35.5466 26.1534V27.3072C35.5466 27.6534 35.5557 27.878 35.5753 27.9832C35.5828 28.0255 35.6077 28.0523 35.6507 28.0635C35.6725 28.0694 35.7584 28.0769 35.9085 28.0859L35.9311 28.1073V28.2534ZM31.4148 26.8359H29.5527L29.5308 26.8575C29.5308 27.0176 29.5399 27.1598 29.5595 27.2849C29.6433 27.8335 29.9425 28.1073 30.4559 28.1073C30.8758 28.1073 31.1578 27.9035 31.3016 27.4948C31.3696 27.3042 31.4072 27.0846 31.4148 26.8359ZM32.097 26.6507C32.097 27.1873 31.9387 27.6079 31.622 27.9131C31.3145 28.2101 30.8939 28.3583 30.3609 28.3583C29.8248 28.3583 29.4381 28.2198 29.1992 27.9436C28.967 27.675 28.8501 27.343 28.8501 26.947C28.8501 26.8248 28.8546 26.7258 28.8637 26.6507L28.8856 26.629L31.4148 26.6327C31.4148 26.4222 31.4026 26.2642 31.3794 26.16C31.2633 25.645 30.9383 25.388 30.4053 25.388C30.1332 25.388 29.9131 25.4551 29.7451 25.5906C29.5828 25.7201 29.454 25.9257 29.3583 26.2078L29.3252 26.2338L29.2014 26.1667L29.2942 25.4991C29.3787 25.4292 29.4653 25.3718 29.555 25.3271C29.8113 25.1991 30.1137 25.135 30.4627 25.135C30.9768 25.135 31.3763 25.2676 31.662 25.534C31.9523 25.8042 32.097 26.1763 32.097 26.6507ZM28.1106 25.1983C28.0925 25.3056 28.0835 25.4172 28.0819 25.5318L28.0774 25.8958L28.0557 25.9181H27.9162L27.892 25.8979C27.8845 25.7119 27.8762 25.6032 27.868 25.5712C27.8498 25.5133 27.8031 25.479 27.7262 25.4684C27.6967 25.4641 27.5581 25.4619 27.3108 25.4619H27.0153C27.0123 25.5133 27.0108 25.7149 27.0108 26.0685V27.3072C27.0108 27.6534 27.0206 27.878 27.0394 27.9832C27.047 28.0255 27.0718 28.0523 27.1148 28.0635C27.1368 28.0694 27.2227 28.0769 27.3726 28.0859L27.3952 28.1073V28.2534L27.3726 28.2756C27.2271 28.2667 27.0002 28.2622 26.6926 28.2622C26.3775 28.2622 26.1507 28.2667 26.0127 28.2756L25.9923 28.2554V28.1073L26.015 28.0859C26.165 28.0769 26.2509 28.0694 26.2728 28.0635C26.3158 28.0523 26.3406 28.0255 26.3482 27.9832C26.367 27.878 26.3767 27.6534 26.3767 27.3072V26.0685C26.3767 25.709 26.3745 25.5072 26.3701 25.4619H26.0541C25.791 25.4619 25.6372 25.47 25.5927 25.4864C25.5693 25.4946 25.5528 25.5058 25.5445 25.5184C25.531 25.5422 25.5197 25.5883 25.5113 25.6585C25.5008 25.735 25.4941 25.8146 25.491 25.8958L25.4691 25.9181H25.3297L25.3056 25.8958L25.301 25.5228C25.2996 25.4186 25.2912 25.31 25.2746 25.1983L25.295 25.176C25.3817 25.1909 25.6984 25.1983 26.2442 25.1983H27.1389C27.6424 25.1983 27.9591 25.1909 28.0889 25.176L28.1106 25.1983ZM22.93 24.5068C22.93 24.5953 22.8984 24.6706 22.8359 24.7324C22.7734 24.7941 22.6971 24.8253 22.6076 24.8253C22.5193 24.8253 22.4438 24.7941 22.3813 24.7324C22.3188 24.6706 22.2871 24.5953 22.2871 24.5068C22.2871 24.4182 22.3188 24.3422 22.3821 24.279C22.4453 24.2157 22.5209 24.1837 22.6076 24.1837C22.6941 24.1837 22.7695 24.2149 22.8336 24.2768C22.8977 24.3385 22.93 24.4151 22.93 24.5068ZM23.3094 28.2534L23.289 28.2756C23.142 28.2667 22.9142 28.2622 22.6067 28.2622C22.3006 28.2622 22.0737 28.2667 21.9267 28.2756L21.9065 28.2534V28.1073L21.929 28.0859C22.079 28.0769 22.165 28.0694 22.1868 28.0635C22.2297 28.0523 22.2547 28.0255 22.2621 27.9832C22.2809 27.878 22.2909 27.6534 22.2909 27.3072V26.1534C22.2909 25.8072 22.2809 25.5818 22.2621 25.4776C22.2547 25.4349 22.2297 25.4083 22.1868 25.3964C22.165 25.3912 22.079 25.3837 21.929 25.3747L21.9065 25.3532V25.205L21.929 25.185C22.07 25.1939 22.2968 25.1983 22.6091 25.1983C22.9195 25.1983 23.1458 25.1939 23.2867 25.185L23.3094 25.205V25.3532L23.2867 25.3747C23.1367 25.3837 23.0507 25.3912 23.0289 25.3964C22.986 25.4083 22.961 25.4349 22.9535 25.4776C22.9346 25.5818 22.9249 25.8072 22.9249 26.1534V27.3072C22.9249 27.6534 22.9346 27.878 22.9535 27.9832C22.961 28.0255 22.986 28.0523 23.0289 28.0635C23.0507 28.0694 23.1367 28.0769 23.2867 28.0859L23.3094 28.1073V28.2534ZM21.118 27.5335C21.0854 27.7463 21.0698 27.9861 21.0698 28.2534L21.047 28.2756L19.4421 28.2622C19.1737 28.2622 18.9844 28.2667 18.8744 28.2756L18.8519 28.2534V28.1923L18.8631 28.1662C18.9717 28.0977 19.0312 28.0553 19.0396 28.0374C19.0531 28.0114 19.0614 27.9146 19.0645 27.7479L19.0704 27.2588V26.1534C19.0704 25.8072 19.0614 25.5818 19.0418 25.4776C19.0342 25.4349 19.0094 25.4083 18.9671 25.3964C18.9446 25.3912 18.8586 25.3837 18.7086 25.3747L18.6867 25.3532V25.205L18.7086 25.185C18.8602 25.1939 19.0825 25.1983 19.3757 25.1983C19.6788 25.1983 19.9095 25.1939 20.067 25.185L20.0889 25.205V25.3553L20.067 25.3747C19.9163 25.3837 19.8303 25.3912 19.8085 25.3964C19.7654 25.4083 19.7407 25.4349 19.7331 25.4776C19.7142 25.5818 19.7044 25.8072 19.7044 26.1534V27.4576C19.7044 27.6481 19.7081 27.8327 19.7159 28.0114H20.0159C20.4463 28.0114 20.7093 27.995 20.8065 27.9615C20.8231 27.9555 20.8345 27.9474 20.842 27.937C20.8563 27.9168 20.8708 27.8736 20.8842 27.8066L20.937 27.5357L20.9588 27.5118H21.0938L21.118 27.5335ZM17.9353 27.5335C17.9027 27.7463 17.887 27.9861 17.887 28.2534L17.8642 28.2756L16.2593 28.2622C15.991 28.2622 15.8018 28.2667 15.6916 28.2756L15.6692 28.2534V28.1923L15.6804 28.1662C15.7891 28.0977 15.8485 28.0553 15.8568 28.0374C15.8704 28.0114 15.8786 27.9146 15.8817 27.7479L15.8877 27.2588V26.1534C15.8877 25.8072 15.8786 25.5818 15.859 25.4776C15.8516 25.4349 15.8266 25.4083 15.7845 25.3964C15.7618 25.3912 15.6758 25.3837 15.5258 25.3747L15.5041 25.3532V25.205L15.5258 25.185C15.6774 25.1939 15.8998 25.1983 16.193 25.1983C16.496 25.1983 16.7267 25.1939 16.8842 25.185L16.9062 25.205V25.3553L16.8842 25.3747C16.7335 25.3837 16.6475 25.3912 16.6257 25.3964C16.5827 25.4083 16.558 25.4349 16.5503 25.4776C16.5314 25.5818 16.5217 25.8072 16.5217 26.1534V27.4576C16.5217 27.6481 16.5254 27.8327 16.533 28.0114H16.8331C17.2635 28.0114 17.5266 27.995 17.6239 27.9615C17.6405 27.9555 17.6517 27.9474 17.6593 27.937C17.6736 27.9168 17.688 27.8736 17.7015 27.8066L17.7542 27.5357L17.7761 27.5118H17.9111L17.9353 27.5335ZM14.8043 24.5068C14.8043 24.5953 14.7727 24.6706 14.7102 24.7324C14.6476 24.7941 14.5713 24.8253 14.4818 24.8253C14.3934 24.8253 14.3182 24.7941 14.2556 24.7324C14.193 24.6706 14.1613 24.5953 14.1613 24.5068C14.1613 24.4182 14.193 24.3422 14.2564 24.279C14.3195 24.2157 14.395 24.1837 14.4818 24.1837C14.5685 24.1837 14.6437 24.2149 14.7079 24.2768C14.7719 24.3385 14.8043 24.4151 14.8043 24.5068ZM15.1836 28.2534L15.1632 28.2756C15.0162 28.2667 14.7884 28.2622 14.481 28.2622C14.1748 28.2622 13.9479 28.2667 13.8009 28.2756L13.7807 28.2534V28.1073L13.8032 28.0859C13.9532 28.0769 14.0392 28.0694 14.0611 28.0635C14.104 28.0523 14.129 28.0255 14.1364 27.9832C14.1552 27.878 14.1651 27.6534 14.1651 27.3072V26.1534C14.1651 25.8072 14.1552 25.5818 14.1364 25.4776C14.129 25.4349 14.104 25.4083 14.0611 25.3964C14.0392 25.3912 13.9532 25.3837 13.8032 25.3747L13.7807 25.3532V25.205L13.8032 25.185C13.9442 25.1939 14.1711 25.1983 14.4833 25.1983C14.7937 25.1983 15.0201 25.1939 15.1609 25.185L15.1836 25.205V25.3532L15.1609 25.3747C15.0109 25.3837 14.9249 25.3912 14.9032 25.3964C14.8602 25.4083 14.8353 25.4349 14.8277 25.4776C14.8088 25.5818 14.7991 25.8072 14.7991 26.1534V27.3072C14.7991 27.6534 14.8088 27.878 14.8277 27.9832C14.8353 28.0255 14.8602 28.0523 14.9032 28.0635C14.9249 28.0694 15.0109 28.0769 15.1609 28.0859L15.1836 28.1073V28.2534ZM13.0011 28.2534L12.9792 28.2756C12.8329 28.2667 12.6069 28.2622 12.2984 28.2622C11.9834 28.2622 11.7573 28.2667 11.6185 28.2756L11.5989 28.2554V28.1073L11.6209 28.0859C11.7709 28.0769 11.8568 28.0694 11.8793 28.0635C11.9216 28.0523 11.9472 28.0255 11.9541 27.9832C11.9737 27.878 11.9834 27.6534 11.9834 27.3072V25.8325L11.4904 26.8293C11.4624 26.8845 11.3667 27.0883 11.2032 27.4404L10.7991 28.3122H10.6513C10.5745 28.1319 10.4712 27.905 10.3401 27.6295L10.031 26.9819L9.45195 25.7938V27.3072C9.45195 27.6534 9.46164 27.878 9.48058 27.9832C9.48812 28.0255 9.51305 28.0523 9.55596 28.0635C9.57778 28.0694 9.66382 28.0769 9.81452 28.0859L9.83649 28.1073V28.2554L9.81452 28.2756C9.64481 28.2667 9.48746 28.2622 9.34187 28.2622C9.17223 28.2622 9.00186 28.2667 8.83156 28.2756L8.80959 28.2554V28.1073L8.83156 28.0859C8.98159 28.0769 9.06755 28.0694 9.09004 28.0635C9.13236 28.0523 9.15714 28.0255 9.16476 27.9832C9.18437 27.878 9.19339 27.6534 9.19339 27.3072V26.1534C9.19339 25.8072 9.18437 25.5818 9.16476 25.4776C9.15714 25.4349 9.13236 25.4083 9.09004 25.3964C9.06755 25.3912 8.98159 25.3837 8.83156 25.3747L8.80959 25.3532V25.205L8.83156 25.185C8.98455 25.1939 9.1783 25.1983 9.41207 25.1983C9.59214 25.1983 9.74897 25.1939 9.88236 25.185C9.9314 25.2959 10.0008 25.4513 10.0904 25.6516L10.2314 25.9524L10.9341 27.4032L11.2718 26.7266L11.7995 25.6122C11.8614 25.4805 11.9216 25.3375 11.9811 25.185C12.147 25.1939 12.2593 25.1983 12.3166 25.1983C12.6054 25.1983 12.8262 25.1939 12.9792 25.185L13.0011 25.205V25.3553L12.9792 25.3747C12.8292 25.3837 12.7425 25.3912 12.7206 25.3964C12.6778 25.4083 12.6528 25.4349 12.6454 25.4776C12.6264 25.5818 12.6165 25.8072 12.6165 26.1534V27.3072C12.6165 27.6534 12.6264 27.878 12.6454 27.9832C12.6528 28.0255 12.6778 28.0523 12.7206 28.0635C12.7425 28.0694 12.8292 28.0769 12.9792 28.0859L13.0011 28.1073V28.2534Z" fill="white"/>
<path d="M51.9812 33.0743L51.9608 33.0966C51.8137 33.0876 51.5861 33.0833 51.2785 33.0833C50.9725 33.0833 50.7455 33.0876 50.5986 33.0966L50.5781 33.0743V32.9283L50.6008 32.9067C50.7508 32.8979 50.8368 32.8903 50.8585 32.8846C50.9016 32.8732 50.9264 32.8465 50.9339 32.8042C50.9528 32.699 50.9625 32.4744 50.9625 32.1282V30.9743C50.9625 30.6281 50.9528 30.4027 50.9339 30.2984C50.9264 30.2559 50.9016 30.2293 50.8585 30.2174C50.8368 30.2122 50.7508 30.2046 50.6008 30.1957L50.5781 30.1742V30.026L50.6008 30.0059C50.7417 30.0149 50.9687 30.0193 51.2808 30.0193C51.5914 30.0193 51.8176 30.0149 51.9584 30.0059L51.9812 30.026V30.1742L51.9584 30.1957C51.8085 30.2046 51.7225 30.2122 51.7007 30.2174C51.6578 30.2293 51.6329 30.2559 51.6253 30.2984C51.6065 30.4027 51.5966 30.6281 51.5966 30.9743V32.1282C51.5966 32.4744 51.6065 32.699 51.6253 32.8042C51.6329 32.8465 51.6578 32.8732 51.7007 32.8846C51.7225 32.8903 51.8085 32.8979 51.9584 32.9067L51.9812 32.9283V33.0743ZM49.8937 33.0743L49.8719 33.0966C49.8614 33.0966 49.8335 33.0958 49.7881 33.0945C49.5863 33.0869 49.4603 33.0833 49.4104 33.0833C49.3352 33.0833 49.216 33.0876 49.0525 33.0966C49.0464 33.0617 49.0186 33.0036 48.9689 32.9216L48.4207 32.0187L48.1758 31.6503C48.1448 31.6056 48.101 31.561 48.0454 31.517L48.0694 31.4434C48.1034 31.4448 48.1282 31.4456 48.1448 31.4456C48.2887 31.4456 48.4026 31.4224 48.4848 31.3778C48.5601 31.3369 48.6296 31.2662 48.6929 31.1642C48.7554 31.0622 48.7871 30.9409 48.7871 30.8001C48.7871 30.5545 48.6943 30.3885 48.5089 30.3029C48.4207 30.262 48.2918 30.2418 48.123 30.2418C48.0492 30.2418 47.9783 30.2471 47.9104 30.2591C47.8961 30.4012 47.8884 30.6445 47.8884 30.9878V32.1282C47.8884 32.4744 47.8984 32.699 47.917 32.8042C47.9247 32.8465 47.9495 32.8732 47.9926 32.8846C48.0144 32.8903 48.1002 32.8979 48.251 32.9067L48.2731 32.9283V33.0743L48.2534 33.0966C48.1055 33.0876 47.8787 33.0833 47.5726 33.0833C47.2561 33.0833 47.0292 33.0876 46.8927 33.0966L46.8709 33.0765V32.9283L46.8927 32.9067C47.0427 32.8979 47.1286 32.8903 47.1512 32.8846C47.1934 32.8732 47.2183 32.8465 47.2259 32.8042C47.2455 32.699 47.2545 32.4744 47.2545 32.1282V30.9743C47.2545 30.6281 47.2455 30.4027 47.2259 30.2984C47.2183 30.2559 47.1934 30.2293 47.1512 30.2174C47.1286 30.2122 47.0427 30.2046 46.8927 30.1957L46.8709 30.1742V30.026L46.8927 30.0059C47.0366 30.0149 47.2635 30.0193 47.5726 30.0193C47.752 30.0193 47.8984 30.0172 48.0099 30.0127C48.2323 30.0035 48.3989 29.9992 48.5089 29.9992C48.7637 29.9992 48.9507 30.0222 49.0698 30.0669C49.2304 30.128 49.338 30.2315 49.3924 30.3766C49.4188 30.448 49.4325 30.5322 49.4325 30.6297C49.4325 31.0248 49.207 31.3057 48.7569 31.4716C48.8301 31.5937 48.9084 31.7172 48.9905 31.8423L49.3307 32.359C49.5311 32.6641 49.6646 32.8382 49.7302 32.8807C49.7641 32.9024 49.8116 32.9128 49.8719 32.9128L49.8937 32.9351V33.0743ZM44.7788 31.9012L44.3061 30.7585L43.8539 31.9012C43.9744 31.9056 44.1312 31.9077 44.3241 31.9077C44.5111 31.9077 44.6627 31.9056 44.7788 31.9012ZM46.1786 33.0743L46.1591 33.0966C45.8319 33.0876 45.6352 33.0833 45.5673 33.0833C45.2967 33.0833 45.0448 33.0876 44.8119 33.0966L44.7923 33.0743V32.9373L44.8142 32.9128L45.0066 32.9024C45.087 32.8979 45.1278 32.8697 45.1278 32.8175C45.1278 32.787 45.1075 32.7185 45.066 32.612L44.8874 32.1519C44.6838 32.149 44.4765 32.1474 44.2639 32.1474C44.1493 32.1474 43.979 32.149 43.7521 32.1519L43.6547 32.4177C43.5809 32.6202 43.544 32.7468 43.544 32.7974C43.544 32.8524 43.5786 32.8852 43.648 32.8956C43.6865 32.9016 43.7611 32.9075 43.8733 32.9128L43.8953 32.9351V33.0743L43.8733 33.0966C43.6013 33.0876 43.4255 33.0833 43.348 33.0833C43.2877 33.0833 43.1376 33.0876 42.8994 33.0966L42.8776 33.0765V32.9351L42.9017 32.9128C43.0532 32.9044 43.1467 32.8748 43.1806 32.8233C43.2154 32.7727 43.3457 32.4699 43.5711 31.9145L44.1471 30.4905C44.1899 30.3797 44.255 30.2135 44.3416 29.991H44.6552L45.8259 32.7102C45.8711 32.8136 45.9126 32.8717 45.9495 32.8846C45.9978 32.9024 46.0678 32.9112 46.1591 32.9112L46.1786 32.9351V33.0743ZM42.1593 32.3545C42.1268 32.5673 42.111 32.807 42.111 33.0743L42.0883 33.0966L40.4832 33.0833C40.215 33.0833 40.0258 33.0876 39.9157 33.0966L39.8931 33.0743V33.0133L39.9044 32.9872C40.013 32.9187 40.0724 32.8762 40.0808 32.8583C40.0944 32.8324 40.1026 32.7356 40.1058 32.5689L40.1116 32.0797V30.9743C40.1116 30.6281 40.1026 30.4027 40.083 30.2984C40.0756 30.2559 40.0507 30.2293 40.0085 30.2174C39.9858 30.2122 39.8998 30.2046 39.7499 30.1957L39.728 30.1742V30.026L39.7499 30.0059C39.9015 30.0149 40.1239 30.0193 40.417 30.0193C40.72 30.0193 40.9508 30.0149 41.1083 30.0059L41.1302 30.026V30.1764L41.1083 30.1957C40.9575 30.2046 40.8716 30.2122 40.8498 30.2174C40.8067 30.2293 40.7819 30.2559 40.7744 30.2984C40.7555 30.4027 40.7457 30.6281 40.7457 30.9743V32.2785C40.7457 32.4691 40.7494 32.6537 40.7571 32.8324H41.0571C41.4876 32.8324 41.7505 32.816 41.8479 32.7825C41.8645 32.7765 41.8757 32.7684 41.8833 32.7578C41.8976 32.7378 41.912 32.6946 41.9255 32.6276L41.9783 32.3567L42 32.3328H42.1351L42.1593 32.3545Z" fill="white"/>
<path d="M38.4955 34.1484C38.4955 34.237 38.4639 34.3122 38.4014 34.374C38.3388 34.4359 38.2625 34.4671 38.1728 34.4671C38.0846 34.4671 38.0093 34.4359 37.9467 34.374C37.8842 34.3122 37.8525 34.237 37.8525 34.1484C37.8525 34.0598 37.8842 33.9838 37.9476 33.9207C38.0107 33.8574 38.0862 33.8254 38.1728 33.8254C38.2595 33.8254 38.3349 33.8566 38.399 33.9184C38.4631 33.9801 38.4955 34.0569 38.4955 34.1484ZM38.8747 37.895L38.8544 37.9172C38.7072 37.9083 38.4796 37.9038 38.172 37.9038C37.866 37.9038 37.6391 37.9083 37.4921 37.9172L37.4717 37.895V37.749L37.4944 37.7275C37.6443 37.7185 37.7304 37.711 37.7523 37.7051C37.7952 37.6939 37.8202 37.6673 37.8275 37.6247C37.8464 37.5198 37.8561 37.295 37.8561 36.9487V35.795C37.8561 35.4488 37.8464 35.2233 37.8275 35.1192C37.8202 35.0767 37.7952 35.0498 37.7523 35.038C37.7304 35.0328 37.6443 35.0253 37.4944 35.0163L37.4717 34.9948V34.8468L37.4944 34.8266C37.6354 34.8354 37.8623 34.84 38.1744 34.84C38.4849 34.84 38.7111 34.8354 38.852 34.8266L38.8747 34.8468V34.9948L38.852 35.0163C38.7021 35.0253 38.6161 35.0328 38.5943 35.038C38.5514 35.0498 38.5264 35.0767 38.5189 35.1192C38.5 35.2233 38.4902 35.4488 38.4902 35.795V36.9487C38.4902 37.295 38.5 37.5198 38.5189 37.6247C38.5264 37.6673 38.5514 37.6939 38.5943 37.7051C38.6161 37.711 38.7021 37.7185 38.852 37.7275L38.8747 37.749V37.895ZM36.6638 37.1469C36.6329 37.4118 36.6094 37.6619 36.5928 37.8971L36.571 37.9172C35.9656 37.9054 35.5066 37.8993 35.1929 37.8993C34.9629 37.8993 34.556 37.9054 33.9718 37.9172L33.949 37.8971V37.7445C34.0584 37.6091 34.225 37.3851 34.4489 37.0709L34.7707 36.6168L35.1839 36.0176C35.321 35.8197 35.5254 35.5137 35.7976 35.099L35.2434 35.1011C34.8152 35.1026 34.5687 35.1131 34.5038 35.1317C34.4654 35.1422 34.4391 35.1713 34.424 35.2196C34.4179 35.2383 34.4059 35.3059 34.3863 35.4221L34.3689 35.5307L34.3447 35.5532H34.2099L34.1881 35.527C34.1978 35.3729 34.2031 35.2337 34.2031 35.1101C34.2031 35.0707 34.2016 34.9836 34.1986 34.8487L34.2212 34.8266C34.421 34.8354 34.8672 34.84 35.5593 34.84C35.7228 34.84 36.0788 34.8354 36.626 34.8266L36.6479 34.8487V34.9792L36.4669 35.2299C36.277 35.4891 36.1134 35.7168 35.977 35.9149L35.3234 36.8616C35.2494 36.9674 35.0776 37.2279 34.8085 37.6418C34.8868 37.6448 35.0053 37.6463 35.1643 37.6463C35.9106 37.6463 36.3078 37.6262 36.3569 37.5854C36.3834 37.5637 36.4172 37.4521 36.4579 37.2495C36.4669 37.207 36.4752 37.1729 36.4828 37.1445L36.5069 37.1231H36.6396L36.6638 37.1469ZM32.9449 36.4776H31.083L31.0611 36.4991C31.0611 36.6593 31.07 36.8014 31.0896 36.9264C31.1734 37.4751 31.4726 37.749 31.9861 37.749C32.4059 37.749 32.688 37.545 32.8319 37.1364C32.8998 36.9458 32.9375 36.7264 32.9449 36.4776ZM33.6271 36.2923C33.6271 36.8289 33.4689 37.2495 33.1522 37.5547C32.8446 37.8517 32.4239 37.9999 31.891 37.9999C31.355 37.9999 30.9682 37.8614 30.7294 37.5854C30.4972 37.3165 30.3804 36.9846 30.3804 36.5885C30.3804 36.4664 30.3848 36.3674 30.3939 36.2923L30.4159 36.2706L32.9449 36.2743C32.9449 36.0638 32.9329 35.9059 32.9095 35.8018C32.7934 35.2865 32.4686 35.0298 31.9356 35.0298C31.6635 35.0298 31.4433 35.0967 31.2752 35.2322C31.1131 35.3618 30.9842 35.5673 30.8884 35.8494L30.8553 35.8753L30.7317 35.8083L30.8243 35.1407C30.9088 35.0707 30.9955 35.0135 31.0851 34.9687C31.3415 34.8407 31.6439 34.7766 31.9928 34.7766C32.5069 34.7766 32.9066 34.9092 33.1921 35.1757C33.4824 35.4458 33.6271 35.8181 33.6271 36.2923ZM29.6695 37.895L29.6476 37.9172C29.4065 37.9083 29.2391 37.9038 29.1463 37.9038C29.0633 37.9038 28.9337 37.9083 28.7551 37.9172C28.7212 37.8443 28.6457 37.7415 28.5281 37.6091L27.8716 36.87C27.729 36.7099 27.5753 36.5633 27.4101 36.43V36.9487C27.4101 37.295 27.42 37.5198 27.4388 37.6247C27.4464 37.6673 27.4713 37.6939 27.5142 37.7051C27.5361 37.711 27.622 37.7185 27.7728 37.7275L27.7947 37.749V37.895L27.7751 37.9172C27.6273 37.9083 27.4004 37.9038 27.0942 37.9038C26.7777 37.9038 26.5509 37.9083 26.4143 37.9172L26.3925 37.8971V37.749L26.4143 37.7275C26.5644 37.7185 26.6503 37.711 26.6729 37.7051C26.7152 37.6939 26.74 37.6673 26.7476 37.6247C26.7672 37.5198 26.7761 37.295 26.7761 36.9487V35.795C26.7761 35.4488 26.7672 35.2233 26.7476 35.1192C26.74 35.0767 26.7152 35.0498 26.6729 35.038C26.6503 35.0328 26.5644 35.0253 26.4143 35.0163L26.3925 34.9948V34.8468L26.4143 34.8266C26.5552 34.8354 26.7822 34.84 27.0942 34.84C27.4139 34.84 27.6409 34.8354 27.7751 34.8266L27.7947 34.8468V34.997L27.7728 35.0163C27.622 35.0253 27.5361 35.0328 27.5142 35.038C27.4713 35.0498 27.4464 35.0767 27.4388 35.1192C27.42 35.2233 27.4101 35.4488 27.4101 35.795V36.3362C27.6853 36.0832 27.8829 35.8955 28.0021 35.7733L28.3156 35.4527C28.4234 35.3425 28.5606 35.1906 28.7286 34.9992V34.8487L28.7528 34.8266C28.8666 34.8354 28.9775 34.84 29.0867 34.84C29.2149 34.84 29.365 34.8354 29.5368 34.8266L29.5594 34.8487V34.9836L29.5368 35.0051C29.3664 35.0051 29.2398 35.0328 29.1569 35.0862C29.0377 35.1645 28.8115 35.3596 28.4791 35.6707L28.0328 36.089C28.0961 36.1739 28.1995 36.2982 28.342 36.462L28.8373 37.0291C29.2036 37.4498 29.4153 37.6724 29.4727 37.6992C29.5082 37.7149 29.5662 37.7237 29.6476 37.7251L29.6695 37.749V37.895ZM25.7449 37.895L25.7231 37.9172C25.7126 37.9172 25.6848 37.9164 25.6394 37.9151C25.4374 37.9076 25.3116 37.9038 25.2617 37.9038C25.1863 37.9038 25.0673 37.9083 24.9036 37.9172C24.8977 37.8824 24.8697 37.8242 24.82 37.7423L24.2719 36.8394L24.027 36.4708C23.9961 36.4263 23.9523 36.3816 23.8967 36.3376L23.9207 36.264C23.9546 36.2655 23.9794 36.2662 23.9961 36.2662C24.14 36.2662 24.2538 36.2431 24.336 36.1984C24.4114 36.1575 24.4809 36.0867 24.5441 35.9848C24.6067 35.8829 24.6383 35.7614 24.6383 35.6208C24.6383 35.3752 24.5456 35.2092 24.3602 35.1236C24.2719 35.0826 24.1431 35.0626 23.9743 35.0626C23.9003 35.0626 23.8296 35.0677 23.7616 35.0796C23.7473 35.2219 23.7397 35.4652 23.7397 35.8083V36.9487C23.7397 37.295 23.7495 37.5198 23.7683 37.6247C23.776 37.6673 23.8007 37.6939 23.8438 37.7051C23.8656 37.711 23.9515 37.7185 24.1023 37.7275L24.1243 37.749V37.895L24.1046 37.9172C23.9568 37.9083 23.73 37.9038 23.4238 37.9038C23.1073 37.9038 22.8803 37.9083 22.7439 37.9172L22.7221 37.8971V37.749L22.7439 37.7275C22.8939 37.7185 22.9798 37.711 23.0025 37.7051C23.0447 37.6939 23.0696 37.6673 23.0771 37.6247C23.0966 37.5198 23.1057 37.295 23.1057 36.9487V35.795C23.1057 35.4488 23.0966 35.2233 23.0771 35.1192C23.0696 35.0767 23.0447 35.0498 23.0025 35.038C22.9798 35.0328 22.8939 35.0253 22.7439 35.0163L22.7221 34.9948V34.8468L22.7439 34.8266C22.8878 34.8354 23.1147 34.84 23.4238 34.84C23.6033 34.84 23.7495 34.8377 23.8611 34.8333C24.0834 34.8243 24.25 34.8198 24.3602 34.8198C24.615 34.8198 24.8018 34.8429 24.921 34.8875C25.0816 34.9485 25.1894 35.0521 25.2437 35.1972C25.2699 35.2687 25.2838 35.3529 25.2838 35.4503C25.2838 35.8455 25.0582 36.1263 24.6081 36.2923C24.6814 36.4144 24.7597 36.5378 24.8419 36.6629L25.182 37.1796C25.3824 37.4848 25.5159 37.6589 25.5814 37.7013C25.6154 37.7229 25.6628 37.7335 25.7231 37.7335L25.7449 37.7557V37.895ZM21.6908 36.4776H19.8288L19.8069 36.4991C19.8069 36.6593 19.8159 36.8014 19.8355 36.9264C19.9192 37.4751 20.2186 37.749 20.7319 37.749C21.1518 37.749 21.4337 37.545 21.5777 37.1364C21.6455 36.9458 21.6833 36.7264 21.6908 36.4776ZM22.3731 36.2923C22.3731 36.8289 22.2147 37.2495 21.898 37.5547C21.5906 37.8517 21.1699 37.9999 20.6369 37.9999C20.1009 37.9999 19.7142 37.8614 19.4752 37.5854C19.243 37.3165 19.1262 36.9846 19.1262 36.5885C19.1262 36.4664 19.1307 36.3674 19.1397 36.2923L19.1617 36.2706L21.6908 36.2743C21.6908 36.0638 21.6787 35.9059 21.6555 35.8018C21.5393 35.2865 21.2144 35.0298 20.6814 35.0298C20.4093 35.0298 20.189 35.0967 20.021 35.2322C19.8589 35.3618 19.73 35.5673 19.6344 35.8494L19.6011 35.8753L19.4774 35.8083L19.5701 35.1407C19.6546 35.0707 19.7413 35.0135 19.831 34.9687C20.0872 34.8407 20.3897 34.7766 20.7386 34.7766C21.2529 34.7766 21.6524 34.9092 21.9381 35.1757C22.2282 35.4458 22.3731 35.8181 22.3731 36.2923ZM18.318 37.895L18.2961 37.9172C18.1499 37.9083 17.9238 37.9038 17.6153 37.9038C17.3003 37.9038 17.0742 37.9083 16.9354 37.9172L16.9158 37.8971V37.749L16.9377 37.7275C17.0878 37.7185 17.1737 37.711 17.1962 37.7051C17.2385 37.6939 17.2641 37.6673 17.2709 37.6247C17.2906 37.5198 17.3003 37.295 17.3003 36.9487V35.4742L16.8073 36.4708C16.7793 36.5261 16.6836 36.7299 16.5201 37.082L16.116 37.9538H15.9682C15.8912 37.7736 15.788 37.5466 15.6569 37.2712L15.3479 36.6235L14.7688 35.4354V36.9487C14.7688 37.295 14.7786 37.5198 14.7975 37.6247C14.805 37.6673 14.8299 37.6939 14.8728 37.7051C14.8947 37.711 14.9808 37.7185 15.1314 37.7275L15.1534 37.749V37.8971L15.1314 37.9172C14.9618 37.9083 14.8042 37.9038 14.6588 37.9038C14.4891 37.9038 14.3188 37.9083 14.1484 37.9172L14.1265 37.8971V37.749L14.1484 37.7275C14.2985 37.7185 14.3844 37.711 14.4069 37.7051C14.4492 37.6939 14.474 37.6673 14.4816 37.6247C14.5012 37.5198 14.5103 37.295 14.5103 36.9487V35.795C14.5103 35.4488 14.5012 35.2233 14.4816 35.1192C14.474 35.0767 14.4492 35.0498 14.4069 35.038C14.3844 35.0328 14.2985 35.0253 14.1484 35.0163L14.1265 34.9948V34.8468L14.1484 34.8266C14.3014 34.8354 14.4952 34.84 14.7289 34.84C14.909 34.84 15.0658 34.8354 15.1993 34.8266C15.2483 34.9375 15.3177 35.093 15.4073 35.2933L15.5483 35.5939L16.251 37.0448L16.5887 36.3681L17.1163 35.2538C17.1781 35.1221 17.2385 34.9792 17.2979 34.8266C17.4639 34.8354 17.5762 34.84 17.6335 34.84C17.9223 34.84 18.1431 34.8354 18.2961 34.8266L18.318 34.8468V34.997L18.2961 35.0163C18.1461 35.0253 18.0594 35.0328 18.0375 35.038C17.9947 35.0498 17.9697 35.0767 17.9623 35.1192C17.9433 35.2233 17.9334 35.4488 17.9334 35.795V36.9487C17.9334 37.295 17.9433 37.5198 17.9623 37.6247C17.9697 37.6673 17.9947 37.6939 18.0375 37.7051C18.0594 37.711 18.1461 37.7185 18.2961 37.7275L18.318 37.749V37.895Z" fill="white"/>
<path d="M0.701193 22.7832C0.590447 22.7832 0.500488 22.6945 0.500488 22.585C0.500488 22.4757 0.590447 22.3868 0.701193 22.3868H52.2998C52.4107 22.3868 52.5005 22.4757 52.5005 22.585C52.5005 22.6945 52.4107 22.7832 52.2998 22.7832H0.701193Z" fill="white"/>
<path fill-rule="evenodd" clip-rule="evenodd" d="M12.9528 20.6737C9.22129 19.4523 5.11013 19.2453 0.700684 19.2921L1.20589 18.2328C5.33103 18.4939 9.15863 18.9005 12.9528 20.6737C16.7468 18.9005 20.5744 18.4939 24.6996 18.2328L25.2049 19.2921C20.7952 19.2453 16.6842 19.4523 12.9528 20.6737ZM12.9528 20.6737C9.22129 18.638 5.11013 17.6697 0.700684 17.54C2.09704 14.1361 2.52242 10.8238 2.42913 7.36926C3.14613 10.629 3.06772 13.363 2.47855 16.5434C6.87312 17.314 10.3281 18.6293 12.9528 20.6737C16.6842 18.638 20.7952 17.6697 25.2049 17.54C23.8084 14.1361 23.3831 10.8238 23.4762 7.36926C22.7593 10.629 22.8378 13.363 23.4269 16.5434C19.0324 17.314 15.5773 18.6293 12.9528 20.6737Z" fill="white"/>
<path fill-rule="evenodd" clip-rule="evenodd" d="M14.7805 2.25793C15.6814 2.83343 16.2775 3.83393 16.2775 4.97213C16.2775 6.75624 14.8129 8.20243 13.0062 8.20243C11.1994 8.20243 9.73486 6.75624 9.73486 4.97213C9.73486 3.83407 10.3311 2.83343 11.2318 2.25808C10.6547 2.75 10.2896 3.47759 10.2896 4.2894C10.2896 5.77086 11.5059 6.97189 13.0062 6.97189C14.5065 6.97189 15.7228 5.77086 15.7228 4.2894C15.7228 3.47759 15.3575 2.74986 14.7805 2.25793Z" fill="white"/>
<path fill-rule="evenodd" clip-rule="evenodd" d="M13.0064 1.67432L13.22 2.12855L13.6962 1.95644L13.522 2.42681L13.9819 2.63771L13.522 2.84846L13.6962 3.31883L13.2199 3.14665L13.0064 3.60103L12.7928 3.14665L12.3165 3.31883L12.4908 2.84846L12.0308 2.63771L12.4908 2.42681L12.3165 1.95644L12.7928 2.12855L13.0064 1.67432Z" fill="white"/>
<path fill-rule="evenodd" clip-rule="evenodd" d="M8.66306 3.25597C8.70206 3.16291 8.80984 3.11886 8.90395 3.15736C8.9982 3.19585 9.0428 3.30229 9.00374 3.39535C8.96476 3.48835 8.85704 3.53247 8.7628 3.49397C8.66862 3.45548 8.62401 3.34889 8.66306 3.25597Z" fill="white"/>
<path fill-rule="evenodd" clip-rule="evenodd" d="M8.66301 6.76904C8.62403 6.67604 8.66872 6.56954 8.76289 6.53096C8.85699 6.49254 8.96485 6.53666 9.00391 6.62958C9.0429 6.72257 8.99815 6.82908 8.90404 6.86758C8.80995 6.90608 8.70201 6.86196 8.66301 6.76904Z" fill="white"/>
<path fill-rule="evenodd" clip-rule="evenodd" d="M11.1789 9.25258C11.0848 9.21409 11.04 9.10766 11.079 9.01473C11.118 8.92167 11.2259 8.87762 11.32 8.91618C11.4143 8.95469 11.459 9.06105 11.4201 9.15412C11.3811 9.2471 11.2731 9.29108 11.1789 9.25258Z" fill="white"/>
<path fill-rule="evenodd" clip-rule="evenodd" d="M14.7361 9.25247C14.6419 9.29097 14.534 9.24677 14.495 9.15385C14.4561 9.06094 14.5008 8.95443 14.5948 8.91592C14.689 8.87735 14.7969 8.92155 14.8359 9.01447C14.8749 9.10739 14.8302 9.21398 14.7361 9.25247Z" fill="white"/>
<path fill-rule="evenodd" clip-rule="evenodd" d="M17.2518 6.76851C17.2128 6.86149 17.105 6.90562 17.0108 6.86712C16.9167 6.82863 16.8721 6.72204 16.9111 6.62912C16.9501 6.5362 17.0578 6.49201 17.1521 6.53051C17.2462 6.569 17.2908 6.67559 17.2518 6.76851Z" fill="white"/>
<path fill-rule="evenodd" clip-rule="evenodd" d="M17.2519 3.25565C17.2909 3.34864 17.2462 3.45515 17.1521 3.49372C17.058 3.53215 16.9501 3.48802 16.9111 3.3951C16.8721 3.30211 16.9168 3.1956 17.0109 3.1571C17.105 3.11861 17.2129 3.16273 17.2519 3.25565Z" fill="white"/>
<path d="M16.9278 5.14187C16.9455 4.60115 16.8495 4.04758 16.6262 3.51496C16.3252 2.7971 15.8116 2.19545 15.176 1.77117C14.5409 1.34733 13.7844 1.1005 12.9968 1.09217C12.7338 1.08932 12.4672 1.11255 12.2016 1.16339C11.9433 1.21277 11.6862 1.28853 11.434 1.3916C10.8912 1.61368 10.4246 1.94102 10.0485 2.33965C9.65772 2.7537 9.36468 3.24497 9.18535 3.77488L9.18255 3.78445L9.16968 3.82302L9.15694 3.86349L9.15281 3.87656L9.13024 3.95152L9.12551 3.96934L9.1062 4.04049L9.10014 4.06452L9.08519 4.1245L9.07646 4.1627L9.06544 4.21377L9.05538 4.26059L9.04813 4.29902L9.0371 4.3606L9.03273 4.38529L9.02083 4.46287L9.01898 4.47477L9.00921 4.54834C8.96889 4.87794 8.97053 5.21478 9.01727 5.55023C9.06255 5.87538 9.15059 6.20067 9.28383 6.51866C9.50872 7.0547 9.84044 7.51565 10.2441 7.88704C10.6639 8.27304 11.1616 8.56254 11.6987 8.7394L11.7063 8.74203L11.7473 8.75481L11.7894 8.76803L11.7968 8.77059L11.8383 8.78243L11.8811 8.79463L11.8894 8.79711L11.9295 8.80799L11.9721 8.81888L11.9839 8.82187L12.061 8.84028L12.0788 8.84415L12.1143 8.85212L12.1512 8.85957L12.1733 8.86432L12.2447 8.87768L12.2709 8.88265L12.3326 8.89258L12.3713 8.89821L12.4279 8.90639L12.4682 8.91165L12.5212 8.91757L12.5662 8.92232L12.6109 8.92655L12.6649 8.93057L12.7074 8.93364L12.7628 8.93671L12.803 8.93846L12.8574 8.94014C13.1303 8.94701 13.4062 8.92604 13.6809 8.87535C13.948 8.82633 14.2143 8.74882 14.476 8.64187C14.7408 8.53362 14.9875 8.4 15.2141 8.24587C15.4469 8.08757 15.6593 7.90618 15.8492 7.70683L15.8549 7.70062L15.9134 7.63816L15.9214 7.62866L15.9482 7.59849L15.974 7.5692L15.9861 7.55517L16.0364 7.49513L16.0477 7.48154L16.0945 7.42361L16.1087 7.40506L16.1503 7.35034L16.1678 7.32675L16.2059 7.274L16.2237 7.24895L16.2589 7.19759L16.2787 7.16823L16.3082 7.12235L16.3317 7.08539L16.3584 7.04199L16.3815 7.00452L16.4062 6.962L16.4295 6.92044L16.4505 6.88296L16.4762 6.83431L16.4954 6.79815L16.5196 6.7506C16.7679 6.25246 16.9092 5.70349 16.9278 5.14187ZM16.827 3.43344C17.0623 3.99469 17.1633 4.57807 17.1447 5.14859C17.1251 5.74155 16.9762 6.32018 16.7144 6.84534L16.689 6.89502L16.6886 6.89633L16.669 6.93395L16.6684 6.93519L16.6423 6.9837L16.6415 6.98458L16.6195 7.02417L16.6192 7.02534L16.5955 7.0669L16.5947 7.06764L16.5692 7.11117L16.5685 7.11249L16.5443 7.15252L16.5439 7.15376L16.5168 7.19796L16.5164 7.19861L16.4929 7.23572L16.492 7.23697L16.4613 7.28401L16.4606 7.28474L16.4397 7.31601L16.4387 7.31739L16.4031 7.36919L16.4024 7.37036L16.3832 7.39731L16.3829 7.39826L16.3447 7.45086L16.3439 7.45181L16.3247 7.47767L16.3239 7.47898L16.2817 7.53428L16.2813 7.53509L16.2669 7.55349L16.2656 7.55488L16.2174 7.615L16.2169 7.61595L16.2049 7.63086L16.2041 7.6321L16.1537 7.69207L16.1523 7.69324L16.1391 7.70851L16.112 7.73941L16.1116 7.74036L16.0846 7.7706L16.0755 7.78061L16.0742 7.78156L16.0148 7.84555L16.0081 7.853L16.0076 7.85395C15.808 8.06331 15.5839 8.25441 15.3374 8.42221C15.0981 8.58511 14.8376 8.72596 14.5585 8.84014C14.2833 8.95263 14.0024 9.03416 13.7202 9.0861C13.4304 9.13942 13.1393 9.16149 12.8514 9.1544H12.8506L12.7949 9.15265H12.7937L12.7523 9.15082H12.7509L12.6943 9.14775H12.6932L12.6491 9.14483H12.6478L12.594 9.14044L12.5926 9.14008L12.5453 9.1357H12.5439L12.4974 9.1308H12.4957L12.4427 9.12467L12.4418 9.12423L12.3989 9.1189H12.3972L12.3398 9.11071L12.3003 9.10487L12.2986 9.10436L12.2353 9.09399L12.2339 9.09362L12.205 9.08843H12.2037L12.1324 9.07485L12.1316 9.07455L12.1074 9.06966H12.1061L12.0691 9.06199L12.0684 9.06148L12.0315 9.05337L12.0133 9.04942L12.0116 9.04906L11.932 9.03007L11.9302 9.02948L11.9176 9.02627L11.8751 9.01538L11.8738 9.01502L11.8318 9.0037L11.8223 9.00114L11.7788 8.98909L11.7774 8.98857L11.7349 8.97601L11.7256 8.97287H11.7247L11.6826 8.95979L11.6813 8.95943L11.6391 8.94584L11.6302 8.94263C11.0635 8.75598 10.5384 8.45085 10.096 8.04403C9.67029 7.65241 9.32052 7.16603 9.08304 6.60018C8.94255 6.26525 8.84986 5.92213 8.80214 5.57886C8.75265 5.2242 8.75095 4.86939 8.79341 4.52314L8.79378 4.52189L8.80332 4.45016L8.80348 4.44906L8.80385 4.44446L8.80437 4.44088V4.43949L8.80562 4.43116L8.81775 4.35344L8.81827 4.3522L8.82286 4.32495V4.32371L8.83388 4.26205L8.8344 4.2603L8.84217 4.22019L8.84246 4.21947L8.85259 4.17016V4.16833L8.86392 4.11727L8.86429 4.11646L8.87339 4.07731L8.87383 4.07563L8.88914 4.01339V4.01251L8.89566 3.98672L8.8961 3.9849L8.91578 3.91229L8.9163 3.91075L8.92133 3.89285L8.94478 3.81476L8.94515 3.81279L8.94936 3.79957L8.96216 3.75925L8.9626 3.75786L8.976 3.71753L8.9791 3.7076C9.16812 3.1484 9.47764 2.63003 9.88949 2.19341C10.2859 1.77307 10.7786 1.42776 11.3515 1.19342C11.6176 1.0845 11.8888 1.00487 12.1606 0.952568C12.4392 0.899314 12.7201 0.875061 12.9985 0.87791C13.8308 0.886895 14.6287 1.14666 15.2977 1.59315C15.9674 2.04007 16.5089 2.67503 16.827 3.43344Z" fill="white"/>
<path fill-rule="evenodd" clip-rule="evenodd" d="M11.1789 0.772205C11.273 0.733708 11.3809 0.777903 11.4199 0.870824C11.4589 0.963744 11.4142 1.07025 11.3201 1.10882C11.2259 1.14732 11.1181 1.1032 11.079 1.01028C11.0401 0.917284 11.0848 0.810703 11.1789 0.772205Z" fill="white"/>
<path fill-rule="evenodd" clip-rule="evenodd" d="M14.7352 0.772225C14.8293 0.810723 14.8739 0.917157 14.8351 1.01022C14.7961 1.10314 14.6882 1.14719 14.5941 1.10877C14.4998 1.07027 14.4551 0.963763 14.4941 0.870843C14.533 0.777777 14.641 0.733727 14.7352 0.772225Z" fill="white"/>
<path fill-rule="evenodd" clip-rule="evenodd" d="M13.438 17.9357C13.4762 17.5629 13.5133 17.1891 13.5529 16.8173C13.5529 16.8173 13.5713 16.6411 13.6238 16.4078C13.6199 16.4085 13.618 16.4092 13.618 16.4092C13.5497 16.423 13.4819 16.4355 13.4144 16.4482C13.2374 17.2833 12.9658 18.7543 12.9536 18.9701C12.979 18.9584 13.0047 18.947 13.03 18.9353C13.03 18.9353 13.0544 18.5923 13.438 17.9357ZM18.1433 8.90001C17.0633 9.85325 16.0398 10.9568 15.2731 12.23C14.5021 13.5106 13.975 14.9542 13.6238 16.4078C15.1489 15.2751 15.9083 13.323 16.7399 12.1331C16.4914 12.0449 16.2584 12.0359 15.995 12.0543C15.979 12.0305 16.3998 11.7074 16.9261 11.7449C17.4474 10.9376 18.5648 9.67238 18.9401 9.27959C18.9401 9.27959 18.4495 9.2904 18.2668 9.37075C18.5844 9.05736 18.9015 8.94071 19.2908 8.91784C20.1583 8.09317 21.5457 7.40292 22.6418 7.04468C20.9472 7.38216 18.3132 7.69782 16.7869 8.9266C16.7835 9.15029 16.7435 9.39705 16.6096 9.6013C16.5825 9.4728 16.4848 9.22282 16.4177 9.13955C15.5373 9.7699 14.7481 10.5346 14.1236 11.795C14.1694 12.0492 14.2074 12.3296 14.3435 12.7549C14.3435 12.7549 13.9816 12.5632 13.903 12.1917C13.4163 13.7454 13.1548 14.6243 13.4144 16.4482C13.7858 14.9252 14.3281 13.4253 15.1333 12.1326C15.9346 10.8459 17.0048 9.77085 18.1433 8.90001Z" fill="white"/>
<path fill-rule="evenodd" clip-rule="evenodd" d="M12.47 17.9357C12.4319 17.5629 12.3947 17.1891 12.3552 16.8173C12.3552 16.8173 12.3368 16.6411 12.2842 16.4078C12.2881 16.4085 12.2901 16.4092 12.2901 16.4092C12.3583 16.423 12.4261 16.4355 12.4937 16.4482C12.6705 17.2833 12.9423 18.7543 12.9543 18.9701C12.929 18.9584 12.9034 18.947 12.8781 18.9353C12.8781 18.9353 12.8537 18.5923 12.47 17.9357ZM7.76463 8.90001C8.84465 9.85325 9.8683 10.9568 10.6349 12.23C11.406 13.5106 11.9329 14.9542 12.2842 16.4078C10.759 15.2751 9.99983 13.323 9.16809 12.1331C9.41651 12.0449 9.64954 12.0359 9.91291 12.0543C9.92911 12.0305 9.50831 11.7074 8.98181 11.7449C8.46055 10.9376 7.34332 9.67238 6.96795 9.27959C6.96795 9.27959 7.4585 9.2904 7.64116 9.37075C7.32357 9.05736 7.00656 8.94071 6.61714 8.91784C5.74966 8.09317 4.36241 7.40292 3.26611 7.04468C4.96082 7.38216 7.59485 7.69782 9.12118 8.9266C9.12451 9.15029 9.16461 9.39705 9.29836 9.6013C9.32544 9.4728 9.42331 9.22282 9.49041 9.13955C10.3706 9.7699 11.16 10.5346 11.7845 11.795C11.7387 12.0492 11.7007 12.3296 11.5644 12.7549C11.5644 12.7549 11.9265 12.5632 12.0051 12.1917C12.4917 13.7454 12.7533 14.6243 12.4937 16.4482C12.1222 14.9252 11.5799 13.4253 10.7748 12.1326C9.97335 10.8459 8.90317 9.77085 7.76463 8.90001Z" fill="white"/>
<path fill-rule="evenodd" clip-rule="evenodd" d="M8.20951 3.31265L8.21017 3.31082C8.21905 3.28694 8.22808 3.26298 8.23725 3.23923L8.25315 3.19818C8.26284 3.17393 8.27275 3.14982 8.2826 3.12564L8.29976 3.08488C8.30989 3.06085 8.32025 3.0371 8.33068 3.01336L8.34873 2.97318C8.35968 2.9493 8.37056 2.92541 8.38195 2.90152C8.38831 2.8883 8.39468 2.87493 8.40111 2.86171C8.41183 2.8395 8.42257 2.81737 8.43381 2.79523C8.44054 2.78179 8.44742 2.76842 8.4543 2.75506C8.46495 2.73431 8.47568 2.71364 8.48656 2.69311C8.49462 2.67791 8.50283 2.66287 8.51104 2.64789C8.52155 2.6286 8.53205 2.60932 8.54286 2.59025C8.55144 2.57499 8.56001 2.55979 8.56875 2.54467C8.58021 2.5248 8.5919 2.505 8.60359 2.48521L8.62734 2.44569C8.64036 2.42414 8.6536 2.40281 8.66684 2.38155L8.68756 2.34875C8.70287 2.32479 8.71848 2.3009 8.73424 2.27716L8.75406 2.24743C8.77012 2.22361 8.78647 2.20002 8.80282 2.17642L8.82479 2.14516C8.84128 2.12193 8.85823 2.0987 8.8751 2.07561L8.89603 2.04749C8.91349 2.02411 8.93102 2.00103 8.94893 1.97794L8.97134 1.94938C8.98954 1.92615 9.00796 1.90307 9.0266 1.88027L9.04621 1.85646C9.06574 1.83286 9.08534 1.80942 9.10539 1.78611L9.1233 1.76537C9.14187 1.74389 9.16073 1.72263 9.17989 1.70145L9.204 1.67471C9.22317 1.65367 9.24233 1.63285 9.26186 1.61218L9.28087 1.59202C9.30306 1.56871 9.32555 1.5457 9.34834 1.52276L9.36661 1.50421C9.38969 1.48135 9.41277 1.4587 9.43622 1.43627L9.45531 1.41786C9.47921 1.39522 9.50325 1.37279 9.52759 1.35058L9.54616 1.33364C9.57102 1.31128 9.59602 1.28908 9.62132 1.26716L9.63848 1.25226C9.66423 1.23005 9.69035 1.20806 9.71661 1.18637L9.73443 1.1719C9.76099 1.15021 9.78762 1.1288 9.81463 1.10762L9.83105 1.09498C9.85879 1.07328 9.8869 1.05188 9.91524 1.03084L9.92826 1.0212C9.95755 0.999503 9.98714 0.978246 10.017 0.956988L10.0199 0.954943L10.0218 0.953701C10.0522 0.932151 10.0832 0.911039 10.1142 0.890293L10.1269 0.881673C10.1575 0.861219 10.1884 0.841349 10.2196 0.821479L10.2332 0.812859C10.2646 0.793062 10.2962 0.773704 10.328 0.754419L10.3418 0.746237C10.3729 0.727609 10.4045 0.709419 10.4362 0.691449L10.4536 0.681587C10.4853 0.66369 10.5173 0.646231 10.5496 0.628991L10.5654 0.62059C10.5983 0.603277 10.6313 0.586183 10.6647 0.569454L10.6791 0.562149C10.7133 0.545202 10.7477 0.528546 10.7825 0.512256L10.794 0.50685C10.8298 0.490122 10.8656 0.473685 10.902 0.45776L10.91 0.454327C10.9477 0.43789 10.9857 0.421746 11.024 0.40604C11.062 0.390554 11.1001 0.375651 11.1382 0.361041L11.1485 0.357169C11.1846 0.343436 11.2207 0.330141 11.2568 0.317357L11.273 0.311732C11.3083 0.29924 11.3437 0.287406 11.3791 0.275864L11.3973 0.27002C11.4325 0.258697 11.4677 0.247667 11.5031 0.23722L11.5209 0.231961C11.5562 0.221441 11.5917 0.211433 11.6273 0.201864L11.6453 0.197116C11.6816 0.1874 11.7178 0.178049 11.7541 0.16921L11.764 0.166946C11.8002 0.15818 11.8364 0.149852 11.8727 0.141889L11.8828 0.139698C11.9184 0.132027 11.954 0.124795 11.9898 0.117856L12.0115 0.113619C12.0455 0.10719 12.0792 0.1012 12.1132 0.0955752L12.1372 0.0915574C12.1702 0.0862247 12.2033 0.0811842 12.2364 0.0764359L12.2661 0.072199C12.2983 0.0678159 12.3304 0.0637251 12.3625 0.0599265L12.3921 0.0566392C12.4248 0.0529136 12.4574 0.0496264 12.49 0.0464852L12.5161 0.0443667C12.5471 0.0415908 12.5782 0.0391801 12.6093 0.0371347L12.6377 0.0351623C12.6667 0.0334091 12.6956 0.0318751 12.7244 0.0305601L12.7602 0.0290261C12.7892 0.0279303 12.8182 0.0271268 12.8473 0.0264693L12.8822 0.0258118C12.9116 0.0254466 12.9409 0.0253005 12.9701 0.0254466C12.9837 0.0254466 12.9971 0.0254466 13.0105 0.0256658C13.0383 0.025958 13.0662 0.0264693 13.094 0.0271998L13.1394 0.0288069C13.166 0.0296835 13.1927 0.0308524 13.2194 0.0322403C13.2347 0.0330439 13.2501 0.0340666 13.2655 0.0349432C13.286 0.036112 13.3066 0.0376461 13.327 0.039034C13.349 0.0407142 13.3709 0.0425404 13.393 0.0443667L13.4454 0.0491881C13.4702 0.0515987 13.4951 0.0542286 13.5199 0.0570045L13.5662 0.0624102C13.5919 0.0654783 13.6175 0.0688387 13.643 0.072272C13.6592 0.0744636 13.6754 0.0768012 13.6915 0.0791388C13.7147 0.0824261 13.7377 0.0860786 13.7609 0.0897311C13.7784 0.0925801 13.7957 0.0954291 13.8131 0.0983511C13.8328 0.101711 13.8523 0.105145 13.8718 0.108724L13.9052 0.115007C13.9357 0.120851 13.966 0.126841 13.9964 0.133123L14.0278 0.139917C14.0592 0.146638 14.0905 0.153724 14.1217 0.160955L14.1462 0.1668C14.1803 0.174981 14.2143 0.183601 14.2481 0.19244L14.2683 0.1977C14.3034 0.207123 14.3385 0.216839 14.3735 0.226993L14.3902 0.231888C14.4283 0.243064 14.4661 0.254606 14.5039 0.26666L14.5116 0.26907C14.6145 0.301943 14.7163 0.338176 14.8166 0.377404L14.8223 0.379742C14.8607 0.394791 14.8988 0.410277 14.9367 0.426202L14.9434 0.429051C14.9818 0.445341 15.0201 0.461997 15.0582 0.479237L15.0601 0.480114C15.0996 0.497938 15.1389 0.516274 15.1778 0.535194C15.4556 0.669315 15.7212 0.828638 15.9708 1.0117L15.9752 1.01492L16.0107 1.04122C16.0297 1.05546 16.0485 1.06971 16.0672 1.0841C16.0809 1.09469 16.0946 1.10543 16.1082 1.11609C16.1261 1.13019 16.144 1.14444 16.1617 1.15883C16.1773 1.17139 16.1928 1.1841 16.2083 1.19696C16.2236 1.2096 16.2388 1.22245 16.2539 1.23531C16.2703 1.24912 16.2867 1.26329 16.303 1.27739C16.317 1.28973 16.331 1.30208 16.3451 1.3145C16.3614 1.32911 16.3778 1.34386 16.3941 1.35891C16.4079 1.37148 16.4215 1.38411 16.435 1.39683C16.4522 1.41297 16.4693 1.42919 16.4862 1.44555L16.5192 1.47769C16.5377 1.49581 16.556 1.514 16.5741 1.53241L16.6036 1.56236C16.6227 1.58201 16.6417 1.60202 16.6606 1.62211L16.6863 1.64958C16.7059 1.67084 16.7255 1.69246 16.7449 1.71416L16.766 1.73775C16.7868 1.76135 16.8073 1.78524 16.8278 1.80927L16.8448 1.82936C16.8659 1.85456 16.8869 1.88013 16.9075 1.90592L16.9222 1.92418C16.9432 1.95033 16.9637 1.97663 16.9841 2.00336L16.9988 2.02243C17.0194 2.04982 17.0399 2.07729 17.0601 2.10512L17.0717 2.12127C17.0923 2.1499 17.1127 2.17883 17.1327 2.20798L17.1428 2.22288C17.1636 2.25298 17.1837 2.28344 17.2037 2.31412L17.2105 2.32464C17.231 2.35634 17.2511 2.38841 17.271 2.42078L17.2769 2.43027C17.2967 2.46278 17.3164 2.49565 17.3356 2.52874L17.3416 2.53934C17.3612 2.57287 17.3801 2.60684 17.3988 2.64095L17.4018 2.64672C17.421 2.682 17.4399 2.71758 17.4584 2.75352L17.4612 2.75929C17.4798 2.79538 17.498 2.83183 17.5155 2.86865L17.5174 2.87252C17.5354 2.91 17.5531 2.94784 17.5703 2.98597L17.5705 2.98677C17.5881 3.02563 17.6053 3.06494 17.6218 3.1046C17.638 3.14325 17.6537 3.18204 17.6688 3.2209L17.6707 3.22528C17.685 3.26217 17.6987 3.29899 17.7121 3.33581L17.7165 3.34815C17.7296 3.38431 17.7421 3.42062 17.7543 3.457L17.7583 3.4692C17.7703 3.50514 17.7816 3.54123 17.7928 3.57724L17.797 3.59148C17.8075 3.6264 17.8177 3.66132 17.8274 3.69624L17.8328 3.71552C17.8422 3.75008 17.8512 3.78463 17.8599 3.81911L17.8646 3.83759C17.873 3.87185 17.8811 3.90626 17.8888 3.94059L17.8934 3.96134C17.9009 3.99524 17.908 4.02913 17.9147 4.06317L17.9188 4.08487C17.9253 4.11833 17.9315 4.15193 17.9373 4.18546L17.9412 4.20898C17.9466 4.24222 17.952 4.2756 17.9568 4.30884L17.96 4.33258C17.9645 4.36414 17.9687 4.39584 17.9725 4.42755L17.9753 4.45275C17.979 4.4838 17.9822 4.51484 17.9852 4.54596L17.9878 4.57277C17.9904 4.60272 17.9926 4.6326 17.9949 4.66248L17.9971 4.69418C17.999 4.7237 18.0006 4.75321 18.0019 4.78279L18.0034 4.8164C18.0046 4.8454 18.0054 4.87462 18.006 4.90355L18.0068 4.94095C18.0072 4.96893 18.0074 4.99705 18.0072 5.02488L18.007 5.06492C18.0067 5.09202 18.0062 5.11897 18.0054 5.14593L18.004 5.19122C18.0031 5.2173 18.0018 5.24331 18.0005 5.26946L17.998 5.31292C17.9963 5.33907 17.9945 5.36545 17.9924 5.39174C17.9912 5.40723 17.99 5.42279 17.9885 5.43835C17.9868 5.458 17.9849 5.4778 17.9829 5.49752C17.9808 5.51936 17.9785 5.54121 17.976 5.56305C17.9742 5.57875 17.9722 5.59461 17.9703 5.61024C17.9672 5.63581 17.9639 5.6613 17.9602 5.68672L17.9547 5.72624C17.9505 5.75422 17.9463 5.78213 17.9416 5.81003L17.936 5.84342C17.9308 5.87366 17.9252 5.90383 17.9195 5.93385L17.9141 5.96117C17.9079 5.99354 17.9011 6.02582 17.8942 6.05782L17.8892 6.08061C17.8812 6.1156 17.873 6.15067 17.8644 6.18559L17.8616 6.19742C17.8522 6.23548 17.8422 6.27339 17.8319 6.31123L17.8306 6.31613C17.7697 6.53732 17.6937 6.75399 17.6028 6.96452C17.5864 7.00266 17.5693 7.04115 17.5518 7.07885C17.3609 7.49356 17.1126 7.88277 16.8122 8.23392L16.792 8.25759C16.7718 8.28082 16.7514 8.30376 16.7309 8.32662L16.7111 8.34861C16.6898 8.37192 16.6682 8.39529 16.6464 8.4183L16.6276 8.43817C16.6056 8.46118 16.5833 8.48405 16.5608 8.50662L16.545 8.52262C16.5213 8.54629 16.4974 8.56952 16.4733 8.59275L16.4596 8.60582C16.4343 8.62978 16.4086 8.65375 16.3827 8.67734L16.3707 8.68837C16.3438 8.71262 16.3166 8.7368 16.2891 8.76069L16.2764 8.77158C16.2494 8.79495 16.2219 8.81804 16.1943 8.84076L16.183 8.85003C16.1552 8.87268 16.1273 8.89518 16.0989 8.91753L16.0874 8.92652C16.0584 8.94909 16.0292 8.9713 15.9996 8.99329L15.9901 9.0003C15.9593 9.02331 15.928 9.04588 15.8965 9.06809L15.8894 9.07306C15.8575 9.09541 15.8254 9.11747 15.7931 9.13909L15.7851 9.14435C15.753 9.1659 15.7205 9.18701 15.6876 9.20776L15.6812 9.21192C15.6476 9.23304 15.6135 9.25393 15.5792 9.27453L15.5756 9.27665C15.5413 9.29725 15.5066 9.31741 15.4717 9.33699L15.4648 9.34101C15.429 9.36117 15.3929 9.38097 15.3564 9.40032L15.3552 9.40098C15.3186 9.42049 15.2817 9.43948 15.2443 9.45803L15.2397 9.46037C15.2033 9.47878 15.1663 9.4966 15.1292 9.51399L15.1238 9.51647C15.0865 9.53408 15.0488 9.55103 15.0108 9.56768L15.0072 9.56936C14.9682 9.58646 14.9287 9.60326 14.8889 9.61947C14.8496 9.63562 14.8101 9.65103 14.7707 9.66615L14.7641 9.66856C14.726 9.68296 14.6879 9.69698 14.6497 9.71042L14.6432 9.71276C14.6046 9.72635 14.5659 9.73935 14.5271 9.75191L14.5226 9.75345C14.4836 9.76601 14.4445 9.77807 14.4055 9.78961L14.3969 9.79224C14.3602 9.80312 14.3234 9.81342 14.2866 9.82343L14.2716 9.82738C14.2361 9.83687 14.2005 9.846 14.1647 9.85484L14.1506 9.85835C14.1137 9.86712 14.0768 9.87566 14.04 9.88363L14.0223 9.88742C13.9892 9.89451 13.9557 9.9013 13.9225 9.90773L13.8946 9.91314C13.8637 9.91891 13.8328 9.92446 13.8019 9.92957L13.7713 9.93469C13.7417 9.93944 13.7121 9.94396 13.6826 9.9482L13.6408 9.95405C13.614 9.9577 13.5873 9.96113 13.5606 9.96435L13.5154 9.96953C13.4895 9.97231 13.4636 9.97501 13.4376 9.97742C13.421 9.97896 13.4043 9.98049 13.3877 9.98195C13.3652 9.9837 13.3428 9.98553 13.3203 9.98721C13.3001 9.9886 13.2797 9.98984 13.2594 9.99108C13.2402 9.99218 13.2213 9.99327 13.2022 9.99415C13.1785 9.99525 13.1549 9.99634 13.1312 9.99707L13.0843 9.99853C13.057 9.99912 13.0295 9.99963 13.0024 9.99978L12.9624 10C12.9345 10 12.9067 9.99978 12.8788 9.99941L12.8416 9.99861C12.8066 9.99788 12.7716 9.99671 12.7366 9.99517L12.7273 9.99473C12.6936 9.99327 12.6599 9.99137 12.6264 9.98911L12.6063 9.98772C12.5736 9.98553 12.541 9.98297 12.5085 9.97998C12.0756 9.9417 11.6514 9.84849 11.2462 9.70429L11.2436 9.70334C11.2125 9.69223 11.1815 9.68084 11.1506 9.66915L11.1303 9.66141C11.0992 9.6495 11.0682 9.6373 11.0374 9.62481L11.0158 9.61597C10.9854 9.60355 10.9553 9.59069 10.9252 9.57769L10.9023 9.56768C10.8731 9.5549 10.8441 9.54182 10.8151 9.52831L10.7894 9.51647C10.7607 9.50303 10.7322 9.48923 10.7036 9.47513L10.6803 9.46358C10.651 9.44912 10.6218 9.43422 10.5927 9.41902L10.5736 9.40894C10.5434 9.39302 10.5134 9.37695 10.4836 9.36036L10.4696 9.3524C10.4403 9.33611 10.4111 9.3196 10.3822 9.30265L10.3658 9.29301C10.3372 9.27628 10.309 9.25912 10.2808 9.2418L10.2663 9.23289C10.2368 9.21456 10.2077 9.19593 10.1785 9.17708L10.163 9.16707C10.1344 9.1483 10.1061 9.12931 10.0779 9.11009L10.0608 9.0984C10.0333 9.07956 10.0062 9.06013 9.97893 9.04062L9.95933 9.02645C9.9327 9.00709 9.90614 8.98751 9.87988 8.96757L9.86131 8.9534C9.83468 8.93309 9.80826 8.91249 9.782 8.8916L9.76551 8.87838C9.73887 8.85697 9.71231 8.8352 9.68605 8.81329L9.67207 8.80145C9.64522 8.77874 9.61844 8.7558 9.59203 8.73249L9.58145 8.72314C9.55489 8.69955 9.52848 8.67581 9.50236 8.65163L9.49748 8.64703C9.46974 8.62138 9.44244 8.5953 9.41529 8.56901L9.40775 8.56185C9.3817 8.5365 9.35603 8.51071 9.3305 8.48478L9.31919 8.47338C9.29463 8.44818 9.27021 8.42254 9.2461 8.39683L9.2333 8.38295C9.20948 8.35745 9.18595 8.33152 9.16258 8.30529L9.15007 8.29112C9.1264 8.26439 9.1031 8.23743 9.08016 8.21018L9.07003 8.19813C9.04702 8.17081 9.02409 8.14305 9.00167 8.11507L8.99043 8.10097C8.96794 8.07285 8.94575 8.04436 8.92377 8.01558L8.91527 8.0044C8.89255 7.97445 8.86992 7.94399 8.84765 7.91331L8.84536 7.9098C8.82287 7.8789 8.80104 7.84756 8.77914 7.816L8.77411 7.80855C8.75236 7.77685 8.73098 7.74463 8.70997 7.71227L8.70435 7.70365C8.68393 7.67209 8.66388 7.64024 8.64413 7.6081L8.63614 7.59546C8.61721 7.56441 8.59864 7.53293 8.58021 7.50137L8.5703 7.48428C8.55218 7.45279 8.53427 7.42109 8.51681 7.38917L8.50904 7.37478C8.49122 7.34205 8.47384 7.30903 8.45667 7.27579L8.44928 7.26118C8.43226 7.2278 8.41546 7.19419 8.39919 7.16045L8.39268 7.14679C8.37588 7.11194 8.35953 7.07658 8.34341 7.04101L8.34052 7.03443C8.32366 6.99688 8.30715 6.95905 8.29118 6.92091C8.27505 6.8822 8.25937 6.84341 8.24428 6.80469L8.24205 6.79914C8.22726 6.76115 8.21305 6.72316 8.19922 6.68503L8.19693 6.67868C8.18339 6.6412 8.17044 6.60351 8.15794 6.56596L8.15454 6.5561C8.14233 6.51906 8.13057 6.48202 8.11932 6.44491L8.11607 6.43432C8.1049 6.39736 8.0941 6.36032 8.08381 6.32329L8.08086 6.31218C8.07057 6.27478 8.06066 6.2373 8.05134 6.19983L8.04949 6.19238C8.04069 6.15658 8.03225 6.12057 8.02419 6.0847L8.02049 6.06863C8.01309 6.03474 8.00607 6.00084 7.99933 5.96694L7.99474 5.94408C7.98838 5.91092 7.98232 5.8776 7.97654 5.84451L7.97255 5.82092C7.96707 5.78834 7.96205 5.75568 7.95731 5.72318L7.95302 5.69381C7.94888 5.66335 7.94488 5.63296 7.94103 5.60257L7.93719 5.56838C7.93401 5.54069 7.93105 5.51279 7.92839 5.4851L7.92454 5.44361C7.92232 5.41804 7.92025 5.39248 7.91847 5.36698L7.91522 5.31833C7.91366 5.29444 7.91248 5.27048 7.9113 5.24659C7.91041 5.22869 7.90959 5.21072 7.90908 5.1929C7.90819 5.17084 7.90752 5.14878 7.907 5.12672C7.90664 5.1067 7.90627 5.08676 7.90612 5.06674C7.90582 5.04716 7.90567 5.02766 7.90582 5.00816C7.90582 4.98558 7.90597 4.96308 7.90641 4.94066L7.90723 4.89632C7.90797 4.86644 7.90893 4.83663 7.91026 4.80705L7.91159 4.77914C7.91329 4.74284 7.91544 4.70668 7.91796 4.67059L7.91884 4.65824C7.92706 4.54596 7.93911 4.43427 7.95487 4.32309L7.95516 4.32155C7.96109 4.27991 7.96745 4.23849 7.97447 4.19715C8.02545 3.89523 8.10424 3.59915 8.20951 3.31265ZM15.184 0.825424C15.1998 0.833678 15.2156 0.84186 15.2312 0.850334C15.2482 0.859319 15.2653 0.868451 15.282 0.877728C15.2982 0.886421 15.314 0.895406 15.33 0.904245C15.3477 0.914253 15.3653 0.924261 15.383 0.934561C15.3989 0.943839 15.4149 0.953189 15.4309 0.962686C15.4469 0.972109 15.4628 0.981752 15.4788 0.991541C15.4951 1.0014 15.5112 1.01141 15.5274 1.02156C15.5437 1.03172 15.56 1.04224 15.5763 1.05268C15.593 1.06342 15.6096 1.07438 15.6263 1.08526C15.6412 1.09513 15.656 1.10513 15.6708 1.11514C15.6875 1.12647 15.7042 1.13779 15.7207 1.14933C15.7356 1.1597 15.7506 1.17037 15.7655 1.18103C15.7837 1.19389 15.8017 1.20697 15.8196 1.22019L15.8555 1.24678C15.873 1.25986 15.8905 1.27322 15.9078 1.28652C15.9215 1.29704 15.9351 1.3077 15.9488 1.31837C15.9639 1.33028 15.979 1.34233 15.9939 1.35446C16.5853 1.83228 17.0692 2.45686 17.3821 3.20271C17.9311 4.51156 17.8407 5.92421 17.2534 7.10274C17.2437 7.12217 17.234 7.14145 17.2241 7.16059L17.2011 7.20457C17.1909 7.22371 17.1808 7.2427 17.1704 7.26155C17.162 7.27711 17.1534 7.29267 17.1447 7.30801C17.1355 7.32437 17.1263 7.34052 17.1171 7.35666C17.1072 7.37375 17.0973 7.39085 17.0872 7.40779C17.0779 7.42343 17.0683 7.43906 17.0589 7.45477C17.0483 7.47208 17.0377 7.48925 17.0269 7.50649C17.0178 7.52102 17.0087 7.53541 16.9995 7.54981C16.9875 7.56821 16.9756 7.58677 16.9634 7.60503L16.939 7.64163C16.9252 7.66209 16.9112 7.68239 16.8972 7.70255L16.8749 7.73426C16.8601 7.75486 16.8453 7.7756 16.8302 7.79591L16.8076 7.82637C16.7913 7.84822 16.7749 7.86977 16.7582 7.89139L16.7413 7.91309C16.7227 7.93675 16.7039 7.96042 16.6849 7.9838L16.6706 8.00111C16.6511 8.02471 16.6313 8.04816 16.6114 8.07146L16.5958 8.0895C16.5751 8.11339 16.5542 8.13713 16.5329 8.1608L16.5227 8.17205C16.4997 8.19733 16.4765 8.22238 16.453 8.24729L16.4452 8.2554C15.9945 8.72899 15.4371 9.11776 14.7896 9.38272C14.1506 9.64395 13.4874 9.75842 12.8379 9.74213C12.8162 9.74162 12.7944 9.74088 12.7727 9.74008C12.7565 9.73942 12.7403 9.73884 12.7241 9.73804C12.702 9.73687 12.6798 9.73563 12.6576 9.73431C12.6404 9.73329 12.6233 9.73205 12.6062 9.73073C12.5849 9.72934 12.5638 9.72752 12.5428 9.72576C12.5243 9.72423 12.5058 9.7224 12.4873 9.72058C12.469 9.71889 12.4507 9.71685 12.4325 9.71495C12.4118 9.71261 12.3909 9.71028 12.3703 9.70772L12.32 9.70136C12.2975 9.69837 12.2752 9.69516 12.2526 9.69187L12.2073 9.685C12.1825 9.68106 12.1578 9.67704 12.1329 9.67273L12.099 9.66667C12.0711 9.66162 12.0431 9.65637 12.0153 9.65089L11.9869 9.64511C11.9581 9.6392 11.9292 9.63306 11.9005 9.62663L11.8795 9.62181C11.8482 9.61473 11.8172 9.6072 11.7861 9.59953L11.7713 9.59581C11.7382 9.58748 11.7051 9.57871 11.6722 9.5698L11.6614 9.56673C11.628 9.55746 11.5946 9.54781 11.5613 9.53766L11.5509 9.53459C11.5179 9.52458 11.4849 9.51414 11.452 9.5034L11.4419 9.50004C10.171 9.08131 9.08409 8.14115 8.53102 6.8228C8.2044 6.04438 8.10438 5.22928 8.20018 4.44837C8.20381 4.41908 8.20758 4.38971 8.21172 4.36034L8.21202 4.3591L8.21409 4.34427C8.21853 4.31388 8.22319 4.28342 8.22822 4.2531L8.23355 4.22111C8.23776 4.197 8.2422 4.17289 8.24671 4.14886L8.25582 4.10189C8.25966 4.08253 8.26359 4.06332 8.2678 4.04389C8.27202 4.02387 8.27638 4.00393 8.28089 3.98406L8.29155 3.93796C8.29725 3.91356 8.30324 3.88924 8.30952 3.86491L8.31729 3.83467C8.32476 3.80618 8.33239 3.77769 8.3403 3.74942L8.34629 3.72845C8.35502 3.69807 8.36397 3.66775 8.37337 3.63743L8.37818 3.62195C8.38802 3.59039 8.39815 3.55876 8.40873 3.52735L8.41243 3.51632C8.83677 2.26174 9.78859 1.18885 11.1235 0.64287C12.4903 0.0838871 13.9689 0.195874 15.184 0.825424Z" fill="white"/>
<path fill-rule="evenodd" clip-rule="evenodd" d="M40.0485 20.6739C36.317 19.4525 32.2059 19.2455 27.7964 19.2924L28.3017 18.233C32.4269 18.4942 36.2545 18.9006 40.0485 20.6739C43.8425 18.9006 47.6701 18.4942 51.7954 18.233L52.3006 19.2924C47.8912 19.2455 43.78 19.4525 40.0485 20.6739ZM34.9346 8.87843C36.015 9.83203 37.039 10.936 37.8059 12.2097C38.5774 13.4906 39.1044 14.9348 39.4557 16.3888C37.93 15.2558 37.1706 13.3031 36.3386 12.1127C36.5872 12.0244 36.8202 12.0156 37.0836 12.0338C37.0999 12.0101 36.6787 11.6869 36.1523 11.7245C35.6307 10.9168 34.5131 9.65115 34.1377 9.25814C34.1377 9.25814 34.6284 9.26895 34.8111 9.34938C34.4934 9.03592 34.1763 8.91919 33.7867 8.8964C32.9189 8.07129 31.5312 7.38096 30.4345 7.0225C32.1298 7.35999 34.7647 7.67594 36.2916 8.90509C36.295 9.12899 36.335 9.37568 36.469 9.58008C36.4959 9.45144 36.5938 9.20146 36.6609 9.11818C37.5416 9.74882 38.3311 10.5137 38.9558 11.7745C38.91 12.0288 38.8719 12.3092 38.7357 12.7347C38.7357 12.7347 39.0979 12.543 39.1764 12.1714C39.6633 13.7256 39.9249 14.6049 39.6652 16.4292C39.2937 14.9058 38.7512 13.4052 37.9458 12.1122C37.1441 10.8251 36.0735 9.74955 34.9346 8.87843ZM40.6107 17.9173C40.6488 17.5444 40.6861 17.1705 40.7256 16.7986C40.7256 16.7986 40.7441 16.6223 40.7966 16.3888C40.7928 16.3897 40.7908 16.3902 40.7908 16.3902C40.7224 16.4041 40.6547 16.4166 40.5871 16.4292C40.41 17.2646 40.1383 18.7363 40.1261 18.9521C40.1008 18.9404 40.0751 18.9289 40.0497 18.9173C40.0497 18.9173 40.0255 18.5741 39.6416 17.9173C39.6034 17.5444 39.5664 17.1705 39.5267 16.7986C39.5267 16.7986 39.5082 16.6223 39.4557 16.3888C39.4596 16.3897 39.4615 16.3902 39.4615 16.3902C39.53 16.4041 39.5977 16.4166 39.6652 16.4292C39.8422 17.2646 40.114 18.7363 40.1261 18.9521C40.1515 18.9404 40.1772 18.9289 40.2025 18.9173C40.2025 18.9173 40.2269 18.5741 40.6107 17.9173ZM45.3176 8.87843C44.2372 9.83203 43.2134 10.936 42.4464 12.2097C41.6751 13.4906 41.1479 14.9348 40.7966 16.3888C42.3222 15.2558 43.0818 13.3031 43.9138 12.1127C43.6653 12.0244 43.4322 12.0156 43.1687 12.0338C43.1525 12.0101 43.5735 11.6869 44.1001 11.7245C44.6216 10.9168 45.7393 9.65115 46.1147 9.25814C46.1147 9.25814 45.6239 9.26895 45.4413 9.34938C45.7589 9.03592 46.0761 8.91919 46.4656 8.8964C47.3334 8.07129 48.7212 7.38096 49.8177 7.0225C48.1225 7.35999 45.4876 7.67594 43.9607 8.90509C43.9573 9.12899 43.9173 9.37568 43.7834 9.58008C43.7564 9.45144 43.6585 9.20146 43.5914 9.11818C42.7108 9.74882 41.9213 10.5137 41.2965 11.7745C41.3423 12.0288 41.3804 12.3092 41.5166 12.7347C41.5166 12.7347 41.1544 12.543 41.0758 12.1714C40.5891 13.7256 40.3275 14.6049 40.5871 16.4292C40.9587 14.9058 41.5012 13.4052 42.3066 12.1122C43.1082 10.8251 44.1787 9.74955 45.3176 8.87843ZM40.077 0.0566142C38.9151 1.3914 38.3305 3.15045 38.3213 4.91989C39.4643 6.24875 40.1261 8.03374 40.1261 9.97177C38.9143 8.57965 38.3118 6.74454 38.3213 4.91989C37.4118 3.86255 36.1975 3.09369 34.7695 2.7665C34.7625 2.85672 34.7574 2.94708 34.7544 3.03737V3.16477H34.7515C34.7122 6.28009 37.0351 9.26735 40.1261 9.97177C40.1261 8.03396 40.7878 6.24926 41.9307 4.92025C41.9506 6.73388 41.3662 8.54743 40.1754 9.91531L40.1261 9.97177C43.3488 9.23725 45.7365 6.02163 45.4828 2.7665C44.0546 3.09369 42.8402 3.86255 41.9307 4.92025C41.9111 3.13942 41.309 1.35867 40.1261 0L40.077 0.0566142ZM40.0485 20.6739C36.317 18.6382 32.2059 17.6699 27.7964 17.5401C29.1929 14.1363 29.6182 10.824 29.5251 7.36964C30.242 10.6292 30.1635 13.3633 29.5745 16.5435C33.9689 17.3142 37.424 18.6295 40.0485 20.6739C43.78 18.6382 47.8912 17.6699 52.3006 17.5401C50.9043 14.1363 50.4789 10.824 50.5722 7.36964C49.8552 10.6292 49.9336 13.3633 50.5227 16.5435C46.1281 17.3142 42.6731 18.6295 40.0485 20.6739Z" fill="white"/>
</svg>
