<svg width="51" height="18" viewBox="0 0 51 18" fill="none" xmlns="http://www.w3.org/2000/svg">
<path d="M11.0599 7.72858C11.0599 7.37266 11.0518 7.02653 11.0663 6.68128C11.0694 6.60604 11.1411 6.52201 11.2023 6.46235C12.1269 5.56141 13.0545 4.66318 13.9841 3.76711C14.0443 3.70912 14.1276 3.67366 14.2303 3.60859C13.8444 3.24238 13.5154 2.93021 13.1509 2.58437C13.2709 2.57641 13.3326 2.56879 13.3944 2.56871C14.3188 2.568 15.2431 2.57296 16.1674 2.56437C16.3558 2.56263 16.4103 2.61403 16.4094 2.79876C16.4021 4.37483 16.4052 5.95095 16.4053 7.52706V7.72858H11.0599Z" fill="white"/>
<path d="M15.3615 13.286C15.7184 12.9203 16.0322 12.5988 16.3875 12.2348V15.3838C16.3118 15.3895 16.2357 15.4001 16.1595 15.4001C14.5476 15.401 12.9357 15.3982 11.3238 15.4042C11.1276 15.4049 11.0524 15.3648 11.0537 15.1531C11.0636 13.5843 11.059 12.0154 11.0589 10.4466V10.2281C11.4503 10.2281 11.8337 10.2219 12.2164 10.2344C12.2786 10.2364 12.3431 10.3167 12.3976 10.3695C13.3156 11.2569 14.2325 12.1453 15.1481 13.035C15.2135 13.0985 15.2666 13.1737 15.3615 13.286Z" fill="white"/>
<path d="M11.6104 8.93746C11.8575 8.70261 12.0966 8.46243 12.3527 8.24082C12.422 8.18088 12.5431 8.15205 12.6407 8.15164C13.923 8.14588 15.2055 8.14917 16.4878 8.14696C16.8851 8.1463 16.8466 8.20479 16.8492 7.78693C16.8511 7.46201 16.8495 7.13704 16.8495 6.83704C17.5888 7.55474 18.3326 8.27683 19.0654 8.98821C17.8511 10.1639 16.6009 11.3743 15.3631 12.5727C14.1317 11.3798 12.8819 10.1692 11.6104 8.93746Z" fill="white"/>
<path d="M4.19374 4.7259C3.8637 5.05286 3.54909 5.36454 3.19381 5.71646C3.18225 5.60659 3.17141 5.5511 3.17133 5.49565C3.17025 4.59317 3.17184 3.69068 3.16896 2.78824C3.16857 2.65647 3.17472 2.56465 3.35703 2.56519C5.01918 2.57019 6.68134 2.5681 8.34345 2.5689C8.38533 2.56894 8.42721 2.57815 8.48406 2.58485V7.74368C8.10994 7.74368 7.73944 7.75098 7.3698 7.73718C7.30062 7.7346 7.22709 7.65515 7.16849 7.59858C6.2347 6.69697 5.30305 5.79328 4.37067 4.89026C4.32057 4.84172 4.26842 4.79519 4.19374 4.7259Z" fill="white"/>
<path d="M0.500977 8.97039C1.71808 7.79023 2.96661 6.57966 4.20546 5.37842C5.43766 6.57186 6.68236 7.77744 7.94611 9.00142C7.69557 9.24514 7.44004 9.50387 7.16994 9.74737C7.11895 9.79333 7.00991 9.79033 6.92766 9.79046C5.61691 9.79296 4.30608 9.79746 2.99542 9.78717C2.7748 9.78542 2.71185 9.84483 2.72209 10.0552C2.7398 10.4201 2.72699 10.7865 2.72699 11.1413C1.97868 10.4115 1.23527 9.68651 0.500977 8.97039Z" fill="white"/>
<path d="M9.75025 7.1836C9.51395 6.95725 9.24612 6.70911 8.99158 6.44877C8.94764 6.40381 8.94863 6.30695 8.9485 6.23404C8.946 4.95023 8.94261 3.66633 8.95078 2.38252C8.95202 2.19175 8.89725 2.1278 8.69873 2.13476C8.32208 2.14788 7.94458 2.13855 7.58887 2.13855C8.33112 1.4198 9.07164 0.70267 9.79729 0C11.0029 1.1707 12.2495 2.38119 13.4795 3.57564C12.2596 4.75592 11.0105 5.96432 9.75025 7.1836Z" fill="white"/>
<path d="M5.37013 14.418C5.70972 14.7361 6.04049 15.0458 6.40123 15.3837C6.30462 15.3922 6.25689 15.4 6.20916 15.4001C5.27047 15.4008 4.33177 15.3992 3.39303 15.4021C3.25367 15.4025 3.16643 15.3876 3.16699 15.2148C3.17237 13.6039 3.17009 11.9931 3.17082 10.3822C3.17082 10.3412 3.18019 10.3002 3.18729 10.2421H8.49718C8.49718 10.6003 8.50345 10.9653 8.49111 11.3297C8.48901 11.3912 8.41402 11.4573 8.36041 11.5093C7.42962 12.4142 6.49681 13.3171 5.56473 14.2207C5.50966 14.2741 5.45703 14.3298 5.37013 14.418Z" fill="white"/>
<path d="M12.0415 15.8303C11.2551 16.5884 10.5153 17.3017 9.79107 18C8.55311 16.8006 7.3042 15.5906 6.06543 14.3905C7.29409 13.2014 8.54379 11.9919 9.81076 10.7656C10.0526 11.0014 10.3143 11.2466 10.5607 11.5054C10.6087 11.5558 10.6113 11.6591 10.6115 11.738C10.6145 13.0148 10.6189 14.2916 10.6085 15.5683C10.6068 15.7845 10.6768 15.8429 10.8895 15.8344C11.2577 15.8196 11.6271 15.8303 12.0415 15.8303Z" fill="white"/>
<path d="M46.7011 13.7709C46.2157 13.3398 46.0558 12.8235 46.2556 12.234C46.4626 11.6232 46.96 11.3345 47.584 11.2211C48.0816 11.1307 48.5632 11.1987 49.0418 11.3482C49.1772 11.3905 49.3363 11.3732 49.4837 11.366C49.8172 11.3495 50.1501 11.3223 50.4997 11.2983V12.1593H49.8663C49.8719 12.2634 49.8698 12.3371 49.8806 12.409C49.9666 12.9827 49.7332 13.4457 49.2038 13.7288C48.7073 13.9941 48.1706 14.0321 47.6194 13.9773C47.507 13.966 47.3942 13.958 47.2588 13.9465C47.2522 14.0808 47.2465 14.1957 47.2394 14.3386C47.3419 14.3436 47.4311 14.3486 47.5204 14.3524C48.0488 14.3746 48.5802 14.3704 49.1049 14.4261C49.6119 14.4799 50.0297 14.7077 50.1549 15.2366C50.295 15.8284 50.1307 16.3364 49.633 16.7226C49.2793 16.997 48.8564 17.105 48.4174 17.1438C47.8589 17.1931 47.2996 17.1784 46.7559 17.0287C46.2433 16.8876 45.9837 16.5665 46.0176 16.0927C46.0287 15.9374 46.1171 15.7801 46.1985 15.6389C46.2784 15.5006 46.3941 15.3816 46.5049 15.2404C46.0057 14.7469 46.3822 14.2666 46.7011 13.7709ZM48.0407 15.3684C47.8115 15.3684 47.5822 15.3642 47.3532 15.3716C47.299 15.3733 47.2125 15.4017 47.1976 15.439C47.0871 15.7176 47.0373 16.0091 47.4198 16.1486C47.681 16.2438 47.9747 16.2781 48.2563 16.291C48.542 16.304 48.8387 16.2558 49.0597 16.0594C49.1519 15.9775 49.2357 15.8169 49.218 15.7083C49.2004 15.6002 49.0635 15.4938 48.9541 15.4221C48.8793 15.3729 48.7624 15.3742 48.6637 15.3709C48.4562 15.3639 48.2484 15.3688 48.0407 15.3684ZM47.3245 12.6429C47.321 13.0331 47.5961 13.2937 48.0191 13.3008C48.4184 13.3075 48.7442 13.0079 48.7446 12.6335C48.745 12.247 48.4564 11.9602 48.0612 11.9545C47.6177 11.9482 47.3285 12.2184 47.3245 12.6429Z" fill="white"/>
<path d="M23.0797 15.3653H21.8555C21.8513 15.2899 21.8437 15.217 21.8437 15.1441C21.843 13.589 21.8463 12.0338 21.8389 10.4787C21.838 10.2958 21.889 10.2331 22.079 10.2431C22.3433 10.2569 22.6093 10.2538 22.874 10.244C23.0335 10.238 23.0851 10.2911 23.0828 10.4468C23.0746 11.0021 23.0868 11.5577 23.0758 12.1129C23.0721 12.2971 23.1316 12.3522 23.3204 12.3485C23.879 12.3376 24.4381 12.3386 24.9968 12.348C25.1697 12.351 25.2158 12.2938 25.2133 12.1331C25.2048 11.5778 25.2166 11.0222 25.2062 10.467C25.203 10.2904 25.2656 10.2382 25.4408 10.2437C25.775 10.2542 26.1098 10.2467 26.4561 10.2467V15.3592H25.2174V13.2465H24.8244C24.3157 13.2466 23.8069 13.2524 23.2983 13.2433C23.1305 13.2403 23.0734 13.2879 23.0762 13.4546C23.0855 14.0099 23.0797 14.5653 23.0797 15.1208V15.3653Z" fill="white"/>
<path d="M37.2169 15.0825C36.7902 15.4486 36.3529 15.4996 35.8803 15.4254C35.1871 15.3164 34.7436 14.9324 34.5363 14.2929C34.3773 13.802 34.3484 13.2975 34.4542 12.7927C34.6131 12.0346 35.2123 11.4801 36.0418 11.3535C36.4124 11.2969 36.7937 11.3062 37.2032 11.2839V9.85986H38.4582V10.0916C38.4582 11.7779 38.4547 13.4642 38.4629 15.1505C38.4638 15.3527 38.4054 15.4199 38.1979 15.4056C37.9628 15.3893 37.725 15.3922 37.4894 15.4048C37.297 15.4151 37.1574 15.3928 37.2169 15.0825ZM37.2059 13.3101C37.2059 13.026 37.1979 12.7416 37.2092 12.4579C37.2151 12.3098 37.1446 12.256 37.0119 12.2525C36.8191 12.2474 36.624 12.2312 36.4338 12.2522C36.0869 12.2905 35.8352 12.4691 35.7179 12.7967C35.605 13.1117 35.6054 13.434 35.6687 13.7595C35.767 14.265 36.1036 14.5177 36.6273 14.4647C36.7615 14.4511 36.8929 14.4127 37.0264 14.3908C37.1628 14.3685 37.2133 14.2987 37.2088 14.1623C37.1993 13.8785 37.2059 13.5942 37.2059 13.3101Z" fill="white"/>
<path d="M25.7861 7.69801C25.9865 7.12145 26.173 6.58542 26.3591 6.04928C26.7368 4.96061 27.1171 3.87277 27.4885 2.78211C27.5369 2.64012 27.6024 2.5868 27.7595 2.59038C28.2104 2.60067 28.6618 2.59704 29.1129 2.59196C29.2287 2.59063 29.2913 2.61896 29.3313 2.73499C29.8905 4.35585 30.4553 5.97491 31.018 7.59464C31.0245 7.61343 31.0228 7.63493 31.027 7.6758C30.9731 7.68334 30.9208 7.69655 30.8683 7.69693C30.5819 7.69905 30.2943 7.68284 30.0094 7.70326C29.8097 7.71755 29.7349 7.63872 29.6839 7.46799C29.5746 7.10249 29.4391 6.74432 29.3301 6.37878C29.2857 6.22996 29.2087 6.18747 29.0559 6.1908C28.6336 6.20009 28.2108 6.20117 27.7885 6.19097C27.6268 6.18705 27.548 6.23205 27.5012 6.3892C27.3866 6.77461 27.2453 7.15249 27.1262 7.53678C27.089 7.65705 27.0344 7.7038 26.9024 7.7008C26.5455 7.69271 26.1884 7.69801 25.7861 7.69801ZM28.9691 5.31511C28.7914 4.65777 28.6208 4.02626 28.4501 3.39475L28.3847 3.39737C28.2149 4.03113 28.0451 4.66489 27.8709 5.31511H28.9691Z" fill="white"/>
<path d="M40.7375 7.69708C40.3417 7.69708 39.957 7.7025 39.573 7.69034C39.5238 7.68879 39.4548 7.60322 39.4338 7.54377C39.2977 7.15752 39.1657 6.76965 39.0469 6.37811C39.0027 6.23217 38.9298 6.1863 38.7753 6.19009C38.3531 6.20046 37.9301 6.20342 37.5081 6.18925C37.3279 6.18321 37.2608 6.24971 37.2133 6.40723C37.1012 6.77898 36.9597 7.14248 36.8484 7.51444C36.8034 7.6648 36.7286 7.70592 36.5758 7.70125C36.2334 7.69088 35.8905 7.698 35.5186 7.698C35.5356 7.62609 35.5429 7.57535 35.5595 7.52756C36.1103 5.94029 36.6634 4.35371 37.2109 2.76535C37.2536 2.64149 37.3087 2.58816 37.4503 2.59079C37.9084 2.59925 38.3668 2.59662 38.8251 2.59216C38.9396 2.59104 39.0027 2.61675 39.0433 2.73465C39.6044 4.36246 40.1718 5.98828 40.737 7.6148C40.7412 7.62697 40.7375 7.64171 40.7375 7.69708ZM38.1664 3.39678C38.1439 3.39711 38.1213 3.39745 38.0988 3.39778C37.9295 4.03159 37.7601 4.66543 37.5873 5.31181H38.6812C38.5046 4.65518 38.3355 4.026 38.1664 3.39678Z" fill="white"/>
<path d="M35.0377 2.88146C34.936 3.11706 34.8421 3.35628 34.7255 3.58467C34.7041 3.62654 34.5883 3.64575 34.5199 3.63888C34.1027 3.5968 33.6871 3.53839 33.2696 3.4994C33.1755 3.4906 33.0698 3.52352 32.9799 3.56084C32.6817 3.68483 32.6285 4.00463 32.8891 4.19069C33.071 4.32059 33.2853 4.40908 33.489 4.50869C33.8398 4.68017 34.2096 4.82053 34.5425 5.01943C35.1999 5.41213 35.4434 6.02002 35.2388 6.67541C35.0842 7.17052 34.7031 7.44599 34.2262 7.61859C34.0943 7.66638 33.957 7.70042 33.8019 7.74674C33.9204 8.07658 34.0619 8.40154 33.8395 8.72738C33.5929 9.08834 33.2024 9.24815 32.795 9.42289C32.6565 9.1907 32.5222 8.96548 32.3802 8.72742C32.4921 8.66164 32.5968 8.60448 32.6967 8.54036C32.9472 8.37971 33.0239 8.12237 32.8807 7.87194C32.8531 7.82365 32.7556 7.80407 32.6862 7.78849C32.3121 7.70462 31.936 7.62896 31.5623 7.54348C31.4887 7.52664 31.4225 7.47911 31.3389 7.43903C31.4421 7.18398 31.5464 6.94229 31.637 6.69582C31.6871 6.55933 31.769 6.60896 31.8584 6.63533C32.4132 6.79897 32.9773 6.87034 33.5519 6.76065C33.7678 6.7194 33.9635 6.62991 34.0184 6.38794C34.0663 6.17671 33.9786 6.01123 33.8002 5.90829C33.5864 5.78493 33.3555 5.68935 33.1316 5.58224C32.8054 5.42609 32.4622 5.29619 32.1564 5.10875C31.6312 4.78675 31.4405 4.29093 31.525 3.70641C31.6027 3.1686 31.9662 2.84576 32.4721 2.67553C33.3261 2.3881 34.1621 2.48455 34.9776 2.83168C34.996 2.83955 35.0098 2.85792 35.0377 2.88146Z" fill="white"/>
<path d="M23.0871 7.68354H21.8564V2.61066C21.9057 2.6045 21.9466 2.59496 21.9874 2.59496C22.6822 2.595 23.3778 2.57754 24.0713 2.60616C24.3566 2.61795 24.6572 2.68782 24.9169 2.80297C26.1213 3.33675 26.2817 4.9761 25.2188 5.75393C24.7287 6.11264 24.1582 6.21875 23.5632 6.24354C23.4146 6.24971 23.2655 6.24446 23.0871 6.24446V7.68354ZM23.0829 4.42312C23.0829 4.65876 23.0897 4.89461 23.0805 5.12992C23.0746 5.27782 23.1348 5.3266 23.2814 5.31681C23.4452 5.3059 23.6107 5.31702 23.7745 5.30544C24.2407 5.2724 24.5694 5.01172 24.6271 4.59614C24.7032 4.0492 24.5108 3.51252 23.7291 3.52802C23.5718 3.53114 23.4141 3.53381 23.2571 3.52652C23.1269 3.52048 23.0784 3.57068 23.0814 3.6955C23.0871 3.93793 23.0831 4.18057 23.0829 4.42312Z" fill="white"/>
<path d="M44.1135 15.3579C44.1135 14.5781 44.115 13.8158 44.1121 13.0535C44.1116 12.9154 44.0949 12.7773 44.0829 12.6395C44.063 12.4111 43.9285 12.2899 43.6982 12.2656C43.333 12.2272 42.9851 12.3011 42.658 12.4505C42.6011 12.4765 42.5618 12.5954 42.5611 12.6718C42.5542 13.4835 42.5566 14.2953 42.5566 15.1071C42.5566 15.1884 42.5566 15.2698 42.5566 15.3732C42.1599 15.3732 41.7894 15.3787 41.4196 15.3652C41.3798 15.3637 41.3129 15.252 41.3117 15.1905C41.3026 14.7189 41.3065 14.247 41.3065 13.7752C41.3064 13.0467 41.3065 12.3182 41.3065 11.5896V11.3257H42.5417C42.5507 11.4382 42.5602 11.5582 42.5726 11.7158C42.6647 11.663 42.7361 11.6249 42.8046 11.5823C43.2999 11.2744 43.8339 11.1372 44.4194 11.2505C45.0129 11.3653 45.3012 11.6306 45.3275 12.2642C45.3701 13.2882 45.339 14.3151 45.339 15.3579H44.1135Z" fill="white"/>
<path d="M31.5005 13.3424C31.5103 14.9899 29.8089 15.9421 28.3149 15.1298C27.7998 14.8497 27.5389 14.3991 27.4532 13.8537C27.3851 13.4196 27.3957 12.9826 27.5476 12.5589C27.8208 11.7974 28.4921 11.3298 29.3687 11.3122C29.6101 11.3074 29.8579 11.3232 30.0933 11.372C30.9454 11.5486 31.4487 12.1438 31.4996 13.0094C31.5061 13.12 31.5005 13.2314 31.5005 13.3424ZM28.59 13.391C28.6242 13.569 28.6426 13.7923 28.7128 13.9991C28.8203 14.316 29.1077 14.4712 29.4938 14.4631C29.8879 14.4548 30.1291 14.2949 30.234 13.9504C30.3494 13.5704 30.348 13.1833 30.2462 12.8014C30.1419 12.4108 29.8805 12.2239 29.4672 12.221C29.055 12.2181 28.7699 12.4224 28.672 12.813C28.6286 12.9863 28.6203 13.1677 28.59 13.391Z" fill="white"/>
<rect x="32.3936" y="9.86414" width="1.24217" height="5.49592" fill="white"/>
<path d="M39.3451 11.399H40.5163V15.3749C40.1475 15.3749 39.772 15.3776 39.3967 15.3696C39.3682 15.369 39.3172 15.2928 39.3172 15.2516C39.314 13.9895 39.3158 12.7273 39.3179 11.4652C39.318 11.4463 39.3331 11.4274 39.3451 11.399Z" fill="white"/>
<path d="M39.3473 9.56433H40.4785V10.6744C40.1355 10.6744 39.7884 10.6773 39.4415 10.6695C39.4093 10.6688 39.3523 10.6005 39.3515 10.5627C39.3443 10.2376 39.3473 9.91229 39.3473 9.56433Z" fill="white"/>
</svg>
