<svg xmlns="http://www.w3.org/2000/svg" width="10.037" height="10.03" viewBox="0 0 10.037 10.03">
  <path id="Path_2000" data-name="Path 2000" d="M287.269,242.044a9.08,9.08,0,0,1-8.123-8.12,1.676,1.676,0,0,1,1.165-1.67l.684-.215a.51.51,0,0,1,.626.3l.86,2.138a.507.507,0,0,1-.1.533l-.674.738a.44.44,0,0,0-.08.453,6.823,6.823,0,0,0,3.362,3.365.44.44,0,0,0,.453-.083l.742-.674a.5.5,0,0,1,.53-.1l2.141.86a.51.51,0,0,1,.3.642l-.218.684A1.67,1.67,0,0,1,287.269,242.044Z" transform="translate(-279.145 -232.017)" fill="#fff"/>
</svg>
