<svg xmlns="http://www.w3.org/2000/svg" width="93.26" height="93.27" viewBox="0 0 93.26 93.27">
  <g id="Group_932" data-name="Group 932" transform="translate(1281.979 -20.744)">
    <path id="Path_2185" data-name="Path 2185" d="M-1214.416,20.744a2.225,2.225,0,0,0,.325.152,5.422,5.422,0,0,1,4.224,5.537q.012,12.657,0,25.315V52.97c.274-.422.438-.653.579-.9,1.7-2.937,3.339-5.917,5.128-8.8a7.858,7.858,0,0,1,7.37-3.868,7.948,7.948,0,0,1,7.168,4.681,8.156,8.156,0,0,1-.377,8.089q-3.977,6.894-7.956,13.787-5.753,9.965-11.491,19.939a3.236,3.236,0,0,0-.4,1.53c-.026,6.86-.016,13.72-.018,20.58,0,3.755-2.243,5.99-6.007,5.991-4.279,0-8.558,0-12.837,0a1.878,1.878,0,0,1-1.907-1.123,1.51,1.51,0,0,1,.368-1.909,2.907,2.907,0,0,1,1.633-.588c4.187-.048,8.376-.026,12.564-.026,2,0,2.544-.54,2.545-2.531q0-6.83,0-13.659v-.891l-.163-.065c-.6,1.027-1.131,2.1-1.817,3.065a8.913,8.913,0,0,1-1.994,2.157c-3.692,2.6-7.449,5.118-11.173,7.677a2.012,2.012,0,0,1-2.355.327,2.022,2.022,0,0,1-.88-2.133c.375-4.81.725-9.621,1.121-14.429a3.813,3.813,0,0,1,.509-1.436c.693-1.275,1.438-2.522,2.262-3.952h-36.834a8.122,8.122,0,0,1-.91-.016,1.832,1.832,0,0,1-1.664-1.844,1.813,1.813,0,0,1,1.733-1.771c.3-.024.606-.011.91-.011q19.028,0,38.056.014a1.187,1.187,0,0,0,1.216-.675c3.859-6.734,7.751-13.45,11.612-20.184a2.868,2.868,0,0,0,.357-1.361q.029-15.981.014-31.962c0-1.67-.631-2.29-2.327-2.29q-30.09,0-60.18,0c-1.656,0-2.322.625-2.322,2.2q0,32.873,0,65.746v.732c.362.018.68.046,1,.046,3.4,0,6.8-.005,10.2,0,3.77.011,6,2.233,6.013,6,.012,3.339,0,6.678,0,10.017v1.226h1.015q7.238,0,14.476,0a1.877,1.877,0,0,1,2.06,1.413,1.838,1.838,0,0,1-1.976,2.222c-2.519.016-5.038,0-7.556.005-3.126,0-6.252-.015-9.377.01a2.64,2.64,0,0,1-2.03-.814q-8.321-8.354-16.66-16.69a8.933,8.933,0,0,1-.8-1.085V25.3a5.974,5.974,0,0,1,4.553-4.554Zm9.2,31.574L-1226.447,89.1l8.2,4.732,21.232-36.783Zm1.821-3.162,8.212,4.74c.8-1.412,1.627-2.723,2.313-4.1a4.664,4.664,0,0,0-1.984-6.187,4.681,4.681,0,0,0-6.233,1.6C-1201.88,46.459-1202.586,47.766-1203.394,49.157Zm-61.377,58.383c0-2.859.006-5.643,0-8.427-.005-1.726-.63-2.345-2.368-2.351-2.546-.008-5.091,0-7.637,0-.25,0-.5.037-.713.054ZM-1221,96.458l-6.338-3.657c-.213,2.824-.416,5.51-.636,8.431Z"/>
    <path id="Path_2186" data-name="Path 2186" d="M-1180.615,126.478h18.831c.3,0,.608-.011.909.012a1.807,1.807,0,0,1,1.743,1.757,1.834,1.834,0,0,1-1.651,1.856,6.67,6.67,0,0,1-.818.016h-38.026a6.751,6.751,0,0,1-.818-.016,1.843,1.843,0,0,1-1.653-1.855,1.807,1.807,0,0,1,1.741-1.759c.3-.023.606-.012.909-.012Z" transform="translate(-65.307 -86.44)"/>
    <path id="Path_2187" data-name="Path 2187" d="M-1180.6,238.324h18.831c.3,0,.608-.013.909.011a1.809,1.809,0,0,1,1.726,1.774,1.83,1.83,0,0,1-1.666,1.84,7.979,7.979,0,0,1-.909.017h-37.844c-1.662,0-2.524-.609-2.544-1.8-.021-1.22.852-1.846,2.575-1.846Z" transform="translate(-65.309 -177.878)"/>
    <path id="Path_2188" data-name="Path 2188" d="M-1123.494,294.218c4.548,0,9.1.007,13.645-.005a1.878,1.878,0,0,1,1.966,1.159,1.8,1.8,0,0,1-1.423,2.456,5.566,5.566,0,0,1-.907.032q-13.281,0-26.562,0c-.242,0-.487.011-.727-.012a1.833,1.833,0,0,1-1.738-1.863,1.778,1.778,0,0,1,1.83-1.757c1.819-.028,3.638-.01,5.458-.01Z" transform="translate(-116.694 -223.572)"/>
    <path id="Path_2189" data-name="Path 2189" d="M-1192.14,182.426c2.577,0,5.153,0,7.73,0,1.3,0,2.151.751,2.131,1.838a1.892,1.892,0,0,1-2.1,1.8q-7.821.013-15.642,0a1.868,1.868,0,0,1-2.076-1.808c-.012-1.108.813-1.825,2.132-1.828C-1197.354,182.421-1194.747,182.426-1192.14,182.426Z" transform="translate(-65.311 -132.181)"/>
    <path id="Path_2190" data-name="Path 2190" d="M-1138.794,406.037q3.772,0,7.544,0c1.36,0,2.151.657,2.173,1.775.023,1.159-.789,1.862-2.185,1.864q-7.545.007-15.089,0a1.887,1.887,0,0,1-2.082-1.378,1.808,1.808,0,0,1,1.912-2.256C-1143.945,406.024-1141.37,406.038-1138.794,406.037Z" transform="translate(-109.134 -314.99)"/>
    <path id="Path_2191" data-name="Path 2191" d="M-1053.07,182.425c2.181,0,4.361-.006,6.542,0a1.848,1.848,0,0,1,2.093,1.773,1.875,1.875,0,0,1-2.11,1.864q-6.587.014-13.175,0a1.839,1.839,0,0,1-2.082-1.879c.029-1.081.822-1.754,2.1-1.758C-1057.492,182.42-1055.281,182.424-1053.07,182.425Z" transform="translate(-180.004 -132.179)"/>
    <path id="Path_2192" data-name="Path 2192" d="M-1198.779,297.817c-.515,0-1.032.03-1.544-.006a1.829,1.829,0,0,1-1.771-1.828,1.79,1.79,0,0,1,1.8-1.79c1-.033,2-.032,3,0a1.752,1.752,0,0,1,1.8,1.773,1.775,1.775,0,0,1-1.733,1.846C-1197.747,297.849-1198.264,297.817-1198.779,297.817Z" transform="translate(-65.31 -223.536)"/>
    <path id="Path_2193" data-name="Path 2193" d="M-1044.545,515.569a1.862,1.862,0,0,1-1.725-1.866,1.857,1.857,0,0,1,1.92-1.76,1.807,1.807,0,0,1,1.7,1.955A1.809,1.809,0,0,1-1044.545,515.569Z" transform="translate(-192.701 -401.574)"/>
  </g>
</svg>
