<svg xmlns="http://www.w3.org/2000/svg" width="134.543" height="127.97" viewBox="0 0 134.543 127.97">
  <g id="Group_827" data-name="Group 827" transform="translate(459.036 83.694)">
    <path id="Path_2018" data-name="Path 2018" d="M-347.977-2.037c3.57-1.381,6.915-2.714,10.292-3.96a19.077,19.077,0,0,1,4.039-1.109A7.834,7.834,0,0,1-325.374-2.6a7.823,7.823,0,0,1-1.534,9.3,58.172,58.172,0,0,1-7.647,6.3q-16.052,10.528-32.311,20.737a53.367,53.367,0,0,1-16.818,7.149c-5.6,1.244-11.119.584-16.556-.757-11.975-2.954-24.153-3.151-36.37-2.993a3.782,3.782,0,0,0-.586.1,25.406,25.406,0,0,1-.365,2.848,5.233,5.233,0,0,1-5.081,4.148c-3.716.063-7.435.075-11.151,0A5.279,5.279,0,0,1-459,39q-.072-17.93,0-35.859a5.353,5.353,0,0,1,5.318-5.3c3.614-.108,7.234-.089,10.849-.007,2.568.058,4,1.256,5.481,4.215,2.463-.18,3.058-.621,3.716-2.893a1.849,1.849,0,0,0-.135-1.11c-.924-2.275-1.842-4.554-2.862-6.785a2.515,2.515,0,0,0-1.315-1.2c-2.838-1-5.715-1.882-8.573-2.823-3.09-1.018-4.381-2.774-4.4-6.023q-.032-4.9,0-9.793c.02-3.32,1.33-5.082,4.5-6.116,2.812-.917,5.641-1.788,8.428-2.778a2.714,2.714,0,0,0,1.4-1.3c.987-2.136,1.884-4.317,2.718-6.518a2.506,2.506,0,0,0-.016-1.77c-1.332-2.809-2.78-5.563-4.158-8.35a5.607,5.607,0,0,1,1.1-7.149q3.471-3.56,7.007-7.057a5.641,5.641,0,0,1,7.266-1.169c2.74,1.362,5.442,2.8,8.21,4.1a2.919,2.919,0,0,0,2.029.032c2.117-.767,4.206-1.627,6.25-2.571a2.941,2.941,0,0,0,1.442-1.455c1.056-2.921,1.954-5.9,2.954-8.842a5.459,5.459,0,0,1,5.731-4.167q5.049-.041,10.1,0a5.57,5.57,0,0,1,5.851,4.239c.972,2.846,1.922,5.7,2.819,8.571a2.385,2.385,0,0,0,1.633,1.721c2.069.754,4.059,1.724,6.125,2.485a2.909,2.909,0,0,0,2.024,0c2.772-1.293,5.475-2.732,8.218-4.089,2.909-1.438,5.042-1.078,7.368,1.223q3.375,3.337,6.724,6.7c2.4,2.4,2.737,4.559,1.2,7.63-1.323,2.647-2.712,5.262-3.963,7.942a2.956,2.956,0,0,0-.054,2.057c.791,2.162,1.686,4.291,2.648,6.383a2.715,2.715,0,0,0,1.361,1.33c2.926,1.046,5.9,1.946,8.847,2.948a5.665,5.665,0,0,1,4.245,5.864q.038,4.971,0,9.944a5.731,5.731,0,0,1-4.237,5.891c-2.947.99-5.923,1.892-8.863,2.9A2.294,2.294,0,0,0-345.3-8.875C-346.22-6.713-347.025-4.5-347.977-2.037Zm-72.1-2.011a35.136,35.136,0,0,1,10.725-49.534,35.066,35.066,0,0,1,47.339,10.16,33.743,33.743,0,0,1,4.816,29.031c-2.844,10.3-9.336,17.737-18.906,22.531l.248.479,22.642-8.6c.426-1.295.7-2.283,1.073-3.231,1.035-2.6,2.2-5.161,3.137-7.8a3.512,3.512,0,0,1,2.522-2.466c3.263-.985,6.473-2.143,9.731-3.144a2.146,2.146,0,0,0,1.718-2.419c-.056-3.062-.079-6.128.009-9.189a2.309,2.309,0,0,0-1.877-2.623c-3.306-1.016-6.571-2.167-9.873-3.194a3.093,3.093,0,0,1-2.132-2.086c-1.084-2.853-2.228-5.687-3.488-8.465a3.34,3.34,0,0,1,.052-3.259c1.623-3.056,3.128-6.173,4.743-9.234A2.069,2.069,0,0,0-348-59.9q-3.412-3.3-6.722-6.7a2.17,2.17,0,0,0-2.944-.443c-3.1,1.641-6.257,3.186-9.373,4.8a3.167,3.167,0,0,1-3,0c-2.785-1.25-5.6-2.447-8.449-3.53a3.206,3.206,0,0,1-2.2-2.205c-1.015-3.306-2.166-6.57-3.165-9.881a2.233,2.233,0,0,0-2.518-1.81c-3.063.058-6.128.066-9.191,0a2.328,2.328,0,0,0-2.581,1.954c-.984,3.263-2.1,6.486-3.111,9.741a3.251,3.251,0,0,1-2.2,2.23q-4.21,1.591-8.312,3.466a3.4,3.4,0,0,1-3.277-.022c-3.017-1.591-6.077-3.1-9.09-4.7a2.245,2.245,0,0,0-3.073.451q-3.227,3.375-6.615,6.595a2.218,2.218,0,0,0-.45,3.059c1.6,3.011,3.084,6.083,4.676,9.1a3.363,3.363,0,0,1-.009,3.265c-1.244,2.732-2.383,5.517-3.435,8.329a3.226,3.226,0,0,1-2.209,2.211c-3.3,1.024-6.578,2.145-9.881,3.17a2.249,2.249,0,0,0-1.838,2.5q.116,4.592,0,9.189a2.3,2.3,0,0,0,1.936,2.577c3.215.971,6.381,2.1,9.6,3.071a3.319,3.319,0,0,1,2.42,2.371c.763,2.277,1.723,4.488,2.608,6.723C-429.862-3-429.3-1.616-428.65,0Zm-17.254,36.96a4.376,4.376,0,0,0,.527.1c1.256,0,2.512.016,3.767,0,11.578-.11,23.076.508,34.392,3.268,5.725,1.4,11.547,1.917,17.209-.246a61.235,61.235,0,0,0,10.524-4.759c12.237-7.593,24.336-15.413,36.421-23.247a31.456,31.456,0,0,0,4.8-4.324,3.639,3.639,0,0,0,.665-4.442A3.793,3.793,0,0,0-333-3.1a10.491,10.491,0,0,0-2.606.678Q-350.5,3.286-365.371,9.038c-4.068,1.57-8.077,3.322-12.509,3.681a2.077,2.077,0,0,0-1.276.832c-2.412,3.274-5.665,4.329-9.551,3.644-1.875-.331-3.713-.865-5.583-1.232-4.172-.821-8.312-2.174-12.635-1.3-2.4.483-4.759,1.194-7.118,1.87a2.025,2.025,0,0,1-2.748-1.1,1.956,1.956,0,0,1,1.24-2.673c4.889-1.873,9.917-3.02,15.17-2.1,4.3.751,8.546,1.762,12.832,2.579a4.663,4.663,0,0,0,5.591-3.375,4.682,4.682,0,0,0-3.487-5.377c-2.107-.655-4.227-1.266-6.34-1.9-4.13-1.241-8.34-2.268-12.369-3.78a17.124,17.124,0,0,0-14.922,1.17A58.3,58.3,0,0,1-436,6.058c-1.033.2-1.366.589-1.359,1.67.051,7.985.028,15.971.028,23.956Zm58.458-28.179C-366.6.161-358.388-14.143-360.2-27.55a31.046,31.046,0,0,0-38.259-26.221c-20.581,4.923-30.223,29.565-18.433,47.078.423.627.767,1.074,1.665.806a18.212,18.212,0,0,1,10.811.36Q-394.86-2.576-385.27.258C-382.627,1.033-380.321,2.2-378.868,4.732ZM-441.453,21.1q0-8.512,0-17.024c0-1.8-.333-2.132-2.108-2.14q-4.672-.021-9.343,0c-1.6.008-2.064.443-2.066,2.067q-.022,17.024,0,34.048c0,1.741.48,2.165,2.294,2.17q4.445.013,8.891,0c1.983,0,2.334-.361,2.336-2.4Q-441.446,29.46-441.453,21.1Z" transform="translate(0 0)" fill="#886b1f"/>
    <path id="Path_2019" data-name="Path 2019" d="M-329.336,44.186l17.791-17.672c-1.149,0-2.177.02-3.2,0-1.581-.038-2.477-.776-2.485-2.009s.908-2.012,2.456-2.021c2.712-.015,5.424-.021,8.136,0,1.646.014,2.305.631,2.329,2.268.041,2.811.026,5.624,0,8.435A2.027,2.027,0,0,1-306.3,35.4c-1.122.106-1.917-.793-1.987-2.156-.056-1.1-.065-2.2-.1-3.3,0-.032-.075-.061-.6-.579a5.852,5.852,0,0,1-.785,1.452q-8.55,8.6-17.152,17.149c-1.731,1.727-2.522,1.735-4.253-.016-1.831-1.852-3.629-3.737-5.657-5.83-2.656,2.717-5.137,5.259-7.625,7.794-.844.86-1.694,1.715-2.566,2.547-1.038.99-2.234,1.088-3.071.287-.887-.847-.826-2.11.243-3.187,2.936-2.958,5.9-5.888,8.853-8.83.818-.815,1.619-1.649,2.457-2.442,1.212-1.148,2.221-1.175,3.407,0C-333.136,40.265-331.193,42.291-329.336,44.186Z" transform="translate(-63.68 -62.405)" fill="#886b1f"/>
  </g>
</svg>
