<svg width="361" height="290" viewBox="0 0 361 290" fill="none" xmlns="http://www.w3.org/2000/svg">
<path d="M35.3724 38.0252C33.7489 39.9975 32.0086 41.1583 30.114 41.5054C29.0315 41.6983 28.2969 42.317 26.2474 44.8693C24.8553 46.5705 23.1541 48.3105 22.4584 48.7359C20.6026 49.9343 20.061 50.94 20.061 53.2592C20.061 54.5353 19.7905 55.7725 19.4041 56.5071C18.708 57.6278 18.708 57.6673 19.7905 58.5958C21.1054 59.7165 22.0333 59.7555 22.9607 58.7504C24.0051 57.5901 25.3971 57.7447 26.1702 59.1368C26.8271 60.297 26.9817 60.3742 28.9922 60.838C31.0809 61.3021 30.6935 63.3903 28.3735 64.1636C27.2138 64.5501 26.7887 64.5113 25.2802 63.7385C23.0387 62.6178 21.8395 63.0811 21.2595 65.2075C20.3315 68.5323 21.2595 70.5056 23.6564 70.2726C24.7771 70.1567 24.8936 70.002 25.0095 68.7259C25.1253 67.2951 25.7828 66.7154 26.8653 67.1405C27.2905 67.2951 27.4069 67.7592 27.3292 68.7259C27.2133 70.0408 27.2905 70.1179 28.6822 70.4659C29.4556 70.6595 30.3066 71.1615 30.4999 71.5484C31.1956 72.8246 32.2012 73.0951 33.7858 72.4377C35.5258 71.742 36.0668 71.8966 36.7632 73.3269C37.266 74.3325 37.4206 74.4094 39.6629 74.4094C42.2921 74.4094 42.8337 74.7187 43.4906 76.6522C43.7998 77.6184 44.148 77.9279 45.0372 78.0053C46.5452 78.1989 46.8544 78.5463 47.1259 80.4799C47.3188 82.0652 47.3964 82.1424 48.518 82.0652C49.4841 81.9888 49.7936 82.1811 50.1416 82.9545C50.4898 83.6891 50.8377 83.8824 51.6495 83.8047C52.5005 83.7283 52.732 83.8434 52.732 84.4621C52.7316 84.6874 52.8079 84.9061 52.9486 85.082C53.0892 85.258 53.2856 85.3808 53.5054 85.4301C54.3174 85.6619 54.7043 87.1695 54.3174 88.7159C54.0856 89.6839 50.1803 93.6269 48.3244 94.7477C47.4308 95.2217 46.4362 95.4738 45.4247 95.4828C43.9939 95.4828 43.5688 95.6756 42.6796 96.6812C41.5193 98.0733 39.7793 101.359 39.7793 102.171C39.7793 102.481 40.1275 103.022 40.5527 103.409C41.1714 103.95 41.2491 104.414 41.0555 105.768C40.8237 107.469 40.8237 107.469 42.0234 107.469C43.6088 107.469 44.2649 108.59 43.686 110.253C42.6034 113.307 43.6095 116.516 46.0447 117.753C46.958 118.274 47.77 118.955 48.4416 119.764C49.64 121.156 52.1533 122.509 53.5841 122.548C54.6666 122.548 55.6335 123.553 55.6335 124.674C55.6335 125.331 55.9428 125.68 56.7933 125.95C57.4889 126.221 58.0307 126.723 58.1464 127.303C58.3787 128.077 58.6879 128.271 60.1569 128.463C61.3689 128.625 62.5164 129.106 63.4825 129.855C65.8407 131.595 67.0396 132.214 69.0114 132.562L70.7509 132.91L71.486 131.402C72.5685 129.314 72.4911 127.536 71.2537 126.376C70.4034 125.563 70.2858 125.255 70.5191 123.708C70.6724 122.549 70.5528 121.371 70.1699 120.267C69.8217 119.339 69.667 118.411 69.8217 118.14C70.9424 116.323 73.5724 113.268 74.0362 113.268C75.2734 113.268 75.5829 110.6 74.7708 107.353L74.5001 106.308L77.0906 106.384C79.527 106.461 79.7585 106.384 80.609 105.417C81.1118 104.798 81.5369 103.986 81.5369 103.599C81.5369 102.401 82.3103 102.285 83.3928 103.329C85.3651 105.223 87.7231 105.455 87.7231 103.754C87.7231 102.903 89.1925 102.362 90.8164 102.633C92.1312 102.866 92.5176 102.71 94.644 101.087C97.1186 99.2307 97.7771 97.8387 97.235 95.6736C96.8868 94.2815 97.6601 91.691 98.5494 91.1113C99.555 90.4926 99.5173 89.9905 98.356 88.9849C97.1948 87.9793 97.1576 87.3995 98.1632 86.0852C98.6655 85.4278 98.9365 84.5386 98.9365 83.3783C98.9365 82.4104 99.1294 81.4835 99.3617 81.3678C99.5935 81.2132 99.7099 80.3235 99.6709 79.3573C99.555 77.8107 99.7096 77.4243 100.792 76.3799C102.841 74.331 102.57 73.5579 98.4717 69.4208C94.9527 65.9406 94.7981 65.8247 91.3956 64.7421C88.6123 63.8919 87.6454 63.3501 86.4469 62.1516L85.0161 60.6437L81.2267 60.9142C77.0513 61.1847 75.5431 60.8378 75.0021 59.4063C74.7698 58.8258 73.0303 57.5504 70.2075 55.8873C64.9878 52.7558 62.204 50.5128 62.204 49.392C62.204 48.9664 62.8615 48 63.6348 47.2269C65.0268 45.9508 65.0268 45.8731 64.2917 45.3321C64.0464 45.1627 63.7662 45.0505 63.4718 45.0037C63.1774 44.9569 62.8762 44.9767 62.5904 45.0616C61.1215 45.448 60.2705 45.3321 59.4202 44.5975C58.7241 43.94 58.6469 43.94 57.603 44.5588C55.3602 45.8731 53.8136 45.0228 54.8961 43.0121C55.399 42.1229 55.3218 41.9678 54.3164 41.0785C53.4272 40.3057 52.9633 40.1893 51.8031 40.3829C50.6823 40.5765 50.1405 40.4216 49.0967 39.6096C47.4726 38.4498 47.1249 38.4111 45.8488 39.416C44.4957 40.4985 43.7601 40.3839 41.9434 38.875C40.1652 37.4442 38.1545 36.3227 37.3424 36.3227C37.035 36.324 36.1458 37.0973 35.3724 38.0252Z" fill="#30504A"/>
<path d="M15.0347 67.0626C14.3001 67.9128 14.8801 69.4213 16.2718 70.272C17.7408 71.24 18.5134 70.8518 18.5134 69.1895C18.5081 68.8166 18.4143 68.4502 18.2395 68.1208C18.0647 67.7913 17.8141 67.5081 17.5083 67.2946C16.2718 66.328 15.6921 66.2893 15.0347 67.0626Z" fill="#22423E"/>
<path d="M27.1368 74.0612C26.8276 74.9114 28.0266 77.0768 29.1473 77.6955C30.9263 78.6234 32.0475 77.6568 31.506 75.6461C31.0801 73.9448 27.6396 72.7463 27.1368 74.0612Z" fill="#22423E"/>
</svg>
